  0
SECTION
  2
HEADER
  9
$ACADVER
  1
AC1006
  9
$EXTMIN
 10
0.000000
 20
0.000000
 30
0.000000
  9
$EXTMAX
 10
832.000000
 20
1280.000000
 30
0.000000
  0
ENDSEC
  0
SECTION
  2
ENTITIES
  0
POLYLINE
  8
0
 66
1
 70
1
  0
VERTEX
  8
0
 10
0.496903
 20
640.000000
 42
0.000033
  0
VERTEX
  8
0
 10
0.511988
 20
410.315590
 42
0.000165
  0
VERTEX
  8
0
 10
0.571249
 20
281.720313
 42
0.997586
  0
VERTEX
  8
0
 10
0.658095
 20
281.720171
 42
0.000813
  0
VERTEX
  8
0
 10
0.749995
 20
319.750000
 42
0.000125
  0
VERTEX
  8
0
 10
0.828904
 20
465.537305
 42
0.000073
  0
VERTEX
  8
0
 10
0.854395
 20
640.000000
 42
0.000073
  0
VERTEX
  8
0
 10
0.828904
 20
814.462695
 42
0.000125
  0
VERTEX
  8
0
 10
0.749995
 20
960.250000
 42
0.000813
  0
VERTEX
  8
0
 10
0.658095
 20
998.279829
 42
0.997586
  0
VERTEX
  8
0
 10
0.571249
 20
998.279688
 42
0.000165
  0
VERTEX
  8
0
 10
0.511988
 20
869.684410
 42
0.000033
  0
SEQEND
  0
POLYLINE
  8
0
 66
1
 70
1
  0
VERTEX
  8
0
 10
831.496903
 20
640.000000
 42
0.000033
  0
VERTEX
  8
0
 10
831.511988
 20
410.315590
 42
0.000165
  0
VERTEX
  8
0
 10
831.571249
 20
281.720313
 42
0.997586
  0
VERTEX
  8
0
 10
831.658095
 20
281.720171
 42
0.000813
  0
VERTEX
  8
0
 10
831.749995
 20
319.750000
 42
0.000125
  0
VERTEX
  8
0
 10
831.828904
 20
465.537305
 42
0.000073
  0
VERTEX
  8
0
 10
831.854395
 20
640.000000
 42
0.000073
  0
VERTEX
  8
0
 10
831.828904
 20
814.462695
 42
0.000125
  0
VERTEX
  8
0
 10
831.749995
 20
960.250000
 42
0.000813
  0
VERTEX
  8
0
 10
831.658095
 20
998.279829
 42
0.997586
  0
VERTEX
  8
0
 10
831.571249
 20
998.279688
 42
0.000165
  0
VERTEX
  8
0
 10
831.511988
 20
869.684410
 42
0.000033
  0
SEQEND
  0
POLYLINE
  8
0
 66
1
 70
1
  0
VERTEX
  8
0
 10
38.000000
 20
639.771254
 42
0.000000
  0
VERTEX
  8
0
 10
38.000000
 20
33.000000
 42
0.000000
  0
VERTEX
  8
0
 10
416.000000
 20
33.000000
 42
0.000000
  0
VERTEX
  8
0
 10
794.000000
 20
33.000000
 42
0.000000
  0
VERTEX
  8
0
 10
794.000000
 20
639.750000
 42
0.000000
  0
VERTEX
  8
0
 10
794.000000
 20
1246.500000
 42
0.000000
  0
VERTEX
  8
0
 10
416.000000
 20
1246.521254
 42
0.000000
  0
VERTEX
  8
0
 10
38.000000
 20
1246.542508
 42
0.000000
  0
SEQEND
  0
POLYLINE
  8
0
 66
1
 70
1
  0
VERTEX
  8
0
 10
781.000000
 20
639.500000
 42
0.000000
  0
VERTEX
  8
0
 10
781.000000
 20
46.000000
 42
0.000000
  0
VERTEX
  8
0
 10
416.000000
 20
46.000000
 42
0.000000
  0
VERTEX
  8
0
 10
51.000000
 20
46.000000
 42
0.000000
  0
VERTEX
  8
0
 10
51.000000
 20
639.500000
 42
0.000000
  0
VERTEX
  8
0
 10
51.000000
 20
1233.000000
 42
0.000000
  0
VERTEX
  8
0
 10
416.000000
 20
1233.000000
 42
0.000000
  0
VERTEX
  8
0
 10
781.000000
 20
1233.000000
 42
0.000000
  0
SEQEND
  0
POLYLINE
  8
0
 66
1
 70
1
  0
VERTEX
  8
0
 10
402.000000
 20
1134.890287
 42
0.052711
  0
VERTEX
  8
0
 10
364.082705
 20
1128.668712
 42
0.048857
  0
VERTEX
  8
0
 10
327.269757
 20
1114.576629
 42
0.048579
  0
VERTEX
  8
0
 10
293.693250
 20
1093.511314
 42
0.050793
  0
VERTEX
  8
0
 10
265.359895
 20
1066.641627
 42
0.026439
  0
VERTEX
  8
0
 10
251.438681
 20
1048.613058
 42
0.028039
  0
VERTEX
  8
0
 10
239.790911
 20
1029.555861
 42
0.028442
  0
VERTEX
  8
0
 10
230.492696
 20
1009.581960
 42
0.029020
  0
VERTEX
  8
0
 10
223.592161
 20
988.814035
 42
0.029586
  0
VERTEX
  8
0
 10
218.910037
 20
966.137670
 42
0.027799
  0
VERTEX
  8
0
 10
216.811582
 20
942.589098
 42
0.027894
  0
VERTEX
  8
0
 10
217.341132
 20
919.037881
 42
0.030339
  0
VERTEX
  8
0
 10
220.512722
 20
896.353903
 42
0.066329
  0
VERTEX
  8
0
 10
237.376144
 20
847.446935
 42
0.064192
  0
VERTEX
  8
0
 10
266.596485
 20
804.060678
 42
0.064422
  0
VERTEX
  8
0
 10
305.753727
 20
769.633403
 42
0.067702
  0
VERTEX
  8
0
 10
351.755636
 20
746.993816
 42
0.078428
  0
VERTEX
  8
0
 10
414.674155
 20
736.477534
 42
0.080391
  0
VERTEX
  8
0
 10
477.207704
 20
746.015707
 42
0.080391
  0
VERTEX
  8
0
 10
533.541223
 20
774.789824
 42
0.078429
  0
VERTEX
  8
0
 10
578.476176
 20
820.068579
 42
0.029889
  0
VERTEX
  8
0
 10
589.909636
 20
838.092663
 42
0.026380
  0
VERTEX
  8
0
 10
599.645383
 20
858.104900
 42
0.026124
  0
VERTEX
  8
0
 10
607.310400
 20
879.247808
 42
0.027753
  0
VERTEX
  8
0
 10
612.550687
 20
900.655074
 42
0.031017
  0
VERTEX
  8
0
 10
614.076979
 20
913.045747
 42
0.010917
  0
VERTEX
  8
0
 10
614.770560
 20
930.951565
 42
0.011090
  0
VERTEX
  8
0
 10
614.674270
 20
949.127938
 42
0.025844
  0
VERTEX
  8
0
 10
613.598143
 20
962.695004
 42
0.082261
  0
VERTEX
  8
0
 10
594.964536
 20
1024.020620
 42
0.080572
  0
VERTEX
  8
0
 10
557.462908
 20
1076.558247
 42
0.080771
  0
VERTEX
  8
0
 10
505.371495
 20
1114.449375
 42
0.083276
  0
VERTEX
  8
0
 10
444.500000
 20
1133.380338
 42
0.011836
  0
VERTEX
  8
0
 10
433.941916
 20
1134.564354
 42
0.013124
  0
VERTEX
  8
0
 10
423.697000
 20
1135.197878
 42
0.012831
  0
VERTEX
  8
0
 10
413.229763
 20
1135.301014
 42
0.010376
  0
SEQEND
  0
POLYLINE
  8
0
 66
1
 70
1
  0
VERTEX
  8
0
 10
444.000000
 20
1093.462356
 42
-0.013312
  0
VERTEX
  8
0
 10
448.458284
 20
1092.553639
 42
-0.006523
  0
VERTEX
  8
0
 10
454.087500
 20
1091.171657
 42
-0.006467
  0
VERTEX
  8
0
 10
459.903884
 20
1089.582443
 42
-0.009336
  0
VERTEX
  8
0
 10
465.000000
 20
1088.015380
 42
-0.026176
  0
VERTEX
  8
0
 10
483.080538
 20
1081.016434
 42
-0.032888
  0
VERTEX
  8
0
 10
498.949661
 20
1072.604426
 42
-0.032827
  0
VERTEX
  8
0
 10
513.602127
 20
1062.170248
 42
-0.025920
  0
VERTEX
  8
0
 10
528.028447
 20
1049.096178
 42
-0.033807
  0
VERTEX
  8
0
 10
544.724615
 20
1029.871193
 42
-0.040721
  0
VERTEX
  8
0
 10
557.556116
 20
1009.680774
 42
-0.040412
  0
VERTEX
  8
0
 10
567.018022
 20
987.545756
 42
-0.032473
  0
VERTEX
  8
0
 10
573.633864
 20
962.500000
 42
-0.033733
  0
VERTEX
  8
0
 10
575.149401
 20
950.524883
 42
-0.016591
  0
VERTEX
  8
0
 10
575.537569
 20
935.166010
 42
-0.016597
  0
VERTEX
  8
0
 10
574.900652
 20
919.679031
 42
-0.030957
  0
VERTEX
  8
0
 10
573.196673
 20
907.244598
 42
-0.014005
  0
VERTEX
  8
0
 10
570.712614
 20
896.445487
 42
-0.016444
  0
VERTEX
  8
0
 10
567.739727
 20
886.372394
 42
-0.016963
  0
VERTEX
  8
0
 10
564.203945
 20
876.798971
 42
-0.017030
  0
VERTEX
  8
0
 10
560.031486
 20
867.500000
 42
-0.015816
  0
VERTEX
  8
0
 10
555.568873
 20
859.082026
 42
-0.009461
  0
VERTEX
  8
0
 10
549.764390
 20
849.354824
 42
-0.002960
  0
VERTEX
  8
0
 10
543.730725
 20
839.791662
 42
-0.255881
  0
VERTEX
  8
0
 10
542.285077
 20
839.000000
 42
-0.197982
  0
VERTEX
  8
0
 10
541.732971
 20
839.227533
 42
-0.000017
  0
VERTEX
  8
0
 10
509.010471
 20
871.718757
 42
-0.000550
  0
VERTEX
  8
0
 10
472.880831
 20
907.674559
 42
-0.000332
  0
VERTEX
  8
0
 10
430.116993
 20
950.383003
 42
-0.000595
  0
VERTEX
  8
0
 10
381.656751
 20
998.960271
 42
-0.001603
  0
VERTEX
  8
0
 10
347.357091
 20
1033.646450
 42
-0.000146
  0
VERTEX
  8
0
 10
319.606988
 20
1061.906266
 42
-0.345203
  0
VERTEX
  8
0
 10
319.487163
 20
1062.979229
 42
-0.109097
  0
VERTEX
  8
0
 10
321.568702
 20
1065.121976
 42
-0.005282
  0
VERTEX
  8
0
 10
329.973017
 20
1070.532464
 42
-0.009526
  0
VERTEX
  8
0
 10
338.836195
 20
1075.873915
 42
-0.017220
  0
VERTEX
  8
0
 10
346.316668
 20
1079.853181
 42
-0.024732
  0
VERTEX
  8
0
 10
358.738757
 20
1085.178431
 42
-0.020819
  0
VERTEX
  8
0
 10
372.355599
 20
1089.599049
 42
-0.020005
  0
VERTEX
  8
0
 10
386.873873
 20
1093.033256
 42
-0.018512
  0
VERTEX
  8
0
 10
402.000000
 20
1095.400665
 42
-0.034005
  0
VERTEX
  8
0
 10
409.356629
 20
1095.770642
 42
-0.007096
  0
VERTEX
  8
0
 10
422.274835
 20
1095.358075
 42
-0.007632
  0
VERTEX
  8
0
 10
435.343876
 20
1094.554866
 42
-0.024456
  0
SEQEND
  0
POLYLINE
  8
0
 66
1
 70
1
  0
VERTEX
  8
0
 10
401.746178
 20
921.470584
 42
-0.000632
  0
VERTEX
  8
0
 10
444.395908
 20
878.638410
 42
-0.001052
  0
VERTEX
  8
0
 10
480.208136
 20
842.429913
 42
-0.000046
  0
VERTEX
  8
0
 10
512.428774
 20
809.709381
 42
-0.345652
  0
VERTEX
  8
0
 10
512.507251
 20
809.011733
 42
-0.110700
  0
VERTEX
  8
0
 10
510.612113
 20
807.073190
 42
-0.004499
  0
VERTEX
  8
0
 10
502.304050
 20
801.780512
 42
-0.008733
  0
VERTEX
  8
0
 10
493.570514
 20
796.536395
 42
-0.015074
  0
VERTEX
  8
0
 10
486.105119
 20
792.524237
 42
-0.027818
  0
VERTEX
  8
0
 10
469.251535
 20
785.251615
 42
-0.032498
  0
VERTEX
  8
0
 10
452.538132
 20
780.322601
 42
-0.031665
  0
VERTEX
  8
0
 10
434.959769
 20
777.512829
 42
-0.024195
  0
VERTEX
  8
0
 10
415.500000
 20
776.601220
 42
-0.005005
  0
VERTEX
  8
0
 10
405.207383
 20
776.720393
 42
-0.016548
  0
VERTEX
  8
0
 10
398.438266
 20
777.090897
 42
-0.019932
  0
VERTEX
  8
0
 10
392.393219
 20
777.866650
 42
-0.010149
  0
VERTEX
  8
0
 10
384.866512
 20
779.296925
 42
-0.058642
  0
VERTEX
  8
0
 10
347.793299
 20
791.798432
 42
-0.061268
  0
VERTEX
  8
0
 10
315.229309
 20
812.431458
 42
-0.061093
  0
VERTEX
  8
0
 10
288.560401
 20
840.400441
 42
-0.057739
  0
VERTEX
  8
0
 10
268.844599
 20
874.500000
 42
-0.061644
  0
VERTEX
  8
0
 10
258.325856
 20
910.304737
 42
-0.060200
  0
VERTEX
  8
0
 10
256.733070
 20
947.888613
 42
-0.059619
  0
VERTEX
  8
0
 10
264.160138
 20
985.100798
 42
-0.058322
  0
VERTEX
  8
0
 10
280.187126
 20
1019.807585
 42
-0.007679
  0
VERTEX
  8
0
 10
283.457583
 20
1024.972499
 42
-0.012766
  0
VERTEX
  8
0
 10
286.389363
 20
1029.208910
 42
-0.007555
  0
VERTEX
  8
0
 10
288.910865
 20
1032.553427
 42
-0.231424
  0
VERTEX
  8
0
 10
289.824030
 20
1033.000000
 42
-0.198446
  0
VERTEX
  8
0
 10
290.235280
 20
1032.830087
 42
-0.000010
  0
VERTEX
  8
0
 10
322.943155
 20
1000.238234
 42
-0.000410
  0
VERTEX
  8
0
 10
359.013403
 20
964.235546
 42
-0.000247
  0
SEQEND
  0
POLYLINE
  8
0
 66
1
 70
1
  0
VERTEX
  8
0
 10
594.807575
 20
576.566134
 42
0.000000
  0
VERTEX
  8
0
 10
601.500000
 20
565.053244
 42
0.000000
  0
VERTEX
  8
0
 10
606.104484
 20
565.026622
 42
0.000000
  0
VERTEX
  8
0
 10
610.708968
 20
565.000000
 42
0.000000
  0
VERTEX
  8
0
 10
607.560737
 20
576.250000
 42
0.000000
  0
VERTEX
  8
0
 10
604.412506
 20
587.500000
 42
0.000000
  0
VERTEX
  8
0
 10
596.263828
 20
587.789512
 42
0.000000
  0
VERTEX
  8
0
 10
588.115150
 20
588.079024
 42
0.000000
  0
SEQEND
  0
POLYLINE
  8
0
 66
1
 70
1
  0
VERTEX
  8
0
 10
94.758049
 20
579.348951
 42
0.005055
  0
VERTEX
  8
0
 10
94.663822
 20
575.610957
 42
0.001202
  0
VERTEX
  8
0
 10
94.584806
 20
569.384233
 42
0.001236
  0
VERTEX
  8
0
 10
94.528898
 20
562.229458
 42
0.001220
  0
VERTEX
  8
0
 10
94.508049
 20
555.044184
 42
0.000000
  0
VERTEX
  8
0
 10
94.500000
 20
537.588368
 42
0.000000
  0
VERTEX
  8
0
 10
91.000000
 20
537.512873
 42
0.000000
  0
VERTEX
  8
0
 10
87.500000
 20
537.437378
 42
0.000000
  0
VERTEX
  8
0
 10
87.207460
 20
530.281590
 42
0.000000
  0
VERTEX
  8
0
 10
86.914920
 20
523.125803
 42
0.000000
  0
VERTEX
  8
0
 10
90.707460
 20
522.812901
 42
0.000000
  0
VERTEX
  8
0
 10
94.500000
 20
522.500000
 42
0.000000
  0
VERTEX
  8
0
 10
94.240086
 20
498.250000
 42
0.000000
  0
VERTEX
  8
0
 10
93.980173
 20
474.000000
 42
0.000000
  0
VERTEX
  8
0
 10
109.547266
 20
474.000000
 42
0.006445
  0
VERTEX
  8
0
 10
115.828702
 20
474.080966
 42
0.007375
  0
VERTEX
  8
0
 10
121.829414
 20
474.324294
 42
0.006735
  0
VERTEX
  8
0
 10
126.907084
 20
474.673921
 42
0.041137
  0
VERTEX
  8
0
 10
129.498657
 20
475.103979
 42
0.070087
  0
VERTEX
  8
0
 10
134.118393
 20
476.984720
 42
0.058865
  0
VERTEX
  8
0
 10
138.349310
 20
480.162275
 42
0.052371
  0
VERTEX
  8
0
 10
142.136645
 20
484.618859
 42
0.037039
  0
VERTEX
  8
0
 10
145.434965
 20
490.304017
 42
0.034354
  0
VERTEX
  8
0
 10
148.699085
 20
498.406112
 42
0.035593
  0
VERTEX
  8
0
 10
150.777251
 20
506.784114
 42
0.029400
  0
VERTEX
  8
0
 10
151.899941
 20
516.659232
 42
0.013841
  0
VERTEX
  8
0
 10
152.243387
 20
529.500000
 42
0.027284
  0
VERTEX
  8
0
 10
151.153327
 20
549.123072
 42
0.054396
  0
VERTEX
  8
0
 10
147.782275
 20
564.288336
 42
0.071454
  0
VERTEX
  8
0
 10
142.132234
 20
575.408983
 42
0.107058
  0
VERTEX
  8
0
 10
134.152446
 20
582.765016
 42
0.039579
  0
VERTEX
  8
0
 10
130.868943
 20
584.360565
 42
0.058398
  0
VERTEX
  8
0
 10
127.772597
 20
585.172822
 42
0.027147
  0
VERTEX
  8
0
 10
123.175698
 20
585.567292
 42
0.002774
  0
VERTEX
  8
0
 10
112.250000
 20
585.848951
 42
0.000000
  0
VERTEX
  8
0
 10
95.000000
 20
586.197902
 42
0.000000
  0
SEQEND
  0
POLYLINE
  8
0
 66
1
 70
1
  0
VERTEX
  8
0
 10
128.601443
 20
564.525489
 42
-0.109469
  0
VERTEX
  8
0
 10
131.436500
 20
561.617422
 42
-0.044922
  0
VERTEX
  8
0
 10
133.920269
 20
556.664556
 42
-0.038414
  0
VERTEX
  8
0
 10
135.890148
 20
550.256935
 42
-0.027001
  0
VERTEX
  8
0
 10
137.148150
 20
542.815816
 42
-0.024734
  0
VERTEX
  8
0
 10
137.714546
 20
533.982288
 42
-0.015444
  0
VERTEX
  8
0
 10
137.545386
 20
523.612153
 42
-0.015417
  0
VERTEX
  8
0
 10
136.768599
 20
513.677161
 42
-0.036502
  0
VERTEX
  8
0
 10
135.427365
 20
506.382445
 42
-0.051418
  0
VERTEX
  8
0
 10
132.891582
 20
499.595188
 42
-0.129073
  0
VERTEX
  8
0
 10
129.446595
 20
495.643677
 42
-0.114059
  0
VERTEX
  8
0
 10
124.212889
 20
493.614257
 42
-0.035502
  0
VERTEX
  8
0
 10
115.750000
 20
493.005577
 42
0.000000
  0
VERTEX
  8
0
 10
109.000000
 20
493.000000
 42
0.000000
  0
VERTEX
  8
0
 10
109.000000
 20
508.000000
 42
0.000000
  0
VERTEX
  8
0
 10
109.000000
 20
523.000000
 42
0.000000
  0
VERTEX
  8
0
 10
116.000000
 20
523.000000
 42
0.000000
  0
VERTEX
  8
0
 10
123.000000
 20
523.000000
 42
0.000000
  0
VERTEX
  8
0
 10
123.000000
 20
530.000000
 42
0.005838
  0
VERTEX
  8
0
 10
122.947976
 20
534.455204
 42
0.078688
  0
VERTEX
  8
0
 10
122.656250
 20
536.054688
 42
0.215454
  0
VERTEX
  8
0
 10
121.937918
 20
536.807634
 42
0.083831
  0
VERTEX
  8
0
 10
120.500000
 20
537.125000
 42
-0.007105
  0
VERTEX
  8
0
 10
119.469531
 20
537.191214
 42
-0.007090
  0
VERTEX
  8
0
 10
118.440625
 20
537.286719
 42
-0.006969
  0
VERTEX
  8
0
 10
117.544666
 20
537.395365
 42
-0.027599
  0
VERTEX
  8
0
 10
117.000000
 20
537.500000
 42
0.034699
  0
VERTEX
  8
0
 10
116.411121
 20
537.604489
 42
0.005775
  0
VERTEX
  8
0
 10
115.265625
 20
537.713281
 42
0.006310
  0
VERTEX
  8
0
 10
113.913319
 20
537.808807
 42
0.005551
  0
VERTEX
  8
0
 10
112.500000
 20
537.875000
 42
0.000000
  0
VERTEX
  8
0
 10
109.000000
 20
538.000000
 42
0.000000
  0
VERTEX
  8
0
 10
109.000000
 20
552.640957
 42
0.000000
  0
VERTEX
  8
0
 10
109.000000
 20
567.281914
 42
0.000000
  0
VERTEX
  8
0
 10
117.507336
 20
566.751160
 42
-0.012367
  0
VERTEX
  8
0
 10
121.346678
 20
566.416141
 42
-0.021558
  0
VERTEX
  8
0
 10
124.503503
 20
565.923265
 42
-0.025804
  0
VERTEX
  8
0
 10
126.970945
 20
565.294313
 42
-0.069828
  0
SEQEND
  0
POLYLINE
  8
0
 66
1
 70
1
  0
VERTEX
  8
0
 10
358.809017
 20
585.250000
 42
0.096541
  0
VERTEX
  8
0
 10
358.682281
 20
584.619424
 42
0.000078
  0
VERTEX
  8
0
 10
358.590774
 20
568.564062
 42
0.000860
  0
VERTEX
  8
0
 10
358.522243
 20
550.641048
 42
0.000526
  0
VERTEX
  8
0
 10
358.500000
 20
529.500000
 42
0.000000
  0
VERTEX
  8
0
 10
358.500000
 20
474.500000
 42
0.000000
  0
VERTEX
  8
0
 10
364.750000
 20
474.202283
 42
0.000000
  0
VERTEX
  8
0
 10
371.000000
 20
473.904565
 42
0.000000
  0
VERTEX
  8
0
 10
371.000000
 20
479.102321
 42
0.000000
  0
VERTEX
  8
0
 10
371.000000
 20
484.300077
 42
0.000000
  0
VERTEX
  8
0
 10
373.980152
 20
480.186096
 42
0.033806
  0
VERTEX
  8
0
 10
376.953938
 20
476.615814
 42
0.068093
  0
VERTEX
  8
0
 10
379.814330
 20
474.336893
 42
0.077518
  0
VERTEX
  8
0
 10
382.921543
 20
473.088500
 42
0.056888
  0
VERTEX
  8
0
 10
386.617124
 20
472.666667
 42
0.064282
  0
VERTEX
  8
0
 10
390.372927
 20
473.151530
 42
0.083266
  0
VERTEX
  8
0
 10
393.535197
 20
474.574813
 42
0.067760
  0
VERTEX
  8
0
 10
396.512530
 20
477.209322
 42
0.028776
  0
VERTEX
  8
0
 10
399.758711
 20
481.448030
 42
0.043498
  0
VERTEX
  8
0
 10
403.245578
 20
487.695105
 42
0.056252
  0
VERTEX
  8
0
 10
405.245457
 20
493.943503
 42
0.039179
  0
VERTEX
  8
0
 10
406.216477
 20
502.060921
 42
0.010637
  0
VERTEX
  8
0
 10
406.468368
 20
515.000000
 42
0.003854
  0
VERTEX
  8
0
 10
406.374137
 20
524.903671
 42
0.018404
  0
VERTEX
  8
0
 10
406.068803
 20
530.549962
 42
0.030265
  0
VERTEX
  8
0
 10
405.435774
 20
534.700860
 42
0.028490
  0
VERTEX
  8
0
 10
404.297842
 20
538.831569
 42
0.029003
  0
VERTEX
  8
0
 10
401.939872
 20
544.671195
 42
0.048330
  0
VERTEX
  8
0
 10
399.222976
 20
549.220750
 42
0.056525
  0
VERTEX
  8
0
 10
396.049071
 20
552.642378
 42
0.064883
  0
VERTEX
  8
0
 10
392.323955
 20
555.085222
 42
0.084507
  0
VERTEX
  8
0
 10
387.144427
 20
556.587112
 42
0.105905
  0
VERTEX
  8
0
 10
382.178333
 20
556.101831
 42
0.100559
  0
VERTEX
  8
0
 10
377.658211
 20
553.580123
 42
0.069723
  0
VERTEX
  8
0
 10
373.778439
 20
549.176617
 42
-0.312410
  0
VERTEX
  8
0
 10
372.882486
 20
548.816518
 42
-0.321414
  0
VERTEX
  8
0
 10
372.250715
 20
549.529073
 42
-0.024588
  0
VERTEX
  8
0
 10
372.041398
 20
553.384165
 42
-0.001186
  0
VERTEX
  8
0
 10
372.006589
 20
566.250000
 42
0.000000
  0
VERTEX
  8
0
 10
372.000000
 20
586.000000
 42
0.000000
  0
VERTEX
  8
0
 10
365.559017
 20
586.000000
 42
0.010893
  0
VERTEX
  8
0
 10
363.068174
 20
585.945726
 42
0.016773
  0
VERTEX
  8
0
 10
360.919299
 20
585.779688
 42
0.011285
  0
VERTEX
  8
0
 10
359.186034
 20
585.547396
 42
0.261790
  0
SEQEND
  0
POLYLINE
  8
0
 66
1
 70
1
  0
VERTEX
  8
0
 10
387.224423
 20
538.250000
 42
-0.053186
  0
VERTEX
  8
0
 10
389.340799
 20
535.244870
 42
-0.044019
  0
VERTEX
  8
0
 10
390.935606
 20
531.667136
 42
-0.037241
  0
VERTEX
  8
0
 10
392.078954
 20
527.314780
 42
-0.021522
  0
VERTEX
  8
0
 10
392.831552
 20
521.951275
 42
-0.025017
  0
VERTEX
  8
0
 10
393.152919
 20
515.022479
 42
-0.018415
  0
VERTEX
  8
0
 10
392.841718
 20
507.342725
 42
-0.016833
  0
VERTEX
  8
0
 10
392.069450
 20
500.413198
 42
-0.082922
  0
VERTEX
  8
0
 10
390.873672
 20
496.681709
 42
-0.066093
  0
VERTEX
  8
0
 10
387.880768
 20
492.377328
 42
-0.140263
  0
VERTEX
  8
0
 10
384.455328
 20
490.265279
 42
-0.174380
  0
VERTEX
  8
0
 10
380.948940
 20
490.516326
 42
-0.114124
  0
VERTEX
  8
0
 10
377.674830
 20
492.974596
 42
-0.058102
  0
VERTEX
  8
0
 10
375.107227
 20
496.864400
 42
-0.060460
  0
VERTEX
  8
0
 10
373.545095
 20
501.189653
 42
-0.042741
  0
VERTEX
  8
0
 10
372.735945
 20
506.915509
 42
-0.013740
  0
VERTEX
  8
0
 10
372.500000
 20
515.500000
 42
-0.025827
  0
VERTEX
  8
0
 10
373.079278
 20
526.707228
 42
-0.076130
  0
VERTEX
  8
0
 10
375.022112
 20
534.152672
 42
-0.129198
  0
VERTEX
  8
0
 10
378.358171
 20
538.414154
 42
-0.163852
  0
VERTEX
  8
0
 10
383.067519
 20
540.000000
 42
-0.057473
  0
VERTEX
  8
0
 10
384.184202
 20
539.871216
 42
-0.042231
  0
VERTEX
  8
0
 10
385.370393
 20
539.485937
 42
-0.042961
  0
VERTEX
  8
0
 10
386.445494
 20
538.920292
 42
-0.070302
  0
SEQEND
  0
POLYLINE
  8
0
 66
1
 70
1
  0
VERTEX
  8
0
 10
417.000000
 20
576.000000
 42
0.000000
  0
VERTEX
  8
0
 10
417.000000
 20
566.000000
 42
0.000000
  0
VERTEX
  8
0
 10
424.000000
 20
566.000000
 42
0.000000
  0
VERTEX
  8
0
 10
431.000000
 20
566.000000
 42
0.000000
  0
VERTEX
  8
0
 10
431.000000
 20
576.000000
 42
0.000000
  0
VERTEX
  8
0
 10
431.000000
 20
586.000000
 42
0.000000
  0
VERTEX
  8
0
 10
424.000000
 20
586.000000
 42
0.000000
  0
VERTEX
  8
0
 10
417.000000
 20
586.000000
 42
0.000000
  0
SEQEND
  0
POLYLINE
  8
0
 66
1
 70
1
  0
VERTEX
  8
0
 10
469.666667
 20
585.333333
 42
0.195618
  0
VERTEX
  8
0
 10
469.393492
 20
584.685481
 42
0.000195
  0
VERTEX
  8
0
 10
469.195833
 20
568.608333
 42
0.001848
  0
VERTEX
  8
0
 10
469.047979
 20
550.596465
 42
0.001128
  0
VERTEX
  8
0
 10
469.000000
 20
529.333333
 42
0.000000
  0
VERTEX
  8
0
 10
469.000000
 20
474.000000
 42
0.000000
  0
VERTEX
  8
0
 10
476.000000
 20
474.000000
 42
0.000000
  0
VERTEX
  8
0
 10
483.000000
 20
474.000000
 42
0.000000
  0
VERTEX
  8
0
 10
483.017052
 20
487.250000
 42
-0.004127
  0
VERTEX
  8
0
 10
483.097445
 20
495.676075
 42
-0.036273
  0
VERTEX
  8
0
 10
483.433580
 20
499.388069
 42
-0.065090
  0
VERTEX
  8
0
 10
484.260968
 20
502.132452
 42
-0.028708
  0
VERTEX
  8
0
 10
486.015071
 20
505.500000
 42
-0.007274
  0
VERTEX
  8
0
 10
487.691578
 20
508.221229
 42
-0.076148
  0
VERTEX
  8
0
 10
488.551705
 20
509.204466
 42
-0.366161
  0
VERTEX
  8
0
 10
489.120768
 20
509.203377
 42
-0.147188
  0
VERTEX
  8
0
 10
489.576197
 20
508.500000
 42
0.012442
  0
VERTEX
  8
0
 10
490.012890
 20
507.123540
 42
0.000550
  0
VERTEX
  8
0
 10
491.652033
 20
502.387500
 42
0.000929
  0
VERTEX
  8
0
 10
493.613149
 20
496.774954
 42
0.000664
  0
VERTEX
  8
0
 10
495.828179
 20
490.500000
 42
0.000000
  0
VERTEX
  8
0
 10
501.500000
 20
474.500000
 42
0.000000
  0
VERTEX
  8
0
 10
508.750000
 20
474.206190
 42
0.010134
  0
VERTEX
  8
0
 10
511.908377
 20
474.142272
 42
0.027258
  0
VERTEX
  8
0
 10
514.150843
 20
474.264687
 42
0.034609
  0
VERTEX
  8
0
 10
515.635765
 20
474.532179
 42
0.343469
  0
VERTEX
  8
0
 10
516.000000
 20
474.999859
 42
0.078290
  0
VERTEX
  8
0
 10
515.882041
 20
475.748588
 42
0.002805
  0
VERTEX
  8
0
 10
514.970453
 20
478.516693
 42
0.005107
  0
VERTEX
  8
0
 10
513.837986
 20
481.780735
 42
0.003550
  0
VERTEX
  8
0
 10
512.495158
 20
485.444965
 42
-0.001927
  0
VERTEX
  8
0
 10
510.774724
 20
490.092822
 42
-0.000740
  0
VERTEX
  8
0
 10
508.419101
 20
496.562472
 42
-0.000733
  0
VERTEX
  8
0
 10
505.884054
 20
503.589257
 42
-0.000903
  0
VERTEX
  8
0
 10
503.540912
 20
510.151297
 42
0.000000
  0
VERTEX
  8
0
 10
498.091507
 20
525.500000
 42
0.000000
  0
VERTEX
  8
0
 10
506.182693
 20
539.500000
 42
0.000057
  0
VERTEX
  8
0
 10
509.314331
 20
544.920027
 42
0.000088
  0
VERTEX
  8
0
 10
512.021079
 20
549.607813
 42
0.000027
  0
VERTEX
  8
0
 10
514.370490
 20
553.678883
 42
0.002691
  0
VERTEX
  8
0
 10
514.695957
 20
554.250000
 42
0.529396
  0
VERTEX
  8
0
 10
514.548054
 20
554.547640
 42
0.010442
  0
VERTEX
  8
0
 10
512.553275
 20
554.777975
 42
0.015217
  0
VERTEX
  8
0
 10
509.966426
 20
554.942839
 42
0.008479
  0
VERTEX
  8
0
 10
506.809017
 20
554.994171
 42
0.000000
  0
VERTEX
  8
0
 10
498.500000
 20
554.988343
 42
0.000000
  0
VERTEX
  8
0
 10
490.770137
 20
541.244171
 42
0.000000
  0
VERTEX
  8
0
 10
483.040274
 20
527.500000
 42
0.000000
  0
VERTEX
  8
0
 10
483.020137
 20
556.750000
 42
0.000000
  0
VERTEX
  8
0
 10
483.000000
 20
586.000000
 42
0.000000
  0
VERTEX
  8
0
 10
476.666667
 20
586.000000
 42
0.009794
  0
VERTEX
  8
0
 10
474.191870
 20
585.951520
 42
0.013945
  0
VERTEX
  8
0
 10
471.997917
 20
585.804167
 42
0.009871
  0
VERTEX
  8
0
 10
470.198767
 20
585.596907
 42
0.164193
  0
SEQEND
  0
POLYLINE
  8
0
 66
1
 70
1
  0
VERTEX
  8
0
 10
523.666667
 20
585.333333
 42
0.195618
  0
VERTEX
  8
0
 10
523.393492
 20
584.685481
 42
0.000195
  0
VERTEX
  8
0
 10
523.195833
 20
568.608333
 42
0.001848
  0
VERTEX
  8
0
 10
523.047979
 20
550.596465
 42
0.001128
  0
VERTEX
  8
0
 10
523.000000
 20
529.333333
 42
0.000000
  0
VERTEX
  8
0
 10
523.000000
 20
474.000000
 42
0.000000
  0
VERTEX
  8
0
 10
529.930407
 20
474.000000
 42
0.000000
  0
VERTEX
  8
0
 10
536.860814
 20
474.000000
 42
0.000000
  0
VERTEX
  8
0
 10
537.190837
 20
502.250000
 42
-0.001650
  0
VERTEX
  8
0
 10
537.437935
 20
518.741206
 42
-0.012719
  0
VERTEX
  8
0
 10
537.775563
 20
526.458722
 42
-0.027447
  0
VERTEX
  8
0
 10
538.348221
 20
531.051852
 42
-0.074144
  0
VERTEX
  8
0
 10
539.400915
 20
534.156205
 42
-0.082223
  0
VERTEX
  8
0
 10
542.251683
 20
537.992870
 42
-0.145009
  0
VERTEX
  8
0
 10
545.725264
 20
539.799844
 42
-0.166477
  0
VERTEX
  8
0
 10
549.277952
 20
539.305500
 42
-0.116188
  0
VERTEX
  8
0
 10
552.399674
 20
536.678637
 42
-0.102612
  0
VERTEX
  8
0
 10
553.628714
 20
534.036675
 42
-0.039519
  0
VERTEX
  8
0
 10
554.243913
 20
530.018307
 42
-0.014570
  0
VERTEX
  8
0
 10
554.562453
 20
522.747362
 42
-0.001221
  0
VERTEX
  8
0
 10
554.792071
 20
503.928637
 42
0.000000
  0
VERTEX
  8
0
 10
555.084143
 20
474.000000
 42
0.000000
  0
VERTEX
  8
0
 10
562.042071
 20
474.000000
 42
0.000000
  0
VERTEX
  8
0
 10
569.000000
 20
474.000000
 42
0.000000
  0
VERTEX
  8
0
 10
568.979893
 20
502.250000
 42
0.003869
  0
VERTEX
  8
0
 10
568.810452
 20
522.302248
 42
0.017956
  0
VERTEX
  8
0
 10
568.207435
 20
533.867060
 42
0.031382
  0
VERTEX
  8
0
 10
567.034408
 20
541.589464
 42
0.059407
  0
VERTEX
  8
0
 10
564.984659
 20
547.531690
 42
0.114868
  0
VERTEX
  8
0
 10
559.816654
 20
553.928072
 42
0.145499
  0
VERTEX
  8
0
 10
552.774405
 20
556.688049
 42
0.145897
  0
VERTEX
  8
0
 10
545.382720
 20
555.149616
 42
0.115700
  0
VERTEX
  8
0
 10
539.250000
 20
549.712742
 42
0.000000
  0
VERTEX
  8
0
 10
537.000000
 20
546.528163
 42
0.000000
  0
VERTEX
  8
0
 10
537.000000
 20
566.264082
 42
0.000000
  0
VERTEX
  8
0
 10
537.000000
 20
586.000000
 42
0.000000
  0
VERTEX
  8
0
 10
530.666667
 20
586.000000
 42
0.009794
  0
VERTEX
  8
0
 10
528.191870
 20
585.951520
 42
0.013945
  0
VERTEX
  8
0
 10
525.997917
 20
585.804167
 42
0.009871
  0
VERTEX
  8
0
 10
524.198767
 20
585.596907
 42
0.164193
  0
SEQEND
  0
POLYLINE
  8
0
 66
1
 70
1
  0
VERTEX
  8
0
 10
175.500000
 20
555.996007
 42
0.087552
  0
VERTEX
  8
0
 10
171.285861
 20
553.806125
 42
0.067514
  0
VERTEX
  8
0
 10
167.628821
 20
550.124662
 42
0.058069
  0
VERTEX
  8
0
 10
164.641223
 20
545.040108
 42
0.039315
  0
VERTEX
  8
0
 10
162.418900
 20
538.689960
 42
0.011436
  0
VERTEX
  8
0
 10
161.844888
 20
536.294402
 42
0.048582
  0
VERTEX
  8
0
 10
161.675692
 20
534.832466
 42
0.100179
  0
VERTEX
  8
0
 10
161.837454
 20
533.951310
 42
0.221692
  0
VERTEX
  8
0
 10
162.324674
 20
533.494478
 42
0.013820
  0
VERTEX
  8
0
 10
164.799392
 20
532.758002
 42
0.005983
  0
VERTEX
  8
0
 10
168.129670
 20
531.908890
 42
0.003828
  0
VERTEX
  8
0
 10
171.405302
 20
531.141837
 42
0.054376
  0
VERTEX
  8
0
 10
172.598310
 20
531.005577
 42
0.217335
  0
VERTEX
  8
0
 10
173.117737
 20
531.239370
 42
0.032465
  0
VERTEX
  8
0
 10
173.833406
 20
532.171195
 42
0.031557
  0
VERTEX
  8
0
 10
174.581457
 20
533.456911
 42
0.022393
  0
VERTEX
  8
0
 10
175.260586
 20
534.981469
 42
-0.103915
  0
VERTEX
  8
0
 10
177.746713
 20
538.764697
 42
-0.144148
  0
VERTEX
  8
0
 10
181.294610
 20
540.684549
 42
-0.144855
  0
VERTEX
  8
0
 10
185.303462
 20
540.371098
 42
-0.105301
  0
VERTEX
  8
0
 10
189.078077
 20
537.921923
 42
-0.059443
  0
VERTEX
  8
0
 10
190.051103
 20
536.685263
 42
-0.074212
  0
VERTEX
  8
0
 10
190.619146
 20
535.340783
 42
-0.057495
  0
VERTEX
  8
0
 10
190.854273
 20
533.631934
 42
-0.021609
  0
VERTEX
  8
0
 10
190.802641
 20
531.212737
 42
0.000000
  0
VERTEX
  8
0
 10
190.500000
 20
526.530756
 42
0.000000
  0
VERTEX
  8
0
 10
180.500000
 20
522.957925
 42
0.024329
  0
VERTEX
  8
0
 10
172.367176
 20
519.597786
 42
0.067878
  0
VERTEX
  8
0
 10
167.200195
 20
516.242048
 42
0.086005
  0
VERTEX
  8
0
 10
163.827075
 20
512.135595
 42
0.058427
  0
VERTEX
  8
0
 10
161.469636
 20
506.549693
 42
0.068040
  0
VERTEX
  8
0
 10
160.010867
 20
496.681487
 42
0.070282
  0
VERTEX
  8
0
 10
161.284449
 20
486.897532
 42
0.078731
  0
VERTEX
  8
0
 10
164.947762
 20
478.844383
 42
0.134783
  0
VERTEX
  8
0
 10
170.465586
 20
474.016660
 42
0.012382
  0
VERTEX
  8
0
 10
172.165674
 20
473.245021
 42
0.014137
  0
VERTEX
  8
0
 10
173.829045
 20
472.594032
 42
0.013354
  0
VERTEX
  8
0
 10
175.263859
 20
472.121632
 42
0.073945
  0
VERTEX
  8
0
 10
176.065724
 20
472.005577
 42
0.066127
  0
VERTEX
  8
0
 10
179.216934
 20
472.436646
 42
0.045876
  0
VERTEX
  8
0
 10
182.586091
 20
473.703658
 42
0.043159
  0
VERTEX
  8
0
 10
185.889974
 20
475.673581
 42
0.041638
  0
VERTEX
  8
0
 10
188.849629
 20
478.202831
 42
-0.003479
  0
VERTEX
  8
0
 10
191.623716
 20
480.965930
 42
-0.103741
  0
VERTEX
  8
0
 10
192.452634
 20
481.496905
 42
-0.475243
  0
VERTEX
  8
0
 10
192.882837
 20
481.248111
 42
-0.039816
  0
VERTEX
  8
0
 10
193.000000
 20
479.779134
 42
0.041809
  0
VERTEX
  8
0
 10
193.273355
 20
476.515730
 42
0.192787
  0
VERTEX
  8
0
 10
194.242229
 20
474.928481
 42
0.141854
  0
VERTEX
  8
0
 10
196.242148
 20
474.175643
 42
0.019553
  0
VERTEX
  8
0
 10
200.731989
 20
474.000000
 42
0.000000
  0
VERTEX
  8
0
 10
207.250000
 20
474.000000
 42
0.000000
  0
VERTEX
  8
0
 10
206.576037
 20
477.250000
 42
-0.021385
  0
VERTEX
  8
0
 10
205.383419
 20
484.560589
 42
-0.015319
  0
VERTEX
  8
0
 10
204.652876
 20
492.811466
 42
-0.013890
  0
VERTEX
  8
0
 10
204.379192
 20
501.962930
 42
-0.010546
  0
VERTEX
  8
0
 10
204.569628
 20
512.000000
 42
0.021923
  0
VERTEX
  8
0
 10
204.487092
 20
533.845362
 42
0.090967
  0
VERTEX
  8
0
 10
201.505334
 20
546.634677
 42
0.160999
  0
VERTEX
  8
0
 10
195.228837
 20
553.651765
 42
0.118642
  0
VERTEX
  8
0
 10
185.154919
 20
556.609880
 42
0.014471
  0
VERTEX
  8
0
 10
182.387007
 20
556.666609
 42
0.013763
  0
VERTEX
  8
0
 10
179.573632
 20
556.565364
 42
0.013851
  0
VERTEX
  8
0
 10
177.093528
 20
556.338558
 42
0.046456
  0
SEQEND
  0
POLYLINE
  8
0
 66
1
 70
1
  0
VERTEX
  8
0
 10
189.499039
 20
495.358313
 42
-0.121572
  0
VERTEX
  8
0
 10
185.498100
 20
489.594232
 42
-0.227783
  0
VERTEX
  8
0
 10
180.155619
 20
488.091763
 42
-0.230465
  0
VERTEX
  8
0
 10
175.692430
 20
491.324080
 42
-0.123366
  0
VERTEX
  8
0
 10
174.000000
 20
498.079095
 42
-0.068635
  0
VERTEX
  8
0
 10
174.566812
 20
502.188836
 42
-0.109680
  0
VERTEX
  8
0
 10
176.235937
 20
505.298660
 42
-0.088443
  0
VERTEX
  8
0
 10
179.360482
 20
507.842395
 42
-0.032933
  0
VERTEX
  8
0
 10
184.500000
 20
510.268380
 42
0.000000
  0
VERTEX
  8
0
 10
190.500000
 20
512.631360
 42
0.000000
  0
VERTEX
  8
0
 10
190.800769
 20
506.092877
 42
-0.018638
  0
VERTEX
  8
0
 10
190.827537
 20
503.014776
 42
-0.023029
  0
VERTEX
  8
0
 10
190.613710
 20
500.154776
 42
-0.025147
  0
VERTEX
  8
0
 10
190.168977
 20
497.578773
 42
-0.035907
  0
SEQEND
  0
POLYLINE
  8
0
 66
1
 70
1
  0
VERTEX
  8
0
 10
239.500000
 20
555.582642
 42
0.057762
  0
VERTEX
  8
0
 10
237.068359
 20
554.140811
 42
0.030271
  0
VERTEX
  8
0
 10
234.399710
 20
551.841764
 42
0.029894
  0
VERTEX
  8
0
 10
231.948069
 20
549.153366
 42
0.043888
  0
VERTEX
  8
0
 10
230.164255
 20
546.500000
 42
-0.076902
  0
VERTEX
  8
0
 10
229.610847
 20
545.783492
 42
-0.546063
  0
VERTEX
  8
0
 10
229.262086
 20
545.868839
 42
-0.076193
  0
VERTEX
  8
0
 10
229.078055
 20
546.885521
 42
-0.005310
  0
VERTEX
  8
0
 10
229.030409
 20
549.797717
 42
0.000000
  0
VERTEX
  8
0
 10
229.000000
 20
555.095435
 42
0.000000
  0
VERTEX
  8
0
 10
222.750000
 20
554.797717
 42
0.000000
  0
VERTEX
  8
0
 10
216.500000
 20
554.500000
 42
0.000000
  0
VERTEX
  8
0
 10
216.500000
 20
514.500000
 42
0.000000
  0
VERTEX
  8
0
 10
216.500000
 20
474.500000
 42
0.000000
  0
VERTEX
  8
0
 10
223.250000
 20
474.204310
 42
0.000000
  0
VERTEX
  8
0
 10
230.000000
 20
473.908620
 42
0.000000
  0
VERTEX
  8
0
 10
230.000000
 20
498.905089
 42
-0.005040
  0
VERTEX
  8
0
 10
230.178047
 20
516.569712
 42
-0.025490
  0
VERTEX
  8
0
 10
230.878358
 20
526.399131
 42
-0.047420
  0
VERTEX
  8
0
 10
232.256733
 20
532.655136
 42
-0.097274
  0
VERTEX
  8
0
 10
234.678019
 20
537.029194
 42
-0.075263
  0
VERTEX
  8
0
 10
236.712972
 20
538.817764
 42
-0.081638
  0
VERTEX
  8
0
 10
239.132067
 20
539.863122
 42
-0.091173
  0
VERTEX
  8
0
 10
241.525799
 20
540.014451
 42
-0.129446
  0
VERTEX
  8
0
 10
243.500000
 20
539.234687
 42
-0.123620
  0
VERTEX
  8
0
 10
245.807035
 20
536.446108
 42
-0.079161
  0
VERTEX
  8
0
 10
247.003820
 20
532.394104
 42
-0.026156
  0
VERTEX
  8
0
 10
247.581813
 20
524.892468
 42
-0.001996
  0
VERTEX
  8
0
 10
248.000000
 20
504.598391
 42
0.000000
  0
VERTEX
  8
0
 10
248.500000
 20
474.500000
 42
0.000000
  0
VERTEX
  8
0
 10
255.321285
 20
474.202685
 42
0.000000
  0
VERTEX
  8
0
 10
262.142570
 20
473.905370
 42
0.000000
  0
VERTEX
  8
0
 10
261.813300
 20
507.702685
 42
0.001386
  0
VERTEX
  8
0
 10
261.569630
 20
527.172770
 42
0.010185
  0
VERTEX
  8
0
 10
261.237830
 20
536.474574
 42
0.020798
  0
VERTEX
  8
0
 10
260.695563
 20
542.012152
 42
0.070816
  0
VERTEX
  8
0
 10
259.694288
 20
545.486353
 42
0.070235
  0
VERTEX
  8
0
 10
255.881601
 20
551.537584
 42
0.101523
  0
VERTEX
  8
0
 10
250.925759
 20
555.431444
 42
0.114115
  0
VERTEX
  8
0
 10
245.290676
 20
556.788763
 42
0.107648
  0
SEQEND
  0
POLYLINE
  8
0
 66
1
 70
1
  0
VERTEX
  8
0
 10
286.287211
 20
554.913119
 42
0.097571
  0
VERTEX
  8
0
 10
281.049236
 20
550.896695
 42
0.069143
  0
VERTEX
  8
0
 10
276.953910
 20
544.700705
 42
0.053715
  0
VERTEX
  8
0
 10
273.932716
 20
536.123087
 42
0.027589
  0
VERTEX
  8
0
 10
271.933272
 20
524.890454
 42
0.041259
  0
VERTEX
  8
0
 10
271.464424
 20
512.726047
 42
0.035840
  0
VERTEX
  8
0
 10
272.936363
 20
500.049425
 42
0.037495
  0
VERTEX
  8
0
 10
275.986967
 20
488.682722
 42
0.078774
  0
VERTEX
  8
0
 10
280.314511
 20
480.654301
 42
0.056246
  0
VERTEX
  8
0
 10
282.731434
 20
478.131550
 42
0.044227
  0
VERTEX
  8
0
 10
285.845118
 20
475.973598
 42
0.045736
  0
VERTEX
  8
0
 10
289.119320
 20
474.486835
 42
0.083905
  0
VERTEX
  8
0
 10
292.000000
 20
474.000000
 42
0.086070
  0
VERTEX
  8
0
 10
295.064776
 20
474.531511
 42
0.052995
  0
VERTEX
  8
0
 10
298.371191
 20
476.125947
 42
0.050591
  0
VERTEX
  8
0
 10
301.448229
 20
478.495933
 42
0.057565
  0
VERTEX
  8
0
 10
303.839238
 20
481.343974
 42
0.000000
  0
VERTEX
  8
0
 10
306.500000
 20
485.375373
 42
0.000000
  0
VERTEX
  8
0
 10
306.813587
 20
478.437686
 42
-0.016221
  0
VERTEX
  8
0
 10
306.903845
 20
471.348411
 42
-0.049361
  0
VERTEX
  8
0
 10
306.335674
 20
466.570071
 42
-0.073712
  0
VERTEX
  8
0
 10
305.037362
 20
463.163750
 42
-0.090240
  0
VERTEX
  8
0
 10
302.868409
 20
460.542727
 42
-0.116092
  0
VERTEX
  8
0
 10
298.628350
 20
458.397682
 42
-0.120636
  0
VERTEX
  8
0
 10
293.939943
 20
458.411304
 42
-0.144806
  0
VERTEX
  8
0
 10
290.373838
 20
460.503768
 42
-0.190390
  0
VERTEX
  8
0
 10
289.000000
 20
463.980948
 42
0.089371
  0
VERTEX
  8
0
 10
288.845260
 20
464.839748
 42
0.094731
  0
VERTEX
  8
0
 10
288.401501
 20
465.571005
 42
0.087956
  0
VERTEX
  8
0
 10
287.687482
 20
466.126307
 42
0.065603
  0
VERTEX
  8
0
 10
286.750000
 20
466.473328
 42
0.003834
  0
VERTEX
  8
0
 10
280.954775
 20
467.743948
 42
0.014754
  0
VERTEX
  8
0
 10
277.325833
 20
468.399296
 42
0.018942
  0
VERTEX
  8
0
 10
274.910651
 20
468.669170
 42
0.158040
  0
VERTEX
  8
0
 10
273.855944
 20
468.410969
 42
0.273048
  0
VERTEX
  8
0
 10
273.159442
 20
467.086466
 42
0.018898
  0
VERTEX
  8
0
 10
273.540046
 20
462.711295
 42
0.026294
  0
VERTEX
  8
0
 10
274.387329
 20
457.978300
 42
0.040320
  0
VERTEX
  8
0
 10
275.658676
 20
454.013647
 42
0.075905
  0
VERTEX
  8
0
 10
278.826362
 20
448.758103
 42
0.088572
  0
VERTEX
  8
0
 10
283.278290
 20
445.007012
 42
0.080114
  0
VERTEX
  8
0
 10
289.130327
 20
442.780198
 42
0.050179
  0
VERTEX
  8
0
 10
296.434276
 20
442.021962
 42
0.061688
  0
VERTEX
  8
0
 10
304.600354
 20
443.007053
 42
0.103423
  0
VERTEX
  8
0
 10
310.802246
 20
445.998200
 42
0.100968
  0
VERTEX
  8
0
 10
315.382993
 20
451.284162
 42
0.056696
  0
VERTEX
  8
0
 10
318.701446
 20
459.143526
 42
0.051370
  0
VERTEX
  8
0
 10
319.556439
 20
463.747855
 42
0.010208
  0
VERTEX
  8
0
 10
320.063826
 20
472.118983
 42
0.006318
  0
VERTEX
  8
0
 10
320.430406
 20
485.452203
 42
0.001199
  0
VERTEX
  8
0
 10
320.732988
 20
509.750000
 42
0.000000
  0
VERTEX
  8
0
 10
321.187933
 20
555.000000
 42
0.000000
  0
VERTEX
  8
0
 10
314.648758
 20
555.000000
 42
0.000000
  0
VERTEX
  8
0
 10
308.109582
 20
555.000000
 42
0.000000
  0
VERTEX
  8
0
 10
307.804791
 20
550.250000
 42
0.000000
  0
VERTEX
  8
0
 10
307.500000
 20
545.500000
 42
0.000000
  0
VERTEX
  8
0
 10
305.289073
 20
549.240937
 42
0.058386
  0
VERTEX
  8
0
 10
302.965306
 20
552.295026
 42
0.055535
  0
VERTEX
  8
0
 10
299.962114
 20
554.787723
 42
0.058653
  0
VERTEX
  8
0
 10
296.671227
 20
556.437289
 42
0.086841
  0
VERTEX
  8
0
 10
293.500000
 20
556.995473
 42
0.049920
  0
VERTEX
  8
0
 10
292.054838
 20
556.852263
 42
0.020635
  0
VERTEX
  8
0
 10
290.143743
 20
556.384999
 42
0.020171
  0
VERTEX
  8
0
 10
288.120125
 20
555.711253
 42
0.024480
  0
SEQEND
  0
POLYLINE
  8
0
 66
1
 70
1
  0
VERTEX
  8
0
 10
302.373912
 20
536.750000
 42
-0.065432
  0
VERTEX
  8
0
 10
304.679920
 20
532.725304
 42
-0.049528
  0
VERTEX
  8
0
 10
306.140385
 20
527.842797
 42
-0.038746
  0
VERTEX
  8
0
 10
306.846698
 20
521.686120
 42
-0.018445
  0
VERTEX
  8
0
 10
306.845785
 20
513.706057
 42
-0.008558
  0
VERTEX
  8
0
 10
306.538567
 20
508.034640
 42
-0.029476
  0
VERTEX
  8
0
 10
306.060590
 20
504.383389
 42
-0.040633
  0
VERTEX
  8
0
 10
305.253987
 20
501.472567
 42
-0.030943
  0
VERTEX
  8
0
 10
303.924351
 20
498.441638
 42
-0.084309
  0
VERTEX
  8
0
 10
300.413268
 20
493.760124
 42
-0.172046
  0
VERTEX
  8
0
 10
296.269522
 20
491.917958
 42
-0.189825
  0
VERTEX
  8
0
 10
292.185459
 20
493.170652
 42
-0.103878
  0
VERTEX
  8
0
 10
288.798677
 20
497.266000
 42
-0.041664
  0
VERTEX
  8
0
 10
287.634746
 20
500.013708
 42
-0.039614
  0
VERTEX
  8
0
 10
286.918588
 20
502.962953
 42
-0.025397
  0
VERTEX
  8
0
 10
286.482814
 20
506.972961
 42
-0.006404
  0
VERTEX
  8
0
 10
286.189650
 20
513.533414
 42
-0.008585
  0
VERTEX
  8
0
 10
286.114750
 20
518.635806
 42
-0.010783
  0
VERTEX
  8
0
 10
286.228500
 20
523.363313
 42
-0.011162
  0
VERTEX
  8
0
 10
286.497709
 20
527.319445
 42
-0.043219
  0
VERTEX
  8
0
 10
286.929436
 20
529.737945
 42
-0.078356
  0
VERTEX
  8
0
 10
289.670401
 20
535.885193
 42
-0.143163
  0
VERTEX
  8
0
 10
293.798687
 20
539.437761
 42
-0.190965
  0
VERTEX
  8
0
 10
298.334720
 20
539.659306
 42
-0.148894
  0
SEQEND
  0
POLYLINE
  8
0
 66
1
 70
1
  0
VERTEX
  8
0
 10
660.847806
 20
555.038324
 42
0.042169
  0
VERTEX
  8
0
 10
659.278512
 20
554.005025
 42
0.024653
  0
VERTEX
  8
0
 10
657.578776
 20
552.526605
 42
0.024526
  0
VERTEX
  8
0
 10
656.012474
 20
550.867334
 42
0.037843
  0
VERTEX
  8
0
 10
654.847806
 20
549.276288
 42
0.000000
  0
VERTEX
  8
0
 10
652.500000
 20
545.500000
 42
0.000000
  0
VERTEX
  8
0
 10
652.195209
 20
550.250000
 42
0.000000
  0
VERTEX
  8
0
 10
651.890418
 20
555.000000
 42
0.000000
  0
VERTEX
  8
0
 10
645.445209
 20
555.000000
 42
0.000000
  0
VERTEX
  8
0
 10
639.000000
 20
555.000000
 42
0.000000
  0
VERTEX
  8
0
 10
639.000000
 20
514.500000
 42
0.000000
  0
VERTEX
  8
0
 10
639.000000
 20
474.000000
 42
0.000000
  0
VERTEX
  8
0
 10
645.930407
 20
474.000000
 42
0.000000
  0
VERTEX
  8
0
 10
652.860814
 20
474.000000
 42
0.000000
  0
VERTEX
  8
0
 10
653.180407
 20
502.250000
 42
-0.001600
  0
VERTEX
  8
0
 10
653.422091
 20
518.903078
 42
-0.013050
  0
VERTEX
  8
0
 10
653.755489
 20
526.508192
 42
-0.028979
  0
VERTEX
  8
0
 10
654.331306
 20
530.987384
 42
-0.078249
  0
VERTEX
  8
0
 10
655.403675
 20
534.000000
 42
-0.031304
  0
VERTEX
  8
0
 10
657.181425
 20
536.830895
 42
-0.073327
  0
VERTEX
  8
0
 10
658.916372
 20
538.621118
 42
-0.090677
  0
VERTEX
  8
0
 10
660.844005
 20
539.609583
 42
-0.070389
  0
VERTEX
  8
0
 10
663.178571
 20
539.968197
 42
-0.091202
  0
VERTEX
  8
0
 10
665.308319
 20
539.602548
 42
-0.084489
  0
VERTEX
  8
0
 10
667.232746
 20
538.499398
 42
-0.075472
  0
VERTEX
  8
0
 10
668.851557
 20
536.694336
 42
-0.054322
  0
VERTEX
  8
0
 10
670.083749
 20
534.279722
 42
-0.081648
  0
VERTEX
  8
0
 10
670.450924
 20
532.471974
 42
-0.002057
  0
VERTEX
  8
0
 10
670.730851
 20
524.078088
 42
-0.004356
  0
VERTEX
  8
0
 10
670.933554
 20
514.197044
 42
-0.002950
  0
VERTEX
  8
0
 10
671.000000
 20
502.934900
 42
0.000000
  0
VERTEX
  8
0
 10
671.000000
 20
474.000000
 42
0.000000
  0
VERTEX
  8
0
 10
678.000000
 20
474.000000
 42
0.000000
  0
VERTEX
  8
0
 10
685.000000
 20
474.000000
 42
0.000000
  0
VERTEX
  8
0
 10
685.000000
 20
503.668087
 42
0.004330
  0
VERTEX
  8
0
 10
684.821337
 20
524.296256
 42
0.019523
  0
VERTEX
  8
0
 10
684.142482
 20
536.327883
 42
0.033520
  0
VERTEX
  8
0
 10
682.868825
 20
544.100665
 42
0.092355
  0
VERTEX
  8
0
 10
680.646301
 20
549.164048
 42
0.076773
  0
VERTEX
  8
0
 10
676.497747
 20
553.607832
 42
0.094800
  0
VERTEX
  8
0
 10
671.474295
 20
556.206923
 42
0.100394
  0
VERTEX
  8
0
 10
666.078867
 20
556.684641
 42
0.096850
  0
SEQEND
  0
POLYLINE
  8
0
 66
1
 70
1
  0
VERTEX
  8
0
 10
708.500000
 20
554.705536
 42
0.114179
  0
VERTEX
  8
0
 10
702.588519
 20
549.286584
 42
0.065303
  0
VERTEX
  8
0
 10
698.173116
 20
540.616761
 42
0.053109
  0
VERTEX
  8
0
 10
695.443133
 20
529.189676
 42
0.033593
  0
VERTEX
  8
0
 10
694.603881
 20
515.500000
 42
0.037833
  0
VERTEX
  8
0
 10
695.938684
 20
499.170952
 42
0.069515
  0
VERTEX
  8
0
 10
699.822661
 20
486.434831
 42
0.095437
  0
VERTEX
  8
0
 10
705.892143
 20
478.024151
 42
0.159819
  0
VERTEX
  8
0
 10
713.712564
 20
474.357343
 42
0.085347
  0
VERTEX
  8
0
 10
717.198340
 20
474.527577
 42
0.078165
  0
VERTEX
  8
0
 10
720.544444
 20
475.845047
 42
0.064835
  0
VERTEX
  8
0
 10
723.817761
 20
478.388597
 42
0.036538
  0
VERTEX
  8
0
 10
727.092822
 20
482.216910
 42
0.000000
  0
VERTEX
  8
0
 10
730.246130
 20
486.500000
 42
0.000000
  0
VERTEX
  8
0
 10
729.724365
 20
475.624162
 42
-0.017966
  0
VERTEX
  8
0
 10
729.044723
 20
467.539328
 42
-0.080502
  0
VERTEX
  8
0
 10
727.733767
 20
462.988089
 42
-0.132895
  0
VERTEX
  8
0
 10
725.422071
 20
460.273160
 42
-0.088448
  0
VERTEX
  8
0
 10
721.676820
 20
458.579167
 42
-0.065740
  0
VERTEX
  8
0
 10
718.275795
 20
458.179279
 42
-0.107543
  0
VERTEX
  8
0
 10
715.460657
 20
458.834013
 42
-0.124877
  0
VERTEX
  8
0
 10
713.451058
 20
460.496819
 42
-0.108849
  0
VERTEX
  8
0
 10
712.349617
 20
463.001917
 42
0.045544
  0
VERTEX
  8
0
 10
711.953807
 20
464.335987
 42
0.069865
  0
VERTEX
  8
0
 10
711.356890
 20
465.381070
 42
0.080859
  0
VERTEX
  8
0
 10
710.572278
 20
466.113443
 42
0.089667
  0
VERTEX
  8
0
 10
709.622406
 20
466.527136
 42
0.011081
  0
VERTEX
  8
0
 10
705.324407
 20
467.442031
 42
0.013184
  0
VERTEX
  8
0
 10
701.231620
 20
468.107595
 42
0.008316
  0
VERTEX
  8
0
 10
697.700538
 20
468.526955
 42
0.165268
  0
VERTEX
  8
0
 10
696.654432
 20
468.286427
 42
0.225844
  0
VERTEX
  8
0
 10
696.346142
 20
467.808600
 42
0.022812
  0
VERTEX
  8
0
 10
696.230659
 20
466.422736
 42
0.025049
  0
VERTEX
  8
0
 10
696.252632
 20
464.674188
 42
0.017310
  0
VERTEX
  8
0
 10
696.444874
 20
462.704028
 42
0.068864
  0
VERTEX
  8
0
 10
699.096505
 20
453.100390
 42
0.119480
  0
VERTEX
  8
0
 10
704.042703
 20
446.522433
 42
0.119624
  0
VERTEX
  8
0
 10
711.447347
 20
442.944596
 42
0.069130
  0
VERTEX
  8
0
 10
721.366340
 20
442.209729
 42
0.036029
  0
VERTEX
  8
0
 10
727.456265
 20
443.043813
 42
0.076472
  0
VERTEX
  8
0
 10
731.897644
 20
444.719559
 42
0.085533
  0
VERTEX
  8
0
 10
735.317573
 20
447.508320
 42
0.054984
  0
VERTEX
  8
0
 10
738.240822
 20
451.724889
 42
0.065971
  0
VERTEX
  8
0
 10
740.862533
 20
458.594249
 42
0.038427
  0
VERTEX
  8
0
 10
742.235410
 20
467.321861
 42
0.017515
  0
VERTEX
  8
0
 10
742.861806
 20
481.490577
 42
0.002288
  0
VERTEX
  8
0
 10
743.000000
 20
511.683659
 42
0.000000
  0
VERTEX
  8
0
 10
743.000000
 20
555.000000
 42
0.000000
  0
VERTEX
  8
0
 10
736.369948
 20
555.000000
 42
0.000000
  0
VERTEX
  8
0
 10
729.739895
 20
555.000000
 42
0.000000
  0
VERTEX
  8
0
 10
730.247110
 20
550.500000
 42
-0.006083
  0
VERTEX
  8
0
 10
730.420376
 20
548.774416
 42
-0.010230
  0
VERTEX
  8
0
 10
730.518498
 20
547.321875
 42
-0.004175
  0
VERTEX
  8
0
 10
730.565352
 20
546.109909
 42
-0.423113
  0
VERTEX
  8
0
 10
730.458722
 20
546.000000
 42
-0.240026
  0
VERTEX
  8
0
 10
730.285226
 20
546.088379
 42
-0.003824
  0
VERTEX
  8
0
 10
729.623687
 20
547.013318
 42
-0.009113
  0
VERTEX
  8
0
 10
728.869695
 20
548.127345
 42
-0.005799
  0
VERTEX
  8
0
 10
728.031153
 20
549.449593
 42
0.082985
  0
VERTEX
  8
0
 10
724.139312
 20
553.894401
 42
0.106187
  0
VERTEX
  8
0
 10
719.311596
 20
556.373857
 42
0.107670
  0
VERTEX
  8
0
 10
713.944339
 20
556.633643
 42
0.087329
  0
SEQEND
  0
POLYLINE
  8
0
 66
1
 70
1
  0
VERTEX
  8
0
 10
724.420112
 20
537.491700
 42
-0.083460
  0
VERTEX
  8
0
 10
726.714234
 20
533.996794
 42
-0.048629
  0
VERTEX
  8
0
 10
728.282219
 20
529.219808
 42
-0.037614
  0
VERTEX
  8
0
 10
729.190325
 20
522.991442
 42
-0.018611
  0
VERTEX
  8
0
 10
729.449099
 20
515.000000
 42
-0.008268
  0
VERTEX
  8
0
 10
729.327689
 20
509.322823
 42
-0.026938
  0
VERTEX
  8
0
 10
728.983093
 20
505.578773
 42
-0.037315
  0
VERTEX
  8
0
 10
728.316979
 20
502.603297
 42
-0.032197
  0
VERTEX
  8
0
 10
727.190835
 20
499.604200
 42
-0.028098
  0
VERTEX
  8
0
 10
725.285300
 20
495.941845
 42
-0.076760
  0
VERTEX
  8
0
 10
723.434127
 20
493.695071
 42
-0.101781
  0
VERTEX
  8
0
 10
721.330169
 20
492.474866
 42
-0.077988
  0
VERTEX
  8
0
 10
718.702251
 20
492.031803
 42
-0.191839
  0
VERTEX
  8
0
 10
714.450517
 20
493.669678
 42
-0.105918
  0
VERTEX
  8
0
 10
711.198881
 20
498.292748
 42
-0.068918
  0
VERTEX
  8
0
 10
709.159488
 20
505.828318
 42
-0.031682
  0
VERTEX
  8
0
 10
708.514317
 20
516.000000
 42
-0.020705
  0
VERTEX
  8
0
 10
708.820969
 20
523.401923
 42
-0.037183
  0
VERTEX
  8
0
 10
709.771993
 20
529.404027
 42
-0.046271
  0
VERTEX
  8
0
 10
711.349191
 20
534.101140
 42
-0.082935
  0
VERTEX
  8
0
 10
713.579888
 20
537.491700
 42
-0.094808
  0
VERTEX
  8
0
 10
716.108127
 20
539.351918
 42
-0.111783
  0
VERTEX
  8
0
 10
719.000000
 20
540.006623
 42
-0.111783
  0
VERTEX
  8
0
 10
721.891873
 20
539.351918
 42
-0.094808
  0
SEQEND
  0
POLYLINE
  8
0
 66
1
 70
1
  0
VERTEX
  8
0
 10
417.000000
 20
514.500000
 42
0.000000
  0
VERTEX
  8
0
 10
417.000000
 20
474.000000
 42
0.000000
  0
VERTEX
  8
0
 10
424.000000
 20
474.000000
 42
0.000000
  0
VERTEX
  8
0
 10
431.000000
 20
474.000000
 42
0.000000
  0
VERTEX
  8
0
 10
431.000000
 20
514.500000
 42
0.000000
  0
VERTEX
  8
0
 10
431.000000
 20
555.000000
 42
0.000000
  0
VERTEX
  8
0
 10
424.000000
 20
555.000000
 42
0.000000
  0
VERTEX
  8
0
 10
417.000000
 20
555.000000
 42
0.000000
  0
SEQEND
  0
POLYLINE
  8
0
 66
1
 70
1
  0
VERTEX
  8
0
 10
581.189535
 20
521.250000
 42
0.001191
  0
VERTEX
  8
0
 10
581.430987
 20
500.400998
 42
0.012216
  0
VERTEX
  8
0
 10
581.762017
 20
491.783112
 42
0.030537
  0
VERTEX
  8
0
 10
582.388301
 20
486.753418
 42
0.062204
  0
VERTEX
  8
0
 10
583.597796
 20
482.966965
 42
0.049929
  0
VERTEX
  8
0
 10
585.835019
 20
479.176543
 42
0.052791
  0
VERTEX
  8
0
 10
588.742819
 20
475.982131
 42
0.056496
  0
VERTEX
  8
0
 10
592.039347
 20
473.658560
 42
0.079079
  0
VERTEX
  8
0
 10
595.427053
 20
472.447707
 42
0.096387
  0
VERTEX
  8
0
 10
599.401477
 20
472.474474
 42
0.066670
  0
VERTEX
  8
0
 10
603.664349
 20
473.944425
 42
0.063209
  0
VERTEX
  8
0
 10
607.615786
 20
476.598446
 42
0.067600
  0
VERTEX
  8
0
 10
610.677326
 20
480.102496
 42
0.000000
  0
VERTEX
  8
0
 10
613.500000
 20
484.381747
 42
0.000000
  0
VERTEX
  8
0
 10
613.802260
 20
479.190873
 42
0.000000
  0
VERTEX
  8
0
 10
614.104519
 20
474.000000
 42
0.000000
  0
VERTEX
  8
0
 10
620.502850
 20
474.000000
 42
0.000000
  0
VERTEX
  8
0
 10
626.901181
 20
474.000000
 42
0.000000
  0
VERTEX
  8
0
 10
626.965246
 20
514.500000
 42
0.000000
  0
VERTEX
  8
0
 10
627.029312
 20
555.000000
 42
0.000000
  0
VERTEX
  8
0
 10
620.108123
 20
555.000000
 42
0.000000
  0
VERTEX
  8
0
 10
613.186934
 20
555.000000
 42
0.000000
  0
VERTEX
  8
0
 10
612.843467
 20
527.250000
 42
-0.001627
  0
VERTEX
  8
0
 10
612.584689
 20
510.695847
 42
-0.013707
  0
VERTEX
  8
0
 10
612.239273
 20
503.240304
 42
-0.031275
  0
VERTEX
  8
0
 10
611.629242
 20
498.790407
 42
-0.066670
  0
VERTEX
  8
0
 10
610.500000
 20
495.514048
 42
-0.087733
  0
VERTEX
  8
0
 10
607.277081
 20
491.186010
 42
-0.150863
  0
VERTEX
  8
0
 10
603.276090
 20
489.222447
 42
-0.179254
  0
VERTEX
  8
0
 10
599.357321
 20
490.008550
 42
-0.130213
  0
VERTEX
  8
0
 10
596.268189
 20
493.264487
 42
-0.085614
  0
VERTEX
  8
0
 10
595.281911
 20
496.150175
 42
-0.023516
  0
VERTEX
  8
0
 10
594.745603
 20
500.940182
 42
-0.011680
  0
VERTEX
  8
0
 10
594.413598
 20
509.010635
 42
-0.001625
  0
VERTEX
  8
0
 10
594.170772
 20
525.750000
 42
0.000000
  0
VERTEX
  8
0
 10
593.841544
 20
555.000000
 42
0.000000
  0
VERTEX
  8
0
 10
587.360307
 20
555.000000
 42
0.000000
  0
VERTEX
  8
0
 10
580.879069
 20
555.000000
 42
0.000000
  0
SEQEND
  0
POLYLINE
  8
0
 66
1
 70
1
  0
VERTEX
  8
0
 10
417.000000
 20
454.500000
 42
0.000000
  0
VERTEX
  8
0
 10
417.000000
 20
444.000000
 42
0.000000
  0
VERTEX
  8
0
 10
424.000000
 20
444.000000
 42
0.000000
  0
VERTEX
  8
0
 10
431.000000
 20
444.000000
 42
0.000000
  0
VERTEX
  8
0
 10
431.000000
 20
454.500000
 42
0.000000
  0
VERTEX
  8
0
 10
431.000000
 20
465.000000
 42
0.000000
  0
VERTEX
  8
0
 10
424.000000
 20
465.000000
 42
0.000000
  0
VERTEX
  8
0
 10
417.000000
 20
465.000000
 42
0.000000
  0
SEQEND
  0
POLYLINE
  8
0
 66
1
 70
1
  0
VERTEX
  8
0
 10
159.094100
 20
400.750000
 42
-0.003774
  0
VERTEX
  8
0
 10
158.655062
 20
399.622204
 42
-0.001358
  0
VERTEX
  8
0
 10
158.013732
 20
398.023501
 42
-0.001347
  0
VERTEX
  8
0
 10
157.301423
 20
396.275286
 42
-0.001597
  0
VERTEX
  8
0
 10
156.618851
 20
394.627876
 42
0.003235
  0
VERTEX
  8
0
 10
155.998534
 20
393.116738
 42
0.004778
  0
VERTEX
  8
0
 10
155.475538
 20
391.782187
 42
0.002278
  0
VERTEX
  8
0
 10
155.047526
 20
390.642942
 42
0.088940
  0
VERTEX
  8
0
 10
155.000000
 20
390.377876
 42
0.374668
  0
VERTEX
  8
0
 10
155.131251
 20
390.227308
 42
0.009303
  0
VERTEX
  8
0
 10
156.110048
 20
390.111001
 42
0.015537
  0
VERTEX
  8
0
 10
157.330006
 20
390.027187
 42
0.009381
  0
VERTEX
  8
0
 10
158.778888
 20
390.000000
 42
0.060640
  0
VERTEX
  8
0
 10
161.080767
 20
390.280204
 42
0.081218
  0
VERTEX
  8
0
 10
163.011043
 20
391.106219
 42
0.047176
  0
VERTEX
  8
0
 10
165.251911
 20
392.847912
 42
0.008718
  0
VERTEX
  8
0
 10
169.000000
 20
396.500000
 42
0.000000
  0
VERTEX
  8
0
 10
175.442223
 20
403.000000
 42
0.000000
  0
VERTEX
  8
0
 10
167.696361
 20
403.000000
 42
0.006587
  0
VERTEX
  8
0
 10
163.058941
 20
402.938908
 42
0.057434
  0
VERTEX
  8
0
 10
161.022989
 20
402.649740
 42
0.136744
  0
VERTEX
  8
0
 10
159.880880
 20
401.984191
 42
0.102273
  0
SEQEND
  0
POLYLINE
  8
0
 66
1
 70
1
  0
VERTEX
  8
0
 10
360.000000
 20
402.578375
 42
0.131005
  0
VERTEX
  8
0
 10
360.082580
 20
402.268604
 42
0.000492
  0
VERTEX
  8
0
 10
361.947770
 20
399.026329
 42
0.002509
  0
VERTEX
  8
0
 10
364.088819
 20
395.355679
 42
0.001569
  0
VERTEX
  8
0
 10
366.630705
 20
391.078375
 42
0.000000
  0
VERTEX
  8
0
 10
373.261410
 20
380.000000
 42
0.000000
  0
VERTEX
  8
0
 10
377.237694
 20
380.000000
 42
0.018400
  0
VERTEX
  8
0
 10
379.034481
 20
380.066143
 42
0.066789
  0
VERTEX
  8
0
 10
380.150676
 20
380.300518
 42
0.151300
  0
VERTEX
  8
0
 10
380.688269
 20
380.701341
 42
0.248133
  0
VERTEX
  8
0
 10
380.767469
 20
381.250000
 42
-0.015640
  0
VERTEX
  8
0
 10
380.485935
 20
382.123467
 42
-0.000712
  0
VERTEX
  8
0
 10
379.620368
 20
385.143750
 42
-0.001188
  0
VERTEX
  8
0
 10
378.606656
 20
388.732414
 42
-0.000851
  0
VERTEX
  8
0
 10
377.489458
 20
392.750000
 42
0.000000
  0
VERTEX
  8
0
 10
374.657956
 20
403.000000
 42
0.000000
  0
VERTEX
  8
0
 10
367.328978
 20
403.000000
 42
0.005393
  0
VERTEX
  8
0
 10
364.518762
 20
402.969690
 42
0.008974
  0
VERTEX
  8
0
 10
362.152887
 20
402.876148
 42
0.003202
  0
VERTEX
  8
0
 10
360.158669
 20
402.748605
 42
0.393778
  0
SEQEND
  0
POLYLINE
  8
0
 66
1
 70
1
  0
VERTEX
  8
0
 10
670.000000
 20
396.500000
 42
0.008586
  0
VERTEX
  8
0
 10
673.787257
 20
392.807798
 42
0.048487
  0
VERTEX
  8
0
 10
676.016436
 20
391.082645
 42
0.083340
  0
VERTEX
  8
0
 10
677.956299
 20
390.272922
 42
0.057345
  0
VERTEX
  8
0
 10
680.328100
 20
390.000000
 42
0.018216
  0
VERTEX
  8
0
 10
682.098076
 20
390.064507
 42
0.070768
  0
VERTEX
  8
0
 10
683.167279
 20
390.297051
 42
0.169297
  0
VERTEX
  8
0
 10
683.653593
 20
390.699137
 42
0.238847
  0
VERTEX
  8
0
 10
683.695319
 20
391.250000
 42
0.001261
  0
VERTEX
  8
0
 10
683.376382
 20
392.013215
 42
0.000156
  0
VERTEX
  8
0
 10
682.676405
 20
393.675000
 42
0.000184
  0
VERTEX
  8
0
 10
681.843655
 20
395.648245
 42
0.000152
  0
VERTEX
  8
0
 10
680.955005
 20
397.750000
 42
0.000000
  0
VERTEX
  8
0
 10
678.733349
 20
403.000000
 42
0.000000
  0
VERTEX
  8
0
 10
671.145563
 20
403.000000
 42
0.000000
  0
VERTEX
  8
0
 10
663.557777
 20
403.000000
 42
0.000000
  0
SEQEND
  0
POLYLINE
  8
0
 66
1
 70
1
  0
VERTEX
  8
0
 10
154.897286
 20
387.002327
 42
0.057156
  0
VERTEX
  8
0
 10
154.056008
 20
386.371810
 42
0.010549
  0
VERTEX
  8
0
 10
152.674313
 20
385.009181
 42
0.011200
  0
VERTEX
  8
0
 10
151.119887
 20
383.336765
 42
0.009994
  0
VERTEX
  8
0
 10
149.580337
 20
381.532735
 42
0.000000
  0
VERTEX
  8
0
 10
145.866101
 20
377.000000
 42
0.000000
  0
VERTEX
  8
0
 10
150.489421
 20
377.000000
 42
0.025488
  0
VERTEX
  8
0
 10
153.035352
 20
377.129864
 42
0.071522
  0
VERTEX
  8
0
 10
154.762917
 20
377.561297
 42
0.077372
  0
VERTEX
  8
0
 10
156.221175
 20
378.439321
 42
0.033574
  0
VERTEX
  8
0
 10
157.860852
 20
380.008796
 42
0.000000
  0
VERTEX
  8
0
 10
160.608963
 20
383.017592
 42
0.000000
  0
VERTEX
  8
0
 10
163.491573
 20
380.008796
 42
0.032931
  0
VERTEX
  8
0
 10
165.240937
 20
378.408339
 42
0.079005
  0
VERTEX
  8
0
 10
166.763941
 20
377.541466
 42
0.069670
  0
VERTEX
  8
0
 10
168.596712
 20
377.130360
 42
0.021384
  0
VERTEX
  8
0
 10
171.437091
 20
377.020153
 42
0.000000
  0
VERTEX
  8
0
 10
176.500000
 20
377.040306
 42
0.000000
  0
VERTEX
  8
0
 10
170.837941
 20
382.520153
 42
0.010638
  0
VERTEX
  8
0
 10
167.448440
 20
385.663717
 42
0.056947
  0
VERTEX
  8
0
 10
165.389478
 20
387.111130
 42
0.085352
  0
VERTEX
  8
0
 10
163.453827
 20
387.771244
 42
0.041368
  0
VERTEX
  8
0
 10
160.837941
 20
387.969591
 42
0.019127
  0
VERTEX
  8
0
 10
159.059640
 20
387.889051
 42
0.019476
  0
VERTEX
  8
0
 10
157.303473
 20
387.672914
 42
0.019676
  0
VERTEX
  8
0
 10
155.796663
 20
387.366290
 42
0.072346
  0
SEQEND
  0
POLYLINE
  8
0
 66
1
 70
1
  0
VERTEX
  8
0
 10
668.663302
 20
382.750000
 42
0.000000
  0
VERTEX
  8
0
 10
663.724683
 20
377.500000
 42
0.000000
  0
VERTEX
  8
0
 10
668.027541
 20
377.184430
 42
0.027655
  0
VERTEX
  8
0
 10
670.447113
 20
377.141083
 42
0.078830
  0
VERTEX
  8
0
 10
672.095050
 20
377.466081
 42
0.079749
  0
VERTEX
  8
0
 10
673.550657
 20
378.282608
 42
0.028764
  0
VERTEX
  8
0
 10
675.327732
 20
379.866194
 42
0.000000
  0
VERTEX
  8
0
 10
678.325065
 20
382.863527
 42
0.000000
  0
VERTEX
  8
0
 10
681.063742
 20
379.931763
 42
0.034869
  0
VERTEX
  8
0
 10
682.695891
 20
378.412095
 42
0.076095
  0
VERTEX
  8
0
 10
684.168949
 20
377.552726
 42
0.069233
  0
VERTEX
  8
0
 10
685.919741
 20
377.128034
 42
0.024937
  0
VERTEX
  8
0
 10
688.485239
 20
377.000000
 42
0.000000
  0
VERTEX
  8
0
 10
693.168059
 20
377.000000
 42
0.000000
  0
VERTEX
  8
0
 10
689.996171
 20
381.004834
 42
0.024171
  0
VERTEX
  8
0
 10
686.879454
 20
384.571440
 42
0.068484
  0
VERTEX
  8
0
 10
684.289862
 20
386.612649
 42
0.083426
  0
VERTEX
  8
0
 10
681.556927
 20
387.654787
 42
0.049500
  0
VERTEX
  8
0
 10
678.078454
 20
388.000000
 42
0.035839
  0
VERTEX
  8
0
 10
675.379627
 20
387.806304
 42
0.091598
  0
VERTEX
  8
0
 10
673.529835
 20
387.180998
 42
0.065085
  0
VERTEX
  8
0
 10
671.676215
 20
385.804768
 42
0.011828
  0
SEQEND
  0
POLYLINE
  8
0
 66
1
 70
1
  0
VERTEX
  8
0
 10
92.500000
 20
372.097245
 42
0.118894
  0
VERTEX
  8
0
 10
83.524158
 20
364.961301
 42
0.075512
  0
VERTEX
  8
0
 10
76.953444
 20
353.260769
 42
0.058584
  0
VERTEX
  8
0
 10
72.955303
 20
337.195546
 42
0.032453
  0
VERTEX
  8
0
 10
71.701611
 20
317.000000
 42
0.024391
  0
VERTEX
  8
0
 10
72.505940
 20
301.443334
 42
0.042026
  0
VERTEX
  8
0
 10
74.882683
 20
288.702955
 42
0.050399
  0
VERTEX
  8
0
 10
78.894298
 20
278.333852
 42
0.066066
  0
VERTEX
  8
0
 10
84.638207
 20
269.970322
 42
0.089004
  0
VERTEX
  8
0
 10
91.857712
 20
264.372809
 42
0.109923
  0
VERTEX
  8
0
 10
100.059028
 20
262.164637
 42
0.114284
  0
VERTEX
  8
0
 10
108.179258
 20
263.671980
 42
0.102269
  0
VERTEX
  8
0
 10
115.190223
 20
268.623901
 42
0.073683
  0
VERTEX
  8
0
 10
119.180429
 20
274.395270
 42
0.027131
  0
VERTEX
  8
0
 10
123.078649
 20
283.524493
 42
0.023528
  0
VERTEX
  8
0
 10
125.936801
 20
292.690340
 42
0.156671
  0
VERTEX
  8
0
 10
125.674366
 20
297.406205
 42
0.159352
  0
VERTEX
  8
0
 10
124.694464
 20
298.611900
 42
0.009027
  0
VERTEX
  8
0
 10
120.556609
 20
301.173058
 42
0.010324
  0
VERTEX
  8
0
 10
116.363598
 20
303.549055
 42
0.124359
  0
VERTEX
  8
0
 10
114.578557
 20
304.000000
 42
0.313570
  0
VERTEX
  8
0
 10
114.357518
 20
303.846261
 42
0.013394
  0
VERTEX
  8
0
 10
114.034378
 20
302.898438
 42
0.018830
  0
VERTEX
  8
0
 10
113.706867
 20
301.687437
 42
0.011811
  0
VERTEX
  8
0
 10
113.411212
 20
300.250000
 42
-0.049879
  0
VERTEX
  8
0
 10
110.577376
 20
290.354384
 42
-0.110994
  0
VERTEX
  8
0
 10
106.178512
 20
283.919975
 42
-0.173551
  0
VERTEX
  8
0
 10
100.809872
 20
281.609731
 42
-0.166561
  0
VERTEX
  8
0
 10
95.086987
 20
283.177578
 42
-0.112757
  0
VERTEX
  8
0
 10
90.646023
 20
287.956687
 42
-0.061808
  0
VERTEX
  8
0
 10
87.512748
 20
295.352820
 42
-0.046501
  0
VERTEX
  8
0
 10
85.631831
 20
305.441528
 42
-0.022851
  0
VERTEX
  8
0
 10
85.034727
 20
318.500000
 42
-0.029462
  0
VERTEX
  8
0
 10
85.956772
 20
334.134333
 42
-0.067490
  0
VERTEX
  8
0
 10
88.900251
 20
345.538594
 42
-0.104842
  0
VERTEX
  8
0
 10
93.663009
 20
352.556073
 42
-0.186406
  0
VERTEX
  8
0
 10
100.015558
 20
355.219505
 42
-0.111763
  0
VERTEX
  8
0
 10
104.061474
 20
354.423855
 42
-0.100631
  0
VERTEX
  8
0
 10
107.548173
 20
351.948511
 42
-0.081909
  0
VERTEX
  8
0
 10
110.315548
 20
347.809928
 42
-0.048217
  0
VERTEX
  8
0
 10
112.246304
 20
342.165373
 42
0.024651
  0
VERTEX
  8
0
 10
113.279709
 20
338.605293
 42
0.264399
  0
VERTEX
  8
0
 10
114.366235
 20
337.648435
 42
0.146728
  0
VERTEX
  8
0
 10
116.152394
 20
337.802998
 42
0.006715
  0
VERTEX
  8
0
 10
121.874928
 20
340.162803
 42
0.014362
  0
VERTEX
  8
0
 10
124.640372
 20
341.442075
 42
0.135722
  0
VERTEX
  8
0
 10
125.603225
 20
342.306863
 42
0.160873
  0
VERTEX
  8
0
 10
125.903271
 20
343.480984
 42
0.022440
  0
VERTEX
  8
0
 10
125.614766
 20
346.007662
 42
0.034438
  0
VERTEX
  8
0
 10
124.471352
 20
350.948599
 42
0.025497
  0
VERTEX
  8
0
 10
122.562366
 20
356.223374
 42
0.025689
  0
VERTEX
  8
0
 10
120.153386
 20
361.215541
 42
0.037809
  0
VERTEX
  8
0
 10
117.500004
 20
365.296202
 42
0.078164
  0
VERTEX
  8
0
 10
112.285097
 20
370.279239
 42
0.085468
  0
VERTEX
  8
0
 10
105.943540
 20
373.234828
 42
0.087697
  0
VERTEX
  8
0
 10
99.118246
 20
373.855355
 42
0.087910
  0
SEQEND
  0
POLYLINE
  8
0
 66
1
 70
1
  0
VERTEX
  8
0
 10
153.000000
 20
371.200480
 42
-0.053835
  0
VERTEX
  8
0
 10
152.858632
 20
369.891309
 42
-0.000107
  0
VERTEX
  8
0
 10
148.382104
 20
349.426083
 42
-0.000727
  0
VERTEX
  8
0
 10
143.140455
 20
325.652913
 42
-0.000383
  0
VERTEX
  8
0
 10
136.564993
 20
296.141919
 42
0.000974
  0
VERTEX
  8
0
 10
134.048688
 20
284.785350
 42
0.001517
  0
VERTEX
  8
0
 10
131.928467
 20
274.985476
 42
0.000420
  0
VERTEX
  8
0
 10
130.114462
 20
266.440974
 42
0.052136
  0
VERTEX
  8
0
 10
130.000000
 20
265.346229
 42
0.250280
  0
VERTEX
  8
0
 10
130.366520
 20
264.659876
 42
0.105770
  0
VERTEX
  8
0
 10
131.367225
 20
264.261259
 42
0.044603
  0
VERTEX
  8
0
 10
133.261430
 20
264.110985
 42
0.008498
  0
VERTEX
  8
0
 10
136.720219
 20
264.204310
 42
0.000000
  0
VERTEX
  8
0
 10
143.440439
 20
264.500000
 42
0.000000
  0
VERTEX
  8
0
 10
145.853142
 20
276.750000
 42
0.000000
  0
VERTEX
  8
0
 10
148.265846
 20
289.000000
 42
0.000000
  0
VERTEX
  8
0
 10
160.532542
 20
289.000000
 42
0.000000
  0
VERTEX
  8
0
 10
172.799238
 20
289.000000
 42
0.000000
  0
VERTEX
  8
0
 10
174.384338
 20
281.750000
 42
-0.000547
  0
VERTEX
  8
0
 10
175.071517
 20
278.590394
 42
-0.000402
  0
VERTEX
  8
0
 10
175.826395
 20
275.087500
 42
-0.000406
  0
VERTEX
  8
0
 10
176.535137
 20
271.772673
 42
-0.000907
  0
VERTEX
  8
0
 10
177.067583
 20
269.250000
 42
0.000000
  0
VERTEX
  8
0
 10
178.165728
 20
264.000000
 42
0.000000
  0
VERTEX
  8
0
 10
185.406276
 20
264.000000
 42
0.000000
  0
VERTEX
  8
0
 10
192.646823
 20
264.000000
 42
0.000000
  0
VERTEX
  8
0
 10
181.965567
 20
310.250000
 42
-0.000151
  0
VERTEX
  8
0
 10
177.749818
 20
328.529365
 42
-0.000199
  0
VERTEX
  8
0
 10
173.919510
 20
345.190625
 42
-0.000142
  0
VERTEX
  8
0
 10
170.717537
 20
359.162393
 42
-0.001947
  0
VERTEX
  8
0
 10
169.573945
 20
364.250000
 42
0.000000
  0
VERTEX
  8
0
 10
167.863579
 20
372.000000
 42
0.000000
  0
VERTEX
  8
0
 10
160.431789
 20
372.000000
 42
0.010095
  0
VERTEX
  8
0
 10
157.582371
 20
371.942466
 42
0.016699
  0
VERTEX
  8
0
 10
155.183088
 20
371.765141
 42
0.010670
  0
VERTEX
  8
0
 10
153.273513
 20
371.518387
 42
0.370975
  0
SEQEND
  0
POLYLINE
  8
0
 66
1
 70
1
  0
VERTEX
  8
0
 10
164.834496
 20
325.750000
 42
0.000000
  0
VERTEX
  8
0
 10
168.706491
 20
307.000000
 42
0.000000
  0
VERTEX
  8
0
 10
160.509180
 20
307.000000
 42
0.000000
  0
VERTEX
  8
0
 10
152.311869
 20
307.000000
 42
0.000000
  0
VERTEX
  8
0
 10
155.641748
 20
322.750000
 42
0.000907
  0
VERTEX
  8
0
 10
156.966643
 20
329.073311
 42
0.001078
  0
VERTEX
  8
0
 10
158.193697
 20
335.047772
 42
0.000934
  0
VERTEX
  8
0
 10
159.208619
 20
340.092296
 42
0.006950
  0
VERTEX
  8
0
 10
159.653235
 20
342.497733
 42
-0.058771
  0
VERTEX
  8
0
 10
160.244065
 20
344.504841
 42
-0.698127
  0
VERTEX
  8
0
 10
160.794972
 20
344.476262
 42
-0.023636
  0
VERTEX
  8
0
 10
161.578962
 20
341.440999
 42
-0.000466
  0
SEQEND
  0
POLYLINE
  8
0
 66
1
 70
1
  0
VERTEX
  8
0
 10
198.000000
 20
318.000000
 42
0.000000
  0
VERTEX
  8
0
 10
198.000000
 20
264.000000
 42
0.000000
  0
VERTEX
  8
0
 10
204.472490
 20
264.000000
 42
0.000000
  0
VERTEX
  8
0
 10
210.944980
 20
264.000000
 42
0.000000
  0
VERTEX
  8
0
 10
210.713375
 20
303.925781
 42
-0.000790
  0
VERTEX
  8
0
 10
210.648851
 20
319.212350
 42
-0.001335
  0
VERTEX
  8
0
 10
210.649221
 20
332.023948
 42
-0.000102
  0
VERTEX
  8
0
 10
210.682409
 20
343.456297
 42
-0.667056
  0
VERTEX
  8
0
 10
210.820208
 20
343.513125
 42
-0.157045
  0
VERTEX
  8
0
 10
210.984884
 20
343.192008
 42
-0.000434
  0
VERTEX
  8
0
 10
211.777006
 20
338.328133
 42
-0.002539
  0
VERTEX
  8
0
 10
212.640990
 20
332.816651
 42
-0.001575
  0
VERTEX
  8
0
 10
213.602137
 20
326.337344
 42
0.000167
  0
VERTEX
  8
0
 10
214.772035
 20
318.294829
 42
0.000077
  0
VERTEX
  8
0
 10
216.298548
 20
307.836595
 42
0.000076
  0
VERTEX
  8
0
 10
217.906408
 20
296.844669
 42
0.000106
  0
VERTEX
  8
0
 10
219.350124
 20
287.000000
 42
0.000000
  0
VERTEX
  8
0
 10
222.654620
 20
264.500000
 42
0.000000
  0
VERTEX
  8
0
 10
228.796483
 20
264.203083
 42
0.008022
  0
VERTEX
  8
0
 10
232.519276
 20
264.082933
 42
0.077140
  0
VERTEX
  8
0
 10
234.084609
 20
264.299939
 42
0.179468
  0
VERTEX
  8
0
 10
234.928294
 20
264.937176
 42
0.086934
  0
VERTEX
  8
0
 10
235.456546
 20
266.203083
 42
0.017706
  0
VERTEX
  8
0
 10
235.782960
 20
267.933110
 42
0.000273
  0
VERTEX
  8
0
 10
237.303747
 20
277.959656
 42
0.000730
  0
VERTEX
  8
0
 10
239.047262
 20
289.612257
 42
0.000483
  0
VERTEX
  8
0
 10
241.017203
 20
303.000000
 42
-0.001177
  0
VERTEX
  8
0
 10
244.741228
 20
328.066878
 42
-0.012354
  0
VERTEX
  8
0
 10
246.543262
 20
338.285915
 42
-0.738063
  0
VERTEX
  8
0
 10
247.231877
 20
338.354942
 42
-0.105700
  0
VERTEX
  8
0
 10
247.680993
 20
336.000000
 42
0.005377
  0
VERTEX
  8
0
 10
247.628424
 20
331.395014
 42
0.000646
  0
VERTEX
  8
0
 10
247.634826
 20
321.229688
 42
0.000769
  0
VERTEX
  8
0
 10
247.676610
 20
309.147780
 42
0.000632
  0
VERTEX
  8
0
 10
247.757349
 20
296.250000
 42
0.000000
  0
VERTEX
  8
0
 10
248.000000
 20
264.000000
 42
0.000000
  0
VERTEX
  8
0
 10
254.000000
 20
264.000000
 42
0.000000
  0
VERTEX
  8
0
 10
260.000000
 20
264.000000
 42
0.000000
  0
VERTEX
  8
0
 10
260.000000
 20
318.000000
 42
0.000000
  0
VERTEX
  8
0
 10
260.000000
 20
372.000000
 42
0.000000
  0
VERTEX
  8
0
 10
250.000000
 20
372.000000
 42
0.006344
  0
VERTEX
  8
0
 10
245.208121
 20
371.939198
 42
0.024644
  0
VERTEX
  8
0
 10
242.249112
 20
371.717886
 42
0.037077
  0
VERTEX
  8
0
 10
240.437512
 20
371.354330
 42
0.328892
  0
VERTEX
  8
0
 10
239.965453
 20
370.750000
 42
-0.033955
  0
VERTEX
  8
0
 10
239.278073
 20
363.575352
 42
-0.001067
  0
VERTEX
  8
0
 10
234.429694
 20
334.554099
 42
-0.000418
  0
VERTEX
  8
0
 10
229.234766
 20
304.016721
 42
-0.818625
  0
VERTEX
  8
0
 10
228.667484
 20
304.000000
 42
-0.017272
  0
VERTEX
  8
0
 10
228.306849
 20
305.838144
 42
-0.000400
  0
VERTEX
  8
0
 10
226.910802
 20
314.578125
 42
-0.000890
  0
VERTEX
  8
0
 10
225.301445
 20
324.823197
 42
-0.000603
  0
VERTEX
  8
0
 10
223.502898
 20
336.500000
 42
0.000360
  0
VERTEX
  8
0
 10
221.707448
 20
348.194457
 42
0.000526
  0
VERTEX
  8
0
 10
220.107270
 20
358.495313
 42
0.000253
  0
VERTEX
  8
0
 10
218.732256
 20
367.256720
 42
0.009344
  0
VERTEX
  8
0
 10
218.380106
 20
369.250000
 42
0.000000
  0
VERTEX
  8
0
 10
217.841089
 20
372.000000
 42
0.000000
  0
VERTEX
  8
0
 10
207.920545
 20
372.000000
 42
0.000000
  0
VERTEX
  8
0
 10
198.000000
 20
372.000000
 42
0.000000
  0
SEQEND
  0
POLYLINE
  8
0
 66
1
 70
1
  0
VERTEX
  8
0
 10
366.513073
 20
370.794101
 42
0.028879
  0
VERTEX
  8
0
 10
366.219448
 20
369.782209
 42
0.000242
  0
VERTEX
  8
0
 10
364.399766
 20
361.802017
 42
0.000861
  0
VERTEX
  8
0
 10
362.330482
 20
352.633888
 42
0.000555
  0
VERTEX
  8
0
 10
359.961992
 20
342.000000
 42
-0.000448
  0
VERTEX
  8
0
 10
357.233701
 20
329.738409
 42
-0.000292
  0
VERTEX
  8
0
 10
354.062385
 20
315.584638
 42
-0.000294
  0
VERTEX
  8
0
 10
350.952569
 20
301.781139
 42
-0.000560
  0
VERTEX
  8
0
 10
348.434458
 20
290.692385
 42
0.001227
  0
VERTEX
  8
0
 10
346.351659
 20
281.463593
 42
0.001880
  0
VERTEX
  8
0
 10
344.596372
 20
273.454556
 42
0.000628
  0
VERTEX
  8
0
 10
343.113569
 20
266.522713
 42
0.052418
  0
VERTEX
  8
0
 10
343.000000
 20
265.442385
 42
0.251010
  0
VERTEX
  8
0
 10
343.373165
 20
264.745895
 42
0.094645
  0
VERTEX
  8
0
 10
344.425101
 20
264.303187
 42
0.043250
  0
VERTEX
  8
0
 10
346.367866
 20
264.062667
 42
0.009183
  0
VERTEX
  8
0
 10
349.779793
 20
264.000000
 42
0.000000
  0
VERTEX
  8
0
 10
356.559586
 20
264.000000
 42
0.000000
  0
VERTEX
  8
0
 10
359.029793
 20
276.250000
 42
0.000000
  0
VERTEX
  8
0
 10
361.500000
 20
288.500000
 42
0.000000
  0
VERTEX
  8
0
 10
373.976420
 20
288.500000
 42
0.000000
  0
VERTEX
  8
0
 10
386.452840
 20
288.500000
 42
0.000000
  0
VERTEX
  8
0
 10
388.597249
 20
278.832728
 42
0.002420
  0
VERTEX
  8
0
 10
391.180989
 20
267.445803
 42
0.100765
  0
VERTEX
  8
0
 10
392.221103
 20
265.170793
 42
0.220880
  0
VERTEX
  8
0
 10
393.982252
 20
264.194109
 42
0.017894
  0
VERTEX
  8
0
 10
399.404514
 20
264.000000
 42
0.000000
  0
VERTEX
  8
0
 10
406.770923
 20
264.000000
 42
0.000000
  0
VERTEX
  8
0
 10
402.498844
 20
281.250000
 42
-0.001734
  0
VERTEX
  8
0
 10
400.427786
 20
289.738667
 42
-0.000696
  0
VERTEX
  8
0
 10
397.651212
 20
301.364062
 42
-0.000688
  0
VERTEX
  8
0
 10
394.693962
 20
313.899384
 42
-0.000870
  0
VERTEX
  8
0
 10
391.995357
 20
325.500000
 42
0.000165
  0
VERTEX
  8
0
 10
389.445037
 20
336.533621
 42
0.000175
  0
VERTEX
  8
0
 10
386.935011
 20
347.359375
 42
0.000166
  0
VERTEX
  8
0
 10
384.766001
 20
356.685399
 42
0.000798
  0
VERTEX
  8
0
 10
383.519137
 20
362.000000
 42
0.000000
  0
VERTEX
  8
0
 10
381.274326
 20
371.500000
 42
0.000000
  0
VERTEX
  8
0
 10
374.122702
 20
371.794101
 42
0.009815
  0
VERTEX
  8
0
 10
370.722354
 20
371.867124
 42
0.033139
  0
VERTEX
  8
0
 10
368.505472
 20
371.724135
 42
0.052904
  0
VERTEX
  8
0
 10
367.104511
 20
371.386678
 42
0.225866
  0
SEQEND
  0
POLYLINE
  8
0
 66
1
 70
1
  0
VERTEX
  8
0
 10
378.374853
 20
325.444254
 42
-0.000774
  0
VERTEX
  8
0
 10
379.764428
 20
318.856399
 42
-0.001218
  0
VERTEX
  8
0
 10
380.935113
 20
313.194696
 42
-0.000286
  0
VERTEX
  8
0
 10
381.946201
 20
308.229582
 42
-0.050122
  0
VERTEX
  8
0
 10
382.000000
 20
307.694254
 42
-0.380918
  0
VERTEX
  8
0
 10
381.752532
 20
307.416556
 42
-0.007109
  0
VERTEX
  8
0
 10
379.650000
 20
307.203937
 42
-0.013503
  0
VERTEX
  8
0
 10
377.067391
 20
307.049934
 42
-0.008139
  0
VERTEX
  8
0
 10
374.000000
 20
307.000000
 42
-0.008793
  0
VERTEX
  8
0
 10
370.932070
 20
307.053959
 42
-0.014553
  0
VERTEX
  8
0
 10
368.347525
 20
307.220312
 42
-0.008207
  0
VERTEX
  8
0
 10
366.258382
 20
307.450609
 42
-0.374509
  0
VERTEX
  8
0
 10
365.991576
 20
307.750000
 42
-0.056598
  0
VERTEX
  8
0
 10
366.388586
 20
311.634725
 42
-0.001777
  0
VERTEX
  8
0
 10
369.848752
 20
327.219795
 42
-0.000680
  0
VERTEX
  8
0
 10
373.578465
 20
343.637121
 42
-0.694811
  0
VERTEX
  8
0
 10
374.108980
 20
343.707330
 42
-0.063420
  0
VERTEX
  8
0
 10
374.461863
 20
342.773309
 42
-0.001274
  0
VERTEX
  8
0
 10
375.626379
 20
337.844528
 42
-0.003000
  0
VERTEX
  8
0
 10
376.939244
 20
332.067611
 42
-0.002009
  0
SEQEND
  0
POLYLINE
  8
0
 66
1
 70
1
  0
VERTEX
  8
0
 10
412.000000
 20
318.000000
 42
0.000000
  0
VERTEX
  8
0
 10
412.000000
 20
264.000000
 42
0.000000
  0
VERTEX
  8
0
 10
417.988783
 20
264.000000
 42
0.000000
  0
VERTEX
  8
0
 10
423.977565
 20
264.000000
 42
0.000000
  0
VERTEX
  8
0
 10
424.238783
 20
304.750000
 42
-0.000564
  0
VERTEX
  8
0
 10
424.427672
 20
329.808791
 42
-0.009893
  0
VERTEX
  8
0
 10
424.658905
 20
337.934105
 42
-0.637140
  0
VERTEX
  8
0
 10
425.185818
 20
338.149463
 42
-0.169849
  0
VERTEX
  8
0
 10
425.795603
 20
337.000000
 42
-0.000418
  0
VERTEX
  8
0
 10
426.552671
 20
332.005143
 42
-0.000066
  0
VERTEX
  8
0
 10
428.031487
 20
322.184375
 42
-0.000073
  0
VERTEX
  8
0
 10
429.771224
 20
310.608998
 42
-0.000064
  0
VERTEX
  8
0
 10
431.587768
 20
298.500000
 42
0.000424
  0
VERTEX
  8
0
 10
433.345437
 20
286.840758
 42
0.000634
  0
VERTEX
  8
0
 10
434.903551
 20
276.651563
 42
0.000261
  0
VERTEX
  8
0
 10
436.254453
 20
267.921971
 42
0.013702
  0
VERTEX
  8
0
 10
436.561217
 20
266.250000
 42
0.096794
  0
VERTEX
  8
0
 10
437.081708
 20
265.025233
 42
0.164697
  0
VERTEX
  8
0
 10
437.958775
 20
264.359175
 42
0.072261
  0
VERTEX
  8
0
 10
439.594493
 20
264.063611
 42
0.008624
  0
VERTEX
  8
0
 10
443.282398
 20
264.000000
 42
0.000000
  0
VERTEX
  8
0
 10
449.526692
 20
264.000000
 42
0.000000
  0
VERTEX
  8
0
 10
455.513346
 20
304.250000
 42
0.000000
  0
VERTEX
  8
0
 10
461.500000
 20
344.500000
 42
0.000000
  0
VERTEX
  8
0
 10
461.761344
 20
304.250000
 42
0.000000
  0
VERTEX
  8
0
 10
462.022689
 20
264.000000
 42
0.000000
  0
VERTEX
  8
0
 10
468.011344
 20
264.000000
 42
0.000000
  0
VERTEX
  8
0
 10
474.000000
 20
264.000000
 42
0.000000
  0
VERTEX
  8
0
 10
474.000000
 20
318.000000
 42
0.000000
  0
VERTEX
  8
0
 10
474.000000
 20
372.000000
 42
0.000000
  0
VERTEX
  8
0
 10
464.186927
 20
372.000000
 42
0.000000
  0
VERTEX
  8
0
 10
454.373854
 20
372.000000
 42
0.000000
  0
VERTEX
  8
0
 10
451.142585
 20
351.250000
 42
-0.000342
  0
VERTEX
  8
0
 10
446.135018
 20
319.237169
 42
-0.005730
  0
VERTEX
  8
0
 10
444.347633
 20
308.653885
 42
-0.026964
  0
VERTEX
  8
0
 10
443.356852
 20
304.472935
 42
-0.780174
  0
VERTEX
  8
0
 10
442.695008
 20
304.500000
 42
-0.010014
  0
VERTEX
  8
0
 10
442.289101
 20
306.671071
 42
-0.000279
  0
VERTEX
  8
0
 10
440.727695
 20
316.092187
 42
-0.000572
  0
VERTEX
  8
0
 10
438.910207
 20
327.175375
 42
-0.000393
  0
VERTEX
  8
0
 10
436.873062
 20
339.750000
 42
0.000000
  0
VERTEX
  8
0
 10
431.674429
 20
372.000000
 42
0.000000
  0
VERTEX
  8
0
 10
421.837215
 20
372.000000
 42
0.000000
  0
VERTEX
  8
0
 10
412.000000
 20
372.000000
 42
0.000000
  0
SEQEND
  0
POLYLINE
  8
0
 66
1
 70
1
  0
VERTEX
  8
0
 10
510.000000
 20
318.000000
 42
0.000000
  0
VERTEX
  8
0
 10
510.000000
 20
264.000000
 42
0.000000
  0
VERTEX
  8
0
 10
516.500000
 20
264.000000
 42
0.000000
  0
VERTEX
  8
0
 10
523.000000
 20
264.000000
 42
0.000000
  0
VERTEX
  8
0
 10
523.000000
 20
284.500000
 42
0.000000
  0
VERTEX
  8
0
 10
523.000000
 20
305.000000
 42
0.000000
  0
VERTEX
  8
0
 10
531.350777
 20
305.000000
 42
0.012109
  0
VERTEX
  8
0
 10
534.797190
 20
305.083478
 42
0.011989
  0
VERTEX
  8
0
 10
538.247035
 20
305.333719
 42
0.011924
  0
VERTEX
  8
0
 10
541.252372
 20
305.696812
 42
0.044645
  0
VERTEX
  8
0
 10
543.100777
 20
306.136065
 42
0.117382
  0
VERTEX
  8
0
 10
549.575753
 20
310.161681
 42
0.087084
  0
VERTEX
  8
0
 10
554.399329
 20
317.105450
 42
0.068984
  0
VERTEX
  8
0
 10
557.357767
 20
326.818571
 42
0.040030
  0
VERTEX
  8
0
 10
558.308483
 20
339.000000
 42
0.020995
  0
VERTEX
  8
0
 10
557.961503
 20
346.860699
 42
0.034403
  0
VERTEX
  8
0
 10
556.933908
 20
353.442591
 42
0.040203
  0
VERTEX
  8
0
 10
555.191114
 20
358.997460
 42
0.051236
  0
VERTEX
  8
0
 10
552.681171
 20
363.740036
 42
0.057518
  0
VERTEX
  8
0
 10
548.809031
 20
368.299561
 42
0.112723
  0
VERTEX
  8
0
 10
544.714927
 20
370.683741
 42
0.065618
  0
VERTEX
  8
0
 10
538.589963
 20
371.746432
 42
0.010162
  0
VERTEX
  8
0
 10
526.250000
 20
371.998446
 42
0.000000
  0
VERTEX
  8
0
 10
510.000000
 20
372.000000
 42
0.000000
  0
SEQEND
  0
POLYLINE
  8
0
 66
1
 70
1
  0
VERTEX
  8
0
 10
539.000000
 20
352.721347
 42
-0.186948
  0
VERTEX
  8
0
 10
543.288543
 20
348.003666
 42
-0.084089
  0
VERTEX
  8
0
 10
544.981630
 20
339.667315
 42
-0.082508
  0
VERTEX
  8
0
 10
543.840853
 20
331.078930
 42
-0.167307
  0
VERTEX
  8
0
 10
539.883127
 20
325.630693
 42
-0.073156
  0
VERTEX
  8
0
 10
538.401385
 20
324.887387
 42
-0.037705
  0
VERTEX
  8
0
 10
536.383443
 20
324.385996
 42
-0.028754
  0
VERTEX
  8
0
 10
533.738113
 20
324.092037
 42
-0.013295
  0
VERTEX
  8
0
 10
530.277494
 20
324.000000
 42
0.000000
  0
VERTEX
  8
0
 10
523.000000
 20
324.000000
 42
0.000000
  0
VERTEX
  8
0
 10
523.000000
 20
339.000000
 42
0.000000
  0
VERTEX
  8
0
 10
523.000000
 20
354.000000
 42
0.000000
  0
VERTEX
  8
0
 10
529.750000
 20
353.985258
 42
-0.016513
  0
VERTEX
  8
0
 10
532.517560
 20
353.887781
 42
-0.016894
  0
VERTEX
  8
0
 10
535.251562
 20
353.607903
 42
-0.016900
  0
VERTEX
  8
0
 10
537.602440
 20
353.205340
 42
-0.065089
  0
SEQEND
  0
POLYLINE
  8
0
 66
1
 70
1
  0
VERTEX
  8
0
 10
568.000000
 20
318.000000
 42
0.000000
  0
VERTEX
  8
0
 10
568.000000
 20
264.000000
 42
0.000000
  0
VERTEX
  8
0
 10
574.500000
 20
264.000000
 42
0.000000
  0
VERTEX
  8
0
 10
581.000000
 20
264.000000
 42
0.000000
  0
VERTEX
  8
0
 10
581.000000
 20
288.000000
 42
0.000000
  0
VERTEX
  8
0
 10
581.000000
 20
312.000000
 42
0.000000
  0
VERTEX
  8
0
 10
593.000000
 20
312.000000
 42
0.000000
  0
VERTEX
  8
0
 10
605.000000
 20
312.000000
 42
0.000000
  0
VERTEX
  8
0
 10
605.000000
 20
288.000000
 42
0.000000
  0
VERTEX
  8
0
 10
605.000000
 20
264.000000
 42
0.000000
  0
VERTEX
  8
0
 10
611.500000
 20
264.000000
 42
0.000000
  0
VERTEX
  8
0
 10
618.000000
 20
264.000000
 42
0.000000
  0
VERTEX
  8
0
 10
618.000000
 20
318.000000
 42
0.000000
  0
VERTEX
  8
0
 10
618.000000
 20
372.000000
 42
0.000000
  0
VERTEX
  8
0
 10
611.500000
 20
372.000000
 42
0.000000
  0
VERTEX
  8
0
 10
605.000000
 20
372.000000
 42
0.000000
  0
VERTEX
  8
0
 10
605.000000
 20
351.000000
 42
0.000000
  0
VERTEX
  8
0
 10
605.000000
 20
330.000000
 42
0.000000
  0
VERTEX
  8
0
 10
593.000000
 20
330.000000
 42
0.000000
  0
VERTEX
  8
0
 10
581.000000
 20
330.000000
 42
0.000000
  0
VERTEX
  8
0
 10
581.000000
 20
351.000000
 42
0.000000
  0
VERTEX
  8
0
 10
581.000000
 20
372.000000
 42
0.000000
  0
VERTEX
  8
0
 10
574.500000
 20
372.000000
 42
0.000000
  0
VERTEX
  8
0
 10
568.000000
 20
372.000000
 42
0.000000
  0
SEQEND
  0
POLYLINE
  8
0
 66
1
 70
1
  0
VERTEX
  8
0
 10
630.000000
 20
318.000000
 42
0.000000
  0
VERTEX
  8
0
 10
630.000000
 20
264.000000
 42
0.000000
  0
VERTEX
  8
0
 10
636.500000
 20
264.000000
 42
0.000000
  0
VERTEX
  8
0
 10
643.000000
 20
264.000000
 42
0.000000
  0
VERTEX
  8
0
 10
643.000000
 20
318.000000
 42
0.000000
  0
VERTEX
  8
0
 10
643.000000
 20
372.000000
 42
0.000000
  0
VERTEX
  8
0
 10
636.500000
 20
372.000000
 42
0.000000
  0
VERTEX
  8
0
 10
630.000000
 20
372.000000
 42
0.000000
  0
SEQEND
  0
POLYLINE
  8
0
 66
1
 70
1
  0
VERTEX
  8
0
 10
655.000000
 20
318.000000
 42
0.000000
  0
VERTEX
  8
0
 10
655.000000
 20
264.000000
 42
0.000000
  0
VERTEX
  8
0
 10
679.000000
 20
264.000000
 42
0.000000
  0
VERTEX
  8
0
 10
703.000000
 20
264.000000
 42
0.000000
  0
VERTEX
  8
0
 10
703.000000
 20
273.000000
 42
0.000000
  0
VERTEX
  8
0
 10
703.000000
 20
282.000000
 42
0.000000
  0
VERTEX
  8
0
 10
685.500000
 20
282.000000
 42
0.000000
  0
VERTEX
  8
0
 10
668.000000
 20
282.000000
 42
0.000000
  0
VERTEX
  8
0
 10
668.000000
 20
297.000000
 42
0.000000
  0
VERTEX
  8
0
 10
668.000000
 20
312.000000
 42
0.000000
  0
VERTEX
  8
0
 10
683.500000
 20
312.000000
 42
0.000000
  0
VERTEX
  8
0
 10
699.000000
 20
312.000000
 42
0.000000
  0
VERTEX
  8
0
 10
699.000000
 20
321.000000
 42
0.000000
  0
VERTEX
  8
0
 10
699.000000
 20
330.000000
 42
0.000000
  0
VERTEX
  8
0
 10
683.500000
 20
330.000000
 42
0.000000
  0
VERTEX
  8
0
 10
668.000000
 20
330.000000
 42
0.000000
  0
VERTEX
  8
0
 10
668.000000
 20
342.000000
 42
0.000000
  0
VERTEX
  8
0
 10
668.000000
 20
354.000000
 42
0.000000
  0
VERTEX
  8
0
 10
685.000000
 20
354.000000
 42
0.000000
  0
VERTEX
  8
0
 10
702.000000
 20
354.000000
 42
0.000000
  0
VERTEX
  8
0
 10
702.000000
 20
363.000000
 42
0.000000
  0
VERTEX
  8
0
 10
702.000000
 20
372.000000
 42
0.000000
  0
VERTEX
  8
0
 10
678.500000
 20
372.000000
 42
0.000000
  0
VERTEX
  8
0
 10
655.000000
 20
372.000000
 42
0.000000
  0
SEQEND
  0
POLYLINE
  8
0
 66
1
 70
1
  0
VERTEX
  8
0
 10
712.829004
 20
364.250000
 42
0.009845
  0
VERTEX
  8
0
 10
712.713229
 20
359.158886
 42
0.000724
  0
VERTEX
  8
0
 10
712.690896
 20
345.190625
 42
0.001008
  0
VERTEX
  8
0
 10
712.721974
 20
328.529346
 42
0.000764
  0
VERTEX
  8
0
 10
712.820856
 20
310.250000
 42
0.000000
  0
VERTEX
  8
0
 10
713.141711
 20
264.000000
 42
0.000000
  0
VERTEX
  8
0
 10
719.070856
 20
264.000000
 42
0.000000
  0
VERTEX
  8
0
 10
725.000000
 20
264.000000
 42
0.000000
  0
VERTEX
  8
0
 10
725.039246
 20
298.250000
 42
0.000000
  0
VERTEX
  8
0
 10
725.078493
 20
332.500000
 42
0.000000
  0
VERTEX
  8
0
 10
731.928069
 20
313.500000
 42
0.000025
  0
VERTEX
  8
0
 10
734.945625
 20
305.130911
 42
0.000017
  0
VERTEX
  8
0
 10
738.355936
 20
295.675000
 42
0.000017
  0
VERTEX
  8
0
 10
741.630620
 20
286.597097
 42
0.000036
  0
VERTEX
  8
0
 10
744.191613
 20
279.500000
 42
0.000000
  0
VERTEX
  8
0
 10
749.605581
 20
264.500000
 42
0.000000
  0
VERTEX
  8
0
 10
756.302790
 20
264.204310
 42
0.000000
  0
VERTEX
  8
0
 10
763.000000
 20
263.908620
 42
0.000000
  0
VERTEX
  8
0
 10
763.000000
 20
317.954310
 42
0.000000
  0
VERTEX
  8
0
 10
763.000000
 20
372.000000
 42
0.000000
  0
VERTEX
  8
0
 10
757.000000
 20
372.000000
 42
0.000000
  0
VERTEX
  8
0
 10
751.000000
 20
372.000000
 42
0.000000
  0
VERTEX
  8
0
 10
750.953904
 20
336.750000
 42
0.000000
  0
VERTEX
  8
0
 10
750.907807
 20
301.500000
 42
0.000000
  0
VERTEX
  8
0
 10
746.151582
 20
314.500000
 42
-0.000862
  0
VERTEX
  8
0
 10
743.782148
 20
321.011063
 42
-0.000317
  0
VERTEX
  8
0
 10
740.457868
 20
330.213473
 42
-0.000314
  0
VERTEX
  8
0
 10
736.839120
 20
340.270749
 42
-0.000377
  0
VERTEX
  8
0
 10
733.447679
 20
349.737355
 42
0.000000
  0
VERTEX
  8
0
 10
725.500000
 20
371.974711
 42
0.000000
  0
VERTEX
  8
0
 10
719.329004
 20
371.987355
 42
0.000000
  0
VERTEX
  8
0
 10
713.158008
 20
372.000000
 42
0.000000
  0
SEQEND
  0
POLYLINE
  8
0
 66
1
 70
1
  0
VERTEX
  8
0
 10
296.000000
 20
317.500000
 42
0.000000
  0
VERTEX
  8
0
 10
296.000000
 20
264.000000
 42
0.000000
  0
VERTEX
  8
0
 10
318.537526
 20
264.000000
 42
0.000000
  0
VERTEX
  8
0
 10
341.075052
 20
264.000000
 42
0.000000
  0
VERTEX
  8
0
 10
340.787526
 20
273.250000
 42
0.000000
  0
VERTEX
  8
0
 10
340.500000
 20
282.500000
 42
0.000000
  0
VERTEX
  8
0
 10
324.750000
 20
282.130438
 42
0.000000
  0
VERTEX
  8
0
 10
309.000000
 20
281.760876
 42
0.000000
  0
VERTEX
  8
0
 10
309.000000
 20
326.380438
 42
0.000000
  0
VERTEX
  8
0
 10
309.000000
 20
371.000000
 42
0.000000
  0
VERTEX
  8
0
 10
302.500000
 20
371.000000
 42
0.000000
  0
VERTEX
  8
0
 10
296.000000
 20
371.000000
 42
0.000000
  0
SEQEND
  0
ENDSEC
  0
EOF
