  0
SECTION
  2
HEADER
  9
$ACADVER
  1
AC1006
  9
$EXTMIN
 10
0.000000
 20
0.000000
 30
0.000000
  9
$EXTMAX
 10
420.000000
 20
420.000000
 30
0.000000
  0
ENDSEC
  0
SECTION
  2
ENTITIES
  0
POLYLINE
  8
0
 66
1
 70
1
  0
VERTEX
  8
0
 10
327.000000
 20
345.732784
 42
0.058925
  0
VERTEX
  8
0
 10
317.914998
 20
341.272647
 42
0.084468
  0
VERTEX
  8
0
 10
311.319744
 20
335.218839
 42
0.089795
  0
VERTEX
  8
0
 10
307.363584
 20
327.629621
 42
0.075897
  0
VERTEX
  8
0
 10
306.009769
 20
318.667095
 42
0.159436
  0
VERTEX
  8
0
 10
311.122340
 20
303.124709
 42
0.145091
  0
VERTEX
  8
0
 10
324.612598
 20
292.898689
 42
0.138955
  0
VERTEX
  8
0
 10
341.977443
 20
291.431201
 42
0.143268
  0
VERTEX
  8
0
 10
357.295513
 20
299.336626
 42
0.103156
  0
VERTEX
  8
0
 10
363.371872
 20
308.139253
 42
0.099796
  0
VERTEX
  8
0
 10
365.517713
 20
318.743458
 42
0.099851
  0
VERTEX
  8
0
 10
363.387093
 20
329.345910
 42
0.103395
  0
VERTEX
  8
0
 10
357.323799
 20
338.143975
 42
0.038415
  0
VERTEX
  8
0
 10
352.841229
 20
341.802564
 42
0.050744
  0
VERTEX
  8
0
 10
348.233549
 20
344.357787
 42
0.050861
  0
VERTEX
  8
0
 10
343.214239
 20
345.928603
 42
0.038848
  0
VERTEX
  8
0
 10
337.500000
 20
346.640870
 42
0.017257
  0
VERTEX
  8
0
 10
334.549778
 20
346.675804
 42
0.015901
  0
VERTEX
  8
0
 10
331.522133
 20
346.510724
 42
0.016244
  0
VERTEX
  8
0
 10
328.824504
 20
346.188851
 42
0.046888
  0
SEQEND
  0
POLYLINE
  8
0
 66
1
 70
1
  0
VERTEX
  8
0
 10
347.305829
 20
342.628291
 42
-0.086932
  0
VERTEX
  8
0
 10
356.004553
 20
336.806331
 42
-0.096919
  0
VERTEX
  8
0
 10
361.816921
 20
328.566113
 42
-0.101636
  0
VERTEX
  8
0
 10
363.924279
 20
319.075744
 42
-0.105612
  0
VERTEX
  8
0
 10
362.069971
 20
309.663236
 42
-0.122024
  0
VERTEX
  8
0
 10
353.852300
 20
298.804048
 42
-0.120145
  0
VERTEX
  8
0
 10
341.469993
 20
292.959594
 42
-0.120538
  0
VERTEX
  8
0
 10
327.819857
 20
293.479446
 42
-0.123351
  0
VERTEX
  8
0
 10
316.084170
 20
300.252675
 42
-0.038698
  0
VERTEX
  8
0
 10
312.328858
 20
304.495414
 42
-0.059798
  0
VERTEX
  8
0
 10
309.866266
 20
308.720434
 42
-0.060522
  0
VERTEX
  8
0
 10
308.492094
 20
313.369943
 42
-0.040782
  0
VERTEX
  8
0
 10
308.021962
 20
318.890469
 42
-0.047561
  0
VERTEX
  8
0
 10
308.536642
 20
324.492697
 42
-0.060883
  0
VERTEX
  8
0
 10
310.107183
 20
329.424829
 42
-0.060106
  0
VERTEX
  8
0
 10
312.839303
 20
333.881412
 42
-0.044775
  0
VERTEX
  8
0
 10
316.814794
 20
338.068177
 42
-0.073933
  0
VERTEX
  8
0
 10
323.522919
 20
342.407640
 42
-0.069647
  0
VERTEX
  8
0
 10
331.341079
 20
344.719617
 42
-0.069334
  0
VERTEX
  8
0
 10
339.526331
 20
344.801549
 42
-0.072112
  0
SEQEND
  0
POLYLINE
  8
0
 66
1
 70
1
  0
VERTEX
  8
0
 10
245.500000
 20
317.000000
 42
0.034265
  0
VERTEX
  8
0
 10
246.294465
 20
316.234657
 42
0.034575
  0
VERTEX
  8
0
 10
247.183728
 20
315.587500
 42
0.036747
  0
VERTEX
  8
0
 10
248.034893
 20
315.137293
 42
0.103634
  0
VERTEX
  8
0
 10
248.690171
 20
315.000000
 42
0.087423
  0
VERTEX
  8
0
 10
249.302596
 20
315.107904
 42
0.273611
  0
VERTEX
  8
0
 10
249.557725
 20
315.418388
 42
0.139915
  0
VERTEX
  8
0
 10
249.487092
 20
315.983549
 42
0.022264
  0
VERTEX
  8
0
 10
249.000000
 20
317.000000
 42
0.073307
  0
VERTEX
  8
0
 10
248.433143
 20
317.764938
 42
0.056739
  0
VERTEX
  8
0
 10
247.621361
 20
318.412500
 42
0.057583
  0
VERTEX
  8
0
 10
246.700062
 20
318.851807
 42
0.082664
  0
VERTEX
  8
0
 10
245.809829
 20
319.000000
 42
0.014668
  0
VERTEX
  8
0
 10
244.482039
 20
318.961039
 42
0.353297
  0
VERTEX
  8
0
 10
244.225282
 20
318.727589
 42
0.218567
  0
VERTEX
  8
0
 10
244.341874
 20
318.316990
 42
0.007131
  0
SEQEND
  0
POLYLINE
  8
0
 66
1
 70
1
  0
VERTEX
  8
0
 10
92.000000
 20
313.500000
 42
-0.020945
  0
VERTEX
  8
0
 10
91.927717
 20
311.775243
 42
-0.033738
  0
VERTEX
  8
0
 10
91.706250
 20
310.321875
 42
-0.036969
  0
VERTEX
  8
0
 10
91.388512
 20
309.267028
 42
-0.310520
  0
VERTEX
  8
0
 10
91.000000
 20
309.000000
 42
0.148195
  0
VERTEX
  8
0
 10
90.618646
 20
308.884432
 42
0.098894
  0
VERTEX
  8
0
 10
90.293750
 20
308.559375
 42
0.082425
  0
VERTEX
  8
0
 10
90.074694
 20
308.073457
 42
0.064853
  0
VERTEX
  8
0
 10
90.000000
 20
307.500000
 42
0.064853
  0
VERTEX
  8
0
 10
90.074694
 20
306.926543
 42
0.082425
  0
VERTEX
  8
0
 10
90.293750
 20
306.440625
 42
0.098894
  0
VERTEX
  8
0
 10
90.618646
 20
306.115568
 42
0.148195
  0
VERTEX
  8
0
 10
91.000000
 20
306.000000
 42
-0.310520
  0
VERTEX
  8
0
 10
91.388512
 20
305.732972
 42
-0.036969
  0
VERTEX
  8
0
 10
91.706250
 20
304.678125
 42
-0.033738
  0
VERTEX
  8
0
 10
91.927717
 20
303.224757
 42
-0.020945
  0
VERTEX
  8
0
 10
92.000000
 20
301.500000
 42
0.000000
  0
VERTEX
  8
0
 10
92.000000
 20
297.000000
 42
0.000000
  0
VERTEX
  8
0
 10
98.045455
 20
297.000000
 42
0.014876
  0
VERTEX
  8
0
 10
101.369201
 20
297.098911
 42
0.055462
  0
VERTEX
  8
0
 10
103.428176
 20
297.453008
 42
0.077107
  0
VERTEX
  8
0
 10
104.991873
 20
298.179696
 42
0.049154
  0
VERTEX
  8
0
 10
106.545455
 20
299.454545
 42
0.048010
  0
VERTEX
  8
0
 10
107.799701
 20
300.975920
 42
0.074485
  0
VERTEX
  8
0
 10
108.530488
 20
302.509023
 42
0.056662
  0
VERTEX
  8
0
 10
108.894604
 20
304.477424
 42
0.017430
  0
VERTEX
  8
0
 10
109.000000
 20
307.500000
 42
0.017430
  0
VERTEX
  8
0
 10
108.894604
 20
310.522576
 42
0.056662
  0
VERTEX
  8
0
 10
108.530488
 20
312.490977
 42
0.074485
  0
VERTEX
  8
0
 10
107.799701
 20
314.024080
 42
0.048010
  0
VERTEX
  8
0
 10
106.545455
 20
315.545455
 42
0.049154
  0
VERTEX
  8
0
 10
104.991873
 20
316.820304
 42
0.077107
  0
VERTEX
  8
0
 10
103.428176
 20
317.546992
 42
0.055462
  0
VERTEX
  8
0
 10
101.369201
 20
317.901089
 42
0.014876
  0
VERTEX
  8
0
 10
98.045455
 20
318.000000
 42
0.000000
  0
VERTEX
  8
0
 10
92.000000
 20
318.000000
 42
0.000000
  0
SEQEND
  0
POLYLINE
  8
0
 66
1
 70
1
  0
VERTEX
  8
0
 10
103.428571
 20
312.428571
 42
-0.138994
  0
VERTEX
  8
0
 10
104.520325
 20
310.473015
 42
-0.049206
  0
VERTEX
  8
0
 10
104.954765
 20
307.265609
 42
-0.049058
  0
VERTEX
  8
0
 10
104.757382
 20
304.072717
 42
-0.157693
  0
VERTEX
  8
0
 10
103.800000
 20
302.200000
 42
-0.097261
  0
VERTEX
  8
0
 10
103.112471
 20
301.738180
 42
-0.034257
  0
VERTEX
  8
0
 10
101.983125
 20
301.352500
 42
-0.032464
  0
VERTEX
  8
0
 10
100.651364
 20
301.088500
 42
-0.032710
  0
VERTEX
  8
0
 10
99.300000
 20
301.000000
 42
-0.024368
  0
VERTEX
  8
0
 10
97.475820
 20
301.088955
 42
-0.138598
  0
VERTEX
  8
0
 10
96.580000
 20
301.439394
 42
-0.183226
  0
VERTEX
  8
0
 10
96.133696
 20
302.151209
 42
-0.049440
  0
VERTEX
  8
0
 10
96.000000
 20
303.500000
 42
-0.044917
  0
VERTEX
  8
0
 10
96.106468
 20
304.682766
 42
-0.124434
  0
VERTEX
  8
0
 10
96.450000
 20
305.437500
 42
-0.149477
  0
VERTEX
  8
0
 10
97.064742
 20
305.857434
 42
-0.075780
  0
VERTEX
  8
0
 10
98.000000
 20
306.000000
 42
0.072314
  0
VERTEX
  8
0
 10
98.769411
 20
306.111864
 42
0.088920
  0
VERTEX
  8
0
 10
99.416667
 20
306.437500
 42
0.102140
  0
VERTEX
  8
0
 10
99.846791
 20
306.924246
 42
0.130775
  0
VERTEX
  8
0
 10
100.000000
 20
307.500000
 42
0.130775
  0
VERTEX
  8
0
 10
99.846791
 20
308.075754
 42
0.102140
  0
VERTEX
  8
0
 10
99.416667
 20
308.562500
 42
0.088920
  0
VERTEX
  8
0
 10
98.769411
 20
308.888136
 42
0.072314
  0
VERTEX
  8
0
 10
98.000000
 20
309.000000
 42
-0.075780
  0
VERTEX
  8
0
 10
97.064742
 20
309.142566
 42
-0.149477
  0
VERTEX
  8
0
 10
96.450000
 20
309.562500
 42
-0.124434
  0
VERTEX
  8
0
 10
96.106468
 20
310.317234
 42
-0.044917
  0
VERTEX
  8
0
 10
96.000000
 20
311.500000
 42
-0.047300
  0
VERTEX
  8
0
 10
96.124940
 20
312.817758
 42
-0.170402
  0
VERTEX
  8
0
 10
96.542857
 20
313.536585
 42
-0.145911
  0
VERTEX
  8
0
 10
97.364782
 20
313.900520
 42
-0.031775
  0
VERTEX
  8
0
 10
98.928571
 20
314.000000
 42
-0.046696
  0
VERTEX
  8
0
 10
100.165150
 20
313.884260
 42
-0.037347
  0
VERTEX
  8
0
 10
101.458482
 20
313.538393
 42
-0.038604
  0
VERTEX
  8
0
 10
102.615607
 20
313.031149
 42
-0.073907
  0
SEQEND
  0
POLYLINE
  8
0
 66
1
 70
1
  0
VERTEX
  8
0
 10
173.000000
 20
307.631533
 42
0.000000
  0
VERTEX
  8
0
 10
173.000000
 20
297.263066
 42
0.000000
  0
VERTEX
  8
0
 10
178.419973
 20
297.214363
 42
0.049573
  0
VERTEX
  8
0
 10
182.685882
 20
297.599675
 42
0.131281
  0
VERTEX
  8
0
 10
185.421404
 20
298.921800
 42
0.147366
  0
VERTEX
  8
0
 10
186.946341
 20
301.317288
 42
0.068673
  0
VERTEX
  8
0
 10
187.454545
 20
305.000000
 42
0.105166
  0
VERTEX
  8
0
 10
186.589683
 20
309.066426
 42
0.130226
  0
VERTEX
  8
0
 10
184.169530
 20
312.070770
 42
0.168020
  0
VERTEX
  8
0
 10
181.055037
 20
313.036772
 42
0.190563
  0
VERTEX
  8
0
 10
178.200000
 20
311.800000
 42
-0.120991
  0
VERTEX
  8
0
 10
177.630985
 20
311.455358
 42
-0.372712
  0
VERTEX
  8
0
 10
177.250000
 20
311.620833
 42
-0.100282
  0
VERTEX
  8
0
 10
177.044552
 20
312.433482
 42
-0.011933
  0
VERTEX
  8
0
 10
177.000000
 20
314.300000
 42
0.020194
  0
VERTEX
  8
0
 10
176.921025
 20
316.254599
 42
0.104070
  0
VERTEX
  8
0
 10
176.614865
 20
317.287500
 42
0.180411
  0
VERTEX
  8
0
 10
176.010883
 20
317.815381
 42
0.090567
  0
VERTEX
  8
0
 10
175.000000
 20
318.000000
 42
0.191813
  0
VERTEX
  8
0
 10
173.907522
 20
317.564889
 42
0.156817
  0
VERTEX
  8
0
 10
173.298223
 20
316.453942
 42
0.044007
  0
VERTEX
  8
0
 10
173.046687
 20
314.010801
 42
0.003659
  0
SEQEND
  0
POLYLINE
  8
0
 66
1
 70
1
  0
VERTEX
  8
0
 10
183.181954
 20
307.500000
 42
-0.039924
  0
VERTEX
  8
0
 10
183.662968
 20
306.172875
 42
-0.067079
  0
VERTEX
  8
0
 10
183.821030
 20
305.000000
 42
-0.067079
  0
VERTEX
  8
0
 10
183.662968
 20
303.827125
 42
-0.039924
  0
VERTEX
  8
0
 10
183.181954
 20
302.500000
 42
-0.139942
  0
VERTEX
  8
0
 10
181.473831
 20
300.494960
 42
-0.247742
  0
VERTEX
  8
0
 10
179.367269
 20
300.280601
 42
-0.196918
  0
VERTEX
  8
0
 10
177.626063
 20
301.979690
 42
-0.102552
  0
VERTEX
  8
0
 10
177.000000
 20
305.000000
 42
-0.102552
  0
VERTEX
  8
0
 10
177.626063
 20
308.020310
 42
-0.196918
  0
VERTEX
  8
0
 10
179.367269
 20
309.719399
 42
-0.247742
  0
VERTEX
  8
0
 10
181.473831
 20
309.505040
 42
-0.139942
  0
SEQEND
  0
POLYLINE
  8
0
 66
1
 70
1
  0
VERTEX
  8
0
 10
191.000000
 20
316.500000
 42
0.130775
  0
VERTEX
  8
0
 10
191.153209
 20
315.924246
 42
0.102140
  0
VERTEX
  8
0
 10
191.583333
 20
315.437500
 42
0.088920
  0
VERTEX
  8
0
 10
192.230589
 20
315.111864
 42
0.072314
  0
VERTEX
  8
0
 10
193.000000
 20
315.000000
 42
0.072314
  0
VERTEX
  8
0
 10
193.769411
 20
315.111864
 42
0.088920
  0
VERTEX
  8
0
 10
194.416667
 20
315.437500
 42
0.102140
  0
VERTEX
  8
0
 10
194.846791
 20
315.924246
 42
0.130775
  0
VERTEX
  8
0
 10
195.000000
 20
316.500000
 42
0.130775
  0
VERTEX
  8
0
 10
194.846791
 20
317.075754
 42
0.102140
  0
VERTEX
  8
0
 10
194.416667
 20
317.562500
 42
0.088920
  0
VERTEX
  8
0
 10
193.769411
 20
317.888136
 42
0.072314
  0
VERTEX
  8
0
 10
193.000000
 20
318.000000
 42
0.072314
  0
VERTEX
  8
0
 10
192.230589
 20
317.888136
 42
0.088920
  0
VERTEX
  8
0
 10
191.583333
 20
317.562500
 42
0.102140
  0
VERTEX
  8
0
 10
191.153209
 20
317.075754
 42
0.130775
  0
SEQEND
  0
POLYLINE
  8
0
 66
1
 70
1
  0
VERTEX
  8
0
 10
207.000000
 20
307.500000
 42
0.003595
  0
VERTEX
  8
0
 10
207.046494
 20
301.033032
 42
0.043488
  0
VERTEX
  8
0
 10
207.297619
 20
298.562500
 42
0.155680
  0
VERTEX
  8
0
 10
207.906793
 20
297.439694
 42
0.193568
  0
VERTEX
  8
0
 10
209.000000
 20
297.000000
 42
0.074170
  0
VERTEX
  8
0
 10
209.906439
 20
297.135206
 42
0.136902
  0
VERTEX
  8
0
 10
210.529705
 20
297.533164
 42
0.125005
  0
VERTEX
  8
0
 10
210.891955
 20
298.226084
 42
0.056607
  0
VERTEX
  8
0
 10
211.015313
 20
299.250000
 42
-0.039518
  0
VERTEX
  8
0
 10
211.257162
 20
302.061790
 42
-0.276147
  0
VERTEX
  8
0
 10
212.112366
 20
303.069611
 42
-0.301181
  0
VERTEX
  8
0
 10
213.332377
 20
302.749228
 42
-0.043862
  0
VERTEX
  8
0
 10
214.945288
 20
300.588525
 42
0.032031
  0
VERTEX
  8
0
 10
215.984871
 20
299.124971
 42
0.045516
  0
VERTEX
  8
0
 10
217.098216
 20
297.982810
 42
0.054106
  0
VERTEX
  8
0
 10
218.186089
 20
297.239997
 42
0.123368
  0
VERTEX
  8
0
 10
219.143972
 20
297.000000
 42
0.094082
  0
VERTEX
  8
0
 10
220.148538
 20
297.190710
 42
0.347421
  0
VERTEX
  8
0
 10
220.451664
 20
297.711852
 42
0.084399
  0
VERTEX
  8
0
 10
220.098737
 20
298.812378
 42
0.004926
  0
VERTEX
  8
0
 10
218.438796
 20
301.935118
 42
0.000000
  0
VERTEX
  8
0
 10
215.752768
 20
306.870237
 42
0.000000
  0
VERTEX
  8
0
 10
217.976210
 20
309.685118
 42
0.000000
  0
VERTEX
  8
0
 10
220.199652
 20
312.500000
 42
0.000000
  0
VERTEX
  8
0
 10
218.110484
 20
312.818154
 42
0.101984
  0
VERTEX
  8
0
 10
217.070438
 20
312.763878
 42
0.061410
  0
VERTEX
  8
0
 10
215.918122
 20
312.306206
 42
0.051717
  0
VERTEX
  8
0
 10
214.719565
 20
311.479033
 42
0.035491
  0
VERTEX
  8
0
 10
213.542259
 20
310.318154
 42
0.000000
  0
VERTEX
  8
0
 10
211.063202
 20
307.500000
 42
0.000000
  0
VERTEX
  8
0
 10
211.031601
 20
312.750000
 42
0.010730
  0
VERTEX
  8
0
 10
210.950054
 20
315.716842
 42
0.080243
  0
VERTEX
  8
0
 10
210.658736
 20
317.089800
 42
0.188053
  0
VERTEX
  8
0
 10
210.049911
 20
317.755253
 42
0.115014
  0
VERTEX
  8
0
 10
209.000000
 20
318.000000
 42
0.193568
  0
VERTEX
  8
0
 10
207.906793
 20
317.560306
 42
0.155680
  0
VERTEX
  8
0
 10
207.297619
 20
316.437500
 42
0.043488
  0
VERTEX
  8
0
 10
207.046494
 20
313.966968
 42
0.003595
  0
SEQEND
  0
POLYLINE
  8
0
 66
1
 70
1
  0
VERTEX
  8
0
 10
224.000000
 20
307.500000
 42
0.003681
  0
VERTEX
  8
0
 10
224.047135
 20
301.097927
 42
0.042302
  0
VERTEX
  8
0
 10
224.296483
 20
298.594580
 42
0.148293
  0
VERTEX
  8
0
 10
224.891188
 20
297.447425
 42
0.202211
  0
VERTEX
  8
0
 10
225.952283
 20
297.000000
 42
0.141846
  0
VERTEX
  8
0
 10
226.982789
 20
297.298349
 42
0.166798
  0
VERTEX
  8
0
 10
227.616291
 20
298.087183
 42
0.065871
  0
VERTEX
  8
0
 10
227.972028
 20
299.719982
 42
0.008823
  0
VERTEX
  8
0
 10
228.202283
 20
303.239957
 42
-0.010369
  0
VERTEX
  8
0
 10
228.432500
 20
306.599790
 42
-0.057476
  0
VERTEX
  8
0
 10
228.798656
 20
308.369898
 42
-0.123279
  0
VERTEX
  8
0
 10
229.413237
 20
309.341245
 42
-0.144231
  0
VERTEX
  8
0
 10
230.380173
 20
309.838350
 42
-0.156625
  0
VERTEX
  8
0
 10
232.029829
 20
309.635508
 42
-0.175332
  0
VERTEX
  8
0
 10
233.163320
 20
308.513725
 42
-0.088299
  0
VERTEX
  8
0
 10
233.799091
 20
306.192264
 42
-0.022067
  0
VERTEX
  8
0
 10
233.984687
 20
302.250000
 42
0.013101
  0
VERTEX
  8
0
 10
234.060410
 20
299.650064
 42
0.056479
  0
VERTEX
  8
0
 10
234.318869
 20
298.127552
 42
0.119759
  0
VERTEX
  8
0
 10
234.788379
 20
297.306351
 42
0.206105
  0
VERTEX
  8
0
 10
235.500000
 20
297.000000
 42
0.237750
  0
VERTEX
  8
0
 10
236.233493
 20
297.369671
 42
0.105393
  0
VERTEX
  8
0
 10
236.694853
 20
298.383333
 42
0.045492
  0
VERTEX
  8
0
 10
236.938313
 20
300.302380
 42
0.008818
  0
VERTEX
  8
0
 10
237.000000
 20
303.800000
 42
0.014970
  0
VERTEX
  8
0
 10
236.916423
 20
306.590792
 42
0.022257
  0
VERTEX
  8
0
 10
236.661765
 20
309.021569
 42
0.022380
  0
VERTEX
  8
0
 10
236.286828
 20
310.933531
 42
0.137609
  0
VERTEX
  8
0
 10
235.800000
 20
311.800000
 42
0.119179
  0
VERTEX
  8
0
 10
234.390533
 20
312.660584
 42
0.077887
  0
VERTEX
  8
0
 10
232.500000
 20
312.956875
 42
0.077887
  0
VERTEX
  8
0
 10
230.609467
 20
312.660584
 42
0.119179
  0
VERTEX
  8
0
 10
229.200000
 20
311.800000
 42
-0.120991
  0
VERTEX
  8
0
 10
228.630985
 20
311.455358
 42
-0.372712
  0
VERTEX
  8
0
 10
228.250000
 20
311.620833
 42
-0.100282
  0
VERTEX
  8
0
 10
228.044552
 20
312.433482
 42
-0.011933
  0
VERTEX
  8
0
 10
228.000000
 20
314.300000
 42
0.020194
  0
VERTEX
  8
0
 10
227.921025
 20
316.254599
 42
0.104070
  0
VERTEX
  8
0
 10
227.614865
 20
317.287500
 42
0.180411
  0
VERTEX
  8
0
 10
227.010883
 20
317.815381
 42
0.090567
  0
VERTEX
  8
0
 10
226.000000
 20
318.000000
 42
0.193568
  0
VERTEX
  8
0
 10
224.906793
 20
317.560306
 42
0.155680
  0
VERTEX
  8
0
 10
224.297619
 20
316.437500
 42
0.043488
  0
VERTEX
  8
0
 10
224.046494
 20
313.966968
 42
0.003595
  0
SEQEND
  0
POLYLINE
  8
0
 66
1
 70
1
  0
VERTEX
  8
0
 10
113.611816
 20
311.123555
 42
0.012925
  0
VERTEX
  8
0
 10
112.612012
 20
309.959685
 42
0.169766
  0
VERTEX
  8
0
 10
112.421356
 20
309.433368
 42
0.276145
  0
VERTEX
  8
0
 10
112.650396
 20
309.040337
 42
0.034485
  0
VERTEX
  8
0
 10
113.583577
 20
308.606302
 42
0.075924
  0
VERTEX
  8
0
 10
114.323240
 20
308.444894
 42
0.055823
  0
VERTEX
  8
0
 10
115.162609
 20
308.485413
 42
0.055959
  0
VERTEX
  8
0
 10
115.969805
 20
308.710173
 42
0.077493
  0
VERTEX
  8
0
 10
116.614013
 20
309.094623
 42
-0.129363
  0
VERTEX
  8
0
 10
117.854672
 20
309.671784
 42
-0.099180
  0
VERTEX
  8
0
 10
119.355723
 20
309.642386
 42
-0.116660
  0
VERTEX
  8
0
 10
120.553097
 20
309.064628
 42
-0.225972
  0
VERTEX
  8
0
 10
121.000000
 20
308.126278
 42
-0.247846
  0
VERTEX
  8
0
 10
120.768138
 20
307.687257
 42
-0.026592
  0
VERTEX
  8
0
 10
119.751563
 20
307.069818
 42
-0.027793
  0
VERTEX
  8
0
 10
118.378291
 20
306.428203
 42
-0.018760
  0
VERTEX
  8
0
 10
116.750000
 20
305.844893
 42
0.024281
  0
VERTEX
  8
0
 10
114.686758
 20
305.079972
 42
0.067509
  0
VERTEX
  8
0
 10
113.362333
 20
304.288958
 42
0.095908
  0
VERTEX
  8
0
 10
112.569604
 20
303.359846
 42
0.093850
  0
VERTEX
  8
0
 10
112.173236
 20
302.194958
 42
0.100752
  0
VERTEX
  8
0
 10
112.315287
 20
299.830477
 42
0.185881
  0
VERTEX
  8
0
 10
113.431506
 20
298.294395
 42
0.116847
  0
VERTEX
  8
0
 10
115.757869
 20
297.465736
 42
0.029746
  0
VERTEX
  8
0
 10
119.785225
 20
297.263886
 42
0.000000
  0
VERTEX
  8
0
 10
125.500000
 20
297.317587
 42
0.000000
  0
VERTEX
  8
0
 10
124.986625
 20
304.203534
 42
0.013695
  0
VERTEX
  8
0
 10
124.672636
 20
307.277134
 42
0.030263
  0
VERTEX
  8
0
 10
124.228151
 20
309.592067
 42
0.038924
  0
VERTEX
  8
0
 10
123.672057
 20
311.226155
 42
0.151433
  0
VERTEX
  8
0
 10
122.986625
 20
312.029428
 42
0.103314
  0
VERTEX
  8
0
 10
120.807917
 20
312.844311
 42
0.062166
  0
VERTEX
  8
0
 10
118.038745
 20
312.921433
 42
0.063136
  0
VERTEX
  8
0
 10
115.397480
 20
312.324040
 42
0.122277
  0
SEQEND
  0
POLYLINE
  8
0
 66
1
 70
1
  0
VERTEX
  8
0
 10
121.000000
 20
303.700000
 42
-0.123000
  0
VERTEX
  8
0
 10
120.688714
 20
302.453749
 42
-0.074100
  0
VERTEX
  8
0
 10
119.777115
 20
301.222885
 42
-0.074100
  0
VERTEX
  8
0
 10
118.546251
 20
300.311286
 42
-0.123000
  0
VERTEX
  8
0
 10
117.300000
 20
300.000000
 42
-0.271483
  0
VERTEX
  8
0
 10
116.321757
 20
300.573414
 42
-0.154829
  0
VERTEX
  8
0
 10
116.036435
 20
301.958146
 42
-0.123077
  0
VERTEX
  8
0
 10
116.594603
 20
303.492309
 42
-0.182312
  0
VERTEX
  8
0
 10
117.750000
 20
304.310674
 42
-0.008773
  0
VERTEX
  8
0
 10
119.708333
 20
304.785899
 42
-0.101914
  0
VERTEX
  8
0
 10
120.492727
 20
304.799543
 42
-0.269732
  0
VERTEX
  8
0
 10
120.870836
 20
304.472796
 42
-0.082994
  0
SEQEND
  0
POLYLINE
  8
0
 66
1
 70
1
  0
VERTEX
  8
0
 10
129.000000
 20
305.000000
 42
0.005351
  0
VERTEX
  8
0
 10
129.051385
 20
300.198839
 42
0.055952
  0
VERTEX
  8
0
 10
129.312500
 20
298.250000
 42
0.176663
  0
VERTEX
  8
0
 10
129.921799
 20
297.349175
 42
0.157888
  0
VERTEX
  8
0
 10
131.000000
 20
297.000000
 42
0.116487
  0
VERTEX
  8
0
 10
132.052332
 20
297.248539
 42
0.189955
  0
VERTEX
  8
0
 10
132.657021
 20
297.922194
 42
0.079002
  0
VERTEX
  8
0
 10
132.937722
 20
299.318491
 42
0.010178
  0
VERTEX
  8
0
 10
133.000000
 20
302.377555
 42
-0.037587
  0
VERTEX
  8
0
 10
133.278480
 20
306.076786
 42
-0.101087
  0
VERTEX
  8
0
 10
134.183112
 20
308.541506
 42
-0.176114
  0
VERTEX
  8
0
 10
135.631172
 20
309.686118
 42
-0.173367
  0
VERTEX
  8
0
 10
137.487265
 20
309.643260
 42
-0.172570
  0
VERTEX
  8
0
 10
138.200354
 20
309.032591
 42
-0.074116
  0
VERTEX
  8
0
 10
138.663236
 20
307.849296
 42
-0.043513
  0
VERTEX
  8
0
 10
138.925297
 20
305.961652
 42
-0.012745
  0
VERTEX
  8
0
 10
139.000000
 20
303.031385
 42
0.008382
  0
VERTEX
  8
0
 10
139.058552
 20
299.538948
 42
0.071788
  0
VERTEX
  8
0
 10
139.332900
 20
298.003923
 42
0.188532
  0
VERTEX
  8
0
 10
139.938968
 20
297.273884
 42
0.126984
  0
VERTEX
  8
0
 10
141.000000
 20
297.000000
 42
0.133342
  0
VERTEX
  8
0
 10
142.065328
 20
297.289248
 42
0.186865
  0
VERTEX
  8
0
 10
142.672222
 20
298.053571
 42
0.067961
  0
VERTEX
  8
0
 10
142.943296
 20
299.672465
 42
0.007548
  0
VERTEX
  8
0
 10
143.000000
 20
303.428571
 42
0.014482
  0
VERTEX
  8
0
 10
142.912164
 20
306.460514
 42
0.034022
  0
VERTEX
  8
0
 10
142.627778
 20
308.706638
 42
0.046608
  0
VERTEX
  8
0
 10
142.144955
 20
310.341852
 42
0.101633
  0
VERTEX
  8
0
 10
141.428571
 20
311.428571
 42
0.102411
  0
VERTEX
  8
0
 10
139.801849
 20
312.497345
 42
0.081640
  0
VERTEX
  8
0
 10
137.745924
 20
312.944709
 42
0.084647
  0
VERTEX
  8
0
 10
135.725721
 20
312.706126
 42
0.125389
  0
VERTEX
  8
0
 10
134.200000
 20
311.800000
 42
-0.018208
  0
VERTEX
  8
0
 10
133.578624
 20
311.222304
 42
-0.180052
  0
VERTEX
  8
0
 10
133.250000
 20
311.100000
 42
-0.354955
  0
VERTEX
  8
0
 10
133.056215
 20
311.257401
 42
-0.051663
  0
VERTEX
  8
0
 10
133.000000
 20
311.800000
 42
0.163305
  0
VERTEX
  8
0
 10
132.846400
 20
312.257744
 42
0.096011
  0
VERTEX
  8
0
 10
132.412500
 20
312.647500
 42
0.077243
  0
VERTEX
  8
0
 10
131.764931
 20
312.910845
 42
0.058080
  0
VERTEX
  8
0
 10
131.000000
 20
313.000000
 42
0.157888
  0
VERTEX
  8
0
 10
129.921799
 20
312.650825
 42
0.176663
  0
VERTEX
  8
0
 10
129.312500
 20
311.750000
 42
0.055952
  0
VERTEX
  8
0
 10
129.051385
 20
309.801161
 42
0.005351
  0
SEQEND
  0
POLYLINE
  8
0
 66
1
 70
1
  0
VERTEX
  8
0
 10
149.399704
 20
312.234687
 42
0.060387
  0
VERTEX
  8
0
 10
148.898248
 20
311.804231
 42
0.021032
  0
VERTEX
  8
0
 10
148.284894
 20
311.074188
 42
0.020535
  0
VERTEX
  8
0
 10
147.670682
 20
310.205844
 42
0.022518
  0
VERTEX
  8
0
 10
147.149704
 20
309.315741
 42
0.128771
  0
VERTEX
  8
0
 10
146.023211
 20
304.469246
 42
0.145430
  0
VERTEX
  8
0
 10
147.506706
 20
299.940978
 42
0.177577
  0
VERTEX
  8
0
 10
150.932715
 20
297.526619
 42
0.190711
  0
VERTEX
  8
0
 10
154.986614
 20
297.992836
 42
-0.016742
  0
VERTEX
  8
0
 10
156.274910
 20
298.627780
 42
-0.252174
  0
VERTEX
  8
0
 10
156.756908
 20
298.594174
 42
-0.274317
  0
VERTEX
  8
0
 10
156.968443
 20
298.179460
 42
-0.019235
  0
VERTEX
  8
0
 10
156.829755
 20
296.827867
 42
-0.060043
  0
VERTEX
  8
0
 10
156.517968
 20
295.658944
 42
-0.150407
  0
VERTEX
  8
0
 10
155.969289
 20
294.979302
 42
-0.122316
  0
VERTEX
  8
0
 10
155.050909
 20
294.644463
 42
-0.033536
  0
VERTEX
  8
0
 10
153.500000
 20
294.583715
 42
-0.020741
  0
VERTEX
  8
0
 10
152.223127
 20
294.672438
 42
-0.016914
  0
VERTEX
  8
0
 10
150.867188
 20
294.869988
 42
-0.017241
  0
VERTEX
  8
0
 10
149.630070
 20
295.137522
 42
-0.042180
  0
VERTEX
  8
0
 10
148.750000
 20
295.440704
 42
0.043646
  0
VERTEX
  8
0
 10
147.931514
 20
295.719992
 42
0.169003
  0
VERTEX
  8
0
 10
147.405351
 20
295.670789
 42
0.215437
  0
VERTEX
  8
0
 10
147.100674
 20
295.322232
 42
0.073617
  0
VERTEX
  8
0
 10
147.000000
 20
294.642173
 42
0.256148
  0
VERTEX
  8
0
 10
148.152788
 20
292.539575
 42
0.094707
  0
VERTEX
  8
0
 10
151.398853
 20
291.247119
 42
0.081361
  0
VERTEX
  8
0
 10
155.376783
 20
291.136885
 42
0.124731
  0
VERTEX
  8
0
 10
158.558870
 20
292.418344
 42
0.113637
  0
VERTEX
  8
0
 10
159.582299
 20
293.600699
 42
0.070648
  0
VERTEX
  8
0
 10
160.207466
 20
295.334270
 42
0.035691
  0
VERTEX
  8
0
 10
160.587270
 20
298.158142
 42
0.006549
  0
VERTEX
  8
0
 10
160.846530
 20
303.418344
 42
0.003624
  0
VERTEX
  8
0
 10
161.021647
 20
309.475727
 42
0.050619
  0
VERTEX
  8
0
 10
160.848530
 20
311.648760
 42
0.189650
  0
VERTEX
  8
0
 10
160.246548
 20
312.618610
 42
0.161494
  0
VERTEX
  8
0
 10
159.096530
 20
313.000000
 42
0.055289
  0
VERTEX
  8
0
 10
158.294538
 20
312.911045
 42
0.074871
  0
VERTEX
  8
0
 10
157.615856
 20
312.647500
 42
0.094316
  0
VERTEX
  8
0
 10
157.160612
 20
312.257837
 42
0.170315
  0
VERTEX
  8
0
 10
157.000000
 20
311.800000
 42
-0.051663
  0
VERTEX
  8
0
 10
156.943785
 20
311.257401
 42
-0.354955
  0
VERTEX
  8
0
 10
156.750000
 20
311.100000
 42
-0.180052
  0
VERTEX
  8
0
 10
156.421376
 20
311.222304
 42
-0.018208
  0
VERTEX
  8
0
 10
155.800000
 20
311.800000
 42
0.116005
  0
VERTEX
  8
0
 10
154.531719
 20
312.585324
 42
0.063994
  0
VERTEX
  8
0
 10
152.733562
 20
312.941649
 42
0.063132
  0
VERTEX
  8
0
 10
150.869322
 20
312.832871
 42
0.101433
  0
SEQEND
  0
POLYLINE
  8
0
 66
1
 70
1
  0
VERTEX
  8
0
 10
156.181954
 20
307.500000
 42
-0.039924
  0
VERTEX
  8
0
 10
156.662968
 20
306.172875
 42
-0.067079
  0
VERTEX
  8
0
 10
156.821030
 20
305.000000
 42
-0.067079
  0
VERTEX
  8
0
 10
156.662968
 20
303.827125
 42
-0.039924
  0
VERTEX
  8
0
 10
156.181954
 20
302.500000
 42
-0.139942
  0
VERTEX
  8
0
 10
154.473831
 20
300.494960
 42
-0.247742
  0
VERTEX
  8
0
 10
152.367269
 20
300.280601
 42
-0.196918
  0
VERTEX
  8
0
 10
150.626063
 20
301.979690
 42
-0.102552
  0
VERTEX
  8
0
 10
150.000000
 20
305.000000
 42
-0.102552
  0
VERTEX
  8
0
 10
150.626063
 20
308.020310
 42
-0.196918
  0
VERTEX
  8
0
 10
152.367269
 20
309.719399
 42
-0.247742
  0
VERTEX
  8
0
 10
154.473831
 20
309.505040
 42
-0.139942
  0
SEQEND
  0
POLYLINE
  8
0
 66
1
 70
1
  0
VERTEX
  8
0
 10
191.000000
 20
305.000000
 42
0.005351
  0
VERTEX
  8
0
 10
191.051385
 20
300.198839
 42
0.055952
  0
VERTEX
  8
0
 10
191.312500
 20
298.250000
 42
0.176663
  0
VERTEX
  8
0
 10
191.921799
 20
297.349175
 42
0.157888
  0
VERTEX
  8
0
 10
193.000000
 20
297.000000
 42
0.157888
  0
VERTEX
  8
0
 10
194.078201
 20
297.349175
 42
0.176663
  0
VERTEX
  8
0
 10
194.687500
 20
298.250000
 42
0.055952
  0
VERTEX
  8
0
 10
194.948615
 20
300.198839
 42
0.005351
  0
VERTEX
  8
0
 10
195.000000
 20
305.000000
 42
0.005351
  0
VERTEX
  8
0
 10
194.948615
 20
309.801161
 42
0.055952
  0
VERTEX
  8
0
 10
194.687500
 20
311.750000
 42
0.176663
  0
VERTEX
  8
0
 10
194.078201
 20
312.650825
 42
0.157888
  0
VERTEX
  8
0
 10
193.000000
 20
313.000000
 42
0.157888
  0
VERTEX
  8
0
 10
191.921799
 20
312.650825
 42
0.176663
  0
VERTEX
  8
0
 10
191.312500
 20
311.750000
 42
0.055952
  0
VERTEX
  8
0
 10
191.051385
 20
309.801161
 42
0.005351
  0
SEQEND
  0
POLYLINE
  8
0
 66
1
 70
1
  0
VERTEX
  8
0
 10
242.000000
 20
306.122445
 42
0.013670
  0
VERTEX
  8
0
 10
242.080600
 20
303.174929
 42
0.025577
  0
VERTEX
  8
0
 10
242.332537
 20
300.803010
 42
0.028898
  0
VERTEX
  8
0
 10
242.717397
 20
299.038444
 42
0.154605
  0
VERTEX
  8
0
 10
243.250000
 20
298.224277
 42
0.115046
  0
VERTEX
  8
0
 10
244.048182
 20
297.833154
 42
0.021056
  0
VERTEX
  8
0
 10
245.675000
 20
297.529657
 42
0.021648
  0
VERTEX
  8
0
 10
247.648377
 20
297.333564
 42
0.018185
  0
VERTEX
  8
0
 10
249.750000
 20
297.292813
 42
0.000000
  0
VERTEX
  8
0
 10
255.000000
 20
297.381961
 42
0.000000
  0
VERTEX
  8
0
 10
255.000000
 20
305.190980
 42
0.005669
  0
VERTEX
  8
0
 10
254.947535
 20
309.818565
 42
0.055634
  0
VERTEX
  8
0
 10
254.687499
 20
311.750014
 42
0.171554
  0
VERTEX
  8
0
 10
254.091313
 20
312.650562
 42
0.162973
  0
VERTEX
  8
0
 10
253.047717
 20
313.000000
 42
0.142004
  0
VERTEX
  8
0
 10
252.017074
 20
312.701264
 42
0.166770
  0
VERTEX
  8
0
 10
251.383586
 20
311.911531
 42
0.065785
  0
VERTEX
  8
0
 10
251.027961
 20
310.276554
 42
0.008799
  0
VERTEX
  8
0
 10
250.797717
 20
306.750000
 42
-0.009268
  0
VERTEX
  8
0
 10
250.561617
 20
303.185180
 42
-0.067292
  0
VERTEX
  8
0
 10
250.189491
 20
301.513630
 42
-0.154122
  0
VERTEX
  8
0
 10
249.514140
 20
300.642138
 42
-0.116510
  0
VERTEX
  8
0
 10
248.380352
 20
300.197531
 42
-0.184189
  0
VERTEX
  8
0
 10
246.844200
 20
300.545166
 42
-0.153418
  0
VERTEX
  8
0
 10
245.785623
 20
301.855594
 42
-0.074269
  0
VERTEX
  8
0
 10
245.189926
 20
304.437453
 42
-0.018821
  0
VERTEX
  8
0
 10
245.013655
 20
308.750000
 42
0.018420
  0
VERTEX
  8
0
 10
244.932423
 20
310.777258
 42
0.066413
  0
VERTEX
  8
0
 10
244.664048
 20
312.039391
 42
0.126946
  0
VERTEX
  8
0
 10
244.191261
 20
312.738400
 42
0.182891
  0
VERTEX
  8
0
 10
243.500000
 20
313.000000
 42
0.239195
  0
VERTEX
  8
0
 10
242.765569
 20
312.627334
 42
0.104610
  0
VERTEX
  8
0
 10
242.304525
 20
311.603741
 42
0.045042
  0
VERTEX
  8
0
 10
242.061455
 20
309.664866
 42
0.008674
  0
SEQEND
  0
POLYLINE
  8
0
 66
1
 70
1
  0
VERTEX
  8
0
 10
260.000000
 20
305.000000
 42
0.006994
  0
VERTEX
  8
0
 10
260.058630
 20
300.808516
 42
0.039364
  0
VERTEX
  8
0
 10
260.296875
 20
298.583333
 42
0.093584
  0
VERTEX
  8
0
 10
260.753078
 20
297.413981
 42
0.258593
  0
VERTEX
  8
0
 10
261.500000
 20
297.000000
 42
0.195896
  0
VERTEX
  8
0
 10
262.203387
 20
297.286579
 42
0.124297
  0
VERTEX
  8
0
 10
262.672019
 20
298.051478
 42
0.060695
  0
VERTEX
  8
0
 10
262.929601
 20
299.458072
 42
0.014970
  0
VERTEX
  8
0
 10
263.000000
 20
301.808870
 42
-0.041462
  0
VERTEX
  8
0
 10
263.303001
 20
305.456517
 42
-0.084929
  0
VERTEX
  8
0
 10
264.244093
 20
308.158075
 42
-0.141346
  0
VERTEX
  8
0
 10
265.663131
 20
309.576855
 42
-0.221227
  0
VERTEX
  8
0
 10
267.355392
 20
309.693865
 42
-0.153340
  0
VERTEX
  8
0
 10
268.153062
 20
309.060976
 42
-0.088672
  0
VERTEX
  8
0
 10
268.655672
 20
307.932124
 42
-0.048425
  0
VERTEX
  8
0
 10
268.926027
 20
306.083721
 42
-0.012116
  0
VERTEX
  8
0
 10
269.000000
 20
303.031385
 42
0.008382
  0
VERTEX
  8
0
 10
269.058552
 20
299.538948
 42
0.071788
  0
VERTEX
  8
0
 10
269.332900
 20
298.003923
 42
0.188532
  0
VERTEX
  8
0
 10
269.938968
 20
297.273884
 42
0.126984
  0
VERTEX
  8
0
 10
271.000000
 20
297.000000
 42
0.142743
  0
VERTEX
  8
0
 10
272.070792
 20
297.312055
 42
0.183562
  0
VERTEX
  8
0
 10
272.678790
 20
298.127680
 42
0.062905
  0
VERTEX
  8
0
 10
272.945618
 20
299.871348
 42
0.006552
  0
VERTEX
  8
0
 10
273.000000
 20
304.021439
 42
0.007895
  0
VERTEX
  8
0
 10
272.932971
 20
308.266150
 42
0.066522
  0
VERTEX
  8
0
 10
272.620430
 20
310.149770
 42
0.138188
  0
VERTEX
  8
0
 10
271.895687
 20
311.275725
 42
0.074317
  0
VERTEX
  8
0
 10
270.500000
 20
312.181954
 42
0.039924
  0
VERTEX
  8
0
 10
269.172875
 20
312.662968
 42
0.067079
  0
VERTEX
  8
0
 10
268.000000
 20
312.821030
 42
0.067079
  0
VERTEX
  8
0
 10
266.827125
 20
312.662968
 42
0.039924
  0
VERTEX
  8
0
 10
265.500000
 20
312.181954
 42
-0.025594
  0
VERTEX
  8
0
 10
264.467516
 20
311.773932
 42
-0.065356
  0
VERTEX
  8
0
 10
263.679701
 20
311.618621
 42
-0.129456
  0
VERTEX
  8
0
 10
263.192758
 20
311.713969
 42
-0.287542
  0
VERTEX
  8
0
 10
263.000000
 20
312.021439
 42
0.151235
  0
VERTEX
  8
0
 10
262.884479
 20
312.394629
 42
0.098407
  0
VERTEX
  8
0
 10
262.559375
 20
312.712548
 42
0.081378
  0
VERTEX
  8
0
 10
262.073508
 20
312.926990
 42
0.063397
  0
VERTEX
  8
0
 10
261.500000
 20
313.000000
 42
0.258593
  0
VERTEX
  8
0
 10
260.753078
 20
312.586019
 42
0.093584
  0
VERTEX
  8
0
 10
260.296875
 20
311.416667
 42
0.039364
  0
VERTEX
  8
0
 10
260.058630
 20
309.191484
 42
0.006994
  0
SEQEND
  0
POLYLINE
  8
0
 66
1
 70
1
  0
VERTEX
  8
0
 10
279.222506
 20
311.443296
 42
0.067193
  0
VERTEX
  8
0
 10
278.118757
 20
310.424905
 42
0.088856
  0
VERTEX
  8
0
 10
277.447314
 20
309.236181
 42
0.064157
  0
VERTEX
  8
0
 10
277.100990
 20
307.601566
 42
0.020163
  0
VERTEX
  8
0
 10
277.000000
 20
305.098284
 42
0.055618
  0
VERTEX
  8
0
 10
277.434775
 20
301.201808
 42
0.129759
  0
VERTEX
  8
0
 10
278.780640
 20
298.618668
 42
0.160136
  0
VERTEX
  8
0
 10
281.008064
 20
297.358597
 42
0.098982
  0
VERTEX
  8
0
 10
284.044116
 20
297.358823
 42
-0.016537
  0
VERTEX
  8
0
 10
285.721877
 20
297.637028
 42
-0.130209
  0
VERTEX
  8
0
 10
286.497898
 20
297.537382
 42
-0.272333
  0
VERTEX
  8
0
 10
286.827308
 20
297.106179
 42
-0.079784
  0
VERTEX
  8
0
 10
286.793791
 20
296.239251
 42
-0.212996
  0
VERTEX
  8
0
 10
286.023231
 20
295.154389
 42
-0.105311
  0
VERTEX
  8
0
 10
284.388441
 20
294.606037
 42
-0.071010
  0
VERTEX
  8
0
 10
282.044483
 20
294.671675
 42
-0.038774
  0
VERTEX
  8
0
 10
279.250000
 20
295.377153
 42
0.071479
  0
VERTEX
  8
0
 10
277.710309
 20
295.660641
 42
0.357360
  0
VERTEX
  8
0
 10
277.059701
 20
295.169049
 42
0.218008
  0
VERTEX
  8
0
 10
277.265252
 20
294.111674
 42
0.041047
  0
VERTEX
  8
0
 10
278.571429
 20
292.571429
 42
0.139312
  0
VERTEX
  8
0
 10
280.746190
 20
291.359078
 42
0.063985
  0
VERTEX
  8
0
 10
284.001683
 20
291.019554
 42
0.064002
  0
VERTEX
  8
0
 10
287.235718
 20
291.513987
 42
0.139824
  0
VERTEX
  8
0
 10
289.345012
 20
292.828741
 42
0.162850
  0
VERTEX
  8
0
 10
290.771879
 20
296.087596
 42
0.020540
  0
VERTEX
  8
0
 10
291.151823
 20
303.873881
 42
0.016659
  0
VERTEX
  8
0
 10
290.952971
 20
311.630248
 42
0.397052
  0
VERTEX
  8
0
 10
289.500000
 20
313.000000
 42
0.067246
  0
VERTEX
  8
0
 10
288.926627
 20
312.922536
 42
0.084069
  0
VERTEX
  8
0
 10
288.440625
 20
312.695915
 42
0.099557
  0
VERTEX
  8
0
 10
288.115614
 20
312.359575
 42
0.143424
  0
VERTEX
  8
0
 10
288.000000
 20
311.964816
 42
-0.174147
  0
VERTEX
  8
0
 10
287.863812
 20
311.585661
 42
-0.223915
  0
VERTEX
  8
0
 10
287.532871
 20
311.429632
 42
-0.098707
  0
VERTEX
  8
0
 10
286.950055
 20
311.545821
 42
-0.024465
  0
VERTEX
  8
0
 10
286.065741
 20
311.964816
 42
0.047728
  0
VERTEX
  8
0
 10
284.206650
 20
312.742104
 42
0.094452
  0
VERTEX
  8
0
 10
282.623658
 20
312.920598
 42
0.091425
  0
VERTEX
  8
0
 10
281.052169
 20
312.505228
 42
0.042591
  0
SEQEND
  0
POLYLINE
  8
0
 66
1
 70
1
  0
VERTEX
  8
0
 10
286.500000
 20
305.000000
 42
-0.015112
  0
VERTEX
  8
0
 10
286.423730
 20
302.477048
 42
-0.094297
  0
VERTEX
  8
0
 10
286.107348
 20
301.230098
 42
-0.170239
  0
VERTEX
  8
0
 10
285.442526
 20
300.549623
 42
-0.079844
  0
VERTEX
  8
0
 10
284.251612
 20
300.180660
 42
-0.190359
  0
VERTEX
  8
0
 10
282.381677
 20
300.628624
 42
-0.137830
  0
VERTEX
  8
0
 10
281.011431
 20
302.304100
 42
-0.107242
  0
VERTEX
  8
0
 10
280.502824
 20
304.840300
 42
-0.087111
  0
VERTEX
  8
0
 10
281.026363
 20
307.569340
 42
-0.045330
  0
VERTEX
  8
0
 10
281.609278
 20
308.764085
 42
-0.104667
  0
VERTEX
  8
0
 10
282.289073
 20
309.489283
 42
-0.119110
  0
VERTEX
  8
0
 10
283.143704
 20
309.822755
 42
-0.069112
  0
VERTEX
  8
0
 10
284.251612
 20
309.819340
 42
-0.079844
  0
VERTEX
  8
0
 10
285.442526
 20
309.450377
 42
-0.170239
  0
VERTEX
  8
0
 10
286.107348
 20
308.769902
 42
-0.094297
  0
VERTEX
  8
0
 10
286.423730
 20
307.522952
 42
-0.015112
  0
SEQEND
  0
POLYLINE
  8
0
 66
1
 70
1
  0
VERTEX
  8
0
 10
191.000000
 20
292.000000
 42
0.072254
  0
VERTEX
  8
0
 10
191.126841
 20
291.126841
 42
0.124864
  0
VERTEX
  8
0
 10
191.500000
 20
290.500000
 42
0.124864
  0
VERTEX
  8
0
 10
192.126841
 20
290.126841
 42
0.072254
  0
VERTEX
  8
0
 10
193.000000
 20
290.000000
 42
0.072254
  0
VERTEX
  8
0
 10
193.873159
 20
290.126841
 42
0.124864
  0
VERTEX
  8
0
 10
194.500000
 20
290.500000
 42
0.124864
  0
VERTEX
  8
0
 10
194.873159
 20
291.126841
 42
0.072254
  0
VERTEX
  8
0
 10
195.000000
 20
292.000000
 42
0.072254
  0
VERTEX
  8
0
 10
194.873159
 20
292.873159
 42
0.124864
  0
VERTEX
  8
0
 10
194.500000
 20
293.500000
 42
0.124864
  0
VERTEX
  8
0
 10
193.873159
 20
293.873159
 42
0.072254
  0
VERTEX
  8
0
 10
193.000000
 20
294.000000
 42
0.072254
  0
VERTEX
  8
0
 10
192.126841
 20
293.873159
 42
0.124864
  0
VERTEX
  8
0
 10
191.500000
 20
293.500000
 42
0.124864
  0
VERTEX
  8
0
 10
191.126841
 20
292.873159
 42
0.072254
  0
SEQEND
  0
POLYLINE
  8
0
 66
1
 70
1
  0
VERTEX
  8
0
 10
85.000000
 20
177.000000
 42
0.000000
  0
VERTEX
  8
0
 10
85.000000
 20
79.000000
 42
0.000000
  0
VERTEX
  8
0
 10
208.500000
 20
79.000000
 42
0.000000
  0
VERTEX
  8
0
 10
332.000000
 20
79.000000
 42
0.000000
  0
VERTEX
  8
0
 10
332.000000
 20
177.000000
 42
0.000000
  0
VERTEX
  8
0
 10
332.000000
 20
275.000000
 42
0.000000
  0
VERTEX
  8
0
 10
208.500000
 20
275.000000
 42
0.000000
  0
VERTEX
  8
0
 10
85.000000
 20
275.000000
 42
0.000000
  0
SEQEND
  0
POLYLINE
  8
0
 66
1
 70
1
  0
VERTEX
  8
0
 10
266.857028
 20
262.267271
 42
-0.134803
  0
VERTEX
  8
0
 10
270.518642
 20
258.579078
 42
-0.053269
  0
VERTEX
  8
0
 10
273.374868
 20
251.959614
 42
-0.053234
  0
VERTEX
  8
0
 10
274.774518
 20
244.856344
 42
-0.129647
  0
VERTEX
  8
0
 10
273.880276
 20
239.636580
 42
-0.027078
  0
VERTEX
  8
0
 10
273.352575
 20
238.627076
 42
-0.035710
  0
VERTEX
  8
0
 10
272.760237
 20
237.774495
 42
-0.038638
  0
VERTEX
  8
0
 10
272.188401
 20
237.167799
 42
-0.186553
  0
VERTEX
  8
0
 10
271.754316
 20
237.000000
 42
0.542164
  0
VERTEX
  8
0
 10
271.584138
 20
236.738648
 42
0.021708
  0
VERTEX
  8
0
 10
272.187625
 20
235.520101
 42
0.021274
  0
VERTEX
  8
0
 10
273.174314
 20
233.895464
 42
0.011224
  0
VERTEX
  8
0
 10
274.527860
 20
231.962047
 42
-0.048965
  0
VERTEX
  8
0
 10
279.712251
 20
223.221743
 42
-0.039532
  0
VERTEX
  8
0
 10
283.543760
 20
212.995972
 42
-0.034716
  0
VERTEX
  8
0
 10
286.097100
 20
201.020827
 42
-0.022897
  0
VERTEX
  8
0
 10
287.431477
 20
187.000000
 42
0.009687
  0
VERTEX
  8
0
 10
287.758112
 20
182.237152
 42
0.009363
  0
VERTEX
  8
0
 10
288.271708
 20
177.436127
 42
0.009318
  0
VERTEX
  8
0
 10
288.881536
 20
173.228487
 42
0.033590
  0
VERTEX
  8
0
 10
289.498290
 20
170.591069
 42
-0.044952
  0
VERTEX
  8
0
 10
290.548004
 20
165.593359
 42
-0.026210
  0
VERTEX
  8
0
 10
290.944749
 20
159.477272
 42
-0.026272
  0
VERTEX
  8
0
 10
290.701285
 20
153.418175
 42
-0.049455
  0
VERTEX
  8
0
 10
289.770163
 20
148.616020
 42
-0.047594
  0
VERTEX
  8
0
 10
288.977186
 20
146.661733
 42
-0.025728
  0
VERTEX
  8
0
 10
287.659005
 20
144.422359
 42
-0.024472
  0
VERTEX
  8
0
 10
285.998248
 20
142.156047
 42
-0.025846
  0
VERTEX
  8
0
 10
284.152230
 20
140.105751
 42
0.011216
  0
VERTEX
  8
0
 10
282.051030
 20
137.905022
 42
0.052791
  0
VERTEX
  8
0
 10
281.016772
 20
136.499397
 42
0.132636
  0
VERTEX
  8
0
 10
280.764250
 20
135.569383
 42
0.270689
  0
VERTEX
  8
0
 10
281.132067
 20
134.937729
 42
-0.042217
  0
VERTEX
  8
0
 10
287.181546
 20
130.806471
 42
-0.074493
  0
VERTEX
  8
0
 10
291.245166
 20
126.342959
 42
-0.088542
  0
VERTEX
  8
0
 10
293.380630
 20
121.472387
 42
-0.087426
  0
VERTEX
  8
0
 10
293.712473
 20
116.141428
 42
-0.070429
  0
VERTEX
  8
0
 10
292.606645
 20
111.861876
 42
-0.132554
  0
VERTEX
  8
0
 10
290.442091
 20
109.055917
 42
-0.116131
  0
VERTEX
  8
0
 10
286.935775
 20
107.494583
 42
-0.047046
  0
VERTEX
  8
0
 10
281.694236
 20
107.002098
 42
0.000000
  0
VERTEX
  8
0
 10
275.500000
 20
107.004196
 42
0.000000
  0
VERTEX
  8
0
 10
275.835327
 20
100.502098
 42
-0.012836
  0
VERTEX
  8
0
 10
275.902113
 20
97.919613
 42
-0.024327
  0
VERTEX
  8
0
 10
275.801331
 20
95.841514
 42
-0.023045
  0
VERTEX
  8
0
 10
275.581010
 20
94.313332
 42
-0.359804
  0
VERTEX
  8
0
 10
275.201958
 20
94.000000
 42
-0.292670
  0
VERTEX
  8
0
 10
274.273548
 20
94.594345
 42
-0.054175
  0
VERTEX
  8
0
 10
273.596931
 20
96.611227
 42
-0.037708
  0
VERTEX
  8
0
 10
273.157031
 20
99.731614
 42
-0.015549
  0
VERTEX
  8
0
 10
273.013655
 20
104.000000
 42
0.000000
  0
VERTEX
  8
0
 10
273.000000
 20
109.500000
 42
0.000000
  0
VERTEX
  8
0
 10
279.895012
 20
109.500000
 42
0.033276
  0
VERTEX
  8
0
 10
285.457763
 20
109.870623
 42
0.123535
  0
VERTEX
  8
0
 10
288.697301
 20
111.160331
 42
0.164920
  0
VERTEX
  8
0
 10
290.421978
 20
113.580274
 42
0.073205
  0
VERTEX
  8
0
 10
291.000000
 20
117.507104
 42
0.077609
  0
VERTEX
  8
0
 10
290.314848
 20
121.894638
 42
0.091593
  0
VERTEX
  8
0
 10
288.330759
 20
125.592213
 42
0.073547
  0
VERTEX
  8
0
 10
284.763607
 20
128.907370
 42
0.033020
  0
VERTEX
  8
0
 10
279.249477
 20
132.182446
 42
-0.006972
  0
VERTEX
  8
0
 10
275.654715
 20
134.071690
 42
-0.044372
  0
VERTEX
  8
0
 10
273.938779
 20
135.211955
 42
-0.201563
  0
VERTEX
  8
0
 10
273.546692
 20
135.933427
 42
-0.354714
  0
VERTEX
  8
0
 10
273.898006
 20
136.467628
 42
0.070380
  0
VERTEX
  8
0
 10
277.082620
 20
137.997576
 42
0.032949
  0
VERTEX
  8
0
 10
280.719513
 20
140.786901
 42
0.032886
  0
VERTEX
  8
0
 10
284.017898
 20
144.088503
 42
0.059504
  0
VERTEX
  8
0
 10
286.172987
 20
147.236596
 42
0.079337
  0
VERTEX
  8
0
 10
287.750844
 20
151.949208
 42
0.036624
  0
VERTEX
  8
0
 10
288.343390
 20
158.405213
 42
0.035599
  0
VERTEX
  8
0
 10
287.977914
 20
165.313008
 42
0.046254
  0
VERTEX
  8
0
 10
286.617296
 20
171.500000
 42
-0.030440
  0
VERTEX
  8
0
 10
286.003496
 20
173.923519
 42
-0.014008
  0
VERTEX
  8
0
 10
285.487190
 20
177.139682
 42
-0.013815
  0
VERTEX
  8
0
 10
285.131413
 20
180.563732
 42
-0.018601
  0
VERTEX
  8
0
 10
285.010824
 20
183.677641
 42
0.029692
  0
VERTEX
  8
0
 10
284.225907
 20
196.555655
 42
0.034266
  0
VERTEX
  8
0
 10
281.918494
 20
208.634983
 42
0.036401
  0
VERTEX
  8
0
 10
278.163597
 20
219.596533
 42
0.044628
  0
VERTEX
  8
0
 10
273.052027
 20
229.133976
 42
0.000000
  0
VERTEX
  8
0
 10
268.037529
 20
236.767952
 42
0.000000
  0
VERTEX
  8
0
 10
269.676093
 20
240.052533
 42
0.132533
  0
VERTEX
  8
0
 10
271.115409
 20
247.181819
 42
0.113911
  0
VERTEX
  8
0
 10
268.913513
 20
254.529312
 42
0.117480
  0
VERTEX
  8
0
 10
263.793126
 20
260.004830
 42
0.147305
  0
VERTEX
  8
0
 10
257.167841
 20
262.000000
 42
0.070940
  0
VERTEX
  8
0
 10
253.309333
 20
261.449789
 42
0.049145
  0
VERTEX
  8
0
 10
249.212731
 20
259.806450
 42
0.050627
  0
VERTEX
  8
0
 10
245.747840
 20
257.532034
 42
0.118560
  0
VERTEX
  8
0
 10
243.877782
 20
255.086018
 42
0.000000
  0
VERTEX
  8
0
 10
242.642721
 20
252.295823
 42
0.000000
  0
VERTEX
  8
0
 10
235.071361
 20
254.380341
 42
0.022093
  0
VERTEX
  8
0
 10
230.377523
 20
255.452088
 42
0.023754
  0
VERTEX
  8
0
 10
225.719490
 20
256.074358
 42
0.016440
  0
VERTEX
  8
0
 10
219.775224
 20
256.386285
 42
0.004643
  0
VERTEX
  8
0
 10
210.500000
 20
256.481491
 42
0.010732
  0
VERTEX
  8
0
 10
198.346235
 20
256.232495
 42
0.032126
  0
VERTEX
  8
0
 10
190.086189
 20
255.352160
 42
0.039296
  0
VERTEX
  8
0
 10
182.960411
 20
253.540553
 42
0.023585
  0
VERTEX
  8
0
 10
174.831204
 20
250.343762
 42
0.000000
  0
VERTEX
  8
0
 10
169.029879
 20
247.740282
 42
0.000000
  0
VERTEX
  8
0
 10
165.092805
 20
251.297191
 42
0.084551
  0
VERTEX
  8
0
 10
160.054177
 20
254.498516
 42
0.080391
  0
VERTEX
  8
0
 10
154.150543
 20
255.923696
 42
0.081806
  0
VERTEX
  8
0
 10
148.190765
 20
255.405019
 42
0.092441
  0
VERTEX
  8
0
 10
142.986343
 20
252.990275
 42
0.059124
  0
VERTEX
  8
0
 10
139.814682
 20
250.112319
 42
0.064926
  0
VERTEX
  8
0
 10
137.519450
 20
246.655444
 42
0.064349
  0
VERTEX
  8
0
 10
136.173025
 20
242.697936
 42
0.056490
  0
VERTEX
  8
0
 10
135.795402
 20
238.346065
 42
0.029240
  0
VERTEX
  8
0
 10
136.142138
 20
234.265419
 42
0.063642
  0
VERTEX
  8
0
 10
136.979947
 20
231.242214
 42
0.062627
  0
VERTEX
  8
0
 10
138.560968
 20
228.497125
 42
0.027541
  0
VERTEX
  8
0
 10
141.275421
 20
225.292033
 42
0.000000
  0
VERTEX
  8
0
 10
144.310854
 20
222.084066
 42
0.000000
  0
VERTEX
  8
0
 10
141.634609
 20
216.120600
 42
0.024414
  0
VERTEX
  8
0
 10
138.296424
 20
207.590368
 42
0.033014
  0
VERTEX
  8
0
 10
136.182657
 20
199.586312
 42
0.030237
  0
VERTEX
  8
0
 10
135.024776
 20
190.847594
 42
0.016343
  0
VERTEX
  8
0
 10
134.605916
 20
180.000000
 42
0.023966
  0
VERTEX
  8
0
 10
135.179196
 20
166.362935
 42
0.055206
  0
VERTEX
  8
0
 10
137.218187
 20
156.316521
 42
0.067391
  0
VERTEX
  8
0
 10
141.072195
 20
148.237604
 42
0.054769
  0
VERTEX
  8
0
 10
147.177167
 20
140.827434
 42
-0.006990
  0
VERTEX
  8
0
 10
149.899148
 20
138.100955
 42
-0.062249
  0
VERTEX
  8
0
 10
150.918192
 20
136.749993
 42
-0.241224
  0
VERTEX
  8
0
 10
150.957429
 20
135.941810
 42
-0.205968
  0
VERTEX
  8
0
 10
150.320932
 20
135.361039
 42
0.038396
  0
VERTEX
  8
0
 10
140.981812
 20
131.300309
 42
0.075385
  0
VERTEX
  8
0
 10
134.484854
 20
126.489363
 42
0.103164
  0
VERTEX
  8
0
 10
130.988570
 20
121.121594
 42
0.140200
  0
VERTEX
  8
0
 10
130.453681
 20
115.395211
 42
0.089096
  0
VERTEX
  8
0
 10
131.702778
 20
112.108326
 42
0.141925
  0
VERTEX
  8
0
 10
133.891868
 20
110.077391
 42
0.114668
  0
VERTEX
  8
0
 10
137.202417
 20
109.275542
 42
0.046878
  0
VERTEX
  8
0
 10
141.841846
 20
109.668001
 42
0.007444
  0
VERTEX
  8
0
 10
144.149123
 20
110.118834
 42
0.007832
  0
VERTEX
  8
0
 10
146.402977
 20
110.631167
 42
0.007554
  0
VERTEX
  8
0
 10
148.332033
 20
111.132556
 42
0.034548
  0
VERTEX
  8
0
 10
149.423609
 20
111.516799
 42
-0.020164
  0
VERTEX
  8
0
 10
150.423863
 20
111.901552
 42
-0.224869
  0
VERTEX
  8
0
 10
150.836939
 20
111.853631
 42
-0.320868
  0
VERTEX
  8
0
 10
150.970574
 20
111.530316
 42
-0.034356
  0
VERTEX
  8
0
 10
150.718499
 20
110.708802
 42
0.050127
  0
VERTEX
  8
0
 10
150.436903
 20
109.676223
 42
0.006015
  0
VERTEX
  8
0
 10
150.073887
 20
107.338208
 42
0.007115
  0
VERTEX
  8
0
 10
149.714436
 20
104.540426
 42
0.005794
  0
VERTEX
  8
0
 10
149.406958
 20
101.535193
 42
-0.009499
  0
VERTEX
  8
0
 10
149.010014
 20
97.920241
 42
-0.036041
  0
VERTEX
  8
0
 10
148.557805
 20
95.694169
 42
-0.064755
  0
VERTEX
  8
0
 10
148.010310
 20
94.405674
 42
-0.265934
  0
VERTEX
  8
0
 10
147.301517
 20
94.000000
 42
-0.253700
  0
VERTEX
  8
0
 10
146.631710
 20
94.363239
 42
-0.117132
  0
VERTEX
  8
0
 10
146.287257
 20
95.325456
 42
-0.044781
  0
VERTEX
  8
0
 10
146.247837
 20
97.196928
 42
-0.007445
  0
VERTEX
  8
0
 10
146.547849
 20
100.788814
 42
0.000000
  0
VERTEX
  8
0
 10
147.216801
 20
107.577628
 42
0.000000
  0
VERTEX
  8
0
 10
140.172188
 20
107.179572
 42
-0.009467
  0
VERTEX
  8
0
 10
135.950743
 20
107.021148
 42
-0.060140
  0
VERTEX
  8
0
 10
133.818795
 20
107.238415
 42
-0.096754
  0
VERTEX
  8
0
 10
132.266035
 20
107.921807
 42
-0.044501
  0
VERTEX
  8
0
 10
130.563788
 20
109.345303
 42
-0.043875
  0
VERTEX
  8
0
 10
129.250467
 20
110.911815
 42
-0.074327
  0
VERTEX
  8
0
 10
128.489554
 20
112.441341
 42
-0.059267
  0
VERTEX
  8
0
 10
128.110939
 20
114.359743
 42
-0.019117
  0
VERTEX
  8
0
 10
128.000000
 20
117.260266
 42
-0.082259
  0
VERTEX
  8
0
 10
128.903042
 20
122.712159
 42
-0.087883
  0
VERTEX
  8
0
 10
131.510354
 20
127.444107
 42
-0.075480
  0
VERTEX
  8
0
 10
135.962801
 20
131.519354
 42
-0.043540
  0
VERTEX
  8
0
 10
142.340071
 20
135.032281
 42
0.000000
  0
VERTEX
  8
0
 10
146.775129
 20
136.994118
 42
0.000000
  0
VERTEX
  8
0
 10
143.302020
 20
140.747059
 42
-0.061034
  0
VERTEX
  8
0
 10
138.113124
 20
147.942430
 42
-0.053766
  0
VERTEX
  8
0
 10
134.546624
 20
156.486635
 42
-0.045695
  0
VERTEX
  8
0
 10
132.484537
 20
166.835838
 42
-0.026543
  0
VERTEX
  8
0
 10
131.821927
 20
179.500000
 42
-0.019001
  0
VERTEX
  8
0
 10
132.211684
 20
189.540833
 42
-0.026053
  0
VERTEX
  8
0
 10
133.373592
 20
198.505615
 42
-0.026932
  0
VERTEX
  8
0
 10
135.421154
 20
207.063883
 42
-0.022659
  0
VERTEX
  8
0
 10
138.477486
 20
215.871860
 42
0.000000
  0
VERTEX
  8
0
 10
141.814573
 20
224.243719
 42
0.000000
  0
VERTEX
  8
0
 10
138.980502
 20
225.313462
 42
-0.096363
  0
VERTEX
  8
0
 10
136.629818
 20
226.764585
 42
-0.118319
  0
VERTEX
  8
0
 10
135.198392
 20
228.902168
 42
-0.067752
  0
VERTEX
  8
0
 10
134.424788
 20
232.374295
 42
-0.014646
  0
VERTEX
  8
0
 10
134.088109
 20
238.530423
 42
-0.008831
  0
VERTEX
  8
0
 10
134.053816
 20
242.993083
 42
-0.041625
  0
VERTEX
  8
0
 10
134.291960
 20
245.541455
 42
-0.070131
  0
VERTEX
  8
0
 10
134.875929
 20
247.325039
 42
-0.064591
  0
VERTEX
  8
0
 10
135.942266
 20
248.933432
 42
0.014733
  0
VERTEX
  8
0
 10
136.730223
 20
249.897953
 42
0.018782
  0
VERTEX
  8
0
 10
137.395541
 20
250.833917
 42
0.016971
  0
VERTEX
  8
0
 10
137.887789
 20
251.643203
 42
0.128837
  0
VERTEX
  8
0
 10
138.000000
 20
252.071450
 42
-0.201229
  0
VERTEX
  8
0
 10
138.169939
 20
252.476606
 42
-0.018685
  0
VERTEX
  8
0
 10
138.989360
 20
253.223494
 42
-0.021724
  0
VERTEX
  8
0
 10
140.077838
 20
254.065334
 42
-0.015326
  0
VERTEX
  8
0
 10
141.368034
 20
254.918441
 42
-0.046938
  0
VERTEX
  8
0
 10
143.475640
 20
255.962039
 42
-0.047691
  0
VERTEX
  8
0
 10
145.729779
 20
256.587465
 42
-0.033458
  0
VERTEX
  8
0
 10
148.670250
 20
256.907605
 42
-0.010388
  0
VERTEX
  8
0
 10
153.118034
 20
257.000044
 42
0.000000
  0
VERTEX
  8
0
 10
161.500000
 20
257.000089
 42
0.000000
  0
VERTEX
  8
0
 10
164.541430
 20
253.377508
 42
0.000000
  0
VERTEX
  8
0
 10
167.582860
 20
249.754927
 42
0.000000
  0
VERTEX
  8
0
 10
172.785025
 20
252.391064
 42
-0.058739
  0
VERTEX
  8
0
 10
184.023708
 20
256.514927
 42
-0.030654
  0
VERTEX
  8
0
 10
198.739470
 20
259.087210
 42
-0.030201
  0
VERTEX
  8
0
 10
214.212888
 20
259.882883
 42
-0.043212
  0
VERTEX
  8
0
 10
227.885363
 20
258.574875
 42
-0.002250
  0
VERTEX
  8
0
 10
231.533532
 20
257.887447
 42
-0.003119
  0
VERTEX
  8
0
 10
234.797481
 20
257.236050
 42
-0.001945
  0
VERTEX
  8
0
 10
237.535696
 20
256.660682
 42
-0.038871
  0
VERTEX
  8
0
 10
238.354092
 20
256.417617
 42
0.184563
  0
VERTEX
  8
0
 10
238.995062
 20
256.416726
 42
0.035380
  0
VERTEX
  8
0
 10
240.069276
 20
256.915062
 42
0.033441
  0
VERTEX
  8
0
 10
241.307359
 20
257.712038
 42
0.025342
  0
VERTEX
  8
0
 10
242.554135
 20
258.739946
 42
-0.034375
  0
VERTEX
  8
0
 10
245.824153
 20
261.338220
 42
-0.065425
  0
VERTEX
  8
0
 10
248.811131
 20
262.863164
 42
-0.059225
  0
VERTEX
  8
0
 10
252.286611
 20
263.651525
 42
-0.023655
  0
VERTEX
  8
0
 10
257.168960
 20
263.932320
 42
-0.016330
  0
VERTEX
  8
0
 10
260.347610
 20
263.860757
 42
-0.028767
  0
VERTEX
  8
0
 10
262.957016
 20
263.565465
 42
-0.034828
  0
VERTEX
  8
0
 10
265.102459
 20
263.040821
 42
-0.052940
  0
SEQEND
  0
POLYLINE
  8
0
 66
1
 70
1
  0
VERTEX
  8
0
 10
231.703825
 20
251.525311
 42
-0.025873
  0
VERTEX
  8
0
 10
241.391688
 20
248.640371
 42
-0.037317
  0
VERTEX
  8
0
 10
249.567925
 20
245.030563
 42
-0.039332
  0
VERTEX
  8
0
 10
256.789143
 20
240.412303
 42
-0.033853
  0
VERTEX
  8
0
 10
263.593530
 20
234.500842
 42
-0.052788
  0
VERTEX
  8
0
 10
271.210864
 20
225.126205
 42
-0.054626
  0
VERTEX
  8
0
 10
276.594456
 20
214.467806
 42
-0.048631
  0
VERTEX
  8
0
 10
279.973211
 20
201.837538
 42
-0.029865
  0
VERTEX
  8
0
 10
281.581161
 20
186.505661
 42
0.009304
  0
VERTEX
  8
0
 10
281.896749
 20
181.533744
 42
0.009006
  0
VERTEX
  8
0
 10
282.399570
 20
176.522682
 42
0.008954
  0
VERTEX
  8
0
 10
283.000256
 20
172.130729
 42
0.032468
  0
VERTEX
  8
0
 10
283.611743
 20
169.380064
 42
-0.032677
  0
VERTEX
  8
0
 10
284.858134
 20
163.762350
 42
-0.038187
  0
VERTEX
  8
0
 10
285.276429
 20
158.316784
 42
-0.041769
  0
VERTEX
  8
0
 10
284.864420
 20
153.373955
 42
-0.064160
  0
VERTEX
  8
0
 10
283.618296
 20
149.270052
 42
-0.067896
  0
VERTEX
  8
0
 10
281.631126
 20
146.090050
 42
-0.044334
  0
VERTEX
  8
0
 10
278.575632
 20
143.018132
 42
-0.044947
  0
VERTEX
  8
0
 10
275.270620
 20
140.709994
 42
-0.130687
  0
VERTEX
  8
0
 10
272.600620
 20
140.000000
 42
0.071088
  0
VERTEX
  8
0
 10
271.729553
 20
139.875525
 42
0.026222
  0
VERTEX
  8
0
 10
270.555384
 20
139.465050
 42
0.025359
  0
VERTEX
  8
0
 10
269.302200
 20
138.875920
 42
0.027799
  0
VERTEX
  8
0
 10
268.154370
 20
138.178893
 42
-0.045327
  0
VERTEX
  8
0
 10
264.541084
 20
136.154309
 42
-0.028064
  0
VERTEX
  8
0
 10
259.990692
 20
134.420593
 42
-0.024763
  0
VERTEX
  8
0
 10
254.621314
 20
133.001444
 42
-0.017844
  0
VERTEX
  8
0
 10
248.515662
 20
131.933275
 42
0.003062
  0
VERTEX
  8
0
 10
245.415629
 20
131.484916
 42
0.004578
  0
VERTEX
  8
0
 10
242.713045
 20
131.051781
 42
0.002013
  0
VERTEX
  8
0
 10
240.414704
 20
130.652286
 42
0.094643
  0
VERTEX
  8
0
 10
239.974120
 20
130.484005
 42
-0.113368
  0
VERTEX
  8
0
 10
239.508285
 20
130.325588
 42
-0.000858
  0
VERTEX
  8
0
 10
235.480298
 20
129.920158
 42
-0.003138
  0
VERTEX
  8
0
 10
230.849058
 20
129.491366
 42
-0.002002
  0
VERTEX
  8
0
 10
225.458458
 20
129.048109
 42
-0.016512
  0
VERTEX
  8
0
 10
214.102326
 20
128.536524
 42
-0.015976
  0
VERTEX
  8
0
 10
202.611093
 20
128.765809
 42
-0.015094
  0
VERTEX
  8
0
 10
190.556222
 20
129.757551
 42
-0.011683
  0
VERTEX
  8
0
 10
177.500000
 20
131.539346
 42
-0.007289
  0
VERTEX
  8
0
 10
167.886050
 20
133.225049
 42
-0.040114
  0
VERTEX
  8
0
 10
162.815421
 20
134.619317
 42
-0.054763
  0
VERTEX
  8
0
 10
158.756197
 20
136.620044
 42
-0.020935
  0
VERTEX
  8
0
 10
153.582889
 20
140.229754
 42
-0.058819
  0
VERTEX
  8
0
 10
146.215958
 20
147.353052
 42
-0.075009
  0
VERTEX
  8
0
 10
141.405006
 20
155.471271
 42
-0.064284
  0
VERTEX
  8
0
 10
138.739421
 20
165.620431
 42
-0.031260
  0
VERTEX
  8
0
 10
137.854566
 20
179.018021
 42
-0.032968
  0
VERTEX
  8
0
 10
138.619583
 20
191.250064
 42
-0.028348
  0
VERTEX
  8
0
 10
140.991534
 20
203.921077
 42
-0.028731
  0
VERTEX
  8
0
 10
144.395022
 20
214.955679
 42
-0.091794
  0
VERTEX
  8
0
 10
148.338166
 20
221.538305
 42
0.007748
  0
VERTEX
  8
0
 10
149.406763
 20
222.788405
 42
0.002771
  0
VERTEX
  8
0
 10
150.893086
 20
224.603128
 42
0.002748
  0
VERTEX
  8
0
 10
152.501522
 20
226.611774
 42
0.003247
  0
VERTEX
  8
0
 10
154.000000
 20
228.529797
 42
-0.038465
  0
VERTEX
  8
0
 10
158.943745
 20
234.014094
 42
-0.020953
  0
VERTEX
  8
0
 10
165.772542
 20
239.984061
 42
-0.020872
  0
VERTEX
  8
0
 10
172.907168
 20
245.238196
 42
-0.048720
  0
VERTEX
  8
0
 10
178.735131
 20
248.389227
 42
-0.050273
  0
VERTEX
  8
0
 10
190.412895
 20
251.973831
 42
-0.034571
  0
VERTEX
  8
0
 10
204.157675
 20
253.746364
 42
-0.033818
  0
VERTEX
  8
0
 10
218.427399
 20
253.625466
 42
-0.040425
  0
SEQEND
  0
POLYLINE
  8
0
 66
1
 70
1
  0
VERTEX
  8
0
 10
165.111575
 20
130.098031
 42
0.009789
  0
VERTEX
  8
0
 10
172.794281
 20
126.705667
 42
0.022860
  0
VERTEX
  8
0
 10
178.696111
 20
124.547847
 42
0.025339
  0
VERTEX
  8
0
 10
184.390143
 20
123.068780
 42
0.014972
  0
VERTEX
  8
0
 10
191.309424
 20
121.855867
 42
0.000000
  0
VERTEX
  8
0
 10
199.790992
 20
120.629559
 42
0.000000
  0
VERTEX
  8
0
 10
198.260604
 20
117.420302
 42
0.037203
  0
VERTEX
  8
0
 10
197.684153
 20
115.936715
 42
0.036673
  0
VERTEX
  8
0
 10
197.330590
 20
114.376984
 42
0.038741
  0
VERTEX
  8
0
 10
197.222697
 20
112.884342
 42
0.060228
  0
VERTEX
  8
0
 10
197.384160
 20
111.605522
 42
0.175921
  0
VERTEX
  8
0
 10
198.718673
 20
109.630312
 42
0.168753
  0
VERTEX
  8
0
 10
201.035498
 20
108.928890
 42
0.112238
  0
VERTEX
  8
0
 10
204.090039
 20
109.754288
 42
0.058335
  0
VERTEX
  8
0
 10
207.356795
 20
112.008408
 42
0.000000
  0
VERTEX
  8
0
 10
210.783183
 20
115.016817
 42
0.000000
  0
VERTEX
  8
0
 10
214.291592
 20
111.508408
 42
0.051582
  0
VERTEX
  8
0
 10
217.080001
 20
109.242787
 42
0.095015
  0
VERTEX
  8
0
 10
219.774072
 20
108.136035
 42
0.127549
  0
VERTEX
  8
0
 10
222.141410
 20
108.262564
 42
0.143714
  0
VERTEX
  8
0
 10
224.026336
 20
109.531732
 42
0.150572
  0
VERTEX
  8
0
 10
224.614623
 20
110.947469
 42
0.064432
  0
VERTEX
  8
0
 10
224.544739
 20
113.016840
 42
0.042378
  0
VERTEX
  8
0
 10
223.828348
 20
115.856208
 42
0.015313
  0
VERTEX
  8
0
 10
222.351690
 20
119.750000
 42
-0.236418
  0
VERTEX
  8
0
 10
222.390971
 20
120.300688
 42
-0.169398
  0
VERTEX
  8
0
 10
222.871295
 20
120.704985
 42
-0.071605
  0
VERTEX
  8
0
 10
223.926415
 20
120.942138
 42
-0.018677
  0
VERTEX
  8
0
 10
225.666667
 20
121.013137
 42
0.043113
  0
VERTEX
  8
0
 10
232.175529
 20
121.597898
 42
0.018733
  0
VERTEX
  8
0
 10
240.672480
 20
123.437713
 42
0.018694
  0
VERTEX
  8
0
 10
249.361421
 20
126.012439
 42
0.029097
  0
VERTEX
  8
0
 10
256.603110
 20
128.935463
 42
-0.005367
  0
VERTEX
  8
0
 10
259.962910
 20
130.480740
 42
-0.008661
  0
VERTEX
  8
0
 10
262.859240
 20
131.715633
 42
-0.003153
  0
VERTEX
  8
0
 10
265.342526
 20
132.705755
 42
-0.298002
  0
VERTEX
  8
0
 10
265.702951
 20
132.630382
 42
-0.160717
  0
VERTEX
  8
0
 10
266.419051
 20
131.209008
 42
-0.002355
  0
VERTEX
  8
0
 10
267.778650
 20
121.784286
 42
-0.007137
  0
VERTEX
  8
0
 10
268.964756
 20
112.290164
 42
-0.011836
  0
VERTEX
  8
0
 10
269.660698
 20
104.250000
 42
0.000000
  0
VERTEX
  8
0
 10
270.303933
 20
94.000000
 42
0.000000
  0
VERTEX
  8
0
 10
211.151967
 20
94.000000
 42
-0.000683
  0
VERTEX
  8
0
 10
177.755172
 20
94.045618
 42
-0.005483
  0
VERTEX
  8
0
 10
162.384648
 20
94.256167
 42
-0.004083
  0
VERTEX
  8
0
 10
152.854248
 20
94.569147
 42
-0.402257
  0
VERTEX
  8
0
 10
152.000000
 20
95.459152
 42
-0.036336
  0
VERTEX
  8
0
 10
152.317186
 20
99.817970
 42
-0.012439
  0
VERTEX
  8
0
 10
153.390584
 20
106.065232
 42
-0.008025
  0
VERTEX
  8
0
 10
154.711027
 20
112.227609
 42
-0.122979
  0
VERTEX
  8
0
 10
155.692413
 20
114.150723
 42
0.143813
  0
VERTEX
  8
0
 10
156.351381
 20
115.584067
 42
0.422288
  0
VERTEX
  8
0
 10
155.758553
 20
116.357638
 42
0.094839
  0
VERTEX
  8
0
 10
153.447138
 20
116.192453
 42
0.016308
  0
VERTEX
  8
0
 10
149.219106
 20
114.916616
 42
-0.021067
  0
VERTEX
  8
0
 10
146.511368
 20
114.127567
 42
-0.019110
  0
VERTEX
  8
0
 10
143.657634
 20
113.539536
 42
-0.019919
  0
VERTEX
  8
0
 10
140.980684
 20
113.202714
 42
-0.039291
  0
VERTEX
  8
0
 10
138.838746
 20
113.188166
 42
-0.016255
  0
VERTEX
  8
0
 10
136.109125
 20
113.473778
 42
-0.148442
  0
VERTEX
  8
0
 10
135.036353
 20
113.967714
 42
-0.169438
  0
VERTEX
  8
0
 10
134.490195
 20
114.946678
 42
-0.022766
  0
VERTEX
  8
0
 10
134.185402
 20
117.320999
 42
-0.037208
  0
VERTEX
  8
0
 10
134.168479
 20
119.499674
 42
-0.089611
  0
VERTEX
  8
0
 10
134.558765
 20
121.058297
 42
-0.076174
  0
VERTEX
  8
0
 10
135.514919
 20
122.530002
 42
-0.021616
  0
VERTEX
  8
0
 10
137.423369
 20
124.492498
 42
-0.057619
  0
VERTEX
  8
0
 10
140.251113
 20
126.602384
 42
-0.016870
  0
VERTEX
  8
0
 10
145.037642
 20
129.168862
 42
-0.016537
  0
VERTEX
  8
0
 10
150.716752
 20
131.741650
 42
-0.016036
  0
VERTEX
  8
0
 10
156.611575
 20
133.962012
 42
-0.190866
  0
VERTEX
  8
0
 10
156.700242
 20
133.957661
 42
-0.000108
  0
VERTEX
  8
0
 10
159.154475
 20
132.842638
 42
-0.001357
  0
VERTEX
  8
0
 10
161.887285
 20
131.591379
 42
-0.000825
  0
SEQEND
  0
POLYLINE
  8
0
 66
1
 70
1
  0
VERTEX
  8
0
 10
277.792066
 20
129.946042
 42
-0.041329
  0
VERTEX
  8
0
 10
282.238080
 20
127.244436
 42
-0.067137
  0
VERTEX
  8
0
 10
285.428258
 20
124.195848
 42
-0.079312
  0
VERTEX
  8
0
 10
287.339261
 20
120.824862
 42
-0.089596
  0
VERTEX
  8
0
 10
288.000000
 20
117.167150
 42
-0.113191
  0
VERTEX
  8
0
 10
287.395254
 20
114.530027
 42
-0.173755
  0
VERTEX
  8
0
 10
285.739635
 20
112.905644
 42
-0.107403
  0
VERTEX
  8
0
 10
282.737726
 20
112.241245
 42
-0.029852
  0
VERTEX
  8
0
 10
277.897498
 20
112.511897
 42
-0.012022
  0
VERTEX
  8
0
 10
274.691742
 20
112.962313
 42
-0.063975
  0
VERTEX
  8
0
 10
273.000242
 20
113.469673
 42
-0.124632
  0
VERTEX
  8
0
 10
272.054714
 20
114.214426
 42
-0.111968
  0
VERTEX
  8
0
 10
271.530819
 20
115.348855
 42
-0.014311
  0
VERTEX
  8
0
 10
271.054846
 20
117.949650
 42
-0.001348
  0
VERTEX
  8
0
 10
270.086864
 20
124.367769
 42
-0.000683
  0
VERTEX
  8
0
 10
269.094495
 20
131.133806
 42
-0.036082
  0
VERTEX
  8
0
 10
269.000000
 20
132.441553
 42
-0.417393
  0
VERTEX
  8
0
 10
269.553077
 20
132.988665
 42
-0.066528
  0
VERTEX
  8
0
 10
271.226044
 20
132.746587
 42
-0.035385
  0
VERTEX
  8
0
 10
273.928577
 20
131.768336
 42
-0.011342
  0
SEQEND
  0
POLYLINE
  8
0
 66
1
 70
1
  0
VERTEX
  8
0
 10
318.000000
 20
333.134859
 42
0.114578
  0
VERTEX
  8
0
 10
318.111009
 20
332.656795
 42
0.017866
  0
VERTEX
  8
0
 10
318.572180
 20
331.796443
 42
0.019090
  0
VERTEX
  8
0
 10
319.202061
 20
330.804940
 42
0.015597
  0
VERTEX
  8
0
 10
319.947848
 20
329.793430
 42
-0.044392
  0
VERTEX
  8
0
 10
320.673182
 20
328.680980
 42
-0.044617
  0
VERTEX
  8
0
 10
321.189330
 20
327.459796
 42
-0.048249
  0
VERTEX
  8
0
 10
321.443999
 20
326.289617
 42
-0.093684
  0
VERTEX
  8
0
 10
321.378325
 20
325.338715
 42
0.079724
  0
VERTEX
  8
0
 10
321.292079
 20
324.449292
 42
0.067677
  0
VERTEX
  8
0
 10
321.477542
 20
323.522931
 42
0.066257
  0
VERTEX
  8
0
 10
321.909738
 20
322.661589
 42
0.070288
  0
VERTEX
  8
0
 10
322.545093
 20
321.962576
 42
0.041135
  0
VERTEX
  8
0
 10
323.528351
 20
321.274625
 42
0.176368
  0
VERTEX
  8
0
 10
324.220765
 20
321.149246
 42
0.150390
  0
VERTEX
  8
0
 10
324.898254
 20
321.492157
 42
0.027566
  0
VERTEX
  8
0
 10
325.864616
 20
322.532433
 42
-0.063514
  0
VERTEX
  8
0
 10
326.771824
 20
323.378396
 42
-0.069058
  0
VERTEX
  8
0
 10
327.838159
 20
323.941322
 42
-0.064609
  0
VERTEX
  8
0
 10
329.078244
 20
324.217051
 42
-0.046309
  0
VERTEX
  8
0
 10
330.500000
 20
324.213067
 42
0.009269
  0
VERTEX
  8
0
 10
332.013663
 20
324.096561
 42
0.129143
  0
VERTEX
  8
0
 10
332.545717
 20
324.203629
 42
0.514364
  0
VERTEX
  8
0
 10
332.588490
 20
324.460184
 42
0.047019
  0
VERTEX
  8
0
 10
332.000000
 20
324.947754
 42
0.043120
  0
VERTEX
  8
0
 10
331.301144
 20
325.340252
 42
0.028232
  0
VERTEX
  8
0
 10
330.438931
 20
325.673772
 42
0.028383
  0
VERTEX
  8
0
 10
329.555104
 20
325.905006
 42
0.047580
  0
VERTEX
  8
0
 10
328.792107
 20
325.984687
 42
-0.125752
  0
VERTEX
  8
0
 10
327.880478
 20
326.226378
 42
-0.021805
  0
VERTEX
  8
0
 10
326.350726
 20
327.170502
 42
-0.022503
  0
VERTEX
  8
0
 10
324.614441
 20
328.467442
 42
-0.018472
  0
VERTEX
  8
0
 10
322.879340
 20
330.000000
 42
0.003149
  0
VERTEX
  8
0
 10
319.921781
 20
332.778181
 42
0.044221
  0
VERTEX
  8
0
 10
318.770559
 20
333.670640
 42
0.312987
  0
VERTEX
  8
0
 10
318.259194
 20
333.652433
 42
0.236400
  0
SEQEND
  0
POLYLINE
  8
0
 66
1
 70
1
  0
VERTEX
  8
0
 10
350.487128
 20
331.750000
 42
-0.107852
  0
VERTEX
  8
0
 10
349.346145
 20
330.179547
 42
-0.039857
  0
VERTEX
  8
0
 10
347.152808
 20
328.519283
 42
-0.033627
  0
VERTEX
  8
0
 10
344.162581
 20
326.881681
 42
-0.021533
  0
VERTEX
  8
0
 10
340.500000
 20
325.372947
 42
0.007489
  0
VERTEX
  8
0
 10
339.261994
 20
324.903181
 42
0.408375
  0
VERTEX
  8
0
 10
339.169460
 20
324.694708
 42
0.261717
  0
VERTEX
  8
0
 10
339.387095
 20
324.510960
 42
0.004785
  0
VERTEX
  8
0
 10
340.926664
 20
324.231357
 42
-0.032915
  0
VERTEX
  8
0
 10
342.011002
 20
323.970721
 42
-0.019335
  0
VERTEX
  8
0
 10
343.268997
 20
323.525210
 42
-0.019289
  0
VERTEX
  8
0
 10
344.497471
 20
322.980139
 42
-0.030976
  0
VERTEX
  8
0
 10
345.492908
 20
322.412690
 42
0.031574
  0
VERTEX
  8
0
 10
346.726137
 20
321.711637
 42
0.115913
  0
VERTEX
  8
0
 10
347.595933
 20
321.514401
 42
0.121689
  0
VERTEX
  8
0
 10
348.438757
 20
321.729604
 42
0.036466
  0
VERTEX
  8
0
 10
349.566244
 20
322.444488
 42
0.037626
  0
VERTEX
  8
0
 10
350.533889
 20
323.281599
 42
0.142824
  0
VERTEX
  8
0
 10
350.912317
 20
323.976526
 42
0.149341
  0
VERTEX
  8
0
 10
350.849312
 20
324.747269
 42
0.042430
  0
VERTEX
  8
0
 10
350.306427
 20
325.835174
 42
-0.047110
  0
VERTEX
  8
0
 10
349.772336
 20
326.930961
 42
-0.140547
  0
VERTEX
  8
0
 10
349.706210
 20
327.754692
 42
-0.125513
  0
VERTEX
  8
0
 10
350.086885
 20
328.545008
 42
-0.034171
  0
VERTEX
  8
0
 10
351.056427
 20
329.551065
 42
0.062032
  0
VERTEX
  8
0
 10
352.241413
 20
330.926019
 42
0.082187
  0
VERTEX
  8
0
 10
352.919152
 20
332.429849
 42
0.146217
  0
VERTEX
  8
0
 10
352.884985
 20
333.532850
 42
0.322936
  0
VERTEX
  8
0
 10
352.237128
 20
334.000000
 42
0.191558
  0
VERTEX
  8
0
 10
351.879543
 20
333.857785
 42
0.038191
  0
VERTEX
  8
0
 10
351.408381
 20
333.339063
 42
0.035392
  0
VERTEX
  8
0
 10
350.920955
 20
332.611532
 42
0.026530
  0
SEQEND
  0
POLYLINE
  8
0
 66
1
 70
1
  0
VERTEX
  8
0
 10
326.250000
 20
308.433860
 42
0.015225
  0
VERTEX
  8
0
 10
324.621909
 20
307.389420
 42
0.021695
  0
VERTEX
  8
0
 10
323.248438
 20
306.357786
 42
0.018560
  0
VERTEX
  8
0
 10
322.213059
 20
305.441018
 42
0.205045
  0
VERTEX
  8
0
 10
322.000000
 20
304.943320
 42
0.187519
  0
VERTEX
  8
0
 10
322.245335
 20
304.312162
 42
0.300042
  0
VERTEX
  8
0
 10
322.786159
 20
304.176173
 42
0.060512
  0
VERTEX
  8
0
 10
323.943415
 20
304.745970
 42
0.005141
  0
VERTEX
  8
0
 10
326.705591
 20
306.590139
 42
-0.029574
  0
VERTEX
  8
0
 10
328.988216
 20
307.957898
 42
-0.064877
  0
VERTEX
  8
0
 10
330.896808
 20
308.657033
 42
-0.054741
  0
VERTEX
  8
0
 10
333.116924
 20
308.907143
 42
-0.016171
  0
VERTEX
  8
0
 10
336.542543
 20
308.805956
 42
-0.020415
  0
VERTEX
  8
0
 10
339.503012
 20
308.500863
 42
-0.034700
  0
VERTEX
  8
0
 10
341.935067
 20
307.975139
 42
-0.040124
  0
VERTEX
  8
0
 10
344.002248
 20
307.191221
 42
-0.044055
  0
VERTEX
  8
0
 10
345.850118
 20
306.106725
 42
0.017490
  0
VERTEX
  8
0
 10
347.140146
 20
305.254517
 42
0.027197
  0
VERTEX
  8
0
 10
348.313333
 20
304.622044
 42
0.025561
  0
VERTEX
  8
0
 10
349.268961
 20
304.230401
 42
0.288431
  0
VERTEX
  8
0
 10
349.650590
 20
304.317257
 42
0.395382
  0
VERTEX
  8
0
 10
349.662082
 20
304.672272
 42
0.019549
  0
VERTEX
  8
0
 10
348.782347
 20
305.598296
 42
0.022838
  0
VERTEX
  8
0
 10
347.531564
 20
306.709258
 42
0.013422
  0
VERTEX
  8
0
 10
345.942976
 20
307.926348
 42
0.076156
  0
VERTEX
  8
0
 10
341.408247
 20
310.257819
 42
0.074414
  0
VERTEX
  8
0
 10
336.346904
 20
311.149156
 42
0.072936
  0
VERTEX
  8
0
 10
331.157067
 20
310.524169
 42
0.068727
  0
SEQEND
  0
POLYLINE
  8
0
 66
1
 70
1
  0
VERTEX
  8
0
 10
204.000000
 20
189.597825
 42
0.172547
  0
VERTEX
  8
0
 10
204.218851
 20
188.982528
 42
0.054143
  0
VERTEX
  8
0
 10
204.925084
 20
188.285053
 42
0.046792
  0
VERTEX
  8
0
 10
205.943907
 20
187.621244
 42
0.037146
  0
VERTEX
  8
0
 10
207.149223
 20
187.097825
 42
0.003811
  0
VERTEX
  8
0
 10
209.806732
 20
186.194072
 42
0.100096
  0
VERTEX
  8
0
 10
210.551207
 20
186.103808
 42
0.334377
  0
VERTEX
  8
0
 10
210.900115
 20
186.412459
 42
0.050334
  0
VERTEX
  8
0
 10
211.000000
 20
187.402175
 42
0.172547
  0
VERTEX
  8
0
 10
210.781149
 20
188.017472
 42
0.054143
  0
VERTEX
  8
0
 10
210.074916
 20
188.714947
 42
0.046792
  0
VERTEX
  8
0
 10
209.056093
 20
189.378756
 42
0.037146
  0
VERTEX
  8
0
 10
207.850777
 20
189.902175
 42
0.003811
  0
VERTEX
  8
0
 10
205.193268
 20
190.805928
 42
0.100096
  0
VERTEX
  8
0
 10
204.448793
 20
190.896192
 42
0.334377
  0
VERTEX
  8
0
 10
204.099885
 20
190.587541
 42
0.050334
  0
SEQEND
  0
POLYLINE
  8
0
 66
1
 70
1
  0
VERTEX
  8
0
 10
247.065310
 20
189.385414
 42
0.023186
  0
VERTEX
  8
0
 10
245.621554
 20
188.697962
 42
0.073628
  0
VERTEX
  8
0
 10
244.764602
 20
188.062922
 42
0.157655
  0
VERTEX
  8
0
 10
244.469043
 20
187.485833
 42
0.241007
  0
VERTEX
  8
0
 10
244.638342
 20
186.961658
 42
0.230553
  0
VERTEX
  8
0
 10
245.982322
 20
186.497988
 42
0.038527
  0
VERTEX
  8
0
 10
248.735409
 20
187.050313
 42
0.038040
  0
VERTEX
  8
0
 10
251.332311
 20
188.001352
 42
0.293981
  0
VERTEX
  8
0
 10
252.000000
 20
189.038808
 42
0.185466
  0
VERTEX
  8
0
 10
251.652096
 20
189.944461
 42
0.194172
  0
VERTEX
  8
0
 10
250.795050
 20
190.362374
 42
0.091782
  0
VERTEX
  8
0
 10
249.297022
 20
190.192482
 42
0.025517
  0
SEQEND
  0
POLYLINE
  8
0
 66
1
 70
1
  0
VERTEX
  8
0
 10
249.595018
 20
181.832194
 42
0.040450
  0
VERTEX
  8
0
 10
248.410213
 20
179.810780
 42
0.130995
  0
VERTEX
  8
0
 10
248.120774
 20
178.295932
 42
0.118802
  0
VERTEX
  8
0
 10
248.612657
 20
176.750852
 42
0.030462
  0
VERTEX
  8
0
 10
250.116022
 20
174.579632
 42
0.099298
  0
VERTEX
  8
0
 10
252.273806
 20
172.738674
 42
0.147439
  0
VERTEX
  8
0
 10
254.684064
 20
172.210777
 42
0.135769
  0
VERTEX
  8
0
 10
257.130761
 20
173.095691
 42
0.078817
  0
VERTEX
  8
0
 10
259.380570
 20
175.295829
 42
0.021566
  0
VERTEX
  8
0
 10
260.541874
 20
177.007495
 42
0.113024
  0
VERTEX
  8
0
 10
260.905888
 20
178.077535
 42
0.124930
  0
VERTEX
  8
0
 10
260.749089
 20
179.145658
 42
0.028805
  0
VERTEX
  8
0
 10
259.948050
 20
180.795829
 42
0.129957
  0
VERTEX
  8
0
 10
257.860914
 20
182.956961
 42
0.111605
  0
VERTEX
  8
0
 10
254.854762
 20
183.960043
 42
0.116320
  0
VERTEX
  8
0
 10
251.809007
 20
183.556184
 42
0.150204
  0
SEQEND
  0
POLYLINE
  8
0
 66
1
 70
1
  0
VERTEX
  8
0
 10
197.973533
 20
180.950547
 42
0.088523
  0
VERTEX
  8
0
 10
197.155436
 20
178.438281
 42
0.097338
  0
VERTEX
  8
0
 10
197.298162
 20
175.884860
 42
0.100980
  0
VERTEX
  8
0
 10
198.382161
 20
173.647560
 42
0.102909
  0
VERTEX
  8
0
 10
200.250000
 20
172.031543
 42
0.026220
  0
VERTEX
  8
0
 10
201.892675
 20
171.226429
 42
0.101149
  0
VERTEX
  8
0
 10
203.000000
 20
171.000031
 42
0.101153
  0
VERTEX
  8
0
 10
204.107330
 20
171.226294
 42
0.026224
  0
VERTEX
  8
0
 10
205.750000
 20
172.031196
 42
0.122619
  0
VERTEX
  8
0
 10
207.645142
 20
173.804039
 42
0.087308
  0
VERTEX
  8
0
 10
208.783646
 20
176.492848
 42
0.089684
  0
VERTEX
  8
0
 10
208.918863
 20
179.339089
 42
0.141255
  0
VERTEX
  8
0
 10
207.945786
 20
181.565324
 42
0.166888
  0
VERTEX
  8
0
 10
205.943073
 20
182.785889
 42
0.069659
  0
VERTEX
  8
0
 10
202.748465
 20
183.034038
 42
0.070434
  0
VERTEX
  8
0
 10
199.656155
 20
182.400090
 42
0.186249
  0
SEQEND
  0
POLYLINE
  8
0
 66
1
 70
1
  0
VERTEX
  8
0
 10
220.625000
 20
172.202254
 42
0.128916
  0
VERTEX
  8
0
 10
220.499678
 20
171.793004
 42
0.054315
  0
VERTEX
  8
0
 10
220.538940
 20
171.214687
 42
0.048831
  0
VERTEX
  8
0
 10
220.719492
 20
170.572041
 42
0.045556
  0
VERTEX
  8
0
 10
221.024374
 20
169.960562
 42
-0.077476
  0
VERTEX
  8
0
 10
221.326030
 20
169.244945
 42
-0.039161
  0
VERTEX
  8
0
 10
221.488140
 20
168.277397
 42
-0.037695
  0
VERTEX
  8
0
 10
221.501107
 20
167.229006
 42
-0.045761
  0
VERTEX
  8
0
 10
221.349983
 20
166.258308
 42
0.086121
  0
VERTEX
  8
0
 10
221.232567
 20
164.676374
 42
0.358215
  0
VERTEX
  8
0
 10
221.860988
 20
164.048306
 42
0.237790
  0
VERTEX
  8
0
 10
222.915077
 20
164.456836
 42
0.060762
  0
VERTEX
  8
0
 10
224.000000
 20
166.000000
 42
-0.191063
  0
VERTEX
  8
0
 10
225.734856
 20
167.466669
 42
-0.068211
  0
VERTEX
  8
0
 10
228.978214
 20
168.083840
 42
-0.070550
  0
VERTEX
  8
0
 10
232.146460
 20
167.800998
 42
-0.248558
  0
VERTEX
  8
0
 10
233.638374
 20
166.500000
 42
0.116161
  0
VERTEX
  8
0
 10
234.541644
 20
165.173138
 42
0.375402
  0
VERTEX
  8
0
 10
235.524110
 20
165.149977
 42
0.167760
  0
VERTEX
  8
0
 10
236.340574
 20
166.500707
 42
0.046296
  0
VERTEX
  8
0
 10
236.638747
 20
169.000000
 42
0.027212
  0
VERTEX
  8
0
 10
236.569621
 20
171.451066
 42
0.134995
  0
VERTEX
  8
0
 10
236.099971
 20
172.733798
 42
0.395539
  0
VERTEX
  8
0
 10
235.377467
 20
172.878863
 42
0.116031
  0
VERTEX
  8
0
 10
234.500000
 20
172.000000
 42
-0.186738
  0
VERTEX
  8
0
 10
233.985092
 20
171.610188
 42
-0.024736
  0
VERTEX
  8
0
 10
232.629436
 20
171.293750
 42
-0.025914
  0
VERTEX
  8
0
 10
230.914843
 20
171.073011
 42
-0.019058
  0
VERTEX
  8
0
 10
229.000000
 20
171.000000
 42
-0.019058
  0
VERTEX
  8
0
 10
227.085157
 20
171.073011
 42
-0.025914
  0
VERTEX
  8
0
 10
225.370564
 20
171.293750
 42
-0.024736
  0
VERTEX
  8
0
 10
224.014908
 20
171.610188
 42
-0.186738
  0
VERTEX
  8
0
 10
223.500000
 20
172.000000
 42
0.104083
  0
VERTEX
  8
0
 10
222.851780
 20
172.680656
 42
0.133828
  0
VERTEX
  8
0
 10
222.039295
 20
172.964691
 42
0.144572
  0
VERTEX
  8
0
 10
221.241359
 20
172.788835
 42
0.128995
  0
SEQEND
  0
ENDSEC
  0
EOF
