  0
SECTION
  2
HEADER
  9
$ACADVER
  1
AC1006
  9
$EXTMIN
 10
0.000000
 20
0.000000
 30
0.000000
  9
$EXTMAX
 10
338.000000
 20
375.000000
 30
0.000000
  0
ENDSEC
  0
SECTION
  2
ENTITIES
  0
POLYLINE
  8
0
 66
1
 70
1
  0
VERTEX
  8
0
 10
134.200000
 20
327.800000
 42
0.049176
  0
VERTEX
  8
0
 10
133.277957
 20
326.676264
 42
0.175672
  0
VERTEX
  8
0
 10
133.059476
 20
325.787548
 42
0.270106
  0
VERTEX
  8
0
 10
133.483981
 20
325.210625
 42
0.102562
  0
VERTEX
  8
0
 10
134.500000
 20
325.000000
 42
0.078509
  0
VERTEX
  8
0
 10
135.073004
 20
325.090529
 42
0.090584
  0
VERTEX
  8
0
 10
135.559375
 20
325.352500
 42
0.100780
  0
VERTEX
  8
0
 10
135.884532
 20
325.742343
 42
0.124206
  0
VERTEX
  8
0
 10
136.000000
 20
326.200000
 42
-0.051663
  0
VERTEX
  8
0
 10
136.056215
 20
326.742599
 42
-0.354955
  0
VERTEX
  8
0
 10
136.250000
 20
326.900000
 42
-0.180052
  0
VERTEX
  8
0
 10
136.578624
 20
326.777696
 42
-0.018208
  0
VERTEX
  8
0
 10
137.200000
 20
326.200000
 42
0.048213
  0
VERTEX
  8
0
 10
137.757573
 20
325.740708
 42
0.037668
  0
VERTEX
  8
0
 10
138.439710
 20
325.352500
 42
0.038787
  0
VERTEX
  8
0
 10
139.136849
 20
325.086462
 42
0.071879
  0
VERTEX
  8
0
 10
139.735184
 20
325.000000
 42
0.094969
  0
VERTEX
  8
0
 10
140.316782
 20
325.111474
 42
0.271493
  0
VERTEX
  8
0
 10
140.560313
 20
325.424065
 42
0.134350
  0
VERTEX
  8
0
 10
140.482805
 20
325.992754
 42
0.022214
  0
VERTEX
  8
0
 10
140.000000
 20
327.000000
 42
0.112239
  0
VERTEX
  8
0
 10
138.872085
 20
328.299211
 42
0.124449
  0
VERTEX
  8
0
 10
137.333872
 20
328.921974
 42
0.123148
  0
VERTEX
  8
0
 10
135.671795
 20
328.741774
 42
0.108508
  0
SEQEND
  0
POLYLINE
  8
0
 66
1
 70
1
  0
VERTEX
  8
0
 10
95.000000
 20
326.000000
 42
0.081208
  0
VERTEX
  8
0
 10
95.159458
 20
325.024683
 42
0.166173
  0
VERTEX
  8
0
 10
95.625000
 20
324.416667
 42
0.116834
  0
VERTEX
  8
0
 10
96.499083
 20
324.092253
 42
0.030703
  0
VERTEX
  8
0
 10
98.000000
 20
324.000000
 42
0.000000
  0
VERTEX
  8
0
 10
101.000000
 20
324.000000
 42
0.000000
  0
VERTEX
  8
0
 10
101.000000
 20
315.500000
 42
0.004884
  0
VERTEX
  8
0
 10
101.050150
 20
310.365904
 42
0.052938
  0
VERTEX
  8
0
 10
101.308824
 20
308.312500
 42
0.172700
  0
VERTEX
  8
0
 10
101.918496
 20
307.367819
 42
0.165398
  0
VERTEX
  8
0
 10
103.000000
 20
307.000000
 42
0.165398
  0
VERTEX
  8
0
 10
104.081504
 20
307.367819
 42
0.172700
  0
VERTEX
  8
0
 10
104.691176
 20
308.312500
 42
0.052938
  0
VERTEX
  8
0
 10
104.949850
 20
310.365904
 42
0.004884
  0
VERTEX
  8
0
 10
105.000000
 20
315.500000
 42
0.000000
  0
VERTEX
  8
0
 10
105.000000
 20
324.000000
 42
0.000000
  0
VERTEX
  8
0
 10
108.000000
 20
324.000000
 42
0.030703
  0
VERTEX
  8
0
 10
109.500917
 20
324.092253
 42
0.116834
  0
VERTEX
  8
0
 10
110.375000
 20
324.416667
 42
0.166173
  0
VERTEX
  8
0
 10
110.840542
 20
325.024683
 42
0.081208
  0
VERTEX
  8
0
 10
111.000000
 20
326.000000
 42
0.157888
  0
VERTEX
  8
0
 10
110.650825
 20
327.078201
 42
0.176663
  0
VERTEX
  8
0
 10
109.750000
 20
327.687500
 42
0.055952
  0
VERTEX
  8
0
 10
107.801161
 20
327.948615
 42
0.005351
  0
VERTEX
  8
0
 10
103.000000
 20
328.000000
 42
0.005351
  0
VERTEX
  8
0
 10
98.198839
 20
327.948615
 42
0.055952
  0
VERTEX
  8
0
 10
96.250000
 20
327.687500
 42
0.176663
  0
VERTEX
  8
0
 10
95.349175
 20
327.078201
 42
0.157888
  0
SEQEND
  0
POLYLINE
  8
0
 66
1
 70
1
  0
VERTEX
  8
0
 10
113.000000
 20
317.500000
 42
0.003595
  0
VERTEX
  8
0
 10
113.046494
 20
311.033032
 42
0.043488
  0
VERTEX
  8
0
 10
113.297619
 20
308.562500
 42
0.155680
  0
VERTEX
  8
0
 10
113.906793
 20
307.439694
 42
0.193568
  0
VERTEX
  8
0
 10
115.000000
 20
307.000000
 42
0.109160
  0
VERTEX
  8
0
 10
116.044482
 20
307.230780
 42
0.189639
  0
VERTEX
  8
0
 10
116.648337
 20
307.864777
 42
0.084861
  0
VERTEX
  8
0
 10
116.934420
 20
309.162923
 42
0.011899
  0
VERTEX
  8
0
 10
117.000000
 20
311.918213
 42
-0.017322
  0
VERTEX
  8
0
 10
117.138274
 20
315.908336
 42
-0.071662
  0
VERTEX
  8
0
 10
117.645531
 20
318.260986
 42
-0.142546
  0
VERTEX
  8
0
 10
118.582617
 20
319.523213
 42
-0.163686
  0
VERTEX
  8
0
 10
120.000000
 20
320.000000
 42
-0.163686
  0
VERTEX
  8
0
 10
121.417383
 20
319.523213
 42
-0.142546
  0
VERTEX
  8
0
 10
122.354469
 20
318.260986
 42
-0.071662
  0
VERTEX
  8
0
 10
122.861726
 20
315.908336
 42
-0.017322
  0
VERTEX
  8
0
 10
123.000000
 20
311.918213
 42
0.011899
  0
VERTEX
  8
0
 10
123.065580
 20
309.162923
 42
0.084861
  0
VERTEX
  8
0
 10
123.351663
 20
307.864777
 42
0.189639
  0
VERTEX
  8
0
 10
123.955518
 20
307.230780
 42
0.109160
  0
VERTEX
  8
0
 10
125.000000
 20
307.000000
 42
0.122907
  0
VERTEX
  8
0
 10
126.057932
 20
307.264043
 42
0.189304
  0
VERTEX
  8
0
 10
126.663457
 20
307.972187
 42
0.074445
  0
VERTEX
  8
0
 10
126.940115
 20
309.453454
 42
0.009007
  0
VERTEX
  8
0
 10
127.000000
 20
312.777494
 42
0.020015
  0
VERTEX
  8
0
 10
126.897353
 20
315.340793
 42
0.028042
  0
VERTEX
  8
0
 10
126.586468
 20
317.610621
 42
0.032115
  0
VERTEX
  8
0
 10
126.097295
 20
319.476526
 42
0.072731
  0
VERTEX
  8
0
 10
125.443296
 20
320.777494
 42
0.105650
  0
VERTEX
  8
0
 10
123.912287
 20
322.201676
 42
0.099958
  0
VERTEX
  8
0
 10
121.902549
 20
322.911448
 42
0.104704
  0
VERTEX
  8
0
 10
119.852563
 20
322.770992
 42
0.127774
  0
VERTEX
  8
0
 10
118.200000
 20
321.800000
 42
-0.120991
  0
VERTEX
  8
0
 10
117.630985
 20
321.455358
 42
-0.372712
  0
VERTEX
  8
0
 10
117.250000
 20
321.620833
 42
-0.100282
  0
VERTEX
  8
0
 10
117.044552
 20
322.433482
 42
-0.011933
  0
VERTEX
  8
0
 10
117.000000
 20
324.300000
 42
0.020194
  0
VERTEX
  8
0
 10
116.921025
 20
326.254599
 42
0.104070
  0
VERTEX
  8
0
 10
116.614865
 20
327.287500
 42
0.180411
  0
VERTEX
  8
0
 10
116.010883
 20
327.815381
 42
0.090567
  0
VERTEX
  8
0
 10
115.000000
 20
328.000000
 42
0.193568
  0
VERTEX
  8
0
 10
113.906793
 20
327.560306
 42
0.155680
  0
VERTEX
  8
0
 10
113.297619
 20
326.437500
 42
0.043488
  0
VERTEX
  8
0
 10
113.046494
 20
323.966968
 42
0.003595
  0
SEQEND
  0
POLYLINE
  8
0
 66
1
 70
1
  0
VERTEX
  8
0
 10
183.750000
 20
326.890137
 42
0.056842
  0
VERTEX
  8
0
 10
183.080656
 20
326.403972
 42
0.051755
  0
VERTEX
  8
0
 10
182.514062
 20
325.765262
 42
0.055161
  0
VERTEX
  8
0
 10
182.127831
 20
325.078017
 42
0.100789
  0
VERTEX
  8
0
 10
182.000000
 20
324.450310
 42
-0.067183
  0
VERTEX
  8
0
 10
181.925172
 20
323.895928
 42
-0.084027
  0
VERTEX
  8
0
 10
181.706250
 20
323.426029
 42
-0.099542
  0
VERTEX
  8
0
 10
181.381342
 20
323.111783
 42
-0.143546
  0
VERTEX
  8
0
 10
181.000000
 20
323.000000
 42
0.148195
  0
VERTEX
  8
0
 10
180.618646
 20
322.884432
 42
0.098894
  0
VERTEX
  8
0
 10
180.293750
 20
322.559375
 42
0.082425
  0
VERTEX
  8
0
 10
180.074694
 20
322.073457
 42
0.064853
  0
VERTEX
  8
0
 10
180.000000
 20
321.500000
 42
0.064853
  0
VERTEX
  8
0
 10
180.074694
 20
320.926543
 42
0.082425
  0
VERTEX
  8
0
 10
180.293750
 20
320.440625
 42
0.098894
  0
VERTEX
  8
0
 10
180.618646
 20
320.115568
 42
0.148195
  0
VERTEX
  8
0
 10
181.000000
 20
320.000000
 42
-0.328537
  0
VERTEX
  8
0
 10
181.390558
 20
319.712324
 42
-0.028658
  0
VERTEX
  8
0
 10
181.706250
 20
318.443125
 42
-0.028876
  0
VERTEX
  8
0
 10
181.927832
 20
316.731627
 42
-0.017755
  0
VERTEX
  8
0
 10
182.000000
 20
314.700000
 42
0.020792
  0
VERTEX
  8
0
 10
182.088075
 20
312.582930
 42
0.024856
  0
VERTEX
  8
0
 10
182.352500
 20
310.604375
 42
0.024774
  0
VERTEX
  8
0
 10
182.734527
 20
308.988067
 42
0.126610
  0
VERTEX
  8
0
 10
183.200000
 20
308.200000
 42
0.122311
  0
VERTEX
  8
0
 10
184.742314
 20
307.271326
 42
0.087787
  0
VERTEX
  8
0
 10
186.746971
 20
307.022595
 42
0.110010
  0
VERTEX
  8
0
 10
188.386708
 20
307.477848
 42
0.276984
  0
VERTEX
  8
0
 10
189.000000
 20
308.500000
 42
0.099038
  0
VERTEX
  8
0
 10
188.885486
 20
309.072457
 42
0.097945
  0
VERTEX
  8
0
 10
188.559375
 20
309.559375
 42
0.097945
  0
VERTEX
  8
0
 10
188.072457
 20
309.885486
 42
0.099038
  0
VERTEX
  8
0
 10
187.500000
 20
310.000000
 42
-0.200296
  0
VERTEX
  8
0
 10
186.792990
 20
310.295059
 42
-0.122766
  0
VERTEX
  8
0
 10
186.325000
 20
311.083333
 42
-0.058865
  0
VERTEX
  8
0
 10
186.069243
 20
312.539511
 42
-0.014068
  0
VERTEX
  8
0
 10
186.000000
 20
315.000000
 42
-0.014068
  0
VERTEX
  8
0
 10
186.069243
 20
317.460489
 42
-0.058865
  0
VERTEX
  8
0
 10
186.325000
 20
318.916667
 42
-0.122766
  0
VERTEX
  8
0
 10
186.792990
 20
319.704941
 42
-0.200296
  0
VERTEX
  8
0
 10
187.500000
 20
320.000000
 42
0.099038
  0
VERTEX
  8
0
 10
188.072457
 20
320.114514
 42
0.097945
  0
VERTEX
  8
0
 10
188.559375
 20
320.440625
 42
0.097945
  0
VERTEX
  8
0
 10
188.885486
 20
320.927543
 42
0.099038
  0
VERTEX
  8
0
 10
189.000000
 20
321.500000
 42
0.094506
  0
VERTEX
  8
0
 10
188.890804
 20
322.072561
 42
0.096764
  0
VERTEX
  8
0
 10
188.578887
 20
322.559375
 42
0.098937
  0
VERTEX
  8
0
 10
188.113437
 20
322.885244
 42
0.103763
  0
VERTEX
  8
0
 10
187.566422
 20
323.000000
 42
-0.156540
  0
VERTEX
  8
0
 10
186.994854
 20
323.183442
 42
-0.082048
  0
VERTEX
  8
0
 10
186.461009
 20
323.716699
 42
-0.068332
  0
VERTEX
  8
0
 10
186.043936
 20
324.506665
 42
-0.055142
  0
VERTEX
  8
0
 10
185.816422
 20
325.439827
 42
0.027716
  0
VERTEX
  8
0
 10
185.581387
 20
326.700029
 42
0.181719
  0
VERTEX
  8
0
 10
185.224977
 20
327.221755
 42
0.237794
  0
VERTEX
  8
0
 10
184.676391
 20
327.301889
 42
0.048224
  0
SEQEND
  0
POLYLINE
  8
0
 66
1
 70
1
  0
VERTEX
  8
0
 10
224.000000
 20
317.500000
 42
0.003595
  0
VERTEX
  8
0
 10
224.046494
 20
311.033032
 42
0.043488
  0
VERTEX
  8
0
 10
224.297619
 20
308.562500
 42
0.155680
  0
VERTEX
  8
0
 10
224.906793
 20
307.439694
 42
0.193568
  0
VERTEX
  8
0
 10
226.000000
 20
307.000000
 42
0.080498
  0
VERTEX
  8
0
 10
226.971387
 20
307.157410
 42
0.164533
  0
VERTEX
  8
0
 10
227.579989
 20
307.617623
 42
0.117871
  0
VERTEX
  8
0
 10
227.906320
 20
308.477941
 42
0.031983
  0
VERTEX
  8
0
 10
228.000000
 20
309.940983
 42
-0.039491
  0
VERTEX
  8
0
 10
228.204219
 20
312.522560
 42
-0.327531
  0
VERTEX
  8
0
 10
228.991279
 20
313.300971
 42
-0.279597
  0
VERTEX
  8
0
 10
230.102907
 20
312.833031
 42
-0.033285
  0
VERTEX
  8
0
 10
231.585411
 20
310.471260
 42
0.035443
  0
VERTEX
  8
0
 10
232.440376
 20
309.122169
 42
0.043448
  0
VERTEX
  8
0
 10
233.426831
 20
308.003225
 42
0.049294
  0
VERTEX
  8
0
 10
234.407208
 20
307.237798
 42
0.142039
  0
VERTEX
  8
0
 10
235.227404
 20
307.000000
 42
0.098653
  0
VERTEX
  8
0
 10
236.463406
 20
307.246267
 42
0.342453
  0
VERTEX
  8
0
 10
236.840790
 20
307.909088
 42
0.090707
  0
VERTEX
  8
0
 10
236.384281
 20
309.272008
 42
0.006492
  0
VERTEX
  8
0
 10
234.402837
 20
312.756008
 42
0.000000
  0
VERTEX
  8
0
 10
231.805675
 20
317.187731
 42
0.000000
  0
VERTEX
  8
0
 10
234.589929
 20
320.093865
 42
0.000000
  0
VERTEX
  8
0
 10
237.374182
 20
323.000000
 42
0.000000
  0
VERTEX
  8
0
 10
234.770498
 20
323.000000
 42
0.072218
  0
VERTEX
  8
0
 10
233.526844
 20
322.819430
 42
0.061374
  0
VERTEX
  8
0
 10
232.309530
 20
322.288949
 42
0.055931
  0
VERTEX
  8
0
 10
231.159289
 20
321.423018
 42
0.043215
  0
VERTEX
  8
0
 10
230.115087
 20
320.250000
 42
0.000000
  0
VERTEX
  8
0
 10
228.063360
 20
317.500000
 42
0.000000
  0
VERTEX
  8
0
 10
228.031680
 20
322.750000
 42
0.010731
  0
VERTEX
  8
0
 10
227.950087
 20
325.716823
 42
0.080242
  0
VERTEX
  8
0
 10
227.658746
 20
327.089790
 42
0.188048
  0
VERTEX
  8
0
 10
227.049910
 20
327.755250
 42
0.115016
  0
VERTEX
  8
0
 10
226.000000
 20
328.000000
 42
0.193568
  0
VERTEX
  8
0
 10
224.906793
 20
327.560306
 42
0.155680
  0
VERTEX
  8
0
 10
224.297619
 20
326.437500
 42
0.043488
  0
VERTEX
  8
0
 10
224.046494
 20
323.966968
 42
0.003595
  0
SEQEND
  0
POLYLINE
  8
0
 66
1
 70
1
  0
VERTEX
  8
0
 10
132.000000
 20
321.000000
 42
0.062946
  0
VERTEX
  8
0
 10
131.126392
 20
319.873608
 42
0.053099
  0
VERTEX
  8
0
 10
130.500000
 20
318.500000
 42
0.047331
  0
VERTEX
  8
0
 10
130.124499
 20
316.875501
 42
0.033154
  0
VERTEX
  8
0
 10
130.000000
 20
315.000000
 42
0.117623
  0
VERTEX
  8
0
 10
131.029152
 20
310.685738
 42
0.148094
  0
VERTEX
  8
0
 10
133.852214
 20
307.729692
 42
0.157032
  0
VERTEX
  8
0
 10
137.705034
 20
306.937309
 42
0.135540
  0
VERTEX
  8
0
 10
141.558870
 20
308.468197
 42
0.044879
  0
VERTEX
  8
0
 10
142.639785
 20
309.449747
 42
0.505233
  0
VERTEX
  8
0
 10
142.545554
 20
309.934981
 42
0.097647
  0
VERTEX
  8
0
 10
141.500960
 20
310.200218
 42
0.003819
  0
VERTEX
  8
0
 10
137.522932
 20
310.384709
 42
-0.039917
  0
VERTEX
  8
0
 10
136.198341
 20
310.542409
 42
-0.078452
  0
VERTEX
  8
0
 10
135.205942
 20
310.910153
 42
-0.102137
  0
VERTEX
  8
0
 10
134.545215
 20
311.483864
 42
-0.114716
  0
VERTEX
  8
0
 10
134.199608
 20
312.250000
 42
-0.145864
  0
VERTEX
  8
0
 10
134.283728
 20
313.138964
 42
-0.211105
  0
VERTEX
  8
0
 10
134.841799
 20
313.680827
 42
-0.078280
  0
VERTEX
  8
0
 10
136.137982
 20
313.941314
 42
-0.010521
  0
VERTEX
  8
0
 10
138.926676
 20
314.000000
 42
0.011115
  0
VERTEX
  8
0
 10
141.809787
 20
314.064098
 42
0.084900
  0
VERTEX
  8
0
 10
143.129927
 20
314.350795
 42
0.193809
  0
VERTEX
  8
0
 10
143.768791
 20
314.965483
 42
0.105845
  0
VERTEX
  8
0
 10
144.000000
 20
316.045455
 42
0.142104
  0
VERTEX
  8
0
 10
143.360365
 20
318.250594
 42
0.063949
  0
VERTEX
  8
0
 10
141.418725
 20
320.591860
 42
0.063328
  0
VERTEX
  8
0
 10
138.909625
 20
322.399178
 42
0.125080
  0
VERTEX
  8
0
 10
136.545455
 20
323.000000
 42
0.064612
  0
VERTEX
  8
0
 10
135.424857
 20
322.854585
 42
0.039124
  0
VERTEX
  8
0
 10
134.160227
 20
322.412500
 42
0.038604
  0
VERTEX
  8
0
 10
132.952441
 20
321.765679
 42
0.054191
  0
SEQEND
  0
POLYLINE
  8
0
 66
1
 70
1
  0
VERTEX
  8
0
 10
139.755005
 20
318.250000
 42
-0.207796
  0
VERTEX
  8
0
 10
139.706329
 20
317.720188
 42
-0.159277
  0
VERTEX
  8
0
 10
139.277614
 20
317.317973
 42
-0.082003
  0
VERTEX
  8
0
 10
138.406150
 20
317.073053
 42
-0.027592
  0
VERTEX
  8
0
 10
137.083333
 20
317.000000
 42
-0.036634
  0
VERTEX
  8
0
 10
135.204450
 20
317.137848
 42
-0.161160
  0
VERTEX
  8
0
 10
134.224837
 20
317.630592
 42
-0.297863
  0
VERTEX
  8
0
 10
134.065619
 20
318.391807
 42
-0.103517
  0
VERTEX
  8
0
 10
134.708849
 20
319.375516
 42
-0.180900
  0
VERTEX
  8
0
 10
135.798664
 20
319.871993
 42
-0.072374
  0
VERTEX
  8
0
 10
137.459624
 20
319.747259
 42
-0.072697
  0
VERTEX
  8
0
 10
139.007402
 20
319.156546
 42
-0.187897
  0
SEQEND
  0
POLYLINE
  8
0
 66
1
 70
1
  0
VERTEX
  8
0
 10
147.000000
 20
314.963155
 42
0.005503
  0
VERTEX
  8
0
 10
147.052051
 20
310.234031
 42
0.054657
  0
VERTEX
  8
0
 10
147.311291
 20
308.269724
 42
0.170312
  0
VERTEX
  8
0
 10
147.907545
 20
307.355283
 42
0.165384
  0
VERTEX
  8
0
 10
148.952283
 20
307.000000
 42
0.142004
  0
VERTEX
  8
0
 10
149.982926
 20
307.298736
 42
0.166770
  0
VERTEX
  8
0
 10
150.616414
 20
308.088469
 42
0.065785
  0
VERTEX
  8
0
 10
150.972039
 20
309.723446
 42
0.008799
  0
VERTEX
  8
0
 10
151.202283
 20
313.250000
 42
-0.008641
  0
VERTEX
  8
0
 10
151.433779
 20
316.812993
 42
-0.067636
  0
VERTEX
  8
0
 10
151.791013
 20
318.431535
 42
-0.172273
  0
VERTEX
  8
0
 10
152.436302
 20
319.207843
 42
-0.134834
  0
VERTEX
  8
0
 10
153.500000
 20
319.500000
 42
-0.134834
  0
VERTEX
  8
0
 10
154.563698
 20
319.207843
 42
-0.172273
  0
VERTEX
  8
0
 10
155.208987
 20
318.431535
 42
-0.067636
  0
VERTEX
  8
0
 10
155.566221
 20
316.812993
 42
-0.008641
  0
VERTEX
  8
0
 10
155.797717
 20
313.250000
 42
0.008966
  0
VERTEX
  8
0
 10
156.026663
 20
309.761308
 42
0.063916
  0
VERTEX
  8
0
 10
156.380676
 20
308.109477
 42
0.160920
  0
VERTEX
  8
0
 10
157.002070
 20
307.305313
 42
0.149552
  0
VERTEX
  8
0
 10
158.000000
 20
307.000000
 42
0.149552
  0
VERTEX
  8
0
 10
158.997930
 20
307.305313
 42
0.160920
  0
VERTEX
  8
0
 10
159.619324
 20
308.109477
 42
0.063916
  0
VERTEX
  8
0
 10
159.973337
 20
309.761308
 42
0.008966
  0
VERTEX
  8
0
 10
160.202283
 20
313.250000
 42
-0.008641
  0
VERTEX
  8
0
 10
160.433779
 20
316.812993
 42
-0.067636
  0
VERTEX
  8
0
 10
160.791013
 20
318.431535
 42
-0.172273
  0
VERTEX
  8
0
 10
161.436302
 20
319.207843
 42
-0.134834
  0
VERTEX
  8
0
 10
162.500000
 20
319.500000
 42
-0.134834
  0
VERTEX
  8
0
 10
163.563698
 20
319.207843
 42
-0.172273
  0
VERTEX
  8
0
 10
164.208987
 20
318.431535
 42
-0.067636
  0
VERTEX
  8
0
 10
164.566221
 20
316.812993
 42
-0.008641
  0
VERTEX
  8
0
 10
164.797717
 20
313.250000
 42
0.008799
  0
VERTEX
  8
0
 10
165.027961
 20
309.723446
 42
0.065785
  0
VERTEX
  8
0
 10
165.383586
 20
308.088469
 42
0.166770
  0
VERTEX
  8
0
 10
166.017074
 20
307.298736
 42
0.142004
  0
VERTEX
  8
0
 10
167.047717
 20
307.000000
 42
0.140683
  0
VERTEX
  8
0
 10
168.079280
 20
307.296107
 42
0.181168
  0
VERTEX
  8
0
 10
168.674078
 20
308.073212
 42
0.066119
  0
VERTEX
  8
0
 10
168.942818
 20
309.709420
 42
0.007687
  0
VERTEX
  8
0
 10
169.000000
 20
313.428571
 42
0.031720
  0
VERTEX
  8
0
 10
168.691861
 20
318.280898
 42
0.112496
  0
VERTEX
  8
0
 10
167.626692
 20
321.190926
 42
0.188375
  0
VERTEX
  8
0
 10
165.768047
 20
322.527598
 42
0.122677
  0
VERTEX
  8
0
 10
163.092166
 20
322.546202
 42
-0.009806
  0
VERTEX
  8
0
 10
162.026416
 20
322.310598
 42
-0.010247
  0
VERTEX
  8
0
 10
160.967699
 20
322.120715
 42
-0.009972
  0
VERTEX
  8
0
 10
160.047569
 20
321.993835
 42
-0.043798
  0
VERTEX
  8
0
 10
159.500000
 20
321.977653
 42
-0.003814
  0
VERTEX
  8
0
 10
158.848103
 20
322.020493
 42
-0.000296
  0
VERTEX
  8
0
 10
157.104687
 20
322.149464
 42
-0.000405
  0
VERTEX
  8
0
 10
155.025195
 20
322.306227
 42
-0.000309
  0
VERTEX
  8
0
 10
152.750000
 20
322.481011
 42
0.000000
  0
VERTEX
  8
0
 10
147.000000
 20
322.926309
 42
0.000000
  0
SEQEND
  0
POLYLINE
  8
0
 66
1
 70
1
  0
VERTEX
  8
0
 10
192.441130
 20
321.519003
 42
0.020445
  0
VERTEX
  8
0
 10
191.404446
 20
320.658804
 42
0.165600
  0
VERTEX
  8
0
 10
191.107723
 20
320.127168
 42
0.249503
  0
VERTEX
  8
0
 10
191.260145
 20
319.648337
 42
0.048426
  0
VERTEX
  8
0
 10
191.991641
 20
319.060644
 42
0.055988
  0
VERTEX
  8
0
 10
192.686400
 20
318.709319
 42
0.087363
  0
VERTEX
  8
0
 10
193.344168
 20
318.588239
 42
0.100575
  0
VERTEX
  8
0
 10
193.936271
 20
318.703782
 42
0.098366
  0
VERTEX
  8
0
 10
194.441641
 20
319.041641
 42
-0.076631
  0
VERTEX
  8
0
 10
194.943256
 20
319.409250
 42
-0.038302
  0
VERTEX
  8
0
 10
195.668771
 20
319.718482
 42
-0.036880
  0
VERTEX
  8
0
 10
196.485760
 20
319.929369
 42
-0.044751
  0
VERTEX
  8
0
 10
197.273324
 20
320.000000
 42
-0.203130
  0
VERTEX
  8
0
 10
198.591076
 20
319.441610
 42
-0.289741
  0
VERTEX
  8
0
 10
198.842683
 20
318.232382
 42
-0.162626
  0
VERTEX
  8
0
 10
197.733398
 20
316.864326
 42
-0.113331
  0
VERTEX
  8
0
 10
195.845404
 20
316.193609
 42
0.088827
  0
VERTEX
  8
0
 10
193.450329
 20
315.471479
 42
0.095444
  0
VERTEX
  8
0
 10
191.522733
 20
313.974413
 42
0.108522
  0
VERTEX
  8
0
 10
190.457243
 20
312.042206
 42
0.149877
  0
VERTEX
  8
0
 10
190.476517
 20
310.073988
 42
0.153442
  0
VERTEX
  8
0
 10
191.597251
 20
308.476732
 42
0.093735
  0
VERTEX
  8
0
 10
193.670627
 20
307.429979
 42
0.089379
  0
VERTEX
  8
0
 10
196.080118
 20
307.182582
 42
0.121158
  0
VERTEX
  8
0
 10
198.150930
 20
307.862185
 42
-0.029732
  0
VERTEX
  8
0
 10
198.926931
 20
308.284909
 42
-0.090346
  0
VERTEX
  8
0
 10
199.505352
 20
308.438256
 42
-0.198015
  0
VERTEX
  8
0
 10
199.852787
 20
308.326188
 42
-0.220420
  0
VERTEX
  8
0
 10
200.000000
 20
308.008474
 42
0.173321
  0
VERTEX
  8
0
 10
200.137520
 20
307.623670
 42
0.093528
  0
VERTEX
  8
0
 10
200.527984
 20
307.296239
 42
0.073863
  0
VERTEX
  8
0
 10
201.109782
 20
307.074688
 42
0.054151
  0
VERTEX
  8
0
 10
201.797393
 20
307.000000
 42
0.167649
  0
VERTEX
  8
0
 10
202.721091
 20
307.318671
 42
0.177832
  0
VERTEX
  8
0
 10
203.224391
 20
308.131535
 42
0.059244
  0
VERTEX
  8
0
 10
203.368788
 20
309.845214
 42
0.006674
  0
VERTEX
  8
0
 10
203.182644
 20
313.750000
 42
0.012662
  0
VERTEX
  8
0
 10
202.951099
 20
316.426188
 42
0.016007
  0
VERTEX
  8
0
 10
202.595558
 20
318.884375
 42
0.014113
  0
VERTEX
  8
0
 10
202.178736
 20
320.900467
 42
0.112062
  0
VERTEX
  8
0
 10
201.762806
 20
321.750000
 42
0.173567
  0
VERTEX
  8
0
 10
200.195989
 20
322.707612
 42
0.057480
  0
VERTEX
  8
0
 10
197.471592
 20
322.953631
 42
0.056159
  0
VERTEX
  8
0
 10
194.584785
 20
322.555719
 42
0.100983
  0
SEQEND
  0
POLYLINE
  8
0
 66
1
 70
1
  0
VERTEX
  8
0
 10
199.000000
 20
312.968615
 42
-0.133522
  0
VERTEX
  8
0
 10
198.582727
 20
311.433907
 42
-0.151019
  0
VERTEX
  8
0
 10
197.458882
 20
310.407575
 42
-0.159590
  0
VERTEX
  8
0
 10
196.002038
 20
310.226297
 42
-0.151123
  0
VERTEX
  8
0
 10
194.682783
 20
310.934538
 42
-0.079083
  0
VERTEX
  8
0
 10
194.211977
 20
311.593607
 42
-0.187891
  0
VERTEX
  8
0
 10
194.158134
 20
312.183639
 42
-0.132057
  0
VERTEX
  8
0
 10
194.529238
 20
312.798484
 42
-0.032346
  0
VERTEX
  8
0
 10
195.441130
 20
313.567321
 42
-0.027422
  0
VERTEX
  8
0
 10
197.187272
 20
314.713806
 42
-0.174960
  0
VERTEX
  8
0
 10
198.213205
 20
314.900224
 42
-0.290904
  0
VERTEX
  8
0
 10
198.809251
 20
314.363745
 42
-0.068046
  0
SEQEND
  0
POLYLINE
  8
0
 66
1
 70
1
  0
VERTEX
  8
0
 10
208.750000
 20
321.919901
 42
0.150200
  0
VERTEX
  8
0
 10
207.565696
 20
320.636371
 42
0.097185
  0
VERTEX
  8
0
 10
207.055373
 20
318.664776
 42
0.095679
  0
VERTEX
  8
0
 10
207.325468
 20
316.618904
 42
0.139911
  0
VERTEX
  8
0
 10
208.345308
 20
315.128383
 42
0.059601
  0
VERTEX
  8
0
 10
209.076887
 20
314.655674
 42
0.021054
  0
VERTEX
  8
0
 10
210.222122
 20
314.154512
 42
0.020552
  0
VERTEX
  8
0
 10
211.538851
 20
313.704529
 42
0.022706
  0
VERTEX
  8
0
 10
212.845308
 20
313.380938
 42
-0.039572
  0
VERTEX
  8
0
 10
214.052805
 20
313.038292
 42
-0.052741
  0
VERTEX
  8
0
 10
215.073309
 20
312.531432
 42
-0.063931
  0
VERTEX
  8
0
 10
215.774945
 20
311.947544
 42
-0.189483
  0
VERTEX
  8
0
 10
216.000000
 20
311.375000
 42
-0.292825
  0
VERTEX
  8
0
 10
215.400585
 20
310.439259
 42
-0.096247
  0
VERTEX
  8
0
 10
213.737238
 20
310.033185
 42
-0.079572
  0
VERTEX
  8
0
 10
211.752377
 20
310.254949
 42
-0.129548
  0
VERTEX
  8
0
 10
210.296375
 20
311.103625
 42
0.085301
  0
VERTEX
  8
0
 10
209.705388
 20
311.521276
 42
0.099002
  0
VERTEX
  8
0
 10
209.038766
 20
311.689830
 42
0.087564
  0
VERTEX
  8
0
 10
208.294253
 20
311.596744
 42
0.052834
  0
VERTEX
  8
0
 10
207.474521
 20
311.245679
 42
0.038574
  0
VERTEX
  8
0
 10
206.564116
 20
310.639647
 42
0.293620
  0
VERTEX
  8
0
 10
206.402565
 20
310.175858
 42
0.169244
  0
VERTEX
  8
0
 10
206.741096
 20
309.649225
 42
0.013291
  0
VERTEX
  8
0
 10
208.100651
 20
308.642054
 42
0.085341
  0
VERTEX
  8
0
 10
210.654707
 20
307.437333
 42
0.072300
  0
VERTEX
  8
0
 10
213.619026
 20
307.061458
 42
0.076994
  0
VERTEX
  8
0
 10
216.381343
 20
307.541050
 42
0.128104
  0
VERTEX
  8
0
 10
218.345012
 20
308.828741
 42
0.105757
  0
VERTEX
  8
0
 10
219.778706
 20
311.304905
 42
0.195459
  0
VERTEX
  8
0
 10
219.614196
 20
313.587494
 42
0.153285
  0
VERTEX
  8
0
 10
217.787104
 20
315.501387
 42
0.060842
  0
VERTEX
  8
0
 10
214.379093
 20
316.873905
 42
-0.033978
  0
VERTEX
  8
0
 10
213.297776
 20
317.243385
 42
-0.038280
  0
VERTEX
  8
0
 10
212.320714
 20
317.744267
 42
-0.041664
  0
VERTEX
  8
0
 10
211.571890
 20
318.294286
 42
-0.133854
  0
VERTEX
  8
0
 10
211.231827
 20
318.804520
 42
-0.346410
  0
VERTEX
  8
0
 10
211.525618
 20
319.621529
 42
-0.140831
  0
VERTEX
  8
0
 10
212.738177
 20
319.968673
 42
-0.087716
  0
VERTEX
  8
0
 10
214.444686
 20
319.665234
 42
-0.109039
  0
VERTEX
  8
0
 10
215.800000
 20
318.800000
 42
0.051271
  0
VERTEX
  8
0
 10
216.440484
 20
318.278938
 42
0.141564
  0
VERTEX
  8
0
 10
216.990847
 20
318.109153
 42
0.146057
  0
VERTEX
  8
0
 10
217.535899
 20
318.261227
 42
0.055869
  0
VERTEX
  8
0
 10
218.157618
 20
318.757618
 42
0.350681
  0
VERTEX
  8
0
 10
218.379784
 20
320.753882
 42
0.172376
  0
VERTEX
  8
0
 10
216.239073
 20
322.434838
 42
0.094607
  0
VERTEX
  8
0
 10
212.282172
 20
322.974797
 42
0.119155
  0
SEQEND
  0
POLYLINE
  8
0
 66
1
 70
1
  0
VERTEX
  8
0
 10
217.500000
 20
302.778468
 42
0.119976
  0
VERTEX
  8
0
 10
207.519033
 20
296.245960
 42
0.143150
  0
VERTEX
  8
0
 10
202.463059
 20
286.245275
 42
0.148048
  0
VERTEX
  8
0
 10
203.668598
 20
275.354045
 42
0.130859
  0
VERTEX
  8
0
 10
210.729097
 20
266.339616
 42
0.120547
  0
VERTEX
  8
0
 10
221.356124
 20
261.768959
 42
0.107867
  0
VERTEX
  8
0
 10
233.367002
 20
262.353865
 42
0.111387
  0
VERTEX
  8
0
 10
243.745177
 20
267.828585
 42
0.135936
  0
VERTEX
  8
0
 10
249.861897
 20
276.899223
 42
0.135640
  0
VERTEX
  8
0
 10
250.380883
 20
286.600354
 42
0.124862
  0
VERTEX
  8
0
 10
245.898527
 20
295.543188
 42
0.115003
  0
VERTEX
  8
0
 10
237.314282
 20
301.785446
 42
0.103179
  0
VERTEX
  8
0
 10
226.500000
 20
303.911284
 42
0.014997
  0
VERTEX
  8
0
 10
223.982822
 20
303.806707
 42
0.013425
  0
VERTEX
  8
0
 10
221.381250
 20
303.549983
 42
0.013597
  0
VERTEX
  8
0
 10
219.057627
 20
303.193091
 42
0.040303
  0
SEQEND
  0
POLYLINE
  8
0
 66
1
 70
1
  0
VERTEX
  8
0
 10
233.277334
 20
299.939872
 42
-0.041000
  0
VERTEX
  8
0
 10
234.984386
 20
299.311268
 42
-0.021115
  0
VERTEX
  8
0
 10
237.008928
 20
298.264960
 42
-0.020839
  0
VERTEX
  8
0
 10
239.013759
 20
297.005513
 42
-0.029499
  0
VERTEX
  8
0
 10
240.676290
 20
295.711072
 42
-0.143112
  0
VERTEX
  8
0
 10
246.374280
 20
286.742034
 42
-0.166939
  0
VERTEX
  8
0
 10
245.880504
 20
276.704612
 42
-0.157531
  0
VERTEX
  8
0
 10
239.220026
 20
268.675171
 42
-0.126223
  0
VERTEX
  8
0
 10
228.482344
 20
265.179773
 42
-0.072699
  0
VERTEX
  8
0
 10
219.346843
 20
265.926460
 42
-0.109604
  0
VERTEX
  8
0
 10
212.165293
 20
269.351657
 42
-0.122298
  0
VERTEX
  8
0
 10
207.620625
 20
275.158823
 42
-0.105552
  0
VERTEX
  8
0
 10
206.000000
 20
282.750172
 42
-0.132051
  0
VERTEX
  8
0
 10
208.245710
 20
291.105100
 42
-0.121420
  0
VERTEX
  8
0
 10
214.428571
 20
297.522044
 42
-0.111304
  0
VERTEX
  8
0
 10
223.376584
 20
300.693541
 42
-0.097760
  0
SEQEND
  0
POLYLINE
  8
0
 66
1
 70
1
  0
VERTEX
  8
0
 10
111.000000
 20
284.500000
 42
0.003595
  0
VERTEX
  8
0
 10
111.046494
 20
278.033032
 42
0.043488
  0
VERTEX
  8
0
 10
111.297619
 20
275.562500
 42
0.155680
  0
VERTEX
  8
0
 10
111.906793
 20
274.439694
 42
0.193568
  0
VERTEX
  8
0
 10
113.000000
 20
274.000000
 42
0.116487
  0
VERTEX
  8
0
 10
114.052332
 20
274.248539
 42
0.189955
  0
VERTEX
  8
0
 10
114.657021
 20
274.922194
 42
0.079002
  0
VERTEX
  8
0
 10
114.937722
 20
276.318491
 42
0.010178
  0
VERTEX
  8
0
 10
115.000000
 20
279.377555
 42
-0.037587
  0
VERTEX
  8
0
 10
115.278480
 20
283.076786
 42
-0.101087
  0
VERTEX
  8
0
 10
116.183112
 20
285.541506
 42
-0.176114
  0
VERTEX
  8
0
 10
117.631172
 20
286.686118
 42
-0.173367
  0
VERTEX
  8
0
 10
119.487265
 20
286.643260
 42
-0.172570
  0
VERTEX
  8
0
 10
120.200354
 20
286.032591
 42
-0.074116
  0
VERTEX
  8
0
 10
120.663236
 20
284.849296
 42
-0.043513
  0
VERTEX
  8
0
 10
120.925297
 20
282.961652
 42
-0.012745
  0
VERTEX
  8
0
 10
121.000000
 20
280.031385
 42
0.008382
  0
VERTEX
  8
0
 10
121.058552
 20
276.538948
 42
0.071788
  0
VERTEX
  8
0
 10
121.332900
 20
275.003923
 42
0.188532
  0
VERTEX
  8
0
 10
121.938968
 20
274.273884
 42
0.126984
  0
VERTEX
  8
0
 10
123.000000
 20
274.000000
 42
0.133342
  0
VERTEX
  8
0
 10
124.065328
 20
274.289248
 42
0.186865
  0
VERTEX
  8
0
 10
124.672222
 20
275.053571
 42
0.067961
  0
VERTEX
  8
0
 10
124.943296
 20
276.672465
 42
0.007548
  0
VERTEX
  8
0
 10
125.000000
 20
280.428571
 42
0.042677
  0
VERTEX
  8
0
 10
124.536045
 20
285.854341
 42
0.147675
  0
VERTEX
  8
0
 10
122.975998
 20
288.972976
 42
0.224600
  0
VERTEX
  8
0
 10
120.420048
 20
289.969816
 42
0.105739
  0
VERTEX
  8
0
 10
116.934259
 20
288.964816
 42
-0.046393
  0
VERTEX
  8
0
 10
115.842766
 20
288.505041
 42
-0.314344
  0
VERTEX
  8
0
 10
115.313580
 20
288.670577
 42
-0.153954
  0
VERTEX
  8
0
 10
115.049319
 20
289.387857
 42
-0.011871
  0
VERTEX
  8
0
 10
115.000000
 20
291.464816
 42
0.022075
  0
VERTEX
  8
0
 10
114.918409
 20
293.311988
 42
0.107047
  0
VERTEX
  8
0
 10
114.608565
 20
294.308102
 42
0.177820
  0
VERTEX
  8
0
 10
114.004028
 20
294.821430
 42
0.088234
  0
VERTEX
  8
0
 10
113.000000
 20
295.000000
 42
0.193568
  0
VERTEX
  8
0
 10
111.906793
 20
294.560306
 42
0.155680
  0
VERTEX
  8
0
 10
111.297619
 20
293.437500
 42
0.043488
  0
VERTEX
  8
0
 10
111.046494
 20
290.966968
 42
0.003595
  0
SEQEND
  0
POLYLINE
  8
0
 66
1
 70
1
  0
VERTEX
  8
0
 10
96.072580
 20
287.365141
 42
0.130187
  0
VERTEX
  8
0
 10
94.284306
 20
283.223515
 42
0.128444
  0
VERTEX
  8
0
 10
94.767509
 20
278.716640
 42
0.139983
  0
VERTEX
  8
0
 10
97.320408
 20
275.291081
 42
0.164506
  0
VERTEX
  8
0
 10
101.138322
 20
274.000000
 42
0.050181
  0
VERTEX
  8
0
 10
103.512986
 20
274.238926
 42
0.050742
  0
VERTEX
  8
0
 10
105.783156
 20
274.946030
 42
0.056851
  0
VERTEX
  8
0
 10
107.484146
 20
275.913027
 42
0.239500
  0
VERTEX
  8
0
 10
108.000000
 20
276.928195
 42
0.242398
  0
VERTEX
  8
0
 10
107.524031
 20
277.852303
 42
0.112139
  0
VERTEX
  8
0
 10
106.242474
 20
278.388418
 42
0.088259
  0
VERTEX
  8
0
 10
104.566157
 20
278.383057
 42
0.095032
  0
VERTEX
  8
0
 10
103.041669
 20
277.793950
 42
-0.145368
  0
VERTEX
  8
0
 10
101.229969
 20
277.293458
 42
-0.170654
  0
VERTEX
  8
0
 10
99.568743
 20
277.913505
 42
-0.136375
  0
VERTEX
  8
0
 10
98.403725
 20
279.600303
 42
-0.083533
  0
VERTEX
  8
0
 10
98.000000
 20
282.000000
 42
-0.083533
  0
VERTEX
  8
0
 10
98.403725
 20
284.399697
 42
-0.136375
  0
VERTEX
  8
0
 10
99.568743
 20
286.086495
 42
-0.170654
  0
VERTEX
  8
0
 10
101.229969
 20
286.706542
 42
-0.145368
  0
VERTEX
  8
0
 10
103.041669
 20
286.206050
 42
0.054057
  0
VERTEX
  8
0
 10
103.877734
 20
285.801939
 42
0.045054
  0
VERTEX
  8
0
 10
104.833820
 20
285.555587
 42
0.046991
  0
VERTEX
  8
0
 10
105.760812
 20
285.492246
 42
0.085386
  0
VERTEX
  8
0
 10
106.503639
 20
285.639770
 42
0.044606
  0
VERTEX
  8
0
 10
107.337690
 20
286.048398
 42
0.274750
  0
VERTEX
  8
0
 10
107.553521
 20
286.453217
 42
0.159047
  0
VERTEX
  8
0
 10
107.346131
 20
287.001033
 42
0.014554
  0
VERTEX
  8
0
 10
106.388184
 20
288.123555
 42
0.125135
  0
VERTEX
  8
0
 10
104.112676
 20
289.634827
 42
0.103029
  0
VERTEX
  8
0
 10
101.214850
 20
290.019416
 42
0.099632
  0
VERTEX
  8
0
 10
98.323009
 20
289.212850
 42
0.108845
  0
SEQEND
  0
POLYLINE
  8
0
 66
1
 70
1
  0
VERTEX
  8
0
 10
132.228960
 20
289.330706
 42
0.149173
  0
VERTEX
  8
0
 10
130.630666
 20
288.041687
 42
0.055012
  0
VERTEX
  8
0
 10
129.263304
 20
285.453461
 42
0.053969
  0
VERTEX
  8
0
 10
128.444723
 20
282.475860
 42
0.094443
  0
VERTEX
  8
0
 10
128.515758
 20
279.928254
 42
0.136930
  0
VERTEX
  8
0
 10
130.408605
 20
276.365562
 42
0.138302
  0
VERTEX
  8
0
 10
133.866093
 20
274.314604
 42
0.134971
  0
VERTEX
  8
0
 10
137.953613
 20
274.346408
 42
0.128017
  0
VERTEX
  8
0
 10
141.545455
 20
276.454545
 42
0.176486
  0
VERTEX
  8
0
 10
143.827517
 20
281.352397
 42
0.180163
  0
VERTEX
  8
0
 10
142.398033
 20
286.520453
 42
0.171608
  0
VERTEX
  8
0
 10
137.849822
 20
289.662434
 42
0.163216
  0
SEQEND
  0
POLYLINE
  8
0
 66
1
 70
1
  0
VERTEX
  8
0
 10
138.800000
 20
285.800000
 42
-0.082665
  0
VERTEX
  8
0
 10
139.260669
 20
285.155329
 42
-0.037420
  0
VERTEX
  8
0
 10
139.647500
 20
284.188750
 42
-0.035729
  0
VERTEX
  8
0
 10
139.911486
 20
283.083486
 42
-0.040779
  0
VERTEX
  8
0
 10
140.000000
 20
282.000000
 42
-0.123919
  0
VERTEX
  8
0
 10
139.229051
 20
278.937083
 42
-0.187827
  0
VERTEX
  8
0
 10
137.163619
 20
277.175014
 42
-0.219137
  0
VERTEX
  8
0
 10
134.705434
 20
277.412913
 42
-0.155059
  0
VERTEX
  8
0
 10
132.818046
 20
279.500000
 42
-0.137080
  0
VERTEX
  8
0
 10
132.289690
 20
282.879969
 42
-0.161921
  0
VERTEX
  8
0
 10
133.657511
 20
285.797109
 42
-0.206829
  0
VERTEX
  8
0
 10
136.201961
 20
286.883039
 42
-0.197736
  0
SEQEND
  0
POLYLINE
  8
0
 66
1
 70
1
  0
VERTEX
  8
0
 10
157.080370
 20
288.250000
 42
0.069823
  0
VERTEX
  8
0
 10
156.216920
 20
287.316014
 42
0.035186
  0
VERTEX
  8
0
 10
155.395275
 20
285.934081
 42
0.034099
  0
VERTEX
  8
0
 10
154.733428
 20
284.359437
 42
0.042776
  0
VERTEX
  8
0
 10
154.350665
 20
282.823466
 42
0.031706
  0
VERTEX
  8
0
 10
154.156168
 20
280.789494
 42
0.085070
  0
VERTEX
  8
0
 10
154.355245
 20
279.353833
 42
0.086349
  0
VERTEX
  8
0
 10
155.018657
 20
278.078881
 42
0.033347
  0
VERTEX
  8
0
 10
156.335625
 20
276.573466
 42
0.074157
  0
VERTEX
  8
0
 10
158.538068
 20
274.942688
 42
0.085656
  0
VERTEX
  8
0
 10
161.016011
 20
274.125877
 42
0.085711
  0
VERTEX
  8
0
 10
163.623105
 20
274.187108
 42
0.074365
  0
VERTEX
  8
0
 10
166.200841
 20
275.107487
 42
0.022656
  0
VERTEX
  8
0
 10
167.225927
 20
275.717365
 42
0.163658
  0
VERTEX
  8
0
 10
167.575076
 20
276.163218
 42
0.282091
  0
VERTEX
  8
0
 10
167.485154
 20
276.585149
 42
0.064426
  0
VERTEX
  8
0
 10
166.893407
 20
277.065878
 42
0.080631
  0
VERTEX
  8
0
 10
166.203249
 20
277.351720
 42
0.038748
  0
VERTEX
  8
0
 10
165.253855
 20
277.499374
 42
0.037113
  0
VERTEX
  8
0
 10
164.216056
 20
277.502114
 42
0.043616
  0
VERTEX
  8
0
 10
163.245322
 20
277.346724
 42
-0.103392
  0
VERTEX
  8
0
 10
161.545546
 20
277.278949
 42
-0.080301
  0
VERTEX
  8
0
 10
159.788060
 20
277.873987
 42
-0.088967
  0
VERTEX
  8
0
 10
158.461881
 20
278.912165
 42
-0.184332
  0
VERTEX
  8
0
 10
158.000000
 20
280.122445
 42
-0.335628
  0
VERTEX
  8
0
 10
158.259887
 20
280.465997
 42
-0.025455
  0
VERTEX
  8
0
 10
159.468750
 20
280.742218
 42
-0.026936
  0
VERTEX
  8
0
 10
161.083289
 20
280.936704
 42
-0.016507
  0
VERTEX
  8
0
 10
163.000000
 20
281.000000
 42
0.010324
  0
VERTEX
  8
0
 10
166.039690
 20
281.062770
 42
0.105983
  0
VERTEX
  8
0
 10
167.250000
 20
281.375000
 42
0.217022
  0
VERTEX
  8
0
 10
167.819917
 20
282.080151
 42
0.063163
  0
VERTEX
  8
0
 10
168.000000
 20
283.500000
 42
0.148562
  0
VERTEX
  8
0
 10
166.958064
 20
286.929336
 42
0.143614
  0
VERTEX
  8
0
 10
164.172984
 20
289.254234
 42
0.138994
  0
VERTEX
  8
0
 10
160.497397
 20
289.750062
 42
0.136608
  0
SEQEND
  0
POLYLINE
  8
0
 66
1
 70
1
  0
VERTEX
  8
0
 10
163.755005
 20
285.250000
 42
-0.206257
  0
VERTEX
  8
0
 10
163.707973
 20
284.720948
 42
-0.159623
  0
VERTEX
  8
0
 10
163.283661
 20
284.318672
 42
-0.082695
  0
VERTEX
  8
0
 10
162.421229
 20
284.073332
 42
-0.028042
  0
VERTEX
  8
0
 10
161.114718
 20
284.000000
 42
-0.022193
  0
VERTEX
  8
0
 10
159.606789
 20
284.066963
 42
-0.119324
  0
VERTEX
  8
0
 10
158.834190
 20
284.328391
 42
-0.238991
  0
VERTEX
  8
0
 10
158.547172
 20
284.809596
 42
-0.109190
  0
VERTEX
  8
0
 10
158.658662
 20
285.552872
 42
-0.207252
  0
VERTEX
  8
0
 10
159.589347
 20
286.502878
 42
-0.112044
  0
VERTEX
  8
0
 10
161.233834
 20
286.774675
 42
-0.109209
  0
VERTEX
  8
0
 10
162.866689
 20
286.310588
 42
-0.191849
  0
SEQEND
  0
POLYLINE
  8
0
 66
1
 70
1
  0
VERTEX
  8
0
 10
171.000000
 20
281.884615
 42
0.005471
  0
VERTEX
  8
0
 10
171.051695
 20
277.160263
 42
0.056694
  0
VERTEX
  8
0
 10
171.313415
 20
275.235577
 42
0.177544
  0
VERTEX
  8
0
 10
171.922598
 20
274.344839
 42
0.156132
  0
VERTEX
  8
0
 10
173.000000
 20
274.000000
 42
0.115245
  0
VERTEX
  8
0
 10
174.051125
 20
274.245536
 42
0.189988
  0
VERTEX
  8
0
 10
174.655660
 20
274.912500
 42
0.079942
  0
VERTEX
  8
0
 10
174.937210
 20
276.292271
 42
0.010437
  0
VERTEX
  8
0
 10
175.000000
 20
279.300000
 42
-0.030663
  0
VERTEX
  8
0
 10
175.211952
 20
282.752946
 42
-0.081512
  0
VERTEX
  8
0
 10
175.905100
 20
285.116413
 42
-0.129564
  0
VERTEX
  8
0
 10
177.076260
 20
286.491067
 42
-0.153046
  0
VERTEX
  8
0
 10
178.700000
 20
287.000000
 42
-0.280336
  0
VERTEX
  8
0
 10
179.302273
 20
286.633522
 42
-0.070145
  0
VERTEX
  8
0
 10
179.700000
 20
285.500000
 42
-0.038618
  0
VERTEX
  8
0
 10
179.934174
 20
283.561159
 42
-0.010751
  0
VERTEX
  8
0
 10
180.000000
 20
280.500000
 42
0.007414
  0
VERTEX
  8
0
 10
180.056399
 20
276.696451
 42
0.067313
  0
VERTEX
  8
0
 10
180.326923
 20
275.062500
 42
0.186514
  0
VERTEX
  8
0
 10
180.933960
 20
274.292005
 42
0.134481
  0
VERTEX
  8
0
 10
182.000000
 20
274.000000
 42
0.116487
  0
VERTEX
  8
0
 10
183.052332
 20
274.248539
 42
0.189955
  0
VERTEX
  8
0
 10
183.657021
 20
274.922194
 42
0.079002
  0
VERTEX
  8
0
 10
183.937722
 20
276.318491
 42
0.010178
  0
VERTEX
  8
0
 10
184.000000
 20
279.377555
 42
-0.018969
  0
VERTEX
  8
0
 10
184.090765
 20
281.769114
 42
-0.035448
  0
VERTEX
  8
0
 10
184.373882
 20
283.684703
 42
-0.044771
  0
VERTEX
  8
0
 10
184.827134
 20
285.114005
 42
-0.120961
  0
VERTEX
  8
0
 10
185.456195
 20
285.963645
 42
-0.147419
  0
VERTEX
  8
0
 10
187.007217
 20
286.619397
 42
-0.294661
  0
VERTEX
  8
0
 10
188.148853
 20
286.045449
 42
-0.111445
  0
VERTEX
  8
0
 10
188.824295
 20
283.935985
 42
-0.021980
  0
VERTEX
  8
0
 10
189.000000
 20
279.940983
 42
0.008595
  0
VERTEX
  8
0
 10
189.059012
 20
276.508521
 42
0.072714
  0
VERTEX
  8
0
 10
189.334161
 20
274.992623
 42
0.188835
  0
VERTEX
  8
0
 10
189.940036
 20
274.270381
 42
0.125533
  0
VERTEX
  8
0
 10
191.000000
 20
274.000000
 42
0.139247
  0
VERTEX
  8
0
 10
192.068862
 20
274.303558
 42
0.184893
  0
VERTEX
  8
0
 10
192.676471
 20
275.100000
 42
0.064709
  0
VERTEX
  8
0
 10
192.944805
 20
276.797114
 42
0.006894
  0
VERTEX
  8
0
 10
193.000000
 20
280.800000
 42
0.014970
  0
VERTEX
  8
0
 10
192.916423
 20
283.590792
 42
0.022257
  0
VERTEX
  8
0
 10
192.661765
 20
286.021569
 42
0.022380
  0
VERTEX
  8
0
 10
192.286828
 20
287.933531
 42
0.137609
  0
VERTEX
  8
0
 10
191.800000
 20
288.800000
 42
0.118972
  0
VERTEX
  8
0
 10
190.400810
 20
289.655095
 42
0.076467
  0
VERTEX
  8
0
 10
188.513845
 20
289.957870
 42
0.076747
  0
VERTEX
  8
0
 10
186.630571
 20
289.679535
 42
0.121968
  0
VERTEX
  8
0
 10
185.242382
 20
288.842382
 42
-0.064268
  0
VERTEX
  8
0
 10
184.638446
 20
288.376523
 42
-0.122156
  0
VERTEX
  8
0
 10
184.053077
 20
288.204661
 42
-0.120570
  0
VERTEX
  8
0
 10
183.449960
 20
288.325362
 42
-0.061685
  0
VERTEX
  8
0
 10
182.792382
 20
288.738284
 42
0.110782
  0
VERTEX
  8
0
 10
181.975016
 20
289.146574
 42
0.021159
  0
VERTEX
  8
0
 10
180.337450
 20
289.479017
 42
0.021624
  0
VERTEX
  8
0
 10
178.354708
 20
289.707513
 42
0.018413
  0
VERTEX
  8
0
 10
176.250000
 20
289.780518
 42
0.000000
  0
VERTEX
  8
0
 10
171.000000
 20
289.769231
 42
0.000000
  0
SEQEND
  0
POLYLINE
  8
0
 66
1
 70
1
  0
VERTEX
  8
0
 10
71.000000
 20
151.500000
 42
0.000000
  0
VERTEX
  8
0
 10
71.000000
 20
46.000000
 42
0.000000
  0
VERTEX
  8
0
 10
175.500000
 20
46.000000
 42
0.000000
  0
VERTEX
  8
0
 10
280.000000
 20
46.000000
 42
0.000000
  0
VERTEX
  8
0
 10
280.000000
 20
151.500000
 42
0.000000
  0
VERTEX
  8
0
 10
280.000000
 20
257.000000
 42
0.000000
  0
VERTEX
  8
0
 10
175.500000
 20
257.000000
 42
0.000000
  0
VERTEX
  8
0
 10
71.000000
 20
257.000000
 42
0.000000
  0
SEQEND
  0
POLYLINE
  8
0
 66
1
 70
1
  0
VERTEX
  8
0
 10
245.663069
 20
250.386765
 42
-0.118112
  0
VERTEX
  8
0
 10
248.724928
 20
249.182122
 42
-0.037283
  0
VERTEX
  8
0
 10
252.559490
 20
246.052609
 42
-0.037278
  0
VERTEX
  8
0
 10
256.161003
 20
242.086389
 42
-0.054969
  0
VERTEX
  8
0
 10
258.628806
 20
238.087318
 42
-0.038908
  0
VERTEX
  8
0
 10
259.446990
 20
235.948012
 42
-0.062420
  0
VERTEX
  8
0
 10
259.763347
 20
234.022379
 42
-0.042741
  0
VERTEX
  8
0
 10
259.649297
 20
231.611714
 42
-0.009789
  0
VERTEX
  8
0
 10
259.030030
 20
227.576656
 42
-0.012505
  0
VERTEX
  8
0
 10
258.457421
 20
224.705752
 42
-0.013374
  0
VERTEX
  8
0
 10
257.753033
 20
221.931224
 42
-0.013023
  0
VERTEX
  8
0
 10
257.023536
 20
219.584722
 42
-0.059177
  0
VERTEX
  8
0
 10
256.407679
 20
218.295596
 42
0.046478
  0
VERTEX
  8
0
 10
255.730605
 20
216.965992
 42
0.119518
  0
VERTEX
  8
0
 10
255.580885
 20
215.905156
 42
0.089440
  0
VERTEX
  8
0
 10
255.919584
 20
214.709787
 42
0.018996
  0
VERTEX
  8
0
 10
256.946743
 20
212.795596
 42
-0.041601
  0
VERTEX
  8
0
 10
261.625460
 20
203.043569
 42
-0.031492
  0
VERTEX
  8
0
 10
265.148845
 20
191.702210
 42
-0.028153
  0
VERTEX
  8
0
 10
267.538340
 20
178.715431
 42
-0.020161
  0
VERTEX
  8
0
 10
268.797383
 20
164.000000
 42
-0.003730
  0
VERTEX
  8
0
 10
269.457181
 20
146.448751
 42
-0.017448
  0
VERTEX
  8
0
 10
269.408892
 20
136.337923
 42
-0.030298
  0
VERTEX
  8
0
 10
268.749319
 20
129.780413
 42
-0.081783
  0
VERTEX
  8
0
 10
267.263710
 20
125.357166
 42
-0.073668
  0
VERTEX
  8
0
 10
263.127300
 20
119.734895
 42
-0.051084
  0
VERTEX
  8
0
 10
257.018777
 20
114.720464
 42
-0.048735
  0
VERTEX
  8
0
 10
249.664419
 20
110.817752
 42
-0.051305
  0
VERTEX
  8
0
 10
241.818253
 20
108.493727
 42
0.000000
  0
VERTEX
  8
0
 10
238.301172
 20
107.833918
 42
0.000000
  0
VERTEX
  8
0
 10
239.579526
 20
102.334619
 42
-0.017464
  0
VERTEX
  8
0
 10
241.187512
 20
94.127571
 42
-0.008887
  0
VERTEX
  8
0
 10
242.662952
 20
83.716383
 42
-0.008015
  0
VERTEX
  8
0
 10
243.732035
 20
73.760938
 42
-0.037480
  0
VERTEX
  8
0
 10
243.824344
 20
68.000000
 42
0.000000
  0
VERTEX
  8
0
 10
243.500000
 20
62.500000
 42
0.000000
  0
VERTEX
  8
0
 10
180.111509
 20
62.242493
 42
-0.000904
  0
VERTEX
  8
0
 10
149.407373
 20
62.173301
 42
-0.003583
  0
VERTEX
  8
0
 10
130.534247
 20
62.300139
 42
-0.001490
  0
VERTEX
  8
0
 10
116.976673
 20
62.528810
 42
-0.169825
  0
VERTEX
  8
0
 10
115.328778
 20
63.142101
 42
-0.210663
  0
VERTEX
  8
0
 10
114.421473
 20
64.960482
 42
-0.029280
  0
VERTEX
  8
0
 10
114.468836
 20
69.274452
 42
-0.018714
  0
VERTEX
  8
0
 10
115.215250
 20
76.227172
 42
-0.003788
  0
VERTEX
  8
0
 10
117.094542
 20
88.500000
 42
0.000489
  0
VERTEX
  8
0
 10
117.851340
 20
93.233399
 42
0.000655
  0
VERTEX
  8
0
 10
118.527808
 20
97.527408
 42
0.000452
  0
VERTEX
  8
0
 10
119.087352
 20
101.131113
 42
0.006890
  0
VERTEX
  8
0
 10
119.262602
 20
102.380538
 42
0.150347
  0
VERTEX
  8
0
 10
119.088173
 20
103.379410
 42
0.114562
  0
VERTEX
  8
0
 10
118.369307
 20
104.233798
 42
0.062045
  0
VERTEX
  8
0
 10
116.929680
 20
105.056674
 42
0.015863
  0
VERTEX
  8
0
 10
114.415951
 20
106.013233
 42
-0.064990
  0
VERTEX
  8
0
 10
104.154083
 20
111.119058
 42
-0.087256
  0
VERTEX
  8
0
 10
96.679704
 20
118.302582
 42
-0.081049
  0
VERTEX
  8
0
 10
91.741288
 20
128.038451
 42
-0.048437
  0
VERTEX
  8
0
 10
89.017535
 20
140.762576
 42
-0.023217
  0
VERTEX
  8
0
 10
87.964274
 20
156.306623
 42
-0.026345
  0
VERTEX
  8
0
 10
88.433859
 20
171.234454
 42
-0.027324
  0
VERTEX
  8
0
 10
90.428961
 20
185.520308
 42
-0.029445
  0
VERTEX
  8
0
 10
93.940415
 20
199.143484
 42
0.000000
  0
VERTEX
  8
0
 10
96.858504
 20
208.217642
 42
0.000000
  0
VERTEX
  8
0
 10
94.438632
 20
210.358821
 42
-0.072905
  0
VERTEX
  8
0
 10
93.165848
 20
211.867253
 42
-0.055056
  0
VERTEX
  8
0
 10
92.230830
 20
213.826253
 42
-0.035123
  0
VERTEX
  8
0
 10
91.456310
 20
216.679096
 42
-0.009871
  0
VERTEX
  8
0
 10
90.651764
 20
221.225717
 42
-0.007344
  0
VERTEX
  8
0
 10
90.171854
 20
224.613746
 42
-0.011211
  0
VERTEX
  8
0
 10
89.864811
 20
227.566743
 42
-0.005949
  0
VERTEX
  8
0
 10
89.693401
 20
230.036762
 42
-0.213870
  0
VERTEX
  8
0
 10
89.892384
 20
230.559051
 42
0.060142
  0
VERTEX
  8
0
 10
90.125087
 20
230.855651
 42
0.039059
  0
VERTEX
  8
0
 10
90.321513
 20
231.245193
 42
0.038968
  0
VERTEX
  8
0
 10
90.455557
 20
231.662120
 42
0.058358
  0
VERTEX
  8
0
 10
90.500000
 20
232.041605
 42
-0.134072
  0
VERTEX
  8
0
 10
90.652391
 20
232.599709
 42
-0.006293
  0
VERTEX
  8
0
 10
91.675000
 20
234.283865
 42
-0.010003
  0
VERTEX
  8
0
 10
92.967521
 20
236.264088
 42
-0.006989
  0
VERTEX
  8
0
 10
94.500000
 20
238.446195
 42
-0.045242
  0
VERTEX
  8
0
 10
98.188055
 20
242.679586
 42
-0.083154
  0
VERTEX
  8
0
 10
101.956308
 20
245.245344
 42
-0.075814
  0
VERTEX
  8
0
 10
106.595088
 20
246.581848
 42
-0.032306
  0
VERTEX
  8
0
 10
113.060075
 20
247.000000
 42
-0.035017
  0
VERTEX
  8
0
 10
118.115468
 20
246.645521
 42
-0.046557
  0
VERTEX
  8
0
 10
122.595984
 20
245.581984
 42
-0.053203
  0
VERTEX
  8
0
 10
126.261411
 20
243.890240
 42
-0.085043
  0
VERTEX
  8
0
 10
128.873684
 20
241.652201
 42
0.135548
  0
VERTEX
  8
0
 10
129.811883
 20
240.998402
 42
0.131236
  0
VERTEX
  8
0
 10
130.965050
 20
240.908057
 42
0.055092
  0
VERTEX
  8
0
 10
132.758406
 20
241.448822
 42
0.007687
  0
VERTEX
  8
0
 10
136.306787
 20
243.026265
 42
-0.027407
  0
VERTEX
  8
0
 10
144.949423
 20
246.467113
 42
-0.033383
  0
VERTEX
  8
0
 10
153.370505
 20
248.683391
 42
-0.027850
  0
VERTEX
  8
0
 10
163.157672
 20
250.011942
 42
-0.012210
  0
VERTEX
  8
0
 10
176.229419
 20
250.729205
 42
-0.008748
  0
VERTEX
  8
0
 10
188.659683
 20
250.889598
 42
-0.025718
  0
VERTEX
  8
0
 10
197.199647
 20
250.410709
 42
-0.032029
  0
VERTEX
  8
0
 10
204.552783
 20
249.137299
 42
-0.021165
  0
VERTEX
  8
0
 10
212.801735
 20
246.784585
 42
0.000000
  0
VERTEX
  8
0
 10
219.103470
 20
244.695140
 42
0.000000
  0
VERTEX
  8
0
 10
222.801735
 20
248.253947
 42
-0.033553
  0
VERTEX
  8
0
 10
225.831666
 20
250.801382
 42
-0.097039
  0
VERTEX
  8
0
 10
228.302095
 20
251.960042
 42
-0.079008
  0
VERTEX
  8
0
 10
231.314260
 20
252.223944
 42
-0.017406
  0
VERTEX
  8
0
 10
236.491278
 20
251.677785
 42
0.000010
  0
VERTEX
  8
0
 10
239.023709
 20
251.321178
 42
0.000009
  0
VERTEX
  8
0
 10
241.664089
 20
250.949472
 42
0.000009
  0
VERTEX
  8
0
 10
244.044311
 20
250.614475
 42
0.000027
  0
SEQEND
  0
POLYLINE
  8
0
 66
1
 70
1
  0
VERTEX
  8
0
 10
215.666667
 20
288.333333
 42
0.171909
  0
VERTEX
  8
0
 10
214.999733
 20
286.934538
 42
0.061537
  0
VERTEX
  8
0
 10
215.041204
 20
284.693067
 42
0.062177
  0
VERTEX
  8
0
 10
215.617132
 20
282.576000
 42
0.206508
  0
VERTEX
  8
0
 10
216.626748
 20
281.589736
 42
0.140935
  0
VERTEX
  8
0
 10
218.104793
 20
281.461742
 42
0.114885
  0
VERTEX
  8
0
 10
219.559134
 20
282.115422
 42
0.110083
  0
VERTEX
  8
0
 10
220.620317
 20
283.374450
 42
0.120846
  0
VERTEX
  8
0
 10
221.000000
 20
284.922445
 42
0.132383
  0
VERTEX
  8
0
 10
220.470242
 20
286.888237
 42
0.119397
  0
VERTEX
  8
0
 10
219.009442
 20
288.412506
 42
0.139918
  0
VERTEX
  8
0
 10
217.196416
 20
288.955425
 42
0.202274
  0
SEQEND
  0
POLYLINE
  8
0
 66
1
 70
1
  0
VERTEX
  8
0
 10
233.666667
 20
288.333333
 42
0.164956
  0
VERTEX
  8
0
 10
233.058466
 20
287.100901
 42
0.065667
  0
VERTEX
  8
0
 10
233.057858
 20
285.191172
 42
0.064184
  0
VERTEX
  8
0
 10
233.565808
 20
283.274182
 42
0.123334
  0
VERTEX
  8
0
 10
234.500000
 20
282.000000
 42
0.238536
  0
VERTEX
  8
0
 10
236.564924
 20
281.528686
 42
0.205208
  0
VERTEX
  8
0
 10
238.356552
 20
282.887056
 42
0.156428
  0
VERTEX
  8
0
 10
238.902094
 20
285.485465
 42
0.172173
  0
VERTEX
  8
0
 10
237.800000
 20
287.800000
 42
0.071876
  0
VERTEX
  8
0
 10
236.755944
 20
288.580423
 42
0.092781
  0
VERTEX
  8
0
 10
235.619528
 20
288.948658
 42
0.106037
  0
VERTEX
  8
0
 10
234.544400
 20
288.859260
 42
0.123409
  0
SEQEND
  0
POLYLINE
  8
0
 66
1
 70
1
  0
VERTEX
  8
0
 10
215.000000
 20
276.174314
 42
0.193882
  0
VERTEX
  8
0
 10
215.507065
 20
274.915804
 42
0.028594
  0
VERTEX
  8
0
 10
217.559508
 20
273.012937
 42
0.032407
  0
VERTEX
  8
0
 10
220.065081
 20
271.202786
 42
0.049693
  0
VERTEX
  8
0
 10
222.460967
 20
270.011154
 42
0.039438
  0
VERTEX
  8
0
 10
223.780500
 20
269.626857
 42
0.028423
  0
VERTEX
  8
0
 10
225.297991
 20
269.401028
 42
0.028900
  0
VERTEX
  8
0
 10
226.775066
 20
269.352088
 42
0.053828
  0
VERTEX
  8
0
 10
227.960967
 20
269.509803
 42
0.058782
  0
VERTEX
  8
0
 10
230.698153
 20
270.531335
 42
0.032501
  0
VERTEX
  8
0
 10
233.763697
 20
272.367257
 42
0.027683
  0
VERTEX
  8
0
 10
236.367703
 20
274.387962
 42
0.215769
  0
VERTEX
  8
0
 10
236.993167
 20
275.750000
 42
0.231048
  0
VERTEX
  8
0
 10
236.567297
 20
276.634641
 42
0.207165
  0
VERTEX
  8
0
 10
235.576564
 20
276.897624
 42
0.094173
  0
VERTEX
  8
0
 10
233.981690
 20
276.339046
 42
0.034795
  0
VERTEX
  8
0
 10
232.000000
 20
275.000000
 42
-0.086068
  0
VERTEX
  8
0
 10
229.371708
 20
273.591047
 42
-0.080265
  0
VERTEX
  8
0
 10
226.356802
 20
273.103925
 42
-0.080371
  0
VERTEX
  8
0
 10
223.345405
 20
273.591127
 42
-0.086647
  0
VERTEX
  8
0
 10
220.727129
 20
275.000000
 42
0.047471
  0
VERTEX
  8
0
 10
218.800452
 20
276.239417
 42
0.068741
  0
VERTEX
  8
0
 10
216.894917
 20
276.912419
 42
0.116371
  0
VERTEX
  8
0
 10
215.535996
 20
276.872374
 42
0.339633
  0
SEQEND
  0
POLYLINE
  8
0
 66
1
 70
1
  0
VERTEX
  8
0
 10
231.500000
 20
248.071287
 42
0.029742
  0
VERTEX
  8
0
 10
228.836547
 20
247.258262
 42
0.026871
  0
VERTEX
  8
0
 10
226.193797
 20
246.111324
 42
0.027476
  0
VERTEX
  8
0
 10
223.757179
 20
244.722246
 42
0.036164
  0
VERTEX
  8
0
 10
221.713760
 20
243.183717
 42
-0.054417
  0
VERTEX
  8
0
 10
220.647021
 20
242.439839
 42
-0.105135
  0
VERTEX
  8
0
 10
219.654570
 20
242.142911
 42
-0.082389
  0
VERTEX
  8
0
 10
218.468239
 20
242.241837
 42
-0.024175
  0
VERTEX
  8
0
 10
216.713760
 20
242.776770
 42
0.024823
  0
VERTEX
  8
0
 10
208.845440
 20
245.164669
 42
0.024546
  0
VERTEX
  8
0
 10
200.749812
 20
246.771480
 42
0.022253
  0
VERTEX
  8
0
 10
191.842291
 20
247.686379
 42
0.014473
  0
VERTEX
  8
0
 10
181.500000
 20
247.985440
 42
0.006052
  0
VERTEX
  8
0
 10
175.280467
 20
247.909932
 42
0.005858
  0
VERTEX
  8
0
 10
168.996875
 20
247.683878
 42
0.005800
  0
VERTEX
  8
0
 10
163.472910
 20
247.356057
 42
0.021396
  0
VERTEX
  8
0
 10
160.000000
 20
246.959617
 42
0.023788
  0
VERTEX
  8
0
 10
153.441345
 20
245.602690
 42
0.014015
  0
VERTEX
  8
0
 10
145.747050
 20
243.393432
 42
0.013933
  0
VERTEX
  8
0
 10
138.447801
 20
240.848328
 42
0.033861
  0
VERTEX
  8
0
 10
133.269017
 20
238.466599
 42
0.000000
  0
VERTEX
  8
0
 10
129.038035
 20
236.162051
 42
0.000000
  0
VERTEX
  8
0
 10
125.928404
 20
239.066881
 42
0.064461
  0
VERTEX
  8
0
 10
122.684065
 20
241.395881
 42
0.055211
  0
VERTEX
  8
0
 10
118.781673
 20
242.970686
 42
0.053209
  0
VERTEX
  8
0
 10
114.483558
 20
243.694926
 42
0.051173
  0
VERTEX
  8
0
 10
110.071102
 20
243.511079
 42
0.052030
  0
VERTEX
  8
0
 10
106.052733
 20
242.494153
 42
0.054676
  0
VERTEX
  8
0
 10
102.401975
 20
240.680501
 42
0.053142
  0
VERTEX
  8
0
 10
99.145610
 20
238.066001
 42
0.044629
  0
VERTEX
  8
0
 10
96.296272
 20
234.675687
 42
0.031866
  0
VERTEX
  8
0
 10
94.919867
 20
232.410463
 42
0.056404
  0
VERTEX
  8
0
 10
94.131007
 20
230.374239
 42
0.047579
  0
VERTEX
  8
0
 10
93.741113
 20
227.986092
 42
0.016688
  0
VERTEX
  8
0
 10
93.625000
 20
224.508214
 42
0.017329
  0
VERTEX
  8
0
 10
93.745637
 20
221.028484
 42
0.046541
  0
VERTEX
  8
0
 10
94.145616
 20
218.586075
 42
0.053284
  0
VERTEX
  8
0
 10
94.952567
 20
216.453899
 42
0.029092
  0
VERTEX
  8
0
 10
96.359357
 20
214.033161
 42
0.016322
  0
VERTEX
  8
0
 10
97.510501
 20
212.411282
 42
0.019144
  0
VERTEX
  8
0
 10
98.708167
 20
210.954737
 42
0.018398
  0
VERTEX
  8
0
 10
99.801346
 20
209.812021
 42
0.101433
  0
VERTEX
  8
0
 10
100.515571
 20
209.355651
 42
-0.198237
  0
VERTEX
  8
0
 10
101.081378
 20
208.820236
 42
-0.153979
  0
VERTEX
  8
0
 10
101.180434
 20
207.970351
 42
-0.059882
  0
VERTEX
  8
0
 10
100.725610
 20
206.546316
 42
-0.010064
  0
VERTEX
  8
0
 10
99.480988
 20
203.962482
 42
0.019390
  0
VERTEX
  8
0
 10
98.350272
 20
201.498633
 42
0.007197
  0
VERTEX
  8
0
 10
96.945577
 20
197.951706
 42
0.007119
  0
VERTEX
  8
0
 10
95.522689
 20
194.034831
 42
0.008532
  0
VERTEX
  8
0
 10
94.299271
 20
190.307465
 42
0.018181
  0
VERTEX
  8
0
 10
92.719697
 20
184.457523
 42
0.034727
  0
VERTEX
  8
0
 10
91.954407
 20
179.652510
 42
0.019553
  0
VERTEX
  8
0
 10
91.638962
 20
173.274138
 42
0.002478
  0
VERTEX
  8
0
 10
91.565163
 20
159.500000
 42
0.003016
  0
VERTEX
  8
0
 10
91.631225
 20
147.765373
 42
0.012490
  0
VERTEX
  8
0
 10
91.890885
 20
140.681647
 42
0.020602
  0
VERTEX
  8
0
 10
92.396247
 20
135.783737
 42
0.037936
  0
VERTEX
  8
0
 10
93.269456
 20
131.876056
 42
0.058193
  0
VERTEX
  8
0
 10
96.859035
 20
123.660720
 42
0.066000
  0
VERTEX
  8
0
 10
102.126924
 20
116.873129
 42
0.066015
  0
VERTEX
  8
0
 10
108.980384
 20
111.693872
 42
0.058259
  0
VERTEX
  8
0
 10
117.237663
 20
108.213229
 42
-0.009223
  0
VERTEX
  8
0
 10
120.747988
 20
107.123579
 42
-0.084869
  0
VERTEX
  8
0
 10
122.150756
 20
106.377589
 42
-0.190712
  0
VERTEX
  8
0
 10
122.702063
 20
105.449057
 42
-0.084590
  0
VERTEX
  8
0
 10
122.687760
 20
104.000000
 42
0.002659
  0
VERTEX
  8
0
 10
119.188121
 20
84.011984
 42
0.014080
  0
VERTEX
  8
0
 10
117.638799
 20
73.006136
 42
0.017828
  0
VERTEX
  8
0
 10
117.123229
 20
66.239258
 42
0.426094
  0
VERTEX
  8
0
 10
118.313417
 20
65.000000
 42
0.178713
  0
VERTEX
  8
0
 10
119.483864
 20
65.432151
 42
0.118175
  0
VERTEX
  8
0
 10
120.335137
 20
66.604238
 42
0.071459
  0
VERTEX
  8
0
 10
120.844770
 20
68.598313
 42
0.026892
  0
VERTEX
  8
0
 10
121.000000
 20
71.482415
 42
-0.037167
  0
VERTEX
  8
0
 10
121.311566
 20
75.668084
 42
-0.003413
  0
VERTEX
  8
0
 10
122.925577
 20
85.968876
 42
-0.004366
  0
VERTEX
  8
0
 10
124.689340
 20
96.183670
 42
-0.020743
  0
VERTEX
  8
0
 10
125.990362
 20
101.969252
 42
0.000000
  0
VERTEX
  8
0
 10
126.939734
 20
105.500000
 42
0.000000
  0
VERTEX
  8
0
 10
132.469867
 20
105.157450
 42
0.008696
  0
VERTEX
  8
0
 10
135.685596
 20
105.014345
 42
0.077631
  0
VERTEX
  8
0
 10
137.084808
 20
105.194242
 42
0.205508
  0
VERTEX
  8
0
 10
137.751344
 20
105.742334
 42
0.119877
  0
VERTEX
  8
0
 10
138.000000
 20
106.764557
 42
0.168002
  0
VERTEX
  8
0
 10
137.637101
 20
107.814117
 42
0.149458
  0
VERTEX
  8
0
 10
136.686187
 20
108.476308
 42
0.053781
  0
VERTEX
  8
0
 10
134.695326
 20
108.888397
 42
0.006570
  0
VERTEX
  8
0
 10
130.250000
 20
109.260493
 42
-0.046247
  0
VERTEX
  8
0
 10
119.780436
 20
110.980140
 42
-0.066472
  0
VERTEX
  8
0
 10
111.093980
 20
114.530199
 42
-0.073151
  0
VERTEX
  8
0
 10
104.255228
 20
119.912308
 42
-0.072777
  0
VERTEX
  8
0
 10
99.241872
 20
127.044346
 42
-0.055918
  0
VERTEX
  8
0
 10
96.624450
 20
134.090375
 42
-0.030296
  0
VERTEX
  8
0
 10
94.936378
 20
143.192049
 42
-0.025678
  0
VERTEX
  8
0
 10
94.150380
 20
154.171437
 42
-0.016284
  0
VERTEX
  8
0
 10
94.310032
 20
167.000000
 42
-0.015935
  0
VERTEX
  8
0
 10
95.077706
 20
176.965877
 42
-0.029044
  0
VERTEX
  8
0
 10
96.432470
 20
185.011577
 42
-0.030963
  0
VERTEX
  8
0
 10
98.638757
 20
192.492329
 42
-0.021255
  0
VERTEX
  8
0
 10
102.013147
 20
200.673303
 42
-0.032275
  0
VERTEX
  8
0
 10
108.376338
 20
212.369922
 42
-0.048482
  0
VERTEX
  8
0
 10
115.490608
 20
221.543064
 42
-0.050855
  0
VERTEX
  8
0
 10
123.961034
 20
228.862448
 42
-0.040511
  0
VERTEX
  8
0
 10
134.387370
 20
234.971816
 42
-0.021974
  0
VERTEX
  8
0
 10
144.860703
 20
239.463081
 42
-0.034843
  0
VERTEX
  8
0
 10
154.206095
 20
242.267238
 42
-0.032166
  0
VERTEX
  8
0
 10
164.371431
 20
243.882083
 42
-0.015639
  0
VERTEX
  8
0
 10
177.500000
 20
244.696523
 42
-0.005120
  0
VERTEX
  8
0
 10
186.474871
 20
244.880019
 42
-0.017842
  0
VERTEX
  8
0
 10
192.268390
 20
244.732384
 42
-0.023664
  0
VERTEX
  8
0
 10
197.135381
 20
244.202346
 42
-0.015569
  0
VERTEX
  8
0
 10
202.672218
 20
243.155113
 42
-0.031272
  0
VERTEX
  8
0
 10
215.806375
 20
239.369930
 42
-0.044264
  0
VERTEX
  8
0
 10
226.852270
 20
234.282834
 42
-0.047618
  0
VERTEX
  8
0
 10
236.206970
 20
227.671690
 42
-0.045860
  0
VERTEX
  8
0
 10
244.272225
 20
219.333407
 42
-0.043171
  0
VERTEX
  8
0
 10
252.208203
 20
207.501594
 42
-0.047169
  0
VERTEX
  8
0
 10
257.724001
 20
194.819752
 42
-0.042922
  0
VERTEX
  8
0
 10
261.120653
 20
180.325924
 42
-0.027040
  0
VERTEX
  8
0
 10
262.690111
 20
163.000000
 42
-0.001467
  0
VERTEX
  8
0
 10
263.322781
 20
144.028529
 42
-0.016860
  0
VERTEX
  8
0
 10
263.298037
 20
136.563980
 42
-0.044642
  0
VERTEX
  8
0
 10
262.738050
 20
132.152255
 42
-0.066504
  0
VERTEX
  8
0
 10
261.411934
 20
128.500000
 42
-0.091799
  0
VERTEX
  8
0
 10
257.126039
 20
123.025195
 42
-0.057949
  0
VERTEX
  8
0
 10
250.445409
 20
118.378275
 42
-0.052869
  0
VERTEX
  8
0
 10
242.151616
 20
115.004452
 42
-0.048106
  0
VERTEX
  8
0
 10
233.066001
 20
113.308247
 42
0.017521
  0
VERTEX
  8
0
 10
228.752455
 20
112.772942
 42
0.056146
  0
VERTEX
  8
0
 10
225.965129
 20
111.999484
 42
0.127422
  0
VERTEX
  8
0
 10
224.642464
 20
111.022220
 42
0.318828
  0
VERTEX
  8
0
 10
224.570027
 20
109.886693
 42
0.166017
  0
VERTEX
  8
0
 10
224.987671
 20
109.543267
 42
0.033130
  0
VERTEX
  8
0
 10
225.925354
 20
109.260466
 42
0.031740
  0
VERTEX
  8
0
 10
227.112151
 20
109.065012
 42
0.024947
  0
VERTEX
  8
0
 10
228.414364
 20
109.000000
 42
0.000000
  0
VERTEX
  8
0
 10
231.710695
 20
109.000000
 42
0.000000
  0
VERTEX
  8
0
 10
233.363474
 20
101.250000
 42
-0.009642
  0
VERTEX
  8
0
 10
235.010506
 20
92.724153
 42
-0.006959
  0
VERTEX
  8
0
 10
236.530796
 20
83.159372
 42
-0.006380
  0
VERTEX
  8
0
 10
237.686986
 20
74.380629
 42
-0.029209
  0
VERTEX
  8
0
 10
237.994105
 20
69.250000
 42
0.015393
  0
VERTEX
  8
0
 10
238.069204
 20
66.916404
 42
0.096979
  0
VERTEX
  8
0
 10
238.369591
 20
65.770201
 42
0.189061
  0
VERTEX
  8
0
 10
238.984157
 20
65.200624
 42
0.093701
  0
VERTEX
  8
0
 10
240.045313
 20
65.000000
 42
0.067039
  0
VERTEX
  8
0
 10
241.102886
 20
65.142437
 42
0.218473
  0
VERTEX
  8
0
 10
241.631187
 20
65.585564
 42
0.130444
  0
VERTEX
  8
0
 10
241.793048
 20
66.458952
 42
0.019471
  0
VERTEX
  8
0
 10
241.585956
 20
68.250000
 42
-0.008638
  0
VERTEX
  8
0
 10
241.350687
 20
69.959356
 42
-0.002510
  0
VERTEX
  8
0
 10
241.046874
 20
72.601562
 42
-0.002522
  0
VERTEX
  8
0
 10
240.734563
 20
75.581651
 42
-0.002694
  0
VERTEX
  8
0
 10
240.459467
 20
78.500000
 42
0.015326
  0
VERTEX
  8
0
 10
239.757312
 20
84.360203
 42
0.005298
  0
VERTEX
  8
0
 10
238.394929
 20
92.775822
 42
0.005339
  0
VERTEX
  8
0
 10
236.846486
 20
101.200547
 42
0.014321
  0
VERTEX
  8
0
 10
235.509437
 20
107.149307
 42
-0.055619
  0
VERTEX
  8
0
 10
235.289024
 20
108.729356
 42
-0.230893
  0
VERTEX
  8
0
 10
235.676094
 20
109.581531
 42
-0.111052
  0
VERTEX
  8
0
 10
236.818729
 20
110.161109
 42
-0.009239
  0
VERTEX
  8
0
 10
240.075884
 20
110.922854
 42
0.041230
  0
VERTEX
  8
0
 10
248.261044
 20
113.398213
 42
0.052780
  0
VERTEX
  8
0
 10
255.235433
 20
117.042927
 42
0.057993
  0
VERTEX
  8
0
 10
260.755252
 20
121.719363
 42
0.070880
  0
VERTEX
  8
0
 10
264.630535
 20
127.257598
 42
0.036220
  0
VERTEX
  8
0
 10
266.123256
 20
130.821805
 42
0.061243
  0
VERTEX
  8
0
 10
266.771588
 20
133.989640
 42
0.026588
  0
VERTEX
  8
0
 10
266.894975
 20
138.666630
 42
0.002177
  0
VERTEX
  8
0
 10
266.514192
 20
150.889522
 42
0.003187
  0
VERTEX
  8
0
 10
266.189953
 20
158.628794
 42
0.003032
  0
VERTEX
  8
0
 10
265.762443
 20
166.493008
 42
0.003007
  0
VERTEX
  8
0
 10
265.300616
 20
173.439471
 42
0.010736
  0
VERTEX
  8
0
 10
264.883123
 20
177.873910
 42
0.028160
  0
VERTEX
  8
0
 10
263.476072
 20
185.990556
 42
0.019351
  0
VERTEX
  8
0
 10
261.014086
 20
195.003706
 42
0.019531
  0
VERTEX
  8
0
 10
257.930527
 20
203.600216
 42
0.034140
  0
VERTEX
  8
0
 10
254.629485
 20
210.404087
 42
0.000000
  0
VERTEX
  8
0
 10
251.249278
 20
216.308174
 42
0.000000
  0
VERTEX
  8
0
 10
253.158779
 20
219.544538
 42
0.112675
  0
VERTEX
  8
0
 10
255.772720
 20
227.743053
 42
0.114631
  0
VERTEX
  8
0
 10
254.545016
 20
236.208192
 42
0.112924
  0
VERTEX
  8
0
 10
249.681851
 20
243.359745
 42
0.106812
  0
VERTEX
  8
0
 10
242.100777
 20
247.861897
 42
0.029594
  0
VERTEX
  8
0
 10
239.443150
 20
248.580022
 42
0.046280
  0
VERTEX
  8
0
 10
237.090548
 20
248.845203
 42
0.042825
  0
VERTEX
  8
0
 10
234.601688
 20
248.681079
 42
0.021342
  0
SEQEND
  0
POLYLINE
  8
0
 66
1
 70
1
  0
VERTEX
  8
0
 10
245.257015
 20
242.471322
 42
-0.029628
  0
VERTEX
  8
0
 10
246.792521
 20
241.289213
 42
-0.022629
  0
VERTEX
  8
0
 10
248.328985
 20
239.827205
 42
-0.023092
  0
VERTEX
  8
0
 10
249.646707
 20
238.321140
 42
-0.048882
  0
VERTEX
  8
0
 10
250.489150
 20
237.020982
 42
-0.077643
  0
VERTEX
  8
0
 10
251.595559
 20
233.707542
 42
-0.043153
  0
VERTEX
  8
0
 10
251.941168
 20
229.452544
 42
-0.043080
  0
VERTEX
  8
0
 10
251.550324
 20
225.184257
 42
-0.075098
  0
VERTEX
  8
0
 10
250.410032
 20
221.826022
 42
-0.014518
  0
VERTEX
  8
0
 10
249.441817
 20
220.079883
 42
-0.142744
  0
VERTEX
  8
0
 10
248.833714
 20
219.511205
 42
-0.264567
  0
VERTEX
  8
0
 10
248.206824
 20
219.541914
 42
-0.054848
  0
VERTEX
  8
0
 10
247.312412
 20
220.259017
 42
-0.052468
  0
VERTEX
  8
0
 10
246.628510
 20
221.103774
 42
-0.115763
  0
VERTEX
  8
0
 10
246.349287
 20
221.880219
 42
-0.108839
  0
VERTEX
  8
0
 10
246.436497
 20
222.731353
 42
-0.043143
  0
VERTEX
  8
0
 10
246.902379
 20
223.817594
 42
0.116862
  0
VERTEX
  8
0
 10
247.975950
 20
227.874019
 42
0.084523
  0
VERTEX
  8
0
 10
247.308922
 20
232.520329
 42
0.083006
  0
VERTEX
  8
0
 10
245.118221
 20
236.760685
 42
0.105815
  0
VERTEX
  8
0
 10
241.810244
 20
239.647139
 42
0.082375
  0
VERTEX
  8
0
 10
239.065873
 20
240.624818
 42
0.047978
  0
VERTEX
  8
0
 10
235.573736
 20
240.911708
 42
0.048310
  0
VERTEX
  8
0
 10
232.144536
 20
240.531374
 42
0.093530
  0
VERTEX
  8
0
 10
229.605722
 20
239.477315
 42
-0.084222
  0
VERTEX
  8
0
 10
227.888660
 20
238.726955
 42
-0.080437
  0
VERTEX
  8
0
 10
225.991802
 20
238.568357
 42
-0.106635
  0
VERTEX
  8
0
 10
224.537881
 20
239.001557
 42
-0.273733
  0
VERTEX
  8
0
 10
224.000000
 20
239.910432
 42
-0.217981
  0
VERTEX
  8
0
 10
224.170980
 20
240.283987
 42
-0.014764
  0
VERTEX
  8
0
 10
225.101562
 20
241.040794
 42
-0.019015
  0
VERTEX
  8
0
 10
226.313223
 20
241.897103
 42
-0.012975
  0
VERTEX
  8
0
 10
227.750000
 20
242.780473
 42
-0.070780
  0
VERTEX
  8
0
 10
232.007731
 20
244.500733
 42
-0.065170
  0
VERTEX
  8
0
 10
236.700225
 20
245.030868
 42
-0.066320
  0
VERTEX
  8
0
 10
241.292353
 20
244.336349
 42
-0.078736
  0
SEQEND
  0
POLYLINE
  8
0
 66
1
 70
1
  0
VERTEX
  8
0
 10
121.186588
 20
238.364293
 42
-0.032723
  0
VERTEX
  8
0
 10
123.316622
 20
237.113159
 42
-0.104173
  0
VERTEX
  8
0
 10
124.455588
 20
235.930757
 42
-0.185900
  0
VERTEX
  8
0
 10
124.674907
 20
234.799456
 42
-0.153510
  0
VERTEX
  8
0
 10
124.103056
 20
233.703056
 42
-0.119304
  0
VERTEX
  8
0
 10
123.408605
 20
233.279277
 42
-0.114384
  0
VERTEX
  8
0
 10
122.585829
 20
233.211120
 42
-0.073331
  0
VERTEX
  8
0
 10
121.529310
 20
233.528158
 42
-0.023914
  0
VERTEX
  8
0
 10
120.085896
 20
234.290188
 42
0.136187
  0
VERTEX
  8
0
 10
114.002089
 20
235.927228
 42
0.119076
  0
VERTEX
  8
0
 10
107.593638
 20
234.325731
 42
0.122990
  0
VERTEX
  8
0
 10
102.770980
 20
230.038642
 42
0.150974
  0
VERTEX
  8
0
 10
101.000000
 20
224.307150
 42
0.050435
  0
VERTEX
  8
0
 10
101.139876
 20
222.923981
 42
0.021263
  0
VERTEX
  8
0
 10
101.591833
 20
221.109292
 42
0.020779
  0
VERTEX
  8
0
 10
102.243402
 20
219.195566
 42
0.025447
  0
VERTEX
  8
0
 10
103.014749
 20
217.471070
 42
-0.032281
  0
VERTEX
  8
0
 10
104.422341
 20
214.205190
 42
-0.144093
  0
VERTEX
  8
0
 10
104.538235
 20
212.144695
 42
-0.437888
  0
VERTEX
  8
0
 10
103.604325
 20
211.615793
 42
-0.106749
  0
VERTEX
  8
0
 10
101.876772
 20
212.611520
 42
-0.097393
  0
VERTEX
  8
0
 10
98.524294
 20
217.104304
 42
-0.088368
  0
VERTEX
  8
0
 10
96.974915
 20
222.689388
 42
-0.087562
  0
VERTEX
  8
0
 10
97.443679
 20
228.511055
 42
-0.093240
  0
VERTEX
  8
0
 10
99.883403
 20
233.680345
 42
-0.087747
  0
VERTEX
  8
0
 10
104.127917
 20
237.786564
 42
-0.094623
  0
VERTEX
  8
0
 10
109.416987
 20
240.054677
 42
-0.092211
  0
VERTEX
  8
0
 10
115.283590
 20
240.245557
 42
-0.078734
  0
SEQEND
  0
POLYLINE
  8
0
 66
1
 70
1
  0
VERTEX
  8
0
 10
210.009821
 20
206.511833
 42
0.138086
  0
VERTEX
  8
0
 10
209.531266
 20
205.435267
 42
0.330998
  0
VERTEX
  8
0
 10
209.923167
 20
204.710063
 42
0.073778
  0
VERTEX
  8
0
 10
211.598936
 20
204.212237
 42
0.005730
  0
VERTEX
  8
0
 10
216.250000
 20
203.604073
 42
0.030424
  0
VERTEX
  8
0
 10
219.368883
 20
203.423816
 42
0.184518
  0
VERTEX
  8
0
 10
220.852156
 20
203.995762
 42
0.344386
  0
VERTEX
  8
0
 10
221.049003
 20
205.112296
 42
0.074281
  0
VERTEX
  8
0
 10
219.800000
 20
206.800000
 42
0.156298
  0
VERTEX
  8
0
 10
217.961389
 20
207.746271
 42
0.048701
  0
VERTEX
  8
0
 10
214.826100
 20
207.959484
 42
0.048610
  0
VERTEX
  8
0
 10
211.723652
 20
207.564698
 42
0.165065
  0
SEQEND
  0
POLYLINE
  8
0
 66
1
 70
1
  0
VERTEX
  8
0
 10
144.227834
 20
204.960638
 42
0.079247
  0
VERTEX
  8
0
 10
142.515008
 20
203.933729
 42
0.111193
  0
VERTEX
  8
0
 10
141.438148
 20
202.520345
 42
0.141111
  0
VERTEX
  8
0
 10
141.214372
 20
201.031949
 42
0.165039
  0
VERTEX
  8
0
 10
141.843589
 20
199.756411
 42
0.099310
  0
VERTEX
  8
0
 10
142.468055
 20
199.340618
 42
0.145692
  0
VERTEX
  8
0
 10
143.120261
 20
199.275107
 42
0.102692
  0
VERTEX
  8
0
 10
143.868604
 20
199.586137
 42
0.034262
  0
VERTEX
  8
0
 10
144.805112
 20
200.323629
 42
-0.058952
  0
VERTEX
  8
0
 10
145.708940
 20
200.965877
 42
-0.036300
  0
VERTEX
  8
0
 10
146.898030
 20
201.507566
 42
-0.036018
  0
VERTEX
  8
0
 10
148.170353
 20
201.877405
 42
-0.052769
  0
VERTEX
  8
0
 10
149.328741
 20
202.000000
 42
0.099045
  0
VERTEX
  8
0
 10
151.066011
 20
202.347547
 42
0.219740
  0
VERTEX
  8
0
 10
151.959398
 20
203.319510
 42
0.262551
  0
VERTEX
  8
0
 10
151.720315
 20
204.482102
 42
0.122623
  0
VERTEX
  8
0
 10
150.418213
 20
205.393011
 42
0.044498
  0
VERTEX
  8
0
 10
148.948549
 20
205.811596
 42
0.064656
  0
VERTEX
  8
0
 10
147.604270
 20
205.891540
 42
0.054925
  0
VERTEX
  8
0
 10
146.130278
 20
205.624123
 42
0.023181
  0
SEQEND
  0
POLYLINE
  8
0
 66
1
 70
1
  0
VERTEX
  8
0
 10
211.520225
 20
160.841666
 42
0.026883
  0
VERTEX
  8
0
 10
210.271420
 20
159.184381
 42
0.063830
  0
VERTEX
  8
0
 10
209.581081
 20
157.806684
 42
0.079794
  0
VERTEX
  8
0
 10
209.346512
 20
156.501147
 42
0.065505
  0
VERTEX
  8
0
 10
209.505461
 20
155.091666
 42
0.113171
  0
VERTEX
  8
0
 10
211.713806
 20
150.728067
 42
0.150068
  0
VERTEX
  8
0
 10
215.417763
 20
148.306659
 42
0.159373
  0
VERTEX
  8
0
 10
219.670327
 20
148.455582
 42
0.130787
  0
VERTEX
  8
0
 10
223.411106
 20
151.076725
 42
0.061642
  0
VERTEX
  8
0
 10
225.245224
 20
153.898424
 42
0.110552
  0
VERTEX
  8
0
 10
225.880369
 20
156.574359
 42
0.119806
  0
VERTEX
  8
0
 10
225.296725
 20
159.116900
 42
0.080493
  0
VERTEX
  8
0
 10
223.545455
 20
161.545455
 42
0.094391
  0
VERTEX
  8
0
 10
220.646797
 20
163.516534
 42
0.117387
  0
VERTEX
  8
0
 10
217.446461
 20
164.083193
 42
0.115264
  0
VERTEX
  8
0
 10
214.290083
 20
163.148248
 42
0.088681
  0
SEQEND
  0
POLYLINE
  8
0
 66
1
 70
1
  0
VERTEX
  8
0
 10
144.228960
 20
160.330706
 42
0.148010
  0
VERTEX
  8
0
 10
142.697326
 20
159.101189
 42
0.052553
  0
VERTEX
  8
0
 10
141.347498
 20
156.603623
 42
0.052229
  0
VERTEX
  8
0
 10
140.517676
 20
153.782886
 42
0.107323
  0
VERTEX
  8
0
 10
140.591160
 20
151.492813
 42
0.100104
  0
VERTEX
  8
0
 10
141.719210
 20
149.130173
 42
0.067833
  0
VERTEX
  8
0
 10
143.824408
 20
147.004041
 42
0.067514
  0
VERTEX
  8
0
 10
146.434617
 20
145.509314
 42
0.096609
  0
VERTEX
  8
0
 10
149.045965
 20
145.000000
 42
0.140037
  0
VERTEX
  8
0
 10
151.619781
 20
145.735277
 42
0.067391
  0
VERTEX
  8
0
 10
154.286634
 20
147.941291
 42
0.066428
  0
VERTEX
  8
0
 10
156.317467
 20
150.831847
 42
0.120527
  0
VERTEX
  8
0
 10
157.000000
 20
153.622180
 42
0.126084
  0
VERTEX
  8
0
 10
156.326857
 20
156.249159
 42
0.085724
  0
VERTEX
  8
0
 10
154.394390
 20
158.674777
 42
0.082971
  0
VERTEX
  8
0
 10
151.688817
 20
160.376637
 42
0.105356
  0
VERTEX
  8
0
 10
148.795455
 20
160.921053
 42
0.013025
  0
VERTEX
  8
0
 10
147.440574
 20
160.853251
 42
0.013129
  0
VERTEX
  8
0
 10
146.094672
 20
160.715073
 42
0.013035
  0
VERTEX
  8
0
 10
144.930060
 20
160.533536
 42
0.050500
  0
SEQEND
  0
POLYLINE
  8
0
 66
1
 70
1
  0
VERTEX
  8
0
 10
174.335833
 20
153.432783
 42
0.078522
  0
VERTEX
  8
0
 10
174.190333
 20
152.749087
 42
0.061901
  0
VERTEX
  8
0
 10
174.243850
 20
151.993180
 42
0.062620
  0
VERTEX
  8
0
 10
174.478836
 20
151.282667
 42
0.085436
  0
VERTEX
  8
0
 10
174.867217
 20
150.732783
 42
-0.133640
  0
VERTEX
  8
0
 10
175.307766
 20
149.962801
 42
-0.022100
  0
VERTEX
  8
0
 10
175.667245
 20
148.274532
 42
-0.022919
  0
VERTEX
  8
0
 10
175.916988
 20
146.199337
 42
-0.018487
  0
VERTEX
  8
0
 10
176.000000
 20
143.954988
 42
0.043024
  0
VERTEX
  8
0
 10
176.378877
 20
139.560042
 42
0.134938
  0
VERTEX
  8
0
 10
177.630617
 20
136.902871
 42
0.154544
  0
VERTEX
  8
0
 10
179.943620
 20
135.466764
 42
0.062324
  0
VERTEX
  8
0
 10
183.673753
 20
135.000000
 42
0.077064
  0
VERTEX
  8
0
 10
187.432620
 20
135.582809
 42
0.172217
  0
VERTEX
  8
0
 10
189.705883
 20
137.306423
 42
0.112061
  0
VERTEX
  8
0
 10
190.962507
 20
140.667526
 42
0.023787
  0
VERTEX
  8
0
 10
191.509245
 20
146.934153
 42
0.006732
  0
VERTEX
  8
0
 10
191.618162
 20
151.122750
 42
0.036896
  0
VERTEX
  8
0
 10
191.479788
 20
153.380087
 42
0.086007
  0
VERTEX
  8
0
 10
191.098848
 20
154.583487
 42
0.280161
  0
VERTEX
  8
0
 10
190.413848
 20
155.000000
 42
0.105248
  0
VERTEX
  8
0
 10
189.874389
 20
154.885174
 42
0.099201
  0
VERTEX
  8
0
 10
189.415318
 20
154.559375
 42
0.096367
  0
VERTEX
  8
0
 10
189.107617
 20
154.072594
 42
0.093157
  0
VERTEX
  8
0
 10
189.000000
 20
153.500000
 42
-0.111092
  0
VERTEX
  8
0
 10
188.768229
 20
152.469723
 42
-0.284910
  0
VERTEX
  8
0
 10
188.152542
 20
152.072360
 42
-0.137279
  0
VERTEX
  8
0
 10
187.092620
 20
152.348464
 42
-0.027306
  0
VERTEX
  8
0
 10
185.441130
 20
153.435862
 42
0.039055
  0
VERTEX
  8
0
 10
184.289940
 20
154.155690
 42
0.127654
  0
VERTEX
  8
0
 10
183.421808
 20
154.356031
 42
0.111396
  0
VERTEX
  8
0
 10
182.497168
 20
154.120906
 42
0.026170
  0
VERTEX
  8
0
 10
181.105602
 20
153.318195
 42
-0.015850
  0
VERTEX
  8
0
 10
179.673125
 20
152.452021
 42
-0.133684
  0
VERTEX
  8
0
 10
178.948388
 20
152.269776
 42
-0.214018
  0
VERTEX
  8
0
 10
178.402099
 20
152.527699
 42
-0.049492
  0
VERTEX
  8
0
 10
177.805911
 20
153.382334
 42
0.075560
  0
VERTEX
  8
0
 10
176.906664
 20
154.538518
 42
0.188275
  0
VERTEX
  8
0
 10
175.931535
 20
154.935627
 42
0.212763
  0
VERTEX
  8
0
 10
175.030854
 20
154.549787
 42
0.095382
  0
SEQEND
  0
POLYLINE
  8
0
 66
1
 70
1
  0
VERTEX
  8
0
 10
185.785432
 20
149.153772
 42
-0.119782
  0
VERTEX
  8
0
 10
186.320559
 20
148.598547
 42
-0.032765
  0
VERTEX
  8
0
 10
186.867767
 20
147.502446
 42
-0.031152
  0
VERTEX
  8
0
 10
187.342899
 20
146.138650
 42
-0.028027
  0
VERTEX
  8
0
 10
187.664901
 20
144.677549
 42
-0.059285
  0
VERTEX
  8
0
 10
187.785219
 20
141.844465
 42
-0.121008
  0
VERTEX
  8
0
 10
187.096064
 20
139.742594
 42
-0.147931
  0
VERTEX
  8
0
 10
185.632964
 20
138.460937
 42
-0.106818
  0
VERTEX
  8
0
 10
183.500000
 20
138.000000
 42
-0.104651
  0
VERTEX
  8
0
 10
181.337680
 20
138.457589
 42
-0.155109
  0
VERTEX
  8
0
 10
179.898577
 20
139.732183
 42
-0.124878
  0
VERTEX
  8
0
 10
179.269413
 20
141.842773
 42
-0.056733
  0
VERTEX
  8
0
 10
179.478436
 20
144.736747
 42
-0.053395
  0
VERTEX
  8
0
 10
180.387805
 20
147.760525
 42
-0.141182
  0
VERTEX
  8
0
 10
181.793946
 20
149.501746
 42
-0.188814
  0
VERTEX
  8
0
 10
183.621875
 20
149.944653
 42
-0.107887
  0
SEQEND
  0
POLYLINE
  8
0
 66
1
 70
1
  0
VERTEX
  8
0
 10
206.894646
 20
118.338531
 42
0.084347
  0
VERTEX
  8
0
 10
206.193309
 20
118.017141
 42
0.039002
  0
VERTEX
  8
0
 10
205.408385
 20
117.387639
 42
0.037185
  0
VERTEX
  8
0
 10
204.667005
 20
116.579828
 42
0.042463
  0
VERTEX
  8
0
 10
204.089360
 20
115.704532
 42
-0.061770
  0
VERTEX
  8
0
 10
203.406716
 20
114.752041
 42
-0.029606
  0
VERTEX
  8
0
 10
202.321101
 20
113.706956
 42
-0.028806
  0
VERTEX
  8
0
 10
201.042876
 20
112.736076
 42
-0.036435
  0
VERTEX
  8
0
 10
199.754767
 20
112.000000
 42
0.140772
  0
VERTEX
  8
0
 10
195.629516
 20
108.337678
 42
0.086166
  0
VERTEX
  8
0
 10
193.119146
 20
102.284980
 42
0.084536
  0
VERTEX
  8
0
 10
192.768465
 20
95.621739
 42
0.126337
  0
VERTEX
  8
0
 10
194.852744
 20
90.206802
 42
0.094088
  0
VERTEX
  8
0
 10
197.863473
 20
87.319945
 42
0.020886
  0
VERTEX
  8
0
 10
204.030873
 20
83.664750
 42
0.017926
  0
VERTEX
  8
0
 10
210.429136
 20
80.515478
 42
0.154467
  0
VERTEX
  8
0
 10
213.552471
 20
80.154594
 42
0.145023
  0
VERTEX
  8
0
 10
215.130219
 20
80.975017
 42
0.397511
  0
VERTEX
  8
0
 10
215.183465
 20
82.118681
 42
0.096311
  0
VERTEX
  8
0
 10
213.165124
 20
83.713038
 42
0.015622
  0
VERTEX
  8
0
 10
208.632563
 20
85.876312
 42
-0.021913
  0
VERTEX
  8
0
 10
202.534708
 20
88.881398
 42
-0.076899
  0
VERTEX
  8
0
 10
199.073468
 20
91.541127
 42
-0.112032
  0
VERTEX
  8
0
 10
197.284656
 20
94.532283
 42
-0.079124
  0
VERTEX
  8
0
 10
196.666667
 20
98.413022
 42
-0.057538
  0
VERTEX
  8
0
 10
197.091799
 20
102.095173
 42
-0.075022
  0
VERTEX
  8
0
 10
198.347284
 20
105.241610
 42
-0.083151
  0
VERTEX
  8
0
 10
200.344213
 20
107.634978
 42
-0.093799
  0
VERTEX
  8
0
 10
202.936216
 20
109.127609
 42
0.056203
  0
VERTEX
  8
0
 10
204.085526
 20
109.679556
 42
0.039935
  0
VERTEX
  8
0
 10
205.233262
 20
110.533796
 42
0.040427
  0
VERTEX
  8
0
 10
206.209982
 20
111.540411
 42
0.065591
  0
VERTEX
  8
0
 10
206.840725
 20
112.549775
 42
-0.057569
  0
VERTEX
  8
0
 10
207.443809
 20
113.550108
 42
-0.066772
  0
VERTEX
  8
0
 10
208.233685
 20
114.331352
 42
-0.072417
  0
VERTEX
  8
0
 10
209.140408
 20
114.829028
 42
-0.089588
  0
VERTEX
  8
0
 10
210.086969
 20
115.000000
 42
-0.048161
  0
VERTEX
  8
0
 10
211.171598
 20
114.895284
 42
-0.207538
  0
VERTEX
  8
0
 10
211.693862
 20
114.536632
 42
-0.171658
  0
VERTEX
  8
0
 10
211.845530
 20
113.857644
 42
-0.031428
  0
VERTEX
  8
0
 10
211.607710
 20
112.573129
 42
0.174969
  0
VERTEX
  8
0
 10
211.834213
 20
110.327555
 42
0.101849
  0
VERTEX
  8
0
 10
213.492541
 20
108.145932
 42
0.088285
  0
VERTEX
  8
0
 10
216.137780
 20
106.554075
 42
0.091659
  0
VERTEX
  8
0
 10
219.134859
 20
106.000000
 42
0.082085
  0
VERTEX
  8
0
 10
221.265429
 20
106.352149
 42
0.347270
  0
VERTEX
  8
0
 10
221.921847
 20
107.365716
 42
0.218247
  0
VERTEX
  8
0
 10
221.134137
 20
108.730292
 42
0.049311
  0
VERTEX
  8
0
 10
218.750000
 20
110.092105
 42
-0.035601
  0
VERTEX
  8
0
 10
217.526961
 20
110.746979
 42
-0.048557
  0
VERTEX
  8
0
 10
216.539517
 20
111.513046
 42
-0.058298
  0
VERTEX
  8
0
 10
215.904159
 20
112.271238
 42
-0.200811
  0
VERTEX
  8
0
 10
215.788780
 20
112.888913
 42
0.102082
  0
VERTEX
  8
0
 10
215.794363
 20
113.567705
 42
0.033483
  0
VERTEX
  8
0
 10
215.533943
 20
114.538150
 42
0.031751
  0
VERTEX
  8
0
 10
215.092146
 20
115.605055
 42
0.031001
  0
VERTEX
  8
0
 10
214.515727
 20
116.616341
 42
0.088337
  0
VERTEX
  8
0
 10
213.227473
 20
117.981958
 42
0.104397
  0
VERTEX
  8
0
 10
211.616577
 20
118.721304
 42
0.083150
  0
VERTEX
  8
0
 10
209.554144
 20
118.837595
 42
0.037970
  0
SEQEND
  0
POLYLINE
  8
0
 66
1
 70
1
  0
VERTEX
  8
0
 10
158.200000
 20
116.800000
 42
0.072408
  0
VERTEX
  8
0
 10
157.739926
 20
116.183148
 42
0.038743
  0
VERTEX
  8
0
 10
157.352500
 20
115.312843
 42
0.037587
  0
VERTEX
  8
0
 10
157.088345
 20
114.344224
 42
0.047811
  0
VERTEX
  8
0
 10
157.000000
 20
113.422445
 42
-0.101754
  0
VERTEX
  8
0
 10
156.623314
 20
111.590641
 42
-0.120791
  0
VERTEX
  8
0
 10
155.562655
 20
110.183874
 42
-0.067790
  0
VERTEX
  8
0
 10
153.457543
 20
108.896204
 42
-0.014521
  0
VERTEX
  8
0
 10
149.478452
 20
107.285848
 42
0.022659
  0
VERTEX
  8
0
 10
147.521217
 20
106.456435
 42
0.034941
  0
VERTEX
  8
0
 10
145.923009
 20
105.549853
 42
0.039130
  0
VERTEX
  8
0
 10
144.804207
 20
104.674239
 42
0.210142
  0
VERTEX
  8
0
 10
144.500000
 20
103.982389
 42
0.254630
  0
VERTEX
  8
0
 10
145.174870
 20
102.743113
 42
0.177442
  0
VERTEX
  8
0
 10
146.761529
 20
102.384568
 42
0.068451
  0
VERTEX
  8
0
 10
149.612868
 20
103.160442
 42
0.016775
  0
VERTEX
  8
0
 10
154.031696
 20
105.218717
 42
0.011958
  0
VERTEX
  8
0
 10
157.457736
 20
107.061000
 42
0.052395
  0
VERTEX
  8
0
 10
159.323215
 20
108.398372
 42
0.090314
  0
VERTEX
  8
0
 10
160.336076
 20
109.692758
 42
0.092584
  0
VERTEX
  8
0
 10
160.816422
 20
111.250000
 42
-0.123856
  0
VERTEX
  8
0
 10
161.552830
 20
113.200425
 42
-0.218261
  0
VERTEX
  8
0
 10
163.007297
 20
114.059557
 42
-0.229683
  0
VERTEX
  8
0
 10
164.547133
 20
113.501351
 42
-0.132157
  0
VERTEX
  8
0
 10
165.528936
 20
111.740733
 42
0.080189
  0
VERTEX
  8
0
 10
165.952222
 20
110.755920
 42
0.039119
  0
VERTEX
  8
0
 10
166.775787
 20
109.659370
 42
0.037502
  0
VERTEX
  8
0
 10
167.832822
 20
108.627287
 42
0.044395
  0
VERTEX
  8
0
 10
168.977268
 20
107.827831
 42
-0.079556
  0
VERTEX
  8
0
 10
171.641231
 20
105.674462
 42
-0.072787
  0
VERTEX
  8
0
 10
173.596400
 20
102.734676
 42
-0.071539
  0
VERTEX
  8
0
 10
174.651517
 20
99.308536
 42
-0.072437
  0
VERTEX
  8
0
 10
174.691813
 20
95.738960
 42
-0.067998
  0
VERTEX
  8
0
 10
173.852438
 20
92.695656
 42
-0.063596
  0
VERTEX
  8
0
 10
172.214592
 20
89.912620
 42
-0.055337
  0
VERTEX
  8
0
 10
169.705671
 20
87.322685
 42
-0.034301
  0
VERTEX
  8
0
 10
166.260827
 20
84.852183
 42
0.026419
  0
VERTEX
  8
0
 10
165.047537
 20
84.010676
 42
0.041727
  0
VERTEX
  8
0
 10
164.115109
 20
83.154776
 42
0.050850
  0
VERTEX
  8
0
 10
163.549861
 20
82.400559
 42
0.280830
  0
VERTEX
  8
0
 10
163.552786
 20
81.914590
 42
0.225639
  0
VERTEX
  8
0
 10
164.816272
 20
81.098703
 42
0.119070
  0
VERTEX
  8
0
 10
166.713759
 20
81.303461
 42
0.067905
  0
VERTEX
  8
0
 10
169.242745
 20
82.620467
 42
0.026522
  0
VERTEX
  8
0
 10
172.339273
 20
85.067438
 42
0.077397
  0
VERTEX
  8
0
 10
176.984442
 20
90.644092
 42
0.118344
  0
VERTEX
  8
0
 10
178.862585
 20
96.621439
 42
0.122291
  0
VERTEX
  8
0
 10
177.798367
 20
102.657188
 42
0.086146
  0
VERTEX
  8
0
 10
173.948890
 20
108.409382
 42
-0.005762
  0
VERTEX
  8
0
 10
172.301813
 20
110.177003
 42
-0.004695
  0
VERTEX
  8
0
 10
170.578131
 20
112.106194
 42
-0.004745
  0
VERTEX
  8
0
 10
169.024409
 20
113.912674
 42
-0.012355
  0
VERTEX
  8
0
 10
167.951523
 20
115.250000
 42
0.105489
  0
VERTEX
  8
0
 10
165.866437
 20
117.039247
 42
0.085547
  0
VERTEX
  8
0
 10
163.071124
 20
117.991433
 42
0.091072
  0
VERTEX
  8
0
 10
160.280280
 20
117.924407
 42
0.145959
  0
SEQEND
  0
ENDSEC
  0
EOF
