  0
SECTION
  2
HEADER
  9
$ACADVER
  1
AC1006
  9
$EXTMIN
 10
0.000000
 20
0.000000
 30
0.000000
  9
$EXTMAX
 10
485.000000
 20
530.000000
 30
0.000000
  0
ENDSEC
  0
SECTION
  2
ENTITIES
  0
POLYLINE
  8
0
 66
1
 70
1
  0
VERTEX
  8
0
 10
100.000000
 20
260.500000
 42
0.000000
  0
VERTEX
  8
0
 10
100.000000
 20
40.000000
 42
0.000000
  0
VERTEX
  8
0
 10
267.500000
 20
40.000000
 42
0.000000
  0
VERTEX
  8
0
 10
435.000000
 20
40.000000
 42
0.000000
  0
VERTEX
  8
0
 10
435.000000
 20
260.500000
 42
0.000000
  0
VERTEX
  8
0
 10
435.000000
 20
481.000000
 42
0.000000
  0
VERTEX
  8
0
 10
267.500000
 20
481.000000
 42
0.000000
  0
VERTEX
  8
0
 10
100.000000
 20
481.000000
 42
0.000000
  0
SEQEND
  0
POLYLINE
  8
0
 66
1
 70
1
  0
VERTEX
  8
0
 10
430.000000
 20
260.500000
 42
0.000000
  0
VERTEX
  8
0
 10
430.000000
 20
45.000000
 42
0.000000
  0
VERTEX
  8
0
 10
267.500000
 20
45.000000
 42
0.000000
  0
VERTEX
  8
0
 10
105.000000
 20
45.000000
 42
0.000000
  0
VERTEX
  8
0
 10
105.000000
 20
260.500000
 42
0.000000
  0
VERTEX
  8
0
 10
105.000000
 20
476.000000
 42
0.000000
  0
VERTEX
  8
0
 10
267.500000
 20
476.000000
 42
0.000000
  0
VERTEX
  8
0
 10
430.000000
 20
476.000000
 42
0.000000
  0
SEQEND
  0
POLYLINE
  8
0
 66
1
 70
1
  0
VERTEX
  8
0
 10
221.250000
 20
431.359475
 42
0.037150
  0
VERTEX
  8
0
 10
220.388699
 20
431.100262
 42
0.049853
  0
VERTEX
  8
0
 10
219.660937
 20
430.734036
 42
0.059853
  0
VERTEX
  8
0
 10
219.158061
 20
430.322860
 42
0.193830
  0
VERTEX
  8
0
 10
219.000000
 20
429.930449
 42
-0.204920
  0
VERTEX
  8
0
 10
218.847856
 20
429.574810
 42
-0.083391
  0
VERTEX
  8
0
 10
218.403281
 20
429.273319
 42
-0.063638
  0
VERTEX
  8
0
 10
217.746248
 20
429.068337
 42
-0.043855
  0
VERTEX
  8
0
 10
216.968615
 20
429.000000
 42
0.068006
  0
VERTEX
  8
0
 10
216.149006
 20
428.888006
 42
0.062710
  0
VERTEX
  8
0
 10
215.364866
 20
428.559375
 42
0.066680
  0
VERTEX
  8
0
 10
214.732868
 20
428.073641
 42
0.104363
  0
VERTEX
  8
0
 10
214.361626
 20
427.500000
 42
-0.072454
  0
VERTEX
  8
0
 10
214.040066
 20
426.926559
 42
-0.063944
  0
VERTEX
  8
0
 10
213.556037
 20
426.440625
 42
-0.066862
  0
VERTEX
  8
0
 10
212.989853
 20
426.111831
 42
-0.098466
  0
VERTEX
  8
0
 10
212.427489
 20
426.000000
 42
0.168415
  0
VERTEX
  8
0
 10
210.931229
 20
425.481302
 42
0.018854
  0
VERTEX
  8
0
 10
208.146143
 20
423.111062
 42
0.017992
  0
VERTEX
  8
0
 10
205.539753
 20
420.538917
 42
0.191291
  0
VERTEX
  8
0
 10
205.000000
 20
419.179726
 42
-0.172635
  0
VERTEX
  8
0
 10
204.583890
 20
418.010474
 42
-0.015965
  0
VERTEX
  8
0
 10
202.536923
 20
415.656390
 42
-0.015248
  0
VERTEX
  8
0
 10
200.342168
 20
413.429582
 42
-0.192878
  0
VERTEX
  8
0
 10
199.269990
 20
413.000000
 42
0.192188
  0
VERTEX
  8
0
 10
198.289997
 20
412.608868
 42
0.032820
  0
VERTEX
  8
0
 10
196.901185
 20
411.105136
 42
0.031371
  0
VERTEX
  8
0
 10
195.409751
 20
409.004278
 42
0.022387
  0
VERTEX
  8
0
 10
194.001594
 20
406.486008
 42
-0.015510
  0
VERTEX
  8
0
 10
193.354414
 20
405.290326
 42
-0.016692
  0
VERTEX
  8
0
 10
192.649127
 20
404.166652
 42
-0.016436
  0
VERTEX
  8
0
 10
191.982530
 20
403.246151
 42
-0.072670
  0
VERTEX
  8
0
 10
191.501594
 20
402.783445
 42
0.215512
  0
VERTEX
  8
0
 10
191.083692
 20
402.062403
 42
0.006663
  0
VERTEX
  8
0
 10
190.777181
 20
398.564880
 42
0.011507
  0
VERTEX
  8
0
 10
190.555412
 20
394.226628
 42
0.006582
  0
VERTEX
  8
0
 10
190.477276
 20
388.982927
 42
-0.004644
  0
VERTEX
  8
0
 10
190.404187
 20
382.352989
 42
-0.020464
  0
VERTEX
  8
0
 10
190.165031
 20
378.452184
 42
-0.031427
  0
VERTEX
  8
0
 10
189.760653
 20
376.023506
 42
-0.199953
  0
VERTEX
  8
0
 10
189.046834
 20
375.028945
 42
0.213084
  0
VERTEX
  8
0
 10
187.686151
 20
373.028618
 42
0.032929
  0
VERTEX
  8
0
 10
187.138751
 20
368.144492
 42
0.034031
  0
VERTEX
  8
0
 10
187.248976
 20
363.193258
 42
0.175547
  0
VERTEX
  8
0
 10
188.392735
 20
360.750122
 42
-0.030133
  0
VERTEX
  8
0
 10
189.007841
 20
360.056044
 42
-0.031127
  0
VERTEX
  8
0
 10
189.527866
 20
359.300259
 42
-0.032762
  0
VERTEX
  8
0
 10
189.891831
 20
358.592412
 42
-0.102717
  0
VERTEX
  8
0
 10
190.000000
 20
358.071429
 42
0.141560
  0
VERTEX
  8
0
 10
190.118042
 20
357.662851
 42
0.099780
  0
VERTEX
  8
0
 10
190.449844
 20
357.314732
 42
0.084710
  0
VERTEX
  8
0
 10
190.946049
 20
357.080236
 42
0.068219
  0
VERTEX
  8
0
 10
191.531385
 20
357.000000
 42
-0.088478
  0
VERTEX
  8
0
 10
192.159833
 20
356.887915
 42
-0.066520
  0
VERTEX
  8
0
 10
192.782009
 20
356.559375
 42
-0.065663
  0
VERTEX
  8
0
 10
193.303843
 20
356.073415
 42
-0.081035
  0
VERTEX
  8
0
 10
193.638374
 20
355.500000
 42
0.140603
  0
VERTEX
  8
0
 10
194.106176
 20
354.879217
 42
0.071188
  0
VERTEX
  8
0
 10
194.970794
 20
354.402932
 42
0.056009
  0
VERTEX
  8
0
 10
196.161436
 20
354.099587
 42
0.034405
  0
VERTEX
  8
0
 10
197.606989
 20
354.000000
 42
-0.024578
  0
VERTEX
  8
0
 10
199.307399
 20
353.916365
 42
-0.100386
  0
VERTEX
  8
0
 10
200.290738
 20
353.613912
 42
-0.166135
  0
VERTEX
  8
0
 10
200.812601
 20
353.045851
 42
-0.103814
  0
VERTEX
  8
0
 10
201.000000
 20
352.153010
 42
0.078659
  0
VERTEX
  8
0
 10
201.138802
 20
351.276166
 42
0.031468
  0
VERTEX
  8
0
 10
201.587463
 20
350.142689
 42
0.030177
  0
VERTEX
  8
0
 10
202.234487
 20
348.958755
 42
0.033412
  0
VERTEX
  8
0
 10
202.999875
 20
347.903010
 42
0.005907
  0
VERTEX
  8
0
 10
207.013038
 20
343.195113
 42
0.013936
  0
VERTEX
  8
0
 10
210.142083
 20
339.806461
 42
0.011877
  0
VERTEX
  8
0
 10
212.585279
 20
337.420320
 42
0.189084
  0
VERTEX
  8
0
 10
213.643011
 20
337.002653
 42
-0.113972
  0
VERTEX
  8
0
 10
214.122904
 20
336.890651
 42
-0.065645
  0
VERTEX
  8
0
 10
214.619347
 20
336.560154
 42
-0.060269
  0
VERTEX
  8
0
 10
215.056344
 20
336.073754
 42
-0.061364
  0
VERTEX
  8
0
 10
215.361626
 20
335.500000
 42
0.081035
  0
VERTEX
  8
0
 10
215.696157
 20
334.926585
 42
0.065663
  0
VERTEX
  8
0
 10
216.217991
 20
334.440625
 42
0.066520
  0
VERTEX
  8
0
 10
216.840167
 20
334.112085
 42
0.088478
  0
VERTEX
  8
0
 10
217.468615
 20
334.000000
 42
-0.058194
  0
VERTEX
  8
0
 10
218.054313
 20
333.931601
 42
-0.077336
  0
VERTEX
  8
0
 10
218.550156
 20
333.729590
 42
-0.096073
  0
VERTEX
  8
0
 10
218.882379
 20
333.430598
 42
-0.163031
  0
VERTEX
  8
0
 10
219.000000
 20
333.079455
 42
0.239872
  0
VERTEX
  8
0
 10
219.203927
 20
332.678839
 42
0.041348
  0
VERTEX
  8
0
 10
219.954688
 20
332.222201
 42
0.037139
  0
VERTEX
  8
0
 10
221.005091
 20
331.790970
 42
0.025424
  0
VERTEX
  8
0
 10
222.250000
 20
331.453823
 42
-0.025540
  0
VERTEX
  8
0
 10
223.545580
 20
331.102631
 42
-0.028455
  0
VERTEX
  8
0
 10
224.751419
 20
330.631221
 42
-0.029502
  0
VERTEX
  8
0
 10
225.720417
 20
330.116171
 42
-0.114896
  0
VERTEX
  8
0
 10
226.201640
 20
329.643599
 42
0.251556
  0
VERTEX
  8
0
 10
228.126253
 20
328.561405
 42
0.006116
  0
VERTEX
  8
0
 10
238.661508
 20
328.486447
 42
0.005564
  0
VERTEX
  8
0
 10
249.259136
 20
328.658608
 42
0.315283
  0
VERTEX
  8
0
 10
250.756410
 20
329.769231
 42
-0.143947
  0
VERTEX
  8
0
 10
251.084304
 20
330.240701
 42
-0.064367
  0
VERTEX
  8
0
 10
251.735068
 20
330.638462
 42
-0.056042
  0
VERTEX
  8
0
 10
252.584371
 20
330.908744
 42
-0.049074
  0
VERTEX
  8
0
 10
253.511905
 20
331.000000
 42
0.050262
  0
VERTEX
  8
0
 10
254.510201
 20
331.100606
 42
0.038047
  0
VERTEX
  8
0
 10
255.570099
 20
331.401870
 42
0.038968
  0
VERTEX
  8
0
 10
256.531296
 20
331.843729
 42
0.069264
  0
VERTEX
  8
0
 10
257.225211
 20
332.368068
 42
-0.042607
  0
VERTEX
  8
0
 10
257.907267
 20
332.942831
 42
-0.022588
  0
VERTEX
  8
0
 10
258.838646
 20
333.539692
 42
-0.022315
  0
VERTEX
  8
0
 10
259.852975
 20
334.067910
 42
-0.032051
  0
VERTEX
  8
0
 10
260.796640
 20
334.435456
 42
0.036046
  0
VERTEX
  8
0
 10
261.640021
 20
334.771720
 42
0.046543
  0
VERTEX
  8
0
 10
262.352763
 20
335.203305
 42
0.054201
  0
VERTEX
  8
0
 10
262.847568
 20
335.660387
 42
0.181120
  0
VERTEX
  8
0
 10
263.000000
 20
336.067388
 42
-0.114881
  0
VERTEX
  8
0
 10
263.082830
 20
336.423133
 42
-0.100397
  0
VERTEX
  8
0
 10
263.316780
 20
336.726045
 42
-0.093563
  0
VERTEX
  8
0
 10
263.666591
 20
336.929339
 42
-0.085171
  0
VERTEX
  8
0
 10
264.078401
 20
337.000000
 42
0.195256
  0
VERTEX
  8
0
 10
265.714082
 20
337.664071
 42
0.014340
  0
VERTEX
  8
0
 10
269.157767
 20
341.209806
 42
0.020436
  0
VERTEX
  8
0
 10
272.396568
 20
345.045273
 42
0.060992
  0
VERTEX
  8
0
 10
274.155666
 20
347.989546
 42
-0.017556
  0
VERTEX
  8
0
 10
274.715366
 20
349.142827
 42
-0.025388
  0
VERTEX
  8
0
 10
275.295487
 20
350.115679
 42
-0.023294
  0
VERTEX
  8
0
 10
275.829446
 20
350.840308
 42
-0.226028
  0
VERTEX
  8
0
 10
276.164656
 20
351.000000
 42
0.263129
  0
VERTEX
  8
0
 10
276.465543
 20
351.170123
 42
0.030716
  0
VERTEX
  8
0
 10
276.835942
 20
351.881250
 42
0.030468
  0
VERTEX
  8
0
 10
277.198429
 20
352.850545
 42
0.020189
  0
VERTEX
  8
0
 10
277.500000
 20
354.000000
 42
-0.027524
  0
VERTEX
  8
0
 10
277.819532
 20
355.149012
 42
-0.039605
  0
VERTEX
  8
0
 10
278.235766
 20
356.118750
 42
-0.045180
  0
VERTEX
  8
0
 10
278.681210
 20
356.806252
 42
-0.230346
  0
VERTEX
  8
0
 10
279.079455
 20
357.000000
 42
0.115642
  0
VERTEX
  8
0
 10
279.430591
 20
357.082313
 42
0.100455
  0
VERTEX
  8
0
 10
279.729590
 20
357.314732
 42
0.093328
  0
VERTEX
  8
0
 10
279.930278
 20
357.662269
 42
0.084592
  0
VERTEX
  8
0
 10
280.000000
 20
358.071429
 42
-0.147453
  0
VERTEX
  8
0
 10
280.342046
 20
359.206061
 42
-0.049993
  0
VERTEX
  8
0
 10
281.445107
 20
360.554893
 42
-0.049993
  0
VERTEX
  8
0
 10
282.793939
 20
361.657954
 42
-0.147453
  0
VERTEX
  8
0
 10
283.928571
 20
362.000000
 42
0.131281
  0
VERTEX
  8
0
 10
284.337161
 20
362.109162
 42
0.100621
  0
VERTEX
  8
0
 10
284.685268
 20
362.416146
 42
0.088221
  0
VERTEX
  8
0
 10
284.919422
 20
362.875362
 42
0.074022
  0
VERTEX
  8
0
 10
285.000000
 20
363.416667
 42
-0.081237
  0
VERTEX
  8
0
 10
285.093665
 20
363.989350
 42
-0.068653
  0
VERTEX
  8
0
 10
285.367188
 20
364.539583
 42
-0.070115
  0
VERTEX
  8
0
 10
285.772237
 20
364.984598
 42
-0.092923
  0
VERTEX
  8
0
 10
286.250000
 20
365.250000
 42
0.300754
  0
VERTEX
  8
0
 10
287.502067
 20
366.847548
 42
0.032567
  0
VERTEX
  8
0
 10
287.577616
 20
371.771535
 42
0.036315
  0
VERTEX
  8
0
 10
286.952432
 20
376.855121
 42
0.131944
  0
VERTEX
  8
0
 10
285.527759
 20
379.750000
 42
0.027957
  0
VERTEX
  8
0
 10
284.683295
 20
380.611162
 42
0.031238
  0
VERTEX
  8
0
 10
283.777309
 20
381.339063
 42
0.032863
  0
VERTEX
  8
0
 10
282.937491
 20
381.852427
 42
0.121333
  0
VERTEX
  8
0
 10
282.338311
 20
382.000000
 42
-0.298028
  0
VERTEX
  8
0
 10
281.773989
 20
382.369156
 42
-0.036576
  0
VERTEX
  8
0
 10
281.258947
 20
383.829386
 42
-0.029564
  0
VERTEX
  8
0
 10
280.800374
 20
386.014506
 42
-0.012383
  0
VERTEX
  8
0
 10
280.431341
 20
389.000000
 42
0.009895
  0
VERTEX
  8
0
 10
280.113172
 20
391.683619
 42
0.016121
  0
VERTEX
  8
0
 10
279.725121
 20
393.943750
 42
0.009977
  0
VERTEX
  8
0
 10
279.317396
 20
395.748172
 42
0.344934
  0
VERTEX
  8
0
 10
278.995790
 20
396.000000
 42
-0.261713
  0
VERTEX
  8
0
 10
278.669047
 20
396.183601
 42
-0.033671
  0
VERTEX
  8
0
 10
278.284466
 20
396.923046
 42
-0.032300
  0
VERTEX
  8
0
 10
277.916496
 20
397.938353
 42
-0.021435
  0
VERTEX
  8
0
 10
277.621543
 20
399.142285
 42
0.037754
  0
VERTEX
  8
0
 10
277.260305
 20
400.433123
 42
0.033240
  0
VERTEX
  8
0
 10
276.696572
 20
401.713330
 42
0.034733
  0
VERTEX
  8
0
 10
276.028474
 20
402.801340
 42
0.079994
  0
VERTEX
  8
0
 10
275.355221
 20
403.482207
 42
-0.086284
  0
VERTEX
  8
0
 10
274.605724
 20
404.259362
 42
-0.100782
  0
VERTEX
  8
0
 10
274.212544
 20
405.204416
 42
-0.071003
  0
VERTEX
  8
0
 10
274.146496
 20
406.483224
 42
-0.023824
  0
VERTEX
  8
0
 10
274.403991
 20
408.339921
 42
-0.021704
  0
VERTEX
  8
0
 10
274.730632
 20
409.742249
 42
-0.032783
  0
VERTEX
  8
0
 10
275.146026
 20
410.924852
 42
-0.034477
  0
VERTEX
  8
0
 10
275.585247
 20
411.784695
 42
-0.263242
  0
VERTEX
  8
0
 10
275.965858
 20
412.000000
 42
0.236123
  0
VERTEX
  8
0
 10
276.346238
 20
412.190240
 42
0.042671
  0
VERTEX
  8
0
 10
276.777545
 20
412.881250
 42
0.037990
  0
VERTEX
  8
0
 10
277.183817
 20
413.850903
 42
0.026161
  0
VERTEX
  8
0
 10
277.500000
 20
415.000000
 42
-0.027524
  0
VERTEX
  8
0
 10
277.819532
 20
416.149012
 42
-0.039605
  0
VERTEX
  8
0
 10
278.235766
 20
417.118750
 42
-0.045180
  0
VERTEX
  8
0
 10
278.681210
 20
417.806252
 42
-0.230346
  0
VERTEX
  8
0
 10
279.079455
 20
418.000000
 42
0.358908
  0
VERTEX
  8
0
 10
279.443245
 20
418.299746
 42
0.015422
  0
VERTEX
  8
0
 10
279.729590
 20
420.056250
 42
0.020344
  0
VERTEX
  8
0
 10
279.933711
 20
422.316276
 42
0.012348
  0
VERTEX
  8
0
 10
280.000000
 20
425.000000
 42
0.005651
  0
VERTEX
  8
0
 10
279.949535
 20
429.464925
 42
0.079153
  0
VERTEX
  8
0
 10
279.661971
 20
431.040008
 42
0.225780
  0
VERTEX
  8
0
 10
278.951991
 20
431.753869
 42
0.086215
  0
VERTEX
  8
0
 10
277.535184
 20
432.000000
 42
0.067070
  0
VERTEX
  8
0
 10
276.476687
 20
431.857372
 42
0.061821
  0
VERTEX
  8
0
 10
275.461803
 20
431.438580
 42
0.063312
  0
VERTEX
  8
0
 10
274.602331
 20
430.796922
 42
0.078068
  0
VERTEX
  8
0
 10
274.000000
 20
430.000000
 42
-0.049182
  0
VERTEX
  8
0
 10
273.488113
 20
429.234958
 42
-0.049686
  0
VERTEX
  8
0
 10
272.838242
 20
428.587500
 42
-0.054440
  0
VERTEX
  8
0
 10
272.154924
 20
428.144218
 42
-0.117208
  0
VERTEX
  8
0
 10
271.548150
 20
428.000000
 42
0.083155
  0
VERTEX
  8
0
 10
270.988804
 20
427.906327
 42
0.068916
  0
VERTEX
  8
0
 10
270.449649
 20
427.632812
 42
0.069863
  0
VERTEX
  8
0
 10
270.011865
 20
427.227758
 42
0.090723
  0
VERTEX
  8
0
 10
269.748527
 20
426.750000
 42
-0.307037
  0
VERTEX
  8
0
 10
268.328835
 20
425.665841
 42
-0.012899
  0
VERTEX
  8
0
 10
261.651565
 20
425.461532
 42
-0.013823
  0
VERTEX
  8
0
 10
254.991292
 20
425.613763
 42
-0.246520
  0
VERTEX
  8
0
 10
253.203381
 20
426.670716
 42
0.104896
  0
VERTEX
  8
0
 10
252.725545
 20
427.170930
 42
0.031377
  0
VERTEX
  8
0
 10
251.814162
 20
427.712928
 42
0.029945
  0
VERTEX
  8
0
 10
250.687599
 20
428.207810
 42
0.028394
  0
VERTEX
  8
0
 10
249.489983
 20
428.574688
 42
-0.023197
  0
VERTEX
  8
0
 10
248.299183
 20
428.925991
 42
-0.026107
  0
VERTEX
  8
0
 10
247.193302
 20
429.374717
 42
-0.026671
  0
VERTEX
  8
0
 10
246.303669
 20
429.850375
 42
-0.111997
  0
VERTEX
  8
0
 10
245.870194
 20
430.268511
 42
0.237933
  0
VERTEX
  8
0
 10
244.574097
 20
431.016248
 42
0.002952
  0
VERTEX
  8
0
 10
234.715081
 20
431.511463
 42
0.007210
  0
VERTEX
  8
0
 10
225.463504
 20
431.787820
 42
0.058443
  0
SEQEND
  0
POLYLINE
  8
0
 66
1
 70
1
  0
VERTEX
  8
0
 10
217.735649
 20
399.766580
 42
-0.015082
  0
VERTEX
  8
0
 10
219.612197
 20
399.219882
 42
-0.019024
  0
VERTEX
  8
0
 10
221.310070
 20
398.596857
 42
-0.017393
  0
VERTEX
  8
0
 10
222.671707
 20
397.981396
 42
-0.125529
  0
VERTEX
  8
0
 10
223.213525
 20
397.516580
 42
0.242447
  0
VERTEX
  8
0
 10
225.171688
 20
396.489438
 42
0.002898
  0
VERTEX
  8
0
 10
240.046104
 20
396.465967
 42
0.002811
  0
VERTEX
  8
0
 10
254.946980
 20
396.612607
 42
0.255810
  0
VERTEX
  8
0
 10
256.788766
 20
397.658217
 42
-0.128113
  0
VERTEX
  8
0
 10
257.305184
 20
398.151396
 42
-0.028696
  0
VERTEX
  8
0
 10
258.410660
 20
398.685635
 42
-0.027970
  0
VERTEX
  8
0
 10
259.797571
 20
399.171360
 42
-0.023880
  0
VERTEX
  8
0
 10
261.304918
 20
399.529380
 42
-0.029580
  0
VERTEX
  8
0
 10
263.557486
 20
399.815411
 42
-0.108786
  0
VERTEX
  8
0
 10
264.969335
 20
399.602670
 42
-0.097822
  0
VERTEX
  8
0
 10
266.241266
 20
398.802927
 42
-0.021416
  0
VERTEX
  8
0
 10
268.052626
 20
396.941055
 42
-0.018241
  0
VERTEX
  8
0
 10
269.181035
 20
395.580356
 42
-0.022033
  0
VERTEX
  8
0
 10
270.134209
 20
394.221814
 42
-0.021349
  0
VERTEX
  8
0
 10
270.825856
 20
393.027875
 42
-0.121180
  0
VERTEX
  8
0
 10
271.000000
 20
392.319892
 42
0.061905
  0
VERTEX
  8
0
 10
271.062727
 20
391.815200
 42
0.080268
  0
VERTEX
  8
0
 10
271.247253
 20
391.387718
 42
0.097836
  0
VERTEX
  8
0
 10
271.520697
 20
391.101594
 42
0.154462
  0
VERTEX
  8
0
 10
271.841712
 20
391.000000
 42
-0.309547
  0
VERTEX
  8
0
 10
272.653719
 20
390.444017
 42
-0.015239
  0
VERTEX
  8
0
 10
273.792790
 20
387.219301
 42
-0.023743
  0
VERTEX
  8
0
 10
274.712488
 20
383.784194
 42
-0.053582
  0
VERTEX
  8
0
 10
275.000000
 20
381.108980
 42
0.081751
  0
VERTEX
  8
0
 10
275.173277
 20
380.056280
 42
0.127596
  0
VERTEX
  8
0
 10
275.674101
 20
379.292025
 42
0.099030
  0
VERTEX
  8
0
 10
276.589667
 20
378.743878
 42
0.036178
  0
VERTEX
  8
0
 10
278.052083
 20
378.339583
 42
-0.043562
  0
VERTEX
  8
0
 10
279.572949
 20
377.894889
 42
-0.098502
  0
VERTEX
  8
0
 10
280.579873
 20
377.252456
 42
-0.102640
  0
VERTEX
  8
0
 10
281.239509
 20
376.292307
 42
-0.050041
  0
VERTEX
  8
0
 10
281.677083
 20
374.864583
 42
0.035492
  0
VERTEX
  8
0
 10
281.978960
 20
373.766783
 42
0.048391
  0
VERTEX
  8
0
 10
282.412174
 20
372.836973
 42
0.058036
  0
VERTEX
  8
0
 10
282.902718
 20
372.189900
 42
0.200780
  0
VERTEX
  8
0
 10
283.375000
 20
371.984687
 42
-0.034780
  0
VERTEX
  8
0
 10
283.862633
 20
371.944050
 42
-0.379361
  0
VERTEX
  8
0
 10
283.978558
 20
371.804431
 42
-0.227357
  0
VERTEX
  8
0
 10
283.869464
 20
371.594547
 42
-0.018880
  0
VERTEX
  8
0
 10
283.350815
 20
371.234687
 42
0.103171
  0
VERTEX
  8
0
 10
282.884675
 20
370.778654
 42
0.039154
  0
VERTEX
  8
0
 10
282.436151
 20
369.981439
 42
0.036705
  0
VERTEX
  8
0
 10
282.069908
 20
369.010875
 42
0.037026
  0
VERTEX
  8
0
 10
281.850815
 20
368.000000
 42
-0.058837
  0
VERTEX
  8
0
 10
281.522234
 20
366.749520
 42
-0.127964
  0
VERTEX
  8
0
 10
280.942536
 20
365.952842
 42
-0.110425
  0
VERTEX
  8
0
 10
279.985199
 20
365.469850
 42
-0.037475
  0
VERTEX
  8
0
 10
278.439916
 20
365.200806
 42
0.056239
  0
VERTEX
  8
0
 10
276.648563
 20
364.819323
 42
0.163216
  0
VERTEX
  8
0
 10
275.650214
 20
364.067026
 42
0.089418
  0
VERTEX
  8
0
 10
274.975938
 20
362.569586
 42
0.010262
  0
VERTEX
  8
0
 10
274.150712
 20
358.950806
 42
-0.013499
  0
VERTEX
  8
0
 10
273.615038
 20
356.669987
 42
-0.021237
  0
VERTEX
  8
0
 10
273.020208
 20
354.748049
 42
-0.016685
  0
VERTEX
  8
0
 10
272.435721
 20
353.267428
 42
-0.298808
  0
VERTEX
  8
0
 10
272.028184
 20
353.000000
 42
0.174060
  0
VERTEX
  8
0
 10
271.640837
 20
352.860944
 42
0.056730
  0
VERTEX
  8
0
 10
271.212278
 20
352.417317
 42
0.048565
  0
VERTEX
  8
0
 10
270.811960
 20
351.775573
 42
0.038356
  0
VERTEX
  8
0
 10
270.505205
 20
351.016400
 42
-0.098140
  0
VERTEX
  8
0
 10
269.354701
 20
348.925272
 42
-0.013636
  0
VERTEX
  8
0
 10
266.052900
 20
345.205236
 42
-0.009766
  0
VERTEX
  8
0
 10
262.512051
 20
341.573348
 42
-0.197136
  0
VERTEX
  8
0
 10
261.114367
 20
341.000000
 42
0.124801
  0
VERTEX
  8
0
 10
260.669230
 20
340.887135
 42
0.018558
  0
VERTEX
  8
0
 10
259.866078
 20
340.412500
 42
0.019923
  0
VERTEX
  8
0
 10
258.942161
 20
339.765789
 42
0.015977
  0
VERTEX
  8
0
 10
258.000000
 20
339.000000
 42
-0.024584
  0
VERTEX
  8
0
 10
257.024374
 20
338.234505
 42
-0.026365
  0
VERTEX
  8
0
 10
256.000175
 20
337.587500
 42
-0.027172
  0
VERTEX
  8
0
 10
255.068263
 20
337.129994
 42
-0.100849
  0
VERTEX
  8
0
 10
254.430324
 20
337.000000
 42
0.090348
  0
VERTEX
  8
0
 10
253.916123
 20
336.906321
 42
0.069907
  0
VERTEX
  8
0
 10
253.415470
 20
336.632812
 42
0.069061
  0
VERTEX
  8
0
 10
253.003955
 20
336.227754
 42
0.083607
  0
VERTEX
  8
0
 10
252.750000
 20
335.750000
 42
-0.316673
  0
VERTEX
  8
0
 10
251.163490
 20
334.579390
 42
-0.004860
  0
VERTEX
  8
0
 10
239.158442
 20
334.428151
 42
-0.005328
  0
VERTEX
  8
0
 10
227.221701
 20
334.520991
 42
-0.255019
  0
VERTEX
  8
0
 10
225.203509
 20
335.670716
 42
0.098868
  0
VERTEX
  8
0
 10
224.739487
 20
336.168141
 42
0.032652
  0
VERTEX
  8
0
 10
223.887637
 20
336.699544
 42
0.031044
  0
VERTEX
  8
0
 10
222.841911
 20
337.179644
 42
0.030617
  0
VERTEX
  8
0
 10
221.739983
 20
337.529124
 42
-0.028761
  0
VERTEX
  8
0
 10
220.690683
 20
337.857636
 42
-0.040512
  0
VERTEX
  8
0
 10
219.804870
 20
338.276712
 42
-0.046356
  0
VERTEX
  8
0
 10
219.179103
 20
338.719234
 42
-0.219064
  0
VERTEX
  8
0
 10
219.000000
 20
339.108408
 42
0.118690
  0
VERTEX
  8
0
 10
218.918121
 20
339.448477
 42
0.100640
  0
VERTEX
  8
0
 10
218.687179
 20
339.738095
 42
0.092370
  0
VERTEX
  8
0
 10
218.341798
 20
339.932567
 42
0.082336
  0
VERTEX
  8
0
 10
217.935076
 20
340.000000
 42
-0.196742
  0
VERTEX
  8
0
 10
216.262299
 20
340.684714
 42
-0.009104
  0
VERTEX
  8
0
 10
211.876331
 20
345.157974
 42
-0.009497
  0
VERTEX
  8
0
 10
207.673120
 20
349.776596
 42
-0.181802
  0
VERTEX
  8
0
 10
207.000000
 20
351.566655
 42
0.060313
  0
VERTEX
  8
0
 10
206.933640
 20
352.114783
 42
0.079040
  0
VERTEX
  8
0
 10
206.738095
 20
352.578955
 42
0.097142
  0
VERTEX
  8
0
 10
206.448468
 20
352.889759
 42
0.158041
  0
VERTEX
  8
0
 10
206.108408
 20
353.000000
 42
-0.219064
  0
VERTEX
  8
0
 10
205.719234
 20
353.179103
 42
-0.046356
  0
VERTEX
  8
0
 10
205.276712
 20
353.804870
 42
-0.040512
  0
VERTEX
  8
0
 10
204.857636
 20
354.690683
 42
-0.028761
  0
VERTEX
  8
0
 10
204.529124
 20
355.739983
 42
0.056843
  0
VERTEX
  8
0
 10
203.716881
 20
357.901381
 42
0.135826
  0
VERTEX
  8
0
 10
202.567242
 20
359.152809
 42
0.109168
  0
VERTEX
  8
0
 10
200.762733
 20
359.791724
 42
0.029699
  0
VERTEX
  8
0
 10
197.725000
 20
359.984687
 42
-0.022767
  0
VERTEX
  8
0
 10
195.552455
 20
360.092495
 42
-0.127774
  0
VERTEX
  8
0
 10
194.468395
 20
360.487322
 42
-0.155181
  0
VERTEX
  8
0
 10
193.823119
 20
361.319714
 42
-0.038553
  0
VERTEX
  8
0
 10
193.350000
 20
363.000000
 42
0.026378
  0
VERTEX
  8
0
 10
193.056411
 20
364.149121
 42
0.038538
  0
VERTEX
  8
0
 10
192.669219
 20
365.118750
 42
0.043640
  0
VERTEX
  8
0
 10
192.251631
 20
365.808829
 42
0.239262
  0
VERTEX
  8
0
 10
191.875000
 20
366.000000
 42
-0.167478
  0
VERTEX
  8
0
 10
191.541190
 20
366.115038
 42
-0.095027
  0
VERTEX
  8
0
 10
191.257031
 20
366.440625
 42
-0.075828
  0
VERTEX
  8
0
 10
191.064921
 20
366.926241
 42
-0.056395
  0
VERTEX
  8
0
 10
191.000000
 20
367.500000
 42
-0.056959
  0
VERTEX
  8
0
 10
191.065572
 20
368.073739
 42
-0.076307
  0
VERTEX
  8
0
 10
191.259490
 20
368.559375
 42
-0.095369
  0
VERTEX
  8
0
 10
191.546380
 20
368.884904
 42
-0.166062
  0
VERTEX
  8
0
 10
191.883369
 20
369.000000
 42
0.181596
  0
VERTEX
  8
0
 10
192.259476
 20
369.141258
 42
0.059916
  0
VERTEX
  8
0
 10
192.660882
 20
369.587500
 42
0.050447
  0
VERTEX
  8
0
 10
193.024544
 20
370.234516
 42
0.038887
  0
VERTEX
  8
0
 10
193.289749
 20
371.000000
 42
-0.096447
  0
VERTEX
  8
0
 10
193.763706
 20
371.985999
 42
-0.131146
  0
VERTEX
  8
0
 10
194.534170
 20
372.595918
 42
-0.081615
  0
VERTEX
  8
0
 10
195.794227
 20
372.912220
 42
-0.020771
  0
VERTEX
  8
0
 10
197.906380
 20
373.000000
 42
0.015576
  0
VERTEX
  8
0
 10
200.262752
 20
373.073422
 42
0.117207
  0
VERTEX
  8
0
 10
201.322336
 20
373.396143
 42
0.201386
  0
VERTEX
  8
0
 10
201.837279
 20
374.081531
 42
0.061800
  0
VERTEX
  8
0
 10
202.000000
 20
375.393011
 42
-0.058092
  0
VERTEX
  8
0
 10
202.111675
 20
376.350960
 42
-0.059009
  0
VERTEX
  8
0
 10
202.440625
 20
377.252159
 42
-0.065064
  0
VERTEX
  8
0
 10
202.925958
 20
377.964910
 42
-0.119725
  0
VERTEX
  8
0
 10
203.500000
 20
378.361626
 42
0.081035
  0
VERTEX
  8
0
 10
204.073415
 20
378.696157
 42
0.065663
  0
VERTEX
  8
0
 10
204.559375
 20
379.217991
 42
0.066520
  0
VERTEX
  8
0
 10
204.887915
 20
379.840167
 42
0.088478
  0
VERTEX
  8
0
 10
205.000000
 20
380.468615
 42
-0.060121
  0
VERTEX
  8
0
 10
205.070673
 20
381.054242
 42
-0.078889
  0
VERTEX
  8
0
 10
205.278968
 20
381.550156
 42
-0.097052
  0
VERTEX
  8
0
 10
205.587459
 20
381.882232
 42
-0.158482
  0
VERTEX
  8
0
 10
205.949677
 20
382.000000
 42
0.297368
  0
VERTEX
  8
0
 10
206.378566
 20
382.279819
 42
0.018377
  0
VERTEX
  8
0
 10
206.967138
 20
383.762500
 42
0.022435
  0
VERTEX
  8
0
 10
207.558693
 20
385.700378
 42
0.014290
  0
VERTEX
  8
0
 10
208.079783
 20
388.000000
 42
-0.013086
  0
VERTEX
  8
0
 10
208.595084
 20
390.299741
 42
-0.020673
  0
VERTEX
  8
0
 10
209.168991
 20
392.237500
 42
-0.015888
  0
VERTEX
  8
0
 10
209.734794
 20
393.735897
 42
-0.303312
  0
VERTEX
  8
0
 10
210.130105
 20
394.000000
 42
0.296628
  0
VERTEX
  8
0
 10
210.466923
 20
394.219098
 42
0.043464
  0
VERTEX
  8
0
 10
210.744468
 20
395.028125
 42
0.037465
  0
VERTEX
  8
0
 10
210.937034
 20
396.158665
 42
0.023459
  0
VERTEX
  8
0
 10
211.000000
 20
397.500000
 42
-0.037851
  0
VERTEX
  8
0
 10
211.182468
 20
399.906892
 42
-0.280762
  0
VERTEX
  8
0
 10
211.890498
 20
400.749609
 42
-0.137280
  0
VERTEX
  8
0
 10
213.355728
 20
400.825499
 42
-0.008055
  0
SEQEND
  0
POLYLINE
  8
0
 66
1
 70
1
  0
VERTEX
  8
0
 10
309.542247
 20
415.068358
 42
0.159549
  0
VERTEX
  8
0
 10
309.146227
 20
413.429812
 42
0.010660
  0
VERTEX
  8
0
 10
309.637803
 20
408.560276
 42
0.007517
  0
VERTEX
  8
0
 10
310.321358
 20
403.600676
 42
0.370364
  0
VERTEX
  8
0
 10
311.021050
 20
403.000000
 42
-0.207878
  0
VERTEX
  8
0
 10
311.345319
 20
402.859095
 42
-0.049812
  0
VERTEX
  8
0
 10
311.709420
 20
402.381552
 42
-0.042914
  0
VERTEX
  8
0
 10
312.051893
 20
401.700790
 42
-0.031148
  0
VERTEX
  8
0
 10
312.317300
 20
400.894644
 42
0.060952
  0
VERTEX
  8
0
 10
312.626856
 20
400.114027
 42
0.087537
  0
VERTEX
  8
0
 10
313.090041
 20
399.534065
 42
0.110469
  0
VERTEX
  8
0
 10
313.634561
 20
399.235031
 42
0.155976
  0
VERTEX
  8
0
 10
314.183932
 20
399.250031
 42
0.306076
  0
VERTEX
  8
0
 10
315.151859
 20
400.550069
 42
0.015892
  0
VERTEX
  8
0
 10
315.229627
 20
406.037540
 42
0.016012
  0
VERTEX
  8
0
 10
314.957327
 20
411.519424
 42
0.295674
  0
VERTEX
  8
0
 10
313.944694
 20
412.833333
 42
-0.116889
  0
VERTEX
  8
0
 10
313.583340
 20
413.065936
 42
-0.067890
  0
VERTEX
  8
0
 10
313.277504
 20
413.484896
 42
-0.061969
  0
VERTEX
  8
0
 10
313.070449
 20
414.016808
 42
-0.061938
  0
VERTEX
  8
0
 10
313.000000
 20
414.583333
 42
0.208361
  0
VERTEX
  8
0
 10
312.606050
 20
415.487647
 42
0.153629
  0
VERTEX
  8
0
 10
311.607852
 20
415.962755
 42
0.134350
  0
VERTEX
  8
0
 10
310.410910
 20
415.809023
 42
0.156864
  0
SEQEND
  0
POLYLINE
  8
0
 66
1
 70
1
  0
VERTEX
  8
0
 10
332.755459
 20
412.922126
 42
0.063173
  0
VERTEX
  8
0
 10
332.011872
 20
411.866469
 42
0.021981
  0
VERTEX
  8
0
 10
331.211985
 20
410.182843
 42
0.021427
  0
VERTEX
  8
0
 10
330.484913
 20
408.231861
 42
0.023358
  0
VERTEX
  8
0
 10
329.950861
 20
406.280733
 42
-0.017724
  0
VERTEX
  8
0
 10
329.463864
 20
404.419429
 42
-0.022362
  0
VERTEX
  8
0
 10
328.876844
 20
402.738961
 42
-0.021228
  0
VERTEX
  8
0
 10
328.275132
 20
401.403185
 42
-0.138765
  0
VERTEX
  8
0
 10
327.783223
 20
400.866024
 42
0.140304
  0
VERTEX
  8
0
 10
327.408445
 20
400.454281
 42
0.174675
  0
VERTEX
  8
0
 10
327.350067
 20
399.943446
 42
0.104757
  0
VERTEX
  8
0
 10
327.650177
 20
399.307334
 42
0.033969
  0
VERTEX
  8
0
 10
328.337821
 20
398.519322
 42
0.029221
  0
VERTEX
  8
0
 10
329.290084
 20
397.672303
 42
0.144843
  0
VERTEX
  8
0
 10
329.948461
 20
397.408682
 42
0.174467
  0
VERTEX
  8
0
 10
330.574818
 20
397.570141
 42
0.046949
  0
VERTEX
  8
0
 10
331.378078
 20
398.235221
 42
0.064385
  0
VERTEX
  8
0
 10
331.956482
 20
398.985419
 42
0.025333
  0
VERTEX
  8
0
 10
332.557375
 20
400.146535
 42
0.024567
  0
VERTEX
  8
0
 10
333.087733
 20
401.482984
 42
0.028120
  0
VERTEX
  8
0
 10
333.457533
 20
402.806649
 42
-0.022786
  0
VERTEX
  8
0
 10
333.785294
 20
404.030024
 42
-0.033830
  0
VERTEX
  8
0
 10
334.191446
 20
405.061953
 42
-0.036081
  0
VERTEX
  8
0
 10
334.613665
 20
405.808472
 42
-0.251068
  0
VERTEX
  8
0
 10
334.971047
 20
406.000000
 42
0.309392
  0
VERTEX
  8
0
 10
335.793017
 20
406.562463
 42
0.040446
  0
VERTEX
  8
0
 10
336.431634
 20
408.704502
 42
0.042965
  0
VERTEX
  8
0
 10
336.734968
 20
411.157773
 42
0.086332
  0
VERTEX
  8
0
 10
336.473009
 20
413.085042
 42
0.055421
  0
VERTEX
  8
0
 10
335.875256
 20
414.430579
 42
0.278320
  0
VERTEX
  8
0
 10
335.181902
 20
414.808554
 42
0.175448
  0
VERTEX
  8
0
 10
334.266267
 20
414.430939
 42
0.023114
  0
SEQEND
  0
POLYLINE
  8
0
 66
1
 70
1
  0
VERTEX
  8
0
 10
349.750000
 20
396.310674
 42
0.046657
  0
VERTEX
  8
0
 10
349.080469
 20
396.067143
 42
0.056820
  0
VERTEX
  8
0
 10
348.514063
 20
395.715479
 42
0.067019
  0
VERTEX
  8
0
 10
348.127374
 20
395.314950
 42
0.159836
  0
VERTEX
  8
0
 10
348.000000
 20
394.926676
 42
-0.152039
  0
VERTEX
  8
0
 10
347.889994
 20
394.573269
 42
-0.098269
  0
VERTEX
  8
0
 10
347.580357
 20
394.272211
 42
-0.081101
  0
VERTEX
  8
0
 10
347.117639
 20
394.069119
 42
-0.063020
  0
VERTEX
  8
0
 10
346.571429
 20
394.000000
 42
0.075462
  0
VERTEX
  8
0
 10
345.925485
 20
393.901954
 42
0.038439
  0
VERTEX
  8
0
 10
345.160630
 20
393.598130
 42
0.037085
  0
VERTEX
  8
0
 10
344.403626
 20
393.155511
 42
0.045574
  0
VERTEX
  8
0
 10
343.774789
 20
392.631932
 42
-0.042607
  0
VERTEX
  8
0
 10
343.092733
 20
392.057169
 42
-0.022588
  0
VERTEX
  8
0
 10
342.161354
 20
391.460308
 42
-0.022315
  0
VERTEX
  8
0
 10
341.147025
 20
390.932090
 42
-0.032051
  0
VERTEX
  8
0
 10
340.203360
 20
390.564544
 42
0.055017
  0
VERTEX
  8
0
 10
338.618646
 20
389.862065
 42
0.241792
  0
VERTEX
  8
0
 10
338.084332
 20
389.026880
 42
0.279538
  0
VERTEX
  8
0
 10
338.482581
 20
388.203489
 42
0.067052
  0
VERTEX
  8
0
 10
339.914958
 20
387.526991
 42
0.086314
  0
VERTEX
  8
0
 10
341.878188
 20
387.260071
 42
0.045666
  0
VERTEX
  8
0
 10
344.322528
 20
387.575504
 42
0.044395
  0
VERTEX
  8
0
 10
346.426146
 20
388.245498
 42
0.302154
  0
VERTEX
  8
0
 10
347.000000
 20
389.108408
 42
-0.148932
  0
VERTEX
  8
0
 10
347.103575
 20
389.448423
 42
-0.098781
  0
VERTEX
  8
0
 10
347.394935
 20
389.738095
 42
-0.082171
  0
VERTEX
  8
0
 10
347.830456
 20
389.933421
 42
-0.064495
  0
VERTEX
  8
0
 10
348.344461
 20
390.000000
 42
0.151152
  0
VERTEX
  8
0
 10
350.144381
 20
390.556844
 42
0.039494
  0
VERTEX
  8
0
 10
352.525774
 20
392.478689
 42
0.037110
  0
VERTEX
  8
0
 10
354.498455
 20
394.644981
 42
0.314286
  0
VERTEX
  8
0
 10
354.567594
 20
395.890630
 42
0.116194
  0
VERTEX
  8
0
 10
353.918932
 20
396.539907
 42
0.117423
  0
VERTEX
  8
0
 10
353.051152
 20
396.828199
 42
0.068317
  0
VERTEX
  8
0
 10
351.774750
 20
396.765027
 42
0.017436
  0
SEQEND
  0
POLYLINE
  8
0
 66
1
 70
1
  0
VERTEX
  8
0
 10
311.829534
 20
386.113878
 42
0.096312
  0
VERTEX
  8
0
 10
311.064967
 20
384.766269
 42
0.034951
  0
VERTEX
  8
0
 10
310.509844
 20
382.629362
 42
0.025595
  0
VERTEX
  8
0
 10
310.110692
 20
379.648378
 42
0.010215
  0
VERTEX
  8
0
 10
309.857293
 20
375.533252
 42
-0.008279
  0
VERTEX
  8
0
 10
309.599166
 20
371.059049
 42
-0.033520
  0
VERTEX
  8
0
 10
309.214974
 20
368.356251
 42
-0.058124
  0
VERTEX
  8
0
 10
308.635215
 20
366.631816
 42
-0.125397
  0
VERTEX
  8
0
 10
307.750000
 20
365.559132
 42
0.032733
  0
VERTEX
  8
0
 10
307.080280
 20
364.998678
 42
0.036312
  0
VERTEX
  8
0
 10
306.514063
 20
364.373505
 42
0.039130
  0
VERTEX
  8
0
 10
306.118131
 20
363.775912
 42
0.127414
  0
VERTEX
  8
0
 10
306.000000
 20
363.319866
 42
-0.169580
  0
VERTEX
  8
0
 10
305.568711
 20
362.084798
 42
-0.011837
  0
VERTEX
  8
0
 10
303.178545
 20
359.221630
 42
-0.010782
  0
VERTEX
  8
0
 10
300.644921
 20
356.451511
 42
-0.204896
  0
VERTEX
  8
0
 10
299.589372
 20
356.000000
 42
0.119116
  0
VERTEX
  8
0
 10
299.215745
 20
355.909709
 42
0.027490
  0
VERTEX
  8
0
 10
298.652592
 20
355.580357
 42
0.026880
  0
VERTEX
  8
0
 10
298.029231
 20
355.118262
 42
0.023441
  0
VERTEX
  8
0
 10
297.428571
 20
354.571429
 42
0.139558
  0
VERTEX
  8
0
 10
296.726933
 20
353.311373
 42
0.031131
  0
VERTEX
  8
0
 10
296.309701
 20
350.858781
 42
0.020876
  0
VERTEX
  8
0
 10
296.067541
 20
347.110568
 42
0.005693
  0
VERTEX
  8
0
 10
296.000000
 20
341.178417
 42
0.006484
  0
VERTEX
  8
0
 10
296.108092
 20
332.843646
 42
0.085736
  0
VERTEX
  8
0
 10
296.708228
 20
329.836623
 42
0.226037
  0
VERTEX
  8
0
 10
298.160053
 20
328.461839
 42
0.078548
  0
VERTEX
  8
0
 10
301.081787
 20
328.000000
 42
-0.046651
  0
VERTEX
  8
0
 10
301.815969
 20
327.931349
 42
-0.066615
  0
VERTEX
  8
0
 10
302.436525
 20
327.726045
 42
-0.086730
  0
VERTEX
  8
0
 10
302.855186
 20
327.423628
 42
-0.195486
  0
VERTEX
  8
0
 10
303.000000
 20
327.067388
 42
0.181120
  0
VERTEX
  8
0
 10
303.152432
 20
326.660387
 42
0.054201
  0
VERTEX
  8
0
 10
303.647237
 20
326.203305
 42
0.046543
  0
VERTEX
  8
0
 10
304.359979
 20
325.771720
 42
0.036046
  0
VERTEX
  8
0
 10
305.203360
 20
325.435456
 42
-0.032051
  0
VERTEX
  8
0
 10
306.147025
 20
325.067910
 42
-0.022315
  0
VERTEX
  8
0
 10
307.161354
 20
324.539692
 42
-0.022588
  0
VERTEX
  8
0
 10
308.092733
 20
323.942831
 42
-0.042607
  0
VERTEX
  8
0
 10
308.774789
 20
323.368068
 42
0.144272
  0
VERTEX
  8
0
 10
309.987343
 20
322.707486
 42
0.027304
  0
VERTEX
  8
0
 10
312.501935
 20
322.307690
 42
0.019804
  0
VERTEX
  8
0
 10
316.265929
 20
322.068448
 42
0.005968
  0
VERTEX
  8
0
 10
322.000000
 20
322.000000
 42
0.010758
  0
VERTEX
  8
0
 10
330.034302
 20
322.172879
 42
0.066475
  0
VERTEX
  8
0
 10
334.092785
 20
322.893734
 42
0.153561
  0
VERTEX
  8
0
 10
336.193659
 20
324.372355
 42
0.145231
  0
VERTEX
  8
0
 10
337.127623
 20
326.821429
 42
-0.007373
  0
VERTEX
  8
0
 10
337.432383
 20
330.174870
 42
-0.035092
  0
VERTEX
  8
0
 10
337.768414
 20
332.069524
 42
-0.065996
  0
VERTEX
  8
0
 10
338.228660
 20
333.230291
 42
-0.127671
  0
VERTEX
  8
0
 10
338.914406
 20
333.947100
 42
0.211547
  0
VERTEX
  8
0
 10
339.454552
 20
334.736164
 42
0.014954
  0
VERTEX
  8
0
 10
339.872365
 20
337.438056
 42
0.016536
  0
VERTEX
  8
0
 10
340.207829
 20
341.136808
 42
0.007113
  0
VERTEX
  8
0
 10
340.421597
 20
346.087244
 42
0.006490
  0
VERTEX
  8
0
 10
340.555375
 20
354.473837
 42
0.029297
  0
VERTEX
  8
0
 10
340.283270
 20
359.362182
 42
0.054591
  0
VERTEX
  8
0
 10
339.645633
 20
362.170614
 42
0.319904
  0
VERTEX
  8
0
 10
338.481989
 20
363.000000
 42
-0.104555
  0
VERTEX
  8
0
 10
337.954248
 20
363.111576
 42
-0.066669
  0
VERTEX
  8
0
 10
337.417372
 20
363.440625
 42
-0.062668
  0
VERTEX
  8
0
 10
336.953108
 20
363.926523
 42
-0.067867
  0
VERTEX
  8
0
 10
336.638374
 20
364.500000
 42
0.162323
  0
VERTEX
  8
0
 10
336.076628
 20
365.183062
 42
0.075180
  0
VERTEX
  8
0
 10
335.010457
 20
365.647256
 42
0.048001
  0
VERTEX
  8
0
 10
333.376090
 20
365.918775
 42
0.017176
  0
VERTEX
  8
0
 10
331.012333
 20
366.000000
 42
-0.007319
  0
VERTEX
  8
0
 10
327.696965
 20
366.048533
 42
-0.133717
  0
VERTEX
  8
0
 10
326.696207
 20
366.352775
 42
-0.282447
  0
VERTEX
  8
0
 10
326.351263
 20
367.050310
 42
-0.037260
  0
VERTEX
  8
0
 10
326.635657
 20
368.750000
 42
-0.024223
  0
VERTEX
  8
0
 10
326.955613
 20
369.827273
 42
-0.030164
  0
VERTEX
  8
0
 10
327.359804
 20
370.790104
 42
-0.031132
  0
VERTEX
  8
0
 10
327.785405
 20
371.533418
 42
-0.154442
  0
VERTEX
  8
0
 10
328.154709
 20
371.833333
 42
0.291001
  0
VERTEX
  8
0
 10
328.895494
 20
372.851870
 42
0.019835
  0
VERTEX
  8
0
 10
328.980797
 20
376.594208
 42
0.019518
  0
VERTEX
  8
0
 10
328.773590
 20
380.296576
 42
0.386672
  0
VERTEX
  8
0
 10
328.000000
 20
381.000000
 42
-0.110123
  0
VERTEX
  8
0
 10
327.618503
 20
381.085054
 42
-0.099915
  0
VERTEX
  8
0
 10
327.293750
 20
381.325784
 42
-0.094993
  0
VERTEX
  8
0
 10
327.075938
 20
381.685615
 42
-0.088959
  0
VERTEX
  8
0
 10
327.000000
 20
382.109053
 42
0.118920
  0
VERTEX
  8
0
 10
326.860919
 20
382.685549
 42
0.025039
  0
VERTEX
  8
0
 10
326.339063
 20
383.589587
 42
0.024914
  0
VERTEX
  8
0
 10
325.611317
 20
384.601658
 42
0.021361
  0
VERTEX
  8
0
 10
324.750000
 20
385.591776
 42
0.121417
  0
VERTEX
  8
0
 10
321.983148
 20
387.367149
 42
0.072238
  0
VERTEX
  8
0
 10
318.113545
 20
388.089754
 42
0.074312
  0
VERTEX
  8
0
 10
314.329696
 20
387.679638
 42
0.152768
  0
SEQEND
  0
POLYLINE
  8
0
 66
1
 70
1
  0
VERTEX
  8
0
 10
321.189936
 20
382.037674
 42
-0.064353
  0
VERTEX
  8
0
 10
322.307196
 20
380.690141
 42
-0.099540
  0
VERTEX
  8
0
 10
322.845584
 20
379.282418
 42
-0.055869
  0
VERTEX
  8
0
 10
322.958500
 20
377.240416
 42
-0.009183
  0
VERTEX
  8
0
 10
322.662862
 20
373.292587
 42
-0.013435
  0
VERTEX
  8
0
 10
322.346568
 20
370.669024
 42
-0.020151
  0
VERTEX
  8
0
 10
321.917455
 20
368.402902
 42
-0.015775
  0
VERTEX
  8
0
 10
321.443487
 20
366.613925
 42
-0.244322
  0
VERTEX
  8
0
 10
321.014739
 20
366.171580
 42
0.189628
  0
VERTEX
  8
0
 10
320.623819
 20
365.844608
 42
0.049347
  0
VERTEX
  8
0
 10
320.298080
 20
365.075922
 42
0.043003
  0
VERTEX
  8
0
 10
320.074470
 20
364.058084
 42
0.032587
  0
VERTEX
  8
0
 10
320.000000
 20
362.916667
 42
0.000000
  0
VERTEX
  8
0
 10
320.000000
 20
360.000000
 42
0.000000
  0
VERTEX
  8
0
 10
328.000000
 20
360.000000
 42
-0.006682
  0
VERTEX
  8
0
 10
332.295805
 20
359.942586
 42
-0.041832
  0
VERTEX
  8
0
 10
334.477273
 20
359.700893
 42
-0.106725
  0
VERTEX
  8
0
 10
335.591687
 20
359.221027
 42
-0.242478
  0
VERTEX
  8
0
 10
336.000000
 20
358.428571
 42
-0.123981
  0
VERTEX
  8
0
 10
335.600777
 20
356.843299
 42
-0.086559
  0
VERTEX
  8
0
 10
334.456312
 20
355.387082
 42
-0.083209
  0
VERTEX
  8
0
 10
332.835918
 20
354.357629
 42
-0.100321
  0
VERTEX
  8
0
 10
331.071429
 20
354.000000
 42
0.127561
  0
VERTEX
  8
0
 10
329.327101
 20
353.547622
 42
0.416232
  0
VERTEX
  8
0
 10
329.036052
 20
352.513907
 42
0.164794
  0
VERTEX
  8
0
 10
330.441074
 20
351.257147
 42
0.059002
  0
VERTEX
  8
0
 10
333.054619
 20
350.490772
 42
-0.061846
  0
VERTEX
  8
0
 10
336.026510
 20
349.601000
 42
-0.294804
  0
VERTEX
  8
0
 10
336.956674
 20
348.190495
 42
-0.315774
  0
VERTEX
  8
0
 10
336.037240
 20
346.852610
 42
-0.065479
  0
VERTEX
  8
0
 10
333.096161
 20
346.175779
 42
0.073665
  0
VERTEX
  8
0
 10
329.274276
 20
345.230425
 42
0.296921
  0
VERTEX
  8
0
 10
327.973844
 20
343.345756
 42
0.332049
  0
VERTEX
  8
0
 10
329.208650
 20
341.595701
 42
0.078950
  0
VERTEX
  8
0
 10
332.957794
 20
341.000000
 42
-0.032131
  0
VERTEX
  8
0
 10
334.335596
 20
340.911367
 42
-0.087299
  0
VERTEX
  8
0
 10
335.266013
 20
340.620864
 42
-0.135817
  0
VERTEX
  8
0
 10
335.802073
 20
340.124691
 42
-0.139402
  0
VERTEX
  8
0
 10
336.000000
 20
339.428571
 42
-0.129248
  0
VERTEX
  8
0
 10
335.549401
 20
337.714534
 42
-0.104145
  0
VERTEX
  8
0
 10
334.286745
 20
336.279781
 42
-0.090098
  0
VERTEX
  8
0
 10
332.372103
 20
335.326736
 42
-0.070654
  0
VERTEX
  8
0
 10
330.071429
 20
335.000000
 42
0.075028
  0
VERTEX
  8
0
 10
327.796283
 20
334.656669
 42
0.323066
  0
VERTEX
  8
0
 10
327.018828
 20
333.626047
 42
0.287676
  0
VERTEX
  8
0
 10
327.728218
 20
332.439661
 42
0.068675
  0
VERTEX
  8
0
 10
330.000000
 20
331.650000
 42
-0.052508
  0
VERTEX
  8
0
 10
331.979863
 20
331.032530
 42
-0.204586
  0
VERTEX
  8
0
 10
332.844564
 20
330.122677
 42
-0.225906
  0
VERTEX
  8
0
 10
332.740031
 20
328.937806
 42
-0.063347
  0
VERTEX
  8
0
 10
331.571429
 20
327.428571
 42
-0.179483
  0
VERTEX
  8
0
 10
329.249627
 20
326.363143
 42
-0.011531
  0
VERTEX
  8
0
 10
321.681690
 20
325.969499
 42
-0.008815
  0
VERTEX
  8
0
 10
314.002312
 20
325.882893
 42
-0.412354
  0
VERTEX
  8
0
 10
313.000000
 20
326.891592
 42
0.208396
  0
VERTEX
  8
0
 10
312.831931
 20
327.277325
 42
0.050787
  0
VERTEX
  8
0
 10
312.265625
 20
327.705595
 42
0.043524
  0
VERTEX
  8
0
 10
311.457251
 20
328.105107
 42
0.031538
  0
VERTEX
  8
0
 10
310.500000
 20
328.410644
 42
-0.033106
  0
VERTEX
  8
0
 10
309.542831
 20
328.719461
 42
-0.045153
  0
VERTEX
  8
0
 10
308.734375
 20
329.128630
 42
-0.053096
  0
VERTEX
  8
0
 10
308.170317
 20
329.570811
 42
-0.202668
  0
VERTEX
  8
0
 10
308.000000
 20
329.973739
 42
0.251233
  0
VERTEX
  8
0
 10
307.783786
 20
330.376885
 42
0.039846
  0
VERTEX
  8
0
 10
306.971875
 20
330.827409
 42
0.036113
  0
VERTEX
  8
0
 10
305.840818
 20
331.246373
 42
0.024282
  0
VERTEX
  8
0
 10
304.500000
 20
331.565978
 42
0.000000
  0
VERTEX
  8
0
 10
301.000000
 20
332.222582
 42
0.000000
  0
VERTEX
  8
0
 10
301.000000
 20
341.029503
 42
-0.008162
  0
VERTEX
  8
0
 10
301.099786
 20
347.141769
 42
-0.041013
  0
VERTEX
  8
0
 10
301.490652
 20
350.536664
 42
-0.092130
  0
VERTEX
  8
0
 10
302.218973
 20
352.358294
 42
-0.257128
  0
VERTEX
  8
0
 10
303.384304
 20
353.000000
 42
0.192945
  0
VERTEX
  8
0
 10
304.836670
 20
353.582124
 42
0.023080
  0
VERTEX
  8
0
 10
307.272944
 20
356.133962
 42
0.024541
  0
VERTEX
  8
0
 10
309.460255
 20
358.911850
 42
0.155725
  0
VERTEX
  8
0
 10
310.000000
 20
360.602828
 42
-0.064057
  0
VERTEX
  8
0
 10
310.068717
 20
361.136999
 42
-0.081857
  0
VERTEX
  8
0
 10
310.270410
 20
361.589581
 42
-0.098636
  0
VERTEX
  8
0
 10
310.569485
 20
361.892376
 42
-0.149842
  0
VERTEX
  8
0
 10
310.920545
 20
362.000000
 42
0.230346
  0
VERTEX
  8
0
 10
311.318790
 20
362.193748
 42
0.045180
  0
VERTEX
  8
0
 10
311.764234
 20
362.881250
 42
0.039605
  0
VERTEX
  8
0
 10
312.180468
 20
363.850988
 42
0.027524
  0
VERTEX
  8
0
 10
312.500000
 20
365.000000
 42
-0.027524
  0
VERTEX
  8
0
 10
312.819532
 20
366.149012
 42
-0.039605
  0
VERTEX
  8
0
 10
313.235766
 20
367.118750
 42
-0.045180
  0
VERTEX
  8
0
 10
313.681210
 20
367.806252
 42
-0.230346
  0
VERTEX
  8
0
 10
314.079455
 20
368.000000
 42
0.352706
  0
VERTEX
  8
0
 10
314.442234
 20
368.292267
 42
0.018003
  0
VERTEX
  8
0
 10
314.729590
 20
369.885350
 42
0.022145
  0
VERTEX
  8
0
 10
314.933685
 20
371.957613
 42
0.013473
  0
VERTEX
  8
0
 10
315.000000
 20
374.418213
 42
-0.021053
  0
VERTEX
  8
0
 10
315.265107
 20
380.711633
 42
-0.150636
  0
VERTEX
  8
0
 10
316.390295
 20
383.502589
 42
-0.339930
  0
VERTEX
  8
0
 10
318.300154
 20
383.956217
 42
-0.082152
  0
SEQEND
  0
POLYLINE
  8
0
 66
1
 70
1
  0
VERTEX
  8
0
 10
235.000000
 20
221.500000
 42
0.024688
  0
VERTEX
  8
0
 10
234.387442
 20
220.683013
 42
0.261520
  0
VERTEX
  8
0
 10
234.354403
 20
220.283023
 42
0.266062
  0
VERTEX
  8
0
 10
234.678054
 20
220.051207
 42
0.025375
  0
VERTEX
  8
0
 10
235.686426
 20
220.000000
 42
0.059491
  0
VERTEX
  8
0
 10
236.566110
 20
220.105038
 42
0.031188
  0
VERTEX
  8
0
 10
237.620624
 20
220.431283
 42
0.030522
  0
VERTEX
  8
0
 10
238.674111
 20
220.906070
 42
0.040801
  0
VERTEX
  8
0
 10
239.558870
 20
221.468197
 42
0.008029
  0
VERTEX
  8
0
 10
240.791319
 20
222.431870
 42
0.342606
  0
VERTEX
  8
0
 10
240.862860
 20
222.736077
 42
0.283248
  0
VERTEX
  8
0
 10
240.579236
 20
222.925810
 42
0.006363
  0
VERTEX
  8
0
 10
238.872445
 20
222.968197
 42
0.050936
  0
VERTEX
  8
0
 10
237.775078
 20
222.869519
 42
0.042759
  0
VERTEX
  8
0
 10
236.651048
 20
222.550033
 42
0.044655
  0
VERTEX
  8
0
 10
235.666942
 20
222.072658
 42
0.084494
  0
SEQEND
  0
POLYLINE
  8
0
 66
1
 70
1
  0
VERTEX
  8
0
 10
232.127679
 20
218.100072
 42
0.419154
  0
VERTEX
  8
0
 10
232.052165
 20
217.749776
 42
0.194518
  0
VERTEX
  8
0
 10
232.475796
 20
217.456792
 42
0.044172
  0
VERTEX
  8
0
 10
233.807004
 20
217.279307
 42
0.011065
  0
VERTEX
  8
0
 10
236.000000
 20
217.230769
 42
0.011065
  0
VERTEX
  8
0
 10
238.192996
 20
217.279307
 42
0.044172
  0
VERTEX
  8
0
 10
239.524204
 20
217.456792
 42
0.194518
  0
VERTEX
  8
0
 10
239.947835
 20
217.749776
 42
0.419154
  0
VERTEX
  8
0
 10
239.872321
 20
218.100072
 42
0.060240
  0
VERTEX
  8
0
 10
239.170578
 20
218.434151
 42
0.025795
  0
VERTEX
  8
0
 10
238.168744
 20
218.714017
 42
0.025068
  0
VERTEX
  8
0
 10
237.057817
 20
218.905521
 42
0.030154
  0
VERTEX
  8
0
 10
236.000000
 20
218.969374
 42
0.030154
  0
VERTEX
  8
0
 10
234.942183
 20
218.905521
 42
0.025068
  0
VERTEX
  8
0
 10
233.831256
 20
218.714017
 42
0.025795
  0
VERTEX
  8
0
 10
232.829422
 20
218.434151
 42
0.060240
  0
SEQEND
  0
POLYLINE
  8
0
 66
1
 70
1
  0
VERTEX
  8
0
 10
202.500000
 20
214.792183
 42
0.090943
  0
VERTEX
  8
0
 10
199.573781
 20
212.316972
 42
0.127525
  0
VERTEX
  8
0
 10
198.142277
 20
209.225342
 42
0.137232
  0
VERTEX
  8
0
 10
198.442756
 20
205.997040
 42
0.113240
  0
VERTEX
  8
0
 10
200.375970
 20
203.116520
 42
0.056229
  0
VERTEX
  8
0
 10
201.653061
 20
202.161994
 42
0.021859
  0
VERTEX
  8
0
 10
203.606579
 20
201.130531
 42
0.021311
  0
VERTEX
  8
0
 10
205.839520
 20
200.187848
 42
0.024740
  0
VERTEX
  8
0
 10
208.037319
 20
199.490156
 42
-0.022993
  0
VERTEX
  8
0
 10
211.544331
 20
198.390317
 42
-0.085036
  0
VERTEX
  8
0
 10
213.550866
 20
197.242681
 42
-0.159724
  0
VERTEX
  8
0
 10
214.391071
 20
195.916781
 42
-0.154834
  0
VERTEX
  8
0
 10
214.297179
 20
194.332052
 42
-0.234029
  0
VERTEX
  8
0
 10
212.370325
 20
192.556318
 42
-0.089252
  0
VERTEX
  8
0
 10
208.639766
 20
192.156405
 42
-0.088482
  0
VERTEX
  8
0
 10
204.978463
 20
193.082503
 42
-0.226448
  0
VERTEX
  8
0
 10
203.258421
 20
195.119799
 42
0.061951
  0
VERTEX
  8
0
 10
202.864489
 20
196.107445
 42
0.165372
  0
VERTEX
  8
0
 10
202.311777
 20
196.611869
 42
0.131600
  0
VERTEX
  8
0
 10
201.475537
 20
196.738492
 42
0.033634
  0
VERTEX
  8
0
 10
200.115999
 20
196.492978
 42
0.012328
  0
VERTEX
  8
0
 10
197.924150
 20
195.885046
 42
0.190788
  0
VERTEX
  8
0
 10
197.323993
 20
195.407358
 42
0.209046
  0
VERTEX
  8
0
 10
197.243010
 20
194.669621
 42
0.015126
  0
VERTEX
  8
0
 10
197.929061
 20
192.686584
 42
0.213428
  0
VERTEX
  8
0
 10
202.454736
 20
188.147030
 42
0.123731
  0
VERTEX
  8
0
 10
210.241304
 20
187.206766
 42
0.129976
  0
VERTEX
  8
0
 10
217.285606
 20
190.057504
 42
0.236189
  0
VERTEX
  8
0
 10
220.000000
 20
195.483184
 42
0.076164
  0
VERTEX
  8
0
 10
219.536496
 20
198.508348
 42
0.123137
  0
VERTEX
  8
0
 10
218.184557
 20
200.717836
 42
0.086899
  0
VERTEX
  8
0
 10
215.570187
 20
202.519054
 42
0.024577
  0
VERTEX
  8
0
 10
210.963026
 20
204.363360
 42
-0.012134
  0
VERTEX
  8
0
 10
207.732864
 20
205.564096
 42
-0.048550
  0
VERTEX
  8
0
 10
205.860755
 20
206.532052
 42
-0.089804
  0
VERTEX
  8
0
 10
204.852556
 20
207.477592
 42
-0.160951
  0
VERTEX
  8
0
 10
204.500000
 20
208.544448
 42
-0.274729
  0
VERTEX
  8
0
 10
205.495446
 20
210.219395
 42
-0.109930
  0
VERTEX
  8
0
 10
208.159962
 20
210.983739
 42
-0.096551
  0
VERTEX
  8
0
 10
211.162853
 20
210.584654
 42
-0.190964
  0
VERTEX
  8
0
 10
212.969780
 20
209.056466
 42
0.141415
  0
VERTEX
  8
0
 10
214.403303
 20
207.585076
 42
0.117136
  0
VERTEX
  8
0
 10
216.510751
 20
206.969346
 42
0.156702
  0
VERTEX
  8
0
 10
218.265629
 20
207.435861
 42
0.260211
  0
VERTEX
  8
0
 10
218.968197
 20
208.750000
 42
0.092926
  0
VERTEX
  8
0
 10
218.625060
 20
210.412914
 42
0.066052
  0
VERTEX
  8
0
 10
217.675773
 20
212.068104
 42
0.059109
  0
VERTEX
  8
0
 10
216.203008
 20
213.584764
 42
0.048190
  0
VERTEX
  8
0
 10
214.315741
 20
214.836657
 42
0.084542
  0
VERTEX
  8
0
 10
211.799522
 20
215.672479
 42
0.038967
  0
VERTEX
  8
0
 10
208.347011
 20
215.928884
 42
0.038945
  0
VERTEX
  8
0
 10
204.920416
 20
215.648604
 42
0.090557
  0
SEQEND
  0
POLYLINE
  8
0
 66
1
 70
1
  0
VERTEX
  8
0
 10
225.000000
 20
201.500000
 42
0.000000
  0
VERTEX
  8
0
 10
225.000000
 20
187.000000
 42
0.000000
  0
VERTEX
  8
0
 10
236.000000
 20
187.000000
 42
0.000000
  0
VERTEX
  8
0
 10
247.000000
 20
187.000000
 42
0.000000
  0
VERTEX
  8
0
 10
247.000000
 20
189.500000
 42
0.093656
  0
VERTEX
  8
0
 10
246.726255
 20
190.948613
 42
0.227396
  0
VERTEX
  8
0
 10
245.950000
 20
191.671875
 42
0.071364
  0
VERTEX
  8
0
 10
244.210294
 20
191.953338
 42
0.004478
  0
VERTEX
  8
0
 10
239.000000
 20
192.000000
 42
0.000000
  0
VERTEX
  8
0
 10
231.000000
 20
192.000000
 42
0.000000
  0
VERTEX
  8
0
 10
231.000000
 20
196.000000
 42
0.000000
  0
VERTEX
  8
0
 10
231.000000
 20
200.000000
 42
0.000000
  0
VERTEX
  8
0
 10
238.000000
 20
200.000000
 42
0.005599
  0
VERTEX
  8
0
 10
242.485599
 20
200.050231
 42
0.080329
  0
VERTEX
  8
0
 10
244.050000
 20
200.339286
 42
0.227859
  0
VERTEX
  8
0
 10
244.758286
 20
201.055682
 42
0.083100
  0
VERTEX
  8
0
 10
245.000000
 20
202.500000
 42
0.083100
  0
VERTEX
  8
0
 10
244.758286
 20
203.944318
 42
0.227859
  0
VERTEX
  8
0
 10
244.050000
 20
204.660714
 42
0.080329
  0
VERTEX
  8
0
 10
242.485599
 20
204.949769
 42
0.005599
  0
VERTEX
  8
0
 10
238.000000
 20
205.000000
 42
0.000000
  0
VERTEX
  8
0
 10
231.000000
 20
205.000000
 42
0.000000
  0
VERTEX
  8
0
 10
231.000000
 20
208.000000
 42
0.000000
  0
VERTEX
  8
0
 10
231.000000
 20
211.000000
 42
0.000000
  0
VERTEX
  8
0
 10
238.500000
 20
211.000000
 42
0.004982
  0
VERTEX
  8
0
 10
243.347869
 20
211.048306
 42
0.075599
  0
VERTEX
  8
0
 10
245.000000
 20
211.333333
 42
0.227967
  0
VERTEX
  8
0
 10
245.742326
 20
212.053178
 42
0.088353
  0
VERTEX
  8
0
 10
246.000000
 20
213.500000
 42
0.000000
  0
VERTEX
  8
0
 10
246.000000
 20
216.000000
 42
0.000000
  0
VERTEX
  8
0
 10
235.500000
 20
216.000000
 42
0.000000
  0
VERTEX
  8
0
 10
225.000000
 20
216.000000
 42
0.000000
  0
SEQEND
  0
POLYLINE
  8
0
 66
1
 70
1
  0
VERTEX
  8
0
 10
252.000000
 20
201.500000
 42
0.000000
  0
VERTEX
  8
0
 10
252.000000
 20
187.000000
 42
0.000000
  0
VERTEX
  8
0
 10
254.500000
 20
187.000000
 42
0.066751
  0
VERTEX
  8
0
 10
255.927247
 20
187.191392
 42
0.220780
  0
VERTEX
  8
0
 10
256.633825
 20
187.787981
 42
0.100105
  0
VERTEX
  8
0
 10
256.940481
 20
189.066165
 42
0.008980
  0
VERTEX
  8
0
 10
257.000000
 20
192.379809
 42
0.000000
  0
VERTEX
  8
0
 10
257.000000
 20
197.759618
 42
0.000000
  0
VERTEX
  8
0
 10
263.038842
 20
198.196429
 42
0.043541
  0
VERTEX
  8
0
 10
267.968598
 20
198.988117
 42
0.115927
  0
VERTEX
  8
0
 10
271.114398
 20
200.614213
 42
0.140095
  0
VERTEX
  8
0
 10
272.859033
 20
203.251067
 42
0.076683
  0
VERTEX
  8
0
 10
273.454545
 20
207.111183
 42
0.031196
  0
VERTEX
  8
0
 10
273.319178
 20
209.278694
 42
0.070135
  0
VERTEX
  8
0
 10
272.888964
 20
210.865318
 42
0.074668
  0
VERTEX
  8
0
 10
272.057345
 20
212.209974
 42
0.039392
  0
VERTEX
  8
0
 10
270.671509
 20
213.606133
 42
0.050382
  0
VERTEX
  8
0
 10
268.841682
 20
214.884176
 42
0.072488
  0
VERTEX
  8
0
 10
266.998227
 20
215.587086
 42
0.045537
  0
VERTEX
  8
0
 10
264.459553
 20
215.915240
 42
0.009385
  0
VERTEX
  8
0
 10
259.944236
 20
216.000000
 42
0.000000
  0
VERTEX
  8
0
 10
252.000000
 20
216.000000
 42
0.000000
  0
SEQEND
  0
POLYLINE
  8
0
 66
1
 70
1
  0
VERTEX
  8
0
 10
266.964816
 20
209.065741
 42
-0.018083
  0
VERTEX
  8
0
 10
267.767562
 20
207.425907
 42
-0.135273
  0
VERTEX
  8
0
 10
267.895900
 20
206.577659
 42
-0.145631
  0
VERTEX
  8
0
 10
267.565542
 20
205.813359
 42
-0.022050
  0
VERTEX
  8
0
 10
266.428571
 20
204.571429
 42
-0.088812
  0
VERTEX
  8
0
 10
265.540530
 20
203.953083
 42
-0.038214
  0
VERTEX
  8
0
 10
264.182143
 20
203.450000
 42
-0.035443
  0
VERTEX
  8
0
 10
262.581127
 20
203.113034
 42
-0.034160
  0
VERTEX
  8
0
 10
260.928571
 20
203.000000
 42
-0.016985
  0
VERTEX
  8
0
 10
258.405949
 20
203.085720
 42
-0.183642
  0
VERTEX
  8
0
 10
257.495536
 20
203.504545
 42
-0.179838
  0
VERTEX
  8
0
 10
257.083207
 20
204.426584
 42
-0.016162
  0
VERTEX
  8
0
 10
257.000000
 20
207.000000
 42
0.000000
  0
VERTEX
  8
0
 10
257.000000
 20
211.000000
 42
0.000000
  0
VERTEX
  8
0
 10
261.464816
 20
211.000000
 42
-0.021299
  0
VERTEX
  8
0
 10
263.697201
 20
210.904862
 42
-0.063332
  0
VERTEX
  8
0
 10
265.191546
 20
210.583731
 42
-0.092621
  0
VERTEX
  8
0
 10
266.221469
 20
209.990078
 42
-0.093217
  0
SEQEND
  0
POLYLINE
  8
0
 66
1
 70
1
  0
VERTEX
  8
0
 10
294.298549
 20
214.040484
 42
0.068769
  0
VERTEX
  8
0
 10
291.552855
 20
211.797948
 42
0.072556
  0
VERTEX
  8
0
 10
289.576427
 20
208.932115
 42
0.067178
  0
VERTEX
  8
0
 10
288.396673
 20
205.427739
 42
0.047876
  0
VERTEX
  8
0
 10
288.003738
 20
201.299660
 42
0.086787
  0
VERTEX
  8
0
 10
289.013062
 20
195.554847
 42
0.107472
  0
VERTEX
  8
0
 10
291.896737
 20
190.967351
 42
0.108791
  0
VERTEX
  8
0
 10
296.393146
 20
188.029380
 42
0.090757
  0
VERTEX
  8
0
 10
302.017541
 20
187.000000
 42
0.096953
  0
VERTEX
  8
0
 10
306.882320
 20
187.952258
 42
0.092915
  0
VERTEX
  8
0
 10
311.111987
 20
190.674701
 42
0.095338
  0
VERTEX
  8
0
 10
313.988073
 20
194.673718
 42
0.108774
  0
VERTEX
  8
0
 10
315.000000
 20
199.270188
 42
-0.033148
  0
VERTEX
  8
0
 10
315.134757
 20
201.300631
 42
-0.061146
  0
VERTEX
  8
0
 10
315.551022
 20
202.899589
 42
-0.066054
  0
VERTEX
  8
0
 10
316.314057
 20
204.267760
 42
-0.045715
  0
VERTEX
  8
0
 10
317.500000
 20
205.587580
 42
0.045768
  0
VERTEX
  8
0
 10
318.690405
 20
206.912647
 42
0.066640
  0
VERTEX
  8
0
 10
319.452494
 20
208.283558
 42
0.061281
  0
VERTEX
  8
0
 10
319.866472
 20
209.892282
 42
0.032376
  0
VERTEX
  8
0
 10
320.000000
 20
211.952251
 42
0.015756
  0
VERTEX
  8
0
 10
319.925751
 20
214.307932
 42
0.123183
  0
VERTEX
  8
0
 10
319.595593
 20
215.345225
 42
0.202254
  0
VERTEX
  8
0
 10
318.890411
 20
215.846951
 42
0.054872
  0
VERTEX
  8
0
 10
317.500000
 20
216.000000
 42
0.047675
  0
VERTEX
  8
0
 10
316.175563
 20
215.873428
 42
0.173074
  0
VERTEX
  8
0
 10
315.458333
 20
215.450000
 42
0.144586
  0
VERTEX
  8
0
 10
315.097235
 20
214.613599
 42
0.030103
  0
VERTEX
  8
0
 10
315.000000
 20
213.000000
 42
0.031626
  0
VERTEX
  8
0
 10
315.072766
 20
211.850749
 42
0.048861
  0
VERTEX
  8
0
 10
315.293750
 20
210.881250
 42
0.062710
  0
VERTEX
  8
0
 10
315.615738
 20
210.209557
 42
0.254951
  0
VERTEX
  8
0
 10
316.000000
 20
210.000000
 42
-0.270079
  0
VERTEX
  8
0
 10
316.690682
 20
209.597569
 42
-0.124941
  0
VERTEX
  8
0
 10
316.974715
 20
208.559426
 42
-0.102205
  0
VERTEX
  8
0
 10
316.747301
 20
207.345790
 42
-0.158375
  0
VERTEX
  8
0
 10
316.063918
 20
206.539504
 42
-0.258829
  0
VERTEX
  8
0
 10
315.609265
 20
206.518105
 42
-0.076150
  0
VERTEX
  8
0
 10
315.016847
 20
206.933496
 42
-0.055386
  0
VERTEX
  8
0
 10
314.385333
 20
207.688427
 42
-0.034439
  0
VERTEX
  8
0
 10
313.813918
 20
208.693157
 42
0.118737
  0
VERTEX
  8
0
 10
310.447694
 20
212.816743
 42
0.095884
  0
VERTEX
  8
0
 10
305.307093
 20
215.354846
 42
0.094312
  0
VERTEX
  8
0
 10
299.513205
 20
215.815695
 42
0.110155
  0
SEQEND
  0
POLYLINE
  8
0
 66
1
 70
1
  0
VERTEX
  8
0
 10
305.985656
 20
210.007677
 42
-0.089055
  0
VERTEX
  8
0
 10
306.779964
 20
209.379624
 42
-0.034272
  0
VERTEX
  8
0
 10
307.640370
 20
208.260868
 42
-0.032593
  0
VERTEX
  8
0
 10
308.428530
 20
206.890417
 42
-0.034509
  0
VERTEX
  8
0
 10
309.014993
 20
205.454570
 42
-0.131293
  0
VERTEX
  8
0
 10
309.386040
 20
199.029062
 42
-0.163463
  0
VERTEX
  8
0
 10
306.391790
 20
193.888944
 42
-0.199108
  0
VERTEX
  8
0
 10
301.411534
 20
192.204266
 42
-0.181585
  0
VERTEX
  8
0
 10
296.454545
 20
194.454545
 42
-0.045944
  0
VERTEX
  8
0
 10
295.260567
 20
195.890714
 42
-0.066727
  0
VERTEX
  8
0
 10
294.517327
 20
197.359357
 42
-0.057900
  0
VERTEX
  8
0
 10
294.123546
 20
199.123884
 42
-0.025980
  0
VERTEX
  8
0
 10
294.000000
 20
201.500000
 42
-0.102408
  0
VERTEX
  8
0
 10
294.990787
 20
206.286700
 42
-0.137175
  0
VERTEX
  8
0
 10
297.767818
 20
209.714776
 42
-0.149650
  0
VERTEX
  8
0
 10
301.719682
 20
211.025222
 42
-0.129337
  0
SEQEND
  0
POLYLINE
  8
0
 66
1
 70
1
  0
VERTEX
  8
0
 10
323.000000
 20
201.500000
 42
0.000000
  0
VERTEX
  8
0
 10
323.000000
 20
187.000000
 42
0.000000
  0
VERTEX
  8
0
 10
325.500000
 20
187.000000
 42
0.000000
  0
VERTEX
  8
0
 10
328.000000
 20
187.000000
 42
0.000000
  0
VERTEX
  8
0
 10
328.000000
 20
201.500000
 42
0.000000
  0
VERTEX
  8
0
 10
328.000000
 20
216.000000
 42
0.000000
  0
VERTEX
  8
0
 10
325.500000
 20
216.000000
 42
0.000000
  0
VERTEX
  8
0
 10
323.000000
 20
216.000000
 42
0.000000
  0
SEQEND
  0
POLYLINE
  8
0
 66
1
 70
1
  0
VERTEX
  8
0
 10
335.007109
 20
212.250000
 42
0.015884
  0
VERTEX
  8
0
 10
335.216090
 20
206.044105
 42
0.020622
  0
VERTEX
  8
0
 10
335.821892
 20
200.386228
 42
0.014117
  0
VERTEX
  8
0
 10
336.645560
 20
195.758361
 42
0.355546
  0
VERTEX
  8
0
 10
337.577217
 20
195.000000
 42
0.248325
  0
VERTEX
  8
0
 10
338.670195
 20
195.578501
 42
0.089928
  0
VERTEX
  8
0
 10
339.405414
 20
197.234562
 42
0.035128
  0
VERTEX
  8
0
 10
339.960316
 20
200.502115
 42
0.005058
  0
VERTEX
  8
0
 10
340.554806
 20
207.250000
 42
0.000000
  0
VERTEX
  8
0
 10
341.236554
 20
216.000000
 42
0.000000
  0
VERTEX
  8
0
 10
338.118277
 20
216.000000
 42
0.029788
  0
VERTEX
  8
0
 10
336.265683
 20
215.889530
 42
0.192092
  0
VERTEX
  8
0
 10
335.458454
 20
215.449923
 42
0.156690
  0
VERTEX
  8
0
 10
335.085424
 20
214.520578
 42
0.018189
  0
SEQEND
  0
POLYLINE
  8
0
 66
1
 70
1
  0
VERTEX
  8
0
 10
335.000000
 20
190.000000
 42
0.030103
  0
VERTEX
  8
0
 10
335.097235
 20
188.386401
 42
0.144586
  0
VERTEX
  8
0
 10
335.458333
 20
187.550000
 42
0.173074
  0
VERTEX
  8
0
 10
336.175563
 20
187.126572
 42
0.047675
  0
VERTEX
  8
0
 10
337.500000
 20
187.000000
 42
0.047675
  0
VERTEX
  8
0
 10
338.824437
 20
187.126572
 42
0.173074
  0
VERTEX
  8
0
 10
339.541667
 20
187.550000
 42
0.144586
  0
VERTEX
  8
0
 10
339.902765
 20
188.386401
 42
0.030103
  0
VERTEX
  8
0
 10
340.000000
 20
190.000000
 42
0.030103
  0
VERTEX
  8
0
 10
339.902765
 20
191.613599
 42
0.144586
  0
VERTEX
  8
0
 10
339.541667
 20
192.450000
 42
0.173074
  0
VERTEX
  8
0
 10
338.824437
 20
192.873428
 42
0.047675
  0
VERTEX
  8
0
 10
337.500000
 20
193.000000
 42
0.047675
  0
VERTEX
  8
0
 10
336.175563
 20
192.873428
 42
0.173074
  0
VERTEX
  8
0
 10
335.458333
 20
192.450000
 42
0.144586
  0
VERTEX
  8
0
 10
335.097235
 20
191.613599
 42
0.030103
  0
SEQEND
  0
POLYLINE
  8
0
 66
1
 70
1
  0
VERTEX
  8
0
 10
135.304334
 20
170.044003
 42
0.054786
  0
VERTEX
  8
0
 10
132.210101
 20
167.657331
 42
0.079131
  0
VERTEX
  8
0
 10
130.132982
 20
164.904429
 42
0.075939
  0
VERTEX
  8
0
 10
128.959835
 20
161.554644
 42
0.046353
  0
VERTEX
  8
0
 10
128.571429
 20
157.373981
 42
0.122625
  0
VERTEX
  8
0
 10
130.400299
 20
150.028918
 42
0.144213
  0
VERTEX
  8
0
 10
135.398389
 20
144.920811
 42
0.134410
  0
VERTEX
  8
0
 10
142.670904
 20
143.120942
 42
0.100714
  0
VERTEX
  8
0
 10
150.750000
 20
144.973070
 42
0.000000
  0
VERTEX
  8
0
 10
155.000000
 20
146.902216
 42
0.000000
  0
VERTEX
  8
0
 10
155.000000
 20
152.951108
 42
0.000000
  0
VERTEX
  8
0
 10
155.000000
 20
159.000000
 42
0.000000
  0
VERTEX
  8
0
 10
149.000000
 20
159.000000
 42
0.007344
  0
VERTEX
  8
0
 10
145.238228
 20
158.944747
 42
0.091609
  0
VERTEX
  8
0
 10
143.850000
 20
158.645833
 42
0.224968
  0
VERTEX
  8
0
 10
143.210324
 20
157.935971
 42
0.072846
  0
VERTEX
  8
0
 10
143.000000
 20
156.500000
 42
0.048057
  0
VERTEX
  8
0
 10
143.128185
 20
155.169407
 42
0.175578
  0
VERTEX
  8
0
 10
143.556955
 20
154.453613
 42
0.143249
  0
VERTEX
  8
0
 10
144.407320
 20
154.095157
 42
0.028600
  0
VERTEX
  8
0
 10
146.069551
 20
154.000000
 42
-0.024386
  0
VERTEX
  8
0
 10
147.729013
 20
153.919015
 42
-0.146252
  0
VERTEX
  8
0
 10
148.520632
 20
153.595492
 42
-0.206399
  0
VERTEX
  8
0
 10
148.857663
 20
152.956407
 42
-0.055405
  0
VERTEX
  8
0
 10
148.819551
 20
151.783373
 42
-0.186818
  0
VERTEX
  8
0
 10
147.846346
 20
150.053891
 42
-0.084353
  0
VERTEX
  8
0
 10
145.552512
 20
148.738830
 42
-0.072903
  0
VERTEX
  8
0
 10
142.567624
 20
148.112908
 42
-0.076916
  0
VERTEX
  8
0
 10
139.585600
 20
148.389160
 42
-0.195729
  0
VERTEX
  8
0
 10
136.205627
 20
150.866388
 42
-0.100907
  0
VERTEX
  8
0
 10
134.374451
 20
155.873338
 42
-0.096706
  0
VERTEX
  8
0
 10
134.613359
 20
161.383754
 42
-0.164972
  0
VERTEX
  8
0
 10
137.047789
 20
165.239780
 42
-0.093304
  0
VERTEX
  8
0
 10
139.563894
 20
166.596711
 42
-0.095062
  0
VERTEX
  8
0
 10
142.384223
 20
166.933828
 42
-0.093248
  0
VERTEX
  8
0
 10
145.173287
 20
166.202180
 42
-0.085934
  0
VERTEX
  8
0
 10
147.597019
 20
164.493890
 42
0.033263
  0
VERTEX
  8
0
 10
148.910974
 20
163.344023
 42
0.071290
  0
VERTEX
  8
0
 10
150.084121
 20
162.687724
 42
0.085513
  0
VERTEX
  8
0
 10
151.249189
 20
162.455059
 42
0.068206
  0
VERTEX
  8
0
 10
152.524675
 20
162.595549
 42
0.027809
  0
VERTEX
  8
0
 10
153.962504
 20
163.042700
 42
0.242809
  0
VERTEX
  8
0
 10
154.397833
 20
163.522073
 42
0.172853
  0
VERTEX
  8
0
 10
154.337368
 20
164.262895
 42
0.013373
  0
VERTEX
  8
0
 10
153.456183
 20
166.084732
 42
0.125691
  0
VERTEX
  8
0
 10
150.334729
 20
169.591575
 42
0.094946
  0
VERTEX
  8
0
 10
145.575115
 20
171.626839
 42
0.090540
  0
VERTEX
  8
0
 10
140.190440
 20
171.810893
 42
0.100620
  0
SEQEND
  0
POLYLINE
  8
0
 66
1
 70
1
  0
VERTEX
  8
0
 10
161.000000
 20
170.000000
 42
0.075780
  0
VERTEX
  8
0
 10
161.142566
 20
169.064742
 42
0.149477
  0
VERTEX
  8
0
 10
161.562500
 20
168.450000
 42
0.124434
  0
VERTEX
  8
0
 10
162.317234
 20
168.106468
 42
0.044917
  0
VERTEX
  8
0
 10
163.500000
 20
168.000000
 42
0.044917
  0
VERTEX
  8
0
 10
164.682766
 20
168.106468
 42
0.124434
  0
VERTEX
  8
0
 10
165.437500
 20
168.450000
 42
0.149477
  0
VERTEX
  8
0
 10
165.857434
 20
169.064742
 42
0.075780
  0
VERTEX
  8
0
 10
166.000000
 20
170.000000
 42
0.075780
  0
VERTEX
  8
0
 10
165.857434
 20
170.935258
 42
0.149477
  0
VERTEX
  8
0
 10
165.437500
 20
171.550000
 42
0.124434
  0
VERTEX
  8
0
 10
164.682766
 20
171.893532
 42
0.044917
  0
VERTEX
  8
0
 10
163.500000
 20
172.000000
 42
0.044917
  0
VERTEX
  8
0
 10
162.317234
 20
171.893532
 42
0.124434
  0
VERTEX
  8
0
 10
161.562500
 20
171.550000
 42
0.149477
  0
VERTEX
  8
0
 10
161.142566
 20
170.935258
 42
0.075780
  0
SEQEND
  0
POLYLINE
  8
0
 66
1
 70
1
  0
VERTEX
  8
0
 10
243.000000
 20
157.500000
 42
0.000000
  0
VERTEX
  8
0
 10
243.000000
 20
143.000000
 42
0.000000
  0
VERTEX
  8
0
 10
245.500000
 20
143.000000
 42
0.070565
  0
VERTEX
  8
0
 10
246.932313
 20
143.203153
 42
0.222760
  0
VERTEX
  8
0
 10
247.642782
 20
143.826474
 42
0.094738
  0
VERTEX
  8
0
 10
247.948506
 20
145.172321
 42
0.007974
  0
VERTEX
  8
0
 10
248.014742
 20
148.750000
 42
-0.030826
  0
VERTEX
  8
0
 10
248.320155
 20
153.500885
 42
-0.077820
  0
VERTEX
  8
0
 10
249.278748
 20
156.820025
 42
-0.123043
  0
VERTEX
  8
0
 10
250.866032
 20
158.777510
 42
-0.162560
  0
VERTEX
  8
0
 10
253.029533
 20
159.500000
 42
-0.102522
  0
VERTEX
  8
0
 10
254.453825
 20
159.204854
 42
-0.212932
  0
VERTEX
  8
0
 10
255.205564
 20
158.385746
 42
-0.067436
  0
VERTEX
  8
0
 10
255.554875
 20
156.552366
 42
-0.004604
  0
VERTEX
  8
0
 10
255.790442
 20
151.250000
 42
0.000000
  0
VERTEX
  8
0
 10
256.080885
 20
143.000000
 42
0.000000
  0
VERTEX
  8
0
 10
259.143059
 20
143.000000
 42
0.000000
  0
VERTEX
  8
0
 10
262.205232
 20
143.000000
 42
0.000000
  0
VERTEX
  8
0
 10
261.852616
 20
151.395725
 42
0.009705
  0
VERTEX
  8
0
 10
261.585014
 20
155.749698
 42
0.034046
  0
VERTEX
  8
0
 10
261.168551
 20
158.526679
 42
0.053452
  0
VERTEX
  8
0
 10
260.517818
 20
160.466078
 42
0.076447
  0
VERTEX
  8
0
 10
259.520273
 20
161.978311
 42
0.107966
  0
VERTEX
  8
0
 10
257.753541
 20
163.239523
 42
0.086942
  0
VERTEX
  8
0
 10
255.476941
 20
163.775997
 42
0.071885
  0
VERTEX
  8
0
 10
252.770910
 20
163.543940
 42
0.045115
  0
VERTEX
  8
0
 10
249.750000
 20
162.545394
 42
-0.122373
  0
VERTEX
  8
0
 10
248.835960
 20
162.392375
 42
-0.284973
  0
VERTEX
  8
0
 10
248.298494
 20
162.786635
 42
-0.087421
  0
VERTEX
  8
0
 10
248.049616
 20
163.964239
 42
-0.008470
  0
VERTEX
  8
0
 10
248.000000
 20
166.893011
 42
0.009912
  0
VERTEX
  8
0
 10
247.938205
 20
170.009825
 42
0.104272
  0
VERTEX
  8
0
 10
247.627619
 20
171.239301
 42
0.218185
  0
VERTEX
  8
0
 10
246.922124
 20
171.816757
 42
0.064161
  0
VERTEX
  8
0
 10
245.500000
 20
172.000000
 42
0.000000
  0
VERTEX
  8
0
 10
243.000000
 20
172.000000
 42
0.000000
  0
SEQEND
  0
POLYLINE
  8
0
 66
1
 70
1
  0
VERTEX
  8
0
 10
271.615010
 20
169.535183
 42
0.009212
  0
VERTEX
  8
0
 10
270.996447
 20
168.552094
 42
0.012338
  0
VERTEX
  8
0
 10
270.474409
 20
167.637196
 42
0.009554
  0
VERTEX
  8
0
 10
270.075576
 20
166.861165
 42
0.114403
  0
VERTEX
  8
0
 10
270.000000
 20
166.535183
 42
0.380034
  0
VERTEX
  8
0
 10
270.502257
 20
165.969815
 42
0.094781
  0
VERTEX
  8
0
 10
271.844345
 20
166.065139
 42
0.068337
  0
VERTEX
  8
0
 10
273.443583
 20
166.734449
 42
0.101138
  0
VERTEX
  8
0
 10
274.568337
 20
167.750000
 42
-0.011806
  0
VERTEX
  8
0
 10
275.398405
 20
168.823081
 42
-0.225928
  0
VERTEX
  8
0
 10
275.769958
 20
169.000000
 42
-0.289816
  0
VERTEX
  8
0
 10
276.083275
 20
168.801739
 42
-0.018157
  0
VERTEX
  8
0
 10
276.535569
 20
167.750000
 42
0.164174
  0
VERTEX
  8
0
 10
277.374108
 20
166.744839
 42
0.071221
  0
VERTEX
  8
0
 10
278.992251
 20
166.045618
 42
0.093272
  0
VERTEX
  8
0
 10
280.454929
 20
165.928837
 42
0.383401
  0
VERTEX
  8
0
 10
281.000000
 20
166.535183
 42
0.149174
  0
VERTEX
  8
0
 10
280.521593
 20
168.103017
 42
0.049109
  0
VERTEX
  8
0
 10
278.969180
 20
169.982171
 42
0.049122
  0
VERTEX
  8
0
 10
277.078109
 20
171.524033
 42
0.147521
  0
VERTEX
  8
0
 10
275.500000
 20
172.000000
 42
0.086095
  0
VERTEX
  8
0
 10
274.487889
 20
171.824423
 42
0.055515
  0
VERTEX
  8
0
 10
273.415850
 20
171.300676
 42
0.052261
  0
VERTEX
  8
0
 10
272.415649
 20
170.508606
 42
0.054188
  0
SEQEND
  0
POLYLINE
  8
0
 66
1
 70
1
  0
VERTEX
  8
0
 10
394.000000
 20
157.500000
 42
0.000000
  0
VERTEX
  8
0
 10
394.000000
 20
143.000000
 42
0.000000
  0
VERTEX
  8
0
 10
396.500000
 20
143.000000
 42
0.049942
  0
VERTEX
  8
0
 10
397.854237
 20
143.135604
 42
0.185590
  0
VERTEX
  8
0
 10
398.564955
 20
143.587756
 42
0.136988
  0
VERTEX
  8
0
 10
398.912921
 20
144.498629
 42
0.023160
  0
VERTEX
  8
0
 10
399.000000
 20
146.377555
 42
-0.037148
  0
VERTEX
  8
0
 10
399.102481
 20
147.755022
 42
-0.037216
  0
VERTEX
  8
0
 10
399.407665
 20
149.101285
 42
-0.039802
  0
VERTEX
  8
0
 10
399.854271
 20
150.229646
 42
-0.105799
  0
VERTEX
  8
0
 10
400.387794
 20
150.906877
 42
-0.169373
  0
VERTEX
  8
0
 10
401.214859
 20
151.215511
 42
-0.181367
  0
VERTEX
  8
0
 10
402.027049
 20
150.930737
 42
-0.073543
  0
VERTEX
  8
0
 10
402.987063
 20
149.853474
 42
-0.012750
  0
VERTEX
  8
0
 10
404.429948
 20
147.529322
 42
0.018614
  0
VERTEX
  8
0
 10
405.943989
 20
145.153190
 42
0.070993
  0
VERTEX
  8
0
 10
407.134169
 20
143.866071
 42
0.103391
  0
VERTEX
  8
0
 10
408.385695
 20
143.219733
 42
0.067769
  0
VERTEX
  8
0
 10
409.999428
 20
143.000000
 42
0.000000
  0
VERTEX
  8
0
 10
412.914548
 20
143.000000
 42
0.000000
  0
VERTEX
  8
0
 10
408.998545
 20
149.750000
 42
0.000000
  0
VERTEX
  8
0
 10
405.082543
 20
156.500000
 42
0.000000
  0
VERTEX
  8
0
 10
408.744219
 20
160.250000
 42
0.000000
  0
VERTEX
  8
0
 10
412.405896
 20
164.000000
 42
0.000000
  0
VERTEX
  8
0
 10
409.058925
 20
164.000000
 42
0.053873
  0
VERTEX
  8
0
 10
407.245611
 20
163.804055
 42
0.074500
  0
VERTEX
  8
0
 10
405.718719
 20
163.222333
 42
0.060187
  0
VERTEX
  8
0
 10
404.206619
 20
162.112965
 42
0.023454
  0
VERTEX
  8
0
 10
402.397604
 20
160.250000
 42
0.000000
  0
VERTEX
  8
0
 10
399.083253
 20
156.500000
 42
0.000000
  0
VERTEX
  8
0
 10
399.041627
 20
164.250000
 42
0.004768
  0
VERTEX
  8
0
 10
398.966793
 20
169.269326
 42
0.073244
  0
VERTEX
  8
0
 10
398.673540
 20
170.970837
 42
0.225969
  0
VERTEX
  8
0
 10
397.947192
 20
171.732953
 42
0.091491
  0
VERTEX
  8
0
 10
396.500000
 20
172.000000
 42
0.000000
  0
VERTEX
  8
0
 10
394.000000
 20
172.000000
 42
0.000000
  0
SEQEND
  0
POLYLINE
  8
0
 66
1
 70
1
  0
VERTEX
  8
0
 10
339.250000
 20
169.471411
 42
0.051654
  0
VERTEX
  8
0
 10
338.389228
 20
168.721216
 42
0.045784
  0
VERTEX
  8
0
 10
337.660937
 20
167.781289
 42
0.048420
  0
VERTEX
  8
0
 10
337.162686
 20
166.802694
 42
0.093818
  0
VERTEX
  8
0
 10
337.000000
 20
165.943296
 42
-0.075621
  0
VERTEX
  8
0
 10
336.887063
 20
165.200834
 42
-0.089098
  0
VERTEX
  8
0
 10
336.559375
 20
164.570843
 42
-0.100722
  0
VERTEX
  8
0
 10
336.072039
 20
164.149697
 42
-0.128679
  0
VERTEX
  8
0
 10
335.500000
 20
164.000000
 42
0.130775
  0
VERTEX
  8
0
 10
334.924246
 20
163.846791
 42
0.102140
  0
VERTEX
  8
0
 10
334.437500
 20
163.416667
 42
0.088920
  0
VERTEX
  8
0
 10
334.111864
 20
162.769411
 42
0.072314
  0
VERTEX
  8
0
 10
334.000000
 20
162.000000
 42
0.072314
  0
VERTEX
  8
0
 10
334.111864
 20
161.230589
 42
0.088920
  0
VERTEX
  8
0
 10
334.437500
 20
160.583333
 42
0.102140
  0
VERTEX
  8
0
 10
334.924246
 20
160.153209
 42
0.130775
  0
VERTEX
  8
0
 10
335.500000
 20
160.000000
 42
-0.246824
  0
VERTEX
  8
0
 10
336.239353
 20
159.611342
 42
-0.100382
  0
VERTEX
  8
0
 10
336.698630
 20
158.533333
 42
-0.042731
  0
VERTEX
  8
0
 10
336.939716
 20
156.486569
 42
-0.007960
  0
VERTEX
  8
0
 10
337.000000
 20
152.700000
 42
0.019377
  0
VERTEX
  8
0
 10
337.205532
 20
147.398608
 42
0.113933
  0
VERTEX
  8
0
 10
338.034371
 20
144.760245
 42
0.189042
  0
VERTEX
  8
0
 10
339.716387
 20
143.438992
 42
0.073173
  0
VERTEX
  8
0
 10
342.700000
 20
143.000000
 42
0.025766
  0
VERTEX
  8
0
 10
344.355272
 20
143.085356
 42
0.104268
  0
VERTEX
  8
0
 10
345.311955
 20
143.392679
 42
0.167073
  0
VERTEX
  8
0
 10
345.819644
 20
143.970246
 42
0.097813
  0
VERTEX
  8
0
 10
346.000000
 20
144.883369
 42
0.097502
  0
VERTEX
  8
0
 10
345.850026
 20
145.645137
 42
0.076311
  0
VERTEX
  8
0
 10
345.415093
 20
146.368896
 42
0.073995
  0
VERTEX
  8
0
 10
344.767412
 20
146.948101
 42
0.081717
  0
VERTEX
  8
0
 10
344.000000
 20
147.289749
 42
-0.119045
  0
VERTEX
  8
0
 10
342.957472
 20
147.849513
 42
-0.137744
  0
VERTEX
  8
0
 10
342.353510
 20
148.797395
 42
-0.063547
  0
VERTEX
  8
0
 10
342.067665
 20
150.497111
 42
-0.009923
  0
VERTEX
  8
0
 10
342.000000
 20
153.906380
 42
-0.008241
  0
VERTEX
  8
0
 10
342.058244
 20
157.440114
 42
-0.071163
  0
VERTEX
  8
0
 10
342.332053
 20
158.988298
 42
-0.188305
  0
VERTEX
  8
0
 10
342.938253
 20
159.723706
 42
-0.127982
  0
VERTEX
  8
0
 10
344.000000
 20
160.000000
 42
0.072254
  0
VERTEX
  8
0
 10
344.873159
 20
160.126841
 42
0.124864
  0
VERTEX
  8
0
 10
345.500000
 20
160.500000
 42
0.124864
  0
VERTEX
  8
0
 10
345.873159
 20
161.126841
 42
0.072254
  0
VERTEX
  8
0
 10
346.000000
 20
162.000000
 42
0.072022
  0
VERTEX
  8
0
 10
345.874980
 20
162.863429
 42
0.121210
  0
VERTEX
  8
0
 10
345.507546
 20
163.492220
 42
0.123844
  0
VERTEX
  8
0
 10
344.896928
 20
163.870204
 42
0.077116
  0
VERTEX
  8
0
 10
344.060365
 20
164.000000
 42
-0.102034
  0
VERTEX
  8
0
 10
343.109615
 20
164.196059
 42
-0.150205
  0
VERTEX
  8
0
 10
342.464650
 20
164.744743
 42
-0.094851
  0
VERTEX
  8
0
 10
342.054907
 20
165.774888
 42
-0.025427
  0
VERTEX
  8
0
 10
341.810365
 20
167.528115
 42
0.009167
  0
VERTEX
  8
0
 10
341.567776
 20
169.806467
 42
0.201970
  0
VERTEX
  8
0
 10
341.240945
 20
170.373355
 42
0.305543
  0
VERTEX
  8
0
 10
340.688817
 20
170.404396
 42
0.019188
  0
SEQEND
  0
POLYLINE
  8
0
 66
1
 70
1
  0
VERTEX
  8
0
 10
231.750000
 20
168.919901
 42
0.073300
  0
VERTEX
  8
0
 10
231.080559
 20
168.385436
 42
0.054601
  0
VERTEX
  8
0
 10
230.514062
 20
167.627130
 42
0.055025
  0
VERTEX
  8
0
 10
230.129487
 20
166.771895
 42
0.078320
  0
VERTEX
  8
0
 10
230.000000
 20
165.950310
 42
-0.075336
  0
VERTEX
  8
0
 10
229.887085
 20
165.205157
 42
-0.088944
  0
VERTEX
  8
0
 10
229.559375
 20
164.572904
 42
-0.100708
  0
VERTEX
  8
0
 10
229.072036
 20
164.150246
 42
-0.129136
  0
VERTEX
  8
0
 10
228.500000
 20
164.000000
 42
0.130775
  0
VERTEX
  8
0
 10
227.924246
 20
163.846791
 42
0.102140
  0
VERTEX
  8
0
 10
227.437500
 20
163.416667
 42
0.088920
  0
VERTEX
  8
0
 10
227.111864
 20
162.769411
 42
0.072314
  0
VERTEX
  8
0
 10
227.000000
 20
162.000000
 42
0.072314
  0
VERTEX
  8
0
 10
227.111864
 20
161.230589
 42
0.088920
  0
VERTEX
  8
0
 10
227.437500
 20
160.583333
 42
0.102140
  0
VERTEX
  8
0
 10
227.924246
 20
160.153209
 42
0.130775
  0
VERTEX
  8
0
 10
228.500000
 20
160.000000
 42
-0.249691
  0
VERTEX
  8
0
 10
229.241195
 20
159.605249
 42
-0.098755
  0
VERTEX
  8
0
 10
229.699764
 20
158.505864
 42
-0.041890
  0
VERTEX
  8
0
 10
229.940135
 20
156.417054
 42
-0.007710
  0
VERTEX
  8
0
 10
230.000000
 20
152.535184
 42
0.022495
  0
VERTEX
  8
0
 10
230.234543
 20
147.324528
 42
0.126580
  0
VERTEX
  8
0
 10
231.160938
 20
144.720441
 42
0.185875
  0
VERTEX
  8
0
 10
233.031841
 20
143.413849
 42
0.060594
  0
VERTEX
  8
0
 10
236.434259
 20
143.000000
 42
0.143476
  0
VERTEX
  8
0
 10
238.206732
 20
143.519305
 42
0.220906
  0
VERTEX
  8
0
 10
239.049004
 20
144.845144
 42
0.221858
  0
VERTEX
  8
0
 10
238.577774
 20
146.339247
 42
0.144201
  0
VERTEX
  8
0
 10
237.000000
 20
147.289749
 42
-0.119045
  0
VERTEX
  8
0
 10
235.957472
 20
147.849513
 42
-0.137744
  0
VERTEX
  8
0
 10
235.353510
 20
148.797395
 42
-0.063547
  0
VERTEX
  8
0
 10
235.067665
 20
150.497111
 42
-0.009923
  0
VERTEX
  8
0
 10
235.000000
 20
153.906380
 42
-0.008241
  0
VERTEX
  8
0
 10
235.058244
 20
157.440114
 42
-0.071163
  0
VERTEX
  8
0
 10
235.332053
 20
158.988298
 42
-0.188305
  0
VERTEX
  8
0
 10
235.938253
 20
159.723706
 42
-0.127982
  0
VERTEX
  8
0
 10
237.000000
 20
160.000000
 42
0.072254
  0
VERTEX
  8
0
 10
237.873159
 20
160.126841
 42
0.124864
  0
VERTEX
  8
0
 10
238.500000
 20
160.500000
 42
0.124864
  0
VERTEX
  8
0
 10
238.873159
 20
161.126841
 42
0.072254
  0
VERTEX
  8
0
 10
239.000000
 20
162.000000
 42
0.072254
  0
VERTEX
  8
0
 10
238.873159
 20
162.873159
 42
0.124864
  0
VERTEX
  8
0
 10
238.500000
 20
163.500000
 42
0.124864
  0
VERTEX
  8
0
 10
237.873159
 20
163.873159
 42
0.072254
  0
VERTEX
  8
0
 10
237.000000
 20
164.000000
 42
-0.081208
  0
VERTEX
  8
0
 10
236.024683
 20
164.159458
 42
-0.166173
  0
VERTEX
  8
0
 10
235.416667
 20
164.625000
 42
-0.116834
  0
VERTEX
  8
0
 10
235.092253
 20
165.499083
 42
-0.030703
  0
VERTEX
  8
0
 10
235.000000
 20
167.000000
 42
0.028196
  0
VERTEX
  8
0
 10
234.886060
 20
169.018879
 42
0.235320
  0
VERTEX
  8
0
 10
234.402871
 20
169.764514
 42
0.240413
  0
VERTEX
  8
0
 10
233.524864
 20
169.818765
 42
0.029321
  0
SEQEND
  0
POLYLINE
  8
0
 66
1
 70
1
  0
VERTEX
  8
0
 10
161.000000
 20
153.500000
 42
0.000000
  0
VERTEX
  8
0
 10
161.000000
 20
143.000000
 42
0.000000
  0
VERTEX
  8
0
 10
163.500000
 20
143.000000
 42
0.000000
  0
VERTEX
  8
0
 10
166.000000
 20
143.000000
 42
0.000000
  0
VERTEX
  8
0
 10
166.000000
 20
153.500000
 42
0.000000
  0
VERTEX
  8
0
 10
166.000000
 20
164.000000
 42
0.000000
  0
VERTEX
  8
0
 10
163.500000
 20
164.000000
 42
0.000000
  0
VERTEX
  8
0
 10
161.000000
 20
164.000000
 42
0.000000
  0
SEQEND
  0
POLYLINE
  8
0
 66
1
 70
1
  0
VERTEX
  8
0
 10
174.500000
 20
162.805055
 42
0.044103
  0
VERTEX
  8
0
 10
172.151495
 20
161.184530
 42
0.159053
  0
VERTEX
  8
0
 10
171.193082
 20
159.666598
 42
0.270357
  0
VERTEX
  8
0
 10
171.559644
 20
158.393608
 42
0.114245
  0
VERTEX
  8
0
 10
173.146512
 20
157.453499
 42
0.053325
  0
VERTEX
  8
0
 10
174.157358
 20
157.247766
 42
0.098065
  0
VERTEX
  8
0
 10
174.989601
 20
157.332336
 42
0.110405
  0
VERTEX
  8
0
 10
175.661301
 20
157.713983
 42
0.081172
  0
VERTEX
  8
0
 10
176.196203
 20
158.386111
 42
-0.163218
  0
VERTEX
  8
0
 10
177.470800
 20
159.542960
 42
-0.104914
  0
VERTEX
  8
0
 10
179.443711
 20
159.951858
 42
-0.110027
  0
VERTEX
  8
0
 10
181.339016
 20
159.520318
 42
-0.192668
  0
VERTEX
  8
0
 10
182.416550
 20
158.356872
 42
-0.074745
  0
VERTEX
  8
0
 10
182.711088
 20
157.022161
 42
-0.251384
  0
VERTEX
  8
0
 10
182.354687
 20
156.233798
 42
-0.100288
  0
VERTEX
  8
0
 10
181.179993
 20
155.660917
 42
-0.008206
  0
VERTEX
  8
0
 10
177.842638
 20
154.853308
 42
0.023337
  0
VERTEX
  8
0
 10
176.061930
 20
154.364928
 42
0.021295
  0
VERTEX
  8
0
 10
174.278115
 20
153.699743
 42
0.021843
  0
VERTEX
  8
0
 10
172.736152
 20
152.967798
 42
0.062254
  0
VERTEX
  8
0
 10
171.764773
 20
152.287123
 42
0.214678
  0
VERTEX
  8
0
 10
170.150507
 20
148.596217
 42
0.216187
  0
VERTEX
  8
0
 10
171.848814
 20
144.955417
 42
0.159510
  0
VERTEX
  8
0
 10
176.329665
 20
143.102218
 42
0.142759
  0
VERTEX
  8
0
 10
181.267942
 20
144.143398
 42
-0.023822
  0
VERTEX
  8
0
 10
182.329681
 20
144.648132
 42
-0.099357
  0
VERTEX
  8
0
 10
183.020605
 20
144.786796
 42
-0.185192
  0
VERTEX
  8
0
 10
183.479213
 20
144.610904
 42
-0.129867
  0
VERTEX
  8
0
 10
183.785534
 20
144.143398
 42
0.146848
  0
VERTEX
  8
0
 10
184.093934
 20
143.705289
 42
0.063616
  0
VERTEX
  8
0
 10
184.711945
 20
143.335873
 42
0.055218
  0
VERTEX
  8
0
 10
185.519916
 20
143.084718
 42
0.047800
  0
VERTEX
  8
0
 10
186.404068
 20
143.000000
 42
0.128130
  0
VERTEX
  8
0
 10
187.654980
 20
143.325910
 42
0.216982
  0
VERTEX
  8
0
 10
188.284327
 20
144.182380
 42
0.059404
  0
VERTEX
  8
0
 10
188.453909
 20
146.111001
 42
0.003838
  0
VERTEX
  8
0
 10
188.235903
 20
151.750000
 42
0.008129
  0
VERTEX
  8
0
 10
187.940666
 20
156.461989
 42
0.037200
  0
VERTEX
  8
0
 10
187.522504
 20
159.170171
 42
0.066303
  0
VERTEX
  8
0
 10
186.858738
 20
160.933753
 42
0.091747
  0
VERTEX
  8
0
 10
185.804385
 20
162.250000
 42
0.112765
  0
VERTEX
  8
0
 10
183.608537
 20
163.415224
 42
0.053607
  0
VERTEX
  8
0
 10
180.429401
 20
163.915793
 42
0.052835
  0
VERTEX
  8
0
 10
177.119262
 20
163.728537
 42
0.088673
  0
SEQEND
  0
POLYLINE
  8
0
 66
1
 70
1
  0
VERTEX
  8
0
 10
182.057457
 20
149.107359
 42
-0.111956
  0
VERTEX
  8
0
 10
180.857426
 20
147.723518
 42
-0.128103
  0
VERTEX
  8
0
 10
179.233894
 20
147.077667
 42
-0.131259
  0
VERTEX
  8
0
 10
177.532027
 20
147.312694
 42
-0.120532
  0
VERTEX
  8
0
 10
176.110114
 20
148.367321
 42
-0.166169
  0
VERTEX
  8
0
 10
175.673606
 20
149.515164
 42
-0.191203
  0
VERTEX
  8
0
 10
176.066438
 20
150.612480
 42
-0.113990
  0
VERTEX
  8
0
 10
177.376369
 20
151.551954
 42
-0.045292
  0
VERTEX
  8
0
 10
179.500000
 20
152.219705
 42
-0.068817
  0
VERTEX
  8
0
 10
181.277315
 20
152.356311
 42
-0.208507
  0
VERTEX
  8
0
 10
182.334358
 20
151.816932
 42
-0.221650
  0
VERTEX
  8
0
 10
182.619698
 20
150.706833
 42
-0.076836
  0
SEQEND
  0
POLYLINE
  8
0
 66
1
 70
1
  0
VERTEX
  8
0
 10
197.775141
 20
162.441198
 42
0.059746
  0
VERTEX
  8
0
 10
195.564037
 20
160.874137
 42
0.086305
  0
VERTEX
  8
0
 10
194.093124
 20
158.989440
 42
0.079473
  0
VERTEX
  8
0
 10
193.269193
 20
156.598892
 42
0.043352
  0
VERTEX
  8
0
 10
193.000000
 20
153.500000
 42
0.044027
  0
VERTEX
  8
0
 10
193.277528
 20
150.354347
 42
0.082660
  0
VERTEX
  8
0
 10
194.128578
 20
147.955639
 42
0.088985
  0
VERTEX
  8
0
 10
195.658491
 20
146.076781
 42
0.058230
  0
VERTEX
  8
0
 10
197.979984
 20
144.510350
 42
0.061026
  0
VERTEX
  8
0
 10
201.484634
 20
143.209772
 42
0.095811
  0
VERTEX
  8
0
 10
204.684678
 20
143.073983
 42
0.096617
  0
VERTEX
  8
0
 10
207.685692
 20
144.139828
 42
0.062957
  0
VERTEX
  8
0
 10
210.600000
 20
146.400000
 42
0.025976
  0
VERTEX
  8
0
 10
212.277969
 20
148.262002
 42
0.058796
  0
VERTEX
  8
0
 10
213.290541
 20
149.862599
 42
0.067328
  0
VERTEX
  8
0
 10
213.822939
 20
151.512420
 42
0.044454
  0
VERTEX
  8
0
 10
214.000000
 20
153.500000
 42
0.044454
  0
VERTEX
  8
0
 10
213.822939
 20
155.487580
 42
0.067328
  0
VERTEX
  8
0
 10
213.290541
 20
157.137401
 42
0.058796
  0
VERTEX
  8
0
 10
212.277969
 20
158.737998
 42
0.025976
  0
VERTEX
  8
0
 10
210.600000
 20
160.600000
 42
0.066745
  0
VERTEX
  8
0
 10
207.655177
 20
162.848468
 42
0.094334
  0
VERTEX
  8
0
 10
204.541945
 20
163.917269
 42
0.094131
  0
VERTEX
  8
0
 10
201.248695
 20
163.768584
 42
0.066191
  0
SEQEND
  0
POLYLINE
  8
0
 66
1
 70
1
  0
VERTEX
  8
0
 10
206.977555
 20
158.527044
 42
-0.083467
  0
VERTEX
  8
0
 10
207.448004
 20
157.717031
 42
-0.030280
  0
VERTEX
  8
0
 10
207.840907
 20
156.442756
 42
-0.029019
  0
VERTEX
  8
0
 10
208.109929
 20
154.968729
 42
-0.030634
  0
VERTEX
  8
0
 10
208.200000
 20
153.500000
 42
-0.052519
  0
VERTEX
  8
0
 10
207.902703
 20
150.677439
 42
-0.106089
  0
VERTEX
  8
0
 10
206.992705
 20
148.646631
 42
-0.131116
  0
VERTEX
  8
0
 10
205.484360
 20
147.433375
 42
-0.104541
  0
VERTEX
  8
0
 10
203.434259
 20
147.000000
 42
-0.137970
  0
VERTEX
  8
0
 10
201.535313
 20
147.534165
 42
-0.081692
  0
VERTEX
  8
0
 10
199.740268
 20
149.081562
 42
-0.077174
  0
VERTEX
  8
0
 10
198.446551
 20
151.228637
 42
-0.097368
  0
VERTEX
  8
0
 10
198.000000
 20
153.500000
 42
-0.134445
  0
VERTEX
  8
0
 10
198.911829
 20
156.829790
 42
-0.132204
  0
VERTEX
  8
0
 10
201.397040
 20
159.255773
 42
-0.155475
  0
VERTEX
  8
0
 10
204.452329
 20
159.881399
 42
-0.195321
  0
SEQEND
  0
POLYLINE
  8
0
 66
1
 70
1
  0
VERTEX
  8
0
 10
268.923077
 20
161.076923
 42
0.148124
  0
VERTEX
  8
0
 10
266.119403
 20
155.836843
 42
0.133360
  0
VERTEX
  8
0
 10
266.538480
 20
149.681290
 42
0.141411
  0
VERTEX
  8
0
 10
269.955185
 20
144.835057
 42
0.171703
  0
VERTEX
  8
0
 10
275.173077
 20
143.014742
 42
0.051931
  0
VERTEX
  8
0
 10
277.909309
 20
143.311964
 42
0.047892
  0
VERTEX
  8
0
 10
280.604772
 20
144.168509
 42
0.051464
  0
VERTEX
  8
0
 10
282.754513
 20
145.360368
 42
0.162239
  0
VERTEX
  8
0
 10
283.726078
 20
146.665141
 42
0.310955
  0
VERTEX
  8
0
 10
283.420471
 20
147.709893
 42
0.101683
  0
VERTEX
  8
0
 10
281.920517
 20
148.491925
 42
0.085395
  0
VERTEX
  8
0
 10
280.022666
 20
148.696836
 42
0.182635
  0
VERTEX
  8
0
 10
278.699337
 20
148.099337
 42
-0.114719
  0
VERTEX
  8
0
 10
277.362567
 20
147.266902
 42
-0.101700
  0
VERTEX
  8
0
 10
275.733572
 20
147.060859
 42
-0.094222
  0
VERTEX
  8
0
 10
274.051527
 20
147.516934
 42
-0.083375
  0
VERTEX
  8
0
 10
272.571429
 20
148.571429
 42
-0.074752
  0
VERTEX
  8
0
 10
271.298930
 20
150.294253
 42
-0.395107
  0
VERTEX
  8
0
 10
271.579899
 20
151.327062
 42
-0.127052
  0
VERTEX
  8
0
 10
273.395448
 20
151.888416
 42
-0.011780
  0
VERTEX
  8
0
 10
278.130842
 20
152.000000
 42
0.000000
  0
VERTEX
  8
0
 10
285.261685
 20
152.000000
 42
0.000000
  0
VERTEX
  8
0
 10
284.664603
 20
155.750000
 42
0.126683
  0
VERTEX
  8
0
 10
282.548247
 20
160.620394
 42
0.146676
  0
VERTEX
  8
0
 10
278.438547
 20
163.539350
 42
0.148679
  0
VERTEX
  8
0
 10
273.445293
 20
163.694729
 42
0.131071
  0
SEQEND
  0
POLYLINE
  8
0
 66
1
 70
1
  0
VERTEX
  8
0
 10
277.572942
 20
159.234687
 42
-0.062485
  0
VERTEX
  8
0
 10
278.030477
 20
158.829153
 42
-0.028920
  0
VERTEX
  8
0
 10
278.520373
 20
158.201752
 42
-0.028095
  0
VERTEX
  8
0
 10
278.965584
 20
157.473876
 42
-0.034842
  0
VERTEX
  8
0
 10
279.291557
 20
156.750000
 42
-0.115025
  0
VERTEX
  8
0
 10
279.404629
 20
155.845887
 42
-0.266731
  0
VERTEX
  8
0
 10
279.017928
 20
155.310977
 42
-0.095410
  0
VERTEX
  8
0
 10
277.938132
 20
155.054414
 42
-0.010759
  0
VERTEX
  8
0
 10
275.409598
 20
155.000000
 42
-0.015624
  0
VERTEX
  8
0
 10
273.701090
 20
155.053399
 42
-0.029373
  0
VERTEX
  8
0
 10
272.330875
 20
155.220313
 42
-0.035719
  0
VERTEX
  8
0
 10
271.401911
 20
155.458857
 42
-0.465595
  0
VERTEX
  8
0
 10
271.286791
 20
155.750000
 42
0.020421
  0
VERTEX
  8
0
 10
271.483460
 20
156.152894
 42
0.005820
  0
VERTEX
  8
0
 10
271.755648
 20
156.793750
 42
0.005850
  0
VERTEX
  8
0
 10
272.046277
 20
157.525000
 42
0.006171
  0
VERTEX
  8
0
 10
272.314423
 20
158.250000
 42
-0.149962
  0
VERTEX
  8
0
 10
273.110026
 20
159.319432
 42
-0.112562
  0
VERTEX
  8
0
 10
274.463654
 20
159.906624
 42
-0.100444
  0
VERTEX
  8
0
 10
276.074188
 20
159.882295
 42
-0.096571
  0
SEQEND
  0
POLYLINE
  8
0
 66
1
 70
1
  0
VERTEX
  8
0
 10
289.000000
 20
153.500000
 42
0.000000
  0
VERTEX
  8
0
 10
289.000000
 20
143.000000
 42
0.000000
  0
VERTEX
  8
0
 10
291.500000
 20
143.000000
 42
0.072194
  0
VERTEX
  8
0
 10
292.935213
 20
143.208314
 42
0.224628
  0
VERTEX
  8
0
 10
293.644691
 20
143.843490
 42
0.092442
  0
VERTEX
  8
0
 10
293.944349
 20
145.220202
 42
0.007490
  0
VERTEX
  8
0
 10
294.000000
 20
148.934900
 42
-0.022405
  0
VERTEX
  8
0
 10
294.232598
 20
154.122961
 42
-0.070813
  0
VERTEX
  8
0
 10
295.027239
 20
157.501592
 42
-0.134348
  0
VERTEX
  8
0
 10
296.378027
 20
159.317789
 42
-0.204090
  0
VERTEX
  8
0
 10
298.251612
 20
159.819340
 42
-0.124032
  0
VERTEX
  8
0
 10
299.502261
 20
159.308336
 42
-0.163451
  0
VERTEX
  8
0
 10
300.205398
 20
158.306716
 42
-0.057802
  0
VERTEX
  8
0
 10
300.558065
 20
156.283258
 42
-0.005473
  0
VERTEX
  8
0
 10
300.790442
 20
151.250000
 42
0.000000
  0
VERTEX
  8
0
 10
301.080885
 20
143.000000
 42
0.000000
  0
VERTEX
  8
0
 10
304.040442
 20
143.000000
 42
0.000000
  0
VERTEX
  8
0
 10
307.000000
 20
143.000000
 42
0.000000
  0
VERTEX
  8
0
 10
307.000000
 20
150.300000
 42
-0.019012
  0
VERTEX
  8
0
 10
307.184316
 20
155.145585
 42
-0.080990
  0
VERTEX
  8
0
 10
307.864161
 20
157.952030
 42
-0.155121
  0
VERTEX
  8
0
 10
309.137224
 20
159.441918
 42
-0.139883
  0
VERTEX
  8
0
 10
311.093011
 20
160.000000
 42
-0.188455
  0
VERTEX
  8
0
 10
312.516331
 20
159.443782
 42
-0.137096
  0
VERTEX
  8
0
 10
313.418421
 20
157.983013
 42
-0.059066
  0
VERTEX
  8
0
 10
313.882865
 20
155.154182
 42
-0.011184
  0
VERTEX
  8
0
 10
314.000000
 20
149.918213
 42
0.005713
  0
VERTEX
  8
0
 10
314.050577
 20
145.491854
 42
0.081155
  0
VERTEX
  8
0
 10
314.340341
 20
143.941821
 42
0.227766
  0
VERTEX
  8
0
 10
315.056177
 20
143.239117
 42
0.082247
  0
VERTEX
  8
0
 10
316.500000
 20
143.000000
 42
0.103725
  0
VERTEX
  8
0
 10
317.950721
 20
143.304226
 42
0.224878
  0
VERTEX
  8
0
 10
318.680115
 20
144.144330
 42
0.064491
  0
VERTEX
  8
0
 10
318.955863
 20
146.048960
 42
0.003744
  0
VERTEX
  8
0
 10
319.000000
 20
151.943296
 42
0.006144
  0
VERTEX
  8
0
 10
318.935135
 20
157.221720
 42
0.046036
  0
VERTEX
  8
0
 10
318.644356
 20
159.704596
 42
0.099457
  0
VERTEX
  8
0
 10
317.989692
 20
161.223923
 42
0.088901
  0
VERTEX
  8
0
 10
316.777494
 20
162.443296
 42
0.065119
  0
VERTEX
  8
0
 10
314.688506
 20
163.533391
 42
0.083218
  0
VERTEX
  8
0
 10
312.557766
 20
163.931806
 42
0.085307
  0
VERTEX
  8
0
 10
310.454787
 20
163.610947
 42
0.072478
  0
VERTEX
  8
0
 10
308.446109
 20
162.599913
 42
-0.033417
  0
VERTEX
  8
0
 10
307.292668
 20
161.901901
 42
-0.119918
  0
VERTEX
  8
0
 10
306.462235
 20
161.699827
 42
-0.122712
  0
VERTEX
  8
0
 10
305.642687
 20
161.904038
 42
-0.035757
  0
VERTEX
  8
0
 10
304.532473
 20
162.599913
 42
0.082172
  0
VERTEX
  8
0
 10
302.646465
 20
163.551770
 42
0.065344
  0
VERTEX
  8
0
 10
300.396707
 20
163.944714
 42
0.063706
  0
VERTEX
  8
0
 10
298.063809
 20
163.746346
 42
0.069946
  0
VERTEX
  8
0
 10
295.934259
 20
162.964816
 42
-0.024465
  0
VERTEX
  8
0
 10
295.049945
 20
162.545821
 42
-0.098707
  0
VERTEX
  8
0
 10
294.467129
 20
162.429632
 42
-0.223915
  0
VERTEX
  8
0
 10
294.136188
 20
162.585661
 42
-0.174147
  0
VERTEX
  8
0
 10
294.000000
 20
162.964816
 42
0.220980
  0
VERTEX
  8
0
 10
293.815907
 20
163.361014
 42
0.077222
  0
VERTEX
  8
0
 10
293.265625
 20
163.695915
 42
0.058719
  0
VERTEX
  8
0
 10
292.457277
 20
163.924230
 42
0.039514
  0
VERTEX
  8
0
 10
291.500000
 20
164.000000
 42
0.000000
  0
VERTEX
  8
0
 10
289.000000
 20
164.000000
 42
0.000000
  0
SEQEND
  0
POLYLINE
  8
0
 66
1
 70
1
  0
VERTEX
  8
0
 10
351.000000
 20
162.000000
 42
0.033366
  0
VERTEX
  8
0
 10
349.499079
 20
160.284181
 42
0.168626
  0
VERTEX
  8
0
 10
349.107248
 20
159.093322
 42
0.245369
  0
VERTEX
  8
0
 10
349.598495
 20
158.188655
 42
0.071313
  0
VERTEX
  8
0
 10
351.073439
 20
157.476691
 42
0.063878
  0
VERTEX
  8
0
 10
352.055412
 20
157.298258
 42
0.089347
  0
VERTEX
  8
0
 10
352.938417
 20
157.410160
 42
0.090851
  0
VERTEX
  8
0
 10
353.716234
 20
157.820535
 42
0.068290
  0
VERTEX
  8
0
 10
354.389536
 20
158.518044
 42
-0.138499
  0
VERTEX
  8
0
 10
355.791330
 20
159.615396
 42
-0.142770
  0
VERTEX
  8
0
 10
357.542627
 20
159.800500
 42
-0.164750
  0
VERTEX
  8
0
 10
358.946883
 20
159.024419
 42
-0.186970
  0
VERTEX
  8
0
 10
359.500000
 20
157.596967
 42
-0.143979
  0
VERTEX
  8
0
 10
359.218787
 20
156.640633
 42
-0.107863
  0
VERTEX
  8
0
 10
358.437209
 20
155.861367
 42
-0.062307
  0
VERTEX
  8
0
 10
357.003139
 20
155.178211
 42
-0.017867
  0
VERTEX
  8
0
 10
354.636793
 20
154.486506
 42
0.020451
  0
VERTEX
  8
0
 10
352.711069
 20
153.912787
 42
0.024194
  0
VERTEX
  8
0
 10
350.946156
 20
153.210262
 42
0.024075
  0
VERTEX
  8
0
 10
349.536596
 20
152.484752
 42
0.121260
  0
VERTEX
  8
0
 10
348.902106
 20
151.875844
 42
0.192252
  0
VERTEX
  8
0
 10
348.182343
 20
148.024565
 42
0.180343
  0
VERTEX
  8
0
 10
350.286756
 20
144.607240
 42
0.151155
  0
VERTEX
  8
0
 10
354.486373
 20
143.017149
 42
0.139215
  0
VERTEX
  8
0
 10
359.005053
 20
144.002704
 42
-0.037319
  0
VERTEX
  8
0
 10
359.868170
 20
144.384834
 42
-0.085757
  0
VERTEX
  8
0
 10
360.566002
 20
144.505409
 42
-0.122593
  0
VERTEX
  8
0
 10
361.104695
 20
144.371313
 42
-0.133099
  0
VERTEX
  8
0
 10
361.498329
 20
144.002704
 42
0.134077
  0
VERTEX
  8
0
 10
361.911863
 20
143.616949
 42
0.044412
  0
VERTEX
  8
0
 10
362.684462
 20
143.294544
 42
0.040482
  0
VERTEX
  8
0
 10
363.645247
 20
143.073993
 42
0.036197
  0
VERTEX
  8
0
 10
364.666006
 20
143.000000
 42
0.030174
  0
VERTEX
  8
0
 10
365.885187
 20
143.073641
 42
0.141719
  0
VERTEX
  8
0
 10
366.524571
 20
143.345645
 42
0.229108
  0
VERTEX
  8
0
 10
366.751357
 20
143.831690
 42
0.088362
  0
VERTEX
  8
0
 10
366.606989
 20
144.581787
 42
-0.065369
  0
VERTEX
  8
0
 10
366.369694
 20
145.569169
 42
-0.008503
  0
VERTEX
  8
0
 10
366.178303
 20
147.731150
 42
-0.009785
  0
VERTEX
  8
0
 10
366.044446
 20
150.316988
 42
-0.008037
  0
VERTEX
  8
0
 10
366.000000
 20
153.081787
 42
0.034341
  0
VERTEX
  8
0
 10
365.618262
 20
158.633348
 42
0.131804
  0
VERTEX
  8
0
 10
364.283618
 20
161.795315
 42
0.165648
  0
VERTEX
  8
0
 10
361.747342
 20
163.460553
 42
0.063250
  0
VERTEX
  8
0
 10
357.500000
 20
164.000000
 42
0.026549
  0
VERTEX
  8
0
 10
355.330161
 20
163.884703
 42
0.048119
  0
VERTEX
  8
0
 10
353.590278
 20
163.527778
 42
0.057549
  0
VERTEX
  8
0
 10
352.177016
 20
162.907691
 42
0.064328
  0
SEQEND
  0
POLYLINE
  8
0
 66
1
 70
1
  0
VERTEX
  8
0
 10
360.000000
 20
150.519052
 42
-0.059285
  0
VERTEX
  8
0
 10
359.856071
 20
149.309441
 42
-0.114711
  0
VERTEX
  8
0
 10
359.421322
 20
148.443493
 42
-0.108617
  0
VERTEX
  8
0
 10
358.630158
 20
147.828578
 42
-0.049643
  0
VERTEX
  8
0
 10
357.392666
 20
147.383705
 42
-0.039506
  0
VERTEX
  8
0
 10
356.215479
 20
147.185347
 42
-0.071207
  0
VERTEX
  8
0
 10
355.240293
 20
147.238266
 42
-0.090726
  0
VERTEX
  8
0
 10
354.485737
 20
147.537323
 42
-0.115237
  0
VERTEX
  8
0
 10
353.958649
 20
148.066907
 42
-0.102906
  0
VERTEX
  8
0
 10
353.532085
 20
149.241006
 42
-0.174066
  0
VERTEX
  8
0
 10
353.738939
 20
150.254757
 42
-0.121621
  0
VERTEX
  8
0
 10
354.645435
 20
151.156517
 42
-0.039327
  0
VERTEX
  8
0
 10
356.352327
 20
152.006691
 42
-0.016341
  0
VERTEX
  8
0
 10
358.504186
 20
152.794181
 42
-0.178196
  0
VERTEX
  8
0
 10
359.410924
 20
152.762841
 42
-0.265508
  0
VERTEX
  8
0
 10
359.880152
 20
152.163851
 42
-0.036384
  0
SEQEND
  0
POLYLINE
  8
0
 66
1
 70
1
  0
VERTEX
  8
0
 10
373.222506
 20
162.443296
 42
0.125157
  0
VERTEX
  8
0
 10
371.724901
 20
160.703633
 42
0.093365
  0
VERTEX
  8
0
 10
371.033292
 20
158.257612
 42
0.096586
  0
VERTEX
  8
0
 10
371.287705
 20
155.801339
 42
0.146609
  0
VERTEX
  8
0
 10
372.468309
 20
154.026301
 42
0.055894
  0
VERTEX
  8
0
 10
373.307863
 20
153.474988
 42
0.015183
  0
VERTEX
  8
0
 10
374.747886
 20
152.798782
 42
0.015165
  0
VERTEX
  8
0
 10
376.439552
 20
152.126389
 42
0.015224
  0
VERTEX
  8
0
 10
378.166688
 20
151.558722
 42
-0.020985
  0
VERTEX
  8
0
 10
379.814598
 20
150.995982
 42
-0.027282
  0
VERTEX
  8
0
 10
381.267203
 20
150.337535
 42
-0.027028
  0
VERTEX
  8
0
 10
382.382723
 20
149.677656
 42
-0.166726
  0
VERTEX
  8
0
 10
382.781536
 20
149.155392
 42
-0.283363
  0
VERTEX
  8
0
 10
382.524326
 20
148.059340
 42
-0.139443
  0
VERTEX
  8
0
 10
381.226795
 20
147.331936
 42
-0.086055
  0
VERTEX
  8
0
 10
379.132862
 20
147.201601
 42
-0.062933
  0
VERTEX
  8
0
 10
376.863108
 20
147.745569
 42
0.059593
  0
VERTEX
  8
0
 10
374.615535
 20
148.300067
 42
0.061107
  0
VERTEX
  8
0
 10
372.320090
 20
148.301843
 42
0.076761
  0
VERTEX
  8
0
 10
370.580719
 20
147.812002
 42
0.293808
  0
VERTEX
  8
0
 10
370.000000
 20
146.909049
 42
0.267207
  0
VERTEX
  8
0
 10
370.705857
 20
145.682546
 42
0.037548
  0
VERTEX
  8
0
 10
373.438119
 20
144.358297
 42
0.039881
  0
VERTEX
  8
0
 10
376.771185
 20
143.339922
 42
0.054255
  0
VERTEX
  8
0
 10
379.894576
 20
143.000000
 42
0.077292
  0
VERTEX
  8
0
 10
383.567718
 20
143.571219
 42
0.094107
  0
VERTEX
  8
0
 10
386.623782
 20
145.225766
 42
0.115343
  0
VERTEX
  8
0
 10
388.440664
 20
147.580140
 42
0.169979
  0
VERTEX
  8
0
 10
388.675398
 20
150.157183
 42
0.113503
  0
VERTEX
  8
0
 10
387.739260
 20
151.991263
 42
0.084511
  0
VERTEX
  8
0
 10
386.001539
 20
153.467428
 42
0.060951
  0
VERTEX
  8
0
 10
383.340248
 20
154.636225
 42
0.026663
  0
VERTEX
  8
0
 10
379.589073
 20
155.549268
 42
-0.027802
  0
VERTEX
  8
0
 10
377.892643
 20
155.966276
 42
-0.081008
  0
VERTEX
  8
0
 10
376.814193
 20
156.498298
 42
-0.122389
  0
VERTEX
  8
0
 10
376.215455
 20
157.198737
 42
-0.116450
  0
VERTEX
  8
0
 10
376.000000
 20
158.111291
 42
-0.091852
  0
VERTEX
  8
0
 10
376.166154
 20
159.008126
 42
-0.159723
  0
VERTEX
  8
0
 10
376.639285
 20
159.589449
 42
-0.110825
  0
VERTEX
  8
0
 10
377.509640
 20
159.907278
 42
-0.032356
  0
VERTEX
  8
0
 10
378.940983
 20
160.000000
 42
-0.031397
  0
VERTEX
  8
0
 10
380.112115
 20
159.926388
 42
-0.037109
  0
VERTEX
  8
0
 10
381.199600
 20
159.706250
 42
-0.040338
  0
VERTEX
  8
0
 10
382.065839
 20
159.385578
 42
-0.146547
  0
VERTEX
  8
0
 10
382.500000
 20
159.000000
 42
0.139165
  0
VERTEX
  8
0
 10
383.260226
 20
158.304914
 42
0.118559
  0
VERTEX
  8
0
 10
384.322022
 20
158.058431
 42
0.091817
  0
VERTEX
  8
0
 10
385.608461
 20
158.307223
 42
0.054090
  0
VERTEX
  8
0
 10
387.000000
 20
159.035628
 42
0.071137
  0
VERTEX
  8
0
 10
387.686460
 20
159.652856
 42
0.249279
  0
VERTEX
  8
0
 10
387.805213
 20
160.216034
 42
0.131793
  0
VERTEX
  8
0
 10
387.399800
 20
160.888006
 42
0.017012
  0
VERTEX
  8
0
 10
386.139216
 20
162.020315
 42
0.108076
  0
VERTEX
  8
0
 10
383.468871
 20
163.419036
 42
0.058680
  0
VERTEX
  8
0
 10
379.788265
 20
163.975159
 42
0.058450
  0
VERTEX
  8
0
 10
376.055218
 20
163.660720
 42
0.102914
  0
SEQEND
  0
POLYLINE
  8
0
 66
1
 70
1
  0
VERTEX
  8
0
 10
190.000000
 20
112.500000
 42
0.000000
  0
VERTEX
  8
0
 10
190.000000
 20
98.000000
 42
0.000000
  0
VERTEX
  8
0
 10
193.000000
 20
98.000000
 42
0.000000
  0
VERTEX
  8
0
 10
196.000000
 20
98.000000
 42
0.000000
  0
VERTEX
  8
0
 10
196.000000
 20
105.300000
 42
-0.018993
  0
VERTEX
  8
0
 10
196.185951
 20
110.193546
 42
-0.083897
  0
VERTEX
  8
0
 10
196.878514
 20
112.982937
 42
-0.159999
  0
VERTEX
  8
0
 10
198.188473
 20
114.452400
 42
-0.132114
  0
VERTEX
  8
0
 10
200.224751
 20
115.000000
 42
-0.218410
  0
VERTEX
  8
0
 10
201.839099
 20
114.259496
 42
-0.095757
  0
VERTEX
  8
0
 10
203.034549
 20
112.170303
 42
-0.058626
  0
VERTEX
  8
0
 10
203.772886
 20
108.734622
 42
-0.023646
  0
VERTEX
  8
0
 10
204.000000
 20
103.934900
 42
0.007490
  0
VERTEX
  8
0
 10
204.055651
 20
100.220202
 42
0.092442
  0
VERTEX
  8
0
 10
204.355309
 20
98.843490
 42
0.224628
  0
VERTEX
  8
0
 10
205.064787
 20
98.208314
 42
0.072194
  0
VERTEX
  8
0
 10
206.500000
 20
98.000000
 42
0.098988
  0
VERTEX
  8
0
 10
207.949892
 20
98.289885
 42
0.226266
  0
VERTEX
  8
0
 10
208.676471
 20
99.100000
 42
0.067556
  0
VERTEX
  8
0
 10
208.954758
 20
100.927165
 42
0.004059
  0
VERTEX
  8
0
 10
209.000000
 20
106.500000
 42
0.008091
  0
VERTEX
  8
0
 10
208.924472
 20
111.167298
 42
0.038985
  0
VERTEX
  8
0
 10
208.632353
 20
113.805147
 42
0.069381
  0
VERTEX
  8
0
 10
208.035762
 20
115.565463
 42
0.080195
  0
VERTEX
  8
0
 10
207.000000
 20
117.000000
 42
0.092528
  0
VERTEX
  8
0
 10
205.122477
 20
118.286878
 42
0.077734
  0
VERTEX
  8
0
 10
202.788505
 20
118.910720
 42
0.074728
  0
VERTEX
  8
0
 10
200.289217
 20
118.802798
 42
0.074905
  0
VERTEX
  8
0
 10
197.934259
 20
117.964816
 42
-0.073846
  0
VERTEX
  8
0
 10
196.851648
 20
117.577012
 42
-0.341668
  0
VERTEX
  8
0
 10
196.294640
 20
117.854313
 42
-0.106008
  0
VERTEX
  8
0
 10
196.043041
 20
118.886071
 42
-0.006990
  0
VERTEX
  8
0
 10
196.000000
 20
121.964816
 42
0.009581
  0
VERTEX
  8
0
 10
195.938160
 20
125.191694
 42
0.125403
  0
VERTEX
  8
0
 10
195.601048
 20
126.330401
 42
0.223095
  0
VERTEX
  8
0
 10
194.820299
 20
126.858219
 42
0.038885
  0
VERTEX
  8
0
 10
193.000000
 20
127.000000
 42
0.000000
  0
VERTEX
  8
0
 10
190.000000
 20
127.000000
 42
0.000000
  0
SEQEND
  0
POLYLINE
  8
0
 66
1
 70
1
  0
VERTEX
  8
0
 10
170.047748
 20
116.201594
 42
0.031268
  0
VERTEX
  8
0
 10
168.469365
 20
114.412412
 42
0.071006
  0
VERTEX
  8
0
 10
167.577444
 20
112.849545
 42
0.067812
  0
VERTEX
  8
0
 10
167.135501
 20
111.054524
 42
0.026503
  0
VERTEX
  8
0
 10
167.000000
 20
108.500000
 42
0.026503
  0
VERTEX
  8
0
 10
167.135501
 20
105.945476
 42
0.067812
  0
VERTEX
  8
0
 10
167.577444
 20
104.150455
 42
0.071006
  0
VERTEX
  8
0
 10
168.469365
 20
102.587588
 42
0.031268
  0
VERTEX
  8
0
 10
170.047748
 20
100.798406
 42
0.026251
  0
VERTEX
  8
0
 10
171.927348
 20
99.106452
 42
0.091322
  0
VERTEX
  8
0
 10
173.356775
 20
98.328746
 42
0.085785
  0
VERTEX
  8
0
 10
175.017567
 20
98.086253
 42
0.021522
  0
VERTEX
  8
0
 10
177.758287
 20
98.276223
 42
0.027273
  0
VERTEX
  8
0
 10
179.938433
 20
98.643221
 42
0.044950
  0
VERTEX
  8
0
 10
181.716253
 20
99.214951
 42
0.053256
  0
VERTEX
  8
0
 10
183.129615
 20
100.000702
 42
0.069193
  0
VERTEX
  8
0
 10
184.210539
 20
101.011678
 42
0.023682
  0
VERTEX
  8
0
 10
185.611167
 20
102.919403
 42
0.174601
  0
VERTEX
  8
0
 10
185.875671
 20
103.999170
 42
0.255984
  0
VERTEX
  8
0
 10
185.348708
 20
104.758479
 42
0.051171
  0
VERTEX
  8
0
 10
183.750000
 20
105.361420
 42
0.065287
  0
VERTEX
  8
0
 10
182.629904
 20
105.505586
 42
0.093770
  0
VERTEX
  8
0
 10
181.649927
 20
105.317750
 42
0.087078
  0
VERTEX
  8
0
 10
180.755383
 20
104.769191
 42
0.049307
  0
VERTEX
  8
0
 10
179.887832
 20
103.835050
 42
-0.048802
  0
VERTEX
  8
0
 10
178.974711
 20
102.849850
 42
-0.097712
  0
VERTEX
  8
0
 10
178.063000
 20
102.314415
 42
-0.097477
  0
VERTEX
  8
0
 10
177.014741
 20
102.164689
 42
-0.048398
  0
VERTEX
  8
0
 10
175.681633
 20
102.365057
 42
-0.229543
  0
VERTEX
  8
0
 10
172.921641
 20
104.676459
 42
-0.120941
  0
VERTEX
  8
0
 10
172.095262
 20
109.175815
 42
-0.128115
  0
VERTEX
  8
0
 10
173.457870
 20
113.372997
 42
-0.255885
  0
VERTEX
  8
0
 10
176.428871
 20
115.000000
 42
-0.059519
  0
VERTEX
  8
0
 10
177.441974
 20
114.878974
 42
-0.052792
  0
VERTEX
  8
0
 10
178.442385
 20
114.521394
 42
-0.055847
  0
VERTEX
  8
0
 10
179.282138
 20
113.994508
 42
-0.097474
  0
VERTEX
  8
0
 10
179.812420
 20
113.370703
 42
0.078580
  0
VERTEX
  8
0
 10
180.402735
 20
112.621051
 42
0.138742
  0
VERTEX
  8
0
 10
181.099403
 20
112.266120
 42
0.100413
  0
VERTEX
  8
0
 10
182.042040
 20
112.270536
 42
0.029236
  0
VERTEX
  8
0
 10
183.450880
 20
112.650293
 42
0.014399
  0
VERTEX
  8
0
 10
185.194977
 20
113.288018
 42
0.237961
  0
VERTEX
  8
0
 10
185.593182
 20
113.738188
 42
0.225193
  0
VERTEX
  8
0
 10
185.479649
 20
114.341505
 42
0.012915
  0
VERTEX
  8
0
 10
184.299309
 20
115.878696
 42
0.064086
  0
VERTEX
  8
0
 10
183.170974
 20
116.955733
 42
0.056026
  0
VERTEX
  8
0
 10
181.756259
 20
117.769903
 42
0.047329
  0
VERTEX
  8
0
 10
179.980198
 20
118.349983
 42
0.027221
  0
VERTEX
  8
0
 10
177.758287
 20
118.723777
 42
0.021522
  0
VERTEX
  8
0
 10
175.017567
 20
118.913747
 42
0.085785
  0
VERTEX
  8
0
 10
173.356775
 20
118.671254
 42
0.091322
  0
VERTEX
  8
0
 10
171.927348
 20
117.893548
 42
0.026251
  0
SEQEND
  0
POLYLINE
  8
0
 66
1
 70
1
  0
VERTEX
  8
0
 10
217.277480
 20
116.580031
 42
0.175826
  0
VERTEX
  8
0
 10
213.401601
 20
109.860558
 42
0.196905
  0
VERTEX
  8
0
 10
214.978387
 20
102.595940
 42
0.193463
  0
VERTEX
  8
0
 10
221.239268
 20
98.439916
 42
0.171931
  0
VERTEX
  8
0
 10
229.020016
 20
99.510350
 42
0.059268
  0
VERTEX
  8
0
 10
231.374926
 20
101.106430
 42
0.092299
  0
VERTEX
  8
0
 10
232.898259
 20
103.018686
 42
0.082756
  0
VERTEX
  8
0
 10
233.732578
 20
105.507442
 42
0.039602
  0
VERTEX
  8
0
 10
234.000000
 20
108.878495
 42
0.078131
  0
VERTEX
  8
0
 10
233.399397
 20
112.698600
 42
0.108920
  0
VERTEX
  8
0
 10
231.659262
 20
115.676209
 42
0.106520
  0
VERTEX
  8
0
 10
228.794146
 20
117.690218
 42
0.072179
  0
VERTEX
  8
0
 10
224.920966
 20
118.705441
 42
0.024284
  0
VERTEX
  8
0
 10
222.385572
 20
118.867118
 42
0.071707
  0
VERTEX
  8
0
 10
220.658412
 20
118.644744
 42
0.076654
  0
VERTEX
  8
0
 10
219.129337
 20
117.954136
 42
0.030577
  0
SEQEND
  0
POLYLINE
  8
0
 66
1
 70
1
  0
VERTEX
  8
0
 10
227.443296
 20
112.777494
 42
-0.037131
  0
VERTEX
  8
0
 10
228.039300
 20
111.775921
 42
-0.028390
  0
VERTEX
  8
0
 10
228.542718
 20
110.604196
 42
-0.029063
  0
VERTEX
  8
0
 10
228.889305
 20
109.446649
 42
-0.058268
  0
VERTEX
  8
0
 10
229.000000
 20
108.500000
 42
-0.058268
  0
VERTEX
  8
0
 10
228.889305
 20
107.553351
 42
-0.029063
  0
VERTEX
  8
0
 10
228.542718
 20
106.395804
 42
-0.028390
  0
VERTEX
  8
0
 10
228.039300
 20
105.224079
 42
-0.037131
  0
VERTEX
  8
0
 10
227.443296
 20
104.222506
 42
-0.154929
  0
VERTEX
  8
0
 10
224.915890
 20
102.291693
 42
-0.206325
  0
VERTEX
  8
0
 10
222.063845
 20
102.468703
 42
-0.168695
  0
VERTEX
  8
0
 10
219.814727
 20
104.799207
 42
-0.108772
  0
VERTEX
  8
0
 10
219.000000
 20
108.500000
 42
-0.108772
  0
VERTEX
  8
0
 10
219.814727
 20
112.200793
 42
-0.168695
  0
VERTEX
  8
0
 10
222.063845
 20
114.531297
 42
-0.206325
  0
VERTEX
  8
0
 10
224.915890
 20
114.708307
 42
-0.154929
  0
SEQEND
  0
POLYLINE
  8
0
 66
1
 70
1
  0
VERTEX
  8
0
 10
252.076725
 20
116.411106
 42
0.033773
  0
VERTEX
  8
0
 10
250.397202
 20
114.792185
 42
0.090718
  0
VERTEX
  8
0
 10
249.525578
 20
113.387313
 42
0.076197
  0
VERTEX
  8
0
 10
249.126585
 20
111.621855
 42
0.019084
  0
VERTEX
  8
0
 10
249.031803
 20
108.661106
 42
0.063979
  0
VERTEX
  8
0
 10
249.655243
 20
104.034547
 42
0.116430
  0
VERTEX
  8
0
 10
251.452482
 20
100.693646
 42
0.127270
  0
VERTEX
  8
0
 10
254.422682
 20
98.695211
 42
0.084973
  0
VERTEX
  8
0
 10
258.483918
 20
98.000000
 42
0.072436
  0
VERTEX
  8
0
 10
260.903977
 20
98.352448
 42
0.035287
  0
VERTEX
  8
0
 10
263.832397
 20
99.453992
 42
0.030150
  0
VERTEX
  8
0
 10
266.391442
 20
100.820968
 42
0.260649
  0
VERTEX
  8
0
 10
267.000000
 20
101.909049
 42
0.290798
  0
VERTEX
  8
0
 10
266.455781
 20
102.765654
 42
0.061691
  0
VERTEX
  8
0
 10
264.694817
 20
103.340627
 42
0.059185
  0
VERTEX
  8
0
 10
262.744336
 20
103.485501
 42
0.187478
  0
VERTEX
  8
0
 10
261.567247
 20
102.967247
 42
-0.183860
  0
VERTEX
  8
0
 10
259.489939
 20
102.035241
 42
-0.122533
  0
VERTEX
  8
0
 10
256.897475
 20
102.522459
 42
-0.118899
  0
VERTEX
  8
0
 10
254.779221
 20
104.187955
 42
-0.168520
  0
VERTEX
  8
0
 10
254.000000
 20
106.434259
 42
-0.383654
  0
VERTEX
  8
0
 10
254.203975
 20
106.660963
 42
-0.006202
  0
VERTEX
  8
0
 10
256.056250
 20
106.833813
 42
-0.012583
  0
VERTEX
  8
0
 10
258.316008
 20
106.959314
 42
-0.007579
  0
VERTEX
  8
0
 10
261.000000
 20
107.000000
 42
0.015065
  0
VERTEX
  8
0
 10
266.051560
 20
107.152243
 42
0.204500
  0
VERTEX
  8
0
 10
267.665028
 20
107.959072
 42
0.256787
  0
VERTEX
  8
0
 10
267.992555
 20
109.566942
 42
0.023509
  0
VERTEX
  8
0
 10
266.548369
 20
113.538480
 42
0.117509
  0
VERTEX
  8
0
 10
264.040222
 20
116.980460
 42
0.128494
  0
VERTEX
  8
0
 10
260.326502
 20
118.781449
 42
0.122857
  0
VERTEX
  8
0
 10
256.072784
 20
118.574828
 42
0.101971
  0
SEQEND
  0
POLYLINE
  8
0
 66
1
 70
1
  0
VERTEX
  8
0
 10
260.800000
 20
113.800000
 42
-0.081041
  0
VERTEX
  8
0
 10
261.940205
 20
112.215205
 42
-0.281331
  0
VERTEX
  8
0
 10
261.835647
 20
111.010052
 42
-0.192659
  0
VERTEX
  8
0
 10
260.569270
 20
110.224688
 42
-0.043643
  0
VERTEX
  8
0
 10
258.000000
 20
110.000000
 42
-0.011599
  0
VERTEX
  8
0
 10
255.158233
 20
110.065932
 42
-0.191215
  0
VERTEX
  8
0
 10
254.309696
 20
110.449213
 42
-0.297156
  0
VERTEX
  8
0
 10
254.162922
 20
111.208406
 42
-0.026175
  0
VERTEX
  8
0
 10
255.035184
 20
113.065741
 42
-0.115908
  0
VERTEX
  8
0
 10
256.146845
 20
114.327650
 42
-0.123406
  0
VERTEX
  8
0
 10
257.679399
 20
114.926055
 42
-0.120833
  0
VERTEX
  8
0
 10
259.338635
 20
114.736392
 42
-0.108190
  0
SEQEND
  0
POLYLINE
  8
0
 66
1
 70
1
  0
VERTEX
  8
0
 10
272.000000
 20
108.500000
 42
0.000000
  0
VERTEX
  8
0
 10
272.000000
 20
98.000000
 42
0.000000
  0
VERTEX
  8
0
 10
274.500000
 20
98.000000
 42
0.072194
  0
VERTEX
  8
0
 10
275.935213
 20
98.208314
 42
0.224628
  0
VERTEX
  8
0
 10
276.644691
 20
98.843490
 42
0.092442
  0
VERTEX
  8
0
 10
276.944349
 20
100.220202
 42
0.007490
  0
VERTEX
  8
0
 10
277.000000
 20
103.934900
 42
-0.022405
  0
VERTEX
  8
0
 10
277.232598
 20
109.122961
 42
-0.070813
  0
VERTEX
  8
0
 10
278.027239
 20
112.501592
 42
-0.134348
  0
VERTEX
  8
0
 10
279.378027
 20
114.317789
 42
-0.204090
  0
VERTEX
  8
0
 10
281.251612
 20
114.819340
 42
-0.124032
  0
VERTEX
  8
0
 10
282.502261
 20
114.308336
 42
-0.163451
  0
VERTEX
  8
0
 10
283.205398
 20
113.306716
 42
-0.057802
  0
VERTEX
  8
0
 10
283.558065
 20
111.283258
 42
-0.005473
  0
VERTEX
  8
0
 10
283.790442
 20
106.250000
 42
0.000000
  0
VERTEX
  8
0
 10
284.080885
 20
98.000000
 42
0.000000
  0
VERTEX
  8
0
 10
287.040442
 20
98.000000
 42
0.000000
  0
VERTEX
  8
0
 10
290.000000
 20
98.000000
 42
0.000000
  0
VERTEX
  8
0
 10
290.000000
 20
105.300000
 42
-0.019012
  0
VERTEX
  8
0
 10
290.184316
 20
110.145585
 42
-0.080990
  0
VERTEX
  8
0
 10
290.864161
 20
112.952030
 42
-0.155121
  0
VERTEX
  8
0
 10
292.137224
 20
114.441918
 42
-0.139883
  0
VERTEX
  8
0
 10
294.093011
 20
115.000000
 42
-0.188455
  0
VERTEX
  8
0
 10
295.516331
 20
114.443782
 42
-0.137096
  0
VERTEX
  8
0
 10
296.418421
 20
112.983013
 42
-0.059066
  0
VERTEX
  8
0
 10
296.882865
 20
110.154182
 42
-0.011184
  0
VERTEX
  8
0
 10
297.000000
 20
104.918213
 42
0.005713
  0
VERTEX
  8
0
 10
297.050577
 20
100.491854
 42
0.081155
  0
VERTEX
  8
0
 10
297.340341
 20
98.941821
 42
0.227766
  0
VERTEX
  8
0
 10
298.056177
 20
98.239117
 42
0.082247
  0
VERTEX
  8
0
 10
299.500000
 20
98.000000
 42
0.103725
  0
VERTEX
  8
0
 10
300.950721
 20
98.304226
 42
0.224878
  0
VERTEX
  8
0
 10
301.680115
 20
99.144330
 42
0.064491
  0
VERTEX
  8
0
 10
301.955863
 20
101.048960
 42
0.003744
  0
VERTEX
  8
0
 10
302.000000
 20
106.943296
 42
0.006144
  0
VERTEX
  8
0
 10
301.935135
 20
112.221720
 42
0.046036
  0
VERTEX
  8
0
 10
301.644356
 20
114.704596
 42
0.099457
  0
VERTEX
  8
0
 10
300.989692
 20
116.223923
 42
0.088901
  0
VERTEX
  8
0
 10
299.777494
 20
117.443296
 42
0.065119
  0
VERTEX
  8
0
 10
297.688506
 20
118.533391
 42
0.083218
  0
VERTEX
  8
0
 10
295.557766
 20
118.931806
 42
0.085307
  0
VERTEX
  8
0
 10
293.454787
 20
118.610947
 42
0.072478
  0
VERTEX
  8
0
 10
291.446109
 20
117.599913
 42
-0.033417
  0
VERTEX
  8
0
 10
290.292668
 20
116.901901
 42
-0.119918
  0
VERTEX
  8
0
 10
289.462235
 20
116.699827
 42
-0.122712
  0
VERTEX
  8
0
 10
288.642687
 20
116.904038
 42
-0.035757
  0
VERTEX
  8
0
 10
287.532473
 20
117.599913
 42
0.082172
  0
VERTEX
  8
0
 10
285.646465
 20
118.551770
 42
0.065344
  0
VERTEX
  8
0
 10
283.396707
 20
118.944714
 42
0.063706
  0
VERTEX
  8
0
 10
281.063809
 20
118.746346
 42
0.069946
  0
VERTEX
  8
0
 10
278.934259
 20
117.964816
 42
-0.024465
  0
VERTEX
  8
0
 10
278.049945
 20
117.545821
 42
-0.098707
  0
VERTEX
  8
0
 10
277.467129
 20
117.429632
 42
-0.223915
  0
VERTEX
  8
0
 10
277.136188
 20
117.585661
 42
-0.174147
  0
VERTEX
  8
0
 10
277.000000
 20
117.964816
 42
0.220980
  0
VERTEX
  8
0
 10
276.815907
 20
118.361014
 42
0.077222
  0
VERTEX
  8
0
 10
276.265625
 20
118.695915
 42
0.058719
  0
VERTEX
  8
0
 10
275.457277
 20
118.924230
 42
0.039514
  0
VERTEX
  8
0
 10
274.500000
 20
119.000000
 42
0.000000
  0
VERTEX
  8
0
 10
272.000000
 20
119.000000
 42
0.000000
  0
SEQEND
  0
POLYLINE
  8
0
 66
1
 70
1
  0
VERTEX
  8
0
 10
308.222506
 20
114.443296
 42
0.052447
  0
VERTEX
  8
0
 10
307.372257
 20
113.703849
 42
0.046140
  0
VERTEX
  8
0
 10
306.652861
 20
112.773031
 42
0.048718
  0
VERTEX
  8
0
 10
306.160925
 20
111.800740
 42
0.093028
  0
VERTEX
  8
0
 10
306.000000
 20
110.943296
 42
0.036869
  0
VERTEX
  8
0
 10
306.102338
 20
109.557339
 42
0.305186
  0
VERTEX
  8
0
 10
306.506581
 20
109.114465
 42
0.186118
  0
VERTEX
  8
0
 10
307.250918
 20
109.211376
 42
0.015189
  0
VERTEX
  8
0
 10
308.978873
 20
110.218879
 42
-0.084066
  0
VERTEX
  8
0
 10
310.238375
 20
110.737354
 42
-0.077976
  0
VERTEX
  8
0
 10
311.632632
 20
110.831097
 42
-0.047743
  0
VERTEX
  8
0
 10
313.509128
 20
110.482036
 42
-0.012083
  0
VERTEX
  8
0
 10
316.472798
 20
109.553910
 42
0.011675
  0
VERTEX
  8
0
 10
319.598936
 20
108.572104
 42
0.053206
  0
VERTEX
  8
0
 10
321.473558
 20
108.241338
 42
0.083051
  0
VERTEX
  8
0
 10
322.945638
 20
108.385155
 42
0.057134
  0
VERTEX
  8
0
 10
324.507494
 20
109.004011
 42
0.054728
  0
VERTEX
  8
0
 10
325.545143
 20
109.715038
 42
0.065277
  0
VERTEX
  8
0
 10
326.335806
 20
110.597942
 42
0.070127
  0
VERTEX
  8
0
 10
326.830408
 20
111.596374
 42
0.080150
  0
VERTEX
  8
0
 10
327.000000
 20
112.647541
 42
0.028521
  0
VERTEX
  8
0
 10
326.925261
 20
113.956706
 42
0.257970
  0
VERTEX
  8
0
 10
326.604422
 20
114.407082
 42
0.203334
  0
VERTEX
  8
0
 10
325.991610
 20
114.435095
 42
0.018004
  0
VERTEX
  8
0
 10
324.529440
 20
113.831460
 42
-0.056316
  0
VERTEX
  8
0
 10
323.088057
 20
113.361765
 42
-0.069918
  0
VERTEX
  8
0
 10
321.681871
 20
113.273213
 42
-0.053155
  0
VERTEX
  8
0
 10
320.026678
 20
113.579417
 42
-0.018920
  0
VERTEX
  8
0
 10
317.746007
 20
114.352899
 42
0.016990
  0
VERTEX
  8
0
 10
314.227168
 20
115.561463
 42
0.071965
  0
VERTEX
  8
0
 10
312.031051
 20
115.900507
 42
0.101705
  0
VERTEX
  8
0
 10
310.227304
 20
115.547581
 42
0.053821
  0
SEQEND
  0
POLYLINE
  8
0
 66
1
 70
1
  0
VERTEX
  8
0
 10
331.750000
 20
114.919901
 42
0.088581
  0
VERTEX
  8
0
 10
331.080194
 20
114.351006
 42
0.055140
  0
VERTEX
  8
0
 10
330.514063
 20
113.486553
 42
0.053166
  0
VERTEX
  8
0
 10
330.129910
 20
112.476434
 42
0.064384
  0
VERTEX
  8
0
 10
330.000000
 20
111.471749
 42
0.025327
  0
VERTEX
  8
0
 10
330.070550
 20
110.079852
 42
0.247416
  0
VERTEX
  8
0
 10
330.385948
 20
109.605085
 42
0.215547
  0
VERTEX
  8
0
 10
330.989372
 20
109.559906
 42
0.019418
  0
VERTEX
  8
0
 10
332.426297
 20
110.148372
 42
-0.064072
  0
VERTEX
  8
0
 10
333.882322
 20
110.598068
 42
-0.066490
  0
VERTEX
  8
0
 10
335.386108
 20
110.656451
 42
-0.047223
  0
VERTEX
  8
0
 10
337.241127
 20
110.302858
 42
-0.015618
  0
VERTEX
  8
0
 10
339.880875
 20
109.445723
 42
0.047724
  0
VERTEX
  8
0
 10
344.056301
 20
108.380356
 42
0.111381
  0
VERTEX
  8
0
 10
347.256596
 20
108.596387
 42
0.170103
  0
VERTEX
  8
0
 10
349.239286
 20
110.030578
 42
0.153075
  0
VERTEX
  8
0
 10
350.000000
 20
112.457122
 42
0.023665
  0
VERTEX
  8
0
 10
349.931463
 20
113.904380
 42
0.244360
  0
VERTEX
  8
0
 10
349.617211
 20
114.390400
 42
0.220330
  0
VERTEX
  8
0
 10
349.014196
 20
114.441034
 42
0.019394
  0
VERTEX
  8
0
 10
347.560690
 20
113.845698
 42
-0.056182
  0
VERTEX
  8
0
 10
346.150734
 20
113.385826
 42
-0.070828
  0
VERTEX
  8
0
 10
344.782134
 20
113.301391
 42
-0.054895
  0
VERTEX
  8
0
 10
343.191874
 20
113.606376
 42
-0.020365
  0
VERTEX
  8
0
 10
341.040453
 20
114.367137
 42
0.021591
  0
VERTEX
  8
0
 10
337.893559
 20
115.471233
 42
0.058775
  0
VERTEX
  8
0
 10
335.572874
 20
115.885963
 42
0.078551
  0
VERTEX
  8
0
 10
333.635856
 20
115.696793
 42
0.068427
  0
SEQEND
  0
POLYLINE
  8
0
 66
1
 70
1
  0
VERTEX
  8
0
 10
354.750000
 20
114.607954
 42
0.066731
  0
VERTEX
  8
0
 10
354.080220
 20
113.941952
 42
0.046948
  0
VERTEX
  8
0
 10
353.514063
 20
113.041190
 42
0.047153
  0
VERTEX
  8
0
 10
353.128642
 20
112.056474
 42
0.069822
  0
VERTEX
  8
0
 10
353.000000
 20
111.139757
 42
0.030830
  0
VERTEX
  8
0
 10
353.094642
 20
109.606340
 42
0.296107
  0
VERTEX
  8
0
 10
353.495853
 20
109.129081
 42
0.200730
  0
VERTEX
  8
0
 10
354.233879
 20
109.203285
 42
0.015462
  0
VERTEX
  8
0
 10
355.992302
 20
110.227265
 42
-0.057425
  0
VERTEX
  8
0
 10
357.135947
 20
110.770601
 42
-0.087257
  0
VERTEX
  8
0
 10
358.220523
 20
110.939764
 42
-0.068278
  0
VERTEX
  8
0
 10
359.481627
 20
110.741816
 42
-0.023442
  0
VERTEX
  8
0
 10
361.228733
 20
110.125934
 42
0.018208
  0
VERTEX
  8
0
 10
364.944737
 20
108.772111
 42
0.060838
  0
VERTEX
  8
0
 10
367.487548
 20
108.279288
 42
0.088529
  0
VERTEX
  8
0
 10
369.523766
 20
108.497358
 42
0.074324
  0
VERTEX
  8
0
 10
371.498148
 20
109.406830
 42
0.051884
  0
VERTEX
  8
0
 10
372.568915
 20
110.279317
 42
0.063468
  0
VERTEX
  8
0
 10
373.356646
 20
111.301369
 42
0.066547
  0
VERTEX
  8
0
 10
373.836306
 20
112.445509
 42
0.066115
  0
VERTEX
  8
0
 10
374.000000
 20
113.678041
 42
0.009543
  0
VERTEX
  8
0
 10
373.967155
 20
115.398814
 42
0.303237
  0
VERTEX
  8
0
 10
373.731379
 20
115.724220
 42
0.270897
  0
VERTEX
  8
0
 10
373.316164
 20
115.651164
 42
0.008076
  0
VERTEX
  8
0
 10
371.936729
 20
114.442740
 42
-0.042885
  0
VERTEX
  8
0
 10
370.572799
 20
113.406205
 42
-0.136239
  0
VERTEX
  8
0
 10
369.486295
 20
113.078046
 42
-0.081640
  0
VERTEX
  8
0
 10
368.079636
 20
113.276863
 42
-0.009486
  0
VERTEX
  8
0
 10
365.052515
 20
114.287753
 42
0.018215
  0
VERTEX
  8
0
 10
361.243560
 20
115.486256
 42
0.059407
  0
VERTEX
  8
0
 10
358.633814
 20
115.880000
 42
0.088019
  0
VERTEX
  8
0
 10
356.604847
 20
115.584723
 42
0.082487
  0
SEQEND
  0
POLYLINE
  8
0
 66
1
 70
1
  0
VERTEX
  8
0
 10
254.750000
 20
384.228451
 42
0.073702
  0
VERTEX
  8
0
 10
254.081220
 20
383.978028
 42
0.073771
  0
VERTEX
  8
0
 10
253.514062
 20
383.544451
 42
0.079679
  0
VERTEX
  8
0
 10
253.132050
 20
382.999964
 42
0.113680
  0
VERTEX
  8
0
 10
253.000000
 20
382.426676
 42
-0.068350
  0
VERTEX
  8
0
 10
252.925106
 20
381.881367
 42
-0.084796
  0
VERTEX
  8
0
 10
252.706250
 20
381.419086
 42
-0.099808
  0
VERTEX
  8
0
 10
252.381339
 20
381.109972
 42
-0.141312
  0
VERTEX
  8
0
 10
252.000000
 20
381.000000
 42
0.148195
  0
VERTEX
  8
0
 10
251.618646
 20
380.884432
 42
0.098894
  0
VERTEX
  8
0
 10
251.293750
 20
380.559375
 42
0.082425
  0
VERTEX
  8
0
 10
251.074694
 20
380.073457
 42
0.064853
  0
VERTEX
  8
0
 10
251.000000
 20
379.500000
 42
0.057513
  0
VERTEX
  8
0
 10
251.066212
 20
378.926281
 42
0.076772
  0
VERTEX
  8
0
 10
251.261905
 20
378.440625
 42
0.095693
  0
VERTEX
  8
0
 10
251.551479
 20
378.115149
 42
0.164690
  0
VERTEX
  8
0
 10
251.891592
 20
378.000000
 42
-0.208396
  0
VERTEX
  8
0
 10
252.277325
 20
377.831931
 42
-0.050787
  0
VERTEX
  8
0
 10
252.705595
 20
377.265625
 42
-0.043524
  0
VERTEX
  8
0
 10
253.105107
 20
376.457251
 42
-0.031538
  0
VERTEX
  8
0
 10
253.410644
 20
375.500000
 42
0.162215
  0
VERTEX
  8
0
 10
254.639377
 20
373.572558
 42
0.239691
  0
VERTEX
  8
0
 10
256.562607
 20
373.160367
 42
0.158205
  0
VERTEX
  8
0
 10
258.694967
 20
374.536747
 42
0.080581
  0
VERTEX
  8
0
 10
260.305062
 20
377.329463
 42
0.106790
  0
VERTEX
  8
0
 10
260.753249
 20
380.307067
 42
0.154852
  0
VERTEX
  8
0
 10
259.797258
 20
382.767162
 42
0.160869
  0
VERTEX
  8
0
 10
257.634428
 20
384.165363
 42
0.117038
  0
SEQEND
  0
POLYLINE
  8
0
 66
1
 70
1
  0
VERTEX
  8
0
 10
221.606989
 20
382.418213
 42
0.050508
  0
VERTEX
  8
0
 10
221.372357
 20
381.555263
 42
0.013659
  0
VERTEX
  8
0
 10
221.178303
 20
380.150100
 42
0.013682
  0
VERTEX
  8
0
 10
221.044609
 20
378.534316
 42
0.013799
  0
VERTEX
  8
0
 10
221.000000
 20
376.918213
 42
0.016602
  0
VERTEX
  8
0
 10
221.081378
 20
374.468003
 42
0.165540
  0
VERTEX
  8
0
 10
221.470425
 20
373.533543
 42
0.190949
  0
VERTEX
  8
0
 10
222.322733
 20
373.099711
 42
0.023372
  0
VERTEX
  8
0
 10
224.454687
 20
373.000000
 42
0.028648
  0
VERTEX
  8
0
 10
226.470479
 20
373.115590
 42
0.150597
  0
VERTEX
  8
0
 10
227.474274
 20
373.556061
 42
0.143844
  0
VERTEX
  8
0
 10
228.080587
 20
374.496572
 42
0.025366
  0
VERTEX
  8
0
 10
228.577474
 20
376.561278
 42
0.028909
  0
VERTEX
  8
0
 10
228.821607
 20
378.463487
 42
0.080496
  0
VERTEX
  8
0
 10
228.699870
 20
379.800472
 42
0.093693
  0
VERTEX
  8
0
 10
228.179237
 20
380.911290
 42
0.048950
  0
VERTEX
  8
0
 10
227.164600
 20
382.061278
 42
0.052469
  0
VERTEX
  8
0
 10
225.362392
 20
383.417675
 42
0.119617
  0
VERTEX
  8
0
 10
223.747369
 20
383.921224
 42
0.175537
  0
VERTEX
  8
0
 10
222.473076
 20
383.550105
 42
0.144355
  0
SEQEND
  0
POLYLINE
  8
0
 66
1
 70
1
  0
VERTEX
  8
0
 10
230.000000
 20
359.000000
 42
0.028132
  0
VERTEX
  8
0
 10
230.064724
 20
357.850539
 42
0.044125
  0
VERTEX
  8
0
 10
230.261905
 20
356.881250
 42
0.054929
  0
VERTEX
  8
0
 10
230.548060
 20
356.201839
 42
0.272031
  0
VERTEX
  8
0
 10
230.891592
 20
356.000000
 42
-0.204556
  0
VERTEX
  8
0
 10
231.276132
 20
355.835809
 42
-0.052341
  0
VERTEX
  8
0
 10
231.699722
 20
355.289026
 42
-0.044615
  0
VERTEX
  8
0
 10
232.092734
 20
354.506358
 42
-0.032583
  0
VERTEX
  8
0
 10
232.390650
 20
353.579662
 42
0.072729
  0
VERTEX
  8
0
 10
232.862150
 20
352.436218
 42
0.088638
  0
VERTEX
  8
0
 10
233.618489
 20
351.561812
 42
0.076520
  0
VERTEX
  8
0
 10
234.724885
 20
350.916353
 42
0.040455
  0
VERTEX
  8
0
 10
236.249058
 20
350.454030
 42
-0.025702
  0
VERTEX
  8
0
 10
237.548545
 20
350.101327
 42
-0.028130
  0
VERTEX
  8
0
 10
238.765348
 20
349.625633
 42
-0.029171
  0
VERTEX
  8
0
 10
239.748944
 20
349.104476
 42
-0.109678
  0
VERTEX
  8
0
 10
240.250000
 20
348.624368
 42
0.051564
  0
VERTEX
  8
0
 10
240.647314
 20
348.144244
 42
0.196590
  0
VERTEX
  8
0
 10
241.000000
 20
348.000000
 42
0.196590
  0
VERTEX
  8
0
 10
241.352686
 20
348.144244
 42
0.051564
  0
VERTEX
  8
0
 10
241.750000
 20
348.624368
 42
-0.108226
  0
VERTEX
  8
0
 10
242.247137
 20
349.103466
 42
-0.029646
  0
VERTEX
  8
0
 10
243.212067
 20
349.620673
 42
-0.028511
  0
VERTEX
  8
0
 10
244.404008
 20
350.090889
 42
-0.026298
  0
VERTEX
  8
0
 10
245.674059
 20
350.437144
 42
0.113530
  0
VERTEX
  8
0
 10
247.882108
 20
351.475759
 42
0.095498
  0
VERTEX
  8
0
 10
249.579853
 20
353.432619
 42
0.079605
  0
VERTEX
  8
0
 10
250.644303
 20
356.215564
 42
0.051657
  0
VERTEX
  8
0
 10
251.000000
 20
359.649223
 42
0.138849
  0
VERTEX
  8
0
 10
250.620347
 20
360.990012
 42
0.202366
  0
VERTEX
  8
0
 10
249.633348
 20
361.694029
 42
0.052021
  0
VERTEX
  8
0
 10
247.378044
 20
361.957516
 42
0.003088
  0
VERTEX
  8
0
 10
240.500000
 20
362.000000
 42
0.000000
  0
VERTEX
  8
0
 10
230.000000
 20
362.000000
 42
0.000000
  0
SEQEND
  0
POLYLINE
  8
0
 66
1
 70
1
  0
VERTEX
  8
0
 10
244.642857
 20
355.500000
 42
-0.077264
  0
VERTEX
  8
0
 10
243.855602
 20
354.924582
 42
-0.038223
  0
VERTEX
  8
0
 10
242.712678
 20
354.440625
 42
-0.036767
  0
VERTEX
  8
0
 10
241.423480
 20
354.110563
 42
-0.044313
  0
VERTEX
  8
0
 10
240.178417
 20
354.000000
 42
-0.043903
  0
VERTEX
  8
0
 10
238.964665
 20
354.106780
 42
-0.056382
  0
VERTEX
  8
0
 10
237.890881
 20
354.425042
 42
-0.066491
  0
VERTEX
  8
0
 10
237.076196
 20
354.906302
 42
-0.135323
  0
VERTEX
  8
0
 10
236.638374
 20
355.500000
 42
-0.195581
  0
VERTEX
  8
0
 10
236.652836
 20
356.227412
 42
-0.213271
  0
VERTEX
  8
0
 10
237.170372
 20
356.704147
 42
-0.070516
  0
VERTEX
  8
0
 10
238.463073
 20
356.943843
 42
-0.010636
  0
VERTEX
  8
0
 10
241.102813
 20
357.000000
 42
-0.006108
  0
VERTEX
  8
0
 10
244.062244
 20
356.963845
 42
-0.094368
  0
VERTEX
  8
0
 10
245.052850
 20
356.750000
 42
-0.432479
  0
VERTEX
  8
0
 10
245.218950
 20
356.300045
 42
-0.080838
  0
SEQEND
  0
ENDSEC
  0
EOF
