  0
SECTION
  2
HEADER
  9
$ACADVER
  1
AC1006
  9
$EXTMIN
 10
0.000000
 20
0.000000
 30
0.000000
  9
$EXTMAX
 10
357.000000
 20
326.000000
 30
0.000000
  0
ENDSEC
  0
SECTION
  2
ENTITIES
  0
POLYLINE
  8
0
 66
1
 70
1
  0
VERTEX
  8
0
 10
130.043945
 20
302.409089
 42
0.025913
  0
VERTEX
  8
0
 10
122.535614
 20
300.915840
 42
0.039108
  0
VERTEX
  8
0
 10
116.222196
 20
298.779338
 42
0.045481
  0
VERTEX
  8
0
 10
111.122731
 20
296.023963
 42
0.066090
  0
VERTEX
  8
0
 10
107.277058
 20
292.662771
 42
-0.023772
  0
VERTEX
  8
0
 10
104.492355
 20
289.779834
 42
-0.040841
  0
VERTEX
  8
0
 10
101.883182
 20
287.697552
 42
-0.050632
  0
VERTEX
  8
0
 10
99.490034
 20
286.418785
 42
-0.097701
  0
VERTEX
  8
0
 10
97.367291
 20
286.000000
 42
0.142461
  0
VERTEX
  8
0
 10
94.936458
 20
285.293057
 42
0.018322
  0
VERTEX
  8
0
 10
90.419510
 20
282.185078
 42
0.022068
  0
VERTEX
  8
0
 10
86.067239
 20
278.640711
 42
0.066027
  0
VERTEX
  8
0
 10
83.566736
 20
275.739563
 42
0.056843
  0
VERTEX
  8
0
 10
81.618894
 20
271.866077
 42
0.003873
  0
VERTEX
  8
0
 10
77.452372
 20
260.258649
 42
0.005817
  0
VERTEX
  8
0
 10
73.538917
 20
248.653791
 42
0.021370
  0
VERTEX
  8
0
 10
71.465596
 20
241.187947
 42
0.022136
  0
VERTEX
  8
0
 10
70.293220
 20
234.884296
 42
0.042481
  0
VERTEX
  8
0
 10
70.012231
 20
229.753186
 42
0.055600
  0
VERTEX
  8
0
 10
70.563794
 20
225.875418
 42
0.146754
  0
VERTEX
  8
0
 10
72.000000
 20
223.500000
 42
-0.059509
  0
VERTEX
  8
0
 10
73.438380
 20
221.847904
 42
-0.153792
  0
VERTEX
  8
0
 10
73.888701
 20
220.351337
 42
-0.138178
  0
VERTEX
  8
0
 10
73.418274
 20
218.760542
 42
-0.044495
  0
VERTEX
  8
0
 10
71.913324
 20
216.785276
 42
0.025244
  0
VERTEX
  8
0
 10
65.417698
 20
208.907395
 42
0.008291
  0
VERTEX
  8
0
 10
56.652250
 20
196.693146
 42
0.007662
  0
VERTEX
  8
0
 10
48.411022
 20
184.399601
 42
0.036644
  0
VERTEX
  8
0
 10
44.349531
 20
177.000000
 42
0.006655
  0
VERTEX
  8
0
 10
43.430632
 20
174.916744
 42
0.003695
  0
VERTEX
  8
0
 10
42.362675
 20
172.353125
 42
0.003684
  0
VERTEX
  8
0
 10
41.319527
 20
169.741128
 42
0.005941
  0
VERTEX
  8
0
 10
40.474135
 20
167.500000
 42
-0.004869
  0
VERTEX
  8
0
 10
39.729177
 20
165.512232
 42
-0.006011
  0
VERTEX
  8
0
 10
38.994661
 20
163.675000
 42
-0.005014
  0
VERTEX
  8
0
 10
38.344695
 20
162.147826
 42
-0.043517
  0
VERTEX
  8
0
 10
37.991302
 20
161.500000
 42
0.056849
  0
VERTEX
  8
0
 10
36.522822
 20
158.628976
 42
0.012207
  0
VERTEX
  8
0
 10
34.682686
 20
153.339731
 42
0.013422
  0
VERTEX
  8
0
 10
32.995444
 20
147.549640
 42
0.021248
  0
VERTEX
  8
0
 10
31.896866
 20
142.500000
 42
0.026956
  0
VERTEX
  8
0
 10
30.694735
 20
132.344830
 42
0.013638
  0
VERTEX
  8
0
 10
30.222529
 20
119.467899
 42
0.013583
  0
VERTEX
  8
0
 10
30.448663
 20
106.753972
 42
0.030981
  0
VERTEX
  8
0
 10
31.472107
 20
97.215815
 42
0.006484
  0
VERTEX
  8
0
 10
32.168247
 20
93.428961
 42
0.008075
  0
VERTEX
  8
0
 10
32.917370
 20
89.930056
 42
0.006733
  0
VERTEX
  8
0
 10
33.630837
 20
87.021288
 42
0.059419
  0
VERTEX
  8
0
 10
34.111814
 20
85.791074
 42
0.098041
  0
VERTEX
  8
0
 10
35.790292
 20
83.744305
 42
0.047409
  0
VERTEX
  8
0
 10
38.609758
 20
81.841220
 42
0.046870
  0
VERTEX
  8
0
 10
41.823765
 20
80.462169
 42
0.077778
  0
VERTEX
  8
0
 10
44.730948
 20
80.003738
 42
-0.032636
  0
VERTEX
  8
0
 10
46.468910
 20
79.888156
 42
-0.123069
  0
VERTEX
  8
0
 10
47.475931
 20
79.489949
 42
-0.138002
  0
VERTEX
  8
0
 10
48.113346
 20
78.693698
 42
-0.045278
  0
VERTEX
  8
0
 10
48.576269
 20
77.250000
 42
0.026490
  0
VERTEX
  8
0
 10
49.043020
 20
75.581485
 42
0.003110
  0
VERTEX
  8
0
 10
50.301840
 20
71.929688
 42
0.003720
  0
VERTEX
  8
0
 10
51.859116
 20
67.604767
 42
0.003038
  0
VERTEX
  8
0
 10
53.587813
 20
63.000000
 42
0.006003
  0
VERTEX
  8
0
 10
56.361655
 20
55.998658
 42
0.041702
  0
VERTEX
  8
0
 10
58.038138
 20
52.719217
 42
0.069997
  0
VERTEX
  8
0
 10
59.874644
 20
50.519703
 42
0.034562
  0
VERTEX
  8
0
 10
62.742492
 20
48.265158
 42
0.033156
  0
VERTEX
  8
0
 10
68.962861
 20
44.613429
 42
0.016338
  0
VERTEX
  8
0
 10
77.295279
 20
40.772940
 42
0.016344
  0
VERTEX
  8
0
 10
85.901542
 20
37.469193
 42
0.031638
  0
VERTEX
  8
0
 10
93.002017
 20
35.499576
 42
-0.018364
  0
VERTEX
  8
0
 10
98.278859
 20
34.185530
 42
-0.045583
  0
VERTEX
  8
0
 10
101.984747
 20
32.740111
 42
-0.066241
  0
VERTEX
  8
0
 10
104.404521
 20
31.101378
 42
-0.135589
  0
VERTEX
  8
0
 10
105.638524
 20
29.191733
 42
0.033104
  0
VERTEX
  8
0
 10
108.066466
 20
22.938318
 42
0.084869
  0
VERTEX
  8
0
 10
110.821718
 20
18.961182
 42
0.111912
  0
VERTEX
  8
0
 10
114.225141
 20
16.766666
 42
0.087677
  0
VERTEX
  8
0
 10
118.563657
 20
16.000000
 42
0.033578
  0
VERTEX
  8
0
 10
120.923387
 20
16.158647
 42
0.067689
  0
VERTEX
  8
0
 10
122.717254
 20
16.654016
 42
0.062692
  0
VERTEX
  8
0
 10
124.399223
 20
17.639108
 42
0.025278
  0
VERTEX
  8
0
 10
126.428798
 20
19.368077
 42
0.024019
  0
VERTEX
  8
0
 10
128.340811
 20
21.353231
 42
0.072437
  0
VERTEX
  8
0
 10
129.358563
 20
22.927236
 42
0.077379
  0
VERTEX
  8
0
 10
129.849153
 20
24.666601
 42
0.030124
  0
VERTEX
  8
0
 10
130.000000
 20
27.168077
 42
-0.071850
  0
VERTEX
  8
0
 10
130.658840
 20
31.729224
 42
-0.222825
  0
VERTEX
  8
0
 10
132.669768
 20
33.997212
 42
-0.327909
  0
VERTEX
  8
0
 10
135.020891
 20
33.454627
 42
-0.105178
  0
VERTEX
  8
0
 10
136.846312
 20
30.118627
 42
0.052785
  0
VERTEX
  8
0
 10
138.306557
 20
26.631504
 42
0.143673
  0
VERTEX
  8
0
 10
140.184422
 20
24.761263
 42
0.102801
  0
VERTEX
  8
0
 10
143.186945
 20
23.855162
 42
0.019966
  0
VERTEX
  8
0
 10
148.872290
 20
23.580454
 42
0.026150
  0
VERTEX
  8
0
 10
154.730341
 20
23.837983
 42
0.088479
  0
VERTEX
  8
0
 10
158.403478
 20
24.865321
 42
0.096675
  0
VERTEX
  8
0
 10
161.317063
 20
27.043550
 42
0.034834
  0
VERTEX
  8
0
 10
164.530145
 20
31.128998
 42
-0.016456
  0
VERTEX
  8
0
 10
167.016877
 20
34.541721
 42
-0.056477
  0
VERTEX
  8
0
 10
168.933723
 20
36.497089
 42
-0.067332
  0
VERTEX
  8
0
 10
171.053697
 20
37.791177
 42
-0.030633
  0
VERTEX
  8
0
 10
174.108173
 20
38.914263
 42
0.026938
  0
VERTEX
  8
0
 10
175.689722
 20
39.482557
 42
0.017521
  0
VERTEX
  8
0
 10
177.451756
 20
40.298914
 42
0.017628
  0
VERTEX
  8
0
 10
179.120053
 20
41.219327
 42
0.031788
  0
VERTEX
  8
0
 10
180.405735
 20
42.104511
 42
0.048343
  0
VERTEX
  8
0
 10
183.713306
 20
45.267948
 42
0.010260
  0
VERTEX
  8
0
 10
188.797104
 20
51.420883
 42
0.011337
  0
VERTEX
  8
0
 10
193.969712
 20
58.262769
 42
0.018209
  0
VERTEX
  8
0
 10
198.028232
 20
64.347214
 42
-0.014028
  0
VERTEX
  8
0
 10
199.560453
 20
66.686412
 42
-0.021399
  0
VERTEX
  8
0
 10
201.030433
 20
68.617104
 42
-0.017179
  0
VERTEX
  8
0
 10
202.315554
 20
70.059248
 42
-0.264822
  0
VERTEX
  8
0
 10
202.929290
 20
70.242928
 42
0.017167
  0
VERTEX
  8
0
 10
203.663651
 20
70.099690
 42
0.001282
  0
VERTEX
  8
0
 10
205.676915
 20
69.783592
 42
0.001775
  0
VERTEX
  8
0
 10
208.081121
 20
69.421163
 42
0.001347
  0
VERTEX
  8
0
 10
210.719767
 20
69.040228
 42
0.012233
  0
VERTEX
  8
0
 10
214.353147
 20
68.616057
 42
0.039782
  0
VERTEX
  8
0
 10
216.775805
 20
68.586427
 42
0.053764
  0
VERTEX
  8
0
 10
218.754269
 20
68.935658
 42
0.040253
  0
VERTEX
  8
0
 10
220.825018
 20
69.721255
 42
-0.035389
  0
VERTEX
  8
0
 10
222.867770
 20
70.519016
 42
-0.061434
  0
VERTEX
  8
0
 10
224.657230
 20
70.842530
 42
-0.048465
  0
VERTEX
  8
0
 10
226.745293
 20
70.757478
 42
-0.014669
  0
VERTEX
  8
0
 10
229.876469
 20
70.229974
 42
0.004974
  0
VERTEX
  8
0
 10
232.357911
 20
69.762284
 42
0.003455
  0
VERTEX
  8
0
 10
235.169963
 20
69.281221
 42
0.003485
  0
VERTEX
  8
0
 10
237.876152
 20
68.856840
 42
0.007179
  0
VERTEX
  8
0
 10
240.000000
 20
68.570043
 42
0.000298
  0
VERTEX
  8
0
 10
242.685038
 20
68.248269
 42
0.000043
  0
VERTEX
  8
0
 10
248.171875
 20
67.594517
 42
0.000049
  0
VERTEX
  8
0
 10
254.661361
 20
66.822505
 42
0.000042
  0
VERTEX
  8
0
 10
261.500000
 20
66.010206
 42
-0.000693
  0
VERTEX
  8
0
 10
268.521875
 20
65.166860
 42
-0.000687
  0
VERTEX
  8
0
 10
275.562500
 20
64.301542
 42
-0.000673
  0
VERTEX
  8
0
 10
281.720386
 20
63.527706
 42
-0.002671
  0
VERTEX
  8
0
 10
285.500000
 20
63.027040
 42
0.006161
  0
VERTEX
  8
0
 10
289.105881
 20
62.574976
 42
0.001979
  0
VERTEX
  8
0
 10
294.468089
 20
61.991213
 42
0.001973
  0
VERTEX
  8
0
 10
300.441441
 20
61.388653
 42
0.002208
  0
VERTEX
  8
0
 10
306.199877
 20
60.856381
 42
0.003690
  0
VERTEX
  8
0
 10
314.472350
 20
60.190038
 42
0.027204
  0
VERTEX
  8
0
 10
318.431693
 20
60.116381
 42
0.053505
  0
VERTEX
  8
0
 10
321.178035
 20
60.510972
 42
0.043533
  0
VERTEX
  8
0
 10
323.985056
 20
61.493261
 42
0.035900
  0
VERTEX
  8
0
 10
325.799693
 20
62.473796
 42
0.019397
  0
VERTEX
  8
0
 10
327.888091
 20
63.920898
 42
0.019228
  0
VERTEX
  8
0
 10
329.910911
 20
65.567421
 42
0.028615
  0
VERTEX
  8
0
 10
331.535179
 20
67.170618
 42
0.024144
  0
VERTEX
  8
0
 10
333.534668
 20
69.610934
 42
0.081080
  0
VERTEX
  8
0
 10
334.478913
 20
71.440946
 42
0.066679
  0
VERTEX
  8
0
 10
334.886018
 20
73.660743
 42
0.012870
  0
VERTEX
  8
0
 10
334.978038
 20
77.752881
 42
0.036819
  0
VERTEX
  8
0
 10
334.509825
 20
83.832636
 42
0.068585
  0
VERTEX
  8
0
 10
333.111579
 20
88.562725
 42
0.083856
  0
VERTEX
  8
0
 10
330.740388
 20
92.091188
 42
0.087997
  0
VERTEX
  8
0
 10
327.376856
 20
94.575861
 42
0.088780
  0
VERTEX
  8
0
 10
322.636569
 20
95.957439
 42
0.022229
  0
VERTEX
  8
0
 10
314.561691
 20
96.459146
 42
0.017258
  0
VERTEX
  8
0
 10
303.380025
 20
96.270028
 42
0.006784
  0
VERTEX
  8
0
 10
288.000000
 20
95.269035
 42
-0.006566
  0
VERTEX
  8
0
 10
280.969940
 20
94.808412
 42
-0.002832
  0
VERTEX
  8
0
 10
271.590625
 20
94.370702
 42
-0.002801
  0
VERTEX
  8
0
 10
261.601058
 20
94.017253
 42
-0.003706
  0
VERTEX
  8
0
 10
252.500000
 20
93.813786
 42
0.000000
  0
VERTEX
  8
0
 10
231.500000
 20
93.500000
 42
0.000000
  0
VERTEX
  8
0
 10
230.820461
 20
101.000000
 42
-0.003537
  0
VERTEX
  8
0
 10
230.489745
 20
104.961732
 42
-0.000997
  0
VERTEX
  8
0
 10
230.030089
 20
111.143750
 42
-0.001005
  0
VERTEX
  8
0
 10
229.538551
 20
118.132827
 42
-0.001060
  0
VERTEX
  8
0
 10
229.084078
 20
125.000000
 42
0.007291
  0
VERTEX
  8
0
 10
228.358219
 20
134.222313
 42
0.015260
  0
VERTEX
  8
0
 10
227.470636
 20
141.364224
 42
0.015378
  0
VERTEX
  8
0
 10
226.153806
 20
148.404098
 42
0.007524
  0
VERTEX
  8
0
 10
224.066136
 20
157.291540
 42
0.004083
  0
VERTEX
  8
0
 10
222.445200
 20
163.537098
 42
0.005279
  0
VERTEX
  8
0
 10
220.850582
 20
169.239926
 42
0.004047
  0
VERTEX
  8
0
 10
219.427625
 20
173.985685
 42
0.046126
  0
VERTEX
  8
0
 10
218.681964
 20
175.791540
 42
0.001617
  0
VERTEX
  8
0
 10
217.909977
 20
177.249350
 42
0.000409
  0
VERTEX
  8
0
 10
216.645600
 20
179.613765
 42
0.000417
  0
VERTEX
  8
0
 10
215.196532
 20
182.312816
 42
0.000422
  0
VERTEX
  8
0
 10
213.748021
 20
185.000000
 42
-0.000032
  0
VERTEX
  8
0
 10
212.109076
 20
188.034800
 42
-0.000017
  0
VERTEX
  8
0
 10
210.060750
 20
191.828530
 42
-0.000017
  0
VERTEX
  8
0
 10
207.955531
 20
195.728252
 42
-0.000025
  0
VERTEX
  8
0
 10
206.125764
 20
199.118400
 42
-0.010482
  0
VERTEX
  8
0
 10
203.963214
 20
203.334752
 42
-0.038141
  0
VERTEX
  8
0
 10
202.856855
 20
206.131449
 42
-0.054640
  0
VERTEX
  8
0
 10
202.398002
 20
208.500905
 42
-0.042937
  0
VERTEX
  8
0
 10
202.407707
 20
211.118400
 42
-0.001457
  0
VERTEX
  8
0
 10
202.565642
 20
212.821984
 42
-0.002166
  0
VERTEX
  8
0
 10
202.714720
 20
214.312455
 42
-0.000936
  0
VERTEX
  8
0
 10
202.850029
 20
215.585455
 42
-0.044469
  0
VERTEX
  8
0
 10
202.900519
 20
215.838894
 42
-0.506126
  0
VERTEX
  8
0
 10
203.040710
 20
215.889781
 42
-0.007266
  0
VERTEX
  8
0
 10
203.891765
 20
215.303278
 42
-0.012982
  0
VERTEX
  8
0
 10
204.925574
 20
214.527275
 42
-0.007411
  0
VERTEX
  8
0
 10
206.135275
 20
213.539627
 42
0.032890
  0
VERTEX
  8
0
 10
207.958516
 20
212.199776
 42
0.068831
  0
VERTEX
  8
0
 10
209.555123
 20
211.466482
 42
0.064149
  0
VERTEX
  8
0
 10
211.362674
 20
211.165538
 42
0.025410
  0
VERTEX
  8
0
 10
213.885275
 20
211.200734
 42
0.162558
  0
VERTEX
  8
0
 10
218.719848
 20
213.171398
 42
0.169455
  0
VERTEX
  8
0
 10
221.300239
 20
217.618943
 42
0.066947
  0
VERTEX
  8
0
 10
221.787716
 20
226.267258
 42
0.010203
  0
VERTEX
  8
0
 10
220.097092
 20
243.500000
 42
0.009362
  0
VERTEX
  8
0
 10
218.019490
 20
258.578762
 42
0.048830
  0
VERTEX
  8
0
 10
215.920431
 20
266.690084
 42
0.086148
  0
VERTEX
  8
0
 10
212.898096
 20
271.936055
 42
0.073048
  0
VERTEX
  8
0
 10
208.127436
 20
276.208918
 42
-0.029858
  0
VERTEX
  8
0
 10
205.804758
 20
277.953723
 42
-0.033859
  0
VERTEX
  8
0
 10
203.808376
 20
279.896002
 42
-0.033620
  0
VERTEX
  8
0
 10
202.080842
 20
282.102582
 42
-0.028680
  0
VERTEX
  8
0
 10
200.562166
 20
284.638026
 42
0.039140
  0
VERTEX
  8
0
 10
196.796348
 20
290.637080
 42
0.048398
  0
VERTEX
  8
0
 10
192.370983
 20
295.527440
 42
0.051294
  0
VERTEX
  8
0
 10
187.328533
 20
299.250927
 42
0.054385
  0
VERTEX
  8
0
 10
181.729001
 20
301.784457
 42
0.025544
  0
VERTEX
  8
0
 10
177.320967
 20
302.981447
 42
0.032072
  0
VERTEX
  8
0
 10
173.135994
 20
303.613752
 42
0.019318
  0
VERTEX
  8
0
 10
167.507151
 20
303.879646
 42
0.003658
  0
VERTEX
  8
0
 10
157.229001
 20
303.892552
 42
0.006463
  0
VERTEX
  8
0
 10
149.747916
 20
303.750501
 42
0.005651
  0
VERTEX
  8
0
 10
141.930178
 20
303.412463
 42
0.005690
  0
VERTEX
  8
0
 10
134.872675
 20
302.946742
 42
0.016809
  0
SEQEND
  0
POLYLINE
  8
0
 66
1
 70
1
  0
VERTEX
  8
0
 10
183.472618
 20
296.500000
 42
-0.024375
  0
VERTEX
  8
0
 10
186.629216
 20
294.716798
 42
-0.040039
  0
VERTEX
  8
0
 10
189.083274
 20
292.878189
 42
-0.038323
  0
VERTEX
  8
0
 10
191.284610
 20
290.613235
 42
-0.020224
  0
VERTEX
  8
0
 10
193.671526
 20
287.500000
 42
-0.010556
  0
VERTEX
  8
0
 10
195.366243
 20
284.982795
 42
-0.010367
  0
VERTEX
  8
0
 10
196.963784
 20
282.381250
 42
-0.010296
  0
VERTEX
  8
0
 10
198.269334
 20
280.043832
 42
-0.038299
  0
VERTEX
  8
0
 10
198.944422
 20
278.500000
 42
0.062962
  0
VERTEX
  8
0
 10
199.664825
 20
277.051152
 42
0.054374
  0
VERTEX
  8
0
 10
200.754655
 20
275.746238
 42
0.047797
  0
VERTEX
  8
0
 10
202.238559
 20
274.568649
 42
0.031509
  0
VERTEX
  8
0
 10
204.138813
 20
273.500000
 42
-0.028033
  0
VERTEX
  8
0
 10
205.870444
 20
272.541951
 42
-0.021716
  0
VERTEX
  8
0
 10
207.643660
 20
271.316235
 42
-0.022171
  0
VERTEX
  8
0
 10
209.201911
 20
270.023375
 42
-0.048250
  0
VERTEX
  8
0
 10
210.245660
 20
268.874416
 42
-0.075031
  0
VERTEX
  8
0
 10
211.952626
 20
265.683774
 42
-0.024526
  0
VERTEX
  8
0
 10
213.494993
 20
260.560555
 42
-0.024764
  0
VERTEX
  8
0
 10
214.606473
 20
254.899259
 42
-0.035272
  0
VERTEX
  8
0
 10
214.984379
 20
249.790051
 42
0.020492
  0
VERTEX
  8
0
 10
215.094031
 20
247.316127
 42
0.005855
  0
VERTEX
  8
0
 10
215.466053
 20
243.492134
 42
0.005884
  0
VERTEX
  8
0
 10
215.987697
 20
239.182642
 42
0.006213
  0
VERTEX
  8
0
 10
216.602185
 20
234.964307
 42
-0.018084
  0
VERTEX
  8
0
 10
217.493177
 20
227.631517
 42
-0.034956
  0
VERTEX
  8
0
 10
217.580990
 20
221.725414
 42
-0.043898
  0
VERTEX
  8
0
 10
216.950888
 20
217.341634
 42
-0.163323
  0
VERTEX
  8
0
 10
215.502836
 20
215.002354
 42
-0.272698
  0
VERTEX
  8
0
 10
212.686904
 20
214.547127
 42
-0.086605
  0
VERTEX
  8
0
 10
208.904590
 20
216.839902
 42
-0.078046
  0
VERTEX
  8
0
 10
205.802668
 20
220.542960
 42
-0.165364
  0
VERTEX
  8
0
 10
205.018413
 20
224.155907
 42
0.021438
  0
VERTEX
  8
0
 10
205.129051
 20
225.708477
 42
0.001503
  0
VERTEX
  8
0
 10
205.239290
 20
230.070798
 42
0.002127
  0
VERTEX
  8
0
 10
205.333010
 20
235.275342
 42
0.001600
  0
VERTEX
  8
0
 10
205.393413
 20
241.000000
 42
0.002141
  0
VERTEX
  8
0
 10
205.422592
 20
250.507972
 42
0.035621
  0
VERTEX
  8
0
 10
205.194000
 20
253.658685
 42
0.142214
  0
VERTEX
  8
0
 10
204.532179
 20
255.116453
 42
0.182231
  0
VERTEX
  8
0
 10
203.250000
 20
255.819551
 42
0.200418
  0
VERTEX
  8
0
 10
201.976294
 20
255.488187
 42
0.191375
  0
VERTEX
  8
0
 10
201.284750
 20
254.341050
 42
0.039067
  0
VERTEX
  8
0
 10
201.037571
 20
251.481819
 42
0.002035
  0
VERTEX
  8
0
 10
201.000000
 20
242.251052
 42
-0.006827
  0
VERTEX
  8
0
 10
200.910759
 20
235.715413
 42
-0.013158
  0
VERTEX
  8
0
 10
200.630230
 20
230.488729
 42
-0.016287
  0
VERTEX
  8
0
 10
200.161858
 20
226.343224
 42
-0.035914
  0
VERTEX
  8
0
 10
199.476543
 20
223.232967
 42
0.023169
  0
VERTEX
  8
0
 10
198.879240
 20
220.816708
 42
0.012077
  0
VERTEX
  8
0
 10
198.348472
 20
217.758824
 42
0.011984
  0
VERTEX
  8
0
 10
197.954112
 20
214.588126
 42
0.017906
  0
VERTEX
  8
0
 10
197.775623
 20
211.801466
 42
0.020354
  0
VERTEX
  8
0
 10
197.822006
 20
208.104744
 42
0.052208
  0
VERTEX
  8
0
 10
198.241219
 20
205.466281
 42
0.047122
  0
VERTEX
  8
0
 10
199.225515
 20
202.819720
 42
0.014149
  0
VERTEX
  8
0
 10
201.206992
 20
199.000000
 42
-0.002097
  0
VERTEX
  8
0
 10
203.899858
 20
194.101490
 42
-0.001243
  0
VERTEX
  8
0
 10
207.071869
 20
188.238962
 42
-0.001152
  0
VERTEX
  8
0
 10
210.537489
 20
181.759832
 42
-0.001007
  0
VERTEX
  8
0
 10
214.132588
 20
174.968293
 42
-0.043616
  0
VERTEX
  8
0
 10
215.580021
 20
171.522343
 42
-0.009375
  0
VERTEX
  8
0
 10
217.444829
 20
165.312616
 42
-0.007898
  0
VERTEX
  8
0
 10
219.672878
 20
156.841458
 42
-0.003418
  0
VERTEX
  8
0
 10
222.383016
 20
145.500000
 42
-0.014173
  0
VERTEX
  8
0
 10
223.005761
 20
142.418113
 42
-0.010139
  0
VERTEX
  8
0
 10
223.534039
 20
138.940625
 42
-0.010250
  0
VERTEX
  8
0
 10
223.902481
 20
135.604223
 42
-0.021550
  0
VERTEX
  8
0
 10
224.023389
 20
133.000000
 42
0.014521
  0
VERTEX
  8
0
 10
224.120454
 20
129.999854
 42
0.003437
  0
VERTEX
  8
0
 10
224.462041
 20
125.003125
 42
0.003534
  0
VERTEX
  8
0
 10
224.934907
 20
119.263281
 42
0.003478
  0
VERTEX
  8
0
 10
225.491174
 20
113.500000
 42
-0.001843
  0
VERTEX
  8
0
 10
226.685001
 20
101.540332
 42
-0.029376
  0
VERTEX
  8
0
 10
226.835975
 20
97.469607
 42
-0.105211
  0
VERTEX
  8
0
 10
226.343011
 20
95.376631
 42
-0.160977
  0
VERTEX
  8
0
 10
225.069446
 20
94.037166
 42
-0.050271
  0
VERTEX
  8
0
 10
224.066715
 20
93.623888
 42
-0.106710
  0
VERTEX
  8
0
 10
223.233719
 20
93.558895
 42
-0.109085
  0
VERTEX
  8
0
 10
222.459978
 20
93.843141
 42
-0.054059
  0
VERTEX
  8
0
 10
221.640875
 20
94.501983
 42
0.087277
  0
VERTEX
  8
0
 10
219.942396
 20
95.692333
 42
0.202301
  0
VERTEX
  8
0
 10
218.416873
 20
95.750267
 42
0.133238
  0
VERTEX
  8
0
 10
216.862139
 20
94.625780
 42
0.031544
  0
VERTEX
  8
0
 10
214.994205
 20
91.990623
 42
-0.039879
  0
VERTEX
  8
0
 10
213.035202
 20
89.322281
 42
-0.083365
  0
VERTEX
  8
0
 10
211.056233
 20
87.684146
 42
-0.132128
  0
VERTEX
  8
0
 10
209.262295
 20
87.202366
 42
-0.198817
  0
VERTEX
  8
0
 10
207.785686
 20
87.814314
 42
-0.225405
  0
VERTEX
  8
0
 10
207.223702
 20
89.392980
 42
-0.005991
  0
VERTEX
  8
0
 10
208.084472
 20
96.952094
 42
-0.010801
  0
VERTEX
  8
0
 10
209.473607
 20
106.335987
 42
-0.005792
  0
VERTEX
  8
0
 10
211.571871
 20
117.856964
 42
0.013389
  0
VERTEX
  8
0
 10
212.119169
 20
121.144593
 42
0.008809
  0
VERTEX
  8
0
 10
212.580487
 20
124.952313
 42
0.008865
  0
VERTEX
  8
0
 10
212.898591
 20
128.676129
 42
0.016873
  0
VERTEX
  8
0
 10
213.000000
 20
131.680288
 42
0.007331
  0
VERTEX
  8
0
 10
212.946337
 20
135.340258
 42
0.062222
  0
VERTEX
  8
0
 10
212.695173
 20
136.962485
 42
0.194525
  0
VERTEX
  8
0
 10
212.150138
 20
137.661656
 42
0.179857
  0
VERTEX
  8
0
 10
211.250000
 20
137.814774
 42
0.118345
  0
VERTEX
  8
0
 10
210.490083
 20
137.472668
 42
0.092591
  0
VERTEX
  8
0
 10
209.886639
 20
136.795013
 42
0.073001
  0
VERTEX
  8
0
 10
209.465621
 20
135.791212
 42
0.041602
  0
VERTEX
  8
0
 10
209.244863
 20
134.491449
 42
-0.015127
  0
VERTEX
  8
0
 10
208.358901
 20
126.843842
 42
-0.002401
  0
VERTEX
  8
0
 10
206.096886
 20
111.916157
 42
-0.002871
  0
VERTEX
  8
0
 10
203.568561
 20
96.341390
 42
-0.006033
  0
VERTEX
  8
0
 10
201.389088
 20
84.277884
 42
-0.068382
  0
VERTEX
  8
0
 10
197.144223
 20
71.777294
 42
-0.042117
  0
VERTEX
  8
0
 10
189.035042
 20
58.494048
 42
-0.042575
  0
VERTEX
  8
0
 10
179.270723
 20
47.302006
 42
-0.103717
  0
VERTEX
  8
0
 10
170.049761
 20
41.500000
 42
0.022684
  0
VERTEX
  8
0
 10
167.499126
 20
40.420725
 42
0.041939
  0
VERTEX
  8
0
 10
165.558293
 20
39.284901
 42
0.051137
  0
VERTEX
  8
0
 10
164.113887
 20
38.029515
 42
0.064156
  0
VERTEX
  8
0
 10
163.076763
 20
36.591958
 42
-0.019428
  0
VERTEX
  8
0
 10
162.287322
 20
35.262010
 42
-0.009903
  0
VERTEX
  8
0
 10
161.199028
 20
33.651793
 42
-0.009823
  0
VERTEX
  8
0
 10
160.009811
 20
32.033689
 42
-0.014512
  0
VERTEX
  8
0
 10
158.898650
 20
30.666520
 42
-0.040145
  0
VERTEX
  8
0
 10
157.255163
 20
29.043729
 42
-0.079774
  0
VERTEX
  8
0
 10
155.689260
 20
28.105923
 42
-0.061174
  0
VERTEX
  8
0
 10
153.645218
 20
27.566103
 42
-0.015951
  0
VERTEX
  8
0
 10
150.260734
 20
27.212479
 42
-0.012641
  0
VERTEX
  8
0
 10
146.869999
 20
27.053245
 42
-0.057596
  0
VERTEX
  8
0
 10
144.906924
 20
27.237169
 42
-0.088294
  0
VERTEX
  8
0
 10
143.467350
 20
27.819872
 42
-0.056222
  0
VERTEX
  8
0
 10
142.050600
 20
28.949400
 42
-0.071061
  0
VERTEX
  8
0
 10
140.223037
 20
31.386083
 42
-0.292064
  0
VERTEX
  8
0
 10
140.340393
 20
33.143185
 42
-0.183146
  0
VERTEX
  8
0
 10
142.233264
 20
34.365849
 42
-0.032004
  0
VERTEX
  8
0
 10
146.508788
 20
35.000000
 42
0.012371
  0
VERTEX
  8
0
 10
149.403670
 20
35.313878
 42
0.047397
  0
VERTEX
  8
0
 10
151.168131
 20
35.722304
 42
0.091802
  0
VERTEX
  8
0
 10
152.154198
 20
36.267775
 42
0.224256
  0
VERTEX
  8
0
 10
152.500000
 20
37.000000
 42
0.300028
  0
VERTEX
  8
0
 10
151.988687
 20
37.775406
 42
0.067906
  0
VERTEX
  8
0
 10
150.390736
 20
38.216385
 42
0.028950
  0
VERTEX
  8
0
 10
147.364592
 20
38.446137
 42
0.004473
  0
VERTEX
  8
0
 10
141.344418
 20
38.500000
 42
-0.004192
  0
VERTEX
  8
0
 10
137.040829
 20
38.536084
 42
-0.006638
  0
VERTEX
  8
0
 10
133.354379
 20
38.646875
 42
-0.002193
  0
VERTEX
  8
0
 10
130.191267
 20
38.797888
 42
-0.220935
  0
VERTEX
  8
0
 10
129.809571
 20
39.000000
 42
0.007300
  0
VERTEX
  8
0
 10
126.719528
 20
42.952529
 42
0.012392
  0
VERTEX
  8
0
 10
124.005760
 20
46.155398
 42
0.007700
  0
VERTEX
  8
0
 10
121.712568
 20
48.651265
 42
0.205912
  0
VERTEX
  8
0
 10
120.901666
 20
49.000000
 42
0.263315
  0
VERTEX
  8
0
 10
119.746305
 20
48.346224
 42
0.188067
  0
VERTEX
  8
0
 10
119.490682
 20
46.849212
 42
0.085873
  0
VERTEX
  8
0
 10
120.415753
 20
44.492128
 42
0.035303
  0
VERTEX
  8
0
 10
122.405781
 20
41.680286
 42
-0.020685
  0
VERTEX
  8
0
 10
124.420962
 20
39.002359
 42
-0.067841
  0
VERTEX
  8
0
 10
125.418152
 20
37.030812
 42
-0.065191
  0
VERTEX
  8
0
 10
125.871776
 20
34.822481
 42
-0.018102
  0
VERTEX
  8
0
 10
126.000000
 20
31.281867
 42
-0.044239
  0
VERTEX
  8
0
 10
125.539228
 20
26.084314
 42
-0.110131
  0
VERTEX
  8
0
 10
124.074621
 20
22.583342
 42
-0.150038
  0
VERTEX
  8
0
 10
121.600591
 20
20.673739
 42
-0.111293
  0
VERTEX
  8
0
 10
118.159498
 20
20.196472
 42
-0.055281
  0
VERTEX
  8
0
 10
115.986651
 20
20.624062
 42
-0.122982
  0
VERTEX
  8
0
 10
114.558319
 20
21.498775
 42
-0.067978
  0
VERTEX
  8
0
 10
113.231434
 20
23.277850
 42
-0.008793
  0
VERTEX
  8
0
 10
111.003759
 20
27.479642
 42
0.040854
  0
VERTEX
  8
0
 10
107.951957
 20
32.439758
 42
0.064991
  0
VERTEX
  8
0
 10
104.513179
 20
36.035893
 42
0.076883
  0
VERTEX
  8
0
 10
100.746116
 20
38.215325
 42
0.091534
  0
VERTEX
  8
0
 10
96.718455
 20
38.983550
 42
-0.065976
  0
VERTEX
  8
0
 10
92.980858
 20
39.501398
 42
-0.018135
  0
VERTEX
  8
0
 10
87.303644
 20
41.293095
 42
-0.016387
  0
VERTEX
  8
0
 10
80.436086
 20
43.994282
 42
-0.010676
  0
VERTEX
  8
0
 10
72.686160
 20
47.537897
 42
-0.008302
  0
VERTEX
  8
0
 10
67.208554
 20
50.298438
 42
-0.043888
  0
VERTEX
  8
0
 10
64.382837
 20
52.114187
 42
-0.067331
  0
VERTEX
  8
0
 10
62.501154
 20
54.025921
 42
-0.037093
  0
VERTEX
  8
0
 10
60.730926
 20
56.794627
 42
-0.023939
  0
VERTEX
  8
0
 10
59.541330
 20
59.277247
 42
-0.007574
  0
VERTEX
  8
0
 10
58.002150
 20
63.088434
 42
-0.007543
  0
VERTEX
  8
0
 10
56.412204
 20
67.395972
 42
-0.008313
  0
VERTEX
  8
0
 10
55.005972
 20
71.612808
 42
0.000000
  0
VERTEX
  8
0
 10
51.819372
 20
81.725616
 42
0.000000
  0
VERTEX
  8
0
 10
53.925441
 20
85.853852
 42
0.044648
  0
VERTEX
  8
0
 10
54.975072
 20
88.462777
 42
0.028241
  0
VERTEX
  8
0
 10
55.745028
 20
91.653214
 42
0.020464
  0
VERTEX
  8
0
 10
56.335340
 20
95.859906
 42
0.007792
  0
VERTEX
  8
0
 10
56.825825
 20
101.762152
 42
0.000000
  0
VERTEX
  8
0
 10
57.620140
 20
113.542218
 42
0.000000
  0
VERTEX
  8
0
 10
63.310070
 20
121.897419
 42
0.007109
  0
VERTEX
  8
0
 10
65.489880
 20
125.198198
 42
0.010057
  0
VERTEX
  8
0
 10
67.328583
 20
128.201801
 42
0.006560
  0
VERTEX
  8
0
 10
68.775268
 20
130.751595
 42
0.126408
  0
VERTEX
  8
0
 10
69.000000
 20
131.626310
 42
0.227679
  0
VERTEX
  8
0
 10
68.529494
 20
132.606014
 42
0.191829
  0
VERTEX
  8
0
 10
67.418354
 20
132.945220
 42
0.116486
  0
VERTEX
  8
0
 10
65.889990
 20
132.447730
 42
0.076058
  0
VERTEX
  8
0
 10
64.463483
 20
131.250000
 42
0.023222
  0
VERTEX
  8
0
 10
59.262865
 20
124.740617
 42
0.041923
  0
VERTEX
  8
0
 10
55.733290
 20
118.903644
 42
0.050759
  0
VERTEX
  8
0
 10
53.687188
 20
113.445139
 42
0.064052
  0
VERTEX
  8
0
 10
52.992446
 20
108.101061
 42
-0.022218
  0
VERTEX
  8
0
 10
52.735446
 20
102.490906
 42
-0.015215
  0
VERTEX
  8
0
 10
51.968069
 20
96.160653
 42
-0.013834
  0
VERTEX
  8
0
 10
50.927547
 20
90.401019
 42
-0.066592
  0
VERTEX
  8
0
 10
49.820951
 20
87.266570
 42
-0.087432
  0
VERTEX
  8
0
 10
48.452553
 20
85.454488
 42
-0.130574
  0
VERTEX
  8
0
 10
46.710437
 20
84.525472
 42
-0.108482
  0
VERTEX
  8
0
 10
44.490175
 20
84.494142
 42
-0.048480
  0
VERTEX
  8
0
 10
41.682895
 20
85.359135
 42
-0.087713
  0
VERTEX
  8
0
 10
39.241340
 20
86.926708
 42
-0.097844
  0
VERTEX
  8
0
 10
37.594920
 20
89.184851
 42
-0.056190
  0
VERTEX
  8
0
 10
36.365758
 20
92.861135
 42
-0.011955
  0
VERTEX
  8
0
 10
35.113097
 20
99.500000
 42
-0.015824
  0
VERTEX
  8
0
 10
33.808186
 20
109.408772
 42
-0.023976
  0
VERTEX
  8
0
 10
33.362004
 20
118.089796
 42
-0.025055
  0
VERTEX
  8
0
 10
33.754150
 20
126.482752
 42
-0.019729
  0
VERTEX
  8
0
 10
34.990329
 20
135.500000
 42
-0.009968
  0
VERTEX
  8
0
 10
36.688093
 20
144.067538
 42
-0.023915
  0
VERTEX
  8
0
 10
38.373058
 20
150.316291
 42
-0.018517
  0
VERTEX
  8
0
 10
40.888603
 20
157.245575
 42
-0.004021
  0
VERTEX
  8
0
 10
45.765843
 20
169.000000
 42
-0.020971
  0
VERTEX
  8
0
 10
50.100743
 20
178.129903
 42
-0.020658
  0
VERTEX
  8
0
 10
55.205399
 20
186.911817
 42
-0.016985
  0
VERTEX
  8
0
 10
61.868977
 20
196.614237
 42
-0.007977
  0
VERTEX
  8
0
 10
71.101604
 20
208.715662
 42
-0.008073
  0
VERTEX
  8
0
 10
75.373093
 20
213.956657
 42
-0.018023
  0
VERTEX
  8
0
 10
78.824540
 20
217.766988
 42
-0.023394
  0
VERTEX
  8
0
 10
81.690834
 20
220.447718
 42
-0.058425
  0
VERTEX
  8
0
 10
84.071942
 20
222.036702
 42
0.042919
  0
VERTEX
  8
0
 10
88.280051
 20
224.660519
 42
0.026978
  0
VERTEX
  8
0
 10
92.726213
 20
228.384687
 42
0.027117
  0
VERTEX
  8
0
 10
96.600877
 20
232.417721
 42
0.059967
  0
VERTEX
  8
0
 10
98.976304
 20
235.955052
 42
0.028062
  0
VERTEX
  8
0
 10
100.815799
 20
240.124907
 42
0.007343
  0
VERTEX
  8
0
 10
103.287377
 20
247.009605
 42
0.004713
  0
VERTEX
  8
0
 10
105.618946
 20
254.032320
 42
0.077939
  0
VERTEX
  8
0
 10
106.000000
 20
256.462037
 42
0.125259
  0
VERTEX
  8
0
 10
105.652312
 20
257.828141
 42
0.196659
  0
VERTEX
  8
0
 10
104.726080
 20
258.583289
 42
0.191737
  0
VERTEX
  8
0
 10
103.516433
 20
258.482361
 42
0.119896
  0
VERTEX
  8
0
 10
102.415602
 20
257.553691
 42
0.056088
  0
VERTEX
  8
0
 10
101.793297
 20
256.465079
 42
0.009263
  0
VERTEX
  8
0
 10
100.875120
 20
254.223268
 42
0.010076
  0
VERTEX
  8
0
 10
99.892828
 20
251.532703
 42
0.008754
  0
VERTEX
  8
0
 10
98.970248
 20
248.676139
 42
-0.017924
  0
VERTEX
  8
0
 10
96.229966
 20
240.694862
 42
-0.049894
  0
VERTEX
  8
0
 10
93.568934
 20
235.407604
 42
-0.062978
  0
VERTEX
  8
0
 10
90.312636
 20
231.476405
 42
-0.044890
  0
VERTEX
  8
0
 10
85.803480
 20
227.951380
 42
-0.009882
  0
VERTEX
  8
0
 10
81.172711
 20
225.086499
 42
-0.088235
  0
VERTEX
  8
0
 10
78.939952
 20
224.250536
 42
-0.182842
  0
VERTEX
  8
0
 10
77.274075
 20
224.552732
 42
-0.073656
  0
VERTEX
  8
0
 10
75.459174
 20
226.045112
 42
-0.065700
  0
VERTEX
  8
0
 10
74.484083
 20
227.457171
 42
-0.101396
  0
VERTEX
  8
0
 10
74.088250
 20
228.881658
 42
-0.052450
  0
VERTEX
  8
0
 10
74.162494
 20
230.950789
 42
-0.007290
  0
VERTEX
  8
0
 10
74.827204
 20
235.197901
 42
-0.030347
  0
VERTEX
  8
0
 10
76.766544
 20
243.461851
 42
-0.007877
  0
VERTEX
  8
0
 10
80.895905
 20
256.490338
 42
-0.005571
  0
VERTEX
  8
0
 10
85.393545
 20
269.458973
 42
-0.071915
  0
VERTEX
  8
0
 10
87.792096
 20
273.971500
 42
-0.063314
  0
VERTEX
  8
0
 10
90.428093
 20
276.752733
 42
-0.026451
  0
VERTEX
  8
0
 10
94.600959
 20
279.813512
 42
-0.024083
  0
VERTEX
  8
0
 10
98.893287
 20
282.338903
 42
-0.121506
  0
VERTEX
  8
0
 10
101.573553
 20
283.000000
 42
0.126032
  0
VERTEX
  8
0
 10
102.967322
 20
283.356989
 42
0.032941
  0
VERTEX
  8
0
 10
104.930686
 20
284.608092
 42
0.026340
  0
VERTEX
  8
0
 10
107.352919
 20
286.590472
 42
0.012332
  0
VERTEX
  8
0
 10
110.281692
 20
289.392000
 42
-0.011159
  0
VERTEX
  8
0
 10
114.278579
 20
293.233235
 42
-0.054765
  0
VERTEX
  8
0
 10
116.797677
 20
295.084666
 42
-0.061949
  0
VERTEX
  8
0
 10
119.517416
 20
296.236618
 42
-0.016715
  0
VERTEX
  8
0
 10
124.071154
 20
297.367787
 42
-0.009766
  0
VERTEX
  8
0
 10
131.452446
 20
298.791317
 42
-0.025876
  0
VERTEX
  8
0
 10
136.788001
 20
299.430586
 42
-0.016383
  0
VERTEX
  8
0
 10
143.360021
 20
299.658986
 42
-0.002091
  0
VERTEX
  8
0
 10
157.500000
 20
299.627783
 42
0.000000
  0
VERTEX
  8
0
 10
177.500000
 20
299.500000
 42
0.000000
  0
SEQEND
  0
POLYLINE
  8
0
 66
1
 70
1
  0
VERTEX
  8
0
 10
326.150400
 20
90.919509
 42
-0.123257
  0
VERTEX
  8
0
 10
328.073561
 20
89.175188
 42
-0.057072
  0
VERTEX
  8
0
 10
329.626526
 20
86.154171
 42
-0.049690
  0
VERTEX
  8
0
 10
330.654998
 20
82.311381
 42
-0.040574
  0
VERTEX
  8
0
 10
331.000000
 20
78.066915
 42
-0.024652
  0
VERTEX
  8
0
 10
330.863672
 20
75.303577
 42
-0.062488
  0
VERTEX
  8
0
 10
330.419063
 20
73.346632
 42
-0.064895
  0
VERTEX
  8
0
 10
329.516437
 20
71.603597
 42
-0.028283
  0
VERTEX
  8
0
 10
327.907255
 20
69.547151
 42
-0.070179
  0
VERTEX
  8
0
 10
324.241206
 20
66.395215
 42
-0.089436
  0
VERTEX
  8
0
 10
320.127326
 20
64.696435
 42
-0.060711
  0
VERTEX
  8
0
 10
314.514869
 20
64.178968
 42
-0.016925
  0
VERTEX
  8
0
 10
305.690856
 20
64.737212
 42
-0.005460
  0
VERTEX
  8
0
 10
293.927534
 20
66.011980
 42
-0.001051
  0
VERTEX
  8
0
 10
272.649511
 20
68.598600
 42
-0.001119
  0
VERTEX
  8
0
 10
251.253236
 20
71.293890
 42
-0.004331
  0
VERTEX
  8
0
 10
238.000000
 20
73.110353
 42
0.001345
  0
VERTEX
  8
0
 10
234.819645
 20
73.565607
 42
0.001149
  0
VERTEX
  8
0
 10
231.465364
 20
74.028689
 42
0.001158
  0
VERTEX
  8
0
 10
228.413544
 20
74.435674
 42
0.003299
  0
VERTEX
  8
0
 10
226.286346
 20
74.700076
 42
-0.025030
  0
VERTEX
  8
0
 10
224.312821
 20
75.032984
 42
-0.060750
  0
VERTEX
  8
0
 10
222.921700
 20
75.522749
 42
-0.086344
  0
VERTEX
  8
0
 10
222.001346
 20
76.196792
 42
-0.115277
  0
VERTEX
  8
0
 10
221.473392
 20
77.083834
 42
0.064752
  0
VERTEX
  8
0
 10
221.037753
 20
78.017280
 42
0.018370
  0
VERTEX
  8
0
 10
220.127600
 20
79.339931
 42
0.018180
  0
VERTEX
  8
0
 10
218.979730
 20
80.771642
 42
0.018312
  0
VERTEX
  8
0
 10
217.733544
 20
82.112610
 42
0.000000
  0
VERTEX
  8
0
 10
214.592995
 20
85.253159
 42
0.000000
  0
VERTEX
  8
0
 10
217.108936
 20
87.417280
 42
-0.090249
  0
VERTEX
  8
0
 10
219.199075
 20
88.642921
 42
-0.057850
  0
VERTEX
  8
0
 10
221.942455
 20
89.299090
 42
-0.023357
  0
VERTEX
  8
0
 10
226.619304
 20
89.638732
 42
-0.002467
  0
VERTEX
  8
0
 10
237.562438
 20
89.866970
 42
0.002235
  0
VERTEX
  8
0
 10
245.628458
 20
90.031442
 42
0.001394
  0
VERTEX
  8
0
 10
255.077716
 20
90.292741
 42
0.001399
  0
VERTEX
  8
0
 10
264.390415
 20
90.602342
 42
0.002542
  0
VERTEX
  8
0
 10
272.000000
 20
90.915391
 42
-0.004952
  0
VERTEX
  8
0
 10
290.897602
 20
91.601600
 42
-0.006579
  0
VERTEX
  8
0
 10
308.092986
 20
91.829172
 42
-0.003093
  0
VERTEX
  8
0
 10
322.968326
 20
91.738286
 42
-0.120351
  0
SEQEND
  0
POLYLINE
  8
0
 66
1
 70
1
  0
VERTEX
  8
0
 10
211.126729
 20
81.088699
 42
-0.077904
  0
VERTEX
  8
0
 10
213.906170
 20
79.481718
 42
-0.063552
  0
VERTEX
  8
0
 10
216.286630
 20
76.997928
 42
-0.075600
  0
VERTEX
  8
0
 10
217.613839
 20
74.487423
 42
-0.287771
  0
VERTEX
  8
0
 10
217.235834
 20
72.835834
 42
-0.220777
  0
VERTEX
  8
0
 10
215.848994
 20
72.328314
 42
-0.010553
  0
VERTEX
  8
0
 10
210.808209
 20
72.858893
 42
-0.012594
  0
VERTEX
  8
0
 10
205.857296
 20
73.613036
 42
-0.153450
  0
VERTEX
  8
0
 10
204.176968
 20
74.489699
 42
-0.265971
  0
VERTEX
  8
0
 10
203.895906
 20
75.523351
 42
-0.013009
  0
VERTEX
  8
0
 10
204.914785
 20
79.060869
 42
-0.012343
  0
VERTEX
  8
0
 10
206.103026
 20
82.517157
 42
-0.436742
  0
VERTEX
  8
0
 10
206.809197
 20
82.808613
 42
0.012128
  0
VERTEX
  8
0
 10
207.253754
 20
82.616523
 42
0.001130
  0
VERTEX
  8
0
 10
208.362428
 20
82.171970
 42
0.001452
  0
VERTEX
  8
0
 10
209.687365
 20
81.648629
 42
0.001140
  0
SEQEND
  0
POLYLINE
  8
0
 66
1
 70
1
  0
VERTEX
  8
0
 10
123.634859
 20
263.927420
 42
0.075908
  0
VERTEX
  8
0
 10
121.767311
 20
261.933780
 42
0.149752
  0
VERTEX
  8
0
 10
121.124023
 20
259.882809
 42
0.142401
  0
VERTEX
  8
0
 10
121.728508
 20
257.750667
 42
0.066153
  0
VERTEX
  8
0
 10
123.579015
 20
255.514352
 42
0.064328
  0
VERTEX
  8
0
 10
126.693827
 20
253.295683
 42
0.106178
  0
VERTEX
  8
0
 10
129.787501
 20
252.409808
 42
0.093212
  0
VERTEX
  8
0
 10
133.256243
 20
252.823013
 42
0.041010
  0
VERTEX
  8
0
 10
137.554812
 20
254.572025
 42
0.016827
  0
VERTEX
  8
0
 10
139.640758
 20
255.717140
 42
0.024111
  0
VERTEX
  8
0
 10
141.400476
 20
256.879915
 42
0.021646
  0
VERTEX
  8
0
 10
142.715717
 20
257.933547
 42
0.216308
  0
VERTEX
  8
0
 10
143.000000
 20
258.559927
 42
0.149851
  0
VERTEX
  8
0
 10
142.798565
 20
259.216954
 42
0.022234
  0
VERTEX
  8
0
 10
141.961654
 20
260.342335
 42
0.023384
  0
VERTEX
  8
0
 10
140.818731
 20
261.617768
 42
0.018213
  0
VERTEX
  8
0
 10
139.465204
 20
262.896408
 42
0.028049
  0
VERTEX
  8
0
 10
137.421634
 20
264.497052
 42
0.063358
  0
VERTEX
  8
0
 10
135.682627
 20
265.406423
 42
0.062395
  0
VERTEX
  8
0
 10
133.754640
 20
265.859157
 42
0.026510
  0
VERTEX
  8
0
 10
131.100062
 20
266.000000
 42
0.025931
  0
VERTEX
  8
0
 10
128.755838
 20
265.878342
 42
0.041802
  0
VERTEX
  8
0
 10
126.792630
 20
265.506361
 42
0.047630
  0
VERTEX
  8
0
 10
125.115104
 20
264.863420
 42
0.051378
  0
SEQEND
  0
POLYLINE
  8
0
 66
1
 70
1
  0
VERTEX
  8
0
 10
179.500000
 20
262.192272
 42
0.091393
  0
VERTEX
  8
0
 10
176.012463
 20
261.107425
 42
0.126994
  0
VERTEX
  8
0
 10
173.599524
 20
258.919674
 42
0.239592
  0
VERTEX
  8
0
 10
173.356948
 20
256.750235
 42
0.243671
  0
VERTEX
  8
0
 10
174.966881
 20
255.298410
 42
-0.074011
  0
VERTEX
  8
0
 10
175.765172
 20
254.957571
 42
-0.052530
  0
VERTEX
  8
0
 10
176.537697
 20
254.362643
 42
-0.052472
  0
VERTEX
  8
0
 10
177.170257
 20
253.618825
 42
-0.073271
  0
VERTEX
  8
0
 10
177.552337
 20
252.835099
 42
0.096643
  0
VERTEX
  8
0
 10
178.022121
 20
251.975207
 42
0.037112
  0
VERTEX
  8
0
 10
178.971166
 20
250.990383
 42
0.035024
  0
VERTEX
  8
0
 10
180.188915
 20
250.045893
 42
0.036190
  0
VERTEX
  8
0
 10
181.513755
 20
249.292050
 42
0.025349
  0
VERTEX
  8
0
 10
183.429004
 20
248.495169
 42
0.075010
  0
VERTEX
  8
0
 10
184.822848
 20
248.221524
 42
0.079051
  0
VERTEX
  8
0
 10
186.193737
 20
248.378005
 42
0.030327
  0
VERTEX
  8
0
 10
188.012423
 20
249.005146
 42
0.084587
  0
VERTEX
  8
0
 10
190.237204
 20
250.404535
 42
0.085226
  0
VERTEX
  8
0
 10
191.866201
 20
252.458527
 42
0.090398
  0
VERTEX
  8
0
 10
192.651348
 20
254.826482
 42
0.112265
  0
VERTEX
  8
0
 10
192.457742
 20
257.133143
 42
0.158707
  0
VERTEX
  8
0
 10
190.886914
 20
259.323625
 42
0.065507
  0
VERTEX
  8
0
 10
187.651573
 20
261.103972
 42
0.059176
  0
VERTEX
  8
0
 10
183.589756
 20
262.158522
 42
0.063861
  0
SEQEND
  0
POLYLINE
  8
0
 66
1
 70
1
  0
VERTEX
  8
0
 10
154.975423
 20
233.470386
 42
0.064013
  0
VERTEX
  8
0
 10
154.419590
 20
232.593344
 42
0.102046
  0
VERTEX
  8
0
 10
154.214790
 20
231.732768
 42
0.083251
  0
VERTEX
  8
0
 10
154.350687
 20
230.738758
 42
0.031394
  0
VERTEX
  8
0
 10
154.852978
 20
229.423333
 42
-0.020158
  0
VERTEX
  8
0
 10
155.790955
 20
227.123271
 42
-0.131884
  0
VERTEX
  8
0
 10
155.895434
 20
225.891996
 42
-0.265294
  0
VERTEX
  8
0
 10
155.342837
 20
225.230905
 42
-0.089213
  0
VERTEX
  8
0
 10
154.059017
 20
225.000000
 42
-0.076855
  0
VERTEX
  8
0
 10
152.553924
 20
225.232721
 42
-0.158894
  0
VERTEX
  8
0
 10
151.597314
 20
225.918502
 42
-0.342051
  0
VERTEX
  8
0
 10
151.616080
 20
226.654907
 42
-0.169187
  0
VERTEX
  8
0
 10
152.461425
 20
227.174318
 42
0.070345
  0
VERTEX
  8
0
 10
153.095871
 20
227.410396
 42
0.202858
  0
VERTEX
  8
0
 10
153.382688
 20
227.769589
 42
0.167835
  0
VERTEX
  8
0
 10
153.352606
 20
228.278611
 42
0.046071
  0
VERTEX
  8
0
 10
152.973668
 20
229.000000
 42
0.029513
  0
VERTEX
  8
0
 10
152.418510
 20
229.753849
 42
0.202931
  0
VERTEX
  8
0
 10
152.018384
 20
229.960434
 42
0.233630
  0
VERTEX
  8
0
 10
151.627844
 20
229.803156
 42
0.039059
  0
VERTEX
  8
0
 10
151.123739
 20
229.141197
 42
-0.129391
  0
VERTEX
  8
0
 10
150.491567
 20
228.563180
 42
-0.083016
  0
VERTEX
  8
0
 10
149.541772
 20
228.250878
 42
-0.056268
  0
VERTEX
  8
0
 10
148.205255
 20
228.197919
 42
-0.022174
  0
VERTEX
  8
0
 10
146.373739
 20
228.413477
 42
0.033302
  0
VERTEX
  8
0
 10
144.308597
 20
228.610080
 42
0.057493
  0
VERTEX
  8
0
 10
142.591272
 20
228.461118
 42
0.056640
  0
VERTEX
  8
0
 10
140.935597
 20
227.922453
 42
0.031324
  0
VERTEX
  8
0
 10
139.057370
 20
226.919833
 42
0.011930
  0
VERTEX
  8
0
 10
137.212760
 20
225.719681
 42
0.107067
  0
VERTEX
  8
0
 10
136.553948
 20
225.022069
 42
0.305460
  0
VERTEX
  8
0
 10
136.581843
 20
224.458284
 42
0.104942
  0
VERTEX
  8
0
 10
137.228163
 20
223.892190
 42
0.082872
  0
VERTEX
  8
0
 10
138.069512
 20
223.589985
 42
0.050926
  0
VERTEX
  8
0
 10
139.121836
 20
223.508047
 42
0.045918
  0
VERTEX
  8
0
 10
140.291652
 20
223.644155
 42
0.038950
  0
VERTEX
  8
0
 10
141.485893
 20
223.994636
 42
-0.006553
  0
VERTEX
  8
0
 10
143.654201
 20
224.786659
 42
-0.080438
  0
VERTEX
  8
0
 10
144.519102
 20
224.940988
 42
-0.457705
  0
VERTEX
  8
0
 10
144.752933
 20
224.678835
 42
-0.106259
  0
VERTEX
  8
0
 10
144.526845
 20
224.043437
 42
0.331028
  0
VERTEX
  8
0
 10
144.556054
 20
223.703740
 42
0.155018
  0
VERTEX
  8
0
 10
144.956761
 20
223.464587
 42
0.064804
  0
VERTEX
  8
0
 10
145.792713
 20
223.379809
 42
0.024388
  0
VERTEX
  8
0
 10
146.967828
 20
223.470617
 42
-0.031641
  0
VERTEX
  8
0
 10
148.142516
 20
223.544280
 42
-0.053937
  0
VERTEX
  8
0
 10
149.119197
 20
223.437987
 42
-0.075972
  0
VERTEX
  8
0
 10
149.780482
 20
223.183151
 42
-0.269053
  0
VERTEX
  8
0
 10
150.000000
 20
222.804736
 42
0.108344
  0
VERTEX
  8
0
 10
150.084789
 20
222.418034
 42
0.279463
  0
VERTEX
  8
0
 10
150.312344
 20
222.264325
 42
0.147756
  0
VERTEX
  8
0
 10
150.692262
 20
222.359042
 42
0.032828
  0
VERTEX
  8
0
 10
151.250000
 20
222.743360
 42
-0.087461
  0
VERTEX
  8
0
 10
152.797261
 20
223.577624
 42
-0.032975
  0
VERTEX
  8
0
 10
155.186132
 20
224.198041
 42
-0.041126
  0
VERTEX
  8
0
 10
157.175424
 20
224.409630
 42
-0.595403
  0
VERTEX
  8
0
 10
157.453426
 20
223.924641
 42
0.128361
  0
VERTEX
  8
0
 10
157.346352
 20
223.576339
 42
0.100731
  0
VERTEX
  8
0
 10
157.408695
 20
223.184706
 42
0.089204
  0
VERTEX
  8
0
 10
157.631998
 20
222.809279
 42
0.075820
  0
VERTEX
  8
0
 10
157.983688
 20
222.510081
 42
0.063128
  0
VERTEX
  8
0
 10
158.372949
 20
222.332741
 42
0.133845
  0
VERTEX
  8
0
 10
158.701458
 20
222.321143
 42
0.191588
  0
VERTEX
  8
0
 10
158.916773
 20
222.471440
 42
0.146740
  0
VERTEX
  8
0
 10
159.000000
 20
222.748922
 42
-0.270404
  0
VERTEX
  8
0
 10
159.227343
 20
223.138560
 42
-0.026950
  0
VERTEX
  8
0
 10
160.233871
 20
223.637940
 42
-0.028083
  0
VERTEX
  8
0
 10
161.590889
 20
224.134084
 42
-0.018436
  0
VERTEX
  8
0
 10
163.200414
 20
224.557939
 42
0.024614
  0
VERTEX
  8
0
 10
165.519009
 20
225.199243
 42
0.096220
  0
VERTEX
  8
0
 10
166.809479
 20
225.922626
 42
0.113743
  0
VERTEX
  8
0
 10
167.620623
 20
227.008621
 42
0.041372
  0
VERTEX
  8
0
 10
168.251337
 20
228.836178
 42
0.069957
  0
VERTEX
  8
0
 10
168.582574
 20
231.837122
 42
0.202997
  0
VERTEX
  8
0
 10
167.729407
 20
233.695912
 42
0.151128
  0
VERTEX
  8
0
 10
165.564232
 20
234.715108
 42
0.035006
  0
VERTEX
  8
0
 10
161.500000
 20
235.000000
 42
0.019402
  0
VERTEX
  8
0
 10
159.116247
 20
234.907465
 42
0.038189
  0
VERTEX
  8
0
 10
157.243271
 20
234.616840
 42
0.049577
  0
VERTEX
  8
0
 10
155.852072
 20
234.141325
 42
0.112887
  0
SEQEND
  0
POLYLINE
  8
0
 66
1
 70
1
  0
VERTEX
  8
0
 10
169.015313
 20
224.250000
 42
0.107195
  0
VERTEX
  8
0
 10
169.302179
 20
223.046469
 42
0.087040
  0
VERTEX
  8
0
 10
170.075855
 20
221.965507
 42
0.104311
  0
VERTEX
  8
0
 10
171.042028
 20
221.348836
 42
0.232505
  0
VERTEX
  8
0
 10
171.888197
 20
221.430902
 42
-0.072223
  0
VERTEX
  8
0
 10
172.313572
 20
221.615470
 42
-0.148061
  0
VERTEX
  8
0
 10
172.673408
 20
221.605103
 42
-0.188844
  0
VERTEX
  8
0
 10
172.910990
 20
221.406576
 42
-0.126017
  0
VERTEX
  8
0
 10
173.000000
 20
221.059017
 42
-0.093332
  0
VERTEX
  8
0
 10
172.923877
 20
220.654762
 42
-0.096420
  0
VERTEX
  8
0
 10
172.706250
 20
220.311086
 42
-0.099167
  0
VERTEX
  8
0
 10
172.381556
 20
220.081062
 42
-0.105053
  0
VERTEX
  8
0
 10
172.000000
 20
220.000000
 42
0.105053
  0
VERTEX
  8
0
 10
171.618444
 20
219.918938
 42
0.099167
  0
VERTEX
  8
0
 10
171.293750
 20
219.688914
 42
0.096420
  0
VERTEX
  8
0
 10
171.076123
 20
219.345238
 42
0.093332
  0
VERTEX
  8
0
 10
171.000000
 20
218.940983
 42
0.105925
  0
VERTEX
  8
0
 10
171.076338
 20
218.584689
 42
0.180623
  0
VERTEX
  8
0
 10
171.287679
 20
218.370848
 42
0.163654
  0
VERTEX
  8
0
 10
171.605238
 20
218.335951
 42
0.084852
  0
VERTEX
  8
0
 10
171.979333
 20
218.487227
 42
-0.133003
  0
VERTEX
  8
0
 10
172.500664
 20
218.642300
 42
-0.047372
  0
VERTEX
  8
0
 10
173.282378
 20
218.587487
 42
-0.042906
  0
VERTEX
  8
0
 10
174.171258
 20
218.360104
 42
-0.038819
  0
VERTEX
  8
0
 10
175.039996
 20
217.978595
 42
0.011045
  0
VERTEX
  8
0
 10
176.379561
 20
217.299307
 42
0.470403
  0
VERTEX
  8
0
 10
176.635263
 20
217.417247
 42
0.182536
  0
VERTEX
  8
0
 10
176.590475
 20
217.855489
 42
0.003577
  0
VERTEX
  8
0
 10
175.550313
 20
219.902706
 42
0.066154
  0
VERTEX
  8
0
 10
173.875123
 20
222.302784
 42
0.060651
  0
VERTEX
  8
0
 10
171.585782
 20
224.263239
 42
0.114850
  0
VERTEX
  8
0
 10
169.783168
 20
224.938273
 42
0.458870
  0
SEQEND
  0
POLYLINE
  8
0
 66
1
 70
1
  0
VERTEX
  8
0
 10
135.427058
 20
222.234687
 42
0.255844
  0
VERTEX
  8
0
 10
134.059836
 20
219.539408
 42
0.186609
  0
VERTEX
  8
0
 10
135.395191
 20
216.385152
 42
0.097848
  0
VERTEX
  8
0
 10
139.701844
 20
213.398967
 42
0.053365
  0
VERTEX
  8
0
 10
145.860467
 20
211.462988
 42
0.026251
  0
VERTEX
  8
0
 10
148.802801
 20
211.031972
 42
0.008123
  0
VERTEX
  8
0
 10
153.266897
 20
210.688829
 42
0.008099
  0
VERTEX
  8
0
 10
158.278880
 20
210.466792
 42
0.008822
  0
VERTEX
  8
0
 10
163.154500
 20
210.415934
 42
-0.005878
  0
VERTEX
  8
0
 10
168.157471
 20
210.393204
 42
-0.016587
  0
VERTEX
  8
0
 10
171.648707
 20
210.220351
 42
-0.016964
  0
VERTEX
  8
0
 10
174.002494
 20
209.944729
 42
-0.532783
  0
VERTEX
  8
0
 10
174.212541
 20
209.500000
 42
0.211309
  0
VERTEX
  8
0
 10
174.186808
 20
209.288929
 42
0.435448
  0
VERTEX
  8
0
 10
174.320516
 20
209.223638
 42
0.063817
  0
VERTEX
  8
0
 10
174.757260
 20
209.459170
 42
0.015039
  0
VERTEX
  8
0
 10
175.417695
 20
209.963449
 42
0.034995
  0
VERTEX
  8
0
 10
176.081727
 20
210.584740
 42
0.097249
  0
VERTEX
  8
0
 10
176.416817
 20
211.125457
 42
0.198521
  0
VERTEX
  8
0
 10
176.404235
 20
211.530610
 42
0.209500
  0
VERTEX
  8
0
 10
176.109653
 20
211.796782
 42
-0.158685
  0
VERTEX
  8
0
 10
175.683983
 20
212.111400
 42
-0.060219
  0
VERTEX
  8
0
 10
175.325961
 20
212.767909
 42
-0.051835
  0
VERTEX
  8
0
 10
175.081987
 20
213.631312
 42
-0.042980
  0
VERTEX
  8
0
 10
175.000000
 20
214.583333
 42
0.123155
  0
VERTEX
  8
0
 10
174.606197
 20
216.157896
 42
0.229000
  0
VERTEX
  8
0
 10
173.566599
 20
216.916532
 42
0.110508
  0
VERTEX
  8
0
 10
171.642977
 20
216.839638
 42
0.021728
  0
VERTEX
  8
0
 10
168.322427
 20
215.799628
 42
-0.042663
  0
VERTEX
  8
0
 10
166.357835
 20
215.273424
 42
-0.047887
  0
VERTEX
  8
0
 10
164.407746
 20
215.115657
 42
-0.036227
  0
VERTEX
  8
0
 10
162.057957
 20
215.321545
 42
-0.012977
  0
VERTEX
  8
0
 10
158.751429
 20
215.942966
 42
0.007229
  0
VERTEX
  8
0
 10
156.213487
 20
216.450208
 42
0.008111
  0
VERTEX
  8
0
 10
153.757230
 20
216.863210
 42
0.007542
  0
VERTEX
  8
0
 10
151.658247
 20
217.148908
 42
0.042476
  0
VERTEX
  8
0
 10
150.528503
 20
217.188801
 42
-0.072121
  0
VERTEX
  8
0
 10
149.632463
 20
217.273629
 42
-0.037625
  0
VERTEX
  8
0
 10
148.563205
 20
217.620386
 42
-0.036457
  0
VERTEX
  8
0
 10
147.498232
 20
218.150270
 42
-0.045947
  0
VERTEX
  8
0
 10
146.606609
 20
218.795464
 42
0.015243
  0
VERTEX
  8
0
 10
145.886128
 20
219.387380
 42
0.091423
  0
VERTEX
  8
0
 10
145.456371
 20
219.608352
 42
0.545443
  0
VERTEX
  8
0
 10
145.329844
 20
219.500456
 42
0.099603
  0
VERTEX
  8
0
 10
145.453335
 20
219.142866
 42
-0.482879
  0
VERTEX
  8
0
 10
145.193983
 20
218.471495
 42
-0.158954
  0
VERTEX
  8
0
 10
143.958086
 20
218.487355
 42
-0.056034
  0
VERTEX
  8
0
 10
141.704008
 20
219.548677
 42
-0.049546
  0
VERTEX
  8
0
 10
139.638313
 20
221.122335
 42
0.016350
  0
VERTEX
  8
0
 10
138.158229
 20
222.413485
 42
0.107003
  0
VERTEX
  8
0
 10
137.285092
 20
222.858585
 42
0.163372
  0
VERTEX
  8
0
 10
136.485501
 20
222.806022
 42
0.052770
  0
SEQEND
  0
POLYLINE
  8
0
 66
1
 70
1
  0
VERTEX
  8
0
 10
162.812500
 20
217.316886
 42
0.051402
  0
VERTEX
  8
0
 10
163.359369
 20
217.160852
 42
0.054150
  0
VERTEX
  8
0
 10
163.916927
 20
217.123424
 42
0.060344
  0
VERTEX
  8
0
 10
164.402231
 20
217.202593
 42
0.126455
  0
VERTEX
  8
0
 10
164.729167
 20
217.395833
 42
0.296942
  0
VERTEX
  8
0
 10
164.775380
 20
217.614691
 42
0.208169
  0
VERTEX
  8
0
 10
164.592839
 20
217.799335
 42
0.077125
  0
VERTEX
  8
0
 10
164.112848
 20
217.910055
 42
0.028489
  0
VERTEX
  8
0
 10
163.416667
 20
217.921053
 42
0.018894
  0
VERTEX
  8
0
 10
162.670344
 20
217.862007
 42
0.168741
  0
VERTEX
  8
0
 10
162.378580
 20
217.720685
 42
0.470617
  0
VERTEX
  8
0
 10
162.395823
 20
217.538436
 42
0.054073
  0
SEQEND
  0
POLYLINE
  8
0
 66
1
 70
1
  0
VERTEX
  8
0
 10
136.000000
 20
212.181462
 42
0.149534
  0
VERTEX
  8
0
 10
136.266453
 20
211.310438
 42
0.084765
  0
VERTEX
  8
0
 10
137.035287
 20
210.506143
 42
0.097357
  0
VERTEX
  8
0
 10
137.934546
 20
210.077607
 42
0.264952
  0
VERTEX
  8
0
 10
138.590697
 20
210.257364
 42
0.274667
  0
VERTEX
  8
0
 10
138.658254
 20
210.522730
 42
0.066988
  0
VERTEX
  8
0
 10
138.466178
 20
210.952146
 42
0.050040
  0
VERTEX
  8
0
 10
138.075014
 20
211.462050
 42
0.030935
  0
VERTEX
  8
0
 10
137.524166
 20
211.979944
 42
0.030483
  0
VERTEX
  8
0
 10
136.879936
 20
212.451416
 42
0.110288
  0
VERTEX
  8
0
 10
136.405689
 20
212.625144
 42
0.256649
  0
VERTEX
  8
0
 10
136.121034
 20
212.514408
 42
0.176123
  0
SEQEND
  0
POLYLINE
  8
0
 66
1
 70
1
  0
VERTEX
  8
0
 10
144.775429
 20
208.442095
 42
0.151482
  0
VERTEX
  8
0
 10
144.594089
 20
208.097751
 42
0.041030
  0
VERTEX
  8
0
 10
144.530595
 20
207.477585
 42
0.037599
  0
VERTEX
  8
0
 10
144.572060
 20
206.726491
 42
0.031377
  0
VERTEX
  8
0
 10
144.725393
 20
205.942095
 42
0.139674
  0
VERTEX
  8
0
 10
145.328255
 20
204.920987
 42
0.129453
  0
VERTEX
  8
0
 10
146.395880
 20
204.334354
 42
0.053808
  0
VERTEX
  8
0
 10
148.366191
 20
204.061807
 42
0.007486
  0
VERTEX
  8
0
 10
152.494187
 20
204.000000
 42
0.011423
  0
VERTEX
  8
0
 10
155.948715
 20
204.078931
 42
0.031823
  0
VERTEX
  8
0
 10
158.359005
 20
204.343465
 42
0.046282
  0
VERTEX
  8
0
 10
160.016546
 20
204.794069
 42
0.130773
  0
VERTEX
  8
0
 10
160.986246
 20
205.483427
 42
0.063478
  0
VERTEX
  8
0
 10
161.504178
 20
206.298745
 42
0.245388
  0
VERTEX
  8
0
 10
161.479740
 20
206.878665
 42
0.150242
  0
VERTEX
  8
0
 10
160.938698
 20
207.381850
 42
0.021900
  0
VERTEX
  8
0
 10
159.543591
 20
207.983427
 42
0.068290
  0
VERTEX
  8
0
 10
156.625443
 20
208.657319
 42
0.014885
  0
VERTEX
  8
0
 10
151.461151
 20
208.971780
 42
0.009403
  0
VERTEX
  8
0
 10
146.196589
 20
209.036231
 42
0.197207
  0
SEQEND
  0
POLYLINE
  8
0
 66
1
 70
1
  0
VERTEX
  8
0
 10
76.250000
 20
134.884952
 42
0.021026
  0
VERTEX
  8
0
 10
74.045810
 20
133.338965
 42
0.125975
  0
VERTEX
  8
0
 10
73.186233
 20
132.246074
 42
0.301394
  0
VERTEX
  8
0
 10
73.332700
 20
131.390950
 42
0.112795
  0
VERTEX
  8
0
 10
74.392913
 20
130.679467
 42
0.181825
  0
VERTEX
  8
0
 10
76.369621
 20
130.666248
 42
0.030179
  0
VERTEX
  8
0
 10
79.915433
 20
132.221610
 42
0.028272
  0
VERTEX
  8
0
 10
83.227557
 20
134.163315
 42
0.251092
  0
VERTEX
  8
0
 10
84.000000
 20
135.604503
 42
0.303556
  0
VERTEX
  8
0
 10
83.304480
 20
136.644559
 42
0.121724
  0
VERTEX
  8
0
 10
81.528736
 20
136.912350
 42
0.072971
  0
VERTEX
  8
0
 10
78.973633
 20
136.291772
 42
0.046448
  0
SEQEND
  0
POLYLINE
  8
0
 66
1
 70
1
  0
VERTEX
  8
0
 10
312.400956
 20
87.286931
 42
0.108039
  0
VERTEX
  8
0
 10
310.900051
 20
83.502692
 42
0.037784
  0
VERTEX
  8
0
 10
310.389568
 20
77.637267
 42
0.034526
  0
VERTEX
  8
0
 10
310.715405
 20
72.000650
 42
0.222706
  0
VERTEX
  8
0
 10
312.202036
 20
69.655717
 42
0.094414
  0
VERTEX
  8
0
 10
313.708732
 20
69.055253
 42
0.319184
  0
VERTEX
  8
0
 10
314.620188
 20
69.469911
 42
0.171468
  0
VERTEX
  8
0
 10
314.882187
 20
70.860061
 42
0.036124
  0
VERTEX
  8
0
 10
314.320888
 20
73.306110
 42
-0.042029
  0
VERTEX
  8
0
 10
313.924203
 20
75.133376
 42
-0.043538
  0
VERTEX
  8
0
 10
313.845236
 20
76.979525
 42
-0.037241
  0
VERTEX
  8
0
 10
314.091600
 20
79.044912
 42
-0.019732
  0
VERTEX
  8
0
 10
314.686341
 20
81.555257
 42
0.002927
  0
VERTEX
  8
0
 10
315.230452
 20
83.550497
 42
0.003391
  0
VERTEX
  8
0
 10
315.724437
 20
85.456491
 42
0.003028
  0
VERTEX
  8
0
 10
316.121858
 20
87.075194
 42
0.020021
  0
VERTEX
  8
0
 10
316.282972
 20
87.892371
 42
0.160399
  0
VERTEX
  8
0
 10
316.071985
 20
89.171587
 42
0.321419
  0
VERTEX
  8
0
 10
315.202611
 20
89.610213
 42
0.149473
  0
VERTEX
  8
0
 10
313.811628
 20
88.935779
 42
0.057501
  0
SEQEND
  0
ENDSEC
  0
EOF
