  0
SECTION
  2
HEADER
  9
$ACADVER
  1
AC1006
  9
$EXTMIN
 10
0.000000
 20
0.000000
 30
0.000000
  9
$EXTMAX
 10
194.000000
 20
222.000000
 30
0.000000
  0
ENDSEC
  0
SECTION
  2
ENTITIES
  0
POLYLINE
  8
0
 66
1
 70
1
  0
VERTEX
  8
0
 10
88.352327
 20
199.997371
 42
0.070263
  0
VERTEX
  8
0
 10
86.545845
 20
198.962908
 42
0.104178
  0
VERTEX
  8
0
 10
85.370632
 20
197.575643
 42
0.062222
  0
VERTEX
  8
0
 10
84.494375
 20
195.322745
 42
0.012239
  0
VERTEX
  8
0
 10
83.535908
 20
191.080054
 42
-0.014208
  0
VERTEX
  8
0
 10
82.756698
 20
187.692943
 42
-0.098123
  0
VERTEX
  8
0
 10
82.018303
 20
186.164938
 42
-0.127973
  0
VERTEX
  8
0
 10
80.833785
 20
185.225609
 42
-0.030779
  0
VERTEX
  8
0
 10
78.463415
 20
184.348626
 42
-0.027861
  0
VERTEX
  8
0
 10
76.541233
 20
183.884111
 42
-0.012681
  0
VERTEX
  8
0
 10
73.986210
 20
183.482137
 42
-0.012512
  0
VERTEX
  8
0
 10
71.264617
 20
183.193481
 42
-0.016800
  0
VERTEX
  8
0
 10
68.787513
 20
183.076852
 42
0.027441
  0
VERTEX
  8
0
 10
66.203241
 20
182.900017
 42
0.016155
  0
VERTEX
  8
0
 10
63.143540
 20
182.420373
 42
0.016133
  0
VERTEX
  8
0
 10
60.108131
 20
181.741386
 42
0.026430
  0
VERTEX
  8
0
 10
57.595779
 20
180.949951
 42
0.000000
  0
VERTEX
  8
0
 10
52.116532
 20
178.899902
 42
0.000000
  0
VERTEX
  8
0
 10
48.098104
 20
180.949951
 42
0.078305
  0
VERTEX
  8
0
 10
42.652893
 20
182.726997
 42
0.086413
  0
VERTEX
  8
0
 10
37.114851
 20
182.653684
 42
0.087787
  0
VERTEX
  8
0
 10
31.997189
 20
180.722938
 42
0.084048
  0
VERTEX
  8
0
 10
27.763869
 20
177.131221
 42
0.073381
  0
VERTEX
  8
0
 10
25.824870
 20
173.989873
 42
0.053399
  0
VERTEX
  8
0
 10
24.610528
 20
170.061627
 42
0.054247
  0
VERTEX
  8
0
 10
24.269734
 20
166.049053
 42
0.085356
  0
VERTEX
  8
0
 10
24.934702
 20
162.663753
 42
-0.062655
  0
VERTEX
  8
0
 10
25.364569
 20
160.900371
 42
-0.097515
  0
VERTEX
  8
0
 10
25.239231
 20
159.345786
 42
-0.058213
  0
VERTEX
  8
0
 10
24.453043
 20
157.439467
 42
-0.010827
  0
VERTEX
  8
0
 10
22.537671
 20
154.163753
 42
0.039673
  0
VERTEX
  8
0
 10
18.382091
 20
146.012358
 42
0.036049
  0
VERTEX
  8
0
 10
15.409324
 20
137.044303
 42
0.033635
  0
VERTEX
  8
0
 10
13.601148
 20
127.151060
 42
0.026146
  0
VERTEX
  8
0
 10
12.931338
 20
116.228806
 42
0.028759
  0
VERTEX
  8
0
 10
13.492337
 20
104.678898
 42
0.045626
  0
VERTEX
  8
0
 10
15.431419
 20
94.974832
 42
0.052331
  0
VERTEX
  8
0
 10
18.815425
 20
86.811584
 42
0.059361
  0
VERTEX
  8
0
 10
23.709668
 20
79.899602
 42
0.039012
  0
VERTEX
  8
0
 10
28.012394
 20
75.825607
 42
0.053741
  0
VERTEX
  8
0
 10
32.482756
 20
72.942958
 42
0.043902
  0
VERTEX
  8
0
 10
38.123603
 20
70.705554
 42
0.017088
  0
VERTEX
  8
0
 10
46.250000
 20
68.581229
 42
-0.148821
  0
VERTEX
  8
0
 10
48.107322
 20
67.525209
 42
-0.170959
  0
VERTEX
  8
0
 10
48.935053
 20
65.670146
 42
-0.062731
  0
VERTEX
  8
0
 10
48.781674
 20
62.206379
 42
-0.007592
  0
VERTEX
  8
0
 10
47.377945
 20
54.694394
 42
-0.012658
  0
VERTEX
  8
0
 10
46.393120
 20
50.396125
 42
-0.039889
  0
VERTEX
  8
0
 10
45.434684
 20
47.600570
 42
-0.053406
  0
VERTEX
  8
0
 10
44.219125
 20
45.461368
 42
-0.040511
  0
VERTEX
  8
0
 10
42.470381
 20
43.403715
 42
0.109694
  0
VERTEX
  8
0
 10
38.840363
 20
37.701345
 42
0.140462
  0
VERTEX
  8
0
 10
38.411496
 20
31.520086
 42
0.147393
  0
VERTEX
  8
0
 10
41.301520
 20
26.261309
 42
0.124718
  0
VERTEX
  8
0
 10
46.803607
 20
23.056325
 42
0.054093
  0
VERTEX
  8
0
 10
48.594607
 20
22.746639
 42
0.029260
  0
VERTEX
  8
0
 10
50.834100
 20
22.736256
 42
0.024262
  0
VERTEX
  8
0
 10
53.525280
 20
23.012748
 42
0.014206
  0
VERTEX
  8
0
 10
56.713735
 20
23.590663
 42
-0.046727
  0
VERTEX
  8
0
 10
66.968555
 20
24.768231
 42
-0.004349
  0
VERTEX
  8
0
 10
92.467059
 20
25.080503
 42
-0.005130
  0
VERTEX
  8
0
 10
117.781126
 20
24.910600
 42
-0.032837
  0
VERTEX
  8
0
 10
130.555529
 20
23.852727
 42
0.008012
  0
VERTEX
  8
0
 10
135.357489
 20
23.213930
 42
0.044110
  0
VERTEX
  8
0
 10
137.965535
 20
23.140711
 42
0.066203
  0
VERTEX
  8
0
 10
140.048640
 20
23.546320
 42
0.032400
  0
VERTEX
  8
0
 10
142.555529
 20
24.574733
 42
0.128256
  0
VERTEX
  8
0
 10
146.654052
 20
28.091809
 42
0.121151
  0
VERTEX
  8
0
 10
148.622651
 20
33.238112
 42
0.114377
  0
VERTEX
  8
0
 10
148.028882
 20
38.952416
 42
0.105402
  0
VERTEX
  8
0
 10
144.983371
 20
44.017801
 42
-0.046516
  0
VERTEX
  8
0
 10
143.419110
 20
46.040018
 42
-0.051198
  0
VERTEX
  8
0
 10
142.313187
 20
48.254759
 42
-0.036126
  0
VERTEX
  8
0
 10
141.430420
 20
51.228178
 42
-0.011000
  0
VERTEX
  8
0
 10
140.522631
 20
55.839435
 42
0.003977
  0
VERTEX
  8
0
 10
139.871422
 20
59.411354
 42
0.003945
  0
VERTEX
  8
0
 10
139.161785
 20
62.982145
 42
0.003871
  0
VERTEX
  8
0
 10
138.492306
 20
66.095495
 42
0.015301
  0
VERTEX
  8
0
 10
138.007385
 20
67.993398
 42
-0.014761
  0
VERTEX
  8
0
 10
137.156257
 20
71.309647
 42
-0.121753
  0
VERTEX
  8
0
 10
137.188100
 20
72.854994
 42
-0.211166
  0
VERTEX
  8
0
 10
137.940878
 20
73.787541
 42
-0.057913
  0
VERTEX
  8
0
 10
139.750000
 20
74.467985
 42
0.080063
  0
VERTEX
  8
0
 10
146.880913
 20
77.515214
 42
0.043828
  0
VERTEX
  8
0
 10
154.459160
 20
83.290893
 42
0.043680
  0
VERTEX
  8
0
 10
160.968054
 20
90.352852
 42
0.074975
  0
VERTEX
  8
0
 10
164.852218
 20
97.334564
 42
0.086992
  0
VERTEX
  8
0
 10
167.636862
 20
112.257862
 42
0.050327
  0
VERTEX
  8
0
 10
165.998051
 20
130.490833
 42
0.050333
  0
VERTEX
  8
0
 10
160.750670
 20
148.024518
 42
0.087159
  0
VERTEX
  8
0
 10
152.626444
 20
160.832919
 42
-0.063038
  0
VERTEX
  8
0
 10
151.537867
 20
162.379803
 42
-0.067827
  0
VERTEX
  8
0
 10
150.901907
 20
164.112003
 42
-0.043282
  0
VERTEX
  8
0
 10
150.586310
 20
166.527748
 42
-0.010850
  0
VERTEX
  8
0
 10
150.500000
 20
170.504805
 42
0.030208
  0
VERTEX
  8
0
 10
150.182928
 20
175.748155
 42
0.077961
  0
VERTEX
  8
0
 10
149.150962
 20
179.386151
 42
0.084493
  0
VERTEX
  8
0
 10
147.113377
 20
182.360679
 42
0.040093
  0
VERTEX
  8
0
 10
143.614881
 20
185.438211
 42
0.107228
  0
VERTEX
  8
0
 10
139.912416
 20
187.125882
 42
0.057503
  0
VERTEX
  8
0
 10
134.891253
 20
187.625452
 42
0.057124
  0
VERTEX
  8
0
 10
129.832246
 20
186.964890
 42
0.098486
  0
VERTEX
  8
0
 10
126.004542
 20
185.161479
 42
-0.028356
  0
VERTEX
  8
0
 10
124.338574
 20
184.070128
 42
-0.063916
  0
VERTEX
  8
0
 10
122.948211
 20
183.489512
 42
-0.076480
  0
VERTEX
  8
0
 10
121.620933
 20
183.335841
 42
-0.058027
  0
VERTEX
  8
0
 10
120.170762
 20
183.559941
 42
0.036742
  0
VERTEX
  8
0
 10
118.554313
 20
183.880537
 42
0.005265
  0
VERTEX
  8
0
 10
115.200161
 20
184.257137
 42
0.005958
  0
VERTEX
  8
0
 10
111.215911
 20
184.614140
 42
0.005056
  0
VERTEX
  8
0
 10
107.000000
 20
184.898462
 42
0.000000
  0
VERTEX
  8
0
 10
96.500000
 20
185.500000
 42
0.000000
  0
VERTEX
  8
0
 10
96.000000
 20
192.169086
 42
0.006478
  0
VERTEX
  8
0
 10
95.772160
 20
194.757772
 42
0.009671
  0
VERTEX
  8
0
 10
95.500000
 20
197.013279
 42
0.005189
  0
VERTEX
  8
0
 10
95.215955
 20
198.895207
 42
0.169203
  0
VERTEX
  8
0
 10
95.000000
 20
199.294858
 42
0.111327
  0
VERTEX
  8
0
 10
93.787447
 20
199.986569
 42
0.047883
  0
VERTEX
  8
0
 10
91.952315
 20
200.360442
 42
0.047041
  0
VERTEX
  8
0
 10
89.988328
 20
200.382587
 42
0.074393
  0
SEQEND
  0
POLYLINE
  8
0
 66
1
 70
1
  0
VERTEX
  8
0
 10
93.508805
 20
192.935977
 42
-0.012374
  0
VERTEX
  8
0
 10
93.731792
 20
190.952134
 42
-0.017659
  0
VERTEX
  8
0
 10
93.823669
 20
189.182484
 42
-0.013703
  0
VERTEX
  8
0
 10
93.808018
 20
187.739489
 42
-0.188990
  0
VERTEX
  8
0
 10
93.602643
 20
187.269310
 42
-0.180103
  0
VERTEX
  8
0
 10
92.637111
 20
186.827651
 42
-0.012175
  0
VERTEX
  8
0
 10
89.563043
 20
186.679127
 42
-0.009759
  0
VERTEX
  8
0
 10
86.441160
 20
186.665352
 42
-0.301921
  0
VERTEX
  8
0
 10
85.832215
 20
187.083333
 42
-0.136025
  0
VERTEX
  8
0
 10
85.726702
 20
188.017880
 42
-0.003841
  0
VERTEX
  8
0
 10
86.399067
 20
192.039706
 42
-0.005114
  0
VERTEX
  8
0
 10
87.126605
 20
195.958622
 42
-0.090190
  0
VERTEX
  8
0
 10
87.595559
 20
197.154618
 42
-0.141644
  0
VERTEX
  8
0
 10
87.955229
 20
197.480274
 42
-0.041999
  0
VERTEX
  8
0
 10
88.654031
 20
197.751669
 42
-0.038443
  0
VERTEX
  8
0
 10
89.528399
 20
197.937708
 42
-0.033211
  0
VERTEX
  8
0
 10
90.465179
 20
198.000000
 42
-0.085932
  0
VERTEX
  8
0
 10
91.747591
 20
197.777959
 42
-0.173390
  0
VERTEX
  8
0
 10
92.530837
 20
197.136435
 42
-0.088497
  0
VERTEX
  8
0
 10
93.038532
 20
195.806385
 42
-0.012858
  0
SEQEND
  0
POLYLINE
  8
0
 66
1
 70
1
  0
VERTEX
  8
0
 10
143.643416
 20
181.687975
 42
-0.027786
  0
VERTEX
  8
0
 10
145.576599
 20
179.707909
 42
-0.068098
  0
VERTEX
  8
0
 10
146.692902
 20
178.011012
 42
-0.064584
  0
VERTEX
  8
0
 10
147.345128
 20
176.022224
 42
-0.023033
  0
VERTEX
  8
0
 10
147.768442
 20
173.058071
 42
-0.009265
  0
VERTEX
  8
0
 10
147.982115
 20
170.298040
 42
-0.059329
  0
VERTEX
  8
0
 10
147.898481
 20
168.900824
 42
-0.191483
  0
VERTEX
  8
0
 10
147.526037
 20
168.302375
 42
-0.244046
  0
VERTEX
  8
0
 10
146.893325
 20
168.202225
 42
-0.151251
  0
VERTEX
  8
0
 10
146.320918
 20
168.612583
 42
-0.045448
  0
VERTEX
  8
0
 10
145.747024
 20
169.532535
 42
-0.040955
  0
VERTEX
  8
0
 10
145.257643
 20
170.740015
 42
-0.034517
  0
VERTEX
  8
0
 10
144.937459
 20
172.082129
 42
0.090383
  0
VERTEX
  8
0
 10
143.098458
 20
177.191994
 42
0.121700
  0
VERTEX
  8
0
 10
139.696177
 20
180.715152
 42
0.136408
  0
VERTEX
  8
0
 10
135.356608
 20
182.007762
 42
0.128132
  0
VERTEX
  8
0
 10
130.856118
 20
180.922997
 42
-0.052271
  0
VERTEX
  8
0
 10
129.962665
 20
180.558920
 42
-0.041891
  0
VERTEX
  8
0
 10
128.943752
 20
180.353681
 42
-0.043342
  0
VERTEX
  8
0
 10
127.958278
 20
180.325678
 42
-0.078474
  0
VERTEX
  8
0
 10
127.171859
 20
180.497289
 42
-0.057086
  0
VERTEX
  8
0
 10
126.354858
 20
180.928382
 42
-0.318248
  0
VERTEX
  8
0
 10
126.192143
 20
181.367318
 42
-0.144688
  0
VERTEX
  8
0
 10
126.544715
 20
181.944177
 42
-0.012641
  0
VERTEX
  8
0
 10
127.860784
 20
183.074292
 42
-0.059485
  0
VERTEX
  8
0
 10
129.212605
 20
183.932050
 42
-0.046901
  0
VERTEX
  8
0
 10
130.840308
 20
184.531475
 42
-0.040097
  0
VERTEX
  8
0
 10
132.792516
 20
184.884637
 42
-0.024710
  0
VERTEX
  8
0
 10
135.125469
 20
185.000000
 42
-0.025583
  0
VERTEX
  8
0
 10
137.877384
 20
184.859105
 42
-0.067234
  0
VERTEX
  8
0
 10
139.794499
 20
184.396910
 42
-0.067249
  0
VERTEX
  8
0
 10
141.520034
 20
183.442709
 42
-0.025603
  0
SEQEND
  0
POLYLINE
  8
0
 66
1
 70
1
  0
VERTEX
  8
0
 10
107.500000
 20
182.083154
 42
-0.010392
  0
VERTEX
  8
0
 10
115.643845
 20
181.332919
 42
-0.050340
  0
VERTEX
  8
0
 10
120.176320
 20
180.351480
 42
-0.046763
  0
VERTEX
  8
0
 10
124.567739
 20
178.456928
 42
-0.008191
  0
VERTEX
  8
0
 10
132.402917
 20
174.000534
 42
-0.028938
  0
VERTEX
  8
0
 10
140.767038
 20
168.383564
 42
-0.040565
  0
VERTEX
  8
0
 10
147.467269
 20
162.383497
 42
-0.042341
  0
VERTEX
  8
0
 10
152.897510
 20
155.595912
 42
-0.036001
  0
VERTEX
  8
0
 10
157.443394
 20
147.622297
 42
-0.018955
  0
VERTEX
  8
0
 10
161.065806
 20
139.248505
 42
-0.038605
  0
VERTEX
  8
0
 10
163.135956
 20
132.391558
 42
-0.037310
  0
VERTEX
  8
0
 10
164.167244
 20
125.149252
 42
-0.016568
  0
VERTEX
  8
0
 10
164.492833
 20
115.500000
 42
-0.006032
  0
VERTEX
  8
0
 10
164.409857
 20
108.263829
 42
-0.033190
  0
VERTEX
  8
0
 10
164.059753
 20
104.379322
 42
-0.047790
  0
VERTEX
  8
0
 10
163.249438
 20
101.228862
 42
-0.021362
  0
VERTEX
  8
0
 10
161.620477
 20
97.265688
 42
-0.067964
  0
VERTEX
  8
0
 10
156.859037
 20
89.811152
 42
-0.055817
  0
VERTEX
  8
0
 10
149.974669
 20
83.331213
 42
-0.052230
  0
VERTEX
  8
0
 10
141.344810
 20
78.166885
 42
-0.045391
  0
VERTEX
  8
0
 10
131.420036
 20
74.609422
 42
-0.029670
  0
VERTEX
  8
0
 10
118.295646
 20
72.029012
 42
-0.008592
  0
VERTEX
  8
0
 10
97.787266
 20
69.605438
 42
-0.002916
  0
VERTEX
  8
0
 10
76.094097
 20
67.546853
 42
-0.222092
  0
VERTEX
  8
0
 10
72.889521
 20
68.710479
 42
-0.129491
  0
VERTEX
  8
0
 10
72.613810
 20
69.183371
 42
-0.048013
  0
VERTEX
  8
0
 10
72.479075
 20
69.948310
 42
-0.043546
  0
VERTEX
  8
0
 10
72.486883
 20
70.852044
 42
-0.040047
  0
VERTEX
  8
0
 10
72.649385
 20
71.767247
 42
-0.134048
  0
VERTEX
  8
0
 10
73.368684
 20
73.016894
 42
-0.144447
  0
VERTEX
  8
0
 10
74.604113
 20
73.683961
 42
-0.047337
  0
VERTEX
  8
0
 10
77.036075
 20
73.961377
 42
-0.003975
  0
VERTEX
  8
0
 10
83.366631
 20
74.031192
 42
0.020602
  0
VERTEX
  8
0
 10
97.254171
 20
74.646480
 42
0.016282
  0
VERTEX
  8
0
 10
112.188785
 20
76.417520
 42
0.015505
  0
VERTEX
  8
0
 10
125.542259
 20
78.869570
 42
0.063588
  0
VERTEX
  8
0
 10
133.289582
 20
81.606742
 42
0.045651
  0
VERTEX
  8
0
 10
136.701799
 20
83.735876
 42
0.033208
  0
VERTEX
  8
0
 10
140.080380
 20
86.672276
 42
0.033073
  0
VERTEX
  8
0
 10
143.058116
 20
90.048327
 42
0.043750
  0
VERTEX
  8
0
 10
145.266748
 20
93.500000
 42
0.098681
  0
VERTEX
  8
0
 10
147.525558
 20
101.208398
 42
0.034595
  0
VERTEX
  8
0
 10
147.747768
 20
112.801759
 42
0.034650
  0
VERTEX
  8
0
 10
146.282268
 20
125.030802
 42
0.054905
  0
VERTEX
  8
0
 10
143.184787
 20
135.106890
 42
0.023013
  0
VERTEX
  8
0
 10
141.906548
 20
137.726523
 42
0.087449
  0
VERTEX
  8
0
 10
140.773926
 20
139.143200
 42
0.092015
  0
VERTEX
  8
0
 10
139.255985
 20
140.049796
 42
0.027059
  0
VERTEX
  8
0
 10
136.654061
 20
140.856890
 42
0.010871
  0
VERTEX
  8
0
 10
132.279261
 20
141.857868
 42
0.097043
  0
VERTEX
  8
0
 10
130.315890
 20
141.876935
 42
0.248498
  0
VERTEX
  8
0
 10
129.351083
 20
141.111151
 42
0.103560
  0
VERTEX
  8
0
 10
129.000000
 20
139.434259
 42
-0.061494
  0
VERTEX
  8
0
 10
128.576010
 20
135.999877
 42
-0.190343
  0
VERTEX
  8
0
 10
127.239594
 20
134.135224
 42
-0.123563
  0
VERTEX
  8
0
 10
124.552167
 20
133.224078
 42
-0.020252
  0
VERTEX
  8
0
 10
119.022314
 20
133.000000
 42
0.000000
  0
VERTEX
  8
0
 10
111.114996
 20
133.000000
 42
0.000000
  0
VERTEX
  8
0
 10
110.807498
 20
137.250000
 42
0.000000
  0
VERTEX
  8
0
 10
110.500000
 20
141.500000
 42
0.000000
  0
VERTEX
  8
0
 10
105.053446
 20
141.809076
 42
0.016429
  0
VERTEX
  8
0
 10
99.627587
 20
141.938409
 42
0.102060
  0
VERTEX
  8
0
 10
96.920751
 20
141.354564
 42
0.186652
  0
VERTEX
  8
0
 10
95.482714
 20
139.917925
 42
0.083531
  0
VERTEX
  8
0
 10
94.810129
 20
137.285533
 42
-0.088938
  0
VERTEX
  8
0
 10
94.107918
 20
134.655223
 42
-0.174312
  0
VERTEX
  8
0
 10
92.597928
 20
133.139338
 42
-0.091756
  0
VERTEX
  8
0
 10
89.714331
 20
132.374742
 42
-0.014633
  0
VERTEX
  8
0
 10
83.856989
 20
132.099680
 42
-0.025179
  0
VERTEX
  8
0
 10
80.003452
 20
132.225677
 42
-0.151056
  0
VERTEX
  8
0
 10
78.164246
 20
132.966425
 42
-0.183363
  0
VERTEX
  8
0
 10
77.256199
 20
134.532779
 42
-0.040692
  0
VERTEX
  8
0
 10
77.000000
 20
137.675625
 42
0.054290
  0
VERTEX
  8
0
 10
76.839426
 20
139.150117
 42
0.261447
  0
VERTEX
  8
0
 10
76.297996
 20
139.757084
 42
0.109623
  0
VERTEX
  8
0
 10
75.139848
 20
139.888027
 42
0.007073
  0
VERTEX
  8
0
 10
71.750000
 20
139.479507
 42
0.005945
  0
VERTEX
  8
0
 10
69.684444
 20
139.175836
 42
0.007992
  0
VERTEX
  8
0
 10
67.821875
 20
138.848736
 42
0.005764
  0
VERTEX
  8
0
 10
66.276378
 20
138.533264
 42
0.080752
  0
VERTEX
  8
0
 10
65.750000
 20
138.326652
 42
0.195599
  0
VERTEX
  8
0
 10
65.457111
 20
137.940800
 42
0.023033
  0
VERTEX
  8
0
 10
65.220313
 20
136.866251
 42
0.024818
  0
VERTEX
  8
0
 10
65.054691
 20
135.506670
 42
0.017901
  0
VERTEX
  8
0
 10
65.000000
 20
133.979527
 42
-0.024219
  0
VERTEX
  8
0
 10
64.885442
 20
131.615839
 42
-0.145123
  0
VERTEX
  8
0
 10
64.427644
 20
130.486380
 42
-0.138233
  0
VERTEX
  8
0
 10
63.417063
 20
129.760712
 42
-0.021251
  0
VERTEX
  8
0
 10
61.035608
 20
129.009588
 42
-0.020624
  0
VERTEX
  8
0
 10
59.148671
 20
128.584081
 42
-0.010113
  0
VERTEX
  8
0
 10
56.716305
 20
128.190735
 42
-0.010015
  0
VERTEX
  8
0
 10
54.168505
 20
127.883335
 42
-0.014335
  0
VERTEX
  8
0
 10
51.898617
 20
127.721044
 42
-0.012014
  0
VERTEX
  8
0
 10
48.659108
 20
127.660517
 42
-0.109029
  0
VERTEX
  8
0
 10
47.288204
 20
127.970743
 42
-0.163653
  0
VERTEX
  8
0
 10
46.432053
 20
128.791303
 42
-0.036351
  0
VERTEX
  8
0
 10
45.613009
 20
130.678230
 42
0.019486
  0
VERTEX
  8
0
 10
44.493954
 20
133.514359
 42
0.205073
  0
VERTEX
  8
0
 10
43.602854
 20
134.346961
 42
0.216428
  0
VERTEX
  8
0
 10
42.413915
 20
134.252426
 42
0.021845
  0
VERTEX
  8
0
 10
39.931132
 20
132.732573
 42
0.095085
  0
VERTEX
  8
0
 10
36.519359
 20
129.339886
 42
0.080368
  0
VERTEX
  8
0
 10
34.356749
 20
124.724818
 42
0.056117
  0
VERTEX
  8
0
 10
33.275029
 20
118.256580
 42
0.020729
  0
VERTEX
  8
0
 10
33.162720
 20
109.000000
 42
0.006957
  0
VERTEX
  8
0
 10
33.450975
 20
102.336757
 42
0.031101
  0
VERTEX
  8
0
 10
33.916191
 20
98.456650
 42
0.044017
  0
VERTEX
  8
0
 10
34.776816
 20
95.340752
 42
0.024754
  0
VERTEX
  8
0
 10
36.331634
 20
91.733475
 42
0.049269
  0
VERTEX
  8
0
 10
38.726144
 20
87.870683
 42
0.030958
  0
VERTEX
  8
0
 10
42.213098
 20
83.856854
 42
0.030844
  0
VERTEX
  8
0
 10
45.951518
 20
80.498047
 42
0.085696
  0
VERTEX
  8
0
 10
49.041296
 20
78.812826
 42
-0.337914
  0
VERTEX
  8
0
 10
49.721392
 20
77.798658
 42
-0.034238
  0
VERTEX
  8
0
 10
49.322016
 20
74.731140
 42
-0.034101
  0
VERTEX
  8
0
 10
48.504817
 20
71.732862
 42
-0.319371
  0
VERTEX
  8
0
 10
47.474493
 20
71.000000
 42
-0.058972
  0
VERTEX
  8
0
 10
46.667093
 20
71.095561
 42
-0.004767
  0
VERTEX
  8
0
 10
44.590521
 20
71.615080
 42
-0.006371
  0
VERTEX
  8
0
 10
42.120084
 20
72.291947
 42
-0.004852
  0
VERTEX
  8
0
 10
39.431446
 20
73.093889
 42
-0.021543
  0
VERTEX
  8
0
 10
35.674467
 20
74.434096
 42
-0.042964
  0
VERTEX
  8
0
 10
32.864562
 20
75.867119
 42
-0.040266
  0
VERTEX
  8
0
 10
30.228234
 20
77.821673
 42
-0.016737
  0
VERTEX
  8
0
 10
26.988739
 20
80.851261
 42
-0.043354
  0
VERTEX
  8
0
 10
21.744503
 20
87.093329
 42
-0.072473
  0
VERTEX
  8
0
 10
18.660295
 20
93.204357
 42
-0.056301
  0
VERTEX
  8
0
 10
17.001833
 20
100.976948
 42
-0.017167
  0
VERTEX
  8
0
 10
16.238447
 20
113.000000
 42
-0.029351
  0
VERTEX
  8
0
 10
16.716682
 20
129.148347
 42
-0.059944
  0
VERTEX
  8
0
 10
19.331359
 20
141.534886
 42
-0.067676
  0
VERTEX
  8
0
 10
24.537937
 20
151.966855
 42
-0.048262
  0
VERTEX
  8
0
 10
32.904569
 20
162.011252
 42
-0.034324
  0
VERTEX
  8
0
 10
41.269112
 20
169.218356
 42
-0.042763
  0
VERTEX
  8
0
 10
49.974283
 20
174.641072
 42
-0.044048
  0
VERTEX
  8
0
 10
59.250484
 20
178.384840
 42
-0.040336
  0
VERTEX
  8
0
 10
69.316462
 20
180.582248
 42
0.005135
  0
VERTEX
  8
0
 10
73.435236
 20
181.181886
 42
0.005742
  0
VERTEX
  8
0
 10
77.389836
 20
181.845761
 42
0.005314
  0
VERTEX
  8
0
 10
80.743776
 20
182.485351
 42
0.030170
  0
VERTEX
  8
0
 10
82.500000
 20
182.951391
 42
-0.048691
  0
VERTEX
  8
0
 10
84.028922
 20
183.297147
 42
-0.017933
  0
VERTEX
  8
0
 10
86.234375
 20
183.494472
 42
-0.017577
  0
VERTEX
  8
0
 10
88.674229
 20
183.538932
 42
-0.020197
  0
VERTEX
  8
0
 10
91.000000
 20
183.405475
 42
0.003378
  0
VERTEX
  8
0
 10
93.845896
 20
183.145918
 42
0.001056
  0
VERTEX
  8
0
 10
98.115625
 20
182.794658
 42
0.001056
  0
VERTEX
  8
0
 10
102.885220
 20
182.422553
 42
0.001167
  0
SEQEND
  0
POLYLINE
  8
0
 66
1
 70
1
  0
VERTEX
  8
0
 10
46.065741
 20
178.964816
 42
-0.058375
  0
VERTEX
  8
0
 10
47.872357
 20
177.707470
 42
-0.442210
  0
VERTEX
  8
0
 10
47.884767
 20
176.784909
 42
-0.199228
  0
VERTEX
  8
0
 10
46.521240
 20
176.274432
 42
-0.028450
  0
VERTEX
  8
0
 10
43.486216
 20
176.554338
 42
0.066433
  0
VERTEX
  8
0
 10
38.332347
 20
176.637726
 42
0.127317
  0
VERTEX
  8
0
 10
34.501341
 20
175.152857
 42
0.124773
  0
VERTEX
  8
0
 10
31.822689
 20
171.969406
 42
0.062455
  0
VERTEX
  8
0
 10
30.124395
 20
166.953841
 42
-0.040683
  0
VERTEX
  8
0
 10
29.301150
 20
164.123561
 42
-0.269137
  0
VERTEX
  8
0
 10
28.200829
 20
163.232680
 42
-0.397943
  0
VERTEX
  8
0
 10
27.274474
 20
163.870080
 42
-0.052713
  0
VERTEX
  8
0
 10
27.000000
 20
166.466327
 42
-0.088307
  0
VERTEX
  8
0
 10
27.941253
 20
171.754177
 42
-0.100673
  0
VERTEX
  8
0
 10
30.638003
 20
176.123369
 42
-0.104130
  0
VERTEX
  8
0
 10
34.741787
 20
178.989327
 42
-0.100870
  0
VERTEX
  8
0
 10
39.700600
 20
180.000000
 42
-0.020697
  0
VERTEX
  8
0
 10
41.538859
 20
179.923873
 42
-0.019614
  0
VERTEX
  8
0
 10
43.398100
 20
179.695915
 42
-0.020007
  0
VERTEX
  8
0
 10
45.025203
 20
179.364001
 42
-0.062621
  0
SEQEND
  0
POLYLINE
  8
0
 66
1
 70
1
  0
VERTEX
  8
0
 10
108.097573
 20
134.645843
 42
0.028474
  0
VERTEX
  8
0
 10
108.437838
 20
133.101006
 42
0.030781
  0
VERTEX
  8
0
 10
108.944928
 20
131.645632
 42
0.032348
  0
VERTEX
  8
0
 10
109.532006
 20
130.465106
 42
0.112138
  0
VERTEX
  8
0
 10
110.109512
 20
129.844577
 42
0.159466
  0
VERTEX
  8
0
 10
112.561044
 20
129.135158
 42
0.013923
  0
VERTEX
  8
0
 10
119.114143
 20
129.544793
 42
0.016430
  0
VERTEX
  8
0
 10
125.597290
 20
130.347123
 42
0.105665
  0
VERTEX
  8
0
 10
128.663102
 20
131.524035
 42
0.068213
  0
VERTEX
  8
0
 10
129.540321
 20
132.283074
 42
0.038536
  0
VERTEX
  8
0
 10
130.386480
 20
133.409529
 42
0.037672
  0
VERTEX
  8
0
 10
131.078371
 20
134.700759
 42
0.050140
  0
VERTEX
  8
0
 10
131.492372
 20
135.965272
 42
-0.026647
  0
VERTEX
  8
0
 10
131.958554
 20
137.653095
 42
-0.157613
  0
VERTEX
  8
0
 10
132.495555
 20
138.381284
 42
-0.179440
  0
VERTEX
  8
0
 10
133.317124
 20
138.606561
 42
-0.036686
  0
VERTEX
  8
0
 10
134.829270
 20
138.361269
 42
-0.054870
  0
VERTEX
  8
0
 10
137.469704
 20
137.416000
 42
-0.113918
  0
VERTEX
  8
0
 10
139.161423
 20
136.047218
 42
-0.075935
  0
VERTEX
  8
0
 10
140.479286
 20
133.702703
 42
-0.015013
  0
VERTEX
  8
0
 10
142.047969
 20
129.130190
 42
-0.037609
  0
VERTEX
  8
0
 10
143.707980
 20
121.886604
 42
-0.021326
  0
VERTEX
  8
0
 10
144.673493
 20
112.935650
 42
-0.020812
  0
VERTEX
  8
0
 10
144.872574
 20
104.351733
 42
-0.063727
  0
VERTEX
  8
0
 10
144.029049
 20
98.603754
 42
-0.062202
  0
VERTEX
  8
0
 10
142.176021
 20
94.186932
 42
-0.052108
  0
VERTEX
  8
0
 10
139.198546
 20
90.065290
 42
-0.051499
  0
VERTEX
  8
0
 10
135.391610
 20
86.602012
 42
-0.057312
  0
VERTEX
  8
0
 10
131.085201
 20
84.131998
 42
-0.047720
  0
VERTEX
  8
0
 10
124.168659
 20
81.909657
 42
-0.014889
  0
VERTEX
  8
0
 10
113.443675
 20
79.894297
 42
-0.014380
  0
VERTEX
  8
0
 10
100.970885
 20
78.298972
 42
-0.013341
  0
VERTEX
  8
0
 10
88.111149
 20
77.374375
 42
0.000000
  0
VERTEX
  8
0
 10
73.124895
 20
76.698121
 42
0.000000
  0
VERTEX
  8
0
 10
70.518527
 20
79.795612
 42
0.022919
  0
VERTEX
  8
0
 10
69.384311
 20
81.024550
 42
0.022302
  0
VERTEX
  8
0
 10
68.132385
 20
82.156318
 42
0.022861
  0
VERTEX
  8
0
 10
66.944623
 20
83.049407
 42
0.073049
  0
VERTEX
  8
0
 10
66.055494
 20
83.482387
 42
-0.092403
  0
VERTEX
  8
0
 10
65.299561
 20
83.887162
 42
-0.053059
  0
VERTEX
  8
0
 10
64.563672
 20
84.617943
 42
-0.050545
  0
VERTEX
  8
0
 10
63.957021
 20
85.540144
 42
-0.058805
  0
VERTEX
  8
0
 10
63.584184
 20
86.520605
 42
0.214317
  0
VERTEX
  8
0
 10
61.602912
 20
89.030932
 42
0.165787
  0
VERTEX
  8
0
 10
58.119168
 20
89.563914
 42
0.130542
  0
VERTEX
  8
0
 10
54.384314
 20
87.822075
 42
0.128570
  0
VERTEX
  8
0
 10
51.980116
 20
84.447701
 42
-0.040578
  0
VERTEX
  8
0
 10
51.534086
 20
83.511068
 42
-0.048767
  0
VERTEX
  8
0
 10
50.965037
 20
82.719012
 42
-0.056061
  0
VERTEX
  8
0
 10
50.364757
 20
82.172730
 42
-0.157876
  0
VERTEX
  8
0
 10
49.831348
 20
82.000000
 42
-0.163631
  0
VERTEX
  8
0
 10
49.119116
 20
82.239498
 42
-0.011679
  0
VERTEX
  8
0
 10
47.461460
 20
83.558542
 42
-0.015456
  0
VERTEX
  8
0
 10
45.531513
 20
85.273208
 42
-0.011013
  0
VERTEX
  8
0
 10
43.474244
 20
87.305674
 42
-0.044094
  0
VERTEX
  8
0
 10
39.629886
 20
92.046970
 42
-0.073446
  0
VERTEX
  8
0
 10
37.413960
 20
96.675024
 42
-0.057307
  0
VERTEX
  8
0
 10
36.317821
 20
102.518482
 42
-0.017737
  0
VERTEX
  8
0
 10
36.000000
 20
111.474939
 42
-0.020797
  0
VERTEX
  8
0
 10
36.272400
 20
118.021064
 42
-0.038576
  0
VERTEX
  8
0
 10
37.120584
 20
123.267219
 42
-0.049038
  0
VERTEX
  8
0
 10
38.460391
 20
127.110927
 42
-0.143799
  0
VERTEX
  8
0
 10
40.288787
 20
129.199642
 42
-0.039506
  0
VERTEX
  8
0
 10
41.457587
 20
129.818789
 42
-0.136879
  0
VERTEX
  8
0
 10
42.297639
 20
129.933839
 42
-0.237199
  0
VERTEX
  8
0
 10
42.805573
 20
129.585038
 42
-0.126483
  0
VERTEX
  8
0
 10
43.000000
 20
128.828741
 42
0.152248
  0
VERTEX
  8
0
 10
43.535158
 20
127.111960
 42
0.084002
  0
VERTEX
  8
0
 10
45.082607
 20
125.522362
 42
0.075682
  0
VERTEX
  8
0
 10
47.256911
 20
124.389993
 42
0.082453
  0
VERTEX
  8
0
 10
49.605766
 20
124.000000
 42
0.036107
  0
VERTEX
  8
0
 10
53.597610
 20
124.288646
 42
0.019092
  0
VERTEX
  8
0
 10
58.482357
 20
125.190378
 42
0.018075
  0
VERTEX
  8
0
 10
63.056838
 20
126.391980
 42
0.067883
  0
VERTEX
  8
0
 10
65.750000
 20
127.622480
 42
0.063332
  0
VERTEX
  8
0
 10
66.791995
 20
128.483576
 42
0.080990
  0
VERTEX
  8
0
 10
67.485858
 20
129.515305
 42
0.070872
  0
VERTEX
  8
0
 10
67.874451
 20
130.822689
 42
0.036868
  0
VERTEX
  8
0
 10
68.000000
 20
132.523053
 42
-0.026615
  0
VERTEX
  8
0
 10
68.082226
 20
134.066679
 42
-0.070329
  0
VERTEX
  8
0
 10
68.351973
 20
135.137090
 42
-0.116417
  0
VERTEX
  8
0
 10
68.801410
 20
135.767860
 42
-0.181950
  0
VERTEX
  8
0
 10
69.418213
 20
136.000000
 42
0.031313
  0
VERTEX
  8
0
 10
70.068494
 20
136.040765
 42
0.017182
  0
VERTEX
  8
0
 10
70.856583
 20
136.167600
 42
0.017069
  0
VERTEX
  8
0
 10
71.650707
 20
136.351919
 42
0.026058
  0
VERTEX
  8
0
 10
72.323261
 20
136.570553
 42
-0.141305
  0
VERTEX
  8
0
 10
73.031232
 20
136.631344
 42
-0.164576
  0
VERTEX
  8
0
 10
73.614392
 20
136.296424
 42
-0.096921
  0
VERTEX
  8
0
 10
74.085465
 20
135.492445
 42
-0.030151
  0
VERTEX
  8
0
 10
74.469328
 20
134.139651
 42
0.032896
  0
VERTEX
  8
0
 10
74.827588
 20
132.902952
 42
0.029005
  0
VERTEX
  8
0
 10
75.357636
 20
131.669041
 42
0.030130
  0
VERTEX
  8
0
 10
75.968625
 20
130.611679
 42
0.073598
  0
VERTEX
  8
0
 10
76.567630
 20
129.943872
 42
0.173308
  0
VERTEX
  8
0
 10
79.059440
 20
129.035655
 42
0.013069
  0
VERTEX
  8
0
 10
86.363649
 20
129.180500
 42
0.014014
  0
VERTEX
  8
0
 10
93.620033
 20
129.718390
 42
0.148760
  0
VERTEX
  8
0
 10
96.322306
 20
130.852527
 42
0.084021
  0
VERTEX
  8
0
 10
96.932600
 20
131.561950
 42
0.030138
  0
VERTEX
  8
0
 10
97.553353
 20
132.747006
 42
0.028886
  0
VERTEX
  8
0
 10
98.090118
 20
134.153784
 42
0.030335
  0
VERTEX
  8
0
 10
98.450983
 20
135.590410
 42
-0.024386
  0
VERTEX
  8
0
 10
98.965961
 20
137.748871
 42
-0.177283
  0
VERTEX
  8
0
 10
99.586702
 20
138.593316
 42
-0.149812
  0
VERTEX
  8
0
 10
100.660978
 20
138.912227
 42
-0.015978
  0
VERTEX
  8
0
 10
103.293651
 20
138.804782
 42
-0.019625
  0
VERTEX
  8
0
 10
105.857998
 20
138.516398
 42
-0.141515
  0
VERTEX
  8
0
 10
106.975244
 20
138.000760
 42
-0.151851
  0
VERTEX
  8
0
 10
107.605840
 20
136.985575
 42
-0.023647
  0
SEQEND
  0
POLYLINE
  8
0
 66
1
 70
1
  0
VERTEX
  8
0
 10
60.816422
 20
83.672881
 42
0.045118
  0
VERTEX
  8
0
 10
61.066313
 20
82.488908
 42
0.094471
  0
VERTEX
  8
0
 10
61.504799
 20
81.659989
 42
0.120291
  0
VERTEX
  8
0
 10
62.136571
 20
81.173287
 42
0.104625
  0
VERTEX
  8
0
 10
62.955638
 20
81.000000
 42
-0.072557
  0
VERTEX
  8
0
 10
63.809698
 20
80.875408
 42
-0.031662
  0
VERTEX
  8
0
 10
64.887096
 20
80.478432
 42
-0.030499
  0
VERTEX
  8
0
 10
65.997722
 20
79.904026
 42
-0.035609
  0
VERTEX
  8
0
 10
66.971145
 20
79.224449
 42
-0.069373
  0
VERTEX
  8
0
 10
68.098561
 20
78.018161
 42
-0.086848
  0
VERTEX
  8
0
 10
68.749762
 20
76.634308
 42
-0.054886
  0
VERTEX
  8
0
 10
69.063320
 20
74.652348
 42
-0.013008
  0
VERTEX
  8
0
 10
69.134459
 20
71.302123
 42
0.000000
  0
VERTEX
  8
0
 10
69.105061
 20
65.155349
 42
0.000000
  0
VERTEX
  8
0
 10
74.302530
 20
65.550928
 42
-0.005223
  0
VERTEX
  8
0
 10
77.127481
 20
65.736279
 42
-0.001272
  0
VERTEX
  8
0
 10
81.791993
 20
65.981533
 42
-0.001303
  0
VERTEX
  8
0
 10
87.141748
 20
66.235194
 42
-0.001298
  0
VERTEX
  8
0
 10
92.500000
 20
66.461323
 42
0.014518
  0
VERTEX
  8
0
 10
102.595704
 20
67.155119
 42
0.007322
  0
VERTEX
  8
0
 10
115.278268
 20
68.585264
 42
0.005222
  0
VERTEX
  8
0
 10
127.381988
 20
70.258581
 42
0.054701
  0
VERTEX
  8
0
 10
132.217790
 20
71.530080
 42
-0.175313
  0
VERTEX
  8
0
 10
133.122642
 20
71.547553
 42
-0.162639
  0
VERTEX
  8
0
 10
133.863138
 20
70.984338
 42
-0.067927
  0
VERTEX
  8
0
 10
134.554902
 20
69.596659
 42
-0.012251
  0
VERTEX
  8
0
 10
135.415662
 20
66.836608
 42
-0.018442
  0
VERTEX
  8
0
 10
136.749988
 20
61.405831
 42
-0.011272
  0
VERTEX
  8
0
 10
137.941323
 20
54.914332
 42
-0.005227
  0
VERTEX
  8
0
 10
138.886563
 20
48.596212
 42
-0.174651
  0
VERTEX
  8
0
 10
138.576000
 20
47.122971
 42
0.277788
  0
VERTEX
  8
0
 10
138.570470
 20
46.648757
 42
0.025874
  0
VERTEX
  8
0
 10
139.240997
 20
45.629741
 42
0.027399
  0
VERTEX
  8
0
 10
140.238209
 20
44.417815
 42
0.017830
  0
VERTEX
  8
0
 10
141.512093
 20
43.127395
 42
-0.060774
  0
VERTEX
  8
0
 10
144.062007
 20
40.057963
 42
-0.084940
  0
VERTEX
  8
0
 10
145.456135
 20
36.781903
 42
-0.092208
  0
VERTEX
  8
0
 10
145.619999
 20
33.438233
 42
-0.085790
  0
VERTEX
  8
0
 10
144.586011
 20
30.166328
 42
-0.112246
  0
VERTEX
  8
0
 10
142.685074
 20
27.913145
 42
-0.095224
  0
VERTEX
  8
0
 10
139.884161
 20
26.537425
 42
-0.071828
  0
VERTEX
  8
0
 10
136.081605
 20
26.066290
 42
-0.034749
  0
VERTEX
  8
0
 10
131.187527
 20
26.506020
 42
0.030787
  0
VERTEX
  8
0
 10
128.020616
 20
26.815856
 42
0.001862
  0
VERTEX
  8
0
 10
118.476961
 20
27.123725
 42
0.002779
  0
VERTEX
  8
0
 10
107.098873
 20
27.385090
 42
0.002050
  0
VERTEX
  8
0
 10
94.500000
 20
27.552787
 42
0.001888
  0
VERTEX
  8
0
 10
77.893826
 20
27.643018
 42
0.008055
  0
VERTEX
  8
0
 10
67.978416
 20
27.499708
 42
0.012486
  0
VERTEX
  8
0
 10
61.478114
 20
27.138356
 42
0.050182
  0
VERTEX
  8
0
 10
57.568499
 20
26.423757
 42
-0.024029
  0
VERTEX
  8
0
 10
52.861175
 20
25.306582
 42
-0.067882
  0
VERTEX
  8
0
 10
49.493469
 20
25.140044
 42
-0.088687
  0
VERTEX
  8
0
 10
46.743396
 20
25.880631
 42
-0.064976
  0
VERTEX
  8
0
 10
44.076725
 20
27.588894
 42
-0.129769
  0
VERTEX
  8
0
 10
41.402130
 20
31.389741
 42
-0.143911
  0
VERTEX
  8
0
 10
41.092198
 20
35.858840
 42
-0.123442
  0
VERTEX
  8
0
 10
43.307809
 20
40.305466
 42
-0.082650
  0
VERTEX
  8
0
 10
47.682969
 20
43.975453
 42
0.019564
  0
VERTEX
  8
0
 10
49.330430
 20
45.036469
 42
0.079059
  0
VERTEX
  8
0
 10
50.186542
 20
45.865087
 42
0.163243
  0
VERTEX
  8
0
 10
50.427147
 20
46.590415
 42
0.174074
  0
VERTEX
  8
0
 10
50.172605
 20
47.292023
 42
-0.151421
  0
VERTEX
  8
0
 10
49.775637
 20
48.251835
 42
-0.034308
  0
VERTEX
  8
0
 10
49.734577
 20
50.035254
 42
-0.025855
  0
VERTEX
  8
0
 10
49.979796
 20
52.548361
 42
-0.009869
  0
VERTEX
  8
0
 10
50.570442
 20
56.016166
 42
0.010304
  0
VERTEX
  8
0
 10
51.117938
 20
59.247604
 42
0.008091
  0
VERTEX
  8
0
 10
51.582236
 20
62.770374
 42
0.008193
  0
VERTEX
  8
0
 10
51.907347
 20
66.061165
 42
0.019872
  0
VERTEX
  8
0
 10
52.010691
 20
68.500000
 42
-0.022300
  0
VERTEX
  8
0
 10
52.119798
 20
70.809786
 42
-0.011964
  0
VERTEX
  8
0
 10
52.449392
 20
73.645221
 42
-0.011891
  0
VERTEX
  8
0
 10
52.924559
 20
76.526748
 42
-0.018219
  0
VERTEX
  8
0
 10
53.485820
 20
78.994368
 42
-0.048593
  0
VERTEX
  8
0
 10
55.288170
 20
83.823883
 42
-0.137979
  0
VERTEX
  8
0
 10
57.658697
 20
86.480649
 42
-0.361693
  0
VERTEX
  8
0
 10
59.630182
 20
86.230798
 42
-0.159532
  0
SEQEND
  0
POLYLINE
  8
0
 66
1
 70
1
  0
VERTEX
  8
0
 10
109.000000
 20
175.902761
 42
0.169378
  0
VERTEX
  8
0
 10
109.219962
 20
175.272065
 42
0.012888
  0
VERTEX
  8
0
 10
110.395313
 20
173.867870
 42
0.016580
  0
VERTEX
  8
0
 10
111.930425
 20
172.239235
 42
0.011832
  0
VERTEX
  8
0
 10
113.750000
 20
170.516277
 42
-0.017755
  0
VERTEX
  8
0
 10
115.751644
 20
168.575445
 42
-0.012962
  0
VERTEX
  8
0
 10
117.839062
 20
166.286554
 42
-0.013128
  0
VERTEX
  8
0
 10
119.706397
 20
164.011171
 42
-0.027994
  0
VERTEX
  8
0
 10
121.000000
 20
162.140414
 42
0.034451
  0
VERTEX
  8
0
 10
122.726778
 20
159.710826
 42
0.083518
  0
VERTEX
  8
0
 10
124.380051
 20
158.268428
 42
0.253626
  0
VERTEX
  8
0
 10
125.456331
 20
158.210297
 42
0.289715
  0
VERTEX
  8
0
 10
126.000000
 20
159.069825
 42
0.148983
  0
VERTEX
  8
0
 10
125.379886
 20
161.104792
 42
0.015827
  0
VERTEX
  8
0
 10
122.455767
 20
165.172862
 42
0.020388
  0
VERTEX
  8
0
 10
118.916095
 20
169.412588
 42
0.028154
  0
VERTEX
  8
0
 10
115.385661
 20
172.891730
 42
0.010256
  0
VERTEX
  8
0
 10
112.236663
 20
175.550970
 42
0.060110
  0
VERTEX
  8
0
 10
110.405854
 20
176.700552
 42
0.239355
  0
VERTEX
  8
0
 10
109.457230
 20
176.672791
 42
0.274518
  0
SEQEND
  0
POLYLINE
  8
0
 66
1
 70
1
  0
VERTEX
  8
0
 10
65.543506
 20
165.948378
 42
0.009451
  0
VERTEX
  8
0
 10
63.842787
 20
160.187765
 42
0.037639
  0
VERTEX
  8
0
 10
63.136844
 20
156.574244
 42
0.096944
  0
VERTEX
  8
0
 10
63.279806
 20
154.686698
 42
0.429785
  0
VERTEX
  8
0
 10
64.156676
 20
154.218892
 42
0.202359
  0
VERTEX
  8
0
 10
64.716300
 20
154.710787
 42
0.011782
  0
VERTEX
  8
0
 10
65.678215
 20
156.825852
 42
0.016351
  0
VERTEX
  8
0
 10
66.709049
 20
159.479088
 42
0.011188
  0
VERTEX
  8
0
 10
67.712116
 20
162.552225
 42
-0.000349
  0
VERTEX
  8
0
 10
68.671715
 20
165.723640
 42
-0.000430
  0
VERTEX
  8
0
 10
69.571094
 20
168.679404
 42
-0.000354
  0
VERTEX
  8
0
 10
70.330722
 20
171.161897
 42
-0.003166
  0
VERTEX
  8
0
 10
70.672072
 20
172.250000
 42
0.058662
  0
VERTEX
  8
0
 10
70.822036
 20
173.016812
 42
0.151190
  0
VERTEX
  8
0
 10
70.697946
 20
173.561075
 42
0.177114
  0
VERTEX
  8
0
 10
70.307713
 20
173.887059
 42
0.086550
  0
VERTEX
  8
0
 10
69.660138
 20
174.000000
 42
0.233991
  0
VERTEX
  8
0
 10
68.805176
 20
173.576719
 42
0.044716
  0
VERTEX
  8
0
 10
67.853955
 20
172.066229
 42
0.031093
  0
VERTEX
  8
0
 10
66.789419
 20
169.620053
 42
0.010580
  0
SEQEND
  0
POLYLINE
  8
0
 66
1
 70
1
  0
VERTEX
  8
0
 10
111.000000
 20
113.000000
 42
0.049921
  0
VERTEX
  8
0
 10
109.605746
 20
111.295595
 42
0.130881
  0
VERTEX
  8
0
 10
109.104241
 20
109.810148
 42
0.125563
  0
VERTEX
  8
0
 10
109.398645
 20
108.232645
 42
0.044201
  0
VERTEX
  8
0
 10
110.556704
 20
106.222506
 42
0.169693
  0
VERTEX
  8
0
 10
113.320789
 20
104.234138
 42
0.147102
  0
VERTEX
  8
0
 10
116.907185
 20
104.250967
 42
0.148385
  0
VERTEX
  8
0
 10
119.867595
 20
106.239226
 42
0.172881
  0
VERTEX
  8
0
 10
121.000000
 20
109.416441
 42
0.157668
  0
VERTEX
  8
0
 10
120.004792
 20
112.494002
 42
0.151435
  0
VERTEX
  8
0
 10
117.381513
 20
114.466321
 42
0.144069
  0
VERTEX
  8
0
 10
113.994880
 20
114.662727
 42
0.140197
  0
SEQEND
  0
POLYLINE
  8
0
 66
1
 70
1
  0
VERTEX
  8
0
 10
64.000000
 20
111.306019
 42
0.133194
  0
VERTEX
  8
0
 10
61.500723
 20
109.566383
 42
0.130115
  0
VERTEX
  8
0
 10
60.195376
 20
106.787278
 42
0.136066
  0
VERTEX
  8
0
 10
60.463323
 20
103.822483
 42
0.150926
  0
VERTEX
  8
0
 10
62.222506
 20
101.556704
 42
0.059497
  0
VERTEX
  8
0
 10
64.371695
 20
100.404385
 42
0.107977
  0
VERTEX
  8
0
 10
66.332004
 20
100.091681
 42
0.113111
  0
VERTEX
  8
0
 10
68.181792
 20
100.628003
 42
0.069596
  0
VERTEX
  8
0
 10
70.000000
 20
102.000000
 42
0.064703
  0
VERTEX
  8
0
 10
71.464454
 20
103.901916
 42
0.147842
  0
VERTEX
  8
0
 10
71.879021
 20
105.645842
 42
0.133493
  0
VERTEX
  8
0
 10
71.270882
 20
107.447200
 42
0.048637
  0
VERTEX
  8
0
 10
69.545455
 20
109.545455
 42
0.018184
  0
VERTEX
  8
0
 10
67.856222
 20
111.116093
 42
0.101662
  0
VERTEX
  8
0
 10
66.783474
 20
111.716204
 42
0.127790
  0
VERTEX
  8
0
 10
65.680515
 20
111.774949
 42
0.035578
  0
SEQEND
  0
POLYLINE
  8
0
 66
1
 70
1
  0
VERTEX
  8
0
 10
95.000000
 20
107.966702
 42
-0.174979
  0
VERTEX
  8
0
 10
94.838534
 20
107.519442
 42
-0.149171
  0
VERTEX
  8
0
 10
94.417410
 20
107.242489
 42
-0.094136
  0
VERTEX
  8
0
 10
93.735037
 20
107.175498
 42
-0.041504
  0
VERTEX
  8
0
 10
92.838327
 20
107.332028
 42
0.058279
  0
VERTEX
  8
0
 10
91.861655
 20
107.469016
 42
0.036924
  0
VERTEX
  8
0
 10
90.712240
 20
107.410472
 42
0.036769
  0
VERTEX
  8
0
 10
89.575528
 20
107.182166
 42
0.054975
  0
VERTEX
  8
0
 10
88.636126
 20
106.805261
 42
-0.026783
  0
VERTEX
  8
0
 10
87.640665
 20
106.339236
 42
-0.101721
  0
VERTEX
  8
0
 10
86.968749
 20
106.215893
 42
-0.180351
  0
VERTEX
  8
0
 10
86.515519
 20
106.395901
 42
-0.129242
  0
VERTEX
  8
0
 10
86.214466
 20
106.856602
 42
0.120068
  0
VERTEX
  8
0
 10
85.629693
 20
107.787793
 42
0.293018
  0
VERTEX
  8
0
 10
84.870145
 20
107.942540
 42
0.217409
  0
VERTEX
  8
0
 10
84.223309
 20
107.280189
 42
0.086564
  0
VERTEX
  8
0
 10
84.000000
 20
106.000000
 42
0.048028
  0
VERTEX
  8
0
 10
84.073693
 20
105.234582
 42
0.068025
  0
VERTEX
  8
0
 10
84.293750
 20
104.587500
 42
0.088204
  0
VERTEX
  8
0
 10
84.618118
 20
104.151477
 42
0.191087
  0
VERTEX
  8
0
 10
85.000000
 20
104.000000
 42
-0.305027
  0
VERTEX
  8
0
 10
85.387966
 20
103.739039
 42
-0.039533
  0
VERTEX
  8
0
 10
85.706250
 20
102.736875
 42
-0.035211
  0
VERTEX
  8
0
 10
85.927679
 20
101.348034
 42
-0.021931
  0
VERTEX
  8
0
 10
86.000000
 20
99.700000
 42
0.042034
  0
VERTEX
  8
0
 10
86.277839
 20
96.400910
 42
0.134525
  0
VERTEX
  8
0
 10
87.200805
 20
94.417204
 42
0.155689
  0
VERTEX
  8
0
 10
88.910590
 20
93.347707
 42
0.062599
  0
VERTEX
  8
0
 10
91.676947
 20
93.000000
 42
0.108707
  0
VERTEX
  8
0
 10
94.496518
 20
93.620344
 42
0.152093
  0
VERTEX
  8
0
 10
96.397942
 20
95.339155
 42
0.106673
  0
VERTEX
  8
0
 10
97.404837
 20
98.363555
 42
0.037850
  0
VERTEX
  8
0
 10
97.556906
 20
102.945771
 42
0.019036
  0
VERTEX
  8
0
 10
97.383838
 20
105.089508
 42
0.029004
  0
VERTEX
  8
0
 10
97.055831
 20
106.927329
 42
0.029234
  0
VERTEX
  8
0
 10
96.635571
 20
108.320088
 42
0.228227
  0
VERTEX
  8
0
 10
96.162688
 20
108.779104
 42
0.099002
  0
VERTEX
  8
0
 10
95.719259
 20
108.834548
 42
0.135037
  0
VERTEX
  8
0
 10
95.341540
 20
108.700331
 42
0.137384
  0
VERTEX
  8
0
 10
95.089953
 20
108.394173
 42
0.104076
  0
SEQEND
  0
POLYLINE
  8
0
 66
1
 70
1
  0
VERTEX
  8
0
 10
92.837674
 20
104.121485
 42
-0.125639
  0
VERTEX
  8
0
 10
93.363586
 20
103.563579
 42
-0.041397
  0
VERTEX
  8
0
 10
93.830089
 20
102.527791
 42
-0.038187
  0
VERTEX
  8
0
 10
94.176856
 20
101.245392
 42
-0.034979
  0
VERTEX
  8
0
 10
94.337674
 20
99.886798
 42
-0.021456
  0
VERTEX
  8
0
 10
94.347677
 20
97.880660
 42
-0.166382
  0
VERTEX
  8
0
 10
94.015673
 20
97.018706
 42
-0.190865
  0
VERTEX
  8
0
 10
93.250130
 20
96.604260
 42
-0.029760
  0
VERTEX
  8
0
 10
91.500000
 20
96.500000
 42
-0.034870
  0
VERTEX
  8
0
 10
89.994769
 20
96.605104
 42
-0.112081
  0
VERTEX
  8
0
 10
89.061380
 20
96.959267
 42
-0.141872
  0
VERTEX
  8
0
 10
88.497426
 20
97.624691
 42
-0.070078
  0
VERTEX
  8
0
 10
88.187209
 20
98.698415
 42
-0.085119
  0
VERTEX
  8
0
 10
88.240071
 20
100.552927
 42
-0.048431
  0
VERTEX
  8
0
 10
88.894449
 20
102.705563
 42
-0.048165
  0
VERTEX
  8
0
 10
89.842528
 20
104.490951
 42
-0.257421
  0
VERTEX
  8
0
 10
90.785184
 20
104.984687
 42
-0.073092
  0
VERTEX
  8
0
 10
91.148679
 20
104.923285
 42
-0.021213
  0
VERTEX
  8
0
 10
91.682964
 20
104.724805
 42
-0.020839
  0
VERTEX
  8
0
 10
92.273079
 20
104.447150
 42
-0.020876
  0
SEQEND
  0
POLYLINE
  8
0
 66
1
 70
1
  0
VERTEX
  8
0
 10
106.357731
 20
55.313744
 42
0.071276
  0
VERTEX
  8
0
 10
105.444074
 20
51.786654
 42
0.100200
  0
VERTEX
  8
0
 10
105.730840
 20
48.557585
 42
0.100570
  0
VERTEX
  8
0
 10
107.249059
 20
45.702793
 42
0.072266
  0
VERTEX
  8
0
 10
109.930116
 20
43.268111
 42
0.127816
  0
VERTEX
  8
0
 10
115.999501
 20
41.129750
 42
0.133769
  0
VERTEX
  8
0
 10
122.227917
 20
42.272614
 42
0.122686
  0
VERTEX
  8
0
 10
127.406968
 20
46.560887
 42
0.097943
  0
VERTEX
  8
0
 10
130.503076
 20
53.140906
 42
0.061858
  0
VERTEX
  8
0
 10
130.813712
 20
55.696138
 42
0.441957
  0
VERTEX
  8
0
 10
129.994010
 20
56.438493
 42
0.229680
  0
VERTEX
  8
0
 10
128.598595
 20
55.586992
 42
0.040985
  0
VERTEX
  8
0
 10
127.121493
 20
52.814020
 42
-0.055294
  0
VERTEX
  8
0
 10
124.525198
 20
48.258378
 42
-0.105361
  0
VERTEX
  8
0
 10
121.404321
 20
45.452080
 42
-0.121629
  0
VERTEX
  8
0
 10
117.736277
 20
44.395904
 42
-0.089503
  0
VERTEX
  8
0
 10
113.532078
 20
44.989413
 42
-0.076560
  0
VERTEX
  8
0
 10
111.056031
 20
46.252135
 42
-0.137299
  0
VERTEX
  8
0
 10
109.643037
 20
48.022919
 42
-0.104508
  0
VERTEX
  8
0
 10
109.134975
 20
50.631766
 42
-0.033245
  0
VERTEX
  8
0
 10
109.462539
 20
54.598762
 42
0.028825
  0
VERTEX
  8
0
 10
109.775288
 20
58.017895
 42
0.358820
  0
VERTEX
  8
0
 10
109.036514
 20
58.978812
 42
0.334495
  0
VERTEX
  8
0
 10
107.883234
 20
58.464818
 42
0.027550
  0
SEQEND
  0
ENDSEC
  0
EOF
