  0
SECTION
  2
HEADER
  9
$ACADVER
  1
AC1006
  9
$EXTMIN
 10
0.000000
 20
0.000000
 30
0.000000
  9
$EXTMAX
 10
461.000000
 20
685.000000
 30
0.000000
  0
ENDSEC
  0
SECTION
  2
ENTITIES
  0
POLYLINE
  8
0
 66
1
 70
1
  0
VERTEX
  8
0
 10
118.022943
 20
639.879945
 42
0.000770
  0
VERTEX
  8
0
 10
117.536511
 20
631.612922
 42
0.001199
  0
VERTEX
  8
0
 10
117.145344
 20
624.486609
 42
0.000327
  0
VERTEX
  8
0
 10
116.823282
 20
618.272832
 42
0.041775
  0
VERTEX
  8
0
 10
116.848308
 20
617.500000
 42
0.252500
  0
VERTEX
  8
0
 10
117.132600
 20
617.093704
 42
0.038338
  0
VERTEX
  8
0
 10
118.081375
 20
616.704855
 42
0.035194
  0
VERTEX
  8
0
 10
119.373153
 20
616.386042
 42
0.023634
  0
VERTEX
  8
0
 10
120.882535
 20
616.197379
 42
0.000000
  0
VERTEX
  8
0
 10
124.800366
 20
615.894759
 42
0.000000
  0
VERTEX
  8
0
 10
125.474189
 20
626.697379
 42
-0.002493
  0
VERTEX
  8
0
 10
125.782520
 20
631.273144
 42
-0.002134
  0
VERTEX
  8
0
 10
126.151852
 20
636.089230
 42
-0.002150
  0
VERTEX
  8
0
 10
126.524986
 20
640.462989
 42
-0.006145
  0
VERTEX
  8
0
 10
126.834907
 20
643.500000
 42
0.000000
  0
VERTEX
  8
0
 10
127.521803
 20
649.500000
 42
0.000000
  0
VERTEX
  8
0
 10
130.543939
 20
632.500000
 42
0.000000
  0
VERTEX
  8
0
 10
133.566075
 20
615.500000
 42
0.000000
  0
VERTEX
  8
0
 10
138.072195
 20
615.203820
 42
0.000000
  0
VERTEX
  8
0
 10
142.578315
 20
614.907640
 42
0.000000
  0
VERTEX
  8
0
 10
147.751759
 20
630.703820
 42
0.000000
  0
VERTEX
  8
0
 10
152.925202
 20
646.500000
 42
0.000000
  0
VERTEX
  8
0
 10
152.403364
 20
633.500000
 42
-0.002955
  0
VERTEX
  8
0
 10
152.163117
 20
628.284407
 42
-0.003512
  0
VERTEX
  8
0
 10
151.872650
 20
623.364063
 42
-0.003052
  0
VERTEX
  8
0
 10
151.573230
 20
619.218092
 42
-0.022518
  0
VERTEX
  8
0
 10
151.329472
 20
617.250000
 42
0.000000
  0
VERTEX
  8
0
 10
150.777418
 20
614.000000
 42
0.000000
  0
VERTEX
  8
0
 10
155.234037
 20
614.000000
 42
0.000000
  0
VERTEX
  8
0
 10
159.690656
 20
614.000000
 42
0.000000
  0
VERTEX
  8
0
 10
161.167216
 20
635.750000
 42
0.000352
  0
VERTEX
  8
0
 10
161.728197
 20
644.100404
 42
0.000582
  0
VERTEX
  8
0
 10
162.188919
 20
651.155402
 42
0.000028
  0
VERTEX
  8
0
 10
162.596852
 20
657.521371
 42
0.127514
  0
VERTEX
  8
0
 10
162.571888
 20
657.651370
 42
0.254972
  0
VERTEX
  8
0
 10
162.477217
 20
657.720122
 42
0.000512
  0
VERTEX
  8
0
 10
160.579954
 20
657.963883
 42
0.003293
  0
VERTEX
  8
0
 10
158.430558
 20
658.223428
 42
0.002014
  0
VERTEX
  8
0
 10
155.891786
 20
658.502683
 42
0.000000
  0
VERTEX
  8
0
 10
149.283572
 20
659.202626
 42
0.000000
  0
VERTEX
  8
0
 10
144.484603
 20
645.058496
 42
-0.005867
  0
VERTEX
  8
0
 10
142.592553
 20
639.689896
 42
-0.010300
  0
VERTEX
  8
0
 10
140.884777
 20
635.302094
 42
-0.004837
  0
VERTEX
  8
0
 10
139.387820
 20
631.775646
 42
-0.544812
  0
VERTEX
  8
0
 10
138.968855
 20
631.707183
 42
-0.125345
  0
VERTEX
  8
0
 10
138.613417
 20
632.380551
 42
-0.002493
  0
VERTEX
  8
0
 10
137.718292
 20
636.181195
 42
-0.005773
  0
VERTEX
  8
0
 10
136.741127
 20
640.660829
 42
-0.003825
  0
VERTEX
  8
0
 10
135.718160
 20
645.824545
 42
0.002467
  0
VERTEX
  8
0
 10
134.714400
 20
650.964506
 42
0.003882
  0
VERTEX
  8
0
 10
133.796455
 20
655.367131
 42
0.001068
  0
VERTEX
  8
0
 10
132.960613
 20
659.186365
 42
0.142913
  0
VERTEX
  8
0
 10
132.734454
 20
659.598879
 42
0.155332
  0
VERTEX
  8
0
 10
132.349715
 20
659.797810
 42
0.004493
  0
VERTEX
  8
0
 10
130.511720
 20
660.094441
 42
0.008665
  0
VERTEX
  8
0
 10
128.317089
 20
660.389608
 42
0.005813
  0
VERTEX
  8
0
 10
125.799319
 20
660.654279
 42
0.000000
  0
VERTEX
  8
0
 10
119.313972
 20
661.259890
 42
0.000000
  0
SEQEND
  0
POLYLINE
  8
0
 66
1
 70
1
  0
VERTEX
  8
0
 10
178.904818
 20
653.250000
 42
0.000000
  0
VERTEX
  8
0
 10
175.602451
 20
649.500000
 42
0.000000
  0
VERTEX
  8
0
 10
178.894766
 20
649.179665
 42
0.042053
  0
VERTEX
  8
0
 10
180.437527
 20
649.159707
 42
0.050997
  0
VERTEX
  8
0
 10
181.861974
 20
649.408663
 42
0.054280
  0
VERTEX
  8
0
 10
183.130753
 20
649.920417
 42
0.060143
  0
VERTEX
  8
0
 10
184.212502
 20
650.679665
 42
-0.018321
  0
VERTEX
  8
0
 10
185.517469
 20
651.768784
 42
-0.197515
  0
VERTEX
  8
0
 10
186.167044
 20
651.947745
 42
-0.199095
  0
VERTEX
  8
0
 10
186.751844
 20
651.617380
 42
-0.018650
  0
VERTEX
  8
0
 10
187.740934
 20
650.250000
 42
0.061271
  0
VERTEX
  8
0
 10
188.572957
 20
649.284575
 42
0.065755
  0
VERTEX
  8
0
 10
189.595952
 20
648.576005
 42
0.064254
  0
VERTEX
  8
0
 10
190.789079
 20
648.145720
 42
0.054501
  0
VERTEX
  8
0
 10
192.121972
 20
648.000000
 42
0.028125
  0
VERTEX
  8
0
 10
194.257034
 20
648.120192
 42
0.346569
  0
VERTEX
  8
0
 10
194.799178
 20
648.656191
 42
0.155456
  0
VERTEX
  8
0
 10
194.605096
 20
649.695734
 42
0.006453
  0
VERTEX
  8
0
 10
192.750000
 20
653.044180
 42
0.022613
  0
VERTEX
  8
0
 10
191.323784
 20
655.298716
 42
0.102490
  0
VERTEX
  8
0
 10
190.199511
 20
656.361450
 42
0.110146
  0
VERTEX
  8
0
 10
188.786975
 20
656.850954
 42
0.028089
  0
VERTEX
  8
0
 10
186.353592
 20
656.992298
 42
0.034192
  0
VERTEX
  8
0
 10
184.010363
 20
656.836245
 42
0.082867
  0
VERTEX
  8
0
 10
182.358806
 20
656.324973
 42
0.073357
  0
VERTEX
  8
0
 10
180.845399
 20
655.262664
 42
0.022582
  0
SEQEND
  0
POLYLINE
  8
0
 66
1
 70
1
  0
VERTEX
  8
0
 10
264.971515
 20
649.307498
 42
-0.013736
  0
VERTEX
  8
0
 10
264.915492
 20
648.012349
 42
-0.000409
  0
VERTEX
  8
0
 10
264.527507
 20
642.596577
 42
-0.000815
  0
VERTEX
  8
0
 10
264.054965
 20
636.219509
 42
-0.000562
  0
VERTEX
  8
0
 10
263.500000
 20
629.000000
 42
0.001001
  0
VERTEX
  8
0
 10
262.165775
 20
611.441577
 42
0.049310
  0
VERTEX
  8
0
 10
262.252007
 20
607.951064
 42
0.284644
  0
VERTEX
  8
0
 10
263.420128
 20
606.500212
 42
0.084781
  0
VERTEX
  8
0
 10
266.348939
 20
606.000000
 42
0.000000
  0
VERTEX
  8
0
 10
270.697878
 20
606.000000
 42
0.000000
  0
VERTEX
  8
0
 10
271.320736
 20
616.223742
 42
-0.008204
  0
VERTEX
  8
0
 10
271.716587
 20
621.337449
 42
-0.025021
  0
VERTEX
  8
0
 10
272.215126
 20
624.782945
 42
-0.037150
  0
VERTEX
  8
0
 10
272.883809
 20
627.218078
 42
-0.074421
  0
VERTEX
  8
0
 10
273.822123
 20
628.973742
 42
-0.072865
  0
VERTEX
  8
0
 10
275.589004
 20
630.742504
 42
-0.101861
  0
VERTEX
  8
0
 10
277.607669
 20
631.686538
 42
-0.103809
  0
VERTEX
  8
0
 10
279.805754
 20
631.747084
 42
-0.078173
  0
VERTEX
  8
0
 10
282.094750
 20
630.949291
 42
-0.121777
  0
VERTEX
  8
0
 10
283.328841
 20
629.836503
 42
-0.120739
  0
VERTEX
  8
0
 10
283.907174
 20
628.273358
 42
-0.038975
  0
VERTEX
  8
0
 10
284.011796
 20
625.379451
 42
-0.002909
  0
VERTEX
  8
0
 10
283.636159
 20
617.492506
 42
0.000000
  0
VERTEX
  8
0
 10
282.979648
 20
605.212012
 42
0.000000
  0
VERTEX
  8
0
 10
286.993291
 20
604.829249
 42
0.067039
  0
VERTEX
  8
0
 10
289.884729
 20
604.941492
 42
0.260454
  0
VERTEX
  8
0
 10
291.225815
 20
606.031007
 42
0.076915
  0
VERTEX
  8
0
 10
291.846400
 20
608.737262
 42
0.003208
  0
VERTEX
  8
0
 10
292.496304
 20
618.649291
 42
0.006139
  0
VERTEX
  8
0
 10
292.770590
 20
624.508517
 42
0.023615
  0
VERTEX
  8
0
 10
292.724207
 20
628.154066
 42
0.038338
  0
VERTEX
  8
0
 10
292.374673
 20
630.697262
 42
0.066103
  0
VERTEX
  8
0
 10
291.652754
 20
632.704606
 42
0.117147
  0
VERTEX
  8
0
 10
288.970503
 20
635.822179
 42
0.098950
  0
VERTEX
  8
0
 10
285.006399
 20
637.639363
 42
0.092106
  0
VERTEX
  8
0
 10
280.394283
 20
637.864948
 42
0.085817
  0
VERTEX
  8
0
 10
275.883283
 20
636.439643
 42
0.000000
  0
VERTEX
  8
0
 10
272.865885
 20
634.879286
 42
0.000000
  0
VERTEX
  8
0
 10
273.099009
 20
642.689643
 42
0.000000
  0
VERTEX
  8
0
 10
273.332133
 20
650.500000
 42
0.000000
  0
VERTEX
  8
0
 10
269.166066
 20
650.807498
 42
0.014896
  0
VERTEX
  8
0
 10
266.926247
 20
650.905858
 42
0.089622
  0
VERTEX
  8
0
 10
265.781335
 20
650.715603
 42
0.189600
  0
VERTEX
  8
0
 10
265.197805
 20
650.205676
 42
0.116041
  0
SEQEND
  0
POLYLINE
  8
0
 66
1
 70
1
  0
VERTEX
  8
0
 10
308.619722
 20
644.391414
 42
0.010966
  0
VERTEX
  8
0
 10
307.542905
 20
643.036943
 42
0.017883
  0
VERTEX
  8
0
 10
306.697233
 20
641.837210
 42
0.012114
  0
VERTEX
  8
0
 10
306.081043
 20
640.841158
 42
0.346388
  0
VERTEX
  8
0
 10
306.119722
 20
640.560860
 42
0.164325
  0
VERTEX
  8
0
 10
307.490907
 20
639.913618
 42
0.051897
  0
VERTEX
  8
0
 10
309.786431
 20
639.887027
 42
0.051727
  0
VERTEX
  8
0
 10
312.135863
 20
640.352234
 42
0.109617
  0
VERTEX
  8
0
 10
313.740145
 20
641.264834
 42
-0.022610
  0
VERTEX
  8
0
 10
314.966618
 20
642.277810
 42
-0.180278
  0
VERTEX
  8
0
 10
315.658651
 20
642.483126
 42
-0.172962
  0
VERTEX
  8
0
 10
316.331732
 20
642.189907
 42
-0.020466
  0
VERTEX
  8
0
 10
317.492674
 20
641.008096
 42
0.115304
  0
VERTEX
  8
0
 10
319.151542
 20
639.859416
 42
0.045117
  0
VERTEX
  8
0
 10
321.840274
 20
639.069136
 42
0.047641
  0
VERTEX
  8
0
 10
324.297778
 20
638.821348
 42
0.415761
  0
VERTEX
  8
0
 10
325.000000
 20
639.519872
 42
0.123437
  0
VERTEX
  8
0
 10
324.913824
 20
639.863623
 42
0.004491
  0
VERTEX
  8
0
 10
324.261940
 20
641.056194
 42
0.007979
  0
VERTEX
  8
0
 10
323.450139
 20
642.457139
 42
0.005489
  0
VERTEX
  8
0
 10
322.487455
 20
644.019872
 42
0.021326
  0
VERTEX
  8
0
 10
320.901341
 20
646.309957
 42
0.099731
  0
VERTEX
  8
0
 10
319.705304
 20
647.366613
 42
0.108431
  0
VERTEX
  8
0
 10
318.243620
 20
647.832867
 42
0.027456
  0
VERTEX
  8
0
 10
315.737455
 20
647.927803
 42
0.031380
  0
VERTEX
  8
0
 10
313.382205
 20
647.739509
 42
0.079819
  0
VERTEX
  8
0
 10
311.749795
 20
647.231293
 42
0.076749
  0
VERTEX
  8
0
 10
310.321524
 20
646.223847
 42
0.027423
  0
SEQEND
  0
POLYLINE
  8
0
 66
1
 70
1
  0
VERTEX
  8
0
 10
178.000513
 20
643.930990
 42
0.074551
  0
VERTEX
  8
0
 10
173.796930
 20
641.371590
 42
0.079135
  0
VERTEX
  8
0
 10
170.627443
 20
637.736792
 42
0.076479
  0
VERTEX
  8
0
 10
168.667981
 20
633.185167
 42
0.063549
  0
VERTEX
  8
0
 10
168.000000
 20
627.950789
 42
0.074530
  0
VERTEX
  8
0
 10
168.967497
 20
621.496219
 42
0.106781
  0
VERTEX
  8
0
 10
171.784480
 20
616.463991
 42
0.107850
  0
VERTEX
  8
0
 10
176.402758
 20
613.076587
 42
0.077234
  0
VERTEX
  8
0
 10
182.605697
 20
611.401135
 42
0.169564
  0
VERTEX
  8
0
 10
193.087722
 20
613.814386
 42
0.167427
  0
VERTEX
  8
0
 10
199.855875
 20
622.238918
 42
0.161946
  0
VERTEX
  8
0
 10
200.119905
 20
633.273945
 42
0.159402
  0
VERTEX
  8
0
 10
193.729683
 20
642.352500
 42
0.097951
  0
VERTEX
  8
0
 10
190.721540
 20
643.790964
 42
0.037705
  0
VERTEX
  8
0
 10
186.142274
 20
644.602482
 42
0.037839
  0
VERTEX
  8
0
 10
181.440462
 20
644.717126
 42
0.086923
  0
SEQEND
  0
POLYLINE
  8
0
 66
1
 70
1
  0
VERTEX
  8
0
 10
189.545455
 20
635.545455
 42
-0.138502
  0
VERTEX
  8
0
 10
191.788619
 20
631.536583
 42
-0.100882
  0
VERTEX
  8
0
 10
191.962172
 20
626.405277
 42
-0.103040
  0
VERTEX
  8
0
 10
190.124633
 20
621.704372
 42
-0.151164
  0
VERTEX
  8
0
 10
186.733048
 20
618.889425
 42
-0.215587
  0
VERTEX
  8
0
 10
181.308462
 20
619.062932
 42
-0.178603
  0
VERTEX
  8
0
 10
177.287971
 20
623.287355
 42
-0.146522
  0
VERTEX
  8
0
 10
176.521616
 20
629.851902
 42
-0.153857
  0
VERTEX
  8
0
 10
179.520819
 20
635.611728
 42
-0.084815
  0
VERTEX
  8
0
 10
181.923228
 20
637.312991
 42
-0.113879
  0
VERTEX
  8
0
 10
184.517832
 20
637.893656
 42
-0.112940
  0
VERTEX
  8
0
 10
187.120560
 20
637.280021
 42
-0.082419
  0
SEQEND
  0
POLYLINE
  8
0
 66
1
 70
1
  0
VERTEX
  8
0
 10
341.750000
 20
641.931914
 42
0.027051
  0
VERTEX
  8
0
 10
339.945873
 20
640.850908
 42
0.070119
  0
VERTEX
  8
0
 10
338.822772
 20
639.837873
 42
0.093476
  0
VERTEX
  8
0
 10
338.211721
 20
638.746635
 42
0.081190
  0
VERTEX
  8
0
 10
338.000000
 20
637.451359
 42
-0.063149
  0
VERTEX
  8
0
 10
337.849506
 20
636.264534
 42
-0.093930
  0
VERTEX
  8
0
 10
337.405069
 20
635.319442
 42
-0.090526
  0
VERTEX
  8
0
 10
336.631211
 20
634.578974
 42
-0.054923
  0
VERTEX
  8
0
 10
335.500000
 20
634.000000
 42
0.160686
  0
VERTEX
  8
0
 10
333.663818
 20
632.509163
 42
0.122405
  0
VERTEX
  8
0
 10
332.827494
 20
630.040025
 42
0.158650
  0
VERTEX
  8
0
 10
333.334724
 20
627.890097
 42
0.261857
  0
VERTEX
  8
0
 10
334.917770
 20
627.000000
 42
-0.217200
  0
VERTEX
  8
0
 10
335.947363
 20
626.530599
 42
-0.150178
  0
VERTEX
  8
0
 10
336.473997
 20
625.342249
 42
-0.039070
  0
VERTEX
  8
0
 10
336.581710
 20
622.711833
 42
-0.003009
  0
VERTEX
  8
0
 10
336.276140
 20
615.641629
 42
0.004057
  0
VERTEX
  8
0
 10
335.989288
 20
608.665643
 42
0.037431
  0
VERTEX
  8
0
 10
336.115762
 20
605.644840
 42
0.087735
  0
VERTEX
  8
0
 10
336.677125
 20
603.775231
 42
0.079840
  0
VERTEX
  8
0
 10
337.858371
 20
602.141629
 42
0.059003
  0
VERTEX
  8
0
 10
339.156536
 20
601.118366
 42
0.064668
  0
VERTEX
  8
0
 10
340.619505
 20
600.464163
 42
0.051182
  0
VERTEX
  8
0
 10
342.471296
 20
600.109810
 42
0.021702
  0
VERTEX
  8
0
 10
345.000000
 20
600.000000
 42
0.000000
  0
VERTEX
  8
0
 10
350.000000
 20
600.000000
 42
0.000000
  0
VERTEX
  8
0
 10
350.000000
 20
603.433578
 42
0.025400
  0
VERTEX
  8
0
 10
349.902380
 20
605.353989
 42
0.133579
  0
VERTEX
  8
0
 10
349.526733
 20
606.330702
 42
0.163751
  0
VERTEX
  8
0
 10
348.751326
 20
606.876613
 42
0.043589
  0
VERTEX
  8
0
 10
347.250000
 20
607.183578
 42
-0.039922
  0
VERTEX
  8
0
 10
345.898481
 20
607.449619
 42
-0.123080
  0
VERTEX
  8
0
 10
345.095738
 20
607.908270
 42
-0.145834
  0
VERTEX
  8
0
 10
344.680627
 20
608.638093
 42
-0.064906
  0
VERTEX
  8
0
 10
344.571429
 20
609.750000
 42
0.000994
  0
VERTEX
  8
0
 10
344.609660
 20
611.034806
 42
0.000185
  0
VERTEX
  8
0
 10
344.674330
 20
613.395312
 42
0.000198
  0
VERTEX
  8
0
 10
344.747824
 20
616.155049
 42
0.000181
  0
VERTEX
  8
0
 10
344.821429
 20
619.000000
 42
0.000000
  0
VERTEX
  8
0
 10
345.000000
 20
626.000000
 42
0.000000
  0
VERTEX
  8
0
 10
347.980948
 20
626.000000
 42
0.039213
  0
VERTEX
  8
0
 10
349.491831
 20
626.118676
 42
0.110507
  0
VERTEX
  8
0
 10
350.471200
 20
626.506324
 42
0.125135
  0
VERTEX
  8
0
 10
351.121081
 20
627.240150
 42
0.057545
  0
VERTEX
  8
0
 10
351.575091
 20
628.443165
 42
0.057075
  0
VERTEX
  8
0
 10
351.853526
 20
630.542205
 42
0.161604
  0
VERTEX
  8
0
 10
351.418790
 20
631.934825
 42
0.172119
  0
VERTEX
  8
0
 10
350.262513
 20
632.737603
 42
0.066593
  0
VERTEX
  8
0
 10
348.301080
 20
633.000000
 42
-0.054620
  0
VERTEX
  8
0
 10
346.777448
 20
633.166940
 42
-0.255778
  0
VERTEX
  8
0
 10
346.136818
 20
633.727777
 42
-0.106972
  0
VERTEX
  8
0
 10
345.969377
 20
634.935513
 42
-0.006869
  0
VERTEX
  8
0
 10
346.287844
 20
638.500000
 42
0.011380
  0
VERTEX
  8
0
 10
346.456862
 20
640.605938
 42
0.019378
  0
VERTEX
  8
0
 10
346.489659
 20
642.371392
 42
0.014453
  0
VERTEX
  8
0
 10
346.422234
 20
643.744020
 42
0.410450
  0
VERTEX
  8
0
 10
346.177747
 20
643.955804
 42
0.085284
  0
VERTEX
  8
0
 10
345.747917
 20
643.852768
 42
0.005827
  0
VERTEX
  8
0
 10
344.597526
 20
643.343056
 42
0.008195
  0
VERTEX
  8
0
 10
343.235774
 20
642.693422
 42
0.006054
  0
SEQEND
  0
POLYLINE
  8
0
 66
1
 70
1
  0
VERTEX
  8
0
 10
225.620939
 20
638.250000
 42
0.026733
  0
VERTEX
  8
0
 10
225.359213
 20
636.389153
 42
0.001617
  0
VERTEX
  8
0
 10
224.891565
 20
630.770781
 42
0.002414
  0
VERTEX
  8
0
 10
224.388264
 20
624.071025
 42
0.001782
  0
VERTEX
  8
0
 10
223.893412
 20
616.650530
 42
0.003385
  0
VERTEX
  8
0
 10
223.121646
 20
602.945946
 42
0.062952
  0
VERTEX
  8
0
 10
223.451154
 20
598.633057
 42
0.237036
  0
VERTEX
  8
0
 10
224.951134
 20
596.729884
 42
0.108421
  0
VERTEX
  8
0
 10
228.119158
 20
596.015313
 42
0.055926
  0
VERTEX
  8
0
 10
229.541943
 20
596.166535
 42
0.161055
  0
VERTEX
  8
0
 10
230.383770
 20
596.667714
 42
0.115714
  0
VERTEX
  8
0
 10
230.922245
 20
597.691923
 42
0.022459
  0
VERTEX
  8
0
 10
231.358152
 20
599.750000
 42
0.014251
  0
VERTEX
  8
0
 10
231.596837
 20
601.503231
 42
0.007447
  0
VERTEX
  8
0
 10
231.799145
 20
603.698080
 42
0.007400
  0
VERTEX
  8
0
 10
231.939897
 20
605.957263
 42
0.011234
  0
VERTEX
  8
0
 10
231.988994
 20
607.924314
 42
0.000000
  0
VERTEX
  8
0
 10
232.000000
 20
612.348628
 42
0.000000
  0
VERTEX
  8
0
 10
234.437735
 20
610.058495
 42
0.096727
  0
VERTEX
  8
0
 10
237.475923
 20
608.148047
 42
0.073279
  0
VERTEX
  8
0
 10
241.325712
 20
607.278321
 42
0.072076
  0
VERTEX
  8
0
 10
245.327570
 20
607.550930
 42
0.087319
  0
VERTEX
  8
0
 10
248.808142
 20
608.965853
 42
0.086511
  0
VERTEX
  8
0
 10
251.698922
 20
611.568014
 42
0.060098
  0
VERTEX
  8
0
 10
253.982875
 20
615.333260
 42
0.055283
  0
VERTEX
  8
0
 10
255.463615
 20
619.881457
 42
0.050078
  0
VERTEX
  8
0
 10
255.978038
 20
624.799660
 42
0.098234
  0
VERTEX
  8
0
 10
254.449730
 20
632.674318
 42
0.131806
  0
VERTEX
  8
0
 10
250.071278
 20
638.438224
 42
0.153313
  0
VERTEX
  8
0
 10
243.936301
 20
640.711103
 42
0.146941
  0
VERTEX
  8
0
 10
237.485465
 20
639.123925
 42
-0.003508
  0
VERTEX
  8
0
 10
234.482715
 20
637.380548
 42
-0.122151
  0
VERTEX
  8
0
 10
233.704434
 20
637.160190
 42
-0.466931
  0
VERTEX
  8
0
 10
233.405405
 20
637.494383
 42
-0.028011
  0
VERTEX
  8
0
 10
233.710251
 20
639.000000
 42
0.078065
  0
VERTEX
  8
0
 10
233.817809
 20
640.072382
 42
0.254686
  0
VERTEX
  8
0
 10
233.454698
 20
640.658538
 42
0.116829
  0
VERTEX
  8
0
 10
232.493184
 20
640.940033
 42
0.013051
  0
VERTEX
  8
0
 10
230.196087
 20
641.000000
 42
0.019290
  0
VERTEX
  8
0
 10
227.875839
 20
640.910453
 42
0.116538
  0
VERTEX
  8
0
 10
226.736096
 20
640.546394
 42
0.162626
  0
VERTEX
  8
0
 10
226.072915
 20
639.770381
 42
0.047922
  0
SEQEND
  0
POLYLINE
  8
0
 66
1
 70
1
  0
VERTEX
  8
0
 10
244.328804
 20
632.748840
 42
-0.193642
  0
VERTEX
  8
0
 10
247.018809
 20
628.428267
 42
-0.094790
  0
VERTEX
  8
0
 10
246.921929
 20
621.834639
 42
-0.101715
  0
VERTEX
  8
0
 10
244.445644
 20
616.081273
 42
-0.245147
  0
VERTEX
  8
0
 10
240.455796
 20
614.000000
 42
-0.207861
  0
VERTEX
  8
0
 10
236.112660
 20
615.887071
 42
-0.128200
  0
VERTEX
  8
0
 10
233.418590
 20
620.865572
 42
-0.113153
  0
VERTEX
  8
0
 10
233.321781
 20
627.047401
 42
-0.144930
  0
VERTEX
  8
0
 10
236.025436
 20
632.025436
 42
-0.087195
  0
VERTEX
  8
0
 10
237.888221
 20
633.331388
 42
-0.087874
  0
VERTEX
  8
0
 10
240.079621
 20
633.919512
 42
-0.088756
  0
VERTEX
  8
0
 10
242.321075
 20
633.716907
 42
-0.091297
  0
SEQEND
  0
POLYLINE
  8
0
 66
1
 70
1
  0
VERTEX
  8
0
 10
306.328737
 20
634.542239
 42
0.058304
  0
VERTEX
  8
0
 10
304.286157
 20
633.354272
 42
0.057433
  0
VERTEX
  8
0
 10
302.561443
 20
631.721573
 42
0.062575
  0
VERTEX
  8
0
 10
301.391403
 20
629.908425
 42
0.112492
  0
VERTEX
  8
0
 10
301.000000
 20
628.190741
 42
0.321769
  0
VERTEX
  8
0
 10
301.790376
 20
627.089728
 42
0.061917
  0
VERTEX
  8
0
 10
304.340318
 20
626.567800
 42
0.057717
  0
VERTEX
  8
0
 10
307.205162
 20
626.674101
 42
0.146834
  0
VERTEX
  8
0
 10
309.064792
 20
627.558636
 42
-0.077603
  0
VERTEX
  8
0
 10
310.055519
 20
628.208676
 42
-0.051139
  0
VERTEX
  8
0
 10
311.350132
 20
628.642853
 42
-0.044386
  0
VERTEX
  8
0
 10
312.898794
 20
628.849546
 42
-0.031500
  0
VERTEX
  8
0
 10
314.651906
 20
628.816213
 42
-0.022236
  0
VERTEX
  8
0
 10
316.769186
 20
628.547039
 42
-0.111020
  0
VERTEX
  8
0
 10
317.868541
 20
628.092504
 42
-0.154932
  0
VERTEX
  8
0
 10
318.476326
 20
627.293317
 42
-0.056858
  0
VERTEX
  8
0
 10
318.802368
 20
625.895647
 42
-0.089774
  0
VERTEX
  8
0
 10
318.704807
 20
624.360939
 42
-0.214296
  0
VERTEX
  8
0
 10
318.015774
 20
623.481800
 42
-0.075527
  0
VERTEX
  8
0
 10
316.332188
 20
622.899361
 42
-0.005589
  0
VERTEX
  8
0
 10
311.517002
 20
622.067260
 42
0.030240
  0
VERTEX
  8
0
 10
305.211876
 20
620.654651
 42
0.095069
  0
VERTEX
  8
0
 10
301.362577
 20
618.697248
 42
0.135670
  0
VERTEX
  8
0
 10
299.279172
 20
615.905458
 42
0.093120
  0
VERTEX
  8
0
 10
298.545455
 20
612.000000
 42
0.029370
  0
VERTEX
  8
0
 10
298.676511
 20
609.770779
 42
0.069358
  0
VERTEX
  8
0
 10
299.096985
 20
608.163935
 42
0.075814
  0
VERTEX
  8
0
 10
299.912923
 20
606.820387
 42
0.040853
  0
VERTEX
  8
0
 10
301.276672
 20
605.438440
 42
0.067018
  0
VERTEX
  8
0
 10
304.421602
 20
603.393550
 42
0.079659
  0
VERTEX
  8
0
 10
307.817603
 20
602.403363
 42
0.079582
  0
VERTEX
  8
0
 10
311.355606
 20
602.524065
 42
0.066728
  0
VERTEX
  8
0
 10
314.915832
 20
603.728394
 42
-0.006723
  0
VERTEX
  8
0
 10
317.435770
 20
604.933262
 42
-0.102301
  0
VERTEX
  8
0
 10
318.373011
 20
605.151391
 42
-0.275373
  0
VERTEX
  8
0
 10
318.921065
 20
604.842921
 42
-0.066332
  0
VERTEX
  8
0
 10
319.332160
 20
603.837819
 42
0.110471
  0
VERTEX
  8
0
 10
319.780047
 20
602.968674
 42
0.119087
  0
VERTEX
  8
0
 10
320.545254
 20
602.401483
 42
0.076790
  0
VERTEX
  8
0
 10
321.764664
 20
602.093329
 42
0.023922
  0
VERTEX
  8
0
 10
323.656380
 20
602.005468
 42
0.000000
  0
VERTEX
  8
0
 10
327.500000
 20
602.010937
 42
0.000000
  0
VERTEX
  8
0
 10
327.500000
 20
615.895218
 42
0.003781
  0
VERTEX
  8
0
 10
327.439750
 20
623.862261
 42
0.025793
  0
VERTEX
  8
0
 10
327.177894
 20
627.782408
 42
0.055287
  0
VERTEX
  8
0
 10
326.623320
 20
630.164514
 42
0.099103
  0
VERTEX
  8
0
 10
325.600091
 20
631.884138
 42
0.116324
  0
VERTEX
  8
0
 10
322.097260
 20
634.305686
 42
0.059118
  0
VERTEX
  8
0
 10
316.885544
 20
635.665166
 42
0.057098
  0
VERTEX
  8
0
 10
311.222393
 20
635.795401
 42
0.079976
  0
SEQEND
  0
POLYLINE
  8
0
 66
1
 70
1
  0
VERTEX
  8
0
 10
319.000000
 20
615.454545
 42
-0.124951
  0
VERTEX
  8
0
 10
318.403891
 20
613.106407
 42
-0.062165
  0
VERTEX
  8
0
 10
316.604912
 20
610.593926
 42
-0.062798
  0
VERTEX
  8
0
 10
314.284392
 20
608.640171
 42
-0.144587
  0
VERTEX
  8
0
 10
312.116883
 20
608.000000
 42
-0.158867
  0
VERTEX
  8
0
 10
309.593168
 20
608.822634
 42
-0.109554
  0
VERTEX
  8
0
 10
307.590111
 20
611.095617
 42
-0.132244
  0
VERTEX
  8
0
 10
306.952899
 20
613.686500
 42
-0.254122
  0
VERTEX
  8
0
 10
307.984639
 20
615.490506
 42
-0.075994
  0
VERTEX
  8
0
 10
309.010289
 20
615.926417
 42
-0.005130
  0
VERTEX
  8
0
 10
312.106624
 20
616.683889
 42
-0.008128
  0
VERTEX
  8
0
 10
315.408589
 20
617.399450
 42
-0.013023
  0
VERTEX
  8
0
 10
318.250000
 20
617.890434
 42
-0.300319
  0
VERTEX
  8
0
 10
318.538260
 20
617.755277
 42
-0.062626
  0
VERTEX
  8
0
 10
318.779688
 20
617.220088
 42
-0.046734
  0
VERTEX
  8
0
 10
318.945807
 20
616.422274
 42
-0.027978
  0
SEQEND
  0
POLYLINE
  8
0
 66
1
 70
1
  0
VERTEX
  8
0
 10
307.000000
 20
595.362241
 42
0.016851
  0
VERTEX
  8
0
 10
307.089344
 20
592.712036
 42
0.165370
  0
VERTEX
  8
0
 10
307.513805
 20
591.694424
 42
0.171426
  0
VERTEX
  8
0
 10
308.463883
 20
591.165110
 42
0.018420
  0
VERTEX
  8
0
 10
311.000000
 20
590.828610
 42
0.013391
  0
VERTEX
  8
0
 10
313.452681
 20
590.660837
 42
0.142407
  0
VERTEX
  8
0
 10
314.414283
 20
590.897579
 42
0.225908
  0
VERTEX
  8
0
 10
314.875661
 20
591.568898
 42
0.039464
  0
VERTEX
  8
0
 10
315.000000
 20
593.141787
 42
-0.018219
  0
VERTEX
  8
0
 10
315.041548
 20
594.281680
 42
-0.015527
  0
VERTEX
  8
0
 10
315.166358
 20
595.478397
 42
-0.015805
  0
VERTEX
  8
0
 10
315.348309
 20
596.560572
 42
-0.042081
  0
VERTEX
  8
0
 10
315.566325
 20
597.312244
 42
0.192259
  0
VERTEX
  8
0
 10
315.556623
 20
598.032105
 42
0.188824
  0
VERTEX
  8
0
 10
315.053794
 20
598.554191
 42
0.073988
  0
VERTEX
  8
0
 10
313.847948
 20
598.905149
 42
0.014038
  0
VERTEX
  8
0
 10
311.566325
 20
599.151237
 42
0.000000
  0
VERTEX
  8
0
 10
307.000000
 20
599.514412
 42
0.000000
  0
SEQEND
  0
POLYLINE
  8
0
 66
1
 70
1
  0
VERTEX
  8
0
 10
226.000000
 20
574.862149
 42
0.015756
  0
VERTEX
  8
0
 10
216.160280
 20
573.538160
 42
0.008228
  0
VERTEX
  8
0
 10
203.993044
 20
571.302497
 42
0.008165
  0
VERTEX
  8
0
 10
192.151125
 20
568.722689
 42
0.019620
  0
VERTEX
  8
0
 10
183.500000
 20
566.327795
 42
0.022265
  0
VERTEX
  8
0
 10
175.416932
 20
563.342169
 42
0.006997
  0
VERTEX
  8
0
 10
163.600952
 20
558.173664
 42
0.006623
  0
VERTEX
  8
0
 10
152.064517
 20
552.748440
 42
0.029061
  0
VERTEX
  8
0
 10
145.500000
 20
549.068478
 42
0.033202
  0
VERTEX
  8
0
 10
125.524231
 20
534.337431
 42
0.036189
  0
VERTEX
  8
0
 10
108.281893
 20
517.478873
 42
0.037401
  0
VERTEX
  8
0
 10
94.151011
 20
498.872791
 42
0.041130
  0
VERTEX
  8
0
 10
83.449053
 20
478.931737
 42
-0.004796
  0
VERTEX
  8
0
 10
76.875105
 20
464.208371
 42
-0.011023
  0
VERTEX
  8
0
 10
71.579350
 20
453.289222
 42
-0.014476
  0
VERTEX
  8
0
 10
67.017380
 20
444.989314
 42
-0.027510
  0
VERTEX
  8
0
 10
62.800023
 20
438.642949
 42
0.011440
  0
VERTEX
  8
0
 10
58.093865
 20
432.031991
 42
0.031316
  0
VERTEX
  8
0
 10
55.180875
 20
427.096134
 42
0.029941
  0
VERTEX
  8
0
 10
52.836434
 20
421.712125
 42
0.009721
  0
VERTEX
  8
0
 10
50.010917
 20
413.500000
 42
0.009562
  0
VERTEX
  8
0
 10
48.107164
 20
407.185303
 42
0.038049
  0
VERTEX
  8
0
 10
47.313122
 20
403.219876
 42
0.034610
  0
VERTEX
  8
0
 10
47.092215
 20
399.005697
 42
0.006974
  0
VERTEX
  8
0
 10
47.323233
 20
391.500000
 42
0.049858
  0
VERTEX
  8
0
 10
49.964574
 20
373.329341
 42
0.067213
  0
VERTEX
  8
0
 10
56.093243
 20
357.905073
 42
0.064489
  0
VERTEX
  8
0
 10
66.324791
 20
344.198397
 42
0.041609
  0
VERTEX
  8
0
 10
81.273020
 20
331.151323
 42
0.033188
  0
VERTEX
  8
0
 10
91.261581
 20
324.776119
 42
0.016672
  0
VERTEX
  8
0
 10
104.620259
 20
318.017577
 42
0.016306
  0
VERTEX
  8
0
 10
119.179738
 20
311.820198
 42
0.020742
  0
VERTEX
  8
0
 10
133.000000
 20
307.112025
 42
0.001319
  0
VERTEX
  8
0
 10
139.556329
 20
305.196699
 42
0.001685
  0
VERTEX
  8
0
 10
145.607812
 20
303.468237
 42
0.001303
  0
VERTEX
  8
0
 10
150.689733
 20
302.049500
 42
0.014247
  0
VERTEX
  8
0
 10
152.750000
 20
301.542819
 42
-0.018647
  0
VERTEX
  8
0
 10
153.993729
 20
301.225319
 42
-0.028725
  0
VERTEX
  8
0
 10
155.038497
 20
300.850250
 42
-0.027970
  0
VERTEX
  8
0
 10
155.808488
 20
300.470648
 42
-0.279837
  0
VERTEX
  8
0
 10
155.976797
 20
300.170545
 42
-0.149909
  0
VERTEX
  8
0
 10
155.833666
 20
299.755640
 42
-0.007047
  0
VERTEX
  8
0
 10
154.934941
 20
298.558299
 42
-0.011091
  0
VERTEX
  8
0
 10
153.801810
 20
297.157521
 42
-0.007698
  0
VERTEX
  8
0
 10
152.462634
 20
295.623665
 42
0.032706
  0
VERTEX
  8
0
 10
150.834605
 20
293.559202
 42
0.011403
  0
VERTEX
  8
0
 10
148.760550
 20
290.390456
 42
0.011269
  0
VERTEX
  8
0
 10
146.629757
 20
286.788664
 42
0.012906
  0
VERTEX
  8
0
 10
144.761997
 20
283.251851
 42
0.010260
  0
VERTEX
  8
0
 10
142.367145
 20
278.158761
 42
0.040551
  0
VERTEX
  8
0
 10
141.220042
 20
274.894798
 42
0.046673
  0
VERTEX
  8
0
 10
140.695556
 20
271.718073
 42
0.016732
  0
VERTEX
  8
0
 10
140.526161
 20
267.128186
 42
0.032953
  0
VERTEX
  8
0
 10
140.910362
 20
260.984213
 42
0.043268
  0
VERTEX
  8
0
 10
142.107909
 20
255.495437
 42
0.043841
  0
VERTEX
  8
0
 10
144.215949
 20
250.351315
 42
0.035232
  0
VERTEX
  8
0
 10
147.327576
 20
245.241589
 42
0.053333
  0
VERTEX
  8
0
 10
150.659750
 20
241.472743
 42
0.039512
  0
VERTEX
  8
0
 10
155.052095
 20
238.054886
 42
0.040396
  0
VERTEX
  8
0
 10
159.749809
 20
235.479129
 42
0.071988
  0
VERTEX
  8
0
 10
163.982093
 20
234.275576
 42
-0.016447
  0
VERTEX
  8
0
 10
165.522023
 20
234.017218
 42
-0.025935
  0
VERTEX
  8
0
 10
166.819740
 20
233.684509
 42
-0.023604
  0
VERTEX
  8
0
 10
167.795040
 20
233.328460
 42
-0.302110
  0
VERTEX
  8
0
 10
168.000000
 20
233.020205
 42
-0.241442
  0
VERTEX
  8
0
 10
167.811746
 20
232.653078
 42
-0.016012
  0
VERTEX
  8
0
 10
166.795919
 20
231.971243
 42
-0.020297
  0
VERTEX
  8
0
 10
165.471634
 20
231.215587
 42
-0.013578
  0
VERTEX
  8
0
 10
163.901001
 20
230.455357
 42
0.050166
  0
VERTEX
  8
0
 10
161.235191
 20
228.915252
 42
0.045848
  0
VERTEX
  8
0
 10
158.840689
 20
226.833008
 42
0.040119
  0
VERTEX
  8
0
 10
156.605978
 20
224.087606
 42
0.024760
  0
VERTEX
  8
0
 10
154.416168
 20
220.543859
 42
-0.114635
  0
VERTEX
  8
0
 10
153.552845
 20
219.583552
 42
-0.052296
  0
VERTEX
  8
0
 10
152.068437
 20
218.761475
 42
-0.037511
  0
VERTEX
  8
0
 10
149.913188
 20
218.032200
 42
-0.015681
  0
VERTEX
  8
0
 10
146.918679
 20
217.362784
 42
0.021503
  0
VERTEX
  8
0
 10
139.810746
 20
215.686730
 42
0.019890
  0
VERTEX
  8
0
 10
132.682624
 20
213.369198
 42
0.020463
  0
VERTEX
  8
0
 10
126.481290
 20
210.783485
 42
0.056987
  0
VERTEX
  8
0
 10
122.465095
 20
208.322160
 42
0.108972
  0
VERTEX
  8
0
 10
117.029738
 20
201.737102
 42
0.107294
  0
VERTEX
  8
0
 10
114.829563
 20
193.439250
 42
0.110090
  0
VERTEX
  8
0
 10
116.286064
 20
185.147377
 42
0.120101
  0
VERTEX
  8
0
 10
121.112429
 20
178.558851
 42
0.040985
  0
VERTEX
  8
0
 10
125.240768
 20
175.626638
 42
0.022850
  0
VERTEX
  8
0
 10
130.685897
 20
172.722508
 42
0.022238
  0
VERTEX
  8
0
 10
136.663129
 20
170.196738
 42
0.027316
  0
VERTEX
  8
0
 10
142.448774
 20
168.402468
 42
-0.021338
  0
VERTEX
  8
0
 10
146.182774
 20
167.293198
 42
-0.047158
  0
VERTEX
  8
0
 10
148.887824
 20
166.066704
 42
-0.044396
  0
VERTEX
  8
0
 10
151.412494
 20
164.307175
 42
-0.017009
  0
VERTEX
  8
0
 10
154.600794
 20
161.445780
 42
0.023327
  0
VERTEX
  8
0
 10
157.170942
 20
159.197107
 42
0.014723
  0
VERTEX
  8
0
 10
160.362127
 20
156.807737
 42
0.014781
  0
VERTEX
  8
0
 10
163.644992
 20
154.639546
 42
0.026194
  0
VERTEX
  8
0
 10
166.488188
 20
153.079811
 42
0.000000
  0
VERTEX
  8
0
 10
172.873980
 20
150.000000
 42
0.000000
  0
VERTEX
  8
0
 10
192.687364
 20
150.000000
 42
0.004308
  0
VERTEX
  8
0
 10
202.430791
 20
150.083955
 42
0.010486
  0
VERTEX
  8
0
 10
209.610021
 20
150.358363
 42
0.014044
  0
VERTEX
  8
0
 10
215.125246
 20
150.840853
 42
0.026961
  0
VERTEX
  8
0
 10
219.500374
 20
151.588520
 42
-0.001975
  0
VERTEX
  8
0
 10
222.400230
 20
152.234592
 42
-0.001934
  0
VERTEX
  8
0
 10
225.325110
 20
152.862280
 42
-0.001903
  0
VERTEX
  8
0
 10
227.895667
 20
153.393326
 42
-0.007315
  0
VERTEX
  8
0
 10
229.500000
 20
153.694036
 42
0.056031
  0
VERTEX
  8
0
 10
230.928993
 20
154.108976
 42
0.021850
  0
VERTEX
  8
0
 10
232.793750
 20
154.982858
 42
0.021303
  0
VERTEX
  8
0
 10
234.748415
 20
156.113815
 42
0.024778
  0
VERTEX
  8
0
 10
236.500000
 20
157.355517
 42
0.000000
  0
VERTEX
  8
0
 10
240.500000
 20
160.500000
 42
0.000000
  0
VERTEX
  8
0
 10
264.500000
 20
161.204466
 42
0.006780
  0
VERTEX
  8
0
 10
305.705368
 20
162.973417
 42
0.026349
  0
VERTEX
  8
0
 10
331.084921
 20
165.754605
 42
0.043576
  0
VERTEX
  8
0
 10
347.856888
 20
170.018084
 42
0.099757
  0
VERTEX
  8
0
 10
359.028705
 20
176.637328
 42
0.055983
  0
VERTEX
  8
0
 10
363.637409
 20
181.837115
 42
0.085883
  0
VERTEX
  8
0
 10
366.205891
 20
187.264527
 42
0.094535
  0
VERTEX
  8
0
 10
366.665468
 20
192.845731
 42
0.082464
  0
VERTEX
  8
0
 10
365.095087
 20
198.500000
 42
0.053676
  0
VERTEX
  8
0
 10
362.009448
 20
203.616131
 42
0.051978
  0
VERTEX
  8
0
 10
357.875770
 20
208.019460
 42
0.051315
  0
VERTEX
  8
0
 10
352.868646
 20
211.523287
 42
0.049694
  0
VERTEX
  8
0
 10
347.199870
 20
213.978518
 42
-0.015273
  0
VERTEX
  8
0
 10
345.509030
 20
214.576556
 42
-0.019221
  0
VERTEX
  8
0
 10
343.985183
 20
215.236949
 42
-0.017645
  0
VERTEX
  8
0
 10
342.769527
 20
215.873953
 42
-0.125471
  0
VERTEX
  8
0
 10
342.294738
 20
216.332121
 42
-0.111115
  0
VERTEX
  8
0
 10
342.042274
 20
217.063808
 42
-0.005019
  0
VERTEX
  8
0
 10
341.772728
 20
219.726310
 42
-0.008198
  0
VERTEX
  8
0
 10
341.534784
 20
222.915928
 42
-0.005758
  0
VERTEX
  8
0
 10
341.367259
 20
226.512162
 42
0.017761
  0
VERTEX
  8
0
 10
340.986463
 20
231.900607
 42
0.024319
  0
VERTEX
  8
0
 10
340.237302
 20
236.704648
 42
0.019097
  0
VERTEX
  8
0
 10
338.880867
 20
242.211367
 42
0.006521
  0
VERTEX
  8
0
 10
336.505907
 20
250.090966
 42
-0.020150
  0
VERTEX
  8
0
 10
332.740741
 20
263.937981
 42
-0.021115
  0
VERTEX
  8
0
 10
330.170176
 20
277.829627
 42
-0.022195
  0
VERTEX
  8
0
 10
328.978470
 20
290.157637
 42
-0.062426
  0
VERTEX
  8
0
 10
329.606747
 20
298.783735
 42
-0.045592
  0
VERTEX
  8
0
 10
330.082903
 20
300.388043
 42
-0.117159
  0
VERTEX
  8
0
 10
330.774470
 20
301.371454
 42
-0.103828
  0
VERTEX
  8
0
 10
331.890423
 20
302.007053
 42
-0.031354
  0
VERTEX
  8
0
 10
333.791638
 20
302.488734
 42
0.022169
  0
VERTEX
  8
0
 10
335.937390
 20
302.990642
 42
0.002891
  0
VERTEX
  8
0
 10
340.450328
 20
304.287818
 42
0.003361
  0
VERTEX
  8
0
 10
345.787407
 20
305.894393
 42
0.002805
  0
VERTEX
  8
0
 10
351.434891
 20
307.670650
 42
0.025678
  0
VERTEX
  8
0
 10
367.784943
 20
313.856242
 42
0.029867
  0
VERTEX
  8
0
 10
382.581526
 20
321.423497
 42
0.031861
  0
VERTEX
  8
0
 10
395.467737
 20
330.166948
 42
0.040288
  0
VERTEX
  8
0
 10
406.093244
 20
339.876609
 42
0.017034
  0
VERTEX
  8
0
 10
412.493704
 20
347.236157
 42
0.028516
  0
VERTEX
  8
0
 10
417.288640
 20
353.885895
 42
0.029497
  0
VERTEX
  8
0
 10
421.186067
 20
360.874314
 42
0.019894
  0
VERTEX
  8
0
 10
424.826556
 20
369.250953
 42
0.036914
  0
VERTEX
  8
0
 10
430.279845
 20
387.107658
 42
0.044067
  0
VERTEX
  8
0
 10
432.639488
 20
404.542274
 42
0.039834
  0
VERTEX
  8
0
 10
432.010244
 20
423.500986
 42
0.022911
  0
VERTEX
  8
0
 10
428.397887
 20
446.083499
 42
0.029520
  0
VERTEX
  8
0
 10
422.189886
 20
469.099578
 42
0.040647
  0
VERTEX
  8
0
 10
413.779079
 20
488.788164
 42
0.041607
  0
VERTEX
  8
0
 10
402.468698
 20
506.506354
 42
0.033191
  0
VERTEX
  8
0
 10
387.556160
 20
523.589386
 42
0.005230
  0
VERTEX
  8
0
 10
382.610425
 20
528.446067
 42
0.005762
  0
VERTEX
  8
0
 10
377.719622
 20
533.042022
 42
0.005390
  0
VERTEX
  8
0
 10
373.456426
 20
536.872794
 42
0.029014
  0
VERTEX
  8
0
 10
371.000000
 20
538.791987
 42
0.004798
  0
VERTEX
  8
0
 10
361.819458
 20
545.013924
 42
0.011899
  0
VERTEX
  8
0
 10
354.947673
 20
549.343575
 42
0.013711
  0
VERTEX
  8
0
 10
348.479587
 20
552.970168
 42
0.008667
  0
VERTEX
  8
0
 10
340.752004
 20
556.859216
 42
0.005218
  0
VERTEX
  8
0
 10
335.511494
 20
559.316685
 42
0.004354
  0
VERTEX
  8
0
 10
329.895901
 20
561.820055
 42
0.004396
  0
VERTEX
  8
0
 10
324.717665
 20
564.020659
 42
0.011944
  0
VERTEX
  8
0
 10
321.000000
 20
565.459050
 42
0.025782
  0
VERTEX
  8
0
 10
312.524351
 20
568.022753
 42
0.008824
  0
VERTEX
  8
0
 10
300.006701
 20
570.881526
 42
0.009037
  0
VERTEX
  8
0
 10
286.822199
 20
573.400861
 42
0.015706
  0
VERTEX
  8
0
 10
275.789414
 20
574.948010
 42
0.019879
  0
VERTEX
  8
0
 10
265.576110
 20
575.645232
 42
0.007533
  0
VERTEX
  8
0
 10
251.279449
 20
575.835980
 42
0.007605
  0
VERTEX
  8
0
 10
236.836230
 20
575.591368
 42
0.017526
  0
SEQEND
  0
POLYLINE
  8
0
 66
1
 70
1
  0
VERTEX
  8
0
 10
275.235971
 20
568.995857
 42
-0.018124
  0
VERTEX
  8
0
 10
288.553868
 20
567.404591
 42
-0.021262
  0
VERTEX
  8
0
 10
301.022119
 20
564.907229
 42
-0.020649
  0
VERTEX
  8
0
 10
313.535872
 20
561.288626
 42
-0.015457
  0
VERTEX
  8
0
 10
327.000000
 20
556.317386
 42
-0.031065
  0
VERTEX
  8
0
 10
348.614379
 20
545.963859
 42
-0.036982
  0
VERTEX
  8
0
 10
367.489741
 20
533.522821
 42
-0.036924
  0
VERTEX
  8
0
 10
384.350022
 20
518.419033
 42
-0.030803
  0
VERTEX
  8
0
 10
399.935484
 20
500.098071
 42
-0.034621
  0
VERTEX
  8
0
 10
403.979594
 20
493.845194
 42
-0.010165
  0
VERTEX
  8
0
 10
409.308037
 20
483.722905
 42
-0.010544
  0
VERTEX
  8
0
 10
414.316927
 20
473.169250
 42
-0.025465
  0
VERTEX
  8
0
 10
417.448773
 20
465.121502
 42
-0.014355
  0
VERTEX
  8
0
 10
418.603513
 20
461.272941
 42
-0.005263
  0
VERTEX
  8
0
 10
420.021096
 20
455.773191
 42
-0.005212
  0
VERTEX
  8
0
 10
421.445081
 20
449.727277
 42
-0.006225
  0
VERTEX
  8
0
 10
422.656461
 20
444.000000
 42
-0.009511
  0
VERTEX
  8
0
 10
424.088056
 20
435.995048
 42
-0.018294
  0
VERTEX
  8
0
 10
424.876928
 20
429.526848
 42
-0.015314
  0
VERTEX
  8
0
 10
425.267910
 20
422.313838
 42
-0.004807
  0
VERTEX
  8
0
 10
425.418359
 20
411.500000
 42
-0.003778
  0
VERTEX
  8
0
 10
425.382264
 20
400.423239
 42
-0.017763
  0
VERTEX
  8
0
 10
425.087502
 20
394.066539
 42
-0.026088
  0
VERTEX
  8
0
 10
424.398704
 20
388.957962
 42
-0.015809
  0
VERTEX
  8
0
 10
423.080122
 20
383.000000
 42
-0.016333
  0
VERTEX
  8
0
 10
420.544479
 20
374.250719
 42
-0.031440
  0
VERTEX
  8
0
 10
417.854646
 20
367.469175
 42
-0.030740
  0
VERTEX
  8
0
 10
414.293792
 20
360.980830
 42
-0.014898
  0
VERTEX
  8
0
 10
409.000737
 20
353.129657
 42
-0.056300
  0
VERTEX
  8
0
 10
396.235564
 20
339.021269
 42
-0.044897
  0
VERTEX
  8
0
 10
379.681942
 20
326.872387
 42
-0.041277
  0
VERTEX
  8
0
 10
359.773880
 20
316.987017
 42
-0.033123
  0
VERTEX
  8
0
 10
337.000000
 20
309.637715
 42
0.000000
  0
VERTEX
  8
0
 10
324.500000
 20
306.500000
 42
0.000000
  0
VERTEX
  8
0
 10
324.670673
 20
286.500000
 42
0.000000
  0
VERTEX
  8
0
 10
324.841347
 20
266.500000
 42
0.000000
  0
VERTEX
  8
0
 10
328.559775
 20
254.500000
 42
-0.010324
  0
VERTEX
  8
0
 10
334.123201
 20
235.140799
 42
-0.052870
  0
VERTEX
  8
0
 10
335.831309
 20
224.104170
 42
-0.097322
  0
VERTEX
  8
0
 10
334.694448
 20
216.379546
 42
-0.093434
  0
VERTEX
  8
0
 10
330.715669
 20
209.533809
 42
0.000000
  0
VERTEX
  8
0
 10
327.434278
 20
205.737800
 42
0.000000
  0
VERTEX
  8
0
 10
323.467139
 20
207.745693
 42
0.023679
  0
VERTEX
  8
0
 10
321.569156
 20
208.595994
 42
0.011998
  0
VERTEX
  8
0
 10
319.108701
 20
209.493709
 42
0.011890
  0
VERTEX
  8
0
 10
316.519251
 20
210.300614
 42
0.017360
  0
VERTEX
  8
0
 10
314.200779
 20
210.876793
 42
0.045010
  0
VERTEX
  8
0
 10
305.138444
 20
211.959465
 42
0.023991
  0
VERTEX
  8
0
 10
293.841388
 20
211.744484
 42
0.019166
  0
VERTEX
  8
0
 10
283.301676
 20
210.630232
 42
0.161827
  0
VERTEX
  8
0
 10
279.092390
 20
208.520962
 42
0.031467
  0
VERTEX
  8
0
 10
278.286022
 20
207.606165
 42
0.171748
  0
VERTEX
  8
0
 10
278.082043
 20
206.989385
 42
0.164381
  0
VERTEX
  8
0
 10
278.307210
 20
206.366028
 42
0.028237
  0
VERTEX
  8
0
 10
279.156968
 20
205.414461
 42
0.122732
  0
VERTEX
  8
0
 10
280.498490
 20
204.608204
 42
0.067618
  0
VERTEX
  8
0
 10
282.398776
 20
204.297868
 42
0.029402
  0
VERTEX
  8
0
 10
285.587280
 20
204.399733
 42
0.003929
  0
VERTEX
  8
0
 10
292.282908
 20
205.061947
 42
-0.018417
  0
VERTEX
  8
0
 10
300.739149
 20
205.651539
 42
-0.032901
  0
VERTEX
  8
0
 10
307.702236
 20
205.421683
 42
-0.037165
  0
VERTEX
  8
0
 10
313.959690
 20
204.327742
 42
-0.033323
  0
VERTEX
  8
0
 10
320.226338
 20
202.292761
 42
-0.052871
  0
VERTEX
  8
0
 10
323.523709
 20
200.549813
 42
-0.072592
  0
VERTEX
  8
0
 10
326.004531
 20
198.298981
 42
-0.101720
  0
VERTEX
  8
0
 10
327.189617
 20
196.057206
 42
-0.249034
  0
VERTEX
  8
0
 10
326.822018
 20
194.285544
 42
-0.131272
  0
VERTEX
  8
0
 10
321.992323
 20
190.859253
 42
-0.026620
  0
VERTEX
  8
0
 10
311.875881
 20
187.699439
 42
-0.024380
  0
VERTEX
  8
0
 10
298.596689
 20
184.997023
 42
-0.014868
  0
VERTEX
  8
0
 10
282.709635
 20
183.044575
 42
-0.023934
  0
VERTEX
  8
0
 10
273.508759
 20
182.633125
 42
-0.014792
  0
VERTEX
  8
0
 10
262.685423
 20
182.987755
 42
-0.009319
  0
VERTEX
  8
0
 10
252.519778
 20
183.812711
 42
-0.148178
  0
VERTEX
  8
0
 10
249.358712
 20
185.126247
 42
-0.119642
  0
VERTEX
  8
0
 10
248.873438
 20
185.771796
 42
-0.022416
  0
VERTEX
  8
0
 10
248.346224
 20
187.165577
 42
-0.022842
  0
VERTEX
  8
0
 10
247.867414
 20
188.888081
 42
-0.019153
  0
VERTEX
  8
0
 10
247.514604
 20
190.751178
 42
0.074260
  0
VERTEX
  8
0
 10
245.195639
 20
198.325574
 42
0.034231
  0
VERTEX
  8
0
 10
240.116059
 20
207.326628
 42
0.029655
  0
VERTEX
  8
0
 10
234.311139
 20
215.098734
 42
0.220562
  0
VERTEX
  8
0
 10
230.236431
 20
216.996268
 42
-0.034742
  0
VERTEX
  8
0
 10
229.242940
 20
217.067028
 42
-0.023544
  0
VERTEX
  8
0
 10
228.127709
 20
217.278779
 42
-0.023774
  0
VERTEX
  8
0
 10
227.064596
 20
217.587080
 42
-0.043038
  0
VERTEX
  8
0
 10
226.236431
 20
217.952769
 42
0.044583
  0
VERTEX
  8
0
 10
222.424923
 20
219.621765
 42
0.015110
  0
VERTEX
  8
0
 10
216.624543
 20
221.374216
 42
0.015101
  0
VERTEX
  8
0
 10
210.173717
 20
222.904990
 42
0.018755
  0
VERTEX
  8
0
 10
204.090996
 20
223.919624
 42
0.009097
  0
VERTEX
  8
0
 10
195.637742
 20
224.849706
 42
0.043653
  0
VERTEX
  8
0
 10
190.795664
 20
224.869768
 42
0.071113
  0
VERTEX
  8
0
 10
187.227242
 20
224.052688
 42
0.055028
  0
VERTEX
  8
0
 10
183.680175
 20
222.219426
 42
-0.009220
  0
VERTEX
  8
0
 10
181.860079
 20
221.056563
 42
-0.007243
  0
VERTEX
  8
0
 10
179.846676
 20
219.861654
 42
-0.007331
  0
VERTEX
  8
0
 10
177.941796
 20
218.804974
 42
-0.017846
  0
VERTEX
  8
0
 10
176.500000
 20
218.097605
 42
0.008379
  0
VERTEX
  8
0
 10
172.291399
 20
216.130745
 42
0.019951
  0
VERTEX
  8
0
 10
169.251868
 20
214.494482
 42
0.025531
  0
VERTEX
  8
0
 10
166.854576
 20
212.907401
 42
0.027824
  0
VERTEX
  8
0
 10
164.702670
 20
211.126027
 42
-0.014416
  0
VERTEX
  8
0
 10
163.139022
 20
209.759368
 42
-0.100568
  0
VERTEX
  8
0
 10
162.247831
 20
209.285181
 42
-0.222640
  0
VERTEX
  8
0
 10
161.585595
 20
209.385006
 42
-0.105188
  0
VERTEX
  8
0
 10
160.967983
 20
210.017564
 42
-0.106034
  0
VERTEX
  8
0
 10
160.174856
 20
212.173204
 42
-0.058522
  0
VERTEX
  8
0
 10
160.106150
 20
214.991969
 42
-0.054629
  0
VERTEX
  8
0
 10
160.719590
 20
217.992095
 42
-0.059246
  0
VERTEX
  8
0
 10
161.959516
 20
220.701451
 42
-0.069598
  0
VERTEX
  8
0
 10
164.067602
 20
223.273858
 42
-0.055539
  0
VERTEX
  8
0
 10
166.958974
 20
225.401295
 42
-0.046606
  0
VERTEX
  8
0
 10
170.731733
 20
227.132632
 42
-0.027454
  0
VERTEX
  8
0
 10
175.500000
 20
228.515103
 42
0.012499
  0
VERTEX
  8
0
 10
178.697101
 20
229.339281
 42
0.129498
  0
VERTEX
  8
0
 10
179.856786
 20
230.026345
 42
0.170556
  0
VERTEX
  8
0
 10
180.373441
 20
231.122314
 42
0.025670
  0
VERTEX
  8
0
 10
180.500000
 20
233.585792
 42
-0.047213
  0
VERTEX
  8
0
 10
180.696741
 20
235.664682
 42
-0.042050
  0
VERTEX
  8
0
 10
181.281586
 20
237.755387
 42
-0.036189
  0
VERTEX
  8
0
 10
182.302854
 20
239.987144
 42
-0.021267
  0
VERTEX
  8
0
 10
183.822957
 20
242.500000
 42
0.018213
  0
VERTEX
  8
0
 10
185.699689
 20
245.560052
 42
0.064234
  0
VERTEX
  8
0
 10
186.565398
 20
247.693807
 42
0.062519
  0
VERTEX
  8
0
 10
186.873158
 20
250.007120
 42
0.016642
  0
VERTEX
  8
0
 10
186.776668
 20
253.732652
 42
0.016332
  0
VERTEX
  8
0
 10
186.470057
 20
257.061960
 42
0.049036
  0
VERTEX
  8
0
 10
185.966818
 20
259.286365
 42
0.063827
  0
VERTEX
  8
0
 10
185.129136
 20
261.029546
 42
0.045593
  0
VERTEX
  8
0
 10
183.789329
 20
262.732652
 42
0.000000
  0
VERTEX
  8
0
 10
181.171234
 20
265.500000
 42
0.000000
  0
VERTEX
  8
0
 10
184.408187
 20
272.000000
 42
0.005501
  0
VERTEX
  8
0
 10
185.774333
 20
274.820652
 42
0.004252
  0
VERTEX
  8
0
 10
187.202955
 20
277.923138
 42
0.004300
  0
VERTEX
  8
0
 10
188.487469
 20
280.843126
 42
0.010291
  0
VERTEX
  8
0
 10
189.376782
 20
283.036214
 42
-0.030005
  0
VERTEX
  8
0
 10
190.211678
 20
284.882635
 42
-0.033343
  0
VERTEX
  8
0
 10
191.236313
 20
286.548954
 42
-0.036145
  0
VERTEX
  8
0
 10
192.311805
 20
287.851441
 42
-0.098241
  0
VERTEX
  8
0
 10
193.286460
 20
288.536214
 42
0.209910
  0
VERTEX
  8
0
 10
196.701410
 20
292.273337
 42
0.159401
  0
VERTEX
  8
0
 10
196.759947
 20
297.887025
 42
0.158907
  0
VERTEX
  8
0
 10
193.487635
 20
302.462019
 42
0.208926
  0
VERTEX
  8
0
 10
188.537366
 20
303.583543
 42
0.056184
  0
VERTEX
  8
0
 10
187.204757
 20
303.169304
 42
0.032132
  0
VERTEX
  8
0
 10
185.706973
 20
302.393589
 42
0.031710
  0
VERTEX
  8
0
 10
184.282608
 20
301.407559
 42
0.045191
  0
VERTEX
  8
0
 10
183.167224
 20
300.349073
 42
0.035041
  0
VERTEX
  8
0
 10
182.018950
 20
298.842328
 42
0.078389
  0
VERTEX
  8
0
 10
181.427376
 20
297.534116
 42
0.078452
  0
VERTEX
  8
0
 10
181.267496
 20
296.107987
 42
0.035141
  0
VERTEX
  8
0
 10
181.484976
 20
294.228393
 42
-0.054564
  0
VERTEX
  8
0
 10
181.641909
 20
292.178999
 42
-0.056965
  0
VERTEX
  8
0
 10
181.346389
 20
290.174875
 42
-0.040439
  0
VERTEX
  8
0
 10
180.496531
 20
287.780296
 42
-0.013010
  0
VERTEX
  8
0
 10
178.863007
 20
284.380389
 42
-0.008457
  0
VERTEX
  8
0
 10
177.556062
 20
281.934996
 42
-0.013098
  0
VERTEX
  8
0
 10
176.337711
 20
279.874239
 42
-0.007349
  0
VERTEX
  8
0
 10
175.262174
 20
278.213948
 42
-0.250360
  0
VERTEX
  8
0
 10
174.861677
 20
278.000000
 42
-0.259953
  0
VERTEX
  8
0
 10
174.559649
 20
278.168406
 42
-0.044452
  0
VERTEX
  8
0
 10
174.253990
 20
278.778184
 42
-0.038696
  0
VERTEX
  8
0
 10
173.990632
 20
279.634223
 42
-0.025562
  0
VERTEX
  8
0
 10
173.816422
 20
280.649138
 42
0.054887
  0
VERTEX
  8
0
 10
173.561720
 20
281.744119
 42
0.044363
  0
VERTEX
  8
0
 10
173.061682
 20
282.843470
 42
0.045969
  0
VERTEX
  8
0
 10
172.407330
 20
283.784866
 42
0.081358
  0
VERTEX
  8
0
 10
171.691431
 20
284.399138
 42
0.188205
  0
VERTEX
  8
0
 10
169.805647
 20
284.732032
 42
0.237367
  0
VERTEX
  8
0
 10
168.427827
 20
283.655090
 42
0.110118
  0
VERTEX
  8
0
 10
167.813010
 20
280.930027
 42
0.035990
  0
VERTEX
  8
0
 10
168.100378
 20
276.795983
 42
-0.006649
  0
VERTEX
  8
0
 10
168.769133
 20
271.602077
 42
-0.040899
  0
VERTEX
  8
0
 10
168.858060
 20
268.908534
 42
-0.108917
  0
VERTEX
  8
0
 10
168.479779
 20
267.518637
 42
-0.278937
  0
VERTEX
  8
0
 10
167.622445
 20
267.000000
 42
-0.086594
  0
VERTEX
  8
0
 10
167.004766
 20
267.107783
 42
-0.043540
  0
VERTEX
  8
0
 10
166.283860
 20
267.440625
 42
-0.041499
  0
VERTEX
  8
0
 10
165.578122
 20
267.926058
 42
-0.048188
  0
VERTEX
  8
0
 10
165.000000
 20
268.500000
 42
0.077115
  0
VERTEX
  8
0
 10
164.350236
 20
269.074671
 42
0.044437
  0
VERTEX
  8
0
 10
163.422390
 20
269.559375
 42
0.043151
  0
VERTEX
  8
0
 10
162.379233
 20
269.889322
 42
0.055078
  0
VERTEX
  8
0
 10
161.377555
 20
270.000000
 42
0.196662
  0
VERTEX
  8
0
 10
159.619349
 20
269.280635
 42
0.210841
  0
VERTEX
  8
0
 10
158.936008
 20
267.562135
 42
0.135071
  0
VERTEX
  8
0
 10
159.673898
 20
265.223560
 42
0.082718
  0
VERTEX
  8
0
 10
161.634859
 20
263.072580
 42
0.056109
  0
VERTEX
  8
0
 10
163.287481
 20
262.049281
 42
0.056626
  0
VERTEX
  8
0
 10
165.121222
 20
261.422853
 42
0.040515
  0
VERTEX
  8
0
 10
167.525852
 20
261.096080
 42
0.013521
  0
VERTEX
  8
0
 10
171.078155
 20
261.000000
 42
-0.010141
  0
VERTEX
  8
0
 10
174.911918
 20
260.922232
 42
-0.054836
  0
VERTEX
  8
0
 10
176.967939
 20
260.611231
 42
-0.098144
  0
VERTEX
  8
0
 10
178.315419
 20
259.951411
 42
-0.077347
  0
VERTEX
  8
0
 10
179.443296
 20
258.777494
 42
-0.066978
  0
VERTEX
  8
0
 10
180.041673
 20
257.620377
 42
-0.027778
  0
VERTEX
  8
0
 10
180.542718
 20
255.928739
 42
-0.026873
  0
VERTEX
  8
0
 10
180.885509
 20
254.030762
 42
-0.031248
  0
VERTEX
  8
0
 10
181.000000
 20
252.200571
 42
-0.087765
  0
VERTEX
  8
0
 10
180.342148
 20
248.481648
 42
-0.091774
  0
VERTEX
  8
0
 10
178.451650
 20
245.278619
 42
-0.083186
  0
VERTEX
  8
0
 10
175.359612
 20
242.734059
 42
-0.057936
  0
VERTEX
  8
0
 10
171.200053
 20
240.941791
 42
-0.129530
  0
VERTEX
  8
0
 10
164.554383
 20
240.719266
 42
-0.093717
  0
VERTEX
  8
0
 10
157.730459
 20
243.693610
 42
-0.086183
  0
VERTEX
  8
0
 10
151.992627
 20
249.255973
 42
-0.086735
  0
VERTEX
  8
0
 10
148.481573
 20
256.415391
 42
-0.045285
  0
VERTEX
  8
0
 10
147.260637
 20
262.682670
 42
-0.043453
  0
VERTEX
  8
0
 10
147.163254
 20
269.156168
 42
-0.044387
  0
VERTEX
  8
0
 10
148.175644
 20
275.408711
 42
-0.052612
  0
VERTEX
  8
0
 10
150.251363
 20
281.019010
 42
-0.037278
  0
VERTEX
  8
0
 10
153.749939
 20
286.935538
 42
-0.029867
  0
VERTEX
  8
0
 10
158.337335
 20
292.746673
 42
-0.026714
  0
VERTEX
  8
0
 10
162.937299
 20
297.383700
 42
-0.177895
  0
VERTEX
  8
0
 10
165.905141
 20
298.582494
 42
0.010869
  0
VERTEX
  8
0
 10
168.890182
 20
298.742400
 42
0.093071
  0
VERTEX
  8
0
 10
170.177302
 20
299.085989
 42
0.200454
  0
VERTEX
  8
0
 10
170.790130
 20
299.772621
 42
0.083443
  0
VERTEX
  8
0
 10
171.000000
 20
301.021439
 42
0.187730
  0
VERTEX
  8
0
 10
170.344841
 20
302.704895
 42
0.102005
  0
VERTEX
  8
0
 10
168.518652
 20
304.023047
 42
0.042787
  0
VERTEX
  8
0
 10
164.879352
 20
305.295605
 42
0.006737
  0
VERTEX
  8
0
 10
157.500000
 20
307.081022
 42
0.000050
  0
VERTEX
  8
0
 10
153.590501
 20
307.970924
 42
0.000037
  0
VERTEX
  8
0
 10
149.281432
 20
308.950989
 42
0.000038
  0
VERTEX
  8
0
 10
145.222193
 20
309.873594
 42
0.000086
  0
VERTEX
  8
0
 10
142.160194
 20
310.568745
 42
-0.032697
  0
VERTEX
  8
0
 10
127.775580
 20
314.836863
 42
-0.019612
  0
VERTEX
  8
0
 10
111.307863
 20
321.664383
 42
-0.019614
  0
VERTEX
  8
0
 10
95.430275
 20
329.759079
 42
-0.032777
  0
VERTEX
  8
0
 10
82.862356
 20
337.925539
 42
-0.026722
  0
VERTEX
  8
0
 10
75.726466
 20
343.877530
 42
-0.024306
  0
VERTEX
  8
0
 10
69.025085
 20
350.739263
 42
-0.025176
  0
VERTEX
  8
0
 10
63.310939
 20
357.883536
 42
-0.038155
  0
VERTEX
  8
0
 10
59.167062
 20
364.672532
 42
-0.036556
  0
VERTEX
  8
0
 10
56.504374
 20
370.993908
 42
-0.029700
  0
VERTEX
  8
0
 10
54.569851
 20
378.088556
 42
-0.027905
  0
VERTEX
  8
0
 10
53.392691
 20
385.823706
 42
-0.023812
  0
VERTEX
  8
0
 10
53.000000
 20
394.064745
 42
-0.018971
  0
VERTEX
  8
0
 10
53.274501
 20
401.296912
 42
-0.031608
  0
VERTEX
  8
0
 10
54.119116
 20
407.331044
 42
-0.032453
  0
VERTEX
  8
0
 10
55.697560
 20
413.098337
 42
-0.021389
  0
VERTEX
  8
0
 10
58.215955
 20
419.500000
 42
-0.032573
  0
VERTEX
  8
0
 10
59.962415
 20
422.832681
 42
-0.004068
  0
VERTEX
  8
0
 10
64.273857
 20
429.771778
 42
-0.004966
  0
VERTEX
  8
0
 10
68.747459
 20
436.689827
 42
-0.017537
  0
VERTEX
  8
0
 10
71.818173
 20
441.000000
 42
0.042938
  0
VERTEX
  8
0
 10
74.321967
 20
444.921194
 42
0.004405
  0
VERTEX
  8
0
 10
79.342699
 20
454.716843
 42
0.002228
  0
VERTEX
  8
0
 10
84.493725
 20
465.103910
 42
0.114474
  0
VERTEX
  8
0
 10
85.000000
 20
467.286241
 42
-0.112146
  0
VERTEX
  8
0
 10
85.583369
 20
469.854473
 42
-0.005082
  0
VERTEX
  8
0
 10
89.594513
 20
478.014342
 42
-0.009242
  0
VERTEX
  8
0
 10
94.165375
 20
486.676886
 42
-0.011991
  0
VERTEX
  8
0
 10
98.688443
 20
494.432162
 42
-0.039376
  0
VERTEX
  8
0
 10
110.203210
 20
510.202231
 42
-0.030052
  0
VERTEX
  8
0
 10
125.078627
 20
525.558864
 42
-0.029960
  0
VERTEX
  8
0
 10
141.751834
 20
539.078450
 42
-0.038219
  0
VERTEX
  8
0
 10
158.668416
 20
549.334587
 42
-0.022573
  0
VERTEX
  8
0
 10
171.387218
 20
555.067678
 42
-0.015781
  0
VERTEX
  8
0
 10
186.180912
 20
560.413966
 42
-0.015887
  0
VERTEX
  8
0
 10
201.078187
 20
564.753490
 42
-0.025261
  0
VERTEX
  8
0
 10
214.085676
 20
567.406074
 42
-0.018949
  0
VERTEX
  8
0
 10
227.757781
 20
568.954363
 42
-0.012220
  0
VERTEX
  8
0
 10
243.681632
 20
569.758105
 42
-0.012016
  0
VERTEX
  8
0
 10
260.080866
 20
569.790280
 42
-0.015153
  0
SEQEND
  0
POLYLINE
  8
0
 66
1
 70
1
  0
VERTEX
  8
0
 10
192.885116
 20
209.750000
 42
0.031012
  0
VERTEX
  8
0
 10
192.937215
 20
205.841288
 42
0.077111
  0
VERTEX
  8
0
 10
193.585445
 20
203.063386
 42
0.099224
  0
VERTEX
  8
0
 10
194.913251
 20
201.041000
 42
0.078857
  0
VERTEX
  8
0
 10
197.021209
 20
199.489033
 42
0.050667
  0
VERTEX
  8
0
 10
199.985556
 20
198.318752
 42
0.106750
  0
VERTEX
  8
0
 10
202.442529
 20
198.166076
 42
0.107421
  0
VERTEX
  8
0
 10
204.733569
 20
199.040630
 42
0.051726
  0
VERTEX
  8
0
 10
207.185691
 20
201.031845
 42
0.024922
  0
VERTEX
  8
0
 10
208.893971
 20
202.919469
 42
0.096736
  0
VERTEX
  8
0
 10
209.636732
 20
204.302462
 42
0.091497
  0
VERTEX
  8
0
 10
209.825713
 20
205.903371
 42
0.020970
  0
VERTEX
  8
0
 10
209.533823
 20
208.623020
 42
-0.006866
  0
VERTEX
  8
0
 10
209.134459
 20
211.560652
 42
-0.130543
  0
VERTEX
  8
0
 10
209.261012
 20
212.470343
 42
-0.329389
  0
VERTEX
  8
0
 10
209.796974
 20
212.789111
 42
-0.043624
  0
VERTEX
  8
0
 10
211.175055
 20
212.528324
 42
-0.059276
  0
VERTEX
  8
0
 10
222.332547
 20
207.907593
 42
-0.080589
  0
VERTEX
  8
0
 10
230.847095
 20
201.135853
 42
-0.089797
  0
VERTEX
  8
0
 10
236.149876
 20
192.658486
 42
-0.095831
  0
VERTEX
  8
0
 10
237.984944
 20
183.053656
 42
-0.054780
  0
VERTEX
  8
0
 10
237.056782
 20
174.782402
 42
-0.088390
  0
VERTEX
  8
0
 10
234.320627
 20
168.265784
 42
-0.097777
  0
VERTEX
  8
0
 10
229.746694
 20
163.537211
 42
-0.081222
  0
VERTEX
  8
0
 10
223.418726
 20
160.519397
 42
-0.066731
  0
VERTEX
  8
0
 10
213.194473
 20
158.977863
 42
-0.013772
  0
VERTEX
  8
0
 10
194.941417
 20
159.181622
 42
-0.012992
  0
VERTEX
  8
0
 10
176.768805
 20
160.358818
 42
-0.080342
  0
VERTEX
  8
0
 10
167.732942
 20
162.675793
 42
-0.076359
  0
VERTEX
  8
0
 10
164.828663
 20
164.511938
 42
-0.053241
  0
VERTEX
  8
0
 10
162.186499
 20
167.358267
 42
-0.055607
  0
VERTEX
  8
0
 10
160.429213
 20
170.352425
 42
-0.199080
  0
VERTEX
  8
0
 10
160.371367
 20
172.525384
 42
-0.255842
  0
VERTEX
  8
0
 10
161.781249
 20
173.721250
 42
-0.069782
  0
VERTEX
  8
0
 10
164.798247
 20
173.912093
 42
-0.050080
  0
VERTEX
  8
0
 10
168.934049
 20
173.175549
 42
-0.027417
  0
VERTEX
  8
0
 10
173.807721
 20
171.500000
 42
0.042368
  0
VERTEX
  8
0
 10
179.701424
 20
169.668653
 42
0.047690
  0
VERTEX
  8
0
 10
185.589128
 20
168.951091
 42
0.053451
  0
VERTEX
  8
0
 10
190.710550
 20
169.365968
 42
0.120297
  0
VERTEX
  8
0
 10
194.234031
 20
170.969449
 42
0.144058
  0
VERTEX
  8
0
 10
196.769238
 20
174.534678
 42
0.098081
  0
VERTEX
  8
0
 10
197.450487
 20
179.496428
 42
0.097017
  0
VERTEX
  8
0
 10
196.187730
 20
184.390350
 42
0.137209
  0
VERTEX
  8
0
 10
193.240761
 20
187.759456
 42
0.081711
  0
VERTEX
  8
0
 10
191.185322
 20
188.668397
 42
0.042631
  0
VERTEX
  8
0
 10
188.416416
 20
189.138253
 42
0.021834
  0
VERTEX
  8
0
 10
184.047632
 20
189.309671
 42
0.003778
  0
VERTEX
  8
0
 10
175.774197
 20
189.210373
 42
-0.006056
  0
VERTEX
  8
0
 10
164.405218
 20
189.125709
 42
-0.122739
  0
VERTEX
  8
0
 10
161.088282
 20
189.968852
 42
-0.369808
  0
VERTEX
  8
0
 10
160.322279
 20
191.948498
 42
-0.047753
  0
VERTEX
  8
0
 10
162.390699
 20
196.403704
 42
-0.053919
  0
VERTEX
  8
0
 10
166.454860
 20
201.887154
 42
-0.050973
  0
VERTEX
  8
0
 10
171.668627
 20
206.491252
 42
-0.049046
  0
VERTEX
  8
0
 10
177.905093
 20
210.091127
 42
-0.043033
  0
VERTEX
  8
0
 10
185.000000
 20
212.596724
 42
-0.008790
  0
VERTEX
  8
0
 10
190.197989
 20
213.846139
 42
-0.142139
  0
VERTEX
  8
0
 10
191.976460
 20
213.732024
 42
-0.287037
  0
VERTEX
  8
0
 10
192.800712
 20
212.681506
 42
-0.038750
  0
SEQEND
  0
POLYLINE
  8
0
 66
1
 70
1
  0
VERTEX
  8
0
 10
153.841712
 20
208.133980
 42
-0.014571
  0
VERTEX
  8
0
 10
154.718738
 20
204.862923
 42
-0.071090
  0
VERTEX
  8
0
 10
154.892291
 20
202.958390
 42
-0.075212
  0
VERTEX
  8
0
 10
154.519660
 20
201.131464
 42
-0.017434
  0
VERTEX
  8
0
 10
153.334904
 20
198.217881
 42
0.020061
  0
VERTEX
  8
0
 10
151.532764
 20
193.718425
 42
0.030385
  0
VERTEX
  8
0
 10
150.367386
 20
189.667095
 42
0.033724
  0
VERTEX
  8
0
 10
149.862848
 20
186.371567
 42
0.149780
  0
VERTEX
  8
0
 10
150.272010
 20
184.478429
 42
-0.092655
  0
VERTEX
  8
0
 10
150.586730
 20
183.545696
 42
-0.024944
  0
VERTEX
  8
0
 10
150.728933
 20
181.983228
 42
-0.024372
  0
VERTEX
  8
0
 10
150.714622
 20
180.160078
 42
-0.023071
  0
VERTEX
  8
0
 10
150.524221
 20
178.312948
 42
0.000000
  0
VERTEX
  8
0
 10
149.848343
 20
173.805869
 42
0.000000
  0
VERTEX
  8
0
 10
146.174171
 20
174.484514
 42
-0.052042
  0
VERTEX
  8
0
 10
140.959974
 20
176.021430
 42
-0.018450
  0
VERTEX
  8
0
 10
133.872658
 20
179.250621
 42
-0.016316
  0
VERTEX
  8
0
 10
127.192769
 20
182.874327
 42
-0.093924
  0
VERTEX
  8
0
 10
124.174040
 20
185.505874
 42
-0.070508
  0
VERTEX
  8
0
 10
121.711253
 20
189.750589
 42
-0.121896
  0
VERTEX
  8
0
 10
121.135519
 20
193.767566
 42
-0.118328
  0
VERTEX
  8
0
 10
122.498359
 20
197.672330
 42
-0.064132
  0
VERTEX
  8
0
 10
125.791357
 20
201.586264
 42
-0.033328
  0
VERTEX
  8
0
 10
129.376804
 20
204.465704
 42
-0.040341
  0
VERTEX
  8
0
 10
133.099788
 20
206.643833
 42
-0.034610
  0
VERTEX
  8
0
 10
137.567290
 20
208.425743
 42
-0.016666
  0
VERTEX
  8
0
 10
143.500000
 20
210.112480
 42
-0.004932
  0
VERTEX
  8
0
 10
149.784249
 20
211.609160
 42
-0.103611
  0
VERTEX
  8
0
 10
151.700590
 20
211.642618
 42
-0.238380
  0
VERTEX
  8
0
 10
152.820862
 20
210.778448
 42
-0.038675
  0
SEQEND
  0
POLYLINE
  8
0
 66
1
 70
1
  0
VERTEX
  8
0
 10
351.289037
 20
204.415933
 42
-0.062713
  0
VERTEX
  8
0
 10
355.978125
 20
200.403802
 42
-0.096638
  0
VERTEX
  8
0
 10
358.737337
 20
195.853559
 42
-0.109787
  0
VERTEX
  8
0
 10
359.385061
 20
191.038864
 42
-0.101036
  0
VERTEX
  8
0
 10
357.972812
 20
186.242677
 42
-0.169997
  0
VERTEX
  8
0
 10
349.603933
 20
178.504299
 42
-0.051016
  0
VERTEX
  8
0
 10
332.818970
 20
173.172804
 42
-0.032816
  0
VERTEX
  8
0
 10
306.902410
 20
169.520478
 42
-0.010198
  0
VERTEX
  8
0
 10
267.610039
 20
167.396613
 42
0.000000
  0
VERTEX
  8
0
 10
246.720078
 20
166.694352
 42
0.000000
  0
VERTEX
  8
0
 10
247.413357
 20
170.597176
 42
-0.009015
  0
VERTEX
  8
0
 10
248.407642
 20
175.662437
 42
-0.148782
  0
VERTEX
  8
0
 10
249.234885
 20
177.150921
 42
-0.211351
  0
VERTEX
  8
0
 10
250.646631
 20
177.668763
 42
-0.020893
  0
VERTEX
  8
0
 10
254.325155
 20
177.274473
 42
0.035360
  0
VERTEX
  8
0
 10
263.874686
 20
176.529361
 42
0.012082
  0
VERTEX
  8
0
 10
277.774389
 20
176.765478
 42
0.012325
  0
VERTEX
  8
0
 10
292.436974
 20
177.731648
 42
0.019585
  0
VERTEX
  8
0
 10
304.907250
 20
179.357055
 42
0.023869
  0
VERTEX
  8
0
 10
319.777727
 20
182.627851
 42
0.074549
  0
VERTEX
  8
0
 10
329.136935
 20
186.729701
 42
0.138287
  0
VERTEX
  8
0
 10
333.688382
 20
191.773937
 42
0.191553
  0
VERTEX
  8
0
 10
334.174579
 20
197.782829
 42
-0.036774
  0
VERTEX
  8
0
 10
333.682177
 20
199.941484
 42
-0.119856
  0
VERTEX
  8
0
 10
333.809871
 20
201.391780
 42
-0.084449
  0
VERTEX
  8
0
 10
334.621237
 20
202.895176
 42
-0.012791
  0
VERTEX
  8
0
 10
336.800994
 20
205.541779
 42
0.000000
  0
VERTEX
  8
0
 10
340.500000
 20
209.805906
 42
0.000000
  0
VERTEX
  8
0
 10
344.000000
 20
208.358908
 42
-0.017180
  0
VERTEX
  8
0
 10
345.611832
 20
207.626727
 42
-0.008781
  0
VERTEX
  8
0
 10
347.584905
 20
206.603772
 42
-0.008714
  0
VERTEX
  8
0
 10
349.583317
 20
205.477287
 42
-0.012944
  0
SEQEND
  0
POLYLINE
  8
0
 66
1
 70
1
  0
VERTEX
  8
0
 10
14.789171
 20
136.874336
 42
-0.004335
  0
VERTEX
  8
0
 10
14.557009
 20
131.000925
 42
-0.053433
  0
VERTEX
  8
0
 10
14.211784
 20
128.790682
 42
-0.165640
  0
VERTEX
  8
0
 10
13.493936
 20
127.718568
 42
-0.128625
  0
VERTEX
  8
0
 10
12.190584
 20
127.172663
 42
0.179708
  0
VERTEX
  8
0
 10
10.597532
 20
126.309760
 42
0.210621
  0
VERTEX
  8
0
 10
10.087697
 20
124.682267
 42
0.183269
  0
VERTEX
  8
0
 10
10.935948
 20
123.029217
 42
0.149370
  0
VERTEX
  8
0
 10
12.750000
 20
122.180449
 42
-0.128200
  0
VERTEX
  8
0
 10
14.007194
 20
121.654704
 42
-0.171937
  0
VERTEX
  8
0
 10
14.678068
 20
120.628842
 42
-0.055234
  0
VERTEX
  8
0
 10
14.949975
 20
118.520404
 42
-0.004474
  0
VERTEX
  8
0
 10
15.000000
 20
112.930449
 42
0.000000
  0
VERTEX
  8
0
 10
15.000000
 20
104.000000
 42
0.000000
  0
VERTEX
  8
0
 10
24.750000
 20
104.005577
 42
0.009330
  0
VERTEX
  8
0
 10
28.751765
 20
104.082546
 42
0.009575
  0
VERTEX
  8
0
 10
32.713334
 20
104.308762
 42
0.009368
  0
VERTEX
  8
0
 10
36.139465
 20
104.634970
 42
0.039335
  0
VERTEX
  8
0
 10
38.167734
 20
105.029866
 42
0.198015
  0
VERTEX
  8
0
 10
45.984781
 20
111.120468
 42
0.111003
  0
VERTEX
  8
0
 10
49.564522
 20
122.824139
 42
0.106871
  0
VERTEX
  8
0
 10
47.843029
 20
135.291996
 42
0.174762
  0
VERTEX
  8
0
 10
41.077944
 20
143.386487
 42
0.054348
  0
VERTEX
  8
0
 10
38.808769
 20
144.399854
 42
0.036942
  0
VERTEX
  8
0
 10
36.057319
 20
145.066087
 42
0.024229
  0
VERTEX
  8
0
 10
32.244993
 20
145.507479
 42
0.007140
  0
VERTEX
  8
0
 10
26.367672
 20
145.816548
 42
0.000000
  0
VERTEX
  8
0
 10
15.078342
 20
146.248672
 42
0.000000
  0
SEQEND
  0
POLYLINE
  8
0
 66
1
 70
1
  0
VERTEX
  8
0
 10
37.986678
 20
135.465337
 42
-0.054122
  0
VERTEX
  8
0
 10
39.375052
 20
133.737022
 42
-0.086594
  0
VERTEX
  8
0
 10
40.103152
 20
131.994834
 42
-0.048391
  0
VERTEX
  8
0
 10
40.424613
 20
129.465145
 42
-0.007423
  0
VERTEX
  8
0
 10
40.500000
 20
124.387628
 42
-0.006706
  0
VERTEX
  8
0
 10
40.428854
 20
119.082869
 42
-0.055927
  0
VERTEX
  8
0
 10
40.097619
 20
116.707609
 42
-0.104066
  0
VERTEX
  8
0
 10
39.304689
 20
115.097809
 42
-0.048907
  0
VERTEX
  8
0
 10
37.694236
 20
113.412886
 42
-0.044937
  0
VERTEX
  8
0
 10
35.983176
 20
112.190200
 42
-0.065483
  0
VERTEX
  8
0
 10
34.277809
 20
111.469484
 42
-0.050620
  0
VERTEX
  8
0
 10
32.137272
 20
111.106632
 42
-0.016693
  0
VERTEX
  8
0
 10
28.944236
 20
111.000000
 42
0.000000
  0
VERTEX
  8
0
 10
23.000000
 20
111.000000
 42
0.000000
  0
VERTEX
  8
0
 10
23.000000
 20
116.500000
 42
0.000000
  0
VERTEX
  8
0
 10
23.000000
 20
122.000000
 42
0.000000
  0
VERTEX
  8
0
 10
27.500000
 20
122.000000
 42
0.012799
  0
VERTEX
  8
0
 10
30.160555
 20
122.068119
 42
0.111986
  0
VERTEX
  8
0
 10
31.289407
 20
122.385695
 42
0.209110
  0
VERTEX
  8
0
 10
31.829496
 20
123.079821
 42
0.062319
  0
VERTEX
  8
0
 10
32.000000
 20
124.442502
 42
0.065109
  0
VERTEX
  8
0
 10
31.825154
 20
125.779525
 42
0.186214
  0
VERTEX
  8
0
 10
31.283522
 20
126.525079
 42
0.109891
  0
VERTEX
  8
0
 10
30.167569
 20
126.939278
 42
0.016069
  0
VERTEX
  8
0
 10
27.750000
 20
127.192502
 42
0.000000
  0
VERTEX
  8
0
 10
23.500000
 20
127.500000
 42
0.000000
  0
VERTEX
  8
0
 10
23.195676
 20
133.398134
 42
0.000000
  0
VERTEX
  8
0
 10
22.891352
 20
139.296269
 42
0.000000
  0
VERTEX
  8
0
 10
29.182354
 20
138.638729
 42
-0.017003
  0
VERTEX
  8
0
 10
32.401537
 20
138.191163
 42
-0.043476
  0
VERTEX
  8
0
 10
34.675311
 20
137.588615
 42
-0.056642
  0
VERTEX
  8
0
 10
36.431905
 20
136.720271
 42
-0.053459
  0
SEQEND
  0
POLYLINE
  8
0
 66
1
 70
1
  0
VERTEX
  8
0
 10
367.666667
 20
145.333333
 42
0.189293
  0
VERTEX
  8
0
 10
367.396300
 20
144.713378
 42
0.001337
  0
VERTEX
  8
0
 10
367.195833
 20
138.889583
 42
0.004867
  0
VERTEX
  8
0
 10
367.048101
 20
132.175859
 42
0.003067
  0
VERTEX
  8
0
 10
367.000000
 20
124.333333
 42
0.000000
  0
VERTEX
  8
0
 10
367.000000
 20
104.000000
 42
0.000000
  0
VERTEX
  8
0
 10
370.886581
 20
104.000000
 42
0.000000
  0
VERTEX
  8
0
 10
374.773161
 20
104.000000
 42
0.000000
  0
VERTEX
  8
0
 10
375.165994
 20
114.612171
 42
-0.005162
  0
VERTEX
  8
0
 10
375.463947
 20
120.903344
 42
-0.039253
  0
VERTEX
  8
0
 10
375.866260
 20
123.840748
 42
-0.085273
  0
VERTEX
  8
0
 10
376.596686
 20
125.644755
 42
-0.084019
  0
VERTEX
  8
0
 10
377.890198
 20
127.112171
 42
-0.056627
  0
VERTEX
  8
0
 10
380.001703
 20
128.458217
 42
-0.112082
  0
VERTEX
  8
0
 10
381.925583
 20
128.911033
 42
-0.127029
  0
VERTEX
  8
0
 10
383.694396
 20
128.469207
 42
-0.084639
  0
VERTEX
  8
0
 10
385.345012
 20
127.171259
 42
-0.105606
  0
VERTEX
  8
0
 10
386.177229
 20
125.734908
 42
-0.045799
  0
VERTEX
  8
0
 10
386.668385
 20
123.570717
 42
-0.026619
  0
VERTEX
  8
0
 10
386.929840
 20
120.243017
 42
-0.006296
  0
VERTEX
  8
0
 10
387.000000
 20
114.671259
 42
0.000000
  0
VERTEX
  8
0
 10
387.000000
 20
104.000000
 42
0.000000
  0
VERTEX
  8
0
 10
391.000000
 20
104.000000
 42
0.000000
  0
VERTEX
  8
0
 10
395.000000
 20
104.000000
 42
0.000000
  0
VERTEX
  8
0
 10
395.000000
 20
115.549660
 42
0.014189
  0
VERTEX
  8
0
 10
394.759205
 20
124.033348
 42
0.063823
  0
VERTEX
  8
0
 10
393.851899
 20
128.902515
 42
0.113134
  0
VERTEX
  8
0
 10
392.051009
 20
131.927339
 42
0.104321
  0
VERTEX
  8
0
 10
389.063824
 20
133.973563
 42
0.077436
  0
VERTEX
  8
0
 10
386.199264
 20
134.668912
 42
0.054571
  0
VERTEX
  8
0
 10
382.880528
 20
134.584396
 42
0.056723
  0
VERTEX
  8
0
 10
379.869074
 20
133.822443
 42
0.129957
  0
VERTEX
  8
0
 10
377.978038
 20
132.473538
 42
-0.100244
  0
VERTEX
  8
0
 10
376.557025
 20
131.328523
 42
-0.419927
  0
VERTEX
  8
0
 10
375.620343
 20
131.635503
 42
-0.104183
  0
VERTEX
  8
0
 10
375.106345
 20
133.637220
 42
-0.010933
  0
VERTEX
  8
0
 10
375.000000
 20
138.500000
 42
0.000000
  0
VERTEX
  8
0
 10
375.000000
 20
146.000000
 42
0.000000
  0
VERTEX
  8
0
 10
371.666667
 20
146.000000
 42
0.018427
  0
VERTEX
  8
0
 10
370.341558
 20
145.951148
 42
0.022866
  0
VERTEX
  8
0
 10
369.116667
 20
145.804167
 42
0.022027
  0
VERTEX
  8
0
 10
368.120244
 20
145.592625
 42
0.133830
  0
SEQEND
  0
POLYLINE
  8
0
 66
1
 70
1
  0
VERTEX
  8
0
 10
436.474198
 20
144.958252
 42
0.146340
  0
VERTEX
  8
0
 10
436.251932
 20
144.132571
 42
0.003265
  0
VERTEX
  8
0
 10
436.394120
 20
139.975405
 42
0.007104
  0
VERTEX
  8
0
 10
436.663593
 20
135.074420
 42
0.004711
  0
VERTEX
  8
0
 10
437.105702
 20
129.458252
 42
0.002532
  0
VERTEX
  8
0
 10
437.955786
 20
120.348412
 42
0.034206
  0
VERTEX
  8
0
 10
438.509985
 20
117.050611
 42
0.126092
  0
VERTEX
  8
0
 10
439.295467
 20
115.562757
 42
0.211626
  0
VERTEX
  8
0
 10
440.565521
 20
115.000000
 42
0.239127
  0
VERTEX
  8
0
 10
442.271534
 20
115.865390
 42
0.104306
  0
VERTEX
  8
0
 10
443.345485
 20
118.244275
 42
0.036762
  0
VERTEX
  8
0
 10
444.042538
 20
123.095481
 42
0.004561
  0
VERTEX
  8
0
 10
444.683631
 20
133.750000
 42
0.000000
  0
VERTEX
  8
0
 10
445.308645
 20
146.000000
 42
0.000000
  0
VERTEX
  8
0
 10
441.213339
 20
146.000000
 42
0.023610
  0
VERTEX
  8
0
 10
439.598137
 20
145.923689
 42
0.030498
  0
VERTEX
  8
0
 10
438.131903
 20
145.693986
 42
0.031372
  0
VERTEX
  8
0
 10
436.974246
 20
145.362226
 42
0.170473
  0
SEQEND
  0
POLYLINE
  8
0
 66
1
 70
1
  0
VERTEX
  8
0
 10
61.328737
 20
133.604658
 42
0.056600
  0
VERTEX
  8
0
 10
59.282893
 20
132.378832
 42
0.056223
  0
VERTEX
  8
0
 10
57.558897
 20
130.723034
 42
0.061374
  0
VERTEX
  8
0
 10
56.389870
 20
128.901801
 42
0.112485
  0
VERTEX
  8
0
 10
56.000000
 20
127.190741
 42
0.231571
  0
VERTEX
  8
0
 10
56.197055
 20
126.788082
 42
0.046989
  0
VERTEX
  8
0
 10
56.887370
 20
126.348869
 42
0.040687
  0
VERTEX
  8
0
 10
57.863844
 20
125.945873
 42
0.028179
  0
VERTEX
  8
0
 10
59.020833
 20
125.645833
 42
0.041115
  0
VERTEX
  8
0
 10
60.559915
 20
125.467723
 42
0.075492
  0
VERTEX
  8
0
 10
61.810269
 20
125.615532
 42
0.079398
  0
VERTEX
  8
0
 10
62.918266
 20
126.119438
 42
0.050068
  0
VERTEX
  8
0
 10
64.020833
 20
127.020833
 42
-0.119463
  0
VERTEX
  8
0
 10
66.731008
 20
128.673515
 42
-0.134680
  0
VERTEX
  8
0
 10
69.771382
 20
128.801442
 42
-0.160034
  0
VERTEX
  8
0
 10
72.095130
 20
127.398787
 42
-0.179477
  0
VERTEX
  8
0
 10
73.000000
 20
124.959130
 42
-0.194791
  0
VERTEX
  8
0
 10
72.663175
 20
124.127352
 42
-0.083148
  0
VERTEX
  8
0
 10
71.679548
 20
123.402075
 42
-0.048057
  0
VERTEX
  8
0
 10
69.958399
 20
122.727762
 42
-0.014752
  0
VERTEX
  8
0
 10
67.250000
 20
122.042370
 42
0.022173
  0
VERTEX
  8
0
 10
60.727039
 20
120.288289
 42
0.100140
  0
VERTEX
  8
0
 10
57.296336
 20
118.384369
 42
0.147745
  0
VERTEX
  8
0
 10
55.575031
 20
115.705780
 42
0.069562
  0
VERTEX
  8
0
 10
55.000000
 20
111.592527
 42
0.106126
  0
VERTEX
  8
0
 10
55.698280
 20
108.339715
 42
0.112746
  0
VERTEX
  8
0
 10
57.663253
 20
105.741275
 42
0.103406
  0
VERTEX
  8
0
 10
60.718785
 20
104.100852
 42
0.077227
  0
VERTEX
  8
0
 10
64.519091
 20
103.594425
 42
0.032176
  0
VERTEX
  8
0
 10
66.376420
 20
103.754548
 42
0.025381
  0
VERTEX
  8
0
 10
68.354136
 20
104.157676
 42
0.026018
  0
VERTEX
  8
0
 10
70.158472
 20
104.723455
 42
0.056099
  0
VERTEX
  8
0
 10
71.456100
 20
105.379279
 42
-0.013367
  0
VERTEX
  8
0
 10
72.962788
 20
106.309905
 42
-0.119950
  0
VERTEX
  8
0
 10
73.702102
 20
106.528767
 42
-0.246864
  0
VERTEX
  8
0
 10
74.199165
 20
106.297791
 42
-0.071457
  0
VERTEX
  8
0
 10
74.624999
 20
105.534854
 42
0.141838
  0
VERTEX
  8
0
 10
75.128890
 20
104.869541
 42
0.077445
  0
VERTEX
  8
0
 10
76.041376
 20
104.387260
 42
0.055950
  0
VERTEX
  8
0
 10
77.356758
 20
104.093323
 42
0.027023
  0
VERTEX
  8
0
 10
79.082238
 20
104.000000
 42
0.010429
  0
VERTEX
  8
0
 10
81.537197
 20
104.051213
 42
0.172603
  0
VERTEX
  8
0
 10
82.284424
 20
104.352750
 42
0.281491
  0
VERTEX
  8
0
 10
82.477566
 20
104.984679
 42
0.027798
  0
VERTEX
  8
0
 10
81.975249
 20
106.565100
 42
-0.061780
  0
VERTEX
  8
0
 10
81.595073
 20
108.119184
 42
-0.009577
  0
VERTEX
  8
0
 10
81.286479
 20
111.278698
 42
-0.010550
  0
VERTEX
  8
0
 10
81.071497
 20
115.038925
 42
-0.009003
  0
VERTEX
  8
0
 10
81.000000
 20
119.009336
 42
0.006295
  0
VERTEX
  8
0
 10
80.927796
 20
124.744568
 42
0.038439
  0
VERTEX
  8
0
 10
80.626247
 20
127.690160
 42
0.071618
  0
VERTEX
  8
0
 10
79.962944
 20
129.679423
 42
0.061459
  0
VERTEX
  8
0
 10
78.738673
 20
131.517422
 42
0.051963
  0
VERTEX
  8
0
 10
77.298105
 20
132.877316
 42
0.074025
  0
VERTEX
  8
0
 10
75.760469
 20
133.727314
 42
0.054328
  0
VERTEX
  8
0
 10
73.705337
 20
134.249135
 42
0.016274
  0
VERTEX
  8
0
 10
70.488673
 20
134.596463
 42
0.018649
  0
VERTEX
  8
0
 10
67.683731
 20
134.702325
 42
0.027078
  0
VERTEX
  8
0
 10
65.210605
 20
134.569359
 42
0.031045
  0
VERTEX
  8
0
 10
63.083062
 20
134.204314
 42
0.048724
  0
SEQEND
  0
POLYLINE
  8
0
 66
1
 70
1
  0
VERTEX
  8
0
 10
73.000000
 20
115.328741
 42
-0.130515
  0
VERTEX
  8
0
 10
72.138491
 20
112.084547
 42
-0.131751
  0
VERTEX
  8
0
 10
69.783026
 20
109.708837
 42
-0.150449
  0
VERTEX
  8
0
 10
66.802844
 20
109.014103
 42
-0.180877
  0
VERTEX
  8
0
 10
64.200000
 20
110.200000
 42
-0.113775
  0
VERTEX
  8
0
 10
63.148530
 20
111.881516
 42
-0.163025
  0
VERTEX
  8
0
 10
63.132762
 20
113.625623
 42
-0.138442
  0
VERTEX
  8
0
 10
64.208123
 20
115.234138
 42
-0.074224
  0
VERTEX
  8
0
 10
66.250000
 20
116.509132
 42
-0.024162
  0
VERTEX
  8
0
 10
69.565409
 20
117.763476
 42
-0.122229
  0
VERTEX
  8
0
 10
71.523247
 20
117.901001
 42
-0.242041
  0
VERTEX
  8
0
 10
72.599908
 20
117.085793
 42
-0.112415
  0
SEQEND
  0
POLYLINE
  8
0
 66
1
 70
1
  0
VERTEX
  8
0
 10
100.711442
 20
133.107799
 42
-0.011329
  0
VERTEX
  8
0
 10
98.788530
 20
132.181718
 42
-0.073194
  0
VERTEX
  8
0
 10
97.756256
 20
131.884839
 42
-0.232671
  0
VERTEX
  8
0
 10
97.227668
 20
132.061944
 42
-0.200185
  0
VERTEX
  8
0
 10
97.000000
 20
132.607799
 42
0.201860
  0
VERTEX
  8
0
 10
96.740700
 20
133.223902
 42
0.110224
  0
VERTEX
  8
0
 10
96.031713
 20
133.662987
 42
0.062543
  0
VERTEX
  8
0
 10
94.812670
 20
133.922834
 42
0.021276
  0
VERTEX
  8
0
 10
93.000000
 20
134.000000
 42
0.000000
  0
VERTEX
  8
0
 10
89.000000
 20
134.000000
 42
0.000000
  0
VERTEX
  8
0
 10
89.000000
 20
119.000000
 42
0.000000
  0
VERTEX
  8
0
 10
89.000000
 20
104.000000
 42
0.000000
  0
VERTEX
  8
0
 10
93.000000
 20
104.000000
 42
0.000000
  0
VERTEX
  8
0
 10
97.000000
 20
104.000000
 42
0.000000
  0
VERTEX
  8
0
 10
97.000000
 20
114.045455
 42
-0.005514
  0
VERTEX
  8
0
 10
97.067050
 20
120.125108
 42
-0.042987
  0
VERTEX
  8
0
 10
97.372172
 20
122.939933
 42
-0.086807
  0
VERTEX
  8
0
 10
98.082918
 20
124.788411
 42
-0.061362
  0
VERTEX
  8
0
 10
99.454545
 20
126.545455
 42
-0.040203
  0
VERTEX
  8
0
 10
101.414802
 20
128.213503
 42
-0.120512
  0
VERTEX
  8
0
 10
103.033440
 20
128.869045
 42
-0.136670
  0
VERTEX
  8
0
 10
104.646697
 20
128.663512
 42
-0.058163
  0
VERTEX
  8
0
 10
106.558870
 20
127.582414
 42
-0.121530
  0
VERTEX
  8
0
 10
107.601065
 20
126.340436
 42
-0.069084
  0
VERTEX
  8
0
 10
108.218454
 20
124.466959
 42
-0.032374
  0
VERTEX
  8
0
 10
108.584367
 20
121.317379
 42
-0.005100
  0
VERTEX
  8
0
 10
108.838476
 20
115.082414
 42
0.000000
  0
VERTEX
  8
0
 10
109.176952
 20
104.000000
 42
0.000000
  0
VERTEX
  8
0
 10
113.088476
 20
104.000000
 42
0.000000
  0
VERTEX
  8
0
 10
117.000000
 20
104.000000
 42
0.000000
  0
VERTEX
  8
0
 10
116.994423
 20
114.250000
 42
0.013331
  0
VERTEX
  8
0
 10
116.753804
 20
123.092428
 42
0.056270
  0
VERTEX
  8
0
 10
115.877227
 20
128.315213
 42
0.101670
  0
VERTEX
  8
0
 10
114.191139
 20
131.543229
 42
0.123376
  0
VERTEX
  8
0
 10
111.463058
 20
133.579882
 42
0.031771
  0
VERTEX
  8
0
 10
108.416334
 20
134.631157
 42
0.078314
  0
VERTEX
  8
0
 10
106.072144
 20
134.895829
 42
0.077047
  0
VERTEX
  8
0
 10
103.737177
 20
134.428169
 42
0.030014
  0
SEQEND
  0
POLYLINE
  8
0
 66
1
 70
1
  0
VERTEX
  8
0
 10
130.084806
 20
133.248446
 42
0.161676
  0
VERTEX
  8
0
 10
124.994480
 20
128.072381
 42
0.106299
  0
VERTEX
  8
0
 10
122.952761
 20
119.894646
 42
0.105970
  0
VERTEX
  8
0
 10
124.451156
 20
111.579476
 42
0.159802
  0
VERTEX
  8
0
 10
129.189824
 20
106.025635
 42
0.061612
  0
VERTEX
  8
0
 10
132.392148
 20
104.578471
 42
0.076456
  0
VERTEX
  8
0
 10
135.622067
 20
104.094415
 42
0.081725
  0
VERTEX
  8
0
 10
138.674716
 20
104.608821
 42
0.084321
  0
VERTEX
  8
0
 10
141.365141
 20
106.072580
 42
0.000000
  0
VERTEX
  8
0
 10
144.000000
 20
108.145160
 42
0.000000
  0
VERTEX
  8
0
 10
144.000000
 20
104.272580
 42
-0.028119
  0
VERTEX
  8
0
 10
143.911607
 20
102.702065
 42
-0.029971
  0
VERTEX
  8
0
 10
143.647500
 20
101.185070
 42
-0.031398
  0
VERTEX
  8
0
 10
143.262846
 20
99.919531
 42
-0.107296
  0
VERTEX
  8
0
 10
142.800000
 20
99.200000
 42
-0.143866
  0
VERTEX
  8
0
 10
141.137779
 20
98.292730
 42
-0.059010
  0
VERTEX
  8
0
 10
138.555054
 20
98.044097
 42
-0.058383
  0
VERTEX
  8
0
 10
135.921192
 20
98.411358
 42
-0.117317
  0
VERTEX
  8
0
 10
134.078741
 20
99.391131
 42
0.071856
  0
VERTEX
  8
0
 10
133.186968
 20
99.973923
 42
0.022857
  0
VERTEX
  8
0
 10
131.715318
 20
100.578293
 42
0.022287
  0
VERTEX
  8
0
 10
129.992872
 20
101.109977
 42
0.023088
  0
VERTEX
  8
0
 10
128.250000
 20
101.479029
 42
0.012129
  0
VERTEX
  8
0
 10
125.929421
 20
101.801891
 42
0.084057
  0
VERTEX
  8
0
 10
124.787184
 20
101.740454
 42
0.207730
  0
VERTEX
  8
0
 10
124.217721
 20
101.324301
 42
0.133300
  0
VERTEX
  8
0
 10
124.000000
 20
100.522156
 42
0.141916
  0
VERTEX
  8
0
 10
125.087433
 20
96.768075
 42
0.127464
  0
VERTEX
  8
0
 10
128.048958
 20
93.990617
 42
0.092641
  0
VERTEX
  8
0
 10
132.863844
 20
92.421577
 42
0.046712
  0
VERTEX
  8
0
 10
139.269108
 20
92.185048
 42
0.011760
  0
VERTEX
  8
0
 10
143.389088
 20
92.515204
 42
0.062274
  0
VERTEX
  8
0
 10
145.590142
 20
93.025625
 42
0.087126
  0
VERTEX
  8
0
 10
147.243652
 20
93.985740
 42
0.035439
  0
VERTEX
  8
0
 10
149.117151
 20
95.805085
 42
0.000000
  0
VERTEX
  8
0
 10
152.000000
 20
99.031553
 42
0.000000
  0
VERTEX
  8
0
 10
152.000000
 20
116.515777
 42
0.000000
  0
VERTEX
  8
0
 10
152.000000
 20
134.000000
 42
0.000000
  0
VERTEX
  8
0
 10
148.500000
 20
134.000000
 42
0.025493
  0
VERTEX
  8
0
 10
146.894883
 20
133.918109
 42
0.075999
  0
VERTEX
  8
0
 10
145.832579
 20
133.642718
 42
0.129641
  0
VERTEX
  8
0
 10
145.225893
 20
133.168744
 42
0.163881
  0
VERTEX
  8
0
 10
145.000000
 20
132.498057
 42
-0.160878
  0
VERTEX
  8
0
 10
144.791651
 20
131.867279
 42
-0.272946
  0
VERTEX
  8
0
 10
144.295048
 20
131.657412
 42
-0.080154
  0
VERTEX
  8
0
 10
143.300903
 20
131.957368
 42
-0.009751
  0
VERTEX
  8
0
 10
141.264809
 20
132.998057
 42
0.034756
  0
VERTEX
  8
0
 10
138.118189
 20
134.412778
 42
0.082850
  0
VERTEX
  8
0
 10
135.607973
 20
134.889595
 42
0.085425
  0
VERTEX
  8
0
 10
133.126515
 20
134.519521
 42
0.038692
  0
SEQEND
  0
POLYLINE
  8
0
 66
1
 70
1
  0
VERTEX
  8
0
 10
140.433725
 20
127.848243
 42
-0.085825
  0
VERTEX
  8
0
 10
142.264889
 20
126.598816
 42
-0.103626
  0
VERTEX
  8
0
 10
143.428215
 20
124.877388
 42
-0.074565
  0
VERTEX
  8
0
 10
144.035055
 20
122.385994
 42
-0.025973
  0
VERTEX
  8
0
 10
144.176227
 20
118.685755
 42
-0.070905
  0
VERTEX
  8
0
 10
143.672201
 20
115.467932
 42
-0.100810
  0
VERTEX
  8
0
 10
142.293633
 20
112.931753
 42
-0.112508
  0
VERTEX
  8
0
 10
140.166910
 20
111.322056
 42
-0.106354
  0
VERTEX
  8
0
 10
137.507937
 20
110.750000
 42
-0.097962
  0
VERTEX
  8
0
 10
134.980264
 20
111.250028
 42
-0.131168
  0
VERTEX
  8
0
 10
133.129942
 20
112.660878
 42
-0.100156
  0
VERTEX
  8
0
 10
131.906444
 20
115.137463
 42
-0.040877
  0
VERTEX
  8
0
 10
131.240321
 20
118.850726
 42
-0.018086
  0
VERTEX
  8
0
 10
131.069659
 20
121.709563
 42
-0.073429
  0
VERTEX
  8
0
 10
131.283239
 20
123.435283
 42
-0.091625
  0
VERTEX
  8
0
 10
131.959753
 20
124.826979
 42
-0.037564
  0
VERTEX
  8
0
 10
133.334485
 20
126.425394
 42
-0.025390
  0
VERTEX
  8
0
 10
135.295212
 20
128.196496
 42
-0.122116
  0
VERTEX
  8
0
 10
136.645446
 20
128.833530
 42
-0.127999
  0
VERTEX
  8
0
 10
138.103621
 20
128.750600
 42
-0.029033
  0
SEQEND
  0
POLYLINE
  8
0
 66
1
 70
1
  0
VERTEX
  8
0
 10
182.084806
 20
133.248446
 42
0.048067
  0
VERTEX
  8
0
 10
180.643126
 20
132.325937
 42
0.029626
  0
VERTEX
  8
0
 10
179.133851
 20
130.990064
 42
0.029555
  0
VERTEX
  8
0
 10
177.785926
 20
129.477611
 42
0.046074
  0
VERTEX
  8
0
 10
176.834806
 20
128.015602
 42
0.103175
  0
VERTEX
  8
0
 10
175.042824
 20
121.761668
 42
0.077289
  0
VERTEX
  8
0
 10
175.622928
 20
114.600797
 42
0.081395
  0
VERTEX
  8
0
 10
178.263271
 20
108.312640
 42
0.142902
  0
VERTEX
  8
0
 10
182.445331
 20
104.592966
 42
0.026891
  0
VERTEX
  8
0
 10
185.302642
 20
103.420804
 42
0.091735
  0
VERTEX
  8
0
 10
187.281432
 20
103.116540
 42
0.087426
  0
VERTEX
  8
0
 10
189.289520
 20
103.533643
 42
0.023072
  0
VERTEX
  8
0
 10
192.288558
 20
104.892201
 42
0.000000
  0
VERTEX
  8
0
 10
196.000000
 20
106.784402
 42
0.000000
  0
VERTEX
  8
0
 10
196.000000
 20
99.892201
 42
0.000000
  0
VERTEX
  8
0
 10
196.000000
 20
93.000000
 42
0.000000
  0
VERTEX
  8
0
 10
200.000000
 20
93.000000
 42
0.000000
  0
VERTEX
  8
0
 10
204.000000
 20
93.000000
 42
0.000000
  0
VERTEX
  8
0
 10
204.000000
 20
113.500000
 42
0.000000
  0
VERTEX
  8
0
 10
204.000000
 20
134.000000
 42
0.000000
  0
VERTEX
  8
0
 10
200.500000
 20
134.000000
 42
0.022220
  0
VERTEX
  8
0
 10
198.646108
 20
133.917573
 42
0.112779
  0
VERTEX
  8
0
 10
197.668882
 20
133.600793
 42
0.181208
  0
VERTEX
  8
0
 10
197.169451
 20
132.975796
 42
0.079080
  0
VERTEX
  8
0
 10
197.000000
 20
131.911106
 42
-0.036442
  0
VERTEX
  8
0
 10
196.913287
 20
130.722962
 42
-0.418730
  0
VERTEX
  8
0
 10
196.571935
 20
130.473033
 42
-0.130113
  0
VERTEX
  8
0
 10
195.925742
 20
130.761507
 42
-0.005215
  0
VERTEX
  8
0
 10
193.923275
 20
132.411106
 42
0.064832
  0
VERTEX
  8
0
 10
191.204005
 20
134.154162
 42
0.092746
  0
VERTEX
  8
0
 10
188.438967
 20
134.876640
 42
0.086505
  0
VERTEX
  8
0
 10
185.457416
 20
134.571557
 42
0.049696
  0
SEQEND
  0
POLYLINE
  8
0
 66
1
 70
1
  0
VERTEX
  8
0
 10
193.365141
 20
126.927420
 42
-0.047598
  0
VERTEX
  8
0
 10
194.750932
 20
125.605956
 42
-0.091922
  0
VERTEX
  8
0
 10
195.523894
 20
124.288843
 42
-0.069028
  0
VERTEX
  8
0
 10
195.896455
 20
122.536932
 42
-0.017927
  0
VERTEX
  8
0
 10
196.000000
 20
119.649926
 42
-0.041892
  0
VERTEX
  8
0
 10
195.632494
 20
115.271228
 42
-0.105540
  0
VERTEX
  8
0
 10
194.458277
 20
112.312233
 42
-0.142049
  0
VERTEX
  8
0
 10
192.439341
 20
110.609936
 42
-0.104958
  0
VERTEX
  8
0
 10
189.565741
 20
110.000000
 42
-0.075037
  0
VERTEX
  8
0
 10
186.909791
 20
110.400848
 42
-0.140350
  0
VERTEX
  8
0
 10
185.104284
 20
111.579806
 42
-0.112721
  0
VERTEX
  8
0
 10
183.951817
 20
113.745902
 42
-0.038936
  0
VERTEX
  8
0
 10
183.290050
 20
117.250547
 42
-0.047034
  0
VERTEX
  8
0
 10
183.235205
 20
120.956685
 42
-0.068525
  0
VERTEX
  8
0
 10
183.934638
 20
124.143742
 42
-0.083293
  0
VERTEX
  8
0
 10
185.307448
 20
126.546568
 42
-0.126547
  0
VERTEX
  8
0
 10
187.235455
 20
127.963457
 42
-0.017860
  0
VERTEX
  8
0
 10
189.307968
 20
128.711293
 42
-0.120076
  0
VERTEX
  8
0
 10
190.390526
 20
128.788905
 42
-0.110961
  0
VERTEX
  8
0
 10
191.426080
 20
128.365103
 42
-0.014262
  0
SEQEND
  0
POLYLINE
  8
0
 66
1
 70
1
  0
VERTEX
  8
0
 10
252.328737
 20
133.604658
 42
0.056600
  0
VERTEX
  8
0
 10
250.282893
 20
132.378832
 42
0.056223
  0
VERTEX
  8
0
 10
248.558897
 20
130.723034
 42
0.061374
  0
VERTEX
  8
0
 10
247.389870
 20
128.901801
 42
0.112485
  0
VERTEX
  8
0
 10
247.000000
 20
127.190741
 42
0.231571
  0
VERTEX
  8
0
 10
247.197055
 20
126.788082
 42
0.046989
  0
VERTEX
  8
0
 10
247.887370
 20
126.348869
 42
0.040687
  0
VERTEX
  8
0
 10
248.863844
 20
125.945873
 42
0.028179
  0
VERTEX
  8
0
 10
250.020833
 20
125.645833
 42
0.041115
  0
VERTEX
  8
0
 10
251.559915
 20
125.467723
 42
0.075492
  0
VERTEX
  8
0
 10
252.810269
 20
125.615532
 42
0.079398
  0
VERTEX
  8
0
 10
253.918266
 20
126.119438
 42
0.050068
  0
VERTEX
  8
0
 10
255.020833
 20
127.020833
 42
-0.119463
  0
VERTEX
  8
0
 10
257.731008
 20
128.673515
 42
-0.134680
  0
VERTEX
  8
0
 10
260.771382
 20
128.801442
 42
-0.160034
  0
VERTEX
  8
0
 10
263.095130
 20
127.398787
 42
-0.179477
  0
VERTEX
  8
0
 10
264.000000
 20
124.959130
 42
-0.194791
  0
VERTEX
  8
0
 10
263.663175
 20
124.127352
 42
-0.083148
  0
VERTEX
  8
0
 10
262.679548
 20
123.402075
 42
-0.048057
  0
VERTEX
  8
0
 10
260.958399
 20
122.727762
 42
-0.014752
  0
VERTEX
  8
0
 10
258.250000
 20
122.042370
 42
0.022173
  0
VERTEX
  8
0
 10
251.727039
 20
120.288289
 42
0.100140
  0
VERTEX
  8
0
 10
248.296336
 20
118.384369
 42
0.147745
  0
VERTEX
  8
0
 10
246.575031
 20
115.705780
 42
0.069562
  0
VERTEX
  8
0
 10
246.000000
 20
111.592527
 42
0.106126
  0
VERTEX
  8
0
 10
246.698280
 20
108.339715
 42
0.112746
  0
VERTEX
  8
0
 10
248.663253
 20
105.741275
 42
0.103406
  0
VERTEX
  8
0
 10
251.718785
 20
104.100852
 42
0.077227
  0
VERTEX
  8
0
 10
255.519091
 20
103.594425
 42
0.032176
  0
VERTEX
  8
0
 10
257.376420
 20
103.754548
 42
0.025381
  0
VERTEX
  8
0
 10
259.354136
 20
104.157676
 42
0.026018
  0
VERTEX
  8
0
 10
261.158472
 20
104.723455
 42
0.056099
  0
VERTEX
  8
0
 10
262.456100
 20
105.379279
 42
-0.013367
  0
VERTEX
  8
0
 10
263.962788
 20
106.309905
 42
-0.119950
  0
VERTEX
  8
0
 10
264.702102
 20
106.528767
 42
-0.246864
  0
VERTEX
  8
0
 10
265.199165
 20
106.297791
 42
-0.071457
  0
VERTEX
  8
0
 10
265.624999
 20
105.534854
 42
0.141838
  0
VERTEX
  8
0
 10
266.128890
 20
104.869541
 42
0.077445
  0
VERTEX
  8
0
 10
267.041376
 20
104.387260
 42
0.055950
  0
VERTEX
  8
0
 10
268.356758
 20
104.093323
 42
0.027023
  0
VERTEX
  8
0
 10
270.082238
 20
104.000000
 42
0.010429
  0
VERTEX
  8
0
 10
272.537197
 20
104.051213
 42
0.172603
  0
VERTEX
  8
0
 10
273.284424
 20
104.352750
 42
0.281491
  0
VERTEX
  8
0
 10
273.477566
 20
104.984679
 42
0.027798
  0
VERTEX
  8
0
 10
272.975249
 20
106.565100
 42
-0.061780
  0
VERTEX
  8
0
 10
272.595073
 20
108.119184
 42
-0.009577
  0
VERTEX
  8
0
 10
272.286479
 20
111.278698
 42
-0.010550
  0
VERTEX
  8
0
 10
272.071497
 20
115.038925
 42
-0.009003
  0
VERTEX
  8
0
 10
272.000000
 20
119.009336
 42
0.006295
  0
VERTEX
  8
0
 10
271.927796
 20
124.744568
 42
0.038439
  0
VERTEX
  8
0
 10
271.626247
 20
127.690160
 42
0.071618
  0
VERTEX
  8
0
 10
270.962944
 20
129.679423
 42
0.061459
  0
VERTEX
  8
0
 10
269.738673
 20
131.517422
 42
0.051963
  0
VERTEX
  8
0
 10
268.298105
 20
132.877316
 42
0.074025
  0
VERTEX
  8
0
 10
266.760469
 20
133.727314
 42
0.054328
  0
VERTEX
  8
0
 10
264.705337
 20
134.249135
 42
0.016274
  0
VERTEX
  8
0
 10
261.488673
 20
134.596463
 42
0.018649
  0
VERTEX
  8
0
 10
258.683731
 20
134.702325
 42
0.027078
  0
VERTEX
  8
0
 10
256.210605
 20
134.569359
 42
0.031045
  0
VERTEX
  8
0
 10
254.083062
 20
134.204314
 42
0.048724
  0
SEQEND
  0
POLYLINE
  8
0
 66
1
 70
1
  0
VERTEX
  8
0
 10
264.000000
 20
115.328741
 42
-0.130515
  0
VERTEX
  8
0
 10
263.138491
 20
112.084547
 42
-0.131751
  0
VERTEX
  8
0
 10
260.783026
 20
109.708837
 42
-0.150449
  0
VERTEX
  8
0
 10
257.802844
 20
109.014103
 42
-0.180877
  0
VERTEX
  8
0
 10
255.200000
 20
110.200000
 42
-0.113775
  0
VERTEX
  8
0
 10
254.148530
 20
111.881516
 42
-0.163025
  0
VERTEX
  8
0
 10
254.132762
 20
113.625623
 42
-0.138442
  0
VERTEX
  8
0
 10
255.208123
 20
115.234138
 42
-0.074224
  0
VERTEX
  8
0
 10
257.250000
 20
116.509132
 42
-0.024162
  0
VERTEX
  8
0
 10
260.565409
 20
117.763476
 42
-0.122229
  0
VERTEX
  8
0
 10
262.523247
 20
117.901001
 42
-0.242041
  0
VERTEX
  8
0
 10
263.599908
 20
117.085793
 42
-0.112415
  0
SEQEND
  0
POLYLINE
  8
0
 66
1
 70
1
  0
VERTEX
  8
0
 10
286.300780
 20
132.919832
 42
0.082148
  0
VERTEX
  8
0
 10
282.638448
 20
130.285515
 42
0.077113
  0
VERTEX
  8
0
 10
279.925035
 20
126.559186
 42
0.075156
  0
VERTEX
  8
0
 10
278.418635
 20
122.094868
 42
0.072036
  0
VERTEX
  8
0
 10
278.267701
 20
117.317322
 42
0.049302
  0
VERTEX
  8
0
 10
279.004181
 20
113.874889
 42
0.058440
  0
VERTEX
  8
0
 10
280.378001
 20
110.847722
 42
0.056142
  0
VERTEX
  8
0
 10
282.467314
 20
108.127406
 42
0.040611
  0
VERTEX
  8
0
 10
285.337284
 20
105.597503
 42
0.105554
  0
VERTEX
  8
0
 10
288.795043
 20
104.007524
 42
0.055685
  0
VERTEX
  8
0
 10
293.512783
 20
103.489267
 42
0.055622
  0
VERTEX
  8
0
 10
298.238877
 20
104.025452
 42
0.103751
  0
VERTEX
  8
0
 10
301.724505
 20
105.627662
 42
0.113053
  0
VERTEX
  8
0
 10
307.245282
 20
112.076404
 42
0.128425
  0
VERTEX
  8
0
 10
309.075695
 20
119.985624
 42
0.135760
  0
VERTEX
  8
0
 10
306.782647
 20
127.453983
 42
0.133081
  0
VERTEX
  8
0
 10
300.964118
 20
132.750000
 42
0.043003
  0
VERTEX
  8
0
 10
297.078271
 20
134.337595
 42
0.072710
  0
VERTEX
  8
0
 10
293.610706
 20
134.885617
 42
0.073373
  0
VERTEX
  8
0
 10
290.153362
 20
134.416367
 42
0.044592
  0
SEQEND
  0
POLYLINE
  8
0
 66
1
 70
1
  0
VERTEX
  8
0
 10
298.927420
 20
125.365141
 42
-0.152154
  0
VERTEX
  8
0
 10
301.101947
 20
119.666353
 42
-0.155645
  0
VERTEX
  8
0
 10
299.627027
 20
113.799138
 42
-0.182580
  0
VERTEX
  8
0
 10
295.286662
 20
110.468499
 42
-0.198740
  0
VERTEX
  8
0
 10
290.014344
 20
110.992323
 42
-0.139967
  0
VERTEX
  8
0
 10
288.358322
 20
112.596584
 42
-0.051899
  0
VERTEX
  8
0
 10
287.024147
 20
115.588654
 42
-0.051133
  0
VERTEX
  8
0
 10
286.293195
 20
118.959143
 42
-0.089219
  0
VERTEX
  8
0
 10
286.482832
 20
121.803107
 42
-0.114734
  0
VERTEX
  8
0
 10
288.486292
 20
125.717902
 42
-0.148716
  0
VERTEX
  8
0
 10
291.854818
 20
127.896294
 42
-0.160471
  0
VERTEX
  8
0
 10
295.669073
 20
127.745741
 42
-0.137507
  0
SEQEND
  0
POLYLINE
  8
0
 66
1
 70
1
  0
VERTEX
  8
0
 10
345.000000
 20
134.344245
 42
0.043837
  0
VERTEX
  8
0
 10
344.271200
 20
133.976385
 42
0.014848
  0
VERTEX
  8
0
 10
343.279688
 20
133.320022
 42
0.014637
  0
VERTEX
  8
0
 10
342.221484
 20
132.526010
 42
0.016304
  0
VERTEX
  8
0
 10
341.250000
 20
131.698405
 42
0.000000
  0
VERTEX
  8
0
 10
339.000000
 20
129.651372
 42
0.000000
  0
VERTEX
  8
0
 10
339.000000
 20
131.825686
 42
0.071753
  0
VERTEX
  8
0
 10
338.837682
 20
132.950945
 42
0.184137
  0
VERTEX
  8
0
 10
338.347574
 20
133.594692
 42
0.117527
  0
VERTEX
  8
0
 10
337.380302
 20
133.917283
 42
0.021985
  0
VERTEX
  8
0
 10
335.500000
 20
134.000000
 42
0.000000
  0
VERTEX
  8
0
 10
332.000000
 20
134.000000
 42
0.000000
  0
VERTEX
  8
0
 10
332.000000
 20
119.000000
 42
0.000000
  0
VERTEX
  8
0
 10
332.000000
 20
104.000000
 42
0.000000
  0
VERTEX
  8
0
 10
336.000000
 20
104.000000
 42
0.000000
  0
VERTEX
  8
0
 10
340.000000
 20
104.000000
 42
0.000000
  0
VERTEX
  8
0
 10
340.000000
 20
114.500000
 42
-0.005592
  0
VERTEX
  8
0
 10
340.066695
 20
120.463690
 42
-0.034085
  0
VERTEX
  8
0
 10
340.345238
 20
123.532738
 42
-0.068523
  0
VERTEX
  8
0
 10
340.936244
 20
125.474292
 42
-0.088500
  0
VERTEX
  8
0
 10
342.000000
 20
127.000000
 42
-0.072462
  0
VERTEX
  8
0
 10
343.883951
 20
128.404815
 42
-0.118739
  0
VERTEX
  8
0
 10
345.798041
 20
128.913357
 42
-0.126594
  0
VERTEX
  8
0
 10
347.646727
 20
128.483353
 42
-0.088945
  0
VERTEX
  8
0
 10
349.345012
 20
127.171259
 42
-0.105606
  0
VERTEX
  8
0
 10
350.177229
 20
125.734908
 42
-0.045799
  0
VERTEX
  8
0
 10
350.668385
 20
123.570717
 42
-0.026619
  0
VERTEX
  8
0
 10
350.929840
 20
120.243017
 42
-0.006296
  0
VERTEX
  8
0
 10
351.000000
 20
114.671259
 42
0.000000
  0
VERTEX
  8
0
 10
351.000000
 20
104.000000
 42
0.000000
  0
VERTEX
  8
0
 10
355.000000
 20
104.000000
 42
0.000000
  0
VERTEX
  8
0
 10
359.000000
 20
104.000000
 42
0.000000
  0
VERTEX
  8
0
 10
359.000000
 20
116.444236
 42
0.004170
  0
VERTEX
  8
0
 10
358.937658
 20
123.919418
 42
0.032939
  0
VERTEX
  8
0
 10
358.652180
 20
127.370461
 42
0.071124
  0
VERTEX
  8
0
 10
357.996306
 20
129.565149
 42
0.069602
  0
VERTEX
  8
0
 10
356.748437
 20
131.506070
 42
0.101696
  0
VERTEX
  8
0
 10
354.524127
 20
133.224310
 42
0.054554
  0
VERTEX
  8
0
 10
351.247115
 20
134.405821
 42
0.054498
  0
VERTEX
  8
0
 10
347.785318
 20
134.851893
 42
0.100103
  0
SEQEND
  0
POLYLINE
  8
0
 66
1
 70
1
  0
VERTEX
  8
0
 10
409.326888
 20
134.304343
 42
0.103238
  0
VERTEX
  8
0
 10
407.254227
 20
133.432614
 42
0.036366
  0
VERTEX
  8
0
 10
404.726662
 20
131.402969
 42
0.034154
  0
VERTEX
  8
0
 10
402.578975
 20
129.112540
 42
0.172935
  0
VERTEX
  8
0
 10
402.000000
 20
127.488636
 42
0.203386
  0
VERTEX
  8
0
 10
402.220730
 20
126.968444
 42
0.058670
  0
VERTEX
  8
0
 10
402.930516
 20
126.427746
 42
0.048693
  0
VERTEX
  8
0
 10
403.954955
 20
125.949858
 42
0.035459
  0
VERTEX
  8
0
 10
405.167713
 20
125.616457
 42
0.036158
  0
VERTEX
  8
0
 10
406.808722
 20
125.410072
 42
0.079973
  0
VERTEX
  8
0
 10
408.060005
 20
125.544197
 42
0.087860
  0
VERTEX
  8
0
 10
409.131899
 20
126.050996
 42
0.051005
  0
VERTEX
  8
0
 10
410.206668
 20
126.991457
 42
-0.096302
  0
VERTEX
  8
0
 10
412.097871
 20
128.366771
 42
-0.097635
  0
VERTEX
  8
0
 10
414.357374
 20
128.924727
 42
-0.100463
  0
VERTEX
  8
0
 10
416.606662
 20
128.578308
 42
-0.108506
  0
VERTEX
  8
0
 10
418.473214
 20
127.383929
 42
-0.115047
  0
VERTEX
  8
0
 10
419.541127
 20
125.666535
 42
-0.293733
  0
VERTEX
  8
0
 10
419.202308
 20
124.306590
 42
-0.113050
  0
VERTEX
  8
0
 10
417.199343
 20
123.132784
 42
-0.016161
  0
VERTEX
  8
0
 10
412.588054
 20
121.843542
 42
0.033047
  0
VERTEX
  8
0
 10
407.360650
 20
120.189943
 42
0.076048
  0
VERTEX
  8
0
 10
403.798986
 20
118.130540
 42
0.105828
  0
VERTEX
  8
0
 10
401.735170
 20
115.598532
 42
0.118805
  0
VERTEX
  8
0
 10
401.000000
 20
112.548192
 42
0.075815
  0
VERTEX
  8
0
 10
401.452986
 20
109.577911
 42
0.094046
  0
VERTEX
  8
0
 10
402.767105
 20
107.115494
 42
0.089255
  0
VERTEX
  8
0
 10
404.955783
 20
105.215160
 42
0.061543
  0
VERTEX
  8
0
 10
407.968473
 20
103.891300
 42
0.027369
  0
VERTEX
  8
0
 10
410.241593
 20
103.343761
 42
0.072774
  0
VERTEX
  8
0
 10
411.906085
 20
103.283220
 42
0.067057
  0
VERTEX
  8
0
 10
413.595934
 20
103.701862
 42
0.020674
  0
VERTEX
  8
0
 10
415.999131
 20
104.769607
 42
-0.011354
  0
VERTEX
  8
0
 10
418.227337
 20
105.809745
 42
-0.069711
  0
VERTEX
  8
0
 10
419.444269
 20
106.152887
 42
-0.172994
  0
VERTEX
  8
0
 10
420.182912
 20
105.997801
 42
-0.165188
  0
VERTEX
  8
0
 10
420.673827
 20
105.407609
 42
0.162481
  0
VERTEX
  8
0
 10
421.161116
 20
104.815455
 42
0.064955
  0
VERTEX
  8
0
 10
422.127688
 20
104.371735
 42
0.048897
  0
VERTEX
  8
0
 10
423.494335
 20
104.090542
 42
0.026308
  0
VERTEX
  8
0
 10
425.213978
 20
104.000000
 42
0.012180
  0
VERTEX
  8
0
 10
427.440579
 20
104.054249
 42
0.111997
  0
VERTEX
  8
0
 10
428.365702
 20
104.312060
 42
0.286447
  0
VERTEX
  8
0
 10
428.665004
 20
104.837239
 42
0.092343
  0
VERTEX
  8
0
 10
428.456939
 20
105.750000
 42
-0.071397
  0
VERTEX
  8
0
 10
428.140545
 20
106.912492
 42
-0.006407
  0
VERTEX
  8
0
 10
427.806881
 20
109.923438
 42
-0.008234
  0
VERTEX
  8
0
 10
427.512793
 20
113.542437
 42
-0.006338
  0
VERTEX
  8
0
 10
427.307050
 20
117.500000
 42
0.003322
  0
VERTEX
  8
0
 10
427.123971
 20
121.485157
 42
0.004128
  0
VERTEX
  8
0
 10
426.898509
 20
125.188457
 42
0.003380
  0
VERTEX
  8
0
 10
426.662698
 20
128.292578
 42
0.030974
  0
VERTEX
  8
0
 10
426.467936
 20
129.630917
 42
0.199688
  0
VERTEX
  8
0
 10
424.682012
 20
132.237863
 42
0.077605
  0
VERTEX
  8
0
 10
420.613147
 20
134.060155
 42
0.063096
  0
VERTEX
  8
0
 10
415.176724
 20
134.827101
 42
0.051672
  0
SEQEND
  0
POLYLINE
  8
0
 66
1
 70
1
  0
VERTEX
  8
0
 10
420.000000
 20
116.547053
 42
-0.084790
  0
VERTEX
  8
0
 10
419.616285
 20
114.300588
 42
-0.062831
  0
VERTEX
  8
0
 10
418.487115
 20
112.043384
 42
-0.065339
  0
VERTEX
  8
0
 10
416.902000
 20
110.235506
 42
-0.119200
  0
VERTEX
  8
0
 10
415.173784
 20
109.328769
 42
-0.083503
  0
VERTEX
  8
0
 10
412.945899
 20
109.151761
 42
-0.125753
  0
VERTEX
  8
0
 10
411.116910
 20
109.793660
 42
-0.137591
  0
VERTEX
  8
0
 10
409.927875
 20
111.178110
 42
-0.109470
  0
VERTEX
  8
0
 10
409.500000
 20
113.108986
 42
-0.077251
  0
VERTEX
  8
0
 10
409.689645
 20
114.329115
 42
-0.116794
  0
VERTEX
  8
0
 10
410.240750
 20
115.246567
 42
-0.087765
  0
VERTEX
  8
0
 10
411.275796
 20
115.989023
 42
-0.029639
  0
VERTEX
  8
0
 10
413.000000
 20
116.693558
 42
-0.019754
  0
VERTEX
  8
0
 10
416.164686
 20
117.634999
 42
-0.067746
  0
VERTEX
  8
0
 10
418.290858
 20
117.879211
 42
-0.147704
  0
VERTEX
  8
0
 10
419.510926
 20
117.482712
 42
-0.245590
  0
SEQEND
  0
POLYLINE
  8
0
 66
1
 70
1
  0
VERTEX
  8
0
 10
212.000000
 20
121.722506
 42
0.011446
  0
VERTEX
  8
0
 10
212.205734
 20
112.736779
 42
0.076948
  0
VERTEX
  8
0
 10
213.086587
 20
108.377459
 42
0.146278
  0
VERTEX
  8
0
 10
215.009191
 20
105.813810
 42
0.079682
  0
VERTEX
  8
0
 10
218.532975
 20
103.989117
 42
0.070491
  0
VERTEX
  8
0
 10
221.519026
 20
103.451839
 42
0.065898
  0
VERTEX
  8
0
 10
224.609248
 20
103.744210
 42
0.064587
  0
VERTEX
  8
0
 10
227.572418
 20
104.842443
 42
0.062992
  0
VERTEX
  8
0
 10
230.185066
 20
106.667482
 42
-0.010330
  0
VERTEX
  8
0
 10
231.327837
 20
107.659515
 42
-0.247224
  0
VERTEX
  8
0
 10
231.729995
 20
107.745030
 42
-0.318976
  0
VERTEX
  8
0
 10
231.960554
 20
107.458771
 42
-0.015124
  0
VERTEX
  8
0
 10
232.000000
 20
106.154988
 42
0.073332
  0
VERTEX
  8
0
 10
232.163897
 20
105.043496
 42
0.183546
  0
VERTEX
  8
0
 10
232.656035
 20
104.403928
 42
0.116464
  0
VERTEX
  8
0
 10
233.625507
 20
104.082647
 42
0.022034
  0
VERTEX
  8
0
 10
235.500000
 20
104.000000
 42
0.000000
  0
VERTEX
  8
0
 10
239.000000
 20
104.000000
 42
0.000000
  0
VERTEX
  8
0
 10
239.000000
 20
119.000000
 42
0.000000
  0
VERTEX
  8
0
 10
239.000000
 20
134.000000
 42
0.000000
  0
VERTEX
  8
0
 10
235.000000
 20
134.000000
 42
0.000000
  0
VERTEX
  8
0
 10
231.000000
 20
134.000000
 42
0.000000
  0
VERTEX
  8
0
 10
230.984687
 20
123.750000
 42
-0.006701
  0
VERTEX
  8
0
 10
230.877969
 20
116.585920
 42
-0.060808
  0
VERTEX
  8
0
 10
230.412219
 20
113.499284
 42
-0.131179
  0
VERTEX
  8
0
 10
229.317093
 20
111.639154
 42
-0.073362
  0
VERTEX
  8
0
 10
227.182942
 20
110.078632
 42
-0.041415
  0
VERTEX
  8
0
 10
225.879538
 20
109.524293
 42
-0.099774
  0
VERTEX
  8
0
 10
224.843610
 20
109.398907
 42
-0.092916
  0
VERTEX
  8
0
 10
223.794670
 20
109.682151
 42
-0.032762
  0
VERTEX
  8
0
 10
222.432942
 20
110.451981
 42
-0.088420
  0
VERTEX
  8
0
 10
221.048152
 20
111.758756
 42
-0.112173
  0
VERTEX
  8
0
 10
220.341716
 20
113.363961
 42
-0.043821
  0
VERTEX
  8
0
 10
220.055221
 20
116.119862
 42
-0.004000
  0
VERTEX
  8
0
 10
220.000000
 20
123.023053
 42
0.000000
  0
VERTEX
  8
0
 10
220.000000
 20
134.000000
 42
0.000000
  0
VERTEX
  8
0
 10
216.000000
 20
134.000000
 42
0.000000
  0
VERTEX
  8
0
 10
212.000000
 20
134.000000
 42
0.000000
  0
SEQEND
  0
POLYLINE
  8
0
 66
1
 70
1
  0
VERTEX
  8
0
 10
437.000000
 20
108.000000
 42
0.000000
  0
VERTEX
  8
0
 10
437.000000
 20
104.000000
 42
0.000000
  0
VERTEX
  8
0
 10
441.000000
 20
104.000000
 42
0.000000
  0
VERTEX
  8
0
 10
445.000000
 20
104.000000
 42
0.000000
  0
VERTEX
  8
0
 10
445.000000
 20
108.000000
 42
0.000000
  0
VERTEX
  8
0
 10
445.000000
 20
112.000000
 42
0.000000
  0
VERTEX
  8
0
 10
441.000000
 20
112.000000
 42
0.000000
  0
VERTEX
  8
0
 10
437.000000
 20
112.000000
 42
0.000000
  0
SEQEND
  0
POLYLINE
  8
0
 66
1
 70
1
  0
VERTEX
  8
0
 10
255.000000
 20
97.060365
 42
0.000000
  0
VERTEX
  8
0
 10
255.000000
 20
93.000000
 42
0.000000
  0
VERTEX
  8
0
 10
259.060365
 20
93.000000
 42
0.000000
  0
VERTEX
  8
0
 10
263.120731
 20
93.000000
 42
0.000000
  0
VERTEX
  8
0
 10
262.810365
 20
96.750000
 42
0.023163
  0
VERTEX
  8
0
 10
262.517987
 20
99.005782
 42
0.153741
  0
VERTEX
  8
0
 10
262.000000
 20
100.000000
 42
0.153741
  0
VERTEX
  8
0
 10
261.005782
 20
100.517987
 42
0.023163
  0
VERTEX
  8
0
 10
258.750000
 20
100.810365
 42
0.000000
  0
VERTEX
  8
0
 10
255.000000
 20
101.120731
 42
0.000000
  0
SEQEND
  0
POLYLINE
  8
0
 66
1
 70
1
  0
VERTEX
  8
0
 10
52.000000
 20
43.000000
 42
0.000000
  0
VERTEX
  8
0
 10
52.000000
 20
22.000000
 42
0.000000
  0
VERTEX
  8
0
 10
55.970975
 20
22.000000
 42
0.000000
  0
VERTEX
  8
0
 10
59.941950
 20
22.000000
 42
0.000000
  0
VERTEX
  8
0
 10
60.220975
 20
34.941180
 42
0.000000
  0
VERTEX
  8
0
 10
60.500000
 20
47.882361
 42
0.000000
  0
VERTEX
  8
0
 10
68.462222
 20
34.941180
 42
0.000000
  0
VERTEX
  8
0
 10
76.424443
 20
22.000000
 42
0.000000
  0
VERTEX
  8
0
 10
80.712222
 20
22.000000
 42
0.000000
  0
VERTEX
  8
0
 10
85.000000
 20
22.000000
 42
0.000000
  0
VERTEX
  8
0
 10
85.000000
 20
43.000000
 42
0.000000
  0
VERTEX
  8
0
 10
85.000000
 20
64.000000
 42
0.000000
  0
VERTEX
  8
0
 10
81.028220
 20
64.000000
 42
0.000000
  0
VERTEX
  8
0
 10
77.056439
 20
64.000000
 42
0.000000
  0
VERTEX
  8
0
 10
76.778220
 20
50.330789
 42
0.000000
  0
VERTEX
  8
0
 10
76.500000
 20
36.661577
 42
0.000000
  0
VERTEX
  8
0
 10
68.173488
 20
50.330789
 42
0.000000
  0
VERTEX
  8
0
 10
59.846976
 20
64.000000
 42
0.000000
  0
VERTEX
  8
0
 10
55.923488
 20
64.000000
 42
0.000000
  0
VERTEX
  8
0
 10
52.000000
 20
64.000000
 42
0.000000
  0
SEQEND
  0
POLYLINE
  8
0
 66
1
 70
1
  0
VERTEX
  8
0
 10
103.685212
 20
60.466073
 42
0.005696
  0
VERTEX
  8
0
 10
102.291269
 20
57.455133
 42
0.140498
  0
VERTEX
  8
0
 10
102.161771
 20
56.555848
 42
0.339358
  0
VERTEX
  8
0
 10
102.616180
 20
56.106030
 42
0.031509
  0
VERTEX
  8
0
 10
104.297052
 20
56.000000
 42
0.107460
  0
VERTEX
  8
0
 10
105.481100
 20
56.257448
 42
0.036154
  0
VERTEX
  8
0
 10
107.040735
 20
57.110439
 42
0.032146
  0
VERTEX
  8
0
 10
108.766536
 20
58.387394
 42
0.024008
  0
VERTEX
  8
0
 10
110.500000
 20
60.000000
 42
0.000000
  0
VERTEX
  8
0
 10
114.405896
 20
64.000000
 42
0.000000
  0
VERTEX
  8
0
 10
109.888160
 20
64.000000
 42
0.020276
  0
VERTEX
  8
0
 10
107.193297
 20
63.890672
 42
0.109626
  0
VERTEX
  8
0
 10
105.802296
 20
63.461186
 42
0.123778
  0
VERTEX
  8
0
 10
104.807801
 20
62.508064
 42
0.028849
  0
SEQEND
  0
POLYLINE
  8
0
 66
1
 70
1
  0
VERTEX
  8
0
 10
178.000000
 20
43.000000
 42
0.000000
  0
VERTEX
  8
0
 10
178.000000
 20
22.000000
 42
0.000000
  0
VERTEX
  8
0
 10
181.966168
 20
22.000000
 42
0.000000
  0
VERTEX
  8
0
 10
185.932337
 20
22.000000
 42
0.000000
  0
VERTEX
  8
0
 10
186.216168
 20
32.644857
 42
-0.004481
  0
VERTEX
  8
0
 10
186.455959
 20
39.373955
 42
-0.047090
  0
VERTEX
  8
0
 10
186.836502
 20
42.100143
 42
-0.108313
  0
VERTEX
  8
0
 10
187.644482
 20
43.778842
 42
-0.066536
  0
VERTEX
  8
0
 10
189.221107
 20
45.318537
 42
-0.027434
  0
VERTEX
  8
0
 10
190.767022
 20
46.344271
 42
-0.091635
  0
VERTEX
  8
0
 10
191.906598
 20
46.757928
 42
-0.105484
  0
VERTEX
  8
0
 10
193.027644
 20
46.707729
 42
-0.043173
  0
VERTEX
  8
0
 10
194.471107
 20
46.195118
 42
-0.100151
  0
VERTEX
  8
0
 10
195.936339
 20
45.133150
 42
-0.137620
  0
VERTEX
  8
0
 10
196.670124
 20
43.690291
 42
-0.046019
  0
VERTEX
  8
0
 10
196.951225
 20
41.022432
 42
-0.003251
  0
VERTEX
  8
0
 10
197.000000
 20
33.521439
 42
0.000000
  0
VERTEX
  8
0
 10
197.000000
 20
22.000000
 42
0.000000
  0
VERTEX
  8
0
 10
201.000000
 20
22.000000
 42
0.000000
  0
VERTEX
  8
0
 10
205.000000
 20
22.000000
 42
0.000000
  0
VERTEX
  8
0
 10
205.000000
 20
34.444236
 42
0.004153
  0
VERTEX
  8
0
 10
204.937874
 20
41.923410
 42
0.032999
  0
VERTEX
  8
0
 10
204.652776
 20
45.367675
 42
0.071565
  0
VERTEX
  8
0
 10
203.997329
 20
47.552583
 42
0.070372
  0
VERTEX
  8
0
 10
202.750000
 20
49.477997
 42
0.093008
  0
VERTEX
  8
0
 10
200.020008
 20
51.640654
 42
0.089734
  0
VERTEX
  8
0
 10
196.657391
 20
52.701078
 42
0.086501
  0
VERTEX
  8
0
 10
193.030089
 20
52.533824
 42
0.078761
  0
VERTEX
  8
0
 10
189.542625
 20
51.157651
 42
0.000000
  0
VERTEX
  8
0
 10
186.000000
 20
49.067451
 42
0.000000
  0
VERTEX
  8
0
 10
186.000000
 20
56.533725
 42
0.000000
  0
VERTEX
  8
0
 10
186.000000
 20
64.000000
 42
0.000000
  0
VERTEX
  8
0
 10
182.000000
 20
64.000000
 42
0.000000
  0
VERTEX
  8
0
 10
178.000000
 20
64.000000
 42
0.000000
  0
SEQEND
  0
POLYLINE
  8
0
 66
1
 70
1
  0
VERTEX
  8
0
 10
99.077265
 20
51.233443
 42
0.043860
  0
VERTEX
  8
0
 10
97.633222
 20
50.262947
 42
0.027577
  0
VERTEX
  8
0
 10
96.123200
 20
48.899216
 42
0.027603
  0
VERTEX
  8
0
 10
94.775397
 20
47.380759
 42
0.044647
  0
VERTEX
  8
0
 10
93.827265
 20
45.938336
 42
0.078119
  0
VERTEX
  8
0
 10
92.510744
 20
42.172903
 42
0.042396
  0
VERTEX
  8
0
 10
92.041123
 20
37.279959
 42
0.042208
  0
VERTEX
  8
0
 10
92.405579
 20
32.324973
 42
0.071441
  0
VERTEX
  8
0
 10
93.634845
 20
28.357078
 42
0.112320
  0
VERTEX
  8
0
 10
96.603804
 20
24.584610
 42
0.092257
  0
VERTEX
  8
0
 10
101.122353
 20
22.137589
 42
0.087242
  0
VERTEX
  8
0
 10
106.453872
 20
21.395522
 42
0.086430
  0
VERTEX
  8
0
 10
111.737411
 20
22.511609
 42
0.056309
  0
VERTEX
  8
0
 10
114.649128
 20
24.076334
 42
0.058525
  0
VERTEX
  8
0
 10
117.096677
 20
26.233960
 42
0.070084
  0
VERTEX
  8
0
 10
118.564723
 20
28.419829
 42
0.256687
  0
VERTEX
  8
0
 10
118.482543
 20
30.028246
 42
0.222639
  0
VERTEX
  8
0
 10
117.144010
 20
30.903470
 42
0.065491
  0
VERTEX
  8
0
 10
114.626420
 20
30.929059
 42
0.061802
  0
VERTEX
  8
0
 10
111.936987
 20
30.259277
 42
0.104850
  0
VERTEX
  8
0
 10
110.000000
 20
29.000000
 42
-0.030814
  0
VERTEX
  8
0
 10
109.133965
 20
28.234604
 42
-0.031496
  0
VERTEX
  8
0
 10
108.186490
 20
27.587500
 42
-0.033183
  0
VERTEX
  8
0
 10
107.295888
 20
27.135221
 42
-0.101232
  0
VERTEX
  8
0
 10
106.634859
 20
27.000000
 42
-0.139235
  0
VERTEX
  8
0
 10
104.759490
 20
27.532559
 42
-0.046984
  0
VERTEX
  8
0
 10
102.471531
 20
29.262078
 42
-0.046683
  0
VERTEX
  8
0
 10
100.570604
 20
31.359395
 42
-0.162154
  0
VERTEX
  8
0
 10
100.000000
 20
33.072580
 42
-0.201751
  0
VERTEX
  8
0
 10
100.438369
 20
34.114770
 42
-0.147665
  0
VERTEX
  8
0
 10
101.563648
 20
34.702423
 42
-0.043120
  0
VERTEX
  8
0
 10
104.004770
 20
34.951973
 42
-0.003922
  0
VERTEX
  8
0
 10
110.127808
 20
35.000000
 42
0.000000
  0
VERTEX
  8
0
 10
120.255616
 20
35.000000
 42
0.000000
  0
VERTEX
  8
0
 10
119.599205
 20
39.104973
 42
0.054113
  0
VERTEX
  8
0
 10
118.052367
 20
44.767072
 42
0.096171
  0
VERTEX
  8
0
 10
115.466624
 20
48.831941
 42
0.104619
  0
VERTEX
  8
0
 10
111.719879
 20
51.417343
 42
0.073355
  0
VERTEX
  8
0
 10
106.735572
 20
52.685172
 42
0.031670
  0
VERTEX
  8
0
 10
104.624169
 20
52.768226
 42
0.040857
  0
VERTEX
  8
0
 10
102.695077
 20
52.563614
 42
0.042095
  0
VERTEX
  8
0
 10
100.871717
 20
52.056079
 42
0.037129
  0
SEQEND
  0
POLYLINE
  8
0
 66
1
 70
1
  0
VERTEX
  8
0
 10
109.927420
 20
44.365141
 42
-0.014683
  0
VERTEX
  8
0
 10
110.721009
 20
43.292908
 42
-0.018289
  0
VERTEX
  8
0
 10
111.391180
 20
42.250137
 42
-0.016758
  0
VERTEX
  8
0
 10
111.884742
 20
41.349090
 42
-0.117439
  0
VERTEX
  8
0
 10
112.000000
 20
40.865141
 42
-0.352306
  0
VERTEX
  8
0
 10
111.725771
 20
40.524255
 42
-0.018173
  0
VERTEX
  8
0
 10
110.237500
 20
40.254135
 42
-0.022260
  0
VERTEX
  8
0
 10
108.300262
 20
40.062326
 42
-0.013545
  0
VERTEX
  8
0
 10
106.000000
 20
40.000000
 42
-0.025111
  0
VERTEX
  8
0
 10
101.795292
 20
40.211305
 42
-0.201573
  0
VERTEX
  8
0
 10
100.129334
 20
41.117619
 42
-0.323782
  0
VERTEX
  8
0
 10
100.057156
 20
42.605249
 42
-0.051951
  0
VERTEX
  8
0
 10
102.000000
 20
45.000000
 42
-0.078329
  0
VERTEX
  8
0
 10
104.037714
 20
46.482792
 42
-0.139044
  0
VERTEX
  8
0
 10
106.059153
 20
46.884995
 42
-0.135041
  0
VERTEX
  8
0
 10
108.032264
 20
46.168394
 42
-0.071987
  0
SEQEND
  0
POLYLINE
  8
0
 66
1
 70
1
  0
VERTEX
  8
0
 10
153.735191
 20
50.998057
 42
-0.009751
  0
VERTEX
  8
0
 10
151.699097
 20
49.957368
 42
-0.080154
  0
VERTEX
  8
0
 10
150.704952
 20
49.657412
 42
-0.272946
  0
VERTEX
  8
0
 10
150.208349
 20
49.867279
 42
-0.160878
  0
VERTEX
  8
0
 10
150.000000
 20
50.498057
 42
0.176149
  0
VERTEX
  8
0
 10
149.750551
 20
51.184148
 42
0.129252
  0
VERTEX
  8
0
 10
149.084196
 20
51.656129
 42
0.069659
  0
VERTEX
  8
0
 10
147.889459
 20
51.923425
 42
0.020255
  0
VERTEX
  8
0
 10
146.000000
 20
52.000000
 42
0.000000
  0
VERTEX
  8
0
 10
142.000000
 20
52.000000
 42
0.000000
  0
VERTEX
  8
0
 10
142.000000
 20
37.000000
 42
0.000000
  0
VERTEX
  8
0
 10
142.000000
 20
22.000000
 42
0.000000
  0
VERTEX
  8
0
 10
145.886581
 20
22.000000
 42
0.000000
  0
VERTEX
  8
0
 10
149.773161
 20
22.000000
 42
0.000000
  0
VERTEX
  8
0
 10
150.165994
 20
32.612171
 42
-0.005162
  0
VERTEX
  8
0
 10
150.463947
 20
38.903344
 42
-0.039253
  0
VERTEX
  8
0
 10
150.866260
 20
41.840748
 42
-0.085273
  0
VERTEX
  8
0
 10
151.596686
 20
43.644755
 42
-0.084019
  0
VERTEX
  8
0
 10
152.890198
 20
45.112171
 42
-0.060333
  0
VERTEX
  8
0
 10
155.102819
 20
46.499799
 42
-0.121568
  0
VERTEX
  8
0
 10
157.109495
 20
46.901704
 42
-0.139246
  0
VERTEX
  8
0
 10
158.890847
 20
46.309420
 42
-0.090768
  0
VERTEX
  8
0
 10
160.443296
 20
44.777494
 42
-0.087387
  0
VERTEX
  8
0
 10
161.190517
 20
43.176534
 42
-0.034627
  0
VERTEX
  8
0
 10
161.658071
 20
40.785713
 42
-0.023390
  0
VERTEX
  8
0
 10
161.922857
 20
37.359434
 42
-0.007589
  0
VERTEX
  8
0
 10
162.000000
 20
32.277494
 42
0.000000
  0
VERTEX
  8
0
 10
162.000000
 20
22.000000
 42
0.000000
  0
VERTEX
  8
0
 10
166.000000
 20
22.000000
 42
0.000000
  0
VERTEX
  8
0
 10
170.000000
 20
22.000000
 42
0.000000
  0
VERTEX
  8
0
 10
170.000000
 20
33.452947
 42
0.012631
  0
VERTEX
  8
0
 10
169.791883
 20
41.690211
 42
0.056588
  0
VERTEX
  8
0
 10
169.007215
 20
46.444343
 42
0.100715
  0
VERTEX
  8
0
 10
167.449580
 20
49.455490
 42
0.104228
  0
VERTEX
  8
0
 10
164.854975
 20
51.574996
 42
0.054224
  0
VERTEX
  8
0
 10
162.118294
 20
52.633013
 42
0.078260
  0
VERTEX
  8
0
 10
159.542260
 20
52.902837
 42
0.071784
  0
VERTEX
  8
0
 10
156.847221
 20
52.370092
 42
0.038400
  0
SEQEND
  0
POLYLINE
  8
0
 66
1
 70
1
  0
VERTEX
  8
0
 10
218.328737
 20
51.604658
 42
0.056600
  0
VERTEX
  8
0
 10
216.282893
 20
50.378832
 42
0.056223
  0
VERTEX
  8
0
 10
214.558897
 20
48.723034
 42
0.061374
  0
VERTEX
  8
0
 10
213.389870
 20
46.901801
 42
0.112485
  0
VERTEX
  8
0
 10
213.000000
 20
45.190741
 42
0.231571
  0
VERTEX
  8
0
 10
213.197055
 20
44.788082
 42
0.046989
  0
VERTEX
  8
0
 10
213.887370
 20
44.348869
 42
0.040687
  0
VERTEX
  8
0
 10
214.863844
 20
43.945873
 42
0.028179
  0
VERTEX
  8
0
 10
216.020833
 20
43.645833
 42
0.041115
  0
VERTEX
  8
0
 10
217.559915
 20
43.467723
 42
0.075492
  0
VERTEX
  8
0
 10
218.810269
 20
43.615532
 42
0.079398
  0
VERTEX
  8
0
 10
219.918266
 20
44.119438
 42
0.050068
  0
VERTEX
  8
0
 10
221.020833
 20
45.020833
 42
-0.119463
  0
VERTEX
  8
0
 10
223.731008
 20
46.673515
 42
-0.134680
  0
VERTEX
  8
0
 10
226.771382
 20
46.801442
 42
-0.160034
  0
VERTEX
  8
0
 10
229.095130
 20
45.398787
 42
-0.179477
  0
VERTEX
  8
0
 10
230.000000
 20
42.959130
 42
-0.194791
  0
VERTEX
  8
0
 10
229.663175
 20
42.127352
 42
-0.083148
  0
VERTEX
  8
0
 10
228.679548
 20
41.402075
 42
-0.048057
  0
VERTEX
  8
0
 10
226.958399
 20
40.727762
 42
-0.014752
  0
VERTEX
  8
0
 10
224.250000
 20
40.042370
 42
0.022173
  0
VERTEX
  8
0
 10
217.727039
 20
38.288289
 42
0.100140
  0
VERTEX
  8
0
 10
214.296336
 20
36.384369
 42
0.147745
  0
VERTEX
  8
0
 10
212.575031
 20
33.705780
 42
0.069562
  0
VERTEX
  8
0
 10
212.000000
 20
29.592527
 42
0.106126
  0
VERTEX
  8
0
 10
212.698280
 20
26.339715
 42
0.112746
  0
VERTEX
  8
0
 10
214.663253
 20
23.741275
 42
0.103406
  0
VERTEX
  8
0
 10
217.718785
 20
22.100852
 42
0.077227
  0
VERTEX
  8
0
 10
221.519091
 20
21.594425
 42
0.032176
  0
VERTEX
  8
0
 10
223.376420
 20
21.754548
 42
0.025381
  0
VERTEX
  8
0
 10
225.354136
 20
22.157676
 42
0.026018
  0
VERTEX
  8
0
 10
227.158472
 20
22.723455
 42
0.056099
  0
VERTEX
  8
0
 10
228.456100
 20
23.379279
 42
-0.013367
  0
VERTEX
  8
0
 10
229.962788
 20
24.309905
 42
-0.119950
  0
VERTEX
  8
0
 10
230.702102
 20
24.528767
 42
-0.246864
  0
VERTEX
  8
0
 10
231.199165
 20
24.297791
 42
-0.071457
  0
VERTEX
  8
0
 10
231.624999
 20
23.534854
 42
0.141838
  0
VERTEX
  8
0
 10
232.128890
 20
22.869541
 42
0.077445
  0
VERTEX
  8
0
 10
233.041376
 20
22.387260
 42
0.055950
  0
VERTEX
  8
0
 10
234.356758
 20
22.093323
 42
0.027023
  0
VERTEX
  8
0
 10
236.082238
 20
22.000000
 42
0.010429
  0
VERTEX
  8
0
 10
238.537197
 20
22.051213
 42
0.172603
  0
VERTEX
  8
0
 10
239.284424
 20
22.352750
 42
0.281491
  0
VERTEX
  8
0
 10
239.477566
 20
22.984679
 42
0.027798
  0
VERTEX
  8
0
 10
238.975249
 20
24.565100
 42
-0.061780
  0
VERTEX
  8
0
 10
238.595073
 20
26.119184
 42
-0.009577
  0
VERTEX
  8
0
 10
238.286479
 20
29.278698
 42
-0.010550
  0
VERTEX
  8
0
 10
238.071497
 20
33.038925
 42
-0.009003
  0
VERTEX
  8
0
 10
238.000000
 20
37.009336
 42
0.006295
  0
VERTEX
  8
0
 10
237.927796
 20
42.744568
 42
0.038439
  0
VERTEX
  8
0
 10
237.626247
 20
45.690160
 42
0.071618
  0
VERTEX
  8
0
 10
236.962944
 20
47.679423
 42
0.061459
  0
VERTEX
  8
0
 10
235.738673
 20
49.517422
 42
0.051963
  0
VERTEX
  8
0
 10
234.298105
 20
50.877316
 42
0.074025
  0
VERTEX
  8
0
 10
232.760469
 20
51.727314
 42
0.054328
  0
VERTEX
  8
0
 10
230.705337
 20
52.249135
 42
0.016274
  0
VERTEX
  8
0
 10
227.488673
 20
52.596463
 42
0.018649
  0
VERTEX
  8
0
 10
224.683731
 20
52.702325
 42
0.027078
  0
VERTEX
  8
0
 10
222.210605
 20
52.569359
 42
0.031045
  0
VERTEX
  8
0
 10
220.083062
 20
52.204314
 42
0.048724
  0
SEQEND
  0
POLYLINE
  8
0
 66
1
 70
1
  0
VERTEX
  8
0
 10
230.000000
 20
33.328741
 42
-0.130515
  0
VERTEX
  8
0
 10
229.138491
 20
30.084547
 42
-0.131751
  0
VERTEX
  8
0
 10
226.783026
 20
27.708837
 42
-0.150449
  0
VERTEX
  8
0
 10
223.802844
 20
27.014103
 42
-0.180877
  0
VERTEX
  8
0
 10
221.200000
 20
28.200000
 42
-0.113775
  0
VERTEX
  8
0
 10
220.148530
 20
29.881516
 42
-0.163025
  0
VERTEX
  8
0
 10
220.132762
 20
31.625623
 42
-0.138442
  0
VERTEX
  8
0
 10
221.208123
 20
33.234138
 42
-0.074224
  0
VERTEX
  8
0
 10
223.250000
 20
34.509132
 42
-0.024162
  0
VERTEX
  8
0
 10
226.565409
 20
35.763476
 42
-0.122229
  0
VERTEX
  8
0
 10
228.523247
 20
35.901001
 42
-0.242041
  0
VERTEX
  8
0
 10
229.599908
 20
35.085793
 42
-0.112415
  0
SEQEND
  0
POLYLINE
  8
0
 66
1
 70
1
  0
VERTEX
  8
0
 10
307.734218
 20
51.005576
 42
-0.011057
  0
VERTEX
  8
0
 10
306.251984
 20
49.891808
 42
-0.103848
  0
VERTEX
  8
0
 10
305.526583
 20
49.571913
 42
-0.349323
  0
VERTEX
  8
0
 10
305.147080
 20
49.761718
 42
-0.109154
  0
VERTEX
  8
0
 10
305.000000
 20
50.427420
 42
0.161165
  0
VERTEX
  8
0
 10
304.757842
 20
51.159176
 42
0.140169
  0
VERTEX
  8
0
 10
304.114102
 20
51.651714
 42
0.074091
  0
VERTEX
  8
0
 10
302.934456
 20
51.923782
 42
0.019693
  0
VERTEX
  8
0
 10
301.000000
 20
52.000000
 42
0.000000
  0
VERTEX
  8
0
 10
297.000000
 20
52.000000
 42
0.000000
  0
VERTEX
  8
0
 10
297.000000
 20
37.000000
 42
0.000000
  0
VERTEX
  8
0
 10
297.000000
 20
22.000000
 42
0.000000
  0
VERTEX
  8
0
 10
300.866303
 20
22.000000
 42
0.000000
  0
VERTEX
  8
0
 10
304.732606
 20
22.000000
 42
0.000000
  0
VERTEX
  8
0
 10
305.214299
 20
32.003296
 42
-0.017965
  0
VERTEX
  8
0
 10
305.840306
 20
39.434429
 42
-0.087889
  0
VERTEX
  8
0
 10
307.062842
 20
43.453401
 42
-0.187158
  0
VERTEX
  8
0
 10
309.091255
 20
45.269159
 42
-0.145081
  0
VERTEX
  8
0
 10
312.072676
 20
45.484038
 42
0.043571
  0
VERTEX
  8
0
 10
313.585478
 20
45.287617
 42
0.162546
  0
VERTEX
  8
0
 10
314.495318
 20
45.549486
 42
0.133293
  0
VERTEX
  8
0
 10
315.169451
 20
46.344579
 42
0.025706
  0
VERTEX
  8
0
 10
315.887913
 20
48.108311
 42
0.013591
  0
VERTEX
  8
0
 10
316.672794
 20
50.573416
 42
0.199594
  0
VERTEX
  8
0
 10
316.572271
 20
51.459666
 42
0.204994
  0
VERTEX
  8
0
 10
315.874186
 20
52.000847
 42
0.014420
  0
VERTEX
  8
0
 10
313.411302
 20
52.567740
 42
0.049657
  0
VERTEX
  8
0
 10
311.887426
 20
52.717809
 42
0.066963
  0
VERTEX
  8
0
 10
310.516003
 20
52.531816
 42
0.062551
  0
VERTEX
  8
0
 10
309.174049
 20
51.974759
 42
0.037046
  0
SEQEND
  0
POLYLINE
  8
0
 66
1
 70
1
  0
VERTEX
  8
0
 10
325.314715
 20
51.536343
 42
0.050238
  0
VERTEX
  8
0
 10
323.983407
 20
50.790543
 42
0.033249
  0
VERTEX
  8
0
 10
322.616849
 20
49.691087
 42
0.033405
  0
VERTEX
  8
0
 10
321.419375
 20
48.431270
 42
0.054052
  0
VERTEX
  8
0
 10
320.603446
 20
47.200042
 42
0.000000
  0
VERTEX
  8
0
 10
319.077462
 20
44.249114
 42
0.000000
  0
VERTEX
  8
0
 10
322.592823
 20
43.678650
 42
0.031777
  0
VERTEX
  8
0
 10
324.397667
 20
43.502405
 42
0.070248
  0
VERTEX
  8
0
 10
325.770794
 20
43.649139
 42
0.080700
  0
VERTEX
  8
0
 10
326.928549
 20
44.149274
 42
0.054196
  0
VERTEX
  8
0
 10
328.054093
 20
45.054093
 42
-0.035944
  0
VERTEX
  8
0
 10
328.914259
 20
45.798743
 42
-0.033932
  0
VERTEX
  8
0
 10
329.888326
 20
46.428390
 42
-0.035777
  0
VERTEX
  8
0
 10
330.828608
 20
46.864736
 42
-0.090990
  0
VERTEX
  8
0
 10
331.565741
 20
47.000000
 42
-0.080940
  0
VERTEX
  8
0
 10
333.477576
 20
46.688469
 42
-0.072742
  0
VERTEX
  8
0
 10
335.270034
 20
45.781825
 42
-0.080990
  0
VERTEX
  8
0
 10
336.558303
 20
44.519717
 42
-0.159848
  0
VERTEX
  8
0
 10
337.000000
 20
43.173407
 42
-0.196636
  0
VERTEX
  8
0
 10
336.615531
 20
42.233594
 42
-0.086425
  0
VERTEX
  8
0
 10
335.502960
 20
41.436398
 42
-0.044306
  0
VERTEX
  8
0
 10
333.454479
 20
40.663563
 42
-0.010424
  0
VERTEX
  8
0
 10
329.904811
 20
39.752035
 42
0.010976
  0
VERTEX
  8
0
 10
327.077660
 20
39.022716
 42
0.013125
  0
VERTEX
  8
0
 10
324.450569
 20
38.208149
 42
0.011895
  0
VERTEX
  8
0
 10
322.284340
 20
37.415689
 42
0.079726
  0
VERTEX
  8
0
 10
321.300635
 20
36.834542
 42
0.083785
  0
VERTEX
  8
0
 10
319.693299
 20
34.967892
 42
0.079109
  0
VERTEX
  8
0
 10
318.747971
 20
32.640535
 42
0.074472
  0
VERTEX
  8
0
 10
318.538949
 20
30.009063
 42
0.062423
  0
VERTEX
  8
0
 10
319.079477
 20
27.259183
 42
0.142541
  0
VERTEX
  8
0
 10
321.536020
 20
23.683442
 42
0.118488
  0
VERTEX
  8
0
 10
325.706579
 20
21.669882
 42
0.105493
  0
VERTEX
  8
0
 10
330.755613
 20
21.651141
 42
0.093658
  0
VERTEX
  8
0
 10
335.614574
 20
23.667028
 42
-0.018049
  0
VERTEX
  8
0
 10
336.842158
 20
24.409477
 42
-0.139850
  0
VERTEX
  8
0
 10
337.488331
 20
24.560743
 42
-0.234477
  0
VERTEX
  8
0
 10
337.942064
 20
24.307790
 42
-0.058862
  0
VERTEX
  8
0
 10
338.347856
 20
23.535885
 42
0.134392
  0
VERTEX
  8
0
 10
338.815392
 20
22.899459
 42
0.073360
  0
VERTEX
  8
0
 10
339.660512
 20
22.411567
 42
0.058154
  0
VERTEX
  8
0
 10
340.820226
 20
22.101904
 42
0.036204
  0
VERTEX
  8
0
 10
342.225748
 20
22.000000
 42
0.000000
  0
VERTEX
  8
0
 10
345.514266
 20
22.000000
 42
0.000000
  0
VERTEX
  8
0
 10
345.141630
 20
33.738698
 42
0.006299
  0
VERTEX
  8
0
 10
344.934726
 20
38.402818
 42
0.007968
  0
VERTEX
  8
0
 10
344.620503
 20
42.707619
 42
0.006483
  0
VERTEX
  8
0
 10
344.253966
 20
46.296989
 42
0.062228
  0
VERTEX
  8
0
 10
343.890858
 20
47.787066
 42
0.179210
  0
VERTEX
  8
0
 10
341.369956
 20
50.673068
 42
0.074892
  0
VERTEX
  8
0
 10
336.441569
 20
52.464598
 42
0.067989
  0
VERTEX
  8
0
 10
330.594397
 20
52.835736
 42
0.084669
  0
SEQEND
  0
POLYLINE
  8
0
 66
1
 70
1
  0
VERTEX
  8
0
 10
337.000000
 20
33.056704
 42
-0.166598
  0
VERTEX
  8
0
 10
335.876568
 20
29.778601
 42
-0.130103
  0
VERTEX
  8
0
 10
332.865098
 20
27.481106
 42
-0.149691
  0
VERTEX
  8
0
 10
329.423644
 20
27.150451
 42
-0.223097
  0
VERTEX
  8
0
 10
327.038770
 20
28.927558
 42
-0.097160
  0
VERTEX
  8
0
 10
326.441901
 20
30.873015
 42
-0.153801
  0
VERTEX
  8
0
 10
326.787651
 20
32.567878
 42
-0.132373
  0
VERTEX
  8
0
 10
328.109954
 20
33.932460
 42
-0.064061
  0
VERTEX
  8
0
 10
330.356619
 20
34.908848
 42
-0.015885
  0
VERTEX
  8
0
 10
334.038467
 20
35.849974
 42
-0.123212
  0
VERTEX
  8
0
 10
335.799027
 20
35.802952
 42
-0.250314
  0
VERTEX
  8
0
 10
336.697404
 20
34.944908
 42
-0.079620
  0
SEQEND
  0
POLYLINE
  8
0
 66
1
 70
1
  0
VERTEX
  8
0
 10
357.328737
 20
51.604658
 42
0.056600
  0
VERTEX
  8
0
 10
355.282893
 20
50.378832
 42
0.056223
  0
VERTEX
  8
0
 10
353.558897
 20
48.723034
 42
0.061374
  0
VERTEX
  8
0
 10
352.389870
 20
46.901801
 42
0.112485
  0
VERTEX
  8
0
 10
352.000000
 20
45.190741
 42
0.231571
  0
VERTEX
  8
0
 10
352.197055
 20
44.788082
 42
0.046989
  0
VERTEX
  8
0
 10
352.887370
 20
44.348869
 42
0.040687
  0
VERTEX
  8
0
 10
353.863844
 20
43.945873
 42
0.028179
  0
VERTEX
  8
0
 10
355.020833
 20
43.645833
 42
0.041115
  0
VERTEX
  8
0
 10
356.559915
 20
43.467723
 42
0.075492
  0
VERTEX
  8
0
 10
357.810269
 20
43.615532
 42
0.079398
  0
VERTEX
  8
0
 10
358.918266
 20
44.119438
 42
0.050068
  0
VERTEX
  8
0
 10
360.020833
 20
45.020833
 42
-0.119463
  0
VERTEX
  8
0
 10
362.731008
 20
46.673515
 42
-0.134680
  0
VERTEX
  8
0
 10
365.771382
 20
46.801442
 42
-0.160034
  0
VERTEX
  8
0
 10
368.095130
 20
45.398787
 42
-0.179477
  0
VERTEX
  8
0
 10
369.000000
 20
42.959130
 42
-0.194791
  0
VERTEX
  8
0
 10
368.663175
 20
42.127352
 42
-0.083148
  0
VERTEX
  8
0
 10
367.679548
 20
41.402075
 42
-0.048057
  0
VERTEX
  8
0
 10
365.958399
 20
40.727762
 42
-0.014752
  0
VERTEX
  8
0
 10
363.250000
 20
40.042370
 42
0.022173
  0
VERTEX
  8
0
 10
356.727039
 20
38.288289
 42
0.100140
  0
VERTEX
  8
0
 10
353.296336
 20
36.384369
 42
0.147745
  0
VERTEX
  8
0
 10
351.575031
 20
33.705780
 42
0.069562
  0
VERTEX
  8
0
 10
351.000000
 20
29.592527
 42
0.106126
  0
VERTEX
  8
0
 10
351.698280
 20
26.339715
 42
0.112746
  0
VERTEX
  8
0
 10
353.663253
 20
23.741275
 42
0.103406
  0
VERTEX
  8
0
 10
356.718785
 20
22.100852
 42
0.077227
  0
VERTEX
  8
0
 10
360.519091
 20
21.594425
 42
0.032176
  0
VERTEX
  8
0
 10
362.376420
 20
21.754548
 42
0.025381
  0
VERTEX
  8
0
 10
364.354136
 20
22.157676
 42
0.026018
  0
VERTEX
  8
0
 10
366.158472
 20
22.723455
 42
0.056099
  0
VERTEX
  8
0
 10
367.456100
 20
23.379279
 42
-0.013367
  0
VERTEX
  8
0
 10
368.962788
 20
24.309905
 42
-0.119950
  0
VERTEX
  8
0
 10
369.702102
 20
24.528767
 42
-0.246864
  0
VERTEX
  8
0
 10
370.199165
 20
24.297791
 42
-0.071457
  0
VERTEX
  8
0
 10
370.624999
 20
23.534854
 42
0.141838
  0
VERTEX
  8
0
 10
371.128890
 20
22.869541
 42
0.077445
  0
VERTEX
  8
0
 10
372.041376
 20
22.387260
 42
0.055950
  0
VERTEX
  8
0
 10
373.356758
 20
22.093323
 42
0.027023
  0
VERTEX
  8
0
 10
375.082238
 20
22.000000
 42
0.010429
  0
VERTEX
  8
0
 10
377.537197
 20
22.051213
 42
0.172603
  0
VERTEX
  8
0
 10
378.284424
 20
22.352750
 42
0.281491
  0
VERTEX
  8
0
 10
378.477566
 20
22.984679
 42
0.027798
  0
VERTEX
  8
0
 10
377.975249
 20
24.565100
 42
-0.061780
  0
VERTEX
  8
0
 10
377.595073
 20
26.119184
 42
-0.009577
  0
VERTEX
  8
0
 10
377.286479
 20
29.278698
 42
-0.010550
  0
VERTEX
  8
0
 10
377.071497
 20
33.038925
 42
-0.009003
  0
VERTEX
  8
0
 10
377.000000
 20
37.009336
 42
0.006295
  0
VERTEX
  8
0
 10
376.927796
 20
42.744568
 42
0.038439
  0
VERTEX
  8
0
 10
376.626247
 20
45.690160
 42
0.071618
  0
VERTEX
  8
0
 10
375.962944
 20
47.679423
 42
0.061459
  0
VERTEX
  8
0
 10
374.738673
 20
49.517422
 42
0.051963
  0
VERTEX
  8
0
 10
373.298105
 20
50.877316
 42
0.074025
  0
VERTEX
  8
0
 10
371.760469
 20
51.727314
 42
0.054328
  0
VERTEX
  8
0
 10
369.705337
 20
52.249135
 42
0.016274
  0
VERTEX
  8
0
 10
366.488673
 20
52.596463
 42
0.018649
  0
VERTEX
  8
0
 10
363.683731
 20
52.702325
 42
0.027078
  0
VERTEX
  8
0
 10
361.210605
 20
52.569359
 42
0.031045
  0
VERTEX
  8
0
 10
359.083062
 20
52.204314
 42
0.048724
  0
SEQEND
  0
POLYLINE
  8
0
 66
1
 70
1
  0
VERTEX
  8
0
 10
369.000000
 20
33.328741
 42
-0.130515
  0
VERTEX
  8
0
 10
368.138491
 20
30.084547
 42
-0.131751
  0
VERTEX
  8
0
 10
365.783026
 20
27.708837
 42
-0.150449
  0
VERTEX
  8
0
 10
362.802844
 20
27.014103
 42
-0.180877
  0
VERTEX
  8
0
 10
360.200000
 20
28.200000
 42
-0.113775
  0
VERTEX
  8
0
 10
359.148530
 20
29.881516
 42
-0.163025
  0
VERTEX
  8
0
 10
359.132762
 20
31.625623
 42
-0.138442
  0
VERTEX
  8
0
 10
360.208123
 20
33.234138
 42
-0.074224
  0
VERTEX
  8
0
 10
362.250000
 20
34.509132
 42
-0.024162
  0
VERTEX
  8
0
 10
365.565409
 20
35.763476
 42
-0.122229
  0
VERTEX
  8
0
 10
367.523247
 20
35.901001
 42
-0.242041
  0
VERTEX
  8
0
 10
368.599908
 20
35.085793
 42
-0.112415
  0
SEQEND
  0
POLYLINE
  8
0
 66
1
 70
1
  0
VERTEX
  8
0
 10
390.325477
 20
51.540868
 42
0.071214
  0
VERTEX
  8
0
 10
388.120731
 20
50.181591
 42
0.036817
  0
VERTEX
  8
0
 10
385.787285
 20
47.926742
 42
0.032372
  0
VERTEX
  8
0
 10
383.992709
 20
45.634418
 42
0.373623
  0
VERTEX
  8
0
 10
384.114542
 20
44.585607
 42
0.106588
  0
VERTEX
  8
0
 10
384.402808
 20
44.417616
 42
0.007768
  0
VERTEX
  8
0
 10
385.285860
 20
44.144706
 42
0.010571
  0
VERTEX
  8
0
 10
386.360277
 20
43.855360
 42
0.007799
  0
VERTEX
  8
0
 10
387.560728
 20
43.578932
 42
0.037690
  0
VERTEX
  8
0
 10
389.152521
 20
43.362103
 42
0.083920
  0
VERTEX
  8
0
 10
390.364588
 20
43.492794
 42
0.090662
  0
VERTEX
  8
0
 10
391.407662
 20
44.003993
 42
0.049720
  0
VERTEX
  8
0
 10
392.465715
 20
44.962116
 42
-0.088715
  0
VERTEX
  8
0
 10
394.220847
 20
46.319413
 42
-0.099389
  0
VERTEX
  8
0
 10
396.269657
 20
46.915602
 42
-0.097487
  0
VERTEX
  8
0
 10
398.421622
 20
46.679420
 42
-0.082108
  0
VERTEX
  8
0
 10
400.471350
 20
45.644608
 42
-0.147837
  0
VERTEX
  8
0
 10
401.738588
 20
43.963295
 42
-0.290125
  0
VERTEX
  8
0
 10
401.398990
 20
42.388664
 42
-0.121753
  0
VERTEX
  8
0
 10
399.134810
 20
40.996357
 42
-0.028777
  0
VERTEX
  8
0
 10
394.804835
 20
39.883945
 42
0.044660
  0
VERTEX
  8
0
 10
389.363537
 20
38.300441
 42
0.092629
  0
VERTEX
  8
0
 10
385.622949
 20
35.969911
 42
0.124227
  0
VERTEX
  8
0
 10
383.640856
 20
32.955715
 42
0.124481
  0
VERTEX
  8
0
 10
383.328295
 20
29.364379
 42
0.042071
  0
VERTEX
  8
0
 10
384.073722
 20
26.382545
 42
0.099674
  0
VERTEX
  8
0
 10
385.220969
 20
24.414383
 42
0.098373
  0
VERTEX
  8
0
 10
387.050978
 20
23.028285
 42
0.040278
  0
VERTEX
  8
0
 10
389.968357
 20
21.891334
 42
0.032409
  0
VERTEX
  8
0
 10
392.140490
 20
21.391210
 42
0.068380
  0
VERTEX
  8
0
 10
393.865834
 20
21.348138
 42
0.058136
  0
VERTEX
  8
0
 10
395.709364
 20
21.775379
 42
0.018152
  0
VERTEX
  8
0
 10
398.349730
 20
22.830504
 42
-0.009059
  0
VERTEX
  8
0
 10
400.817946
 20
23.869262
 42
-0.062359
  0
VERTEX
  8
0
 10
402.088578
 20
24.201404
 42
-0.206405
  0
VERTEX
  8
0
 10
402.725508
 20
24.021026
 42
-0.225649
  0
VERTEX
  8
0
 10
403.000000
 20
23.443770
 42
0.183091
  0
VERTEX
  8
0
 10
403.243156
 20
22.802000
 42
0.120245
  0
VERTEX
  8
0
 10
403.899536
 20
22.346057
 42
0.068818
  0
VERTEX
  8
0
 10
405.039732
 20
22.078661
 42
0.023163
  0
VERTEX
  8
0
 10
406.750000
 20
21.998876
 42
0.000000
  0
VERTEX
  8
0
 10
410.500000
 20
21.997752
 42
0.000000
  0
VERTEX
  8
0
 10
410.181805
 20
32.748876
 42
0.005380
  0
VERTEX
  8
0
 10
410.006759
 20
37.084993
 42
0.006167
  0
VERTEX
  8
0
 10
409.743884
 20
41.223107
 42
0.005601
  0
VERTEX
  8
0
 10
409.438619
 20
44.724041
 42
0.034810
  0
VERTEX
  8
0
 10
409.137838
 20
46.500000
 42
0.175931
  0
VERTEX
  8
0
 10
406.795447
 20
50.031476
 42
0.094034
  0
VERTEX
  8
0
 10
402.017351
 20
52.335561
 42
0.081825
  0
VERTEX
  8
0
 10
396.045845
 20
52.925773
 42
0.086596
  0
SEQEND
  0
POLYLINE
  8
0
 66
1
 70
1
  0
VERTEX
  8
0
 10
402.000000
 20
33.500000
 42
-0.154560
  0
VERTEX
  8
0
 10
400.957877
 20
30.209269
 42
-0.122690
  0
VERTEX
  8
0
 10
398.123570
 20
27.757031
 42
-0.136726
  0
VERTEX
  8
0
 10
394.709958
 20
27.074560
 42
-0.203655
  0
VERTEX
  8
0
 10
392.039869
 20
28.451961
 42
-0.121573
  0
VERTEX
  8
0
 10
391.179163
 20
30.230283
 42
-0.164778
  0
VERTEX
  8
0
 10
391.387411
 20
31.989691
 42
-0.132198
  0
VERTEX
  8
0
 10
392.711879
 20
33.539036
 42
-0.067829
  0
VERTEX
  8
0
 10
395.012181
 20
34.693558
 42
-0.018140
  0
VERTEX
  8
0
 10
398.618141
 20
35.783146
 42
-0.106990
  0
VERTEX
  8
0
 10
400.578874
 20
35.869466
 42
-0.236324
  0
VERTEX
  8
0
 10
401.611319
 20
35.111454
 42
-0.118895
  0
SEQEND
  0
POLYLINE
  8
0
 66
1
 70
1
  0
VERTEX
  8
0
 10
246.000000
 20
39.722506
 42
0.011446
  0
VERTEX
  8
0
 10
246.205734
 20
30.736779
 42
0.076948
  0
VERTEX
  8
0
 10
247.086587
 20
26.377459
 42
0.146278
  0
VERTEX
  8
0
 10
249.009191
 20
23.813810
 42
0.079682
  0
VERTEX
  8
0
 10
252.532975
 20
21.989117
 42
0.070491
  0
VERTEX
  8
0
 10
255.519026
 20
21.451839
 42
0.065898
  0
VERTEX
  8
0
 10
258.609248
 20
21.744210
 42
0.064587
  0
VERTEX
  8
0
 10
261.572418
 20
22.842443
 42
0.062992
  0
VERTEX
  8
0
 10
264.185066
 20
24.667482
 42
-0.010330
  0
VERTEX
  8
0
 10
265.327837
 20
25.659515
 42
-0.247224
  0
VERTEX
  8
0
 10
265.729995
 20
25.745030
 42
-0.318976
  0
VERTEX
  8
0
 10
265.960554
 20
25.458771
 42
-0.015124
  0
VERTEX
  8
0
 10
266.000000
 20
24.154988
 42
0.073332
  0
VERTEX
  8
0
 10
266.163897
 20
23.043496
 42
0.183546
  0
VERTEX
  8
0
 10
266.656035
 20
22.403928
 42
0.116464
  0
VERTEX
  8
0
 10
267.625507
 20
22.082647
 42
0.022034
  0
VERTEX
  8
0
 10
269.500000
 20
22.000000
 42
0.000000
  0
VERTEX
  8
0
 10
273.000000
 20
22.000000
 42
0.000000
  0
VERTEX
  8
0
 10
273.000000
 20
37.000000
 42
0.000000
  0
VERTEX
  8
0
 10
273.000000
 20
52.000000
 42
0.000000
  0
VERTEX
  8
0
 10
269.000000
 20
52.000000
 42
0.000000
  0
VERTEX
  8
0
 10
265.000000
 20
52.000000
 42
0.000000
  0
VERTEX
  8
0
 10
264.984687
 20
41.750000
 42
-0.006701
  0
VERTEX
  8
0
 10
264.877969
 20
34.585920
 42
-0.060808
  0
VERTEX
  8
0
 10
264.412219
 20
31.499284
 42
-0.131179
  0
VERTEX
  8
0
 10
263.317093
 20
29.639154
 42
-0.073362
  0
VERTEX
  8
0
 10
261.182942
 20
28.078632
 42
-0.041415
  0
VERTEX
  8
0
 10
259.879538
 20
27.524293
 42
-0.099774
  0
VERTEX
  8
0
 10
258.843610
 20
27.398907
 42
-0.092916
  0
VERTEX
  8
0
 10
257.794670
 20
27.682151
 42
-0.032762
  0
VERTEX
  8
0
 10
256.432942
 20
28.451981
 42
-0.088420
  0
VERTEX
  8
0
 10
255.048152
 20
29.758756
 42
-0.112173
  0
VERTEX
  8
0
 10
254.341716
 20
31.363961
 42
-0.043821
  0
VERTEX
  8
0
 10
254.055221
 20
34.119862
 42
-0.004000
  0
VERTEX
  8
0
 10
254.000000
 20
41.023053
 42
0.000000
  0
VERTEX
  8
0
 10
254.000000
 20
52.000000
 42
0.000000
  0
VERTEX
  8
0
 10
250.000000
 20
52.000000
 42
0.000000
  0
VERTEX
  8
0
 10
246.000000
 20
52.000000
 42
0.000000
  0
SEQEND
  0
POLYLINE
  8
0
 66
1
 70
1
  0
VERTEX
  8
0
 10
146.750000
 20
456.923411
 42
0.143966
  0
VERTEX
  8
0
 10
145.382931
 20
455.473270
 42
0.179382
  0
VERTEX
  8
0
 10
145.171959
 20
453.646232
 42
0.119934
  0
VERTEX
  8
0
 10
146.262865
 20
451.544404
 42
0.050471
  0
VERTEX
  8
0
 10
148.602577
 20
449.353963
 42
0.038302
  0
VERTEX
  8
0
 10
150.904773
 20
447.861914
 42
0.062535
  0
VERTEX
  8
0
 10
153.067879
 20
447.014044
 42
0.042362
  0
VERTEX
  8
0
 10
155.912664
 20
446.543319
 42
0.009351
  0
VERTEX
  8
0
 10
160.852577
 20
446.243550
 42
0.028519
  0
VERTEX
  8
0
 10
167.380536
 20
446.342241
 42
0.062890
  0
VERTEX
  8
0
 10
172.261715
 20
447.320304
 42
0.094699
  0
VERTEX
  8
0
 10
175.417444
 20
449.094638
 42
0.183995
  0
VERTEX
  8
0
 10
176.798257
 20
451.587505
 42
0.137356
  0
VERTEX
  8
0
 10
176.490794
 20
453.919545
 42
0.207171
  0
VERTEX
  8
0
 10
175.024126
 20
455.308366
 42
0.106902
  0
VERTEX
  8
0
 10
172.089183
 20
455.711749
 42
0.026022
  0
VERTEX
  8
0
 10
167.212736
 20
455.081942
 42
-0.025901
  0
VERTEX
  8
0
 10
162.683464
 20
454.495865
 42
-0.052064
  0
VERTEX
  8
0
 10
159.084643
 20
454.593571
 42
-0.045609
  0
VERTEX
  8
0
 10
155.289817
 20
455.451466
 42
-0.015793
  0
VERTEX
  8
0
 10
150.000000
 20
457.352899
 42
0.081212
  0
VERTEX
  8
0
 10
149.298128
 20
457.505864
 42
0.046008
  0
VERTEX
  8
0
 10
148.426563
 20
457.471475
 42
0.044418
  0
VERTEX
  8
0
 10
147.530433
 20
457.270927
 42
0.055047
  0
SEQEND
  0
POLYLINE
  8
0
 66
1
 70
1
  0
VERTEX
  8
0
 10
272.000000
 20
455.771801
 42
-0.018613
  0
VERTEX
  8
0
 10
268.693997
 20
454.729395
 42
-0.051436
  0
VERTEX
  8
0
 10
266.289462
 20
454.327926
 42
-0.046296
  0
VERTEX
  8
0
 10
263.714696
 20
454.404860
 42
-0.012885
  0
VERTEX
  8
0
 10
259.718643
 20
455.001304
 42
0.024280
  0
VERTEX
  8
0
 10
254.810819
 20
455.619906
 42
0.105702
  0
VERTEX
  8
0
 10
251.923189
 20
455.231250
 42
0.210107
  0
VERTEX
  8
0
 10
250.496813
 20
453.879339
 42
0.135806
  0
VERTEX
  8
0
 10
250.201743
 20
451.587505
 42
0.318491
  0
VERTEX
  8
0
 10
254.680205
 20
446.862194
 42
0.068862
  0
VERTEX
  8
0
 10
266.575568
 20
446.171033
 42
0.068533
  0
VERTEX
  8
0
 10
278.246561
 20
448.735842
 42
0.314170
  0
VERTEX
  8
0
 10
282.000000
 20
454.119804
 42
0.159321
  0
VERTEX
  8
0
 10
281.605305
 20
455.327040
 42
0.052169
  0
VERTEX
  8
0
 10
280.332518
 20
456.731613
 42
0.052085
  0
VERTEX
  8
0
 10
278.851501
 20
457.802987
 42
0.234428
  0
VERTEX
  8
0
 10
277.815741
 20
457.866918
 42
-0.013124
  0
VERTEX
  8
0
 10
277.573994
 20
457.772416
 42
-0.000156
  0
VERTEX
  8
0
 10
275.977124
 20
457.196581
 42
-0.000471
  0
VERTEX
  8
0
 10
274.130746
 20
456.533389
 42
-0.000308
  0
SEQEND
  0
POLYLINE
  8
0
 66
1
 70
1
  0
VERTEX
  8
0
 10
242.551394
 20
418.490859
 42
-0.071534
  0
VERTEX
  8
0
 10
227.497655
 20
412.587037
 42
-0.055691
  0
VERTEX
  8
0
 10
210.022827
 20
410.485981
 42
-0.057464
  0
VERTEX
  8
0
 10
193.200103
 20
412.282841
 42
-0.094891
  0
VERTEX
  8
0
 10
180.137099
 20
417.967014
 42
0.045369
  0
VERTEX
  8
0
 10
176.991483
 20
419.722259
 42
0.124535
  0
VERTEX
  8
0
 10
174.504228
 20
420.150472
 42
0.173805
  0
VERTEX
  8
0
 10
172.621353
 20
419.306299
 42
0.110127
  0
VERTEX
  8
0
 10
171.277502
 20
417.280776
 42
0.268102
  0
VERTEX
  8
0
 10
171.612424
 20
415.171569
 42
0.048795
  0
VERTEX
  8
0
 10
174.504073
 20
412.241927
 42
0.044235
  0
VERTEX
  8
0
 10
178.733242
 20
409.311195
 42
0.038936
  0
VERTEX
  8
0
 10
183.592689
 20
407.024926
 42
0.028871
  0
VERTEX
  8
0
 10
191.618789
 20
404.505232
 42
0.030095
  0
VERTEX
  8
0
 10
199.771600
 20
402.968575
 42
0.030047
  0
VERTEX
  8
0
 10
208.062236
 20
402.420188
 42
0.028581
  0
VERTEX
  8
0
 10
216.500000
 20
402.852355
 42
0.021545
  0
VERTEX
  8
0
 10
225.698705
 20
404.255816
 42
0.020529
  0
VERTEX
  8
0
 10
234.894039
 20
406.462650
 42
0.021536
  0
VERTEX
  8
0
 10
243.053408
 20
409.163483
 42
0.047254
  0
VERTEX
  8
0
 10
248.948933
 20
412.063596
 42
0.023443
  0
VERTEX
  8
0
 10
252.344958
 20
414.379345
 42
0.091816
  0
VERTEX
  8
0
 10
254.053195
 20
416.241459
 42
0.153649
  0
VERTEX
  8
0
 10
254.523214
 20
418.049785
 42
0.110642
  0
VERTEX
  8
0
 10
253.961230
 20
420.072442
 42
0.168576
  0
VERTEX
  8
0
 10
252.454729
 20
421.462969
 42
0.138147
  0
VERTEX
  8
0
 10
250.272134
 20
421.763466
 42
0.073951
  0
VERTEX
  8
0
 10
247.117989
 20
420.838110
 42
0.020896
  0
SEQEND
  0
POLYLINE
  8
0
 66
1
 70
1
  0
VERTEX
  8
0
 10
214.962358
 20
327.170603
 42
0.083569
  0
VERTEX
  8
0
 10
213.710508
 20
325.753008
 42
0.096655
  0
VERTEX
  8
0
 10
213.070082
 20
324.071630
 42
0.042201
  0
VERTEX
  8
0
 10
212.830744
 20
321.323282
 42
0.004828
  0
VERTEX
  8
0
 10
212.875193
 20
315.099746
 42
0.001919
  0
VERTEX
  8
0
 10
212.957540
 20
311.109884
 42
0.002814
  0
VERTEX
  8
0
 10
213.063199
 20
307.600982
 42
0.001345
  0
VERTEX
  8
0
 10
213.177863
 20
304.617958
 42
0.051070
  0
VERTEX
  8
0
 10
213.273619
 20
303.953663
 42
-0.253991
  0
VERTEX
  8
0
 10
213.156121
 20
303.497786
 42
-0.033818
  0
VERTEX
  8
0
 10
212.405376
 20
302.793508
 42
-0.032420
  0
VERTEX
  8
0
 10
211.324452
 20
302.020122
 42
-0.021751
  0
VERTEX
  8
0
 10
210.000000
 20
301.274520
 42
0.084810
  0
VERTEX
  8
0
 10
207.245910
 20
299.230598
 42
0.171028
  0
VERTEX
  8
0
 10
206.146804
 20
296.797876
 42
0.145943
  0
VERTEX
  8
0
 10
206.741531
 20
293.926960
 42
0.056667
  0
VERTEX
  8
0
 10
209.080938
 20
290.560598
 42
0.000000
  0
VERTEX
  8
0
 10
212.275515
 20
286.922175
 42
0.000000
  0
VERTEX
  8
0
 10
210.137758
 20
284.646636
 42
0.085466
  0
VERTEX
  8
0
 10
208.585693
 20
282.296547
 42
0.112150
  0
VERTEX
  8
0
 10
208.101971
 20
279.778460
 42
0.111824
  0
VERTEX
  8
0
 10
208.753316
 20
277.293032
 42
0.084597
  0
VERTEX
  8
0
 10
210.460561
 20
275.037051
 42
-0.019567
  0
VERTEX
  8
0
 10
211.846410
 20
273.629074
 42
-0.129394
  0
VERTEX
  8
0
 10
212.299240
 20
272.761370
 42
-0.170098
  0
VERTEX
  8
0
 10
212.201530
 20
271.902949
 42
-0.040198
  0
VERTEX
  8
0
 10
211.460561
 20
270.640231
 42
0.078538
  0
VERTEX
  8
0
 10
210.531958
 20
268.738599
 42
0.053385
  0
VERTEX
  8
0
 10
210.074247
 20
266.369358
 42
0.054903
  0
VERTEX
  8
0
 10
210.132963
 20
264.069664
 42
0.113865
  0
VERTEX
  8
0
 10
210.765313
 20
262.399704
 42
0.059516
  0
VERTEX
  8
0
 10
211.192853
 20
261.899892
 42
0.021248
  0
VERTEX
  8
0
 10
211.910938
 20
261.292854
 42
0.020733
  0
VERTEX
  8
0
 10
212.762903
 20
260.687400
 42
0.023013
  0
VERTEX
  8
0
 10
213.633625
 20
260.176802
 42
-0.084485
  0
VERTEX
  8
0
 10
214.548131
 20
259.477371
 42
-0.052176
  0
VERTEX
  8
0
 10
215.364100
 20
258.392917
 42
-0.047366
  0
VERTEX
  8
0
 10
216.013276
 20
257.035643
 42
-0.041530
  0
VERTEX
  8
0
 10
216.430358
 20
255.519531
 42
0.086356
  0
VERTEX
  8
0
 10
217.528514
 20
252.581815
 42
0.107409
  0
VERTEX
  8
0
 10
219.498711
 20
250.441398
 42
0.107479
  0
VERTEX
  8
0
 10
222.178475
 20
249.312674
 42
0.086562
  0
VERTEX
  8
0
 10
225.311186
 20
249.275647
 42
-0.039116
  0
VERTEX
  8
0
 10
227.051250
 20
249.419851
 42
-0.082165
  0
VERTEX
  8
0
 10
228.386941
 20
249.205025
 42
-0.081867
  0
VERTEX
  8
0
 10
229.585321
 20
248.570740
 42
-0.038607
  0
VERTEX
  8
0
 10
230.896779
 20
247.403346
 42
0.056064
  0
VERTEX
  8
0
 10
232.879170
 20
245.758822
 42
0.123938
  0
VERTEX
  8
0
 10
234.723639
 20
245.119036
 42
0.120735
  0
VERTEX
  8
0
 10
236.683366
 20
245.421324
 42
0.051743
  0
VERTEX
  8
0
 10
239.027494
 20
246.692036
 42
0.023549
  0
VERTEX
  8
0
 10
241.033093
 20
248.207946
 42
0.070692
  0
VERTEX
  8
0
 10
242.182123
 20
249.478207
 42
0.090310
  0
VERTEX
  8
0
 10
242.776193
 20
250.830048
 42
0.056671
  0
VERTEX
  8
0
 10
242.984687
 20
252.549112
 42
-0.103728
  0
VERTEX
  8
0
 10
243.197900
 20
253.529281
 42
-0.092477
  0
VERTEX
  8
0
 10
243.791723
 20
254.387409
 42
-0.071816
  0
VERTEX
  8
0
 10
244.800045
 20
255.134463
 42
-0.035981
  0
VERTEX
  8
0
 10
246.250000
 20
255.786025
 42
0.049974
  0
VERTEX
  8
0
 10
247.608875
 20
256.442874
 42
0.034306
  0
VERTEX
  8
0
 10
249.004586
 20
257.436567
 42
0.034631
  0
VERTEX
  8
0
 10
250.228746
 20
258.592007
 42
0.057590
  0
VERTEX
  8
0
 10
251.063483
 20
259.736914
 42
-0.064824
  0
VERTEX
  8
0
 10
252.168778
 20
261.207899
 42
-0.083526
  0
VERTEX
  8
0
 10
253.532389
 20
262.202689
 42
-0.055331
  0
VERTEX
  8
0
 10
255.559201
 20
262.949557
 42
-0.014218
  0
VERTEX
  8
0
 10
258.974710
 20
263.692095
 42
0.059910
  0
VERTEX
  8
0
 10
268.833170
 20
266.799168
 42
0.042886
  0
VERTEX
  8
0
 10
278.928117
 20
272.455309
 42
0.043374
  0
VERTEX
  8
0
 10
287.751361
 20
279.636055
 42
0.068223
  0
VERTEX
  8
0
 10
293.769244
 20
287.314541
 42
0.023368
  0
VERTEX
  8
0
 10
295.787749
 20
291.174929
 42
0.085876
  0
VERTEX
  8
0
 10
296.503626
 20
293.826228
 42
0.206107
  0
VERTEX
  8
0
 10
296.008340
 20
295.350707
 42
0.215795
  0
VERTEX
  8
0
 10
294.573978
 20
296.000000
 42
0.182910
  0
VERTEX
  8
0
 10
293.734058
 20
295.682105
 42
0.013629
  0
VERTEX
  8
0
 10
291.912364
 20
293.981968
 42
0.017475
  0
VERTEX
  8
0
 10
289.811973
 20
291.761863
 42
0.012326
  0
VERTEX
  8
0
 10
287.603809
 20
289.130105
 42
-0.037200
  0
VERTEX
  8
0
 10
281.039386
 20
282.052734
 42
-0.044753
  0
VERTEX
  8
0
 10
273.867678
 20
276.496260
 42
-0.046666
  0
VERTEX
  8
0
 10
266.096826
 20
272.485572
 42
-0.047269
  0
VERTEX
  8
0
 10
257.750000
 20
270.006332
 42
0.000000
  0
VERTEX
  8
0
 10
254.000000
 20
269.268548
 42
0.000000
  0
VERTEX
  8
0
 10
254.000000
 20
272.805533
 42
0.039643
  0
VERTEX
  8
0
 10
253.882165
 20
274.289415
 42
0.033611
  0
VERTEX
  8
0
 10
253.530122
 20
275.822738
 42
0.034968
  0
VERTEX
  8
0
 10
253.014477
 20
277.181172
 42
0.075862
  0
VERTEX
  8
0
 10
252.400416
 20
278.110039
 42
-0.032862
  0
VERTEX
  8
0
 10
251.537099
 20
279.200043
 42
-0.152200
  0
VERTEX
  8
0
 10
251.300832
 20
279.958238
 42
-0.131402
  0
VERTEX
  8
0
 10
251.520109
 20
280.778206
 42
-0.022103
  0
VERTEX
  8
0
 10
252.400416
 20
282.161286
 42
0.063719
  0
VERTEX
  8
0
 10
253.625576
 20
284.493226
 42
0.128375
  0
VERTEX
  8
0
 10
253.833816
 20
286.545371
 42
0.106369
  0
VERTEX
  8
0
 10
253.010218
 20
288.693187
 42
0.035621
  0
VERTEX
  8
0
 10
250.966438
 20
291.385444
 42
-0.019428
  0
VERTEX
  8
0
 10
248.915671
 20
293.912741
 42
-0.291845
  0
VERTEX
  8
0
 10
248.834616
 20
294.992695
 42
-0.197086
  0
VERTEX
  8
0
 10
249.812106
 20
295.797172
 42
-0.009334
  0
VERTEX
  8
0
 10
253.982813
 20
296.999904
 42
0.078480
  0
VERTEX
  8
0
 10
258.007450
 20
298.791069
 42
0.039870
  0
VERTEX
  8
0
 10
262.412873
 20
302.175459
 42
0.038041
  0
VERTEX
  8
0
 10
265.998643
 20
305.948275
 42
0.172671
  0
VERTEX
  8
0
 10
267.000000
 20
308.761432
 42
0.148308
  0
VERTEX
  8
0
 10
266.425031
 20
310.657233
 42
0.278850
  0
VERTEX
  8
0
 10
265.025700
 20
311.312552
 42
0.128515
  0
VERTEX
  8
0
 10
262.753943
 20
310.453462
 42
0.034598
  0
VERTEX
  8
0
 10
259.747279
 20
307.990417
 42
-0.051450
  0
VERTEX
  8
0
 10
256.230740
 20
305.302143
 42
-0.054164
  0
VERTEX
  8
0
 10
252.297720
 20
303.442551
 42
-0.060686
  0
VERTEX
  8
0
 10
248.597415
 20
302.645269
 42
-0.138709
  0
VERTEX
  8
0
 10
245.815741
 20
303.164860
 42
0.059050
  0
VERTEX
  8
0
 10
244.911889
 20
303.486988
 42
0.018571
  0
VERTEX
  8
0
 10
243.499132
 20
303.754678
 42
0.018264
  0
VERTEX
  8
0
 10
241.887069
 20
303.938598
 42
0.019271
  0
VERTEX
  8
0
 10
240.294541
 20
304.000000
 42
0.000000
  0
VERTEX
  8
0
 10
236.457599
 20
304.000000
 42
0.000000
  0
VERTEX
  8
0
 10
235.364524
 20
309.750000
 42
0.027385
  0
VERTEX
  8
0
 10
233.883530
 20
315.734074
 42
0.036178
  0
VERTEX
  8
0
 10
231.854688
 20
320.969622
 42
0.041180
  0
VERTEX
  8
0
 10
229.506580
 20
325.029773
 42
0.108064
  0
VERTEX
  8
0
 10
227.054961
 20
327.308462
 42
0.072988
  0
VERTEX
  8
0
 10
224.047065
 20
328.537308
 42
0.063467
  0
VERTEX
  8
0
 10
220.662915
 20
328.929462
 42
0.066472
  0
VERTEX
  8
0
 10
217.453364
 20
328.463579
 42
0.101285
  0
SEQEND
  0
POLYLINE
  8
0
 66
1
 70
1
  0
VERTEX
  8
0
 10
226.771171
 20
317.926204
 42
-0.034349
  0
VERTEX
  8
0
 10
227.704948
 20
315.668821
 42
-0.017930
  0
VERTEX
  8
0
 10
228.569056
 20
312.748585
 42
-0.017519
  0
VERTEX
  8
0
 10
229.259368
 20
309.614595
 42
-0.022168
  0
VERTEX
  8
0
 10
229.665758
 20
306.676393
 42
0.026660
  0
VERTEX
  8
0
 10
230.328379
 20
302.183265
 42
0.070019
  0
VERTEX
  8
0
 10
231.410979
 20
299.118267
 42
0.059104
  0
VERTEX
  8
0
 10
233.407888
 20
296.183142
 42
0.014979
  0
VERTEX
  8
0
 10
237.326162
 20
291.938542
 42
-0.026899
  0
VERTEX
  8
0
 10
238.611276
 20
290.478066
 42
-0.064064
  0
VERTEX
  8
0
 10
239.353036
 20
289.240280
 42
-0.086557
  0
VERTEX
  8
0
 10
239.629639
 20
288.106256
 42
-0.093745
  0
VERTEX
  8
0
 10
239.493234
 20
286.978681
 42
0.078862
  0
VERTEX
  8
0
 10
239.339016
 20
285.957825
 42
0.051843
  0
VERTEX
  8
0
 10
239.470991
 20
284.774359
 42
0.047779
  0
VERTEX
  8
0
 10
239.867158
 20
283.538180
 42
0.043632
  0
VERTEX
  8
0
 10
240.500332
 20
282.359150
 42
-0.037370
  0
VERTEX
  8
0
 10
241.262587
 20
280.981369
 42
-0.075456
  0
VERTEX
  8
0
 10
241.604639
 20
279.791855
 42
-0.078421
  0
VERTEX
  8
0
 10
241.571863
 20
278.584765
 42
-0.043203
  0
VERTEX
  8
0
 10
241.176995
 20
277.158113
 42
0.002483
  0
VERTEX
  8
0
 10
240.755977
 20
276.009745
 42
0.001930
  0
VERTEX
  8
0
 10
240.309011
 20
274.756486
 42
0.001951
  0
VERTEX
  8
0
 10
239.901315
 20
273.584675
 42
0.004723
  0
VERTEX
  8
0
 10
239.611701
 20
272.715030
 42
-0.056832
  0
VERTEX
  8
0
 10
239.168705
 20
271.737699
 42
-0.256944
  0
VERTEX
  8
0
 10
238.646929
 20
271.432909
 42
-0.117085
  0
VERTEX
  8
0
 10
237.816547
 20
271.607677
 42
-0.009176
  0
VERTEX
  8
0
 10
235.774688
 20
272.616513
 42
-0.030830
  0
VERTEX
  8
0
 10
231.867185
 20
274.952897
 42
-0.033837
  0
VERTEX
  8
0
 10
228.403074
 20
277.687099
 42
-0.033302
  0
VERTEX
  8
0
 10
225.293295
 20
280.904499
 42
-0.028138
  0
VERTEX
  8
0
 10
222.444963
 20
284.686108
 42
0.014225
  0
VERTEX
  8
0
 10
220.928812
 20
286.820035
 42
0.012785
  0
VERTEX
  8
0
 10
219.240602
 20
288.943273
 42
0.012932
  0
VERTEX
  8
0
 10
217.628293
 20
290.769803
 42
0.038828
  0
VERTEX
  8
0
 10
216.405128
 20
291.895966
 42
-0.059640
  0
VERTEX
  8
0
 10
214.860349
 20
293.441539
 42
-0.210909
  0
VERTEX
  8
0
 10
214.520775
 20
294.769883
 42
-0.271010
  0
VERTEX
  8
0
 10
215.281980
 20
295.683298
 42
-0.086902
  0
VERTEX
  8
0
 10
217.090402
 20
296.000000
 42
0.209838
  0
VERTEX
  8
0
 10
218.825135
 20
296.761559
 42
0.151061
  0
VERTEX
  8
0
 10
219.744570
 20
298.696488
 42
0.055222
  0
VERTEX
  8
0
 10
219.873734
 20
302.561676
 42
0.008453
  0
VERTEX
  8
0
 10
219.151248
 20
310.238706
 42
-0.006225
  0
VERTEX
  8
0
 10
218.733679
 20
314.473387
 42
-0.009147
  0
VERTEX
  8
0
 10
218.481227
 20
318.205208
 42
-0.005122
  0
VERTEX
  8
0
 10
218.359040
 20
321.335806
 42
-0.146623
  0
VERTEX
  8
0
 10
218.566219
 20
322.107145
 42
-0.153140
  0
VERTEX
  8
0
 10
218.989368
 20
322.473291
 42
-0.049783
  0
VERTEX
  8
0
 10
219.786040
 20
322.728401
 42
-0.044205
  0
VERTEX
  8
0
 10
220.782267
 20
322.850615
 42
-0.037248
  0
VERTEX
  8
0
 10
221.844436
 20
322.807310
 42
-0.081551
  0
VERTEX
  8
0
 10
223.243510
 20
322.408100
 42
-0.085218
  0
VERTEX
  8
0
 10
224.417670
 20
321.586198
 42
-0.060858
  0
VERTEX
  8
0
 10
225.528891
 20
320.179218
 42
-0.021510
  0
SEQEND
  0
POLYLINE
  8
0
 66
1
 70
1
  0
VERTEX
  8
0
 10
226.196246
 20
271.564016
 42
0.015686
  0
VERTEX
  8
0
 10
227.981453
 20
270.130472
 42
0.011804
  0
VERTEX
  8
0
 10
230.028477
 20
268.664140
 42
0.011964
  0
VERTEX
  8
0
 10
232.020687
 20
267.375747
 42
0.026774
  0
VERTEX
  8
0
 10
233.605211
 20
266.517098
 42
-0.032556
  0
VERTEX
  8
0
 10
235.180581
 20
265.639712
 42
-0.072041
  0
VERTEX
  8
0
 10
236.215105
 20
264.737697
 42
-0.091978
  0
VERTEX
  8
0
 10
236.797539
 20
263.735491
 42
-0.085962
  0
VERTEX
  8
0
 10
237.000000
 20
262.566582
 42
-0.216558
  0
VERTEX
  8
0
 10
236.148020
 20
260.691741
 42
-0.137300
  0
VERTEX
  8
0
 10
233.944627
 20
259.641359
 42
-0.113280
  0
VERTEX
  8
0
 10
231.157849
 20
259.791006
 42
-0.127218
  0
VERTEX
  8
0
 10
228.848973
 20
261.151027
 42
0.036218
  0
VERTEX
  8
0
 10
228.030751
 20
261.858583
 42
0.034047
  0
VERTEX
  8
0
 10
227.102511
 20
262.456864
 42
0.035889
  0
VERTEX
  8
0
 10
226.205228
 20
262.871321
 42
0.090486
  0
VERTEX
  8
0
 10
225.500000
 20
263.000000
 42
-0.147968
  0
VERTEX
  8
0
 10
224.859939
 20
263.193658
 42
-0.124429
  0
VERTEX
  8
0
 10
224.382711
 20
263.720948
 42
-0.084715
  0
VERTEX
  8
0
 10
224.091986
 20
264.601212
 42
-0.037509
  0
VERTEX
  8
0
 10
224.000000
 20
265.825686
 42
0.064420
  0
VERTEX
  8
0
 10
223.829273
 20
267.145293
 42
0.048227
  0
VERTEX
  8
0
 10
223.321022
 20
268.521807
 42
0.045986
  0
VERTEX
  8
0
 10
222.525300
 20
269.843303
 42
0.045709
  0
VERTEX
  8
0
 10
221.500000
 20
271.000000
 42
-0.058445
  0
VERTEX
  8
0
 10
219.075549
 20
273.879286
 42
-0.557510
  0
VERTEX
  8
0
 10
219.625452
 20
275.065500
 42
-0.173064
  0
VERTEX
  8
0
 10
222.276713
 20
274.463694
 42
-0.035517
  0
SEQEND
  0
POLYLINE
  8
0
 66
1
 70
1
  0
VERTEX
  8
0
 10
236.467425
 20
229.374641
 42
0.031616
  0
VERTEX
  8
0
 10
234.252012
 20
228.554192
 42
0.019300
  0
VERTEX
  8
0
 10
231.747739
 20
227.324401
 42
0.019315
  0
VERTEX
  8
0
 10
229.351036
 20
225.908182
 42
0.032218
  0
VERTEX
  8
0
 10
227.467425
 20
224.515268
 42
0.000000
  0
VERTEX
  8
0
 10
223.500000
 20
221.165710
 42
0.000000
  0
VERTEX
  8
0
 10
226.497559
 20
220.013484
 42
0.034759
  0
VERTEX
  8
0
 10
228.190789
 20
219.494366
 42
0.083535
  0
VERTEX
  8
0
 10
229.496036
 20
219.414235
 42
0.079155
  0
VERTEX
  8
0
 10
230.798087
 20
219.765280
 42
0.028880
  0
VERTEX
  8
0
 10
232.497559
 20
220.648041
 42
-0.024391
  0
VERTEX
  8
0
 10
234.057060
 20
221.475944
 42
-0.008463
  0
VERTEX
  8
0
 10
236.380533
 20
222.520085
 42
-0.008384
  0
VERTEX
  8
0
 10
238.982690
 20
223.585620
 42
-0.009657
  0
VERTEX
  8
0
 10
241.500000
 20
224.511859
 42
0.013567
  0
VERTEX
  8
0
 10
244.466309
 20
225.629716
 42
0.051102
  0
VERTEX
  8
0
 10
246.217423
 20
226.562926
 42
0.091672
  0
VERTEX
  8
0
 10
247.166667
 20
227.491863
 42
0.154558
  0
VERTEX
  8
0
 10
247.500000
 20
228.544448
 42
0.261843
  0
VERTEX
  8
0
 10
246.684438
 20
229.995020
 42
0.118377
  0
VERTEX
  8
0
 10
244.538024
 20
230.684385
 42
0.065202
  0
VERTEX
  8
0
 10
241.069522
 20
230.493037
 42
0.026540
  0
SEQEND
  0
ENDSEC
  0
EOF
