  0
SECTION
  2
HEADER
  9
$ACADVER
  1
AC1006
  9
$EXTMIN
 10
0.000000
 20
0.000000
 30
0.000000
  9
$EXTMAX
 10
342.000000
 20
325.000000
 30
0.000000
  0
ENDSEC
  0
SECTION
  2
ENTITIES
  0
POLYLINE
  8
0
 66
1
 70
1
  0
VERTEX
  8
0
 10
0.000000
 20
162.500000
 42
0.000000
  0
VERTEX
  8
0
 10
0.000000
 20
0.000000
 42
0.000000
  0
VERTEX
  8
0
 10
171.000000
 20
0.000000
 42
0.000000
  0
VERTEX
  8
0
 10
342.000000
 20
0.000000
 42
0.000000
  0
VERTEX
  8
0
 10
342.000000
 20
162.500000
 42
0.000000
  0
VERTEX
  8
0
 10
342.000000
 20
325.000000
 42
0.000000
  0
VERTEX
  8
0
 10
171.000000
 20
325.000000
 42
0.000000
  0
VERTEX
  8
0
 10
0.000000
 20
325.000000
 42
0.000000
  0
SEQEND
  0
POLYLINE
  8
0
 66
1
 70
1
  0
VERTEX
  8
0
 10
98.455198
 20
273.378819
 42
-0.198770
  0
VERTEX
  8
0
 10
101.195885
 20
270.780011
 42
-0.065430
  0
VERTEX
  8
0
 10
102.810198
 20
265.347829
 42
-0.066398
  0
VERTEX
  8
0
 10
102.952421
 20
259.790857
 42
-0.230332
  0
VERTEX
  8
0
 10
101.095487
 20
256.827560
 42
0.037775
  0
VERTEX
  8
0
 10
100.101740
 20
256.097264
 42
0.173198
  0
VERTEX
  8
0
 10
99.752537
 20
255.485280
 42
0.157774
  0
VERTEX
  8
0
 10
99.853454
 20
254.755615
 42
0.029940
  0
VERTEX
  8
0
 10
100.517562
 20
253.569086
 42
-0.053244
  0
VERTEX
  8
0
 10
101.075218
 20
252.454030
 42
-0.017452
  0
VERTEX
  8
0
 10
101.657984
 20
250.709813
 42
-0.017165
  0
VERTEX
  8
0
 10
102.174277
 20
248.714710
 42
-0.018586
  0
VERTEX
  8
0
 10
102.536981
 20
246.740916
 42
-0.040892
  0
VERTEX
  8
0
 10
102.766465
 20
243.093088
 42
-0.130052
  0
VERTEX
  8
0
 10
102.102645
 20
240.763226
 42
-0.173328
  0
VERTEX
  8
0
 10
100.521183
 20
239.454436
 42
-0.087243
  0
VERTEX
  8
0
 10
97.936572
 20
239.000000
 42
0.034636
  0
VERTEX
  8
0
 10
96.809638
 20
238.921841
 42
0.039440
  0
VERTEX
  8
0
 10
95.753548
 20
238.688639
 42
0.043199
  0
VERTEX
  8
0
 10
94.907111
 20
238.348092
 42
0.137956
  0
VERTEX
  8
0
 10
94.462947
 20
237.940047
 42
-0.269624
  0
VERTEX
  8
0
 10
93.119575
 20
237.222646
 42
-0.015572
  0
VERTEX
  8
0
 10
88.279923
 20
237.549162
 42
-0.020449
  0
VERTEX
  8
0
 10
83.504725
 20
238.219170
 42
-0.124128
  0
VERTEX
  8
0
 10
81.250000
 20
239.245837
 42
-0.134589
  0
VERTEX
  8
0
 10
80.766897
 20
239.909891
 42
-0.032637
  0
VERTEX
  8
0
 10
80.367188
 20
241.219988
 42
-0.031136
  0
VERTEX
  8
0
 10
80.091914
 20
242.836939
 42
-0.026600
  0
VERTEX
  8
0
 10
80.000000
 20
244.563428
 42
0.021517
  0
VERTEX
  8
0
 10
79.926856
 20
246.262336
 42
0.028460
  0
VERTEX
  8
0
 10
79.706250
 20
247.794943
 42
0.028441
  0
VERTEX
  8
0
 10
79.388629
 20
249.004811
 42
0.177743
  0
VERTEX
  8
0
 10
79.000000
 20
249.500000
 42
-0.111412
  0
VERTEX
  8
0
 10
78.616444
 20
249.876024
 42
-0.050262
  0
VERTEX
  8
0
 10
78.293750
 20
250.506650
 42
-0.046318
  0
VERTEX
  8
0
 10
78.074077
 20
251.270704
 42
-0.046881
  0
VERTEX
  8
0
 10
78.000000
 20
252.059017
 42
0.079703
  0
VERTEX
  8
0
 10
77.857680
 20
252.946157
 42
0.037888
  0
VERTEX
  8
0
 10
77.412500
 20
254.017336
 42
0.036313
  0
VERTEX
  8
0
 10
76.765382
 20
255.091494
 42
0.042674
  0
VERTEX
  8
0
 10
76.000000
 20
256.000000
 42
-0.140935
  0
VERTEX
  8
0
 10
74.486181
 20
258.735983
 42
-0.049146
  0
VERTEX
  8
0
 10
73.909852
 20
263.244708
 42
-0.048786
  0
VERTEX
  8
0
 10
74.214557
 20
267.681431
 42
-0.179906
  0
VERTEX
  8
0
 10
75.592731
 20
270.076960
 42
-0.116491
  0
VERTEX
  8
0
 10
79.236122
 20
271.885650
 42
-0.021358
  0
VERTEX
  8
0
 10
86.674332
 20
273.286422
 42
-0.021889
  0
VERTEX
  8
0
 10
94.223068
 20
274.041228
 42
-0.105968
  0
SEQEND
  0
POLYLINE
  8
0
 66
1
 70
1
  0
VERTEX
  8
0
 10
128.022708
 20
272.987847
 42
-0.155670
  0
VERTEX
  8
0
 10
129.662176
 20
271.298915
 42
-0.079647
  0
VERTEX
  8
0
 10
130.551702
 20
268.450757
 42
-0.072344
  0
VERTEX
  8
0
 10
130.549468
 20
265.158926
 42
-0.083225
  0
VERTEX
  8
0
 10
129.588501
 20
262.171142
 42
0.053121
  0
VERTEX
  8
0
 10
128.935616
 20
260.493365
 42
0.024526
  0
VERTEX
  8
0
 10
128.433231
 20
258.202937
 42
0.022470
  0
VERTEX
  8
0
 10
128.108281
 20
255.551452
 42
0.019255
  0
VERTEX
  8
0
 10
128.000000
 20
252.740790
 42
-0.027116
  0
VERTEX
  8
0
 10
127.732397
 20
247.809970
 42
-0.104566
  0
VERTEX
  8
0
 10
126.782144
 20
244.911566
 42
-0.176624
  0
VERTEX
  8
0
 10
125.055476
 20
243.469070
 42
-0.115418
  0
VERTEX
  8
0
 10
122.450686
 20
243.164212
 42
-0.047111
  0
VERTEX
  8
0
 10
120.732267
 20
243.525927
 42
-0.182135
  0
VERTEX
  8
0
 10
119.887400
 20
244.184259
 42
-0.109816
  0
VERTEX
  8
0
 10
119.454492
 20
245.449029
 42
-0.012277
  0
VERTEX
  8
0
 10
119.190005
 20
248.500000
 42
0.016164
  0
VERTEX
  8
0
 10
119.002463
 20
250.484039
 42
0.020128
  0
VERTEX
  8
0
 10
118.694944
 20
252.310313
 42
0.018808
  0
VERTEX
  8
0
 10
118.323793
 20
253.796780
 42
0.125100
  0
VERTEX
  8
0
 10
117.940005
 20
254.450000
 42
-0.159266
  0
VERTEX
  8
0
 10
117.191458
 20
255.944911
 42
-0.044415
  0
VERTEX
  8
0
 10
117.033568
 20
258.591797
 42
-0.044664
  0
VERTEX
  8
0
 10
117.349219
 20
261.243947
 42
-0.145430
  0
VERTEX
  8
0
 10
118.183333
 20
262.783333
 42
0.115188
  0
VERTEX
  8
0
 10
118.878420
 20
263.901847
 42
0.397037
  0
VERTEX
  8
0
 10
118.554869
 20
264.608769
 42
0.147209
  0
VERTEX
  8
0
 10
117.175158
 20
264.737937
 42
0.034127
  0
VERTEX
  8
0
 10
114.901823
 20
264.115620
 42
-0.032548
  0
VERTEX
  8
0
 10
111.416179
 20
263.149608
 42
-0.090296
  0
VERTEX
  8
0
 10
108.883570
 20
263.085831
 42
-0.132645
  0
VERTEX
  8
0
 10
107.072749
 20
263.891623
 42
-0.115723
  0
VERTEX
  8
0
 10
105.801215
 20
265.536940
 42
-0.029393
  0
VERTEX
  8
0
 10
105.278805
 20
266.888816
 42
-0.095115
  0
VERTEX
  8
0
 10
105.163791
 20
267.840042
 42
-0.121087
  0
VERTEX
  8
0
 10
105.418326
 20
268.633744
 42
-0.063555
  0
VERTEX
  8
0
 10
106.072654
 20
269.445762
 42
-0.115018
  0
VERTEX
  8
0
 10
110.072544
 20
271.824734
 42
-0.036901
  0
VERTEX
  8
0
 10
116.838981
 20
273.435905
 42
-0.036556
  0
VERTEX
  8
0
 10
123.719364
 20
274.035397
 42
-0.126983
  0
SEQEND
  0
POLYLINE
  8
0
 66
1
 70
1
  0
VERTEX
  8
0
 10
150.553851
 20
261.912868
 42
0.075363
  0
VERTEX
  8
0
 10
150.927179
 20
261.473233
 42
0.181024
  0
VERTEX
  8
0
 10
151.321227
 20
261.325735
 42
0.150038
  0
VERTEX
  8
0
 10
151.768438
 20
261.463023
 42
0.047458
  0
VERTEX
  8
0
 10
152.312868
 20
261.912868
 42
-0.112649
  0
VERTEX
  8
0
 10
152.981046
 20
262.332755
 42
-0.029692
  0
VERTEX
  8
0
 10
154.203203
 20
262.680655
 42
-0.028588
  0
VERTEX
  8
0
 10
155.678781
 20
262.919990
 42
-0.025915
  0
VERTEX
  8
0
 10
157.221439
 20
263.000000
 42
-0.027243
  0
VERTEX
  8
0
 10
159.242408
 20
262.889805
 42
-0.089583
  0
VERTEX
  8
0
 10
160.518407
 20
262.512317
 42
-0.112513
  0
VERTEX
  8
0
 10
161.418839
 20
261.768542
 42
-0.057257
  0
VERTEX
  8
0
 10
162.180103
 20
260.504062
 42
-0.037315
  0
VERTEX
  8
0
 10
162.690481
 20
259.118497
 42
-0.107293
  0
VERTEX
  8
0
 10
162.756229
 20
258.101653
 42
-0.108446
  0
VERTEX
  8
0
 10
162.394411
 20
257.155492
 42
-0.038587
  0
VERTEX
  8
0
 10
161.503676
 20
256.004062
 42
-0.110865
  0
VERTEX
  8
0
 10
159.674175
 20
254.713357
 42
-0.071538
  0
VERTEX
  8
0
 10
157.151418
 20
254.067192
 42
-0.077621
  0
VERTEX
  8
0
 10
154.780589
 20
254.178753
 42
-0.206687
  0
VERTEX
  8
0
 10
153.420634
 20
255.128416
 42
0.106535
  0
VERTEX
  8
0
 10
153.052481
 20
255.511257
 42
0.235653
  0
VERTEX
  8
0
 10
152.661054
 20
255.562361
 42
0.144970
  0
VERTEX
  8
0
 10
152.238596
 20
255.260143
 42
0.037939
  0
VERTEX
  8
0
 10
151.772725
 20
254.558366
 42
-0.103404
  0
VERTEX
  8
0
 10
151.102870
 20
253.788868
 42
-0.091305
  0
VERTEX
  8
0
 10
150.151700
 20
253.310085
 42
-0.064308
  0
VERTEX
  8
0
 10
148.809400
 20
253.099258
 42
-0.024862
  0
VERTEX
  8
0
 10
146.922617
 20
253.141459
 42
0.030205
  0
VERTEX
  8
0
 10
145.340923
 20
253.159942
 42
0.032830
  0
VERTEX
  8
0
 10
143.812645
 20
252.984429
 42
0.034813
  0
VERTEX
  8
0
 10
142.538895
 20
252.659764
 42
0.117087
  0
VERTEX
  8
0
 10
141.811509
 20
252.211509
 42
-0.144868
  0
VERTEX
  8
0
 10
140.171400
 20
251.320480
 42
-0.052196
  0
VERTEX
  8
0
 10
137.504193
 20
251.037680
 42
-0.052196
  0
VERTEX
  8
0
 10
134.837508
 20
251.313218
 42
-0.145550
  0
VERTEX
  8
0
 10
133.200000
 20
252.200000
 42
-0.117853
  0
VERTEX
  8
0
 10
132.295862
 20
253.672128
 42
-0.095621
  0
VERTEX
  8
0
 10
132.063375
 20
255.515060
 42
-0.087815
  0
VERTEX
  8
0
 10
132.537260
 20
257.448565
 42
-0.080179
  0
VERTEX
  8
0
 10
133.654988
 20
259.171259
 42
-0.102360
  0
VERTEX
  8
0
 10
135.248295
 20
260.335953
 42
-0.075410
  0
VERTEX
  8
0
 10
137.356853
 20
260.934707
 42
-0.084117
  0
VERTEX
  8
0
 10
139.317682
 20
260.852906
 42
-0.204713
  0
VERTEX
  8
0
 10
140.477458
 20
260.036475
 42
0.252405
  0
VERTEX
  8
0
 10
140.857977
 20
259.817217
 42
0.100534
  0
VERTEX
  8
0
 10
141.470579
 20
259.923721
 42
0.066093
  0
VERTEX
  8
0
 10
142.233634
 20
260.345072
 42
0.037237
  0
VERTEX
  8
0
 10
143.036475
 20
261.036475
 42
-0.092385
  0
VERTEX
  8
0
 10
144.877544
 20
262.299134
 42
-0.075354
  0
VERTEX
  8
0
 10
147.186528
 20
262.929428
 42
-0.085561
  0
VERTEX
  8
0
 10
149.294898
 20
262.814095
 42
-0.200594
  0
SEQEND
  0
POLYLINE
  8
0
 66
1
 70
1
  0
VERTEX
  8
0
 10
166.930544
 20
240.535917
 42
-0.033863
  0
VERTEX
  8
0
 10
168.185815
 20
239.774999
 42
-0.018297
  0
VERTEX
  8
0
 10
169.626024
 20
238.681872
 42
-0.018148
  0
VERTEX
  8
0
 10
171.017609
 20
237.456123
 42
-0.027174
  0
VERTEX
  8
0
 10
172.130884
 20
236.280222
 42
0.050204
  0
VERTEX
  8
0
 10
173.832017
 20
234.641350
 42
0.116616
  0
VERTEX
  8
0
 10
175.428943
 20
233.900734
 42
0.055233
  0
VERTEX
  8
0
 10
177.853317
 20
233.677761
 42
0.004929
  0
VERTEX
  8
0
 10
183.981595
 20
233.852447
 42
0.006716
  0
VERTEX
  8
0
 10
189.128625
 20
234.119233
 42
0.035154
  0
VERTEX
  8
0
 10
191.937281
 20
234.502146
 42
0.068726
  0
VERTEX
  8
0
 10
193.657821
 20
235.116603
 42
0.120461
  0
VERTEX
  8
0
 10
194.788299
 20
236.108142
 42
-0.129792
  0
VERTEX
  8
0
 10
196.450829
 20
237.513145
 42
-0.115287
  0
VERTEX
  8
0
 10
198.668222
 20
237.994905
 42
-0.132681
  0
VERTEX
  8
0
 10
200.643232
 20
237.428175
 42
-0.195369
  0
VERTEX
  8
0
 10
201.710251
 20
236.000000
 42
0.111497
  0
VERTEX
  8
0
 10
202.358946
 20
234.747423
 42
0.154429
  0
VERTEX
  8
0
 10
203.420587
 20
234.075264
 42
0.175182
  0
VERTEX
  8
0
 10
204.575040
 20
234.178114
 42
0.146414
  0
VERTEX
  8
0
 10
205.500000
 20
235.000000
 42
-0.186690
  0
VERTEX
  8
0
 10
206.605925
 20
235.837403
 42
-0.113402
  0
VERTEX
  8
0
 10
208.265368
 20
235.925637
 42
-0.099060
  0
VERTEX
  8
0
 10
209.985986
 20
235.257886
 42
-0.111680
  0
VERTEX
  8
0
 10
211.232073
 20
234.000000
 42
0.042162
  0
VERTEX
  8
0
 10
211.804797
 20
233.234808
 42
0.043858
  0
VERTEX
  8
0
 10
212.490861
 20
232.587500
 42
0.047946
  0
VERTEX
  8
0
 10
213.182862
 20
232.141149
 42
0.119829
  0
VERTEX
  8
0
 10
213.763365
 20
232.000000
 42
-0.096435
  0
VERTEX
  8
0
 10
216.218671
 20
231.521998
 42
-0.005815
  0
VERTEX
  8
0
 10
223.182439
 20
228.609048
 42
-0.008275
  0
VERTEX
  8
0
 10
229.935595
 20
225.557874
 42
-0.047286
  0
VERTEX
  8
0
 10
233.315818
 20
223.552688
 42
-0.009274
  0
VERTEX
  8
0
 10
234.685672
 20
222.514637
 42
-0.003657
  0
VERTEX
  8
0
 10
236.533593
 20
221.037560
 42
-0.003618
  0
VERTEX
  8
0
 10
238.507606
 20
219.412062
 42
-0.004517
  0
VERTEX
  8
0
 10
240.315818
 20
217.873049
 42
0.025640
  0
VERTEX
  8
0
 10
242.161700
 20
216.431818
 42
0.021746
  0
VERTEX
  8
0
 10
244.247404
 20
215.100362
 42
0.022310
  0
VERTEX
  8
0
 10
246.257074
 20
214.053952
 42
0.055681
  0
VERTEX
  8
0
 10
247.824280
 20
213.527279
 42
-0.107860
  0
VERTEX
  8
0
 10
253.126754
 20
211.109276
 42
-0.097342
  0
VERTEX
  8
0
 10
257.171291
 20
206.625957
 42
-0.091246
  0
VERTEX
  8
0
 10
259.397560
 20
200.674041
 42
-0.081550
  0
VERTEX
  8
0
 10
259.484744
 20
194.071102
 42
0.030046
  0
VERTEX
  8
0
 10
259.217332
 20
191.090018
 42
0.002428
  0
VERTEX
  8
0
 10
259.024278
 20
183.222684
 42
0.003266
  0
VERTEX
  8
0
 10
258.900781
 20
173.827956
 42
0.002504
  0
VERTEX
  8
0
 10
258.884294
 20
163.559310
 42
-0.001597
  0
VERTEX
  8
0
 10
258.887578
 20
147.734524
 42
-0.015423
  0
VERTEX
  8
0
 10
258.660237
 20
141.016938
 42
-0.037865
  0
VERTEX
  8
0
 10
258.107349
 20
137.103977
 42
-0.079412
  0
VERTEX
  8
0
 10
256.986266
 20
134.252150
 42
0.021105
  0
VERTEX
  8
0
 10
256.226000
 20
132.829680
 42
0.020733
  0
VERTEX
  8
0
 10
255.583466
 20
131.339839
 42
0.021139
  0
VERTEX
  8
0
 10
255.130779
 20
129.989398
 42
0.070408
  0
VERTEX
  8
0
 10
255.000000
 20
129.065285
 42
-0.114416
  0
VERTEX
  8
0
 10
254.626198
 20
127.453142
 42
-0.122220
  0
VERTEX
  8
0
 10
253.585727
 20
126.215125
 42
-0.085936
  0
VERTEX
  8
0
 10
251.756772
 20
125.315346
 42
-0.033597
  0
VERTEX
  8
0
 10
249.000000
 20
124.702999
 42
0.001512
  0
VERTEX
  8
0
 10
247.368726
 20
124.449059
 42
0.000787
  0
VERTEX
  8
0
 10
245.335430
 20
124.122958
 42
0.000782
  0
VERTEX
  8
0
 10
243.249092
 20
123.781631
 42
0.001194
  0
VERTEX
  8
0
 10
241.439762
 20
123.478277
 42
0.000000
  0
VERTEX
  8
0
 10
237.379523
 20
122.787567
 42
0.000000
  0
VERTEX
  8
0
 10
238.439762
 20
116.993922
 42
0.020547
  0
VERTEX
  8
0
 10
238.971976
 20
114.637026
 42
0.020914
  0
VERTEX
  8
0
 10
239.693279
 20
112.345871
 42
0.021236
  0
VERTEX
  8
0
 10
240.485709
 20
110.414156
 42
0.076419
  0
VERTEX
  8
0
 10
241.218211
 20
109.306525
 42
-0.097189
  0
VERTEX
  8
0
 10
242.081084
 20
107.876994
 42
-0.051213
  0
VERTEX
  8
0
 10
242.589973
 20
105.858450
 42
-0.029741
  0
VERTEX
  8
0
 10
242.851224
 20
102.798068
 42
-0.007107
  0
VERTEX
  8
0
 10
242.909862
 20
97.691207
 42
-0.031183
  0
VERTEX
  8
0
 10
242.381275
 20
89.580348
 42
-0.223438
  0
VERTEX
  8
0
 10
240.327391
 20
86.355301
 42
-0.122918
  0
VERTEX
  8
0
 10
235.803506
 20
84.858871
 42
-0.007221
  0
VERTEX
  8
0
 10
221.232677
 20
83.977665
 42
0.010399
  0
VERTEX
  8
0
 10
207.019769
 20
83.027398
 42
0.022111
  0
VERTEX
  8
0
 10
196.095794
 20
81.579532
 42
0.027227
  0
VERTEX
  8
0
 10
188.061494
 20
79.694737
 42
0.104033
  0
VERTEX
  8
0
 10
183.552848
 20
77.277200
 42
-0.043813
  0
VERTEX
  8
0
 10
181.489190
 20
75.828915
 42
-0.091298
  0
VERTEX
  8
0
 10
179.645105
 20
75.171870
 42
-0.049157
  0
VERTEX
  8
0
 10
177.038932
 20
75.010212
 42
-0.005827
  0
VERTEX
  8
0
 10
171.242734
 20
75.288279
 42
-0.028577
  0
VERTEX
  8
0
 10
163.893061
 20
76.150117
 42
-0.028330
  0
VERTEX
  8
0
 10
156.667841
 20
77.845769
 42
-0.027765
  0
VERTEX
  8
0
 10
149.544664
 20
80.386958
 42
-0.025144
  0
VERTEX
  8
0
 10
142.500000
 20
83.776623
 42
0.031457
  0
VERTEX
  8
0
 10
139.136891
 20
85.342905
 42
0.057713
  0
VERTEX
  8
0
 10
136.218041
 20
86.112083
 42
0.031612
  0
VERTEX
  8
0
 10
132.203631
 20
86.430542
 42
0.003990
  0
VERTEX
  8
0
 10
123.500000
 20
86.500000
 42
-0.011127
  0
VERTEX
  8
0
 10
113.227447
 20
86.728625
 42
-0.064429
  0
VERTEX
  8
0
 10
107.893765
 20
87.661679
 42
-0.097660
  0
VERTEX
  8
0
 10
104.021944
 20
89.759628
 42
-0.042922
  0
VERTEX
  8
0
 10
99.847698
 20
93.864828
 42
0.000000
  0
VERTEX
  8
0
 10
96.494658
 20
97.782101
 42
0.000000
  0
VERTEX
  8
0
 10
86.217876
 20
96.293049
 42
-0.011688
  0
VERTEX
  8
0
 10
79.085717
 20
95.429311
 42
-0.076517
  0
VERTEX
  8
0
 10
75.496491
 20
95.629055
 42
-0.192718
  0
VERTEX
  8
0
 10
73.699419
 20
96.829948
 42
-0.151373
  0
VERTEX
  8
0
 10
73.000000
 20
99.087261
 42
-0.189333
  0
VERTEX
  8
0
 10
73.670938
 20
100.795590
 42
-0.101246
  0
VERTEX
  8
0
 10
75.543779
 20
102.134096
 42
-0.048554
  0
VERTEX
  8
0
 10
79.087528
 20
103.315073
 42
-0.010310
  0
VERTEX
  8
0
 10
85.465284
 20
104.634691
 42
0.000000
  0
VERTEX
  8
0
 10
93.947583
 20
106.208120
 42
0.000000
  0
VERTEX
  8
0
 10
93.374802
 20
112.354060
 42
0.007768
  0
VERTEX
  8
0
 10
93.024449
 20
115.571546
 42
0.002264
  0
VERTEX
  8
0
 10
92.385779
 20
120.513380
 42
0.002274
  0
VERTEX
  8
0
 10
91.616027
 20
126.072118
 42
0.002433
  0
VERTEX
  8
0
 10
90.812246
 20
131.500000
 42
-0.001726
  0
VERTEX
  8
0
 10
87.917137
 20
150.861558
 42
-0.008820
  0
VERTEX
  8
0
 10
86.535629
 20
161.652005
 42
-0.013929
  0
VERTEX
  8
0
 10
85.975203
 20
168.484390
 42
-0.075113
  0
VERTEX
  8
0
 10
86.331297
 20
172.183856
 42
-0.078278
  0
VERTEX
  8
0
 10
87.394511
 20
174.683646
 42
-0.065418
  0
VERTEX
  8
0
 10
89.230153
 20
176.912153
 42
-0.069238
  0
VERTEX
  8
0
 10
91.448377
 20
178.471972
 42
-0.119211
  0
VERTEX
  8
0
 10
93.631585
 20
179.000000
 42
0.050734
  0
VERTEX
  8
0
 10
95.051991
 20
179.144497
 42
0.010160
  0
VERTEX
  8
0
 10
97.537596
 20
179.708371
 42
0.010643
  0
VERTEX
  8
0
 10
100.415159
 20
180.488316
 42
0.009752
  0
VERTEX
  8
0
 10
103.342630
 20
181.411475
 42
-0.011819
  0
VERTEX
  8
0
 10
106.603667
 20
182.425020
 42
-0.007154
  0
VERTEX
  8
0
 10
110.507600
 20
183.477751
 42
-0.007165
  0
VERTEX
  8
0
 10
114.415584
 20
184.412409
 42
-0.012496
  0
VERTEX
  8
0
 10
117.683240
 20
185.059281
 42
0.000000
  0
VERTEX
  8
0
 10
124.866481
 20
186.295612
 42
0.000000
  0
VERTEX
  8
0
 10
126.525228
 20
191.397806
 42
-0.010429
  0
VERTEX
  8
0
 10
127.330530
 20
193.709718
 42
-0.006032
  0
VERTEX
  8
0
 10
128.390034
 20
196.456797
 42
-0.006026
  0
VERTEX
  8
0
 10
129.519966
 20
199.188404
 42
-0.010064
  0
VERTEX
  8
0
 10
130.544199
 20
201.455119
 42
0.015283
  0
VERTEX
  8
0
 10
131.581304
 20
203.815672
 42
0.042957
  0
VERTEX
  8
0
 10
132.109786
 20
205.539148
 42
0.066242
  0
VERTEX
  8
0
 10
132.209720
 20
206.795391
 42
0.161333
  0
VERTEX
  8
0
 10
131.875447
 20
207.650077
 42
-0.083787
  0
VERTEX
  8
0
 10
131.504079
 20
208.290432
 42
-0.040721
  0
VERTEX
  8
0
 10
131.244721
 20
209.202819
 42
-0.038890
  0
VERTEX
  8
0
 10
131.124155
 20
210.221391
 42
-0.045256
  0
VERTEX
  8
0
 10
131.173236
 20
211.194958
 42
-0.073035
  0
VERTEX
  8
0
 10
131.514718
 20
212.353509
 42
-0.135007
  0
VERTEX
  8
0
 10
132.142981
 20
213.098149
 42
-0.099363
  0
VERTEX
  8
0
 10
133.210933
 20
213.554079
 42
-0.028439
  0
VERTEX
  8
0
 10
135.000000
 20
213.821830
 42
0.085849
  0
VERTEX
  8
0
 10
138.275960
 20
214.703738
 42
0.076464
  0
VERTEX
  8
0
 10
141.214611
 20
216.658081
 42
0.093241
  0
VERTEX
  8
0
 10
142.990094
 20
219.016340
 42
0.242279
  0
VERTEX
  8
0
 10
142.957068
 20
221.080219
 42
-0.129402
  0
VERTEX
  8
0
 10
141.915367
 20
225.449940
 42
-0.087281
  0
VERTEX
  8
0
 10
142.926322
 20
230.502725
 42
-0.077239
  0
VERTEX
  8
0
 10
145.803069
 20
235.460579
 42
-0.069021
  0
VERTEX
  8
0
 10
150.148060
 20
239.533079
 42
-0.088348
  0
VERTEX
  8
0
 10
153.690221
 20
241.196234
 42
-0.050807
  0
VERTEX
  8
0
 10
158.357946
 20
241.955313
 42
-0.050615
  0
VERTEX
  8
0
 10
163.114486
 20
241.757996
 42
-0.083857
  0
SEQEND
  0
POLYLINE
  8
0
 66
1
 70
1
  0
VERTEX
  8
0
 10
83.613351
 20
269.945732
 42
0.014061
  0
VERTEX
  8
0
 10
81.674640
 20
269.564464
 42
0.017279
  0
VERTEX
  8
0
 10
79.890778
 20
269.095914
 42
0.015846
  0
VERTEX
  8
0
 10
78.436115
 20
268.608842
 42
0.108070
  0
VERTEX
  8
0
 10
77.802862
 20
268.202862
 42
0.148545
  0
VERTEX
  8
0
 10
77.461018
 20
267.562685
 42
0.022607
  0
VERTEX
  8
0
 10
77.241606
 20
266.114106
 42
0.023640
  0
VERTEX
  8
0
 10
77.138249
 20
264.329370
 42
0.018500
  0
VERTEX
  8
0
 10
77.189511
 20
262.389511
 42
0.013104
  0
VERTEX
  8
0
 10
77.450935
 20
259.480377
 42
0.104273
  0
VERTEX
  8
0
 10
77.877677
 20
258.208096
 42
0.177639
  0
VERTEX
  8
0
 10
78.689201
 20
257.541352
 42
0.055456
  0
VERTEX
  8
0
 10
80.249653
 20
257.183611
 42
-0.020517
  0
VERTEX
  8
0
 10
81.813762
 20
256.938269
 42
-0.198410
  0
VERTEX
  8
0
 10
82.361365
 20
256.572924
 42
-0.244125
  0
VERTEX
  8
0
 10
82.428383
 20
255.976150
 42
-0.031096
  0
VERTEX
  8
0
 10
81.873042
 20
254.762776
 42
0.038902
  0
VERTEX
  8
0
 10
81.371597
 20
253.620419
 42
0.131825
  0
VERTEX
  8
0
 10
81.312144
 20
252.815500
 42
0.141374
  0
VERTEX
  8
0
 10
81.663748
 20
252.122112
 42
0.047346
  0
VERTEX
  8
0
 10
82.521773
 20
251.360421
 42
-0.039493
  0
VERTEX
  8
0
 10
83.344551
 20
250.652768
 42
-0.137875
  0
VERTEX
  8
0
 10
83.681636
 20
250.046608
 42
-0.167398
  0
VERTEX
  8
0
 10
83.620505
 20
249.426262
 42
-0.065789
  0
VERTEX
  8
0
 10
83.157061
 20
248.689247
 42
0.109273
  0
VERTEX
  8
0
 10
82.546015
 20
247.501194
 42
0.299799
  0
VERTEX
  8
0
 10
82.833338
 20
246.648987
 42
0.139745
  0
VERTEX
  8
0
 10
84.101141
 20
246.134688
 42
0.026928
  0
VERTEX
  8
0
 10
86.600244
 20
246.000000
 42
-0.028454
  0
VERTEX
  8
0
 10
88.387531
 20
245.898207
 42
-0.132543
  0
VERTEX
  8
0
 10
89.338675
 20
245.521244
 42
-0.158401
  0
VERTEX
  8
0
 10
89.879260
 20
244.757129
 42
-0.045955
  0
VERTEX
  8
0
 10
90.183578
 20
243.327119
 42
0.054699
  0
VERTEX
  8
0
 10
90.744101
 20
240.901769
 42
0.352055
  0
VERTEX
  8
0
 10
91.738917
 20
240.281699
 42
0.301710
  0
VERTEX
  8
0
 10
92.715884
 20
241.114122
 42
0.049255
  0
VERTEX
  8
0
 10
93.185940
 20
243.688020
 42
-0.021149
  0
VERTEX
  8
0
 10
93.439313
 20
245.712715
 42
-0.103377
  0
VERTEX
  8
0
 10
93.857470
 20
246.781898
 42
-0.165980
  0
VERTEX
  8
0
 10
94.559791
 20
247.330360
 42
-0.080264
  0
VERTEX
  8
0
 10
95.696703
 20
247.530036
 42
0.045692
  0
VERTEX
  8
0
 10
97.524736
 20
247.722675
 42
0.171664
  0
VERTEX
  8
0
 10
98.501135
 20
248.303093
 42
0.193088
  0
VERTEX
  8
0
 10
98.829489
 20
249.317753
 42
0.059777
  0
VERTEX
  8
0
 10
98.523918
 20
250.924639
 42
0.102416
  0
VERTEX
  8
0
 10
97.746674
 20
252.309444
 42
0.178927
  0
VERTEX
  8
0
 10
96.607079
 20
252.933660
 42
0.207886
  0
VERTEX
  8
0
 10
95.462888
 20
252.625696
 42
0.133671
  0
VERTEX
  8
0
 10
94.638374
 20
251.500000
 42
-0.156264
  0
VERTEX
  8
0
 10
93.907281
 20
250.589288
 42
-0.091284
  0
VERTEX
  8
0
 10
92.607364
 20
250.036190
 42
-0.125797
  0
VERTEX
  8
0
 10
91.462871
 20
250.070603
 42
-0.334293
  0
VERTEX
  8
0
 10
91.000000
 20
250.685549
 42
-0.142117
  0
VERTEX
  8
0
 10
91.112657
 20
251.073896
 42
-0.015619
  0
VERTEX
  8
0
 10
91.638705
 20
251.849588
 42
-0.018079
  0
VERTEX
  8
0
 10
92.341609
 20
252.749103
 42
-0.013682
  0
VERTEX
  8
0
 10
93.174314
 20
253.685549
 42
0.031259
  0
VERTEX
  8
0
 10
94.498302
 20
255.284217
 42
0.491834
  0
VERTEX
  8
0
 10
94.326330
 20
255.871210
 42
0.168333
  0
VERTEX
  8
0
 10
93.247948
 20
255.912288
 42
0.009991
  0
VERTEX
  8
0
 10
90.098177
 20
254.884380
 42
-0.029210
  0
VERTEX
  8
0
 10
87.728466
 20
254.210585
 42
-0.174369
  0
VERTEX
  8
0
 10
86.474193
 20
254.370285
 42
-0.385803
  0
VERTEX
  8
0
 10
86.185803
 20
255.130755
 42
-0.079864
  0
VERTEX
  8
0
 10
86.979944
 20
256.475834
 42
-0.109565
  0
VERTEX
  8
0
 10
87.814135
 20
257.123002
 42
-0.047746
  0
VERTEX
  8
0
 10
89.140094
 20
257.601213
 42
-0.039005
  0
VERTEX
  8
0
 10
90.863673
 20
257.901948
 42
-0.023698
  0
VERTEX
  8
0
 10
92.931315
 20
258.000000
 42
0.038689
  0
VERTEX
  8
0
 10
97.090911
 20
258.322347
 42
0.134177
  0
VERTEX
  8
0
 10
99.531437
 20
259.416440
 42
0.183470
  0
VERTEX
  8
0
 10
100.644263
 20
261.361428
 42
0.085767
  0
VERTEX
  8
0
 10
100.602039
 20
264.307775
 42
0.094350
  0
VERTEX
  8
0
 10
99.039908
 20
268.292821
 42
0.173880
  0
VERTEX
  8
0
 10
96.333253
 20
270.414130
 42
0.101135
  0
VERTEX
  8
0
 10
91.742628
 20
270.962279
 42
0.020833
  0
SEQEND
  0
POLYLINE
  8
0
 66
1
 70
1
  0
VERTEX
  8
0
 10
86.541119
 20
266.933469
 42
-0.098322
  0
VERTEX
  8
0
 10
86.864193
 20
266.068754
 42
-0.305677
  0
VERTEX
  8
0
 10
86.616671
 20
265.531554
 42
-0.086057
  0
VERTEX
  8
0
 10
85.627785
 20
265.143418
 42
-0.005823
  0
VERTEX
  8
0
 10
82.644996
 20
264.567648
 42
-0.013212
  0
VERTEX
  8
0
 10
80.739439
 20
264.274546
 42
-0.074305
  0
VERTEX
  8
0
 10
79.712206
 20
264.297293
 42
-0.225507
  0
VERTEX
  8
0
 10
79.271896
 20
264.607709
 42
-0.211805
  0
VERTEX
  8
0
 10
79.219135
 20
265.157405
 42
-0.116503
  0
VERTEX
  8
0
 10
79.554285
 20
265.699523
 42
-0.045591
  0
VERTEX
  8
0
 10
80.234814
 20
266.265786
 42
-0.041955
  0
VERTEX
  8
0
 10
81.114248
 20
266.768177
 42
-0.040689
  0
VERTEX
  8
0
 10
82.074139
 20
267.122737
 42
-0.006673
  0
VERTEX
  8
0
 10
84.399398
 20
267.739196
 42
-0.072163
  0
VERTEX
  8
0
 10
85.363833
 20
267.837649
 42
-0.168664
  0
VERTEX
  8
0
 10
85.975451
 20
267.595819
 42
-0.076778
  0
SEQEND
  0
POLYLINE
  8
0
 66
1
 70
1
  0
VERTEX
  8
0
 10
97.061911
 20
265.337161
 42
-0.033008
  0
VERTEX
  8
0
 10
97.391560
 20
264.261326
 42
-0.041474
  0
VERTEX
  8
0
 10
97.545697
 20
263.230554
 42
-0.046620
  0
VERTEX
  8
0
 10
97.522209
 20
262.380834
 42
-0.170648
  0
VERTEX
  8
0
 10
97.287161
 20
261.905041
 42
-0.140026
  0
VERTEX
  8
0
 10
95.827047
 20
261.115573
 42
-0.048871
  0
VERTEX
  8
0
 10
93.432488
 20
260.827423
 42
-0.048237
  0
VERTEX
  8
0
 10
91.162351
 20
260.996411
 42
-0.272162
  0
VERTEX
  8
0
 10
90.271558
 20
261.750000
 42
-0.209602
  0
VERTEX
  8
0
 10
90.312217
 20
262.283732
 42
-0.164444
  0
VERTEX
  8
0
 10
90.739134
 20
262.685913
 42
-0.081591
  0
VERTEX
  8
0
 10
91.627044
 20
262.928572
 42
-0.025995
  0
VERTEX
  8
0
 10
93.000000
 20
263.000000
 42
0.076479
  0
VERTEX
  8
0
 10
94.990398
 20
263.306239
 42
0.285058
  0
VERTEX
  8
0
 10
95.780823
 20
264.225676
 42
0.339969
  0
VERTEX
  8
0
 10
95.257053
 20
265.182799
 42
0.085118
  0
VERTEX
  8
0
 10
93.412288
 20
265.643701
 42
-0.000545
  0
VERTEX
  8
0
 10
92.588620
 20
265.706500
 42
-0.000426
  0
VERTEX
  8
0
 10
91.694547
 20
265.776415
 42
-0.000431
  0
VERTEX
  8
0
 10
90.862355
 20
265.842927
 42
-0.001055
  0
VERTEX
  8
0
 10
90.250000
 20
265.893701
 42
-0.144098
  0
VERTEX
  8
0
 10
89.114346
 20
266.335566
 42
-0.463878
  0
VERTEX
  8
0
 10
89.082714
 20
267.040542
 42
-0.131078
  0
VERTEX
  8
0
 10
90.453838
 20
267.765375
 42
-0.056467
  0
VERTEX
  8
0
 10
92.524751
 20
268.000000
 42
-0.030765
  0
VERTEX
  8
0
 10
94.402550
 20
267.884350
 42
-0.102281
  0
VERTEX
  8
0
 10
95.567690
 20
267.489326
 42
-0.119672
  0
VERTEX
  8
0
 10
96.378277
 20
266.704991
 42
-0.050123
  0
SEQEND
  0
POLYLINE
  8
0
 66
1
 70
1
  0
VERTEX
  8
0
 10
86.756214
 20
261.250000
 42
-0.231864
  0
VERTEX
  8
0
 10
86.680961
 20
260.709765
 42
-0.151499
  0
VERTEX
  8
0
 10
86.180767
 20
260.308573
 42
-0.072044
  0
VERTEX
  8
0
 10
85.165772
 20
260.069364
 42
-0.021906
  0
VERTEX
  8
0
 10
83.583333
 20
260.000000
 42
-0.029462
  0
VERTEX
  8
0
 10
81.405528
 20
260.128435
 42
-0.144553
  0
VERTEX
  8
0
 10
80.285093
 20
260.608672
 42
-0.314848
  0
VERTEX
  8
0
 10
80.075340
 20
261.370408
 42
-0.111472
  0
VERTEX
  8
0
 10
80.712576
 20
262.379243
 42
-0.189347
  0
VERTEX
  8
0
 10
81.920286
 20
262.905781
 42
-0.055454
  0
VERTEX
  8
0
 10
83.976864
 20
262.753474
 42
-0.055592
  0
VERTEX
  8
0
 10
85.924250
 20
262.160051
 42
-0.214886
  0
SEQEND
  0
POLYLINE
  8
0
 66
1
 70
1
  0
VERTEX
  8
0
 10
95.000000
 20
244.116631
 42
0.283018
  0
VERTEX
  8
0
 10
95.469589
 20
243.353473
 42
0.046619
  0
VERTEX
  8
0
 10
97.152443
 20
242.692214
 42
0.047238
  0
VERTEX
  8
0
 10
99.011687
 20
242.340759
 42
0.162918
  0
VERTEX
  8
0
 10
100.189853
 20
242.617336
 42
0.109670
  0
VERTEX
  8
0
 10
100.467256
 20
242.887426
 42
0.099858
  0
VERTEX
  8
0
 10
100.616057
 20
243.258646
 42
0.095125
  0
VERTEX
  8
0
 10
100.612940
 20
243.674123
 42
0.089335
  0
VERTEX
  8
0
 10
100.457295
 20
244.069098
 42
0.205263
  0
VERTEX
  8
0
 10
99.473776
 20
244.759900
 42
0.049718
  0
VERTEX
  8
0
 10
97.454075
 20
244.979010
 42
0.052486
  0
VERTEX
  8
0
 10
95.554712
 20
244.795792
 42
0.356483
  0
SEQEND
  0
POLYLINE
  8
0
 66
1
 70
1
  0
VERTEX
  8
0
 10
83.000000
 20
242.666667
 42
0.078639
  0
VERTEX
  8
0
 10
83.203851
 20
241.378571
 42
0.198929
  0
VERTEX
  8
0
 10
83.807892
 20
240.671020
 42
0.179507
  0
VERTEX
  8
0
 10
84.787926
 20
240.556631
 42
0.063174
  0
VERTEX
  8
0
 10
86.131483
 20
241.070368
 42
0.060370
  0
VERTEX
  8
0
 10
87.600770
 20
242.101640
 42
0.268838
  0
VERTEX
  8
0
 10
87.912736
 20
243.065721
 42
0.282817
  0
VERTEX
  8
0
 10
87.231802
 20
243.777094
 42
0.064092
  0
VERTEX
  8
0
 10
85.500000
 20
244.000000
 42
0.049024
  0
VERTEX
  8
0
 10
84.523560
 20
243.904031
 42
0.073637
  0
VERTEX
  8
0
 10
83.718750
 20
243.616667
 42
0.096565
  0
VERTEX
  8
0
 10
83.188095
 20
243.185356
 42
0.175719
  0
SEQEND
  0
POLYLINE
  8
0
 66
1
 70
1
  0
VERTEX
  8
0
 10
115.500000
 20
270.327908
 42
0.033625
  0
VERTEX
  8
0
 10
110.928268
 20
268.994370
 42
0.113779
  0
VERTEX
  8
0
 10
108.339940
 20
267.307347
 42
0.621475
  0
VERTEX
  8
0
 10
108.692994
 20
266.326576
 42
0.074285
  0
VERTEX
  8
0
 10
111.750000
 20
266.434094
 42
-0.006735
  0
VERTEX
  8
0
 10
117.519784
 20
267.424429
 42
-0.025383
  0
VERTEX
  8
0
 10
121.166613
 20
267.811567
 42
-0.039483
  0
VERTEX
  8
0
 10
123.414369
 20
267.757795
 42
-0.384402
  0
VERTEX
  8
0
 10
124.000000
 20
267.108612
 42
-0.105499
  0
VERTEX
  8
0
 10
123.858284
 20
266.444441
 42
-0.013515
  0
VERTEX
  8
0
 10
123.223847
 20
265.122525
 42
-0.015316
  0
VERTEX
  8
0
 10
122.369529
 20
263.577578
 42
-0.012213
  0
VERTEX
  8
0
 10
121.357779
 20
261.964453
 42
0.010247
  0
VERTEX
  8
0
 10
119.769737
 20
259.454477
 42
0.097846
  0
VERTEX
  8
0
 10
119.338830
 20
258.268666
 42
0.174286
  0
VERTEX
  8
0
 10
119.525726
 20
257.305328
 42
0.049748
  0
VERTEX
  8
0
 10
120.444579
 20
256.061239
 42
-0.067011
  0
VERTEX
  8
0
 10
121.188151
 20
254.978414
 42
-0.057514
  0
VERTEX
  8
0
 10
121.666359
 20
253.680531
 42
-0.049859
  0
VERTEX
  8
0
 10
121.881217
 20
252.138928
 42
-0.031677
  0
VERTEX
  8
0
 10
121.836801
 20
250.325346
 42
0.018479
  0
VERTEX
  8
0
 10
121.741205
 20
248.447556
 42
0.077430
  0
VERTEX
  8
0
 10
121.899222
 20
247.331424
 42
0.157449
  0
VERTEX
  8
0
 10
122.317022
 20
246.730484
 42
0.164186
  0
VERTEX
  8
0
 10
123.000000
 20
246.500000
 42
0.232852
  0
VERTEX
  8
0
 10
123.730291
 20
246.859597
 42
0.107997
  0
VERTEX
  8
0
 10
124.192682
 20
247.840417
 42
0.047048
  0
VERTEX
  8
0
 10
124.437501
 20
249.693579
 42
0.009330
  0
VERTEX
  8
0
 10
124.500000
 20
253.042499
 42
-0.016282
  0
VERTEX
  8
0
 10
124.601558
 20
256.160479
 42
-0.030649
  0
VERTEX
  8
0
 10
124.918984
 20
258.658401
 42
-0.038070
  0
VERTEX
  8
0
 10
125.460307
 20
260.662757
 42
-0.060048
  0
VERTEX
  8
0
 10
126.250000
 20
262.257316
 42
0.046913
  0
VERTEX
  8
0
 10
127.436634
 20
264.503467
 42
0.080040
  0
VERTEX
  8
0
 10
127.924491
 20
266.563561
 42
0.099520
  0
VERTEX
  8
0
 10
127.699068
 20
268.348906
 42
0.115867
  0
VERTEX
  8
0
 10
126.800000
 20
269.800000
 42
0.159213
  0
VERTEX
  8
0
 10
125.367179
 20
270.527144
 42
0.026797
  0
VERTEX
  8
0
 10
122.266681
 20
270.839064
 42
0.029344
  0
VERTEX
  8
0
 10
118.742316
 20
270.796815
 42
0.036500
  0
SEQEND
  0
POLYLINE
  8
0
 66
1
 70
1
  0
VERTEX
  8
0
 10
145.169960
 20
257.830040
 42
0.152298
  0
VERTEX
  8
0
 10
145.961604
 20
256.161419
 42
0.189590
  0
VERTEX
  8
0
 10
147.494897
 20
255.419227
 42
0.229612
  0
VERTEX
  8
0
 10
148.904837
 20
255.974748
 42
0.188193
  0
VERTEX
  8
0
 10
149.500000
 20
257.500000
 42
0.083604
  0
VERTEX
  8
0
 10
149.349747
 20
258.392313
 42
0.113422
  0
VERTEX
  8
0
 10
148.917490
 20
259.082510
 42
0.102636
  0
VERTEX
  8
0
 10
148.189201
 20
259.560539
 42
0.058962
  0
VERTEX
  8
0
 10
147.169960
 20
259.830040
 42
0.036721
  0
VERTEX
  8
0
 10
145.944431
 20
259.912642
 42
0.197325
  0
VERTEX
  8
0
 10
145.339921
 20
259.660079
 42
0.197325
  0
VERTEX
  8
0
 10
145.087358
 20
259.055569
 42
0.036721
  0
SEQEND
  0
POLYLINE
  8
0
 66
1
 70
1
  0
VERTEX
  8
0
 10
155.000000
 20
258.559017
 42
0.105871
  0
VERTEX
  8
0
 10
155.254892
 20
257.368720
 42
0.158361
  0
VERTEX
  8
0
 10
155.963165
 20
256.586812
 42
0.142552
  0
VERTEX
  8
0
 10
157.059453
 20
256.321480
 42
0.080341
  0
VERTEX
  8
0
 10
158.409758
 20
256.603744
 42
0.123502
  0
VERTEX
  8
0
 10
159.686835
 20
257.500443
 42
0.248588
  0
VERTEX
  8
0
 10
159.954482
 20
258.666777
 42
0.223085
  0
VERTEX
  8
0
 10
159.131168
 20
259.642847
 42
0.108196
  0
VERTEX
  8
0
 10
157.500000
 20
260.000000
 42
0.047734
  0
VERTEX
  8
0
 10
156.478748
 20
259.902280
 42
0.083213
  0
VERTEX
  8
0
 10
155.683732
 20
259.605902
 42
0.111514
  0
VERTEX
  8
0
 10
155.181832
 20
259.143008
 42
0.152080
  0
SEQEND
  0
POLYLINE
  8
0
 66
1
 70
1
  0
VERTEX
  8
0
 10
135.169960
 20
255.830040
 42
0.152298
  0
VERTEX
  8
0
 10
135.961604
 20
254.161419
 42
0.189590
  0
VERTEX
  8
0
 10
137.494897
 20
253.419227
 42
0.229612
  0
VERTEX
  8
0
 10
138.904837
 20
253.974748
 42
0.188193
  0
VERTEX
  8
0
 10
139.500000
 20
255.500000
 42
0.083604
  0
VERTEX
  8
0
 10
139.349747
 20
256.392313
 42
0.113422
  0
VERTEX
  8
0
 10
138.917490
 20
257.082510
 42
0.102636
  0
VERTEX
  8
0
 10
138.189201
 20
257.560539
 42
0.058962
  0
VERTEX
  8
0
 10
137.169960
 20
257.830040
 42
0.036721
  0
VERTEX
  8
0
 10
135.944431
 20
257.912642
 42
0.197325
  0
VERTEX
  8
0
 10
135.339921
 20
257.660079
 42
0.197325
  0
VERTEX
  8
0
 10
135.087358
 20
257.055569
 42
0.036721
  0
SEQEND
  0
POLYLINE
  8
0
 66
1
 70
1
  0
VERTEX
  8
0
 10
152.500000
 20
237.466505
 42
0.100331
  0
VERTEX
  8
0
 10
148.584622
 20
234.425099
 42
0.086796
  0
VERTEX
  8
0
 10
145.917929
 20
229.948210
 42
0.092671
  0
VERTEX
  8
0
 10
145.040608
 20
225.106305
 42
0.139056
  0
VERTEX
  8
0
 10
146.227971
 20
221.006568
 42
-0.101970
  0
VERTEX
  8
0
 10
146.687426
 20
219.767198
 42
-0.151589
  0
VERTEX
  8
0
 10
146.516747
 20
218.631075
 42
-0.071336
  0
VERTEX
  8
0
 10
145.563186
 20
217.214370
 42
-0.010291
  0
VERTEX
  8
0
 10
143.167251
 20
214.670416
 42
-0.015585
  0
VERTEX
  8
0
 10
140.919625
 20
212.518687
 42
-0.051722
  0
VERTEX
  8
0
 10
139.266859
 20
211.315948
 42
-0.080839
  0
VERTEX
  8
0
 10
137.853651
 20
210.776894
 42
-0.098305
  0
VERTEX
  8
0
 10
136.439280
 20
210.766856
 42
0.043693
  0
VERTEX
  8
0
 10
134.767030
 20
210.937263
 42
0.296728
  0
VERTEX
  8
0
 10
134.097757
 20
210.515158
 42
0.301168
  0
VERTEX
  8
0
 10
134.218020
 20
209.739623
 42
0.044391
  0
VERTEX
  8
0
 10
135.447051
 20
208.610243
 42
-0.195547
  0
VERTEX
  8
0
 10
136.008087
 20
207.652994
 42
-0.101674
  0
VERTEX
  8
0
 10
135.925472
 20
206.248197
 42
-0.041434
  0
VERTEX
  8
0
 10
135.099422
 20
203.943912
 42
-0.006241
  0
VERTEX
  8
0
 10
133.009943
 20
199.500000
 42
0.010197
  0
VERTEX
  8
0
 10
131.476807
 20
196.171170
 42
0.010217
  0
VERTEX
  8
0
 10
130.081717
 20
192.784726
 42
0.010089
  0
VERTEX
  8
0
 10
128.985452
 20
189.783048
 42
0.039522
  0
VERTEX
  8
0
 10
128.495865
 20
187.873536
 42
0.000000
  0
VERTEX
  8
0
 10
127.865947
 20
184.247072
 42
0.000000
  0
VERTEX
  8
0
 10
119.182973
 20
182.535829
 42
0.007243
  0
VERTEX
  8
0
 10
115.446899
 20
181.743133
 42
0.005600
  0
VERTEX
  8
0
 10
111.398816
 20
180.774957
 42
0.005665
  0
VERTEX
  8
0
 10
107.638823
 20
179.785626
 42
0.013516
  0
VERTEX
  8
0
 10
104.876827
 20
178.944391
 42
-0.009856
  0
VERTEX
  8
0
 10
102.415849
 20
178.175113
 42
-0.007305
  0
VERTEX
  8
0
 10
99.667963
 20
177.418619
 42
-0.007389
  0
VERTEX
  8
0
 10
97.051804
 20
176.780461
 42
-0.016480
  0
VERTEX
  8
0
 10
95.040894
 20
176.390549
 42
0.083108
  0
VERTEX
  8
0
 10
91.496567
 20
175.198665
 42
0.190155
  0
VERTEX
  8
0
 10
89.700819
 20
173.087067
 42
0.099325
  0
VERTEX
  8
0
 10
89.199279
 20
169.277929
 42
0.014532
  0
VERTEX
  8
0
 10
89.951442
 20
161.479200
 42
0.017340
  0
VERTEX
  8
0
 10
91.166192
 20
153.946573
 42
0.024925
  0
VERTEX
  8
0
 10
92.800896
 20
147.391771
 42
0.027333
  0
VERTEX
  8
0
 10
94.932287
 20
141.532745
 42
0.029636
  0
VERTEX
  8
0
 10
97.641544
 20
136.102772
 42
-0.026125
  0
VERTEX
  8
0
 10
99.038566
 20
133.351305
 42
-0.053243
  0
VERTEX
  8
0
 10
99.779756
 20
131.046926
 42
-0.044737
  0
VERTEX
  8
0
 10
100.087532
 20
128.391591
 42
-0.013790
  0
VERTEX
  8
0
 10
100.081087
 20
124.358423
 42
0.025765
  0
VERTEX
  8
0
 10
100.255246
 20
116.564942
 42
0.037932
  0
VERTEX
  8
0
 10
101.275995
 20
109.796783
 42
0.040848
  0
VERTEX
  8
0
 10
103.225495
 20
103.650913
 42
0.037872
  0
VERTEX
  8
0
 10
106.188172
 20
97.738515
 42
0.014756
  0
VERTEX
  8
0
 10
108.111951
 20
94.735445
 42
0.030078
  0
VERTEX
  8
0
 10
109.827157
 20
92.522631
 42
0.038371
  0
VERTEX
  8
0
 10
111.347078
 20
91.035282
 42
0.113473
  0
VERTEX
  8
0
 10
112.639800
 20
90.375556
 42
0.069846
  0
VERTEX
  8
0
 10
115.275026
 20
90.094003
 42
0.014596
  0
VERTEX
  8
0
 10
119.922555
 20
90.383529
 42
0.014038
  0
VERTEX
  8
0
 10
125.657900
 20
91.072065
 42
0.009432
  0
VERTEX
  8
0
 10
132.167440
 20
92.165476
 42
-0.012713
  0
VERTEX
  8
0
 10
135.636213
 20
92.724751
 42
-0.073227
  0
VERTEX
  8
0
 10
137.490502
 20
92.702937
 42
-0.093801
  0
VERTEX
  8
0
 10
139.047849
 20
92.143248
 42
-0.027692
  0
VERTEX
  8
0
 10
141.167440
 20
90.731917
 42
0.025628
  0
VERTEX
  8
0
 10
144.949585
 20
88.190996
 42
0.034005
  0
VERTEX
  8
0
 10
148.640039
 20
86.305527
 42
0.026148
  0
VERTEX
  8
0
 10
153.237947
 20
84.616389
 42
0.008688
  0
VERTEX
  8
0
 10
160.135040
 20
82.615115
 42
0.020066
  0
VERTEX
  8
0
 10
168.966962
 20
80.594575
 42
0.057879
  0
VERTEX
  8
0
 10
175.221764
 20
80.161351
 42
0.093360
  0
VERTEX
  8
0
 10
179.538018
 20
81.184075
 42
0.155863
  0
VERTEX
  8
0
 10
182.299690
 20
83.645985
 42
-0.141080
  0
VERTEX
  8
0
 10
182.851356
 20
84.167177
 42
-0.044156
  0
VERTEX
  8
0
 10
183.914530
 20
84.602258
 42
-0.040141
  0
VERTEX
  8
0
 10
185.247085
 20
84.900162
 42
-0.034940
  0
VERTEX
  8
0
 10
186.674048
 20
85.000000
 42
0.032657
  0
VERTEX
  8
0
 10
188.753045
 20
85.135933
 42
0.005307
  0
VERTEX
  8
0
 10
192.760564
 20
85.705569
 42
0.005832
  0
VERTEX
  8
0
 10
197.469863
 20
86.482349
 42
0.005104
  0
VERTEX
  8
0
 10
202.374358
 20
87.401937
 42
-0.009182
  0
VERTEX
  8
0
 10
207.710640
 20
88.357505
 42
-0.006511
  0
VERTEX
  8
0
 10
213.728718
 20
89.241251
 42
-0.006574
  0
VERTEX
  8
0
 10
219.499743
 20
89.934990
 42
-0.013828
  0
VERTEX
  8
0
 10
224.000000
 20
90.290498
 42
0.006196
  0
VERTEX
  8
0
 10
227.768668
 20
90.530398
 42
0.007911
  0
VERTEX
  8
0
 10
231.234302
 20
90.849383
 42
0.006334
  0
VERTEX
  8
0
 10
234.120700
 20
91.198224
 42
0.064121
  0
VERTEX
  8
0
 10
235.286985
 20
91.509742
 42
0.187929
  0
VERTEX
  8
0
 10
238.156943
 20
94.240778
 42
0.069571
  0
VERTEX
  8
0
 10
239.833343
 20
99.664830
 42
0.071137
  0
VERTEX
  8
0
 10
239.937343
 20
105.195472
 42
0.226066
  0
VERTEX
  8
0
 10
238.000000
 20
108.232073
 42
-0.079295
  0
VERTEX
  8
0
 10
237.084172
 20
109.029671
 42
-0.079745
  0
VERTEX
  8
0
 10
236.464227
 20
110.071253
 42
-0.063833
  0
VERTEX
  8
0
 10
236.112048
 20
111.449161
 42
-0.030694
  0
VERTEX
  8
0
 10
236.000000
 20
113.272665
 42
0.031493
  0
VERTEX
  8
0
 10
235.892056
 20
114.984733
 42
0.018639
  0
VERTEX
  8
0
 10
235.559375
 20
117.005027
 42
0.018610
  0
VERTEX
  8
0
 10
235.074975
 20
119.004418
 42
0.030227
  0
VERTEX
  8
0
 10
234.500000
 20
120.654243
 42
-0.002836
  0
VERTEX
  8
0
 10
233.925182
 20
122.052216
 42
-0.004250
  0
VERTEX
  8
0
 10
233.440625
 20
123.279859
 42
-0.001823
  0
VERTEX
  8
0
 10
233.039787
 20
124.332664
 42
-0.090279
  0
VERTEX
  8
0
 10
233.000000
 20
124.551226
 42
-0.339143
  0
VERTEX
  8
0
 10
233.112929
 20
124.698568
 42
-0.002514
  0
VERTEX
  8
0
 10
234.689063
 20
125.114289
 42
-0.007865
  0
VERTEX
  8
0
 10
236.545431
 20
125.562927
 42
-0.004800
  0
VERTEX
  8
0
 10
238.750000
 20
126.036961
 42
0.018560
  0
VERTEX
  8
0
 10
244.517558
 20
127.444200
 42
0.052891
  0
VERTEX
  8
0
 10
248.347769
 20
128.983441
 42
0.069633
  0
VERTEX
  8
0
 10
251.147730
 20
131.011412
 42
0.055134
  0
VERTEX
  8
0
 10
253.542984
 20
133.885589
 42
0.029790
  0
VERTEX
  8
0
 10
254.878810
 20
136.191613
 42
0.050020
  0
VERTEX
  8
0
 10
255.678187
 20
138.280273
 42
0.045752
  0
VERTEX
  8
0
 10
256.088643
 20
140.613630
 42
0.020771
  0
VERTEX
  8
0
 10
256.216310
 20
143.714311
 42
-0.000594
  0
VERTEX
  8
0
 10
256.223590
 20
152.770576
 42
-0.000532
  0
VERTEX
  8
0
 10
256.252314
 20
162.166265
 42
-0.000481
  0
VERTEX
  8
0
 10
256.294550
 20
170.475782
 42
-0.002582
  0
VERTEX
  8
0
 10
256.345262
 20
175.000000
 42
0.006545
  0
VERTEX
  8
0
 10
256.352317
 20
177.148629
 42
0.003030
  0
VERTEX
  8
0
 10
256.308013
 20
179.940625
 42
0.003001
  0
VERTEX
  8
0
 10
256.226063
 20
182.874017
 42
0.004171
  0
VERTEX
  8
0
 10
256.114985
 20
185.500000
 42
-0.012948
  0
VERTEX
  8
0
 10
256.049901
 20
188.132074
 42
-0.009195
  0
VERTEX
  8
0
 10
256.107659
 20
191.084134
 42
-0.009291
  0
VERTEX
  8
0
 10
256.267129
 20
193.901873
 42
-0.019417
  0
VERTEX
  8
0
 10
256.516886
 20
196.084286
 42
0.024320
  0
VERTEX
  8
0
 10
256.762722
 20
198.436271
 42
0.044358
  0
VERTEX
  8
0
 10
256.698802
 20
200.364198
 42
0.049370
  0
VERTEX
  8
0
 10
256.308476
 20
202.105921
 42
0.039553
  0
VERTEX
  8
0
 10
255.562826
 20
203.878509
 42
0.071811
  0
VERTEX
  8
0
 10
253.773330
 20
206.381816
 42
0.046087
  0
VERTEX
  8
0
 10
251.071446
 20
208.726279
 42
0.046931
  0
VERTEX
  8
0
 10
248.130103
 20
210.444873
 42
0.108669
  0
VERTEX
  8
0
 10
245.646929
 20
210.996262
 42
-0.125430
  0
VERTEX
  8
0
 10
244.639101
 20
211.255294
 42
-0.019863
  0
VERTEX
  8
0
 10
242.873816
 20
212.315508
 42
-0.020968
  0
VERTEX
  8
0
 10
240.853209
 20
213.765696
 42
-0.016970
  0
VERTEX
  8
0
 10
238.808726
 20
215.482064
 42
0.041174
  0
VERTEX
  8
0
 10
233.772209
 20
219.310906
 42
0.018957
  0
VERTEX
  8
0
 10
226.658032
 20
223.477265
 42
0.018417
  0
VERTEX
  8
0
 10
219.452055
 20
227.003190
 42
0.058261
  0
VERTEX
  8
0
 10
214.330538
 20
228.597769
 42
-0.034693
  0
VERTEX
  8
0
 10
212.770871
 20
229.004007
 42
-0.058238
  0
VERTEX
  8
0
 10
211.547764
 20
229.580576
 42
-0.073179
  0
VERTEX
  8
0
 10
210.698565
 20
230.300135
 42
-0.117023
  0
VERTEX
  8
0
 10
210.254315
 20
231.135502
 42
0.120234
  0
VERTEX
  8
0
 10
209.618815
 20
232.312455
 42
0.153708
  0
VERTEX
  8
0
 10
208.562194
 20
232.933467
 42
0.167706
  0
VERTEX
  8
0
 10
207.410193
 20
232.810899
 42
0.145745
  0
VERTEX
  8
0
 10
206.500000
 20
232.000000
 42
-0.201973
  0
VERTEX
  8
0
 10
205.266983
 20
231.122269
 42
-0.093447
  0
VERTEX
  8
0
 10
203.263588
 20
231.054723
 42
-0.087368
  0
VERTEX
  8
0
 10
201.250124
 20
231.737514
 42
-0.145556
  0
VERTEX
  8
0
 10
200.000000
 20
233.000000
 42
0.059308
  0
VERTEX
  8
0
 10
199.035536
 20
234.380308
 42
0.170961
  0
VERTEX
  8
0
 10
198.027837
 20
234.935795
 42
0.310960
  0
VERTEX
  8
0
 10
197.296790
 20
234.593582
 42
0.133286
  0
VERTEX
  8
0
 10
197.000000
 20
233.500000
 42
-0.206154
  0
VERTEX
  8
0
 10
196.693546
 20
232.788322
 42
-0.119511
  0
VERTEX
  8
0
 10
195.871699
 20
232.318115
 42
-0.056441
  0
VERTEX
  8
0
 10
194.348706
 20
232.058217
 42
-0.013122
  0
VERTEX
  8
0
 10
191.750000
 20
231.980191
 42
0.013719
  0
VERTEX
  8
0
 10
189.244040
 20
231.901956
 42
0.006325
  0
VERTEX
  8
0
 10
185.988868
 20
231.669480
 42
0.006259
  0
VERTEX
  8
0
 10
182.569905
 20
231.338645
 42
0.008633
  0
VERTEX
  8
0
 10
179.509975
 20
230.950267
 42
-0.007690
  0
VERTEX
  8
0
 10
175.918887
 20
230.487590
 42
-0.037314
  0
VERTEX
  8
0
 10
173.867370
 20
230.409264
 42
-0.076990
  0
VERTEX
  8
0
 10
172.669529
 20
230.639770
 42
-0.232906
  0
VERTEX
  8
0
 10
172.107549
 20
231.220076
 42
0.084148
  0
VERTEX
  8
0
 10
171.751840
 20
231.903992
 42
0.013630
  0
VERTEX
  8
0
 10
170.812026
 20
233.078710
 42
0.014708
  0
VERTEX
  8
0
 10
169.615519
 20
234.411861
 42
0.012464
  0
VERTEX
  8
0
 10
168.276373
 20
235.750000
 42
0.026830
  0
VERTEX
  8
0
 10
166.277309
 20
237.455943
 42
0.068495
  0
VERTEX
  8
0
 10
164.624189
 20
238.393751
 42
0.068836
  0
VERTEX
  8
0
 10
162.784133
 20
238.847544
 42
0.027308
  0
VERTEX
  8
0
 10
160.178798
 20
238.977230
 42
0.026779
  0
VERTEX
  8
0
 10
158.167669
 20
238.859623
 42
0.020579
  0
VERTEX
  8
0
 10
155.993147
 20
238.524062
 42
0.020983
  0
VERTEX
  8
0
 10
153.980789
 20
238.039663
 42
0.045595
  0
SEQEND
  0
POLYLINE
  8
0
 66
1
 70
1
  0
VERTEX
  8
0
 10
212.000000
 20
226.579880
 42
-0.050899
  0
VERTEX
  8
0
 10
224.336547
 20
221.758863
 42
-0.053109
  0
VERTEX
  8
0
 10
235.255678
 20
214.599184
 42
-0.055384
  0
VERTEX
  8
0
 10
244.019486
 20
205.627017
 42
-0.066344
  0
VERTEX
  8
0
 10
249.989809
 20
195.449037
 42
-0.013965
  0
VERTEX
  8
0
 10
251.872776
 20
190.595496
 42
-0.039713
  0
VERTEX
  8
0
 10
252.814307
 20
187.095247
 42
-0.034994
  0
VERTEX
  8
0
 10
253.251896
 20
183.253846
 42
-0.008972
  0
VERTEX
  8
0
 10
253.411537
 20
177.000000
 42
-0.003726
  0
VERTEX
  8
0
 10
253.412088
 20
172.613305
 42
-0.003456
  0
VERTEX
  8
0
 10
253.348046
 20
168.115625
 42
-0.003447
  0
VERTEX
  8
0
 10
253.235821
 20
164.114860
 42
-0.011593
  0
VERTEX
  8
0
 10
253.083668
 20
161.500000
 42
0.019564
  0
VERTEX
  8
0
 10
252.982940
 20
159.113643
 42
0.009119
  0
VERTEX
  8
0
 10
253.029940
 20
156.016814
 42
0.009019
  0
VERTEX
  8
0
 10
253.197412
 20
152.764653
 42
0.012460
  0
VERTEX
  8
0
 10
253.472906
 20
149.855112
 42
-0.021486
  0
VERTEX
  8
0
 10
253.886102
 20
144.454295
 42
-0.065834
  0
VERTEX
  8
0
 10
253.527331
 20
140.808373
 42
-0.079933
  0
VERTEX
  8
0
 10
252.287177
 20
137.783569
 42
-0.043005
  0
VERTEX
  8
0
 10
249.891433
 20
134.529130
 42
-0.090286
  0
VERTEX
  8
0
 10
245.550985
 20
131.089124
 42
-0.076524
  0
VERTEX
  8
0
 10
240.021127
 20
129.149505
 42
-0.039284
  0
VERTEX
  8
0
 10
231.349165
 20
128.226205
 42
-0.006886
  0
VERTEX
  8
0
 10
214.924453
 20
128.000000
 42
-0.006739
  0
VERTEX
  8
0
 10
198.065975
 20
128.227222
 42
-0.013597
  0
VERTEX
  8
0
 10
184.798613
 20
128.946318
 42
-0.016866
  0
VERTEX
  8
0
 10
173.790809
 20
130.218602
 42
-0.023054
  0
VERTEX
  8
0
 10
164.000000
 20
132.151354
 42
-0.034431
  0
VERTEX
  8
0
 10
152.932926
 20
135.694416
 42
-0.057091
  0
VERTEX
  8
0
 10
144.306387
 20
140.325968
 42
-0.064736
  0
VERTEX
  8
0
 10
137.714678
 20
146.297510
 42
-0.062070
  0
VERTEX
  8
0
 10
132.759685
 20
153.836585
 42
-0.017304
  0
VERTEX
  8
0
 10
130.882907
 20
158.007104
 42
-0.050129
  0
VERTEX
  8
0
 10
129.984793
 20
161.037919
 42
-0.039363
  0
VERTEX
  8
0
 10
129.597940
 20
164.565619
 42
-0.007635
  0
VERTEX
  8
0
 10
129.500000
 20
170.978973
 42
-0.010262
  0
VERTEX
  8
0
 10
129.621308
 20
176.888706
 42
-0.026339
  0
VERTEX
  8
0
 10
130.021304
 20
181.144500
 42
-0.028551
  0
VERTEX
  8
0
 10
130.844150
 20
185.132682
 42
-0.014059
  0
VERTEX
  8
0
 10
132.318885
 20
190.098705
 42
-0.012895
  0
VERTEX
  8
0
 10
134.805751
 20
197.071811
 42
-0.040467
  0
VERTEX
  8
0
 10
136.963862
 20
201.547966
 42
-0.065931
  0
VERTEX
  8
0
 10
138.997443
 20
204.158410
 42
-0.196811
  0
VERTEX
  8
0
 10
141.052689
 20
205.000000
 42
0.045791
  0
VERTEX
  8
0
 10
142.082665
 20
205.094526
 42
0.201323
  0
VERTEX
  8
0
 10
142.582287
 20
205.422129
 42
0.187910
  0
VERTEX
  8
0
 10
142.718246
 20
206.025582
 42
0.039381
  0
VERTEX
  8
0
 10
142.468232
 20
207.100091
 42
-0.101837
  0
VERTEX
  8
0
 10
142.344128
 20
208.284998
 42
-0.087536
  0
VERTEX
  8
0
 10
142.682800
 20
209.493448
 42
-0.059532
  0
VERTEX
  8
0
 10
143.561429
 20
210.873953
 42
-0.021018
  0
VERTEX
  8
0
 10
145.123969
 20
212.627904
 42
-0.020140
  0
VERTEX
  8
0
 10
147.173760
 20
214.579035
 42
-0.091376
  0
VERTEX
  8
0
 10
148.583843
 20
215.420878
 42
-0.099962
  0
VERTEX
  8
0
 10
150.138078
 20
215.666462
 42
-0.026582
  0
VERTEX
  8
0
 10
152.648140
 20
215.425514
 42
0.085764
  0
VERTEX
  8
0
 10
158.024622
 20
215.545210
 42
0.063646
  0
VERTEX
  8
0
 10
163.674476
 20
217.420576
 42
0.063784
  0
VERTEX
  8
0
 10
168.658215
 20
220.650297
 42
0.087159
  0
VERTEX
  8
0
 10
172.075337
 20
224.752687
 42
-0.055106
  0
VERTEX
  8
0
 10
173.031254
 20
226.061716
 42
-0.068440
  0
VERTEX
  8
0
 10
174.189877
 20
227.024394
 42
-0.061645
  0
VERTEX
  8
0
 10
175.663771
 20
227.706585
 42
-0.035017
  0
VERTEX
  8
0
 10
177.575337
 20
228.175084
 42
-0.044284
  0
VERTEX
  8
0
 10
183.969945
 20
228.699548
 42
-0.009908
  0
VERTEX
  8
0
 10
194.920903
 20
228.409374
 42
-0.009784
  0
VERTEX
  8
0
 10
205.839168
 20
227.689107
 42
-0.046381
  0
SEQEND
  0
POLYLINE
  8
0
 66
1
 70
1
  0
VERTEX
  8
0
 10
126.233249
 20
174.015887
 42
0.042850
  0
VERTEX
  8
0
 10
126.366689
 20
164.632445
 42
0.055017
  0
VERTEX
  8
0
 10
128.163274
 20
156.194715
 42
0.058842
  0
VERTEX
  8
0
 10
131.614376
 20
148.811700
 42
0.061378
  0
VERTEX
  8
0
 10
136.650265
 20
142.551183
 42
0.000000
  0
VERTEX
  8
0
 10
140.235805
 20
139.068951
 42
0.000000
  0
VERTEX
  8
0
 10
137.570105
 20
135.900945
 42
0.032666
  0
VERTEX
  8
0
 10
134.630416
 20
131.904427
 42
0.045599
  0
VERTEX
  8
0
 10
132.591422
 20
127.966295
 42
0.049004
  0
VERTEX
  8
0
 10
131.401572
 20
123.959847
 42
0.047726
  0
VERTEX
  8
0
 10
131.000000
 20
119.762344
 42
0.022301
  0
VERTEX
  8
0
 10
131.097297
 20
117.581973
 42
0.022564
  0
VERTEX
  8
0
 10
131.388411
 20
115.427555
 42
0.023063
  0
VERTEX
  8
0
 10
131.811832
 20
113.582211
 42
0.079888
  0
VERTEX
  8
0
 10
132.322250
 20
112.472506
 42
-0.087063
  0
VERTEX
  8
0
 10
133.384960
 20
110.072545
 42
-0.008842
  0
VERTEX
  8
0
 10
134.783667
 20
103.974791
 42
-0.004751
  0
VERTEX
  8
0
 10
136.074434
 20
97.550954
 42
-0.248480
  0
VERTEX
  8
0
 10
135.714860
 20
96.381527
 42
-0.160931
  0
VERTEX
  8
0
 10
134.258142
 20
95.648382
 42
-0.002500
  0
VERTEX
  8
0
 10
124.870923
 20
94.304961
 42
-0.003059
  0
VERTEX
  8
0
 10
115.601795
 20
93.083445
 42
-0.123451
  0
VERTEX
  8
0
 10
113.588232
 20
93.327769
 42
-0.068051
  0
VERTEX
  8
0
 10
112.915315
 20
93.697396
 42
-0.043153
  0
VERTEX
  8
0
 10
112.244299
 20
94.291220
 42
-0.042682
  0
VERTEX
  8
0
 10
111.675073
 20
95.002685
 42
-0.059886
  0
VERTEX
  8
0
 10
111.307125
 20
95.727319
 42
0.041958
  0
VERTEX
  8
0
 10
110.903892
 20
96.597157
 42
0.013903
  0
VERTEX
  8
0
 10
110.173164
 20
97.800444
 42
0.013733
  0
VERTEX
  8
0
 10
109.285469
 20
99.095147
 42
0.015184
  0
VERTEX
  8
0
 10
108.356107
 20
100.295469
 42
-0.070247
  0
VERTEX
  8
0
 10
106.082737
 20
104.012193
 42
-0.052421
  0
VERTEX
  8
0
 10
104.642977
 20
108.602452
 42
-0.037805
  0
VERTEX
  8
0
 10
103.885219
 20
114.701105
 42
-0.014497
  0
VERTEX
  8
0
 10
103.722339
 20
123.250000
 42
0.004702
  0
VERTEX
  8
0
 10
103.725554
 20
129.214888
 42
0.023431
  0
VERTEX
  8
0
 10
103.539140
 20
132.557150
 42
0.040858
  0
VERTEX
  8
0
 10
103.178707
 20
134.491278
 42
0.338308
  0
VERTEX
  8
0
 10
102.512897
 20
135.000000
 42
-0.298760
  0
VERTEX
  8
0
 10
100.643032
 20
136.226779
 42
-0.015095
  0
VERTEX
  8
0
 10
97.810383
 20
143.332538
 42
-0.022620
  0
VERTEX
  8
0
 10
95.212314
 20
151.616428
 42
-0.025259
  0
VERTEX
  8
0
 10
93.482985
 20
159.803273
 42
-0.009948
  0
VERTEX
  8
0
 10
92.370301
 20
167.828501
 42
-0.081012
  0
VERTEX
  8
0
 10
92.532015
 20
171.518715
 42
-0.215734
  0
VERTEX
  8
0
 10
93.842893
 20
173.315037
 42
-0.129574
  0
VERTEX
  8
0
 10
96.441661
 20
174.000000
 42
0.034888
  0
VERTEX
  8
0
 10
98.018069
 20
174.110130
 42
0.015719
  0
VERTEX
  8
0
 10
100.062519
 20
174.463037
 42
0.015475
  0
VERTEX
  8
0
 10
102.206907
 20
174.972635
 42
0.020378
  0
VERTEX
  8
0
 10
104.124273
 20
175.576295
 42
-0.020973
  0
VERTEX
  8
0
 10
108.232651
 20
176.864405
 42
-0.004595
  0
VERTEX
  8
0
 10
115.404021
 20
178.716159
 42
-0.003577
  0
VERTEX
  8
0
 10
122.639223
 20
180.458774
 42
-0.038476
  0
VERTEX
  8
0
 10
125.616480
 20
180.915694
 42
-0.354802
  0
VERTEX
  8
0
 10
126.098137
 20
180.581540
 42
-0.048344
  0
VERTEX
  8
0
 10
126.341360
 20
179.287333
 42
-0.030697
  0
VERTEX
  8
0
 10
126.399789
 20
177.184419
 42
-0.009458
  0
SEQEND
  0
POLYLINE
  8
0
 66
1
 70
1
  0
VERTEX
  8
0
 10
145.790493
 20
134.017305
 42
0.061491
  0
VERTEX
  8
0
 10
150.312653
 20
131.494354
 42
0.033093
  0
VERTEX
  8
0
 10
156.382159
 20
129.483612
 42
0.027930
  0
VERTEX
  8
0
 10
163.860352
 20
127.984051
 42
0.017601
  0
VERTEX
  8
0
 10
172.718594
 20
127.033887
 42
-0.003985
  0
VERTEX
  8
0
 10
181.321200
 20
126.347456
 42
-0.042241
  0
VERTEX
  8
0
 10
184.784314
 20
125.745766
 42
-0.167884
  0
VERTEX
  8
0
 10
186.151205
 20
124.832292
 42
-0.259451
  0
VERTEX
  8
0
 10
186.346375
 20
123.460255
 42
0.180253
  0
VERTEX
  8
0
 10
186.328511
 20
121.624647
 42
0.074699
  0
VERTEX
  8
0
 10
187.528064
 20
119.408197
 42
0.073583
  0
VERTEX
  8
0
 10
189.354538
 20
117.605999
 42
0.159278
  0
VERTEX
  8
0
 10
191.208602
 20
117.000000
 42
0.074794
  0
VERTEX
  8
0
 10
192.196532
 20
117.148613
 42
0.036407
  0
VERTEX
  8
0
 10
193.388019
 20
117.612668
 42
0.035080
  0
VERTEX
  8
0
 10
194.582231
 20
118.287439
 42
0.042462
  0
VERTEX
  8
0
 10
195.591200
 20
119.085678
 42
-0.029750
  0
VERTEX
  8
0
 10
196.848130
 20
120.133051
 42
-0.106253
  0
VERTEX
  8
0
 10
197.796891
 20
120.560744
 42
-0.126282
  0
VERTEX
  8
0
 10
198.743852
 20
120.523382
 42
-0.050224
  0
VERTEX
  8
0
 10
199.955104
 20
120.024027
 42
0.080779
  0
VERTEX
  8
0
 10
202.529659
 20
119.141635
 42
0.102799
  0
VERTEX
  8
0
 10
205.033300
 20
119.231548
 42
0.123322
  0
VERTEX
  8
0
 10
206.971518
 20
120.255877
 42
0.153845
  0
VERTEX
  8
0
 10
208.002626
 20
122.000000
 42
-0.090117
  0
VERTEX
  8
0
 10
208.615877
 20
123.417290
 42
-0.164678
  0
VERTEX
  8
0
 10
209.603143
 20
124.177600
 42
-0.066646
  0
VERTEX
  8
0
 10
211.477894
 20
124.551257
 42
-0.006349
  0
VERTEX
  8
0
 10
216.151263
 20
124.789528
 42
-0.006945
  0
VERTEX
  8
0
 10
220.902983
 20
124.905276
 42
-0.066370
  0
VERTEX
  8
0
 10
222.911690
 20
124.658827
 42
-0.130522
  0
VERTEX
  8
0
 10
224.211684
 20
123.924475
 42
-0.054298
  0
VERTEX
  8
0
 10
225.502659
 20
122.355597
 42
-0.045057
  0
VERTEX
  8
0
 10
226.221952
 20
121.007021
 42
-0.021788
  0
VERTEX
  8
0
 10
226.904955
 20
119.172264
 42
-0.021407
  0
VERTEX
  8
0
 10
227.455005
 20
117.184691
 42
-0.028743
  0
VERTEX
  8
0
 10
227.770569
 20
115.343149
 42
0.024156
  0
VERTEX
  8
0
 10
228.096992
 20
113.327415
 42
0.060255
  0
VERTEX
  8
0
 10
228.578699
 20
111.917453
 42
0.086829
  0
VERTEX
  8
0
 10
229.244990
 20
110.989657
 42
0.117395
  0
VERTEX
  8
0
 10
230.127000
 20
110.459692
 42
-0.087058
  0
VERTEX
  8
0
 10
231.441708
 20
109.773554
 42
-0.238839
  0
VERTEX
  8
0
 10
231.881591
 20
108.856416
 42
-0.116072
  0
VERTEX
  8
0
 10
231.516361
 20
107.442509
 42
-0.015908
  0
VERTEX
  8
0
 10
230.003738
 20
104.774170
 42
0.043095
  0
VERTEX
  8
0
 10
229.206966
 20
103.171568
 42
0.028869
  0
VERTEX
  8
0
 10
228.567480
 20
101.225740
 42
0.028442
  0
VERTEX
  8
0
 10
228.145385
 20
99.174413
 42
0.036313
  0
VERTEX
  8
0
 10
228.003738
 20
97.250000
 42
0.000000
  0
VERTEX
  8
0
 10
228.000000
 20
93.000000
 42
0.000000
  0
VERTEX
  8
0
 10
220.750000
 20
92.979334
 42
0.022897
  0
VERTEX
  8
0
 10
217.143806
 20
92.803804
 42
0.008547
  0
VERTEX
  8
0
 10
212.104687
 20
92.239520
 42
0.008448
  0
VERTEX
  8
0
 10
206.625752
 20
91.436626
 42
0.010126
  0
VERTEX
  8
0
 10
201.500000
 20
90.489838
 42
-0.003908
  0
VERTEX
  8
0
 10
190.241669
 20
88.265160
 42
-0.072382
  0
VERTEX
  8
0
 10
186.624231
 20
88.110373
 42
-0.266879
  0
VERTEX
  8
0
 10
184.956012
 20
89.309786
 42
-0.097099
  0
VERTEX
  8
0
 10
184.260586
 20
92.250000
 42
0.030343
  0
VERTEX
  8
0
 10
184.044698
 20
94.416280
 42
0.060730
  0
VERTEX
  8
0
 10
183.567753
 20
96.066762
 42
0.067447
  0
VERTEX
  8
0
 10
182.748697
 20
97.441527
 42
0.046577
  0
VERTEX
  8
0
 10
181.492329
 20
98.750000
 42
0.025084
  0
VERTEX
  8
0
 10
179.619213
 20
100.211157
 42
0.083134
  0
VERTEX
  8
0
 10
178.213818
 20
100.883854
 42
0.221142
  0
VERTEX
  8
0
 10
177.378615
 20
100.753574
 42
0.250230
  0
VERTEX
  8
0
 10
177.000000
 20
100.044409
 42
-0.111914
  0
VERTEX
  8
0
 10
176.872545
 20
99.482107
 42
-0.012110
  0
VERTEX
  8
0
 10
176.265625
 20
98.287361
 42
-0.014377
  0
VERTEX
  8
0
 10
175.457389
 20
96.885492
 42
-0.011122
  0
VERTEX
  8
0
 10
174.500000
 20
95.404862
 42
0.033523
  0
VERTEX
  8
0
 10
173.381144
 20
93.491820
 42
0.040241
  0
VERTEX
  8
0
 10
172.604548
 20
91.557316
 42
0.040526
  0
VERTEX
  8
0
 10
172.151710
 20
89.535165
 42
0.034838
  0
VERTEX
  8
0
 10
172.000000
 20
87.360453
 42
-0.019931
  0
VERTEX
  8
0
 10
171.924798
 20
85.474650
 42
-0.050098
  0
VERTEX
  8
0
 10
171.679045
 20
84.122796
 42
-0.081035
  0
VERTEX
  8
0
 10
171.285453
 20
83.290331
 42
-0.249322
  0
VERTEX
  8
0
 10
170.750000
 20
83.012423
 42
-0.065697
  0
VERTEX
  8
0
 10
167.696407
 20
83.446303
 42
-0.005489
  0
VERTEX
  8
0
 10
160.011435
 20
85.683848
 42
-0.007064
  0
VERTEX
  8
0
 10
152.453763
 20
88.091704
 42
-0.037354
  0
VERTEX
  8
0
 10
148.447946
 20
89.772282
 42
-0.017790
  0
VERTEX
  8
0
 10
146.810915
 20
90.682567
 42
-0.015311
  0
VERTEX
  8
0
 10
145.156850
 20
91.751375
 42
-0.015578
  0
VERTEX
  8
0
 10
143.715365
 20
92.814470
 42
-0.042275
  0
VERTEX
  8
0
 10
142.788138
 20
93.680189
 42
-0.059102
  0
VERTEX
  8
0
 10
141.046707
 20
96.134378
 42
-0.031883
  0
VERTEX
  8
0
 10
139.481312
 20
99.500334
 42
-0.031904
  0
VERTEX
  8
0
 10
138.360789
 20
103.025261
 42
-0.061075
  0
VERTEX
  8
0
 10
138.000000
 20
105.967881
 42
-0.030051
  0
VERTEX
  8
0
 10
138.103366
 20
107.686162
 42
-0.168599
  0
VERTEX
  8
0
 10
138.501446
 20
108.501438
 42
-0.167577
  0
VERTEX
  8
0
 10
139.320494
 20
108.897533
 42
-0.029603
  0
VERTEX
  8
0
 10
141.049660
 20
109.000000
 42
0.068865
  0
VERTEX
  8
0
 10
144.594437
 20
109.490548
 42
0.090764
  0
VERTEX
  8
0
 10
147.518219
 20
110.924802
 42
0.083195
  0
VERTEX
  8
0
 10
149.921663
 20
113.414858
 42
0.048898
  0
VERTEX
  8
0
 10
151.925485
 20
117.048423
 42
0.019267
  0
VERTEX
  8
0
 10
152.728872
 20
119.133782
 42
0.023434
  0
VERTEX
  8
0
 10
153.312031
 20
121.144068
 42
0.022918
  0
VERTEX
  8
0
 10
153.639228
 20
122.848604
 42
0.128254
  0
VERTEX
  8
0
 10
153.536871
 20
123.764512
 42
0.219731
  0
VERTEX
  8
0
 10
152.845358
 20
124.437472
 42
0.321113
  0
VERTEX
  8
0
 10
152.059710
 20
124.209674
 42
0.068334
  0
VERTEX
  8
0
 10
151.043466
 20
122.478029
 42
0.010401
  0
VERTEX
  8
0
 10
149.578218
 20
118.738587
 42
-0.038378
  0
VERTEX
  8
0
 10
148.074360
 20
115.454010
 42
-0.095836
  0
VERTEX
  8
0
 10
146.387013
 20
113.439192
 42
-0.110095
  0
VERTEX
  8
0
 10
144.226669
 20
112.360157
 42
-0.061056
  0
VERTEX
  8
0
 10
141.288248
 20
112.000000
 42
-0.074440
  0
VERTEX
  8
0
 10
138.106532
 20
112.476330
 42
-0.126149
  0
VERTEX
  8
0
 10
135.821052
 20
113.871863
 42
-0.123672
  0
VERTEX
  8
0
 10
134.460401
 20
116.218023
 42
-0.069976
  0
VERTEX
  8
0
 10
134.000000
 20
119.491604
 42
-0.033908
  0
VERTEX
  8
0
 10
134.250117
 20
123.175479
 42
-0.051050
  0
VERTEX
  8
0
 10
135.007126
 20
126.301448
 42
-0.049195
  0
VERTEX
  8
0
 10
136.406975
 20
129.291065
 42
-0.028852
  0
VERTEX
  8
0
 10
138.619919
 20
132.568334
 42
-0.021507
  0
VERTEX
  8
0
 10
140.678101
 20
135.038793
 42
-0.159787
  0
VERTEX
  8
0
 10
141.990859
 20
135.783961
 42
-0.180646
  0
VERTEX
  8
0
 10
143.404826
 20
135.558603
 42
-0.029067
  0
SEQEND
  0
POLYLINE
  8
0
 66
1
 70
1
  0
VERTEX
  8
0
 10
232.938034
 20
117.216064
 42
-0.024399
  0
VERTEX
  8
0
 10
233.269540
 20
115.803488
 42
-0.051952
  0
VERTEX
  8
0
 10
233.356776
 20
114.686075
 42
-0.074088
  0
VERTEX
  8
0
 10
233.214301
 20
113.874604
 42
-0.175652
  0
VERTEX
  8
0
 10
232.839195
 20
113.400617
 42
-0.220059
  0
VERTEX
  8
0
 10
231.783683
 20
113.272957
 42
-0.186802
  0
VERTEX
  8
0
 10
230.904644
 20
113.987007
 42
-0.078550
  0
VERTEX
  8
0
 10
230.218108
 20
115.797371
 42
-0.020270
  0
VERTEX
  8
0
 10
229.703046
 20
118.887583
 42
-0.006081
  0
VERTEX
  8
0
 10
229.417890
 20
121.412500
 42
-0.098221
  0
VERTEX
  8
0
 10
229.499161
 20
122.260781
 42
-0.483343
  0
VERTEX
  8
0
 10
229.854306
 20
122.402218
 42
-0.066078
  0
VERTEX
  8
0
 10
230.588410
 20
121.840162
 42
-0.056369
  0
VERTEX
  8
0
 10
231.203417
 20
121.068302
 42
-0.022512
  0
VERTEX
  8
0
 10
231.870551
 20
119.889894
 42
-0.021935
  0
VERTEX
  8
0
 10
232.482514
 20
118.542273
 42
-0.025781
  0
SEQEND
  0
POLYLINE
  8
0
 66
1
 70
1
  0
VERTEX
  8
0
 10
192.517425
 20
180.374568
 42
0.136559
  0
VERTEX
  8
0
 10
191.295913
 20
178.210949
 42
0.104124
  0
VERTEX
  8
0
 10
191.200232
 20
175.479997
 42
0.101286
  0
VERTEX
  8
0
 10
192.221796
 20
172.879874
 42
0.121886
  0
VERTEX
  8
0
 10
194.134769
 20
171.090684
 42
0.028751
  0
VERTEX
  8
0
 10
195.704442
 20
170.328734
 42
0.110564
  0
VERTEX
  8
0
 10
196.766330
 20
170.141861
 42
0.107499
  0
VERTEX
  8
0
 10
197.822639
 20
170.423101
 42
0.026419
  0
VERTEX
  8
0
 10
199.384769
 20
171.332541
 42
0.128138
  0
VERTEX
  8
0
 10
201.277558
 20
173.422763
 42
0.102962
  0
VERTEX
  8
0
 10
202.106364
 20
176.351485
 42
0.112369
  0
VERTEX
  8
0
 10
201.672135
 20
179.163314
 42
0.177423
  0
VERTEX
  8
0
 10
200.065741
 20
180.964816
 42
0.062637
  0
VERTEX
  8
0
 10
197.984755
 20
181.763077
 42
0.079973
  0
VERTEX
  8
0
 10
195.940295
 20
181.930214
 42
0.086730
  0
VERTEX
  8
0
 10
194.076760
 20
181.452263
 42
0.090573
  0
SEQEND
  0
POLYLINE
  8
0
 66
1
 70
1
  0
VERTEX
  8
0
 10
212.220602
 20
169.000000
 42
0.057527
  0
VERTEX
  8
0
 10
212.492540
 20
167.818511
 42
0.108533
  0
VERTEX
  8
0
 10
213.007500
 20
166.992321
 42
0.108302
  0
VERTEX
  8
0
 10
213.822155
 20
166.456903
 42
0.057118
  0
VERTEX
  8
0
 10
215.000000
 20
166.154182
 42
-0.028803
  0
VERTEX
  8
0
 10
216.047898
 20
165.947162
 42
-0.024208
  0
VERTEX
  8
0
 10
217.129072
 20
165.611481
 42
-0.024903
  0
VERTEX
  8
0
 10
218.087970
 20
165.206919
 42
-0.059697
  0
VERTEX
  8
0
 10
218.737265
 20
164.792306
 42
0.138727
  0
VERTEX
  8
0
 10
219.960131
 20
164.258121
 42
0.107555
  0
VERTEX
  8
0
 10
221.415038
 20
164.372030
 42
0.120845
  0
VERTEX
  8
0
 10
222.569192
 20
165.052841
 42
0.202015
  0
VERTEX
  8
0
 10
223.000000
 20
166.075604
 42
0.149054
  0
VERTEX
  8
0
 10
222.881932
 20
166.462863
 42
0.152561
  0
VERTEX
  8
0
 10
222.568782
 20
166.714107
 42
0.116760
  0
VERTEX
  8
0
 10
222.093470
 20
166.781523
 42
0.068818
  0
VERTEX
  8
0
 10
221.532025
 20
166.650663
 42
-0.066719
  0
VERTEX
  8
0
 10
220.926665
 20
166.506898
 42
-0.072258
  0
VERTEX
  8
0
 10
220.321649
 20
166.533742
 42
-0.081026
  0
VERTEX
  8
0
 10
219.809536
 20
166.720854
 42
-0.126981
  0
VERTEX
  8
0
 10
219.473008
 20
167.043674
 42
0.120898
  0
VERTEX
  8
0
 10
219.099272
 20
167.410886
 42
0.048097
  0
VERTEX
  8
0
 10
218.444367
 20
167.719079
 42
0.043942
  0
VERTEX
  8
0
 10
217.641030
 20
167.929260
 42
0.042042
  0
VERTEX
  8
0
 10
216.801226
 20
168.000000
 42
-0.071013
  0
VERTEX
  8
0
 10
215.902721
 20
168.128257
 42
-0.045903
  0
VERTEX
  8
0
 10
214.923496
 20
168.514062
 42
-0.045388
  0
VERTEX
  8
0
 10
214.015950
 20
169.080231
 42
-0.062881
  0
VERTEX
  8
0
 10
213.330844
 20
169.750000
 42
0.008822
  0
VERTEX
  8
0
 10
212.464724
 20
170.802061
 42
0.381693
  0
VERTEX
  8
0
 10
212.201225
 20
170.837888
 42
0.272304
  0
VERTEX
  8
0
 10
212.066153
 20
170.554638
 42
0.006138
  0
SEQEND
  0
POLYLINE
  8
0
 66
1
 70
1
  0
VERTEX
  8
0
 10
233.571429
 20
164.428571
 42
0.154049
  0
VERTEX
  8
0
 10
232.159348
 20
161.714249
 42
0.133142
  0
VERTEX
  8
0
 10
232.451387
 20
158.503917
 42
0.137857
  0
VERTEX
  8
0
 10
234.304638
 20
155.959109
 42
0.168409
  0
VERTEX
  8
0
 10
237.071429
 20
155.000000
 42
0.130908
  0
VERTEX
  8
0
 10
238.960199
 20
155.503133
 42
0.064496
  0
VERTEX
  8
0
 10
240.953970
 20
157.017193
 42
0.064634
  0
VERTEX
  8
0
 10
242.490346
 20
158.982931
 42
0.134379
  0
VERTEX
  8
0
 10
243.000000
 20
160.845012
 42
0.173507
  0
VERTEX
  8
0
 10
242.032320
 20
163.549651
 42
0.130838
  0
VERTEX
  8
0
 10
239.449562
 20
165.406837
 42
0.127471
  0
VERTEX
  8
0
 10
236.229996
 20
165.761245
 42
0.161755
  0
SEQEND
  0
POLYLINE
  8
0
 66
1
 70
1
  0
VERTEX
  8
0
 10
199.000000
 20
139.038955
 42
0.190655
  0
VERTEX
  8
0
 10
199.576953
 20
137.580877
 42
0.041834
  0
VERTEX
  8
0
 10
201.617624
 20
135.741370
 42
0.041835
  0
VERTEX
  8
0
 10
204.258702
 20
134.062050
 42
0.052992
  0
VERTEX
  8
0
 10
206.946281
 20
132.998385
 42
0.024797
  0
VERTEX
  8
0
 10
210.140325
 20
132.279489
 42
0.044255
  0
VERTEX
  8
0
 10
212.821799
 20
132.055473
 42
0.053580
  0
VERTEX
  8
0
 10
215.106555
 20
132.312814
 42
0.068150
  0
VERTEX
  8
0
 10
217.093750
 20
133.050173
 42
0.102867
  0
VERTEX
  8
0
 10
218.427559
 20
134.165463
 42
0.439382
  0
VERTEX
  8
0
 10
218.282198
 20
135.074264
 42
0.148361
  0
VERTEX
  8
0
 10
216.612831
 20
135.571770
 42
0.032833
  0
VERTEX
  8
0
 10
213.602024
 20
135.358930
 42
-0.068575
  0
VERTEX
  8
0
 10
210.123215
 20
135.361433
 42
-0.043867
  0
VERTEX
  8
0
 10
206.177460
 20
136.265906
 42
-0.042396
  0
VERTEX
  8
0
 10
202.886717
 20
137.648503
 42
-0.278994
  0
VERTEX
  8
0
 10
202.000000
 20
139.113941
 42
0.165611
  0
VERTEX
  8
0
 10
201.884886
 20
139.451952
 42
0.095477
  0
VERTEX
  8
0
 10
201.559375
 20
139.739720
 42
0.076460
  0
VERTEX
  8
0
 10
201.073732
 20
139.934219
 42
0.057140
  0
VERTEX
  8
0
 10
200.500000
 20
140.000000
 42
0.062209
  0
VERTEX
  8
0
 10
199.926450
 20
139.928363
 42
0.080496
  0
VERTEX
  8
0
 10
199.440625
 20
139.717693
 42
0.097958
  0
VERTEX
  8
0
 10
199.115471
 20
139.405479
 42
0.153797
  0
SEQEND
  0
ENDSEC
  0
EOF
