  0
SECTION
  2
HEADER
  9
$ACADVER
  1
AC1006
  9
$EXTMIN
 10
0.000000
 20
0.000000
 30
0.000000
  9
$EXTMAX
 10
425.000000
 20
420.000000
 30
0.000000
  0
ENDSEC
  0
SECTION
  2
ENTITIES
  0
POLYLINE
  8
0
 66
1
 70
1
  0
VERTEX
  8
0
 10
90.000000
 20
418.000000
 42
0.036145
  0
VERTEX
  8
0
 10
90.055445
 20
417.234026
 42
0.054652
  0
VERTEX
  8
0
 10
90.223089
 20
416.587500
 42
0.071555
  0
VERTEX
  8
0
 10
90.468376
 20
416.144604
 42
0.234711
  0
VERTEX
  8
0
 10
90.759453
 20
416.000000
 42
0.163755
  0
VERTEX
  8
0
 10
91.131738
 20
416.125287
 42
0.033519
  0
VERTEX
  8
0
 10
91.662717
 20
416.587500
 42
0.032010
  0
VERTEX
  8
0
 10
92.234038
 20
417.234299
 42
0.025323
  0
VERTEX
  8
0
 10
92.767927
 20
418.000000
 42
0.018723
  0
VERTEX
  8
0
 10
93.426893
 20
419.148760
 42
0.214782
  0
VERTEX
  8
0
 10
93.457512
 20
419.656524
 42
0.279111
  0
VERTEX
  8
0
 10
93.101547
 20
419.934802
 42
0.029797
  0
VERTEX
  8
0
 10
92.008474
 20
420.000000
 42
0.071607
  0
VERTEX
  8
0
 10
91.130163
 20
419.873565
 42
0.124981
  0
VERTEX
  8
0
 10
90.501059
 20
419.501055
 42
0.125363
  0
VERTEX
  8
0
 10
90.127098
 20
418.874478
 42
0.072291
  0
SEQEND
  0
POLYLINE
  8
0
 66
1
 70
1
  0
VERTEX
  8
0
 10
115.000000
 20
419.059017
 42
0.153182
  0
VERTEX
  8
0
 10
115.300770
 20
418.100311
 42
0.212405
  0
VERTEX
  8
0
 10
116.061217
 20
417.640117
 42
0.119003
  0
VERTEX
  8
0
 10
117.314943
 20
417.780204
 42
0.039362
  0
VERTEX
  8
0
 10
119.012549
 20
418.552301
 42
0.000000
  0
VERTEX
  8
0
 10
121.500000
 20
419.929129
 42
0.000000
  0
VERTEX
  8
0
 10
118.250000
 20
419.964565
 42
0.027397
  0
VERTEX
  8
0
 10
117.004675
 20
419.909887
 42
0.043297
  0
VERTEX
  8
0
 10
115.954688
 20
419.713177
 42
0.053706
  0
VERTEX
  8
0
 10
115.217109
 20
419.419394
 42
0.277954
  0
SEQEND
  0
POLYLINE
  8
0
 66
1
 70
1
  0
VERTEX
  8
0
 10
237.184011
 20
418.076960
 42
0.074440
  0
VERTEX
  8
0
 10
238.420659
 20
416.629017
 42
0.157658
  0
VERTEX
  8
0
 10
239.763231
 20
416.057278
 42
0.301607
  0
VERTEX
  8
0
 10
240.627600
 20
416.525016
 42
0.170952
  0
VERTEX
  8
0
 10
240.813108
 20
417.750000
 42
0.109632
  0
VERTEX
  8
0
 10
240.514382
 20
418.443509
 42
0.069414
  0
VERTEX
  8
0
 10
239.903002
 20
419.081982
 42
0.064538
  0
VERTEX
  8
0
 10
239.086043
 20
419.571212
 42
0.067411
  0
VERTEX
  8
0
 10
238.183248
 20
419.826960
 42
0.016781
  0
VERTEX
  8
0
 10
236.830835
 20
419.973418
 42
0.289258
  0
VERTEX
  8
0
 10
236.455311
 20
419.773681
 42
0.260662
  0
VERTEX
  8
0
 10
236.451373
 20
419.328261
 42
0.014279
  0
SEQEND
  0
POLYLINE
  8
0
 66
1
 70
1
  0
VERTEX
  8
0
 10
147.000000
 20
406.925599
 42
0.005977
  0
VERTEX
  8
0
 10
144.618135
 20
406.544732
 42
0.004492
  0
VERTEX
  8
0
 10
142.007011
 20
406.070940
 42
0.004542
  0
VERTEX
  8
0
 10
139.558585
 20
405.580821
 42
0.010412
  0
VERTEX
  8
0
 10
137.725995
 20
405.156613
 42
-0.022315
  0
VERTEX
  8
0
 10
136.136372
 20
404.828296
 42
-0.020615
  0
VERTEX
  8
0
 10
134.481229
 20
404.632370
 42
-0.021108
  0
VERTEX
  8
0
 10
132.993419
 20
404.581181
 42
-0.062070
  0
VERTEX
  8
0
 10
131.979650
 20
404.715573
 42
0.083952
  0
VERTEX
  8
0
 10
130.987455
 20
404.803380
 42
0.030641
  0
VERTEX
  8
0
 10
129.586529
 20
404.605237
 42
0.029344
  0
VERTEX
  8
0
 10
128.050912
 20
404.196007
 42
0.030999
  0
VERTEX
  8
0
 10
126.602525
 20
403.615676
 42
-0.011718
  0
VERTEX
  8
0
 10
125.216046
 20
402.997125
 42
-0.013504
  0
VERTEX
  8
0
 10
123.865627
 20
402.474605
 42
-0.012632
  0
VERTEX
  8
0
 10
122.703981
 20
402.093612
 42
-0.073044
  0
VERTEX
  8
0
 10
122.066611
 20
402.000000
 42
0.087772
  0
VERTEX
  8
0
 10
120.008908
 20
401.635978
 42
0.002172
  0
VERTEX
  8
0
 10
111.005527
 20
398.303137
 42
0.004728
  0
VERTEX
  8
0
 10
102.471204
 20
395.009322
 42
0.023203
  0
VERTEX
  8
0
 10
97.763569
 20
392.883329
 42
-0.091496
  0
VERTEX
  8
0
 10
95.086398
 20
392.089959
 42
-0.048558
  0
VERTEX
  8
0
 10
91.615590
 20
392.060190
 42
-0.048666
  0
VERTEX
  8
0
 10
88.224438
 20
392.697327
 42
-0.096181
  0
VERTEX
  8
0
 10
85.797496
 20
393.944649
 42
0.100497
  0
VERTEX
  8
0
 10
80.497046
 20
396.611779
 42
0.054902
  0
VERTEX
  8
0
 10
73.279349
 20
397.748295
 42
0.053634
  0
VERTEX
  8
0
 10
65.724978
 20
397.289331
 42
0.077095
  0
VERTEX
  8
0
 10
59.377604
 20
395.173675
 42
0.041189
  0
VERTEX
  8
0
 10
55.751996
 20
392.910944
 42
0.034389
  0
VERTEX
  8
0
 10
52.305933
 20
389.954740
 42
0.035338
  0
VERTEX
  8
0
 10
49.595453
 20
386.879059
 42
0.101803
  0
VERTEX
  8
0
 10
48.368116
 20
384.330555
 42
0.049919
  0
VERTEX
  8
0
 10
48.154947
 20
382.882380
 42
0.007333
  0
VERTEX
  8
0
 10
48.060775
 20
379.915225
 42
0.008218
  0
VERTEX
  8
0
 10
48.058570
 20
376.393827
 42
0.006975
  0
VERTEX
  8
0
 10
48.169244
 20
372.675934
 42
0.009726
  0
VERTEX
  8
0
 10
48.475392
 20
367.835200
 42
0.029668
  0
VERTEX
  8
0
 10
48.940999
 20
364.576697
 42
0.042020
  0
VERTEX
  8
0
 10
49.669592
 20
362.092024
 42
0.046119
  0
VERTEX
  8
0
 10
50.786910
 20
359.844787
 42
-0.023477
  0
VERTEX
  8
0
 10
51.633985
 20
358.318364
 42
-0.022320
  0
VERTEX
  8
0
 10
52.349905
 20
356.693671
 42
-0.022913
  0
VERTEX
  8
0
 10
52.851833
 20
355.202075
 42
-0.069809
  0
VERTEX
  8
0
 10
53.000000
 20
354.146017
 42
-0.089873
  0
VERTEX
  8
0
 10
52.757409
 20
352.807284
 42
-0.006715
  0
VERTEX
  8
0
 10
51.405316
 20
349.341425
 42
-0.009126
  0
VERTEX
  8
0
 10
49.650580
 20
345.232840
 42
-0.006803
  0
VERTEX
  8
0
 10
47.571289
 20
340.764051
 42
0.006883
  0
VERTEX
  8
0
 10
42.129949
 20
329.064707
 42
0.026299
  0
VERTEX
  8
0
 10
39.230142
 20
321.565806
 42
0.025990
  0
VERTEX
  8
0
 10
37.116922
 20
313.761405
 42
0.006610
  0
VERTEX
  8
0
 10
34.520058
 20
300.900731
 42
0.035891
  0
VERTEX
  8
0
 10
33.378924
 20
290.958251
 42
0.013362
  0
VERTEX
  8
0
 10
33.156537
 20
276.885854
 42
0.010364
  0
VERTEX
  8
0
 10
33.591327
 20
263.152017
 42
0.091236
  0
VERTEX
  8
0
 10
34.996561
 20
257.265706
 42
-0.040717
  0
VERTEX
  8
0
 10
35.698319
 20
255.249348
 42
-0.070826
  0
VERTEX
  8
0
 10
35.896158
 20
253.492146
 42
-0.047722
  0
VERTEX
  8
0
 10
35.623697
 20
251.318068
 42
-0.010092
  0
VERTEX
  8
0
 10
34.713309
 20
247.601571
 42
0.042114
  0
VERTEX
  8
0
 10
33.304222
 20
239.688967
 42
0.025501
  0
VERTEX
  8
0
 10
32.913385
 20
230.176672
 42
0.024402
  0
VERTEX
  8
0
 10
33.436040
 20
221.286477
 42
0.091309
  0
VERTEX
  8
0
 10
35.027576
 20
215.945947
 42
-0.044466
  0
VERTEX
  8
0
 10
36.168715
 20
213.112542
 42
-0.116423
  0
VERTEX
  8
0
 10
36.304187
 20
210.937103
 42
-0.123942
  0
VERTEX
  8
0
 10
35.454326
 20
209.014620
 42
-0.053855
  0
VERTEX
  8
0
 10
33.494799
 20
206.995684
 42
0.111390
  0
VERTEX
  8
0
 10
30.774129
 20
203.462549
 42
0.043981
  0
VERTEX
  8
0
 10
28.678926
 20
197.658564
 42
0.041671
  0
VERTEX
  8
0
 10
27.676456
 20
191.996529
 42
0.284623
  0
VERTEX
  8
0
 10
28.886637
 20
189.570062
 42
-0.142149
  0
VERTEX
  8
0
 10
29.271290
 20
189.144385
 42
-0.023408
  0
VERTEX
  8
0
 10
29.713095
 20
188.115525
 42
-0.024117
  0
VERTEX
  8
0
 10
30.129049
 20
186.819540
 42
-0.019228
  0
VERTEX
  8
0
 10
30.455045
 20
185.387937
 42
0.017962
  0
VERTEX
  8
0
 10
30.802607
 20
183.843594
 42
0.014392
  0
VERTEX
  8
0
 10
31.283639
 20
182.208189
 42
0.014633
  0
VERTEX
  8
0
 10
31.816913
 20
180.720143
 42
0.035451
  0
VERTEX
  8
0
 10
32.318408
 20
179.666541
 42
0.037123
  0
VERTEX
  8
0
 10
34.506181
 20
176.394324
 42
0.008253
  0
VERTEX
  8
0
 10
38.741773
 20
171.157084
 42
0.007016
  0
VERTEX
  8
0
 10
43.130439
 20
166.057246
 42
0.058050
  0
VERTEX
  8
0
 10
45.403961
 20
164.021782
 42
-0.016652
  0
VERTEX
  8
0
 10
51.231103
 20
159.614562
 42
-0.042265
  0
VERTEX
  8
0
 10
55.054800
 20
155.941421
 42
-0.060990
  0
VERTEX
  8
0
 10
57.266893
 20
152.702235
 42
-0.119904
  0
VERTEX
  8
0
 10
58.000000
 20
149.689135
 42
0.059469
  0
VERTEX
  8
0
 10
58.221490
 20
147.833487
 42
0.038900
  0
VERTEX
  8
0
 10
58.890584
 20
145.782583
 42
0.032627
  0
VERTEX
  8
0
 10
60.013483
 20
143.506707
 42
0.019744
  0
VERTEX
  8
0
 10
61.618046
 20
140.964711
 42
-0.003487
  0
VERTEX
  8
0
 10
63.886581
 20
137.617074
 42
-0.080694
  0
VERTEX
  8
0
 10
64.363031
 20
136.571462
 42
-0.504056
  0
VERTEX
  8
0
 10
64.069048
 20
136.198292
 42
-0.062543
  0
VERTEX
  8
0
 10
62.868046
 20
136.386148
 42
0.017894
  0
VERTEX
  8
0
 10
58.647264
 20
137.438288
 42
0.010966
  0
VERTEX
  8
0
 10
53.607260
 20
138.389730
 42
0.010975
  0
VERTEX
  8
0
 10
48.677415
 20
139.098046
 42
0.023685
  0
VERTEX
  8
0
 10
44.855265
 20
139.379067
 42
-0.027404
  0
VERTEX
  8
0
 10
42.734573
 20
139.550845
 42
-0.038239
  0
VERTEX
  8
0
 10
40.874813
 20
139.951244
 42
-0.043757
  0
VERTEX
  8
0
 10
39.325794
 20
140.562695
 42
-0.068125
  0
VERTEX
  8
0
 10
38.142510
 20
141.371281
 42
0.096721
  0
VERTEX
  8
0
 10
36.172519
 20
142.559271
 42
0.240018
  0
VERTEX
  8
0
 10
34.547329
 20
142.361143
 42
0.115399
  0
VERTEX
  8
0
 10
32.921189
 20
140.610620
 42
0.017452
  0
VERTEX
  8
0
 10
30.681640
 20
136.349458
 42
-0.000822
  0
VERTEX
  8
0
 10
29.497613
 20
133.902329
 42
-0.000753
  0
VERTEX
  8
0
 10
28.270628
 20
131.386660
 42
-0.000752
  0
VERTEX
  8
0
 10
27.168713
 20
129.144579
 42
-0.002472
  0
VERTEX
  8
0
 10
26.431640
 20
127.668960
 42
0.030504
  0
VERTEX
  8
0
 10
25.883299
 20
126.397622
 42
0.021711
  0
VERTEX
  8
0
 10
25.420544
 20
124.916355
 42
0.022017
  0
VERTEX
  8
0
 10
25.101781
 20
123.459133
 42
0.042858
  0
VERTEX
  8
0
 10
25.000000
 20
122.273892
 42
0.110484
  0
VERTEX
  8
0
 10
26.191807
 20
116.946171
 42
0.019390
  0
VERTEX
  8
0
 10
30.954358
 20
107.774165
 42
0.016917
  0
VERTEX
  8
0
 10
36.371861
 20
98.968326
 42
0.163123
  0
VERTEX
  8
0
 10
39.790175
 20
96.304186
 42
-0.042217
  0
VERTEX
  8
0
 10
40.591879
 20
95.943257
 42
-0.017518
  0
VERTEX
  8
0
 10
41.610255
 20
95.329432
 42
-0.017184
  0
VERTEX
  8
0
 10
42.661513
 20
94.591812
 42
-0.021245
  0
VERTEX
  8
0
 10
43.585159
 20
93.831533
 42
0.061095
  0
VERTEX
  8
0
 10
46.602115
 20
91.726829
 42
0.005830
  0
VERTEX
  8
0
 10
54.598869
 20
87.609964
 42
0.003940
  0
VERTEX
  8
0
 10
62.923280
 20
83.528174
 42
0.112473
  0
VERTEX
  8
0
 10
65.241580
 20
83.000000
 42
-0.083896
  0
VERTEX
  8
0
 10
67.458669
 20
82.625355
 42
-0.005444
  0
VERTEX
  8
0
 10
73.623588
 20
80.405064
 42
-0.004767
  0
VERTEX
  8
0
 10
79.807266
 20
78.034276
 42
-0.102799
  0
VERTEX
  8
0
 10
81.430279
 20
76.969721
 42
0.062536
  0
VERTEX
  8
0
 10
81.908398
 20
76.598275
 42
0.039122
  0
VERTEX
  8
0
 10
82.545189
 20
76.284855
 42
0.038796
  0
VERTEX
  8
0
 10
83.232398
 20
76.071056
 42
0.056075
  0
VERTEX
  8
0
 10
83.863980
 20
76.000000
 42
-0.088682
  0
VERTEX
  8
0
 10
85.897934
 20
75.636390
 42
-0.019108
  0
VERTEX
  8
0
 10
89.217278
 20
74.264139
 42
-0.012462
  0
VERTEX
  8
0
 10
92.477651
 20
72.668456
 42
-0.279648
  0
VERTEX
  8
0
 10
93.000000
 20
71.807552
 42
0.303902
  0
VERTEX
  8
0
 10
93.209745
 20
71.494336
 42
0.040059
  0
VERTEX
  8
0
 10
94.010789
 20
71.237218
 42
0.035513
  0
VERTEX
  8
0
 10
95.122190
 20
71.058410
 42
0.022134
  0
VERTEX
  8
0
 10
96.440983
 20
71.000000
 42
-0.027620
  0
VERTEX
  8
0
 10
97.804818
 20
70.924605
 42
-0.034088
  0
VERTEX
  8
0
 10
99.057539
 20
70.698460
 42
-0.036371
  0
VERTEX
  8
0
 10
100.049824
 20
70.370223
 42
-0.157548
  0
VERTEX
  8
0
 10
100.516390
 20
69.973480
 42
0.082074
  0
VERTEX
  8
0
 10
100.846612
 20
69.594958
 42
0.063865
  0
VERTEX
  8
0
 10
101.309489
 20
69.303399
 42
0.064104
  0
VERTEX
  8
0
 10
101.828981
 20
69.138985
 42
0.084266
  0
VERTEX
  8
0
 10
102.325407
 20
69.133849
 42
-0.083367
  0
VERTEX
  8
0
 10
102.966811
 20
69.128357
 42
-0.018822
  0
VERTEX
  8
0
 10
104.036213
 20
68.897568
 42
-0.019000
  0
VERTEX
  8
0
 10
105.265305
 20
68.533217
 42
-0.017416
  0
VERTEX
  8
0
 10
106.500000
 20
68.067050
 42
0.020097
  0
VERTEX
  8
0
 10
108.135478
 20
67.459563
 42
0.005178
  0
VERTEX
  8
0
 10
110.821875
 20
66.613519
 42
0.005262
  0
VERTEX
  8
0
 10
113.908594
 20
65.711790
 42
0.005332
  0
VERTEX
  8
0
 10
117.000000
 20
64.879357
 42
-0.004418
  0
VERTEX
  8
0
 10
120.018084
 20
64.072583
 42
-0.005077
  0
VERTEX
  8
0
 10
122.884375
 20
63.247759
 42
-0.004587
  0
VERTEX
  8
0
 10
125.299317
 20
62.501990
 42
-0.029018
  0
VERTEX
  8
0
 10
126.500000
 20
62.040818
 42
0.039952
  0
VERTEX
  8
0
 10
128.242783
 20
61.414752
 42
0.012616
  0
VERTEX
  8
0
 10
130.931771
 20
60.757326
 42
0.012447
  0
VERTEX
  8
0
 10
133.995734
 20
60.169146
 42
0.013068
  0
VERTEX
  8
0
 10
137.035969
 20
59.744953
 42
-0.212076
  0
VERTEX
  8
0
 10
137.779832
 20
59.308655
 42
-0.136650
  0
VERTEX
  8
0
 10
138.128755
 20
58.355032
 42
-0.047625
  0
VERTEX
  8
0
 10
138.098766
 20
56.484866
 42
-0.006246
  0
VERTEX
  8
0
 10
137.607732
 20
52.535714
 42
0.017600
  0
VERTEX
  8
0
 10
136.852687
 20
45.085400
 42
0.031796
  0
VERTEX
  8
0
 10
136.839006
 20
38.954444
 42
0.039484
  0
VERTEX
  8
0
 10
137.526442
 20
34.085713
 42
0.083790
  0
VERTEX
  8
0
 10
138.956792
 20
30.569912
 42
-0.029599
  0
VERTEX
  8
0
 10
140.389924
 20
27.911264
 42
-0.091146
  0
VERTEX
  8
0
 10
140.900145
 20
25.941247
 42
-0.134594
  0
VERTEX
  8
0
 10
140.588634
 20
24.371846
 42
-0.104010
  0
VERTEX
  8
0
 10
139.500000
 20
23.000000
 42
0.114980
  0
VERTEX
  8
0
 10
138.247360
 20
21.349210
 42
0.189239
  0
VERTEX
  8
0
 10
138.167654
 20
19.621715
 42
0.140927
  0
VERTEX
  8
0
 10
139.348488
 20
17.924832
 42
0.056677
  0
VERTEX
  8
0
 10
141.750000
 20
16.386908
 42
0.087387
  0
VERTEX
  8
0
 10
147.196867
 20
14.808648
 42
0.027975
  0
VERTEX
  8
0
 10
155.644549
 20
14.370951
 42
0.027234
  0
VERTEX
  8
0
 10
163.994637
 20
14.861015
 42
0.105679
  0
VERTEX
  8
0
 10
168.880587
 20
16.500000
 42
0.006991
  0
VERTEX
  8
0
 10
175.654381
 20
20.636397
 42
0.016840
  0
VERTEX
  8
0
 10
180.515702
 20
23.932810
 42
0.021354
  0
VERTEX
  8
0
 10
184.383719
 20
27.011437
 42
0.021623
  0
VERTEX
  8
0
 10
187.958208
 20
30.396514
 42
0.000000
  0
VERTEX
  8
0
 10
192.416416
 20
35.000000
 42
0.000000
  0
VERTEX
  8
0
 10
201.593373
 20
35.000000
 42
0.042452
  0
VERTEX
  8
0
 10
212.066768
 20
35.890845
 42
0.085620
  0
VERTEX
  8
0
 10
219.852477
 20
38.649593
 42
0.069055
  0
VERTEX
  8
0
 10
227.281830
 20
44.288603
 42
0.020178
  0
VERTEX
  8
0
 10
237.012776
 20
54.875238
 42
0.000000
  0
VERTEX
  8
0
 10
242.414879
 20
61.250475
 42
0.000000
  0
VERTEX
  8
0
 10
254.957440
 20
60.772509
 42
-0.007752
  0
VERTEX
  8
0
 10
260.667526
 20
60.466200
 42
-0.014384
  0
VERTEX
  8
0
 10
265.285202
 20
60.012855
 42
-0.017211
  0
VERTEX
  8
0
 10
268.878892
 20
59.429042
 42
-0.051788
  0
VERTEX
  8
0
 10
271.250000
 20
58.698298
 42
0.000000
  0
VERTEX
  8
0
 10
275.000000
 20
57.102053
 42
0.000000
  0
VERTEX
  8
0
 10
275.000000
 20
47.511189
 42
0.009090
  0
VERTEX
  8
0
 10
275.091243
 20
42.492798
 42
0.027365
  0
VERTEX
  8
0
 10
275.402575
 20
39.083836
 42
0.038560
  0
VERTEX
  8
0
 10
275.998654
 20
36.453734
 42
0.042974
  0
VERTEX
  8
0
 10
276.977361
 20
34.044377
 42
0.085213
  0
VERTEX
  8
0
 10
280.616864
 20
29.174047
 42
0.081778
  0
VERTEX
  8
0
 10
285.720296
 20
25.713752
 42
0.068828
  0
VERTEX
  8
0
 10
292.436114
 20
23.671585
 42
0.039733
  0
VERTEX
  8
0
 10
300.872124
 20
23.009384
 42
0.010269
  0
VERTEX
  8
0
 10
305.929886
 20
23.118771
 42
0.042963
  0
VERTEX
  8
0
 10
308.946240
 20
23.507090
 42
0.053954
  0
VERTEX
  8
0
 10
311.507365
 20
24.360680
 42
0.022803
  0
VERTEX
  8
0
 10
314.734341
 20
26.020669
 42
0.021914
  0
VERTEX
  8
0
 10
316.866743
 20
27.371065
 42
0.019874
  0
VERTEX
  8
0
 10
318.945717
 20
28.945259
 42
0.020333
  0
VERTEX
  8
0
 10
320.692388
 20
30.503658
 42
0.058204
  0
VERTEX
  8
0
 10
321.720590
 20
31.761285
 42
-0.012296
  0
VERTEX
  8
0
 10
322.477722
 20
32.883135
 42
-0.011587
  0
VERTEX
  8
0
 10
323.303756
 20
33.989252
 42
-0.011631
  0
VERTEX
  8
0
 10
324.080850
 20
34.934886
 42
-0.038916
  0
VERTEX
  8
0
 10
324.649969
 20
35.500000
 42
0.041982
  0
VERTEX
  8
0
 10
325.249650
 20
36.102796
 42
0.009264
  0
VERTEX
  8
0
 10
326.167841
 20
37.237395
 42
0.009571
  0
VERTEX
  8
0
 10
327.182891
 20
38.593067
 42
0.009081
  0
VERTEX
  8
0
 10
328.163721
 20
40.010280
 42
-0.012688
  0
VERTEX
  8
0
 10
331.241399
 20
44.389409
 42
-0.006027
  0
VERTEX
  8
0
 10
335.413742
 20
49.877455
 42
-0.002106
  0
VERTEX
  8
0
 10
339.746867
 20
55.388584
 42
-0.122879
  0
VERTEX
  8
0
 10
340.754949
 20
56.164122
 42
0.132693
  0
VERTEX
  8
0
 10
341.880208
 20
57.064928
 42
0.004347
  0
VERTEX
  8
0
 10
345.275809
 20
61.789309
 42
0.003969
  0
VERTEX
  8
0
 10
348.615612
 20
66.603014
 42
0.150783
  0
VERTEX
  8
0
 10
349.000000
 20
67.848677
 42
-0.107864
  0
VERTEX
  8
0
 10
349.301666
 20
69.230766
 42
-0.014071
  0
VERTEX
  8
0
 10
350.641850
 20
71.949851
 42
-0.013468
  0
VERTEX
  8
0
 10
352.131844
 20
74.594875
 42
-0.119888
  0
VERTEX
  8
0
 10
353.063324
 20
75.539136
 42
0.111433
  0
VERTEX
  8
0
 10
353.422592
 20
75.891379
 42
0.050257
  0
VERTEX
  8
0
 10
353.724851
 20
76.482178
 42
0.046313
  0
VERTEX
  8
0
 10
353.930614
 20
77.198000
 42
0.046870
  0
VERTEX
  8
0
 10
354.000000
 20
77.936572
 42
-0.069389
  0
VERTEX
  8
0
 10
354.109811
 20
78.724036
 42
-0.044584
  0
VERTEX
  8
0
 10
354.440625
 20
79.586601
 42
-0.044117
  0
VERTEX
  8
0
 10
354.925867
 20
80.389706
 42
-0.061675
  0
VERTEX
  8
0
 10
355.500000
 20
81.000000
 42
0.075572
  0
VERTEX
  8
0
 10
356.074601
 20
81.645682
 42
0.044511
  0
VERTEX
  8
0
 10
356.559375
 20
82.560274
 42
0.043376
  0
VERTEX
  8
0
 10
356.889369
 20
83.584343
 42
0.056318
  0
VERTEX
  8
0
 10
357.000000
 20
84.563428
 42
-0.039551
  0
VERTEX
  8
0
 10
357.073901
 20
85.496232
 42
-0.042550
  0
VERTEX
  8
0
 10
357.293750
 20
86.382443
 42
-0.046682
  0
VERTEX
  8
0
 10
357.615740
 20
87.100548
 42
-0.126268
  0
VERTEX
  8
0
 10
358.000000
 20
87.500000
 42
0.126268
  0
VERTEX
  8
0
 10
358.384260
 20
87.899452
 42
0.046682
  0
VERTEX
  8
0
 10
358.706250
 20
88.617557
 42
0.042550
  0
VERTEX
  8
0
 10
358.926099
 20
89.503768
 42
0.039551
  0
VERTEX
  8
0
 10
359.000000
 20
90.436572
 42
-0.053313
  0
VERTEX
  8
0
 10
359.104108
 20
91.410178
 42
-0.042794
  0
VERTEX
  8
0
 10
359.414255
 20
92.417841
 42
-0.044289
  0
VERTEX
  8
0
 10
359.869849
 20
93.308899
 42
-0.079394
  0
VERTEX
  8
0
 10
360.410230
 20
93.925497
 42
0.120275
  0
VERTEX
  8
0
 10
360.988368
 20
94.704153
 42
0.026552
  0
VERTEX
  8
0
 10
361.556851
 20
96.280188
 42
0.026147
  0
VERTEX
  8
0
 10
362.033364
 20
98.220618
 42
0.022568
  0
VERTEX
  8
0
 10
362.333299
 20
100.297942
 42
-0.006629
  0
VERTEX
  8
0
 10
362.611887
 20
102.785601
 42
-0.003023
  0
VERTEX
  8
0
 10
363.038536
 20
106.028145
 42
-0.002993
  0
VERTEX
  8
0
 10
363.529260
 20
109.439741
 42
-0.004115
  0
VERTEX
  8
0
 10
364.013950
 20
112.500000
 42
0.031560
  0
VERTEX
  8
0
 10
364.589241
 20
118.108992
 42
0.013017
  0
VERTEX
  8
0
 10
364.689142
 20
125.747772
 42
0.012141
  0
VERTEX
  8
0
 10
364.364791
 20
134.454502
 42
0.010740
  0
VERTEX
  8
0
 10
363.612331
 20
143.500000
 42
-0.000069
  0
VERTEX
  8
0
 10
363.401586
 20
145.512556
 42
-0.000025
  0
VERTEX
  8
0
 10
363.101734
 20
148.381250
 42
-0.000025
  0
VERTEX
  8
0
 10
362.773262
 20
151.526766
 42
-0.000029
  0
VERTEX
  8
0
 10
362.463103
 20
154.500000
 42
0.014045
  0
VERTEX
  8
0
 10
362.080299
 20
157.383795
 42
0.013778
  0
VERTEX
  8
0
 10
361.534219
 20
160.260189
 42
0.013790
  0
VERTEX
  8
0
 10
360.916759
 20
162.753643
 42
0.049651
  0
VERTEX
  8
0
 10
360.325781
 20
164.279368
 42
-0.025598
  0
VERTEX
  8
0
 10
359.825777
 20
165.406329
 42
-0.032409
  0
VERTEX
  8
0
 10
359.487369
 20
166.494135
 42
-0.034054
  0
VERTEX
  8
0
 10
359.331425
 20
167.409598
 42
-0.165029
  0
VERTEX
  8
0
 10
359.448123
 20
167.916061
 42
0.170434
  0
VERTEX
  8
0
 10
359.540190
 20
168.335748
 42
0.077155
  0
VERTEX
  8
0
 10
359.384943
 20
168.884549
 42
0.063156
  0
VERTEX
  8
0
 10
359.019471
 20
169.472924
 42
0.049064
  0
VERTEX
  8
0
 10
358.488990
 20
170.009138
 42
-0.087180
  0
VERTEX
  8
0
 10
357.917998
 20
170.681359
 42
-0.043462
  0
VERTEX
  8
0
 10
357.437391
 20
171.693385
 42
-0.041384
  0
VERTEX
  8
0
 10
357.110031
 20
172.859093
 42
-0.047799
  0
VERTEX
  8
0
 10
357.000000
 20
174.007435
 42
-0.117292
  0
VERTEX
  8
0
 10
357.507258
 20
176.140055
 42
-0.114386
  0
VERTEX
  8
0
 10
358.923086
 20
177.838776
 42
-0.056690
  0
VERTEX
  8
0
 10
361.785967
 20
179.535231
 42
-0.010198
  0
VERTEX
  8
0
 10
367.500000
 20
181.959742
 42
0.045178
  0
VERTEX
  8
0
 10
378.250117
 20
187.436468
 42
0.030552
  0
VERTEX
  8
0
 10
389.431541
 20
195.462354
 42
0.030651
  0
VERTEX
  8
0
 10
399.490311
 20
204.738308
 42
0.047357
  0
VERTEX
  8
0
 10
406.826968
 20
214.000000
 42
0.017377
  0
VERTEX
  8
0
 10
410.111507
 20
219.472703
 42
0.011417
  0
VERTEX
  8
0
 10
413.524509
 20
225.981363
 42
0.007293
  0
VERTEX
  8
0
 10
416.487811
 20
232.186351
 42
0.108158
  0
VERTEX
  8
0
 10
417.000000
 20
234.526434
 42
-0.065574
  0
VERTEX
  8
0
 10
417.074198
 20
235.089760
 42
-0.082930
  0
VERTEX
  8
0
 10
417.291636
 20
235.567140
 42
-0.099112
  0
VERTEX
  8
0
 10
417.614198
 20
235.886451
 42
-0.146728
  0
VERTEX
  8
0
 10
417.992802
 20
236.000000
 42
0.299637
  0
VERTEX
  8
0
 10
418.366883
 20
236.246290
 42
0.047489
  0
VERTEX
  8
0
 10
418.649867
 20
237.125486
 42
0.039486
  0
VERTEX
  8
0
 10
418.821183
 20
238.363032
 42
0.024452
  0
VERTEX
  8
0
 10
418.835473
 20
239.831443
 42
-0.034485
  0
VERTEX
  8
0
 10
418.885622
 20
241.514949
 42
-0.023590
  0
VERTEX
  8
0
 10
419.163796
 20
243.408081
 42
-0.023842
  0
VERTEX
  8
0
 10
419.607583
 20
245.215757
 42
-0.043609
  0
VERTEX
  8
0
 10
420.163990
 20
246.626907
 42
0.074596
  0
VERTEX
  8
0
 10
420.887249
 20
248.855417
 42
0.019072
  0
VERTEX
  8
0
 10
421.368124
 20
252.628420
 42
0.013833
  0
VERTEX
  8
0
 10
421.700063
 20
258.066439
 42
0.004496
  0
VERTEX
  8
0
 10
421.895762
 20
266.115335
 42
0.004528
  0
VERTEX
  8
0
 10
421.957218
 20
275.931874
 42
0.021396
  0
VERTEX
  8
0
 10
421.700755
 20
281.554307
 42
0.029171
  0
VERTEX
  8
0
 10
421.000458
 20
286.293848
 42
0.013758
  0
VERTEX
  8
0
 10
419.574443
 20
292.315386
 42
-0.008923
  0
VERTEX
  8
0
 10
418.588934
 20
296.304430
 42
-0.009176
  0
VERTEX
  8
0
 10
417.756243
 20
300.289159
 42
-0.008962
  0
VERTEX
  8
0
 10
417.160123
 20
303.767539
 42
-0.037970
  0
VERTEX
  8
0
 10
417.000000
 20
305.873070
 42
0.033018
  0
VERTEX
  8
0
 10
416.892953
 20
307.492358
 42
0.038170
  0
VERTEX
  8
0
 10
416.573232
 20
309.004809
 42
0.042242
  0
VERTEX
  8
0
 10
416.094081
 20
310.243610
 42
0.106544
  0
VERTEX
  8
0
 10
415.500000
 20
311.000000
 42
-0.088019
  0
VERTEX
  8
0
 10
414.924733
 20
311.679545
 42
-0.043345
  0
VERTEX
  8
0
 10
414.440625
 20
312.707149
 42
-0.041217
  0
VERTEX
  8
0
 10
414.110850
 20
313.892986
 42
-0.047248
  0
VERTEX
  8
0
 10
414.000000
 20
315.063428
 42
0.032727
  0
VERTEX
  8
0
 10
413.926334
 20
316.187667
 42
0.038095
  0
VERTEX
  8
0
 10
413.706250
 20
317.235568
 42
0.041571
  0
VERTEX
  8
0
 10
413.385309
 20
318.072287
 42
0.142927
  0
VERTEX
  8
0
 10
413.000000
 20
318.500000
 42
-0.225967
  0
VERTEX
  8
0
 10
412.023093
 20
320.014914
 42
-0.088614
  0
VERTEX
  8
0
 10
412.146651
 20
322.561451
 42
-0.067531
  0
VERTEX
  8
0
 10
413.294902
 20
325.611064
 42
-0.051200
  0
VERTEX
  8
0
 10
415.307400
 20
328.570001
 42
0.028354
  0
VERTEX
  8
0
 10
417.778944
 20
331.869581
 42
0.025377
  0
VERTEX
  8
0
 10
419.961891
 20
335.549099
 42
0.025169
  0
VERTEX
  8
0
 10
421.552683
 20
338.977971
 42
0.096311
  0
VERTEX
  8
0
 10
422.000000
 20
341.278684
 42
-0.082098
  0
VERTEX
  8
0
 10
422.108422
 20
341.934551
 42
-0.044056
  0
VERTEX
  8
0
 10
422.440625
 20
342.687097
 42
-0.042335
  0
VERTEX
  8
0
 10
422.926036
 20
343.414607
 42
-0.051311
  0
VERTEX
  8
0
 10
423.500000
 20
344.000000
 42
0.086606
  0
VERTEX
  8
0
 10
424.489957
 20
345.162774
 42
0.102395
  0
VERTEX
  8
0
 10
424.954980
 20
346.527378
 42
0.161898
  0
VERTEX
  8
0
 10
424.748247
 20
347.565035
 42
0.269539
  0
VERTEX
  8
0
 10
424.000000
 20
348.000000
 42
-0.148195
  0
VERTEX
  8
0
 10
423.618646
 20
348.115568
 42
-0.098894
  0
VERTEX
  8
0
 10
423.293750
 20
348.440625
 42
-0.082425
  0
VERTEX
  8
0
 10
423.074694
 20
348.926543
 42
-0.064853
  0
VERTEX
  8
0
 10
423.000000
 20
349.500000
 42
-0.064853
  0
VERTEX
  8
0
 10
423.074694
 20
350.073457
 42
-0.082425
  0
VERTEX
  8
0
 10
423.293750
 20
350.559375
 42
-0.098894
  0
VERTEX
  8
0
 10
423.618646
 20
350.884432
 42
-0.148195
  0
VERTEX
  8
0
 10
424.000000
 20
351.000000
 42
0.487220
  0
VERTEX
  8
0
 10
424.886148
 20
352.132281
 42
0.060712
  0
VERTEX
  8
0
 10
423.595747
 20
355.519753
 42
0.034034
  0
VERTEX
  8
0
 10
420.421599
 20
360.659042
 42
0.013913
  0
VERTEX
  8
0
 10
415.458001
 20
367.199969
 42
0.081855
  0
VERTEX
  8
0
 10
412.371888
 20
369.964475
 42
0.025144
  0
VERTEX
  8
0
 10
406.917416
 20
373.064800
 42
0.025763
  0
VERTEX
  8
0
 10
401.061361
 20
375.645397
 42
0.062911
  0
VERTEX
  8
0
 10
396.489152
 20
376.754112
 42
0.044760
  0
VERTEX
  8
0
 10
393.269123
 20
376.827481
 42
0.053884
  0
VERTEX
  8
0
 10
390.289047
 20
376.302598
 42
0.029720
  0
VERTEX
  8
0
 10
386.331305
 20
374.896231
 42
0.004876
  0
VERTEX
  8
0
 10
378.879376
 20
371.652052
 42
0.000000
  0
VERTEX
  8
0
 10
373.258752
 20
369.139652
 42
0.000000
  0
VERTEX
  8
0
 10
369.879376
 20
371.406574
 42
0.028047
  0
VERTEX
  8
0
 10
358.913000
 20
377.902670
 42
0.014425
  0
VERTEX
  8
0
 10
344.532472
 20
384.846741
 42
0.011188
  0
VERTEX
  8
0
 10
330.567072
 20
390.728758
 42
0.094343
  0
VERTEX
  8
0
 10
323.889729
 20
392.000000
 42
-0.044769
  0
VERTEX
  8
0
 10
323.020821
 20
392.077956
 42
-0.016631
  0
VERTEX
  8
0
 10
321.820126
 20
392.336655
 42
-0.016325
  0
VERTEX
  8
0
 10
320.521942
 20
392.707312
 42
-0.018966
  0
VERTEX
  8
0
 10
319.315100
 20
393.146059
 42
0.029456
  0
VERTEX
  8
0
 10
317.966689
 20
393.604501
 42
0.014704
  0
VERTEX
  8
0
 10
316.214953
 20
394.032114
 42
0.014544
  0
VERTEX
  8
0
 10
314.369515
 20
394.369708
 42
0.020759
  0
VERTEX
  8
0
 10
312.714526
 20
394.553055
 42
-0.019850
  0
VERTEX
  8
0
 10
311.176241
 20
394.720643
 42
-0.020967
  0
VERTEX
  8
0
 10
309.684268
 20
395.007794
 42
-0.021147
  0
VERTEX
  8
0
 10
308.425787
 20
395.361996
 42
-0.083191
  0
VERTEX
  8
0
 10
307.714526
 20
395.734679
 42
0.159945
  0
VERTEX
  8
0
 10
303.650971
 20
397.133079
 42
0.002579
  0
VERTEX
  8
0
 10
279.115957
 20
397.355798
 42
0.002583
  0
VERTEX
  8
0
 10
254.582601
 20
397.325238
 42
0.159600
  0
VERTEX
  8
0
 10
250.500000
 20
395.958962
 42
-0.092159
  0
VERTEX
  8
0
 10
248.792866
 20
395.122341
 42
-0.005419
  0
VERTEX
  8
0
 10
243.187935
 20
393.625075
 42
-0.007154
  0
VERTEX
  8
0
 10
237.649487
 20
392.293818
 42
-0.055453
  0
VERTEX
  8
0
 10
235.008362
 20
392.000000
 42
-0.089528
  0
VERTEX
  8
0
 10
233.857171
 20
392.207794
 42
-0.006965
  0
VERTEX
  8
0
 10
230.930340
 20
393.346680
 42
-0.009333
  0
VERTEX
  8
0
 10
227.461097
 20
394.828556
 42
-0.006994
  0
VERTEX
  8
0
 10
223.695667
 20
396.584441
 42
0.022716
  0
VERTEX
  8
0
 10
216.554548
 20
399.645016
 42
0.014563
  0
VERTEX
  8
0
 10
208.020844
 20
402.571403
 42
0.014096
  0
VERTEX
  8
0
 10
198.910849
 20
405.122518
 42
0.015744
  0
VERTEX
  8
0
 10
190.000000
 20
407.053173
 42
0.041443
  0
VERTEX
  8
0
 10
183.588049
 20
407.690303
 42
0.004792
  0
VERTEX
  8
0
 10
169.119883
 20
407.786047
 42
0.005441
  0
VERTEX
  8
0
 10
154.692459
 20
407.586225
 42
0.030478
  0
SEQEND
  0
POLYLINE
  8
0
 66
1
 70
1
  0
VERTEX
  8
0
 10
199.000000
 20
399.059850
 42
-0.026877
  0
VERTEX
  8
0
 10
209.706456
 20
396.599641
 42
-0.034378
  0
VERTEX
  8
0
 10
219.214624
 20
393.146799
 42
-0.038817
  0
VERTEX
  8
0
 10
226.858230
 20
389.023918
 42
-0.083197
  0
VERTEX
  8
0
 10
231.799483
 20
384.527786
 42
-0.044165
  0
VERTEX
  8
0
 10
232.793489
 20
383.004784
 42
-0.087916
  0
VERTEX
  8
0
 10
233.237681
 20
381.639710
 42
-0.066358
  0
VERTEX
  8
0
 10
233.248891
 20
379.963586
 42
-0.016884
  0
VERTEX
  8
0
 10
232.815900
 20
377.273654
 42
0.060190
  0
VERTEX
  8
0
 10
232.304407
 20
370.291614
 42
0.069454
  0
VERTEX
  8
0
 10
233.536491
 20
363.736612
 42
0.071800
  0
VERTEX
  8
0
 10
236.462435
 20
357.945431
 42
0.071148
  0
VERTEX
  8
0
 10
240.914272
 20
353.197664
 42
0.016671
  0
VERTEX
  8
0
 10
244.270093
 20
350.687825
 42
0.042118
  0
VERTEX
  8
0
 10
246.906636
 20
349.161971
 42
0.040809
  0
VERTEX
  8
0
 10
249.810092
 20
348.072828
 42
0.014844
  0
VERTEX
  8
0
 10
254.074978
 20
346.994646
 42
0.021046
  0
VERTEX
  8
0
 10
257.312236
 20
346.419449
 42
0.040977
  0
VERTEX
  8
0
 10
259.930784
 20
346.283554
 42
0.035821
  0
VERTEX
  8
0
 10
262.755638
 20
346.571752
 42
0.012590
  0
VERTEX
  8
0
 10
266.754055
 20
347.375869
 42
-0.010199
  0
VERTEX
  8
0
 10
269.571271
 20
347.956464
 42
-0.013487
  0
VERTEX
  8
0
 10
272.159345
 20
348.363173
 42
-0.010862
  0
VERTEX
  8
0
 10
274.314562
 20
348.595053
 42
-0.116255
  0
VERTEX
  8
0
 10
275.179076
 20
348.467917
 42
-0.157571
  0
VERTEX
  8
0
 10
276.870869
 20
347.071456
 42
-0.009497
  0
VERTEX
  8
0
 10
280.355307
 20
341.377643
 42
-0.013901
  0
VERTEX
  8
0
 10
284.154842
 20
334.461845
 42
-0.011216
  0
VERTEX
  8
0
 10
287.858553
 20
326.836509
 42
-0.031943
  0
VERTEX
  8
0
 10
291.899714
 20
316.288022
 42
-0.036566
  0
VERTEX
  8
0
 10
294.349351
 20
305.773434
 42
-0.028452
  0
VERTEX
  8
0
 10
295.613005
 20
293.038390
 42
-0.010693
  0
VERTEX
  8
0
 10
295.982862
 20
275.110758
 42
-0.003005
  0
VERTEX
  8
0
 10
295.899234
 20
262.755982
 42
-0.012728
  0
VERTEX
  8
0
 10
295.616427
 20
255.362995
 42
-0.020753
  0
VERTEX
  8
0
 10
295.054425
 20
250.039970
 42
-0.026864
  0
VERTEX
  8
0
 10
294.077105
 20
245.228725
 42
-0.044192
  0
VERTEX
  8
0
 10
289.905731
 20
233.527601
 42
-0.033505
  0
VERTEX
  8
0
 10
283.396478
 20
221.548789
 42
-0.033934
  0
VERTEX
  8
0
 10
275.488285
 20
210.761237
 42
-0.051155
  0
VERTEX
  8
0
 10
267.112405
 20
202.669476
 42
-0.024179
  0
VERTEX
  8
0
 10
262.903582
 20
199.680125
 42
-0.081502
  0
VERTEX
  8
0
 10
259.813158
 20
198.349465
 42
-0.098989
  0
VERTEX
  8
0
 10
256.799208
 20
198.208904
 42
-0.046207
  0
VERTEX
  8
0
 10
252.988065
 20
199.154005
 42
0.110573
  0
VERTEX
  8
0
 10
247.017327
 20
199.844756
 42
0.029622
  0
VERTEX
  8
0
 10
237.531254
 20
198.272012
 42
0.030096
  0
VERTEX
  8
0
 10
228.233401
 20
195.561072
 42
0.098218
  0
VERTEX
  8
0
 10
222.759721
 20
192.282329
 42
-0.126502
  0
VERTEX
  8
0
 10
220.523448
 20
191.107204
 42
-0.019337
  0
VERTEX
  8
0
 10
215.543916
 20
190.131513
 42
-0.013197
  0
VERTEX
  8
0
 10
207.654157
 20
189.112642
 42
-0.002873
  0
VERTEX
  8
0
 10
194.000000
 20
187.793824
 42
-0.008027
  0
VERTEX
  8
0
 10
183.654229
 20
187.021752
 42
-0.014660
  0
VERTEX
  8
0
 10
175.193416
 20
186.775327
 42
-0.009122
  0
VERTEX
  8
0
 10
164.447460
 20
186.973560
 42
-0.001467
  0
VERTEX
  8
0
 10
143.500000
 20
187.803981
 42
-0.003609
  0
VERTEX
  8
0
 10
126.413320
 20
188.655150
 42
-0.007891
  0
VERTEX
  8
0
 10
113.341308
 20
189.608136
 42
-0.010019
  0
VERTEX
  8
0
 10
103.354208
 20
190.696965
 42
-0.026710
  0
VERTEX
  8
0
 10
96.307180
 20
191.994163
 42
0.022284
  0
VERTEX
  8
0
 10
94.308162
 20
192.380448
 42
0.010793
  0
VERTEX
  8
0
 10
91.723545
 20
192.704535
 42
0.010680
  0
VERTEX
  8
0
 10
89.012048
 20
192.926821
 42
0.015110
  0
VERTEX
  8
0
 10
86.591107
 20
193.000000
 42
-0.050238
  0
VERTEX
  8
0
 10
81.393797
 20
193.523526
 42
-0.066110
  0
VERTEX
  8
0
 10
76.894360
 20
195.078835
 42
-0.052134
  0
VERTEX
  8
0
 10
72.215554
 20
198.071273
 42
-0.019462
  0
VERTEX
  8
0
 10
66.304947
 20
203.173256
 42
0.028664
  0
VERTEX
  8
0
 10
61.092281
 20
207.508055
 42
0.044017
  0
VERTEX
  8
0
 10
56.085598
 20
210.566786
 42
0.050818
  0
VERTEX
  8
0
 10
51.235020
 20
212.386421
 42
0.064425
  0
VERTEX
  8
0
 10
46.492813
 20
213.000000
 42
-0.136742
  0
VERTEX
  8
0
 10
44.527721
 20
213.547659
 42
-0.065879
  0
VERTEX
  8
0
 10
42.470424
 20
215.194918
 42
-0.055352
  0
VERTEX
  8
0
 10
40.556896
 20
217.693963
 42
-0.041676
  0
VERTEX
  8
0
 10
39.020671
 20
220.797916
 42
-0.056029
  0
VERTEX
  8
0
 10
38.439335
 20
222.945700
 42
-0.028974
  0
VERTEX
  8
0
 10
38.176639
 20
225.718425
 42
-0.020338
  0
VERTEX
  8
0
 10
38.192142
 20
229.461319
 42
-0.007250
  0
VERTEX
  8
0
 10
38.509038
 20
234.797916
 42
0.008081
  0
VERTEX
  8
0
 10
39.043281
 20
244.054570
 42
0.010652
  0
VERTEX
  8
0
 10
39.213932
 20
252.506830
 42
0.009590
  0
VERTEX
  8
0
 10
39.028984
 20
261.618978
 42
0.004958
  0
VERTEX
  8
0
 10
38.466433
 20
273.000000
 42
-0.020059
  0
VERTEX
  8
0
 10
38.228507
 20
285.395674
 42
-0.026521
  0
VERTEX
  8
0
 10
39.062723
 20
296.655898
 42
-0.024998
  0
VERTEX
  8
0
 10
41.139750
 20
308.270113
 42
-0.015107
  0
VERTEX
  8
0
 10
44.695266
 20
321.789974
 42
-0.026562
  0
VERTEX
  8
0
 10
48.595524
 20
332.798804
 42
-0.025104
  0
VERTEX
  8
0
 10
53.705791
 20
343.547601
 42
-0.025280
  0
VERTEX
  8
0
 10
59.825773
 20
353.652878
 42
-0.027984
  0
VERTEX
  8
0
 10
66.746163
 20
362.736458
 42
-0.050092
  0
VERTEX
  8
0
 10
79.278201
 20
374.736029
 42
-0.039380
  0
VERTEX
  8
0
 10
94.963813
 20
385.122450
 42
-0.037970
  0
VERTEX
  8
0
 10
112.740618
 20
393.280749
 42
-0.038180
  0
VERTEX
  8
0
 10
131.514233
 20
398.639108
 42
-0.035439
  0
VERTEX
  8
0
 10
145.289600
 20
400.452043
 42
-0.013444
  0
VERTEX
  8
0
 10
164.684874
 20
401.094658
 42
-0.013570
  0
VERTEX
  8
0
 10
184.301104
 20
400.684534
 42
-0.031030
  0
SEQEND
  0
POLYLINE
  8
0
 66
1
 70
1
  0
VERTEX
  8
0
 10
297.338767
 20
389.982770
 42
-0.055468
  0
VERTEX
  8
0
 10
327.300636
 20
384.271436
 42
-0.058039
  0
VERTEX
  8
0
 10
354.788288
 20
372.156400
 42
-0.058583
  0
VERTEX
  8
0
 10
378.539063
 20
354.171660
 42
-0.058468
  0
VERTEX
  8
0
 10
397.488751
 20
331.157903
 42
-0.018204
  0
VERTEX
  8
0
 10
401.300487
 20
324.735690
 42
-0.010882
  0
VERTEX
  8
0
 10
405.381698
 20
316.847871
 42
-0.009598
  0
VERTEX
  8
0
 10
408.887865
 20
309.332479
 42
-0.050196
  0
VERTEX
  8
0
 10
410.309253
 20
305.000000
 42
0.007571
  0
VERTEX
  8
0
 10
410.665453
 20
303.491266
 42
0.000992
  0
VERTEX
  8
0
 10
411.477620
 20
300.296875
 42
0.001153
  0
VERTEX
  8
0
 10
412.457217
 20
296.512017
 42
0.000965
  0
VERTEX
  8
0
 10
413.513763
 20
292.500000
 42
-0.012282
  0
VERTEX
  8
0
 10
415.031046
 20
286.159028
 42
-0.032662
  0
VERTEX
  8
0
 10
415.703472
 20
281.554227
 42
-0.023879
  0
VERTEX
  8
0
 10
415.875987
 20
276.156791
 42
-0.004192
  0
VERTEX
  8
0
 10
415.630323
 20
266.000000
 42
-0.010472
  0
VERTEX
  8
0
 10
415.063184
 20
255.411214
 42
-0.017987
  0
VERTEX
  8
0
 10
414.089444
 20
246.628674
 42
-0.021102
  0
VERTEX
  8
0
 10
412.772133
 20
239.726546
 42
-0.063971
  0
VERTEX
  8
0
 10
411.097543
 20
235.258009
 42
0.014746
  0
VERTEX
  8
0
 10
409.810638
 20
232.639720
 42
0.008807
  0
VERTEX
  8
0
 10
408.428193
 20
229.456597
 42
0.005140
  0
VERTEX
  8
0
 10
407.194550
 20
226.384295
 42
0.093116
  0
VERTEX
  8
0
 10
406.999865
 20
225.348871
 42
-0.128374
  0
VERTEX
  8
0
 10
406.849991
 20
224.775123
 42
-0.003324
  0
VERTEX
  8
0
 10
405.525314
 20
222.448103
 42
-0.006829
  0
VERTEX
  8
0
 10
403.903743
 20
219.729465
 42
-0.004587
  0
VERTEX
  8
0
 10
401.980306
 20
216.665949
 42
-0.056194
  0
VERTEX
  8
0
 10
390.757593
 20
202.847057
 42
-0.060488
  0
VERTEX
  8
0
 10
376.992444
 20
192.260473
 42
-0.060985
  0
VERTEX
  8
0
 10
361.198864
 20
185.340524
 42
-0.058748
  0
VERTEX
  8
0
 10
344.000000
 20
182.321343
 42
0.008805
  0
VERTEX
  8
0
 10
336.518535
 20
181.766530
 42
0.052250
  0
VERTEX
  8
0
 10
332.677084
 20
181.003668
 42
0.127035
  0
VERTEX
  8
0
 10
330.731523
 20
179.802364
 42
0.193596
  0
VERTEX
  8
0
 10
330.000000
 20
177.983868
 42
0.201829
  0
VERTEX
  8
0
 10
330.608269
 20
176.538355
 42
0.127510
  0
VERTEX
  8
0
 10
332.219119
 20
175.614907
 42
0.050190
  0
VERTEX
  8
0
 10
335.426853
 20
175.075552
 42
0.007931
  0
VERTEX
  8
0
 10
341.817188
 20
174.753030
 42
-0.041566
  0
VERTEX
  8
0
 10
347.412085
 20
174.091733
 42
-0.189608
  0
VERTEX
  8
0
 10
350.109267
 20
172.341917
 42
-0.099572
  0
VERTEX
  8
0
 10
351.807590
 20
168.559644
 42
-0.007503
  0
VERTEX
  8
0
 10
354.148066
 20
157.500000
 42
-0.028797
  0
VERTEX
  8
0
 10
356.061080
 20
143.516688
 42
-0.019463
  0
VERTEX
  8
0
 10
356.696202
 20
127.431072
 42
-0.019600
  0
VERTEX
  8
0
 10
356.101553
 20
112.054286
 42
-0.043546
  0
VERTEX
  8
0
 10
354.178970
 20
100.500000
 42
-0.009559
  0
VERTEX
  8
0
 10
353.114019
 20
96.667554
 42
-0.007719
  0
VERTEX
  8
0
 10
351.828757
 20
92.593533
 42
-0.007814
  0
VERTEX
  8
0
 10
350.525354
 20
88.869362
 42
-0.019858
  0
VERTEX
  8
0
 10
349.431226
 20
86.222665
 42
0.005547
  0
VERTEX
  8
0
 10
348.499904
 20
84.140624
 42
0.007675
  0
VERTEX
  8
0
 10
347.714173
 20
82.251583
 42
0.005098
  0
VERTEX
  8
0
 10
347.098235
 20
80.657070
 42
0.089849
  0
VERTEX
  8
0
 10
347.000000
 20
80.114816
 42
-0.105582
  0
VERTEX
  8
0
 10
346.880109
 20
79.553386
 42
-0.003643
  0
VERTEX
  8
0
 10
345.944895
 20
77.503697
 42
-0.006674
  0
VERTEX
  8
0
 10
344.784370
 20
75.093178
 42
-0.004596
  0
VERTEX
  8
0
 10
343.408154
 20
72.392152
 42
-0.024814
  0
VERTEX
  8
0
 10
340.572914
 20
67.553641
 42
-0.013487
  0
VERTEX
  8
0
 10
336.643660
 20
61.891221
 42
-0.012886
  0
VERTEX
  8
0
 10
332.091208
 20
56.017875
 42
-0.013641
  0
VERTEX
  8
0
 10
327.325106
 20
50.500000
 42
0.018820
  0
VERTEX
  8
0
 10
326.445511
 20
49.460089
 42
0.006707
  0
VERTEX
  8
0
 10
325.266524
 20
47.912500
 42
0.006644
  0
VERTEX
  8
0
 10
324.016944
 20
46.178071
 42
0.007792
  0
VERTEX
  8
0
 10
322.880083
 20
44.500000
 42
-0.045574
  0
VERTEX
  8
0
 10
317.307931
 20
37.480451
 42
-0.062513
  0
VERTEX
  8
0
 10
311.064516
 20
32.391281
 42
-0.073901
  0
VERTEX
  8
0
 10
304.709198
 20
29.617727
 42
-0.116514
  0
VERTEX
  8
0
 10
298.788574
 20
29.428295
 42
0.002381
  0
VERTEX
  8
0
 10
297.288693
 20
29.724902
 42
0.001390
  0
VERTEX
  8
0
 10
295.488189
 20
30.066867
 42
0.001390
  0
VERTEX
  8
0
 10
293.683760
 20
30.399193
 42
0.002357
  0
VERTEX
  8
0
 10
292.171219
 20
30.666059
 42
-0.062346
  0
VERTEX
  8
0
 10
290.540898
 20
31.160489
 42
-0.034368
  0
VERTEX
  8
0
 10
288.697946
 20
32.138050
 42
-0.031361
  0
VERTEX
  8
0
 10
286.795808
 20
33.493439
 42
-0.027154
  0
VERTEX
  8
0
 10
284.979431
 20
35.139013
 42
-0.076781
  0
VERTEX
  8
0
 10
281.798311
 20
39.528313
 42
-0.088201
  0
VERTEX
  8
0
 10
280.280598
 20
44.470827
 42
-0.053830
  0
VERTEX
  8
0
 10
280.180358
 20
51.416773
 42
-0.012471
  0
VERTEX
  8
0
 10
281.558998
 20
63.039329
 42
0.017833
  0
VERTEX
  8
0
 10
281.811010
 20
65.378019
 42
0.059244
  0
VERTEX
  8
0
 10
281.738979
 20
66.920337
 42
0.089884
  0
VERTEX
  8
0
 10
281.340765
 20
68.030847
 42
0.088853
  0
VERTEX
  8
0
 10
280.576992
 20
68.936103
 42
0.057897
  0
VERTEX
  8
0
 10
279.609240
 20
69.566083
 42
0.166529
  0
VERTEX
  8
0
 10
278.825721
 20
69.669605
 42
0.117189
  0
VERTEX
  8
0
 10
277.969248
 20
69.274756
 42
0.022228
  0
VERTEX
  8
0
 10
276.656234
 20
68.146774
 42
-0.096255
  0
VERTEX
  8
0
 10
274.732420
 20
66.934547
 42
-0.065016
  0
VERTEX
  8
0
 10
272.206380
 20
66.315036
 42
-0.025192
  0
VERTEX
  8
0
 10
267.849664
 20
66.052090
 42
-0.002477
  0
VERTEX
  8
0
 10
257.334772
 20
66.000000
 42
-0.007441
  0
VERTEX
  8
0
 10
247.521885
 20
66.146047
 42
-0.019700
  0
VERTEX
  8
0
 10
240.520255
 20
66.631048
 42
-0.025033
  0
VERTEX
  8
0
 10
235.596737
 20
67.418583
 42
-0.123319
  0
VERTEX
  8
0
 10
233.089464
 20
68.642326
 42
-0.314531
  0
VERTEX
  8
0
 10
233.025086
 20
68.882523
 42
-0.039210
  0
VERTEX
  8
0
 10
233.260869
 20
69.402137
 42
-0.034874
  0
VERTEX
  8
0
 10
233.677151
 20
70.045801
 42
-0.021471
  0
VERTEX
  8
0
 10
234.249468
 20
70.743869
 42
0.051697
  0
VERTEX
  8
0
 10
236.689145
 20
74.115623
 42
0.016809
  0
VERTEX
  8
0
 10
239.583744
 20
79.549643
 42
0.017200
  0
VERTEX
  8
0
 10
242.258286
 20
85.515642
 42
0.027132
  0
VERTEX
  8
0
 10
244.090540
 20
90.816601
 42
0.024134
  0
VERTEX
  8
0
 10
244.999660
 20
94.694430
 42
0.021019
  0
VERTEX
  8
0
 10
245.581679
 20
98.824785
 42
0.016808
  0
VERTEX
  8
0
 10
245.900522
 20
103.773185
 42
0.007683
  0
VERTEX
  8
0
 10
246.000000
 20
110.246818
 42
0.000000
  0
VERTEX
  8
0
 10
246.000000
 20
123.000000
 42
0.000000
  0
VERTEX
  8
0
 10
260.985649
 20
123.000000
 42
0.007351
  0
VERTEX
  8
0
 10
270.536974
 20
123.140427
 42
0.022979
  0
VERTEX
  8
0
 10
276.943233
 20
123.624076
 42
0.025204
  0
VERTEX
  8
0
 10
282.957913
 20
124.667076
 42
0.010341
  0
VERTEX
  8
0
 10
291.000000
 20
126.658824
 42
0.024704
  0
VERTEX
  8
0
 10
296.069328
 20
128.298673
 42
0.017292
  0
VERTEX
  8
0
 10
301.607739
 20
130.619673
 42
0.016488
  0
VERTEX
  8
0
 10
306.548362
 20
133.094592
 42
0.063165
  0
VERTEX
  8
0
 10
309.336214
 20
135.099751
 42
0.040233
  0
VERTEX
  8
0
 10
310.216102
 20
136.062066
 42
0.116953
  0
VERTEX
  8
0
 10
310.587196
 20
136.876772
 42
0.124070
  0
VERTEX
  8
0
 10
310.541906
 20
137.741714
 42
0.048088
  0
VERTEX
  8
0
 10
310.076588
 20
138.856894
 42
0.054183
  0
VERTEX
  8
0
 10
309.298815
 20
139.994597
 42
0.191452
  0
VERTEX
  8
0
 10
308.530168
 20
140.399220
 42
0.100888
  0
VERTEX
  8
0
 10
307.386974
 20
140.290439
 42
0.009888
  0
VERTEX
  8
0
 10
304.740374
 20
139.425878
 42
0.008494
  0
VERTEX
  8
0
 10
302.794950
 20
138.710222
 42
0.004642
  0
VERTEX
  8
0
 10
300.433006
 20
137.770188
 42
0.004625
  0
VERTEX
  8
0
 10
298.050420
 20
136.770401
 42
0.007342
  0
VERTEX
  8
0
 10
296.031562
 20
135.865833
 42
-0.007577
  0
VERTEX
  8
0
 10
290.634884
 20
133.450853
 42
-0.029927
  0
VERTEX
  8
0
 10
287.213310
 20
132.218228
 42
-0.032140
  0
VERTEX
  8
0
 10
283.787737
 20
131.446140
 42
-0.009697
  0
VERTEX
  8
0
 10
278.500000
 20
130.711575
 42
-0.020663
  0
VERTEX
  8
0
 10
266.819317
 20
129.806597
 42
-0.023557
  0
VERTEX
  8
0
 10
255.606294
 20
129.931112
 42
-0.023805
  0
VERTEX
  8
0
 10
246.195539
 20
130.930601
 42
-0.104574
  0
VERTEX
  8
0
 10
241.000000
 20
132.896906
 42
-0.049090
  0
VERTEX
  8
0
 10
235.815689
 20
136.989800
 42
-0.084152
  0
VERTEX
  8
0
 10
232.549999
 20
141.408196
 42
-0.101393
  0
VERTEX
  8
0
 10
231.286184
 20
146.037805
 42
-0.103207
  0
VERTEX
  8
0
 10
231.957856
 20
150.759998
 42
-0.052160
  0
VERTEX
  8
0
 10
233.347246
 20
153.627462
 42
-0.064436
  0
VERTEX
  8
0
 10
235.222264
 20
155.926692
 42
-0.074338
  0
VERTEX
  8
0
 10
237.353212
 20
157.414715
 42
-0.120108
  0
VERTEX
  8
0
 10
239.500000
 20
157.899524
 42
-0.149884
  0
VERTEX
  8
0
 10
240.625795
 20
157.533282
 42
-0.027373
  0
VERTEX
  8
0
 10
242.367810
 20
156.162199
 42
-0.025158
  0
VERTEX
  8
0
 10
244.423871
 20
154.161139
 42
-0.014752
  0
VERTEX
  8
0
 10
246.686593
 20
151.576823
 42
0.027741
  0
VERTEX
  8
0
 10
250.745164
 20
147.177333
 42
0.055442
  0
VERTEX
  8
0
 10
254.481225
 20
144.281085
 42
0.061259
  0
VERTEX
  8
0
 10
258.503656
 20
142.454265
 42
0.041956
  0
VERTEX
  8
0
 10
263.403362
 20
141.358191
 42
0.054058
  0
VERTEX
  8
0
 10
268.275743
 20
141.220728
 42
0.060325
  0
VERTEX
  8
0
 10
272.879177
 20
142.155375
 42
0.062606
  0
VERTEX
  8
0
 10
276.981491
 20
144.116131
 42
0.066390
  0
VERTEX
  8
0
 10
280.380715
 20
146.999646
 42
0.048096
  0
VERTEX
  8
0
 10
283.252103
 20
150.867554
 42
0.064297
  0
VERTEX
  8
0
 10
285.009124
 20
154.865636
 42
0.057610
  0
VERTEX
  8
0
 10
285.809354
 20
159.512129
 42
0.030190
  0
VERTEX
  8
0
 10
285.780541
 20
165.386870
 42
0.043522
  0
VERTEX
  8
0
 10
284.708085
 20
172.376208
 42
0.055763
  0
VERTEX
  8
0
 10
282.473617
 20
178.485181
 42
0.054909
  0
VERTEX
  8
0
 10
278.911636
 20
184.020764
 42
0.040428
  0
VERTEX
  8
0
 10
273.871770
 20
189.299095
 42
0.000000
  0
VERTEX
  8
0
 10
267.863942
 20
194.650699
 42
0.000000
  0
VERTEX
  8
0
 10
275.043298
 20
201.575349
 42
0.032983
  0
VERTEX
  8
0
 10
282.549601
 20
209.837294
 42
0.020787
  0
VERTEX
  8
0
 10
290.232040
 20
220.373900
 42
0.016887
  0
VERTEX
  8
0
 10
296.566092
 20
230.597675
 42
0.130965
  0
VERTEX
  8
0
 10
298.000000
 20
235.978186
 42
-0.072282
  0
VERTEX
  8
0
 10
298.476789
 20
239.259087
 42
-0.016605
  0
VERTEX
  8
0
 10
300.251626
 20
244.582169
 42
-0.014066
  0
VERTEX
  8
0
 10
302.341098
 20
249.765806
 42
-0.119577
  0
VERTEX
  8
0
 10
303.847364
 20
251.750000
 42
-0.055830
  0
VERTEX
  8
0
 10
304.591576
 20
252.229023
 42
-0.033423
  0
VERTEX
  8
0
 10
305.564087
 20
252.632812
 42
-0.033128
  0
VERTEX
  8
0
 10
306.599157
 20
252.908705
 42
-0.048602
  0
VERTEX
  8
0
 10
307.536142
 20
253.000000
 42
0.130039
  0
VERTEX
  8
0
 10
309.657361
 20
253.561174
 42
0.095359
  0
VERTEX
  8
0
 10
311.515731
 20
255.150110
 42
0.079168
  0
VERTEX
  8
0
 10
312.913665
 20
257.618790
 42
0.056036
  0
VERTEX
  8
0
 10
313.688448
 20
260.713874
 42
0.025190
  0
VERTEX
  8
0
 10
313.844972
 20
262.596231
 42
0.059144
  0
VERTEX
  8
0
 10
313.724595
 20
263.999762
 42
0.079372
  0
VERTEX
  8
0
 10
313.320621
 20
265.066145
 42
0.089623
  0
VERTEX
  8
0
 10
312.616437
 20
265.903366
 42
0.111256
  0
VERTEX
  8
0
 10
311.001599
 20
266.725931
 42
0.188569
  0
VERTEX
  8
0
 10
309.516190
 20
266.541937
 42
0.162029
  0
VERTEX
  8
0
 10
308.392408
 20
265.344145
 42
0.079691
  0
VERTEX
  8
0
 10
307.822121
 20
263.309060
 42
-0.045447
  0
VERTEX
  8
0
 10
307.553886
 20
262.019009
 42
-0.091439
  0
VERTEX
  8
0
 10
307.077188
 20
261.099337
 42
-0.108502
  0
VERTEX
  8
0
 10
306.367155
 20
260.508458
 42
-0.084202
  0
VERTEX
  8
0
 10
305.407091
 20
260.201035
 42
-0.294835
  0
VERTEX
  8
0
 10
304.189152
 20
260.761874
 42
-0.106990
  0
VERTEX
  8
0
 10
303.501222
 20
262.630978
 42
-0.024794
  0
VERTEX
  8
0
 10
303.110413
 20
266.965403
 42
-0.001493
  0
VERTEX
  8
0
 10
302.621850
 20
280.037545
 42
0.004679
  0
VERTEX
  8
0
 10
302.226835
 20
289.065376
 42
0.008417
  0
VERTEX
  8
0
 10
301.709046
 20
296.458954
 42
0.009640
  0
VERTEX
  8
0
 10
301.094102
 20
302.236828
 42
0.035530
  0
VERTEX
  8
0
 10
300.378109
 20
305.836510
 42
-0.000344
  0
VERTEX
  8
0
 10
299.725645
 20
308.224807
 42
-0.000303
  0
VERTEX
  8
0
 10
299.048100
 20
310.717600
 42
-0.000304
  0
VERTEX
  8
0
 10
298.439691
 20
312.966815
 42
-0.000920
  0
VERTEX
  8
0
 10
298.028993
 20
314.500000
 42
0.019390
  0
VERTEX
  8
0
 10
297.578760
 20
315.962400
 42
0.007631
  0
VERTEX
  8
0
 10
296.850594
 20
317.940625
 42
0.007539
  0
VERTEX
  8
0
 10
295.997687
 20
320.057337
 42
0.009340
  0
VERTEX
  8
0
 10
295.137605
 20
322.000000
 42
-0.011225
  0
VERTEX
  8
0
 10
294.334398
 20
323.832835
 42
-0.012872
  0
VERTEX
  8
0
 10
293.652301
 20
325.618750
 42
-0.012039
  0
VERTEX
  8
0
 10
293.151563
 20
327.155384
 42
-0.069076
  0
VERTEX
  8
0
 10
293.021314
 20
328.000000
 42
0.110616
  0
VERTEX
  8
0
 10
292.779844
 20
329.006731
 42
0.003779
  0
VERTEX
  8
0
 10
290.954434
 20
332.660707
 42
0.006937
  0
VERTEX
  8
0
 10
288.693631
 20
336.953556
 42
0.004768
  0
VERTEX
  8
0
 10
286.016877
 20
341.759854
 42
0.000000
  0
VERTEX
  8
0
 10
279.035051
 20
354.019708
 42
0.000000
  0
VERTEX
  8
0
 10
282.017526
 20
359.532393
 42
0.021040
  0
VERTEX
  8
0
 10
283.606240
 20
362.789219
 42
0.046832
  0
VERTEX
  8
0
 10
284.468450
 20
365.406967
 42
0.042042
  0
VERTEX
  8
0
 10
284.879042
 20
368.309008
 42
0.014130
  0
VERTEX
  8
0
 10
285.000000
 20
372.588281
 42
0.018296
  0
VERTEX
  8
0
 10
284.812551
 20
377.709308
 42
0.055585
  0
VERTEX
  8
0
 10
284.175225
 20
381.129479
 42
0.069336
  0
VERTEX
  8
0
 10
282.895211
 20
383.893191
 42
0.041691
  0
VERTEX
  8
0
 10
280.688281
 20
386.763244
 42
-0.033457
  0
VERTEX
  8
0
 10
279.895122
 20
387.760356
 42
-0.065989
  0
VERTEX
  8
0
 10
279.434580
 20
388.659662
 42
-0.096633
  0
VERTEX
  8
0
 10
279.323837
 20
389.398241
 42
-0.192428
  0
VERTEX
  8
0
 10
279.563244
 20
389.928568
 42
-0.114790
  0
VERTEX
  8
0
 10
280.755901
 20
390.640183
 42
-0.031432
  0
VERTEX
  8
0
 10
282.893511
 20
391.178132
 42
-0.030807
  0
VERTEX
  8
0
 10
285.066246
 20
391.444756
 42
-0.130767
  0
VERTEX
  8
0
 10
286.338767
 20
391.187400
 42
0.085569
  0
VERTEX
  8
0
 10
286.977278
 20
390.997634
 42
0.002272
  0
VERTEX
  8
0
 10
289.916009
 20
390.662288
 42
0.004696
  0
VERTEX
  8
0
 10
293.384368
 20
390.315392
 42
0.003189
  0
SEQEND
  0
POLYLINE
  8
0
 66
1
 70
1
  0
VERTEX
  8
0
 10
404.124824
 20
366.135793
 42
-0.051524
  0
VERTEX
  8
0
 10
408.962377
 20
362.317918
 42
-0.056531
  0
VERTEX
  8
0
 10
412.749620
 20
357.698865
 42
-0.060928
  0
VERTEX
  8
0
 10
415.176826
 20
352.701267
 42
-0.082792
  0
VERTEX
  8
0
 10
416.000000
 20
347.764031
 42
-0.096819
  0
VERTEX
  8
0
 10
415.223152
 20
343.789774
 42
-0.033679
  0
VERTEX
  8
0
 10
412.655669
 20
338.520562
 42
-0.028594
  0
VERTEX
  8
0
 10
409.661692
 20
333.929871
 42
-0.390537
  0
VERTEX
  8
0
 10
407.866353
 20
333.582598
 42
-0.192469
  0
VERTEX
  8
0
 10
407.157244
 20
334.541126
 42
-0.114173
  0
VERTEX
  8
0
 10
407.115030
 20
335.982244
 42
-0.074373
  0
VERTEX
  8
0
 10
407.786338
 20
337.841194
 42
-0.035419
  0
VERTEX
  8
0
 10
409.152988
 20
339.993057
 42
0.086869
  0
VERTEX
  8
0
 10
410.974916
 20
343.639765
 42
0.087630
  0
VERTEX
  8
0
 10
411.442167
 20
347.677186
 42
0.079641
  0
VERTEX
  8
0
 10
410.493869
 20
351.947080
 42
0.057082
  0
VERTEX
  8
0
 10
408.182071
 20
356.265340
 42
0.054511
  0
VERTEX
  8
0
 10
403.834550
 20
361.277720
 42
0.096801
  0
VERTEX
  8
0
 10
399.203244
 20
364.145294
 42
0.110137
  0
VERTEX
  8
0
 10
394.265719
 20
364.851209
 42
0.086779
  0
VERTEX
  8
0
 10
389.019478
 20
363.508783
 42
-0.045138
  0
VERTEX
  8
0
 10
386.204888
 20
362.533951
 42
-0.088312
  0
VERTEX
  8
0
 10
383.844824
 20
362.375498
 42
-0.178226
  0
VERTEX
  8
0
 10
382.517798
 20
363.036073
 42
-0.276057
  0
VERTEX
  8
0
 10
382.249439
 20
364.250526
 42
-0.204540
  0
VERTEX
  8
0
 10
383.501926
 20
365.664999
 42
-0.025831
  0
VERTEX
  8
0
 10
387.359426
 20
367.254686
 42
-0.030648
  0
VERTEX
  8
0
 10
391.740787
 20
368.504929
 42
-0.050863
  0
VERTEX
  8
0
 10
395.554219
 20
368.945616
 42
-0.042107
  0
VERTEX
  8
0
 10
397.649763
 20
368.797106
 42
-0.040494
  0
VERTEX
  8
0
 10
399.719329
 20
368.299723
 42
-0.036877
  0
VERTEX
  8
0
 10
401.848316
 20
367.423290
 42
-0.025238
  0
SEQEND
  0
POLYLINE
  8
0
 66
1
 70
1
  0
VERTEX
  8
0
 10
53.627030
 20
204.938506
 42
-0.031818
  0
VERTEX
  8
0
 10
55.673357
 20
203.781877
 42
-0.011911
  0
VERTEX
  8
0
 10
58.392285
 20
201.914206
 42
-0.011745
  0
VERTEX
  8
0
 10
61.266072
 20
199.733171
 42
-0.013963
  0
VERTEX
  8
0
 10
63.869182
 20
197.537882
 42
0.036579
  0
VERTEX
  8
0
 10
69.382440
 20
193.299428
 42
0.043556
  0
VERTEX
  8
0
 10
75.153089
 20
190.182591
 42
0.049048
  0
VERTEX
  8
0
 10
80.387902
 20
188.504864
 42
0.142328
  0
VERTEX
  8
0
 10
84.142734
 20
188.770485
 42
-0.104669
  0
VERTEX
  8
0
 10
87.046259
 20
189.193887
 42
-0.045657
  0
VERTEX
  8
0
 10
90.913441
 20
188.589526
 42
-0.034095
  0
VERTEX
  8
0
 10
95.814791
 20
186.995456
 42
-0.015440
  0
VERTEX
  8
0
 10
102.000000
 20
184.281533
 42
0.013106
  0
VERTEX
  8
0
 10
109.324781
 20
181.026753
 42
0.032330
  0
VERTEX
  8
0
 10
114.891779
 20
179.136708
 42
0.024977
  0
VERTEX
  8
0
 10
121.435745
 20
177.723320
 42
0.005294
  0
VERTEX
  8
0
 10
132.972280
 20
175.953957
 42
-0.004926
  0
VERTEX
  8
0
 10
135.869774
 20
175.511749
 42
-0.007398
  0
VERTEX
  8
0
 10
138.387499
 20
175.063749
 42
-0.003517
  0
VERTEX
  8
0
 10
140.508235
 20
174.638433
 42
-0.146137
  0
VERTEX
  8
0
 10
140.914080
 20
174.419253
 42
-0.227132
  0
VERTEX
  8
0
 10
141.037753
 20
174.068197
 42
-0.020389
  0
VERTEX
  8
0
 10
140.895587
 20
173.119494
 42
-0.023345
  0
VERTEX
  8
0
 10
140.614265
 20
171.950691
 42
-0.016025
  0
VERTEX
  8
0
 10
140.191800
 20
170.653869
 42
0.048909
  0
VERTEX
  8
0
 10
139.082164
 20
166.294271
 42
0.067222
  0
VERTEX
  8
0
 10
139.012476
 20
162.255179
 42
0.076150
  0
VERTEX
  8
0
 10
139.980795
 20
158.742693
 42
0.091351
  0
VERTEX
  8
0
 10
141.923077
 20
155.923077
 42
0.081304
  0
VERTEX
  8
0
 10
145.226251
 20
153.549186
 42
0.135455
  0
VERTEX
  8
0
 10
148.566877
 20
152.901089
 42
0.120535
  0
VERTEX
  8
0
 10
152.044877
 20
154.044250
 42
0.057043
  0
VERTEX
  8
0
 10
155.764706
 20
157.000000
 42
-0.007230
  0
VERTEX
  8
0
 10
157.342424
 20
158.532740
 42
-0.010728
  0
VERTEX
  8
0
 10
158.771904
 20
159.825000
 42
-0.006136
  0
VERTEX
  8
0
 10
159.999443
 20
160.861669
 42
-0.173981
  0
VERTEX
  8
0
 10
160.384956
 20
161.000000
 42
-0.184245
  0
VERTEX
  8
0
 10
160.761595
 20
160.856335
 42
-0.007045
  0
VERTEX
  8
0
 10
161.884549
 20
159.825000
 42
-0.011813
  0
VERTEX
  8
0
 10
163.189254
 20
158.532730
 42
-0.007963
  0
VERTEX
  8
0
 10
164.618965
 20
157.000000
 42
0.019916
  0
VERTEX
  8
0
 10
166.747173
 20
154.825058
 42
0.070898
  0
VERTEX
  8
0
 10
168.335233
 20
153.703573
 42
0.083665
  0
VERTEX
  8
0
 10
170.029686
 20
153.167561
 42
0.034872
  0
VERTEX
  8
0
 10
172.429271
 20
153.000000
 42
0.031761
  0
VERTEX
  8
0
 10
174.665218
 20
153.142177
 42
0.067072
  0
VERTEX
  8
0
 10
176.340891
 20
153.589639
 42
0.068572
  0
VERTEX
  8
0
 10
177.815191
 20
154.457059
 42
0.034530
  0
VERTEX
  8
0
 10
179.415379
 20
155.911675
 42
0.030210
  0
VERTEX
  8
0
 10
180.939599
 20
157.708194
 42
0.091009
  0
VERTEX
  8
0
 10
181.652512
 20
159.141123
 42
0.079484
  0
VERTEX
  8
0
 10
181.860261
 20
160.842419
 42
0.019519
  0
VERTEX
  8
0
 10
181.645140
 20
163.661675
 42
-0.003257
  0
VERTEX
  8
0
 10
180.757310
 20
171.799028
 42
-0.126010
  0
VERTEX
  8
0
 10
181.025423
 20
173.590757
 42
-0.252100
  0
VERTEX
  8
0
 10
182.171997
 20
174.513502
 42
-0.016716
  0
VERTEX
  8
0
 10
186.500000
 20
175.169000
 42
0.005547
  0
VERTEX
  8
0
 10
203.440572
 20
177.348932
 42
0.028496
  0
VERTEX
  8
0
 10
212.726908
 20
179.193189
 42
0.054533
  0
VERTEX
  8
0
 10
218.255408
 20
181.286647
 42
0.145727
  0
VERTEX
  8
0
 10
221.277816
 20
184.161346
 42
-0.034241
  0
VERTEX
  8
0
 10
222.040643
 20
185.301933
 42
-0.032118
  0
VERTEX
  8
0
 10
222.967284
 20
186.353886
 42
-0.033719
  0
VERTEX
  8
0
 10
223.912338
 20
187.177792
 42
-0.087240
  0
VERTEX
  8
0
 10
224.713453
 20
187.590358
 42
0.016822
  0
VERTEX
  8
0
 10
225.532157
 20
187.875522
 42
0.008979
  0
VERTEX
  8
0
 10
226.524996
 20
188.279888
 42
0.008929
  0
VERTEX
  8
0
 10
227.525078
 20
188.729601
 42
0.013752
  0
VERTEX
  8
0
 10
228.371640
 20
189.157437
 42
-0.046939
  0
VERTEX
  8
0
 10
232.139540
 20
190.757751
 42
-0.028312
  0
VERTEX
  8
0
 10
236.843528
 20
191.964978
 42
-0.025985
  0
VERTEX
  8
0
 10
242.164636
 20
192.729229
 42
-0.022352
  0
VERTEX
  8
0
 10
247.811925
 20
192.989176
 42
-0.012415
  0
VERTEX
  8
0
 10
252.408653
 20
192.881010
 42
-0.034662
  0
VERTEX
  8
0
 10
255.610051
 20
192.502610
 42
-0.040643
  0
VERTEX
  8
0
 10
258.431659
 20
191.727198
 42
-0.023115
  0
VERTEX
  8
0
 10
261.699746
 20
190.362179
 42
-0.059686
  0
VERTEX
  8
0
 10
268.666796
 20
185.983431
 42
-0.065749
  0
VERTEX
  8
0
 10
274.148591
 20
180.206031
 42
-0.066767
  0
VERTEX
  8
0
 10
277.879538
 20
173.286486
 42
-0.064671
  0
VERTEX
  8
0
 10
279.706701
 20
165.552849
 42
-0.069293
  0
VERTEX
  8
0
 10
279.443415
 20
158.143588
 42
-0.123100
  0
VERTEX
  8
0
 10
276.973893
 20
152.596544
 42
-0.135325
  0
VERTEX
  8
0
 10
272.387559
 20
149.196333
 42
-0.092499
  0
VERTEX
  8
0
 10
265.976121
 20
148.000000
 42
-0.061843
  0
VERTEX
  8
0
 10
261.530215
 20
148.552006
 42
-0.074283
  0
VERTEX
  8
0
 10
257.644783
 20
150.173487
 42
-0.055920
  0
VERTEX
  8
0
 10
253.626848
 20
153.262107
 42
-0.020036
  0
VERTEX
  8
0
 10
248.624073
 20
158.487471
 42
0.009613
  0
VERTEX
  8
0
 10
245.383816
 20
162.016268
 42
0.045916
  0
VERTEX
  8
0
 10
243.324083
 20
163.811911
 42
0.079676
  0
VERTEX
  8
0
 10
241.567960
 20
164.695631
 42
0.076953
  0
VERTEX
  8
0
 10
239.602035
 20
165.000000
 42
0.160071
  0
VERTEX
  8
0
 10
234.749324
 20
163.405587
 42
0.070466
  0
VERTEX
  8
0
 10
229.867054
 20
158.618086
 42
0.066861
  0
VERTEX
  8
0
 10
226.225957
 20
152.273152
 42
0.099302
  0
VERTEX
  8
0
 10
225.022777
 20
146.000000
 42
0.085505
  0
VERTEX
  8
0
 10
225.791852
 20
141.750784
 42
0.056313
  0
VERTEX
  8
0
 10
228.011992
 20
137.293898
 42
0.046882
  0
VERTEX
  8
0
 10
231.647175
 20
132.689989
 42
0.029253
  0
VERTEX
  8
0
 10
236.678986
 20
128.000000
 42
-0.043695
  0
VERTEX
  8
0
 10
238.217549
 20
126.480708
 42
-0.064422
  0
VERTEX
  8
0
 10
239.249811
 20
124.890261
 42
-0.053681
  0
VERTEX
  8
0
 10
239.960268
 20
122.880381
 42
-0.021265
  0
VERTEX
  8
0
 10
240.514192
 20
120.000000
 42
-0.039853
  0
VERTEX
  8
0
 10
241.188420
 20
110.071013
 42
-0.041061
  0
VERTEX
  8
0
 10
240.264224
 20
100.261687
 42
-0.040307
  0
VERTEX
  8
0
 10
237.722014
 20
90.572178
 42
-0.035726
  0
VERTEX
  8
0
 10
233.577848
 20
81.000000
 42
-0.058690
  0
VERTEX
  8
0
 10
229.693644
 20
75.288740
 42
-0.015503
  0
VERTEX
  8
0
 10
222.191129
 20
67.162177
 42
-0.016406
  0
VERTEX
  8
0
 10
213.702647
 20
59.070124
 42
-0.028353
  0
VERTEX
  8
0
 10
206.072109
 20
53.000000
 42
0.007988
  0
VERTEX
  8
0
 10
201.291272
 20
49.504851
 42
0.004753
  0
VERTEX
  8
0
 10
195.705394
 20
45.198549
 42
0.003655
  0
VERTEX
  8
0
 10
188.767761
 20
39.661687
 42
0.001615
  0
VERTEX
  8
0
 10
179.678243
 20
32.249279
 42
-0.028707
  0
VERTEX
  8
0
 10
175.000029
 20
28.838707
 42
-0.025165
  0
VERTEX
  8
0
 10
169.756430
 20
25.820880
 42
-0.024957
  0
VERTEX
  8
0
 10
164.858098
 20
23.621626
 42
-0.093295
  0
VERTEX
  8
0
 10
161.555570
 20
23.000000
 42
-0.097493
  0
VERTEX
  8
0
 10
156.592850
 20
23.976942
 42
-0.059665
  0
VERTEX
  8
0
 10
151.362604
 20
26.888330
 42
-0.058695
  0
VERTEX
  8
0
 10
146.865515
 20
31.030795
 42
-0.083744
  0
VERTEX
  8
0
 10
144.070675
 20
35.671495
 42
-0.081165
  0
VERTEX
  8
0
 10
143.272824
 20
39.360503
 42
-0.026732
  0
VERTEX
  8
0
 10
143.286341
 20
44.928064
 42
-0.026428
  0
VERTEX
  8
0
 10
143.954422
 20
51.048639
 42
-0.031780
  0
VERTEX
  8
0
 10
145.246449
 20
56.691008
 42
0.008829
  0
VERTEX
  8
0
 10
146.119393
 20
59.833117
 42
0.070159
  0
VERTEX
  8
0
 10
146.289321
 20
61.327289
 42
0.136139
  0
VERTEX
  8
0
 10
145.969303
 20
62.371198
 42
0.066889
  0
VERTEX
  8
0
 10
145.065185
 20
63.441008
 42
0.044394
  0
VERTEX
  8
0
 10
144.275034
 20
64.037747
 42
0.034802
  0
VERTEX
  8
0
 10
143.326212
 20
64.542046
 42
0.035833
  0
VERTEX
  8
0
 10
142.369783
 20
64.888267
 42
0.069030
  0
VERTEX
  8
0
 10
141.564341
 20
65.000000
 42
-0.050438
  0
VERTEX
  8
0
 10
138.973985
 20
65.261969
 42
-0.004680
  0
VERTEX
  8
0
 10
132.675232
 20
66.610687
 42
-0.005366
  0
VERTEX
  8
0
 10
126.447465
 20
68.075652
 42
-0.038038
  0
VERTEX
  8
0
 10
123.500000
 20
69.045221
 42
0.020473
  0
VERTEX
  8
0
 10
122.362694
 20
69.464110
 42
0.004225
  0
VERTEX
  8
0
 10
120.325000
 20
70.102283
 42
0.004436
  0
VERTEX
  8
0
 10
117.943758
 20
70.802997
 42
0.004165
  0
VERTEX
  8
0
 10
115.500000
 20
71.476656
 42
-0.004800
  0
VERTEX
  8
0
 10
113.056243
 20
72.153657
 42
-0.005100
  0
VERTEX
  8
0
 10
110.675000
 20
72.864394
 42
-0.004869
  0
VERTEX
  8
0
 10
108.638188
 20
73.516828
 42
-0.023341
  0
VERTEX
  8
0
 10
107.500000
 20
73.953590
 42
0.014642
  0
VERTEX
  8
0
 10
106.386342
 20
74.403313
 42
0.003326
  0
VERTEX
  8
0
 10
104.471875
 20
75.097519
 42
0.003441
  0
VERTEX
  8
0
 10
102.252344
 20
75.868517
 42
0.003339
  0
VERTEX
  8
0
 10
100.000000
 20
76.616848
 42
-0.007407
  0
VERTEX
  8
0
 10
97.824366
 20
77.359402
 42
-0.009361
  0
VERTEX
  8
0
 10
95.836563
 20
78.113162
 42
-0.007714
  0
VERTEX
  8
0
 10
94.199293
 20
78.798816
 42
-0.071822
  0
VERTEX
  8
0
 10
93.550000
 20
79.201754
 42
0.054338
  0
VERTEX
  8
0
 10
93.093503
 20
79.507564
 42
0.034233
  0
VERTEX
  8
0
 10
92.505217
 20
79.765515
 42
0.034139
  0
VERTEX
  8
0
 10
91.884058
 20
79.941809
 42
0.052120
  0
VERTEX
  8
0
 10
91.327335
 20
80.000000
 42
-0.079442
  0
VERTEX
  8
0
 10
90.559672
 20
80.122745
 42
-0.008829
  0
VERTEX
  8
0
 10
88.878299
 20
80.707615
 42
-0.010571
  0
VERTEX
  8
0
 10
86.891287
 20
81.486450
 42
-0.008379
  0
VERTEX
  8
0
 10
84.777335
 20
82.408903
 42
0.012765
  0
VERTEX
  8
0
 10
82.324311
 20
83.453801
 42
0.007113
  0
VERTEX
  8
0
 10
79.287717
 20
84.606958
 42
0.007091
  0
VERTEX
  8
0
 10
76.180608
 20
85.686952
 42
0.011405
  0
VERTEX
  8
0
 10
73.500000
 20
86.508927
 42
-0.020373
  0
VERTEX
  8
0
 10
63.619519
 20
89.733576
 42
-0.030050
  0
VERTEX
  8
0
 10
55.277082
 20
93.422005
 42
-0.033237
  0
VERTEX
  8
0
 10
48.113009
 20
97.743881
 42
-0.036080
  0
VERTEX
  8
0
 10
41.790724
 20
102.871128
 42
-0.008940
  0
VERTEX
  8
0
 10
39.188898
 20
105.401161
 42
-0.013013
  0
VERTEX
  8
0
 10
36.994775
 20
107.730650
 42
-0.008523
  0
VERTEX
  8
0
 10
35.266838
 20
109.731194
 42
-0.175614
  0
VERTEX
  8
0
 10
35.000000
 20
110.467490
 42
0.072143
  0
VERTEX
  8
0
 10
34.902768
 20
111.137868
 42
0.014706
  0
VERTEX
  8
0
 10
34.527442
 20
112.280076
 42
0.015212
  0
VERTEX
  8
0
 10
34.007126
 20
113.593009
 42
0.013752
  0
VERTEX
  8
0
 10
33.391293
 20
114.917454
 42
-0.028118
  0
VERTEX
  8
0
 10
32.532898
 20
116.911411
 42
-0.090636
  0
VERTEX
  8
0
 10
32.290315
 20
118.328688
 42
-0.073867
  0
VERTEX
  8
0
 10
32.540893
 20
119.894101
 42
-0.014656
  0
VERTEX
  8
0
 10
33.477575
 20
122.580451
 42
-0.030741
  0
VERTEX
  8
0
 10
34.352116
 20
124.506260
 42
-0.019753
  0
VERTEX
  8
0
 10
35.587034
 20
126.627351
 42
-0.019852
  0
VERTEX
  8
0
 10
36.965783
 20
128.615094
 42
-0.034830
  0
VERTEX
  8
0
 10
38.278517
 20
130.124671
 42
-0.032040
  0
VERTEX
  8
0
 10
40.383510
 20
131.975885
 42
-0.106030
  0
VERTEX
  8
0
 10
42.039552
 20
132.767711
 42
-0.064826
  0
VERTEX
  8
0
 10
44.283692
 20
133.004828
 42
-0.007059
  0
VERTEX
  8
0
 10
49.487625
 20
132.805317
 42
-0.015635
  0
VERTEX
  8
0
 10
53.879798
 20
132.436809
 42
-0.030699
  0
VERTEX
  8
0
 10
57.331067
 20
131.821785
 42
-0.031819
  0
VERTEX
  8
0
 10
60.600391
 20
130.805640
 42
-0.018183
  0
VERTEX
  8
0
 10
64.407664
 20
129.190005
 42
0.009742
  0
VERTEX
  8
0
 10
67.156058
 20
127.968570
 42
0.011862
  0
VERTEX
  8
0
 10
69.776608
 20
126.937064
 42
0.010464
  0
VERTEX
  8
0
 10
72.006242
 20
126.172493
 42
0.077510
  0
VERTEX
  8
0
 10
73.112274
 20
126.000000
 42
0.149482
  0
VERTEX
  8
0
 10
74.362187
 20
126.382220
 42
0.223010
  0
VERTEX
  8
0
 10
74.938555
 20
127.347198
 42
0.162048
  0
VERTEX
  8
0
 10
74.637795
 20
128.681379
 42
0.083959
  0
VERTEX
  8
0
 10
73.511010
 20
129.990862
 42
-0.109819
  0
VERTEX
  8
0
 10
72.573836
 20
131.200118
 42
-0.325381
  0
VERTEX
  8
0
 10
72.759583
 20
132.173263
 42
-0.155180
  0
VERTEX
  8
0
 10
74.117390
 20
132.821035
 42
-0.034322
  0
VERTEX
  8
0
 10
76.721470
 20
133.000000
 42
0.095345
  0
VERTEX
  8
0
 10
81.107872
 20
133.844118
 42
0.062948
  0
VERTEX
  8
0
 10
85.611941
 20
136.339686
 42
0.059647
  0
VERTEX
  8
0
 10
89.599150
 20
140.060464
 42
0.064821
  0
VERTEX
  8
0
 10
92.466536
 20
144.520847
 42
0.060741
  0
VERTEX
  8
0
 10
94.493599
 20
150.626583
 42
0.049466
  0
VERTEX
  8
0
 10
95.184384
 20
157.486595
 42
0.051448
  0
VERTEX
  8
0
 10
94.523380
 20
163.989639
 42
0.089990
  0
VERTEX
  8
0
 10
92.503425
 20
168.994575
 42
0.037599
  0
VERTEX
  8
0
 10
90.200934
 20
172.098317
 42
0.060373
  0
VERTEX
  8
0
 10
87.762822
 20
174.310143
 42
0.064285
  0
VERTEX
  8
0
 10
84.985262
 20
175.783749
 42
0.049669
  0
VERTEX
  8
0
 10
81.670186
 20
176.666096
 42
0.109358
  0
VERTEX
  8
0
 10
76.934235
 20
176.395968
 42
0.074867
  0
VERTEX
  8
0
 10
72.008204
 20
174.170789
 42
0.055682
  0
VERTEX
  8
0
 10
66.731211
 20
169.859792
 42
0.026279
  0
VERTEX
  8
0
 10
60.910381
 20
163.250000
 42
-0.127555
  0
VERTEX
  8
0
 10
59.658374
 20
162.302973
 42
-0.152303
  0
VERTEX
  8
0
 10
58.190913
 20
162.168228
 42
-0.083888
  0
VERTEX
  8
0
 10
56.239216
 20
162.943467
 42
-0.020359
  0
VERTEX
  8
0
 10
53.338858
 20
164.869493
 42
-0.053850
  0
VERTEX
  8
0
 10
46.378360
 20
171.155315
 42
-0.044829
  0
VERTEX
  8
0
 10
40.428279
 20
179.162047
 42
-0.046906
  0
VERTEX
  8
0
 10
36.333802
 20
187.515235
 42
-0.091937
  0
VERTEX
  8
0
 10
35.022236
 20
194.778513
 42
-0.051026
  0
VERTEX
  8
0
 10
35.407122
 20
198.372944
 42
-0.084496
  0
VERTEX
  8
0
 10
36.528021
 20
201.202063
 42
-0.085140
  0
VERTEX
  8
0
 10
38.514465
 20
203.486722
 42
-0.052539
  0
VERTEX
  8
0
 10
41.500000
 20
205.443832
 42
-0.052382
  0
VERTEX
  8
0
 10
44.432077
 20
206.583112
 42
-0.077047
  0
VERTEX
  8
0
 10
47.173858
 20
206.891885
 42
-0.068833
  0
VERTEX
  8
0
 10
50.100941
 20
206.361985
 42
-0.033587
  0
SEQEND
  0
POLYLINE
  8
0
 66
1
 70
1
  0
VERTEX
  8
0
 10
84.067167
 20
168.301252
 42
-0.173781
  0
VERTEX
  8
0
 10
87.854032
 20
163.741904
 42
-0.095168
  0
VERTEX
  8
0
 10
89.019776
 20
156.482080
 42
-0.087948
  0
VERTEX
  8
0
 10
87.407686
 20
148.767127
 42
-0.117746
  0
VERTEX
  8
0
 10
83.292530
 20
142.951982
 42
-0.099176
  0
VERTEX
  8
0
 10
79.080519
 20
140.524508
 42
-0.116467
  0
VERTEX
  8
0
 10
74.502694
 20
140.096469
 42
-0.118089
  0
VERTEX
  8
0
 10
70.264303
 20
141.758684
 42
-0.103982
  0
VERTEX
  8
0
 10
67.004198
 20
145.225074
 42
-0.108580
  0
VERTEX
  8
0
 10
65.206415
 20
150.453087
 42
-0.093213
  0
VERTEX
  8
0
 10
65.619795
 20
156.265947
 42
-0.084972
  0
VERTEX
  8
0
 10
68.216104
 20
161.980946
 42
-0.071487
  0
VERTEX
  8
0
 10
72.698822
 20
166.903273
 42
-0.045612
  0
VERTEX
  8
0
 10
75.723416
 20
168.964585
 42
-0.096471
  0
VERTEX
  8
0
 10
78.410601
 20
169.839324
 42
-0.104437
  0
VERTEX
  8
0
 10
81.088442
 20
169.609103
 42
-0.059993
  0
SEQEND
  0
POLYLINE
  8
0
 66
1
 70
1
  0
VERTEX
  8
0
 10
233.119490
 20
60.250000
 42
-0.065506
  0
VERTEX
  8
0
 10
230.658966
 20
56.865058
 42
-0.013971
  0
VERTEX
  8
0
 10
225.493771
 20
51.719678
 42
-0.014019
  0
VERTEX
  8
0
 10
220.046936
 20
46.869694
 42
-0.064660
  0
VERTEX
  8
0
 10
216.500000
 20
44.594616
 42
0.000595
  0
VERTEX
  8
0
 10
214.841232
 20
43.808893
 42
0.000574
  0
VERTEX
  8
0
 10
213.164923
 20
43.010058
 42
0.000567
  0
VERTEX
  8
0
 10
211.690419
 20
42.303256
 42
0.002106
  0
VERTEX
  8
0
 10
210.763569
 20
41.852862
 42
-0.077325
  0
VERTEX
  8
0
 10
208.734522
 20
41.220298
 42
-0.037900
  0
VERTEX
  8
0
 10
206.027507
 20
41.024786
 42
-0.033960
  0
VERTEX
  8
0
 10
203.592972
 20
41.199295
 42
-0.373934
  0
VERTEX
  8
0
 10
203.000000
 20
41.881311
 42
-0.182847
  0
VERTEX
  8
0
 10
203.183827
 20
42.367184
 42
-0.016066
  0
VERTEX
  8
0
 10
204.101562
 20
43.341454
 42
-0.019391
  0
VERTEX
  8
0
 10
205.313534
 20
44.457834
 42
-0.013854
  0
VERTEX
  8
0
 10
206.750000
 20
45.614426
 42
0.002810
  0
VERTEX
  8
0
 10
210.440398
 20
48.453776
 42
0.006930
  0
VERTEX
  8
0
 10
213.107550
 20
50.589830
 42
0.006024
  0
VERTEX
  8
0
 10
215.921793
 20
52.965916
 42
0.001684
  0
VERTEX
  8
0
 10
220.266018
 20
56.750000
 42
-0.011683
  0
VERTEX
  8
0
 10
223.623650
 20
59.558617
 42
-0.046393
  0
VERTEX
  8
0
 10
225.869071
 20
61.031386
 42
-0.069257
  0
VERTEX
  8
0
 10
227.856404
 20
61.755686
 42
-0.052850
  0
VERTEX
  8
0
 10
230.161347
 20
62.000000
 42
-0.011082
  0
VERTEX
  8
0
 10
232.388303
 20
61.950635
 42
-0.123087
  0
VERTEX
  8
0
 10
233.234166
 20
61.698892
 42
-0.319841
  0
VERTEX
  8
0
 10
233.461201
 20
61.187022
 42
-0.074155
  0
SEQEND
  0
POLYLINE
  8
0
 66
1
 70
1
  0
VERTEX
  8
0
 10
173.000000
 20
288.940983
 42
0.108972
  0
VERTEX
  8
0
 10
173.078288
 20
288.586039
 42
0.182303
  0
VERTEX
  8
0
 10
173.293750
 20
288.374600
 42
0.161196
  0
VERTEX
  8
0
 10
173.617900
 20
288.343488
 42
0.082592
  0
VERTEX
  8
0
 10
174.000000
 20
288.500000
 42
0.029505
  0
VERTEX
  8
0
 10
174.382774
 20
288.768994
 42
0.035638
  0
VERTEX
  8
0
 10
174.706250
 20
289.066025
 42
0.038439
  0
VERTEX
  8
0
 10
174.934461
 20
289.348290
 42
0.151918
  0
VERTEX
  8
0
 10
175.000000
 20
289.559017
 42
0.210953
  0
VERTEX
  8
0
 10
174.925540
 20
289.727648
 42
0.081139
  0
VERTEX
  8
0
 10
174.706250
 20
289.870461
 42
0.061769
  0
VERTEX
  8
0
 10
174.382849
 20
289.967655
 42
0.042167
  0
VERTEX
  8
0
 10
174.000000
 20
290.000000
 42
0.105053
  0
VERTEX
  8
0
 10
173.618444
 20
289.918938
 42
0.099167
  0
VERTEX
  8
0
 10
173.293750
 20
289.688914
 42
0.096420
  0
VERTEX
  8
0
 10
173.076123
 20
289.345238
 42
0.093332
  0
SEQEND
  0
POLYLINE
  8
0
 66
1
 70
1
  0
VERTEX
  8
0
 10
170.000000
 20
287.000000
 42
0.011213
  0
VERTEX
  8
0
 10
169.169589
 20
286.436556
 42
0.309569
  0
VERTEX
  8
0
 10
169.083458
 20
286.201904
 42
0.327416
  0
VERTEX
  8
0
 10
169.271084
 20
286.047261
 42
0.011938
  0
VERTEX
  8
0
 10
170.250000
 20
286.015313
 42
0.055234
  0
VERTEX
  8
0
 10
170.919445
 20
286.083567
 42
0.075283
  0
VERTEX
  8
0
 10
171.485938
 20
286.298248
 42
0.095191
  0
VERTEX
  8
0
 10
171.865757
 20
286.619685
 42
0.171310
  0
VERTEX
  8
0
 10
172.000000
 20
287.000000
 42
0.042895
  0
VERTEX
  8
0
 10
171.938046
 20
287.720828
 42
0.364836
  0
VERTEX
  8
0
 10
171.707705
 20
287.914708
 42
0.137048
  0
VERTEX
  8
0
 10
171.262820
 20
287.790433
 42
0.007234
  0
SEQEND
  0
POLYLINE
  8
0
 66
1
 70
1
  0
VERTEX
  8
0
 10
175.150243
 20
279.472968
 42
0.118335
  0
VERTEX
  8
0
 10
172.150772
 20
275.408132
 42
0.118937
  0
VERTEX
  8
0
 10
171.330547
 20
270.432549
 42
0.118889
  0
VERTEX
  8
0
 10
172.869566
 20
265.628838
 42
0.118172
  0
VERTEX
  8
0
 10
176.431643
 20
262.042247
 42
0.056855
  0
VERTEX
  8
0
 10
179.511158
 20
260.592524
 42
0.081085
  0
VERTEX
  8
0
 10
182.486925
 20
260.098299
 42
0.081440
  0
VERTEX
  8
0
 10
185.455711
 20
260.576657
 42
0.057889
  0
VERTEX
  8
0
 10
188.514309
 20
262.008843
 42
0.105244
  0
VERTEX
  8
0
 10
191.959013
 20
265.304512
 42
0.115492
  0
VERTEX
  8
0
 10
193.618817
 20
269.611648
 42
0.120879
  0
VERTEX
  8
0
 10
193.160795
 20
274.054337
 42
0.122883
  0
VERTEX
  8
0
 10
190.698127
 20
277.749455
 42
0.059560
  0
VERTEX
  8
0
 10
186.621940
 20
280.655870
 42
0.097818
  0
VERTEX
  8
0
 10
182.594747
 20
281.925570
 42
0.110440
  0
VERTEX
  8
0
 10
178.737933
 20
281.501214
 42
0.092747
  0
SEQEND
  0
POLYLINE
  8
0
 66
1
 70
1
  0
VERTEX
  8
0
 10
79.669303
 20
278.954514
 42
0.125246
  0
VERTEX
  8
0
 10
76.517887
 20
274.852495
 42
0.125328
  0
VERTEX
  8
0
 10
75.711654
 20
269.744112
 42
0.127650
  0
VERTEX
  8
0
 10
77.446519
 20
264.943040
 42
0.132531
  0
VERTEX
  8
0
 10
81.278102
 20
261.672322
 42
0.019216
  0
VERTEX
  8
0
 10
84.127166
 20
260.452146
 42
0.087337
  0
VERTEX
  8
0
 10
85.892151
 20
260.109078
 42
0.097218
  0
VERTEX
  8
0
 10
87.573850
 20
260.408288
 42
0.026842
  0
VERTEX
  8
0
 10
90.032733
 20
261.516927
 42
0.106933
  0
VERTEX
  8
0
 10
93.830324
 20
264.653166
 42
0.127978
  0
VERTEX
  8
0
 10
95.686175
 20
268.889892
 42
0.128572
  0
VERTEX
  8
0
 10
95.237578
 20
273.478620
 42
0.108474
  0
VERTEX
  8
0
 10
92.600000
 20
277.600000
 42
0.070646
  0
VERTEX
  8
0
 10
89.463477
 20
279.956509
 42
0.100060
  0
VERTEX
  8
0
 10
86.141296
 20
280.998128
 42
0.105921
  0
VERTEX
  8
0
 10
82.817148
 20
280.642147
 42
0.087417
  0
SEQEND
  0
POLYLINE
  8
0
 66
1
 70
1
  0
VERTEX
  8
0
 10
120.444360
 20
265.291100
 42
0.000000
  0
VERTEX
  8
0
 10
117.388720
 20
264.902275
 42
0.000000
  0
VERTEX
  8
0
 10
117.810294
 20
255.701137
 42
0.007547
  0
VERTEX
  8
0
 10
118.029590
 20
252.103472
 42
0.010671
  0
VERTEX
  8
0
 10
118.341439
 20
248.909084
 42
0.007075
  0
VERTEX
  8
0
 10
118.694662
 20
246.265066
 42
0.131874
  0
VERTEX
  8
0
 10
119.026448
 20
245.500000
 42
-0.079653
  0
VERTEX
  8
0
 10
119.377940
 20
244.875225
 42
-0.014697
  0
VERTEX
  8
0
 10
119.800041
 20
243.618750
 42
-0.015442
  0
VERTEX
  8
0
 10
120.209009
 20
242.104716
 42
-0.013523
  0
VERTEX
  8
0
 10
120.544162
 20
240.500000
 42
0.027354
  0
VERTEX
  8
0
 10
121.655621
 20
235.827771
 42
0.091294
  0
VERTEX
  8
0
 10
123.078282
 20
233.029306
 42
0.135231
  0
VERTEX
  8
0
 10
125.052504
 20
231.529867
 42
0.095470
  0
VERTEX
  8
0
 10
127.802241
 20
231.000000
 42
0.037976
  0
VERTEX
  8
0
 10
129.941606
 20
231.162722
 42
0.103447
  0
VERTEX
  8
0
 10
131.356831
 20
231.692172
 42
0.086541
  0
VERTEX
  8
0
 10
132.584512
 20
232.805977
 42
0.021525
  0
VERTEX
  8
0
 10
134.162693
 20
235.024559
 42
0.069016
  0
VERTEX
  8
0
 10
136.000531
 20
238.954393
 42
0.032222
  0
VERTEX
  8
0
 10
137.313286
 20
244.432307
 42
0.032200
  0
VERTEX
  8
0
 10
137.908964
 20
250.009200
 42
0.072108
  0
VERTEX
  8
0
 10
137.476385
 20
254.238067
 42
-0.059796
  0
VERTEX
  8
0
 10
137.295829
 20
255.658270
 42
-0.118624
  0
VERTEX
  8
0
 10
137.552121
 20
256.757126
 42
-0.091451
  0
VERTEX
  8
0
 10
138.340669
 20
257.799423
 42
-0.026027
  0
VERTEX
  8
0
 10
139.914897
 20
259.095202
 42
0.015819
  0
VERTEX
  8
0
 10
141.096541
 20
260.028047
 42
0.021690
  0
VERTEX
  8
0
 10
142.093751
 20
260.944606
 42
0.019191
  0
VERTEX
  8
0
 10
142.838626
 20
261.750993
 42
0.178714
  0
VERTEX
  8
0
 10
143.000000
 20
262.188058
 42
0.330448
  0
VERTEX
  8
0
 10
142.764587
 20
262.505366
 42
0.027790
  0
VERTEX
  8
0
 10
141.711703
 20
262.761492
 42
0.028356
  0
VERTEX
  8
0
 10
140.295476
 20
262.941413
 42
0.017419
  0
VERTEX
  8
0
 10
138.614307
 20
263.000000
 42
-0.028904
  0
VERTEX
  8
0
 10
136.725365
 20
263.109288
 42
-0.021908
  0
VERTEX
  8
0
 10
134.675521
 20
263.438815
 42
-0.022334
  0
VERTEX
  8
0
 10
132.773344
 20
263.920196
 42
-0.047085
  0
VERTEX
  8
0
 10
131.364307
 20
264.493839
 42
0.045929
  0
VERTEX
  8
0
 10
129.276386
 20
265.349487
 42
0.056123
  0
VERTEX
  8
0
 10
127.203210
 20
265.737481
 42
0.038997
  0
VERTEX
  8
0
 10
124.560653
 20
265.724070
 42
0.010885
  0
SEQEND
  0
POLYLINE
  8
0
 66
1
 70
1
  0
VERTEX
  8
0
 10
129.984411
 20
260.213706
 42
-0.145464
  0
VERTEX
  8
0
 10
132.479355
 20
256.576519
 42
-0.056207
  0
VERTEX
  8
0
 10
133.706915
 20
250.522032
 42
-0.054221
  0
VERTEX
  8
0
 10
133.570103
 20
243.878548
 42
-0.080653
  0
VERTEX
  8
0
 10
131.910794
 20
238.315724
 42
-0.034525
  0
VERTEX
  8
0
 10
130.148902
 20
235.237534
 42
-0.199832
  0
VERTEX
  8
0
 10
128.622306
 20
234.221037
 42
-0.241194
  0
VERTEX
  8
0
 10
127.019008
 20
234.682720
 42
-0.049615
  0
VERTEX
  8
0
 10
125.021684
 20
236.969548
 42
-0.068130
  0
VERTEX
  8
0
 10
122.942915
 20
240.936050
 42
-0.044822
  0
VERTEX
  8
0
 10
121.630583
 20
245.927586
 42
-0.044492
  0
VERTEX
  8
0
 10
121.221041
 20
251.128340
 42
-0.062833
  0
VERTEX
  8
0
 10
121.849736
 20
255.727995
 42
-0.040361
  0
VERTEX
  8
0
 10
123.287121
 20
259.765453
 42
-0.162446
  0
VERTEX
  8
0
 10
125.037674
 20
261.664330
 42
-0.221245
  0
VERTEX
  8
0
 10
127.214772
 20
261.813622
 42
-0.078574
  0
SEQEND
  0
POLYLINE
  8
0
 66
1
 70
1
  0
VERTEX
  8
0
 10
329.559168
 20
369.781012
 42
0.074310
  0
VERTEX
  8
0
 10
328.369534
 20
367.395891
 42
0.105396
  0
VERTEX
  8
0
 10
328.123461
 20
365.045218
 42
0.095900
  0
VERTEX
  8
0
 10
328.860231
 20
362.637284
 42
0.052889
  0
VERTEX
  8
0
 10
330.588894
 20
360.076725
 42
0.112332
  0
VERTEX
  8
0
 10
333.807194
 20
357.642508
 42
0.163399
  0
VERTEX
  8
0
 10
337.319525
 20
357.290447
 42
0.189856
  0
VERTEX
  8
0
 10
339.971471
 20
359.101937
 42
0.150182
  0
VERTEX
  8
0
 10
341.000000
 20
362.448984
 42
0.086770
  0
VERTEX
  8
0
 10
340.632478
 20
364.550842
 42
0.142631
  0
VERTEX
  8
0
 10
339.577310
 20
365.999367
 42
0.236582
  0
VERTEX
  8
0
 10
338.295024
 20
366.250319
 42
0.199910
  0
VERTEX
  8
0
 10
337.197042
 20
365.387610
 42
-0.044476
  0
VERTEX
  8
0
 10
336.651987
 20
364.589363
 42
-0.423135
  0
VERTEX
  8
0
 10
336.281349
 20
364.558819
 42
-0.150393
  0
VERTEX
  8
0
 10
335.957316
 20
365.082745
 42
-0.009785
  0
VERTEX
  8
0
 10
335.535037
 20
366.840476
 42
0.070006
  0
VERTEX
  8
0
 10
334.525502
 20
369.555522
 42
0.155675
  0
VERTEX
  8
0
 10
332.953236
 20
371.068406
 42
0.220210
  0
VERTEX
  8
0
 10
331.187233
 20
371.110411
 42
0.138389
  0
SEQEND
  0
POLYLINE
  8
0
 66
1
 70
1
  0
VERTEX
  8
0
 10
352.666667
 20
348.333333
 42
0.183981
  0
VERTEX
  8
0
 10
351.960925
 20
346.759351
 42
0.051433
  0
VERTEX
  8
0
 10
352.084878
 20
344.016593
 42
0.051206
  0
VERTEX
  8
0
 10
352.809531
 20
341.181711
 42
0.099688
  0
VERTEX
  8
0
 10
354.027677
 20
339.200667
 42
0.070087
  0
VERTEX
  8
0
 10
356.096949
 20
337.524494
 42
0.066713
  0
VERTEX
  8
0
 10
358.582886
 20
336.450958
 42
0.073497
  0
VERTEX
  8
0
 10
361.010794
 20
336.139233
 42
0.135603
  0
VERTEX
  8
0
 10
362.904777
 20
336.701529
 42
0.082500
  0
VERTEX
  8
0
 10
364.776837
 20
338.352704
 42
0.066993
  0
VERTEX
  8
0
 10
366.176403
 20
340.637518
 42
0.073547
  0
VERTEX
  8
0
 10
366.815182
 20
342.954766
 42
0.172883
  0
VERTEX
  8
0
 10
366.428557
 20
344.681852
 42
0.060587
  0
VERTEX
  8
0
 10
365.209324
 20
346.178412
 42
0.167410
  0
VERTEX
  8
0
 10
363.993062
 20
346.742694
 42
0.240965
  0
VERTEX
  8
0
 10
362.984549
 20
346.351221
 42
0.118510
  0
VERTEX
  8
0
 10
362.317300
 20
345.105356
 42
-0.145310
  0
VERTEX
  8
0
 10
361.410018
 20
343.606700
 42
-0.194244
  0
VERTEX
  8
0
 10
359.933635
 20
343.060897
 42
-0.182106
  0
VERTEX
  8
0
 10
358.418095
 20
343.683632
 42
-0.130271
  0
VERTEX
  8
0
 10
357.432606
 20
345.250000
 42
0.065053
  0
VERTEX
  8
0
 10
356.524269
 20
347.217996
 42
0.108984
  0
VERTEX
  8
0
 10
355.249129
 20
348.508382
 42
0.157628
  0
VERTEX
  8
0
 10
353.883110
 20
348.874037
 42
0.185656
  0
SEQEND
  0
POLYLINE
  8
0
 66
1
 70
1
  0
VERTEX
  8
0
 10
305.734992
 20
317.750000
 42
0.169619
  0
VERTEX
  8
0
 10
305.744741
 20
314.981453
 42
0.073634
  0
VERTEX
  8
0
 10
307.489121
 20
311.683830
 42
0.067745
  0
VERTEX
  8
0
 10
310.348935
 20
308.727761
 42
0.087192
  0
VERTEX
  8
0
 10
313.674026
 20
306.942566
 42
0.072590
  0
VERTEX
  8
0
 10
318.544180
 20
306.087267
 42
0.235482
  0
VERTEX
  8
0
 10
321.436312
 20
307.426338
 42
0.365523
  0
VERTEX
  8
0
 10
321.372057
 20
309.875563
 42
0.099571
  0
VERTEX
  8
0
 10
318.031201
 20
312.390124
 42
-0.022526
  0
VERTEX
  8
0
 10
316.358134
 20
313.286311
 42
-0.016731
  0
VERTEX
  8
0
 10
314.593202
 20
314.418238
 42
-0.016987
  0
VERTEX
  8
0
 10
312.997061
 20
315.600925
 42
-0.036251
  0
VERTEX
  8
0
 10
311.868360
 20
316.640124
 42
0.061223
  0
VERTEX
  8
0
 10
310.039396
 20
318.162945
 42
0.098567
  0
VERTEX
  8
0
 10
308.159079
 20
318.904217
 42
0.147811
  0
VERTEX
  8
0
 10
306.643679
 20
318.729977
 42
0.210610
  0
SEQEND
  0
POLYLINE
  8
0
 66
1
 70
1
  0
VERTEX
  8
0
 10
327.500000
 20
292.464980
 42
0.091971
  0
VERTEX
  8
0
 10
323.033683
 20
289.047705
 42
0.112330
  0
VERTEX
  8
0
 10
320.469230
 20
284.468873
 42
0.113612
  0
VERTEX
  8
0
 10
320.154146
 20
279.272746
 42
0.095738
  0
VERTEX
  8
0
 10
322.082262
 20
274.096707
 42
0.031967
  0
VERTEX
  8
0
 10
324.802986
 20
270.215444
 42
0.102270
  0
VERTEX
  8
0
 10
327.225098
 20
268.209599
 42
0.104801
  0
VERTEX
  8
0
 10
330.209227
 20
267.354748
 42
0.034515
  0
VERTEX
  8
0
 10
334.798301
 20
267.349458
 42
0.032932
  0
VERTEX
  8
0
 10
339.221491
 20
267.944341
 42
0.081729
  0
VERTEX
  8
0
 10
342.267527
 20
269.100016
 42
0.092068
  0
VERTEX
  8
0
 10
344.565838
 20
271.072840
 42
0.050189
  0
VERTEX
  8
0
 10
346.602379
 20
274.197980
 42
0.173398
  0
VERTEX
  8
0
 10
347.686738
 20
282.249784
 42
0.150684
  0
VERTEX
  8
0
 10
343.522222
 20
289.718907
 42
0.146779
  0
VERTEX
  8
0
 10
335.771875
 20
293.671142
 42
0.163888
  0
SEQEND
  0
ENDSEC
  0
EOF
