  0
SECTION
  2
HEADER
  9
$ACADVER
  1
AC1006
  9
$EXTMIN
 10
0.000000
 20
0.000000
 30
0.000000
  9
$EXTMAX
 10
366.000000
 20
447.000000
 30
0.000000
  0
ENDSEC
  0
SECTION
  2
ENTITIES
  0
POLYLINE
  8
0
 66
1
 70
1
  0
VERTEX
  8
0
 10
89.455603
 20
412.519015
 42
0.048867
  0
VERTEX
  8
0
 10
85.501351
 20
411.208972
 42
0.028247
  0
VERTEX
  8
0
 10
81.039374
 20
408.919631
 42
0.028244
  0
VERTEX
  8
0
 10
76.862444
 20
406.141019
 42
0.048723
  0
VERTEX
  8
0
 10
73.784572
 20
403.325857
 42
0.038638
  0
VERTEX
  8
0
 10
72.932512
 20
402.217369
 42
0.009013
  0
VERTEX
  8
0
 10
71.685367
 20
400.228493
 42
0.009243
  0
VERTEX
  8
0
 10
70.330048
 20
397.880849
 42
0.008948
  0
VERTEX
  8
0
 10
69.047240
 20
395.459461
 42
0.019072
  0
VERTEX
  8
0
 10
67.509775
 20
392.117285
 42
0.038989
  0
VERTEX
  8
0
 10
66.615966
 20
389.374994
 42
0.039246
  0
VERTEX
  8
0
 10
66.162077
 20
386.538780
 42
0.019582
  0
VERTEX
  8
0
 10
66.012667
 20
382.903638
 42
0.032450
  0
VERTEX
  8
0
 10
66.320786
 20
378.015986
 42
0.054637
  0
VERTEX
  8
0
 10
67.284626
 20
374.025564
 42
0.052148
  0
VERTEX
  8
0
 10
69.127694
 20
370.213682
 42
0.026812
  0
VERTEX
  8
0
 10
72.161491
 20
365.856096
 42
-0.020169
  0
VERTEX
  8
0
 10
73.248042
 20
364.338799
 42
-0.022557
  0
VERTEX
  8
0
 10
74.166188
 20
362.793175
 42
-0.022602
  0
VERTEX
  8
0
 10
74.822878
 20
361.418716
 42
-0.100465
  0
VERTEX
  8
0
 10
75.000000
 20
360.546104
 42
-0.111208
  0
VERTEX
  8
0
 10
74.793221
 20
359.627902
 42
-0.017972
  0
VERTEX
  8
0
 10
73.943600
 20
357.991740
 42
-0.019079
  0
VERTEX
  8
0
 10
72.780634
 20
356.107787
 42
-0.015742
  0
VERTEX
  8
0
 10
71.403743
 20
354.190009
 42
0.038539
  0
VERTEX
  8
0
 10
67.538148
 20
348.252626
 42
0.011206
  0
VERTEX
  8
0
 10
62.515712
 20
338.550274
 42
0.011726
  0
VERTEX
  8
0
 10
57.737282
 20
328.180638
 42
0.022134
  0
VERTEX
  8
0
 10
54.458071
 20
319.575697
 42
0.030121
  0
VERTEX
  8
0
 10
50.367944
 20
304.176281
 42
0.024644
  0
VERTEX
  8
0
 10
47.819658
 20
287.327541
 42
0.021813
  0
VERTEX
  8
0
 10
46.732901
 20
268.352641
 42
0.014390
  0
VERTEX
  8
0
 10
47.064783
 20
246.500000
 42
-0.016401
  0
VERTEX
  8
0
 10
47.108248
 20
242.607341
 42
-0.016852
  0
VERTEX
  8
0
 10
46.894889
 20
238.755433
 42
-0.017279
  0
VERTEX
  8
0
 10
46.431589
 20
235.025820
 42
-0.019724
  0
VERTEX
  8
0
 10
45.725724
 20
231.500000
 42
0.022219
  0
VERTEX
  8
0
 10
45.037398
 20
227.970408
 42
0.012311
  0
VERTEX
  8
0
 10
44.496400
 20
223.613834
 42
0.011777
  0
VERTEX
  8
0
 10
44.141046
 20
218.908229
 42
0.012531
  0
VERTEX
  8
0
 10
44.017364
 20
214.287513
 42
0.040817
  0
VERTEX
  8
0
 10
44.887482
 20
203.418937
 42
0.071123
  0
VERTEX
  8
0
 10
47.584606
 20
194.806255
 42
0.070784
  0
VERTEX
  8
0
 10
52.597924
 20
187.267039
 42
0.040053
  0
VERTEX
  8
0
 10
60.545426
 20
179.674237
 42
0.032196
  0
VERTEX
  8
0
 10
65.939494
 20
175.838440
 42
0.011857
  0
VERTEX
  8
0
 10
74.001318
 20
171.114182
 42
0.007556
  0
VERTEX
  8
0
 10
82.160491
 20
166.749178
 42
0.116541
  0
VERTEX
  8
0
 10
85.230018
 20
165.984687
 42
-0.077542
  0
VERTEX
  8
0
 10
87.022629
 20
165.682818
 42
-0.168681
  0
VERTEX
  8
0
 10
88.114340
 20
164.842822
 42
-0.164563
  0
VERTEX
  8
0
 10
88.466344
 20
163.490012
 42
-0.073048
  0
VERTEX
  8
0
 10
88.063505
 20
161.667031
 42
-0.050840
  0
VERTEX
  8
0
 10
87.363597
 20
160.271631
 42
-0.125292
  0
VERTEX
  8
0
 10
86.535110
 20
159.492030
 42
-0.100694
  0
VERTEX
  8
0
 10
85.315145
 20
159.107940
 42
-0.026081
  0
VERTEX
  8
0
 10
83.247257
 20
159.000000
 42
-0.060663
  0
VERTEX
  8
0
 10
80.129009
 20
159.379723
 42
-0.076646
  0
VERTEX
  8
0
 10
77.451171
 20
160.497243
 42
-0.093786
  0
VERTEX
  8
0
 10
75.638811
 20
162.136761
 42
-0.163536
  0
VERTEX
  8
0
 10
75.000000
 20
164.037652
 42
0.101989
  0
VERTEX
  8
0
 10
74.819521
 20
164.913241
 42
0.103162
  0
VERTEX
  8
0
 10
74.307831
 20
165.642018
 42
0.084144
  0
VERTEX
  8
0
 10
73.449446
 20
166.210755
 42
0.046034
  0
VERTEX
  8
0
 10
72.250000
 20
166.615257
 42
-0.031770
  0
VERTEX
  8
0
 10
71.069081
 20
166.976394
 42
-0.022443
  0
VERTEX
  8
0
 10
69.793750
 20
167.523392
 42
-0.022748
  0
VERTEX
  8
0
 10
68.617354
 20
168.159266
 42
-0.043620
  0
VERTEX
  8
0
 10
67.750000
 20
168.789297
 42
0.029474
  0
VERTEX
  8
0
 10
66.709231
 20
169.591168
 42
0.385989
  0
VERTEX
  8
0
 10
66.265836
 20
169.529044
 42
0.167433
  0
VERTEX
  8
0
 10
66.034895
 20
168.921150
 42
0.007819
  0
VERTEX
  8
0
 10
66.000000
 20
166.689784
 42
0.108553
  0
VERTEX
  8
0
 10
66.761875
 20
163.221903
 42
0.064961
  0
VERTEX
  8
0
 10
69.021304
 20
159.636065
 42
0.058179
  0
VERTEX
  8
0
 10
72.448238
 20
156.362103
 42
0.051781
  0
VERTEX
  8
0
 10
76.668733
 20
153.815682
 42
-0.018655
  0
VERTEX
  8
0
 10
79.281909
 20
152.466136
 42
-0.115755
  0
VERTEX
  8
0
 10
80.384267
 20
151.450444
 42
-0.125914
  0
VERTEX
  8
0
 10
80.873727
 20
150.089732
 42
-0.023701
  0
VERTEX
  8
0
 10
81.000000
 20
147.427386
 42
-0.075844
  0
VERTEX
  8
0
 10
79.945310
 20
140.514321
 42
-0.058308
  0
VERTEX
  8
0
 10
76.832848
 20
133.531121
 42
-0.059087
  0
VERTEX
  8
0
 10
72.253470
 20
127.554506
 42
-0.084317
  0
VERTEX
  8
0
 10
66.866354
 20
123.620689
 42
0.142319
  0
VERTEX
  8
0
 10
64.440562
 20
121.382347
 42
0.318842
  0
VERTEX
  8
0
 10
64.617661
 20
119.008909
 42
0.217588
  0
VERTEX
  8
0
 10
67.316898
 20
117.703310
 42
0.105836
  0
VERTEX
  8
0
 10
71.159539
 20
118.437808
 42
0.094174
  0
VERTEX
  8
0
 10
75.967493
 20
121.639936
 42
0.042194
  0
VERTEX
  8
0
 10
80.944272
 20
127.416960
 42
0.042022
  0
VERTEX
  8
0
 10
84.806781
 20
133.820068
 42
0.115203
  0
VERTEX
  8
0
 10
86.000000
 20
138.930085
 42
-0.046633
  0
VERTEX
  8
0
 10
86.074073
 20
139.722567
 42
-0.046206
  0
VERTEX
  8
0
 10
86.293750
 20
140.490148
 42
-0.050167
  0
VERTEX
  8
0
 10
86.616426
 20
141.123275
 42
-0.111871
  0
VERTEX
  8
0
 10
87.000000
 20
141.500000
 42
0.144643
  0
VERTEX
  8
0
 10
87.385435
 20
141.930755
 42
0.040991
  0
VERTEX
  8
0
 10
87.706250
 20
142.781277
 42
0.037628
  0
VERTEX
  8
0
 10
87.926360
 20
143.847717
 42
0.032091
  0
VERTEX
  8
0
 10
88.000000
 20
144.993917
 42
-0.048180
  0
VERTEX
  8
0
 10
88.299592
 20
148.095818
 42
-0.065638
  0
VERTEX
  8
0
 10
89.192313
 20
150.757065
 42
-0.076857
  0
VERTEX
  8
0
 10
90.590594
 20
152.765574
 42
-0.111940
  0
VERTEX
  8
0
 10
92.381154
 20
153.954815
 42
0.041771
  0
VERTEX
  8
0
 10
93.405410
 20
154.445569
 42
0.028196
  0
VERTEX
  8
0
 10
94.485004
 20
155.163245
 42
0.028449
  0
VERTEX
  8
0
 10
95.457015
 20
155.981867
 42
0.049288
  0
VERTEX
  8
0
 10
96.149086
 20
156.778183
 42
-0.072478
  0
VERTEX
  8
0
 10
98.120161
 20
158.845039
 42
-0.080828
  0
VERTEX
  8
0
 10
100.531228
 20
160.171951
 42
-0.072989
  0
VERTEX
  8
0
 10
103.443396
 20
160.750406
 42
-0.046535
  0
VERTEX
  8
0
 10
106.899856
 20
160.602927
 42
-0.040121
  0
VERTEX
  8
0
 10
112.562783
 20
159.361274
 42
-0.006007
  0
VERTEX
  8
0
 10
123.672513
 20
155.826296
 42
-0.002511
  0
VERTEX
  8
0
 10
135.422678
 20
151.865868
 42
-0.155295
  0
VERTEX
  8
0
 10
137.170865
 20
150.569026
 42
-0.129885
  0
VERTEX
  8
0
 10
137.439126
 20
149.869302
 42
-0.007033
  0
VERTEX
  8
0
 10
137.662413
 20
147.493521
 42
-0.010581
  0
VERTEX
  8
0
 10
137.830208
 20
144.627713
 42
-0.007496
  0
VERTEX
  8
0
 10
137.902154
 20
141.406548
 42
0.086437
  0
VERTEX
  8
0
 10
140.624369
 20
126.428667
 42
0.104860
  0
VERTEX
  8
0
 10
148.204860
 20
114.369455
 42
0.097575
  0
VERTEX
  8
0
 10
160.525773
 20
105.829116
 42
0.065923
  0
VERTEX
  8
0
 10
177.005569
 20
101.091542
 42
0.041881
  0
VERTEX
  8
0
 10
184.187668
 20
100.627228
 42
0.032383
  0
VERTEX
  8
0
 10
192.006144
 20
101.284730
 42
0.031868
  0
VERTEX
  8
0
 10
199.824132
 20
102.970349
 42
0.036456
  0
VERTEX
  8
0
 10
207.008761
 20
105.584419
 42
-0.012536
  0
VERTEX
  8
0
 10
210.546007
 20
107.066461
 42
-0.056243
  0
VERTEX
  8
0
 10
212.712573
 20
107.641245
 42
-0.071003
  0
VERTEX
  8
0
 10
214.703837
 20
107.651574
 42
-0.027530
  0
VERTEX
  8
0
 10
217.417343
 20
107.125130
 42
0.029473
  0
VERTEX
  8
0
 10
221.985424
 20
106.257273
 42
0.045218
  0
VERTEX
  8
0
 10
226.007545
 20
106.102577
 42
0.045995
  0
VERTEX
  8
0
 10
229.941711
 20
106.672465
 42
0.031870
  0
VERTEX
  8
0
 10
234.239273
 20
107.999496
 42
-0.028863
  0
VERTEX
  8
0
 10
237.173035
 20
108.924748
 42
-0.026329
  0
VERTEX
  8
0
 10
240.284981
 20
109.539880
 42
-0.022686
  0
VERTEX
  8
0
 10
243.849932
 20
109.887281
 42
-0.012931
  0
VERTEX
  8
0
 10
248.178571
 20
109.999496
 42
0.008908
  0
VERTEX
  8
0
 10
252.438811
 20
110.075650
 42
0.028267
  0
VERTEX
  8
0
 10
255.276019
 20
110.338010
 42
0.042903
  0
VERTEX
  8
0
 10
257.201226
 20
110.797897
 42
0.116818
  0
VERTEX
  8
0
 10
258.386082
 20
111.528939
 42
0.131307
  0
VERTEX
  8
0
 10
259.495851
 20
113.448101
 42
0.325645
  0
VERTEX
  8
0
 10
258.945885
 20
114.881014
 42
0.115069
  0
VERTEX
  8
0
 10
256.376137
 20
115.806147
 42
0.019635
  0
VERTEX
  8
0
 10
251.158521
 20
116.209582
 42
-0.011811
  0
VERTEX
  8
0
 10
245.537093
 20
116.555866
 42
-0.222014
  0
VERTEX
  8
0
 10
244.042471
 20
117.415769
 42
-0.205848
  0
VERTEX
  8
0
 10
243.680778
 20
119.148822
 42
-0.010049
  0
VERTEX
  8
0
 10
244.991504
 20
125.000000
 42
0.020234
  0
VERTEX
  8
0
 10
245.463665
 20
127.329147
 42
0.006544
  0
VERTEX
  8
0
 10
245.977192
 20
130.810363
 42
0.006513
  0
VERTEX
  8
0
 10
246.447568
 20
134.700083
 42
0.007270
  0
VERTEX
  8
0
 10
246.797486
 20
138.460809
 42
0.000000
  0
VERTEX
  8
0
 10
247.500000
 20
147.421618
 42
0.000000
  0
VERTEX
  8
0
 10
255.500000
 20
149.128595
 42
0.004854
  0
VERTEX
  8
0
 10
264.642823
 20
151.172415
 42
0.012505
  0
VERTEX
  8
0
 10
271.191919
 20
152.877114
 42
0.016977
  0
VERTEX
  8
0
 10
276.235266
 20
154.512698
 42
0.025461
  0
VERTEX
  8
0
 10
280.500000
 20
156.308078
 42
-0.014808
  0
VERTEX
  8
0
 10
285.726206
 20
158.640449
 42
-0.033143
  0
VERTEX
  8
0
 10
289.846613
 20
160.023691
 42
-0.040588
  0
VERTEX
  8
0
 10
293.546834
 20
160.683615
 42
-0.037503
  0
VERTEX
  8
0
 10
297.405531
 20
160.762303
 42
0.016790
  0
VERTEX
  8
0
 10
300.331256
 20
160.700842
 42
0.106669
  0
VERTEX
  8
0
 10
301.772406
 20
161.030849
 42
0.129804
  0
VERTEX
  8
0
 10
302.813276
 20
161.900128
 42
0.029535
  0
VERTEX
  8
0
 10
304.040079
 20
163.866631
 42
-0.059403
  0
VERTEX
  8
0
 10
305.160281
 20
165.444446
 42
-0.021553
  0
VERTEX
  8
0
 10
307.092617
 20
167.401066
 42
-0.020792
  0
VERTEX
  8
0
 10
309.438600
 20
169.405157
 42
-0.021660
  0
VERTEX
  8
0
 10
311.912056
 20
171.178738
 42
0.050835
  0
VERTEX
  8
0
 10
322.579057
 20
179.810795
 42
0.043694
  0
VERTEX
  8
0
 10
331.897481
 20
190.839536
 42
0.042110
  0
VERTEX
  8
0
 10
339.466118
 20
203.756038
 42
0.039803
  0
VERTEX
  8
0
 10
344.930341
 20
218.000000
 42
0.002649
  0
VERTEX
  8
0
 10
346.401105
 20
223.087096
 42
0.005952
  0
VERTEX
  8
0
 10
347.450456
 20
226.965437
 42
0.004999
  0
VERTEX
  8
0
 10
348.510814
 20
231.254993
 42
0.001390
  0
VERTEX
  8
0
 10
350.086974
 20
238.000000
 42
0.050007
  0
VERTEX
  8
0
 10
351.114156
 20
246.054209
 42
0.006900
  0
VERTEX
  8
0
 10
351.335952
 20
262.960895
 42
0.006964
  0
VERTEX
  8
0
 10
351.089010
 20
279.863274
 42
0.048917
  0
VERTEX
  8
0
 10
350.052879
 20
288.023801
 42
0.000155
  0
VERTEX
  8
0
 10
349.499559
 20
290.448497
 42
0.000105
  0
VERTEX
  8
0
 10
348.867128
 20
293.213242
 42
0.000106
  0
VERTEX
  8
0
 10
348.254652
 20
295.885574
 42
0.000211
  0
VERTEX
  8
0
 10
347.768637
 20
298.000000
 42
0.025881
  0
VERTEX
  8
0
 10
344.432593
 20
309.684831
 42
0.018702
  0
VERTEX
  8
0
 10
339.567582
 20
322.330826
 42
0.018970
  0
VERTEX
  8
0
 10
333.962550
 20
334.157065
 42
0.034700
  0
VERTEX
  8
0
 10
328.387484
 20
343.252315
 42
-0.007266
  0
VERTEX
  8
0
 10
327.089722
 20
345.130098
 42
-0.010315
  0
VERTEX
  8
0
 10
325.995073
 20
346.839502
 42
-0.006704
  0
VERTEX
  8
0
 10
325.133197
 20
348.291989
 42
-0.131279
  0
VERTEX
  8
0
 10
325.000000
 20
348.790552
 42
-0.188176
  0
VERTEX
  8
0
 10
325.180403
 20
349.252924
 42
-0.009237
  0
VERTEX
  8
0
 10
326.334201
 20
350.460864
 42
-0.013904
  0
VERTEX
  8
0
 10
327.801693
 20
351.861347
 42
-0.009496
  0
VERTEX
  8
0
 10
329.541959
 20
353.373083
 42
0.031972
  0
VERTEX
  8
0
 10
333.510368
 20
357.146158
 42
0.043197
  0
VERTEX
  8
0
 10
336.546249
 20
361.054918
 42
0.044152
  0
VERTEX
  8
0
 10
338.817391
 20
365.356524
 42
0.035696
  0
VERTEX
  8
0
 10
340.491284
 20
370.305228
 42
0.016080
  0
VERTEX
  8
0
 10
341.238349
 20
373.604958
 42
0.045846
  0
VERTEX
  8
0
 10
341.470575
 20
375.946230
 42
0.047402
  0
VERTEX
  8
0
 10
341.268765
 20
378.246857
 42
0.018146
  0
VERTEX
  8
0
 10
340.571491
 20
381.386837
 42
0.020555
  0
VERTEX
  8
0
 10
339.103380
 20
386.202538
 42
0.041433
  0
VERTEX
  8
0
 10
337.486659
 20
389.824470
 42
0.044054
  0
VERTEX
  8
0
 10
335.365639
 20
392.987472
 42
0.026542
  0
VERTEX
  8
0
 10
332.345739
 20
396.349610
 42
0.041715
  0
VERTEX
  8
0
 10
327.580862
 20
400.383581
 42
0.053466
  0
VERTEX
  8
0
 10
322.575362
 20
403.198643
 42
0.051789
  0
VERTEX
  8
0
 10
316.957869
 20
404.948616
 42
0.035870
  0
VERTEX
  8
0
 10
310.352086
 20
405.790749
 42
0.011240
  0
VERTEX
  8
0
 10
305.669202
 20
405.943526
 42
0.039785
  0
VERTEX
  8
0
 10
302.671276
 20
405.735151
 42
0.047978
  0
VERTEX
  8
0
 10
300.042142
 20
405.078351
 42
0.022165
  0
VERTEX
  8
0
 10
296.772375
 20
403.753328
 42
0.031011
  0
VERTEX
  8
0
 10
294.168821
 20
402.360153
 42
0.026248
  0
VERTEX
  8
0
 10
291.602194
 20
400.582204
 42
0.025481
  0
VERTEX
  8
0
 10
289.157913
 20
398.484425
 42
0.024914
  0
VERTEX
  8
0
 10
286.920290
 20
396.133776
 42
-0.013149
  0
VERTEX
  8
0
 10
285.134939
 20
394.167651
 42
-0.018214
  0
VERTEX
  8
0
 10
283.426823
 20
392.508596
 42
-0.014909
  0
VERTEX
  8
0
 10
281.946927
 20
391.250441
 42
-0.170212
  0
VERTEX
  8
0
 10
281.234851
 20
391.000491
 42
-0.096538
  0
VERTEX
  8
0
 10
280.475685
 20
391.148141
 42
-0.010126
  0
VERTEX
  8
0
 10
278.803603
 20
391.864614
 42
-0.012243
  0
VERTEX
  8
0
 10
276.832025
 20
392.815926
 42
-0.009524
  0
VERTEX
  8
0
 10
274.734851
 20
393.942876
 42
0.034392
  0
VERTEX
  8
0
 10
266.267163
 20
397.964329
 42
0.016472
  0
VERTEX
  8
0
 10
254.919478
 20
401.999922
 42
0.014882
  0
VERTEX
  8
0
 10
241.605373
 20
405.813760
 42
0.011755
  0
VERTEX
  8
0
 10
227.000000
 20
409.167485
 42
0.044371
  0
VERTEX
  8
0
 10
217.303571
 20
410.272951
 42
0.006157
  0
VERTEX
  8
0
 10
197.036283
 20
410.526722
 42
0.006598
  0
VERTEX
  8
0
 10
176.777266
 20
410.263554
 42
0.037021
  0
VERTEX
  8
0
 10
166.000000
 20
409.180115
 42
0.013365
  0
VERTEX
  8
0
 10
156.224695
 20
407.189112
 42
0.009075
  0
VERTEX
  8
0
 10
145.207371
 20
404.425110
 42
0.008850
  0
VERTEX
  8
0
 10
135.018959
 20
401.477143
 42
0.027769
  0
VERTEX
  8
0
 10
128.340135
 20
399.002198
 42
0.000000
  0
VERTEX
  8
0
 10
124.180270
 20
397.192203
 42
0.000000
  0
VERTEX
  8
0
 10
120.989426
 20
401.162783
 42
0.060995
  0
VERTEX
  8
0
 10
114.345308
 20
407.631351
 42
0.076273
  0
VERTEX
  8
0
 10
106.793236
 20
411.736698
 42
0.077327
  0
VERTEX
  8
0
 10
98.443167
 20
413.354041
 42
0.064901
  0
SEQEND
  0
POLYLINE
  8
0
 66
1
 70
1
  0
VERTEX
  8
0
 10
215.000000
 20
403.884860
 42
-0.011416
  0
VERTEX
  8
0
 10
227.490796
 20
402.234144
 42
-0.017369
  0
VERTEX
  8
0
 10
238.239563
 20
400.178546
 42
-0.018756
  0
VERTEX
  8
0
 10
248.173627
 20
397.523083
 42
-0.017216
  0
VERTEX
  8
0
 10
258.173098
 20
394.062921
 42
-0.011262
  0
VERTEX
  8
0
 10
265.167759
 20
391.187005
 42
-0.013268
  0
VERTEX
  8
0
 10
271.648516
 20
388.142753
 42
-0.009683
  0
VERTEX
  8
0
 10
277.029997
 20
385.306499
 42
-0.127555
  0
VERTEX
  8
0
 10
278.650084
 20
383.772378
 42
-0.087012
  0
VERTEX
  8
0
 10
278.968973
 20
382.986148
 42
-0.015123
  0
VERTEX
  8
0
 10
279.259330
 20
381.403898
 42
-0.016030
  0
VERTEX
  8
0
 10
279.486708
 20
379.505223
 42
-0.013754
  0
VERTEX
  8
0
 10
279.606638
 20
377.496211
 42
0.024408
  0
VERTEX
  8
0
 10
279.784724
 20
375.300424
 42
0.016788
  0
VERTEX
  8
0
 10
280.190808
 20
372.835927
 42
0.016961
  0
VERTEX
  8
0
 10
280.743238
 20
370.485001
 42
0.032778
  0
VERTEX
  8
0
 10
281.369531
 20
368.658013
 42
0.040187
  0
VERTEX
  8
0
 10
283.222148
 20
365.065416
 42
0.024204
  0
VERTEX
  8
0
 10
285.949705
 20
361.119659
 42
0.018012
  0
VERTEX
  8
0
 10
288.775371
 20
357.690812
 42
0.202216
  0
VERTEX
  8
0
 10
290.334029
 20
356.944671
 42
-0.141888
  0
VERTEX
  8
0
 10
290.931126
 20
356.740609
 42
-0.025745
  0
VERTEX
  8
0
 10
291.863944
 20
356.012623
 42
-0.025903
  0
VERTEX
  8
0
 10
292.898687
 20
355.017350
 42
-0.020939
  0
VERTEX
  8
0
 10
293.904927
 20
353.849438
 42
-0.018851
  0
VERTEX
  8
0
 10
294.998227
 20
352.354990
 42
-0.073098
  0
VERTEX
  8
0
 10
295.493985
 20
351.323349
 42
-0.148848
  0
VERTEX
  8
0
 10
295.498747
 20
350.591598
 42
-0.184089
  0
VERTEX
  8
0
 10
295.087441
 20
350.054041
 42
0.217462
  0
VERTEX
  8
0
 10
294.808050
 20
349.635827
 42
0.230512
  0
VERTEX
  8
0
 10
294.949703
 20
349.165266
 42
0.086557
  0
VERTEX
  8
0
 10
295.656385
 20
348.625136
 42
0.021808
  0
VERTEX
  8
0
 10
296.973813
 20
348.010847
 42
-0.104111
  0
VERTEX
  8
0
 10
301.398688
 20
344.982493
 42
-0.076125
  0
VERTEX
  8
0
 10
304.825134
 20
340.092399
 42
-0.092534
  0
VERTEX
  8
0
 10
306.189249
 20
335.251940
 42
-0.277750
  0
VERTEX
  8
0
 10
304.750000
 20
332.285304
 42
0.043144
  0
VERTEX
  8
0
 10
304.065225
 20
331.750001
 42
0.006931
  0
VERTEX
  8
0
 10
302.839063
 20
330.576181
 42
0.007618
  0
VERTEX
  8
0
 10
301.431658
 20
329.148102
 42
0.006621
  0
VERTEX
  8
0
 10
300.000000
 20
327.610183
 42
0.007107
  0
VERTEX
  8
0
 10
298.402681
 20
325.796954
 42
0.062704
  0
VERTEX
  8
0
 10
297.816271
 20
324.907189
 42
0.577802
  0
VERTEX
  8
0
 10
297.977255
 20
324.666963
 42
0.102350
  0
VERTEX
  8
0
 10
298.642139
 20
324.852028
 42
0.044291
  0
VERTEX
  8
0
 10
299.640821
 20
325.483708
 42
0.017356
  0
VERTEX
  8
0
 10
300.902119
 20
326.518814
 42
0.017019
  0
VERTEX
  8
0
 10
302.196758
 20
327.739387
 42
0.020327
  0
VERTEX
  8
0
 10
303.327579
 20
328.977458
 42
-0.023900
  0
VERTEX
  8
0
 10
304.399666
 20
330.134519
 42
-0.028617
  0
VERTEX
  8
0
 10
305.517700
 20
331.112128
 42
-0.029374
  0
VERTEX
  8
0
 10
306.533480
 20
331.810859
 42
-0.136797
  0
VERTEX
  8
0
 10
307.211866
 20
332.000000
 42
0.208499
  0
VERTEX
  8
0
 10
307.795521
 20
332.254444
 42
0.128996
  0
VERTEX
  8
0
 10
308.154706
 20
332.924604
 42
0.064635
  0
VERTEX
  8
0
 10
308.282288
 20
334.119815
 42
0.018084
  0
VERTEX
  8
0
 10
308.171390
 20
336.000000
 42
0.020864
  0
VERTEX
  8
0
 10
307.960377
 20
337.532862
 42
0.032604
  0
VERTEX
  8
0
 10
307.639087
 20
338.825000
 42
0.034486
  0
VERTEX
  8
0
 10
307.265284
 20
339.766792
 42
0.288641
  0
VERTEX
  8
0
 10
306.894965
 20
340.000000
 42
-0.203866
  0
VERTEX
  8
0
 10
306.552915
 20
340.145512
 42
-0.083775
  0
VERTEX
  8
0
 10
306.262896
 20
340.570164
 42
-0.063967
  0
VERTEX
  8
0
 10
306.065747
 20
341.197971
 42
-0.044157
  0
VERTEX
  8
0
 10
306.000000
 20
341.940983
 42
0.046881
  0
VERTEX
  8
0
 10
305.925923
 20
342.729296
 42
0.046318
  0
VERTEX
  8
0
 10
305.706250
 20
343.493350
 42
0.050262
  0
VERTEX
  8
0
 10
305.383556
 20
344.123976
 42
0.111412
  0
VERTEX
  8
0
 10
305.000000
 20
344.500000
 42
-0.197639
  0
VERTEX
  8
0
 10
304.344999
 20
345.404086
 42
-0.406404
  0
VERTEX
  8
0
 10
304.751610
 20
346.089694
 42
-0.065358
  0
VERTEX
  8
0
 10
307.089508
 20
346.402315
 42
-0.010294
  0
VERTEX
  8
0
 10
311.739090
 20
346.317744
 42
-0.009090
  0
VERTEX
  8
0
 10
316.059165
 20
346.071434
 42
-0.047023
  0
VERTEX
  8
0
 10
318.415112
 20
345.669175
 42
-0.084151
  0
VERTEX
  8
0
 10
319.962768
 20
344.957522
 42
-0.077501
  0
VERTEX
  8
0
 10
321.240310
 20
343.758761
 42
-0.044704
  0
VERTEX
  8
0
 10
324.166042
 20
339.225800
 42
-0.005677
  0
VERTEX
  8
0
 10
329.461465
 20
328.864158
 42
-0.005801
  0
VERTEX
  8
0
 10
334.513840
 20
318.391608
 42
-0.042580
  0
VERTEX
  8
0
 10
336.433346
 20
313.178325
 42
-0.004715
  0
VERTEX
  8
0
 10
341.194902
 20
295.152493
 42
-0.023584
  0
VERTEX
  8
0
 10
343.287548
 20
284.916667
 42
-0.028912
  0
VERTEX
  8
0
 10
344.203305
 20
275.475950
 42
-0.009474
  0
VERTEX
  8
0
 10
344.482073
 20
261.500000
 42
-0.020655
  0
VERTEX
  8
0
 10
343.782559
 20
244.155301
 42
-0.034345
  0
VERTEX
  8
0
 10
341.593347
 20
229.697047
 42
-0.037652
  0
VERTEX
  8
0
 10
337.640688
 20
216.651904
 42
-0.032411
  0
VERTEX
  8
0
 10
331.610186
 20
203.649648
 42
-0.019533
  0
VERTEX
  8
0
 10
327.380300
 20
196.563201
 42
-0.029133
  0
VERTEX
  8
0
 10
323.097465
 20
190.755898
 42
-0.029615
  0
VERTEX
  8
0
 10
318.224029
 20
185.555057
 42
-0.021145
  0
VERTEX
  8
0
 10
312.205679
 20
180.314895
 42
-0.049539
  0
VERTEX
  8
0
 10
300.093392
 20
172.463766
 42
-0.041568
  0
VERTEX
  8
0
 10
285.949955
 20
166.600047
 42
-0.037897
  0
VERTEX
  8
0
 10
269.754710
 20
162.736663
 42
-0.028366
  0
VERTEX
  8
0
 10
251.500000
 20
160.873744
 42
0.000000
  0
VERTEX
  8
0
 10
245.500000
 20
160.603665
 42
0.000000
  0
VERTEX
  8
0
 10
243.488632
 20
164.825303
 42
0.054237
  0
VERTEX
  8
0
 10
240.917416
 20
168.991046
 42
0.108512
  0
VERTEX
  8
0
 10
237.955701
 20
171.451736
 42
0.098825
  0
VERTEX
  8
0
 10
234.041648
 20
172.577545
 42
0.039806
  0
VERTEX
  8
0
 10
228.453592
 20
172.597052
 42
0.000000
  0
VERTEX
  8
0
 10
221.407185
 20
172.059927
 42
0.000000
  0
VERTEX
  8
0
 10
216.953592
 20
178.047823
 42
0.053419
  0
VERTEX
  8
0
 10
210.791319
 20
184.712696
 42
0.060576
  0
VERTEX
  8
0
 10
203.595005
 20
189.602450
 42
0.065205
  0
VERTEX
  8
0
 10
195.942684
 20
192.357602
 42
0.082085
  0
VERTEX
  8
0
 10
188.431955
 20
192.745220
 42
0.037831
  0
VERTEX
  8
0
 10
186.247398
 20
192.329916
 42
0.015995
  0
VERTEX
  8
0
 10
183.390084
 20
191.460178
 42
0.015718
  0
VERTEX
  8
0
 10
180.383755
 20
190.332363
 42
0.019806
  0
VERTEX
  8
0
 10
177.682188
 20
189.093563
 42
-0.018321
  0
VERTEX
  8
0
 10
174.949549
 20
187.830683
 42
-0.013598
  0
VERTEX
  8
0
 10
171.847268
 20
186.630716
 42
-0.013786
  0
VERTEX
  8
0
 10
168.853795
 20
185.657569
 42
-0.029965
  0
VERTEX
  8
0
 10
166.500000
 20
185.114305
 42
0.018615
  0
VERTEX
  8
0
 10
164.365901
 20
184.672487
 42
0.014588
  0
VERTEX
  8
0
 10
162.087500
 20
184.040590
 42
0.014828
  0
VERTEX
  8
0
 10
160.000222
 20
183.327114
 42
0.034671
  0
VERTEX
  8
0
 10
158.500000
 20
182.642096
 42
-0.013726
  0
VERTEX
  8
0
 10
157.271448
 20
182.017723
 42
-0.015584
  0
VERTEX
  8
0
 10
156.060809
 20
181.489258
 42
-0.014893
  0
VERTEX
  8
0
 10
155.011026
 20
181.105301
 42
-0.078964
  0
VERTEX
  8
0
 10
154.409137
 20
181.006161
 42
0.184257
  0
VERTEX
  8
0
 10
152.868746
 20
180.408569
 42
0.012165
  0
VERTEX
  8
0
 10
149.352891
 20
177.074753
 42
0.017877
  0
VERTEX
  8
0
 10
146.033493
 20
173.525103
 42
0.061313
  0
VERTEX
  8
0
 10
144.270636
 20
170.913010
 42
0.010565
  0
VERTEX
  8
0
 10
143.725426
 20
169.784539
 42
0.005695
  0
VERTEX
  8
0
 10
143.099165
 20
168.372889
 42
0.005669
  0
VERTEX
  8
0
 10
142.493467
 20
166.919342
 42
0.008875
  0
VERTEX
  8
0
 10
142.008991
 20
165.654272
 42
-0.042456
  0
VERTEX
  8
0
 10
141.253339
 20
164.018916
 42
-0.165190
  0
VERTEX
  8
0
 10
140.430840
 20
163.289246
 42
-0.108513
  0
VERTEX
  8
0
 10
139.129771
 20
163.049720
 42
-0.013463
  0
VERTEX
  8
0
 10
136.238355
 20
163.226444
 42
-0.012395
  0
VERTEX
  8
0
 10
133.828650
 20
163.499310
 42
-0.004149
  0
VERTEX
  8
0
 10
130.321579
 20
164.014448
 42
-0.004126
  0
VERTEX
  8
0
 10
126.447464
 20
164.649163
 42
-0.004702
  0
VERTEX
  8
0
 10
122.750000
 20
165.322172
 42
0.001169
  0
VERTEX
  8
0
 10
118.766669
 20
166.076328
 42
0.000688
  0
VERTEX
  8
0
 10
114.000000
 20
166.960465
 42
0.000688
  0
VERTEX
  8
0
 10
109.233193
 20
167.831073
 42
0.001174
  0
VERTEX
  8
0
 10
105.250000
 20
168.543242
 42
-0.019072
  0
VERTEX
  8
0
 10
93.919449
 20
170.990426
 42
-0.029657
  0
VERTEX
  8
0
 10
84.404060
 20
174.040033
 42
-0.030696
  0
VERTEX
  8
0
 10
75.555676
 20
178.106860
 42
-0.022500
  0
VERTEX
  8
0
 10
66.270730
 20
183.637047
 42
-0.093515
  0
VERTEX
  8
0
 10
57.991417
 20
191.643808
 42
-0.082916
  0
VERTEX
  8
0
 10
52.768979
 20
202.449821
 42
-0.073537
  0
VERTEX
  8
0
 10
50.952484
 20
215.536077
 42
-0.053183
  0
VERTEX
  8
0
 10
52.646704
 20
230.184624
 42
0.006389
  0
VERTEX
  8
0
 10
53.270718
 20
233.132059
 42
0.007522
  0
VERTEX
  8
0
 10
53.783780
 20
235.938608
 42
0.006696
  0
VERTEX
  8
0
 10
54.149022
 20
238.316972
 42
0.045797
  0
VERTEX
  8
0
 10
54.205208
 20
239.500000
 42
-0.007546
  0
VERTEX
  8
0
 10
53.568256
 20
261.473348
 42
-0.017649
  0
VERTEX
  8
0
 10
53.920163
 20
277.910160
 42
-0.022069
  0
VERTEX
  8
0
 10
55.326834
 20
291.813544
 42
-0.021839
  0
VERTEX
  8
0
 10
57.956453
 20
305.588104
 42
-0.029718
  0
VERTEX
  8
0
 10
62.772599
 20
321.626302
 42
-0.032434
  0
VERTEX
  8
0
 10
69.344373
 20
336.502279
 42
-0.031714
  0
VERTEX
  8
0
 10
77.929917
 20
350.688293
 42
-0.026140
  0
VERTEX
  8
0
 10
88.774892
 20
364.664242
 42
-0.058174
  0
VERTEX
  8
0
 10
101.575360
 20
376.408512
 42
-0.034569
  0
VERTEX
  8
0
 10
119.165540
 20
387.364894
 42
-0.033566
  0
VERTEX
  8
0
 10
138.959092
 20
396.224279
 42
-0.040956
  0
VERTEX
  8
0
 10
158.500000
 20
401.671840
 42
-0.021783
  0
VERTEX
  8
0
 10
171.729372
 20
403.623253
 42
-0.015937
  0
VERTEX
  8
0
 10
186.539887
 20
404.676863
 42
-0.015890
  0
VERTEX
  8
0
 10
201.453742
 20
404.786801
 42
-0.021042
  0
SEQEND
  0
POLYLINE
  8
0
 66
1
 70
1
  0
VERTEX
  8
0
 10
300.526992
 20
349.043674
 42
-0.126981
  0
VERTEX
  8
0
 10
300.190464
 20
348.720854
 42
-0.081026
  0
VERTEX
  8
0
 10
299.678351
 20
348.533742
 42
-0.072258
  0
VERTEX
  8
0
 10
299.073335
 20
348.506898
 42
-0.066719
  0
VERTEX
  8
0
 10
298.467975
 20
348.650663
 42
-0.027681
  0
VERTEX
  8
0
 10
297.230543
 20
349.205874
 42
-0.395517
  0
VERTEX
  8
0
 10
297.082867
 20
349.622791
 42
-0.275668
  0
VERTEX
  8
0
 10
297.523001
 20
349.936989
 42
-0.020503
  0
VERTEX
  8
0
 10
299.059017
 20
350.000000
 42
-0.045552
  0
VERTEX
  8
0
 10
299.806756
 20
349.931736
 42
-0.099152
  0
VERTEX
  8
0
 10
300.339579
 20
349.719079
 42
-0.177225
  0
VERTEX
  8
0
 10
300.574580
 20
349.405148
 42
-0.214542
  0
SEQEND
  0
POLYLINE
  8
0
 66
1
 70
1
  0
VERTEX
  8
0
 10
200.884088
 20
182.941915
 42
-0.051619
  0
VERTEX
  8
0
 10
205.218481
 20
180.265229
 42
-0.044638
  0
VERTEX
  8
0
 10
209.148542
 20
176.636279
 42
-0.046168
  0
VERTEX
  8
0
 10
212.228088
 20
172.532119
 42
-0.069728
  0
VERTEX
  8
0
 10
214.015594
 20
168.444304
 42
-0.067221
  0
VERTEX
  8
0
 10
214.951988
 20
161.738977
 42
-0.009583
  0
VERTEX
  8
0
 10
214.748002
 20
147.820798
 42
-0.011348
  0
VERTEX
  8
0
 10
213.949533
 20
133.707714
 42
-0.036268
  0
VERTEX
  8
0
 10
212.525092
 20
124.391030
 42
-0.038562
  0
VERTEX
  8
0
 10
210.807029
 20
118.862617
 42
-0.092002
  0
VERTEX
  8
0
 10
208.525132
 20
115.238107
 42
-0.087149
  0
VERTEX
  8
0
 10
205.012176
 20
112.558847
 42
-0.032121
  0
VERTEX
  8
0
 10
199.284504
 20
110.045636
 42
-0.022501
  0
VERTEX
  8
0
 10
195.475624
 20
108.849555
 42
-0.038127
  0
VERTEX
  8
0
 10
192.190410
 20
108.241351
 42
-0.028118
  0
VERTEX
  8
0
 10
188.223672
 20
108.040374
 42
-0.007166
  0
VERTEX
  8
0
 10
181.784504
 20
108.168722
 42
-0.007689
  0
VERTEX
  8
0
 10
175.496315
 20
108.481112
 42
-0.027801
  0
VERTEX
  8
0
 10
171.518322
 20
108.963208
 42
-0.038126
  0
VERTEX
  8
0
 10
168.306456
 20
109.791563
 42
-0.026438
  0
VERTEX
  8
0
 10
164.824854
 20
111.188151
 42
-0.083732
  0
VERTEX
  8
0
 10
154.148146
 20
118.514800
 42
-0.097448
  0
VERTEX
  8
0
 10
147.126205
 20
128.604239
 42
-0.091607
  0
VERTEX
  8
0
 10
144.181409
 20
141.123082
 42
-0.065449
  0
VERTEX
  8
0
 10
145.368560
 20
155.500000
 42
-0.084095
  0
VERTEX
  8
0
 10
150.018486
 20
167.111757
 42
-0.123042
  0
VERTEX
  8
0
 10
157.831239
 20
174.798273
 42
-0.119035
  0
VERTEX
  8
0
 10
168.550248
 20
178.060648
 42
-0.075548
  0
VERTEX
  8
0
 10
181.610055
 20
176.851569
 42
0.001110
  0
VERTEX
  8
0
 10
191.669157
 20
174.380270
 42
0.011846
  0
VERTEX
  8
0
 10
195.781816
 20
173.482186
 42
0.028769
  0
VERTEX
  8
0
 10
198.109806
 20
173.168870
 42
0.111121
  0
VERTEX
  8
0
 10
199.543557
 20
173.378341
 42
0.182962
  0
VERTEX
  8
0
 10
200.632187
 20
174.349303
 42
0.158024
  0
VERTEX
  8
0
 10
200.888259
 20
175.867544
 42
0.117651
  0
VERTEX
  8
0
 10
200.190289
 20
177.612042
 42
0.082332
  0
VERTEX
  8
0
 10
198.696413
 20
179.124826
 42
0.060374
  0
VERTEX
  8
0
 10
197.481582
 20
179.799246
 42
0.020527
  0
VERTEX
  8
0
 10
195.578215
 20
180.483570
 42
0.020068
  0
VERTEX
  8
0
 10
193.393685
 20
181.073978
 42
0.021792
  0
VERTEX
  8
0
 10
191.227838
 20
181.468664
 42
-0.028397
  0
VERTEX
  8
0
 10
188.107724
 20
182.079914
 42
-0.118903
  0
VERTEX
  8
0
 10
186.429665
 20
182.968365
 42
-0.266403
  0
VERTEX
  8
0
 10
186.047195
 20
184.098019
 42
-0.147486
  0
VERTEX
  8
0
 10
186.750000
 20
185.424841
 42
-0.222765
  0
VERTEX
  8
0
 10
188.354711
 20
186.015058
 42
-0.021996
  0
VERTEX
  8
0
 10
192.539383
 20
185.468344
 42
-0.027819
  0
VERTEX
  8
0
 10
197.076283
 20
184.408359
 42
-0.041256
  0
SEQEND
  0
POLYLINE
  8
0
 66
1
 70
1
  0
VERTEX
  8
0
 10
235.440093
 20
164.066196
 42
-0.079594
  0
VERTEX
  8
0
 10
237.534724
 20
160.846050
 42
-0.051813
  0
VERTEX
  8
0
 10
238.909239
 20
156.618084
 42
-0.037163
  0
VERTEX
  8
0
 10
239.693743
 20
150.906443
 42
-0.014602
  0
VERTEX
  8
0
 10
239.956107
 20
142.960099
 42
-0.028217
  0
VERTEX
  8
0
 10
239.201986
 20
128.640658
 42
-0.094763
  0
VERTEX
  8
0
 10
236.457330
 20
119.704529
 42
-0.153099
  0
VERTEX
  8
0
 10
231.491853
 20
114.792370
 42
-0.120684
  0
VERTEX
  8
0
 10
224.100777
 20
113.015313
 42
-0.034989
  0
VERTEX
  8
0
 10
220.803197
 20
113.260453
 42
-0.145599
  0
VERTEX
  8
0
 10
219.013214
 20
114.088581
 42
-0.188181
  0
VERTEX
  8
0
 10
218.224311
 20
115.617720
 42
-0.065833
  0
VERTEX
  8
0
 10
218.292775
 20
118.134936
 42
0.006311
  0
VERTEX
  8
0
 10
219.843374
 20
128.676604
 42
0.007810
  0
VERTEX
  8
0
 10
221.009680
 20
138.531230
 42
0.008588
  0
VERTEX
  8
0
 10
221.751370
 20
147.235083
 42
0.016727
  0
VERTEX
  8
0
 10
221.990951
 20
154.200310
 42
-0.013584
  0
VERTEX
  8
0
 10
222.191269
 20
161.327327
 42
-0.130320
  0
VERTEX
  8
0
 10
223.122466
 20
164.190469
 42
-0.207548
  0
VERTEX
  8
0
 10
225.172914
 20
165.557089
 42
-0.042820
  0
VERTEX
  8
0
 10
229.595012
 20
165.969591
 42
-0.030036
  0
VERTEX
  8
0
 10
231.531505
 20
165.867581
 42
-0.050575
  0
VERTEX
  8
0
 10
233.120238
 20
165.522725
 42
-0.059769
  0
VERTEX
  8
0
 10
234.408406
 20
164.925374
 42
-0.070524
  0
SEQEND
  0
POLYLINE
  8
0
 66
1
 70
1
  0
VERTEX
  8
0
 10
47.513598
 20
176.877796
 42
0.046411
  0
VERTEX
  8
0
 10
45.867609
 20
175.137332
 42
0.018246
  0
VERTEX
  8
0
 10
43.925672
 20
172.464181
 42
0.017542
  0
VERTEX
  8
0
 10
41.981063
 20
169.339593
 42
0.018327
  0
VERTEX
  8
0
 10
40.290280
 20
166.130910
 42
0.014325
  0
VERTEX
  8
0
 10
38.056411
 20
161.124203
 42
0.053291
  0
VERTEX
  8
0
 10
37.088531
 20
157.814946
 42
0.038620
  0
VERTEX
  8
0
 10
36.691753
 20
153.894284
 42
0.005050
  0
VERTEX
  8
0
 10
36.577979
 20
145.503115
 42
0.004745
  0
VERTEX
  8
0
 10
36.626301
 20
137.491424
 42
0.033046
  0
VERTEX
  8
0
 10
36.945425
 20
133.588787
 42
0.054496
  0
VERTEX
  8
0
 10
37.726760
 20
130.610250
 42
0.026270
  0
VERTEX
  8
0
 10
39.330142
 20
127.000000
 42
0.057488
  0
VERTEX
  8
0
 10
44.524153
 20
119.163688
 42
0.056524
  0
VERTEX
  8
0
 10
51.392559
 20
112.665748
 42
0.056362
  0
VERTEX
  8
0
 10
59.561471
 20
107.855766
 42
0.056526
  0
VERTEX
  8
0
 10
68.590346
 20
104.997203
 42
0.040315
  0
VERTEX
  8
0
 10
74.483927
 20
104.327782
 42
0.012424
  0
VERTEX
  8
0
 10
83.432064
 20
104.259179
 42
0.011010
  0
VERTEX
  8
0
 10
92.239775
 20
104.604603
 42
0.065450
  0
VERTEX
  8
0
 10
96.750000
 20
105.481034
 42
-0.161476
  0
VERTEX
  8
0
 10
98.021098
 20
105.484152
 42
-0.267212
  0
VERTEX
  8
0
 10
98.717099
 20
104.707735
 42
-0.049818
  0
VERTEX
  8
0
 10
98.963868
 20
102.454029
 42
-0.002377
  0
VERTEX
  8
0
 10
99.000000
 20
94.852514
 42
-0.008073
  0
VERTEX
  8
0
 10
98.904204
 20
88.920035
 42
-0.021461
  0
VERTEX
  8
0
 10
98.585868
 20
84.695315
 42
-0.028409
  0
VERTEX
  8
0
 10
97.981726
 20
81.276924
 42
-0.029683
  0
VERTEX
  8
0
 10
97.000000
 20
78.000000
 42
0.059997
  0
VERTEX
  8
0
 10
95.479819
 20
71.524300
 42
0.024905
  0
VERTEX
  8
0
 10
94.931696
 20
62.538808
 42
0.024964
  0
VERTEX
  8
0
 10
95.282492
 20
53.500416
 42
0.056913
  0
VERTEX
  8
0
 10
96.653126
 20
46.821654
 42
0.065148
  0
VERTEX
  8
0
 10
101.191886
 20
37.334470
 42
0.093145
  0
VERTEX
  8
0
 10
107.617787
 20
30.601851
 42
0.095761
  0
VERTEX
  8
0
 10
115.904434
 20
26.781252
 42
0.072568
  0
VERTEX
  8
0
 10
125.891566
 20
25.817641
 42
0.081074
  0
VERTEX
  8
0
 10
132.458520
 20
27.220691
 42
0.051682
  0
VERTEX
  8
0
 10
139.418203
 20
30.804738
 42
0.051361
  0
VERTEX
  8
0
 10
145.552254
 20
35.779912
 42
0.075894
  0
VERTEX
  8
0
 10
149.656442
 20
41.347765
 42
-0.112782
  0
VERTEX
  8
0
 10
151.148935
 20
43.090075
 42
-0.146823
  0
VERTEX
  8
0
 10
153.114699
 20
43.799395
 42
-0.064237
  0
VERTEX
  8
0
 10
156.342165
 20
43.561545
 42
-0.008632
  0
VERTEX
  8
0
 10
163.000000
 20
42.078846
 42
0.007217
  0
VERTEX
  8
0
 10
167.532640
 20
41.055956
 42
0.005191
  0
VERTEX
  8
0
 10
172.620716
 20
40.039704
 42
0.004081
  0
VERTEX
  8
0
 10
178.850943
 20
38.915032
 42
0.001866
  0
VERTEX
  8
0
 10
187.000000
 20
37.543845
 42
-0.001372
  0
VERTEX
  8
0
 10
191.003791
 20
36.874225
 42
-0.001207
  0
VERTEX
  8
0
 10
195.178125
 20
36.153932
 42
-0.001213
  0
VERTEX
  8
0
 10
198.940538
 20
35.485950
 42
-0.003661
  0
VERTEX
  8
0
 10
201.500000
 20
35.005760
 42
0.012777
  0
VERTEX
  8
0
 10
203.996711
 20
34.584304
 42
0.004846
  0
VERTEX
  8
0
 10
207.500764
 20
34.119124
 42
0.004796
  0
VERTEX
  8
0
 10
211.321788
 20
33.686671
 42
0.005843
  0
VERTEX
  8
0
 10
214.906857
 20
33.358011
 42
-0.022905
  0
VERTEX
  8
0
 10
220.515269
 20
32.650243
 42
-0.069542
  0
VERTEX
  8
0
 10
224.167680
 20
31.479486
 42
-0.118471
  0
VERTEX
  8
0
 10
226.239509
 20
29.787219
 42
-0.163959
  0
VERTEX
  8
0
 10
227.000000
 20
27.530416
 42
0.078825
  0
VERTEX
  8
0
 10
227.126801
 20
26.731094
 42
0.016142
  0
VERTEX
  8
0
 10
227.614565
 20
25.382026
 42
0.016623
  0
VERTEX
  8
0
 10
228.291243
 20
23.835529
 42
0.014941
  0
VERTEX
  8
0
 10
229.092136
 20
22.280416
 42
0.089661
  0
VERTEX
  8
0
 10
236.249939
 20
13.506519
 42
0.096468
  0
VERTEX
  8
0
 10
245.858372
 20
8.064813
 42
0.097771
  0
VERTEX
  8
0
 10
256.697401
 20
6.669303
 42
0.094810
  0
VERTEX
  8
0
 10
267.382350
 20
9.465246
 42
0.024904
  0
VERTEX
  8
0
 10
269.927546
 20
10.838509
 42
0.016392
  0
VERTEX
  8
0
 10
272.716324
 20
12.655145
 42
0.016507
  0
VERTEX
  8
0
 10
275.319863
 20
14.606402
 42
0.030368
  0
VERTEX
  8
0
 10
277.280237
 20
16.385233
 42
0.041523
  0
VERTEX
  8
0
 10
280.198675
 20
19.919889
 42
0.024648
  0
VERTEX
  8
0
 10
283.092904
 20
24.557773
 42
0.022817
  0
VERTEX
  8
0
 10
285.368100
 20
29.115576
 42
0.103085
  0
VERTEX
  8
0
 10
285.990231
 20
32.007092
 42
-0.129656
  0
VERTEX
  8
0
 10
286.225889
 20
32.877670
 42
-0.013749
  0
VERTEX
  8
0
 10
287.333300
 20
34.685017
 42
-0.016242
  0
VERTEX
  8
0
 10
288.805941
 20
36.793380
 42
-0.012365
  0
VERTEX
  8
0
 10
290.548662
 20
39.007092
 42
0.023412
  0
VERTEX
  8
0
 10
292.615489
 20
41.755276
 42
0.010229
  0
VERTEX
  8
0
 10
295.106742
 20
45.578119
 42
0.010097
  0
VERTEX
  8
0
 10
297.591576
 20
49.752714
 42
0.013285
  0
VERTEX
  8
0
 10
299.678046
 20
53.663100
 42
0.000000
  0
VERTEX
  8
0
 10
304.258768
 20
62.826200
 42
0.000000
  0
VERTEX
  8
0
 10
311.464748
 20
62.281213
 42
0.030434
  0
VERTEX
  8
0
 10
317.448532
 20
62.193625
 42
0.060154
  0
VERTEX
  8
0
 10
322.126628
 20
62.979217
 42
0.066434
  0
VERTEX
  8
0
 10
326.177121
 20
64.784240
 42
0.045738
  0
VERTEX
  8
0
 10
330.203125
 20
67.802476
 42
0.041107
  0
VERTEX
  8
0
 10
333.852403
 20
71.689070
 42
0.063427
  0
VERTEX
  8
0
 10
336.238992
 20
75.625150
 42
0.063472
  0
VERTEX
  8
0
 10
337.561679
 20
80.031705
 42
0.041231
  0
VERTEX
  8
0
 10
338.000000
 20
85.338038
 42
0.034877
  0
VERTEX
  8
0
 10
337.632172
 20
90.604836
 42
0.054796
  0
VERTEX
  8
0
 10
336.515636
 20
94.997062
 42
0.055940
  0
VERTEX
  8
0
 10
334.492717
 20
98.977675
 42
0.038211
  0
VERTEX
  8
0
 10
331.385898
 20
102.994618
 42
0.033201
  0
VERTEX
  8
0
 10
328.225961
 20
106.056910
 42
0.052237
  0
VERTEX
  8
0
 10
325.107545
 20
108.185532
 42
0.048379
  0
VERTEX
  8
0
 10
321.443328
 20
109.725628
 42
0.024133
  0
VERTEX
  8
0
 10
316.566958
 20
110.986100
 42
-0.020962
  0
VERTEX
  8
0
 10
314.462856
 20
111.515771
 42
-0.027700
  0
VERTEX
  8
0
 10
312.602232
 20
112.182140
 42
-0.027426
  0
VERTEX
  8
0
 10
311.165738
 20
112.883386
 42
-0.175627
  0
VERTEX
  8
0
 10
310.643985
 20
113.485378
 42
-0.046880
  0
VERTEX
  8
0
 10
310.401163
 20
114.353573
 42
-0.005644
  0
VERTEX
  8
0
 10
310.068954
 20
116.315476
 42
-0.006675
  0
VERTEX
  8
0
 10
309.730785
 20
118.662453
 42
-0.005446
  0
VERTEX
  8
0
 10
309.429835
 20
121.182477
 42
0.022640
  0
VERTEX
  8
0
 10
308.451509
 20
127.516696
 42
0.009872
  0
VERTEX
  8
0
 10
306.608713
 20
135.825542
 42
0.009909
  0
VERTEX
  8
0
 10
304.418860
 20
144.130384
 42
0.020513
  0
VERTEX
  8
0
 10
302.317546
 20
150.500000
 42
0.018884
  0
VERTEX
  8
0
 10
301.348208
 20
152.809180
 42
0.051797
  0
VERTEX
  8
0
 10
300.442194
 20
154.325102
 42
0.080574
  0
VERTEX
  8
0
 10
299.536085
 20
155.199855
 42
0.152924
  0
VERTEX
  8
0
 10
298.577681
 20
155.500000
 42
0.134244
  0
VERTEX
  8
0
 10
296.815393
 20
155.018163
 42
0.142900
  0
VERTEX
  8
0
 10
295.593354
 20
153.714610
 42
0.129080
  0
VERTEX
  8
0
 10
295.189514
 20
151.843031
 42
0.100426
  0
VERTEX
  8
0
 10
295.695259
 20
149.815101
 42
-0.019043
  0
VERTEX
  8
0
 10
296.693769
 20
147.495580
 42
-0.011293
  0
VERTEX
  8
0
 10
297.714584
 20
144.662502
 42
-0.009842
  0
VERTEX
  8
0
 10
298.756771
 20
141.335525
 42
-0.006629
  0
VERTEX
  8
0
 10
299.820885
 20
137.500000
 42
-0.021540
  0
VERTEX
  8
0
 10
302.405317
 20
125.625207
 42
-0.018621
  0
VERTEX
  8
0
 10
304.109679
 20
112.981048
 42
-0.019099
  0
VERTEX
  8
0
 10
304.791214
 20
101.355129
 42
-0.048284
  0
VERTEX
  8
0
 10
304.147636
 20
92.918087
 42
0.006894
  0
VERTEX
  8
0
 10
303.708306
 20
90.175517
 42
0.006572
  0
VERTEX
  8
0
 10
303.337118
 20
87.377885
 42
0.006535
  0
VERTEX
  8
0
 10
303.074048
 20
84.898220
 42
0.023161
  0
VERTEX
  8
0
 10
303.000000
 20
83.300512
 42
-0.050775
  0
VERTEX
  8
0
 10
302.824279
 20
81.574603
 42
-0.009008
  0
VERTEX
  8
0
 10
302.111339
 20
78.400488
 42
-0.009665
  0
VERTEX
  8
0
 10
301.132945
 20
74.697114
 42
-0.008573
  0
VERTEX
  8
0
 10
299.974772
 20
70.882425
 42
-0.012867
  0
VERTEX
  8
0
 10
297.003467
 20
62.419266
 42
-0.027571
  0
VERTEX
  8
0
 10
294.191655
 20
56.097444
 42
-0.028764
  0
VERTEX
  8
0
 10
290.780467
 20
50.290728
 42
-0.015302
  0
VERTEX
  8
0
 10
285.940100
 20
43.500000
 42
0.016806
  0
VERTEX
  8
0
 10
284.097925
 20
40.899025
 42
0.014415
  0
VERTEX
  8
0
 10
282.333470
 20
38.045603
 42
0.014651
  0
VERTEX
  8
0
 10
280.881194
 20
35.359751
 42
0.039790
  0
VERTEX
  8
0
 10
280.065476
 20
33.357372
 42
-0.010438
  0
VERTEX
  8
0
 10
278.758976
 20
29.520352
 42
-0.070535
  0
VERTEX
  8
0
 10
277.816843
 20
27.753599
 42
-0.233251
  0
VERTEX
  8
0
 10
276.914470
 20
27.281800
 42
-0.205013
  0
VERTEX
  8
0
 10
275.919786
 20
27.680214
 42
0.074823
  0
VERTEX
  8
0
 10
275.371202
 20
28.085285
 42
0.061312
  0
VERTEX
  8
0
 10
274.689496
 20
28.345150
 42
0.062829
  0
VERTEX
  8
0
 10
273.983875
 20
28.427535
 42
0.089524
  0
VERTEX
  8
0
 10
273.365410
 20
28.309979
 42
-0.081657
  0
VERTEX
  8
0
 10
272.741739
 20
28.181310
 42
-0.056021
  0
VERTEX
  8
0
 10
272.019654
 20
28.232972
 42
-0.055161
  0
VERTEX
  8
0
 10
271.313735
 20
28.446367
 42
-0.071669
  0
VERTEX
  8
0
 10
270.737265
 20
28.797321
 42
0.091426
  0
VERTEX
  8
0
 10
269.972291
 20
29.222821
 42
0.018992
  0
VERTEX
  8
0
 10
268.491154
 20
29.660439
 42
0.019355
  0
VERTEX
  8
0
 10
266.707578
 20
30.041718
 42
0.017202
  0
VERTEX
  8
0
 10
264.828365
 20
30.301748
 42
-0.012781
  0
VERTEX
  8
0
 10
262.945130
 20
30.545388
 42
-0.014372
  0
VERTEX
  8
0
 10
261.149595
 20
30.877615
 42
-0.013717
  0
VERTEX
  8
0
 10
259.644526
 20
31.244551
 42
-0.071875
  0
VERTEX
  8
0
 10
258.865062
 20
31.583396
 42
0.063780
  0
VERTEX
  8
0
 10
258.138375
 20
31.913323
 42
0.017188
  0
VERTEX
  8
0
 10
256.913917
 20
32.244867
 42
0.017116
  0
VERTEX
  8
0
 10
255.485434
 20
32.528232
 42
0.016965
  0
VERTEX
  8
0
 10
254.036697
 20
32.714202
 42
-0.012276
  0
VERTEX
  8
0
 10
252.572647
 20
32.888202
 42
-0.011775
  0
VERTEX
  8
0
 10
251.098280
 20
33.135815
 42
-0.011787
  0
VERTEX
  8
0
 10
249.808930
 20
33.415369
 42
-0.040984
  0
VERTEX
  8
0
 10
249.000000
 20
33.682550
 42
0.055301
  0
VERTEX
  8
0
 10
248.100801
 20
33.951315
 42
0.009304
  0
VERTEX
  8
0
 10
246.325000
 20
34.240341
 42
0.010082
  0
VERTEX
  8
0
 10
244.215687
 20
34.500185
 42
0.008803
  0
VERTEX
  8
0
 10
242.000000
 20
34.688535
 42
-0.016046
  0
VERTEX
  8
0
 10
239.868547
 20
34.900862
 42
-0.023642
  0
VERTEX
  8
0
 10
238.017708
 20
35.235083
 42
-0.020649
  0
VERTEX
  8
0
 10
236.574937
 20
35.630068
 42
-0.237176
  0
VERTEX
  8
0
 10
236.166667
 20
36.029342
 42
0.172076
  0
VERTEX
  8
0
 10
235.870140
 20
36.402392
 42
0.054820
  0
VERTEX
  8
0
 10
235.221354
 20
36.714869
 42
0.047290
  0
VERTEX
  8
0
 10
234.366142
 20
36.928515
 42
0.037591
  0
VERTEX
  8
0
 10
233.416667
 20
37.000000
 42
-0.053297
  0
VERTEX
  8
0
 10
232.131604
 20
37.137370
 42
-0.181848
  0
VERTEX
  8
0
 10
231.436473
 20
37.585630
 42
-0.135635
  0
VERTEX
  8
0
 10
231.091885
 20
38.477615
 42
-0.025192
  0
VERTEX
  8
0
 10
231.005577
 20
40.250000
 42
-0.042149
  0
VERTEX
  8
0
 10
231.313895
 20
43.827736
 42
-0.030167
  0
VERTEX
  8
0
 10
232.232044
 20
47.739732
 42
-0.030559
  0
VERTEX
  8
0
 10
233.584010
 20
51.421225
 42
-0.051265
  0
VERTEX
  8
0
 10
235.206855
 20
54.285494
 42
0.035088
  0
VERTEX
  8
0
 10
235.923048
 20
55.459480
 42
0.038924
  0
VERTEX
  8
0
 10
236.440064
 20
56.682948
 42
0.042398
  0
VERTEX
  8
0
 10
236.705703
 20
57.781447
 42
0.130464
  0
VERTEX
  8
0
 10
236.624753
 20
58.535494
 42
0.179078
  0
VERTEX
  8
0
 10
235.646657
 20
59.648870
 42
0.160048
  0
VERTEX
  8
0
 10
234.126551
 20
59.922635
 42
0.123473
  0
VERTEX
  8
0
 10
232.423042
 20
59.232492
 42
0.091239
  0
VERTEX
  8
0
 10
231.019083
 20
57.750000
 42
0.015580
  0
VERTEX
  8
0
 10
229.132899
 20
54.639213
 42
0.032678
  0
VERTEX
  8
0
 10
227.906824
 20
52.091798
 42
0.030010
  0
VERTEX
  8
0
 10
226.962412
 20
49.272592
 42
0.011232
  0
VERTEX
  8
0
 10
225.967489
 20
45.220626
 42
-0.043806
  0
VERTEX
  8
0
 10
224.569153
 20
40.792410
 42
-0.246743
  0
VERTEX
  8
0
 10
222.723577
 20
39.258145
 42
-0.085723
  0
VERTEX
  8
0
 10
219.251937
 20
39.123730
 42
-0.003065
  0
VERTEX
  8
0
 10
206.000000
 20
40.970404
 42
-0.004413
  0
VERTEX
  8
0
 10
192.280513
 20
43.091844
 42
-0.005302
  0
VERTEX
  8
0
 10
179.417788
 20
45.337488
 42
-0.005673
  0
VERTEX
  8
0
 10
167.467744
 20
47.695158
 42
-0.007215
  0
VERTEX
  8
0
 10
156.500000
 20
50.154285
 42
0.016240
  0
VERTEX
  8
0
 10
151.666097
 20
51.146853
 42
0.125910
  0
VERTEX
  8
0
 10
149.386918
 20
50.963079
 42
0.143739
  0
VERTEX
  8
0
 10
147.618518
 20
49.709970
 42
0.023311
  0
VERTEX
  8
0
 10
145.137027
 20
46.250000
 42
-0.013662
  0
VERTEX
  8
0
 10
143.112092
 20
43.308411
 42
-0.070391
  0
VERTEX
  8
0
 10
141.737590
 20
41.893066
 42
-0.108889
  0
VERTEX
  8
0
 10
140.320619
 20
41.221541
 42
-0.056470
  0
VERTEX
  8
0
 10
138.365296
 20
41.000000
 42
-0.028127
  0
VERTEX
  8
0
 10
137.075870
 20
41.072593
 42
-0.044119
  0
VERTEX
  8
0
 10
135.988556
 20
41.293750
 42
-0.054919
  0
VERTEX
  8
0
 10
135.226404
 20
41.614697
 42
-0.272054
  0
VERTEX
  8
0
 10
135.000000
 20
42.000000
 42
0.133491
  0
VERTEX
  8
0
 10
134.896341
 20
42.381344
 42
0.100499
  0
VERTEX
  8
0
 10
134.604903
 20
42.706250
 42
0.087472
  0
VERTEX
  8
0
 10
134.168952
 20
42.924865
 42
0.072708
  0
VERTEX
  8
0
 10
133.654988
 20
43.000000
 42
-0.105367
  0
VERTEX
  8
0
 10
133.013640
 20
43.136671
 42
-0.036283
  0
VERTEX
  8
0
 10
132.173392
 20
43.587500
 42
-0.034148
  0
VERTEX
  8
0
 10
131.291860
 20
44.234645
 42
-0.033439
  0
VERTEX
  8
0
 10
130.500000
 20
45.000000
 42
0.054318
  0
VERTEX
  8
0
 10
129.638950
 20
45.765473
 42
0.041009
  0
VERTEX
  8
0
 10
128.550194
 20
46.412500
 42
0.041955
  0
VERTEX
  8
0
 10
127.411360
 20
46.854699
 42
0.071751
  0
VERTEX
  8
0
 10
126.404029
 20
47.000000
 42
-0.040093
  0
VERTEX
  8
0
 10
125.483682
 20
47.073917
 42
-0.042863
  0
VERTEX
  8
0
 10
124.607998
 20
47.293750
 42
-0.047009
  0
VERTEX
  8
0
 10
123.897503
 20
47.615805
 42
-0.125069
  0
VERTEX
  8
0
 10
123.500000
 20
48.000000
 42
0.110120
  0
VERTEX
  8
0
 10
123.125941
 20
48.383504
 42
0.050520
  0
VERTEX
  8
0
 10
122.502285
 20
48.706250
 42
0.046631
  0
VERTEX
  8
0
 10
121.748074
 20
48.925910
 42
0.047589
  0
VERTEX
  8
0
 10
120.971399
 20
49.000000
 42
-0.067431
  0
VERTEX
  8
0
 10
119.999758
 20
49.131636
 42
-0.020286
  0
VERTEX
  8
0
 10
118.576067
 20
49.587500
 42
-0.019929
  0
VERTEX
  8
0
 10
117.003493
 20
50.234469
 42
-0.020403
  0
VERTEX
  8
0
 10
115.500000
 20
51.000000
 42
0.015946
  0
VERTEX
  8
0
 10
114.028945
 20
51.765596
 42
0.017391
  0
VERTEX
  8
0
 10
112.553472
 20
52.412500
 42
0.017095
  0
VERTEX
  8
0
 10
111.258723
 20
52.876676
 42
0.077667
  0
VERTEX
  8
0
 10
110.469584
 20
53.000000
 42
-0.065440
  0
VERTEX
  8
0
 10
109.907775
 20
53.073845
 42
-0.082837
  0
VERTEX
  8
0
 10
109.431690
 20
53.290279
 42
-0.099072
  0
VERTEX
  8
0
 10
109.113239
 20
53.611339
 42
-0.147000
  0
VERTEX
  8
0
 10
109.000000
 20
53.988182
 42
0.264949
  0
VERTEX
  8
0
 10
108.759462
 20
54.410249
 42
0.037096
  0
VERTEX
  8
0
 10
107.825000
 20
54.873976
 42
0.034344
  0
VERTEX
  8
0
 10
106.532563
 20
55.299157
 42
0.022653
  0
VERTEX
  8
0
 10
105.000000
 20
55.615991
 42
0.000000
  0
VERTEX
  8
0
 10
101.000000
 20
56.255616
 42
0.000000
  0
VERTEX
  8
0
 10
101.000000
 20
62.472582
 42
-0.024480
  0
VERTEX
  8
0
 10
101.139785
 20
65.325966
 42
-0.015911
  0
VERTEX
  8
0
 10
101.566900
 20
68.600086
 42
-0.015909
  0
VERTEX
  8
0
 10
102.201550
 20
71.841417
 42
-0.024417
  0
VERTEX
  8
0
 10
102.975412
 20
74.594774
 42
0.027313
  0
VERTEX
  8
0
 10
103.923972
 20
78.046250
 42
0.024382
  0
VERTEX
  8
0
 10
104.534046
 20
81.713693
 42
0.019316
  0
VERTEX
  8
0
 10
104.877349
 20
86.136988
 42
0.008530
  0
VERTEX
  8
0
 10
105.005012
 20
92.000000
 42
-0.009103
  0
VERTEX
  8
0
 10
105.128117
 20
97.370595
 42
-0.004688
  0
VERTEX
  8
0
 10
105.467612
 20
104.087500
 42
-0.004658
  0
VERTEX
  8
0
 10
105.946229
 20
110.993613
 42
-0.007022
  0
VERTEX
  8
0
 10
106.503727
 20
117.000000
 42
-0.002585
  0
VERTEX
  8
0
 10
107.482162
 20
125.717730
 42
-0.005756
  0
VERTEX
  8
0
 10
108.337582
 20
132.340577
 42
-0.005366
  0
VERTEX
  8
0
 10
109.381922
 20
139.218194
 42
-0.001973
  0
VERTEX
  8
0
 10
110.998832
 20
148.906304
 42
0.010413
  0
VERTEX
  8
0
 10
111.380519
 20
151.457787
 42
0.013257
  0
VERTEX
  8
0
 10
111.620843
 20
153.825467
 42
0.011240
  0
VERTEX
  8
0
 10
111.723938
 20
155.800013
 42
0.099348
  0
VERTEX
  8
0
 10
111.578394
 20
156.656304
 42
0.196054
  0
VERTEX
  8
0
 10
110.693884
 20
157.598925
 42
0.103420
  0
VERTEX
  8
0
 10
109.103492
 20
157.961064
 42
0.097795
  0
VERTEX
  8
0
 10
107.425206
 20
157.660534
 42
0.157334
  0
VERTEX
  8
0
 10
106.309017
 20
156.750000
 42
0.102055
  0
VERTEX
  8
0
 10
105.370636
 20
154.337862
 42
0.002503
  0
VERTEX
  8
0
 10
103.434457
 20
142.535244
 42
0.006111
  0
VERTEX
  8
0
 10
101.677711
 20
130.535951
 42
0.010654
  0
VERTEX
  8
0
 10
100.555482
 20
120.543881
 42
-0.028912
  0
VERTEX
  8
0
 10
99.939070
 20
116.419134
 42
-0.125934
  0
VERTEX
  8
0
 10
98.858619
 20
114.220179
 42
-0.129468
  0
VERTEX
  8
0
 10
96.871582
 20
112.843076
 42
-0.031278
  0
VERTEX
  8
0
 10
93.000000
 20
111.704580
 42
-0.064639
  0
VERTEX
  8
0
 10
78.240367
 20
110.307579
 42
-0.078558
  0
VERTEX
  8
0
 10
64.618420
 20
112.948868
 42
-0.086391
  0
VERTEX
  8
0
 10
53.483952
 20
119.333946
 42
-0.101660
  0
VERTEX
  8
0
 10
45.898145
 20
128.808288
 42
-0.078098
  0
VERTEX
  8
0
 10
43.852637
 20
135.050889
 42
-0.031947
  0
VERTEX
  8
0
 10
42.987006
 20
143.956818
 42
-0.032041
  0
VERTEX
  8
0
 10
43.271751
 20
153.127849
 42
-0.060797
  0
VERTEX
  8
0
 10
44.856788
 20
160.332861
 42
-0.034888
  0
VERTEX
  8
0
 10
46.699588
 20
164.599210
 42
-0.036000
  0
VERTEX
  8
0
 10
49.101150
 20
168.521108
 42
-0.038269
  0
VERTEX
  8
0
 10
51.853915
 20
171.803148
 42
-0.058058
  0
VERTEX
  8
0
 10
54.746166
 20
174.143875
 42
0.024923
  0
VERTEX
  8
0
 10
56.033333
 20
175.051651
 42
0.181572
  0
VERTEX
  8
0
 10
56.419896
 20
175.685721
 42
0.177917
  0
VERTEX
  8
0
 10
56.297678
 20
176.424758
 42
0.023748
  0
VERTEX
  8
0
 10
55.439462
 20
177.782967
 42
0.079722
  0
VERTEX
  8
0
 10
53.865019
 20
179.406269
 42
0.191097
  0
VERTEX
  8
0
 10
52.274200
 20
179.836160
 42
0.125265
  0
VERTEX
  8
0
 10
50.343228
 20
179.102839
 42
0.027096
  0
SEQEND
  0
POLYLINE
  8
0
 66
1
 70
1
  0
VERTEX
  8
0
 10
324.968518
 20
101.223561
 42
-0.081836
  0
VERTEX
  8
0
 10
327.610911
 20
98.546086
 42
-0.046293
  0
VERTEX
  8
0
 10
329.893576
 20
94.586706
 42
-0.045294
  0
VERTEX
  8
0
 10
331.471759
 20
90.124265
 42
-0.062432
  0
VERTEX
  8
0
 10
332.000000
 20
85.910234
 42
-0.061639
  0
VERTEX
  8
0
 10
331.301598
 20
80.266480
 42
-0.075957
  0
VERTEX
  8
0
 10
329.248929
 20
75.382442
 42
-0.081094
  0
VERTEX
  8
0
 10
325.968188
 20
71.575736
 42
-0.084063
  0
VERTEX
  8
0
 10
321.684900
 20
69.066612
 42
-0.060422
  0
VERTEX
  8
0
 10
318.535729
 20
68.291017
 42
-0.029633
  0
VERTEX
  8
0
 10
314.406908
 20
68.036632
 42
-0.028819
  0
VERTEX
  8
0
 10
310.431085
 20
68.256864
 42
-0.094893
  0
VERTEX
  8
0
 10
307.934259
 20
69.035184
 42
-0.129955
  0
VERTEX
  8
0
 10
306.642342
 20
70.238388
 42
-0.128021
  0
VERTEX
  8
0
 10
306.104614
 20
71.929761
 42
-0.064297
  0
VERTEX
  8
0
 10
306.305136
 20
74.589258
 42
-0.012784
  0
VERTEX
  8
0
 10
307.391074
 20
79.243113
 42
0.021196
  0
VERTEX
  8
0
 10
307.976128
 20
81.955805
 42
0.007556
  0
VERTEX
  8
0
 10
308.587712
 20
85.871900
 42
0.007482
  0
VERTEX
  8
0
 10
309.130168
 20
90.194364
 42
0.008762
  0
VERTEX
  8
0
 10
309.511312
 20
94.309501
 42
-0.007608
  0
VERTEX
  8
0
 10
309.940543
 20
99.063284
 42
-0.027038
  0
VERTEX
  8
0
 10
310.425707
 20
102.082561
 42
-0.041820
  0
VERTEX
  8
0
 10
311.015293
 20
104.009113
 42
-0.171662
  0
VERTEX
  8
0
 10
311.808967
 20
104.912969
 42
-0.167144
  0
VERTEX
  8
0
 10
313.880486
 20
105.287738
 42
-0.030283
  0
VERTEX
  8
0
 10
317.757465
 20
104.450056
 42
-0.033183
  0
VERTEX
  8
0
 10
321.823765
 20
103.013100
 42
-0.055722
  0
SEQEND
  0
POLYLINE
  8
0
 66
1
 70
1
  0
VERTEX
  8
0
 10
250.366714
 20
352.081938
 42
0.048145
  0
VERTEX
  8
0
 10
247.408462
 20
349.861918
 42
0.078572
  0
VERTEX
  8
0
 10
245.454891
 20
347.416082
 42
0.079373
  0
VERTEX
  8
0
 10
244.363504
 20
344.505382
 42
0.050122
  0
VERTEX
  8
0
 10
244.000000
 20
340.888278
 42
0.026242
  0
VERTEX
  8
0
 10
244.119540
 20
338.612186
 42
0.045859
  0
VERTEX
  8
0
 10
244.488095
 20
336.761718
 42
0.053356
  0
VERTEX
  8
0
 10
245.132870
 20
335.214563
 42
0.055473
  0
VERTEX
  8
0
 10
246.083703
 20
333.860784
 42
0.003820
  0
VERTEX
  8
0
 10
247.329605
 20
332.470757
 42
0.145388
  0
VERTEX
  8
0
 10
247.685027
 20
332.255950
 42
0.582266
  0
VERTEX
  8
0
 10
247.821694
 20
332.396578
 42
0.013193
  0
VERTEX
  8
0
 10
247.468451
 20
333.500000
 42
-0.044006
  0
VERTEX
  8
0
 10
246.067604
 20
339.026417
 42
-0.085857
  0
VERTEX
  8
0
 10
246.117452
 20
343.558827
 42
-0.105690
  0
VERTEX
  8
0
 10
247.619863
 20
347.183998
 42
-0.096429
  0
VERTEX
  8
0
 10
250.513396
 20
350.018212
 42
-0.044141
  0
VERTEX
  8
0
 10
251.911754
 20
350.772278
 42
-0.028038
  0
VERTEX
  8
0
 10
253.650810
 20
351.407609
 42
-0.028091
  0
VERTEX
  8
0
 10
255.442455
 20
351.842329
 42
-0.045726
  0
VERTEX
  8
0
 10
257.000000
 20
351.983642
 42
-0.074913
  0
VERTEX
  8
0
 10
260.369264
 20
351.472856
 42
-0.023042
  0
VERTEX
  8
0
 10
265.218515
 20
349.724253
 42
-0.023020
  0
VERTEX
  8
0
 10
269.884383
 20
347.537973
 42
-0.075437
  0
VERTEX
  8
0
 10
272.618800
 20
345.524057
 42
0.111748
  0
VERTEX
  8
0
 10
274.233688
 20
344.505234
 42
0.067304
  0
VERTEX
  8
0
 10
276.460417
 20
344.040279
 42
0.082665
  0
VERTEX
  8
0
 10
278.345259
 20
344.217050
 42
0.340384
  0
VERTEX
  8
0
 10
279.000000
 20
345.067388
 42
0.198696
  0
VERTEX
  8
0
 10
278.851749
 20
345.425718
 42
0.132522
  0
VERTEX
  8
0
 10
278.461786
 20
345.650408
 42
0.089858
  0
VERTEX
  8
0
 10
277.869408
 20
345.697886
 42
0.052066
  0
VERTEX
  8
0
 10
277.167781
 20
345.553252
 42
-0.097850
  0
VERTEX
  8
0
 10
276.275658
 20
345.452687
 42
-0.075482
  0
VERTEX
  8
0
 10
275.321021
 20
345.679742
 42
-0.065564
  0
VERTEX
  8
0
 10
274.359270
 20
346.224194
 42
-0.047327
  0
VERTEX
  8
0
 10
273.448579
 20
347.056819
 42
0.079538
  0
VERTEX
  8
0
 10
270.604508
 20
349.340245
 42
0.028423
  0
VERTEX
  8
0
 10
265.929794
 20
351.661660
 42
0.028605
  0
VERTEX
  8
0
 10
260.985877
 20
353.448923
 42
0.072803
  0
VERTEX
  8
0
 10
257.220365
 20
353.996262
 42
0.041733
  0
VERTEX
  8
0
 10
255.567669
 20
353.856406
 42
0.026139
  0
VERTEX
  8
0
 10
253.672454
 20
353.432387
 42
0.026168
  0
VERTEX
  8
0
 10
251.836699
 20
352.814452
 42
0.042663
  0
SEQEND
  0
POLYLINE
  8
0
 66
1
 70
1
  0
VERTEX
  8
0
 10
287.500000
 20
349.000000
 42
0.082592
  0
VERTEX
  8
0
 10
287.343488
 20
348.617900
 42
0.161196
  0
VERTEX
  8
0
 10
287.374600
 20
348.293750
 42
0.182303
  0
VERTEX
  8
0
 10
287.586039
 20
348.078288
 42
0.108972
  0
VERTEX
  8
0
 10
287.940983
 20
348.000000
 42
0.093332
  0
VERTEX
  8
0
 10
288.345238
 20
348.076123
 42
0.096420
  0
VERTEX
  8
0
 10
288.688914
 20
348.293750
 42
0.099167
  0
VERTEX
  8
0
 10
288.918938
 20
348.618444
 42
0.105053
  0
VERTEX
  8
0
 10
289.000000
 20
349.000000
 42
0.042167
  0
VERTEX
  8
0
 10
288.967655
 20
349.382849
 42
0.061769
  0
VERTEX
  8
0
 10
288.870461
 20
349.706250
 42
0.081139
  0
VERTEX
  8
0
 10
288.727648
 20
349.925540
 42
0.210953
  0
VERTEX
  8
0
 10
288.559017
 20
350.000000
 42
0.151918
  0
VERTEX
  8
0
 10
288.348290
 20
349.934461
 42
0.038439
  0
VERTEX
  8
0
 10
288.066025
 20
349.706250
 42
0.035638
  0
VERTEX
  8
0
 10
287.768994
 20
349.382774
 42
0.029505
  0
SEQEND
  0
POLYLINE
  8
0
 66
1
 70
1
  0
VERTEX
  8
0
 10
280.500000
 20
347.000000
 42
0.248314
  0
VERTEX
  8
0
 10
280.474324
 20
346.616153
 42
0.167127
  0
VERTEX
  8
0
 10
280.780573
 20
346.288197
 42
0.085479
  0
VERTEX
  8
0
 10
281.446685
 20
346.069023
 42
0.036850
  0
VERTEX
  8
0
 10
282.381966
 20
346.000000
 42
0.036773
  0
VERTEX
  8
0
 10
283.384237
 20
346.073814
 42
0.040854
  0
VERTEX
  8
0
 10
284.329138
 20
346.293750
 42
0.044834
  0
VERTEX
  8
0
 10
285.089929
 20
346.615371
 42
0.132684
  0
VERTEX
  8
0
 10
285.500000
 20
347.000000
 42
0.248314
  0
VERTEX
  8
0
 10
285.525676
 20
347.383847
 42
0.167127
  0
VERTEX
  8
0
 10
285.219427
 20
347.711803
 42
0.085479
  0
VERTEX
  8
0
 10
284.553315
 20
347.930977
 42
0.036850
  0
VERTEX
  8
0
 10
283.618034
 20
348.000000
 42
0.036773
  0
VERTEX
  8
0
 10
282.615763
 20
347.926186
 42
0.040854
  0
VERTEX
  8
0
 10
281.670862
 20
347.706250
 42
0.044834
  0
VERTEX
  8
0
 10
280.910071
 20
347.384629
 42
0.132684
  0
SEQEND
  0
POLYLINE
  8
0
 66
1
 70
1
  0
VERTEX
  8
0
 10
267.450000
 20
341.092132
 42
-0.048370
  0
VERTEX
  8
0
 10
266.819026
 20
340.596274
 42
-0.005771
  0
VERTEX
  8
0
 10
265.310313
 20
339.654895
 42
-0.006840
  0
VERTEX
  8
0
 10
263.484093
 20
338.578419
 42
-0.005568
  0
VERTEX
  8
0
 10
261.500000
 20
337.474289
 42
0.012408
  0
VERTEX
  8
0
 10
257.709968
 20
335.296748
 42
0.039935
  0
VERTEX
  8
0
 10
255.354944
 20
333.593573
 42
0.075120
  0
VERTEX
  8
0
 10
254.213713
 20
332.278859
 42
0.351016
  0
VERTEX
  8
0
 10
254.316509
 20
331.350158
 42
0.297260
  0
VERTEX
  8
0
 10
254.811801
 20
331.245876
 42
0.025351
  0
VERTEX
  8
0
 10
256.055477
 20
331.802849
 42
0.027053
  0
VERTEX
  8
0
 10
257.580380
 20
332.687824
 42
0.017233
  0
VERTEX
  8
0
 10
259.256985
 20
333.870649
 42
-0.012378
  0
VERTEX
  8
0
 10
261.114458
 20
335.208268
 42
-0.009751
  0
VERTEX
  8
0
 10
263.188215
 20
336.566489
 42
-0.009882
  0
VERTEX
  8
0
 10
265.165363
 20
337.753230
 42
-0.023922
  0
VERTEX
  8
0
 10
266.681619
 20
338.529149
 42
0.017345
  0
VERTEX
  8
0
 10
267.945648
 20
339.155165
 42
0.019531
  0
VERTEX
  8
0
 10
269.112935
 20
339.844737
 42
0.019180
  0
VERTEX
  8
0
 10
270.053036
 20
340.503191
 42
0.092227
  0
VERTEX
  8
0
 10
270.490636
 20
340.984849
 42
0.321772
  0
VERTEX
  8
0
 10
270.445752
 20
341.633872
 42
0.214152
  0
VERTEX
  8
0
 10
269.749425
 20
341.976441
 42
0.101357
  0
VERTEX
  8
0
 10
268.515574
 20
341.768762
 42
0.098806
  0
SEQEND
  0
POLYLINE
  8
0
 66
1
 70
1
  0
VERTEX
  8
0
 10
283.629337
 20
335.750000
 42
-0.001709
  0
VERTEX
  8
0
 10
285.725001
 20
333.561156
 42
-0.001636
  0
VERTEX
  8
0
 10
287.836659
 20
331.325860
 42
-0.001619
  0
VERTEX
  8
0
 10
289.687512
 20
329.340911
 42
-0.005877
  0
VERTEX
  8
0
 10
290.845177
 20
328.061439
 42
0.017800
  0
VERTEX
  8
0
 10
291.809618
 20
327.045299
 42
0.087031
  0
VERTEX
  8
0
 10
292.460125
 20
326.598087
 42
0.311323
  0
VERTEX
  8
0
 10
292.826958
 20
326.662936
 42
0.200680
  0
VERTEX
  8
0
 10
293.000000
 20
327.076711
 42
0.183310
  0
VERTEX
  8
0
 10
292.240459
 20
329.078834
 42
0.007900
  0
VERTEX
  8
0
 10
287.074447
 20
334.725328
 42
0.007551
  0
VERTEX
  8
0
 10
281.717832
 20
340.228638
 42
0.198498
  0
VERTEX
  8
0
 10
279.851394
 20
341.000000
 42
0.569651
  0
VERTEX
  8
0
 10
279.661864
 20
340.680337
 42
0.030845
  0
VERTEX
  8
0
 10
280.431897
 20
339.457812
 42
0.023912
  0
VERTEX
  8
0
 10
281.776839
 20
337.765697
 42
0.011920
  0
SEQEND
  0
POLYLINE
  8
0
 66
1
 70
1
  0
VERTEX
  8
0
 10
248.000000
 20
329.056704
 42
-0.077649
  0
VERTEX
  8
0
 10
247.868792
 20
328.216916
 42
-0.048457
  0
VERTEX
  8
0
 10
247.473917
 20
327.300407
 42
-0.047392
  0
VERTEX
  8
0
 10
246.894343
 20
326.450267
 42
-0.061925
  0
VERTEX
  8
0
 10
246.209078
 20
325.806704
 42
0.061156
  0
VERTEX
  8
0
 10
243.416700
 20
323.192298
 42
0.069948
  0
VERTEX
  8
0
 10
241.486002
 20
320.088527
 42
0.063840
  0
VERTEX
  8
0
 10
240.369182
 20
316.336400
 42
0.040470
  0
VERTEX
  8
0
 10
240.000000
 20
311.782721
 42
0.012899
  0
VERTEX
  8
0
 10
240.095805
 20
308.069698
 42
0.061958
  0
VERTEX
  8
0
 10
240.464238
 20
305.990158
 42
0.086989
  0
VERTEX
  8
0
 10
241.270142
 20
304.413980
 42
0.040178
  0
VERTEX
  8
0
 10
242.804719
 20
302.687091
 42
0.041799
  0
VERTEX
  8
0
 10
244.603387
 20
301.231291
 42
0.080934
  0
VERTEX
  8
0
 10
246.276508
 20
300.453069
 42
0.056417
  0
VERTEX
  8
0
 10
248.485012
 20
300.094087
 42
0.012106
  0
VERTEX
  8
0
 10
252.370460
 20
300.000000
 42
0.021114
  0
VERTEX
  8
0
 10
257.021281
 20
300.196484
 42
0.058929
  0
VERTEX
  8
0
 10
260.215386
 20
300.851170
 42
0.064417
  0
VERTEX
  8
0
 10
263.005845
 20
302.194109
 42
0.029150
  0
VERTEX
  8
0
 10
266.277078
 20
304.606793
 42
-0.034836
  0
VERTEX
  8
0
 10
267.526737
 20
305.506735
 42
-0.048149
  0
VERTEX
  8
0
 10
268.765307
 20
306.117694
 42
-0.056916
  0
VERTEX
  8
0
 10
269.886236
 20
306.401910
 42
-0.118682
  0
VERTEX
  8
0
 10
270.777078
 20
306.311046
 42
0.013660
  0
VERTEX
  8
0
 10
271.619461
 20
306.040662
 42
0.257992
  0
VERTEX
  8
0
 10
271.880634
 20
306.099532
 42
0.394408
  0
VERTEX
  8
0
 10
271.900488
 20
306.312942
 42
0.020948
  0
VERTEX
  8
0
 10
271.420132
 20
306.882689
 42
0.215107
  0
VERTEX
  8
0
 10
270.525531
 20
307.265858
 42
0.064996
  0
VERTEX
  8
0
 10
269.028511
 20
307.041298
 42
0.036061
  0
VERTEX
  8
0
 10
266.762006
 20
306.211918
 42
0.009031
  0
VERTEX
  8
0
 10
263.197863
 20
304.529868
 42
-0.016471
  0
VERTEX
  8
0
 10
260.107439
 20
303.127211
 42
-0.018759
  0
VERTEX
  8
0
 10
257.061190
 20
301.995814
 42
-0.019865
  0
VERTEX
  8
0
 10
254.370947
 20
301.226947
 42
-0.059734
  0
VERTEX
  8
0
 10
252.478071
 20
301.000000
 42
-0.107236
  0
VERTEX
  8
0
 10
246.529407
 20
302.290663
 42
-0.152458
  0
VERTEX
  8
0
 10
242.524640
 20
305.873851
 42
-0.143473
  0
VERTEX
  8
0
 10
241.123988
 20
311.284402
 42
-0.091275
  0
VERTEX
  8
0
 10
242.513642
 20
317.686893
 42
-0.055311
  0
VERTEX
  8
0
 10
244.230440
 20
320.783029
 42
-0.037577
  0
VERTEX
  8
0
 10
246.803992
 20
323.889060
 42
-0.036176
  0
VERTEX
  8
0
 10
249.518541
 20
326.325392
 42
-0.166287
  0
VERTEX
  8
0
 10
251.490898
 20
327.000000
 42
0.131632
  0
VERTEX
  8
0
 10
252.584948
 20
327.293103
 42
0.306519
  0
VERTEX
  8
0
 10
252.938467
 20
328.020439
 42
0.174577
  0
VERTEX
  8
0
 10
252.409085
 20
329.017484
 42
0.061484
  0
VERTEX
  8
0
 10
251.065741
 20
329.964816
 42
0.016843
  0
VERTEX
  8
0
 10
249.308925
 20
330.830234
 42
0.179907
  0
VERTEX
  8
0
 10
248.528429
 20
330.883410
 42
0.287459
  0
VERTEX
  8
0
 10
248.110648
 20
330.409938
 42
0.040815
  0
SEQEND
  0
POLYLINE
  8
0
 66
1
 70
1
  0
VERTEX
  8
0
 10
253.894094
 20
324.250000
 42
0.069748
  0
VERTEX
  8
0
 10
256.039628
 20
321.386138
 42
0.007342
  0
VERTEX
  8
0
 10
262.036389
 20
315.526065
 42
0.008858
  0
VERTEX
  8
0
 10
267.562306
 20
310.465466
 42
0.828423
  0
VERTEX
  8
0
 10
268.034625
 20
310.831966
 42
0.067476
  0
VERTEX
  8
0
 10
266.271947
 20
313.367301
 42
0.005457
  0
VERTEX
  8
0
 10
260.709801
 20
319.299818
 42
0.002541
  0
VERTEX
  8
0
 10
254.721148
 20
325.485887
 42
0.201807
  0
VERTEX
  8
0
 10
253.499250
 20
326.000000
 42
0.388679
  0
VERTEX
  8
0
 10
253.354668
 20
325.867607
 42
0.077623
  0
VERTEX
  8
0
 10
253.380268
 20
325.485937
 42
0.046790
  0
VERTEX
  8
0
 10
253.564414
 20
324.921620
 42
0.023697
  0
SEQEND
  0
POLYLINE
  8
0
 66
1
 70
1
  0
VERTEX
  8
0
 10
296.208262
 20
322.323807
 42
0.074156
  0
VERTEX
  8
0
 10
295.676591
 20
322.012565
 42
0.191416
  0
VERTEX
  8
0
 10
295.461455
 20
321.632320
 42
0.159969
  0
VERTEX
  8
0
 10
295.548225
 20
321.157168
 42
0.048751
  0
VERTEX
  8
0
 10
295.963559
 20
320.543908
 42
-0.082160
  0
VERTEX
  8
0
 10
297.245268
 20
318.350213
 42
-0.011047
  0
VERTEX
  8
0
 10
299.046908
 20
313.300908
 42
-0.011828
  0
VERTEX
  8
0
 10
300.615223
 20
308.176218
 42
-0.068438
  0
VERTEX
  8
0
 10
301.000000
 20
305.378246
 42
-0.138885
  0
VERTEX
  8
0
 10
300.204571
 20
302.569865
 42
-0.054693
  0
VERTEX
  8
0
 10
297.713475
 20
299.368635
 42
-0.053968
  0
VERTEX
  8
0
 10
294.469616
 20
296.678238
 42
-0.100113
  0
VERTEX
  8
0
 10
291.312362
 20
295.398821
 42
-0.080690
  0
VERTEX
  8
0
 10
288.058913
 20
295.319372
 42
-0.067233
  0
VERTEX
  8
0
 10
284.722550
 20
296.245897
 42
-0.054100
  0
VERTEX
  8
0
 10
281.150780
 20
298.259005
 42
-0.028353
  0
VERTEX
  8
0
 10
277.172827
 20
301.462826
 42
0.008242
  0
VERTEX
  8
0
 10
275.622159
 20
302.818017
 42
0.011875
  0
VERTEX
  8
0
 10
274.202985
 20
303.960955
 42
0.007716
  0
VERTEX
  8
0
 10
272.990384
 20
304.861560
 42
0.157120
  0
VERTEX
  8
0
 10
272.560705
 20
305.000000
 42
0.614119
  0
VERTEX
  8
0
 10
272.188834
 20
304.266693
 42
0.026673
  0
VERTEX
  8
0
 10
274.528557
 20
301.405595
 42
0.026318
  0
VERTEX
  8
0
 10
277.759677
 20
298.213297
 42
0.040236
  0
VERTEX
  8
0
 10
280.902759
 20
295.842200
 42
0.020751
  0
VERTEX
  8
0
 10
283.437521
 20
294.376119
 42
0.051913
  0
VERTEX
  8
0
 10
285.421154
 20
293.585785
 42
0.059485
  0
VERTEX
  8
0
 10
287.357885
 20
293.280012
 42
0.035220
  0
VERTEX
  8
0
 10
289.698690
 20
293.356472
 42
0.059973
  0
VERTEX
  8
0
 10
293.029364
 20
294.111302
 42
0.047271
  0
VERTEX
  8
0
 10
296.381909
 20
295.677916
 42
0.048953
  0
VERTEX
  8
0
 10
299.223809
 20
297.747551
 42
0.088261
  0
VERTEX
  8
0
 10
301.002034
 20
300.003801
 42
0.102809
  0
VERTEX
  8
0
 10
301.957130
 20
303.245774
 42
0.041219
  0
VERTEX
  8
0
 10
301.953450
 20
307.892573
 42
0.040245
  0
VERTEX
  8
0
 10
301.140210
 20
312.818169
 42
0.055404
  0
VERTEX
  8
0
 10
299.583194
 20
317.021300
 42
-0.013619
  0
VERTEX
  8
0
 10
298.699276
 20
318.907530
 42
-0.020859
  0
VERTEX
  8
0
 10
298.047719
 20
320.590996
 42
-0.016412
  0
VERTEX
  8
0
 10
297.629695
 20
321.967952
 42
-0.267982
  0
VERTEX
  8
0
 10
297.749860
 20
322.416527
 42
0.076024
  0
VERTEX
  8
0
 10
298.004614
 20
322.763269
 42
0.583487
  0
VERTEX
  8
0
 10
297.918219
 20
322.896734
 42
0.074029
  0
VERTEX
  8
0
 10
297.418829
 20
322.791410
 42
0.006482
  0
SEQEND
  0
POLYLINE
  8
0
 66
1
 70
1
  0
VERTEX
  8
0
 10
287.500000
 20
319.543885
 42
-0.004806
  0
VERTEX
  8
0
 10
286.372755
 20
318.797991
 42
-0.000994
  0
VERTEX
  8
0
 10
284.374084
 20
317.508562
 42
-0.001045
  0
VERTEX
  8
0
 10
282.046887
 20
316.020595
 42
-0.000985
  0
VERTEX
  8
0
 10
279.667095
 20
314.512574
 42
0.011188
  0
VERTEX
  8
0
 10
277.472862
 20
313.058555
 42
0.019247
  0
VERTEX
  8
0
 10
275.722448
 20
311.738664
 42
0.014469
  0
VERTEX
  8
0
 10
274.437756
 20
310.626570
 42
0.426851
  0
VERTEX
  8
0
 10
274.429394
 20
310.237272
 42
0.261126
  0
VERTEX
  8
0
 10
274.826558
 20
310.125405
 42
0.038127
  0
VERTEX
  8
0
 10
275.653956
 20
310.392734
 42
0.034991
  0
VERTEX
  8
0
 10
276.670165
 20
310.894545
 42
0.023195
  0
VERTEX
  8
0
 10
277.762299
 20
311.602323
 42
-0.015638
  0
VERTEX
  8
0
 10
279.140045
 20
312.525048
 42
-0.006197
  0
VERTEX
  8
0
 10
281.086792
 20
313.709139
 42
-0.006126
  0
VERTEX
  8
0
 10
283.221748
 20
314.936678
 42
-0.007642
  0
VERTEX
  8
0
 10
285.235292
 20
316.021769
 42
0.015468
  0
VERTEX
  8
0
 10
287.083869
 20
317.055608
 42
0.019568
  0
VERTEX
  8
0
 10
288.721568
 20
318.128557
 42
0.017960
  0
VERTEX
  8
0
 10
290.002850
 20
319.112822
 42
0.129068
  0
VERTEX
  8
0
 10
290.453907
 20
319.740480
 42
0.123833
  0
VERTEX
  8
0
 10
290.553459
 20
320.566121
 42
0.396759
  0
VERTEX
  8
0
 10
290.163710
 20
320.887116
 42
0.113616
  0
VERTEX
  8
0
 10
289.184645
 20
320.592048
 42
0.018798
  0
SEQEND
  0
POLYLINE
  8
0
 66
1
 70
1
  0
VERTEX
  8
0
 10
107.984433
 20
277.481242
 42
0.229143
  0
VERTEX
  8
0
 10
107.563427
 20
275.777224
 42
0.145943
  0
VERTEX
  8
0
 10
108.558044
 20
273.948484
 42
0.074147
  0
VERTEX
  8
0
 10
111.192640
 20
272.008126
 42
0.025310
  0
VERTEX
  8
0
 10
115.507287
 20
269.997042
 42
0.024100
  0
VERTEX
  8
0
 10
119.585485
 20
268.566512
 42
0.086858
  0
VERTEX
  8
0
 10
122.311806
 20
268.249130
 42
0.187217
  0
VERTEX
  8
0
 10
123.866606
 20
268.957568
 42
0.195720
  0
VERTEX
  8
0
 10
124.500000
 20
270.513695
 42
0.153930
  0
VERTEX
  8
0
 10
124.155099
 20
271.607471
 42
0.062172
  0
VERTEX
  8
0
 10
123.093761
 20
272.781311
 42
0.041028
  0
VERTEX
  8
0
 10
121.277210
 20
274.104376
 42
0.014818
  0
VERTEX
  8
0
 10
118.500000
 20
275.686575
 42
0.013125
  0
VERTEX
  8
0
 10
114.012511
 20
277.920893
 42
0.066769
  0
VERTEX
  8
0
 10
111.354430
 20
278.750067
 42
0.133718
  0
VERTEX
  8
0
 10
109.509529
 20
278.570885
 42
0.129567
  0
SEQEND
  0
POLYLINE
  8
0
 66
1
 70
1
  0
VERTEX
  8
0
 10
211.521548
 20
271.849048
 42
0.012877
  0
VERTEX
  8
0
 10
207.803112
 20
270.255536
 42
0.048138
  0
VERTEX
  8
0
 10
205.607430
 20
268.978405
 42
0.085332
  0
VERTEX
  8
0
 10
204.413889
 20
267.765910
 42
0.152994
  0
VERTEX
  8
0
 10
204.000000
 20
266.444943
 42
0.254653
  0
VERTEX
  8
0
 10
204.707652
 20
265.145600
 42
0.120211
  0
VERTEX
  8
0
 10
206.567676
 20
264.499937
 42
0.069124
  0
VERTEX
  8
0
 10
209.513185
 20
264.627229
 42
0.031047
  0
VERTEX
  8
0
 10
213.280036
 20
265.562185
 42
0.017168
  0
VERTEX
  8
0
 10
217.962807
 20
267.217053
 42
0.070284
  0
VERTEX
  8
0
 10
220.580291
 20
268.696205
 42
0.159303
  0
VERTEX
  8
0
 10
221.597059
 20
270.181954
 42
0.214211
  0
VERTEX
  8
0
 10
221.375790
 20
271.776900
 42
0.129885
  0
VERTEX
  8
0
 10
219.975001
 20
273.088629
 42
0.122338
  0
VERTEX
  8
0
 10
218.076389
 20
273.575017
 42
0.074224
  0
VERTEX
  8
0
 10
215.401618
 20
273.195752
 42
0.022525
  0
SEQEND
  0
POLYLINE
  8
0
 66
1
 70
1
  0
VERTEX
  8
0
 10
101.989803
 20
254.835957
 42
0.055375
  0
VERTEX
  8
0
 10
98.832353
 20
250.889306
 42
0.091239
  0
VERTEX
  8
0
 10
97.243642
 20
246.936374
 42
0.095475
  0
VERTEX
  8
0
 10
97.203160
 20
242.806746
 42
0.065718
  0
VERTEX
  8
0
 10
98.642919
 20
238.340064
 42
0.075600
  0
VERTEX
  8
0
 10
100.699728
 20
235.294441
 42
0.053256
  0
VERTEX
  8
0
 10
103.812967
 20
232.566705
 42
0.054558
  0
VERTEX
  8
0
 10
107.309192
 20
230.638168
 42
0.099089
  0
VERTEX
  8
0
 10
110.497736
 20
230.000000
 42
0.109408
  0
VERTEX
  8
0
 10
115.553714
 20
231.119731
 42
0.079359
  0
VERTEX
  8
0
 10
120.346416
 20
234.358535
 42
0.081045
  0
VERTEX
  8
0
 10
123.804332
 20
238.847382
 42
0.124297
  0
VERTEX
  8
0
 10
125.000000
 20
243.582784
 42
0.046174
  0
VERTEX
  8
0
 10
124.691384
 20
246.917503
 42
0.060673
  0
VERTEX
  8
0
 10
123.772007
 20
249.830029
 42
0.059337
  0
VERTEX
  8
0
 10
122.160606
 20
252.485054
 42
0.041679
  0
VERTEX
  8
0
 10
119.782223
 20
255.051727
 42
0.032304
  0
VERTEX
  8
0
 10
117.816913
 20
256.626622
 42
0.073137
  0
VERTEX
  8
0
 10
116.117497
 20
257.479123
 42
0.061828
  0
VERTEX
  8
0
 10
114.071368
 20
257.884208
 42
0.017989
  0
VERTEX
  8
0
 10
110.854062
 20
258.000000
 42
0.017274
  0
VERTEX
  8
0
 10
107.556159
 20
257.886032
 42
0.068547
  0
VERTEX
  8
0
 10
105.576699
 20
257.472463
 42
0.080867
  0
VERTEX
  8
0
 10
103.951405
 20
256.575613
 42
0.029955
  0
SEQEND
  0
POLYLINE
  8
0
 66
1
 70
1
  0
VERTEX
  8
0
 10
211.000000
 20
251.380812
 42
0.054731
  0
VERTEX
  8
0
 10
208.403843
 20
249.328435
 42
0.058460
  0
VERTEX
  8
0
 10
206.379433
 20
246.802939
 42
0.058375
  0
VERTEX
  8
0
 10
204.992313
 20
243.874040
 42
0.054301
  0
VERTEX
  8
0
 10
204.276733
 20
240.631306
 42
0.049416
  0
VERTEX
  8
0
 10
204.238883
 20
236.825551
 42
0.080410
  0
VERTEX
  8
0
 10
205.034271
 20
233.701180
 42
0.079757
  0
VERTEX
  8
0
 10
206.780787
 20
230.969944
 42
0.047863
  0
VERTEX
  8
0
 10
209.611732
 20
228.348266
 42
0.140253
  0
VERTEX
  8
0
 10
216.741428
 20
225.560767
 42
0.140688
  0
VERTEX
  8
0
 10
224.256984
 20
226.971359
 42
0.139928
  0
VERTEX
  8
0
 10
229.908475
 20
232.164126
 42
0.138277
  0
VERTEX
  8
0
 10
232.000000
 20
239.582306
 42
0.076606
  0
VERTEX
  8
0
 10
231.472688
 20
243.003837
 42
0.056881
  0
VERTEX
  8
0
 10
229.912839
 20
246.501796
 42
0.057421
  0
VERTEX
  8
0
 10
227.627632
 20
249.521475
 42
0.082942
  0
VERTEX
  8
0
 10
224.953117
 20
251.524244
 42
0.076594
  0
VERTEX
  8
0
 10
221.772017
 20
252.593844
 42
0.045469
  0
VERTEX
  8
0
 10
217.776433
 20
252.916572
 42
0.045866
  0
VERTEX
  8
0
 10
213.873742
 20
252.517323
 42
0.091752
  0
SEQEND
  0
POLYLINE
  8
0
 66
1
 70
1
  0
VERTEX
  8
0
 10
148.408816
 20
238.492715
 42
0.112467
  0
VERTEX
  8
0
 10
148.348047
 20
235.719867
 42
0.120218
  0
VERTEX
  8
0
 10
149.505586
 20
233.269798
 42
0.117961
  0
VERTEX
  8
0
 10
151.683399
 20
231.595908
 42
0.105506
  0
VERTEX
  8
0
 10
154.476000
 20
231.000000
 42
0.028657
  0
VERTEX
  8
0
 10
155.979137
 20
231.086221
 42
0.019848
  0
VERTEX
  8
0
 10
157.662026
 20
231.347948
 42
0.020074
  0
VERTEX
  8
0
 10
159.263880
 20
231.729982
 42
0.038334
  0
VERTEX
  8
0
 10
160.505599
 20
232.184505
 42
-0.040320
  0
VERTEX
  8
0
 10
161.973653
 20
232.715284
 42
-0.089689
  0
VERTEX
  8
0
 10
163.153627
 20
232.818718
 42
-0.081572
  0
VERTEX
  8
0
 10
164.364546
 20
232.504032
 42
-0.029141
  0
VERTEX
  8
0
 10
165.956944
 20
231.684505
 42
0.069786
  0
VERTEX
  8
0
 10
169.257122
 20
230.311648
 42
0.080200
  0
VERTEX
  8
0
 10
172.651095
 20
229.988877
 42
0.092483
  0
VERTEX
  8
0
 10
175.577937
 20
230.735233
 42
0.140063
  0
VERTEX
  8
0
 10
177.554074
 20
232.442184
 42
0.045099
  0
VERTEX
  8
0
 10
178.142607
 20
233.545829
 42
0.034356
  0
VERTEX
  8
0
 10
178.588108
 20
234.841896
 42
0.035219
  0
VERTEX
  8
0
 10
178.837614
 20
236.125491
 42
0.065846
  0
VERTEX
  8
0
 10
178.827127
 20
237.181968
 42
0.122260
  0
VERTEX
  8
0
 10
178.086002
 20
239.012271
 42
0.219604
  0
VERTEX
  8
0
 10
176.699891
 20
239.788330
 42
0.201495
  0
VERTEX
  8
0
 10
175.111118
 20
239.262512
 42
0.106903
  0
VERTEX
  8
0
 10
173.850489
 20
237.571205
 42
-0.094104
  0
VERTEX
  8
0
 10
172.615008
 20
235.822864
 42
-0.173702
  0
VERTEX
  8
0
 10
171.048164
 20
235.115645
 42
-0.136771
  0
VERTEX
  8
0
 10
169.103112
 20
235.493427
 42
-0.050749
  0
VERTEX
  8
0
 10
166.727129
 20
237.000000
 42
0.054699
  0
VERTEX
  8
0
 10
164.554854
 20
238.353529
 42
0.097982
  0
VERTEX
  8
0
 10
162.526637
 20
238.877032
 42
0.105500
  0
VERTEX
  8
0
 10
160.556027
 20
238.573224
 42
0.071213
  0
VERTEX
  8
0
 10
158.558870
 20
237.468197
 42
-0.052835
  0
VERTEX
  8
0
 10
156.640097
 20
236.312836
 42
-0.156238
  0
VERTEX
  8
0
 10
155.132448
 20
236.121179
 42
-0.181877
  0
VERTEX
  8
0
 10
153.939558
 20
236.841670
 42
-0.076224
  0
VERTEX
  8
0
 10
153.000000
 20
238.500000
 42
0.089268
  0
VERTEX
  8
0
 10
151.922980
 20
240.291110
 42
0.216525
  0
VERTEX
  8
0
 10
150.548662
 20
240.912905
 42
0.234548
  0
VERTEX
  8
0
 10
149.260828
 20
240.271068
 42
0.100782
  0
SEQEND
  0
ENDSEC
  0
EOF
