  0
SECTION
  2
HEADER
  9
$ACADVER
  1
AC1006
  9
$EXTMIN
 10
0.000000
 20
0.000000
 30
0.000000
  9
$EXTMAX
 10
642.000000
 20
602.000000
 30
0.000000
  0
ENDSEC
  0
SECTION
  2
ENTITIES
  0
POLYLINE
  8
0
 66
1
 70
1
  0
VERTEX
  8
0
 10
302.500000
 20
578.552614
 42
0.031585
  0
VERTEX
  8
0
 10
295.207560
 20
576.190416
 42
0.055524
  0
VERTEX
  8
0
 10
289.614118
 20
573.226018
 42
0.058183
  0
VERTEX
  8
0
 10
284.984836
 20
569.210567
 42
0.038534
  0
VERTEX
  8
0
 10
280.649361
 20
563.659060
 42
-0.014347
  0
VERTEX
  8
0
 10
276.990070
 20
558.475266
 42
-0.143843
  0
VERTEX
  8
0
 10
274.888918
 20
556.905320
 42
-0.157432
  0
VERTEX
  8
0
 10
272.354684
 20
556.794583
 42
-0.018150
  0
VERTEX
  8
0
 10
266.848264
 20
558.527703
 42
0.005141
  0
VERTEX
  8
0
 10
259.698390
 20
560.984253
 42
0.006979
  0
VERTEX
  8
0
 10
253.191577
 20
563.044943
 42
0.007823
  0
VERTEX
  8
0
 10
247.414686
 20
564.687998
 42
0.013062
  0
VERTEX
  8
0
 10
242.500000
 20
565.866423
 42
0.002532
  0
VERTEX
  8
0
 10
232.327771
 20
567.972380
 42
0.007787
  0
VERTEX
  8
0
 10
225.414565
 20
569.255445
 42
0.009594
  0
VERTEX
  8
0
 10
219.285179
 20
570.173959
 42
0.005812
  0
VERTEX
  8
0
 10
212.000000
 20
571.037143
 42
0.031324
  0
VERTEX
  8
0
 10
194.614416
 20
571.797093
 42
0.012688
  0
VERTEX
  8
0
 10
170.905935
 20
570.745698
 42
0.009231
  0
VERTEX
  8
0
 10
147.888873
 20
568.711379
 42
0.096493
  0
VERTEX
  8
0
 10
138.873987
 20
565.932560
 42
-0.044811
  0
VERTEX
  8
0
 10
138.031912
 20
565.574713
 42
-0.023184
  0
VERTEX
  8
0
 10
136.927606
 20
565.273939
 42
-0.022852
  0
VERTEX
  8
0
 10
135.755279
 20
565.068042
 42
-0.032052
  0
VERTEX
  8
0
 10
134.694931
 20
565.000000
 42
0.080591
  0
VERTEX
  8
0
 10
132.321072
 20
564.614877
 42
0.011267
  0
VERTEX
  8
0
 10
127.623311
 20
562.930866
 42
0.010013
  0
VERTEX
  8
0
 10
121.167478
 20
560.301587
 42
0.003755
  0
VERTEX
  8
0
 10
112.222665
 20
556.368141
 42
-0.008284
  0
VERTEX
  8
0
 10
110.108715
 20
555.461300
 42
-0.010436
  0
VERTEX
  8
0
 10
108.121701
 20
554.695641
 42
-0.008723
  0
VERTEX
  8
0
 10
106.440571
 20
554.120789
 42
-0.078167
  0
VERTEX
  8
0
 10
105.672665
 20
554.000000
 42
0.062790
  0
VERTEX
  8
0
 10
105.114840
 20
553.929671
 42
0.039125
  0
VERTEX
  8
0
 10
104.490249
 20
553.716404
 42
0.038775
  0
VERTEX
  8
0
 10
103.897475
 20
553.404205
 42
0.055840
  0
VERTEX
  8
0
 10
103.434567
 20
553.034567
 42
-0.075677
  0
VERTEX
  8
0
 10
101.208836
 20
551.396938
 42
-0.004141
  0
VERTEX
  8
0
 10
93.467023
 20
547.415695
 42
-0.003076
  0
VERTEX
  8
0
 10
85.482234
 20
543.454172
 42
-0.114091
  0
VERTEX
  8
0
 10
83.517743
 20
543.000000
 42
-0.127353
  0
VERTEX
  8
0
 10
82.836127
 20
543.176474
 42
-0.043928
  0
VERTEX
  8
0
 10
81.986323
 20
543.751003
 42
-0.040237
  0
VERTEX
  8
0
 10
81.120608
 20
544.578312
 42
-0.036919
  0
VERTEX
  8
0
 10
80.370953
 20
545.556607
 42
0.067955
  0
VERTEX
  8
0
 10
78.355772
 20
547.874074
 42
0.020469
  0
VERTEX
  8
0
 10
74.711976
 20
550.811168
 42
0.016656
  0
VERTEX
  8
0
 10
70.921709
 20
553.427554
 42
0.143695
  0
VERTEX
  8
0
 10
68.970954
 20
554.000000
 42
-0.071220
  0
VERTEX
  8
0
 10
68.320561
 20
554.093114
 42
-0.013292
  0
VERTEX
  8
0
 10
67.170119
 20
554.462878
 42
-0.013994
  0
VERTEX
  8
0
 10
65.838623
 20
554.972511
 42
-0.012383
  0
VERTEX
  8
0
 10
64.481600
 20
555.575755
 42
0.050472
  0
VERTEX
  8
0
 10
62.448810
 20
556.299882
 42
0.035456
  0
VERTEX
  8
0
 10
60.053531
 20
556.712200
 42
0.026431
  0
VERTEX
  8
0
 10
56.992319
 20
556.855368
 42
0.010815
  0
VERTEX
  8
0
 10
52.830471
 20
556.739870
 42
0.023106
  0
VERTEX
  8
0
 10
46.235755
 20
556.107632
 42
0.048513
  0
VERTEX
  8
0
 10
41.237879
 20
554.891282
 42
0.054038
  0
VERTEX
  8
0
 10
36.915960
 20
552.837292
 42
0.036172
  0
VERTEX
  8
0
 10
32.468933
 20
549.636022
 42
0.045471
  0
VERTEX
  8
0
 10
26.294236
 20
543.439909
 42
0.063555
  0
VERTEX
  8
0
 10
22.106224
 20
536.845928
 42
0.062830
  0
VERTEX
  8
0
 10
19.677510
 20
529.352104
 42
0.043212
  0
VERTEX
  8
0
 10
18.771189
 20
520.457663
 42
0.011692
  0
VERTEX
  8
0
 10
18.809081
 20
515.840859
 42
0.042054
  0
VERTEX
  8
0
 10
19.148676
 20
512.917558
 42
0.051107
  0
VERTEX
  8
0
 10
19.934505
 20
510.393584
 42
0.023623
  0
VERTEX
  8
0
 10
21.435075
 20
507.296622
 42
0.027094
  0
VERTEX
  8
0
 10
22.852019
 20
504.998993
 42
0.014353
  0
VERTEX
  8
0
 10
24.838937
 20
502.305052
 42
0.014243
  0
VERTEX
  8
0
 10
27.034894
 20
499.658814
 42
0.021378
  0
VERTEX
  8
0
 10
29.110511
 20
497.492009
 42
-0.011280
  0
VERTEX
  8
0
 10
30.984585
 20
495.613048
 42
-0.015726
  0
VERTEX
  8
0
 10
32.568130
 20
493.843876
 42
-0.012093
  0
VERTEX
  8
0
 10
33.784478
 20
492.322549
 42
-0.160669
  0
VERTEX
  8
0
 10
34.015038
 20
491.653049
 42
-0.097338
  0
VERTEX
  8
0
 10
33.876928
 20
490.898465
 42
-0.005230
  0
VERTEX
  8
0
 10
32.958517
 20
488.635583
 42
-0.008018
  0
VERTEX
  8
0
 10
31.787818
 20
485.957010
 42
-0.005748
  0
VERTEX
  8
0
 10
30.397255
 20
483.000000
 42
0.019164
  0
VERTEX
  8
0
 10
23.288083
 20
466.765401
 42
0.036197
  0
VERTEX
  8
0
 10
19.038124
 20
453.126209
 42
0.034162
  0
VERTEX
  8
0
 10
16.657204
 20
438.503269
 42
0.015191
  0
VERTEX
  8
0
 10
15.432209
 20
419.000000
 42
0.009744
  0
VERTEX
  8
0
 10
15.262348
 20
405.793264
 42
0.010472
  0
VERTEX
  8
0
 10
15.617774
 20
392.904138
 42
0.010002
  0
VERTEX
  8
0
 10
16.535875
 20
379.525187
 42
0.007490
  0
VERTEX
  8
0
 10
18.062080
 20
364.831658
 42
-0.011635
  0
VERTEX
  8
0
 10
18.512142
 20
360.118835
 42
-0.014676
  0
VERTEX
  8
0
 10
18.698665
 20
355.742004
 42
-0.015780
  0
VERTEX
  8
0
 10
18.623874
 20
351.659167
 42
-0.018935
  0
VERTEX
  8
0
 10
18.287189
 20
347.831658
 42
0.031059
  0
VERTEX
  8
0
 10
17.827138
 20
340.597309
 42
0.011041
  0
VERTEX
  8
0
 10
18.041410
 20
330.232616
 42
0.006444
  0
VERTEX
  8
0
 10
18.617917
 20
319.881624
 42
0.125362
  0
VERTEX
  8
0
 10
19.612006
 20
316.861124
 42
-0.034056
  0
VERTEX
  8
0
 10
20.040326
 20
316.075753
 42
-0.007313
  0
VERTEX
  8
0
 10
20.668255
 20
314.656602
 42
-0.007606
  0
VERTEX
  8
0
 10
21.347841
 20
312.987857
 42
-0.007189
  0
VERTEX
  8
0
 10
21.989701
 20
311.267734
 42
0.064343
  0
VERTEX
  8
0
 10
25.579414
 20
304.223177
 42
0.041882
  0
VERTEX
  8
0
 10
31.353938
 20
297.133236
 42
0.038613
  0
VERTEX
  8
0
 10
38.827039
 20
290.493796
 42
0.034358
  0
VERTEX
  8
0
 10
47.519263
 20
284.792469
 42
0.031019
  0
VERTEX
  8
0
 10
53.894183
 20
281.714497
 42
0.013647
  0
VERTEX
  8
0
 10
62.663723
 20
278.408583
 42
0.011590
  0
VERTEX
  8
0
 10
71.244792
 20
275.659548
 42
0.071836
  0
VERTEX
  8
0
 10
75.811779
 20
275.000000
 42
-0.047252
  0
VERTEX
  8
0
 10
79.316569
 20
274.668039
 42
-0.014606
  0
VERTEX
  8
0
 10
84.497484
 20
273.519926
 42
-0.010544
  0
VERTEX
  8
0
 10
89.571818
 20
272.124428
 42
-0.124623
  0
VERTEX
  8
0
 10
91.313536
 20
271.086464
 42
-0.180460
  0
VERTEX
  8
0
 10
91.643246
 20
270.364352
 42
-0.024510
  0
VERTEX
  8
0
 10
91.680842
 20
268.673887
 42
-0.023563
  0
VERTEX
  8
0
 10
91.516510
 20
266.453934
 42
-0.012853
  0
VERTEX
  8
0
 10
91.117093
 20
263.750994
 42
0.039859
  0
VERTEX
  8
0
 10
90.058356
 20
252.367306
 42
0.004600
  0
VERTEX
  8
0
 10
89.959110
 20
226.675254
 42
0.003609
  0
VERTEX
  8
0
 10
90.287205
 20
200.544180
 42
0.060689
  0
VERTEX
  8
0
 10
91.500000
 20
192.000000
 42
-0.013935
  0
VERTEX
  8
0
 10
92.066146
 20
189.628715
 42
-0.011206
  0
VERTEX
  8
0
 10
92.546097
 20
187.050995
 42
-0.011368
  0
VERTEX
  8
0
 10
92.882133
 20
184.647970
 42
-0.028240
  0
VERTEX
  8
0
 10
92.988131
 20
182.875727
 42
0.031035
  0
VERTEX
  8
0
 10
93.098828
 20
181.183553
 42
0.015573
  0
VERTEX
  8
0
 10
93.437139
 20
179.067219
 42
0.015400
  0
VERTEX
  8
0
 10
93.924512
 20
176.892394
 42
0.021987
  0
VERTEX
  8
0
 10
94.500000
 20
175.000000
 42
-0.057810
  0
VERTEX
  8
0
 10
95.584512
 20
170.232937
 42
-0.026335
  0
VERTEX
  8
0
 10
95.939786
 20
163.843323
 42
-0.025250
  0
VERTEX
  8
0
 10
95.607356
 20
156.865012
 42
-0.028017
  0
VERTEX
  8
0
 10
94.571607
 20
150.197405
 42
0.023472
  0
VERTEX
  8
0
 10
93.289888
 20
142.413185
 42
0.016948
  0
VERTEX
  8
0
 10
92.566027
 20
133.644390
 42
0.017093
  0
VERTEX
  8
0
 10
92.442318
 20
124.986009
 42
0.026715
  0
VERTEX
  8
0
 10
92.988154
 20
117.554160
 42
-0.007387
  0
VERTEX
  8
0
 10
93.545914
 20
112.593126
 42
-0.055138
  0
VERTEX
  8
0
 10
93.515195
 20
110.226501
 42
-0.087309
  0
VERTEX
  8
0
 10
92.952171
 20
108.388966
 42
-0.032340
  0
VERTEX
  8
0
 10
91.564798
 20
106.054160
 42
0.029034
  0
VERTEX
  8
0
 10
90.480146
 20
104.255963
 42
0.011970
  0
VERTEX
  8
0
 10
89.214933
 20
101.707239
 42
0.011796
  0
VERTEX
  8
0
 10
87.984642
 20
98.901504
 42
0.014859
  0
VERTEX
  8
0
 10
86.985701
 20
96.247079
 42
0.026049
  0
VERTEX
  8
0
 10
85.783398
 20
92.036404
 42
0.055929
  0
VERTEX
  8
0
 10
85.398787
 20
88.686406
 42
0.055234
  0
VERTEX
  8
0
 10
85.764326
 20
85.308285
 42
0.024840
  0
VERTEX
  8
0
 10
86.946549
 20
81.000000
 42
-0.002967
  0
VERTEX
  8
0
 10
87.348309
 20
79.752439
 42
-0.001117
  0
VERTEX
  8
0
 10
87.896378
 20
78.001662
 42
-0.001107
  0
VERTEX
  8
0
 10
88.484442
 20
76.093396
 42
-0.001347
  0
VERTEX
  8
0
 10
89.026417
 20
74.303530
 42
0.093106
  0
VERTEX
  8
0
 10
91.852954
 20
68.834383
 42
0.061840
  0
VERTEX
  8
0
 10
96.864172
 20
63.831292
 42
0.053899
  0
VERTEX
  8
0
 10
103.712784
 20
59.600559
 42
0.040392
  0
VERTEX
  8
0
 10
112.000000
 20
56.434453
 42
0.045877
  0
VERTEX
  8
0
 10
121.408545
 20
54.600562
 42
0.015979
  0
VERTEX
  8
0
 10
135.195347
 20
53.649713
 42
0.009206
  0
VERTEX
  8
0
 10
156.517132
 20
53.255358
 42
0.001864
  0
VERTEX
  8
0
 10
194.368864
 20
53.393344
 42
0.001088
  0
VERTEX
  8
0
 10
224.311361
 20
53.679267
 42
0.004301
  0
VERTEX
  8
0
 10
242.725380
 20
54.053608
 42
0.006586
  0
VERTEX
  8
0
 10
255.070551
 20
54.573642
 42
0.022997
  0
VERTEX
  8
0
 10
263.000000
 20
55.379309
 42
-0.010224
  0
VERTEX
  8
0
 10
273.278242
 20
56.689573
 42
-0.034562
  0
VERTEX
  8
0
 10
280.037834
 20
56.941490
 42
-0.053929
  0
VERTEX
  8
0
 10
284.897044
 20
56.258706
 42
-0.083300
  0
VERTEX
  8
0
 10
288.771440
 20
54.558306
 42
0.051971
  0
VERTEX
  8
0
 10
293.395211
 20
52.174944
 42
0.049692
  0
VERTEX
  8
0
 10
298.480861
 20
50.752174
 42
0.039723
  0
VERTEX
  8
0
 10
304.685229
 20
50.166734
 42
0.018146
  0
VERTEX
  8
0
 10
312.826534
 20
50.342712
 42
0.003085
  0
VERTEX
  8
0
 10
317.261294
 20
50.627235
 42
0.002948
  0
VERTEX
  8
0
 10
321.759982
 20
50.970406
 42
0.002921
  0
VERTEX
  8
0
 10
325.728309
 20
51.320011
 42
0.010538
  0
VERTEX
  8
0
 10
328.250000
 20
51.610751
 42
-0.012101
  0
VERTEX
  8
0
 10
330.651796
 20
51.880061
 42
-0.060090
  0
VERTEX
  8
0
 10
332.007257
 20
51.835892
 42
-0.144197
  0
VERTEX
  8
0
 10
332.721520
 20
51.500476
 42
-0.214390
  0
VERTEX
  8
0
 10
333.000789
 20
50.880052
 42
0.109421
  0
VERTEX
  8
0
 10
333.706340
 20
47.703247
 42
0.020928
  0
VERTEX
  8
0
 10
336.444060
 20
42.423615
 42
0.022920
  0
VERTEX
  8
0
 10
339.705475
 20
37.290886
 42
0.067486
  0
VERTEX
  8
0
 10
342.540422
 20
34.227292
 42
0.030996
  0
VERTEX
  8
0
 10
346.653571
 20
31.244676
 42
0.017818
  0
VERTEX
  8
0
 10
351.939040
 20
28.149278
 42
0.014362
  0
VERTEX
  8
0
 10
357.055194
 20
25.579715
 42
0.109616
  0
VERTEX
  8
0
 10
359.667720
 20
25.000000
 42
-0.054979
  0
VERTEX
  8
0
 10
360.800827
 20
24.875028
 42
-0.006969
  0
VERTEX
  8
0
 10
363.195929
 20
24.305042
 42
-0.008106
  0
VERTEX
  8
0
 10
366.028386
 20
23.540060
 42
-0.006658
  0
VERTEX
  8
0
 10
369.027742
 20
22.634186
 42
0.033164
  0
VERTEX
  8
0
 10
384.402365
 20
18.866482
 42
0.022851
  0
VERTEX
  8
0
 10
402.194017
 20
16.570737
 42
0.015706
  0
VERTEX
  8
0
 10
425.869637
 20
15.356976
 42
0.005067
  0
VERTEX
  8
0
 10
461.000000
 20
15.017015
 42
0.002654
  0
VERTEX
  8
0
 10
490.383026
 20
15.186412
 42
0.012762
  0
VERTEX
  8
0
 10
507.102556
 20
15.798554
 42
0.014390
  0
VERTEX
  8
0
 10
522.868079
 20
17.235548
 42
0.003993
  0
VERTEX
  8
0
 10
547.500000
 20
20.397268
 42
0.013480
  0
VERTEX
  8
0
 10
560.899501
 20
22.595495
 42
0.023966
  0
VERTEX
  8
0
 10
571.766096
 20
25.225790
 42
0.026786
  0
VERTEX
  8
0
 10
581.458900
 20
28.643251
 42
0.023269
  0
VERTEX
  8
0
 10
591.209969
 20
33.222643
 42
0.037508
  0
VERTEX
  8
0
 10
596.863598
 20
36.771649
 42
0.025302
  0
VERTEX
  8
0
 10
602.759325
 20
41.599461
 42
0.024122
  0
VERTEX
  8
0
 10
607.719023
 20
46.554889
 42
0.096479
  0
VERTEX
  8
0
 10
609.935223
 20
50.208594
 42
-0.008448
  0
VERTEX
  8
0
 10
610.519813
 20
51.716857
 42
-0.004638
  0
VERTEX
  8
0
 10
611.283729
 20
53.544362
 42
-0.004621
  0
VERTEX
  8
0
 10
612.093662
 20
55.385385
 42
-0.007366
  0
VERTEX
  8
0
 10
612.823694
 20
56.942424
 42
0.103873
  0
VERTEX
  8
0
 10
614.242290
 20
62.588599
 42
0.011507
  0
VERTEX
  8
0
 10
614.458225
 20
75.967892
 42
0.011370
  0
VERTEX
  8
0
 10
614.061804
 20
89.350806
 42
0.106626
  0
VERTEX
  8
0
 10
612.562909
 20
94.878348
 42
-0.022426
  0
VERTEX
  8
0
 10
611.964639
 20
96.174608
 42
-0.019973
  0
VERTEX
  8
0
 10
611.459104
 20
97.569827
 42
-0.020446
  0
VERTEX
  8
0
 10
611.106089
 20
98.861468
 42
-0.056536
  0
VERTEX
  8
0
 10
611.000000
 20
99.796702
 42
0.085643
  0
VERTEX
  8
0
 10
610.628704
 20
101.948488
 42
0.025368
  0
VERTEX
  8
0
 10
609.346166
 20
105.046857
 42
0.024601
  0
VERTEX
  8
0
 10
607.521718
 20
108.447803
 42
0.023980
  0
VERTEX
  8
0
 10
605.357616
 20
111.683278
 42
-0.047250
  0
VERTEX
  8
0
 10
603.329292
 20
115.043797
 42
-0.191040
  0
VERTEX
  8
0
 10
603.162495
 20
117.386334
 42
-0.170845
  0
VERTEX
  8
0
 10
604.655807
 20
119.371752
 42
-0.036423
  0
VERTEX
  8
0
 10
608.473512
 20
121.530795
 42
0.056000
  0
VERTEX
  8
0
 10
613.854942
 20
124.858091
 42
0.057669
  0
VERTEX
  8
0
 10
618.304844
 20
129.267739
 42
0.048631
  0
VERTEX
  8
0
 10
622.188788
 20
135.227747
 42
0.025357
  0
VERTEX
  8
0
 10
625.886207
 20
143.297053
 42
0.057218
  0
VERTEX
  8
0
 10
626.318022
 20
144.890466
 42
0.012567
  0
VERTEX
  8
0
 10
626.672823
 20
147.709538
 42
0.012921
  0
VERTEX
  8
0
 10
626.918184
 20
151.009140
 42
0.012096
  0
VERTEX
  8
0
 10
627.000000
 20
154.390503
 42
0.027240
  0
VERTEX
  8
0
 10
626.666488
 20
160.507650
 42
0.033840
  0
VERTEX
  8
0
 10
625.665713
 20
166.115928
 42
0.032989
  0
VERTEX
  8
0
 10
623.891278
 20
171.651670
 42
0.023904
  0
VERTEX
  8
0
 10
621.227049
 20
177.554947
 42
0.062207
  0
VERTEX
  8
0
 10
618.220141
 20
181.988091
 42
0.027729
  0
VERTEX
  8
0
 10
613.271067
 20
187.034135
 42
0.027766
  0
VERTEX
  8
0
 10
607.705145
 20
191.573304
 42
0.053108
  0
VERTEX
  8
0
 10
602.713127
 20
194.448164
 42
-0.012665
  0
VERTEX
  8
0
 10
600.607658
 20
195.443797
 42
-0.014684
  0
VERTEX
  8
0
 10
598.658450
 20
196.499588
 42
-0.013778
  0
VERTEX
  8
0
 10
597.069004
 20
197.481387
 42
-0.079790
  0
VERTEX
  8
0
 10
596.342931
 20
198.144527
 42
-0.094661
  0
VERTEX
  8
0
 10
595.885822
 20
199.016864
 42
-0.015540
  0
VERTEX
  8
0
 10
595.388752
 20
200.864330
 42
-0.016615
  0
VERTEX
  8
0
 10
594.938291
 20
203.103462
 42
-0.013985
  0
VERTEX
  8
0
 10
594.607083
 20
205.500000
 42
0.004337
  0
VERTEX
  8
0
 10
593.747396
 20
212.749188
 42
0.008940
  0
VERTEX
  8
0
 10
592.924614
 20
218.399771
 42
0.011236
  0
VERTEX
  8
0
 10
592.103205
 20
222.790412
 42
0.026682
  0
VERTEX
  8
0
 10
591.246751
 20
226.000000
 42
-0.004497
  0
VERTEX
  8
0
 10
590.694239
 20
227.754231
 42
-0.001665
  0
VERTEX
  8
0
 10
589.946564
 20
230.234375
 42
-0.001650
  0
VERTEX
  8
0
 10
589.148578
 20
232.946321
 42
-0.001988
  0
VERTEX
  8
0
 10
588.417304
 20
235.500000
 42
0.006294
  0
VERTEX
  8
0
 10
587.716242
 20
237.870840
 42
0.008092
  0
VERTEX
  8
0
 10
587.009214
 20
240.031250
 42
0.006410
  0
VERTEX
  8
0
 10
586.366865
 20
241.817075
 42
0.067332
  0
VERTEX
  8
0
 10
586.000347
 20
242.500000
 42
-0.057459
  0
VERTEX
  8
0
 10
585.676279
 20
243.076328
 42
-0.014277
  0
VERTEX
  8
0
 10
585.285373
 20
244.087500
 42
-0.014409
  0
VERTEX
  8
0
 10
584.901979
 20
245.278137
 42
-0.014010
  0
VERTEX
  8
0
 10
584.583877
 20
246.500000
 42
0.051878
  0
VERTEX
  8
0
 10
583.035894
 20
251.014426
 42
0.006452
  0
VERTEX
  8
0
 10
578.545589
 20
260.384109
 42
0.008140
  0
VERTEX
  8
0
 10
573.672660
 20
269.834320
 42
0.022003
  0
VERTEX
  8
0
 10
569.816538
 20
276.320714
 42
-0.004029
  0
VERTEX
  8
0
 10
568.353930
 20
278.591065
 42
-0.006093
  0
VERTEX
  8
0
 10
567.121108
 20
280.592591
 42
-0.002635
  0
VERTEX
  8
0
 10
566.101718
 20
282.314195
 42
-0.133111
  0
VERTEX
  8
0
 10
566.000000
 20
282.689504
 42
0.169298
  0
VERTEX
  8
0
 10
565.639573
 20
283.723473
 42
0.001672
  0
VERTEX
  8
0
 10
560.667375
 20
289.945970
 42
0.005691
  0
VERTEX
  8
0
 10
555.169855
 20
296.621911
 42
0.005161
  0
VERTEX
  8
0
 10
549.342099
 20
303.393861
 42
0.026629
  0
VERTEX
  8
0
 10
537.945353
 20
315.049480
 42
0.025207
  0
VERTEX
  8
0
 10
525.171753
 20
325.656091
 42
0.024608
  0
VERTEX
  8
0
 10
511.082563
 20
335.158441
 42
0.022696
  0
VERTEX
  8
0
 10
495.750000
 20
343.510313
 42
0.000000
  0
VERTEX
  8
0
 10
486.000000
 20
348.260967
 42
0.000000
  0
VERTEX
  8
0
 10
485.989176
 20
353.380483
 42
0.066970
  0
VERTEX
  8
0
 10
484.737404
 20
362.537837
 42
0.050427
  0
VERTEX
  8
0
 10
481.055203
 20
372.021203
 42
0.051912
  0
VERTEX
  8
0
 10
475.749866
 20
380.210365
 42
0.091462
  0
VERTEX
  8
0
 10
469.654836
 20
385.446973
 42
0.026840
  0
VERTEX
  8
0
 10
462.979236
 20
388.869126
 42
0.047871
  0
VERTEX
  8
0
 10
457.134785
 20
390.834299
 42
0.044416
  0
VERTEX
  8
0
 10
450.730845
 20
391.736279
 42
0.019894
  0
VERTEX
  8
0
 10
442.220025
 20
391.833064
 42
0.006943
  0
VERTEX
  8
0
 10
435.554633
 20
391.550968
 42
0.028650
  0
VERTEX
  8
0
 10
431.546086
 20
391.094163
 42
0.040713
  0
VERTEX
  8
0
 10
428.350271
 20
390.270870
 42
0.026210
  0
VERTEX
  8
0
 10
424.803788
 20
388.829949
 42
0.053636
  0
VERTEX
  8
0
 10
419.448653
 20
385.579762
 42
0.037027
  0
VERTEX
  8
0
 10
414.143555
 20
380.863691
 42
0.036051
  0
VERTEX
  8
0
 10
409.423515
 20
375.237279
 42
0.041758
  0
VERTEX
  8
0
 10
405.814334
 20
369.250000
 42
-0.010756
  0
VERTEX
  8
0
 10
403.946360
 20
365.666554
 42
-0.067445
  0
VERTEX
  8
0
 10
402.721513
 20
364.010147
 42
-0.120858
  0
VERTEX
  8
0
 10
401.429686
 20
363.202322
 42
-0.069440
  0
VERTEX
  8
0
 10
399.612723
 20
362.872377
 42
0.010824
  0
VERTEX
  8
0
 10
396.663600
 20
362.687448
 42
0.013982
  0
VERTEX
  8
0
 10
393.968149
 20
362.383649
 42
0.007753
  0
VERTEX
  8
0
 10
390.296516
 20
361.807304
 42
0.001183
  0
VERTEX
  8
0
 10
383.000000
 20
360.527947
 42
-0.001464
  0
VERTEX
  8
0
 10
379.228095
 20
359.868773
 42
-0.001878
  0
VERTEX
  8
0
 10
375.752906
 20
359.285365
 42
-0.001443
  0
VERTEX
  8
0
 10
372.836696
 20
358.815688
 42
-0.016115
  0
VERTEX
  8
0
 10
371.669468
 20
358.669525
 42
-0.363440
  0
VERTEX
  8
0
 10
370.588020
 20
359.417108
 42
-0.046535
  0
VERTEX
  8
0
 10
370.055774
 20
362.414327
 42
-0.016113
  0
VERTEX
  8
0
 10
369.746075
 20
368.539218
 42
-0.001243
  0
VERTEX
  8
0
 10
369.485782
 20
385.000000
 42
0.004269
  0
VERTEX
  8
0
 10
369.123466
 20
401.568723
 42
0.011133
  0
VERTEX
  8
0
 10
368.496037
 20
413.470920
 42
0.014675
  0
VERTEX
  8
0
 10
367.480903
 20
423.170438
 42
0.016081
  0
VERTEX
  8
0
 10
365.919879
 20
432.500000
 42
-0.001424
  0
VERTEX
  8
0
 10
365.470080
 20
434.776200
 42
-0.000838
  0
VERTEX
  8
0
 10
364.944619
 20
437.500000
 42
-0.000838
  0
VERTEX
  8
0
 10
364.428598
 20
440.223899
 42
-0.001431
  0
VERTEX
  8
0
 10
364.008098
 20
442.500000
 42
0.008624
  0
VERTEX
  8
0
 10
363.553699
 20
444.775853
 42
0.004972
  0
VERTEX
  8
0
 10
362.932331
 20
447.500000
 42
0.004966
  0
VERTEX
  8
0
 10
362.253914
 20
450.223418
 42
0.008285
  0
VERTEX
  8
0
 10
361.622284
 20
452.500000
 42
-0.000073
  0
VERTEX
  8
0
 10
360.970994
 20
454.706139
 42
-0.000050
  0
VERTEX
  8
0
 10
360.233590
 20
457.206250
 42
-0.000051
  0
VERTEX
  8
0
 10
359.524600
 20
459.611820
 42
-0.000104
  0
VERTEX
  8
0
 10
358.968734
 20
461.500000
 42
0.008278
  0
VERTEX
  8
0
 10
358.467660
 20
463.104746
 42
0.009513
  0
VERTEX
  8
0
 10
357.935111
 20
464.618750
 42
0.008733
  0
VERTEX
  8
0
 10
357.438022
 20
465.882626
 42
0.052948
  0
VERTEX
  8
0
 10
357.102364
 20
466.500000
 42
-0.051959
  0
VERTEX
  8
0
 10
356.739289
 20
467.164673
 42
-0.005360
  0
VERTEX
  8
0
 10
356.066959
 20
468.821875
 42
-0.006628
  0
VERTEX
  8
0
 10
355.311312
 20
470.820702
 42
-0.005251
  0
VERTEX
  8
0
 10
354.546096
 20
473.000000
 42
0.032745
  0
VERTEX
  8
0
 10
351.048530
 20
481.445150
 42
0.014674
  0
VERTEX
  8
0
 10
345.417101
 20
492.067950
 42
0.014720
  0
VERTEX
  8
0
 10
339.087776
 20
502.478984
 42
0.028558
  0
VERTEX
  8
0
 10
333.332417
 20
510.326725
 42
-0.023887
  0
VERTEX
  8
0
 10
332.439684
 20
511.520484
 42
-0.025460
  0
VERTEX
  8
0
 10
331.685148
 20
512.769480
 42
-0.026151
  0
VERTEX
  8
0
 10
331.151338
 20
513.902659
 42
-0.097292
  0
VERTEX
  8
0
 10
331.000000
 20
514.673043
 42
-0.141802
  0
VERTEX
  8
0
 10
331.258172
 20
515.565064
 42
-0.012289
  0
VERTEX
  8
0
 10
332.584136
 20
517.553899
 42
-0.015401
  0
VERTEX
  8
0
 10
334.327247
 20
519.878517
 42
-0.011349
  0
VERTEX
  8
0
 10
336.392803
 20
522.346317
 42
0.020208
  0
VERTEX
  8
0
 10
341.383920
 20
528.528684
 42
0.052439
  0
VERTEX
  8
0
 10
344.294002
 20
533.450237
 42
0.063748
  0
VERTEX
  8
0
 10
345.794227
 20
538.267833
 42
0.043668
  0
VERTEX
  8
0
 10
346.294118
 20
543.980636
 42
0.021117
  0
VERTEX
  8
0
 10
346.127152
 20
547.932140
 42
0.041565
  0
VERTEX
  8
0
 10
345.603198
 20
551.030185
 42
0.035458
  0
VERTEX
  8
0
 10
344.514167
 20
554.299950
 42
0.011594
  0
VERTEX
  8
0
 10
342.461538
 20
558.951504
 42
0.048715
  0
VERTEX
  8
0
 10
337.627894
 20
567.086723
 42
0.074261
  0
VERTEX
  8
0
 10
331.850767
 20
572.906519
 42
0.075151
  0
VERTEX
  8
0
 10
324.679301
 20
576.739141
 42
0.051186
  0
VERTEX
  8
0
 10
315.677641
 20
578.927758
 42
0.001285
  0
VERTEX
  8
0
 10
312.665942
 20
579.332702
 42
0.002077
  0
VERTEX
  8
0
 10
310.100917
 20
579.660047
 42
0.000316
  0
VERTEX
  8
0
 10
307.826127
 20
579.939297
 42
0.142967
  0
VERTEX
  8
0
 10
307.677641
 20
579.914955
 42
-0.047091
  0
VERTEX
  8
0
 10
307.533958
 20
579.862117
 42
-0.000248
  0
VERTEX
  8
0
 10
306.083432
 20
579.479686
 42
-0.001098
  0
VERTEX
  8
0
 10
304.429425
 20
579.048367
 42
-0.000696
  0
SEQEND
  0
POLYLINE
  8
0
 66
1
 70
1
  0
VERTEX
  8
0
 10
321.971181
 20
568.519972
 42
-0.051124
  0
VERTEX
  8
0
 10
326.100128
 20
564.984125
 42
-0.018949
  0
VERTEX
  8
0
 10
331.167120
 20
559.236811
 42
-0.018111
  0
VERTEX
  8
0
 10
335.707771
 20
553.244758
 42
-0.070010
  0
VERTEX
  8
0
 10
337.825570
 20
549.100777
 42
-0.049811
  0
VERTEX
  8
0
 10
338.668131
 20
545.552202
 42
-0.032457
  0
VERTEX
  8
0
 10
338.957376
 20
541.347820
 42
-0.032426
  0
VERTEX
  8
0
 10
338.716010
 20
537.398067
 42
-0.091639
  0
VERTEX
  8
0
 10
337.879948
 20
534.775680
 42
-0.029770
  0
VERTEX
  8
0
 10
337.251647
 20
533.753008
 42
-0.010247
  0
VERTEX
  8
0
 10
336.227010
 20
532.350449
 42
-0.010141
  0
VERTEX
  8
0
 10
335.031245
 20
530.846424
 42
-0.011578
  0
VERTEX
  8
0
 10
333.825765
 20
529.458452
 42
0.004588
  0
VERTEX
  8
0
 10
332.609874
 20
528.097396
 42
0.004204
  0
VERTEX
  8
0
 10
331.382848
 20
526.674280
 42
0.004204
  0
VERTEX
  8
0
 10
330.309064
 20
525.385706
 42
0.013737
  0
VERTEX
  8
0
 10
329.629720
 20
524.508290
 42
-0.139111
  0
VERTEX
  8
0
 10
328.155181
 20
523.356845
 42
-0.163192
  0
VERTEX
  8
0
 10
326.392512
 20
523.245657
 42
-0.143233
  0
VERTEX
  8
0
 10
324.748187
 20
524.242671
 42
-0.101100
  0
VERTEX
  8
0
 10
323.631163
 20
526.107474
 42
-0.062199
  0
VERTEX
  8
0
 10
323.306943
 20
527.599802
 42
-0.087921
  0
VERTEX
  8
0
 10
323.423098
 20
528.951924
 42
-0.064256
  0
VERTEX
  8
0
 10
324.046986
 20
530.472196
 42
-0.019775
  0
VERTEX
  8
0
 10
325.360499
 20
532.579894
 42
0.031594
  0
VERTEX
  8
0
 10
326.702597
 20
534.851286
 42
0.053620
  0
VERTEX
  8
0
 10
327.486521
 20
536.912822
 42
0.046289
  0
VERTEX
  8
0
 10
327.880403
 20
539.297018
 42
0.017805
  0
VERTEX
  8
0
 10
328.000000
 20
542.654395
 42
0.017333
  0
VERTEX
  8
0
 10
327.876023
 20
546.229648
 42
0.058483
  0
VERTEX
  8
0
 10
327.443934
 20
548.523867
 42
0.063809
  0
VERTEX
  8
0
 10
326.514025
 20
550.549163
 42
0.023433
  0
VERTEX
  8
0
 10
324.720873
 20
553.143745
 42
0.036119
  0
VERTEX
  8
0
 10
320.724523
 20
557.665440
 42
0.063636
  0
VERTEX
  8
0
 10
316.754729
 20
560.668831
 42
0.071002
  0
VERTEX
  8
0
 10
312.480375
 20
562.370211
 42
0.057923
  0
VERTEX
  8
0
 10
307.587858
 20
562.966779
 42
0.054233
  0
VERTEX
  8
0
 10
302.509529
 20
562.443179
 42
0.066764
  0
VERTEX
  8
0
 10
298.030123
 20
560.836270
 42
0.065397
  0
VERTEX
  8
0
 10
294.062326
 20
558.072700
 42
0.049250
  0
VERTEX
  8
0
 10
290.500000
 20
554.119163
 42
-0.050353
  0
VERTEX
  8
0
 10
288.027854
 20
551.387641
 42
-0.121044
  0
VERTEX
  8
0
 10
285.641095
 20
550.103313
 42
-0.209184
  0
VERTEX
  8
0
 10
283.738447
 20
550.409718
 42
-0.174586
  0
VERTEX
  8
0
 10
282.484460
 20
552.048963
 42
-0.227239
  0
VERTEX
  8
0
 10
283.073947
 20
556.245494
 42
-0.050977
  0
VERTEX
  8
0
 10
287.788761
 20
561.977790
 42
-0.048041
  0
VERTEX
  8
0
 10
294.561282
 20
567.506331
 42
-0.054362
  0
VERTEX
  8
0
 10
302.000000
 20
571.378903
 42
-0.076981
  0
VERTEX
  8
0
 10
302.958120
 20
571.590857
 42
-0.008732
  0
VERTEX
  8
0
 10
305.182436
 20
571.694561
 42
-0.010401
  0
VERTEX
  8
0
 10
307.850117
 20
571.716766
 42
-0.008284
  0
VERTEX
  8
0
 10
310.727441
 20
571.633168
 42
-0.014355
  0
VERTEX
  8
0
 10
314.664251
 20
571.340038
 42
-0.041796
  0
VERTEX
  8
0
 10
317.341533
 20
570.834653
 42
-0.051539
  0
VERTEX
  8
0
 10
319.571883
 20
569.961612
 42
-0.032492
  0
SEQEND
  0
POLYLINE
  8
0
 66
1
 70
1
  0
VERTEX
  8
0
 10
227.500000
 20
560.701984
 42
0.008801
  0
VERTEX
  8
0
 10
230.333116
 20
560.022797
 42
0.004392
  0
VERTEX
  8
0
 10
233.940625
 20
559.258009
 42
0.004359
  0
VERTEX
  8
0
 10
237.690929
 20
558.531288
 42
0.006407
  0
VERTEX
  8
0
 10
241.000000
 20
557.963691
 42
-0.039348
  0
VERTEX
  8
0
 10
255.075105
 20
554.583101
 42
-0.037365
  0
VERTEX
  8
0
 10
268.702693
 20
548.996252
 42
-0.030937
  0
VERTEX
  8
0
 10
283.426472
 20
540.455779
 42
-0.015413
  0
VERTEX
  8
0
 10
301.000000
 20
527.954991
 42
-0.017133
  0
VERTEX
  8
0
 10
314.929319
 20
516.612683
 42
-0.033257
  0
VERTEX
  8
0
 10
325.084714
 20
506.482840
 42
-0.036106
  0
VERTEX
  8
0
 10
333.264687
 20
495.677548
 42
-0.024574
  0
VERTEX
  8
0
 10
341.017482
 20
482.344032
 42
-0.015814
  0
VERTEX
  8
0
 10
344.598181
 20
474.853281
 42
-0.011929
  0
VERTEX
  8
0
 10
348.070452
 20
466.416237
 42
-0.012118
  0
VERTEX
  8
0
 10
351.035306
 20
458.096463
 42
-0.020672
  0
VERTEX
  8
0
 10
353.051038
 20
451.000000
 42
0.000033
  0
VERTEX
  8
0
 10
353.478776
 20
449.217284
 42
0.000011
  0
VERTEX
  8
0
 10
354.102500
 20
446.618750
 42
0.000011
  0
VERTEX
  8
0
 10
354.792367
 20
443.745213
 42
0.000013
  0
VERTEX
  8
0
 10
355.451563
 20
441.000000
 42
-0.017136
  0
VERTEX
  8
0
 10
358.068770
 20
428.182493
 42
-0.017721
  0
VERTEX
  8
0
 10
359.767728
 20
415.358412
 42
-0.015310
  0
VERTEX
  8
0
 10
360.717864
 20
400.908185
 42
-0.008166
  0
VERTEX
  8
0
 10
361.052909
 20
383.000000
 42
0.000000
  0
VERTEX
  8
0
 10
361.113460
 20
357.500000
 42
0.000000
  0
VERTEX
  8
0
 10
358.040954
 20
354.750000
 42
-0.022799
  0
VERTEX
  8
0
 10
356.751110
 20
353.697371
 42
-0.025492
  0
VERTEX
  8
0
 10
355.416514
 20
352.807813
 42
-0.025982
  0
VERTEX
  8
0
 10
354.214804
 20
352.174550
 42
-0.108684
  0
VERTEX
  8
0
 10
353.421274
 20
352.000000
 42
0.122219
  0
VERTEX
  8
0
 10
349.076415
 20
350.921845
 42
0.006103
  0
VERTEX
  8
0
 10
336.089536
 20
343.849507
 42
0.008387
  0
VERTEX
  8
0
 10
323.591895
 20
336.566379
 42
0.069226
  0
VERTEX
  8
0
 10
318.500000
 20
332.426390
 42
-0.021063
  0
VERTEX
  8
0
 10
317.807237
 20
331.742762
 42
-0.001410
  0
VERTEX
  8
0
 10
315.737500
 20
329.876220
 42
-0.002029
  0
VERTEX
  8
0
 10
313.254065
 20
327.667372
 42
-0.001517
  0
VERTEX
  8
0
 10
310.500000
 20
325.252582
 42
0.011240
  0
VERTEX
  8
0
 10
307.455242
 20
322.476355
 42
0.007487
  0
VERTEX
  8
0
 10
304.087500
 20
319.166344
 42
0.007539
  0
VERTEX
  8
0
 10
300.915264
 20
315.855296
 42
0.014618
  0
VERTEX
  8
0
 10
298.500000
 20
313.099711
 42
-0.015687
  0
VERTEX
  8
0
 10
296.347195
 20
310.654129
 42
-0.015004
  0
VERTEX
  8
0
 10
294.014063
 20
308.310678
 42
-0.015127
  0
VERTEX
  8
0
 10
291.831920
 20
306.368243
 42
-0.050777
  0
VERTEX
  8
0
 10
290.250000
 20
305.296115
 42
0.017185
  0
VERTEX
  8
0
 10
289.005058
 20
304.569142
 42
0.024338
  0
VERTEX
  8
0
 10
287.954687
 20
303.832576
 42
0.022108
  0
VERTEX
  8
0
 10
287.172138
 20
303.167488
 42
0.208482
  0
VERTEX
  8
0
 10
287.000000
 20
302.772596
 42
-0.135825
  0
VERTEX
  8
0
 10
286.918462
 20
302.477974
 42
-0.100334
  0
VERTEX
  8
0
 10
286.689256
 20
302.226950
 42
-0.086677
  0
VERTEX
  8
0
 10
286.346413
 20
302.057992
 42
-0.071361
  0
VERTEX
  8
0
 10
285.942150
 20
302.000000
 42
0.131025
  0
VERTEX
  8
0
 10
285.234780
 20
301.811396
 42
0.003766
  0
VERTEX
  8
0
 10
282.518928
 20
300.225013
 42
0.007379
  0
VERTEX
  8
0
 10
279.341719
 20
298.272891
 42
0.004985
  0
VERTEX
  8
0
 10
275.774122
 20
295.957490
 42
-0.009401
  0
VERTEX
  8
0
 10
272.191700
 20
293.677179
 42
-0.014027
  0
VERTEX
  8
0
 10
268.969351
 20
291.832221
 42
-0.008961
  0
VERTEX
  8
0
 10
266.250403
 20
290.437321
 42
-0.208573
  0
VERTEX
  8
0
 10
265.401959
 20
290.399248
 42
-0.236875
  0
VERTEX
  8
0
 10
264.807507
 20
291.051312
 42
-0.026497
  0
VERTEX
  8
0
 10
264.353732
 20
293.070540
 42
-0.022801
  0
VERTEX
  8
0
 10
263.990509
 20
296.021309
 42
-0.008497
  0
VERTEX
  8
0
 10
263.740439
 20
300.191759
 42
0.017116
  0
VERTEX
  8
0
 10
263.244697
 20
306.606836
 42
0.040016
  0
VERTEX
  8
0
 10
262.329959
 20
311.328988
 42
0.043613
  0
VERTEX
  8
0
 10
260.731184
 20
315.595868
 42
0.024112
  0
VERTEX
  8
0
 10
258.090839
 20
320.500000
 42
0.030299
  0
VERTEX
  8
0
 10
255.700600
 20
323.973787
 42
0.054498
  0
VERTEX
  8
0
 10
253.290196
 20
326.448934
 42
0.046345
  0
VERTEX
  8
0
 10
250.140267
 20
328.590707
 42
0.016353
  0
VERTEX
  8
0
 10
245.271957
 20
331.074744
 42
0.066456
  0
VERTEX
  8
0
 10
236.571794
 20
333.827055
 42
0.090406
  0
VERTEX
  8
0
 10
228.356921
 20
333.772424
 42
0.090769
  0
VERTEX
  8
0
 10
220.714058
 20
330.825479
 42
0.067531
  0
VERTEX
  8
0
 10
213.690374
 20
325.100072
 42
0.040855
  0
VERTEX
  8
0
 10
209.001676
 20
319.186257
 42
0.043592
  0
VERTEX
  8
0
 10
205.451152
 20
312.711177
 42
0.042188
  0
VERTEX
  8
0
 10
202.989762
 20
305.527733
 42
0.034093
  0
VERTEX
  8
0
 10
201.548664
 20
297.500000
 42
-0.016195
  0
VERTEX
  8
0
 10
200.862242
 20
292.693451
 42
-0.012930
  0
VERTEX
  8
0
 10
199.821759
 20
287.563167
 42
-0.008194
  0
VERTEX
  8
0
 10
198.676346
 20
282.929664
 42
-0.132433
  0
VERTEX
  8
0
 10
197.881645
 20
281.548311
 42
-0.166289
  0
VERTEX
  8
0
 10
196.288997
 20
280.767480
 42
-0.010242
  0
VERTEX
  8
0
 10
190.966946
 20
280.202353
 42
-0.009779
  0
VERTEX
  8
0
 10
182.877914
 20
279.669733
 42
-0.002288
  0
VERTEX
  8
0
 10
169.304288
 20
279.104527
 42
-0.005142
  0
VERTEX
  8
0
 10
153.147454
 20
278.672147
 42
-0.009267
  0
VERTEX
  8
0
 10
139.898642
 20
278.699465
 42
-0.009926
  0
VERTEX
  8
0
 10
129.611858
 20
279.115761
 42
-0.051308
  0
VERTEX
  8
0
 10
124.000000
 20
280.037680
 42
0.049536
  0
VERTEX
  8
0
 10
121.764097
 20
280.413119
 42
0.005040
  0
VERTEX
  8
0
 10
116.387500
 20
280.721488
 42
0.006263
  0
VERTEX
  8
0
 10
109.957415
 20
280.944612
 42
0.004954
  0
VERTEX
  8
0
 10
103.000000
 20
281.029858
 42
-0.003842
  0
VERTEX
  8
0
 10
94.276765
 20
281.117334
 42
-0.013917
  0
VERTEX
  8
0
 10
88.732517
 20
281.370012
 42
-0.019914
  0
VERTEX
  8
0
 10
85.028849
 20
281.791058
 42
-0.091830
  0
VERTEX
  8
0
 10
83.000000
 20
282.500000
 42
0.043611
  0
VERTEX
  8
0
 10
81.806135
 20
283.050639
 42
0.024199
  0
VERTEX
  8
0
 10
80.271182
 20
283.519732
 42
0.023968
  0
VERTEX
  8
0
 10
78.659083
 20
283.846989
 42
0.035401
  0
VERTEX
  8
0
 10
77.221045
 20
283.964565
 42
-0.067198
  0
VERTEX
  8
0
 10
72.300710
 20
284.683063
 42
-0.014804
  0
VERTEX
  8
0
 10
64.152018
 20
287.282556
 42
-0.016184
  0
VERTEX
  8
0
 10
55.862677
 20
290.505071
 42
-0.035703
  0
VERTEX
  8
0
 10
49.824150
 20
293.606823
 42
-0.043665
  0
VERTEX
  8
0
 10
42.366060
 20
299.080885
 42
-0.037182
  0
VERTEX
  8
0
 10
35.526923
 20
306.049431
 42
-0.037763
  0
VERTEX
  8
0
 10
30.470713
 20
313.039711
 42
-0.138555
  0
VERTEX
  8
0
 10
29.000000
 20
318.245136
 42
0.057149
  0
VERTEX
  8
0
 10
28.932539
 20
318.833429
 42
0.038131
  0
VERTEX
  8
0
 10
28.728950
 20
319.481071
 42
0.038239
  0
VERTEX
  8
0
 10
28.430682
 20
320.087288
 42
0.059358
  0
VERTEX
  8
0
 10
28.077276
 20
320.550000
 42
-0.181402
  0
VERTEX
  8
0
 10
27.328379
 20
322.263993
 42
-0.005072
  0
VERTEX
  8
0
 10
26.976363
 20
330.466611
 42
-0.008676
  0
VERTEX
  8
0
 10
26.813236
 20
341.062536
 42
-0.003884
  0
VERTEX
  8
0
 10
26.948782
 20
355.000000
 42
0.006312
  0
VERTEX
  8
0
 10
26.978332
 20
361.068484
 42
0.010038
  0
VERTEX
  8
0
 10
26.833851
 20
366.258997
 42
0.009308
  0
VERTEX
  8
0
 10
26.558971
 20
370.385297
 42
0.072108
  0
VERTEX
  8
0
 10
26.121218
 20
372.262510
 42
-0.081435
  0
VERTEX
  8
0
 10
24.121045
 20
381.621267
 42
-0.008351
  0
VERTEX
  8
0
 10
23.409649
 20
404.312409
 42
-0.009664
  0
VERTEX
  8
0
 10
23.515623
 20
426.912135
 42
-0.057849
  0
VERTEX
  8
0
 10
25.150793
 20
438.550310
 42
0.009925
  0
VERTEX
  8
0
 10
25.598932
 20
440.419509
 42
0.004910
  0
VERTEX
  8
0
 10
26.097250
 20
442.808529
 42
0.004871
  0
VERTEX
  8
0
 10
26.565812
 20
445.297531
 42
0.007105
  0
VERTEX
  8
0
 10
26.926045
 20
447.500000
 42
-0.011727
  0
VERTEX
  8
0
 10
27.289066
 20
449.597628
 42
-0.010351
  0
VERTEX
  8
0
 10
27.763680
 20
451.765625
 42
-0.010454
  0
VERTEX
  8
0
 10
28.272846
 20
453.702012
 42
-0.030785
  0
VERTEX
  8
0
 10
28.731387
 20
455.000000
 42
0.013654
  0
VERTEX
  8
0
 10
29.228391
 20
456.266969
 42
0.004970
  0
VERTEX
  8
0
 10
29.865396
 20
458.087500
 42
0.004924
  0
VERTEX
  8
0
 10
30.523166
 20
460.093870
 42
0.005859
  0
VERTEX
  8
0
 10
31.102861
 20
462.000000
 42
-0.033729
  0
VERTEX
  8
0
 10
33.998400
 20
469.909095
 42
-0.015130
  0
VERTEX
  8
0
 10
38.801948
 20
479.887918
 42
-0.015041
  0
VERTEX
  8
0
 10
44.449062
 20
490.008013
 42
-0.022167
  0
VERTEX
  8
0
 10
50.053835
 20
498.500000
 42
-0.013656
  0
VERTEX
  8
0
 10
55.622786
 20
505.749850
 42
-0.019690
  0
VERTEX
  8
0
 10
60.965068
 20
511.820093
 42
-0.019395
  0
VERTEX
  8
0
 10
66.830530
 20
517.518343
 42
-0.012697
  0
VERTEX
  8
0
 10
74.000000
 20
523.640449
 42
-0.007297
  0
VERTEX
  8
0
 10
82.161496
 20
530.063698
 42
-0.019523
  0
VERTEX
  8
0
 10
88.212729
 20
534.321375
 42
-0.019849
  0
VERTEX
  8
0
 10
94.520549
 20
538.054676
 42
-0.007766
  0
VERTEX
  8
0
 10
103.500000
 20
542.720144
 42
-0.004287
  0
VERTEX
  8
0
 10
110.613256
 20
546.200874
 42
-0.008210
  0
VERTEX
  8
0
 10
116.390661
 20
548.851079
 42
-0.007794
  0
VERTEX
  8
0
 10
122.444769
 20
551.396983
 42
-0.003466
  0
VERTEX
  8
0
 10
130.500000
 20
554.572909
 42
-0.026545
  0
VERTEX
  8
0
 10
133.632721
 20
555.595598
 42
-0.007307
  0
VERTEX
  8
0
 10
138.661293
 20
556.868122
 42
-0.007715
  0
VERTEX
  8
0
 10
144.013715
 20
558.052743
 42
-0.013353
  0
VERTEX
  8
0
 10
148.500000
 20
558.849100
 42
0.013444
  0
VERTEX
  8
0
 10
150.560937
 20
559.215322
 42
0.013072
  0
VERTEX
  8
0
 10
152.618750
 20
559.694736
 42
0.013085
  0
VERTEX
  8
0
 10
154.403860
 20
560.210373
 42
0.046444
  0
VERTEX
  8
0
 10
155.500000
 20
560.674061
 42
-0.077152
  0
VERTEX
  8
0
 10
156.712780
 20
561.101719
 42
-0.013620
  0
VERTEX
  8
0
 10
159.103318
 20
561.482044
 42
-0.014466
  0
VERTEX
  8
0
 10
161.956104
 20
561.772904
 42
-0.012568
  0
VERTEX
  8
0
 10
164.958103
 20
561.915730
 42
0.007094
  0
VERTEX
  8
0
 10
167.855288
 20
562.021800
 42
0.010575
  0
VERTEX
  8
0
 10
170.384570
 20
562.204052
 42
0.005918
  0
VERTEX
  8
0
 10
172.489430
 20
562.425703
 42
0.177404
  0
VERTEX
  8
0
 10
172.958103
 20
562.662541
 42
-0.205999
  0
VERTEX
  8
0
 10
173.483040
 20
562.892412
 42
-0.000744
  0
VERTEX
  8
0
 10
180.390818
 20
562.926573
 42
-0.003715
  0
VERTEX
  8
0
 10
188.260077
 20
562.895306
 42
-0.002303
  0
VERTEX
  8
0
 10
197.500000
 20
562.747370
 42
-0.003410
  0
VERTEX
  8
0
 10
208.926657
 20
562.433786
 42
-0.008454
  0
VERTEX
  8
0
 10
217.288933
 20
562.005550
 42
-0.010985
  0
VERTEX
  8
0
 10
223.449463
 20
561.449327
 42
-0.035234
  0
SEQEND
  0
POLYLINE
  8
0
 66
1
 70
1
  0
VERTEX
  8
0
 10
67.306870
 20
547.920127
 42
-0.016978
  0
VERTEX
  8
0
 10
69.274667
 20
546.518335
 42
-0.012779
  0
VERTEX
  8
0
 10
71.343170
 20
544.850782
 42
-0.012959
  0
VERTEX
  8
0
 10
73.209251
 20
543.180922
 42
-0.028861
  0
VERTEX
  8
0
 10
74.518016
 20
541.796220
 42
-0.016795
  0
VERTEX
  8
0
 10
75.946262
 20
539.978266
 42
-0.103633
  0
VERTEX
  8
0
 10
76.434759
 20
538.901218
 42
-0.152307
  0
VERTEX
  8
0
 10
76.353211
 20
537.921146
 42
-0.050046
  0
VERTEX
  8
0
 10
75.670221
 20
536.626093
 42
-0.075289
  0
VERTEX
  8
0
 10
74.092480
 20
534.882893
 42
-0.187334
  0
VERTEX
  8
0
 10
72.484173
 20
534.359698
 42
-0.136309
  0
VERTEX
  8
0
 10
70.580282
 20
535.005059
 42
-0.033831
  0
VERTEX
  8
0
 10
67.965707
 20
537.056960
 42
0.031724
  0
VERTEX
  8
0
 10
64.394256
 20
539.884187
 42
0.036378
  0
VERTEX
  8
0
 10
60.647838
 20
542.096719
 42
0.040035
  0
VERTEX
  8
0
 10
57.058311
 20
543.533370
 42
0.075312
  0
VERTEX
  8
0
 10
53.977913
 20
544.000000
 42
0.081546
  0
VERTEX
  8
0
 10
50.545332
 20
543.436427
 42
0.026624
  0
VERTEX
  8
0
 10
45.761924
 20
541.533086
 42
0.026950
  0
VERTEX
  8
0
 10
41.164539
 20
539.105511
 42
0.071528
  0
VERTEX
  8
0
 10
38.288465
 20
536.767716
 42
0.038069
  0
VERTEX
  8
0
 10
36.182396
 20
534.105888
 42
0.024912
  0
VERTEX
  8
0
 10
34.158007
 20
530.754913
 42
0.025084
  0
VERTEX
  8
0
 10
32.507892
 20
527.281197
 42
0.044307
  0
VERTEX
  8
0
 10
31.556083
 20
524.255346
 42
0.098184
  0
VERTEX
  8
0
 10
31.491488
 20
521.099206
 42
0.084047
  0
VERTEX
  8
0
 10
32.611247
 20
517.963402
 42
0.060715
  0
VERTEX
  8
0
 10
35.090992
 20
514.576293
 42
0.024720
  0
VERTEX
  8
0
 10
39.205702
 20
510.601273
 42
0.000000
  0
VERTEX
  8
0
 10
44.464071
 20
506.001380
 42
0.000000
  0
VERTEX
  8
0
 10
42.803528
 20
503.250690
 42
-0.040033
  0
VERTEX
  8
0
 10
42.031720
 20
502.176751
 42
-0.038353
  0
VERTEX
  8
0
 10
41.088318
 20
501.222802
 42
-0.040858
  0
VERTEX
  8
0
 10
40.122294
 20
500.514579
 42
-0.099106
  0
VERTEX
  8
0
 10
39.296341
 20
500.209914
 42
-0.212718
  0
VERTEX
  8
0
 10
37.158634
 20
500.786316
 42
-0.019746
  0
VERTEX
  8
0
 10
32.954203
 20
504.489137
 42
-0.025999
  0
VERTEX
  8
0
 10
28.909680
 20
508.767784
 42
-0.057194
  0
VERTEX
  8
0
 10
26.405201
 20
512.500000
 42
-0.091416
  0
VERTEX
  8
0
 10
25.223467
 20
516.396878
 42
-0.028841
  0
VERTEX
  8
0
 10
24.890989
 20
522.497493
 42
-0.029026
  0
VERTEX
  8
0
 10
25.266596
 20
528.621542
 42
-0.086074
  0
VERTEX
  8
0
 10
26.470064
 20
532.639538
 42
-0.049578
  0
VERTEX
  8
0
 10
29.013001
 20
536.679275
 42
-0.027070
  0
VERTEX
  8
0
 10
32.855936
 20
541.105148
 42
-0.026936
  0
VERTEX
  8
0
 10
37.220764
 20
545.153461
 42
-0.043323
  0
VERTEX
  8
0
 10
41.385098
 20
548.047546
 42
-0.023422
  0
VERTEX
  8
0
 10
44.487966
 20
549.639006
 42
-0.051947
  0
VERTEX
  8
0
 10
47.005488
 20
550.482456
 42
-0.042856
  0
VERTEX
  8
0
 10
49.928246
 20
550.875921
 42
-0.011749
  0
VERTEX
  8
0
 10
54.578555
 20
550.990616
 42
-0.010612
  0
VERTEX
  8
0
 10
59.368626
 20
550.894503
 42
-0.048895
  0
VERTEX
  8
0
 10
62.113762
 20
550.510457
 42
-0.062560
  0
VERTEX
  8
0
 10
64.402650
 20
549.644555
 42
-0.024605
  0
SEQEND
  0
POLYLINE
  8
0
 66
1
 70
1
  0
VERTEX
  8
0
 10
448.000000
 20
351.272016
 42
0.019699
  0
VERTEX
  8
0
 10
449.350386
 20
350.745126
 42
0.005334
  0
VERTEX
  8
0
 10
451.528125
 20
350.018731
 42
0.005390
  0
VERTEX
  8
0
 10
454.019531
 20
349.246674
 42
0.005569
  0
VERTEX
  8
0
 10
456.500000
 20
348.537203
 42
-0.015885
  0
VERTEX
  8
0
 10
473.746858
 20
343.216966
 42
-0.023222
  0
VERTEX
  8
0
 10
488.518373
 20
337.361191
 42
-0.024300
  0
VERTEX
  8
0
 10
502.168340
 20
330.385401
 42
-0.020084
  0
VERTEX
  8
0
 10
516.000000
 20
321.690487
 42
-0.036632
  0
VERTEX
  8
0
 10
526.903209
 20
312.970519
 42
-0.012468
  0
VERTEX
  8
0
 10
541.432668
 20
298.803696
 42
-0.008518
  0
VERTEX
  8
0
 10
555.221314
 20
284.181423
 42
-0.111680
  0
VERTEX
  8
0
 10
558.877281
 20
277.745383
 42
0.056292
  0
VERTEX
  8
0
 10
559.141050
 20
277.132847
 42
0.017444
  0
VERTEX
  8
0
 10
559.669638
 20
276.278331
 42
0.017200
  0
VERTEX
  8
0
 10
560.331835
 20
275.357116
 42
0.018122
  0
VERTEX
  8
0
 10
561.044867
 20
274.500000
 42
-0.060323
  0
VERTEX
  8
0
 10
563.713545
 20
270.678708
 42
-0.005493
  0
VERTEX
  8
0
 10
569.067080
 20
260.348817
 42
-0.007570
  0
VERTEX
  8
0
 10
574.191898
 20
249.794140
 42
-0.023715
  0
VERTEX
  8
0
 10
577.185590
 20
242.500000
 42
0.000246
  0
VERTEX
  8
0
 10
578.232770
 20
239.563322
 42
0.000222
  0
VERTEX
  8
0
 10
579.318287
 20
236.528125
 42
0.000223
  0
VERTEX
  8
0
 10
580.292778
 20
233.810994
 42
0.000712
  0
VERTEX
  8
0
 10
580.946109
 20
232.000000
 42
-0.032962
  0
VERTEX
  8
0
 10
583.202978
 20
224.202931
 42
-0.013245
  0
VERTEX
  8
0
 10
585.292769
 20
213.299238
 42
-0.013186
  0
VERTEX
  8
0
 10
586.901779
 20
201.585209
 42
-0.018203
  0
VERTEX
  8
0
 10
587.683652
 20
191.000000
 42
-0.014140
  0
VERTEX
  8
0
 10
587.762566
 20
182.282157
 42
-0.028668
  0
VERTEX
  8
0
 10
587.238187
 20
175.445041
 42
-0.023654
  0
VERTEX
  8
0
 10
585.861349
 20
167.928438
 42
-0.006887
  0
VERTEX
  8
0
 10
583.037498
 20
156.500000
 42
-0.021865
  0
VERTEX
  8
0
 10
579.942508
 20
146.485338
 42
-0.019791
  0
VERTEX
  8
0
 10
575.892413
 20
136.433843
 42
-0.019664
  0
VERTEX
  8
0
 10
571.609583
 20
127.831310
 42
-0.071156
  0
VERTEX
  8
0
 10
567.949744
 20
122.949744
 42
0.028622
  0
VERTEX
  8
0
 10
567.202298
 20
122.111450
 42
0.029966
  0
VERTEX
  8
0
 10
566.567760
 20
121.205550
 42
0.031405
  0
VERTEX
  8
0
 10
566.119607
 20
120.361946
 42
0.103361
  0
VERTEX
  8
0
 10
565.983057
 20
119.750000
 42
-0.143821
  0
VERTEX
  8
0
 10
565.760748
 20
119.029385
 42
-0.013506
  0
VERTEX
  8
0
 10
564.684465
 20
117.495767
 42
-0.016441
  0
VERTEX
  8
0
 10
563.264919
 20
115.710661
 42
-0.012203
  0
VERTEX
  8
0
 10
561.586112
 20
113.831334
 42
-0.011861
  0
VERTEX
  8
0
 10
558.801518
 20
111.000868
 42
-0.082564
  0
VERTEX
  8
0
 10
557.209916
 20
109.900057
 42
-0.112217
  0
VERTEX
  8
0
 10
555.557498
 20
109.536026
 42
-0.029974
  0
VERTEX
  8
0
 10
552.853055
 20
109.716386
 42
-0.013382
  0
VERTEX
  8
0
 10
551.113133
 20
109.985198
 42
-0.015807
  0
VERTEX
  8
0
 10
549.484960
 20
110.335053
 42
-0.014754
  0
VERTEX
  8
0
 10
548.139297
 20
110.711498
 42
-0.089467
  0
VERTEX
  8
0
 10
547.500000
 20
111.044924
 42
0.150518
  0
VERTEX
  8
0
 10
541.408527
 20
113.340582
 42
0.005220
  0
VERTEX
  8
0
 10
515.804074
 20
114.651908
 42
0.009731
  0
VERTEX
  8
0
 10
490.987387
 20
115.179785
 42
0.043934
  0
VERTEX
  8
0
 10
476.560195
 20
113.935891
 42
0.013774
  0
VERTEX
  8
0
 10
461.502486
 20
110.862138
 42
0.018174
  0
VERTEX
  8
0
 10
447.985079
 20
107.190045
 42
0.020273
  0
VERTEX
  8
0
 10
436.283212
 20
103.022479
 42
0.032743
  0
VERTEX
  8
0
 10
426.757549
 20
98.442866
 42
-0.048844
  0
VERTEX
  8
0
 10
425.083748
 20
97.703421
 42
-0.065032
  0
VERTEX
  8
0
 10
423.452031
 20
97.392145
 42
-0.046728
  0
VERTEX
  8
0
 10
421.418459
 20
97.462877
 42
-0.013661
  0
VERTEX
  8
0
 10
418.323889
 20
97.947923
 42
0.037941
  0
VERTEX
  8
0
 10
409.926222
 20
98.849493
 42
0.010197
  0
VERTEX
  8
0
 10
396.505480
 20
98.993243
 42
0.008082
  0
VERTEX
  8
0
 10
383.157983
 20
98.648185
 42
0.074763
  0
VERTEX
  8
0
 10
377.500000
 20
97.552654
 42
-0.028675
  0
VERTEX
  8
0
 10
375.785080
 20
97.053624
 42
-0.024858
  0
VERTEX
  8
0
 10
373.940625
 20
96.725351
 42
-0.025635
  0
VERTEX
  8
0
 10
372.237836
 20
96.597109
 42
-0.064104
  0
VERTEX
  8
0
 10
371.000000
 20
96.726461
 42
-0.100033
  0
VERTEX
  8
0
 10
368.375670
 20
97.934983
 42
-0.005100
  0
VERTEX
  8
0
 10
360.820515
 20
103.573771
 42
-0.005841
  0
VERTEX
  8
0
 10
350.092343
 20
111.952384
 42
-0.001630
  0
VERTEX
  8
0
 10
333.500000
 20
125.314756
 42
-0.018013
  0
VERTEX
  8
0
 10
320.691107
 20
136.487249
 42
-0.015295
  0
VERTEX
  8
0
 10
307.978454
 20
149.161288
 42
-0.015596
  0
VERTEX
  8
0
 10
296.391934
 20
162.235557
 42
-0.022168
  0
VERTEX
  8
0
 10
287.000000
 20
174.599680
 42
-0.004391
  0
VERTEX
  8
0
 10
281.645313
 20
182.485485
 42
-0.008532
  0
VERTEX
  8
0
 10
277.533393
 20
188.891274
 42
-0.005551
  0
VERTEX
  8
0
 10
274.436688
 20
194.028212
 42
-0.133636
  0
VERTEX
  8
0
 10
274.000000
 20
195.632900
 42
0.102640
  0
VERTEX
  8
0
 10
273.799564
 20
196.599017
 42
0.012224
  0
VERTEX
  8
0
 10
272.876375
 20
198.593144
 42
0.014173
  0
VERTEX
  8
0
 10
271.639643
 20
200.932212
 42
0.011196
  0
VERTEX
  8
0
 10
270.174892
 20
203.391937
 42
-0.009641
  0
VERTEX
  8
0
 10
267.612794
 20
207.664144
 42
-0.005832
  0
VERTEX
  8
0
 10
264.736501
 20
212.815167
 42
-0.005508
  0
VERTEX
  8
0
 10
261.754674
 20
218.451804
 42
-0.005326
  0
VERTEX
  8
0
 10
258.863329
 20
224.216206
 42
-0.046204
  0
VERTEX
  8
0
 10
257.335554
 20
228.251553
 42
-0.031140
  0
VERTEX
  8
0
 10
256.321131
 20
233.074307
 42
-0.024991
  0
VERTEX
  8
0
 10
255.755047
 20
239.009647
 42
-0.012745
  0
VERTEX
  8
0
 10
255.608002
 20
246.500000
 42
-0.005764
  0
VERTEX
  8
0
 10
255.733376
 20
253.710008
 42
-0.033325
  0
VERTEX
  8
0
 10
256.096687
 20
257.501100
 42
-0.051171
  0
VERTEX
  8
0
 10
256.898238
 20
260.461474
 42
-0.025799
  0
VERTEX
  8
0
 10
258.471069
 20
264.000000
 42
-0.026483
  0
VERTEX
  8
0
 10
260.782918
 20
268.011623
 42
-0.015298
  0
VERTEX
  8
0
 10
263.958251
 20
272.590354
 42
-0.014662
  0
VERTEX
  8
0
 10
267.637425
 20
277.270107
 42
-0.015771
  0
VERTEX
  8
0
 10
271.499364
 20
281.610576
 42
-0.044941
  0
VERTEX
  8
0
 10
274.571781
 20
284.317884
 42
-0.009636
  0
VERTEX
  8
0
 10
280.387230
 20
288.410322
 42
-0.010587
  0
VERTEX
  8
0
 10
286.867940
 20
292.589654
 42
-0.015773
  0
VERTEX
  8
0
 10
292.722115
 20
295.941981
 42
0.018287
  0
VERTEX
  8
0
 10
295.148738
 20
297.347807
 42
0.022623
  0
VERTEX
  8
0
 10
297.294188
 20
298.837405
 42
0.021774
  0
VERTEX
  8
0
 10
298.951167
 20
300.220849
 42
0.131818
  0
VERTEX
  8
0
 10
299.549179
 20
301.154948
 42
-0.127212
  0
VERTEX
  8
0
 10
302.864158
 20
306.437767
 42
-0.010367
  0
VERTEX
  8
0
 10
315.062954
 20
317.500569
 42
-0.014678
  0
VERTEX
  8
0
 10
327.945308
 20
328.057559
 42
-0.044185
  0
VERTEX
  8
0
 10
337.510198
 20
334.172819
 42
-0.009937
  0
VERTEX
  8
0
 10
351.402180
 20
341.067042
 42
-0.021005
  0
VERTEX
  8
0
 10
362.481278
 20
345.735346
 42
-0.025523
  0
VERTEX
  8
0
 10
372.382258
 20
348.860533
 42
-0.025916
  0
VERTEX
  8
0
 10
382.500000
 20
350.941982
 42
0.001449
  0
VERTEX
  8
0
 10
385.673309
 20
351.434472
 42
0.001857
  0
VERTEX
  8
0
 10
388.590625
 20
351.907006
 42
0.001427
  0
VERTEX
  8
0
 10
391.033383
 20
352.319159
 42
0.015938
  0
VERTEX
  8
0
 10
392.000000
 20
352.516993
 42
-0.062620
  0
VERTEX
  8
0
 10
396.956436
 20
353.057759
 42
-0.001456
  0
VERTEX
  8
0
 10
420.513117
 20
352.602690
 42
-0.001003
  0
VERTEX
  8
0
 10
444.646620
 20
352.017745
 42
-0.096590
  0
SEQEND
  0
POLYLINE
  8
0
 66
1
 70
1
  0
VERTEX
  8
0
 10
242.167095
 20
323.129588
 42
-0.019977
  0
VERTEX
  8
0
 10
243.950869
 20
322.273508
 42
-0.017934
  0
VERTEX
  8
0
 10
245.727550
 20
321.248513
 42
-0.018291
  0
VERTEX
  8
0
 10
247.255003
 20
320.213112
 42
-0.052398
  0
VERTEX
  8
0
 10
248.203288
 20
319.352464
 42
-0.061982
  0
VERTEX
  8
0
 10
250.496018
 20
316.039018
 42
-0.025460
  0
VERTEX
  8
0
 10
252.781061
 20
311.064279
 42
-0.024212
  0
VERTEX
  8
0
 10
254.510887
 20
306.034755
 42
-0.095108
  0
VERTEX
  8
0
 10
254.814752
 20
302.783900
 42
-0.059306
  0
VERTEX
  8
0
 10
254.409757
 20
300.928569
 42
-0.110463
  0
VERTEX
  8
0
 10
253.604791
 20
299.625665
 42
-0.071153
  0
VERTEX
  8
0
 10
252.069974
 20
298.446070
 42
-0.014148
  0
VERTEX
  8
0
 10
249.000000
 20
296.828594
 42
-0.024077
  0
VERTEX
  8
0
 10
245.683024
 20
295.392953
 42
-0.043675
  0
VERTEX
  8
0
 10
242.838521
 20
294.596417
 42
-0.034646
  0
VERTEX
  8
0
 10
239.485343
 20
294.204081
 42
-0.010084
  0
VERTEX
  8
0
 10
234.283927
 20
294.063380
 42
-0.011216
  0
VERTEX
  8
0
 10
230.160150
 20
294.127525
 42
-0.017476
  0
VERTEX
  8
0
 10
226.616259
 20
294.386454
 42
-0.020132
  0
VERTEX
  8
0
 10
223.745634
 20
294.814853
 42
-0.054806
  0
VERTEX
  8
0
 10
221.783927
 20
295.417176
 42
0.004037
  0
VERTEX
  8
0
 10
220.293427
 20
296.046173
 42
0.002446
  0
VERTEX
  8
0
 10
218.519734
 20
296.767728
 42
0.002450
  0
VERTEX
  8
0
 10
216.752028
 20
297.466753
 42
0.004311
  0
VERTEX
  8
0
 10
215.283254
 20
298.024723
 42
-0.082759
  0
VERTEX
  8
0
 10
212.723596
 20
299.488823
 42
-0.174522
  0
VERTEX
  8
0
 10
211.561956
 20
301.424448
 42
-0.123680
  0
VERTEX
  8
0
 10
211.701882
 20
304.157435
 42
-0.033029
  0
VERTEX
  8
0
 10
213.261956
 20
308.261009
 42
-0.016540
  0
VERTEX
  8
0
 10
216.134438
 20
314.023772
 42
-0.032802
  0
VERTEX
  8
0
 10
218.849866
 20
318.344676
 42
-0.041998
  0
VERTEX
  8
0
 10
221.497084
 20
321.420816
 42
-0.079781
  0
VERTEX
  8
0
 10
224.154499
 20
323.306074
 42
-0.073921
  0
VERTEX
  8
0
 10
228.001162
 20
324.539247
 42
-0.043141
  0
VERTEX
  8
0
 10
232.839620
 20
324.909773
 42
-0.042258
  0
VERTEX
  8
0
 10
237.832954
 20
324.437690
 42
-0.057259
  0
SEQEND
  0
POLYLINE
  8
0
 66
1
 70
1
  0
VERTEX
  8
0
 10
219.329835
 20
287.580543
 42
0.066637
  0
VERTEX
  8
0
 10
223.585766
 20
286.298254
 42
0.023406
  0
VERTEX
  8
0
 10
229.940662
 20
285.578608
 42
0.023656
  0
VERTEX
  8
0
 10
236.713094
 20
285.452250
 42
0.037162
  0
VERTEX
  8
0
 10
242.500000
 20
286.050049
 42
-0.006167
  0
VERTEX
  8
0
 10
249.883634
 20
287.278715
 42
-0.075857
  0
VERTEX
  8
0
 10
252.730680
 20
287.281946
 42
-0.228053
  0
VERTEX
  8
0
 10
254.133461
 20
286.324871
 42
-0.107395
  0
VERTEX
  8
0
 10
254.818231
 20
284.184676
 42
-0.028843
  0
VERTEX
  8
0
 10
254.869821
 20
282.828567
 42
-0.030118
  0
VERTEX
  8
0
 10
254.763108
 20
281.495230
 42
-0.031585
  0
VERTEX
  8
0
 10
254.529739
 20
280.362788
 42
-0.103098
  0
VERTEX
  8
0
 10
254.183703
 20
279.684676
 42
0.065510
  0
VERTEX
  8
0
 10
253.768343
 20
279.001831
 42
0.017566
  0
VERTEX
  8
0
 10
253.295535
 20
277.819874
 42
0.017486
  0
VERTEX
  8
0
 10
252.848649
 20
276.426823
 42
0.017263
  0
VERTEX
  8
0
 10
252.498068
 20
275.000000
 42
-0.022775
  0
VERTEX
  8
0
 10
252.079420
 20
273.373705
 42
-0.011325
  0
VERTEX
  8
0
 10
251.409493
 20
271.353125
 42
-0.011217
  0
VERTEX
  8
0
 10
250.619384
 20
269.286854
 42
-0.016171
  0
VERTEX
  8
0
 10
249.821425
 20
267.500000
 42
0.057547
  0
VERTEX
  8
0
 10
247.957989
 20
262.187754
 42
0.019272
  0
VERTEX
  8
0
 10
246.451503
 20
254.086818
 42
0.019010
  0
VERTEX
  8
0
 10
245.574449
 20
245.945058
 42
0.063582
  0
VERTEX
  8
0
 10
245.883545
 20
240.593959
 42
-0.038116
  0
VERTEX
  8
0
 10
246.331511
 20
236.481284
 42
-0.286222
  0
VERTEX
  8
0
 10
245.392235
 20
234.860552
 42
-0.142056
  0
VERTEX
  8
0
 10
242.950845
 20
234.350905
 42
-0.008656
  0
VERTEX
  8
0
 10
235.451196
 20
235.055965
 42
-0.004007
  0
VERTEX
  8
0
 10
231.595667
 20
235.517196
 42
-0.005852
  0
VERTEX
  8
0
 10
228.208342
 20
235.990339
 42
-0.003045
  0
VERTEX
  8
0
 10
225.354508
 20
236.440871
 42
-0.098039
  0
VERTEX
  8
0
 10
224.698292
 20
236.686466
 42
0.082722
  0
VERTEX
  8
0
 10
224.094777
 20
236.933491
 42
0.005672
  0
VERTEX
  8
0
 10
222.283295
 20
237.323565
 42
0.007974
  0
VERTEX
  8
0
 10
220.099857
 20
237.731733
 42
0.005899
  0
VERTEX
  8
0
 10
217.673226
 20
238.116022
 42
-0.001163
  0
VERTEX
  8
0
 10
209.062646
 20
239.396139
 42
-0.006060
  0
VERTEX
  8
0
 10
204.326339
 20
240.170366
 42
-0.005509
  0
VERTEX
  8
0
 10
201.257833
 20
240.745148
 42
-0.148377
  0
VERTEX
  8
0
 10
200.535497
 20
241.131170
 42
-0.264872
  0
VERTEX
  8
0
 10
200.421044
 20
241.548702
 42
-0.006665
  0
VERTEX
  8
0
 10
200.952487
 20
243.517610
 42
-0.012565
  0
VERTEX
  8
0
 10
201.684783
 20
245.867487
 42
-0.008022
  0
VERTEX
  8
0
 10
202.647954
 20
248.562306
 42
0.012053
  0
VERTEX
  8
0
 10
205.425552
 20
256.535896
 42
0.029249
  0
VERTEX
  8
0
 10
206.982764
 20
262.568524
 42
0.031779
  0
VERTEX
  8
0
 10
207.753569
 20
268.437016
 42
0.016767
  0
VERTEX
  8
0
 10
208.000000
 20
275.783670
 42
-0.011703
  0
VERTEX
  8
0
 10
208.186527
 20
283.751581
 42
-0.077910
  0
VERTEX
  8
0
 10
208.982175
 20
287.630439
 42
-0.202338
  0
VERTEX
  8
0
 10
210.592550
 20
289.334603
 42
-0.154153
  0
VERTEX
  8
0
 10
213.172047
 20
289.615591
 42
-0.019862
  0
VERTEX
  8
0
 10
214.544039
 20
289.284035
 42
-0.010588
  0
VERTEX
  8
0
 10
216.213292
 20
288.771316
 42
-0.010524
  0
VERTEX
  8
0
 10
217.898640
 20
288.174708
 42
-0.016112
  0
SEQEND
  0
POLYLINE
  8
0
 66
1
 70
1
  0
VERTEX
  8
0
 10
108.684900
 20
268.848092
 42
0.032583
  0
VERTEX
  8
0
 10
110.167216
 20
268.351502
 42
0.010318
  0
VERTEX
  8
0
 10
112.435564
 20
267.802453
 42
0.010253
  0
VERTEX
  8
0
 10
114.996397
 20
267.293099
 42
0.011225
  0
VERTEX
  8
0
 10
117.500000
 20
266.906043
 42
0.003392
  0
VERTEX
  8
0
 10
131.958934
 20
265.101637
 42
0.006883
  0
VERTEX
  8
0
 10
143.358317
 20
263.916363
 42
0.008620
  0
VERTEX
  8
0
 10
152.711390
 20
263.236131
 42
0.013619
  0
VERTEX
  8
0
 10
160.750000
 20
263.009990
 42
-0.009261
  0
VERTEX
  8
0
 10
169.202942
 20
262.845896
 42
-0.167813
  0
VERTEX
  8
0
 10
171.685186
 20
261.881808
 42
-0.346163
  0
VERTEX
  8
0
 10
172.073309
 20
259.979857
 42
-0.032769
  0
VERTEX
  8
0
 10
169.500000
 20
255.595138
 42
0.006589
  0
VERTEX
  8
0
 10
168.542200
 20
254.142919
 42
0.009426
  0
VERTEX
  8
0
 10
167.734375
 20
252.828348
 42
0.005848
  0
VERTEX
  8
0
 10
167.094069
 20
251.711265
 42
0.127886
  0
VERTEX
  8
0
 10
167.000000
 20
251.349495
 42
-0.162529
  0
VERTEX
  8
0
 10
166.691711
 20
250.426135
 42
-0.003347
  0
VERTEX
  8
0
 10
163.699865
 20
246.500119
 42
-0.008623
  0
VERTEX
  8
0
 10
160.555599
 20
242.572777
 42
-0.013983
  0
VERTEX
  8
0
 10
157.734962
 20
239.358888
 42
0.028390
  0
VERTEX
  8
0
 10
156.254314
 20
237.570446
 42
0.070664
  0
VERTEX
  8
0
 10
155.451411
 20
236.078343
 42
0.075043
  0
VERTEX
  8
0
 10
155.122210
 20
234.477082
 42
0.035265
  0
VERTEX
  8
0
 10
155.159372
 20
232.358888
 42
-0.012285
  0
VERTEX
  8
0
 10
155.315964
 20
229.895154
 42
-0.175238
  0
VERTEX
  8
0
 10
155.053169
 20
229.069219
 42
-0.241781
  0
VERTEX
  8
0
 10
154.362809
 20
228.743083
 42
-0.024596
  0
VERTEX
  8
0
 10
152.500000
 20
228.896745
 42
0.044948
  0
VERTEX
  8
0
 10
141.092153
 20
229.372147
 42
0.047276
  0
VERTEX
  8
0
 10
129.980352
 20
227.775999
 42
0.050921
  0
VERTEX
  8
0
 10
120.218135
 20
224.334769
 42
0.078909
  0
VERTEX
  8
0
 10
112.848873
 20
219.313151
 42
-0.058890
  0
VERTEX
  8
0
 10
110.047797
 20
217.236322
 42
-0.262196
  0
VERTEX
  8
0
 10
108.075285
 20
217.221512
 42
-0.213747
  0
VERTEX
  8
0
 10
106.755359
 20
218.978485
 42
-0.041656
  0
VERTEX
  8
0
 10
106.189482
 20
222.997497
 42
0.036974
  0
VERTEX
  8
0
 10
105.680401
 20
226.875414
 42
0.084713
  0
VERTEX
  8
0
 10
104.608598
 20
229.610602
 42
0.113996
  0
VERTEX
  8
0
 10
102.935771
 20
231.337473
 42
0.108593
  0
VERTEX
  8
0
 10
100.645571
 20
232.194134
 42
-0.205058
  0
VERTEX
  8
0
 10
99.432897
 20
232.931156
 42
-0.126326
  0
VERTEX
  8
0
 10
98.821305
 20
234.513347
 42
-0.031901
  0
VERTEX
  8
0
 10
98.637930
 20
237.921314
 42
-0.001997
  0
VERTEX
  8
0
 10
98.779222
 20
248.000000
 42
-0.002945
  0
VERTEX
  8
0
 10
99.109967
 20
261.834152
 42
-0.039743
  0
VERTEX
  8
0
 10
99.661520
 20
266.863120
 42
-0.150178
  0
VERTEX
  8
0
 10
100.855804
 20
269.119470
 42
-0.199032
  0
VERTEX
  8
0
 10
102.980213
 20
270.000000
 42
-0.031542
  0
VERTEX
  8
0
 10
104.290466
 20
269.917261
 42
-0.018281
  0
VERTEX
  8
0
 10
105.847920
 20
269.661627
 42
-0.018225
  0
VERTEX
  8
0
 10
107.397065
 20
269.289595
 42
-0.029075
  0
SEQEND
  0
POLYLINE
  8
0
 66
1
 70
1
  0
VERTEX
  8
0
 10
197.130874
 20
262.788241
 42
-0.165087
  0
VERTEX
  8
0
 10
197.410160
 20
261.575529
 42
-0.040697
  0
VERTEX
  8
0
 10
197.034626
 20
259.537483
 42
-0.020290
  0
VERTEX
  8
0
 10
195.982161
 20
256.184397
 42
-0.003093
  0
VERTEX
  8
0
 10
193.572621
 20
249.601891
 42
-0.010069
  0
VERTEX
  8
0
 10
191.388308
 20
244.088730
 42
-0.074087
  0
VERTEX
  8
0
 10
189.923118
 20
241.673358
 42
-0.125296
  0
VERTEX
  8
0
 10
188.138091
 20
240.376418
 42
-0.050235
  0
VERTEX
  8
0
 10
185.214371
 20
239.539942
 42
0.034691
  0
VERTEX
  8
0
 10
182.126965
 20
238.759399
 42
0.015955
  0
VERTEX
  8
0
 10
178.226492
 20
237.340523
 42
0.014884
  0
VERTEX
  8
0
 10
173.949235
 20
235.478630
 42
0.013620
  0
VERTEX
  8
0
 10
169.659812
 20
233.312868
 42
-0.077946
  0
VERTEX
  8
0
 10
166.773294
 20
232.294317
 42
-0.471377
  0
VERTEX
  8
0
 10
165.715251
 20
233.180675
 42
-0.129848
  0
VERTEX
  8
0
 10
166.458291
 20
235.910440
 42
-0.016362
  0
VERTEX
  8
0
 10
169.718660
 20
241.148778
 42
0.003544
  0
VERTEX
  8
0
 10
171.883797
 20
244.436509
 42
0.002330
  0
VERTEX
  8
0
 10
174.331396
 20
248.249953
 42
0.002344
  0
VERTEX
  8
0
 10
176.679034
 20
251.983996
 42
0.004518
  0
VERTEX
  8
0
 10
178.517971
 20
255.000000
 42
-0.007748
  0
VERTEX
  8
0
 10
180.103003
 20
257.562195
 42
-0.009724
  0
VERTEX
  8
0
 10
181.654276
 20
259.884375
 42
-0.008121
  0
VERTEX
  8
0
 10
183.018336
 20
261.776482
 42
-0.072405
  0
VERTEX
  8
0
 10
183.741896
 20
262.500000
 42
-0.136258
  0
VERTEX
  8
0
 10
185.940957
 20
263.352844
 42
-0.019400
  0
VERTEX
  8
0
 10
190.819889
 20
263.647502
 42
-0.015531
  0
VERTEX
  8
0
 10
195.740954
 20
263.600581
 42
-0.249127
  0
SEQEND
  0
POLYLINE
  8
0
 66
1
 70
1
  0
VERTEX
  8
0
 10
212.635165
 20
229.572753
 42
0.025671
  0
VERTEX
  8
0
 10
215.395316
 20
228.914702
 42
0.005273
  0
VERTEX
  8
0
 10
220.330330
 20
228.056572
 42
0.005536
  0
VERTEX
  8
0
 10
226.091939
 20
227.182571
 42
0.005181
  0
VERTEX
  8
0
 10
232.000000
 20
226.415505
 42
-0.007813
  0
VERTEX
  8
0
 10
241.635612
 20
225.112879
 42
-0.050151
  0
VERTEX
  8
0
 10
246.396365
 20
223.896155
 42
-0.109388
  0
VERTEX
  8
0
 10
249.043126
 20
222.205833
 42
-0.122586
  0
VERTEX
  8
0
 10
250.596335
 20
219.618116
 42
0.033118
  0
VERTEX
  8
0
 10
251.133374
 20
218.203548
 42
0.001668
  0
VERTEX
  8
0
 10
253.204459
 20
213.715947
 42
0.002670
  0
VERTEX
  8
0
 10
255.713886
 20
208.400265
 42
0.001929
  0
VERTEX
  8
0
 10
258.565948
 20
202.500000
 42
0.013109
  0
VERTEX
  8
0
 10
264.384035
 20
191.333694
 42
0.011892
  0
VERTEX
  8
0
 10
270.963300
 20
180.113342
 42
0.011890
  0
VERTEX
  8
0
 10
277.304434
 20
170.390209
 42
0.039345
  0
VERTEX
  8
0
 10
282.109332
 20
164.452393
 42
-0.041339
  0
VERTEX
  8
0
 10
284.223709
 20
161.818095
 42
-0.122575
  0
VERTEX
  8
0
 10
285.012101
 20
159.656817
 42
-0.321877
  0
VERTEX
  8
0
 10
284.378650
 20
158.542635
 42
-0.180558
  0
VERTEX
  8
0
 10
282.750000
 20
158.422289
 42
0.019661
  0
VERTEX
  8
0
 10
279.092437
 20
159.333622
 42
0.034851
  0
VERTEX
  8
0
 10
276.014638
 20
159.752304
 42
0.042654
  0
VERTEX
  8
0
 10
273.425882
 20
159.701232
 42
0.066936
  0
VERTEX
  8
0
 10
271.266517
 20
159.175877
 42
-0.017224
  0
VERTEX
  8
0
 10
270.026771
 20
158.740282
 42
-0.011604
  0
VERTEX
  8
0
 10
268.585098
 20
158.325357
 42
-0.011698
  0
VERTEX
  8
0
 10
267.170045
 20
157.988605
 42
-0.022657
  0
VERTEX
  8
0
 10
266.023177
 20
157.797715
 42
-0.068366
  0
VERTEX
  8
0
 10
264.620357
 20
157.821415
 42
-0.205421
  0
VERTEX
  8
0
 10
263.825278
 20
158.318361
 42
-0.104221
  0
VERTEX
  8
0
 10
263.325299
 20
159.503301
 42
-0.011835
  0
VERTEX
  8
0
 10
262.836529
 20
162.386649
 42
0.016669
  0
VERTEX
  8
0
 10
262.486764
 20
164.335474
 42
0.019681
  0
VERTEX
  8
0
 10
262.022854
 20
166.150204
 42
0.018924
  0
VERTEX
  8
0
 10
261.518516
 20
167.634834
 42
0.105408
  0
VERTEX
  8
0
 10
261.063351
 20
168.336649
 42
-0.095104
  0
VERTEX
  8
0
 10
260.654292
 20
168.940042
 42
-0.034805
  0
VERTEX
  8
0
 10
260.312359
 20
169.917411
 42
-0.032978
  0
VERTEX
  8
0
 10
260.078435
 20
171.065337
 42
-0.033787
  0
VERTEX
  8
0
 10
260.000000
 20
172.224751
 42
0.131392
  0
VERTEX
  8
0
 10
259.448484
 20
174.287267
 42
0.128794
  0
VERTEX
  8
0
 10
257.938282
 20
175.817682
 42
0.113052
  0
VERTEX
  8
0
 10
255.693724
 20
176.538458
 42
0.085545
  0
VERTEX
  8
0
 10
253.107322
 20
176.317814
 42
0.174018
  0
VERTEX
  8
0
 10
251.743323
 20
175.383924
 42
0.123892
  0
VERTEX
  8
0
 10
251.051414
 20
173.648178
 42
0.076870
  0
VERTEX
  8
0
 10
251.105119
 20
171.047454
 42
0.030668
  0
VERTEX
  8
0
 10
251.938944
 20
167.570998
 42
-0.020281
  0
VERTEX
  8
0
 10
253.507225
 20
161.583304
 42
-0.013728
  0
VERTEX
  8
0
 10
254.826940
 20
154.652217
 42
-0.012507
  0
VERTEX
  8
0
 10
255.705121
 20
148.219832
 42
-0.058957
  0
VERTEX
  8
0
 10
255.678692
 20
144.500000
 42
-0.022508
  0
VERTEX
  8
0
 10
255.354936
 20
142.612704
 42
-0.010589
  0
VERTEX
  8
0
 10
254.776032
 20
140.206250
 42
-0.010469
  0
VERTEX
  8
0
 10
254.062148
 20
137.706626
 42
-0.014500
  0
VERTEX
  8
0
 10
253.310944
 20
135.500000
 42
-0.029919
  0
VERTEX
  8
0
 10
252.006021
 20
132.553760
 42
-0.079029
  0
VERTEX
  8
0
 10
250.642664
 20
130.701431
 42
-0.060128
  0
VERTEX
  8
0
 10
248.559573
 20
129.089875
 42
-0.012108
  0
VERTEX
  8
0
 10
244.472670
 20
126.781615
 42
-0.013906
  0
VERTEX
  8
0
 10
240.264896
 20
124.685832
 42
-0.046547
  0
VERTEX
  8
0
 10
237.363594
 20
123.655390
 42
-0.046856
  0
VERTEX
  8
0
 10
234.331760
 20
123.182903
 42
-0.014229
  0
VERTEX
  8
0
 10
229.678070
 20
123.031615
 42
-0.011993
  0
VERTEX
  8
0
 10
225.374098
 20
123.117462
 42
-0.038751
  0
VERTEX
  8
0
 10
222.536880
 20
123.463578
 42
-0.050214
  0
VERTEX
  8
0
 10
220.202045
 20
124.183775
 42
-0.032707
  0
VERTEX
  8
0
 10
217.678070
 20
125.449820
 42
-0.052947
  0
VERTEX
  8
0
 10
212.244491
 20
129.462675
 42
-0.037661
  0
VERTEX
  8
0
 10
207.060117
 20
134.987752
 42
-0.037512
  0
VERTEX
  8
0
 10
203.145758
 20
140.668785
 42
-0.132856
  0
VERTEX
  8
0
 10
202.000000
 20
144.904690
 42
0.047476
  0
VERTEX
  8
0
 10
201.907069
 20
145.881204
 42
0.012398
  0
VERTEX
  8
0
 10
201.571355
 20
147.421824
 42
0.012485
  0
VERTEX
  8
0
 10
201.099362
 20
149.165735
 42
0.012475
  0
VERTEX
  8
0
 10
200.540782
 20
150.884412
 42
-0.029811
  0
VERTEX
  8
0
 10
199.933485
 20
152.999679
 42
-0.010653
  0
VERTEX
  8
0
 10
199.313540
 20
156.078950
 42
-0.010526
  0
VERTEX
  8
0
 10
198.775389
 20
159.493597
 42
-0.012245
  0
VERTEX
  8
0
 10
198.412051
 20
162.760138
 42
0.022536
  0
VERTEX
  8
0
 10
197.722349
 20
167.980682
 42
0.068776
  0
VERTEX
  8
0
 10
196.621691
 20
171.372836
 42
0.117422
  0
VERTEX
  8
0
 10
195.051587
 20
173.295249
 42
0.164500
  0
VERTEX
  8
0
 10
192.967457
 20
174.000000
 42
0.158106
  0
VERTEX
  8
0
 10
190.864351
 20
173.317921
 42
0.148963
  0
VERTEX
  8
0
 10
189.501136
 20
171.516533
 42
0.077389
  0
VERTEX
  8
0
 10
188.836635
 20
168.197403
 42
0.019803
  0
VERTEX
  8
0
 10
188.817296
 20
162.702933
 42
0.014564
  0
VERTEX
  8
0
 10
189.034456
 20
159.377359
 42
0.013925
  0
VERTEX
  8
0
 10
189.446757
 20
156.019680
 42
0.014007
  0
VERTEX
  8
0
 10
189.976027
 20
153.078441
 42
0.047467
  0
VERTEX
  8
0
 10
190.553454
 20
151.217825
 42
-0.021505
  0
VERTEX
  8
0
 10
191.107309
 20
149.713504
 42
-0.017354
  0
VERTEX
  8
0
 10
191.575077
 20
148.056044
 42
-0.017692
  0
VERTEX
  8
0
 10
191.899886
 20
146.493715
 42
-0.042425
  0
VERTEX
  8
0
 10
192.000000
 20
145.315951
 42
0.094866
  0
VERTEX
  8
0
 10
192.693740
 20
141.692421
 42
0.026012
  0
VERTEX
  8
0
 10
195.130077
 20
136.384896
 42
0.026188
  0
VERTEX
  8
0
 10
198.468376
 20
130.748451
 42
0.030629
  0
VERTEX
  8
0
 10
202.222126
 20
125.793363
 42
0.021522
  0
VERTEX
  8
0
 10
204.859318
 20
122.977218
 42
0.029524
  0
VERTEX
  8
0
 10
207.477032
 20
120.699149
 42
0.030114
  0
VERTEX
  8
0
 10
210.302471
 20
118.779016
 42
0.023829
  0
VERTEX
  8
0
 10
213.564046
 20
117.043363
 42
0.018586
  0
VERTEX
  8
0
 10
217.532811
 20
115.345614
 42
0.046023
  0
VERTEX
  8
0
 10
220.574232
 20
114.487243
 42
0.037079
  0
VERTEX
  8
0
 10
224.086046
 20
114.103046
 42
0.008711
  0
VERTEX
  8
0
 10
230.000000
 20
114.000000
 42
0.008700
  0
VERTEX
  8
0
 10
235.900840
 20
114.102686
 42
0.036824
  0
VERTEX
  8
0
 10
239.412842
 20
114.484939
 42
0.045937
  0
VERTEX
  8
0
 10
242.445511
 20
115.336806
 42
0.018937
  0
VERTEX
  8
0
 10
246.373410
 20
117.013813
 42
0.045788
  0
VERTEX
  8
0
 10
251.754226
 20
120.187527
 42
0.038704
  0
VERTEX
  8
0
 10
256.801960
 20
124.454583
 42
0.040329
  0
VERTEX
  8
0
 10
260.713708
 20
128.996157
 42
0.103924
  0
VERTEX
  8
0
 10
262.483231
 20
132.923649
 42
-0.021642
  0
VERTEX
  8
0
 10
262.953233
 20
134.694126
 42
-0.137492
  0
VERTEX
  8
0
 10
263.455335
 20
135.467175
 42
-0.207307
  0
VERTEX
  8
0
 10
264.173517
 20
135.699348
 42
-0.058488
  0
VERTEX
  8
0
 10
265.349365
 20
135.445044
 42
0.064178
  0
VERTEX
  8
0
 10
270.639021
 20
134.363661
 42
0.028811
  0
VERTEX
  8
0
 10
277.744775
 20
134.250886
 42
0.028845
  0
VERTEX
  8
0
 10
284.869737
 20
134.961517
 42
0.059488
  0
VERTEX
  8
0
 10
290.250000
 20
136.484888
 42
-0.158442
  0
VERTEX
  8
0
 10
291.454789
 20
136.582061
 42
-0.371749
  0
VERTEX
  8
0
 10
291.944516
 20
135.903528
 42
-0.108802
  0
VERTEX
  8
0
 10
291.429083
 20
134.257223
 42
-0.024657
  0
VERTEX
  8
0
 10
289.840931
 20
131.776608
 42
0.078738
  0
VERTEX
  8
0
 10
287.988929
 20
128.053784
 42
0.061836
  0
VERTEX
  8
0
 10
287.176606
 20
123.613843
 42
0.061217
  0
VERTEX
  8
0
 10
287.472126
 20
119.062528
 42
0.073473
  0
VERTEX
  8
0
 10
288.876859
 20
115.011749
 42
-0.008623
  0
VERTEX
  8
0
 10
289.689946
 20
113.383922
 42
-0.011155
  0
VERTEX
  8
0
 10
290.376327
 20
111.862022
 42
-0.009023
  0
VERTEX
  8
0
 10
290.895639
 20
110.574305
 42
-0.091576
  0
VERTEX
  8
0
 10
291.000000
 20
110.009279
 42
-0.173480
  0
VERTEX
  8
0
 10
290.802251
 20
109.456483
 42
-0.009499
  0
VERTEX
  8
0
 10
289.587107
 20
108.031482
 42
-0.013831
  0
VERTEX
  8
0
 10
288.032924
 20
106.372308
 42
-0.009594
  0
VERTEX
  8
0
 10
286.190151
 20
104.581095
 42
0.061071
  0
VERTEX
  8
0
 10
281.392176
 20
98.847388
 42
0.049211
  0
VERTEX
  8
0
 10
277.704282
 20
91.701746
 42
0.050398
  0
VERTEX
  8
0
 10
275.566601
 20
84.194134
 42
0.075601
  0
VERTEX
  8
0
 10
275.391352
 20
77.394949
 42
-0.002814
  0
VERTEX
  8
0
 10
276.173463
 20
70.882239
 42
-0.050458
  0
VERTEX
  8
0
 10
276.200938
 20
68.778616
 42
-0.201018
  0
VERTEX
  8
0
 10
275.679152
 20
67.787320
 42
-0.137309
  0
VERTEX
  8
0
 10
274.500000
 20
67.265518
 42
0.009521
  0
VERTEX
  8
0
 10
273.413972
 20
67.087191
 42
0.002283
  0
VERTEX
  8
0
 10
271.618750
 20
66.748712
 42
0.002344
  0
VERTEX
  8
0
 10
269.560937
 20
66.340966
 42
0.002321
  0
VERTEX
  8
0
 10
267.500000
 20
65.912579
 42
-0.035693
  0
VERTEX
  8
0
 10
258.229642
 20
64.622952
 42
-0.005803
  0
VERTEX
  8
0
 10
240.074829
 20
63.618637
 42
-0.005554
  0
VERTEX
  8
0
 10
216.332884
 20
62.845582
 42
-0.002853
  0
VERTEX
  8
0
 10
186.571633
 20
62.377244
 42
-0.001614
  0
VERTEX
  8
0
 10
168.052591
 20
62.251304
 42
-0.004392
  0
VERTEX
  8
0
 10
154.937578
 20
62.319654
 42
-0.001509
  0
VERTEX
  8
0
 10
144.761484
 20
62.492794
 42
-0.193712
  0
VERTEX
  8
0
 10
143.621633
 20
62.978367
 42
0.165879
  0
VERTEX
  8
0
 10
142.798418
 20
63.382783
 42
0.009209
  0
VERTEX
  8
0
 10
139.912747
 20
63.699895
 42
0.013409
  0
VERTEX
  8
0
 10
136.400720
 20
63.925742
 42
0.009351
  0
VERTEX
  8
0
 10
132.430272
 20
64.000000
 42
-0.010656
  0
VERTEX
  8
0
 10
127.388234
 20
64.107473
 42
-0.018980
  0
VERTEX
  8
0
 10
123.251397
 20
64.441542
 42
-0.022353
  0
VERTEX
  8
0
 10
119.679846
 20
65.029776
 42
-0.026595
  0
VERTEX
  8
0
 10
116.380272
 20
65.911460
 42
-0.015397
  0
VERTEX
  8
0
 10
108.079341
 20
68.895341
 42
-0.062606
  0
VERTEX
  8
0
 10
103.380794
 20
71.467796
 42
-0.081740
  0
VERTEX
  8
0
 10
100.112689
 20
74.760120
 42
-0.038307
  0
VERTEX
  8
0
 10
97.007027
 20
79.917594
 42
-0.074155
  0
VERTEX
  8
0
 10
95.413239
 20
84.769271
 42
-0.051990
  0
VERTEX
  8
0
 10
95.036346
 20
90.517551
 42
-0.053915
  0
VERTEX
  8
0
 10
95.816178
 20
95.815716
 42
-0.133671
  0
VERTEX
  8
0
 10
97.747799
 20
99.192243
 42
0.000000
  0
VERTEX
  8
0
 10
99.898144
 20
101.342588
 42
0.000000
  0
VERTEX
  8
0
 10
103.883420
 20
98.580790
 42
0.087943
  0
VERTEX
  8
0
 10
112.163724
 20
94.777464
 42
0.052982
  0
VERTEX
  8
0
 10
122.878792
 20
93.165931
 42
0.050472
  0
VERTEX
  8
0
 10
134.362516
 20
93.826322
 42
0.057354
  0
VERTEX
  8
0
 10
144.972811
 20
96.795786
 42
0.082298
  0
VERTEX
  8
0
 10
148.987984
 20
99.266873
 42
0.020037
  0
VERTEX
  8
0
 10
154.667307
 20
104.621583
 42
0.017921
  0
VERTEX
  8
0
 10
159.881716
 20
110.344927
 42
0.122906
  0
VERTEX
  8
0
 10
161.555060
 20
113.735320
 42
-0.013013
  0
VERTEX
  8
0
 10
161.849748
 20
114.939949
 42
-0.009231
  0
VERTEX
  8
0
 10
162.240131
 20
116.275375
 42
-0.009326
  0
VERTEX
  8
0
 10
162.660513
 20
117.537511
 42
-0.019457
  0
VERTEX
  8
0
 10
163.043914
 20
118.500000
 42
0.051897
  0
VERTEX
  8
0
 10
164.323920
 20
122.437744
 42
0.025815
  0
VERTEX
  8
0
 10
165.155440
 20
127.624303
 42
0.023734
  0
VERTEX
  8
0
 10
165.453827
 20
132.600346
 42
0.110436
  0
VERTEX
  8
0
 10
164.864858
 20
135.397259
 42
0.054776
  0
VERTEX
  8
0
 10
163.909775
 20
137.001589
 42
0.142627
  0
VERTEX
  8
0
 10
162.843333
 20
137.797334
 42
0.134964
  0
VERTEX
  8
0
 10
161.476283
 20
137.919866
 42
0.046908
  0
VERTEX
  8
0
 10
159.554007
 20
137.382351
 42
0.124748
  0
VERTEX
  8
0
 10
157.973228
 20
136.266607
 42
0.080786
  0
VERTEX
  8
0
 10
156.803339
 20
134.344439
 42
0.047915
  0
VERTEX
  8
0
 10
155.880630
 20
131.249706
 42
0.013281
  0
VERTEX
  8
0
 10
155.035053
 20
126.247154
 42
-0.040108
  0
VERTEX
  8
0
 10
153.355779
 20
118.774777
 42
-0.074307
  0
VERTEX
  8
0
 10
150.659301
 20
113.186525
 42
-0.078734
  0
VERTEX
  8
0
 10
146.568995
 20
108.840143
 42
-0.050325
  0
VERTEX
  8
0
 10
140.672948
 20
105.159757
 42
-0.017095
  0
VERTEX
  8
0
 10
137.159747
 20
103.577013
 42
-0.035678
  0
VERTEX
  8
0
 10
134.310458
 20
102.639838
 42
-0.038396
  0
VERTEX
  8
0
 10
131.493847
 20
102.157249
 42
-0.023238
  0
VERTEX
  8
0
 10
128.112187
 20
102.000000
 42
-0.035130
  0
VERTEX
  8
0
 10
122.545360
 20
102.391608
 42
-0.023834
  0
VERTEX
  8
0
 10
116.299662
 20
103.580612
 42
-0.022559
  0
VERTEX
  8
0
 10
110.685855
 20
105.200296
 42
-0.093271
  0
VERTEX
  8
0
 10
107.620292
 20
106.923127
 42
-0.096239
  0
VERTEX
  8
0
 10
103.773992
 20
111.670765
 42
-0.065014
  0
VERTEX
  8
0
 10
101.317563
 20
118.213345
 42
-0.056151
  0
VERTEX
  8
0
 10
100.384456
 20
126.142857
 42
-0.040918
  0
VERTEX
  8
0
 10
101.066365
 20
135.000000
 42
0.002655
  0
VERTEX
  8
0
 10
101.523633
 20
137.959093
 42
0.001564
  0
VERTEX
  8
0
 10
102.040257
 20
141.500000
 42
0.001564
  0
VERTEX
  8
0
 10
102.534302
 20
145.041087
 42
0.002675
  0
VERTEX
  8
0
 10
102.921577
 20
148.000000
 42
-0.014131
  0
VERTEX
  8
0
 10
104.420817
 20
157.718839
 42
-0.024632
  0
VERTEX
  8
0
 10
106.283911
 20
165.655509
 42
-0.029433
  0
VERTEX
  8
0
 10
108.596061
 20
172.219517
 42
-0.041297
  0
VERTEX
  8
0
 10
111.464372
 20
177.728046
 42
-0.030465
  0
VERTEX
  8
0
 10
113.177861
 20
180.110353
 42
-0.107548
  0
VERTEX
  8
0
 10
114.644838
 20
181.277546
 42
-0.140511
  0
VERTEX
  8
0
 10
116.232516
 20
181.564181
 42
-0.067547
  0
VERTEX
  8
0
 10
118.261849
 20
181.077301
 42
0.051273
  0
VERTEX
  8
0
 10
126.822383
 20
178.727406
 42
0.053740
  0
VERTEX
  8
0
 10
135.545576
 20
178.220264
 42
0.058159
  0
VERTEX
  8
0
 10
143.477614
 20
179.545070
 42
0.089928
  0
VERTEX
  8
0
 10
149.683278
 20
182.627799
 42
-0.013180
  0
VERTEX
  8
0
 10
150.971761
 20
183.536169
 42
-0.016682
  0
VERTEX
  8
0
 10
152.210636
 20
184.303166
 42
-0.014803
  0
VERTEX
  8
0
 10
153.274406
 20
184.872465
 42
-0.115961
  0
VERTEX
  8
0
 10
153.816916
 20
185.000000
 42
0.208161
  0
VERTEX
  8
0
 10
155.439996
 20
185.706331
 42
0.016270
  0
VERTEX
  8
0
 10
158.616526
 20
189.347609
 42
0.022751
  0
VERTEX
  8
0
 10
161.756972
 20
193.571681
 42
0.034157
  0
VERTEX
  8
0
 10
164.060293
 20
197.543480
 42
0.030589
  0
VERTEX
  8
0
 10
165.294002
 20
200.493710
 42
0.036212
  0
VERTEX
  8
0
 10
166.078288
 20
203.412260
 42
0.028154
  0
VERTEX
  8
0
 10
166.555507
 20
206.956574
 42
0.010349
  0
VERTEX
  8
0
 10
166.842527
 20
212.000000
 42
-0.015842
  0
VERTEX
  8
0
 10
167.306800
 20
218.833855
 42
-0.091013
  0
VERTEX
  8
0
 10
168.309042
 20
222.305641
 42
-0.119071
  0
VERTEX
  8
0
 10
170.360897
 20
224.743700
 42
-0.035571
  0
VERTEX
  8
0
 10
174.500000
 20
227.356410
 42
-0.034934
  0
VERTEX
  8
0
 10
178.495279
 20
229.150719
 42
-0.047874
  0
VERTEX
  8
0
 10
182.305475
 20
230.150440
 42
-0.030807
  0
VERTEX
  8
0
 10
187.346093
 20
230.652771
 42
-0.006605
  0
VERTEX
  8
0
 10
196.135165
 20
230.868359
 42
-0.008904
  0
VERTEX
  8
0
 10
201.428324
 20
230.833980
 42
-0.013515
  0
VERTEX
  8
0
 10
206.023876
 20
230.597874
 42
-0.015573
  0
VERTEX
  8
0
 10
209.830690
 20
230.179337
 42
-0.036197
  0
SEQEND
  0
POLYLINE
  8
0
 66
1
 70
1
  0
VERTEX
  8
0
 10
153.102960
 20
218.821977
 42
-0.047830
  0
VERTEX
  8
0
 10
155.934569
 20
216.852925
 42
-0.124093
  0
VERTEX
  8
0
 10
157.369369
 20
214.845972
 42
-0.101518
  0
VERTEX
  8
0
 10
157.837402
 20
212.142127
 42
-0.025953
  0
VERTEX
  8
0
 10
157.467913
 20
207.691858
 42
-0.049821
  0
VERTEX
  8
0
 10
156.259643
 20
202.629445
 42
-0.058974
  0
VERTEX
  8
0
 10
154.113532
 20
198.205458
 42
-0.058234
  0
VERTEX
  8
0
 10
150.967879
 20
194.361412
 42
-0.046788
  0
VERTEX
  8
0
 10
146.793729
 20
191.019364
 42
-0.019549
  0
VERTEX
  8
0
 10
143.384938
 20
188.964259
 42
-0.067235
  0
VERTEX
  8
0
 10
140.981270
 20
188.034245
 42
-0.051963
  0
VERTEX
  8
0
 10
138.114647
 20
187.656339
 42
-0.008471
  0
VERTEX
  8
0
 10
132.500000
 20
187.598513
 42
-0.036652
  0
VERTEX
  8
0
 10
124.780685
 20
188.216717
 42
-0.093400
  0
VERTEX
  8
0
 10
119.506230
 20
190.079204
 42
-0.098857
  0
VERTEX
  8
0
 10
115.448609
 20
193.658017
 42
-0.044333
  0
VERTEX
  8
0
 10
111.640694
 20
199.700340
 42
-0.028522
  0
VERTEX
  8
0
 10
110.383754
 20
202.540123
 42
-0.128367
  0
VERTEX
  8
0
 10
110.196261
 20
204.330661
 42
-0.111254
  0
VERTEX
  8
0
 10
110.894764
 20
206.117753
 42
-0.018916
  0
VERTEX
  8
0
 10
113.069026
 20
209.087152
 42
-0.033342
  0
VERTEX
  8
0
 10
116.401352
 20
212.762320
 42
-0.054811
  0
VERTEX
  8
0
 10
119.718491
 20
215.326743
 42
-0.050358
  0
VERTEX
  8
0
 10
123.712837
 20
217.246232
 42
-0.023658
  0
VERTEX
  8
0
 10
129.192549
 20
218.941493
 42
-0.026206
  0
VERTEX
  8
0
 10
136.576387
 20
220.440775
 42
-0.038250
  0
VERTEX
  8
0
 10
143.194374
 20
220.914530
 42
-0.044802
  0
VERTEX
  8
0
 10
148.800953
 20
220.382883
 42
-0.082171
  0
SEQEND
  0
POLYLINE
  8
0
 66
1
 70
1
  0
VERTEX
  8
0
 10
104.940318
 20
194.611517
 42
-0.026560
  0
VERTEX
  8
0
 10
105.587276
 20
193.231173
 42
-0.091154
  0
VERTEX
  8
0
 10
105.786427
 20
192.265499
 42
-0.118117
  0
VERTEX
  8
0
 10
105.606126
 20
191.434162
 42
-0.061077
  0
VERTEX
  8
0
 10
105.028291
 20
190.534089
 42
-0.084040
  0
VERTEX
  8
0
 10
103.707798
 20
189.398201
 42
-0.156938
  0
VERTEX
  8
0
 10
102.348786
 20
189.078044
 42
-0.161381
  0
VERTEX
  8
0
 10
101.084805
 20
189.612412
 42
-0.090097
  0
VERTEX
  8
0
 10
100.035184
 20
190.934259
 42
-0.067694
  0
VERTEX
  8
0
 10
99.352814
 20
192.768159
 42
-0.041590
  0
VERTEX
  8
0
 10
99.035466
 20
195.054858
 42
-0.040622
  0
VERTEX
  8
0
 10
99.091387
 20
197.170045
 42
-0.171082
  0
VERTEX
  8
0
 10
99.631483
 20
198.298150
 42
-0.270891
  0
VERTEX
  8
0
 10
100.639859
 20
198.562423
 42
-0.083747
  0
VERTEX
  8
0
 10
102.116539
 20
197.867455
 42
-0.064052
  0
VERTEX
  8
0
 10
103.681060
 20
196.453444
 42
-0.054193
  0
SEQEND
  0
POLYLINE
  8
0
 66
1
 70
1
  0
VERTEX
  8
0
 10
319.049230
 20
123.750000
 42
-0.015517
  0
VERTEX
  8
0
 10
320.549825
 20
122.423441
 42
-0.020803
  0
VERTEX
  8
0
 10
321.819295
 20
121.125344
 42
-0.018489
  0
VERTEX
  8
0
 10
322.767834
 20
119.989263
 42
-0.162053
  0
VERTEX
  8
0
 10
322.981974
 20
119.378831
 42
-0.356484
  0
VERTEX
  8
0
 10
322.205069
 20
118.395790
 42
-0.017827
  0
VERTEX
  8
0
 10
317.874808
 20
117.601269
 42
-0.019880
  0
VERTEX
  8
0
 10
313.481371
 20
117.133555
 42
-0.216203
  0
VERTEX
  8
0
 10
311.855185
 20
117.744815
 42
-0.264431
  0
VERTEX
  8
0
 10
311.550680
 20
118.852090
 42
-0.012856
  0
VERTEX
  8
0
 10
312.622527
 20
122.660158
 42
-0.012206
  0
VERTEX
  8
0
 10
313.886183
 20
126.416791
 42
-0.315344
  0
VERTEX
  8
0
 10
314.718946
 20
127.000000
 42
-0.158958
  0
VERTEX
  8
0
 10
314.993662
 20
126.910400
 42
-0.003321
  0
VERTEX
  8
0
 10
316.162388
 20
126.045312
 42
-0.007392
  0
VERTEX
  8
0
 10
317.518889
 20
124.995514
 42
-0.004870
  0
SEQEND
  0
POLYLINE
  8
0
 66
1
 70
1
  0
VERTEX
  8
0
 10
593.631593
 20
112.600459
 42
-0.042375
  0
VERTEX
  8
0
 10
596.356053
 20
109.281969
 42
-0.029535
  0
VERTEX
  8
0
 10
598.863710
 20
105.133069
 42
-0.024774
  0
VERTEX
  8
0
 10
601.257684
 20
99.982174
 42
-0.014421
  0
VERTEX
  8
0
 10
603.638082
 20
93.594023
 42
-0.020589
  0
VERTEX
  8
0
 10
604.849139
 20
89.485912
 42
-0.029796
  0
VERTEX
  8
0
 10
605.548486
 20
85.768010
 42
-0.023699
  0
VERTEX
  8
0
 10
605.893112
 20
81.412852
 42
-0.008097
  0
VERTEX
  8
0
 10
605.990616
 20
75.074848
 42
-0.005572
  0
VERTEX
  8
0
 10
605.905462
 20
67.951724
 42
-0.037672
  0
VERTEX
  8
0
 10
605.559183
 20
64.444209
 42
-0.059967
  0
VERTEX
  8
0
 10
604.742263
 20
61.741277
 42
-0.026873
  0
VERTEX
  8
0
 10
603.068185
 20
58.421236
 42
-0.047211
  0
VERTEX
  8
0
 10
599.721979
 20
53.685310
 42
-0.026387
  0
VERTEX
  8
0
 10
594.845185
 20
48.577115
 42
-0.026424
  0
VERTEX
  8
0
 10
589.516879
 20
44.062019
 42
-0.052335
  0
VERTEX
  8
0
 10
584.786184
 20
41.190422
 42
-0.013371
  0
VERTEX
  8
0
 10
576.944382
 20
37.742465
 42
-0.017281
  0
VERTEX
  8
0
 10
569.566796
 20
35.024763
 42
-0.018503
  0
VERTEX
  8
0
 10
562.476346
 20
32.975218
 42
-0.020582
  0
VERTEX
  8
0
 10
555.500000
 20
31.537595
 42
-0.001019
  0
VERTEX
  8
0
 10
544.184475
 20
29.711153
 42
-0.004127
  0
VERTEX
  8
0
 10
537.278407
 20
28.669256
 42
-0.006437
  0
VERTEX
  8
0
 10
532.076211
 20
27.996496
 42
-0.006993
  0
VERTEX
  8
0
 10
527.000000
 20
27.478212
 42
0.005295
  0
VERTEX
  8
0
 10
523.940114
 20
27.176291
 42
0.002615
  0
VERTEX
  8
0
 10
520.059375
 20
26.731283
 42
0.002595
  0
VERTEX
  8
0
 10
516.037010
 20
26.227520
 42
0.003789
  0
VERTEX
  8
0
 10
512.500000
 20
25.738600
 42
-0.027610
  0
VERTEX
  8
0
 10
506.692899
 20
25.216115
 42
-0.004078
  0
VERTEX
  8
0
 10
494.910394
 20
24.905346
 42
-0.003817
  0
VERTEX
  8
0
 10
479.027691
 20
24.737311
 42
-0.001677
  0
VERTEX
  8
0
 10
458.000000
 20
24.745902
 42
-0.001339
  0
VERTEX
  8
0
 10
431.868855
 20
24.914195
 42
-0.006524
  0
VERTEX
  8
0
 10
417.072127
 20
25.242217
 42
-0.011126
  0
VERTEX
  8
0
 10
406.489171
 20
25.851016
 42
-0.013071
  0
VERTEX
  8
0
 10
396.500000
 20
26.912370
 42
-0.030504
  0
VERTEX
  8
0
 10
368.213167
 20
32.440020
 42
-0.098106
  0
VERTEX
  8
0
 10
351.017308
 20
40.737192
 42
-0.179874
  0
VERTEX
  8
0
 10
343.931675
 20
51.798809
 42
-0.162090
  0
VERTEX
  8
0
 10
345.397839
 20
65.370365
 42
-0.081386
  0
VERTEX
  8
0
 10
350.242526
 20
72.583965
 42
-0.056428
  0
VERTEX
  8
0
 10
357.743695
 20
78.956580
 42
-0.050305
  0
VERTEX
  8
0
 10
367.427583
 20
84.133948
 42
-0.039486
  0
VERTEX
  8
0
 10
378.766893
 20
87.785208
 42
-0.048037
  0
VERTEX
  8
0
 10
384.842765
 20
88.620282
 42
-0.007576
  0
VERTEX
  8
0
 10
396.911136
 20
88.927288
 42
-0.002688
  0
VERTEX
  8
0
 10
409.865939
 20
88.990831
 42
-0.259807
  0
VERTEX
  8
0
 10
411.425223
 20
88.120992
 42
-0.144185
  0
VERTEX
  8
0
 10
411.576240
 20
87.569273
 42
-0.037560
  0
VERTEX
  8
0
 10
411.488748
 20
86.644243
 42
-0.034984
  0
VERTEX
  8
0
 10
411.224055
 20
85.559452
 42
-0.029573
  0
VERTEX
  8
0
 10
410.798665
 20
84.457463
 42
0.030608
  0
VERTEX
  8
0
 10
410.193933
 20
82.881187
 42
0.136004
  0
VERTEX
  8
0
 10
410.159758
 20
81.899102
 42
0.134672
  0
VERTEX
  8
0
 10
410.635946
 20
81.034238
 42
0.029785
  0
VERTEX
  8
0
 10
411.896745
 20
79.882527
 42
0.015234
  0
VERTEX
  8
0
 10
412.844541
 20
79.161720
 42
0.018919
  0
VERTEX
  8
0
 10
413.769827
 20
78.552992
 42
0.017490
  0
VERTEX
  8
0
 10
414.571319
 20
78.105633
 42
0.119085
  0
VERTEX
  8
0
 10
415.008548
 20
78.000000
 42
0.148633
  0
VERTEX
  8
0
 10
415.528532
 20
78.158065
 42
0.003793
  0
VERTEX
  8
0
 10
417.577197
 20
79.553018
 42
0.007762
  0
VERTEX
  8
0
 10
419.964908
 20
81.260898
 42
0.005181
  0
VERTEX
  8
0
 10
422.647764
 20
83.286871
 42
-0.036037
  0
VERTEX
  8
0
 10
432.620160
 20
89.893558
 42
-0.033223
  0
VERTEX
  8
0
 10
443.706686
 20
95.203185
 42
-0.029558
  0
VERTEX
  8
0
 10
456.572732
 20
99.482970
 42
-0.018878
  0
VERTEX
  8
0
 10
471.944477
 20
102.989522
 42
-0.014626
  0
VERTEX
  8
0
 10
478.925395
 20
104.096603
 42
-0.017689
  0
VERTEX
  8
0
 10
485.530180
 20
104.710311
 42
-0.011977
  0
VERTEX
  8
0
 10
493.935169
 20
104.990525
 42
-0.003009
  0
VERTEX
  8
0
 10
507.643242
 20
105.036546
 42
-0.002853
  0
VERTEX
  8
0
 10
521.193385
 20
104.923183
 42
-0.011925
  0
VERTEX
  8
0
 10
529.343827
 20
104.613970
 42
-0.018814
  0
VERTEX
  8
0
 10
535.421180
 20
104.007936
 42
-0.019870
  0
VERTEX
  8
0
 10
541.324887
 20
102.953448
 42
-0.004074
  0
VERTEX
  8
0
 10
548.488916
 20
101.316535
 42
-0.011634
  0
VERTEX
  8
0
 10
553.434509
 20
100.021798
 42
-0.014073
  0
VERTEX
  8
0
 10
557.765114
 20
98.646700
 42
-0.008810
  0
VERTEX
  8
0
 10
562.755099
 20
96.806951
 42
0.011936
  0
VERTEX
  8
0
 10
565.545892
 20
95.797790
 42
0.051229
  0
VERTEX
  8
0
 10
567.268646
 20
95.411221
 42
0.091303
  0
VERTEX
  8
0
 10
568.489226
 20
95.489122
 42
0.112189
  0
VERTEX
  8
0
 10
569.505099
 20
96.004232
 42
0.126593
  0
VERTEX
  8
0
 10
570.577267
 20
97.486458
 42
0.097629
  0
VERTEX
  8
0
 10
570.935299
 20
99.456927
 42
0.084082
  0
VERTEX
  8
0
 10
570.525467
 20
101.675475
 42
0.065236
  0
VERTEX
  8
0
 10
569.388078
 20
103.856329
 42
-0.063998
  0
VERTEX
  8
0
 10
568.593316
 20
105.371106
 42
-0.158029
  0
VERTEX
  8
0
 10
568.541367
 20
106.610155
 42
-0.075524
  0
VERTEX
  8
0
 10
569.250519
 20
108.188282
 42
-0.007509
  0
VERTEX
  8
0
 10
571.557672
 20
111.648262
 42
0.000000
  0
VERTEX
  8
0
 10
575.339188
 20
117.138855
 42
0.000000
  0
VERTEX
  8
0
 10
582.919594
 20
116.477627
 42
-0.011083
  0
VERTEX
  8
0
 10
587.333370
 20
115.993835
 42
-0.054037
  0
VERTEX
  8
0
 10
589.772614
 20
115.398700
 42
-0.076591
  0
VERTEX
  8
0
 10
591.610221
 20
114.394425
 42
-0.036426
  0
SEQEND
  0
POLYLINE
  8
0
 66
1
 70
1
  0
VERTEX
  8
0
 10
336.400376
 20
109.073597
 42
0.014898
  0
VERTEX
  8
0
 10
339.131232
 20
107.179287
 42
0.005326
  0
VERTEX
  8
0
 10
343.133386
 20
104.636449
 42
0.005278
  0
VERTEX
  8
0
 10
347.584936
 20
101.938854
 42
0.006216
  0
VERTEX
  8
0
 10
351.857676
 20
99.482086
 42
-0.006252
  0
VERTEX
  8
0
 10
355.745298
 20
97.246382
 42
-0.009835
  0
VERTEX
  8
0
 10
359.020692
 20
95.219832
 42
-0.004327
  0
VERTEX
  8
0
 10
361.728683
 20
93.436364
 42
-0.249956
  0
VERTEX
  8
0
 10
362.000000
 20
92.927542
 42
-0.221043
  0
VERTEX
  8
0
 10
361.820190
 20
92.540685
 42
-0.046577
  0
VERTEX
  8
0
 10
361.192187
 20
92.104068
 42
-0.040617
  0
VERTEX
  8
0
 10
360.303154
 20
91.692832
 42
-0.028719
  0
VERTEX
  8
0
 10
359.250000
 20
91.373224
 42
0.053533
  0
VERTEX
  8
0
 10
356.760149
 20
90.480730
 42
0.029292
  0
VERTEX
  8
0
 10
353.926849
 20
88.896954
 42
0.021431
  0
VERTEX
  8
0
 10
350.456626
 20
86.465665
 42
0.008542
  0
VERTEX
  8
0
 10
345.906079
 20
82.852480
 42
0.033210
  0
VERTEX
  8
0
 10
343.635608
 20
80.717900
 42
0.027375
  0
VERTEX
  8
0
 10
341.506321
 20
78.164661
 42
0.024797
  0
VERTEX
  8
0
 10
339.477749
 20
75.140073
 42
0.017880
  0
VERTEX
  8
0
 10
337.510117
 20
71.584501
 42
-0.038781
  0
VERTEX
  8
0
 10
334.022194
 20
65.859794
 42
-0.134020
  0
VERTEX
  8
0
 10
330.675016
 20
63.155229
 42
-0.084778
  0
VERTEX
  8
0
 10
325.582520
 20
61.887381
 42
-0.010106
  0
VERTEX
  8
0
 10
313.937225
 20
61.250447
 42
-0.004497
  0
VERTEX
  8
0
 10
305.825067
 20
61.044083
 42
-0.027903
  0
VERTEX
  8
0
 10
301.665031
 20
61.207874
 42
-0.047457
  0
VERTEX
  8
0
 10
298.565374
 20
61.803955
 42
-0.030366
  0
VERTEX
  8
0
 10
295.112617
 20
63.046899
 42
-0.024668
  0
VERTEX
  8
0
 10
292.029800
 20
64.557352
 42
-0.076247
  0
VERTEX
  8
0
 10
290.198734
 20
65.969979
 42
-0.065302
  0
VERTEX
  8
0
 10
288.726061
 20
67.985239
 42
-0.014818
  0
VERTEX
  8
0
 10
286.800652
 20
71.766096
 42
0.000000
  0
VERTEX
  8
0
 10
283.750519
 20
78.221714
 42
0.000000
  0
VERTEX
  8
0
 10
285.602189
 20
83.860857
 42
-0.033926
  0
VERTEX
  8
0
 10
288.277202
 20
90.460434
 42
-0.055288
  0
VERTEX
  8
0
 10
291.500915
 20
95.563903
 42
-0.059142
  0
VERTEX
  8
0
 10
295.590131
 20
99.599541
 42
-0.045956
  0
VERTEX
  8
0
 10
300.860532
 20
102.968858
 42
-0.044722
  0
VERTEX
  8
0
 10
304.882279
 20
104.610638
 42
-0.014949
  0
VERTEX
  8
0
 10
311.013239
 20
106.296188
 42
-0.014951
  0
VERTEX
  8
0
 10
317.234360
 20
107.612420
 42
-0.044680
  0
VERTEX
  8
0
 10
321.563009
 20
108.000000
 42
0.024414
  0
VERTEX
  8
0
 10
323.972616
 20
108.117727
 42
0.063612
  0
VERTEX
  8
0
 10
325.661421
 20
108.503702
 42
0.076377
  0
VERTEX
  8
0
 10
327.013735
 20
109.249870
 42
0.048714
  0
VERTEX
  8
0
 10
328.325668
 20
110.481930
 42
-0.005892
  0
VERTEX
  8
0
 10
329.180133
 20
111.434394
 42
-0.008940
  0
VERTEX
  8
0
 10
329.947270
 20
112.240101
 42
-0.004340
  0
VERTEX
  8
0
 10
330.611111
 20
112.901236
 42
-0.180167
  0
VERTEX
  8
0
 10
330.792700
 20
112.981930
 42
-0.168030
  0
VERTEX
  8
0
 10
330.999144
 20
112.924508
 42
-0.001110
  0
VERTEX
  8
0
 10
332.560693
 20
111.841311
 42
-0.004226
  0
VERTEX
  8
0
 10
334.341869
 20
110.577398
 42
-0.002667
  0
SEQEND
  0
POLYLINE
  8
0
 66
1
 70
1
  0
VERTEX
  8
0
 10
236.346265
 20
384.945902
 42
0.109436
  0
VERTEX
  8
0
 10
232.676878
 20
381.259068
 42
0.077027
  0
VERTEX
  8
0
 10
230.329866
 20
375.877796
 42
0.074381
  0
VERTEX
  8
0
 10
229.669009
 20
369.840740
 42
0.088541
  0
VERTEX
  8
0
 10
230.895926
 20
364.251258
 42
0.080483
  0
VERTEX
  8
0
 10
233.025778
 20
360.803117
 42
0.094206
  0
VERTEX
  8
0
 10
236.038259
 20
358.421367
 42
0.078699
  0
VERTEX
  8
0
 10
240.161799
 20
357.036221
 42
0.039806
  0
VERTEX
  8
0
 10
245.635021
 20
356.556500
 42
0.010667
  0
VERTEX
  8
0
 10
249.753988
 20
356.612017
 42
0.051994
  0
VERTEX
  8
0
 10
252.061468
 20
356.934144
 42
0.079701
  0
VERTEX
  8
0
 10
253.761545
 20
357.656265
 42
0.047461
  0
VERTEX
  8
0
 10
255.508805
 20
359.000000
 42
0.044111
  0
VERTEX
  8
0
 10
258.082929
 20
361.863701
 42
0.063592
  0
VERTEX
  8
0
 10
259.764780
 20
364.821533
 42
0.060912
  0
VERTEX
  8
0
 10
260.694788
 20
368.203823
 42
0.036681
  0
VERTEX
  8
0
 10
261.000000
 20
372.358564
 42
0.021939
  0
VERTEX
  8
0
 10
260.854257
 20
375.678550
 42
0.082729
  0
VERTEX
  8
0
 10
260.335257
 20
377.687436
 42
0.073430
  0
VERTEX
  8
0
 10
259.162095
 20
379.540066
 42
0.015012
  0
VERTEX
  8
0
 10
256.537304
 20
382.408224
 42
0.014523
  0
VERTEX
  8
0
 10
253.622431
 20
385.238130
 42
0.085006
  0
VERTEX
  8
0
 10
251.833100
 20
386.389993
 42
0.086277
  0
VERTEX
  8
0
 10
249.773835
 20
386.872654
 42
0.015196
  0
VERTEX
  8
0
 10
245.787304
 20
386.983153
 42
0.017621
  0
VERTEX
  8
0
 10
242.664460
 20
386.864686
 42
0.034857
  0
VERTEX
  8
0
 10
240.210844
 20
386.511804
 42
0.042373
  0
VERTEX
  8
0
 10
238.174605
 20
385.888113
 42
0.046997
  0
SEQEND
  0
POLYLINE
  8
0
 66
1
 70
1
  0
VERTEX
  8
0
 10
104.238905
 20
373.238905
 42
0.051722
  0
VERTEX
  8
0
 10
101.475505
 20
369.835914
 42
0.047879
  0
VERTEX
  8
0
 10
99.385982
 20
365.851621
 42
0.051327
  0
VERTEX
  8
0
 10
98.239902
 20
361.936257
 42
0.107435
  0
VERTEX
  8
0
 10
98.340495
 20
358.779496
 42
0.096379
  0
VERTEX
  8
0
 10
100.644559
 20
353.860742
 42
0.064246
  0
VERTEX
  8
0
 10
104.937617
 20
349.330738
 42
0.064990
  0
VERTEX
  8
0
 10
110.169742
 20
346.093052
 42
0.106484
  0
VERTEX
  8
0
 10
115.244008
 20
345.000000
 42
0.067424
  0
VERTEX
  8
0
 10
118.753812
 20
345.475453
 42
0.059838
  0
VERTEX
  8
0
 10
122.166253
 20
346.873457
 42
0.057185
  0
VERTEX
  8
0
 10
125.287670
 20
349.114142
 42
0.051806
  0
VERTEX
  8
0
 10
127.937998
 20
352.073106
 42
0.071169
  0
VERTEX
  8
0
 10
130.367695
 20
356.685779
 42
0.087005
  0
VERTEX
  8
0
 10
131.187220
 20
361.484698
 42
0.086910
  0
VERTEX
  8
0
 10
130.325390
 20
366.280249
 42
0.070842
  0
VERTEX
  8
0
 10
127.854646
 20
370.883012
 42
0.040831
  0
VERTEX
  8
0
 10
125.090907
 20
374.061508
 42
0.090099
  0
VERTEX
  8
0
 10
122.434422
 20
375.854656
 42
0.078326
  0
VERTEX
  8
0
 10
119.079134
 20
376.739017
 42
0.025350
  0
VERTEX
  8
0
 10
113.934900
 20
377.000000
 42
0.016536
  0
VERTEX
  8
0
 10
110.350519
 20
376.881429
 42
0.076121
  0
VERTEX
  8
0
 10
108.327630
 20
376.433138
 42
0.082593
  0
VERTEX
  8
0
 10
106.611817
 20
375.416612
 42
0.021438
  0
SEQEND
  0
POLYLINE
  8
0
 66
1
 70
1
  0
VERTEX
  8
0
 10
191.214516
 20
364.319927
 42
0.000000
  0
VERTEX
  8
0
 10
189.189058
 20
361.539420
 42
0.000000
  0
VERTEX
  8
0
 10
185.560602
 20
363.269710
 42
0.029530
  0
VERTEX
  8
0
 10
182.406384
 20
364.551273
 42
0.089181
  0
VERTEX
  8
0
 10
180.120889
 20
364.894335
 42
0.114059
  0
VERTEX
  8
0
 10
178.189797
 20
364.388812
 42
0.066812
  0
VERTEX
  8
0
 10
176.230375
 20
363.000000
 42
-0.084294
  0
VERTEX
  8
0
 10
173.939631
 20
361.493163
 42
-0.118890
  0
VERTEX
  8
0
 10
171.543686
 20
361.064653
 42
-0.127702
  0
VERTEX
  8
0
 10
169.339505
 20
361.779766
 42
-0.106148
  0
VERTEX
  8
0
 10
167.580874
 20
363.516915
 42
0.028492
  0
VERTEX
  8
0
 10
166.630780
 20
364.800994
 42
0.123582
  0
VERTEX
  8
0
 10
165.871543
 20
365.355615
 42
0.161426
  0
VERTEX
  8
0
 10
165.055818
 20
365.408624
 42
0.059118
  0
VERTEX
  8
0
 10
163.965864
 20
364.981731
 42
0.211397
  0
VERTEX
  8
0
 10
162.323073
 20
362.876945
 42
0.146084
  0
VERTEX
  8
0
 10
162.458004
 20
359.814915
 42
0.106761
  0
VERTEX
  8
0
 10
164.441697
 20
356.556593
 42
0.084684
  0
VERTEX
  8
0
 10
167.750000
 20
354.081856
 42
-0.120788
  0
VERTEX
  8
0
 10
169.017960
 20
352.983843
 42
-0.111980
  0
VERTEX
  8
0
 10
169.678560
 20
351.393351
 42
-0.039240
  0
VERTEX
  8
0
 10
169.948798
 20
348.470403
 42
-0.003438
  0
VERTEX
  8
0
 10
170.000000
 20
341.023833
 42
0.007279
  0
VERTEX
  8
0
 10
170.069249
 20
336.267050
 42
0.012642
  0
VERTEX
  8
0
 10
170.283976
 20
332.323486
 42
0.007605
  0
VERTEX
  8
0
 10
170.585455
 20
329.155862
 42
0.230750
  0
VERTEX
  8
0
 10
171.000000
 20
328.500000
 42
-0.101696
  0
VERTEX
  8
0
 10
171.383201
 20
328.138497
 42
-0.051969
  0
VERTEX
  8
0
 10
171.706250
 20
327.558222
 42
-0.048587
  0
VERTEX
  8
0
 10
171.925845
 20
326.865648
 42
-0.052535
  0
VERTEX
  8
0
 10
172.000000
 20
326.161825
 42
0.122172
  0
VERTEX
  8
0
 10
172.222128
 20
325.266315
 42
0.025014
  0
VERTEX
  8
0
 10
173.061626
 20
323.853978
 42
0.024957
  0
VERTEX
  8
0
 10
174.230533
 20
322.271548
 42
0.021183
  0
VERTEX
  8
0
 10
175.614046
 20
320.720842
 42
0.022291
  0
VERTEX
  8
0
 10
177.907202
 20
318.561376
 42
0.085458
  0
VERTEX
  8
0
 10
179.582597
 20
317.556399
 42
0.076742
  0
VERTEX
  8
0
 10
181.588307
 20
317.114999
 42
0.015860
  0
VERTEX
  8
0
 10
185.212836
 20
317.000000
 42
0.014856
  0
VERTEX
  8
0
 10
188.721440
 20
317.104273
 42
0.069316
  0
VERTEX
  8
0
 10
190.700236
 20
317.500928
 42
0.088300
  0
VERTEX
  8
0
 10
192.258048
 20
318.377185
 42
0.032739
  0
VERTEX
  8
0
 10
194.098790
 20
320.105755
 42
0.045933
  0
VERTEX
  8
0
 10
195.813471
 20
322.317115
 42
0.094269
  0
VERTEX
  8
0
 10
196.623113
 20
324.345530
 42
0.044026
  0
VERTEX
  8
0
 10
196.939443
 20
327.382180
 42
0.003950
  0
VERTEX
  8
0
 10
197.000000
 20
335.046738
 42
0.006879
  0
VERTEX
  8
0
 10
196.937052
 20
339.621830
 42
0.010687
  0
VERTEX
  8
0
 10
196.744191
 20
343.563466
 42
0.005195
  0
VERTEX
  8
0
 10
196.478027
 20
346.856403
 42
0.235773
  0
VERTEX
  8
0
 10
196.129162
 20
347.420174
 42
-0.185090
  0
VERTEX
  8
0
 10
195.042587
 20
348.845987
 42
-0.055775
  0
VERTEX
  8
0
 10
194.563256
 20
351.577543
 42
-0.054901
  0
VERTEX
  8
0
 10
194.703090
 20
354.524377
 42
-0.106128
  0
VERTEX
  8
0
 10
195.549511
 20
356.715908
 42
0.099555
  0
VERTEX
  8
0
 10
196.620724
 20
359.385594
 42
0.062698
  0
VERTEX
  8
0
 10
196.815795
 20
362.751224
 42
0.069112
  0
VERTEX
  8
0
 10
196.213377
 20
365.643603
 42
0.266123
  0
VERTEX
  8
0
 10
194.869987
 20
366.791900
 42
0.144321
  0
VERTEX
  8
0
 10
194.101630
 20
366.715123
 42
0.052133
  0
VERTEX
  8
0
 10
193.123812
 20
366.193028
 42
0.046320
  0
VERTEX
  8
0
 10
192.109947
 20
365.361052
 42
0.040392
  0
SEQEND
  0
POLYLINE
  8
0
 66
1
 70
1
  0
VERTEX
  8
0
 10
183.455198
 20
355.378819
 42
-0.132297
  0
VERTEX
  8
0
 10
184.924985
 20
354.308359
 42
-0.048927
  0
VERTEX
  8
0
 10
186.341776
 20
352.148137
 42
-0.042609
  0
VERTEX
  8
0
 10
187.545112
 20
349.282324
 42
-0.033064
  0
VERTEX
  8
0
 10
188.370189
 20
346.000000
 42
0.001118
  0
VERTEX
  8
0
 10
188.651076
 20
344.477164
 42
0.000827
  0
VERTEX
  8
0
 10
188.968357
 20
342.793750
 42
0.000835
  0
VERTEX
  8
0
 10
189.273379
 20
341.204422
 42
0.001878
  0
VERTEX
  8
0
 10
189.511313
 20
340.000000
 42
-0.032543
  0
VERTEX
  8
0
 10
190.014293
 20
336.261330
 42
-0.024757
  0
VERTEX
  8
0
 10
190.093520
 20
332.127687
 42
-0.024031
  0
VERTEX
  8
0
 10
189.799969
 20
328.390774
 42
-0.091492
  0
VERTEX
  8
0
 10
189.091607
 20
326.171170
 42
-0.196258
  0
VERTEX
  8
0
 10
186.832202
 20
324.299517
 42
-0.188116
  0
VERTEX
  8
0
 10
183.857582
 20
324.501104
 42
-0.118016
  0
VERTEX
  8
0
 10
180.708457
 20
327.019135
 42
-0.064803
  0
VERTEX
  8
0
 10
178.190843
 20
331.297053
 42
-0.087333
  0
VERTEX
  8
0
 10
177.230080
 20
335.432385
 42
-0.013612
  0
VERTEX
  8
0
 10
177.004137
 20
343.850628
 42
-0.009446
  0
VERTEX
  8
0
 10
177.169796
 20
352.441235
 42
-0.189010
  0
VERTEX
  8
0
 10
178.200000
 20
354.800000
 42
-0.075258
  0
VERTEX
  8
0
 10
179.259443
 20
355.580870
 42
-0.094085
  0
VERTEX
  8
0
 10
180.425300
 20
355.938088
 42
-0.079635
  0
VERTEX
  8
0
 10
181.789921
 20
355.870846
 42
-0.039580
  0
SEQEND
  0
POLYLINE
  8
0
 66
1
 70
1
  0
VERTEX
  8
0
 10
337.750000
 20
264.919901
 42
0.179562
  0
VERTEX
  8
0
 10
336.366186
 20
263.236545
 42
0.113800
  0
VERTEX
  8
0
 10
336.094193
 20
260.682195
 42
0.083688
  0
VERTEX
  8
0
 10
337.013857
 20
257.572329
 42
0.052830
  0
VERTEX
  8
0
 10
339.029345
 20
254.358138
 42
-0.001505
  0
VERTEX
  8
0
 10
340.471591
 20
252.509884
 42
-0.000694
  0
VERTEX
  8
0
 10
342.338266
 20
250.095904
 42
-0.000687
  0
VERTEX
  8
0
 10
344.294228
 20
247.551970
 42
-0.000953
  0
VERTEX
  8
0
 10
346.039782
 20
245.266215
 42
0.029295
  0
VERTEX
  8
0
 10
350.382261
 20
240.202356
 42
0.102947
  0
VERTEX
  8
0
 10
353.911656
 20
237.797107
 42
0.206155
  0
VERTEX
  8
0
 10
356.722617
 20
237.835306
 42
0.166308
  0
VERTEX
  8
0
 10
358.953120
 20
239.912404
 42
0.214042
  0
VERTEX
  8
0
 10
359.076813
 20
241.684787
 42
0.032214
  0
VERTEX
  8
0
 10
357.600187
 20
245.023143
 42
0.033144
  0
VERTEX
  8
0
 10
355.305856
 20
248.789598
 42
0.030000
  0
VERTEX
  8
0
 10
352.462313
 20
252.354069
 42
-0.019521
  0
VERTEX
  8
0
 10
351.617137
 20
253.369162
 42
-0.005396
  0
VERTEX
  8
0
 10
350.370281
 20
255.028247
 42
-0.005441
  0
VERTEX
  8
0
 10
348.997785
 20
256.939390
 42
-0.005670
  0
VERTEX
  8
0
 10
347.686241
 20
258.854069
 42
0.017755
  0
VERTEX
  8
0
 10
344.507637
 20
263.262038
 42
0.090862
  0
VERTEX
  8
0
 10
342.266712
 20
265.264713
 42
0.167412
  0
VERTEX
  8
0
 10
340.169765
 20
265.725576
 42
0.103367
  0
SEQEND
  0
POLYLINE
  8
0
 66
1
 70
1
  0
VERTEX
  8
0
 10
371.645960
 20
214.152349
 42
0.076464
  0
VERTEX
  8
0
 10
369.603509
 20
211.238447
 42
0.166716
  0
VERTEX
  8
0
 10
369.258611
 20
208.565600
 42
0.112284
  0
VERTEX
  8
0
 10
370.636864
 20
205.525922
 42
0.025570
  0
VERTEX
  8
0
 10
374.304337
 20
201.175763
 42
-0.017479
  0
VERTEX
  8
0
 10
376.472628
 20
198.686686
 42
-0.014596
  0
VERTEX
  8
0
 10
378.601288
 20
195.900969
 42
-0.014846
  0
VERTEX
  8
0
 10
380.399351
 20
193.236346
 42
-0.038432
  0
VERTEX
  8
0
 10
381.483611
 20
191.189239
 42
0.066860
  0
VERTEX
  8
0
 10
383.896120
 20
187.198889
 42
0.147482
  0
VERTEX
  8
0
 10
386.805573
 20
185.205708
 42
0.165931
  0
VERTEX
  8
0
 10
390.087692
 20
185.274919
 42
0.090348
  0
VERTEX
  8
0
 10
393.604480
 20
187.336211
 42
0.059365
  0
VERTEX
  8
0
 10
395.331721
 20
189.220881
 42
0.246271
  0
VERTEX
  8
0
 10
395.540669
 20
190.700216
 42
0.251088
  0
VERTEX
  8
0
 10
394.445294
 20
191.692734
 42
0.061118
  0
VERTEX
  8
0
 10
391.940983
 20
192.000000
 42
-0.100283
  0
VERTEX
  8
0
 10
389.236472
 20
192.547944
 42
-0.103478
  0
VERTEX
  8
0
 10
386.992836
 20
194.102806
 42
-0.100585
  0
VERTEX
  8
0
 10
385.516007
 20
196.468578
 42
-0.089630
  0
VERTEX
  8
0
 10
385.000000
 20
199.324002
 42
0.044371
  0
VERTEX
  8
0
 10
384.836424
 20
201.163638
 42
0.109429
  0
VERTEX
  8
0
 10
384.317289
 20
202.407568
 42
0.091686
  0
VERTEX
  8
0
 10
383.257351
 20
203.444827
 42
0.025274
  0
VERTEX
  8
0
 10
381.250000
 20
204.651330
 42
-0.022833
  0
VERTEX
  8
0
 10
379.058285
 20
205.954129
 42
-0.118536
  0
VERTEX
  8
0
 10
378.102662
 20
206.974053
 42
-0.121327
  0
VERTEX
  8
0
 10
377.726507
 20
208.305106
 42
-0.024411
  0
VERTEX
  8
0
 10
377.763381
 20
210.784983
 42
0.021999
  0
VERTEX
  8
0
 10
377.804577
 20
212.876834
 42
0.069804
  0
VERTEX
  8
0
 10
377.577043
 20
214.254511
 42
0.103156
  0
VERTEX
  8
0
 10
377.046415
 20
215.206169
 42
0.091547
  0
VERTEX
  8
0
 10
376.159341
 20
215.914723
 42
0.086154
  0
VERTEX
  8
0
 10
375.096922
 20
216.266224
 42
0.130712
  0
VERTEX
  8
0
 10
374.135357
 20
216.157763
 42
0.086149
  0
VERTEX
  8
0
 10
373.079971
 20
215.519175
 42
0.022703
  0
SEQEND
  0
POLYLINE
  8
0
 66
1
 70
1
  0
VERTEX
  8
0
 10
418.571429
 20
165.428571
 42
0.096245
  0
VERTEX
  8
0
 10
417.402878
 20
163.696449
 42
0.126137
  0
VERTEX
  8
0
 10
417.117488
 20
161.816415
 42
0.094074
  0
VERTEX
  8
0
 10
417.767872
 20
159.620059
 42
0.036346
  0
VERTEX
  8
0
 10
419.429921
 20
156.897883
 42
-0.001304
  0
VERTEX
  8
0
 10
420.605171
 20
155.245379
 42
-0.000557
  0
VERTEX
  8
0
 10
422.168787
 20
153.029378
 42
-0.000551
  0
VERTEX
  8
0
 10
423.830694
 20
150.662964
 42
-0.000725
  0
VERTEX
  8
0
 10
425.341491
 20
148.500000
 42
0.013569
  0
VERTEX
  8
0
 10
429.746224
 20
142.526743
 42
0.080484
  0
VERTEX
  8
0
 10
432.582405
 20
139.897020
 42
0.162784
  0
VERTEX
  8
0
 10
435.130893
 20
139.207361
 42
0.108661
  0
VERTEX
  8
0
 10
438.065741
 20
140.035184
 42
0.192530
  0
VERTEX
  8
0
 10
439.579600
 20
141.836171
 42
0.164523
  0
VERTEX
  8
0
 10
439.560808
 20
144.330652
 42
0.065791
  0
VERTEX
  8
0
 10
437.638082
 20
148.162666
 42
0.011885
  0
VERTEX
  8
0
 10
432.995619
 20
154.662652
 42
0.008872
  0
VERTEX
  8
0
 10
428.913282
 20
159.904013
 42
0.019006
  0
VERTEX
  8
0
 10
425.542948
 20
163.766385
 42
0.018802
  0
VERTEX
  8
0
 10
422.833880
 20
166.434156
 42
0.187171
  0
VERTEX
  8
0
 10
421.375262
 20
167.000000
 42
0.092572
  0
VERTEX
  8
0
 10
420.792580
 20
166.891187
 42
0.035415
  0
VERTEX
  8
0
 10
420.043269
 20
166.538393
 42
0.033570
  0
VERTEX
  8
0
 10
419.263696
 20
166.029921
 42
0.035098
  0
SEQEND
  0
ENDSEC
  0
EOF
