  0
SECTION
  2
HEADER
  9
$ACADVER
  1
AC1006
  9
$EXTMIN
 10
0.000000
 20
0.000000
 30
0.000000
  9
$EXTMAX
 10
597.000000
 20
582.000000
 30
0.000000
  0
ENDSEC
  0
SECTION
  2
ENTITIES
  0
POLYLINE
  8
0
 66
1
 70
1
  0
VERTEX
  8
0
 10
173.058796
 20
552.481780
 42
0.052734
  0
VERTEX
  8
0
 10
162.101408
 20
548.796386
 42
0.085331
  0
VERTEX
  8
0
 10
154.006082
 20
543.257200
 42
0.086620
  0
VERTEX
  8
0
 10
148.304503
 20
535.398846
 42
0.055888
  0
VERTEX
  8
0
 10
144.510518
 20
524.781481
 42
0.019172
  0
VERTEX
  8
0
 10
143.432983
 20
519.273692
 42
0.039490
  0
VERTEX
  8
0
 10
143.100139
 20
514.897977
 42
0.042637
  0
VERTEX
  8
0
 10
143.467668
 20
510.743754
 42
0.026429
  0
VERTEX
  8
0
 10
144.567316
 20
505.967928
 42
-0.008329
  0
VERTEX
  8
0
 10
146.388098
 20
499.191565
 42
-0.086820
  0
VERTEX
  8
0
 10
146.596425
 20
496.328357
 42
-0.128152
  0
VERTEX
  8
0
 10
145.735800
 20
494.010240
 42
-0.025760
  0
VERTEX
  8
0
 10
143.007219
 20
490.508341
 42
0.025187
  0
VERTEX
  8
0
 10
138.602923
 20
484.869158
 42
0.008097
  0
VERTEX
  8
0
 10
132.637361
 20
476.083522
 42
0.008271
  0
VERTEX
  8
0
 10
126.888267
 20
466.989834
 42
0.020913
  0
VERTEX
  8
0
 10
123.100483
 20
460.144533
 42
0.015638
  0
VERTEX
  8
0
 10
121.826649
 20
457.383863
 42
0.006897
  0
VERTEX
  8
0
 10
120.308412
 20
453.661207
 42
0.006818
  0
VERTEX
  8
0
 10
118.805963
 20
449.667343
 42
0.009105
  0
VERTEX
  8
0
 10
117.558129
 20
446.000000
 42
-0.005111
  0
VERTEX
  8
0
 10
116.375839
 20
442.432101
 42
-0.004525
  0
VERTEX
  8
0
 10
115.073129
 20
438.740620
 42
-0.004547
  0
VERTEX
  8
0
 10
113.839486
 20
435.437095
 42
-0.013813
  0
VERTEX
  8
0
 10
112.918868
 20
433.223387
 42
0.052655
  0
VERTEX
  8
0
 10
111.306032
 20
428.299247
 42
0.003532
  0
VERTEX
  8
0
 10
108.296033
 20
413.767766
 42
0.003861
  0
VERTEX
  8
0
 10
105.519856
 20
399.290508
 42
0.045466
  0
VERTEX
  8
0
 10
105.000000
 20
393.585361
 42
-0.076418
  0
VERTEX
  8
0
 10
104.811028
 20
392.356140
 42
-0.011731
  0
VERTEX
  8
0
 10
104.010714
 20
390.008432
 42
-0.012873
  0
VERTEX
  8
0
 10
102.921633
 20
387.263747
 42
-0.010854
  0
VERTEX
  8
0
 10
101.632218
 20
384.416195
 42
0.024339
  0
VERTEX
  8
0
 10
98.258025
 20
376.395960
 42
0.034450
  0
VERTEX
  8
0
 10
96.113046
 20
368.955912
 42
0.032869
  0
VERTEX
  8
0
 10
94.946759
 20
361.030215
 42
0.019594
  0
VERTEX
  8
0
 10
94.553810
 20
351.500000
 42
0.006729
  0
VERTEX
  8
0
 10
94.630127
 20
344.824200
 42
0.025393
  0
VERTEX
  8
0
 10
94.946117
 20
340.655916
 42
0.036262
  0
VERTEX
  8
0
 10
95.612080
 20
337.352457
 42
0.027655
  0
VERTEX
  8
0
 10
96.796485
 20
333.857206
 42
0.061908
  0
VERTEX
  8
0
 10
101.969626
 20
324.514192
 42
0.034695
  0
VERTEX
  8
0
 10
110.333098
 20
314.558339
 42
0.033456
  0
VERTEX
  8
0
 10
119.376530
 20
306.369346
 42
0.128270
  0
VERTEX
  8
0
 10
126.272163
 20
303.340911
 42
-0.047860
  0
VERTEX
  8
0
 10
130.064335
 20
302.355141
 42
-0.484558
  0
VERTEX
  8
0
 10
130.505894
 20
301.015494
 42
-0.153530
  0
VERTEX
  8
0
 10
128.468399
 20
299.360845
 42
-0.013253
  0
VERTEX
  8
0
 10
122.100991
 20
297.030124
 42
0.031075
  0
VERTEX
  8
0
 10
111.762554
 20
292.822473
 42
0.042072
  0
VERTEX
  8
0
 10
103.077939
 20
287.701965
 42
0.047679
  0
VERTEX
  8
0
 10
96.314517
 20
281.863621
 42
0.070188
  0
VERTEX
  8
0
 10
91.740224
 20
275.500000
 42
0.040310
  0
VERTEX
  8
0
 10
90.848225
 20
273.404978
 42
0.020976
  0
VERTEX
  8
0
 10
90.062763
 20
270.673472
 42
0.019749
  0
VERTEX
  8
0
 10
89.447305
 20
267.614760
 42
0.019422
  0
VERTEX
  8
0
 10
89.070999
 20
264.500000
 42
-0.007018
  0
VERTEX
  8
0
 10
88.681366
 20
260.429350
 42
-0.063456
  0
VERTEX
  8
0
 10
88.263858
 20
258.694780
 42
-0.183960
  0
VERTEX
  8
0
 10
87.584371
 20
257.930598
 42
-0.149785
  0
VERTEX
  8
0
 10
86.500000
 20
257.730151
 42
0.009668
  0
VERTEX
  8
0
 10
80.055669
 20
258.345749
 42
0.008348
  0
VERTEX
  8
0
 10
73.268886
 20
258.748037
 42
0.006076
  0
VERTEX
  8
0
 10
67.190264
 20
258.932627
 42
0.066124
  0
VERTEX
  8
0
 10
64.760940
 20
258.654848
 42
0.100998
  0
VERTEX
  8
0
 10
62.102662
 20
257.379860
 42
0.039806
  0
VERTEX
  8
0
 10
59.058623
 20
254.666085
 42
0.037646
  0
VERTEX
  8
0
 10
56.162779
 20
251.142130
 42
0.040465
  0
VERTEX
  8
0
 10
53.905460
 20
247.304707
 42
0.000000
  0
VERTEX
  8
0
 10
51.821587
 20
243.000000
 42
0.000000
  0
VERTEX
  8
0
 10
54.031942
 20
238.434016
 42
0.101658
  0
VERTEX
  8
0
 10
57.968988
 20
233.292112
 42
0.096288
  0
VERTEX
  8
0
 10
63.686143
 20
229.997918
 42
0.045508
  0
VERTEX
  8
0
 10
73.476306
 20
227.604243
 42
0.006866
  0
VERTEX
  8
0
 10
93.500000
 20
224.882275
 42
-0.007023
  0
VERTEX
  8
0
 10
102.358282
 20
223.675266
 42
-0.076314
  0
VERTEX
  8
0
 10
105.789966
 20
222.606945
 42
-0.150680
  0
VERTEX
  8
0
 10
107.751092
 20
220.768052
 42
-0.050625
  0
VERTEX
  8
0
 10
109.359303
 20
217.140346
 42
-0.011717
  0
VERTEX
  8
0
 10
110.590760
 20
213.053700
 42
-0.066560
  0
VERTEX
  8
0
 10
110.898801
 20
210.808108
 42
-0.126443
  0
VERTEX
  8
0
 10
110.508146
 20
209.266292
 42
-0.094875
  0
VERTEX
  8
0
 10
109.390693
 20
207.909283
 42
0.063703
  0
VERTEX
  8
0
 10
107.467138
 20
205.847960
 42
0.009023
  0
VERTEX
  8
0
 10
104.159261
 20
201.070081
 42
0.011036
  0
VERTEX
  8
0
 10
100.930106
 20
195.981270
 42
0.025606
  0
VERTEX
  8
0
 10
98.794372
 20
191.998031
 42
0.007726
  0
VERTEX
  8
0
 10
95.331124
 20
184.356410
 42
0.014460
  0
VERTEX
  8
0
 10
92.806361
 20
178.056272
 42
0.012279
  0
VERTEX
  8
0
 10
90.400339
 20
170.978284
 42
0.004086
  0
VERTEX
  8
0
 10
87.216941
 20
160.500000
 42
0.001843
  0
VERTEX
  8
0
 10
84.420271
 20
150.886268
 42
0.007709
  0
VERTEX
  8
0
 10
82.848301
 20
145.070541
 42
0.009104
  0
VERTEX
  8
0
 10
81.583520
 20
139.677622
 42
0.003322
  0
VERTEX
  8
0
 10
79.983086
 20
132.000000
 42
-0.011391
  0
VERTEX
  8
0
 10
78.845239
 20
126.950752
 42
-0.019613
  0
VERTEX
  8
0
 10
77.639214
 20
122.813570
 42
-0.023336
  0
VERTEX
  8
0
 10
76.310123
 20
119.382114
 42
-0.033622
  0
VERTEX
  8
0
 10
74.797134
 20
116.500000
 42
0.004797
  0
VERTEX
  8
0
 10
71.153168
 20
110.435241
 42
0.016472
  0
VERTEX
  8
0
 10
68.956892
 20
106.400652
 42
0.022462
  0
VERTEX
  8
0
 10
67.407929
 20
102.938109
 42
0.016903
  0
VERTEX
  8
0
 10
66.009043
 20
99.007641
 42
0.008582
  0
VERTEX
  8
0
 10
64.291153
 20
93.271048
 42
0.033199
  0
VERTEX
  8
0
 10
63.526528
 20
89.637809
 42
0.053880
  0
VERTEX
  8
0
 10
63.437139
 20
86.962121
 42
0.072391
  0
VERTEX
  8
0
 10
63.962890
 20
84.597607
 42
-0.060513
  0
VERTEX
  8
0
 10
64.373265
 20
82.938231
 42
-0.042823
  0
VERTEX
  8
0
 10
64.442352
 20
81.018356
 42
-0.031682
  0
VERTEX
  8
0
 10
64.168367
 20
78.603356
 42
-0.012894
  0
VERTEX
  8
0
 10
63.504189
 20
75.361830
 42
0.050372
  0
VERTEX
  8
0
 10
62.162231
 20
64.871148
 42
0.066220
  0
VERTEX
  8
0
 10
63.179290
 20
55.282901
 42
0.065622
  0
VERTEX
  8
0
 10
66.680741
 20
46.228049
 42
0.048335
  0
VERTEX
  8
0
 10
72.729491
 20
37.322425
 42
0.093333
  0
VERTEX
  8
0
 10
86.035391
 20
26.308305
 42
0.058747
  0
VERTEX
  8
0
 10
104.770401
 20
18.651970
 42
0.054952
  0
VERTEX
  8
0
 10
126.264313
 20
15.165657
 42
0.056576
  0
VERTEX
  8
0
 10
147.785081
 20
16.502222
 42
0.019766
  0
VERTEX
  8
0
 10
155.307815
 20
18.141734
 42
0.016278
  0
VERTEX
  8
0
 10
163.187960
 20
20.464689
 42
0.016439
  0
VERTEX
  8
0
 10
170.797445
 20
23.260453
 42
0.021859
  0
VERTEX
  8
0
 10
177.500000
 20
26.323703
 42
0.050897
  0
VERTEX
  8
0
 10
183.832279
 20
30.419207
 42
0.027059
  0
VERTEX
  8
0
 10
190.797827
 20
36.651643
 42
0.026996
  0
VERTEX
  8
0
 10
196.923092
 20
43.457626
 42
0.062454
  0
VERTEX
  8
0
 10
200.534525
 20
49.294445
 42
-0.011965
  0
VERTEX
  8
0
 10
201.603291
 20
51.488654
 42
-0.013756
  0
VERTEX
  8
0
 10
202.729779
 20
53.527837
 42
-0.012907
  0
VERTEX
  8
0
 10
203.771666
 20
55.196995
 42
-0.073692
  0
VERTEX
  8
0
 10
204.467441
 20
55.972979
 42
-0.164119
  0
VERTEX
  8
0
 10
206.007909
 20
56.565842
 42
-0.005232
  0
VERTEX
  8
0
 10
212.787066
 20
56.780028
 42
-0.006989
  0
VERTEX
  8
0
 10
222.561007
 20
56.849838
 42
-0.001845
  0
VERTEX
  8
0
 10
238.189621
 20
56.685326
 42
0.003979
  0
VERTEX
  8
0
 10
260.508722
 20
56.545644
 42
0.005438
  0
VERTEX
  8
0
 10
280.611638
 20
56.798437
 42
0.004356
  0
VERTEX
  8
0
 10
303.799035
 20
57.544441
 42
0.001559
  0
VERTEX
  8
0
 10
336.847713
 20
58.999249
 42
0.000000
  0
VERTEX
  8
0
 10
360.195425
 20
60.099967
 42
0.000000
  0
VERTEX
  8
0
 10
366.347713
 20
53.879987
 42
0.033264
  0
VERTEX
  8
0
 10
371.382561
 20
49.425048
 42
0.039691
  0
VERTEX
  8
0
 10
376.687775
 20
45.960445
 42
0.035367
  0
VERTEX
  8
0
 10
382.963415
 20
43.093872
 42
0.019336
  0
VERTEX
  8
0
 10
391.000000
 20
40.438620
 42
0.027843
  0
VERTEX
  8
0
 10
395.101692
 20
39.500865
 42
0.022360
  0
VERTEX
  8
0
 10
399.594632
 20
38.939142
 42
0.015236
  0
VERTEX
  8
0
 10
405.513968
 20
38.647700
 42
0.004624
  0
VERTEX
  8
0
 10
414.500000
 20
38.562521
 42
0.011829
  0
VERTEX
  8
0
 10
426.289498
 20
38.838741
 42
0.029283
  0
VERTEX
  8
0
 10
434.880691
 20
39.749617
 42
0.034893
  0
VERTEX
  8
0
 10
442.369891
 20
41.534278
 42
0.024742
  0
VERTEX
  8
0
 10
450.477471
 20
44.522893
 42
0.043777
  0
VERTEX
  8
0
 10
456.617521
 20
47.799008
 42
0.030749
  0
VERTEX
  8
0
 10
462.908112
 20
52.473979
 42
0.031243
  0
VERTEX
  8
0
 10
468.317146
 20
57.646591
 42
0.065085
  0
VERTEX
  8
0
 10
471.677714
 20
62.401124
 42
0.031177
  0
VERTEX
  8
0
 10
473.122943
 20
65.611811
 42
0.010027
  0
VERTEX
  8
0
 10
474.868543
 20
70.537542
 42
0.010352
  0
VERTEX
  8
0
 10
476.474396
 20
75.732150
 42
0.019429
  0
VERTEX
  8
0
 10
477.519999
 20
80.000000
 42
-0.065800
  0
VERTEX
  8
0
 10
478.161500
 20
81.855778
 42
-0.030617
  0
VERTEX
  8
0
 10
479.441614
 20
84.063588
 42
-0.026102
  0
VERTEX
  8
0
 10
481.271766
 20
86.527592
 42
-0.016968
  0
VERTEX
  8
0
 10
483.624059
 20
89.182837
 42
0.033440
  0
VERTEX
  8
0
 10
488.580595
 20
95.163278
 42
0.067750
  0
VERTEX
  8
0
 10
491.451451
 20
100.546825
 42
0.058922
  0
VERTEX
  8
0
 10
493.004780
 20
106.980542
 42
0.020142
  0
VERTEX
  8
0
 10
493.762736
 20
116.565263
 42
0.005107
  0
VERTEX
  8
0
 10
493.963622
 20
123.630837
 42
0.029893
  0
VERTEX
  8
0
 10
493.809299
 20
127.342139
 42
0.052253
  0
VERTEX
  8
0
 10
493.250657
 20
130.019020
 42
0.040420
  0
VERTEX
  8
0
 10
492.114570
 20
132.775425
 42
-0.009195
  0
VERTEX
  8
0
 10
491.304822
 20
134.437469
 42
-0.011644
  0
VERTEX
  8
0
 10
490.621155
 20
136.003257
 42
-0.009775
  0
VERTEX
  8
0
 10
490.108119
 20
137.330532
 42
-0.087546
  0
VERTEX
  8
0
 10
490.000000
 20
137.943292
 42
-0.197748
  0
VERTEX
  8
0
 10
490.247186
 20
138.543852
 42
-0.008494
  0
VERTEX
  8
0
 10
491.916305
 20
140.171728
 42
-0.013416
  0
VERTEX
  8
0
 10
494.023887
 20
142.054313
 42
-0.009044
  0
VERTEX
  8
0
 10
496.523590
 20
144.092950
 42
0.014485
  0
VERTEX
  8
0
 10
501.108076
 20
147.915647
 42
0.058106
  0
VERTEX
  8
0
 10
503.540791
 20
150.630111
 42
0.066471
  0
VERTEX
  8
0
 10
505.118741
 20
153.647162
 42
0.022809
  0
VERTEX
  8
0
 10
506.595655
 20
158.362610
 42
0.022250
  0
VERTEX
  8
0
 10
507.211602
 20
161.204658
 42
0.044066
  0
VERTEX
  8
0
 10
507.397782
 20
163.502199
 42
0.040073
  0
VERTEX
  8
0
 10
507.184923
 20
165.933665
 42
0.015441
  0
VERTEX
  8
0
 10
506.517023
 20
169.257442
 42
0.018708
  0
VERTEX
  8
0
 10
505.856974
 20
171.674342
 42
0.018947
  0
VERTEX
  8
0
 10
505.020524
 20
174.024759
 42
0.019126
  0
VERTEX
  8
0
 10
504.139108
 20
176.008970
 42
0.069935
  0
VERTEX
  8
0
 10
503.368436
 20
177.145376
 42
0.063166
  0
VERTEX
  8
0
 10
501.350745
 20
178.876372
 42
0.030696
  0
VERTEX
  8
0
 10
498.400846
 20
180.571367
 42
0.029597
  0
VERTEX
  8
0
 10
495.033814
 20
181.998814
 42
0.035030
  0
VERTEX
  8
0
 10
491.704232
 20
182.926655
 42
0.000000
  0
VERTEX
  8
0
 10
488.500000
 20
183.581991
 42
0.000000
  0
VERTEX
  8
0
 10
488.500000
 20
191.040995
 42
0.000000
  0
VERTEX
  8
0
 10
488.500000
 20
198.500000
 42
0.000000
  0
VERTEX
  8
0
 10
494.000000
 20
199.224825
 42
-0.007317
  0
VERTEX
  8
0
 10
496.951012
 20
199.569872
 42
-0.001915
  0
VERTEX
  8
0
 10
501.695115
 20
200.035967
 42
-0.001945
  0
VERTEX
  8
0
 10
507.102701
 20
200.525132
 42
-0.001990
  0
VERTEX
  8
0
 10
512.472731
 20
200.968321
 42
0.009002
  0
VERTEX
  8
0
 10
526.713259
 20
202.344903
 42
0.044244
  0
VERTEX
  8
0
 10
534.616015
 20
203.969936
 42
0.101714
  0
VERTEX
  8
0
 10
538.672343
 20
206.154225
 42
0.259289
  0
VERTEX
  8
0
 10
539.830182
 20
209.168873
 42
0.264414
  0
VERTEX
  8
0
 10
538.393070
 20
211.029385
 42
0.092438
  0
VERTEX
  8
0
 10
534.964889
 20
211.766333
 42
0.035364
  0
VERTEX
  8
0
 10
528.467043
 20
211.484758
 42
0.005118
  0
VERTEX
  8
0
 10
515.303833
 20
209.840885
 42
-0.004338
  0
VERTEX
  8
0
 10
508.402611
 20
208.968111
 42
-0.004483
  0
VERTEX
  8
0
 10
501.562110
 20
208.225369
 42
-0.004334
  0
VERTEX
  8
0
 10
495.626680
 20
207.686601
 42
-0.019145
  0
VERTEX
  8
0
 10
492.120370
 20
207.533729
 42
0.000000
  0
VERTEX
  8
0
 10
485.740740
 20
207.500000
 42
0.000000
  0
VERTEX
  8
0
 10
483.422191
 20
216.500000
 42
-0.005115
  0
VERTEX
  8
0
 10
482.530637
 20
220.113403
 42
-0.006160
  0
VERTEX
  8
0
 10
481.769493
 20
223.527523
 42
-0.005315
  0
VERTEX
  8
0
 10
481.195328
 20
226.413250
 42
-0.040797
  0
VERTEX
  8
0
 10
481.051821
 20
227.785183
 42
0.050890
  0
VERTEX
  8
0
 10
480.921065
 20
228.831140
 42
0.026514
  0
VERTEX
  8
0
 10
480.558636
 20
230.095933
 42
0.026069
  0
VERTEX
  8
0
 10
480.044687
 20
231.367110
 42
0.035940
  0
VERTEX
  8
0
 10
479.445663
 20
232.442584
 42
-0.021324
  0
VERTEX
  8
0
 10
478.689145
 20
233.712129
 42
-0.104520
  0
VERTEX
  8
0
 10
478.454479
 20
234.508755
 42
-0.180110
  0
VERTEX
  8
0
 10
478.624151
 20
235.102809
 42
-0.094199
  0
VERTEX
  8
0
 10
479.195663
 20
235.633462
 42
-0.057903
  0
VERTEX
  8
0
 10
481.685132
 20
236.820153
 42
-0.004011
  0
VERTEX
  8
0
 10
489.073193
 20
239.277685
 42
-0.003369
  0
VERTEX
  8
0
 10
496.601180
 20
241.658950
 42
-0.075047
  0
VERTEX
  8
0
 10
498.860640
 20
242.000000
 42
0.085605
  0
VERTEX
  8
0
 10
502.363896
 20
242.604223
 42
0.008228
  0
VERTEX
  8
0
 10
510.494151
 20
245.646337
 42
0.011203
  0
VERTEX
  8
0
 10
518.638953
 20
249.060233
 42
0.031436
  0
VERTEX
  8
0
 10
524.115213
 20
251.926298
 42
0.017038
  0
VERTEX
  8
0
 10
530.260925
 20
255.944747
 42
0.026491
  0
VERTEX
  8
0
 10
535.237914
 20
259.856510
 42
0.025778
  0
VERTEX
  8
0
 10
539.867824
 20
264.351748
 42
0.015062
  0
VERTEX
  8
0
 10
544.959537
 20
270.174872
 42
0.038468
  0
VERTEX
  8
0
 10
556.963792
 20
287.296793
 42
0.045759
  0
VERTEX
  8
0
 10
565.422012
 20
305.118906
 42
0.043534
  0
VERTEX
  8
0
 10
570.787404
 20
324.917099
 42
0.030027
  0
VERTEX
  8
0
 10
573.514503
 20
348.000000
 42
0.026644
  0
VERTEX
  8
0
 10
573.552842
 20
356.941632
 42
0.010912
  0
VERTEX
  8
0
 10
572.693621
 20
369.055417
 42
0.010005
  0
VERTEX
  8
0
 10
571.111471
 20
383.041739
 42
0.008100
  0
VERTEX
  8
0
 10
568.871504
 20
397.978778
 42
-0.007088
  0
VERTEX
  8
0
 10
568.252033
 20
402.053398
 42
-0.071723
  0
VERTEX
  8
0
 10
568.263151
 20
403.763933
 42
-0.148683
  0
VERTEX
  8
0
 10
568.794042
 20
404.877411
 42
-0.060946
  0
VERTEX
  8
0
 10
570.078140
 20
405.978778
 42
0.038785
  0
VERTEX
  8
0
 10
573.470833
 20
408.637703
 42
0.021710
  0
VERTEX
  8
0
 10
577.178999
 20
412.347959
 42
0.021581
  0
VERTEX
  8
0
 10
580.449749
 20
416.242595
 42
0.053131
  0
VERTEX
  8
0
 10
582.396916
 20
419.424010
 42
0.055711
  0
VERTEX
  8
0
 10
583.997172
 20
424.069279
 42
0.039779
  0
VERTEX
  8
0
 10
584.770349
 20
429.518920
 42
0.040327
  0
VERTEX
  8
0
 10
584.667070
 20
434.900084
 42
0.066349
  0
VERTEX
  8
0
 10
583.620661
 20
439.323225
 42
0.049800
  0
VERTEX
  8
0
 10
580.393181
 20
445.767224
 42
0.072781
  0
VERTEX
  8
0
 10
576.266858
 20
450.576141
 42
0.072013
  0
VERTEX
  8
0
 10
570.900369
 20
454.035304
 42
0.047625
  0
VERTEX
  8
0
 10
563.958846
 20
456.440944
 42
0.009671
  0
VERTEX
  8
0
 10
559.675920
 20
457.394580
 42
0.049177
  0
VERTEX
  8
0
 10
557.248303
 20
457.641761
 42
0.061107
  0
VERTEX
  8
0
 10
555.063246
 20
457.380803
 42
0.019941
  0
VERTEX
  8
0
 10
551.937889
 20
456.479370
 42
0.023804
  0
VERTEX
  8
0
 10
549.654178
 20
455.598115
 42
0.012622
  0
VERTEX
  8
0
 10
546.910407
 20
454.302636
 42
0.012534
  0
VERTEX
  8
0
 10
544.165591
 20
452.833530
 42
0.018962
  0
VERTEX
  8
0
 10
541.862121
 20
451.407215
 42
-0.009436
  0
VERTEX
  8
0
 10
538.502681
 20
449.237438
 42
-0.048615
  0
VERTEX
  8
0
 10
536.517787
 20
448.260331
 42
-0.158298
  0
VERTEX
  8
0
 10
535.465543
 20
448.211574
 42
-0.337813
  0
VERTEX
  8
0
 10
535.000000
 20
448.821994
 42
0.161349
  0
VERTEX
  8
0
 10
534.823278
 20
449.355378
 42
0.004194
  0
VERTEX
  8
0
 10
533.286549
 20
451.384120
 42
0.008451
  0
VERTEX
  8
0
 10
531.402267
 20
453.745188
 42
0.005624
  0
VERTEX
  8
0
 10
529.166977
 20
456.389835
 42
0.020841
  0
VERTEX
  8
0
 10
525.571532
 20
460.213608
 42
0.032746
  0
VERTEX
  8
0
 10
522.149879
 20
463.148791
 42
0.025797
  0
VERTEX
  8
0
 10
517.827181
 20
466.055425
 42
0.008135
  0
VERTEX
  8
0
 10
511.085242
 20
469.952560
 42
0.005562
  0
VERTEX
  8
0
 10
505.906692
 20
472.759636
 42
0.004986
  0
VERTEX
  8
0
 10
500.475786
 20
475.556922
 42
0.005004
  0
VERTEX
  8
0
 10
495.550513
 20
477.970504
 42
0.015579
  0
VERTEX
  8
0
 10
492.168265
 20
479.458601
 42
-0.002136
  0
VERTEX
  8
0
 10
489.307956
 20
480.626333
 42
-0.001693
  0
VERTEX
  8
0
 10
486.226375
 20
481.912023
 42
-0.001711
  0
VERTEX
  8
0
 10
483.375948
 20
483.124122
 42
-0.004275
  0
VERTEX
  8
0
 10
481.304500
 20
484.034407
 42
0.034937
  0
VERTEX
  8
0
 10
477.004560
 20
485.617392
 42
0.007439
  0
VERTEX
  8
0
 10
469.313383
 20
487.729611
 42
0.007011
  0
VERTEX
  8
0
 10
459.559734
 20
490.107431
 42
0.004297
  0
VERTEX
  8
0
 10
448.000000
 20
492.650078
 42
0.024399
  0
VERTEX
  8
0
 10
441.153003
 20
493.748913
 42
0.023208
  0
VERTEX
  8
0
 10
434.115923
 20
494.199406
 42
0.023898
  0
VERTEX
  8
0
 10
427.864006
 20
494.010133
 42
0.071439
  0
VERTEX
  8
0
 10
423.699615
 20
493.075894
 42
-0.048130
  0
VERTEX
  8
0
 10
422.287458
 20
492.689418
 42
-0.058427
  0
VERTEX
  8
0
 10
420.917977
 20
492.615077
 42
-0.052838
  0
VERTEX
  8
0
 10
419.462268
 20
492.862065
 42
-0.030535
  0
VERTEX
  8
0
 10
417.782926
 20
493.446109
 42
0.036036
  0
VERTEX
  8
0
 10
415.974886
 20
494.052719
 42
0.009199
  0
VERTEX
  8
0
 10
412.967485
 20
494.767254
 42
0.009326
  0
VERTEX
  8
0
 10
409.494992
 20
495.457502
 42
0.009332
  0
VERTEX
  8
0
 10
406.000000
 20
496.017591
 42
-0.013259
  0
VERTEX
  8
0
 10
402.562507
 20
496.596188
 42
-0.014501
  0
VERTEX
  8
0
 10
399.262500
 20
497.342014
 42
-0.014047
  0
VERTEX
  8
0
 10
396.486146
 20
498.138462
 42
-0.067244
  0
VERTEX
  8
0
 10
395.000000
 20
498.841282
 42
0.083320
  0
VERTEX
  8
0
 10
393.134261
 20
499.651692
 42
0.032770
  0
VERTEX
  8
0
 10
390.367191
 20
500.149506
 42
0.020595
  0
VERTEX
  8
0
 10
386.260653
 20
500.442803
 42
0.005524
  0
VERTEX
  8
0
 10
379.717925
 20
500.567579
 42
0.000000
  0
VERTEX
  8
0
 10
366.935850
 20
500.670099
 42
0.000000
  0
VERTEX
  8
0
 10
362.903432
 20
504.742828
 42
0.022292
  0
VERTEX
  8
0
 10
361.162413
 20
506.351137
 42
0.021577
  0
VERTEX
  8
0
 10
359.266669
 20
507.816587
 42
0.022082
  0
VERTEX
  8
0
 10
357.488906
 20
508.958005
 42
0.070471
  0
VERTEX
  8
0
 10
356.185507
 20
509.487537
 42
-0.044795
  0
VERTEX
  8
0
 10
354.660019
 20
510.018112
 42
-0.007124
  0
VERTEX
  8
0
 10
351.791993
 20
511.363061
 42
-0.007845
  0
VERTEX
  8
0
 10
348.451206
 20
513.053491
 42
-0.006796
  0
VERTEX
  8
0
 10
345.000000
 20
514.928668
 42
0.008620
  0
VERTEX
  8
0
 10
341.251968
 20
516.947447
 42
0.006246
  0
VERTEX
  8
0
 10
337.012196
 20
519.070974
 42
0.006312
  0
VERTEX
  8
0
 10
332.934016
 20
520.987016
 42
0.013679
  0
VERTEX
  8
0
 10
329.743647
 20
522.333030
 42
0.000073
  0
VERTEX
  8
0
 10
326.703484
 20
523.518284
 42
0.000046
  0
VERTEX
  8
0
 10
323.137901
 20
524.907403
 42
0.000046
  0
VERTEX
  8
0
 10
319.620974
 20
526.276826
 42
0.000083
  0
VERTEX
  8
0
 10
316.743647
 20
527.396348
 42
0.040250
  0
VERTEX
  8
0
 10
301.716757
 20
531.887733
 42
0.015313
  0
VERTEX
  8
0
 10
280.181954
 20
535.792106
 42
0.014417
  0
VERTEX
  8
0
 10
258.932227
 20
538.352252
 42
0.059355
  0
VERTEX
  8
0
 10
246.000000
 20
537.996502
 42
-0.010611
  0
VERTEX
  8
0
 10
243.067450
 20
537.628453
 42
-0.006594
  0
VERTEX
  8
0
 10
239.613531
 20
537.315217
 42
-0.006614
  0
VERTEX
  8
0
 10
236.195970
 20
537.096104
 42
-0.011878
  0
VERTEX
  8
0
 10
233.386490
 20
537.020107
 42
0.019853
  0
VERTEX
  8
0
 10
228.732707
 20
536.819917
 42
0.015153
  0
VERTEX
  8
0
 10
223.666476
 20
536.245012
 42
0.015203
  0
VERTEX
  8
0
 10
219.015501
 20
535.428901
 42
0.041189
  0
VERTEX
  8
0
 10
215.805263
 20
534.483363
 42
-0.203059
  0
VERTEX
  8
0
 10
214.667292
 20
534.519678
 42
-0.048901
  0
VERTEX
  8
0
 10
213.004159
 20
535.494799
 42
-0.031600
  0
VERTEX
  8
0
 10
210.752180
 20
537.357983
 42
-0.009601
  0
VERTEX
  8
0
 10
207.581721
 20
540.454376
 42
0.046132
  0
VERTEX
  8
0
 10
199.371360
 20
547.378055
 42
0.068393
  0
VERTEX
  8
0
 10
190.999647
 20
551.649696
 42
0.073793
  0
VERTEX
  8
0
 10
182.283523
 20
553.307190
 42
0.065012
  0
SEQEND
  0
POLYLINE
  8
0
 66
1
 70
1
  0
VERTEX
  8
0
 10
190.786991
 20
544.438016
 42
-0.038494
  0
VERTEX
  8
0
 10
194.392693
 20
542.601728
 42
-0.020799
  0
VERTEX
  8
0
 10
198.535858
 20
539.830165
 42
-0.016969
  0
VERTEX
  8
0
 10
202.219038
 20
536.941360
 42
-0.127013
  0
VERTEX
  8
0
 10
203.496534
 20
535.148436
 42
-0.194371
  0
VERTEX
  8
0
 10
203.471414
 20
533.716957
 42
-0.127076
  0
VERTEX
  8
0
 10
202.453514
 20
532.389856
 42
-0.114350
  0
VERTEX
  8
0
 10
200.819013
 20
531.628362
 42
-0.141941
  0
VERTEX
  8
0
 10
199.152801
 20
531.751422
 42
-0.045699
  0
VERTEX
  8
0
 10
198.293734
 20
532.163282
 42
-0.011050
  0
VERTEX
  8
0
 10
196.957385
 20
533.002015
 42
-0.011247
  0
VERTEX
  8
0
 10
195.461229
 20
534.036793
 42
-0.010962
  0
VERTEX
  8
0
 10
194.000000
 20
535.146470
 42
0.044379
  0
VERTEX
  8
0
 10
192.195027
 20
536.336063
 42
0.018616
  0
VERTEX
  8
0
 10
189.581164
 20
537.620676
 42
0.018245
  0
VERTEX
  8
0
 10
186.666214
 20
538.795372
 42
0.022590
  0
VERTEX
  8
0
 10
183.872048
 20
539.664071
 42
0.011036
  0
VERTEX
  8
0
 10
180.026034
 20
540.581569
 42
0.045239
  0
VERTEX
  8
0
 10
177.647965
 20
540.872400
 42
0.059104
  0
VERTEX
  8
0
 10
175.582045
 20
540.692637
 42
0.028485
  0
VERTEX
  8
0
 10
173.011655
 20
540.003846
 42
0.042873
  0
VERTEX
  8
0
 10
171.046410
 20
539.162582
 42
0.018753
  0
VERTEX
  8
0
 10
168.595143
 20
537.734024
 42
0.018396
  0
VERTEX
  8
0
 10
166.090572
 20
536.013362
 42
0.023396
  0
VERTEX
  8
0
 10
163.920152
 20
534.238301
 42
0.054648
  0
VERTEX
  8
0
 10
159.888288
 20
529.726653
 42
0.070902
  0
VERTEX
  8
0
 10
157.337133
 20
524.808884
 42
0.071711
  0
VERTEX
  8
0
 10
156.279384
 20
519.419475
 42
0.057547
  0
VERTEX
  8
0
 10
156.659840
 20
513.514666
 42
-0.013384
  0
VERTEX
  8
0
 10
157.104783
 20
510.620491
 42
-0.044205
  0
VERTEX
  8
0
 10
157.176911
 20
508.694072
 42
-0.066360
  0
VERTEX
  8
0
 10
156.909015
 20
507.250187
 42
-0.073893
  0
VERTEX
  8
0
 10
156.275970
 20
505.983616
 42
-0.166930
  0
VERTEX
  8
0
 10
153.978087
 20
504.311804
 42
-0.315997
  0
VERTEX
  8
0
 10
151.900148
 20
504.986536
 42
-0.125011
  0
VERTEX
  8
0
 10
150.434576
 20
508.492378
 42
-0.037396
  0
VERTEX
  8
0
 10
150.011869
 20
514.315100
 42
-0.067212
  0
VERTEX
  8
0
 10
151.561247
 20
525.594370
 42
-0.088177
  0
VERTEX
  8
0
 10
156.044010
 20
534.954770
 42
-0.093035
  0
VERTEX
  8
0
 10
163.250562
 20
541.841804
 42
-0.084073
  0
VERTEX
  8
0
 10
172.717502
 20
545.950185
 42
-0.054785
  0
VERTEX
  8
0
 10
176.665884
 20
546.475360
 42
-0.026573
  0
VERTEX
  8
0
 10
181.762307
 20
546.320589
 42
-0.026573
  0
VERTEX
  8
0
 10
186.849982
 20
545.621125
 42
-0.051127
  0
SEQEND
  0
POLYLINE
  8
0
 66
1
 70
1
  0
VERTEX
  8
0
 10
280.873804
 20
529.062544
 42
-0.022506
  0
VERTEX
  8
0
 10
294.770849
 20
526.363626
 42
-0.016860
  0
VERTEX
  8
0
 10
309.797566
 20
522.196102
 42
-0.016863
  0
VERTEX
  8
0
 10
324.506147
 20
517.026538
 42
-0.022543
  0
VERTEX
  8
0
 10
337.441670
 20
511.299772
 42
-0.013560
  0
VERTEX
  8
0
 10
346.344455
 20
506.562831
 42
-0.020393
  0
VERTEX
  8
0
 10
353.809420
 20
501.915111
 42
-0.021799
  0
VERTEX
  8
0
 10
360.489004
 20
496.928920
 42
-0.019268
  0
VERTEX
  8
0
 10
367.000000
 20
491.179423
 42
0.007061
  0
VERTEX
  8
0
 10
370.000698
 20
488.396415
 42
0.009363
  0
VERTEX
  8
0
 10
372.812920
 20
485.955015
 42
0.007085
  0
VERTEX
  8
0
 10
375.219902
 20
484.000462
 42
0.087276
  0
VERTEX
  8
0
 10
376.256748
 20
483.442411
 42
0.137737
  0
VERTEX
  8
0
 10
377.295576
 20
483.394705
 42
0.028230
  0
VERTEX
  8
0
 10
379.076103
 20
483.915013
 42
0.026523
  0
VERTEX
  8
0
 10
381.218781
 20
484.805268
 42
0.018218
  0
VERTEX
  8
0
 10
383.549370
 20
486.028247
 42
-0.022546
  0
VERTEX
  8
0
 10
387.097100
 20
487.850946
 42
-0.057043
  0
VERTEX
  8
0
 10
389.850033
 20
488.749666
 42
-0.040045
  0
VERTEX
  8
0
 10
393.255652
 20
489.165640
 42
-0.006820
  0
VERTEX
  8
0
 10
399.792621
 20
489.347776
 42
-0.006387
  0
VERTEX
  8
0
 10
406.389641
 20
489.357294
 42
-0.040567
  0
VERTEX
  8
0
 10
409.725443
 20
489.048122
 42
-0.059757
  0
VERTEX
  8
0
 10
412.398762
 20
488.241975
 42
-0.023396
  0
VERTEX
  8
0
 10
415.858802
 20
486.531854
 42
-0.055674
  0
VERTEX
  8
0
 10
422.559211
 20
481.778136
 42
-0.071187
  0
VERTEX
  8
0
 10
427.431319
 20
475.998220
 42
-0.071270
  0
VERTEX
  8
0
 10
430.483035
 20
469.089522
 42
-0.055970
  0
VERTEX
  8
0
 10
431.803680
 20
461.000000
 42
-0.014365
  0
VERTEX
  8
0
 10
431.898239
 20
456.555997
 42
-0.046147
  0
VERTEX
  8
0
 10
431.603985
 20
453.613839
 42
-0.046196
  0
VERTEX
  8
0
 10
430.775272
 20
450.777196
 42
-0.014418
  0
VERTEX
  8
0
 10
429.024924
 20
446.698720
 42
-0.039633
  0
VERTEX
  8
0
 10
426.109261
 20
441.528206
 42
-0.036999
  0
VERTEX
  8
0
 10
422.353211
 20
436.754389
 42
-0.037392
  0
VERTEX
  8
0
 10
417.980190
 20
432.635816
 42
-0.042816
  0
VERTEX
  8
0
 10
413.226662
 20
429.417740
 42
0.072047
  0
VERTEX
  8
0
 10
410.401163
 20
427.254676
 42
0.140831
  0
VERTEX
  8
0
 10
409.068323
 20
424.778256
 42
0.202343
  0
VERTEX
  8
0
 10
409.481442
 20
422.575211
 42
0.156973
  0
VERTEX
  8
0
 10
411.405695
 20
421.035855
 42
-0.063991
  0
VERTEX
  8
0
 10
412.412566
 20
420.497340
 42
-0.050783
  0
VERTEX
  8
0
 10
413.340363
 20
419.682914
 42
-0.052233
  0
VERTEX
  8
0
 10
414.055745
 20
418.731115
 42
-0.083158
  0
VERTEX
  8
0
 10
414.427171
 20
417.785370
 42
-0.015189
  0
VERTEX
  8
0
 10
415.960829
 20
409.256360
 42
-0.017786
  0
VERTEX
  8
0
 10
416.879405
 20
401.086950
 42
-0.014054
  0
VERTEX
  8
0
 10
417.345143
 20
391.450816
 42
-0.005349
  0
VERTEX
  8
0
 10
417.472782
 20
378.000000
 42
-0.003566
  0
VERTEX
  8
0
 10
417.368998
 20
365.558093
 42
-0.012414
  0
VERTEX
  8
0
 10
417.045209
 20
357.527864
 42
-0.017174
  0
VERTEX
  8
0
 10
416.392929
 20
350.992022
 42
-0.013510
  0
VERTEX
  8
0
 10
415.253197
 20
343.966823
 42
-0.020256
  0
VERTEX
  8
0
 10
410.672767
 20
324.258567
 42
-0.033984
  0
VERTEX
  8
0
 10
405.057132
 20
308.220649
 42
-0.039622
  0
VERTEX
  8
0
 10
398.106751
 20
294.998031
 42
-0.047233
  0
VERTEX
  8
0
 10
389.500000
 20
283.852103
 42
0.000000
  0
VERTEX
  8
0
 10
384.500000
 20
278.505878
 42
0.000000
  0
VERTEX
  8
0
 10
375.500000
 20
277.887217
 42
0.016500
  0
VERTEX
  8
0
 10
366.924964
 20
277.012735
 42
0.052247
  0
VERTEX
  8
0
 10
361.325738
 20
275.648302
 42
0.061168
  0
VERTEX
  8
0
 10
356.618468
 20
273.283133
 42
0.029210
  0
VERTEX
  8
0
 10
351.203162
 20
269.198844
 42
0.000000
  0
VERTEX
  8
0
 10
344.500000
 20
263.500000
 42
0.000000
  0
VERTEX
  8
0
 10
334.804233
 20
263.500000
 42
0.011798
  0
VERTEX
  8
0
 10
328.078083
 20
263.341272
 42
0.082855
  0
VERTEX
  8
0
 10
324.884813
 20
262.652230
 42
0.204713
  0
VERTEX
  8
0
 10
323.453386
 20
261.231352
 42
0.132437
  0
VERTEX
  8
0
 10
323.165335
 20
258.880225
 42
0.121523
  0
VERTEX
  8
0
 10
323.699252
 20
257.556143
 42
0.140309
  0
VERTEX
  8
0
 10
324.765500
 20
256.716863
 42
0.055499
  0
VERTEX
  8
0
 10
326.884083
 20
256.114158
 42
0.006377
  0
VERTEX
  8
0
 10
331.788711
 20
255.355208
 42
-0.009968
  0
VERTEX
  8
0
 10
335.059945
 20
254.824927
 42
-0.012942
  0
VERTEX
  8
0
 10
338.032411
 20
254.202162
 42
-0.010640
  0
VERTEX
  8
0
 10
340.470777
 20
253.569966
 42
-0.104822
  0
VERTEX
  8
0
 10
341.404396
 20
253.079344
 42
-0.116775
  0
VERTEX
  8
0
 10
341.994131
 20
252.296421
 42
-0.017860
  0
VERTEX
  8
0
 10
342.718507
 20
250.468843
 42
-0.019148
  0
VERTEX
  8
0
 10
343.426028
 20
248.208528
 42
-0.015557
  0
VERTEX
  8
0
 10
344.014555
 20
245.739027
 42
0.020257
  0
VERTEX
  8
0
 10
345.371950
 20
240.271633
 42
0.066698
  0
VERTEX
  8
0
 10
346.874152
 20
236.881036
 42
0.048303
  0
VERTEX
  8
0
 10
349.450015
 20
233.469972
 42
0.007109
  0
VERTEX
  8
0
 10
355.401417
 20
227.177339
 42
0.000000
  0
VERTEX
  8
0
 10
363.500000
 20
218.854678
 42
0.000000
  0
VERTEX
  8
0
 10
363.842928
 20
203.866981
 42
-0.005757
  0
VERTEX
  8
0
 10
363.932178
 20
196.012673
 42
-0.015855
  0
VERTEX
  8
0
 10
363.755800
 20
190.478174
 42
-0.021272
  0
VERTEX
  8
0
 10
363.279672
 20
186.007573
 42
-0.022683
  0
VERTEX
  8
0
 10
362.431333
 20
181.689642
 42
-0.011764
  0
VERTEX
  8
0
 10
360.631171
 20
175.000334
 42
-0.051732
  0
VERTEX
  8
0
 10
359.080118
 20
171.224635
 42
-0.062577
  0
VERTEX
  8
0
 10
356.929693
 20
168.200607
 42
-0.022418
  0
VERTEX
  8
0
 10
353.173070
 20
164.463223
 42
0.019671
  0
VERTEX
  8
0
 10
349.952484
 20
161.294129
 42
0.032514
  0
VERTEX
  8
0
 10
347.527228
 20
158.350310
 42
0.026385
  0
VERTEX
  8
0
 10
345.186935
 20
154.709953
 42
0.008655
  0
VERTEX
  8
0
 10
342.123262
 20
149.119001
 42
-0.040242
  0
VERTEX
  8
0
 10
340.586648
 20
146.691944
 42
-0.021072
  0
VERTEX
  8
0
 10
338.317550
 20
143.925758
 42
-0.014416
  0
VERTEX
  8
0
 10
335.983944
 20
141.460471
 42
-0.198549
  0
VERTEX
  8
0
 10
334.870069
 20
141.000000
 42
0.106982
  0
VERTEX
  8
0
 10
334.400523
 20
140.898371
 42
0.008129
  0
VERTEX
  8
0
 10
333.220343
 20
140.339063
 42
0.010895
  0
VERTEX
  8
0
 10
331.825484
 20
139.611801
 42
0.008075
  0
VERTEX
  8
0
 10
330.315244
 20
138.750000
 42
-0.042738
  0
VERTEX
  8
0
 10
323.681817
 20
135.551596
 42
-0.022897
  0
VERTEX
  8
0
 10
315.038147
 20
132.705688
 42
-0.022903
  0
VERTEX
  8
0
 10
306.206541
 20
130.670550
 42
-0.044410
  0
VERTEX
  8
0
 10
299.000000
 20
130.006230
 42
0.034065
  0
VERTEX
  8
0
 10
292.336522
 20
129.530556
 42
0.083180
  0
VERTEX
  8
0
 10
287.658695
 20
128.056094
 42
0.066247
  0
VERTEX
  8
0
 10
283.110247
 20
124.920084
 42
0.015899
  0
VERTEX
  8
0
 10
276.500000
 20
118.539549
 42
-0.014291
  0
VERTEX
  8
0
 10
268.706279
 20
110.968108
 42
-0.073700
  0
VERTEX
  8
0
 10
263.738842
 20
107.604454
 42
-0.105665
  0
VERTEX
  8
0
 10
258.883462
 20
106.428936
 42
-0.045336
  0
VERTEX
  8
0
 10
252.192735
 20
106.855192
 42
-0.021837
  0
VERTEX
  8
0
 10
246.269297
 20
108.042981
 42
-0.074709
  0
VERTEX
  8
0
 10
242.646944
 20
109.534958
 42
-0.081069
  0
VERTEX
  8
0
 10
239.781360
 20
111.956600
 42
-0.028684
  0
VERTEX
  8
0
 10
236.519763
 20
116.246755
 42
-0.019173
  0
VERTEX
  8
0
 10
234.480326
 20
119.541020
 42
-0.064319
  0
VERTEX
  8
0
 10
233.523087
 20
121.886192
 42
-0.054232
  0
VERTEX
  8
0
 10
233.111035
 20
124.599476
 42
-0.010927
  0
VERTEX
  8
0
 10
233.010824
 20
129.486652
 42
-0.014822
  0
VERTEX
  8
0
 10
233.116166
 20
132.884580
 42
-0.012521
  0
VERTEX
  8
0
 10
233.423917
 20
136.467954
 42
-0.012706
  0
VERTEX
  8
0
 10
233.869730
 20
139.722785
 42
-0.034033
  0
VERTEX
  8
0
 10
234.401898
 20
142.000000
 42
-0.033329
  0
VERTEX
  8
0
 10
236.557642
 20
147.654285
 42
-0.018946
  0
VERTEX
  8
0
 10
239.866470
 20
154.188097
 42
-0.018788
  0
VERTEX
  8
0
 10
243.529357
 20
160.240561
 42
-0.047648
  0
VERTEX
  8
0
 10
246.745947
 20
164.242541
 42
0.014679
  0
VERTEX
  8
0
 10
248.771070
 20
166.447583
 42
0.080690
  0
VERTEX
  8
0
 10
249.615894
 20
167.817813
 42
0.125442
  0
VERTEX
  8
0
 10
249.797551
 20
169.089439
 42
0.057685
  0
VERTEX
  8
0
 10
249.425000
 20
170.732826
 42
0.045091
  0
VERTEX
  8
0
 10
248.934444
 20
171.807295
 42
0.046357
  0
VERTEX
  8
0
 10
248.263039
 20
172.765761
 42
0.050788
  0
VERTEX
  8
0
 10
247.521531
 20
173.478473
 42
0.119021
  0
VERTEX
  8
0
 10
246.826361
 20
173.794923
 42
0.241598
  0
VERTEX
  8
0
 10
243.569167
 20
172.844685
 42
0.032937
  0
VERTEX
  8
0
 10
238.596247
 20
167.474174
 42
0.031870
  0
VERTEX
  8
0
 10
233.161141
 20
159.819145
 42
0.021716
  0
VERTEX
  8
0
 10
227.945155
 20
150.500000
 42
-0.098791
  0
VERTEX
  8
0
 10
226.224594
 20
148.300315
 42
-0.139486
  0
VERTEX
  8
0
 10
223.978611
 20
147.262403
 42
-0.093220
  0
VERTEX
  8
0
 10
220.828179
 20
147.357571
 42
-0.027897
  0
VERTEX
  8
0
 10
216.180531
 20
148.653255
 42
-0.033101
  0
VERTEX
  8
0
 10
211.602807
 20
150.555508
 42
-0.066917
  0
VERTEX
  8
0
 10
208.372568
 20
152.735445
 42
-0.098783
  0
VERTEX
  8
0
 10
206.639971
 20
155.030797
 42
-0.188995
  0
VERTEX
  8
0
 10
206.467119
 20
157.298570
 42
0.043141
  0
VERTEX
  8
0
 10
206.760516
 20
158.666501
 42
0.005364
  0
VERTEX
  8
0
 10
207.107848
 20
161.691368
 42
0.006293
  0
VERTEX
  8
0
 10
207.437257
 20
165.300848
 42
0.005173
  0
VERTEX
  8
0
 10
207.700480
 20
169.161405
 42
0.034847
  0
VERTEX
  8
0
 10
207.572410
 20
179.892142
 42
0.046457
  0
VERTEX
  8
0
 10
205.881448
 20
189.486871
 42
0.050532
  0
VERTEX
  8
0
 10
202.620825
 20
197.936746
 42
0.055875
  0
VERTEX
  8
0
 10
197.815917
 20
205.256454
 42
-0.008483
  0
VERTEX
  8
0
 10
195.718565
 20
207.873789
 42
-0.063603
  0
VERTEX
  8
0
 10
194.914509
 20
209.241225
 42
-0.204615
  0
VERTEX
  8
0
 10
194.913798
 20
210.067260
 42
-0.203124
  0
VERTEX
  8
0
 10
195.510102
 20
210.642250
 42
-0.089225
  0
VERTEX
  8
0
 10
196.392240
 20
210.810466
 42
-0.025864
  0
VERTEX
  8
0
 10
197.781971
 20
210.753083
 42
-0.025117
  0
VERTEX
  8
0
 10
199.369408
 20
210.524184
 42
-0.024422
  0
VERTEX
  8
0
 10
200.941090
 20
210.135796
 42
0.026671
  0
VERTEX
  8
0
 10
202.741915
 20
209.699363
 42
0.013405
  0
VERTEX
  8
0
 10
205.053117
 20
209.332002
 42
0.013272
  0
VERTEX
  8
0
 10
207.469317
 20
209.079129
 42
0.019151
  0
VERTEX
  8
0
 10
209.616020
 20
208.994423
 42
-0.016059
  0
VERTEX
  8
0
 10
211.741884
 20
208.923696
 42
-0.011760
  0
VERTEX
  8
0
 10
214.093456
 20
208.714111
 42
-0.011906
  0
VERTEX
  8
0
 10
216.313239
 20
208.409846
 42
-0.025649
  0
VERTEX
  8
0
 10
218.000000
 20
208.048000
 42
0.021010
  0
VERTEX
  8
0
 10
219.918063
 20
207.617893
 42
0.005118
  0
VERTEX
  8
0
 10
223.115625
 20
207.074468
 42
0.005237
  0
VERTEX
  8
0
 10
226.797657
 20
206.526899
 42
0.005196
  0
VERTEX
  8
0
 10
230.500000
 20
206.055039
 42
-0.002285
  0
VERTEX
  8
0
 10
234.698651
 20
205.544751
 42
-0.001183
  0
VERTEX
  8
0
 10
239.940625
 20
204.870733
 42
-0.001176
  0
VERTEX
  8
0
 10
245.324569
 20
204.152623
 42
-0.001787
  0
VERTEX
  8
0
 10
250.000000
 20
203.500796
 42
0.003084
  0
VERTEX
  8
0
 10
254.742804
 20
202.852120
 42
0.001890
  0
VERTEX
  8
0
 10
260.341784
 20
202.143016
 42
0.001895
  0
VERTEX
  8
0
 10
265.889911
 20
201.482982
 42
0.003375
  0
VERTEX
  8
0
 10
270.461393
 20
200.987940
 42
-0.008208
  0
VERTEX
  8
0
 10
274.349532
 20
200.528839
 42
-0.011663
  0
VERTEX
  8
0
 10
277.787031
 20
199.983711
 42
-0.007819
  0
VERTEX
  8
0
 10
280.617136
 20
199.421105
 42
-0.144372
  0
VERTEX
  8
0
 10
281.411393
 20
198.988607
 42
0.171261
  0
VERTEX
  8
0
 10
282.998244
 20
198.229559
 42
0.025107
  0
VERTEX
  8
0
 10
286.613830
 20
198.024221
 42
0.022963
  0
VERTEX
  8
0
 10
290.221825
 20
198.166416
 42
0.237287
  0
VERTEX
  8
0
 10
291.452451
 20
198.923063
 42
-0.122302
  0
VERTEX
  8
0
 10
291.860031
 20
199.321318
 42
-0.027837
  0
VERTEX
  8
0
 10
292.725296
 20
199.766048
 42
-0.027205
  0
VERTEX
  8
0
 10
293.808879
 20
200.179752
 42
-0.023532
  0
VERTEX
  8
0
 10
294.984435
 20
200.496581
 42
0.100250
  0
VERTEX
  8
0
 10
297.459254
 20
201.590025
 42
0.046478
  0
VERTEX
  8
0
 10
300.139127
 20
203.887674
 42
0.042259
  0
VERTEX
  8
0
 10
302.674947
 20
206.993645
 42
0.038830
  0
VERTEX
  8
0
 10
304.733872
 20
210.568113
 42
-0.062582
  0
VERTEX
  8
0
 10
305.728030
 20
212.119234
 42
-0.044782
  0
VERTEX
  8
0
 10
307.185410
 20
213.579297
 42
-0.037622
  0
VERTEX
  8
0
 10
309.140706
 20
214.979939
 42
-0.022609
  0
VERTEX
  8
0
 10
311.645612
 20
216.352232
 42
0.017031
  0
VERTEX
  8
0
 10
313.764470
 20
217.482496
 42
0.021219
  0
VERTEX
  8
0
 10
315.647156
 20
218.680023
 42
0.020048
  0
VERTEX
  8
0
 10
317.115901
 20
219.794359
 42
0.129530
  0
VERTEX
  8
0
 10
317.654806
 20
220.542822
 42
0.198132
  0
VERTEX
  8
0
 10
317.614456
 20
222.170175
 42
0.079891
  0
VERTEX
  8
0
 10
316.381831
 20
224.070443
 42
0.080439
  0
VERTEX
  8
0
 10
314.625417
 20
225.477441
 42
0.206112
  0
VERTEX
  8
0
 10
313.039322
 20
225.649931
 42
-0.027211
  0
VERTEX
  8
0
 10
300.291875
 20
222.479065
 42
-0.033453
  0
VERTEX
  8
0
 10
288.125581
 20
220.981096
 42
-0.035887
  0
VERTEX
  8
0
 10
276.657861
 20
221.165918
 42
-0.042698
  0
VERTEX
  8
0
 10
266.000000
 20
223.030565
 42
-0.020658
  0
VERTEX
  8
0
 10
260.458973
 20
224.743735
 42
-0.053002
  0
VERTEX
  8
0
 10
256.680273
 20
226.555427
 42
-0.067362
  0
VERTEX
  8
0
 10
253.918375
 20
228.823322
 42
-0.054809
  0
VERTEX
  8
0
 10
251.632324
 20
231.898407
 42
-0.151113
  0
VERTEX
  8
0
 10
250.452123
 20
236.943305
 42
-0.111509
  0
VERTEX
  8
0
 10
252.114585
 20
242.468926
 42
-0.093564
  0
VERTEX
  8
0
 10
256.373159
 20
247.515309
 42
-0.075247
  0
VERTEX
  8
0
 10
262.500000
 20
251.130416
 42
-0.010873
  0
VERTEX
  8
0
 10
268.000183
 20
253.207680
 42
-0.016663
  0
VERTEX
  8
0
 10
272.857740
 20
254.742516
 42
-0.019219
  0
VERTEX
  8
0
 10
276.946174
 20
255.718298
 42
-0.047925
  0
VERTEX
  8
0
 10
280.000000
 20
256.024939
 42
0.031989
  0
VERTEX
  8
0
 10
285.217855
 20
256.381640
 42
0.012391
  0
VERTEX
  8
0
 10
292.377510
 20
257.514976
 42
0.007018
  0
VERTEX
  8
0
 10
299.455474
 20
258.918884
 42
0.147146
  0
VERTEX
  8
0
 10
301.323185
 20
259.944168
 42
0.110521
  0
VERTEX
  8
0
 10
301.750240
 20
260.630789
 42
0.179914
  0
VERTEX
  8
0
 10
301.736842
 20
261.309003
 42
0.103575
  0
VERTEX
  8
0
 10
301.226495
 20
262.084255
 42
0.024315
  0
VERTEX
  8
0
 10
300.066310
 20
263.130018
 42
0.072246
  0
VERTEX
  8
0
 10
298.304555
 20
264.187775
 42
0.069405
  0
VERTEX
  8
0
 10
296.290398
 20
264.719025
 42
0.034698
  0
VERTEX
  8
0
 10
293.210335
 20
264.872937
 42
0.005304
  0
VERTEX
  8
0
 10
287.066310
 20
264.688276
 42
0.016938
  0
VERTEX
  8
0
 10
279.682716
 20
264.136984
 42
0.016868
  0
VERTEX
  8
0
 10
272.343087
 20
263.086713
 42
0.017558
  0
VERTEX
  8
0
 10
265.907597
 20
261.708473
 42
0.047816
  0
VERTEX
  8
0
 10
261.522428
 20
260.149147
 42
-0.002799
  0
VERTEX
  8
0
 10
260.495872
 20
259.676345
 42
-0.000972
  0
VERTEX
  8
0
 10
259.010860
 20
259.005922
 42
-0.000966
  0
VERTEX
  8
0
 10
257.372515
 20
258.273907
 42
-0.001125
  0
VERTEX
  8
0
 10
255.812414
 20
257.584660
 42
0.077764
  0
VERTEX
  8
0
 10
252.170795
 20
255.255746
 42
0.027492
  0
VERTEX
  8
0
 10
247.752714
 20
250.892411
 42
0.023856
  0
VERTEX
  8
0
 10
243.925603
 20
246.245536
 42
0.161702
  0
VERTEX
  8
0
 10
243.000000
 20
243.458305
 42
-0.082908
  0
VERTEX
  8
0
 10
242.581467
 20
240.951585
 42
-0.136897
  0
VERTEX
  8
0
 10
241.372177
 20
239.195224
 42
-0.137719
  0
VERTEX
  8
0
 10
239.434302
 20
238.325175
 42
-0.084355
  0
VERTEX
  8
0
 10
236.912937
 20
238.375688
 42
0.012577
  0
VERTEX
  8
0
 10
235.010843
 20
238.688877
 42
0.002730
  0
VERTEX
  8
0
 10
231.711925
 20
239.128823
 42
0.002845
  0
VERTEX
  8
0
 10
227.887361
 20
239.595535
 42
0.002719
  0
VERTEX
  8
0
 10
224.000000
 20
240.026065
 42
-0.004211
  0
VERTEX
  8
0
 10
220.252004
 20
240.452481
 42
-0.005585
  0
VERTEX
  8
0
 10
216.850000
 20
240.907211
 42
-0.004055
  0
VERTEX
  8
0
 10
214.012719
 20
241.342291
 42
-0.054498
  0
VERTEX
  8
0
 10
213.000000
 20
241.621650
 42
0.061151
  0
VERTEX
  8
0
 10
211.981682
 20
241.888074
 42
0.004410
  0
VERTEX
  8
0
 10
209.086139
 20
242.251692
 42
0.006131
  0
VERTEX
  8
0
 10
205.613908
 20
242.613557
 42
0.004596
  0
VERTEX
  8
0
 10
201.782600
 20
242.929925
 42
0.000000
  0
VERTEX
  8
0
 10
192.065200
 20
243.642477
 42
0.000000
  0
VERTEX
  8
0
 10
184.282600
 20
251.571402
 42
0.033263
  0
VERTEX
  8
0
 10
176.545276
 20
258.470759
 42
0.051743
  0
VERTEX
  8
0
 10
168.971475
 20
263.201384
 42
0.053791
  0
VERTEX
  8
0
 10
160.811773
 20
266.156281
 42
0.039706
  0
VERTEX
  8
0
 10
151.322593
 20
267.693427
 42
0.015371
  0
VERTEX
  8
0
 10
147.672376
 20
267.877867
 42
0.026521
  0
VERTEX
  8
0
 10
144.633529
 20
267.776688
 42
0.029794
  0
VERTEX
  8
0
 10
141.885465
 20
267.372924
 42
0.027672
  0
VERTEX
  8
0
 10
139.134695
 20
266.638848
 42
-0.006057
  0
VERTEX
  8
0
 10
137.134291
 20
266.011268
 42
-0.007638
  0
VERTEX
  8
0
 10
135.267877
 20
265.481412
 42
-0.006229
  0
VERTEX
  8
0
 10
133.695240
 20
265.081730
 42
-0.059174
  0
VERTEX
  8
0
 10
133.007066
 20
265.000000
 42
0.125551
  0
VERTEX
  8
0
 10
132.282616
 20
264.815176
 42
0.005499
  0
VERTEX
  8
0
 10
129.990428
 20
263.531250
 42
0.009033
  0
VERTEX
  8
0
 10
127.293021
 20
261.915626
 42
0.006297
  0
VERTEX
  8
0
 10
124.306407
 20
260.000000
 42
-0.014928
  0
VERTEX
  8
0
 10
118.960071
 20
256.699669
 42
-0.074744
  0
VERTEX
  8
0
 10
115.692457
 20
255.417287
 42
-0.082583
  0
VERTEX
  8
0
 10
112.344025
 20
255.216208
 42
-0.020461
  0
VERTEX
  8
0
 10
106.886490
 20
256.017205
 42
-0.048358
  0
VERTEX
  8
0
 10
102.803263
 20
257.205901
 42
-0.104742
  0
VERTEX
  8
0
 10
100.097438
 20
259.012323
 42
-0.118941
  0
VERTEX
  8
0
 10
98.562714
 20
261.592178
 42
-0.073557
  0
VERTEX
  8
0
 10
98.022236
 20
265.096362
 42
-0.104271
  0
VERTEX
  8
0
 10
99.166551
 20
270.695199
 42
-0.081867
  0
VERTEX
  8
0
 10
102.532243
 20
275.914292
 42
-0.064093
  0
VERTEX
  8
0
 10
108.234718
 20
280.782592
 42
-0.033880
  0
VERTEX
  8
0
 10
116.362171
 20
285.338405
 42
-0.007016
  0
VERTEX
  8
0
 10
119.427001
 20
286.740808
 42
-0.009321
  0
VERTEX
  8
0
 10
122.254289
 20
287.924406
 42
-0.007022
  0
VERTEX
  8
0
 10
124.639208
 20
288.832407
 42
-0.087658
  0
VERTEX
  8
0
 10
125.587817
 20
289.000000
 42
0.064481
  0
VERTEX
  8
0
 10
126.366568
 20
289.100848
 42
0.018384
  0
VERTEX
  8
0
 10
127.535641
 20
289.455234
 42
0.018186
  0
VERTEX
  8
0
 10
128.837909
 20
289.956537
 42
0.018357
  0
VERTEX
  8
0
 10
130.096172
 20
290.549733
 42
-0.067846
  0
VERTEX
  8
0
 10
133.089733
 20
291.614612
 42
-0.038945
  0
VERTEX
  8
0
 10
136.895732
 20
292.106118
 42
-0.024983
  0
VERTEX
  8
0
 10
142.244495
 20
292.109455
 42
-0.007200
  0
VERTEX
  8
0
 10
150.500000
 20
291.582614
 42
0.012687
  0
VERTEX
  8
0
 10
156.867605
 20
291.246357
 42
0.078680
  0
VERTEX
  8
0
 10
160.103015
 20
291.668192
 42
0.223804
  0
VERTEX
  8
0
 10
161.456010
 20
292.871810
 42
0.179579
  0
VERTEX
  8
0
 10
161.550650
 20
294.840415
 42
0.095646
  0
VERTEX
  8
0
 10
161.024946
 20
295.807203
 42
0.079479
  0
VERTEX
  8
0
 10
160.146097
 20
296.583343
 42
0.063097
  0
VERTEX
  8
0
 10
158.880080
 20
297.177450
 42
0.033291
  0
VERTEX
  8
0
 10
157.193638
 20
297.601215
 42
-0.054875
  0
VERTEX
  8
0
 10
144.259999
 20
301.450410
 42
-0.030588
  0
VERTEX
  8
0
 10
129.515826
 20
308.756495
 42
-0.030553
  0
VERTEX
  8
0
 10
116.166425
 20
317.546597
 42
-0.072828
  0
VERTEX
  8
0
 10
107.818479
 20
325.951326
 42
-0.037988
  0
VERTEX
  8
0
 10
104.228641
 20
331.668690
 42
-0.055006
  0
VERTEX
  8
0
 10
102.047217
 20
337.213338
 42
-0.047215
  0
VERTEX
  8
0
 10
100.928751
 20
343.706996
 42
-0.020313
  0
VERTEX
  8
0
 10
100.615714
 20
352.500000
 42
-0.007597
  0
VERTEX
  8
0
 10
100.758030
 20
359.534400
 42
-0.028520
  0
VERTEX
  8
0
 10
101.165502
 20
363.929448
 42
-0.033870
  0
VERTEX
  8
0
 10
102.033339
 20
367.862240
 42
-0.014110
  0
VERTEX
  8
0
 10
103.708238
 20
373.035360
 42
-0.005689
  0
VERTEX
  8
0
 10
105.020005
 20
376.598908
 42
-0.005169
  0
VERTEX
  8
0
 10
106.453971
 20
380.247991
 42
-0.005178
  0
VERTEX
  8
0
 10
107.804200
 20
383.485530
 42
-0.016568
  0
VERTEX
  8
0
 10
108.797554
 20
385.603173
 42
0.041220
  0
VERTEX
  8
0
 10
109.666818
 20
387.721795
 42
0.013960
  0
VERTEX
  8
0
 10
110.585462
 20
390.928048
 42
0.013776
  0
VERTEX
  8
0
 10
111.407576
 20
394.543741
 42
0.015398
  0
VERTEX
  8
0
 10
111.995209
 20
398.067813
 42
-0.019976
  0
VERTEX
  8
0
 10
114.297881
 20
411.138556
 42
-0.011582
  0
VERTEX
  8
0
 10
118.050279
 20
426.640574
 42
-0.010505
  0
VERTEX
  8
0
 10
122.211985
 20
441.023187
 42
-0.048457
  0
VERTEX
  8
0
 10
125.579948
 20
449.000000
 42
0.011876
  0
VERTEX
  8
0
 10
126.285060
 20
450.379215
 42
0.002839
  0
VERTEX
  8
0
 10
127.388903
 20
452.704767
 42
0.002916
  0
VERTEX
  8
0
 10
128.626110
 20
455.390667
 42
0.002882
  0
VERTEX
  8
0
 10
129.836819
 20
458.101334
 42
-0.055589
  0
VERTEX
  8
0
 10
139.867780
 20
475.404971
 42
-0.037361
  0
VERTEX
  8
0
 10
154.796210
 20
492.734103
 42
-0.037160
  0
VERTEX
  8
0
 10
172.274807
 20
507.779103
 42
-0.052176
  0
VERTEX
  8
0
 10
190.000000
 20
518.216285
 42
-0.012769
  0
VERTEX
  8
0
 10
196.071724
 20
520.800379
 42
-0.006910
  0
VERTEX
  8
0
 10
203.662778
 20
523.683859
 42
-0.006431
  0
VERTEX
  8
0
 10
210.945351
 20
526.229982
 42
-0.025641
  0
VERTEX
  8
0
 10
215.500000
 20
527.501321
 42
-0.028056
  0
VERTEX
  8
0
 10
230.422899
 20
529.983633
 42
-0.021218
  0
VERTEX
  8
0
 10
246.998222
 20
531.084299
 42
-0.020643
  0
VERTEX
  8
0
 10
264.164218
 20
530.785521
 42
-0.022037
  0
SEQEND
  0
POLYLINE
  8
0
 66
1
 70
1
  0
VERTEX
  8
0
 10
456.008351
 20
484.457865
 42
-0.015514
  0
VERTEX
  8
0
 10
467.421364
 20
481.675707
 42
-0.016573
  0
VERTEX
  8
0
 10
478.388236
 20
478.243851
 42
-0.016877
  0
VERTEX
  8
0
 10
488.912697
 20
474.159758
 42
-0.017544
  0
VERTEX
  8
0
 10
499.000000
 20
469.423144
 42
-0.013893
  0
VERTEX
  8
0
 10
507.654088
 20
464.674359
 42
-0.028197
  0
VERTEX
  8
0
 10
514.120427
 20
460.381832
 42
-0.032854
  0
VERTEX
  8
0
 10
519.396764
 20
455.864104
 42
-0.028359
  0
VERTEX
  8
0
 10
524.318540
 20
450.477251
 42
-0.004196
  0
VERTEX
  8
0
 10
529.728265
 20
443.721717
 42
-0.064382
  0
VERTEX
  8
0
 10
531.255918
 20
441.163012
 42
-0.149509
  0
VERTEX
  8
0
 10
531.496593
 20
439.039121
 42
-0.049197
  0
VERTEX
  8
0
 10
530.611018
 20
435.985857
 42
0.046196
  0
VERTEX
  8
0
 10
529.390959
 20
431.871612
 42
0.062935
  0
VERTEX
  8
0
 10
529.119601
 20
428.015439
 42
0.061582
  0
VERTEX
  8
0
 10
529.816904
 20
424.149662
 42
0.041913
  0
VERTEX
  8
0
 10
531.498140
 20
420.003671
 42
0.048601
  0
VERTEX
  8
0
 10
535.791303
 20
413.248633
 42
0.065984
  0
VERTEX
  8
0
 10
540.944028
 20
408.194458
 42
0.074078
  0
VERTEX
  8
0
 10
546.709757
 20
405.073906
 42
0.087269
  0
VERTEX
  8
0
 10
552.815724
 20
404.000000
 42
-0.066011
  0
VERTEX
  8
0
 10
555.964123
 20
403.582523
 42
-0.090774
  0
VERTEX
  8
0
 10
558.535679
 20
402.357043
 42
-0.097327
  0
VERTEX
  8
0
 10
560.381861
 20
400.379220
 42
-0.087472
  0
VERTEX
  8
0
 10
561.429236
 20
397.775436
 42
0.003221
  0
VERTEX
  8
0
 10
561.723957
 20
396.421850
 42
0.000468
  0
VERTEX
  8
0
 10
562.344080
 20
393.671534
 42
0.000530
  0
VERTEX
  8
0
 10
563.083764
 20
390.421179
 42
0.000454
  0
VERTEX
  8
0
 10
563.869403
 20
387.000000
 42
-0.024276
  0
VERTEX
  8
0
 10
566.584867
 20
371.914022
 42
-0.027794
  0
VERTEX
  8
0
 10
567.667665
 20
357.303799
 42
-0.027827
  0
VERTEX
  8
0
 10
567.122839
 20
342.678955
 42
-0.024445
  0
VERTEX
  8
0
 10
564.963637
 20
327.549333
 42
-0.017692
  0
VERTEX
  8
0
 10
562.101665
 20
315.103092
 42
-0.027701
  0
VERTEX
  8
0
 10
558.680164
 20
304.666214
 42
-0.029516
  0
VERTEX
  8
0
 10
554.309025
 20
295.165041
 42
-0.024290
  0
VERTEX
  8
0
 10
548.581421
 20
285.583370
 42
-0.039312
  0
VERTEX
  8
0
 10
537.096599
 20
270.965111
 42
-0.054481
  0
VERTEX
  8
0
 10
524.548048
 20
260.016117
 42
-0.057687
  0
VERTEX
  8
0
 10
510.533059
 20
252.480664
 42
-0.052221
  0
VERTEX
  8
0
 10
494.690755
 20
248.032406
 42
-0.041344
  0
VERTEX
  8
0
 10
484.158504
 20
247.116460
 42
-0.005917
  0
VERTEX
  8
0
 10
462.491231
 20
247.283898
 42
-0.006080
  0
VERTEX
  8
0
 10
440.843107
 20
247.970857
 42
-0.038627
  0
VERTEX
  8
0
 10
429.924764
 20
249.299541
 42
-0.031448
  0
VERTEX
  8
0
 10
424.841799
 20
250.658188
 42
-0.041489
  0
VERTEX
  8
0
 10
420.439394
 20
252.555900
 42
-0.045386
  0
VERTEX
  8
0
 10
416.742547
 20
254.981318
 42
-0.053640
  0
VERTEX
  8
0
 10
413.766749
 20
257.916483
 42
0.051660
  0
VERTEX
  8
0
 10
412.368131
 20
259.306944
 42
0.011221
  0
VERTEX
  8
0
 10
409.668983
 20
261.387973
 42
0.011585
  0
VERTEX
  8
0
 10
406.420357
 20
263.664270
 42
0.010860
  0
VERTEX
  8
0
 10
403.000000
 20
265.838821
 42
-0.003294
  0
VERTEX
  8
0
 10
397.119914
 20
269.453428
 42
-0.013396
  0
VERTEX
  8
0
 10
393.617900
 20
271.770684
 42
-0.014557
  0
VERTEX
  8
0
 10
391.399617
 20
273.423853
 42
-0.229200
  0
VERTEX
  8
0
 10
391.000000
 20
274.249824
 42
-0.165390
  0
VERTEX
  8
0
 10
391.114636
 20
274.586908
 42
-0.005086
  0
VERTEX
  8
0
 10
392.034192
 20
275.757668
 42
-0.009491
  0
VERTEX
  8
0
 10
393.171554
 20
277.121914
 42
-0.006367
  0
VERTEX
  8
0
 10
394.520654
 20
278.639582
 42
0.038457
  0
VERTEX
  8
0
 10
402.426308
 20
288.773036
 42
0.032460
  0
VERTEX
  8
0
 10
409.194601
 20
300.573617
 42
0.030353
  0
VERTEX
  8
0
 10
414.778067
 20
313.959841
 42
0.024856
  0
VERTEX
  8
0
 10
419.134612
 20
328.842182
 42
0.008167
  0
VERTEX
  8
0
 10
421.758566
 20
340.645975
 42
0.018289
  0
VERTEX
  8
0
 10
423.274669
 20
349.704396
 42
0.017887
  0
VERTEX
  8
0
 10
424.143525
 20
358.971170
 42
0.007487
  0
VERTEX
  8
0
 10
424.679375
 20
371.500000
 42
0.006577
  0
VERTEX
  8
0
 10
424.855869
 20
383.574572
 42
0.015158
  0
VERTEX
  8
0
 10
424.593942
 20
392.650179
 42
0.013372
  0
VERTEX
  8
0
 10
423.758744
 20
402.348229
 42
0.004123
  0
VERTEX
  8
0
 10
421.989283
 20
416.913223
 42
0.000000
  0
VERTEX
  8
0
 10
420.896721
 20
425.326446
 42
0.000000
  0
VERTEX
  8
0
 10
425.388662
 20
429.913223
 42
0.032899
  0
VERTEX
  8
0
 10
429.791638
 20
435.044292
 42
0.032820
  0
VERTEX
  8
0
 10
433.487408
 20
440.712553
 42
0.033022
  0
VERTEX
  8
0
 10
436.389607
 20
446.780078
 42
0.034289
  0
VERTEX
  8
0
 10
438.425711
 20
453.102007
 42
0.010153
  0
VERTEX
  8
0
 10
439.461607
 20
457.675887
 42
0.047413
  0
VERTEX
  8
0
 10
439.751620
 20
460.359199
 42
0.052250
  0
VERTEX
  8
0
 10
439.515880
 20
462.928428
 42
0.014018
  0
VERTEX
  8
0
 10
438.604208
 20
466.931230
 42
0.020673
  0
VERTEX
  8
0
 10
437.754030
 20
469.746169
 42
0.013827
  0
VERTEX
  8
0
 10
436.561192
 20
472.893213
 42
0.013936
  0
VERTEX
  8
0
 10
435.233373
 20
475.884031
 42
0.026482
  0
VERTEX
  8
0
 10
433.974263
 20
478.196253
 42
-0.014903
  0
VERTEX
  8
0
 10
432.121010
 20
481.419600
 42
-0.053966
  0
VERTEX
  8
0
 10
431.235564
 20
483.609958
 42
-0.097633
  0
VERTEX
  8
0
 10
431.107561
 20
485.173469
 42
-0.169711
  0
VERTEX
  8
0
 10
431.666667
 20
486.333333
 42
-0.204385
  0
VERTEX
  8
0
 10
433.705350
 20
487.152772
 42
-0.013966
  0
VERTEX
  8
0
 10
440.067138
 20
486.841019
 42
-0.018611
  0
VERTEX
  8
0
 10
447.714909
 20
485.964500
 42
-0.014189
  0
SEQEND
  0
POLYLINE
  8
0
 66
1
 70
1
  0
VERTEX
  8
0
 10
384.582223
 20
269.968739
 42
-0.066094
  0
VERTEX
  8
0
 10
388.232190
 20
267.996890
 42
-0.008866
  0
VERTEX
  8
0
 10
395.225276
 20
262.735184
 42
-0.007311
  0
VERTEX
  8
0
 10
402.120119
 20
257.189188
 42
-0.097149
  0
VERTEX
  8
0
 10
404.172894
 20
254.676944
 42
0.040840
  0
VERTEX
  8
0
 10
404.794602
 20
253.713437
 42
0.019237
  0
VERTEX
  8
0
 10
405.741684
 20
252.573232
 42
0.018917
  0
VERTEX
  8
0
 10
406.831084
 20
251.448488
 42
0.025275
  0
VERTEX
  8
0
 10
407.905962
 20
250.518999
 42
-0.009270
  0
VERTEX
  8
0
 10
409.233988
 20
249.442902
 42
-0.002797
  0
VERTEX
  8
0
 10
411.212028
 20
247.759425
 42
-0.002801
  0
VERTEX
  8
0
 10
413.409721
 20
245.846167
 42
-0.003042
  0
VERTEX
  8
0
 10
415.525964
 20
243.959894
 42
0.068844
  0
VERTEX
  8
0
 10
421.315906
 20
240.027462
 42
0.048806
  0
VERTEX
  8
0
 10
428.671057
 20
237.245406
 42
0.036398
  0
VERTEX
  8
0
 10
438.387438
 20
235.363506
 42
0.015400
  0
VERTEX
  8
0
 10
451.625225
 20
234.198879
 42
-0.011159
  0
VERTEX
  8
0
 10
462.225075
 20
233.356852
 42
-0.073932
  0
VERTEX
  8
0
 10
467.356577
 20
232.051017
 42
-0.129642
  0
VERTEX
  8
0
 10
470.530611
 20
229.614843
 42
-0.063349
  0
VERTEX
  8
0
 10
473.136482
 20
225.185565
 42
-0.030459
  0
VERTEX
  8
0
 10
475.827063
 20
217.683710
 42
-0.026099
  0
VERTEX
  8
0
 10
477.750803
 20
209.514714
 42
-0.022593
  0
VERTEX
  8
0
 10
479.016827
 20
200.117292
 42
-0.013488
  0
VERTEX
  8
0
 10
479.713175
 20
188.856726
 42
-0.016580
  0
VERTEX
  8
0
 10
479.735951
 20
174.876305
 42
-0.036886
  0
VERTEX
  8
0
 10
478.618084
 20
164.296180
 42
-0.040334
  0
VERTEX
  8
0
 10
476.040086
 20
154.590780
 42
-0.023910
  0
VERTEX
  8
0
 10
471.506231
 20
143.500000
 42
-0.062435
  0
VERTEX
  8
0
 10
468.086303
 20
138.052210
 42
-0.023050
  0
VERTEX
  8
0
 10
462.018575
 20
131.290881
 42
-0.022835
  0
VERTEX
  8
0
 10
455.401837
 20
125.155673
 42
-0.068518
  0
VERTEX
  8
0
 10
450.208389
 20
121.862119
 42
-0.042691
  0
VERTEX
  8
0
 10
441.913382
 20
118.899676
 42
-0.040355
  0
VERTEX
  8
0
 10
433.077740
 20
117.319026
 42
-0.042069
  0
VERTEX
  8
0
 10
424.525264
 20
117.214089
 42
-0.060215
  0
VERTEX
  8
0
 10
417.087369
 20
118.660778
 42
0.000000
  0
VERTEX
  8
0
 10
411.945069
 20
120.321555
 42
0.000000
  0
VERTEX
  8
0
 10
408.950481
 20
117.452558
 42
0.030793
  0
VERTEX
  8
0
 10
407.588858
 20
115.976958
 42
0.013087
  0
VERTEX
  8
0
 10
405.944138
 20
113.846827
 42
0.012891
  0
VERTEX
  8
0
 10
404.302344
 20
111.475405
 42
0.016494
  0
VERTEX
  8
0
 10
402.921287
 20
109.206534
 42
-0.012958
  0
VERTEX
  8
0
 10
401.323865
 20
106.539935
 42
-0.056096
  0
VERTEX
  8
0
 10
400.168540
 20
105.104536
 42
-0.113649
  0
VERTEX
  8
0
 10
399.178180
 20
104.490939
 42
-0.180804
  0
VERTEX
  8
0
 10
398.193341
 20
104.519888
 42
0.034442
  0
VERTEX
  8
0
 10
386.282705
 20
108.444121
 42
0.032170
  0
VERTEX
  8
0
 10
373.671755
 20
110.805381
 42
0.033917
  0
VERTEX
  8
0
 10
362.058759
 20
111.421077
 42
0.076130
  0
VERTEX
  8
0
 10
353.376413
 20
109.959213
 42
-0.022424
  0
VERTEX
  8
0
 10
351.699190
 20
109.487915
 42
-0.054057
  0
VERTEX
  8
0
 10
350.421242
 20
109.332412
 42
-0.075262
  0
VERTEX
  8
0
 10
349.424614
 20
109.469974
 42
-0.101679
  0
VERTEX
  8
0
 10
348.624040
 20
109.897056
 42
-0.150133
  0
VERTEX
  8
0
 10
347.032640
 20
112.325883
 42
-0.029253
  0
VERTEX
  8
0
 10
345.858733
 20
117.490495
 42
-0.028981
  0
VERTEX
  8
0
 10
345.175554
 20
123.847020
 42
-0.024387
  0
VERTEX
  8
0
 10
345.173146
 20
130.620022
 42
-0.012256
  0
VERTEX
  8
0
 10
345.538759
 20
135.625021
 42
-0.034901
  0
VERTEX
  8
0
 10
346.120057
 20
139.069136
 42
-0.039030
  0
VERTEX
  8
0
 10
347.133815
 20
142.180257
 42
-0.018712
  0
VERTEX
  8
0
 10
348.887670
 20
146.000000
 42
-0.026173
  0
VERTEX
  8
0
 10
351.888452
 20
151.238603
 42
-0.039146
  0
VERTEX
  8
0
 10
355.082497
 20
155.433359
 42
-0.039585
  0
VERTEX
  8
0
 10
358.863146
 20
159.045684
 42
-0.027581
  0
VERTEX
  8
0
 10
363.639698
 20
162.516335
 42
0.010732
  0
VERTEX
  8
0
 10
367.551690
 20
165.162184
 42
0.079674
  0
VERTEX
  8
0
 10
369.151999
 20
166.730016
 42
0.178326
  0
VERTEX
  8
0
 10
369.566057
 20
168.150166
 42
0.105931
  0
VERTEX
  8
0
 10
369.072471
 20
169.864586
 42
-0.127982
  0
VERTEX
  8
0
 10
368.612408
 20
171.770834
 42
-0.030113
  0
VERTEX
  8
0
 10
368.869985
 20
175.067562
 42
-0.015045
  0
VERTEX
  8
0
 10
369.810742
 20
180.605550
 42
-0.002098
  0
VERTEX
  8
0
 10
372.150768
 20
192.000000
 42
0.025371
  0
VERTEX
  8
0
 10
372.503753
 20
194.244148
 42
0.009822
  0
VERTEX
  8
0
 10
372.773065
 20
197.381250
 42
0.009695
  0
VERTEX
  8
0
 10
372.932448
 20
200.798742
 42
0.011829
  0
VERTEX
  8
0
 10
372.943836
 20
204.000000
 42
-0.002752
  0
VERTEX
  8
0
 10
372.805017
 20
213.509707
 42
-0.100011
  0
VERTEX
  8
0
 10
373.216511
 20
215.646280
 42
-0.299242
  0
VERTEX
  8
0
 10
374.451761
 20
216.490724
 42
-0.034017
  0
VERTEX
  8
0
 10
378.000000
 20
216.313594
 42
0.009176
  0
VERTEX
  8
0
 10
380.927530
 20
216.021235
 42
0.086303
  0
VERTEX
  8
0
 10
382.181774
 20
216.135681
 42
0.224505
  0
VERTEX
  8
0
 10
382.781413
 20
216.645752
 42
0.106462
  0
VERTEX
  8
0
 10
383.000000
 20
217.660709
 42
0.092888
  0
VERTEX
  8
0
 10
382.690652
 20
219.311505
 42
0.095431
  0
VERTEX
  8
0
 10
381.805653
 20
220.720676
 42
0.098654
  0
VERTEX
  8
0
 10
380.489311
 20
221.666530
 42
0.107004
  0
VERTEX
  8
0
 10
378.948939
 20
222.000000
 42
-0.125116
  0
VERTEX
  8
0
 10
374.469343
 20
223.138764
 42
-0.022199
  0
VERTEX
  8
0
 10
366.994722
 20
227.642332
 42
-0.025016
  0
VERTEX
  8
0
 10
359.691612
 20
233.042188
 42
-0.059608
  0
VERTEX
  8
0
 10
355.025398
 20
237.902538
 42
-0.089863
  0
VERTEX
  8
0
 10
351.846049
 20
244.212980
 42
-0.078968
  0
VERTEX
  8
0
 10
350.889804
 20
251.535881
 42
-0.080251
  0
VERTEX
  8
0
 10
352.249545
 20
258.686295
 42
-0.098081
  0
VERTEX
  8
0
 10
355.763999
 20
264.501548
 42
-0.060838
  0
VERTEX
  8
0
 10
359.843839
 20
268.009152
 42
-0.066518
  0
VERTEX
  8
0
 10
364.531441
 20
270.306889
 42
-0.061260
  0
VERTEX
  8
0
 10
369.983900
 20
271.415260
 42
-0.041262
  0
VERTEX
  8
0
 10
376.343258
 20
271.387920
 42
-0.010593
  0
VERTEX
  8
0
 10
378.756066
 20
271.126412
 42
-0.010358
  0
VERTEX
  8
0
 10
381.173798
 20
270.761348
 42
-0.010298
  0
VERTEX
  8
0
 10
383.281393
 20
270.353448
 42
-0.037906
  0
SEQEND
  0
POLYLINE
  8
0
 66
1
 70
1
  0
VERTEX
  8
0
 10
162.749955
 20
257.341686
 42
-0.054609
  0
VERTEX
  8
0
 10
167.200535
 20
255.540711
 42
-0.031215
  0
VERTEX
  8
0
 10
172.130002
 20
252.477323
 42
-0.031159
  0
VERTEX
  8
0
 10
176.663044
 20
248.806028
 42
-0.052291
  0
VERTEX
  8
0
 10
179.903156
 20
245.136006
 42
-0.072861
  0
VERTEX
  8
0
 10
182.981600
 20
239.125035
 42
-0.047924
  0
VERTEX
  8
0
 10
184.772224
 20
231.548178
 42
-0.046160
  0
VERTEX
  8
0
 10
185.130970
 20
223.407643
 42
-0.052561
  0
VERTEX
  8
0
 10
183.940336
 20
215.698769
 42
-0.047355
  0
VERTEX
  8
0
 10
182.129780
 20
210.783091
 42
-0.044555
  0
VERTEX
  8
0
 10
179.396424
 20
206.187757
 42
-0.047165
  0
VERTEX
  8
0
 10
176.112342
 20
202.442672
 42
-0.079107
  0
VERTEX
  8
0
 10
172.662838
 20
200.089102
 42
-0.048870
  0
VERTEX
  8
0
 10
165.070765
 20
197.376175
 42
-0.062314
  0
VERTEX
  8
0
 10
157.697809
 20
196.479167
 42
-0.050100
  0
VERTEX
  8
0
 10
149.158670
 20
197.366279
 42
-0.019980
  0
VERTEX
  8
0
 10
137.724523
 20
200.207914
 42
-0.067476
  0
VERTEX
  8
0
 10
128.662408
 20
204.236224
 42
-0.081919
  0
VERTEX
  8
0
 10
121.661263
 20
210.333611
 42
-0.086193
  0
VERTEX
  8
0
 10
117.238436
 20
218.078848
 42
-0.084915
  0
VERTEX
  8
0
 10
115.655829
 20
226.902754
 42
-0.041029
  0
VERTEX
  8
0
 10
116.168846
 20
233.825686
 42
-0.059910
  0
VERTEX
  8
0
 10
117.831438
 20
239.703473
 42
-0.058939
  0
VERTEX
  8
0
 10
120.865298
 20
245.088326
 42
-0.038189
  0
VERTEX
  8
0
 10
125.515514
 20
250.529699
 42
-0.012737
  0
VERTEX
  8
0
 10
129.049348
 20
253.900712
 42
-0.046475
  0
VERTEX
  8
0
 10
131.525691
 20
255.757835
 42
-0.056878
  0
VERTEX
  8
0
 10
134.035997
 20
256.930295
 42
-0.026222
  0
VERTEX
  8
0
 10
137.515514
 20
257.896590
 42
0.001794
  0
VERTEX
  8
0
 10
139.880526
 20
258.430524
 42
0.002356
  0
VERTEX
  8
0
 10
142.035807
 20
258.935944
 42
0.001720
  0
VERTEX
  8
0
 10
143.838343
 20
259.374175
 42
0.022376
  0
VERTEX
  8
0
 10
144.500000
 20
259.569229
 42
-0.104576
  0
VERTEX
  8
0
 10
146.688103
 20
259.839792
 42
-0.009023
  0
VERTEX
  8
0
 10
152.316999
 20
259.255614
 42
-0.012952
  0
VERTEX
  8
0
 10
158.168823
 20
258.386992
 42
-0.025541
  0
SEQEND
  0
POLYLINE
  8
0
 66
1
 70
1
  0
VERTEX
  8
0
 10
120.673275
 20
201.685233
 42
0.018550
  0
VERTEX
  8
0
 10
124.774556
 20
198.573530
 42
0.018686
  0
VERTEX
  8
0
 10
129.085456
 20
195.782371
 42
0.019783
  0
VERTEX
  8
0
 10
133.162082
 20
193.567658
 42
0.042106
  0
VERTEX
  8
0
 10
136.500000
 20
192.257854
 42
0.042746
  0
VERTEX
  8
0
 10
150.852238
 20
189.283646
 42
0.067673
  0
VERTEX
  8
0
 10
163.392503
 20
189.487343
 42
0.078342
  0
VERTEX
  8
0
 10
174.060912
 20
192.878250
 42
0.084079
  0
VERTEX
  8
0
 10
182.878872
 20
199.332923
 42
-0.019188
  0
VERTEX
  8
0
 10
184.682419
 20
201.051463
 42
-0.029098
  0
VERTEX
  8
0
 10
186.387177
 20
202.387462
 42
-0.029616
  0
VERTEX
  8
0
 10
187.831560
 20
203.267703
 42
-0.216938
  0
VERTEX
  8
0
 10
188.619640
 20
203.315716
 42
-0.137295
  0
VERTEX
  8
0
 10
190.637710
 20
201.815398
 42
-0.020076
  0
VERTEX
  8
0
 10
193.625790
 20
197.616355
 42
-0.023830
  0
VERTEX
  8
0
 10
196.377157
 20
192.927815
 42
-0.049502
  0
VERTEX
  8
0
 10
197.964696
 20
189.000000
 42
-0.062131
  0
VERTEX
  8
0
 10
198.962074
 20
182.861735
 42
-0.008439
  0
VERTEX
  8
0
 10
199.224254
 20
169.818131
 42
-0.007209
  0
VERTEX
  8
0
 10
199.076937
 20
156.662608
 42
-0.085764
  0
VERTEX
  8
0
 10
198.084866
 20
151.684900
 42
0.062268
  0
VERTEX
  8
0
 10
197.662069
 20
149.982718
 42
0.009804
  0
VERTEX
  8
0
 10
197.318679
 20
146.542120
 42
0.010758
  0
VERTEX
  8
0
 10
197.079541
 20
142.448665
 42
0.009210
  0
VERTEX
  8
0
 10
197.000000
 20
138.130681
 42
0.006030
  0
VERTEX
  8
0
 10
197.080054
 20
131.492976
 42
0.041706
  0
VERTEX
  8
0
 10
197.428990
 20
128.259107
 42
0.065893
  0
VERTEX
  8
0
 10
198.260553
 20
125.770187
 42
0.027790
  0
VERTEX
  8
0
 10
199.983806
 20
122.686588
 42
0.069800
  0
VERTEX
  8
0
 10
204.686042
 20
117.155150
 42
0.051836
  0
VERTEX
  8
0
 10
211.205601
 20
112.468264
 42
0.052113
  0
VERTEX
  8
0
 10
218.503274
 20
109.247897
 42
0.073169
  0
VERTEX
  8
0
 10
225.515870
 20
108.077504
 42
-0.051747
  0
VERTEX
  8
0
 10
227.731122
 20
107.804321
 42
-0.033274
  0
VERTEX
  8
0
 10
230.211954
 20
107.056912
 42
-0.027284
  0
VERTEX
  8
0
 10
233.052553
 20
105.809775
 42
-0.015148
  0
VERTEX
  8
0
 10
236.376761
 20
104.000000
 42
0.008468
  0
VERTEX
  8
0
 10
239.103408
 20
102.467986
 42
0.011281
  0
VERTEX
  8
0
 10
241.633696
 20
101.175000
 42
0.008683
  0
VERTEX
  8
0
 10
243.775065
 20
100.186476
 42
0.104154
  0
VERTEX
  8
0
 10
244.660551
 20
100.000000
 42
-0.067698
  0
VERTEX
  8
0
 10
245.415565
 20
99.897304
 42
-0.017415
  0
VERTEX
  8
0
 10
246.591990
 20
99.526676
 42
-0.017404
  0
VERTEX
  8
0
 10
247.916767
 20
99.005462
 42
-0.016904
  0
VERTEX
  8
0
 10
249.215263
 20
98.388683
 42
0.128636
  0
VERTEX
  8
0
 10
254.344028
 20
97.234345
 42
0.054995
  0
VERTEX
  8
0
 10
261.352232
 20
98.253160
 42
0.050970
  0
VERTEX
  8
0
 10
268.768471
 20
101.011621
 42
0.055824
  0
VERTEX
  8
0
 10
275.231365
 20
105.149363
 42
-0.090424
  0
VERTEX
  8
0
 10
278.147225
 20
106.744775
 42
-0.036167
  0
VERTEX
  8
0
 10
282.576137
 20
107.866196
 42
-0.019649
  0
VERTEX
  8
0
 10
289.641296
 20
108.835874
 42
-0.003790
  0
VERTEX
  8
0
 10
302.500000
 20
109.990086
 42
0.003914
  0
VERTEX
  8
0
 10
307.460938
 20
110.436627
 42
0.003845
  0
VERTEX
  8
0
 10
312.443750
 20
110.963211
 42
0.003784
  0
VERTEX
  8
0
 10
316.805189
 20
111.491537
 42
0.014593
  0
VERTEX
  8
0
 10
319.500000
 20
111.918962
 42
-0.010213
  0
VERTEX
  8
0
 10
321.923259
 20
112.325104
 42
-0.004466
  0
VERTEX
  8
0
 10
325.151508
 20
112.769176
 42
-0.004418
  0
VERTEX
  8
0
 10
328.588642
 20
113.179898
 42
-0.005889
  0
VERTEX
  8
0
 10
331.717901
 20
113.488560
 42
0.000000
  0
VERTEX
  8
0
 10
338.935802
 20
114.114778
 42
0.000000
  0
VERTEX
  8
0
 10
341.048762
 20
109.307389
 42
0.003650
  0
VERTEX
  8
0
 10
341.923097
 20
107.356888
 42
0.003958
  0
VERTEX
  8
0
 10
342.802916
 20
105.471545
 42
0.003728
  0
VERTEX
  8
0
 10
343.581635
 20
103.867659
 42
0.019199
  0
VERTEX
  8
0
 10
344.053215
 20
103.000000
 42
-0.008663
  0
VERTEX
  8
0
 10
344.501872
 20
102.214425
 42
-0.002671
  0
VERTEX
  8
0
 10
345.151066
 20
101.015403
 42
-0.002671
  0
VERTEX
  8
0
 10
345.863041
 20
99.666194
 42
-0.002930
  0
VERTEX
  8
0
 10
346.538696
 20
98.350308
 42
0.133201
  0
VERTEX
  8
0
 10
353.559801
 20
90.557324
 42
0.068221
  0
VERTEX
  8
0
 10
365.572511
 20
84.954988
 42
0.067099
  0
VERTEX
  8
0
 10
378.936494
 20
82.713850
 42
0.113764
  0
VERTEX
  8
0
 10
390.013673
 20
84.894759
 42
0.059404
  0
VERTEX
  8
0
 10
394.687329
 20
87.693862
 42
0.036237
  0
VERTEX
  8
0
 10
399.483702
 20
91.992522
 42
0.035482
  0
VERTEX
  8
0
 10
403.755839
 20
97.098788
 42
0.045954
  0
VERTEX
  8
0
 10
406.861988
 20
102.352905
 42
-0.018546
  0
VERTEX
  8
0
 10
409.780175
 20
107.969797
 42
-0.112046
  0
VERTEX
  8
0
 10
411.979176
 20
110.380987
 42
-0.154274
  0
VERTEX
  8
0
 10
414.657275
 20
111.215571
 42
-0.045204
  0
VERTEX
  8
0
 10
419.000000
 20
110.804453
 42
0.043089
  0
VERTEX
  8
0
 10
425.148806
 20
110.196155
 42
0.020197
  0
VERTEX
  8
0
 10
433.147131
 20
110.419407
 42
0.019437
  0
VERTEX
  8
0
 10
440.844765
 20
111.247490
 42
0.066199
  0
VERTEX
  8
0
 10
445.683274
 20
112.629606
 42
0.014586
  0
VERTEX
  8
0
 10
452.498168
 20
115.834726
 42
0.029097
  0
VERTEX
  8
0
 10
457.647147
 20
118.830635
 42
0.029768
  0
VERTEX
  8
0
 10
462.338642
 20
122.357748
 42
0.016037
  0
VERTEX
  8
0
 10
467.700735
 20
127.217054
 42
-0.017430
  0
VERTEX
  8
0
 10
474.018768
 20
132.910697
 42
-0.115673
  0
VERTEX
  8
0
 10
477.779789
 20
134.813058
 42
-0.222336
  0
VERTEX
  8
0
 10
480.745668
 20
134.213106
 42
-0.085755
  0
VERTEX
  8
0
 10
483.717699
 20
131.102117
 42
-0.047942
  0
VERTEX
  8
0
 10
484.942891
 20
128.836078
 42
-0.058848
  0
VERTEX
  8
0
 10
485.612557
 20
126.527119
 42
-0.034628
  0
VERTEX
  8
0
 10
485.922218
 20
123.294309
 42
-0.006567
  0
VERTEX
  8
0
 10
486.000000
 20
117.372353
 42
-0.019866
  0
VERTEX
  8
0
 10
485.698963
 20
109.798684
 42
-0.044632
  0
VERTEX
  8
0
 10
484.734376
 20
104.133865
 42
-0.057378
  0
VERTEX
  8
0
 10
482.998651
 20
99.691686
 42
-0.064245
  0
VERTEX
  8
0
 10
480.348382
 20
95.943325
 42
-0.076966
  0
VERTEX
  8
0
 10
476.796560
 20
93.109595
 42
-0.011486
  0
VERTEX
  8
0
 10
468.734896
 20
88.738804
 42
-0.013686
  0
VERTEX
  8
0
 10
460.225506
 20
84.665274
 42
-0.035793
  0
VERTEX
  8
0
 10
453.856539
 20
82.358121
 42
-0.013088
  0
VERTEX
  8
0
 10
439.922396
 20
78.802884
 42
-0.008495
  0
VERTEX
  8
0
 10
423.650365
 20
75.391543
 42
-0.007543
  0
VERTEX
  8
0
 10
408.502030
 20
72.719817
 42
-0.038664
  0
VERTEX
  8
0
 10
400.000000
 20
72.019367
 42
0.020989
  0
VERTEX
  8
0
 10
397.700352
 20
71.911472
 42
0.006873
  0
VERTEX
  8
0
 10
394.325000
 20
71.563936
 42
0.006834
  0
VERTEX
  8
0
 10
390.584305
 20
71.074834
 42
0.007670
  0
VERTEX
  8
0
 10
387.000000
 20
70.500000
 42
-0.009513
  0
VERTEX
  8
0
 10
383.337971
 20
69.926542
 42
-0.007542
  0
VERTEX
  8
0
 10
379.361762
 20
69.442154
 42
-0.007635
  0
VERTEX
  8
0
 10
375.659225
 20
69.104777
 42
-0.018841
  0
VERTEX
  8
0
 10
372.933659
 20
69.001367
 42
0.013232
  0
VERTEX
  8
0
 10
370.408860
 20
68.933917
 42
0.007862
  0
VERTEX
  8
0
 10
367.406294
 20
68.726728
 42
0.007865
  0
VERTEX
  8
0
 10
364.416804
 20
68.425731
 42
0.013434
  0
VERTEX
  8
0
 10
361.933659
 20
68.068347
 42
-0.019250
  0
VERTEX
  8
0
 10
358.910355
 20
67.669048
 42
-0.004231
  0
VERTEX
  8
0
 10
353.689887
 20
67.227625
 42
-0.004397
  0
VERTEX
  8
0
 10
347.641225
 20
66.821156
 42
-0.004214
  0
VERTEX
  8
0
 10
341.500000
 20
66.514595
 42
0.002023
  0
VERTEX
  8
0
 10
334.775763
 20
66.208465
 42
0.001282
  0
VERTEX
  8
0
 10
326.940625
 20
65.799856
 42
0.001287
  0
VERTEX
  8
0
 10
319.247954
 20
65.359038
 42
0.002379
  0
VERTEX
  8
0
 10
313.000000
 20
64.955027
 42
-0.011586
  0
VERTEX
  8
0
 10
305.079503
 20
64.589153
 42
-0.001854
  0
VERTEX
  8
0
 10
289.585938
 20
64.290361
 42
-0.002051
  0
VERTEX
  8
0
 10
271.329889
 20
64.080886
 42
-0.001797
  0
VERTEX
  8
0
 10
252.250000
 20
64.008779
 42
0.000000
  0
VERTEX
  8
0
 10
205.000000
 20
64.000000
 42
0.000000
  0
VERTEX
  8
0
 10
204.975554
 20
67.750000
 42
0.019095
  0
VERTEX
  8
0
 10
204.897965
 20
69.484440
 42
0.010219
  0
VERTEX
  8
0
 10
204.676720
 20
71.618034
 42
0.010160
  0
VERTEX
  8
0
 10
204.361699
 20
73.789283
 42
0.015625
  0
VERTEX
  8
0
 10
203.992577
 20
75.651817
 42
-0.014266
  0
VERTEX
  8
0
 10
203.562876
 20
77.789553
 42
-0.004684
  0
VERTEX
  8
0
 10
203.049955
 20
80.958549
 42
-0.004662
  0
VERTEX
  8
0
 10
202.546222
 20
84.487806
 42
-0.005258
  0
VERTEX
  8
0
 10
202.129674
 20
87.887076
 42
0.074123
  0
VERTEX
  8
0
 10
198.597004
 20
101.199356
 42
0.061332
  0
VERTEX
  8
0
 10
191.174196
 20
113.871685
 42
0.059615
  0
VERTEX
  8
0
 10
180.650122
 20
124.692986
 42
0.061989
  0
VERTEX
  8
0
 10
168.000000
 20
132.560906
 42
0.037979
  0
VERTEX
  8
0
 10
156.257292
 20
136.936326
 42
0.030844
  0
VERTEX
  8
0
 10
143.141766
 20
139.856561
 42
0.031792
  0
VERTEX
  8
0
 10
130.762290
 20
141.021796
 42
0.073319
  0
VERTEX
  8
0
 10
121.500000
 20
139.941680
 42
-0.001667
  0
VERTEX
  8
0
 10
119.713834
 20
139.468180
 42
-0.001084
  0
VERTEX
  8
0
 10
117.646875
 20
138.932397
 42
-0.001089
  0
VERTEX
  8
0
 10
115.627194
 20
138.418226
 42
-0.002073
  0
VERTEX
  8
0
 10
114.000000
 20
138.014917
 42
0.012802
  0
VERTEX
  8
0
 10
109.697320
 20
136.849945
 42
0.009937
  0
VERTEX
  8
0
 10
105.076826
 20
135.370431
 42
0.009316
  0
VERTEX
  8
0
 10
100.198411
 20
133.598543
 42
0.007930
  0
VERTEX
  8
0
 10
95.118169
 20
131.552417
 42
-0.020728
  0
VERTEX
  8
0
 10
90.427061
 20
129.801141
 42
-0.145877
  0
VERTEX
  8
0
 10
88.017126
 20
129.738141
 42
-0.361331
  0
VERTEX
  8
0
 10
87.161629
 20
130.952436
 42
-0.087173
  0
VERTEX
  8
0
 10
87.827126
 20
133.519927
 42
0.030286
  0
VERTEX
  8
0
 10
88.276521
 20
134.689059
 42
0.020020
  0
VERTEX
  8
0
 10
88.655468
 20
136.077806
 42
0.020168
  0
VERTEX
  8
0
 10
88.916057
 20
137.462473
 42
0.036438
  0
VERTEX
  8
0
 10
89.000000
 20
138.612794
 42
-0.031981
  0
VERTEX
  8
0
 10
89.070158
 20
139.708548
 42
-0.022841
  0
VERTEX
  8
0
 10
89.282433
 20
140.919348
 42
-0.023178
  0
VERTEX
  8
0
 10
89.592525
 20
142.059390
 42
-0.044899
  0
VERTEX
  8
0
 10
89.961473
 20
142.928012
 42
0.037327
  0
VERTEX
  8
0
 10
90.369837
 20
143.850423
 42
0.014120
  0
VERTEX
  8
0
 10
90.805373
 20
145.191956
 42
0.013894
  0
VERTEX
  8
0
 10
91.198799
 20
146.683520
 42
0.016485
  0
VERTEX
  8
0
 10
91.484169
 20
148.112270
 42
-0.011077
  0
VERTEX
  8
0
 10
91.763106
 20
149.591946
 42
-0.007853
  0
VERTEX
  8
0
 10
92.138712
 20
151.239229
 42
-0.007931
  0
VERTEX
  8
0
 10
92.547287
 20
152.801796
 42
-0.016615
  0
VERTEX
  8
0
 10
92.924298
 20
154.000000
 42
0.007580
  0
VERTEX
  8
0
 10
93.436293
 20
155.530089
 42
0.000959
  0
VERTEX
  8
0
 10
94.484496
 20
158.850000
 42
0.001126
  0
VERTEX
  8
0
 10
95.712461
 20
162.796510
 42
0.000935
  0
VERTEX
  8
0
 10
97.001402
 20
167.000000
 42
-0.021567
  0
VERTEX
  8
0
 10
100.397498
 20
176.637688
 42
-0.014628
  0
VERTEX
  8
0
 10
105.049874
 20
187.307629
 42
-0.013486
  0
VERTEX
  8
0
 10
109.878127
 20
196.874257
 42
-0.060372
  0
VERTEX
  8
0
 10
113.493768
 20
201.993114
 42
-0.059732
  0
VERTEX
  8
0
 10
115.166776
 20
203.448392
 42
-0.161237
  0
VERTEX
  8
0
 10
116.662654
 20
203.873465
 42
-0.128949
  0
VERTEX
  8
0
 10
118.336664
 20
203.356844
 42
-0.032594
  0
SEQEND
  0
POLYLINE
  8
0
 66
1
 70
1
  0
VERTEX
  8
0
 10
496.962352
 20
174.191494
 42
-0.048404
  0
VERTEX
  8
0
 10
498.252253
 20
172.624359
 42
-0.035495
  0
VERTEX
  8
0
 10
499.373626
 20
170.670249
 42
-0.032255
  0
VERTEX
  8
0
 10
500.305020
 20
168.375232
 42
-0.025224
  0
VERTEX
  8
0
 10
501.023938
 20
165.783639
 42
-0.012839
  0
VERTEX
  8
0
 10
501.696049
 20
162.371483
 42
-0.068810
  0
VERTEX
  8
0
 10
501.755428
 20
160.481381
 42
-0.085960
  0
VERTEX
  8
0
 10
501.288626
 20
158.842587
 42
-0.026151
  0
VERTEX
  8
0
 10
500.043717
 20
156.570736
 42
-0.048437
  0
VERTEX
  8
0
 10
497.341601
 20
153.019030
 42
-0.053466
  0
VERTEX
  8
0
 10
494.087017
 20
150.182952
 42
-0.058292
  0
VERTEX
  8
0
 10
490.603691
 20
148.309248
 42
-0.086981
  0
VERTEX
  8
0
 10
487.224411
 20
147.611793
 42
0.000000
  0
VERTEX
  8
0
 10
483.500000
 20
147.500000
 42
0.000000
  0
VERTEX
  8
0
 10
483.590609
 20
153.000000
 42
-0.027267
  0
VERTEX
  8
0
 10
484.055656
 20
159.539566
 42
-0.016795
  0
VERTEX
  8
0
 10
485.278421
 20
167.160055
 42
-0.009952
  0
VERTEX
  8
0
 10
486.817263
 20
174.289167
 42
-0.195929
  0
VERTEX
  8
0
 10
488.093539
 20
176.078972
 42
-0.100865
  0
VERTEX
  8
0
 10
490.171435
 20
176.869029
 42
-0.093265
  0
VERTEX
  8
0
 10
492.454569
 20
176.814903
 42
-0.083115
  0
VERTEX
  8
0
 10
494.777517
 20
175.899073
 42
-0.061077
  0
SEQEND
  0
POLYLINE
  8
0
 66
1
 70
1
  0
VERTEX
  8
0
 10
219.896203
 20
139.629374
 42
0.000000
  0
VERTEX
  8
0
 10
225.307677
 20
137.453984
 42
0.000000
  0
VERTEX
  8
0
 10
225.689609
 20
129.476992
 42
0.000516
  0
VERTEX
  8
0
 10
225.851549
 20
126.166271
 42
0.000498
  0
VERTEX
  8
0
 10
226.022278
 20
122.815116
 42
0.000492
  0
VERTEX
  8
0
 10
226.178527
 20
119.863115
 42
0.001817
  0
VERTEX
  8
0
 10
226.285770
 20
118.000000
 42
-0.017185
  0
VERTEX
  8
0
 10
226.344287
 20
115.814195
 42
-0.191876
  0
VERTEX
  8
0
 10
226.022027
 20
115.022904
 42
-0.207781
  0
VERTEX
  8
0
 10
225.258017
 20
114.704224
 42
-0.020511
  0
VERTEX
  8
0
 10
223.224906
 20
114.817331
 42
-0.065380
  0
VERTEX
  8
0
 10
217.924913
 20
116.042452
 42
-0.057775
  0
VERTEX
  8
0
 10
212.876276
 20
118.627102
 42
-0.057067
  0
VERTEX
  8
0
 10
208.496043
 20
122.335992
 42
-0.060489
  0
VERTEX
  8
0
 10
205.165120
 20
126.872346
 42
-0.076085
  0
VERTEX
  8
0
 10
203.915621
 20
130.185376
 42
-0.033349
  0
VERTEX
  8
0
 10
203.249413
 20
134.842066
 42
-0.030475
  0
VERTEX
  8
0
 10
203.184505
 20
139.319517
 42
-0.162993
  0
VERTEX
  8
0
 10
204.054724
 20
141.565938
 42
-0.199550
  0
VERTEX
  8
0
 10
206.019982
 20
142.599454
 42
-0.053016
  0
VERTEX
  8
0
 10
209.635422
 20
142.542648
 42
-0.041765
  0
VERTEX
  8
0
 10
214.356702
 20
141.560379
 42
-0.023409
  0
SEQEND
  0
POLYLINE
  8
0
 66
1
 70
1
  0
VERTEX
  8
0
 10
156.418545
 20
129.550336
 42
-0.077417
  0
VERTEX
  8
0
 10
170.930594
 20
123.060012
 42
-0.068509
  0
VERTEX
  8
0
 10
183.477033
 20
112.234827
 42
-0.072192
  0
VERTEX
  8
0
 10
192.063888
 20
99.070396
 42
-0.108887
  0
VERTEX
  8
0
 10
195.000000
 20
85.747895
 42
-0.081349
  0
VERTEX
  8
0
 10
194.158949
 20
80.612682
 42
-0.109579
  0
VERTEX
  8
0
 10
191.732733
 20
76.592232
 42
-0.086907
  0
VERTEX
  8
0
 10
187.346787
 20
73.352769
 42
-0.035900
  0
VERTEX
  8
0
 10
180.500000
 20
70.530207
 42
-0.048520
  0
VERTEX
  8
0
 10
165.393554
 20
67.115822
 42
-0.024602
  0
VERTEX
  8
0
 10
145.936727
 20
65.631726
 42
-0.024040
  0
VERTEX
  8
0
 10
125.356363
 20
66.066771
 42
-0.031010
  0
VERTEX
  8
0
 10
106.616695
 20
68.539733
 42
-0.007431
  0
VERTEX
  8
0
 10
100.460920
 20
69.839366
 42
-0.020669
  0
VERTEX
  8
0
 10
96.195529
 20
70.993548
 42
-0.020226
  0
VERTEX
  8
0
 10
91.989317
 20
72.510098
 42
-0.006864
  0
VERTEX
  8
0
 10
86.000000
 20
75.043863
 42
-0.023723
  0
VERTEX
  8
0
 10
79.391008
 20
78.329641
 42
-0.063735
  0
VERTEX
  8
0
 10
75.175133
 20
81.443158
 42
-0.092922
  0
VERTEX
  8
0
 10
72.823816
 20
84.722361
 42
-0.109317
  0
VERTEX
  8
0
 10
71.995054
 20
88.446167
 42
-0.042544
  0
VERTEX
  8
0
 10
72.240586
 20
91.368673
 42
-0.017782
  0
VERTEX
  8
0
 10
73.043661
 20
95.242442
 42
-0.017066
  0
VERTEX
  8
0
 10
74.228351
 20
99.455694
 42
-0.018038
  0
VERTEX
  8
0
 10
75.678592
 20
103.500000
 42
-0.084199
  0
VERTEX
  8
0
 10
80.437099
 20
111.289638
 42
-0.046596
  0
VERTEX
  8
0
 10
88.528215
 20
118.999788
 42
-0.045035
  0
VERTEX
  8
0
 10
98.381643
 20
125.429568
 42
-0.056945
  0
VERTEX
  8
0
 10
108.500000
 20
129.405227
 42
-0.039702
  0
VERTEX
  8
0
 10
119.533133
 20
131.427224
 42
-0.024721
  0
VERTEX
  8
0
 10
132.674703
 20
132.117269
 42
-0.024793
  0
VERTEX
  8
0
 10
145.715818
 20
131.509798
 42
-0.042502
  0
SEQEND
  0
POLYLINE
  8
0
 66
1
 70
1
  0
VERTEX
  8
0
 10
338.000000
 20
125.344054
 42
-0.112667
  0
VERTEX
  8
0
 10
337.394403
 20
122.690605
 42
-0.166536
  0
VERTEX
  8
0
 10
335.731991
 20
121.006163
 42
-0.077216
  0
VERTEX
  8
0
 10
332.330931
 20
119.924908
 42
-0.011783
  0
VERTEX
  8
0
 10
325.255490
 20
118.999009
 42
0.004707
  0
VERTEX
  8
0
 10
321.253114
 20
118.532760
 42
0.002689
  0
VERTEX
  8
0
 10
316.428175
 20
117.898219
 42
0.002685
  0
VERTEX
  8
0
 10
311.580413
 20
117.207591
 42
0.004453
  0
VERTEX
  8
0
 10
307.500000
 20
116.566722
 42
-0.009250
  0
VERTEX
  8
0
 10
303.591789
 20
115.991257
 42
-0.007018
  0
VERTEX
  8
0
 10
299.287382
 20
115.499903
 42
-0.007101
  0
VERTEX
  8
0
 10
295.234250
 20
115.152837
 42
-0.016403
  0
VERTEX
  8
0
 10
292.180449
 20
115.035467
 42
-0.006563
  0
VERTEX
  8
0
 10
288.334551
 20
115.064364
 42
-0.077823
  0
VERTEX
  8
0
 10
286.870592
 20
115.324673
 42
-0.239546
  0
VERTEX
  8
0
 10
286.265687
 20
115.949425
 42
-0.112998
  0
VERTEX
  8
0
 10
286.180449
 20
117.099375
 42
-0.110943
  0
VERTEX
  8
0
 10
286.574734
 20
118.109829
 42
-0.069507
  0
VERTEX
  8
0
 10
287.426406
 20
119.058054
 42
-0.053996
  0
VERTEX
  8
0
 10
288.733066
 20
119.937321
 42
-0.029215
  0
VERTEX
  8
0
 10
290.500000
 20
120.739162
 42
-0.026417
  0
VERTEX
  8
0
 10
293.488315
 20
121.712162
 42
-0.027077
  0
VERTEX
  8
0
 10
296.538201
 20
122.355253
 42
-0.015836
  0
VERTEX
  8
0
 10
300.787736
 20
122.876301
 42
-0.003065
  0
VERTEX
  8
0
 10
308.500000
 20
123.527256
 42
0.033141
  0
VERTEX
  8
0
 10
313.724080
 20
124.286549
 42
0.016334
  0
VERTEX
  8
0
 10
320.240634
 20
125.903778
 42
0.016315
  0
VERTEX
  8
0
 10
326.751796
 20
127.979084
 42
0.028058
  0
VERTEX
  8
0
 10
332.000000
 20
130.181175
 42
-0.011879
  0
VERTEX
  8
0
 10
334.121713
 20
131.153265
 42
-0.098045
  0
VERTEX
  8
0
 10
335.154635
 20
131.373855
 42
-0.175982
  0
VERTEX
  8
0
 10
335.916707
 20
131.109874
 42
-0.059073
  0
VERTEX
  8
0
 10
336.750000
 20
130.252110
 42
-0.071035
  0
VERTEX
  8
0
 10
337.230353
 20
129.395542
 42
-0.029978
  0
VERTEX
  8
0
 10
337.632812
 20
128.136191
 42
-0.028910
  0
VERTEX
  8
0
 10
337.908009
 20
126.717335
 42
-0.033456
  0
SEQEND
  0
POLYLINE
  8
0
 66
1
 70
1
  0
VERTEX
  8
0
 10
437.500000
 20
67.486305
 42
-0.243021
  0
VERTEX
  8
0
 10
436.208689
 20
64.986422
 42
-0.051353
  0
VERTEX
  8
0
 10
431.796953
 20
62.492067
 42
-0.048284
  0
VERTEX
  8
0
 10
426.088072
 20
60.628838
 42
-0.054800
  0
VERTEX
  8
0
 10
420.367738
 20
60.000000
 42
-0.027568
  0
VERTEX
  8
0
 10
416.258412
 20
60.226741
 42
-0.035197
  0
VERTEX
  8
0
 10
412.528086
 20
60.907889
 42
-0.035860
  0
VERTEX
  8
0
 10
409.700888
 20
61.853153
 42
-0.309998
  0
VERTEX
  8
0
 10
409.015313
 20
62.910515
 42
-0.210339
  0
VERTEX
  8
0
 10
409.655537
 20
64.268306
 42
-0.093855
  0
VERTEX
  8
0
 10
411.398250
 20
65.285640
 42
-0.045890
  0
VERTEX
  8
0
 10
414.596037
 20
66.100527
 42
-0.010354
  0
VERTEX
  8
0
 10
420.159356
 20
66.868047
 42
0.006306
  0
VERTEX
  8
0
 10
424.029230
 20
67.370045
 42
0.007488
  0
VERTEX
  8
0
 10
427.668841
 20
67.944663
 42
0.006605
  0
VERTEX
  8
0
 10
430.719563
 20
68.514856
 42
0.046915
  0
VERTEX
  8
0
 10
432.159356
 20
68.947244
 42
-0.044724
  0
VERTEX
  8
0
 10
434.417591
 20
69.636204
 42
-0.118994
  0
VERTEX
  8
0
 10
436.091197
 20
69.585740
 42
-0.187021
  0
VERTEX
  8
0
 10
437.109838
 20
68.832389
 42
-0.142002
  0
SEQEND
  0
POLYLINE
  8
0
 66
1
 70
1
  0
VERTEX
  8
0
 10
139.500000
 20
57.500000
 42
0.004434
  0
VERTEX
  8
0
 10
146.011858
 20
57.557749
 42
0.004810
  0
VERTEX
  8
0
 10
152.347266
 20
57.731104
 42
0.004536
  0
VERTEX
  8
0
 10
157.771879
 20
57.981070
 42
0.023291
  0
VERTEX
  8
0
 10
160.767288
 20
58.286736
 42
-0.037911
  0
VERTEX
  8
0
 10
165.114713
 20
58.602398
 42
-0.316597
  0
VERTEX
  8
0
 10
166.636874
 20
57.523669
 42
-0.228554
  0
VERTEX
  8
0
 10
166.399657
 20
55.342832
 42
-0.023451
  0
VERTEX
  8
0
 10
163.368867
 20
50.956451
 42
-0.115832
  0
VERTEX
  8
0
 10
154.417356
 20
43.588939
 42
-0.089960
  0
VERTEX
  8
0
 10
142.251468
 20
40.109501
 42
-0.089508
  0
VERTEX
  8
0
 10
129.582252
 20
41.117726
 42
-0.112975
  0
VERTEX
  8
0
 10
119.196928
 20
46.563432
 42
-0.032865
  0
VERTEX
  8
0
 10
116.049850
 20
49.637431
 42
-0.046258
  0
VERTEX
  8
0
 10
113.711274
 20
52.785031
 42
-0.055281
  0
VERTEX
  8
0
 10
112.389975
 20
55.620385
 42
-0.174758
  0
VERTEX
  8
0
 10
112.432038
 20
57.683491
 42
-0.153063
  0
VERTEX
  8
0
 10
112.993198
 20
58.391541
 42
-0.121599
  0
VERTEX
  8
0
 10
113.912689
 20
58.732235
 42
-0.057208
  0
VERTEX
  8
0
 10
115.460921
 20
58.729973
 42
-0.010909
  0
VERTEX
  8
0
 10
118.254392
 20
58.343234
 42
0.025066
  0
VERTEX
  8
0
 10
121.240930
 20
58.015606
 42
0.004868
  0
VERTEX
  8
0
 10
126.659103
 20
57.747700
 42
0.005164
  0
VERTEX
  8
0
 10
132.989733
 20
57.561896
 42
0.004754
  0
SEQEND
  0
POLYLINE
  8
0
 66
1
 70
1
  0
VERTEX
  8
0
 10
589.500000
 20
218.645054
 42
0.111929
  0
VERTEX
  8
0
 10
585.708870
 20
216.501133
 42
0.334456
  0
VERTEX
  8
0
 10
585.186334
 20
213.749590
 42
0.236827
  0
VERTEX
  8
0
 10
587.932018
 20
211.671562
 42
0.085543
  0
VERTEX
  8
0
 10
592.966384
 20
211.610615
 42
0.018958
  0
VERTEX
  8
0
 10
595.458358
 20
212.106627
 42
0.153054
  0
VERTEX
  8
0
 10
596.447935
 20
212.697309
 42
0.161774
  0
VERTEX
  8
0
 10
596.895265
 20
213.731795
 42
0.021846
  0
VERTEX
  8
0
 10
597.000000
 20
216.127808
 42
0.050465
  0
VERTEX
  8
0
 10
596.734757
 20
218.749125
 42
0.267438
  0
VERTEX
  8
0
 10
595.815365
 20
219.788265
 42
0.141966
  0
VERTEX
  8
0
 10
593.977676
 20
219.865071
 42
0.012867
  0
SEQEND
  0
POLYLINE
  8
0
 66
1
 70
1
  0
VERTEX
  8
0
 10
40.500000
 20
147.456638
 42
-0.006330
  0
VERTEX
  8
0
 10
36.962364
 20
146.835849
 42
-0.002242
  0
VERTEX
  8
0
 10
31.884375
 20
146.034239
 42
-0.002225
  0
VERTEX
  8
0
 10
26.298910
 20
145.203598
 42
-0.002616
  0
VERTEX
  8
0
 10
21.000000
 20
144.467944
 42
0.001474
  0
VERTEX
  8
0
 10
6.229462
 20
142.451716
 42
0.043723
  0
VERTEX
  8
0
 10
2.550752
 20
141.605862
 42
0.193712
  0
VERTEX
  8
0
 10
0.939719
 20
140.259669
 42
0.102577
  0
VERTEX
  8
0
 10
0.189635
 20
137.723827
 42
0.020332
  0
VERTEX
  8
0
 10
0.129025
 20
136.298418
 42
0.034116
  0
VERTEX
  8
0
 10
0.208484
 20
135.102944
 42
0.038792
  0
VERTEX
  8
0
 10
0.393721
 20
134.242813
 42
0.342306
  0
VERTEX
  8
0
 10
0.689635
 20
134.030876
 42
0.025775
  0
VERTEX
  8
0
 10
3.632152
 20
134.295296
 42
0.000872
  0
VERTEX
  8
0
 10
15.152840
 20
135.952960
 42
0.001489
  0
VERTEX
  8
0
 10
29.714379
 20
138.118405
 42
0.000734
  0
VERTEX
  8
0
 10
48.214472
 20
140.953680
 42
0.010054
  0
VERTEX
  8
0
 10
52.563142
 20
141.716502
 42
0.067900
  0
VERTEX
  8
0
 10
54.627740
 20
142.422172
 42
0.154036
  0
VERTEX
  8
0
 10
55.630661
 20
143.395855
 42
0.124264
  0
VERTEX
  8
0
 10
56.000000
 20
144.859017
 42
0.177296
  0
VERTEX
  8
0
 10
55.093644
 20
147.334726
 42
0.177546
  0
VERTEX
  8
0
 10
52.803626
 20
148.638238
 42
0.074102
  0
VERTEX
  8
0
 10
48.410617
 20
148.717812
 42
0.014139
  0
SEQEND
  0
POLYLINE
  8
0
 66
1
 70
1
  0
VERTEX
  8
0
 10
393.500000
 20
482.597521
 42
0.024172
  0
VERTEX
  8
0
 10
389.712010
 20
480.994130
 42
0.032950
  0
VERTEX
  8
0
 10
386.484781
 20
479.169297
 42
0.034813
  0
VERTEX
  8
0
 10
383.666166
 20
477.026125
 42
0.032653
  0
VERTEX
  8
0
 10
381.107060
 20
474.469153
 42
0.062465
  0
VERTEX
  8
0
 10
378.831775
 20
471.112971
 42
0.193782
  0
VERTEX
  8
0
 10
378.595412
 20
468.439449
 42
0.092689
  0
VERTEX
  8
0
 10
380.309729
 20
465.142434
 42
0.008654
  0
VERTEX
  8
0
 10
386.104985
 20
458.000000
 42
-0.015652
  0
VERTEX
  8
0
 10
389.138361
 20
454.152665
 42
-0.015156
  0
VERTEX
  8
0
 10
391.959215
 20
450.082397
 42
-0.013192
  0
VERTEX
  8
0
 10
394.850021
 20
445.360459
 42
-0.007472
  0
VERTEX
  8
0
 10
398.112468
 20
439.500797
 42
0.080154
  0
VERTEX
  8
0
 10
400.159588
 20
436.824886
 42
0.130131
  0
VERTEX
  8
0
 10
402.658213
 20
435.463196
 42
0.116682
  0
VERTEX
  8
0
 10
405.707259
 20
435.439240
 42
0.057011
  0
VERTEX
  8
0
 10
409.396388
 20
436.737399
 42
0.058117
  0
VERTEX
  8
0
 10
416.126608
 20
441.035665
 42
0.071544
  0
VERTEX
  8
0
 10
421.164495
 20
446.514516
 42
0.075412
  0
VERTEX
  8
0
 10
424.267268
 20
452.935967
 42
0.075032
  0
VERTEX
  8
0
 10
425.333333
 20
460.000000
 42
0.076929
  0
VERTEX
  8
0
 10
424.233467
 20
467.106315
 42
0.076646
  0
VERTEX
  8
0
 10
421.036414
 20
473.557511
 42
0.077860
  0
VERTEX
  8
0
 10
416.099152
 20
478.664504
 42
0.083408
  0
VERTEX
  8
0
 10
409.945994
 20
481.871486
 42
0.039237
  0
VERTEX
  8
0
 10
405.823177
 20
482.861178
 42
0.028268
  0
VERTEX
  8
0
 10
401.113539
 20
483.336761
 42
0.028617
  0
VERTEX
  8
0
 10
396.676921
 20
483.278639
 42
0.070557
  0
SEQEND
  0
POLYLINE
  8
0
 66
1
 70
1
  0
VERTEX
  8
0
 10
154.422318
 20
392.581587
 42
0.048759
  0
VERTEX
  8
0
 10
153.013621
 20
391.797100
 42
0.020965
  0
VERTEX
  8
0
 10
151.295893
 20
390.498093
 42
0.020507
  0
VERTEX
  8
0
 10
149.568499
 20
388.950937
 42
0.025480
  0
VERTEX
  8
0
 10
148.101018
 20
387.370728
 42
0.022104
  0
VERTEX
  8
0
 10
146.294159
 20
385.010024
 42
0.076354
  0
VERTEX
  8
0
 10
145.447315
 20
383.286353
 42
0.074751
  0
VERTEX
  8
0
 10
145.147600
 20
381.368598
 42
0.020617
  0
VERTEX
  8
0
 10
145.255981
 20
378.310191
 42
0.080744
  0
VERTEX
  8
0
 10
146.771283
 20
372.058263
 42
0.086507
  0
VERTEX
  8
0
 10
150.169954
 20
366.773442
 42
0.093238
  0
VERTEX
  8
0
 10
154.905911
 20
363.241689
 42
0.114199
  0
VERTEX
  8
0
 10
160.271537
 20
362.000000
 42
0.065842
  0
VERTEX
  8
0
 10
161.501457
 20
362.162666
 42
0.016757
  0
VERTEX
  8
0
 10
163.429832
 20
362.751794
 42
0.016787
  0
VERTEX
  8
0
 10
165.605537
 20
363.579645
 42
0.016289
  0
VERTEX
  8
0
 10
167.743156
 20
364.559299
 42
0.024646
  0
VERTEX
  8
0
 10
170.401210
 20
366.051642
 42
0.051495
  0
VERTEX
  8
0
 10
172.268436
 20
367.512101
 42
0.055364
  0
VERTEX
  8
0
 10
173.713731
 20
369.250767
 42
0.033027
  0
VERTEX
  8
0
 10
175.044623
 20
371.592178
 42
0.158981
  0
VERTEX
  8
0
 10
176.285803
 20
380.694869
 42
0.150310
  0
VERTEX
  8
0
 10
171.971559
 20
389.018486
 42
0.148592
  0
VERTEX
  8
0
 10
163.677887
 20
393.540668
 42
0.154933
  0
SEQEND
  0
POLYLINE
  8
0
 66
1
 70
1
  0
VERTEX
  8
0
 10
201.441130
 20
370.561106
 42
0.048078
  0
VERTEX
  8
0
 10
200.341033
 20
369.568717
 42
0.201380
  0
VERTEX
  8
0
 10
200.047419
 20
368.747311
 42
0.099561
  0
VERTEX
  8
0
 10
200.337805
 20
367.622351
 42
0.007611
  0
VERTEX
  8
0
 10
201.752778
 20
364.811106
 42
-0.022200
  0
VERTEX
  8
0
 10
203.321540
 20
361.453916
 42
-0.079279
  0
VERTEX
  8
0
 10
203.870674
 20
359.155446
 42
-0.087523
  0
VERTEX
  8
0
 10
203.650456
 20
356.922658
 42
-0.030726
  0
VERTEX
  8
0
 10
202.589263
 20
353.867878
 42
0.047152
  0
VERTEX
  8
0
 10
200.900828
 20
348.439337
 42
0.023526
  0
VERTEX
  8
0
 10
199.751350
 20
341.328547
 42
0.022606
  0
VERTEX
  8
0
 10
199.281390
 20
334.430030
 42
0.078640
  0
VERTEX
  8
0
 10
199.877072
 20
330.015962
 42
0.108257
  0
VERTEX
  8
0
 10
203.933341
 20
322.709021
 42
0.150242
  0
VERTEX
  8
0
 10
210.277545
 20
318.818487
 42
0.166255
  0
VERTEX
  8
0
 10
217.226828
 20
319.359193
 42
0.137067
  0
VERTEX
  8
0
 10
223.039849
 20
324.055963
 42
0.074557
  0
VERTEX
  8
0
 10
224.957776
 20
327.832251
 42
0.027915
  0
VERTEX
  8
0
 10
226.519341
 20
333.579922
 42
0.026244
  0
VERTEX
  8
0
 10
227.582251
 20
340.294686
 42
0.024766
  0
VERTEX
  8
0
 10
227.963245
 20
347.215522
 42
-0.012333
  0
VERTEX
  8
0
 10
228.082424
 20
351.168818
 42
-0.061612
  0
VERTEX
  8
0
 10
228.474105
 20
353.347610
 42
-0.084023
  0
VERTEX
  8
0
 10
229.329253
 20
355.036981
 42
-0.034462
  0
VERTEX
  8
0
 10
231.000000
 20
357.000000
 42
0.022319
  0
VERTEX
  8
0
 10
232.148392
 20
358.284774
 42
0.025871
  0
VERTEX
  8
0
 10
233.118750
 20
359.607167
 42
0.026219
  0
VERTEX
  8
0
 10
233.812694
 20
360.794559
 42
0.119683
  0
VERTEX
  8
0
 10
234.000000
 20
361.565863
 42
0.188777
  0
VERTEX
  8
0
 10
233.459704
 20
362.945911
 42
0.170041
  0
VERTEX
  8
0
 10
232.098378
 20
363.667858
 42
0.111052
  0
VERTEX
  8
0
 10
230.061845
 20
363.524158
 42
0.060554
  0
VERTEX
  8
0
 10
227.755233
 20
362.514484
 42
0.000000
  0
VERTEX
  8
0
 10
224.733398
 20
360.729442
 42
0.000000
  0
VERTEX
  8
0
 10
221.220164
 20
364.453286
 42
0.018823
  0
VERTEX
  8
0
 10
219.353773
 20
366.288038
 42
0.062181
  0
VERTEX
  8
0
 10
217.947895
 20
367.281145
 42
0.094086
  0
VERTEX
  8
0
 10
216.688478
 20
367.675125
 42
0.090400
  0
VERTEX
  8
0
 10
215.353465
 20
367.588565
 42
-0.000460
  0
VERTEX
  8
0
 10
214.289241
 20
367.323460
 42
-0.000280
  0
VERTEX
  8
0
 10
213.030393
 20
367.011850
 42
-0.000280
  0
VERTEX
  8
0
 10
211.781351
 20
366.704152
 42
-0.000495
  0
VERTEX
  8
0
 10
210.750000
 20
366.451776
 42
-0.074517
  0
VERTEX
  8
0
 10
209.558857
 20
366.343995
 42
-0.127014
  0
VERTEX
  8
0
 10
208.613152
 20
366.648177
 42
-0.095041
  0
VERTEX
  8
0
 10
207.753776
 20
367.454213
 42
-0.029582
  0
VERTEX
  8
0
 10
206.796510
 20
368.951776
 42
0.026829
  0
VERTEX
  8
0
 10
205.457285
 20
371.072504
 42
0.167021
  0
VERTEX
  8
0
 10
204.428433
 20
371.811538
 42
0.195921
  0
VERTEX
  8
0
 10
203.257985
 20
371.699989
 42
0.039002
  0
SEQEND
  0
POLYLINE
  8
0
 66
1
 70
1
  0
VERTEX
  8
0
 10
218.235440
 20
357.832352
 42
0.000000
  0
VERTEX
  8
0
 10
221.279622
 20
355.664703
 42
0.000000
  0
VERTEX
  8
0
 10
220.650622
 20
346.582352
 42
-0.006428
  0
VERTEX
  8
0
 10
219.965853
 20
338.250226
 42
-0.028986
  0
VERTEX
  8
0
 10
219.222720
 20
333.425050
 42
-0.049830
  0
VERTEX
  8
0
 10
218.173832
 20
330.154502
 42
-0.065899
  0
VERTEX
  8
0
 10
216.563065
 20
327.476631
 42
-0.030018
  0
VERTEX
  8
0
 10
215.307837
 20
326.082887
 42
-0.092316
  0
VERTEX
  8
0
 10
214.259782
 20
325.375812
 42
-0.110442
  0
VERTEX
  8
0
 10
213.139809
 20
325.161104
 42
-0.053882
  0
VERTEX
  8
0
 10
211.691247
 20
325.362644
 42
-0.156802
  0
VERTEX
  8
0
 10
208.634869
 20
327.265986
 42
-0.108154
  0
VERTEX
  8
0
 10
206.711227
 20
330.896184
 42
-0.079801
  0
VERTEX
  8
0
 10
206.131177
 20
336.028309
 42
-0.045302
  0
VERTEX
  8
0
 10
206.988598
 20
342.235649
 42
0.005432
  0
VERTEX
  8
0
 10
207.404716
 20
344.123589
 42
0.003719
  0
VERTEX
  8
0
 10
207.837874
 20
346.275472
 42
0.003748
  0
VERTEX
  8
0
 10
208.224317
 20
348.355370
 42
0.007577
  0
VERTEX
  8
0
 10
208.491507
 20
350.000000
 42
-0.054979
  0
VERTEX
  8
0
 10
209.308890
 20
353.126059
 42
-0.036038
  0
VERTEX
  8
0
 10
210.888250
 20
356.501486
 42
-0.032136
  0
VERTEX
  8
0
 10
212.701137
 20
359.305510
 42
-0.237472
  0
VERTEX
  8
0
 10
214.080931
 20
360.000000
 42
-0.102786
  0
VERTEX
  8
0
 10
214.690603
 20
359.873330
 42
-0.017801
  0
VERTEX
  8
0
 10
215.759328
 20
359.363253
 42
-0.018699
  0
VERTEX
  8
0
 10
216.988539
 20
358.662233
 42
-0.015773
  0
SEQEND
  0
POLYLINE
  8
0
 66
1
 70
1
  0
VERTEX
  8
0
 10
268.299400
 20
364.101925
 42
0.094541
  0
VERTEX
  8
0
 10
263.458590
 20
358.961222
 42
0.122652
  0
VERTEX
  8
0
 10
261.412686
 20
352.844008
 42
0.121018
  0
VERTEX
  8
0
 10
262.463954
 20
346.419384
 42
0.090491
  0
VERTEX
  8
0
 10
266.431695
 20
340.409945
 42
0.015892
  0
VERTEX
  8
0
 10
269.067524
 20
337.828491
 42
0.076658
  0
VERTEX
  8
0
 10
270.805654
 20
336.664268
 42
0.086342
  0
VERTEX
  8
0
 10
272.715533
 20
336.146157
 42
0.023166
  0
VERTEX
  8
0
 10
275.868421
 20
336.000000
 42
0.051831
  0
VERTEX
  8
0
 10
280.679571
 20
336.500076
 42
0.068737
  0
VERTEX
  8
0
 10
284.817830
 20
337.984434
 42
0.073437
  0
VERTEX
  8
0
 10
288.192346
 20
340.435893
 42
0.071091
  0
VERTEX
  8
0
 10
290.757851
 20
343.782943
 42
0.046957
  0
VERTEX
  8
0
 10
292.301831
 20
347.257231
 42
0.074639
  0
VERTEX
  8
0
 10
292.868371
 20
350.455106
 42
0.072201
  0
VERTEX
  8
0
 10
292.477948
 20
353.753734
 42
0.041125
  0
VERTEX
  8
0
 10
291.120336
 20
357.541370
 42
0.053270
  0
VERTEX
  8
0
 10
288.645735
 20
361.737749
 42
0.080680
  0
VERTEX
  8
0
 10
285.610746
 20
364.683827
 42
0.085383
  0
VERTEX
  8
0
 10
281.936120
 20
366.410043
 42
0.067306
  0
VERTEX
  8
0
 10
277.573313
 20
367.000000
 42
0.024233
  0
VERTEX
  8
0
 10
274.718367
 20
366.861551
 42
0.051538
  0
VERTEX
  8
0
 10
272.553469
 20
366.422936
 42
0.053336
  0
VERTEX
  8
0
 10
270.570612
 20
365.562411
 42
0.027729
  0
SEQEND
  0
POLYLINE
  8
0
 66
1
 70
1
  0
VERTEX
  8
0
 10
432.241699
 20
347.388520
 42
0.045541
  0
VERTEX
  8
0
 10
430.785938
 20
346.478092
 42
0.021796
  0
VERTEX
  8
0
 10
429.088405
 20
345.067071
 42
0.021402
  0
VERTEX
  8
0
 10
427.431658
 20
343.428535
 42
0.028515
  0
VERTEX
  8
0
 10
426.082567
 20
341.797636
 42
0.048041
  0
VERTEX
  8
0
 10
424.315434
 20
338.836792
 42
0.117274
  0
VERTEX
  8
0
 10
423.792795
 20
336.367772
 42
0.091334
  0
VERTEX
  8
0
 10
424.384836
 20
333.549265
 42
0.022014
  0
VERTEX
  8
0
 10
426.396060
 20
329.200998
 42
0.125944
  0
VERTEX
  8
0
 10
430.605468
 20
324.476618
 42
0.142145
  0
VERTEX
  8
0
 10
436.378435
 20
322.627318
 42
0.132011
  0
VERTEX
  8
0
 10
442.576179
 20
324.110508
 42
0.102073
  0
VERTEX
  8
0
 10
447.905474
 20
328.606959
 42
0.197208
  0
VERTEX
  8
0
 10
449.941677
 20
335.766244
 42
0.146742
  0
VERTEX
  8
0
 10
446.679853
 20
343.401740
 42
0.145433
  0
VERTEX
  8
0
 10
439.726047
 20
348.025786
 42
0.193836
  0
SEQEND
  0
POLYLINE
  8
0
 66
1
 70
1
  0
VERTEX
  8
0
 10
143.000000
 20
250.388749
 42
0.034616
  0
VERTEX
  8
0
 10
136.379960
 20
247.332380
 42
0.059935
  0
VERTEX
  8
0
 10
131.459401
 20
243.808713
 42
0.070142
  0
VERTEX
  8
0
 10
128.044245
 20
239.667091
 42
0.071740
  0
VERTEX
  8
0
 10
125.939004
 20
234.773477
 42
0.101177
  0
VERTEX
  8
0
 10
125.404618
 20
226.076121
 42
0.118719
  0
VERTEX
  8
0
 10
128.436266
 20
218.411052
 42
0.107318
  0
VERTEX
  8
0
 10
134.942857
 20
212.421884
 42
0.071239
  0
VERTEX
  8
0
 10
144.369292
 20
208.569568
 42
0.029428
  0
VERTEX
  8
0
 10
149.730367
 20
207.555838
 42
0.056194
  0
VERTEX
  8
0
 10
154.107885
 20
207.486772
 42
0.058325
  0
VERTEX
  8
0
 10
158.282676
 20
208.389754
 42
0.034232
  0
VERTEX
  8
0
 10
163.000000
 20
210.372919
 42
0.071818
  0
VERTEX
  8
0
 10
167.089556
 20
213.229943
 42
0.080007
  0
VERTEX
  8
0
 10
170.030109
 20
217.034994
 42
0.074569
  0
VERTEX
  8
0
 10
171.766842
 20
221.801705
 42
0.052534
  0
VERTEX
  8
0
 10
172.312014
 20
227.489131
 42
0.059538
  0
VERTEX
  8
0
 10
171.495814
 20
233.813695
 42
0.073373
  0
VERTEX
  8
0
 10
169.216390
 20
239.300213
 42
0.070233
  0
VERTEX
  8
0
 10
165.353827
 20
244.072019
 42
0.049018
  0
VERTEX
  8
0
 10
159.842086
 20
248.280574
 42
0.088783
  0
VERTEX
  8
0
 10
156.884776
 20
249.451711
 42
0.018862
  0
VERTEX
  8
0
 10
151.397315
 20
250.349920
 42
0.018032
  0
VERTEX
  8
0
 10
145.876608
 20
250.839585
 42
0.104308
  0
SEQEND
  0
POLYLINE
  8
0
 66
1
 70
1
  0
VERTEX
  8
0
 10
154.733131
 20
243.486611
 42
-0.026993
  0
VERTEX
  8
0
 10
157.503828
 20
242.498259
 42
-0.061307
  0
VERTEX
  8
0
 10
159.431238
 20
241.397054
 42
-0.060475
  0
VERTEX
  8
0
 10
161.049780
 20
239.851472
 42
-0.025662
  0
VERTEX
  8
0
 10
162.835521
 20
237.434602
 42
-0.067097
  0
VERTEX
  8
0
 10
165.799383
 20
231.315039
 42
-0.099325
  0
VERTEX
  8
0
 10
166.505234
 20
225.413345
 42
-0.113846
  0
VERTEX
  8
0
 10
164.883557
 20
220.274476
 42
-0.110941
  0
VERTEX
  8
0
 10
161.163847
 20
216.308561
 42
-0.117864
  0
VERTEX
  8
0
 10
157.181152
 20
214.801286
 42
-0.038334
  0
VERTEX
  8
0
 10
150.855133
 20
214.481425
 42
-0.038756
  0
VERTEX
  8
0
 10
144.260793
 20
215.166948
 42
-0.073290
  0
VERTEX
  8
0
 10
139.210771
 20
216.881914
 42
-0.135191
  0
VERTEX
  8
0
 10
132.955579
 20
222.621617
 42
-0.167712
  0
VERTEX
  8
0
 10
131.185993
 20
230.273647
 42
-0.154415
  0
VERTEX
  8
0
 10
134.498897
 20
237.865208
 42
-0.112086
  0
VERTEX
  8
0
 10
142.000000
 20
243.330507
 42
-0.032663
  0
VERTEX
  8
0
 10
145.157537
 20
244.451425
 42
-0.065985
  0
VERTEX
  8
0
 10
147.765028
 20
244.829623
 42
-0.056593
  0
VERTEX
  8
0
 10
150.630294
 20
244.539802
 42
-0.018702
  0
SEQEND
  0
ENDSEC
  0
EOF
