  0
SECTION
  2
HEADER
  9
$ACADVER
  1
AC1006
  9
$EXTMIN
 10
0.000000
 20
0.000000
 30
0.000000
  9
$EXTMAX
 10
775.000000
 20
802.000000
 30
0.000000
  0
ENDSEC
  0
SECTION
  2
ENTITIES
  0
POLYLINE
  8
0
 66
1
 70
1
  0
VERTEX
  8
0
 10
315.618536
 20
783.811166
 42
0.077107
  0
VERTEX
  8
0
 10
313.822470
 20
779.833436
 42
0.036136
  0
VERTEX
  8
0
 10
312.708806
 20
774.281816
 42
0.026330
  0
VERTEX
  8
0
 10
312.159527
 20
766.779447
 42
0.010643
  0
VERTEX
  8
0
 10
312.168249
 20
756.514408
 42
-0.002975
  0
VERTEX
  8
0
 10
312.304291
 20
748.109654
 42
-0.022367
  0
VERTEX
  8
0
 10
312.167111
 20
744.133943
 42
-0.049985
  0
VERTEX
  8
0
 10
311.777840
 20
741.983800
 42
-0.282447
  0
VERTEX
  8
0
 10
310.954972
 20
741.230558
 42
-0.322864
  0
VERTEX
  8
0
 10
310.108287
 20
741.622869
 42
-0.069556
  0
VERTEX
  8
0
 10
309.483279
 20
743.218120
 42
-0.029156
  0
VERTEX
  8
0
 10
308.926681
 20
746.343793
 42
-0.004579
  0
VERTEX
  8
0
 10
308.247605
 20
752.562318
 42
0.008094
  0
VERTEX
  8
0
 10
307.717509
 20
757.119532
 42
0.011180
  0
VERTEX
  8
0
 10
307.084461
 20
761.188394
 42
0.007956
  0
VERTEX
  8
0
 10
306.430510
 20
764.541407
 42
0.121644
  0
VERTEX
  8
0
 10
305.920188
 20
765.596168
 42
0.092473
  0
VERTEX
  8
0
 10
304.849731
 20
766.486244
 42
0.086984
  0
VERTEX
  8
0
 10
303.507436
 20
766.954576
 42
0.123351
  0
VERTEX
  8
0
 10
302.411123
 20
766.863047
 42
0.293178
  0
VERTEX
  8
0
 10
301.923768
 20
766.250000
 42
0.017352
  0
VERTEX
  8
0
 10
301.886311
 20
765.688365
 42
0.000275
  0
VERTEX
  8
0
 10
301.785994
 20
762.489062
 42
0.000726
  0
VERTEX
  8
0
 10
301.676821
 20
758.769808
 42
0.000481
  0
VERTEX
  8
0
 10
301.561798
 20
754.500000
 42
-0.007733
  0
VERTEX
  8
0
 10
301.128145
 20
744.040604
 42
-0.094450
  0
VERTEX
  8
0
 10
300.159872
 20
740.171883
 42
-0.169459
  0
VERTEX
  8
0
 10
297.958082
 20
737.898101
 42
-0.038562
  0
VERTEX
  8
0
 10
292.920622
 20
735.835269
 42
-0.006906
  0
VERTEX
  8
0
 10
290.258271
 20
735.018213
 42
-0.010964
  0
VERTEX
  8
0
 10
287.955282
 20
734.400562
 42
-0.005073
  0
VERTEX
  8
0
 10
286.013678
 20
733.946038
 42
-0.278226
  0
VERTEX
  8
0
 10
285.671573
 20
734.060516
 42
-0.083323
  0
VERTEX
  8
0
 10
285.446507
 20
734.436926
 42
-0.000646
  0
VERTEX
  8
0
 10
284.156757
 20
737.749026
 42
-0.002359
  0
VERTEX
  8
0
 10
282.698937
 20
741.560322
 42
-0.001510
  0
VERTEX
  8
0
 10
281.040032
 20
746.000000
 42
0.006553
  0
VERTEX
  8
0
 10
274.739912
 20
762.355840
 42
0.020842
  0
VERTEX
  8
0
 10
269.937717
 20
773.038656
 42
0.024195
  0
VERTEX
  8
0
 10
266.110175
 20
779.841135
 42
0.345680
  0
VERTEX
  8
0
 10
263.658748
 20
780.720050
 42
0.206084
  0
VERTEX
  8
0
 10
262.586880
 20
779.764929
 42
0.114457
  0
VERTEX
  8
0
 10
262.218047
 20
778.021941
 42
0.068694
  0
VERTEX
  8
0
 10
262.619766
 20
775.477035
 42
0.027823
  0
VERTEX
  8
0
 10
263.824542
 20
772.170003
 42
-0.021880
  0
VERTEX
  8
0
 10
265.292628
 20
768.284343
 42
-0.009173
  0
VERTEX
  8
0
 10
266.941067
 20
762.939158
 42
-0.004877
  0
VERTEX
  8
0
 10
269.283013
 20
754.511266
 42
-0.000842
  0
VERTEX
  8
0
 10
273.535554
 20
738.500000
 42
-0.004449
  0
VERTEX
  8
0
 10
274.918021
 20
733.063628
 42
-0.042326
  0
VERTEX
  8
0
 10
275.289208
 20
730.696196
 42
-0.114169
  0
VERTEX
  8
0
 10
275.069739
 20
729.304693
 42
-0.135191
  0
VERTEX
  8
0
 10
274.263724
 20
728.250000
 42
-0.032708
  0
VERTEX
  8
0
 10
273.539990
 20
727.771567
 42
-0.028556
  0
VERTEX
  8
0
 10
272.727122
 20
727.367188
 42
-0.029621
  0
VERTEX
  8
0
 10
271.948218
 20
727.087004
 42
-0.071642
  0
VERTEX
  8
0
 10
271.344120
 20
727.000000
 42
-0.314952
  0
VERTEX
  8
0
 10
270.186795
 20
727.809282
 42
-0.004771
  0
VERTEX
  8
0
 10
267.296214
 20
735.960516
 42
-0.012672
  0
VERTEX
  8
0
 10
264.737975
 20
744.061056
 42
-0.030011
  0
VERTEX
  8
0
 10
263.354650
 20
750.231121
 42
0.045647
  0
VERTEX
  8
0
 10
262.678844
 20
752.858287
 42
0.085257
  0
VERTEX
  8
0
 10
261.603807
 20
754.766243
 42
0.137732
  0
VERTEX
  8
0
 10
260.328708
 20
755.664744
 42
0.227211
  0
VERTEX
  8
0
 10
259.043805
 20
755.527073
 42
0.250877
  0
VERTEX
  8
0
 10
258.079600
 20
753.864769
 42
0.023732
  0
VERTEX
  8
0
 10
258.145082
 20
748.995403
 42
0.022973
  0
VERTEX
  8
0
 10
258.859321
 20
742.335664
 42
0.010384
  0
VERTEX
  8
0
 10
260.375563
 20
733.686621
 42
0.000000
  0
VERTEX
  8
0
 10
262.700367
 20
721.873241
 42
0.000000
  0
VERTEX
  8
0
 10
259.327889
 20
719.300927
 42
0.000000
  0
VERTEX
  8
0
 10
255.955411
 20
716.728613
 42
0.000000
  0
VERTEX
  8
0
 10
245.699372
 20
727.364306
 42
0.010923
  0
VERTEX
  8
0
 10
238.613379
 20
734.398400
 42
0.066784
  0
VERTEX
  8
0
 10
234.446345
 20
737.414412
 42
0.169646
  0
VERTEX
  8
0
 10
231.470892
 20
737.885576
 42
0.176558
  0
VERTEX
  8
0
 10
228.907588
 20
736.388651
 42
0.115078
  0
VERTEX
  8
0
 10
228.401063
 20
735.375419
 42
0.182111
  0
VERTEX
  8
0
 10
228.521509
 20
734.423384
 42
0.079255
  0
VERTEX
  8
0
 10
229.412333
 20
733.237595
 42
0.010963
  0
VERTEX
  8
0
 10
231.681766
 20
731.138651
 42
-0.049791
  0
VERTEX
  8
0
 10
235.007491
 20
727.545977
 42
-0.009750
  0
VERTEX
  8
0
 10
240.187403
 20
720.409142
 42
-0.005572
  0
VERTEX
  8
0
 10
245.304751
 20
712.883813
 42
-0.147568
  0
VERTEX
  8
0
 10
246.000000
 20
710.579429
 42
-0.206159
  0
VERTEX
  8
0
 10
245.326660
 20
709.015781
 42
-0.002518
  0
VERTEX
  8
0
 10
237.125825
 20
701.337271
 42
-0.002050
  0
VERTEX
  8
0
 10
228.759294
 20
693.645859
 42
-0.293445
  0
VERTEX
  8
0
 10
227.500000
 20
693.431747
 42
-0.069860
  0
VERTEX
  8
0
 10
226.830340
 20
693.834932
 42
-0.001729
  0
VERTEX
  8
0
 10
224.053136
 20
696.103325
 42
-0.003703
  0
VERTEX
  8
0
 10
220.817771
 20
698.805067
 42
-0.002509
  0
VERTEX
  8
0
 10
217.170250
 20
701.928715
 42
0.009462
  0
VERTEX
  8
0
 10
213.456478
 20
705.020634
 42
0.013254
  0
VERTEX
  8
0
 10
210.017041
 20
707.629060
 42
0.009553
  0
VERTEX
  8
0
 10
207.082757
 20
709.650477
 42
0.147079
  0
VERTEX
  8
0
 10
205.920250
 20
710.000000
 42
0.319568
  0
VERTEX
  8
0
 10
204.391546
 20
708.911822
 42
0.202766
  0
VERTEX
  8
0
 10
204.543104
 20
706.637996
 42
0.057232
  0
VERTEX
  8
0
 10
207.293700
 20
702.448855
 42
0.012476
  0
VERTEX
  8
0
 10
213.000000
 20
695.946571
 42
-0.002798
  0
VERTEX
  8
0
 10
216.450007
 20
692.165496
 42
-0.004443
  0
VERTEX
  8
0
 10
219.356250
 20
688.886222
 42
-0.001163
  0
VERTEX
  8
0
 10
221.852170
 20
686.005501
 42
-0.179807
  0
VERTEX
  8
0
 10
222.000000
 20
685.607713
 42
-0.149325
  0
VERTEX
  8
0
 10
221.879985
 20
685.214818
 42
-0.002993
  0
VERTEX
  8
0
 10
220.692791
 20
683.475423
 42
-0.006826
  0
VERTEX
  8
0
 10
219.255350
 20
681.455734
 42
-0.004499
  0
VERTEX
  8
0
 10
217.549928
 20
679.170874
 42
0.026586
  0
VERTEX
  8
0
 10
208.067317
 20
665.221511
 42
0.019314
  0
VERTEX
  8
0
 10
198.980222
 20
648.793224
 42
0.018290
  0
VERTEX
  8
0
 10
190.655281
 20
630.643466
 42
0.017028
  0
VERTEX
  8
0
 10
183.462268
 20
611.500000
 42
0.009332
  0
VERTEX
  8
0
 10
182.111720
 20
607.235541
 42
0.001324
  0
VERTEX
  8
0
 10
179.523435
 20
598.413897
 42
0.001619
  0
VERTEX
  8
0
 10
176.746680
 20
588.739455
 42
0.002251
  0
VERTEX
  8
0
 10
174.327169
 20
580.056820
 42
-0.036013
  0
VERTEX
  8
0
 10
173.236864
 20
576.967300
 42
-0.041927
  0
VERTEX
  8
0
 10
171.757724
 20
574.227677
 42
-0.031875
  0
VERTEX
  8
0
 10
169.519875
 20
571.238233
 42
-0.011227
  0
VERTEX
  8
0
 10
165.951161
 20
567.240625
 42
0.027752
  0
VERTEX
  8
0
 10
157.418544
 20
557.022242
 42
0.029369
  0
VERTEX
  8
0
 10
150.243146
 20
546.106623
 42
0.030068
  0
VERTEX
  8
0
 10
144.545588
 20
534.684069
 42
0.032518
  0
VERTEX
  8
0
 10
140.427505
 20
522.951205
 42
0.015515
  0
VERTEX
  8
0
 10
139.069604
 20
517.438449
 42
0.020815
  0
VERTEX
  8
0
 10
138.204834
 20
512.365980
 42
0.016937
  0
VERTEX
  8
0
 10
137.655495
 20
506.499319
 42
0.006437
  0
VERTEX
  8
0
 10
137.272397
 20
498.287843
 42
0.027425
  0
VERTEX
  8
0
 10
137.673281
 20
479.281857
 42
0.033850
  0
VERTEX
  8
0
 10
140.208564
 20
461.748004
 42
0.032540
  0
VERTEX
  8
0
 10
145.193778
 20
444.168734
 42
0.022465
  0
VERTEX
  8
0
 10
152.990624
 20
425.000000
 42
0.000000
  0
VERTEX
  8
0
 10
157.821819
 20
414.500000
 42
0.000000
  0
VERTEX
  8
0
 10
158.913593
 20
376.500000
 42
0.004066
  0
VERTEX
  8
0
 10
159.922472
 20
349.138236
 42
0.002723
  0
VERTEX
  8
0
 10
161.501455
 20
317.855882
 42
0.002046
  0
VERTEX
  8
0
 10
163.238177
 20
288.930628
 42
0.018556
  0
VERTEX
  8
0
 10
164.515831
 20
276.344936
 42
-0.040175
  0
VERTEX
  8
0
 10
164.744785
 20
272.399907
 42
-0.020433
  0
VERTEX
  8
0
 10
164.430782
 20
267.437746
 42
-0.011275
  0
VERTEX
  8
0
 10
163.827364
 20
262.697038
 42
-0.371173
  0
VERTEX
  8
0
 10
163.017758
 20
262.000000
 42
-0.291249
  0
VERTEX
  8
0
 10
161.945171
 20
262.682689
 42
-0.001680
  0
VERTEX
  8
0
 10
156.720932
 20
273.960566
 42
-0.006882
  0
VERTEX
  8
0
 10
151.343142
 20
286.111247
 42
-0.006493
  0
VERTEX
  8
0
 10
146.193315
 20
298.642235
 42
-0.004990
  0
VERTEX
  8
0
 10
143.226598
 20
306.360655
 42
-0.018773
  0
VERTEX
  8
0
 10
141.598541
 20
311.282759
 42
-0.030000
  0
VERTEX
  8
0
 10
140.809870
 20
314.778200
 42
-0.066758
  0
VERTEX
  8
0
 10
140.731973
 20
317.500000
 42
0.069991
  0
VERTEX
  8
0
 10
140.634182
 20
320.289077
 42
0.029977
  0
VERTEX
  8
0
 10
139.765005
 20
323.923575
 42
0.018084
  0
VERTEX
  8
0
 10
137.968956
 20
329.152853
 42
0.004383
  0
VERTEX
  8
0
 10
134.614687
 20
337.655172
 42
0.010600
  0
VERTEX
  8
0
 10
123.572019
 20
363.361641
 42
0.043039
  0
VERTEX
  8
0
 10
115.220442
 20
378.189162
 42
0.082359
  0
VERTEX
  8
0
 10
107.877233
 20
385.863859
 42
0.210156
  0
VERTEX
  8
0
 10
100.538450
 20
387.573191
 42
0.144376
  0
VERTEX
  8
0
 10
96.154403
 20
385.334009
 42
0.083520
  0
VERTEX
  8
0
 10
92.566374
 20
380.566430
 42
0.056534
  0
VERTEX
  8
0
 10
89.686291
 20
373.041874
 42
0.023269
  0
VERTEX
  8
0
 10
87.448679
 20
362.337904
 42
0.028494
  0
VERTEX
  8
0
 10
86.303347
 20
351.211417
 42
0.011259
  0
VERTEX
  8
0
 10
85.948066
 20
335.825685
 42
0.011298
  0
VERTEX
  8
0
 10
86.288292
 20
320.380016
 42
0.027180
  0
VERTEX
  8
0
 10
87.418217
 20
309.000000
 42
-0.000012
  0
VERTEX
  8
0
 10
88.031146
 20
305.032834
 42
-0.000012
  0
VERTEX
  8
0
 10
88.658850
 20
300.968750
 42
-0.000011
  0
VERTEX
  8
0
 10
89.216752
 20
297.355493
 42
-0.000039
  0
VERTEX
  8
0
 10
89.580207
 20
295.000000
 42
0.019569
  0
VERTEX
  8
0
 10
90.331954
 20
291.135937
 42
0.071515
  0
VERTEX
  8
0
 10
91.241731
 20
288.818337
 42
0.117661
  0
VERTEX
  8
0
 10
92.488657
 20
287.482803
 42
0.111270
  0
VERTEX
  8
0
 10
94.229763
 20
286.819838
 42
-0.168542
  0
VERTEX
  8
0
 10
95.551477
 20
286.138214
 42
-0.084473
  0
VERTEX
  8
0
 10
96.613442
 20
284.559553
 42
-0.035259
  0
VERTEX
  8
0
 10
97.740804
 20
281.500916
 42
-0.004922
  0
VERTEX
  8
0
 10
99.559604
 20
275.000000
 42
0.024020
  0
VERTEX
  8
0
 10
112.636417
 20
234.315077
 42
0.020435
  0
VERTEX
  8
0
 10
130.196966
 20
192.766709
 42
0.019537
  0
VERTEX
  8
0
 10
151.986683
 20
150.893532
 42
0.017488
  0
VERTEX
  8
0
 10
177.750000
 20
109.233694
 42
-0.004196
  0
VERTEX
  8
0
 10
182.834083
 20
101.481064
 42
-0.035455
  0
VERTEX
  8
0
 10
184.838300
 20
97.822474
 42
-0.067984
  0
VERTEX
  8
0
 10
185.726258
 20
94.895237
 42
-0.038339
  0
VERTEX
  8
0
 10
186.031192
 20
91.190370
 42
0.015072
  0
VERTEX
  8
0
 10
186.137299
 20
88.212974
 42
0.004413
  0
VERTEX
  8
0
 10
186.478537
 20
83.646546
 42
0.004429
  0
VERTEX
  8
0
 10
186.953696
 20
78.511618
 42
0.004737
  0
VERTEX
  8
0
 10
187.510266
 20
73.500000
 42
-0.000303
  0
VERTEX
  8
0
 10
188.066762
 20
68.864194
 42
-0.000475
  0
VERTEX
  8
0
 10
188.538976
 20
64.878125
 42
-0.000115
  0
VERTEX
  8
0
 10
188.948332
 20
61.387404
 42
-0.018679
  0
VERTEX
  8
0
 10
188.979060
 20
61.000000
 42
0.402238
  0
VERTEX
  8
0
 10
189.437108
 20
60.561035
 42
0.000003
  0
VERTEX
  8
0
 10
383.091065
 20
60.705515
 42
0.000004
  0
VERTEX
  8
0
 10
576.564926
 20
60.852266
 42
0.198713
  0
VERTEX
  8
0
 10
577.625293
 20
61.291960
 42
0.224829
  0
VERTEX
  8
0
 10
578.033733
 20
62.435336
 42
0.000391
  0
VERTEX
  8
0
 10
575.922029
 20
83.483970
 42
0.002802
  0
VERTEX
  8
0
 10
573.911122
 20
102.316421
 42
0.015713
  0
VERTEX
  8
0
 10
572.463051
 20
112.345109
 42
0.017625
  0
VERTEX
  8
0
 10
570.557367
 20
121.282855
 42
0.042392
  0
VERTEX
  8
0
 10
568.365851
 20
127.679876
 42
0.051939
  0
VERTEX
  8
0
 10
565.445168
 20
132.797909
 42
0.041784
  0
VERTEX
  8
0
 10
561.332333
 20
137.623027
 42
-0.014167
  0
VERTEX
  8
0
 10
559.166924
 20
139.896481
 42
-0.027347
  0
VERTEX
  8
0
 10
557.591018
 20
141.853049
 42
-0.028886
  0
VERTEX
  8
0
 10
556.596768
 20
143.419289
 42
-0.271767
  0
VERTEX
  8
0
 10
556.614271
 20
144.184895
 42
-0.031275
  0
VERTEX
  8
0
 10
557.175591
 20
144.977671
 42
-0.001061
  0
VERTEX
  8
0
 10
559.582214
 20
147.949141
 42
-0.001996
  0
VERTEX
  8
0
 10
562.446279
 20
151.441540
 42
-0.001391
  0
VERTEX
  8
0
 10
565.705708
 20
155.361578
 42
0.017525
  0
VERTEX
  8
0
 10
590.054406
 20
186.645486
 42
0.019685
  0
VERTEX
  8
0
 10
611.174561
 20
218.396983
 42
0.020435
  0
VERTEX
  8
0
 10
629.016978
 20
250.540606
 42
0.022575
  0
VERTEX
  8
0
 10
643.540955
 20
283.000000
 42
0.003979
  0
VERTEX
  8
0
 10
645.666265
 20
288.518287
 42
0.004285
  0
VERTEX
  8
0
 10
647.650491
 20
293.935571
 42
0.004055
  0
VERTEX
  8
0
 10
649.275578
 20
298.612468
 42
0.020375
  0
VERTEX
  8
0
 10
650.055809
 20
301.270030
 42
-0.028904
  0
VERTEX
  8
0
 10
650.762950
 20
303.535040
 42
-0.044446
  0
VERTEX
  8
0
 10
651.654309
 20
305.383883
 42
-0.049971
  0
VERTEX
  8
0
 10
652.764329
 20
306.881212
 42
-0.053609
  0
VERTEX
  8
0
 10
654.125793
 20
308.089572
 42
0.058876
  0
VERTEX
  8
0
 10
656.668890
 20
310.394875
 42
0.083443
  0
VERTEX
  8
0
 10
658.262891
 20
312.993068
 42
0.043473
  0
VERTEX
  8
0
 10
659.513632
 20
317.081247
 42
0.006152
  0
VERTEX
  8
0
 10
661.243125
 20
325.714895
 42
0.031351
  0
VERTEX
  8
0
 10
662.993306
 20
339.904996
 42
0.013395
  0
VERTEX
  8
0
 10
663.629181
 20
359.022320
 42
0.012147
  0
VERTEX
  8
0
 10
663.299604
 20
377.504061
 42
0.057613
  0
VERTEX
  8
0
 10
661.645192
 20
387.940020
 42
0.019273
  0
VERTEX
  8
0
 10
659.710818
 20
393.960902
 42
0.038998
  0
VERTEX
  8
0
 10
657.648418
 20
398.489389
 42
0.050053
  0
VERTEX
  8
0
 10
655.352586
 20
401.807052
 42
0.076451
  0
VERTEX
  8
0
 10
652.709663
 20
404.091751
 42
0.198955
  0
VERTEX
  8
0
 10
645.481178
 20
405.313544
 42
0.114202
  0
VERTEX
  8
0
 10
637.406816
 20
401.385687
 42
0.059675
  0
VERTEX
  8
0
 10
627.681561
 20
391.384519
 42
0.016752
  0
VERTEX
  8
0
 10
615.023884
 20
373.605743
 42
0.007485
  0
VERTEX
  8
0
 10
607.284405
 20
361.537335
 42
0.018563
  0
VERTEX
  8
0
 10
602.084789
 20
352.416810
 42
0.023675
  0
VERTEX
  8
0
 10
598.883437
 20
345.503698
 42
0.096887
  0
VERTEX
  8
0
 10
598.000000
 20
340.987360
 42
-0.062821
  0
VERTEX
  8
0
 10
597.652894
 20
338.235590
 42
-0.031669
  0
VERTEX
  8
0
 10
596.569738
 20
334.903228
 42
-0.020471
  0
VERTEX
  8
0
 10
594.566270
 20
330.399049
 42
-0.005940
  0
VERTEX
  8
0
 10
591.113542
 20
323.624361
 42
0.000436
  0
VERTEX
  8
0
 10
588.026057
 20
317.727671
 42
0.000274
  0
VERTEX
  8
0
 10
584.427082
 20
310.830281
 42
0.000275
  0
VERTEX
  8
0
 10
580.893156
 20
304.039378
 42
0.000504
  0
VERTEX
  8
0
 10
578.021472
 20
298.500000
 42
-0.003076
  0
VERTEX
  8
0
 10
574.237594
 20
291.292030
 42
-0.013517
  0
VERTEX
  8
0
 10
571.864388
 20
287.114244
 42
-0.030379
  0
VERTEX
  8
0
 10
570.453412
 20
285.071040
 42
-0.712583
  0
VERTEX
  8
0
 10
570.000000
 20
285.227641
 42
0.038626
  0
VERTEX
  8
0
 10
569.710009
 20
288.975868
 42
0.008549
  0
VERTEX
  8
0
 10
568.609980
 20
295.326061
 42
0.007002
  0
VERTEX
  8
0
 10
567.311917
 20
301.644315
 42
0.065247
  0
VERTEX
  8
0
 10
566.367636
 20
304.255964
 42
-0.078609
  0
VERTEX
  8
0
 10
565.642345
 20
306.442011
 42
-0.009355
  0
VERTEX
  8
0
 10
564.903877
 20
311.508081
 42
-0.009348
  0
VERTEX
  8
0
 10
564.168524
 20
318.332225
 42
-0.004229
  0
VERTEX
  8
0
 10
563.448069
 20
327.297256
 42
0.000774
  0
VERTEX
  8
0
 10
562.022012
 20
346.722690
 42
0.001897
  0
VERTEX
  8
0
 10
560.896966
 20
361.002856
 42
0.001973
  0
VERTEX
  8
0
 10
559.992132
 20
371.454002
 42
0.015807
  0
VERTEX
  8
0
 10
559.404405
 20
376.250639
 42
-0.055782
  0
VERTEX
  8
0
 10
559.304557
 20
378.621745
 42
-0.106521
  0
VERTEX
  8
0
 10
559.831986
 20
380.444922
 42
-0.055995
  0
VERTEX
  8
0
 10
561.304816
 20
382.571555
 42
-0.007012
  0
VERTEX
  8
0
 10
565.056935
 20
386.750639
 42
0.040203
  0
VERTEX
  8
0
 10
576.506541
 20
401.343596
 42
0.032784
  0
VERTEX
  8
0
 10
586.364593
 20
418.586152
 42
0.031275
  0
VERTEX
  8
0
 10
594.313507
 20
437.852881
 42
0.028777
  0
VERTEX
  8
0
 10
600.055116
 20
458.500000
 42
0.031295
  0
VERTEX
  8
0
 10
602.029859
 20
471.467429
 42
0.017678
  0
VERTEX
  8
0
 10
602.875875
 20
487.354061
 42
0.017635
  0
VERTEX
  8
0
 10
602.596364
 20
503.403289
 42
0.028926
  0
VERTEX
  8
0
 10
601.097877
 20
516.907219
 42
0.022580
  0
VERTEX
  8
0
 10
597.241084
 20
534.696281
 42
0.025732
  0
VERTEX
  8
0
 10
591.923737
 20
551.289821
 42
0.026833
  0
VERTEX
  8
0
 10
585.173588
 20
566.601710
 42
0.029803
  0
VERTEX
  8
0
 10
577.027479
 20
580.554262
 42
0.044800
  0
VERTEX
  8
0
 10
566.331589
 20
593.846471
 42
0.032006
  0
VERTEX
  8
0
 10
552.219606
 20
606.723714
 42
0.032043
  0
VERTEX
  8
0
 10
536.605663
 20
617.674417
 42
0.045400
  0
VERTEX
  8
0
 10
521.383450
 20
625.156119
 42
-0.033196
  0
VERTEX
  8
0
 10
519.114429
 20
626.203488
 42
-0.083245
  0
VERTEX
  8
0
 10
517.684351
 20
627.324717
 42
-0.074689
  0
VERTEX
  8
0
 10
516.610410
 20
628.926399
 42
-0.022997
  0
VERTEX
  8
0
 10
515.486808
 20
631.617134
 42
0.010959
  0
VERTEX
  8
0
 10
508.555215
 20
649.409039
 42
0.018979
  0
VERTEX
  8
0
 10
501.921158
 20
663.822002
 42
0.021933
  0
VERTEX
  8
0
 10
495.006037
 20
676.092640
 42
0.024181
  0
VERTEX
  8
0
 10
487.247359
 20
687.303116
 42
-0.007928
  0
VERTEX
  8
0
 10
484.532322
 20
690.965759
 42
-0.070768
  0
VERTEX
  8
0
 10
483.607794
 20
692.738411
 42
-0.130079
  0
VERTEX
  8
0
 10
483.485148
 20
694.254277
 42
-0.049952
  0
VERTEX
  8
0
 10
484.069414
 20
696.303116
 42
-0.030672
  0
VERTEX
  8
0
 10
486.786851
 20
702.091192
 42
-0.007966
  0
VERTEX
  8
0
 10
491.867450
 20
711.043390
 42
-0.005100
  0
VERTEX
  8
0
 10
497.244063
 20
719.965707
 42
-0.085507
  0
VERTEX
  8
0
 10
499.519296
 20
722.543516
 42
0.063125
  0
VERTEX
  8
0
 10
500.041563
 20
723.084661
 42
0.035371
  0
VERTEX
  8
0
 10
500.536391
 20
723.855217
 42
0.034691
  0
VERTEX
  8
0
 10
500.932873
 20
724.717938
 42
0.047222
  0
VERTEX
  8
0
 10
501.158746
 20
725.543516
 42
0.075815
  0
VERTEX
  8
0
 10
501.179010
 20
726.492697
 42
0.164725
  0
VERTEX
  8
0
 10
500.861549
 20
727.139108
 42
0.129321
  0
VERTEX
  8
0
 10
500.149080
 20
727.557084
 42
0.039428
  0
VERTEX
  8
0
 10
498.912154
 20
727.800775
 42
0.113452
  0
VERTEX
  8
0
 10
497.315282
 20
727.624034
 42
0.070942
  0
VERTEX
  8
0
 10
495.637376
 20
726.755151
 42
0.040223
  0
VERTEX
  8
0
 10
493.513239
 20
724.966498
 42
0.009617
  0
VERTEX
  8
0
 10
490.294119
 20
721.655260
 42
0.012764
  0
VERTEX
  8
0
 10
487.674134
 20
718.707130
 42
0.008201
  0
VERTEX
  8
0
 10
484.780631
 20
715.162501
 42
0.008242
  0
VERTEX
  8
0
 10
482.060955
 20
711.597669
 42
0.015294
  0
VERTEX
  8
0
 10
479.992721
 20
708.604485
 42
-0.012009
  0
VERTEX
  8
0
 10
478.268676
 20
706.074034
 42
-0.017564
  0
VERTEX
  8
0
 10
476.621985
 20
703.940068
 42
-0.013110
  0
VERTEX
  8
0
 10
475.179851
 20
702.291020
 42
-0.209490
  0
VERTEX
  8
0
 10
474.515743
 20
702.000000
 42
-0.112796
  0
VERTEX
  8
0
 10
473.929795
 20
702.133889
 42
-0.034135
  0
VERTEX
  8
0
 10
473.131959
 20
702.588086
 42
-0.032273
  0
VERTEX
  8
0
 10
472.280436
 20
703.235815
 42
-0.030113
  0
VERTEX
  8
0
 10
471.498193
 20
704.001997
 42
-0.115145
  0
VERTEX
  8
0
 10
470.516601
 20
705.772259
 42
-0.057512
  0
VERTEX
  8
0
 10
470.100894
 20
708.314190
 42
-0.022647
  0
VERTEX
  8
0
 10
470.092375
 20
712.751911
 42
-0.002361
  0
VERTEX
  8
0
 10
470.593206
 20
723.158478
 42
0.003553
  0
VERTEX
  8
0
 10
470.979392
 20
731.602180
 42
0.013329
  0
VERTEX
  8
0
 10
471.042752
 20
736.907696
 42
0.016720
  0
VERTEX
  8
0
 10
470.872998
 20
740.430351
 42
0.140129
  0
VERTEX
  8
0
 10
470.317321
 20
741.906482
 42
0.290700
  0
VERTEX
  8
0
 10
468.815370
 20
742.483014
 42
0.242519
  0
VERTEX
  8
0
 10
467.457301
 20
741.395659
 42
0.062810
  0
VERTEX
  8
0
 10
466.301406
 20
737.582721
 42
0.013344
  0
VERTEX
  8
0
 10
465.316265
 20
730.701742
 42
0.003615
  0
VERTEX
  8
0
 10
464.858252
 20
726.488612
 42
0.003606
  0
VERTEX
  8
0
 10
464.460787
 20
722.265661
 42
0.003531
  0
VERTEX
  8
0
 10
464.166272
 20
718.572187
 42
0.014176
  0
VERTEX
  8
0
 10
464.066265
 20
716.309017
 42
-0.019005
  0
VERTEX
  8
0
 10
463.977701
 20
714.664913
 42
-0.025704
  0
VERTEX
  8
0
 10
463.765308
 20
713.192057
 42
-0.024521
  0
VERTEX
  8
0
 10
463.475753
 20
712.027246
 42
-0.183143
  0
VERTEX
  8
0
 10
463.134783
 20
711.583301
 42
-0.272240
  0
VERTEX
  8
0
 10
462.033198
 20
711.559086
 42
-0.007264
  0
VERTEX
  8
0
 10
457.655252
 20
714.089891
 42
-0.012456
  0
VERTEX
  8
0
 10
453.530563
 20
716.696514
 42
-0.093090
  0
VERTEX
  8
0
 10
451.882209
 20
718.308172
 42
-0.274593
  0
VERTEX
  8
0
 10
451.544925
 20
722.794753
 42
-0.007010
  0
VERTEX
  8
0
 10
461.197353
 20
741.565678
 42
-0.014369
  0
VERTEX
  8
0
 10
471.354447
 20
759.399663
 42
-0.053511
  0
VERTEX
  8
0
 10
479.197135
 20
769.644267
 42
0.054254
  0
VERTEX
  8
0
 10
481.050675
 20
772.072922
 42
0.119289
  0
VERTEX
  8
0
 10
481.750053
 20
774.286413
 42
0.192922
  0
VERTEX
  8
0
 10
481.223717
 20
775.915046
 42
0.173408
  0
VERTEX
  8
0
 10
479.690094
 20
776.821166
 42
0.264689
  0
VERTEX
  8
0
 10
475.229616
 20
775.306995
 42
0.014668
  0
VERTEX
  8
0
 10
465.430928
 20
763.595210
 42
0.021662
  0
VERTEX
  8
0
 10
455.245701
 20
749.449622
 42
0.023005
  0
VERTEX
  8
0
 10
446.539440
 20
734.750000
 42
-0.002033
  0
VERTEX
  8
0
 10
444.326242
 20
730.628374
 42
-0.003331
  0
VERTEX
  8
0
 10
442.414403
 20
727.157812
 42
-0.000506
  0
VERTEX
  8
0
 10
440.701376
 20
724.103842
 42
-0.271006
  0
VERTEX
  8
0
 10
440.523860
 20
724.000000
 42
-0.113746
  0
VERTEX
  8
0
 10
439.394060
 20
724.260389
 42
-0.001748
  0
VERTEX
  8
0
 10
433.351241
 20
727.228238
 42
-0.001485
  0
VERTEX
  8
0
 10
427.266648
 20
730.265590
 42
-0.138693
  0
VERTEX
  8
0
 10
426.545792
 20
730.925906
 42
-0.207190
  0
VERTEX
  8
0
 10
426.216178
 20
733.183550
 42
-0.006099
  0
VERTEX
  8
0
 10
428.891108
 20
742.634401
 42
-0.012991
  0
VERTEX
  8
0
 10
431.932900
 20
752.001131
 42
-0.028948
  0
VERTEX
  8
0
 10
434.835649
 20
758.907910
 42
0.014290
  0
VERTEX
  8
0
 10
437.234732
 20
764.178395
 42
0.063379
  0
VERTEX
  8
0
 10
438.147744
 20
767.451935
 42
0.171847
  0
VERTEX
  8
0
 10
437.794692
 20
769.239798
 42
0.264808
  0
VERTEX
  8
0
 10
436.459961
 20
770.000000
 42
0.227659
  0
VERTEX
  8
0
 10
433.731312
 20
768.689686
 42
0.020539
  0
VERTEX
  8
0
 10
429.117402
 20
762.419055
 42
0.024214
  0
VERTEX
  8
0
 10
424.182062
 20
754.275643
 42
0.018903
  0
VERTEX
  8
0
 10
419.602173
 20
745.000000
 42
-0.003337
  0
VERTEX
  8
0
 10
418.093416
 20
741.688514
 42
-0.004782
  0
VERTEX
  8
0
 10
416.708383
 20
738.774930
 42
-0.002659
  0
VERTEX
  8
0
 10
415.503846
 20
736.335350
 42
-0.071735
  0
VERTEX
  8
0
 10
415.093329
 20
735.744444
 42
-0.271021
  0
VERTEX
  8
0
 10
414.036239
 20
735.427764
 42
-0.009420
  0
VERTEX
  8
0
 10
409.721513
 20
736.562174
 42
-0.014878
  0
VERTEX
  8
0
 10
405.575875
 20
737.870465
 42
-0.098843
  0
VERTEX
  8
0
 10
403.717190
 20
738.965725
 42
-0.337729
  0
VERTEX
  8
0
 10
403.399816
 20
740.617232
 42
-0.006045
  0
VERTEX
  8
0
 10
407.767437
 20
749.138648
 42
-0.014583
  0
VERTEX
  8
0
 10
412.538189
 20
757.570630
 42
-0.027780
  0
VERTEX
  8
0
 10
416.932961
 20
764.000000
 42
0.022060
  0
VERTEX
  8
0
 10
420.190458
 20
768.650549
 42
0.071482
  0
VERTEX
  8
0
 10
421.737701
 20
772.076560
 42
0.186542
  0
VERTEX
  8
0
 10
421.560617
 20
774.098275
 42
0.286089
  0
VERTEX
  8
0
 10
420.113652
 20
775.000000
 42
0.201431
  0
VERTEX
  8
0
 10
417.049200
 20
773.713243
 42
0.009817
  0
VERTEX
  8
0
 10
409.327392
 20
765.524854
 42
0.016857
  0
VERTEX
  8
0
 10
401.821081
 20
756.662380
 42
0.034078
  0
VERTEX
  8
0
 10
396.651858
 20
749.121029
 42
-0.011505
  0
VERTEX
  8
0
 10
394.711429
 20
745.996734
 42
-0.018261
  0
VERTEX
  8
0
 10
392.893893
 20
743.425374
 42
-0.012703
  0
VERTEX
  8
0
 10
391.312500
 20
741.458659
 42
-0.306577
  0
VERTEX
  8
0
 10
390.666816
 20
741.277728
 42
-0.146543
  0
VERTEX
  8
0
 10
390.182341
 20
741.618335
 42
-0.040249
  0
VERTEX
  8
0
 10
389.660457
 20
742.403609
 42
-0.037041
  0
VERTEX
  8
0
 10
389.186149
 20
743.432210
 42
-0.031331
  0
VERTEX
  8
0
 10
388.837411
 20
744.578347
 42
-0.001510
  0
VERTEX
  8
0
 10
388.425922
 20
746.338066
 42
-0.000206
  0
VERTEX
  8
0
 10
387.578287
 20
750.019890
 42
-0.000237
  0
VERTEX
  8
0
 10
386.577917
 20
754.382795
 42
-0.000200
  0
VERTEX
  8
0
 10
385.523483
 20
759.000000
 42
0.001104
  0
VERTEX
  8
0
 10
382.578053
 20
771.790951
 42
0.011637
  0
VERTEX
  8
0
 10
381.241364
 20
776.986571
 42
0.027349
  0
VERTEX
  8
0
 10
380.275408
 20
779.808791
 42
0.124034
  0
VERTEX
  8
0
 10
379.257353
 20
781.201379
 42
0.329753
  0
VERTEX
  8
0
 10
377.534475
 20
781.297398
 42
0.226781
  0
VERTEX
  8
0
 10
376.481375
 20
779.554040
 42
0.041738
  0
VERTEX
  8
0
 10
376.405113
 20
774.090420
 42
0.004869
  0
VERTEX
  8
0
 10
377.372271
 20
761.905604
 42
-0.002333
  0
VERTEX
  8
0
 10
377.965569
 20
754.882540
 42
-0.003771
  0
VERTEX
  8
0
 10
378.397482
 20
748.899982
 42
-0.000744
  0
VERTEX
  8
0
 10
378.729261
 20
743.644009
 42
-0.214960
  0
VERTEX
  8
0
 10
378.578113
 20
743.244779
 42
-0.203746
  0
VERTEX
  8
0
 10
378.212918
 20
743.097471
 42
-0.005142
  0
VERTEX
  8
0
 10
376.389676
 20
743.150115
 42
-0.010202
  0
VERTEX
  8
0
 10
374.216914
 20
743.279663
 42
-0.006682
  0
VERTEX
  8
0
 10
371.719043
 20
743.513446
 42
0.000000
  0
VERTEX
  8
0
 10
365.280786
 20
744.202924
 42
0.000000
  0
VERTEX
  8
0
 10
364.646387
 20
752.351462
 42
-0.003859
  0
VERTEX
  8
0
 10
364.402027
 20
755.837576
 42
-0.003140
  0
VERTEX
  8
0
 10
364.192571
 20
759.575117
 42
-0.003173
  0
VERTEX
  8
0
 10
364.043109
 20
763.020200
 42
-0.008271
  0
VERTEX
  8
0
 10
363.992339
 20
765.500000
 42
0.016713
  0
VERTEX
  8
0
 10
363.837566
 20
769.641647
 42
0.045716
  0
VERTEX
  8
0
 10
363.365138
 20
772.529699
 42
0.070679
  0
VERTEX
  8
0
 10
362.577585
 20
774.420654
 42
0.168732
  0
VERTEX
  8
0
 10
361.430397
 20
775.388336
 42
0.214031
  0
VERTEX
  8
0
 10
359.812476
 20
775.298787
 42
0.131841
  0
VERTEX
  8
0
 10
358.378791
 20
773.991913
 42
0.078218
  0
VERTEX
  8
0
 10
357.254886
 20
771.429545
 42
0.034237
  0
VERTEX
  8
0
 10
356.556834
 20
767.775983
 42
-0.001180
  0
VERTEX
  8
0
 10
356.233024
 20
765.150185
 42
-0.000445
  0
VERTEX
  8
0
 10
355.768241
 20
761.479507
 42
-0.000441
  0
VERTEX
  8
0
 10
355.255467
 20
757.486649
 42
-0.000538
  0
VERTEX
  8
0
 10
354.768158
 20
753.750000
 42
0.000000
  0
VERTEX
  8
0
 10
353.617470
 20
745.000000
 42
0.000000
  0
VERTEX
  8
0
 10
347.558735
 20
744.928851
 42
0.008276
  0
VERTEX
  8
0
 10
344.671014
 20
744.847122
 42
0.003855
  0
VERTEX
  8
0
 10
340.929753
 20
744.650311
 42
0.003818
  0
VERTEX
  8
0
 10
337.005552
 20
744.383435
 42
0.005326
  0
VERTEX
  8
0
 10
333.500000
 20
744.080540
 42
-0.008059
  0
VERTEX
  8
0
 10
330.381763
 20
743.828278
 42
-0.011862
  0
VERTEX
  8
0
 10
327.635845
 20
743.715954
 42
-0.007255
  0
VERTEX
  8
0
 10
325.355466
 20
743.709909
 42
-0.176476
  0
VERTEX
  8
0
 10
324.770960
 20
743.930729
 42
-0.174762
  0
VERTEX
  8
0
 10
323.536500
 20
746.116063
 42
-0.007469
  0
VERTEX
  8
0
 10
322.164097
 20
755.002221
 42
-0.013540
  0
VERTEX
  8
0
 10
321.087769
 20
764.640103
 42
-0.017757
  0
VERTEX
  8
0
 10
320.657243
 20
773.486748
 42
0.003966
  0
VERTEX
  8
0
 10
320.514943
 20
780.246213
 42
0.029935
  0
VERTEX
  8
0
 10
320.231615
 20
783.427249
 42
0.075040
  0
VERTEX
  8
0
 10
319.716195
 20
785.102444
 42
0.237445
  0
VERTEX
  8
0
 10
318.813131
 20
785.797914
 42
0.125175
  0
VERTEX
  8
0
 10
318.056932
 20
785.753205
 42
0.062146
  0
VERTEX
  8
0
 10
317.178885
 20
785.348130
 42
0.055832
  0
VERTEX
  8
0
 10
316.320527
 20
784.670992
 42
0.053373
  0
SEQEND
  0
POLYLINE
  8
0
 66
1
 70
1
  0
VERTEX
  8
0
 10
351.535731
 20
724.500000
 42
0.027246
  0
VERTEX
  8
0
 10
351.826634
 20
719.623414
 42
0.064559
  0
VERTEX
  8
0
 10
352.700137
 20
716.099781
 42
0.093180
  0
VERTEX
  8
0
 10
354.168483
 20
713.746048
 42
0.130706
  0
VERTEX
  8
0
 10
356.247525
 20
712.421439
 42
0.170470
  0
VERTEX
  8
0
 10
359.681269
 20
712.525729
 42
0.148939
  0
VERTEX
  8
0
 10
362.523519
 20
714.748792
 42
0.101237
  0
VERTEX
  8
0
 10
364.388735
 20
719.045633
 42
0.051986
  0
VERTEX
  8
0
 10
365.000000
 20
724.908864
 42
-0.016298
  0
VERTEX
  8
0
 10
365.063389
 20
726.852978
 42
-0.022855
  0
VERTEX
  8
0
 10
365.255584
 20
728.579077
 42
-0.020299
  0
VERTEX
  8
0
 10
365.529492
 20
729.950123
 42
-0.197366
  0
VERTEX
  8
0
 10
365.870073
 20
730.419701
 42
-0.155254
  0
VERTEX
  8
0
 10
367.555553
 20
730.842049
 42
-0.004690
  0
VERTEX
  8
0
 10
374.851944
 20
730.316505
 42
-0.005816
  0
VERTEX
  8
0
 10
382.012271
 20
729.649272
 42
-0.112730
  0
VERTEX
  8
0
 10
384.106637
 20
728.934095
 42
-0.075371
  0
VERTEX
  8
0
 10
384.616360
 20
728.501235
 42
-0.151049
  0
VERTEX
  8
0
 10
384.827999
 20
728.022791
 42
-0.136609
  0
VERTEX
  8
0
 10
384.742288
 20
727.473873
 42
-0.057093
  0
VERTEX
  8
0
 10
384.353625
 20
726.826215
 42
0.062372
  0
VERTEX
  8
0
 10
382.733107
 20
724.060298
 42
0.004605
  0
VERTEX
  8
0
 10
379.339426
 20
715.947371
 42
0.006999
  0
VERTEX
  8
0
 10
375.867633
 20
707.074770
 42
0.009625
  0
VERTEX
  8
0
 10
373.013734
 20
699.000000
 42
0.013882
  0
VERTEX
  8
0
 10
370.475986
 20
690.579501
 42
0.038934
  0
VERTEX
  8
0
 10
369.330958
 20
684.532226
 42
0.058720
  0
VERTEX
  8
0
 10
369.365658
 20
680.196073
 42
0.147517
  0
VERTEX
  8
0
 10
370.636419
 20
677.336896
 42
0.116257
  0
VERTEX
  8
0
 10
374.404659
 20
674.599962
 42
0.257940
  0
VERTEX
  8
0
 10
377.822293
 20
674.971128
 42
0.138665
  0
VERTEX
  8
0
 10
380.896536
 20
678.755946
 42
0.033032
  0
VERTEX
  8
0
 10
383.633718
 20
686.480153
 42
-0.018047
  0
VERTEX
  8
0
 10
386.696244
 20
696.020819
 42
-0.005645
  0
VERTEX
  8
0
 10
391.960085
 20
710.091306
 42
-0.001049
  0
VERTEX
  8
0
 10
397.875803
 20
725.281484
 42
-0.308604
  0
VERTEX
  8
0
 10
398.929074
 20
726.000000
 42
-0.081840
  0
VERTEX
  8
0
 10
399.866342
 20
725.845553
 42
-0.001081
  0
VERTEX
  8
0
 10
405.471168
 20
723.933311
 42
-0.003359
  0
VERTEX
  8
0
 10
411.485844
 20
721.821428
 42
-0.003312
  0
VERTEX
  8
0
 10
417.500000
 20
719.619162
 42
-0.009611
  0
VERTEX
  8
0
 10
419.403090
 20
718.865961
 42
-0.004360
  0
VERTEX
  8
0
 10
421.865747
 20
717.810794
 42
-0.004315
  0
VERTEX
  8
0
 10
424.444566
 20
716.652492
 42
-0.005902
  0
VERTEX
  8
0
 10
426.745097
 20
715.562159
 42
0.006989
  0
VERTEX
  8
0
 10
428.827336
 20
714.580819
 42
0.009348
  0
VERTEX
  8
0
 10
430.744637
 20
713.752634
 42
0.006943
  0
VERTEX
  8
0
 10
432.362323
 20
713.115563
 42
0.090566
  0
VERTEX
  8
0
 10
432.995097
 20
713.000000
 42
-0.392446
  0
VERTEX
  8
0
 10
433.786640
 20
712.265619
 42
-0.077934
  0
VERTEX
  8
0
 10
433.616139
 20
710.156585
 42
-0.027531
  0
VERTEX
  8
0
 10
432.396640
 20
706.088827
 42
-0.003818
  0
VERTEX
  8
0
 10
429.340763
 20
697.818882
 42
0.015144
  0
VERTEX
  8
0
 10
425.907568
 20
687.838138
 42
0.041899
  0
VERTEX
  8
0
 10
424.307498
 20
680.589858
 42
0.064030
  0
VERTEX
  8
0
 10
424.278336
 20
675.411875
 42
0.167322
  0
VERTEX
  8
0
 10
425.887916
 20
672.112084
 42
0.039625
  0
VERTEX
  8
0
 10
426.835533
 20
671.303836
 42
0.035341
  0
VERTEX
  8
0
 10
427.934533
 20
670.620425
 42
0.037090
  0
VERTEX
  8
0
 10
429.014846
 20
670.148916
 42
0.084548
  0
VERTEX
  8
0
 10
429.889216
 20
670.000000
 42
0.164782
  0
VERTEX
  8
0
 10
432.621635
 20
670.925639
 42
0.096049
  0
VERTEX
  8
0
 10
434.942830
 20
673.540207
 42
0.046621
  0
VERTEX
  8
0
 10
437.326432
 20
678.585671
 42
0.009360
  0
VERTEX
  8
0
 10
440.545298
 20
688.000000
 42
-0.004805
  0
VERTEX
  8
0
 10
442.420026
 20
693.650721
 42
-0.006858
  0
VERTEX
  8
0
 10
444.200721
 20
698.626575
 42
-0.004037
  0
VERTEX
  8
0
 10
445.786242
 20
702.770162
 42
-0.096914
  0
VERTEX
  8
0
 10
446.450458
 20
703.813874
 42
-0.255083
  0
VERTEX
  8
0
 10
447.519534
 20
704.157867
 42
-0.074746
  0
VERTEX
  8
0
 10
449.204875
 20
703.566583
 42
-0.033199
  0
VERTEX
  8
0
 10
451.886196
 20
701.911524
 42
-0.005682
  0
VERTEX
  8
0
 10
456.725304
 20
698.377708
 42
-0.006062
  0
VERTEX
  8
0
 10
460.261264
 20
695.665944
 42
-0.007965
  0
VERTEX
  8
0
 10
463.418074
 20
693.101185
 42
-0.006043
  0
VERTEX
  8
0
 10
465.990693
 20
690.888586
 42
-0.072667
  0
VERTEX
  8
0
 10
466.834217
 20
689.893853
 42
-0.135262
  0
VERTEX
  8
0
 10
467.194662
 20
688.683129
 42
-0.069633
  0
VERTEX
  8
0
 10
467.006118
 20
687.100545
 42
-0.039213
  0
VERTEX
  8
0
 10
466.216233
 20
684.838877
 42
-0.009634
  0
VERTEX
  8
0
 10
464.559962
 20
681.262062
 42
0.019700
  0
VERTEX
  8
0
 10
460.368613
 20
671.711050
 42
0.049337
  0
VERTEX
  8
0
 10
458.299866
 20
664.394176
 42
0.074935
  0
VERTEX
  8
0
 10
458.152743
 20
659.018089
 42
0.180162
  0
VERTEX
  8
0
 10
459.959705
 20
655.536466
 42
0.122705
  0
VERTEX
  8
0
 10
462.004657
 20
654.442102
 42
0.115539
  0
VERTEX
  8
0
 10
464.373012
 20
654.401538
 42
0.105885
  0
VERTEX
  8
0
 10
466.675538
 20
655.440616
 42
0.089200
  0
VERTEX
  8
0
 10
468.517794
 20
657.386813
 42
0.030989
  0
VERTEX
  8
0
 10
469.316960
 20
658.788817
 42
0.005553
  0
VERTEX
  8
0
 10
470.613294
 20
661.506926
 42
0.005977
  0
VERTEX
  8
0
 10
472.060596
 20
664.730864
 42
0.005368
  0
VERTEX
  8
0
 10
473.484514
 20
668.105626
 42
-0.006981
  0
VERTEX
  8
0
 10
474.857768
 20
671.331219
 42
-0.010556
  0
VERTEX
  8
0
 10
476.150853
 20
674.095328
 42
-0.005611
  0
VERTEX
  8
0
 10
477.305784
 20
676.369529
 42
-0.194375
  0
VERTEX
  8
0
 10
477.753765
 20
676.751255
 42
-0.348076
  0
VERTEX
  8
0
 10
479.629471
 20
676.070460
 42
-0.006576
  0
VERTEX
  8
0
 10
485.338253
 20
666.537177
 42
-0.015160
  0
VERTEX
  8
0
 10
490.873246
 20
656.310526
 42
-0.022395
  0
VERTEX
  8
0
 10
495.042102
 20
647.000000
 42
-0.004929
  0
VERTEX
  8
0
 10
497.987913
 20
639.321926
 42
-0.006491
  0
VERTEX
  8
0
 10
500.514210
 20
632.259038
 42
-0.001654
  0
VERTEX
  8
0
 10
502.683632
 20
625.867444
 42
-0.284662
  0
VERTEX
  8
0
 10
502.524834
 20
625.191501
 42
-0.219943
  0
VERTEX
  8
0
 10
502.164278
 20
625.058903
 42
-0.005358
  0
VERTEX
  8
0
 10
500.355162
 20
625.224537
 42
-0.010667
  0
VERTEX
  8
0
 10
498.200332
 20
625.491688
 42
-0.006933
  0
VERTEX
  8
0
 10
495.722605
 20
625.887851
 42
0.032831
  0
VERTEX
  8
0
 10
487.475164
 20
626.771830
 42
0.013113
  0
VERTEX
  8
0
 10
476.106594
 20
626.941372
 42
0.013235
  0
VERTEX
  8
0
 10
464.537983
 20
626.504114
 42
0.026872
  0
VERTEX
  8
0
 10
455.500000
 20
625.432857
 42
0.077322
  0
VERTEX
  8
0
 10
420.520985
 20
613.605962
 42
0.076798
  0
VERTEX
  8
0
 10
390.696369
 20
591.691880
 42
0.075676
  0
VERTEX
  8
0
 10
368.538141
 20
561.476762
 42
0.071832
  0
VERTEX
  8
0
 10
355.881539
 20
525.500000
 42
0.038345
  0
VERTEX
  8
0
 10
354.723022
 20
515.744843
 42
0.012797
  0
VERTEX
  8
0
 10
354.493446
 20
501.362362
 42
0.012804
  0
VERTEX
  8
0
 10
355.000351
 20
486.983067
 42
0.038185
  0
VERTEX
  8
0
 10
356.346450
 20
477.231820
 42
0.027459
  0
VERTEX
  8
0
 10
360.657731
 20
461.557391
 42
0.027775
  0
VERTEX
  8
0
 10
366.647386
 20
446.511287
 42
0.028041
  0
VERTEX
  8
0
 10
374.203983
 20
432.359812
 42
0.029301
  0
VERTEX
  8
0
 10
383.196809
 20
419.358207
 42
-0.004486
  0
VERTEX
  8
0
 10
385.037585
 20
416.960404
 42
-0.006825
  0
VERTEX
  8
0
 10
386.589063
 20
414.841906
 42
-0.002945
  0
VERTEX
  8
0
 10
387.872478
 20
413.015626
 42
-0.152843
  0
VERTEX
  8
0
 10
388.000000
 20
412.608207
 42
-0.319679
  0
VERTEX
  8
0
 10
387.831298
 20
412.371311
 42
-0.032719
  0
VERTEX
  8
0
 10
387.129016
 20
412.178661
 42
-0.031275
  0
VERTEX
  8
0
 10
386.171463
 20
412.043926
 42
-0.019318
  0
VERTEX
  8
0
 10
385.034947
 20
412.000000
 42
0.065579
  0
VERTEX
  8
0
 10
380.935196
 20
411.459961
 42
0.030916
  0
VERTEX
  8
0
 10
375.863406
 20
409.758063
 42
0.024066
  0
VERTEX
  8
0
 10
369.665339
 20
406.887766
 42
0.011582
  0
VERTEX
  8
0
 10
362.000000
 20
402.650499
 42
-0.006496
  0
VERTEX
  8
0
 10
352.302040
 20
397.160105
 42
-0.010349
  0
VERTEX
  8
0
 10
343.855590
 20
392.747083
 42
-0.012083
  0
VERTEX
  8
0
 10
336.462299
 20
389.297115
 42
-0.019540
  0
VERTEX
  8
0
 10
330.000000
 20
386.765611
 42
-0.022988
  0
VERTEX
  8
0
 10
326.092482
 20
385.606713
 42
-0.030890
  0
VERTEX
  8
0
 10
322.461087
 20
384.943693
 42
-0.023367
  0
VERTEX
  8
0
 10
318.075270
 20
384.626902
 42
-0.007362
  0
VERTEX
  8
0
 10
311.500000
 20
384.556826
 42
-0.006083
  0
VERTEX
  8
0
 10
304.203110
 20
384.675273
 42
-0.034190
  0
VERTEX
  8
0
 10
300.322351
 20
385.051908
 42
-0.048194
  0
VERTEX
  8
0
 10
297.135143
 20
385.904601
 42
-0.019738
  0
VERTEX
  8
0
 10
293.000000
 20
387.639263
 42
-0.013181
  0
VERTEX
  8
0
 10
290.278789
 20
388.997759
 42
-0.011183
  0
VERTEX
  8
0
 10
287.477391
 20
390.571201
 42
-0.011332
  0
VERTEX
  8
0
 10
284.989556
 20
392.119817
 42
-0.030841
  0
VERTEX
  8
0
 10
283.327288
 20
393.360315
 42
0.000000
  0
VERTEX
  8
0
 10
280.154576
 20
396.047720
 42
0.000000
  0
VERTEX
  8
0
 10
293.882282
 20
409.773860
 42
0.013076
  0
VERTEX
  8
0
 10
303.953650
 20
420.385018
 42
0.026297
  0
VERTEX
  8
0
 10
311.215056
 20
429.354047
 42
0.027723
  0
VERTEX
  8
0
 10
317.252154
 20
438.719931
 42
0.016362
  0
VERTEX
  8
0
 10
323.451114
 20
450.500000
 42
0.017790
  0
VERTEX
  8
0
 10
330.124808
 20
465.601731
 42
0.037738
  0
VERTEX
  8
0
 10
333.962996
 20
477.789242
 42
0.038737
  0
VERTEX
  8
0
 10
335.868758
 20
490.212262
 42
0.019757
  0
VERTEX
  8
0
 10
336.425884
 20
506.000000
 42
0.004447
  0
VERTEX
  8
0
 10
336.299397
 20
515.633609
 42
0.016442
  0
VERTEX
  8
0
 10
335.965685
 20
521.705640
 42
0.023956
  0
VERTEX
  8
0
 10
335.316444
 20
526.461049
 42
0.021263
  0
VERTEX
  8
0
 10
334.196701
 20
531.328567
 42
0.028621
  0
VERTEX
  8
0
 10
329.953598
 20
543.885837
 42
0.034879
  0
VERTEX
  8
0
 10
324.526328
 20
555.040959
 42
0.035100
  0
VERTEX
  8
0
 10
317.633035
 20
565.276128
 42
0.029624
  0
VERTEX
  8
0
 10
309.000000
 20
575.077308
 42
0.026674
  0
VERTEX
  8
0
 10
299.573583
 20
583.617553
 42
0.036479
  0
VERTEX
  8
0
 10
290.186719
 20
590.176161
 42
0.034222
  0
VERTEX
  8
0
 10
279.485495
 20
595.591965
 42
0.019868
  0
VERTEX
  8
0
 10
266.000000
 20
600.673507
 42
0.064038
  0
VERTEX
  8
0
 10
257.871635
 20
602.259773
 42
0.019028
  0
VERTEX
  8
0
 10
245.193491
 20
602.599337
 42
0.019705
  0
VERTEX
  8
0
 10
232.183944
 20
601.939448
 42
0.044698
  0
VERTEX
  8
0
 10
222.500000
 20
600.183054
 42
0.024382
  0
VERTEX
  8
0
 10
215.428941
 20
597.859292
 42
0.014554
  0
VERTEX
  8
0
 10
207.255680
 20
594.448192
 42
0.014587
  0
VERTEX
  8
0
 10
199.405826
 20
590.620880
 42
0.027720
  0
VERTEX
  8
0
 10
193.373038
 20
587.018995
 42
-0.031235
  0
VERTEX
  8
0
 10
190.139573
 20
585.119124
 42
-0.494917
  0
VERTEX
  8
0
 10
189.149984
 20
585.597601
 42
-0.119075
  0
VERTEX
  8
0
 10
189.226321
 20
587.731871
 42
-0.004047
  0
VERTEX
  8
0
 10
191.570020
 20
595.855386
 42
-0.008438
  0
VERTEX
  8
0
 10
196.348224
 20
610.987793
 42
-0.012769
  0
VERTEX
  8
0
 10
201.061031
 20
623.968495
 42
-0.014049
  0
VERTEX
  8
0
 10
206.042588
 20
635.688944
 42
-0.014513
  0
VERTEX
  8
0
 10
211.624394
 20
646.982998
 42
-0.013649
  0
VERTEX
  8
0
 10
215.993723
 20
654.697412
 42
-0.010179
  0
VERTEX
  8
0
 10
221.213500
 20
662.968072
 42
-0.008992
  0
VERTEX
  8
0
 10
226.233422
 20
670.284800
 42
-0.049364
  0
VERTEX
  8
0
 10
229.380271
 20
673.887521
 42
0.000000
  0
VERTEX
  8
0
 10
231.736725
 20
676.101294
 42
0.000000
  0
VERTEX
  8
0
 10
238.445947
 20
667.991711
 42
0.006875
  0
VERTEX
  8
0
 10
242.220512
 20
663.554953
 42
0.039639
  0
VERTEX
  8
0
 10
244.424890
 20
661.405081
 42
0.081601
  0
VERTEX
  8
0
 10
246.124216
 20
660.407584
 42
0.121353
  0
VERTEX
  8
0
 10
247.827584
 20
660.191064
 42
0.049931
  0
VERTEX
  8
0
 10
249.161212
 20
660.482113
 42
0.121562
  0
VERTEX
  8
0
 10
250.009909
 20
661.010173
 42
0.118658
  0
VERTEX
  8
0
 10
250.527617
 20
661.881597
 42
0.046374
  0
VERTEX
  8
0
 10
250.817428
 20
663.260422
 42
0.124008
  0
VERTEX
  8
0
 10
250.404973
 20
666.360562
 42
0.031389
  0
VERTEX
  8
0
 10
248.214790
 20
670.991378
 42
0.031218
  0
VERTEX
  8
0
 10
245.062805
 20
675.942042
 42
0.033653
  0
VERTEX
  8
0
 10
241.390474
 20
680.331741
 42
0.000000
  0
VERTEX
  8
0
 10
237.719806
 20
684.163483
 42
0.000000
  0
VERTEX
  8
0
 10
244.081015
 20
690.581741
 42
-0.005872
  0
VERTEX
  8
0
 10
246.576781
 20
693.041429
 42
-0.008914
  0
VERTEX
  8
0
 10
248.808717
 20
695.114637
 42
-0.004315
  0
VERTEX
  8
0
 10
250.734204
 20
696.810549
 42
-0.180281
  0
VERTEX
  8
0
 10
251.242559
 20
697.000000
 42
-0.254316
  0
VERTEX
  8
0
 10
251.672954
 20
696.765950
 42
-0.008619
  0
VERTEX
  8
0
 10
252.728315
 20
695.072909
 42
-0.014349
  0
VERTEX
  8
0
 10
253.917674
 20
692.953987
 42
-0.009290
  0
VERTEX
  8
0
 10
255.176576
 20
690.439690
 42
0.033968
  0
VERTEX
  8
0
 10
259.400381
 20
682.950816
 42
0.108461
  0
VERTEX
  8
0
 10
263.483056
 20
678.965968
 42
0.239334
  0
VERTEX
  8
0
 10
266.997115
 20
678.658178
 42
0.187807
  0
VERTEX
  8
0
 10
269.825305
 20
681.312814
 42
0.109730
  0
VERTEX
  8
0
 10
270.537659
 20
684.394494
 42
0.053856
  0
VERTEX
  8
0
 10
270.137501
 20
688.422267
 42
0.040904
  0
VERTEX
  8
0
 10
268.657892
 20
693.409736
 42
0.020204
  0
VERTEX
  8
0
 10
266.018412
 20
699.473356
 42
-0.011538
  0
VERTEX
  8
0
 10
264.663282
 20
702.444691
 42
-0.040938
  0
VERTEX
  8
0
 10
263.999079
 20
704.429144
 42
-0.069917
  0
VERTEX
  8
0
 10
263.858027
 20
705.813398
 42
-0.165143
  0
VERTEX
  8
0
 10
264.223923
 20
706.769811
 42
-0.080462
  0
VERTEX
  8
0
 10
266.448051
 20
708.710682
 42
-0.012304
  0
VERTEX
  8
0
 10
271.530554
 20
711.704386
 42
-0.007480
  0
VERTEX
  8
0
 10
276.892499
 20
714.583284
 42
-0.214237
  0
VERTEX
  8
0
 10
278.421454
 20
714.668514
 42
-0.201191
  0
VERTEX
  8
0
 10
278.948928
 20
714.163663
 42
-0.013673
  0
VERTEX
  8
0
 10
279.741109
 20
712.196780
 42
-0.017868
  0
VERTEX
  8
0
 10
280.561312
 20
709.720137
 42
-0.012353
  0
VERTEX
  8
0
 10
281.318573
 20
706.866283
 42
0.027620
  0
VERTEX
  8
0
 10
284.036907
 20
697.753387
 42
0.072038
  0
VERTEX
  8
0
 10
287.241441
 20
691.730232
 42
0.127814
  0
VERTEX
  8
0
 10
290.787523
 20
688.840458
 42
0.217603
  0
VERTEX
  8
0
 10
294.540964
 20
688.836711
 42
0.062658
  0
VERTEX
  8
0
 10
295.831313
 20
689.632595
 42
0.122687
  0
VERTEX
  8
0
 10
296.556353
 20
690.588698
 42
0.083084
  0
VERTEX
  8
0
 10
296.906757
 20
692.027624
 42
0.018273
  0
VERTEX
  8
0
 10
297.000000
 20
694.578213
 42
0.035104
  0
VERTEX
  8
0
 10
296.830489
 20
696.989629
 42
0.010150
  0
VERTEX
  8
0
 10
296.232984
 20
700.676649
 42
0.010154
  0
VERTEX
  8
0
 10
295.388433
 20
704.816005
 42
0.010668
  0
VERTEX
  8
0
 10
294.388883
 20
708.849652
 42
-0.002385
  0
VERTEX
  8
0
 10
293.378610
 20
712.655408
 42
-0.003225
  0
VERTEX
  8
0
 10
292.503985
 20
716.105835
 42
-0.002183
  0
VERTEX
  8
0
 10
291.801862
 20
719.007137
 42
-0.035201
  0
VERTEX
  8
0
 10
291.638883
 20
720.000000
 42
-0.323389
  0
VERTEX
  8
0
 10
292.420505
 20
721.324215
 42
-0.010809
  0
VERTEX
  8
0
 10
298.381109
 20
723.777207
 42
-0.019499
  0
VERTEX
  8
0
 10
304.964253
 20
726.030619
 42
-0.027231
  0
VERTEX
  8
0
 10
311.012294
 20
727.487339
 42
0.000000
  0
VERTEX
  8
0
 10
314.524587
 20
728.133394
 42
0.000000
  0
VERTEX
  8
0
 10
316.911526
 20
716.993135
 42
0.017006
  0
VERTEX
  8
0
 10
318.878198
 20
709.129818
 42
0.046662
  0
VERTEX
  8
0
 10
320.957871
 20
703.805005
 42
0.072549
  0
VERTEX
  8
0
 10
323.249377
 20
700.529460
 42
0.169788
  0
VERTEX
  8
0
 10
325.866827
 20
699.169642
 42
0.122244
  0
VERTEX
  8
0
 10
327.952399
 20
699.379967
 42
0.092563
  0
VERTEX
  8
0
 10
329.946327
 20
700.543931
 42
0.083928
  0
VERTEX
  8
0
 10
331.541777
 20
702.475669
 42
0.076820
  0
VERTEX
  8
0
 10
332.474405
 20
704.883468
 42
0.079923
  0
VERTEX
  8
0
 10
332.567119
 20
706.516956
 42
0.010612
  0
VERTEX
  8
0
 10
332.137801
 20
709.960530
 42
0.012026
  0
VERTEX
  8
0
 10
331.436420
 20
714.063555
 42
0.009668
  0
VERTEX
  8
0
 10
330.491288
 20
718.439978
 42
-0.007925
  0
VERTEX
  8
0
 10
329.563123
 20
722.666364
 42
-0.012189
  0
VERTEX
  8
0
 10
328.907605
 20
726.353346
 42
-0.006643
  0
VERTEX
  8
0
 10
328.479027
 20
729.432662
 42
-0.233292
  0
VERTEX
  8
0
 10
328.710202
 20
730.100207
 42
-0.162951
  0
VERTEX
  8
0
 10
330.063409
 20
730.763869
 42
-0.011097
  0
VERTEX
  8
0
 10
334.377342
 20
731.243433
 42
-0.015025
  0
VERTEX
  8
0
 10
339.632887
 20
731.551084
 42
-0.010869
  0
VERTEX
  8
0
 10
345.500000
 20
731.590315
 42
0.000000
  0
VERTEX
  8
0
 10
351.500000
 20
731.500000
 42
0.000000
  0
SEQEND
  0
POLYLINE
  8
0
 66
1
 70
1
  0
VERTEX
  8
0
 10
509.500000
 20
613.541617
 42
-0.030909
  0
VERTEX
  8
0
 10
520.819309
 20
609.728429
 42
-0.034691
  0
VERTEX
  8
0
 10
531.136356
 20
604.667046
 42
-0.033394
  0
VERTEX
  8
0
 10
540.976969
 20
598.046742
 42
-0.025155
  0
VERTEX
  8
0
 10
550.873776
 20
589.552734
 42
-0.050324
  0
VERTEX
  8
0
 10
566.309494
 20
571.618538
 42
-0.059890
  0
VERTEX
  8
0
 10
576.820190
 20
551.935136
 42
-0.054104
  0
VERTEX
  8
0
 10
583.067204
 20
528.707192
 42
-0.031706
  0
VERTEX
  8
0
 10
585.693548
 20
500.000000
 42
-0.017063
  0
VERTEX
  8
0
 10
585.567586
 20
479.945981
 42
-0.028834
  0
VERTEX
  8
0
 10
583.922608
 20
463.224153
 42
-0.033358
  0
VERTEX
  8
0
 10
580.638836
 20
448.703371
 42
-0.037895
  0
VERTEX
  8
0
 10
575.549007
 20
435.377393
 42
-0.017469
  0
VERTEX
  8
0
 10
571.114865
 20
426.766595
 42
-0.024083
  0
VERTEX
  8
0
 10
566.504966
 20
419.391219
 42
-0.023911
  0
VERTEX
  8
0
 10
561.180333
 20
412.453428
 42
-0.016856
  0
VERTEX
  8
0
 10
554.578182
 20
405.166260
 42
-0.024355
  0
VERTEX
  8
0
 10
544.924490
 20
396.131940
 42
-0.035344
  0
VERTEX
  8
0
 10
535.517536
 20
389.231202
 42
-0.036607
  0
VERTEX
  8
0
 10
525.495526
 20
383.897573
 42
-0.029012
  0
VERTEX
  8
0
 10
514.000000
 20
379.598450
 42
-0.054981
  0
VERTEX
  8
0
 10
493.796820
 20
375.712605
 42
-0.051777
  0
VERTEX
  8
0
 10
472.809042
 20
376.201628
 42
-0.050413
  0
VERTEX
  8
0
 10
451.849630
 20
381.053871
 42
-0.046857
  0
VERTEX
  8
0
 10
431.733833
 20
390.082566
 42
-0.046654
  0
VERTEX
  8
0
 10
411.262161
 20
404.353209
 42
-0.044302
  0
VERTEX
  8
0
 10
393.400258
 20
422.400392
 42
-0.044452
  0
VERTEX
  8
0
 10
379.051257
 20
443.246632
 42
-0.047717
  0
VERTEX
  8
0
 10
369.005374
 20
465.824568
 42
-0.070691
  0
VERTEX
  8
0
 10
363.159479
 20
497.566111
 42
-0.069569
  0
VERTEX
  8
0
 10
366.332312
 20
529.861430
 42
-0.069828
  0
VERTEX
  8
0
 10
378.217738
 20
559.943617
 42
-0.072130
  0
VERTEX
  8
0
 10
397.824904
 20
585.222096
 42
-0.023702
  0
VERTEX
  8
0
 10
407.903346
 20
594.055800
 42
-0.030846
  0
VERTEX
  8
0
 10
417.955990
 20
601.090894
 42
-0.031417
  0
VERTEX
  8
0
 10
428.642651
 20
606.737932
 42
-0.026142
  0
VERTEX
  8
0
 10
440.621693
 20
611.398468
 42
-0.015742
  0
VERTEX
  8
0
 10
450.685851
 20
614.371996
 42
-0.032042
  0
VERTEX
  8
0
 10
458.776788
 20
615.942658
 42
-0.027628
  0
VERTEX
  8
0
 10
467.730993
 20
616.592409
 42
-0.008984
  0
VERTEX
  8
0
 10
481.000000
 20
616.582157
 42
-0.004247
  0
VERTEX
  8
0
 10
491.645307
 20
616.292168
 42
-0.017640
  0
VERTEX
  8
0
 10
498.054544
 20
615.836305
 42
-0.024507
  0
VERTEX
  8
0
 10
503.330471
 20
615.010365
 42
-0.014712
  0
SEQEND
  0
POLYLINE
  8
0
 66
1
 70
1
  0
VERTEX
  8
0
 10
268.613843
 20
589.182178
 42
-0.050753
  0
VERTEX
  8
0
 10
286.473139
 20
580.963148
 42
-0.056114
  0
VERTEX
  8
0
 10
301.662840
 20
569.539012
 42
-0.056544
  0
VERTEX
  8
0
 10
313.839643
 20
555.107856
 42
-0.052908
  0
VERTEX
  8
0
 10
322.793862
 20
538.000000
 42
-0.055715
  0
VERTEX
  8
0
 10
327.211440
 20
521.732161
 42
-0.043356
  0
VERTEX
  8
0
 10
328.442894
 20
503.430644
 42
-0.042429
  0
VERTEX
  8
0
 10
326.487107
 20
484.743399
 42
-0.047062
  0
VERTEX
  8
0
 10
321.417368
 20
467.319094
 42
-0.046518
  0
VERTEX
  8
0
 10
308.276630
 20
441.460326
 42
-0.051905
  0
VERTEX
  8
0
 10
290.984719
 20
419.492336
 42
-0.055390
  0
VERTEX
  8
0
 10
270.714084
 20
402.777136
 42
-0.070050
  0
VERTEX
  8
0
 10
248.748875
 20
392.462501
 42
-0.013415
  0
VERTEX
  8
0
 10
243.341716
 20
390.952482
 42
-0.035192
  0
VERTEX
  8
0
 10
239.376709
 20
390.250854
 42
-0.028428
  0
VERTEX
  8
0
 10
234.898721
 20
390.035985
 42
-0.006357
  0
VERTEX
  8
0
 10
227.248875
 20
390.201303
 42
-0.006490
  0
VERTEX
  8
0
 10
219.678575
 20
390.559640
 42
-0.029555
  0
VERTEX
  8
0
 10
215.301575
 20
391.084623
 42
-0.038621
  0
VERTEX
  8
0
 10
211.585442
 20
392.055973
 42
-0.016716
  0
VERTEX
  8
0
 10
206.808814
 20
393.888344
 42
-0.053115
  0
VERTEX
  8
0
 10
192.915866
 20
401.584123
 42
-0.047402
  0
VERTEX
  8
0
 10
180.366446
 20
412.299365
 42
-0.044251
  0
VERTEX
  8
0
 10
169.317583
 20
425.937458
 42
-0.035434
  0
VERTEX
  8
0
 10
159.894349
 20
442.334016
 42
-0.030361
  0
VERTEX
  8
0
 10
155.039045
 20
454.143384
 42
-0.030369
  0
VERTEX
  8
0
 10
151.650191
 20
466.452848
 42
-0.028975
  0
VERTEX
  8
0
 10
149.661424
 20
479.612061
 42
-0.023020
  0
VERTEX
  8
0
 10
149.000000
 20
493.971028
 42
-0.019205
  0
VERTEX
  8
0
 10
149.387722
 20
504.061823
 42
-0.031299
  0
VERTEX
  8
0
 10
150.577841
 20
512.544763
 42
-0.031625
  0
VERTEX
  8
0
 10
152.806456
 20
520.750617
 42
-0.020129
  0
VERTEX
  8
0
 10
156.373987
 20
529.984847
 42
-0.022078
  0
VERTEX
  8
0
 10
160.933071
 20
539.349237
 42
-0.029739
  0
VERTEX
  8
0
 10
165.913320
 20
547.351670
 42
-0.027915
  0
VERTEX
  8
0
 10
172.059517
 20
555.078338
 42
-0.016393
  0
VERTEX
  8
0
 10
180.203683
 20
563.637469
 42
-0.023409
  0
VERTEX
  8
0
 10
192.769540
 20
574.897467
 42
-0.043528
  0
VERTEX
  8
0
 10
204.077704
 20
582.581374
 42
-0.045109
  0
VERTEX
  8
0
 10
216.265820
 20
588.019551
 42
-0.027222
  0
VERTEX
  8
0
 10
231.500000
 20
592.319368
 42
-0.042042
  0
VERTEX
  8
0
 10
232.822888
 20
592.501245
 42
-0.003182
  0
VERTEX
  8
0
 10
236.437500
 20
592.668470
 42
-0.004369
  0
VERTEX
  8
0
 10
240.758051
 20
592.803013
 42
-0.003311
  0
VERTEX
  8
0
 10
245.500000
 20
592.877809
 42
-0.007890
  0
VERTEX
  8
0
 10
252.959595
 20
592.828364
 42
-0.034048
  0
VERTEX
  8
0
 10
257.373323
 20
592.427931
 42
-0.034557
  0
VERTEX
  8
0
 10
261.661541
 20
591.434571
 42
-0.008293
  0
SEQEND
  0
POLYLINE
  8
0
 66
1
 70
1
  0
VERTEX
  8
0
 10
190.873298
 20
391.289161
 42
0.033460
  0
VERTEX
  8
0
 10
197.444181
 20
387.527463
 42
0.024112
  0
VERTEX
  8
0
 10
205.212408
 20
384.198793
 42
0.023917
  0
VERTEX
  8
0
 10
213.357844
 20
381.600447
 42
0.030625
  0
VERTEX
  8
0
 10
221.071840
 20
380.038880
 42
0.030777
  0
VERTEX
  8
0
 10
228.595003
 20
379.458695
 42
0.028810
  0
VERTEX
  8
0
 10
236.302143
 20
379.783920
 42
0.028214
  0
VERTEX
  8
0
 10
244.079875
 20
381.008705
 42
0.026740
  0
VERTEX
  8
0
 10
251.813879
 20
383.116468
 42
-0.007980
  0
VERTEX
  8
0
 10
254.266325
 20
383.884724
 42
-0.012428
  0
VERTEX
  8
0
 10
256.404971
 20
384.459985
 42
-0.006633
  0
VERTEX
  8
0
 10
258.195375
 20
384.869094
 42
-0.254483
  0
VERTEX
  8
0
 10
258.576830
 20
384.756503
 42
-0.274966
  0
VERTEX
  8
0
 10
258.670965
 20
384.385874
 42
-0.008478
  0
VERTEX
  8
0
 10
258.178990
 20
382.822609
 42
-0.014424
  0
VERTEX
  8
0
 10
257.492353
 20
380.945631
 42
-0.009211
  0
VERTEX
  8
0
 10
256.591867
 20
378.803645
 42
0.093518
  0
VERTEX
  8
0
 10
250.719332
 20
353.710857
 42
0.115082
  0
VERTEX
  8
0
 10
255.148900
 20
330.139237
 42
0.121119
  0
VERTEX
  8
0
 10
269.255433
 20
311.811267
 42
0.111234
  0
VERTEX
  8
0
 10
290.686244
 20
301.400773
 42
0.047072
  0
VERTEX
  8
0
 10
300.069575
 20
300.111275
 42
0.022621
  0
VERTEX
  8
0
 10
312.229444
 20
300.144580
 42
0.022631
  0
VERTEX
  8
0
 10
324.433539
 20
301.285643
 42
0.043539
  0
VERTEX
  8
0
 10
334.000000
 20
303.480256
 42
0.049011
  0
VERTEX
  8
0
 10
356.520251
 20
313.280904
 42
0.058560
  0
VERTEX
  8
0
 10
375.272823
 20
326.822086
 42
0.061658
  0
VERTEX
  8
0
 10
389.616244
 20
343.671008
 42
0.064793
  0
VERTEX
  8
0
 10
399.133493
 20
363.239058
 42
0.011587
  0
VERTEX
  8
0
 10
400.871372
 20
368.855082
 42
0.037981
  0
VERTEX
  8
0
 10
401.646495
 20
372.659256
 42
0.033223
  0
VERTEX
  8
0
 10
401.889142
 20
376.791280
 42
0.007342
  0
VERTEX
  8
0
 10
401.729790
 20
383.888065
 42
0.005602
  0
VERTEX
  8
0
 10
401.506298
 20
388.507961
 42
0.007024
  0
VERTEX
  8
0
 10
401.190980
 20
392.785007
 42
0.005756
  0
VERTEX
  8
0
 10
400.835601
 20
396.357472
 42
0.053511
  0
VERTEX
  8
0
 10
400.501339
 20
397.869404
 42
-0.359341
  0
VERTEX
  8
0
 10
400.732797
 20
398.474322
 42
-0.260578
  0
VERTEX
  8
0
 10
401.488191
 20
398.478547
 42
-0.036651
  0
VERTEX
  8
0
 10
403.552432
 20
397.133502
 42
-0.004576
  0
VERTEX
  8
0
 10
407.780031
 20
393.853012
 42
0.023597
  0
VERTEX
  8
0
 10
419.564319
 20
385.406570
 42
0.025806
  0
VERTEX
  8
0
 10
431.754215
 20
378.376897
 42
0.026023
  0
VERTEX
  8
0
 10
444.507312
 20
372.689946
 42
0.024859
  0
VERTEX
  8
0
 10
457.976287
 20
368.260529
 42
0.015013
  0
VERTEX
  8
0
 10
463.894411
 20
366.824886
 42
0.027294
  0
VERTEX
  8
0
 10
468.811456
 20
366.064698
 42
0.019472
  0
VERTEX
  8
0
 10
474.776529
 20
365.707113
 42
0.004325
  0
VERTEX
  8
0
 10
485.000000
 20
365.581496
 42
0.015259
  0
VERTEX
  8
0
 10
498.846022
 20
365.953741
 42
0.038308
  0
VERTEX
  8
0
 10
508.848737
 20
367.301895
 42
0.040448
  0
VERTEX
  8
0
 10
518.208111
 20
370.109155
 42
0.018789
  0
VERTEX
  8
0
 10
529.850049
 20
375.166727
 42
-0.003685
  0
VERTEX
  8
0
 10
533.842584
 20
377.046487
 42
-0.006013
  0
VERTEX
  8
0
 10
537.259226
 20
378.574869
 42
-0.001534
  0
VERTEX
  8
0
 10
540.236664
 20
379.853205
 42
-0.306017
  0
VERTEX
  8
0
 10
540.538667
 20
379.794666
 42
-0.178070
  0
VERTEX
  8
0
 10
540.814117
 20
379.198713
 42
-0.000044
  0
VERTEX
  8
0
 10
543.218889
 20
349.360340
 42
-0.000972
  0
VERTEX
  8
0
 10
545.316386
 20
322.657247
 42
-0.002884
  0
VERTEX
  8
0
 10
546.613520
 20
304.334582
 42
0.000000
  0
VERTEX
  8
0
 10
547.274258
 20
294.169164
 42
0.000000
  0
VERTEX
  8
0
 10
542.387129
 20
288.594610
 42
-0.027872
  0
VERTEX
  8
0
 10
529.605818
 20
275.558081
 42
-0.009355
  0
VERTEX
  8
0
 10
509.571994
 20
257.957077
 42
-0.009496
  0
VERTEX
  8
0
 10
488.683238
 20
240.956202
 42
-0.024271
  0
VERTEX
  8
0
 10
472.757724
 20
229.691792
 42
0.000000
  0
VERTEX
  8
0
 10
467.015447
 20
226.034724
 42
0.000000
  0
VERTEX
  8
0
 10
435.757724
 20
225.540161
 42
-0.005001
  0
VERTEX
  8
0
 10
419.288504
 20
225.444339
 42
-0.001424
  0
VERTEX
  8
0
 10
393.706956
 20
225.624241
 42
-0.001434
  0
VERTEX
  8
0
 10
364.826665
 20
225.992424
 42
-0.001519
  0
VERTEX
  8
0
 10
336.500000
 20
226.520884
 42
0.001124
  0
VERTEX
  8
0
 10
306.760826
 20
227.099204
 42
0.002462
  0
VERTEX
  8
0
 10
283.988044
 20
227.378686
 42
0.002021
  0
VERTEX
  8
0
 10
266.701553
 20
227.435837
 42
0.028350
  0
VERTEX
  8
0
 10
260.500000
 20
227.079351
 42
-0.012048
  0
VERTEX
  8
0
 10
255.397418
 20
226.618822
 42
-0.055324
  0
VERTEX
  8
0
 10
252.433328
 20
226.751164
 42
-0.050097
  0
VERTEX
  8
0
 10
249.439115
 20
227.532519
 42
-0.008748
  0
VERTEX
  8
0
 10
244.000000
 20
229.660119
 42
-0.022293
  0
VERTEX
  8
0
 10
229.268120
 20
236.504807
 42
-0.013407
  0
VERTEX
  8
0
 10
212.408256
 20
245.854539
 42
-0.013033
  0
VERTEX
  8
0
 10
196.916736
 20
255.549921
 42
-0.040451
  0
VERTEX
  8
0
 10
187.232514
 20
263.161536
 42
-0.057361
  0
VERTEX
  8
0
 10
184.568154
 20
266.266301
 42
-0.096239
  0
VERTEX
  8
0
 10
183.225495
 20
269.418021
 42
-0.028555
  0
VERTEX
  8
0
 10
182.384966
 20
274.841982
 42
-0.001171
  0
VERTEX
  8
0
 10
180.525540
 20
294.500000
 42
-0.005002
  0
VERTEX
  8
0
 10
178.656168
 20
317.256268
 42
-0.004843
  0
VERTEX
  8
0
 10
177.219824
 20
340.291230
 42
-0.005064
  0
VERTEX
  8
0
 10
176.299514
 20
361.952211
 42
-0.008084
  0
VERTEX
  8
0
 10
176.000000
 20
380.476543
 42
0.000000
  0
VERTEX
  8
0
 10
176.000000
 20
403.169973
 42
0.000000
  0
VERTEX
  8
0
 10
180.623298
 20
399.100384
 42
0.011406
  0
VERTEX
  8
0
 10
182.798275
 20
397.272232
 42
0.006246
  0
VERTEX
  8
0
 10
185.541346
 20
395.127131
 42
0.006222
  0
VERTEX
  8
0
 10
188.382779
 20
393.017126
 42
0.009866
  0
SEQEND
  0
POLYLINE
  8
0
 66
1
 70
1
  0
VERTEX
  8
0
 10
325.543296
 20
347.256519
 42
0.010426
  0
VERTEX
  8
0
 10
323.267636
 20
347.032868
 42
0.059553
  0
VERTEX
  8
0
 10
322.089578
 20
346.747343
 42
0.301110
  0
VERTEX
  8
0
 10
321.820824
 20
346.378040
 42
0.268949
  0
VERTEX
  8
0
 10
322.043296
 20
345.952080
 42
-0.440997
  0
VERTEX
  8
0
 10
322.111556
 20
345.568465
 42
-0.182192
  0
VERTEX
  8
0
 10
321.606762
 20
345.254947
 42
-0.039427
  0
VERTEX
  8
0
 10
320.026193
 20
345.069923
 42
-0.008811
  0
VERTEX
  8
0
 10
317.309017
 20
345.015313
 42
-0.014155
  0
VERTEX
  8
0
 10
314.895073
 20
345.077692
 42
-0.020340
  0
VERTEX
  8
0
 10
312.766274
 20
345.280149
 42
-0.016726
  0
VERTEX
  8
0
 10
311.064869
 20
345.570355
 42
-0.206573
  0
VERTEX
  8
0
 10
310.538079
 20
345.938387
 42
-0.505528
  0
VERTEX
  8
0
 10
310.839134
 20
346.686593
 42
-0.031396
  0
VERTEX
  8
0
 10
313.582515
 20
347.212373
 42
-0.023443
  0
VERTEX
  8
0
 10
317.899315
 20
347.557193
 42
-0.008675
  0
VERTEX
  8
0
 10
324.000000
 20
347.651649
 42
-0.000677
  0
VERTEX
  8
0
 10
327.773153
 20
347.639491
 42
-0.061595
  0
VERTEX
  8
0
 10
328.322407
 20
347.569017
 42
-0.845527
  0
VERTEX
  8
0
 10
328.314895
 20
347.479408
 42
-0.001567
  0
SEQEND
  0
POLYLINE
  8
0
 66
1
 70
1
  0
VERTEX
  8
0
 10
338.000000
 20
346.606989
 42
-0.291414
  0
VERTEX
  8
0
 10
337.618601
 20
346.008169
 42
-0.069655
  0
VERTEX
  8
0
 10
336.436609
 20
345.645818
 42
-0.066700
  0
VERTEX
  8
0
 10
335.155087
 20
345.613548
 42
-0.231296
  0
VERTEX
  8
0
 10
334.473008
 20
346.043674
 42
-0.214542
  0
VERTEX
  8
0
 10
334.425420
 20
346.405148
 42
-0.177225
  0
VERTEX
  8
0
 10
334.660421
 20
346.719079
 42
-0.099152
  0
VERTEX
  8
0
 10
335.193244
 20
346.931736
 42
-0.045552
  0
VERTEX
  8
0
 10
335.940983
 20
347.000000
 42
-0.017964
  0
VERTEX
  8
0
 10
336.730252
 20
346.971635
 42
-0.029198
  0
VERTEX
  8
0
 10
337.395164
 20
346.884553
 42
-0.029196
  0
VERTEX
  8
0
 10
337.887487
 20
346.760424
 42
-0.327354
  0
SEQEND
  0
POLYLINE
  8
0
 66
1
 70
1
  0
VERTEX
  8
0
 10
300.000000
 20
343.125000
 42
-0.315736
  0
VERTEX
  8
0
 10
299.529021
 20
342.453510
 42
-0.022031
  0
VERTEX
  8
0
 10
297.207171
 20
341.726567
 42
-0.029042
  0
VERTEX
  8
0
 10
294.539547
 20
341.182210
 42
-0.041281
  0
VERTEX
  8
0
 10
292.125000
 20
341.035435
 42
-0.613419
  0
VERTEX
  8
0
 10
291.870582
 20
341.564094
 42
-0.110138
  0
VERTEX
  8
0
 10
292.988341
 20
342.504591
 42
-0.039766
  0
VERTEX
  8
0
 10
295.553935
 20
343.591140
 42
-0.076490
  0
VERTEX
  8
0
 10
297.750000
 20
343.964565
 42
-0.037057
  0
VERTEX
  8
0
 10
298.611707
 20
343.914242
 42
-0.056241
  0
VERTEX
  8
0
 10
299.339063
 20
343.732560
 42
-0.074340
  0
VERTEX
  8
0
 10
299.835890
 20
343.457553
 42
-0.233311
  0
SEQEND
  0
POLYLINE
  8
0
 66
1
 70
1
  0
VERTEX
  8
0
 10
339.662281
 20
337.750000
 42
-0.174857
  0
VERTEX
  8
0
 10
339.474999
 20
337.540618
 42
-0.447206
  0
VERTEX
  8
0
 10
339.306058
 20
337.601562
 42
-0.078554
  0
VERTEX
  8
0
 10
339.189089
 20
338.108560
 42
-0.017491
  0
VERTEX
  8
0
 10
339.157895
 20
339.000000
 42
-0.017491
  0
VERTEX
  8
0
 10
339.189089
 20
339.891440
 42
-0.078554
  0
VERTEX
  8
0
 10
339.306058
 20
340.398438
 42
-0.447206
  0
VERTEX
  8
0
 10
339.474999
 20
340.459382
 42
-0.174857
  0
VERTEX
  8
0
 10
339.662281
 20
340.250000
 42
-0.057986
  0
VERTEX
  8
0
 10
339.818615
 20
339.679992
 42
-0.037979
  0
VERTEX
  8
0
 10
339.870340
 20
339.000000
 42
-0.037979
  0
VERTEX
  8
0
 10
339.818615
 20
338.320008
 42
-0.057986
  0
SEQEND
  0
POLYLINE
  8
0
 66
1
 70
1
  0
VERTEX
  8
0
 10
283.500000
 20
338.000000
 42
-0.146489
  0
VERTEX
  8
0
 10
283.602013
 20
337.620597
 42
-0.191582
  0
VERTEX
  8
0
 10
283.461189
 20
337.293750
 42
-0.134005
  0
VERTEX
  8
0
 10
283.074636
 20
337.072951
 42
-0.063222
  0
VERTEX
  8
0
 10
282.500000
 20
337.000000
 42
-0.063222
  0
VERTEX
  8
0
 10
281.925364
 20
337.072951
 42
-0.134005
  0
VERTEX
  8
0
 10
281.538811
 20
337.293750
 42
-0.191582
  0
VERTEX
  8
0
 10
281.397987
 20
337.620597
 42
-0.146489
  0
VERTEX
  8
0
 10
281.500000
 20
338.000000
 42
-0.025622
  0
VERTEX
  8
0
 10
281.764631
 20
338.382847
 42
-0.032351
  0
VERTEX
  8
0
 10
282.048689
 20
338.706250
 42
-0.033983
  0
VERTEX
  8
0
 10
282.313296
 20
338.937141
 42
-0.163822
  0
VERTEX
  8
0
 10
282.500000
 20
339.000000
 42
-0.163822
  0
VERTEX
  8
0
 10
282.686704
 20
338.937141
 42
-0.033983
  0
VERTEX
  8
0
 10
282.951311
 20
338.706250
 42
-0.032351
  0
VERTEX
  8
0
 10
283.235369
 20
338.382847
 42
-0.025622
  0
SEQEND
  0
POLYLINE
  8
0
 66
1
 70
1
  0
VERTEX
  8
0
 10
362.000000
 20
338.000000
 42
-0.099038
  0
VERTEX
  8
0
 10
361.923658
 20
337.618362
 42
-0.097945
  0
VERTEX
  8
0
 10
361.706250
 20
337.293750
 42
-0.097945
  0
VERTEX
  8
0
 10
361.381638
 20
337.076342
 42
-0.099038
  0
VERTEX
  8
0
 10
361.000000
 20
337.000000
 42
-0.099038
  0
VERTEX
  8
0
 10
360.618362
 20
337.076342
 42
-0.097945
  0
VERTEX
  8
0
 10
360.293750
 20
337.293750
 42
-0.097945
  0
VERTEX
  8
0
 10
360.076342
 20
337.618362
 42
-0.099038
  0
VERTEX
  8
0
 10
360.000000
 20
338.000000
 42
-0.099038
  0
VERTEX
  8
0
 10
360.076342
 20
338.381638
 42
-0.097945
  0
VERTEX
  8
0
 10
360.293750
 20
338.706250
 42
-0.097945
  0
VERTEX
  8
0
 10
360.618362
 20
338.923658
 42
-0.099038
  0
VERTEX
  8
0
 10
361.000000
 20
339.000000
 42
-0.099038
  0
VERTEX
  8
0
 10
361.381638
 20
338.923658
 42
-0.097945
  0
VERTEX
  8
0
 10
361.706250
 20
338.706250
 42
-0.097945
  0
VERTEX
  8
0
 10
361.923658
 20
338.381638
 42
-0.099038
  0
SEQEND
  0
POLYLINE
  8
0
 66
1
 70
1
  0
VERTEX
  8
0
 10
365.000000
 20
336.571429
 42
-0.153536
  0
VERTEX
  8
0
 10
364.922803
 20
336.325957
 42
-0.014147
  0
VERTEX
  8
0
 10
364.538393
 20
335.807143
 42
-0.017208
  0
VERTEX
  8
0
 10
364.030458
 20
335.204570
 42
-0.012651
  0
VERTEX
  8
0
 10
363.428571
 20
334.571429
 42
0.015209
  0
VERTEX
  8
0
 10
362.655294
 20
333.749620
 42
0.150617
  0
VERTEX
  8
0
 10
362.461878
 20
333.322917
 42
0.376022
  0
VERTEX
  8
0
 10
362.626631
 20
333.078306
 42
0.064771
  0
VERTEX
  8
0
 10
363.228571
 20
333.000000
 42
0.045753
  0
VERTEX
  8
0
 10
363.825678
 20
333.054753
 42
0.031342
  0
VERTEX
  8
0
 10
364.486312
 20
333.220312
 42
0.031660
  0
VERTEX
  8
0
 10
365.108010
 20
333.462529
 42
0.054115
  0
VERTEX
  8
0
 10
365.584406
 20
333.750000
 42
-0.461289
  0
VERTEX
  8
0
 10
365.623868
 20
333.741451
 42
-0.333545
  0
VERTEX
  8
0
 10
365.616381
 20
333.692188
 42
-0.010131
  0
VERTEX
  8
0
 10
365.121723
 20
333.225958
 42
-0.002665
  0
VERTEX
  8
0
 10
364.310897
 20
332.500000
 42
-0.011160
  0
VERTEX
  8
0
 10
360.436356
 20
329.219389
 42
-0.038208
  0
VERTEX
  8
0
 10
357.721685
 20
327.346666
 42
-0.062874
  0
VERTEX
  8
0
 10
355.663773
 20
326.471930
 42
-0.146962
  0
VERTEX
  8
0
 10
354.007569
 20
326.497598
 42
-0.039559
  0
VERTEX
  8
0
 10
353.239269
 20
326.810191
 42
-0.049576
  0
VERTEX
  8
0
 10
352.589723
 20
327.221559
 42
-0.057943
  0
VERTEX
  8
0
 10
352.141590
 20
327.664336
 42
-0.170539
  0
VERTEX
  8
0
 10
352.000000
 20
328.067388
 42
-0.207968
  0
VERTEX
  8
0
 10
352.281525
 20
328.714960
 42
-0.196020
  0
VERTEX
  8
0
 10
352.956694
 20
328.971785
 42
-0.139430
  0
VERTEX
  8
0
 10
353.813973
 20
328.705921
 42
-0.110301
  0
VERTEX
  8
0
 10
354.494820
 20
328.008382
 42
0.421610
  0
VERTEX
  8
0
 10
355.333925
 20
327.821419
 42
0.029799
  0
VERTEX
  8
0
 10
357.470781
 20
329.406898
 42
0.030763
  0
VERTEX
  8
0
 10
359.486217
 20
331.320282
 42
0.189692
  0
VERTEX
  8
0
 10
360.000000
 20
332.625805
 42
-0.166214
  0
VERTEX
  8
0
 10
360.335698
 20
333.607741
 42
-0.025223
  0
VERTEX
  8
0
 10
361.705840
 20
335.204164
 42
-0.024681
  0
VERTEX
  8
0
 10
363.226527
 20
336.654552
 42
-0.180005
  0
VERTEX
  8
0
 10
364.154988
 20
337.000000
 42
-0.048745
  0
VERTEX
  8
0
 10
364.478367
 20
336.968399
 42
-0.068745
  0
VERTEX
  8
0
 10
364.751778
 20
336.874107
 42
-0.088929
  0
VERTEX
  8
0
 10
364.935903
 20
336.735072
 42
-0.188859
  0
SEQEND
  0
POLYLINE
  8
0
 66
1
 70
1
  0
VERTEX
  8
0
 10
276.461878
 20
333.938317
 42
-0.084151
  0
VERTEX
  8
0
 10
276.048093
 20
333.467942
 42
-0.027020
  0
VERTEX
  8
0
 10
275.292627
 20
332.920143
 42
-0.026089
  0
VERTEX
  8
0
 10
274.370829
 20
332.390899
 42
-0.026432
  0
VERTEX
  8
0
 10
273.402861
 20
331.963068
 42
0.034810
  0
VERTEX
  8
0
 10
272.483129
 20
331.538012
 42
0.044101
  0
VERTEX
  8
0
 10
271.705840
 20
331.016841
 42
0.050421
  0
VERTEX
  8
0
 10
271.164306
 20
330.481603
 42
0.174358
  0
VERTEX
  8
0
 10
271.000000
 20
330.024751
 42
0.183531
  0
VERTEX
  8
0
 10
271.279375
 20
329.289274
 42
0.240280
  0
VERTEX
  8
0
 10
271.938789
 20
329.031131
 42
0.169850
  0
VERTEX
  8
0
 10
272.733896
 20
329.400580
 42
0.114575
  0
VERTEX
  8
0
 10
273.279762
 20
330.250000
 42
-0.086138
  0
VERTEX
  8
0
 10
273.515294
 20
330.666297
 42
-0.139612
  0
VERTEX
  8
0
 10
273.847073
 20
330.896528
 42
-0.156281
  0
VERTEX
  8
0
 10
274.222410
 20
330.903718
 42
-0.116088
  0
VERTEX
  8
0
 10
274.584135
 20
330.695627
 42
-0.271749
  0
VERTEX
  8
0
 10
274.768452
 20
330.070979
 42
-0.134915
  0
VERTEX
  8
0
 10
274.349712
 20
329.325804
 42
-0.066929
  0
VERTEX
  8
0
 10
273.251235
 20
328.478597
 42
-0.024405
  0
VERTEX
  8
0
 10
271.500000
 20
327.579077
 42
0.248832
  0
VERTEX
  8
0
 10
271.272748
 20
327.284647
 42
0.143134
  0
VERTEX
  8
0
 10
271.325391
 20
326.827960
 42
0.081928
  0
VERTEX
  8
0
 10
271.687384
 20
326.253885
 42
0.040928
  0
VERTEX
  8
0
 10
272.309841
 20
325.658822
 42
-0.037518
  0
VERTEX
  8
0
 10
273.014640
 20
324.994167
 42
-0.100320
  0
VERTEX
  8
0
 10
273.367762
 20
324.404712
 42
-0.172107
  0
VERTEX
  8
0
 10
273.367219
 20
323.917398
 42
-0.170430
  0
VERTEX
  8
0
 10
273.059841
 20
323.536984
 42
-0.060343
  0
VERTEX
  8
0
 10
272.653783
 20
323.349263
 42
-0.128967
  0
VERTEX
  8
0
 10
272.311328
 20
323.330074
 42
-0.191474
  0
VERTEX
  8
0
 10
272.087426
 20
323.476418
 42
-0.154594
  0
VERTEX
  8
0
 10
272.000000
 20
323.752422
 42
0.129164
  0
VERTEX
  8
0
 10
271.876023
 20
324.224336
 42
0.020350
  0
VERTEX
  8
0
 10
271.366290
 20
325.047388
 42
0.021445
  0
VERTEX
  8
0
 10
270.668689
 20
325.988101
 42
0.017266
  0
VERTEX
  8
0
 10
269.842690
 20
326.938478
 42
0.000000
  0
VERTEX
  8
0
 10
267.685380
 20
329.254079
 42
0.000000
  0
VERTEX
  8
0
 10
270.092690
 20
331.175350
 42
-0.023976
  0
VERTEX
  8
0
 10
271.738878
 20
332.364644
 42
-0.016800
  0
VERTEX
  8
0
 10
273.696590
 20
333.549088
 42
-0.016025
  0
VERTEX
  8
0
 10
275.566057
 20
334.518684
 42
-0.061099
  0
VERTEX
  8
0
 10
276.809017
 20
334.936614
 42
-0.492540
  0
VERTEX
  8
0
 10
276.876057
 20
334.878639
 42
-0.069390
  0
VERTEX
  8
0
 10
276.834514
 20
334.669511
 42
-0.037413
  0
VERTEX
  8
0
 10
276.692257
 20
334.341707
 42
-0.017337
  0
SEQEND
  0
POLYLINE
  8
0
 66
1
 70
1
  0
VERTEX
  8
0
 10
613.006237
 20
325.091752
 42
0.018408
  0
VERTEX
  8
0
 10
618.388364
 20
320.882415
 42
0.027134
  0
VERTEX
  8
0
 10
623.429628
 20
317.632168
 42
0.030970
  0
VERTEX
  8
0
 10
628.177469
 20
315.300599
 42
0.043629
  0
VERTEX
  8
0
 10
632.670210
 20
313.874495
 42
-0.008449
  0
VERTEX
  8
0
 10
636.177059
 20
313.027227
 42
-0.121073
  0
VERTEX
  8
0
 10
637.298839
 20
312.421758
 42
-0.227398
  0
VERTEX
  8
0
 10
637.674608
 20
311.501592
 42
-0.039199
  0
VERTEX
  8
0
 10
637.408512
 20
309.583457
 42
-0.042679
  0
VERTEX
  8
0
 10
635.761586
 20
304.287745
 42
-0.003236
  0
VERTEX
  8
0
 10
630.007301
 20
290.418858
 42
-0.004927
  0
VERTEX
  8
0
 10
623.880929
 20
276.308474
 42
-0.011248
  0
VERTEX
  8
0
 10
618.917065
 20
265.818085
 42
-0.015889
  0
VERTEX
  8
0
 10
604.618607
 20
239.408948
 42
-0.010664
  0
VERTEX
  8
0
 10
586.694687
 20
210.130603
 42
-0.010635
  0
VERTEX
  8
0
 10
567.439755
 20
181.492615
 42
-0.015227
  0
VERTEX
  8
0
 10
549.076903
 20
157.016458
 42
-0.015033
  0
VERTEX
  8
0
 10
541.110069
 20
147.637472
 42
-0.011931
  0
VERTEX
  8
0
 10
531.969909
 20
137.983954
 42
-0.011345
  0
VERTEX
  8
0
 10
523.312323
 20
129.653262
 42
-0.046022
  0
VERTEX
  8
0
 10
517.500000
 20
125.221028
 42
0.002307
  0
VERTEX
  8
0
 10
515.420709
 20
123.905443
 42
0.002161
  0
VERTEX
  8
0
 10
513.307812
 20
122.542009
 42
0.002150
  0
VERTEX
  8
0
 10
511.443254
 20
121.315928
 42
0.007415
  0
VERTEX
  8
0
 10
510.250000
 20
120.498160
 42
0.178725
  0
VERTEX
  8
0
 10
508.246512
 20
117.578710
 42
0.130068
  0
VERTEX
  8
0
 10
508.290042
 20
113.605712
 42
0.134585
  0
VERTEX
  8
0
 10
510.277277
 20
110.269366
 42
0.193884
  0
VERTEX
  8
0
 10
513.427740
 20
109.000000
 42
0.124276
  0
VERTEX
  8
0
 10
516.777981
 20
109.845775
 42
0.020194
  0
VERTEX
  8
0
 10
522.596942
 20
113.294023
 42
0.020707
  0
VERTEX
  8
0
 10
529.382263
 20
118.104839
 42
0.015233
  0
VERTEX
  8
0
 10
536.500000
 20
123.962819
 42
-0.008017
  0
VERTEX
  8
0
 10
540.003882
 20
126.932391
 42
-0.013155
  0
VERTEX
  8
0
 10
543.073743
 20
129.318394
 42
-0.006765
  0
VERTEX
  8
0
 10
545.670460
 20
131.175612
 42
-0.357309
  0
VERTEX
  8
0
 10
546.240402
 20
131.130489
 42
-0.123483
  0
VERTEX
  8
0
 10
546.562331
 20
130.616692
 42
-0.014642
  0
VERTEX
  8
0
 10
546.943291
 20
129.315037
 42
-0.016778
  0
VERTEX
  8
0
 10
547.304741
 20
127.712878
 42
-0.013030
  0
VERTEX
  8
0
 10
547.593503
 20
125.949064
 42
-0.021815
  0
VERTEX
  8
0
 10
547.834374
 20
123.355109
 42
-0.085008
  0
VERTEX
  8
0
 10
547.641136
 20
121.761080
 42
-0.093992
  0
VERTEX
  8
0
 10
546.939658
 20
120.405996
 42
-0.030081
  0
VERTEX
  8
0
 10
545.428812
 20
118.701539
 42
-0.069031
  0
VERTEX
  8
0
 10
540.349082
 20
114.859470
 42
-0.028243
  0
VERTEX
  8
0
 10
532.554975
 20
111.063286
 42
-0.024758
  0
VERTEX
  8
0
 10
522.803656
 20
107.533979
 42
-0.017469
  0
VERTEX
  8
0
 10
511.547352
 20
104.505510
 42
-0.003984
  0
VERTEX
  8
0
 10
504.052642
 20
102.830186
 42
-0.017689
  0
VERTEX
  8
0
 10
499.609126
 20
102.037313
 42
-0.023637
  0
VERTEX
  8
0
 10
496.772828
 20
101.770096
 42
-0.269116
  0
VERTEX
  8
0
 10
495.812665
 20
102.268875
 42
-0.134350
  0
VERTEX
  8
0
 10
495.495600
 20
103.298175
 42
-0.001191
  0
VERTEX
  8
0
 10
495.254660
 20
111.510232
 42
-0.004005
  0
VERTEX
  8
0
 10
495.075169
 20
120.987025
 42
-0.002562
  0
VERTEX
  8
0
 10
495.011258
 20
132.000000
 42
0.001731
  0
VERTEX
  8
0
 10
494.962277
 20
143.828118
 42
0.001669
  0
VERTEX
  8
0
 10
494.831299
 20
155.800000
 42
0.001649
  0
VERTEX
  8
0
 10
494.645943
 20
166.345196
 42
0.006095
  0
VERTEX
  8
0
 10
494.425831
 20
173.000000
 42
0.000000
  0
VERTEX
  8
0
 10
493.859773
 20
185.500000
 42
0.000000
  0
VERTEX
  8
0
 10
508.045081
 20
197.223533
 42
-0.003569
  0
VERTEX
  8
0
 10
515.715058
 20
203.470841
 42
-0.021233
  0
VERTEX
  8
0
 10
519.876296
 20
206.529997
 42
-0.039341
  0
VERTEX
  8
0
 10
522.517764
 20
208.017358
 42
-0.235617
  0
VERTEX
  8
0
 10
524.049453
 20
207.973533
 42
0.095277
  0
VERTEX
  8
0
 10
527.114457
 20
207.020657
 42
0.130121
  0
VERTEX
  8
0
 10
529.962152
 20
207.443334
 42
0.078326
  0
VERTEX
  8
0
 10
533.231174
 20
209.504130
 42
0.018386
  0
VERTEX
  8
0
 10
537.953705
 20
213.953058
 42
0.013426
  0
VERTEX
  8
0
 10
543.895993
 20
220.311187
 42
0.016303
  0
VERTEX
  8
0
 10
549.101196
 20
226.590398
 42
0.013774
  0
VERTEX
  8
0
 10
554.526565
 20
234.000254
 42
0.006208
  0
VERTEX
  8
0
 10
561.251503
 20
244.000000
 42
0.009418
  0
VERTEX
  8
0
 10
568.271968
 20
255.178256
 42
0.009864
  0
VERTEX
  8
0
 10
574.755522
 20
266.443808
 42
0.005318
  0
VERTEX
  8
0
 10
583.438057
 20
282.649100
 42
0.000837
  0
VERTEX
  8
0
 10
600.125781
 20
314.738224
 42
-0.002227
  0
VERTEX
  8
0
 10
602.984422
 20
320.198021
 42
-0.003641
  0
VERTEX
  8
0
 10
605.461793
 20
324.797429
 42
-0.000609
  0
VERTEX
  8
0
 10
607.679513
 20
328.832239
 42
-0.266016
  0
VERTEX
  8
0
 10
607.935643
 20
328.988224
 42
-0.169370
  0
VERTEX
  8
0
 10
608.226516
 20
328.895520
 42
-0.002779
  0
VERTEX
  8
0
 10
609.604833
 20
327.848493
 42
-0.006870
  0
VERTEX
  8
0
 10
611.198325
 20
326.588788
 42
-0.004465
  0
SEQEND
  0
POLYLINE
  8
0
 66
1
 70
1
  0
VERTEX
  8
0
 10
353.500000
 20
324.000000
 42
-0.060810
  0
VERTEX
  8
0
 10
353.193797
 20
323.617485
 42
-0.051032
  0
VERTEX
  8
0
 10
352.787100
 20
323.293750
 42
-0.053229
  0
VERTEX
  8
0
 10
352.346558
 20
323.073302
 42
-0.089642
  0
VERTEX
  8
0
 10
351.940983
 20
323.000000
 42
-0.105429
  0
VERTEX
  8
0
 10
351.581949
 20
323.076556
 42
-0.099231
  0
VERTEX
  8
0
 10
351.276414
 20
323.293750
 42
-0.096318
  0
VERTEX
  8
0
 10
351.071618
 20
323.618268
 42
-0.092995
  0
VERTEX
  8
0
 10
351.000000
 20
324.000000
 42
-0.153634
  0
VERTEX
  8
0
 10
351.120018
 20
324.381379
 42
-0.097988
  0
VERTEX
  8
0
 10
351.457961
 20
324.706250
 42
-0.080552
  0
VERTEX
  8
0
 10
351.962904
 20
324.925455
 42
-0.062283
  0
VERTEX
  8
0
 10
352.559017
 20
325.000000
 42
-0.066118
  0
VERTEX
  8
0
 10
353.110654
 20
324.926733
 42
-0.138808
  0
VERTEX
  8
0
 10
353.478525
 20
324.706250
 42
-0.191142
  0
VERTEX
  8
0
 10
353.607943
 20
324.379648
 42
-0.139169
  0
SEQEND
  0
POLYLINE
  8
0
 66
1
 70
1
  0
VERTEX
  8
0
 10
276.183333
 20
321.783333
 42
-0.034019
  0
VERTEX
  8
0
 10
275.693024
 20
321.355562
 42
-0.131573
  0
VERTEX
  8
0
 10
275.322581
 20
321.204271
 42
-0.290264
  0
VERTEX
  8
0
 10
275.093678
 20
321.311730
 42
-0.142677
  0
VERTEX
  8
0
 10
275.000000
 20
321.633333
 42
-0.054831
  0
VERTEX
  8
0
 10
275.048893
 20
322.077840
 42
-0.038674
  0
VERTEX
  8
0
 10
275.195833
 20
322.558958
 42
-0.039129
  0
VERTEX
  8
0
 10
275.411277
 20
323.002755
 42
-0.063896
  0
VERTEX
  8
0
 10
275.666667
 20
323.333333
 42
-0.075941
  0
VERTEX
  8
0
 10
275.960280
 20
323.549128
 42
-0.089268
  0
VERTEX
  8
0
 10
276.289271
 20
323.652396
 42
-0.100736
  0
VERTEX
  8
0
 10
276.601612
 20
323.629018
 42
-0.128169
  0
VERTEX
  8
0
 10
276.850000
 20
323.483333
 42
-0.212536
  0
VERTEX
  8
0
 10
276.959631
 20
323.197768
 42
-0.080535
  0
VERTEX
  8
0
 10
276.867292
 20
322.770833
 42
-0.061283
  0
VERTEX
  8
0
 10
276.598500
 20
322.274266
 42
-0.041736
  0
SEQEND
  0
POLYLINE
  8
0
 66
1
 70
1
  0
VERTEX
  8
0
 10
348.342679
 20
323.250000
 42
-0.383109
  0
VERTEX
  8
0
 10
348.288812
 20
322.955428
 42
-0.082597
  0
VERTEX
  8
0
 10
347.791113
 20
322.687791
 42
-0.048548
  0
VERTEX
  8
0
 10
346.931121
 20
322.485023
 42
-0.024370
  0
VERTEX
  8
0
 10
345.818050
 20
322.389287
 42
-0.014866
  0
VERTEX
  8
0
 10
344.536249
 20
322.379880
 42
-0.099359
  0
VERTEX
  8
0
 10
343.917103
 20
322.518631
 42
-0.444404
  0
VERTEX
  8
0
 10
343.833123
 20
322.775581
 42
-0.121931
  0
VERTEX
  8
0
 10
344.166354
 20
323.123974
 42
-0.057907
  0
VERTEX
  8
0
 10
345.411546
 20
323.724380
 42
-0.076005
  0
VERTEX
  8
0
 10
346.651304
 20
323.952395
 42
-0.094806
  0
VERTEX
  8
0
 10
347.684035
 20
323.786919
 42
-0.169602
  0
SEQEND
  0
POLYLINE
  8
0
 66
1
 70
1
  0
VERTEX
  8
0
 10
340.635693
 20
318.493839
 42
-0.007475
  0
VERTEX
  8
0
 10
338.215104
 20
317.277093
 42
-0.110062
  0
VERTEX
  8
0
 10
337.293651
 20
317.059798
 42
-0.693328
  0
VERTEX
  8
0
 10
337.185327
 20
317.338524
 42
-0.020363
  0
VERTEX
  8
0
 10
338.558870
 20
318.468197
 42
-0.031843
  0
VERTEX
  8
0
 10
339.412215
 20
319.032044
 42
-0.027674
  0
VERTEX
  8
0
 10
340.370418
 20
319.512643
 42
-0.028659
  0
VERTEX
  8
0
 10
341.288456
 20
319.850107
 42
-0.069578
  0
VERTEX
  8
0
 10
342.000000
 20
319.962036
 42
-0.280368
  0
VERTEX
  8
0
 10
342.252839
 20
319.814027
 42
-0.321217
  0
VERTEX
  8
0
 10
342.217985
 20
319.541331
 42
-0.066673
  0
VERTEX
  8
0
 10
341.644631
 20
319.069170
 42
-0.018761
  0
SEQEND
  0
POLYLINE
  8
0
 66
1
 70
1
  0
VERTEX
  8
0
 10
331.000000
 20
315.000000
 42
-0.099038
  0
VERTEX
  8
0
 10
330.923658
 20
314.618362
 42
-0.097945
  0
VERTEX
  8
0
 10
330.706250
 20
314.293750
 42
-0.097945
  0
VERTEX
  8
0
 10
330.381638
 20
314.076342
 42
-0.099038
  0
VERTEX
  8
0
 10
330.000000
 20
314.000000
 42
-0.099038
  0
VERTEX
  8
0
 10
329.618362
 20
314.076342
 42
-0.097945
  0
VERTEX
  8
0
 10
329.293750
 20
314.293750
 42
-0.097945
  0
VERTEX
  8
0
 10
329.076342
 20
314.618362
 42
-0.099038
  0
VERTEX
  8
0
 10
329.000000
 20
315.000000
 42
-0.099038
  0
VERTEX
  8
0
 10
329.076342
 20
315.381638
 42
-0.097945
  0
VERTEX
  8
0
 10
329.293750
 20
315.706250
 42
-0.097945
  0
VERTEX
  8
0
 10
329.618362
 20
315.923658
 42
-0.099038
  0
VERTEX
  8
0
 10
330.000000
 20
316.000000
 42
-0.099038
  0
VERTEX
  8
0
 10
330.381638
 20
315.923658
 42
-0.097945
  0
VERTEX
  8
0
 10
330.706250
 20
315.706250
 42
-0.097945
  0
VERTEX
  8
0
 10
330.923658
 20
315.381638
 42
-0.099038
  0
SEQEND
  0
POLYLINE
  8
0
 66
1
 70
1
  0
VERTEX
  8
0
 10
301.541119
 20
312.933469
 42
-0.154972
  0
VERTEX
  8
0
 10
301.780027
 20
311.982274
 42
-0.371340
  0
VERTEX
  8
0
 10
301.309775
 20
311.499769
 42
-0.074119
  0
VERTEX
  8
0
 10
299.710155
 20
311.597186
 42
-0.007458
  0
VERTEX
  8
0
 10
295.974385
 20
312.447139
 42
0.000000
  0
VERTEX
  8
0
 10
290.500000
 20
313.778842
 42
0.000000
  0
VERTEX
  8
0
 10
295.690983
 20
313.889421
 42
-0.019370
  0
VERTEX
  8
0
 10
297.727193
 20
313.853915
 42
-0.026458
  0
VERTEX
  8
0
 10
299.550741
 20
313.654224
 42
-0.025414
  0
VERTEX
  8
0
 10
300.991706
 20
313.342885
 42
-0.190665
  0
SEQEND
  0
POLYLINE
  8
0
 66
1
 70
1
  0
VERTEX
  8
0
 10
312.000000
 20
312.000000
 42
-0.246825
  0
VERTEX
  8
0
 10
312.229784
 20
311.592160
 42
-0.351555
  0
VERTEX
  8
0
 10
311.990434
 20
311.275347
 42
-0.057115
  0
VERTEX
  8
0
 10
310.819272
 20
311.117989
 42
-0.009082
  0
VERTEX
  8
0
 10
308.500000
 20
311.114993
 42
-0.004399
  0
VERTEX
  8
0
 10
305.851117
 20
311.183003
 42
-0.076592
  0
VERTEX
  8
0
 10
305.006101
 20
311.343197
 42
-0.664682
  0
VERTEX
  8
0
 10
304.991686
 20
311.594468
 42
-0.036244
  0
VERTEX
  8
0
 10
306.000000
 20
312.000000
 42
-0.014291
  0
VERTEX
  8
0
 10
308.275983
 20
312.657810
 42
-0.063278
  0
VERTEX
  8
0
 10
309.656179
 20
312.833184
 42
-0.092155
  0
VERTEX
  8
0
 10
310.769011
 20
312.626321
 42
-0.051583
  0
SEQEND
  0
POLYLINE
  8
0
 66
1
 70
1
  0
VERTEX
  8
0
 10
321.729167
 20
312.395833
 42
-0.126455
  0
VERTEX
  8
0
 10
321.402231
 20
312.202593
 42
-0.060344
  0
VERTEX
  8
0
 10
320.916927
 20
312.123424
 42
-0.054150
  0
VERTEX
  8
0
 10
320.359369
 20
312.160852
 42
-0.051402
  0
VERTEX
  8
0
 10
319.812500
 20
312.316886
 42
-0.054073
  0
VERTEX
  8
0
 10
319.395823
 20
312.538436
 42
-0.470617
  0
VERTEX
  8
0
 10
319.378580
 20
312.720685
 42
-0.168741
  0
VERTEX
  8
0
 10
319.670344
 20
312.862007
 42
-0.018894
  0
VERTEX
  8
0
 10
320.416667
 20
312.921053
 42
-0.028489
  0
VERTEX
  8
0
 10
321.112848
 20
312.910055
 42
-0.077125
  0
VERTEX
  8
0
 10
321.592839
 20
312.799335
 42
-0.208169
  0
VERTEX
  8
0
 10
321.775380
 20
312.614691
 42
-0.296942
  0
SEQEND
  0
POLYLINE
  8
0
 66
1
 70
1
  0
VERTEX
  8
0
 10
135.014898
 20
293.950633
 42
0.008951
  0
VERTEX
  8
0
 10
140.758088
 20
280.088523
 42
0.007171
  0
VERTEX
  8
0
 10
147.420801
 20
265.367911
 42
0.007321
  0
VERTEX
  8
0
 10
154.064977
 20
251.752942
 42
0.015706
  0
VERTEX
  8
0
 10
159.666944
 20
241.500000
 42
-0.025861
  0
VERTEX
  8
0
 10
160.888445
 20
239.152325
 42
-0.014779
  0
VERTEX
  8
0
 10
162.128789
 20
236.206250
 42
-0.014734
  0
VERTEX
  8
0
 10
163.204227
 20
233.160872
 42
-0.023623
  0
VERTEX
  8
0
 10
163.919956
 20
230.500000
 42
0.018266
  0
VERTEX
  8
0
 10
165.184573
 20
225.589478
 42
0.042816
  0
VERTEX
  8
0
 10
166.568614
 20
222.064684
 42
0.055723
  0
VERTEX
  8
0
 10
168.255701
 20
219.438787
 42
0.061943
  0
VERTEX
  8
0
 10
170.428976
 20
217.353801
 42
-0.111327
  0
VERTEX
  8
0
 10
171.909648
 20
215.624562
 42
-0.059212
  0
VERTEX
  8
0
 10
172.928817
 20
212.981929
 42
-0.024148
  0
VERTEX
  8
0
 10
173.888856
 20
208.282464
 42
-0.002712
  0
VERTEX
  8
0
 10
175.494260
 20
197.500000
 42
0.001107
  0
VERTEX
  8
0
 10
177.118229
 20
186.347189
 42
0.002180
  0
VERTEX
  8
0
 10
178.467269
 20
177.491181
 42
0.002013
  0
VERTEX
  8
0
 10
179.961545
 20
168.205433
 42
0.000805
  0
VERTEX
  8
0
 10
182.079633
 20
155.500000
 42
0.003855
  0
VERTEX
  8
0
 10
182.660913
 20
152.202912
 42
0.000877
  0
VERTEX
  8
0
 10
183.698873
 20
146.624726
 42
0.000907
  0
VERTEX
  8
0
 10
184.918777
 20
140.196368
 42
0.000882
  0
VERTEX
  8
0
 10
186.173402
 20
133.711833
 42
-0.004694
  0
VERTEX
  8
0
 10
187.827373
 20
124.799464
 42
-0.022172
  0
VERTEX
  8
0
 10
188.499996
 20
119.645376
 42
-0.070569
  0
VERTEX
  8
0
 10
188.370346
 20
117.310488
 42
-0.605259
  0
VERTEX
  8
0
 10
187.597497
 20
117.083333
 42
-0.052514
  0
VERTEX
  8
0
 10
185.749912
 20
119.448366
 42
-0.001140
  0
VERTEX
  8
0
 10
178.016477
 20
131.894700
 42
-0.002979
  0
VERTEX
  8
0
 10
170.308520
 20
144.531066
 42
-0.005114
  0
VERTEX
  8
0
 10
164.054722
 20
155.166952
 42
-0.006815
  0
VERTEX
  8
0
 10
157.072476
 20
167.717643
 42
-0.004196
  0
VERTEX
  8
0
 10
149.180733
 20
182.668888
 42
-0.004208
  0
VERTEX
  8
0
 10
141.680510
 20
197.475966
 42
-0.008067
  0
VERTEX
  8
0
 10
135.956403
 20
209.500000
 42
-0.012959
  0
VERTEX
  8
0
 10
129.204339
 20
225.370028
 42
-0.007715
  0
VERTEX
  8
0
 10
121.952066
 20
244.583991
 42
-0.007720
  0
VERTEX
  8
0
 10
115.314516
 20
263.959388
 42
-0.013280
  0
VERTEX
  8
0
 10
110.468307
 20
280.315789
 42
0.000000
  0
VERTEX
  8
0
 10
108.103473
 20
289.152406
 42
0.000000
  0
VERTEX
  8
0
 10
111.138585
 20
290.826203
 42
0.012816
  0
VERTEX
  8
0
 10
115.945871
 20
293.640341
 42
0.010475
  0
VERTEX
  8
0
 10
120.942476
 20
296.886793
 42
0.009349
  0
VERTEX
  8
0
 10
125.296842
 20
299.968093
 42
0.051268
  0
VERTEX
  8
0
 10
127.427007
 20
301.901337
 42
-0.030346
  0
VERTEX
  8
0
 10
128.235996
 20
302.699635
 42
-0.039126
  0
VERTEX
  8
0
 10
129.073215
 20
303.322799
 42
-0.043476
  0
VERTEX
  8
0
 10
129.823425
 20
303.708376
 42
-0.179286
  0
VERTEX
  8
0
 10
130.325109
 20
303.724964
 42
-0.197007
  0
VERTEX
  8
0
 10
130.834555
 20
303.286387
 42
-0.005905
  0
VERTEX
  8
0
 10
132.103311
 20
300.720228
 42
-0.010905
  0
VERTEX
  8
0
 10
133.519484
 20
297.595752
 42
-0.007217
  0
SEQEND
  0
POLYLINE
  8
0
 66
1
 70
1
  0
VERTEX
  8
0
 10
192.500000
 20
206.235504
 42
0.022391
  0
VERTEX
  8
0
 10
202.151546
 20
200.381866
 42
0.010605
  0
VERTEX
  8
0
 10
215.067614
 20
193.670767
 42
0.010622
  0
VERTEX
  8
0
 10
228.415132
 20
187.439979
 42
0.019877
  0
VERTEX
  8
0
 10
239.500000
 20
183.067009
 42
0.000000
  0
VERTEX
  8
0
 10
250.500000
 20
179.225266
 42
0.000000
  0
VERTEX
  8
0
 10
251.218112
 20
168.362633
 42
0.011469
  0
VERTEX
  8
0
 10
251.985177
 20
159.761870
 42
0.003403
  0
VERTEX
  8
0
 10
253.548825
 20
146.650083
 42
0.002370
  0
VERTEX
  8
0
 10
256.015738
 20
127.816214
 42
0.000711
  0
VERTEX
  8
0
 10
259.949102
 20
99.159119
 42
-0.011502
  0
VERTEX
  8
0
 10
260.266550
 20
96.406617
 42
-0.052301
  0
VERTEX
  8
0
 10
260.246112
 20
94.795612
 42
-0.105214
  0
VERTEX
  8
0
 10
259.917269
 20
93.825595
 42
-0.168540
  0
VERTEX
  8
0
 10
259.255509
 20
93.267807
 42
-0.110329
  0
VERTEX
  8
0
 10
255.714756
 20
92.744841
 42
-0.010204
  0
VERTEX
  8
0
 10
246.841150
 20
93.577287
 42
-0.014254
  0
VERTEX
  8
0
 10
237.582717
 20
94.905157
 42
-0.027692
  0
VERTEX
  8
0
 10
230.305736
 20
96.580845
 42
-0.026616
  0
VERTEX
  8
0
 10
222.961306
 20
99.136913
 42
-0.010560
  0
VERTEX
  8
0
 10
213.160138
 20
103.388145
 42
-0.007783
  0
VERTEX
  8
0
 10
203.760570
 20
107.881700
 42
-0.077596
  0
VERTEX
  8
0
 10
200.210547
 20
110.396802
 42
-0.148644
  0
VERTEX
  8
0
 10
198.799262
 20
112.953371
 42
-0.003123
  0
VERTEX
  8
0
 10
195.849077
 20
127.284464
 42
-0.005987
  0
VERTEX
  8
0
 10
192.350743
 20
145.998418
 42
-0.002418
  0
VERTEX
  8
0
 10
188.007068
 20
171.610820
 42
-0.000862
  0
VERTEX
  8
0
 10
183.881389
 20
196.944767
 42
-0.009997
  0
VERTEX
  8
0
 10
182.481619
 20
206.898087
 42
-0.024546
  0
VERTEX
  8
0
 10
182.127996
 20
211.895714
 42
-0.593042
  0
VERTEX
  8
0
 10
183.094055
 20
212.451127
 42
-0.008167
  0
VERTEX
  8
0
 10
184.004195
 20
211.873990
 42
-0.000620
  0
VERTEX
  8
0
 10
186.437004
 20
210.270675
 42
-0.000854
  0
VERTEX
  8
0
 10
189.333422
 20
208.349555
 42
-0.000650
  0
SEQEND
  0
POLYLINE
  8
0
 66
1
 70
1
  0
VERTEX
  8
0
 10
552.286058
 20
554.107685
 42
0.029311
  0
VERTEX
  8
0
 10
549.042552
 20
551.442052
 42
0.051179
  0
VERTEX
  8
0
 10
546.745392
 20
548.833487
 42
0.045588
  0
VERTEX
  8
0
 10
544.860689
 20
545.606642
 42
0.018600
  0
VERTEX
  8
0
 10
542.878853
 20
540.923286
 42
0.100062
  0
VERTEX
  8
0
 10
540.005701
 20
523.524843
 42
0.106834
  0
VERTEX
  8
0
 10
544.248396
 20
506.815659
 42
0.162750
  0
VERTEX
  8
0
 10
553.437592
 20
497.604254
 42
0.268384
  0
VERTEX
  8
0
 10
564.102117
 20
498.250000
 42
0.124905
  0
VERTEX
  8
0
 10
569.440875
 20
504.127705
 42
0.051988
  0
VERTEX
  8
0
 10
573.495140
 20
514.133321
 42
0.049454
  0
VERTEX
  8
0
 10
575.633658
 20
525.735744
 42
0.061994
  0
VERTEX
  8
0
 10
575.192307
 20
536.658490
 42
0.041925
  0
VERTEX
  8
0
 10
573.132010
 20
544.794620
 42
0.076275
  0
VERTEX
  8
0
 10
569.947850
 20
550.850504
 42
0.095312
  0
VERTEX
  8
0
 10
565.678676
 20
554.783390
 42
0.106304
  0
VERTEX
  8
0
 10
560.413425
 20
556.661075
 42
0.037250
  0
VERTEX
  8
0
 10
558.196156
 20
556.785996
 42
0.071678
  0
VERTEX
  8
0
 10
556.443390
 20
556.500805
 42
0.060802
  0
VERTEX
  8
0
 10
554.662088
 20
555.692769
 42
0.020501
  0
SEQEND
  0
POLYLINE
  8
0
 66
1
 70
1
  0
VERTEX
  8
0
 10
180.422318
 20
554.581587
 42
0.133517
  0
VERTEX
  8
0
 10
174.197089
 20
549.587100
 42
0.045104
  0
VERTEX
  8
0
 10
168.177077
 20
539.522411
 42
0.045301
  0
VERTEX
  8
0
 10
164.004270
 20
528.380931
 42
0.114440
  0
VERTEX
  8
0
 10
163.660848
 20
519.784850
 42
0.085320
  0
VERTEX
  8
0
 10
166.210530
 20
512.973592
 42
0.129417
  0
VERTEX
  8
0
 10
170.660181
 20
508.527672
 42
0.135199
  0
VERTEX
  8
0
 10
176.567155
 20
506.963829
 42
0.097269
  0
VERTEX
  8
0
 10
183.282119
 20
508.352227
 42
0.100828
  0
VERTEX
  8
0
 10
189.085577
 20
512.312315
 42
0.057911
  0
VERTEX
  8
0
 10
194.266917
 20
519.053104
 42
0.054762
  0
VERTEX
  8
0
 10
198.061610
 20
527.322315
 42
0.062427
  0
VERTEX
  8
0
 10
199.757900
 20
535.860416
 42
0.085335
  0
VERTEX
  8
0
 10
198.810583
 20
545.414567
 42
0.133905
  0
VERTEX
  8
0
 10
194.626202
 20
552.469934
 42
0.160360
  0
VERTEX
  8
0
 10
188.066198
 20
555.648829
 42
0.136820
  0
SEQEND
  0
ENDSEC
  0
EOF
