  0
SECTION
  2
HEADER
  9
$ACADVER
  1
AC1006
  9
$EXTMIN
 10
0.000000
 20
0.000000
 30
0.000000
  9
$EXTMAX
 10
1056.000000
 20
976.000000
 30
0.000000
  0
ENDSEC
  0
SECTION
  2
ENTITIES
  0
POLYLINE
  8
0
 66
1
 70
1
  0
VERTEX
  8
0
 10
485.500000
 20
736.064931
 42
0.037167
  0
VERTEX
  8
0
 10
482.366475
 20
735.050442
 42
0.024005
  0
VERTEX
  8
0
 10
478.906558
 20
733.440963
 42
0.023556
  0
VERTEX
  8
0
 10
475.516410
 20
731.452306
 42
0.029514
  0
VERTEX
  8
0
 10
472.585721
 20
729.285635
 42
-0.033665
  0
VERTEX
  8
0
 10
471.353532
 20
728.390384
 42
-0.038199
  0
VERTEX
  8
0
 10
470.061706
 20
727.710176
 42
-0.041594
  0
VERTEX
  8
0
 10
468.893830
 20
727.316457
 42
-0.135712
  0
VERTEX
  8
0
 10
468.085721
 20
727.338893
 42
-0.009130
  0
VERTEX
  8
0
 10
467.141243
 20
727.647478
 42
-0.001279
  0
VERTEX
  8
0
 10
465.203306
 20
728.325617
 42
-0.001461
  0
VERTEX
  8
0
 10
462.913463
 20
729.141012
 42
-0.001241
  0
VERTEX
  8
0
 10
460.500000
 20
730.015155
 42
0.042178
  0
VERTEX
  8
0
 10
447.901600
 20
733.443249
 42
0.026409
  0
VERTEX
  8
0
 10
432.737848
 20
735.403558
 42
0.025502
  0
VERTEX
  8
0
 10
416.667312
 20
735.801639
 42
0.028755
  0
VERTEX
  8
0
 10
401.278525
 20
734.510253
 42
0.015977
  0
VERTEX
  8
0
 10
388.713385
 20
732.312375
 42
0.022548
  0
VERTEX
  8
0
 10
377.702466
 20
729.498410
 42
0.024054
  0
VERTEX
  8
0
 10
367.565869
 20
725.873980
 42
0.022876
  0
VERTEX
  8
0
 10
357.648540
 20
721.238553
 42
-0.007351
  0
VERTEX
  8
0
 10
353.602995
 20
719.192316
 42
-0.053518
  0
VERTEX
  8
0
 10
351.559753
 20
718.454240
 42
-0.113581
  0
VERTEX
  8
0
 10
350.102260
 20
718.434539
 42
-0.090904
  0
VERTEX
  8
0
 10
348.648540
 20
719.038880
 42
0.020447
  0
VERTEX
  8
0
 10
343.635943
 20
722.005586
 42
0.044011
  0
VERTEX
  8
0
 10
339.515988
 20
723.774496
 42
0.048817
  0
VERTEX
  8
0
 10
335.430416
 20
724.688229
 42
0.031404
  0
VERTEX
  8
0
 10
330.580522
 20
724.978038
 42
0.034527
  0
VERTEX
  8
0
 10
324.967736
 20
724.572490
 42
0.053254
  0
VERTEX
  8
0
 10
320.254653
 20
723.381262
 42
0.054237
  0
VERTEX
  8
0
 10
315.961065
 20
721.241473
 42
0.037473
  0
VERTEX
  8
0
 10
311.620402
 20
717.971571
 42
0.074921
  0
VERTEX
  8
0
 10
306.879775
 20
712.351307
 42
0.060770
  0
VERTEX
  8
0
 10
303.591043
 20
705.175655
 42
0.061521
  0
VERTEX
  8
0
 10
302.154400
 20
697.518856
 42
0.081833
  0
VERTEX
  8
0
 10
302.865263
 20
690.484624
 42
0.046477
  0
VERTEX
  8
0
 10
303.964130
 20
687.537602
 42
0.016761
  0
VERTEX
  8
0
 10
306.044593
 20
683.573513
 42
0.016468
  0
VERTEX
  8
0
 10
308.625845
 20
679.361152
 42
0.018900
  0
VERTEX
  8
0
 10
311.369215
 20
675.522399
 42
-0.236221
  0
VERTEX
  8
0
 10
311.547763
 20
674.615298
 42
-0.016164
  0
VERTEX
  8
0
 10
310.745242
 20
672.038433
 42
-0.018353
  0
VERTEX
  8
0
 10
309.438577
 20
668.678917
 42
-0.008719
  0
VERTEX
  8
0
 10
307.523882
 20
664.449228
 42
0.000686
  0
VERTEX
  8
0
 10
303.481221
 20
655.887564
 42
0.006908
  0
VERTEX
  8
0
 10
301.849707
 20
652.291850
 42
0.013340
  0
VERTEX
  8
0
 10
300.738370
 20
649.552966
 42
0.006483
  0
VERTEX
  8
0
 10
299.458235
 20
646.000000
 42
0.034920
  0
VERTEX
  8
0
 10
295.926989
 20
632.886526
 42
0.028925
  0
VERTEX
  8
0
 10
293.974465
 20
618.554090
 42
0.029884
  0
VERTEX
  8
0
 10
293.731421
 20
604.911416
 42
0.055716
  0
VERTEX
  8
0
 10
295.416847
 20
594.000000
 42
0.042253
  0
VERTEX
  8
0
 10
300.376492
 20
580.371766
 42
0.036184
  0
VERTEX
  8
0
 10
307.778395
 20
567.008040
 42
0.037007
  0
VERTEX
  8
0
 10
316.792014
 20
555.203573
 42
0.051927
  0
VERTEX
  8
0
 10
326.568792
 20
546.259969
 42
-0.005903
  0
VERTEX
  8
0
 10
329.033728
 20
544.390130
 42
-0.009163
  0
VERTEX
  8
0
 10
331.110816
 20
542.713566
 42
-0.004069
  0
VERTEX
  8
0
 10
332.825724
 20
541.252738
 42
-0.217608
  0
VERTEX
  8
0
 10
332.999985
 20
540.871320
 42
-0.237028
  0
VERTEX
  8
0
 10
332.843746
 20
540.560239
 42
-0.021311
  0
VERTEX
  8
0
 10
332.100508
 20
540.054735
 42
-0.024109
  0
VERTEX
  8
0
 10
331.111090
 20
539.505904
 42
-0.016386
  0
VERTEX
  8
0
 10
329.937915
 20
538.974284
 42
0.079557
  0
VERTEX
  8
0
 10
326.180684
 20
536.663060
 42
0.019403
  0
VERTEX
  8
0
 10
320.837172
 20
531.694456
 42
0.020491
  0
VERTEX
  8
0
 10
315.799605
 20
526.199072
 42
0.055146
  0
VERTEX
  8
0
 10
312.851282
 20
521.803316
 42
0.065455
  0
VERTEX
  8
0
 10
310.990761
 20
516.704812
 42
0.059330
  0
VERTEX
  8
0
 10
310.426979
 20
511.122670
 42
0.061657
  0
VERTEX
  8
0
 10
311.184568
 20
505.786234
 42
0.085555
  0
VERTEX
  8
0
 10
313.215555
 20
501.414158
 42
0.057109
  0
VERTEX
  8
0
 10
316.562709
 20
497.595275
 42
0.083671
  0
VERTEX
  8
0
 10
320.316277
 20
495.188905
 42
0.070739
  0
VERTEX
  8
0
 10
325.117665
 20
493.901906
 42
0.030171
  0
VERTEX
  8
0
 10
331.771993
 20
493.500000
 42
0.000000
  0
VERTEX
  8
0
 10
340.200352
 20
493.500000
 42
0.000000
  0
VERTEX
  8
0
 10
339.535452
 20
484.000000
 42
-0.009267
  0
VERTEX
  8
0
 10
339.117913
 20
479.289543
 42
-0.026360
  0
VERTEX
  8
0
 10
338.594302
 20
476.037751
 42
-0.038126
  0
VERTEX
  8
0
 10
337.901354
 20
473.703495
 42
-0.072814
  0
VERTEX
  8
0
 10
336.948132
 20
472.000000
 42
0.034499
  0
VERTEX
  8
0
 10
330.712503
 20
462.617241
 42
0.061917
  0
VERTEX
  8
0
 10
327.168243
 20
454.089892
 42
0.077058
  0
VERTEX
  8
0
 10
326.264882
 20
446.365734
 42
0.097529
  0
VERTEX
  8
0
 10
327.913116
 20
439.383912
 42
0.133554
  0
VERTEX
  8
0
 10
333.791968
 20
432.287147
 42
0.115769
  0
VERTEX
  8
0
 10
342.780439
 20
428.666401
 42
0.093384
  0
VERTEX
  8
0
 10
354.107160
 20
429.049436
 42
0.059595
  0
VERTEX
  8
0
 10
366.571027
 20
433.445474
 42
-0.012434
  0
VERTEX
  8
0
 10
370.181774
 20
435.115715
 42
-0.033122
  0
VERTEX
  8
0
 10
372.855028
 20
436.067888
 42
-0.045875
  0
VERTEX
  8
0
 10
375.043115
 20
436.475708
 42
-0.060381
  0
VERTEX
  8
0
 10
377.071027
 20
436.418843
 42
0.020111
  0
VERTEX
  8
0
 10
379.513371
 20
436.152970
 42
0.000692
  0
VERTEX
  8
0
 10
389.093960
 20
435.511721
 42
0.001296
  0
VERTEX
  8
0
 10
400.413275
 20
434.799289
 42
0.000904
  0
VERTEX
  8
0
 10
413.185006
 20
434.051856
 42
-0.001528
  0
VERTEX
  8
0
 10
425.783421
 20
433.298800
 42
-0.002436
  0
VERTEX
  8
0
 10
436.549092
 20
432.569597
 42
-0.000500
  0
VERTEX
  8
0
 10
446.010547
 20
431.872905
 42
-0.120344
  0
VERTEX
  8
0
 10
446.824227
 20
431.608634
 42
-0.110273
  0
VERTEX
  8
0
 10
447.236625
 20
431.206149
 42
-0.029196
  0
VERTEX
  8
0
 10
447.696377
 20
430.402297
 42
-0.028156
  0
VERTEX
  8
0
 10
448.124763
 20
429.402632
 42
-0.025669
  0
VERTEX
  8
0
 10
448.453287
 20
428.330096
 42
0.067301
  0
VERTEX
  8
0
 10
449.662689
 20
425.304814
 42
0.031674
  0
VERTEX
  8
0
 10
451.967279
 20
421.772094
 42
0.031462
  0
VERTEX
  8
0
 10
454.785396
 20
418.455087
 42
0.050769
  0
VERTEX
  8
0
 10
457.612107
 20
416.063618
 42
0.111408
  0
VERTEX
  8
0
 10
466.354868
 20
412.583497
 42
0.122573
  0
VERTEX
  8
0
 10
475.421697
 20
413.374308
 42
0.111624
  0
VERTEX
  8
0
 10
483.692009
 20
418.482025
 42
0.081043
  0
VERTEX
  8
0
 10
490.118114
 20
427.231522
 42
0.032443
  0
VERTEX
  8
0
 10
492.508007
 20
432.777453
 42
0.011495
  0
VERTEX
  8
0
 10
495.220210
 20
440.988486
 42
0.011733
  0
VERTEX
  8
0
 10
497.625956
 20
449.594751
 42
0.022297
  0
VERTEX
  8
0
 10
499.086315
 20
456.635119
 42
0.035829
  0
VERTEX
  8
0
 10
499.720804
 20
463.801006
 42
0.008857
  0
VERTEX
  8
0
 10
499.708674
 20
475.607834
 42
0.009020
  0
VERTEX
  8
0
 10
499.272972
 20
487.448339
 42
0.032890
  0
VERTEX
  8
0
 10
498.368938
 20
494.909527
 42
-0.010656
  0
VERTEX
  8
0
 10
498.034978
 20
496.914858
 42
-0.146052
  0
VERTEX
  8
0
 10
498.141491
 20
497.637483
 42
-0.339238
  0
VERTEX
  8
0
 10
498.582292
 20
497.867130
 42
-0.050239
  0
VERTEX
  8
0
 10
499.613087
 20
497.577165
 42
0.061793
  0
VERTEX
  8
0
 10
503.243041
 20
496.645717
 42
0.034651
  0
VERTEX
  8
0
 10
507.796959
 20
496.379115
 42
0.034177
  0
VERTEX
  8
0
 10
512.473738
 20
496.749943
 42
0.049154
  0
VERTEX
  8
0
 10
516.500000
 20
497.759522
 42
0.000000
  0
VERTEX
  8
0
 10
521.500000
 20
499.550245
 42
0.000000
  0
VERTEX
  8
0
 10
525.423728
 20
497.025122
 42
0.037284
  0
VERTEX
  8
0
 10
527.899846
 20
495.681093
 42
0.054290
  0
VERTEX
  8
0
 10
530.260177
 20
494.913836
 42
0.037245
  0
VERTEX
  8
0
 10
533.320693
 20
494.509479
 42
0.009024
  0
VERTEX
  8
0
 10
538.423728
 20
494.311088
 42
0.000000
  0
VERTEX
  8
0
 10
547.500000
 20
494.122176
 42
0.000000
  0
VERTEX
  8
0
 10
548.263990
 20
485.811088
 42
0.028368
  0
VERTEX
  8
0
 10
549.863059
 20
475.114058
 42
0.026312
  0
VERTEX
  8
0
 10
552.690007
 20
464.389034
 42
0.027212
  0
VERTEX
  8
0
 10
556.483649
 20
454.453634
 42
0.038678
  0
VERTEX
  8
0
 10
560.984884
 20
446.144683
 42
-0.015159
  0
VERTEX
  8
0
 10
562.679931
 20
443.339073
 42
-0.008970
  0
VERTEX
  8
0
 10
564.538842
 20
439.897362
 42
-0.008970
  0
VERTEX
  8
0
 10
566.272432
 20
436.392529
 42
-0.015211
  0
VERTEX
  8
0
 10
567.579989
 20
433.392155
 42
-0.007217
  0
VERTEX
  8
0
 10
569.176711
 20
429.227681
 42
-0.060370
  0
VERTEX
  8
0
 10
569.637794
 20
427.268169
 42
-0.111542
  0
VERTEX
  8
0
 10
569.469100
 20
425.763650
 42
-0.049976
  0
VERTEX
  8
0
 10
568.627976
 20
423.947359
 42
0.026040
  0
VERTEX
  8
0
 10
568.004811
 20
422.754734
 42
0.022819
  0
VERTEX
  8
0
 10
567.478218
 20
421.450721
 42
0.023468
  0
VERTEX
  8
0
 10
567.111699
 20
420.228045
 42
0.061155
  0
VERTEX
  8
0
 10
567.000000
 20
419.318214
 42
0.277079
  0
VERTEX
  8
0
 10
571.186865
 20
412.342885
 42
0.077580
  0
VERTEX
  8
0
 10
583.706872
 20
407.987819
 42
0.072519
  0
VERTEX
  8
0
 10
597.763164
 20
407.493898
 42
0.192743
  0
VERTEX
  8
0
 10
606.464829
 20
412.140570
 42
0.021513
  0
VERTEX
  8
0
 10
607.435248
 20
413.400051
 42
0.024094
  0
VERTEX
  8
0
 10
608.255293
 20
414.692797
 42
0.024351
  0
VERTEX
  8
0
 10
608.840521
 20
415.849419
 42
0.105319
  0
VERTEX
  8
0
 10
609.000000
 20
416.598149
 42
-0.149358
  0
VERTEX
  8
0
 10
609.250294
 20
417.417356
 42
-0.015308
  0
VERTEX
  8
0
 10
610.447147
 20
419.080923
 42
-0.018022
  0
VERTEX
  8
0
 10
612.039653
 20
421.009211
 42
-0.013446
  0
VERTEX
  8
0
 10
613.926459
 20
423.021423
 42
-0.012305
  0
VERTEX
  8
0
 10
617.090035
 20
426.064890
 42
-0.076038
  0
VERTEX
  8
0
 10
618.960187
 20
427.316130
 42
-0.089401
  0
VERTEX
  8
0
 10
620.989217
 20
427.854905
 42
-0.020307
  0
VERTEX
  8
0
 10
624.560294
 20
428.000000
 42
-0.026211
  0
VERTEX
  8
0
 10
628.248107
 20
427.806547
 42
-0.096594
  0
VERTEX
  8
0
 10
630.469335
 20
427.125741
 42
-0.061121
  0
VERTEX
  8
0
 10
632.757033
 20
425.519701
 42
-0.006383
  0
VERTEX
  8
0
 10
637.576510
 20
421.057316
 42
0.022218
  0
VERTEX
  8
0
 10
643.829748
 20
415.624787
 42
0.079144
  0
VERTEX
  8
0
 10
648.437085
 20
413.030099
 42
0.116978
  0
VERTEX
  8
0
 10
652.594829
 20
412.520161
 42
0.082676
  0
VERTEX
  8
0
 10
657.139699
 20
413.806585
 42
-0.032287
  0
VERTEX
  8
0
 10
659.229376
 20
414.632176
 42
-0.016493
  0
VERTEX
  8
0
 10
661.942540
 20
415.408607
 42
-0.016318
  0
VERTEX
  8
0
 10
664.802106
 20
416.027396
 42
-0.023531
  0
VERTEX
  8
0
 10
667.366820
 20
416.371630
 42
0.048823
  0
VERTEX
  8
0
 10
672.915238
 20
417.403858
 42
0.042027
  0
VERTEX
  8
0
 10
678.458209
 20
419.525185
 42
0.041333
  0
VERTEX
  8
0
 10
683.661188
 20
422.588628
 42
0.043386
  0
VERTEX
  8
0
 10
688.199084
 20
426.422272
 42
-0.018440
  0
VERTEX
  8
0
 10
690.029198
 20
428.131694
 42
-0.018733
  0
VERTEX
  8
0
 10
691.970981
 20
429.692245
 42
-0.018885
  0
VERTEX
  8
0
 10
693.756649
 20
430.918468
 42
-0.069767
  0
VERTEX
  8
0
 10
695.000000
 20
431.480696
 42
0.075499
  0
VERTEX
  8
0
 10
701.226457
 20
434.382199
 42
0.041423
  0
VERTEX
  8
0
 10
707.837391
 20
439.615283
 42
0.040549
  0
VERTEX
  8
0
 10
713.725629
 20
446.098294
 42
0.055864
  0
VERTEX
  8
0
 10
717.798901
 20
452.821809
 42
0.024843
  0
VERTEX
  8
0
 10
719.222928
 20
456.352185
 42
0.043873
  0
VERTEX
  8
0
 10
719.987744
 20
459.397756
 42
0.031435
  0
VERTEX
  8
0
 10
720.347601
 20
463.154606
 42
0.007300
  0
VERTEX
  8
0
 10
720.462115
 20
469.500000
 42
0.006780
  0
VERTEX
  8
0
 10
720.416437
 20
474.014997
 42
0.006974
  0
VERTEX
  8
0
 10
720.248177
 20
478.484997
 42
0.006780
  0
VERTEX
  8
0
 10
719.995758
 20
482.355074
 42
0.029179
  0
VERTEX
  8
0
 10
719.680616
 20
484.640417
 42
0.000000
  0
VERTEX
  8
0
 10
718.861232
 20
488.780833
 42
0.000000
  0
VERTEX
  8
0
 10
725.428339
 20
488.253689
 42
0.059506
  0
VERTEX
  8
0
 10
732.967710
 20
488.546154
 42
0.084506
  0
VERTEX
  8
0
 10
739.309926
 20
490.692015
 42
0.088794
  0
VERTEX
  8
0
 10
744.362628
 20
494.711437
 42
0.073027
  0
VERTEX
  8
0
 10
748.121160
 20
500.500000
 42
0.028746
  0
VERTEX
  8
0
 10
748.825698
 20
502.302477
 42
0.019724
  0
VERTEX
  8
0
 10
749.423521
 20
504.415688
 42
0.019932
  0
VERTEX
  8
0
 10
749.838867
 20
506.503312
 42
0.037672
  0
VERTEX
  8
0
 10
749.978038
 20
508.212980
 42
0.065357
  0
VERTEX
  8
0
 10
749.452965
 20
512.404752
 42
0.034834
  0
VERTEX
  8
0
 10
747.782507
 20
517.365944
 42
0.033523
  0
VERTEX
  8
0
 10
745.297905
 20
522.362658
 42
0.039523
  0
VERTEX
  8
0
 10
742.283681
 20
526.698683
 42
0.037579
  0
VERTEX
  8
0
 10
738.455561
 20
530.713510
 42
0.024457
  0
VERTEX
  8
0
 10
733.491935
 20
534.770037
 42
0.023755
  0
VERTEX
  8
0
 10
728.528139
 20
538.084707
 42
0.081444
  0
VERTEX
  8
0
 10
724.936702
 20
539.513903
 42
-0.021641
  0
VERTEX
  8
0
 10
723.783458
 20
539.820048
 42
-0.025757
  0
VERTEX
  8
0
 10
722.727639
 20
540.210553
 42
-0.025894
  0
VERTEX
  8
0
 10
721.886775
 20
540.624581
 42
-0.127664
  0
VERTEX
  8
0
 10
721.508159
 20
540.986798
 42
-0.343090
  0
VERTEX
  8
0
 10
721.563694
 20
541.501710
 42
-0.014112
  0
VERTEX
  8
0
 10
722.981508
 20
542.887909
 42
-0.019418
  0
VERTEX
  8
0
 10
724.886504
 20
544.515626
 42
-0.011928
  0
VERTEX
  8
0
 10
727.246692
 20
546.289027
 42
0.062839
  0
VERTEX
  8
0
 10
741.831669
 20
559.768939
 42
0.066258
  0
VERTEX
  8
0
 10
752.308010
 20
576.224880
 42
0.064803
  0
VERTEX
  8
0
 10
758.278450
 20
595.177996
 42
0.056089
  0
VERTEX
  8
0
 10
759.606267
 20
616.000000
 42
0.024098
  0
VERTEX
  8
0
 10
758.389505
 20
628.561416
 42
0.031976
  0
VERTEX
  8
0
 10
756.011492
 20
639.791037
 42
0.030504
  0
VERTEX
  8
0
 10
752.117894
 20
651.026313
 42
0.019215
  0
VERTEX
  8
0
 10
746.288577
 20
663.636403
 42
0.000000
  0
VERTEX
  8
0
 10
741.631042
 20
672.772806
 42
0.000000
  0
VERTEX
  8
0
 10
744.363319
 20
676.019933
 42
0.092374
  0
VERTEX
  8
0
 10
750.744398
 20
687.287701
 42
0.111301
  0
VERTEX
  8
0
 10
752.069595
 20
699.356505
 42
0.114018
  0
VERTEX
  8
0
 10
748.097227
 20
710.608414
 42
0.100648
  0
VERTEX
  8
0
 10
739.449861
 20
719.578972
 42
0.036363
  0
VERTEX
  8
0
 10
734.380069
 20
722.552352
 42
0.048862
  0
VERTEX
  8
0
 10
729.400034
 20
724.427341
 42
0.052556
  0
VERTEX
  8
0
 10
724.456882
 20
725.212005
 42
0.053783
  0
VERTEX
  8
0
 10
719.498093
 20
724.938727
 42
-0.002369
  0
VERTEX
  8
0
 10
717.498388
 20
724.620568
 42
-0.002887
  0
VERTEX
  8
0
 10
715.623502
 20
724.342441
 42
-0.002425
  0
VERTEX
  8
0
 10
714.044496
 20
724.125322
 42
-0.020263
  0
VERTEX
  8
0
 10
713.326596
 20
724.059611
 42
0.115250
  0
VERTEX
  8
0
 10
712.636394
 20
723.860957
 42
0.011270
  0
VERTEX
  8
0
 10
711.132002
 20
722.974912
 42
0.013792
  0
VERTEX
  8
0
 10
709.369857
 20
721.814376
 42
0.010499
  0
VERTEX
  8
0
 10
707.503394
 20
720.450728
 42
0.000000
  0
VERTEX
  8
0
 10
702.853595
 20
716.901457
 42
0.000000
  0
VERTEX
  8
0
 10
692.676798
 20
721.909864
 42
0.033052
  0
VERTEX
  8
0
 10
676.769124
 20
728.472247
 42
0.032137
  0
VERTEX
  8
0
 10
659.986679
 20
732.953461
 42
0.031115
  0
VERTEX
  8
0
 10
642.252360
 20
735.352642
 42
0.027044
  0
VERTEX
  8
0
 10
623.500000
 20
735.693664
 42
0.012871
  0
VERTEX
  8
0
 10
611.883402
 20
734.976823
 42
0.021452
  0
VERTEX
  8
0
 10
602.167580
 20
733.703955
 42
0.024251
  0
VERTEX
  8
0
 10
593.515155
 20
731.754033
 42
0.024841
  0
VERTEX
  8
0
 10
585.162844
 20
728.987811
 42
0.000000
  0
VERTEX
  8
0
 10
577.825689
 20
726.146265
 42
0.000000
  0
VERTEX
  8
0
 10
573.279670
 20
729.616319
 42
0.017552
  0
VERTEX
  8
0
 10
567.971122
 20
733.381109
 42
0.065851
  0
VERTEX
  8
0
 10
564.300940
 20
735.155179
 42
0.070981
  0
VERTEX
  8
0
 10
560.437910
 20
735.846258
 42
0.022547
  0
VERTEX
  8
0
 10
554.574929
 20
735.788872
 42
0.055672
  0
VERTEX
  8
0
 10
546.027099
 20
734.355843
 42
0.081337
  0
VERTEX
  8
0
 10
539.133499
 20
731.113421
 42
0.080142
  0
VERTEX
  8
0
 10
533.563907
 20
725.799514
 42
0.052432
  0
VERTEX
  8
0
 10
528.959435
 20
718.190315
 42
0.067079
  0
VERTEX
  8
0
 10
527.243101
 20
712.747101
 42
0.046805
  0
VERTEX
  8
0
 10
526.741090
 20
706.319882
 42
0.045709
  0
VERTEX
  8
0
 10
527.449330
 20
699.722859
 42
0.054576
  0
VERTEX
  8
0
 10
529.340336
 20
693.765111
 42
0.000000
  0
VERTEX
  8
0
 10
531.819157
 20
688.160057
 42
0.000000
  0
VERTEX
  8
0
 10
528.864082
 20
682.830028
 42
0.005192
  0
VERTEX
  8
0
 10
527.690852
 20
680.661080
 42
0.005844
  0
VERTEX
  8
0
 10
526.609289
 20
678.551633
 42
0.005384
  0
VERTEX
  8
0
 10
525.730032
 20
676.737548
 42
0.031282
  0
VERTEX
  8
0
 10
525.337872
 20
675.750000
 42
-0.183897
  0
VERTEX
  8
0
 10
524.318345
 20
674.487160
 42
-0.308843
  0
VERTEX
  8
0
 10
523.012972
 20
674.580294
 42
-0.081674
  0
VERTEX
  8
0
 10
521.148517
 20
676.632558
 42
-0.012378
  0
VERTEX
  8
0
 10
518.242522
 20
681.375088
 42
0.000000
  0
VERTEX
  8
0
 10
513.985044
 20
688.725646
 42
0.000000
  0
VERTEX
  8
0
 10
516.609070
 20
694.457274
 42
0.050194
  0
VERTEX
  8
0
 10
518.481972
 20
699.942558
 42
0.045695
  0
VERTEX
  8
0
 10
519.301317
 20
705.868220
 42
0.045445
  0
VERTEX
  8
0
 10
519.032218
 20
711.877112
 42
0.048367
  0
VERTEX
  8
0
 10
517.676516
 20
717.609291
 42
0.093012
  0
VERTEX
  8
0
 10
512.704724
 20
726.406822
 42
0.087763
  0
VERTEX
  8
0
 10
504.792911
 20
733.014786
 42
0.089325
  0
VERTEX
  8
0
 10
495.225775
 20
736.426881
 42
0.101145
  0
SEQEND
  0
POLYLINE
  8
0
 66
1
 70
1
  0
VERTEX
  8
0
 10
500.753199
 20
727.110275
 42
-0.064666
  0
VERTEX
  8
0
 10
505.908538
 20
723.551433
 42
-0.071359
  0
VERTEX
  8
0
 10
509.788431
 20
718.897737
 42
-0.071979
  0
VERTEX
  8
0
 10
512.179641
 20
713.377650
 42
-0.067518
  0
VERTEX
  8
0
 10
512.978038
 20
707.282119
 42
-0.050746
  0
VERTEX
  8
0
 10
512.558693
 20
703.340769
 42
-0.038040
  0
VERTEX
  8
0
 10
511.337317
 20
699.147758
 42
-0.039063
  0
VERTEX
  8
0
 10
509.610425
 20
695.456417
 42
-0.091209
  0
VERTEX
  8
0
 10
507.658478
 20
693.127555
 42
0.101555
  0
VERTEX
  8
0
 10
506.470899
 20
691.650165
 42
0.126526
  0
VERTEX
  8
0
 10
506.082732
 20
689.938023
 42
0.104871
  0
VERTEX
  8
0
 10
506.551216
 20
688.004779
 42
0.054415
  0
VERTEX
  8
0
 10
507.866900
 20
685.884859
 42
-0.027834
  0
VERTEX
  8
0
 10
508.868958
 20
684.446605
 42
-0.004733
  0
VERTEX
  8
0
 10
510.596902
 20
681.586076
 42
-0.005154
  0
VERTEX
  8
0
 10
512.562353
 20
678.182056
 42
-0.004570
  0
VERTEX
  8
0
 10
514.538920
 20
674.599657
 42
0.000000
  0
VERTEX
  8
0
 10
519.344040
 20
665.699313
 42
0.000000
  0
VERTEX
  8
0
 10
517.616610
 20
659.599657
 42
0.015984
  0
VERTEX
  8
0
 10
514.401360
 20
646.685470
 42
0.021160
  0
VERTEX
  8
0
 10
512.354779
 20
634.743684
 42
0.023074
  0
VERTEX
  8
0
 10
511.448454
 20
623.617357
 42
0.028033
  0
VERTEX
  8
0
 10
511.667163
 20
613.160234
 42
-0.015323
  0
VERTEX
  8
0
 10
511.860778
 20
608.983057
 42
-0.023599
  0
VERTEX
  8
0
 10
511.746807
 20
605.367963
 42
-0.024012
  0
VERTEX
  8
0
 10
511.295543
 20
601.825937
 42
-0.016650
  0
VERTEX
  8
0
 10
510.461704
 20
597.875701
 42
0.030174
  0
VERTEX
  8
0
 10
508.986865
 20
589.816517
 42
0.038392
  0
VERTEX
  8
0
 10
508.655036
 20
582.266529
 42
0.041642
  0
VERTEX
  8
0
 10
509.466748
 20
575.304057
 42
0.049888
  0
VERTEX
  8
0
 10
511.409840
 20
569.000000
 42
-0.005472
  0
VERTEX
  8
0
 10
512.471214
 20
566.401220
 42
-0.006867
  0
VERTEX
  8
0
 10
513.395309
 20
563.968750
 42
-0.005614
  0
VERTEX
  8
0
 10
514.117842
 20
561.913744
 42
-0.052557
  0
VERTEX
  8
0
 10
514.323949
 20
561.000000
 42
-0.271487
  0
VERTEX
  8
0
 10
513.916148
 20
560.070294
 42
-0.016466
  0
VERTEX
  8
0
 10
511.295258
 20
558.299059
 42
-0.017669
  0
VERTEX
  8
0
 10
507.469103
 20
556.077530
 42
-0.006762
  0
VERTEX
  8
0
 10
502.000000
 20
553.249793
 42
-0.009379
  0
VERTEX
  8
0
 10
492.440081
 20
548.691763
 42
-0.017790
  0
VERTEX
  8
0
 10
484.554452
 20
545.445074
 42
-0.020094
  0
VERTEX
  8
0
 10
477.142008
 20
543.031280
 42
-0.016805
  0
VERTEX
  8
0
 10
469.105934
 20
541.056015
 42
0.022390
  0
VERTEX
  8
0
 10
464.199851
 20
539.791855
 42
0.086797
  0
VERTEX
  8
0
 10
461.410776
 20
538.374689
 42
0.169108
  0
VERTEX
  8
0
 10
460.244563
 20
536.642199
 42
0.157235
  0
VERTEX
  8
0
 10
460.361373
 20
534.500660
 42
0.300058
  0
VERTEX
  8
0
 10
462.395901
 20
533.043981
 42
0.040641
  0
VERTEX
  8
0
 10
467.903712
 20
533.280336
 42
0.034773
  0
VERTEX
  8
0
 10
475.295116
 20
534.729783
 42
0.019552
  0
VERTEX
  8
0
 10
484.031156
 20
537.453809
 42
-0.003436
  0
VERTEX
  8
0
 10
488.238702
 20
538.916132
 42
-0.004107
  0
VERTEX
  8
0
 10
492.223394
 20
540.233976
 42
-0.003550
  0
VERTEX
  8
0
 10
495.597388
 20
541.292810
 42
-0.026796
  0
VERTEX
  8
0
 10
497.218697
 20
541.695434
 42
-0.130544
  0
VERTEX
  8
0
 10
500.742428
 20
541.449108
 42
-0.030169
  0
VERTEX
  8
0
 10
506.293289
 20
539.169142
 42
-0.031830
  0
VERTEX
  8
0
 10
511.952168
 20
535.976325
 42
-0.051365
  0
VERTEX
  8
0
 10
516.250000
 20
532.501052
 42
-0.042076
  0
VERTEX
  8
0
 10
518.706591
 20
529.608550
 42
-0.108496
  0
VERTEX
  8
0
 10
519.777532
 20
527.102384
 42
-0.106556
  0
VERTEX
  8
0
 10
519.709745
 20
524.349814
 42
-0.039733
  0
VERTEX
  8
0
 10
518.500000
 20
520.654243
 42
0.039554
  0
VERTEX
  8
0
 10
517.923742
 20
518.895985
 42
0.018125
  0
VERTEX
  8
0
 10
517.440625
 20
516.529710
 42
0.017819
  0
VERTEX
  8
0
 10
517.109649
 20
513.988621
 42
0.023476
  0
VERTEX
  8
0
 10
517.000000
 20
511.654563
 42
-0.037453
  0
VERTEX
  8
0
 10
516.694072
 20
507.576170
 42
-0.146235
  0
VERTEX
  8
0
 10
515.628645
 20
505.313966
 42
-0.145848
  0
VERTEX
  8
0
 10
513.494786
 20
504.003990
 42
-0.037188
  0
VERTEX
  8
0
 10
509.463809
 20
503.243031
 42
-0.037101
  0
VERTEX
  8
0
 10
506.774473
 20
503.140592
 42
-0.057721
  0
VERTEX
  8
0
 10
504.483332
 20
503.490172
 42
-0.042375
  0
VERTEX
  8
0
 10
501.874486
 20
504.446690
 42
-0.011606
  0
VERTEX
  8
0
 10
497.944552
 20
506.390515
 42
0.008841
  0
VERTEX
  8
0
 10
494.135776
 20
508.300698
 42
0.043376
  0
VERTEX
  8
0
 10
491.885680
 20
509.148889
 42
0.081754
  0
VERTEX
  8
0
 10
490.282465
 20
509.327004
 42
0.110167
  0
VERTEX
  8
0
 10
488.880540
 20
508.936067
 42
0.127661
  0
VERTEX
  8
0
 10
487.656404
 20
507.806261
 42
0.167001
  0
VERTEX
  8
0
 10
487.296085
 20
506.337394
 42
0.056766
  0
VERTEX
  8
0
 10
487.818225
 20
503.810977
 42
0.005102
  0
VERTEX
  8
0
 10
489.900880
 20
497.679041
 42
-0.051194
  0
VERTEX
  8
0
 10
492.890206
 20
485.211286
 42
-0.040425
  0
VERTEX
  8
0
 10
493.614706
 20
471.349110
 42
-0.038191
  0
VERTEX
  8
0
 10
492.074932
 20
456.729247
 42
-0.034545
  0
VERTEX
  8
0
 10
488.308604
 20
442.000000
 42
-0.028639
  0
VERTEX
  8
0
 10
484.627625
 20
432.693998
 42
-0.061584
  0
VERTEX
  8
0
 10
480.557559
 20
426.157745
 42
-0.083331
  0
VERTEX
  8
0
 10
475.968267
 20
422.095382
 42
-0.111977
  0
VERTEX
  8
0
 10
470.741723
 20
420.274356
 42
-0.099067
  0
VERTEX
  8
0
 10
465.330608
 20
420.736764
 42
-0.098260
  0
VERTEX
  8
0
 10
460.496453
 20
423.245052
 42
-0.088441
  0
VERTEX
  8
0
 10
456.609475
 20
427.678147
 42
-0.064132
  0
VERTEX
  8
0
 10
453.954852
 20
433.697744
 42
0.027887
  0
VERTEX
  8
0
 10
453.365291
 20
435.348567
 42
0.032478
  0
VERTEX
  8
0
 10
452.620239
 20
436.838452
 42
0.034345
  0
VERTEX
  8
0
 10
451.836770
 20
437.990301
 42
0.135425
  0
VERTEX
  8
0
 10
451.152926
 20
438.494811
 42
0.069259
  0
VERTEX
  8
0
 10
448.980900
 20
438.999051
 42
0.005096
  0
VERTEX
  8
0
 10
442.871304
 20
439.486538
 42
0.003299
  0
VERTEX
  8
0
 10
432.296876
 20
440.151804
 42
0.000345
  0
VERTEX
  8
0
 10
407.500000
 20
441.530464
 42
-0.001104
  0
VERTEX
  8
0
 10
396.814662
 20
442.140820
 42
-0.001442
  0
VERTEX
  8
0
 10
387.044401
 20
442.748829
 42
-0.001063
  0
VERTEX
  8
0
 10
378.858087
 20
443.299449
 42
-0.013417
  0
VERTEX
  8
0
 10
375.778812
 20
443.596337
 42
0.028915
  0
VERTEX
  8
0
 10
373.039402
 20
443.775027
 42
0.062307
  0
VERTEX
  8
0
 10
370.943303
 20
443.528387
 42
0.053193
  0
VERTEX
  8
0
 10
368.774259
 20
442.741864
 42
0.016384
  0
VERTEX
  8
0
 10
365.695606
 20
441.111914
 42
-0.091831
  0
VERTEX
  8
0
 10
349.011217
 20
435.274972
 42
-0.229939
  0
VERTEX
  8
0
 10
336.997850
 20
438.973137
 42
-0.266918
  0
VERTEX
  8
0
 10
333.614203
 20
449.971150
 42
-0.109700
  0
VERTEX
  8
0
 10
340.527149
 20
464.589434
 42
0.026915
  0
VERTEX
  8
0
 10
343.397503
 20
468.727583
 42
0.074343
  0
VERTEX
  8
0
 10
344.788786
 20
471.980047
 42
0.036010
  0
VERTEX
  8
0
 10
345.648145
 20
476.602656
 42
0.002662
  0
VERTEX
  8
0
 10
347.016407
 20
489.402703
 42
0.004526
  0
VERTEX
  8
0
 10
347.582777
 20
495.533829
 42
0.028979
  0
VERTEX
  8
0
 10
347.661087
 20
498.650386
 42
0.061802
  0
VERTEX
  8
0
 10
347.363511
 20
500.539154
 42
0.127099
  0
VERTEX
  8
0
 10
346.608734
 20
501.819838
 42
0.080618
  0
VERTEX
  8
0
 10
345.571773
 20
502.567215
 42
0.122225
  0
VERTEX
  8
0
 10
344.492169
 20
502.809063
 42
0.062991
  0
VERTEX
  8
0
 10
342.943968
 20
502.577159
 42
0.009473
  0
VERTEX
  8
0
 10
339.932316
 20
501.667135
 42
-0.033834
  0
VERTEX
  8
0
 10
335.532604
 20
500.568287
 42
-0.033724
  0
VERTEX
  8
0
 10
331.020118
 20
500.071351
 42
-0.035952
  0
VERTEX
  8
0
 10
326.863687
 20
500.194473
 42
-0.065552
  0
VERTEX
  8
0
 10
323.565559
 20
500.975074
 42
-0.107178
  0
VERTEX
  8
0
 10
321.229142
 20
502.495367
 42
-0.056356
  0
VERTEX
  8
0
 10
319.073658
 20
505.228398
 42
-0.055195
  0
VERTEX
  8
0
 10
317.525707
 20
508.474826
 42
-0.083551
  0
VERTEX
  8
0
 10
317.003738
 20
511.553656
 42
-0.088860
  0
VERTEX
  8
0
 10
317.683884
 20
515.377486
 42
-0.036280
  0
VERTEX
  8
0
 10
319.872369
 20
520.202599
 42
-0.035936
  0
VERTEX
  8
0
 10
322.885918
 20
524.902286
 42
-0.055264
  0
VERTEX
  8
0
 10
326.185008
 20
528.426364
 42
-0.023038
  0
VERTEX
  8
0
 10
328.109843
 20
529.926037
 42
-0.012354
  0
VERTEX
  8
0
 10
330.611425
 20
531.604984
 42
-0.012277
  0
VERTEX
  8
0
 10
333.253069
 20
533.195090
 42
-0.018774
  0
VERTEX
  8
0
 10
335.624741
 20
534.429049
 42
0.000000
  0
VERTEX
  8
0
 10
341.056000
 20
537.000629
 42
0.000000
  0
VERTEX
  8
0
 10
350.276268
 20
533.962139
 42
0.017480
  0
VERTEX
  8
0
 10
358.875784
 20
531.457815
 42
0.017728
  0
VERTEX
  8
0
 10
367.589277
 20
529.573520
 42
0.018544
  0
VERTEX
  8
0
 10
375.957308
 20
528.390564
 42
0.025844
  0
VERTEX
  8
0
 10
383.508546
 20
528.000000
 42
0.022853
  0
VERTEX
  8
0
 10
388.579969
 20
528.231917
 42
0.103131
  0
VERTEX
  8
0
 10
391.399832
 20
529.094735
 42
0.210235
  0
VERTEX
  8
0
 10
392.593944
 20
530.652886
 42
0.137555
  0
VERTEX
  8
0
 10
392.515968
 20
532.949688
 42
0.150288
  0
VERTEX
  8
0
 10
391.488091
 20
534.433985
 42
0.107181
  0
VERTEX
  8
0
 10
389.658715
 20
535.324973
 42
0.041195
  0
VERTEX
  8
0
 10
386.217894
 20
535.870866
 42
0.004890
  0
VERTEX
  8
0
 10
378.500000
 20
536.374925
 42
-0.034062
  0
VERTEX
  8
0
 10
364.848331
 20
538.070029
 42
-0.034692
  0
VERTEX
  8
0
 10
351.638891
 20
541.598035
 42
-0.035986
  0
VERTEX
  8
0
 10
339.533407
 20
546.748817
 42
-0.044556
  0
VERTEX
  8
0
 10
329.179914
 20
553.287366
 42
-0.055169
  0
VERTEX
  8
0
 10
320.073794
 20
561.986795
 42
-0.037857
  0
VERTEX
  8
0
 10
311.737807
 20
573.605980
 42
-0.037582
  0
VERTEX
  8
0
 10
305.173173
 20
586.480729
 42
-0.050930
  0
VERTEX
  8
0
 10
301.384797
 20
598.964859
 42
-0.057372
  0
VERTEX
  8
0
 10
300.180504
 20
614.327161
 42
-0.043069
  0
VERTEX
  8
0
 10
302.254090
 20
631.173553
 42
-0.039309
  0
VERTEX
  8
0
 10
307.506733
 20
648.961309
 42
-0.031468
  0
VERTEX
  8
0
 10
315.812428
 20
667.137193
 42
0.000000
  0
VERTEX
  8
0
 10
320.436554
 20
675.774385
 42
0.000000
  0
VERTEX
  8
0
 10
316.648306
 20
679.967523
 42
-0.038265
  0
VERTEX
  8
0
 10
313.697157
 20
683.784049
 42
-0.033904
  0
VERTEX
  8
0
 10
311.227291
 20
688.159000
 42
-0.035518
  0
VERTEX
  8
0
 10
309.537522
 20
692.449872
 42
-0.076184
  0
VERTEX
  8
0
 10
309.000000
 20
695.957179
 42
-0.090108
  0
VERTEX
  8
0
 10
310.061070
 20
701.797145
 42
-0.056735
  0
VERTEX
  8
0
 10
313.227225
 20
707.987005
 42
-0.056623
  0
VERTEX
  8
0
 10
317.714751
 20
713.322511
 42
-0.088305
  0
VERTEX
  8
0
 10
322.717881
 20
716.616384
 42
-0.066923
  0
VERTEX
  8
0
 10
326.314074
 20
717.621081
 42
-0.034432
  0
VERTEX
  8
0
 10
330.987299
 20
717.948501
 42
-0.034426
  0
VERTEX
  8
0
 10
335.666255
 20
717.631198
 42
-0.066271
  0
VERTEX
  8
0
 10
339.282119
 20
716.634818
 42
-0.039984
  0
VERTEX
  8
0
 10
340.713316
 20
715.887613
 42
-0.021097
  0
VERTEX
  8
0
 10
342.364826
 20
714.749806
 42
-0.020856
  0
VERTEX
  8
0
 10
343.967038
 20
713.435060
 42
-0.030118
  0
VERTEX
  8
0
 10
345.257714
 20
712.134818
 42
0.016210
  0
VERTEX
  8
0
 10
346.384899
 20
710.934304
 42
0.021412
  0
VERTEX
  8
0
 10
347.491130
 20
709.920853
 42
0.019452
  0
VERTEX
  8
0
 10
348.458839
 20
709.169904
 42
0.156520
  0
VERTEX
  8
0
 10
348.988297
 20
709.000000
 42
0.116441
  0
VERTEX
  8
0
 10
349.598586
 20
709.144079
 42
0.007583
  0
VERTEX
  8
0
 10
351.223276
 20
709.987519
 42
0.010703
  0
VERTEX
  8
0
 10
353.141242
 20
711.074022
 42
0.007765
  0
VERTEX
  8
0
 10
355.230583
 20
712.361765
 42
-0.036962
  0
VERTEX
  8
0
 10
364.918607
 20
717.578946
 42
-0.024728
  0
VERTEX
  8
0
 10
376.659616
 20
722.141615
 42
-0.023642
  0
VERTEX
  8
0
 10
389.493946
 20
725.747962
 42
-0.024270
  0
VERTEX
  8
0
 10
402.500000
 20
728.089478
 42
-0.029115
  0
VERTEX
  8
0
 10
412.415197
 20
728.798445
 42
-0.011745
  0
VERTEX
  8
0
 10
425.989626
 20
728.658329
 42
-0.011191
  0
VERTEX
  8
0
 10
439.239047
 20
727.913035
 42
-0.041618
  0
VERTEX
  8
0
 10
447.481272
 20
726.568013
 42
-0.010255
  0
VERTEX
  8
0
 10
450.416349
 20
725.770037
 42
-0.004038
  0
VERTEX
  8
0
 10
454.425261
 20
724.556041
 42
-0.003995
  0
VERTEX
  8
0
 10
458.738243
 20
723.173939
 42
-0.004981
  0
VERTEX
  8
0
 10
462.721151
 20
721.818298
 42
0.000000
  0
VERTEX
  8
0
 10
471.979757
 20
718.563717
 42
0.000000
  0
VERTEX
  8
0
 10
476.244513
 20
722.749259
 42
-0.063590
  0
VERTEX
  8
0
 10
481.973330
 20
727.095439
 42
-0.086694
  0
VERTEX
  8
0
 10
488.053202
 20
729.308228
 42
-0.089760
  0
VERTEX
  8
0
 10
494.359594
 20
729.289655
 42
-0.073398
  0
SEQEND
  0
POLYLINE
  8
0
 66
1
 70
1
  0
VERTEX
  8
0
 10
653.500000
 20
727.519916
 42
-0.020415
  0
VERTEX
  8
0
 10
663.348676
 20
725.399223
 42
-0.013676
  0
VERTEX
  8
0
 10
674.423267
 20
722.211495
 42
-0.013589
  0
VERTEX
  8
0
 10
684.701364
 20
718.635864
 42
-0.036100
  0
VERTEX
  8
0
 10
691.750000
 20
715.367852
 42
0.000000
  0
VERTEX
  8
0
 10
698.000000
 20
711.902118
 42
0.000000
  0
VERTEX
  8
0
 10
698.000000
 20
704.647403
 42
0.049647
  0
VERTEX
  8
0
 10
698.666182
 20
697.954705
 42
0.062877
  0
VERTEX
  8
0
 10
700.643358
 20
692.067609
 42
0.055165
  0
VERTEX
  8
0
 10
704.259282
 20
686.297820
 42
0.028286
  0
VERTEX
  8
0
 10
709.938097
 20
679.908548
 42
0.035203
  0
VERTEX
  8
0
 10
715.445525
 20
675.104712
 42
0.049297
  0
VERTEX
  8
0
 10
721.013586
 20
671.703318
 42
0.054172
  0
VERTEX
  8
0
 10
726.692379
 20
669.684129
 42
0.058413
  0
VERTEX
  8
0
 10
732.528367
 20
669.000000
 42
0.000000
  0
VERTEX
  8
0
 10
736.981709
 20
669.000000
 42
0.000000
  0
VERTEX
  8
0
 10
741.895421
 20
658.750000
 42
-0.047693
  0
VERTEX
  8
0
 10
750.931548
 20
634.126004
 42
-0.067012
  0
VERTEX
  8
0
 10
753.789831
 20
610.923094
 42
-0.073041
  0
VERTEX
  8
0
 10
750.373040
 20
589.349981
 42
-0.071775
  0
VERTEX
  8
0
 10
740.891193
 20
569.529253
 42
-0.027259
  0
VERTEX
  8
0
 10
736.479131
 20
563.652753
 42
-0.023668
  0
VERTEX
  8
0
 10
731.251373
 20
557.994160
 42
-0.024372
  0
VERTEX
  8
0
 10
725.740471
 20
553.073336
 42
-0.037535
  0
VERTEX
  8
0
 10
720.486370
 20
549.439145
 42
-0.065660
  0
VERTEX
  8
0
 10
706.894874
 20
543.709429
 42
-0.030158
  0
VERTEX
  8
0
 10
688.048820
 20
539.741198
 42
-0.024041
  0
VERTEX
  8
0
 10
663.878060
 20
537.336586
 42
-0.012414
  0
VERTEX
  8
0
 10
633.500000
 20
536.538699
 42
-0.013979
  0
VERTEX
  8
0
 10
600.744911
 20
537.407672
 42
-0.021630
  0
VERTEX
  8
0
 10
572.583408
 20
540.168790
 42
-0.024783
  0
VERTEX
  8
0
 10
550.053618
 20
544.514397
 42
-0.074274
  0
VERTEX
  8
0
 10
535.579907
 20
550.436390
 42
-0.039797
  0
VERTEX
  8
0
 10
530.752302
 20
553.855245
 42
-0.030356
  0
VERTEX
  8
0
 10
526.040720
 20
558.301605
 42
-0.030391
  0
VERTEX
  8
0
 10
521.908972
 20
563.278331
 42
-0.040263
  0
VERTEX
  8
0
 10
518.824427
 20
568.290780
 42
-0.053620
  0
VERTEX
  8
0
 10
516.390825
 20
574.678029
 42
-0.042876
  0
VERTEX
  8
0
 10
515.135414
 20
581.939670
 42
-0.043970
  0
VERTEX
  8
0
 10
515.152460
 20
589.058938
 42
-0.069330
  0
VERTEX
  8
0
 10
516.535478
 20
595.000000
 42
0.046577
  0
VERTEX
  8
0
 10
517.407903
 20
598.103144
 42
0.023092
  0
VERTEX
  8
0
 10
517.958009
 20
602.159164
 42
0.014820
  0
VERTEX
  8
0
 10
518.299333
 20
607.938532
 42
0.004135
  0
VERTEX
  8
0
 10
518.490412
 20
617.000000
 42
-0.010813
  0
VERTEX
  8
0
 10
518.935721
 20
629.924602
 42
-0.024458
  0
VERTEX
  8
0
 10
519.961201
 20
639.657736
 42
-0.026672
  0
VERTEX
  8
0
 10
521.865627
 20
648.716639
 42
-0.015470
  0
VERTEX
  8
0
 10
525.062453
 20
659.371838
 42
-0.052248
  0
VERTEX
  8
0
 10
533.286266
 20
677.454981
 42
-0.046831
  0
VERTEX
  8
0
 10
545.342104
 20
694.171270
 42
-0.046488
  0
VERTEX
  8
0
 10
560.398879
 20
708.467064
 42
-0.049711
  0
VERTEX
  8
0
 10
577.519799
 20
719.374184
 42
-0.054654
  0
VERTEX
  8
0
 10
593.335120
 20
725.303413
 42
-0.035687
  0
VERTEX
  8
0
 10
612.532288
 20
728.759909
 42
-0.034032
  0
VERTEX
  8
0
 10
633.205883
 20
729.561662
 42
-0.035512
  0
SEQEND
  0
POLYLINE
  8
0
 66
1
 70
1
  0
VERTEX
  8
0
 10
525.834454
 20
549.608359
 42
0.008540
  0
VERTEX
  8
0
 10
528.241928
 20
547.807178
 42
0.007726
  0
VERTEX
  8
0
 10
530.790433
 20
546.026763
 42
0.007762
  0
VERTEX
  8
0
 10
533.121910
 20
544.503186
 42
0.024361
  0
VERTEX
  8
0
 10
534.750000
 20
543.582679
 42
-0.030305
  0
VERTEX
  8
0
 10
537.087237
 20
542.224339
 42
-0.196089
  0
VERTEX
  8
0
 10
537.837616
 20
541.119186
 42
-0.274288
  0
VERTEX
  8
0
 10
537.476586
 20
540.051922
 42
-0.055082
  0
VERTEX
  8
0
 10
535.750000
 20
538.872871
 42
0.022365
  0
VERTEX
  8
0
 10
534.640148
 20
538.216892
 42
0.007738
  0
VERTEX
  8
0
 10
533.097255
 20
537.174847
 42
0.007670
  0
VERTEX
  8
0
 10
531.430289
 20
535.972592
 42
0.008836
  0
VERTEX
  8
0
 10
529.878953
 20
534.773952
 42
0.000000
  0
VERTEX
  8
0
 10
526.257905
 20
531.872529
 42
0.000000
  0
VERTEX
  8
0
 10
520.811936
 20
537.318499
 42
0.014977
  0
VERTEX
  8
0
 10
518.444110
 20
539.548566
 42
0.012972
  0
VERTEX
  8
0
 10
515.833104
 20
541.745782
 42
0.013158
  0
VERTEX
  8
0
 10
513.363204
 20
543.612883
 42
0.036757
  0
VERTEX
  8
0
 10
511.510253
 20
544.742568
 42
0.000000
  0
VERTEX
  8
0
 10
507.654539
 20
546.720668
 42
0.000000
  0
VERTEX
  8
0
 10
513.077270
 20
550.287597
 42
-0.005694
  0
VERTEX
  8
0
 10
515.215411
 20
551.659383
 42
-0.008052
  0
VERTEX
  8
0
 10
517.152194
 20
552.828107
 42
-0.005028
  0
VERTEX
  8
0
 10
518.797088
 20
553.762896
 42
-0.105332
  0
VERTEX
  8
0
 10
519.334454
 20
553.927263
 42
-0.163311
  0
VERTEX
  8
0
 10
519.870845
 20
553.797808
 42
-0.006472
  0
VERTEX
  8
0
 10
521.588041
 20
552.688589
 42
-0.010843
  0
VERTEX
  8
0
 10
523.603071
 20
551.285793
 42
-0.007393
  0
SEQEND
  0
POLYLINE
  8
0
 66
1
 70
1
  0
VERTEX
  8
0
 10
558.221846
 20
534.040159
 42
0.008455
  0
VERTEX
  8
0
 10
563.337633
 20
532.789631
 42
0.005153
  0
VERTEX
  8
0
 10
569.418292
 20
531.477504
 42
0.005163
  0
VERTEX
  8
0
 10
575.473960
 20
530.300974
 42
0.009110
  0
VERTEX
  8
0
 10
580.500000
 20
529.472597
 42
-0.005791
  0
VERTEX
  8
0
 10
589.810409
 20
528.001496
 42
-0.061936
  0
VERTEX
  8
0
 10
593.468804
 20
526.901790
 42
-0.156808
  0
VERTEX
  8
0
 10
595.303742
 20
525.270209
 42
-0.093278
  0
VERTEX
  8
0
 10
596.307169
 20
522.494567
 42
0.069924
  0
VERTEX
  8
0
 10
597.414165
 20
518.922233
 42
0.055941
  0
VERTEX
  8
0
 10
599.528741
 20
515.487797
 42
0.058822
  0
VERTEX
  8
0
 10
602.182803
 20
512.811120
 42
0.114478
  0
VERTEX
  8
0
 10
604.884743
 20
511.525315
 42
0.097322
  0
VERTEX
  8
0
 10
607.847672
 20
511.459615
 42
0.049531
  0
VERTEX
  8
0
 10
611.451551
 20
512.460297
 42
0.046653
  0
VERTEX
  8
0
 10
615.091304
 20
514.277529
 42
0.051936
  0
VERTEX
  8
0
 10
618.191110
 20
516.683719
 42
0.000000
  0
VERTEX
  8
0
 10
620.882220
 20
519.261342
 42
0.000000
  0
VERTEX
  8
0
 10
624.797166
 20
516.160648
 42
0.044345
  0
VERTEX
  8
0
 10
630.106873
 20
512.672615
 42
0.106058
  0
VERTEX
  8
0
 10
634.612418
 20
511.370850
 42
0.131790
  0
VERTEX
  8
0
 10
638.629001
 20
512.152190
 42
0.088383
  0
VERTEX
  8
0
 10
642.428612
 20
514.925487
 42
0.041718
  0
VERTEX
  8
0
 10
643.560147
 20
516.323055
 42
0.022606
  0
VERTEX
  8
0
 10
644.720756
 20
518.207581
 42
0.022371
  0
VERTEX
  8
0
 10
645.735837
 20
520.245814
 42
0.032724
  0
VERTEX
  8
0
 10
646.426549
 20
522.126900
 42
0.000000
  0
VERTEX
  8
0
 10
647.714791
 20
526.500000
 42
0.000000
  0
VERTEX
  8
0
 10
659.607395
 20
527.121398
 42
0.013034
  0
VERTEX
  8
0
 10
670.794386
 20
527.998803
 42
0.012249
  0
VERTEX
  8
0
 10
682.155702
 20
529.470693
 42
0.012732
  0
VERTEX
  8
0
 10
692.844491
 20
531.402437
 42
0.019564
  0
VERTEX
  8
0
 10
701.970072
 20
533.668370
 42
-0.025790
  0
VERTEX
  8
0
 10
708.584129
 20
535.223559
 42
-0.057505
  0
VERTEX
  8
0
 10
713.735321
 20
535.556208
 42
-0.060992
  0
VERTEX
  8
0
 10
718.636585
 20
534.703622
 42
-0.032362
  0
VERTEX
  8
0
 10
724.416490
 20
532.536206
 42
-0.077461
  0
VERTEX
  8
0
 10
733.721384
 20
526.465466
 42
-0.087543
  0
VERTEX
  8
0
 10
740.283779
 20
518.070132
 42
-0.102890
  0
VERTEX
  8
0
 10
742.900185
 20
509.098664
 42
-0.157855
  0
VERTEX
  8
0
 10
741.035491
 20
501.290337
 42
-0.081036
  0
VERTEX
  8
0
 10
738.691643
 20
498.559372
 42
-0.051093
  0
VERTEX
  8
0
 10
735.210484
 20
496.189433
 42
-0.050624
  0
VERTEX
  8
0
 10
731.271047
 20
494.549544
 42
-0.073455
  0
VERTEX
  8
0
 10
727.550565
 20
494.000000
 42
-0.037690
  0
VERTEX
  8
0
 10
725.857733
 20
494.127788
 42
-0.016382
  0
VERTEX
  8
0
 10
723.637879
 20
494.539653
 42
-0.016103
  0
VERTEX
  8
0
 10
721.296151
 20
495.133641
 42
-0.020629
  0
VERTEX
  8
0
 10
719.186557
 20
495.837116
 42
0.019725
  0
VERTEX
  8
0
 10
716.895289
 20
496.605777
 42
0.036458
  0
VERTEX
  8
0
 10
714.976153
 20
497.017529
 42
0.045608
  0
VERTEX
  8
0
 10
713.376229
 20
497.093278
 42
0.077774
  0
VERTEX
  8
0
 10
712.067347
 20
496.829210
 42
0.178643
  0
VERTEX
  8
0
 10
710.675523
 20
495.638044
 42
0.142505
  0
VERTEX
  8
0
 10
710.229237
 20
493.699433
 42
0.049648
  0
VERTEX
  8
0
 10
710.783423
 20
490.177016
 42
0.005826
  0
VERTEX
  8
0
 10
712.882655
 20
482.500000
 42
-0.038115
  0
VERTEX
  8
0
 10
714.513337
 20
474.552660
 42
-0.050453
  0
VERTEX
  8
0
 10
714.700548
 20
467.172634
 42
-0.052764
  0
VERTEX
  8
0
 10
713.419969
 20
460.170665
 42
-0.047995
  0
VERTEX
  8
0
 10
710.679009
 20
453.352473
 42
-0.061328
  0
VERTEX
  8
0
 10
708.157872
 20
449.672501
 42
-0.029272
  0
VERTEX
  8
0
 10
704.111070
 20
445.595528
 42
-0.028652
  0
VERTEX
  8
0
 10
699.362516
 20
441.807931
 42
-0.038167
  0
VERTEX
  8
0
 10
694.629823
 20
438.972884
 42
0.022303
  0
VERTEX
  8
0
 10
692.030684
 20
437.525812
 42
0.013462
  0
VERTEX
  8
0
 10
689.080295
 20
435.594781
 42
0.013474
  0
VERTEX
  8
0
 10
686.247000
 20
433.514191
 42
0.022923
  0
VERTEX
  8
0
 10
684.011141
 20
431.607191
 42
-0.028884
  0
VERTEX
  8
0
 10
679.529571
 20
427.876099
 42
-0.042138
  0
VERTEX
  8
0
 10
675.157495
 20
425.181752
 42
-0.045423
  0
VERTEX
  8
0
 10
670.663798
 20
423.401055
 42
-0.042580
  0
VERTEX
  8
0
 10
665.824012
 20
422.412965
 42
0.000000
  0
VERTEX
  8
0
 10
660.500000
 20
421.791061
 42
0.000000
  0
VERTEX
  8
0
 10
657.832552
 20
427.249365
 42
0.028733
  0
VERTEX
  8
0
 10
656.416604
 20
429.768825
 42
0.013333
  0
VERTEX
  8
0
 10
654.308792
 20
432.875553
 42
0.013158
  0
VERTEX
  8
0
 10
651.915307
 20
436.029866
 42
0.017871
  0
VERTEX
  8
0
 10
649.582552
 20
438.737491
 42
-0.010970
  0
VERTEX
  8
0
 10
647.444172
 20
441.151328
 42
-0.015134
  0
VERTEX
  8
0
 10
645.639875
 20
443.415896
 42
-0.011697
  0
VERTEX
  8
0
 10
644.258483
 20
445.354559
 42
-0.150037
  0
VERTEX
  8
0
 10
644.000000
 20
446.196565
 42
-0.126509
  0
VERTEX
  8
0
 10
644.188902
 20
446.931209
 42
-0.026877
  0
VERTEX
  8
0
 10
644.893003
 20
448.061526
 42
-0.026510
  0
VERTEX
  8
0
 10
645.876270
 20
449.318422
 42
-0.022492
  0
VERTEX
  8
0
 10
647.040011
 20
450.538333
 42
0.060744
  0
VERTEX
  8
0
 10
648.985802
 20
452.917756
 42
0.125031
  0
VERTEX
  8
0
 10
649.726945
 20
455.189422
 42
0.194856
  0
VERTEX
  8
0
 10
649.162528
 20
456.902390
 42
0.171415
  0
VERTEX
  8
0
 10
647.528051
 20
457.855852
 42
0.142173
  0
VERTEX
  8
0
 10
646.399781
 20
457.749593
 42
0.060813
  0
VERTEX
  8
0
 10
645.056384
 20
457.019471
 42
0.042167
  0
VERTEX
  8
0
 10
643.454833
 20
455.660637
 42
0.017086
  0
VERTEX
  8
0
 10
641.504583
 20
453.561933
 42
-0.017841
  0
VERTEX
  8
0
 10
639.225891
 20
451.117199
 42
-0.055853
  0
VERTEX
  8
0
 10
637.471824
 20
449.718180
 42
-0.071823
  0
VERTEX
  8
0
 10
635.710581
 20
448.935293
 42
-0.045583
  0
VERTEX
  8
0
 10
633.499220
 20
448.524259
 42
0.074126
  0
VERTEX
  8
0
 10
629.946695
 20
447.652430
 42
0.133858
  0
VERTEX
  8
0
 10
627.586676
 20
445.840508
 42
0.131005
  0
VERTEX
  8
0
 10
626.441845
 20
443.050376
 42
0.069534
  0
VERTEX
  8
0
 10
626.479488
 20
439.288216
 42
0.000000
  0
VERTEX
  8
0
 10
627.122546
 20
435.000000
 42
0.000000
  0
VERTEX
  8
0
 10
621.995531
 20
435.000000
 42
0.029101
  0
VERTEX
  8
0
 10
617.917867
 20
434.762471
 42
0.085135
  0
VERTEX
  8
0
 10
615.225489
 20
433.970067
 42
0.096396
  0
VERTEX
  8
0
 10
613.142375
 20
432.392086
 42
0.044212
  0
VERTEX
  8
0
 10
611.093739
 20
429.651673
 42
-0.088011
  0
VERTEX
  8
0
 10
606.649752
 20
424.677313
 42
-0.082397
  0
VERTEX
  8
0
 10
600.668103
 20
421.396626
 42
-0.083254
  0
VERTEX
  8
0
 10
594.004903
 20
420.245216
 42
-0.092713
  0
VERTEX
  8
0
 10
587.592661
 20
421.411462
 42
-0.072089
  0
VERTEX
  8
0
 10
583.164575
 20
423.881025
 42
-0.042313
  0
VERTEX
  8
0
 10
578.664777
 20
427.967065
 42
-0.042513
  0
VERTEX
  8
0
 10
574.962816
 20
432.697791
 42
-0.079570
  0
VERTEX
  8
0
 10
572.985101
 20
437.123832
 42
0.009492
  0
VERTEX
  8
0
 10
572.084920
 20
440.249634
 42
0.039890
  0
VERTEX
  8
0
 10
571.362370
 20
442.063306
 42
0.029059
  0
VERTEX
  8
0
 10
570.269991
 20
443.984713
 42
0.003414
  0
VERTEX
  8
0
 10
567.562389
 20
448.100408
 42
-0.042932
  0
VERTEX
  8
0
 10
562.295053
 20
457.675929
 42
-0.034520
  0
VERTEX
  8
0
 10
558.284262
 20
468.729215
 42
-0.034479
  0
VERTEX
  8
0
 10
555.827995
 20
480.245273
 42
-0.042494
  0
VERTEX
  8
0
 10
555.210559
 20
491.205593
 42
0.008577
  0
VERTEX
  8
0
 10
555.258729
 20
495.391339
 42
0.017801
  0
VERTEX
  8
0
 10
555.124051
 20
498.654770
 42
0.017672
  0
VERTEX
  8
0
 10
554.850443
 20
501.083444
 42
0.160834
  0
VERTEX
  8
0
 10
554.377718
 20
502.022282
 42
0.157125
  0
VERTEX
  8
0
 10
553.537531
 20
502.452982
 42
0.061138
  0
VERTEX
  8
0
 10
552.217270
 20
502.505647
 42
0.038221
  0
VERTEX
  8
0
 10
550.302720
 20
502.199310
 42
0.011962
  0
VERTEX
  8
0
 10
547.491805
 20
501.454594
 42
-0.022642
  0
VERTEX
  8
0
 10
544.693684
 20
500.776858
 42
-0.021185
  0
VERTEX
  8
0
 10
541.783053
 20
500.336972
 42
-0.021553
  0
VERTEX
  8
0
 10
538.902132
 20
500.150797
 42
-0.026049
  0
VERTEX
  8
0
 10
536.193736
 20
500.233840
 42
-0.020890
  0
VERTEX
  8
0
 10
533.059961
 20
500.626062
 42
-0.066836
  0
VERTEX
  8
0
 10
531.052043
 20
501.246655
 42
-0.072040
  0
VERTEX
  8
0
 10
529.360856
 20
502.347585
 42
-0.027027
  0
VERTEX
  8
0
 10
527.335242
 20
504.331250
 42
-0.025402
  0
VERTEX
  8
0
 10
525.526374
 20
506.518345
 42
-0.071076
  0
VERTEX
  8
0
 10
524.577822
 20
508.261603
 42
-0.067703
  0
VERTEX
  8
0
 10
524.130829
 20
510.249215
 42
-0.021506
  0
VERTEX
  8
0
 10
524.000000
 20
513.289534
 42
-0.067184
  0
VERTEX
  8
0
 10
524.618969
 20
517.875238
 42
-0.055114
  0
VERTEX
  8
0
 10
526.447023
 20
522.472748
 42
-0.054426
  0
VERTEX
  8
0
 10
529.266008
 20
526.617104
 42
-0.061569
  0
VERTEX
  8
0
 10
532.810879
 20
529.865334
 42
-0.015608
  0
VERTEX
  8
0
 10
536.466775
 20
532.300273
 42
-0.013056
  0
VERTEX
  8
0
 10
540.488962
 20
534.658222
 42
-0.009095
  0
VERTEX
  8
0
 10
544.196980
 20
536.616727
 42
-0.114975
  0
VERTEX
  8
0
 10
545.721846
 20
536.987955
 42
-0.058461
  0
VERTEX
  8
0
 10
546.578363
 20
536.896016
 42
-0.001968
  0
VERTEX
  8
0
 10
549.897733
 20
536.127008
 42
-0.003698
  0
VERTEX
  8
0
 10
553.812004
 20
535.173315
 42
-0.002567
  0
SEQEND
  0
POLYLINE
  8
0
 66
1
 70
1
  0
VERTEX
  8
0
 10
195.325477
 20
354.540868
 42
0.072502
  0
VERTEX
  8
0
 10
192.609883
 20
352.857020
 42
0.086179
  0
VERTEX
  8
0
 10
190.671303
 20
350.551100
 42
0.063263
  0
VERTEX
  8
0
 10
189.235708
 20
347.162943
 42
0.022114
  0
VERTEX
  8
0
 10
188.025758
 20
342.000000
 42
-0.013962
  0
VERTEX
  8
0
 10
187.473336
 20
339.456885
 42
-0.018826
  0
VERTEX
  8
0
 10
186.823807
 20
337.193561
 42
-0.016099
  0
VERTEX
  8
0
 10
186.164986
 20
335.384852
 42
-0.156595
  0
VERTEX
  8
0
 10
185.651389
 20
334.765313
 42
-0.081870
  0
VERTEX
  8
0
 10
184.984441
 20
334.479724
 42
-0.020045
  0
VERTEX
  8
0
 10
183.810095
 20
334.240304
 42
-0.019999
  0
VERTEX
  8
0
 10
182.424376
 20
334.071749
 42
-0.018773
  0
VERTEX
  8
0
 10
181.000000
 20
334.009736
 42
0.057342
  0
VERTEX
  8
0
 10
174.622405
 20
333.237318
 42
0.104305
  0
VERTEX
  8
0
 10
169.899942
 20
330.997063
 42
0.125122
  0
VERTEX
  8
0
 10
167.026148
 20
327.377456
 42
0.105916
  0
VERTEX
  8
0
 10
166.000000
 20
322.587648
 42
0.095659
  0
VERTEX
  8
0
 10
166.903393
 20
317.908923
 42
0.111774
  0
VERTEX
  8
0
 10
169.468184
 20
314.192762
 42
0.106445
  0
VERTEX
  8
0
 10
173.497683
 20
311.821068
 42
0.080144
  0
VERTEX
  8
0
 10
178.587250
 20
311.000000
 42
0.000000
  0
VERTEX
  8
0
 10
182.273821
 20
311.000000
 42
0.000000
  0
VERTEX
  8
0
 10
181.760442
 20
304.604387
 42
-0.008508
  0
VERTEX
  8
0
 10
181.513968
 20
302.074410
 42
-0.010999
  0
VERTEX
  8
0
 10
181.197370
 20
299.763072
 42
-0.008893
  0
VERTEX
  8
0
 10
180.857735
 20
297.852303
 42
-0.090213
  0
VERTEX
  8
0
 10
180.564515
 20
297.104387
 42
-0.152213
  0
VERTEX
  8
0
 10
180.073617
 20
296.678061
 42
-0.038333
  0
VERTEX
  8
0
 10
179.062241
 20
296.324414
 42
-0.035557
  0
VERTEX
  8
0
 10
177.788471
 20
296.081203
 42
-0.029404
  0
VERTEX
  8
0
 10
176.408864
 20
296.000000
 42
0.032255
  0
VERTEX
  8
0
 10
174.833576
 20
295.898273
 42
0.018641
  0
VERTEX
  8
0
 10
172.960144
 20
295.583911
 42
0.018577
  0
VERTEX
  8
0
 10
171.096128
 20
295.126413
 42
0.029496
  0
VERTEX
  8
0
 10
169.545662
 20
294.583526
 42
0.171194
  0
VERTEX
  8
0
 10
164.343286
 20
289.881912
 42
0.177854
  0
VERTEX
  8
0
 10
163.345748
 20
283.040535
 42
0.161016
  0
VERTEX
  8
0
 10
167.046659
 20
276.673528
 42
0.142557
  0
VERTEX
  8
0
 10
174.003106
 20
273.383513
 42
0.000000
  0
VERTEX
  8
0
 10
178.000000
 20
272.744384
 42
0.000000
  0
VERTEX
  8
0
 10
178.014742
 20
267.122192
 42
0.033977
  0
VERTEX
  8
0
 10
178.349002
 20
262.392132
 42
0.082921
  0
VERTEX
  8
0
 10
179.391151
 20
259.069586
 42
0.098699
  0
VERTEX
  8
0
 10
181.319101
 20
256.616820
 42
0.063278
  0
VERTEX
  8
0
 10
184.355569
 20
254.620977
 42
0.117998
  0
VERTEX
  8
0
 10
189.746035
 20
253.414502
 42
0.137441
  0
VERTEX
  8
0
 10
194.765244
 20
254.900779
 42
0.125997
  0
VERTEX
  8
0
 10
198.586942
 20
258.929274
 42
0.090904
  0
VERTEX
  8
0
 10
200.585578
 20
264.820380
 42
-0.015005
  0
VERTEX
  8
0
 10
201.607164
 20
270.572218
 42
-0.141832
  0
VERTEX
  8
0
 10
202.768469
 20
272.762244
 42
-0.176111
  0
VERTEX
  8
0
 10
204.813161
 20
273.757004
 42
-0.026043
  0
VERTEX
  8
0
 10
209.475249
 20
274.000000
 42
0.000000
  0
VERTEX
  8
0
 10
216.000000
 20
274.000000
 42
0.000000
  0
VERTEX
  8
0
 10
216.003738
 20
267.750000
 42
0.041221
  0
VERTEX
  8
0
 10
216.419713
 20
262.749404
 42
0.074912
  0
VERTEX
  8
0
 10
217.687378
 20
258.858210
 42
0.090076
  0
VERTEX
  8
0
 10
219.836727
 20
255.996276
 42
0.088803
  0
VERTEX
  8
0
 10
222.865065
 20
254.055892
 42
0.129474
  0
VERTEX
  8
0
 10
228.292082
 20
253.317741
 42
0.122707
  0
VERTEX
  8
0
 10
233.502772
 20
255.317956
 42
0.112127
  0
VERTEX
  8
0
 10
237.505191
 20
259.729953
 42
0.095134
  0
VERTEX
  8
0
 10
239.511053
 20
265.707803
 42
-0.012521
  0
VERTEX
  8
0
 10
240.487850
 20
271.795902
 42
-0.118129
  0
VERTEX
  8
0
 10
241.557384
 20
274.195416
 42
-0.167997
  0
VERTEX
  8
0
 10
243.456785
 20
275.449223
 42
-0.032071
  0
VERTEX
  8
0
 10
247.582501
 20
276.227468
 42
0.057237
  0
VERTEX
  8
0
 10
252.677286
 20
277.456283
 42
0.108443
  0
VERTEX
  8
0
 10
256.221760
 20
279.713514
 42
0.119223
  0
VERTEX
  8
0
 10
258.287977
 20
283.080831
 42
0.078420
  0
VERTEX
  8
0
 10
259.000000
 20
287.592700
 42
0.084788
  0
VERTEX
  8
0
 10
258.311985
 20
291.620814
 42
0.100122
  0
VERTEX
  8
0
 10
256.334454
 20
294.935445
 42
0.096302
  0
VERTEX
  8
0
 10
253.152387
 20
297.310991
 42
0.072805
  0
VERTEX
  8
0
 10
248.982646
 20
298.618766
 42
0.000000
  0
VERTEX
  8
0
 10
244.754029
 20
299.294949
 42
0.000000
  0
VERTEX
  8
0
 10
245.422125
 20
305.815957
 42
-0.006031
  0
VERTEX
  8
0
 10
245.715474
 20
308.374433
 42
-0.008294
  0
VERTEX
  8
0
 10
246.044929
 20
310.665678
 42
-0.005665
  0
VERTEX
  8
0
 10
246.373036
 20
312.568793
 42
-0.093147
  0
VERTEX
  8
0
 10
246.604128
 20
313.168483
 42
-0.185520
  0
VERTEX
  8
0
 10
247.030010
 20
313.492477
 42
-0.025241
  0
VERTEX
  8
0
 10
248.139326
 20
313.755742
 42
-0.026261
  0
VERTEX
  8
0
 10
249.542820
 20
313.939275
 42
-0.019383
  0
VERTEX
  8
0
 10
251.108677
 20
314.000000
 42
0.055169
  0
VERTEX
  8
0
 10
254.757811
 20
314.403864
 42
0.065770
  0
VERTEX
  8
0
 10
258.005685
 20
315.596064
 42
0.070859
  0
VERTEX
  8
0
 10
260.637406
 20
317.493338
 42
0.082042
  0
VERTEX
  8
0
 10
262.483073
 20
319.967267
 42
0.035874
  0
VERTEX
  8
0
 10
263.577058
 20
322.515396
 42
0.086104
  0
VERTEX
  8
0
 10
263.907467
 20
324.536709
 42
0.082794
  0
VERTEX
  8
0
 10
263.542808
 20
326.599578
 42
0.031365
  0
VERTEX
  8
0
 10
262.392039
 20
329.299660
 42
0.045780
  0
VERTEX
  8
0
 10
260.717912
 20
331.987281
 42
0.057020
  0
VERTEX
  8
0
 10
258.686700
 20
334.113702
 42
0.065136
  0
VERTEX
  8
0
 10
256.502343
 20
335.496273
 42
0.106336
  0
VERTEX
  8
0
 10
254.372445
 20
335.977764
 42
-0.106406
  0
VERTEX
  8
0
 10
252.389722
 20
336.426274
 42
-0.138372
  0
VERTEX
  8
0
 10
250.983414
 20
337.633759
 42
-0.124340
  0
VERTEX
  8
0
 10
250.321850
 20
339.510473
 42
-0.077078
  0
VERTEX
  8
0
 10
250.468251
 20
341.855450
 42
0.133314
  0
VERTEX
  8
0
 10
250.237975
 20
346.564498
 42
0.092164
  0
VERTEX
  8
0
 10
247.677114
 20
351.277451
 42
0.091897
  0
VERTEX
  8
0
 10
243.584998
 20
354.766196
 42
0.131423
  0
VERTEX
  8
0
 10
239.000000
 20
355.992524
 42
0.091971
  0
VERTEX
  8
0
 10
236.379032
 20
355.506303
 42
0.045472
  0
VERTEX
  8
0
 10
233.331538
 20
354.005015
 42
0.045398
  0
VERTEX
  8
0
 10
230.589906
 20
351.966516
 42
0.087551
  0
VERTEX
  8
0
 10
228.904955
 20
349.822407
 42
0.034222
  0
VERTEX
  8
0
 10
228.360395
 20
348.612677
 42
0.011025
  0
VERTEX
  8
0
 10
227.718021
 20
346.752522
 42
0.010938
  0
VERTEX
  8
0
 10
227.092537
 20
344.645624
 42
0.012049
  0
VERTEX
  8
0
 10
226.581294
 20
342.579915
 42
-0.017535
  0
VERTEX
  8
0
 10
225.844161
 20
339.735653
 42
-0.090964
  0
VERTEX
  8
0
 10
225.112186
 20
338.294952
 42
-0.123124
  0
VERTEX
  8
0
 10
224.025348
 20
337.426320
 42
-0.043955
  0
VERTEX
  8
0
 10
222.140478
 20
336.756596
 42
-0.027596
  0
VERTEX
  8
0
 10
220.597882
 20
336.446510
 42
-0.015778
  0
VERTEX
  8
0
 10
218.709432
 20
336.234802
 42
-0.015726
  0
VERTEX
  8
0
 10
216.790735
 20
336.141410
 42
-0.025103
  0
VERTEX
  8
0
 10
215.150317
 20
336.195578
 42
0.000000
  0
VERTEX
  8
0
 10
211.500000
 20
336.500000
 42
0.000000
  0
VERTEX
  8
0
 10
211.460415
 20
342.000000
 42
0.033927
  0
VERTEX
  8
0
 10
211.135163
 20
346.327086
 42
0.076150
  0
VERTEX
  8
0
 10
210.180431
 20
349.470603
 42
0.087453
  0
VERTEX
  8
0
 10
208.431535
 20
351.913464
 42
0.056923
  0
VERTEX
  8
0
 10
205.686178
 20
354.049773
 42
0.043055
  0
VERTEX
  8
0
 10
203.047011
 20
355.362264
 42
0.082203
  0
VERTEX
  8
0
 10
200.737757
 20
355.857848
 42
0.078394
  0
VERTEX
  8
0
 10
198.319328
 20
355.592939
 42
0.036196
  0
SEQEND
  0
POLYLINE
  8
0
 66
1
 70
1
  0
VERTEX
  8
0
 10
220.671477
 20
306.384842
 42
-0.014024
  0
VERTEX
  8
0
 10
220.350744
 20
303.750568
 42
-0.017048
  0
VERTEX
  8
0
 10
219.897591
 20
301.306089
 42
-0.015735
  0
VERTEX
  8
0
 10
219.387153
 20
299.297483
 42
-0.103467
  0
VERTEX
  8
0
 10
218.904427
 20
298.384842
 42
-0.132781
  0
VERTEX
  8
0
 10
218.051797
 20
297.783762
 42
-0.039791
  0
VERTEX
  8
0
 10
216.506764
 20
297.355336
 42
-0.031674
  0
VERTEX
  8
0
 10
214.405722
 20
297.085716
 42
-0.016077
  0
VERTEX
  8
0
 10
211.740645
 20
297.000000
 42
0.000000
  0
VERTEX
  8
0
 10
205.726179
 20
297.000000
 42
0.000000
  0
VERTEX
  8
0
 10
206.263220
 20
303.690389
 42
-0.031874
  0
VERTEX
  8
0
 10
207.003207
 20
308.799928
 42
-0.149031
  0
VERTEX
  8
0
 10
208.421109
 20
311.374318
 42
-0.157405
  0
VERTEX
  8
0
 10
210.986773
 20
312.643007
 42
-0.036762
  0
VERTEX
  8
0
 10
215.835734
 20
313.000000
 42
0.000000
  0
VERTEX
  8
0
 10
221.289210
 20
313.000000
 42
0.000000
  0
SEQEND
  0
POLYLINE
  8
0
 66
1
 70
1
  0
VERTEX
  8
0
 10
296.500000
 20
355.009403
 42
0.023190
  0
VERTEX
  8
0
 10
288.926377
 20
353.745961
 42
0.057531
  0
VERTEX
  8
0
 10
283.608712
 20
351.944671
 42
0.073753
  0
VERTEX
  8
0
 10
279.660870
 20
349.308335
 42
0.063946
  0
VERTEX
  8
0
 10
276.424321
 20
345.520344
 42
0.105646
  0
VERTEX
  8
0
 10
275.304609
 20
342.623390
 42
0.028009
  0
VERTEX
  8
0
 10
274.795393
 20
337.663598
 42
0.011229
  0
VERTEX
  8
0
 10
274.581173
 20
328.682983
 42
0.000996
  0
VERTEX
  8
0
 10
274.594789
 20
306.039480
 42
0.000947
  0
VERTEX
  8
0
 10
274.701100
 20
282.355749
 42
0.012756
  0
VERTEX
  8
0
 10
274.977673
 20
273.687274
 42
0.036346
  0
VERTEX
  8
0
 10
275.628016
 20
268.715399
 42
0.060636
  0
VERTEX
  8
0
 10
276.969438
 20
264.719104
 42
0.070950
  0
VERTEX
  8
0
 10
279.807813
 20
260.448901
 42
0.085777
  0
VERTEX
  8
0
 10
283.571138
 20
257.459036
 42
0.066902
  0
VERTEX
  8
0
 10
288.862965
 20
255.427072
 42
0.026920
  0
VERTEX
  8
0
 10
296.500000
 20
254.043764
 42
0.037727
  0
VERTEX
  8
0
 10
309.470918
 20
253.395417
 42
0.052475
  0
VERTEX
  8
0
 10
320.993070
 20
254.905639
 42
0.059326
  0
VERTEX
  8
0
 10
330.782382
 20
258.520055
 42
0.075200
  0
VERTEX
  8
0
 10
338.606289
 20
264.133104
 42
0.039363
  0
VERTEX
  8
0
 10
342.978405
 20
269.121351
 42
0.067616
  0
VERTEX
  8
0
 10
345.653025
 20
273.948643
 42
0.062981
  0
VERTEX
  8
0
 10
347.055141
 20
279.553402
 42
0.029843
  0
VERTEX
  8
0
 10
347.500000
 20
287.000000
 42
0.020676
  0
VERTEX
  8
0
 10
347.207034
 20
294.081595
 42
0.071125
  0
VERTEX
  8
0
 10
346.184808
 20
298.553979
 42
0.074044
  0
VERTEX
  8
0
 10
343.973540
 20
302.465466
 42
0.023649
  0
VERTEX
  8
0
 10
339.607429
 20
307.548796
 42
0.000000
  0
VERTEX
  8
0
 10
335.212655
 20
312.201173
 42
0.000000
  0
VERTEX
  8
0
 10
338.106328
 20
317.702132
 42
0.047684
  0
VERTEX
  8
0
 10
340.010370
 20
322.347983
 42
0.051486
  0
VERTEX
  8
0
 10
340.938218
 20
327.152282
 42
0.050750
  0
VERTEX
  8
0
 10
340.871268
 20
332.105513
 42
0.044070
  0
VERTEX
  8
0
 10
339.823983
 20
337.193157
 42
0.070523
  0
VERTEX
  8
0
 10
337.971838
 20
341.211408
 42
0.039675
  0
VERTEX
  8
0
 10
334.705952
 20
345.489430
 42
0.039386
  0
VERTEX
  8
0
 10
330.746164
 20
349.258506
 42
0.062052
  0
VERTEX
  8
0
 10
326.770385
 20
351.740343
 42
0.055796
  0
VERTEX
  8
0
 10
322.845925
 20
353.052339
 42
0.009076
  0
VERTEX
  8
0
 10
314.950608
 20
354.595372
 42
0.008149
  0
VERTEX
  8
0
 10
306.983285
 20
355.869328
 42
0.072120
  0
VERTEX
  8
0
 10
303.432275
 20
355.863176
 42
-0.005439
  0
VERTEX
  8
0
 10
302.810743
 20
355.778854
 42
-0.000356
  0
VERTEX
  8
0
 10
301.011356
 20
355.555940
 42
-0.000517
  0
VERTEX
  8
0
 10
298.866117
 20
355.293988
 42
-0.000386
  0
SEQEND
  0
POLYLINE
  8
0
 66
1
 70
1
  0
VERTEX
  8
0
 10
313.499453
 20
331.000454
 42
-0.144841
  0
VERTEX
  8
0
 10
314.628699
 20
329.315316
 42
-0.087751
  0
VERTEX
  8
0
 10
314.936698
 20
326.915677
 42
-0.083983
  0
VERTEX
  8
0
 10
314.399040
 20
324.453256
 42
-0.113658
  0
VERTEX
  8
0
 10
313.100555
 20
322.591001
 42
-0.091718
  0
VERTEX
  8
0
 10
310.660515
 20
321.086124
 42
-0.022763
  0
VERTEX
  8
0
 10
306.191274
 20
319.584217
 42
-0.020291
  0
VERTEX
  8
0
 10
301.655165
 20
318.483269
 42
-0.141925
  0
VERTEX
  8
0
 10
299.408688
 20
318.673413
 42
-0.171903
  0
VERTEX
  8
0
 10
298.792658
 20
319.199582
 42
-0.065324
  0
VERTEX
  8
0
 10
298.353642
 20
320.258650
 42
-0.045660
  0
VERTEX
  8
0
 10
298.083950
 20
321.818065
 42
-0.020001
  0
VERTEX
  8
0
 10
298.000000
 20
323.915859
 42
-0.036781
  0
VERTEX
  8
0
 10
298.234712
 20
327.102222
 42
-0.073981
  0
VERTEX
  8
0
 10
298.965348
 20
329.508848
 42
-0.093517
  0
VERTEX
  8
0
 10
300.216724
 20
331.228987
 42
-0.095610
  0
VERTEX
  8
0
 10
302.000000
 20
332.358791
 42
-0.096665
  0
VERTEX
  8
0
 10
304.301827
 20
332.780877
 42
-0.026556
  0
VERTEX
  8
0
 10
307.996429
 20
332.542331
 42
-0.025555
  0
VERTEX
  8
0
 10
311.612515
 20
331.926535
 42
-0.118792
  0
SEQEND
  0
POLYLINE
  8
0
 66
1
 70
1
  0
VERTEX
  8
0
 10
320.545455
 20
293.545455
 42
-0.155160
  0
VERTEX
  8
0
 10
322.767329
 20
289.251809
 42
-0.135150
  0
VERTEX
  8
0
 10
322.265244
 20
284.196981
 42
-0.121435
  0
VERTEX
  8
0
 10
319.131092
 20
279.706593
 42
-0.112682
  0
VERTEX
  8
0
 10
314.185724
 20
277.034833
 42
-0.042453
  0
VERTEX
  8
0
 10
310.443638
 20
276.330439
 42
-0.020400
  0
VERTEX
  8
0
 10
305.564679
 20
276.035344
 42
-0.012316
  0
VERTEX
  8
0
 10
300.847701
 20
276.059002
 42
-0.255254
  0
VERTEX
  8
0
 10
299.666951
 20
276.750000
 42
-0.101248
  0
VERTEX
  8
0
 10
299.466780
 20
277.316465
 42
-0.003875
  0
VERTEX
  8
0
 10
299.175673
 20
279.541148
 42
-0.006806
  0
VERTEX
  8
0
 10
298.885971
 20
282.194519
 42
-0.004730
  0
VERTEX
  8
0
 10
298.627953
 20
285.198590
 42
-0.024773
  0
VERTEX
  8
0
 10
298.453990
 20
291.716541
 42
-0.195212
  0
VERTEX
  8
0
 10
299.631477
 20
294.437398
 42
-0.176426
  0
VERTEX
  8
0
 10
302.444516
 20
295.719136
 42
-0.019572
  0
VERTEX
  8
0
 10
309.616883
 20
296.000000
 42
-0.007613
  0
VERTEX
  8
0
 10
314.598232
 20
295.924151
 42
-0.047657
  0
VERTEX
  8
0
 10
317.122641
 20
295.605172
 42
-0.085055
  0
VERTEX
  8
0
 10
318.857165
 20
294.890903
 42
-0.056325
  0
SEQEND
  0
POLYLINE
  8
0
 66
1
 70
1
  0
VERTEX
  8
0
 10
773.450423
 20
352.593404
 42
0.101645
  0
VERTEX
  8
0
 10
769.201089
 20
349.601999
 42
0.061836
  0
VERTEX
  8
0
 10
765.562750
 20
344.625536
 42
0.030150
  0
VERTEX
  8
0
 10
761.379915
 20
335.910948
 42
0.004931
  0
VERTEX
  8
0
 10
754.478980
 20
318.500000
 42
-0.000708
  0
VERTEX
  8
0
 10
750.239016
 20
307.533108
 42
-0.012910
  0
VERTEX
  8
0
 10
748.793513
 20
304.077129
 42
-0.040887
  0
VERTEX
  8
0
 10
747.891319
 20
302.440089
 42
-0.251450
  0
VERTEX
  8
0
 10
747.071545
 20
302.000000
 42
-0.281155
  0
VERTEX
  8
0
 10
745.986999
 20
302.662197
 42
-0.011790
  0
VERTEX
  8
0
 10
743.932083
 20
306.906458
 42
-0.012953
  0
VERTEX
  8
0
 10
741.221712
 20
313.291903
 42
-0.003543
  0
VERTEX
  8
0
 10
737.280875
 20
323.500000
 42
0.008620
  0
VERTEX
  8
0
 10
731.832552
 20
337.197356
 42
0.043078
  0
VERTEX
  8
0
 10
728.005070
 20
344.514916
 42
0.078830
  0
VERTEX
  8
0
 10
724.214007
 20
348.790911
 42
0.089482
  0
VERTEX
  8
0
 10
719.436905
 20
351.460610
 42
0.106538
  0
VERTEX
  8
0
 10
714.142419
 20
352.092843
 42
0.097061
  0
VERTEX
  8
0
 10
708.861141
 20
350.534425
 42
0.097469
  0
VERTEX
  8
0
 10
704.575997
 20
347.106031
 42
0.108495
  0
VERTEX
  8
0
 10
702.107993
 20
342.428949
 42
0.123393
  0
VERTEX
  8
0
 10
701.951742
 20
335.880215
 42
0.038682
  0
VERTEX
  8
0
 10
704.863911
 20
326.433061
 42
0.014883
  0
VERTEX
  8
0
 10
711.907145
 20
310.053824
 42
0.001329
  0
VERTEX
  8
0
 10
730.936547
 20
269.478059
 42
0.019652
  0
VERTEX
  8
0
 10
735.063636
 20
261.560048
 42
0.071490
  0
VERTEX
  8
0
 10
738.543533
 20
257.099510
 42
0.108328
  0
VERTEX
  8
0
 10
742.297053
 20
254.799628
 42
0.083672
  0
VERTEX
  8
0
 10
747.041929
 20
254.000000
 42
0.087208
  0
VERTEX
  8
0
 10
751.861281
 20
254.847010
 42
0.108136
  0
VERTEX
  8
0
 10
755.702600
 20
257.273476
 42
0.073543
  0
VERTEX
  8
0
 10
759.171754
 20
261.883114
 42
0.022345
  0
VERTEX
  8
0
 10
763.013713
 20
269.763005
 42
-0.001616
  0
VERTEX
  8
0
 10
765.297917
 20
274.987039
 42
-0.000416
  0
VERTEX
  8
0
 10
769.018849
 20
283.403550
 42
-0.000424
  0
VERTEX
  8
0
 10
773.278991
 20
292.996100
 42
-0.000431
  0
VERTEX
  8
0
 10
777.530690
 20
302.525676
 42
0.002350
  0
VERTEX
  8
0
 10
781.632697
 20
311.815371
 42
0.002734
  0
VERTEX
  8
0
 10
785.442663
 20
320.686701
 42
0.002428
  0
VERTEX
  8
0
 10
788.588456
 20
328.225247
 42
0.016385
  0
VERTEX
  8
0
 10
790.005563
 20
332.016515
 42
0.050040
  0
VERTEX
  8
0
 10
791.522099
 20
338.644419
 42
0.096324
  0
VERTEX
  8
0
 10
791.158154
 20
344.059144
 42
0.110437
  0
VERTEX
  8
0
 10
788.874229
 20
348.455268
 42
0.081206
  0
VERTEX
  8
0
 10
784.695666
 20
352.044003
 42
0.052339
  0
VERTEX
  8
0
 10
781.956263
 20
353.343604
 42
0.072518
  0
VERTEX
  8
0
 10
779.292228
 20
353.865905
 42
0.070002
  0
VERTEX
  8
0
 10
776.519270
 20
353.612985
 42
0.045045
  0
SEQEND
  0
POLYLINE
  8
0
 66
1
 70
1
  0
VERTEX
  8
0
 10
871.500000
 20
352.217727
 42
0.061274
  0
VERTEX
  8
0
 10
867.954210
 20
349.318323
 42
0.129307
  0
VERTEX
  8
0
 10
866.245160
 20
346.232391
 42
0.053831
  0
VERTEX
  8
0
 10
865.521172
 20
341.132728
 42
0.004152
  0
VERTEX
  8
0
 10
865.172813
 20
327.291260
 42
-0.003004
  0
VERTEX
  8
0
 10
864.959249
 20
317.953056
 42
-0.012456
  0
VERTEX
  8
0
 10
864.656062
 20
312.321433
 42
-0.011928
  0
VERTEX
  8
0
 10
864.278493
 20
308.652564
 42
-0.471261
  0
VERTEX
  8
0
 10
863.672813
 20
308.269784
 42
-0.150825
  0
VERTEX
  8
0
 10
862.318834
 20
309.229418
 42
-0.006592
  0
VERTEX
  8
0
 10
858.812428
 20
313.922772
 42
-0.006999
  0
VERTEX
  8
0
 10
853.667318
 20
321.214811
 42
-0.001464
  0
VERTEX
  8
0
 10
844.870338
 20
334.141578
 42
0.012055
  0
VERTEX
  8
0
 10
837.408061
 20
344.622719
 42
0.060215
  0
VERTEX
  8
0
 10
832.429965
 20
349.827838
 42
0.106110
  0
VERTEX
  8
0
 10
827.800469
 20
352.214372
 42
0.085649
  0
VERTEX
  8
0
 10
822.217913
 20
352.738801
 42
0.023933
  0
VERTEX
  8
0
 10
819.336550
 20
352.376531
 42
0.058291
  0
VERTEX
  8
0
 10
817.287878
 20
351.766562
 42
0.061622
  0
VERTEX
  8
0
 10
815.503144
 20
350.723442
 42
0.029451
  0
VERTEX
  8
0
 10
813.486749
 20
348.987157
 42
0.027885
  0
VERTEX
  8
0
 10
812.097785
 20
347.481972
 42
0.022538
  0
VERTEX
  8
0
 10
810.776547
 20
345.723753
 42
0.023090
  0
VERTEX
  8
0
 10
809.703431
 20
343.985944
 42
0.053036
  0
VERTEX
  8
0
 10
809.103913
 20
342.572090
 42
0.052313
  0
VERTEX
  8
0
 10
808.061775
 20
337.169231
 42
0.010520
  0
VERTEX
  8
0
 10
807.424958
 20
327.382556
 42
0.008321
  0
VERTEX
  8
0
 10
807.046589
 20
313.525462
 42
0.002909
  0
VERTEX
  8
0
 10
806.950095
 20
293.586339
 42
0.001735
  0
VERTEX
  8
0
 10
807.021967
 20
277.429230
 42
0.011244
  0
VERTEX
  8
0
 10
807.269533
 20
269.289576
 42
0.021627
  0
VERTEX
  8
0
 10
807.745538
 20
264.353673
 42
0.076066
  0
VERTEX
  8
0
 10
808.659062
 20
261.306044
 42
0.106474
  0
VERTEX
  8
0
 10
811.958742
 20
257.012187
 42
0.109841
  0
VERTEX
  8
0
 10
816.698975
 20
254.516420
 42
0.109613
  0
VERTEX
  8
0
 10
822.058355
 20
254.261823
 42
0.105654
  0
VERTEX
  8
0
 10
827.102117
 20
256.284628
 42
0.097545
  0
VERTEX
  8
0
 10
830.221588
 20
259.410447
 42
0.100213
  0
VERTEX
  8
0
 10
831.885600
 20
263.456894
 42
0.048352
  0
VERTEX
  8
0
 10
832.501543
 20
270.006898
 42
0.007429
  0
VERTEX
  8
0
 10
832.269499
 20
283.097021
 42
-0.003556
  0
VERTEX
  8
0
 10
832.057861
 20
291.404131
 42
-0.012276
  0
VERTEX
  8
0
 10
832.091202
 20
296.788564
 42
-0.010913
  0
VERTEX
  8
0
 10
832.286355
 20
300.497497
 42
-0.240171
  0
VERTEX
  8
0
 10
832.832266
 20
301.396335
 42
-0.388396
  0
VERTEX
  8
0
 10
834.037980
 20
301.167762
 42
-0.009407
  0
VERTEX
  8
0
 10
837.640055
 20
296.161520
 42
-0.008709
  0
VERTEX
  8
0
 10
843.306342
 20
287.652334
 42
-0.001168
  0
VERTEX
  8
0
 10
854.878636
 20
269.507030
 42
0.007429
  0
VERTEX
  8
0
 10
857.868696
 20
264.945643
 42
0.009642
  0
VERTEX
  8
0
 10
860.750345
 20
260.860892
 42
0.007627
  0
VERTEX
  8
0
 10
863.266938
 20
257.543059
 42
0.081827
  0
VERTEX
  8
0
 10
864.505942
 20
256.404150
 42
0.046690
  0
VERTEX
  8
0
 10
867.419153
 20
254.862506
 42
0.050858
  0
VERTEX
  8
0
 10
870.486409
 20
253.941230
 42
0.053219
  0
VERTEX
  8
0
 10
873.544515
 20
253.684294
 42
0.061800
  0
VERTEX
  8
0
 10
876.431457
 20
254.108686
 42
0.097495
  0
VERTEX
  8
0
 10
879.819318
 20
255.803162
 42
0.050292
  0
VERTEX
  8
0
 10
883.272527
 20
259.076424
 42
0.049980
  0
VERTEX
  8
0
 10
886.042206
 20
263.024354
 42
0.087333
  0
VERTEX
  8
0
 10
887.362090
 20
266.783487
 42
0.028345
  0
VERTEX
  8
0
 10
888.204225
 20
274.641005
 42
0.001084
  0
VERTEX
  8
0
 10
889.611571
 20
303.984165
 42
0.001096
  0
VERTEX
  8
0
 10
890.889792
 20
333.306961
 42
0.027938
  0
VERTEX
  8
0
 10
890.773997
 20
341.298055
 42
0.018887
  0
VERTEX
  8
0
 10
890.427806
 20
344.487515
 42
0.057338
  0
VERTEX
  8
0
 10
889.866846
 20
346.592507
 42
0.067856
  0
VERTEX
  8
0
 10
888.902029
 20
348.315375
 42
0.034864
  0
VERTEX
  8
0
 10
887.275618
 20
350.185921
 42
0.088959
  0
VERTEX
  8
0
 10
883.847901
 20
352.571157
 42
0.075746
  0
VERTEX
  8
0
 10
879.607313
 20
353.787309
 42
0.076815
  0
VERTEX
  8
0
 10
875.254439
 20
353.677423
 42
0.096417
  0
SEQEND
  0
POLYLINE
  8
0
 66
1
 70
1
  0
VERTEX
  8
0
 10
427.418438
 20
352.031147
 42
0.059509
  0
VERTEX
  8
0
 10
426.432827
 20
351.488481
 42
0.020453
  0
VERTEX
  8
0
 10
425.147251
 20
350.484393
 42
0.019994
  0
VERTEX
  8
0
 10
423.806690
 20
349.250582
 42
0.021842
  0
VERTEX
  8
0
 10
422.609779
 20
347.948095
 42
0.000000
  0
VERTEX
  8
0
 10
419.882681
 20
344.707123
 42
0.000000
  0
VERTEX
  8
0
 10
420.572551
 20
324.603562
 42
-0.004017
  0
VERTEX
  8
0
 10
420.824444
 20
315.016398
 42
-0.009493
  0
VERTEX
  8
0
 10
420.819067
 20
307.869536
 42
-0.012345
  0
VERTEX
  8
0
 10
420.580387
 20
302.500595
 42
-0.034259
  0
VERTEX
  8
0
 10
420.062381
 20
298.759964
 42
-0.071937
  0
VERTEX
  8
0
 10
417.035241
 20
290.459952
 42
-0.092280
  0
VERTEX
  8
0
 10
411.949605
 20
284.137298
 42
-0.109293
  0
VERTEX
  8
0
 10
405.668476
 20
280.773709
 42
-0.142203
  0
VERTEX
  8
0
 10
399.174888
 20
280.829456
 42
-0.140078
  0
VERTEX
  8
0
 10
391.768119
 20
285.571125
 42
-0.110249
  0
VERTEX
  8
0
 10
387.152372
 20
293.952367
 42
-0.068706
  0
VERTEX
  8
0
 10
385.226738
 20
306.994297
 42
-0.023290
  0
VERTEX
  8
0
 10
385.941219
 20
326.203290
 42
0.003805
  0
VERTEX
  8
0
 10
386.566387
 20
334.398237
 42
0.021308
  0
VERTEX
  8
0
 10
386.680400
 20
338.796145
 42
0.039979
  0
VERTEX
  8
0
 10
386.393456
 20
341.757117
 42
0.054869
  0
VERTEX
  8
0
 10
385.638758
 20
344.322149
 42
0.079963
  0
VERTEX
  8
0
 10
383.837528
 20
347.224958
 42
0.061975
  0
VERTEX
  8
0
 10
381.066687
 20
349.714894
 42
0.062880
  0
VERTEX
  8
0
 10
377.819662
 20
351.416357
 42
0.089180
  0
VERTEX
  8
0
 10
374.618034
 20
351.996262
 42
0.086528
  0
VERTEX
  8
0
 10
371.729344
 20
351.496445
 42
0.051922
  0
VERTEX
  8
0
 10
368.582742
 20
349.985353
 42
0.052302
  0
VERTEX
  8
0
 10
365.852757
 20
347.884186
 42
0.095992
  0
VERTEX
  8
0
 10
364.230627
 20
345.606825
 42
0.081994
  0
VERTEX
  8
0
 10
361.948536
 20
337.161116
 42
0.014118
  0
VERTEX
  8
0
 10
360.750358
 20
320.560026
 42
0.015962
  0
VERTEX
  8
0
 10
360.548253
 20
303.568749
 42
0.047339
  0
VERTEX
  8
0
 10
361.880278
 20
292.000000
 42
0.114214
  0
VERTEX
  8
0
 10
372.375752
 20
269.513080
 42
0.144233
  0
VERTEX
  8
0
 10
390.971829
 20
256.232131
 42
0.155483
  0
VERTEX
  8
0
 10
412.712538
 20
255.684273
 42
0.137616
  0
VERTEX
  8
0
 10
432.001662
 20
267.692197
 42
0.021068
  0
VERTEX
  8
0
 10
435.908286
 20
272.346003
 42
0.038631
  0
VERTEX
  8
0
 10
438.615821
 20
276.487768
 42
0.035059
  0
VERTEX
  8
0
 10
440.814652
 20
281.261158
 42
0.014338
  0
VERTEX
  8
0
 10
443.148957
 20
288.012102
 42
0.024044
  0
VERTEX
  8
0
 10
444.458868
 20
293.013554
 42
0.031994
  0
VERTEX
  8
0
 10
445.133556
 20
297.662921
 42
0.017646
  0
VERTEX
  8
0
 10
445.422242
 20
304.094623
 42
0.002658
  0
VERTEX
  8
0
 10
445.477103
 20
317.000000
 42
0.006229
  0
VERTEX
  8
0
 10
445.268011
 20
332.460129
 42
0.034475
  0
VERTEX
  8
0
 10
444.480236
 20
340.735932
 42
0.066517
  0
VERTEX
  8
0
 10
442.859229
 20
346.038793
 42
0.089209
  0
VERTEX
  8
0
 10
439.995830
 20
350.158017
 42
0.086459
  0
VERTEX
  8
0
 10
437.453122
 20
351.946199
 42
0.073276
  0
VERTEX
  8
0
 10
434.305503
 20
352.899669
 42
0.069311
  0
VERTEX
  8
0
 10
430.851591
 20
352.932277
 42
0.063951
  0
SEQEND
  0
POLYLINE
  8
0
 66
1
 70
1
  0
VERTEX
  8
0
 10
469.118670
 20
352.066095
 42
0.049479
  0
VERTEX
  8
0
 10
467.599240
 20
351.511567
 42
0.025266
  0
VERTEX
  8
0
 10
465.814497
 20
350.538094
 42
0.024832
  0
VERTEX
  8
0
 10
464.060119
 20
349.339115
 42
0.033992
  0
VERTEX
  8
0
 10
462.618670
 20
348.082182
 42
0.000000
  0
VERTEX
  8
0
 10
459.500000
 20
344.965486
 42
0.000000
  0
VERTEX
  8
0
 10
459.157659
 20
321.732743
 42
0.008146
  0
VERTEX
  8
0
 10
459.188574
 20
301.888257
 42
0.010224
  0
VERTEX
  8
0
 10
459.892848
 20
283.507625
 42
0.008431
  0
VERTEX
  8
0
 10
461.053796
 20
268.181835
 42
0.078430
  0
VERTEX
  8
0
 10
462.684215
 20
261.770065
 42
0.043814
  0
VERTEX
  8
0
 10
463.683638
 20
259.910335
 42
0.054661
  0
VERTEX
  8
0
 10
464.930961
 20
258.398757
 42
0.050302
  0
VERTEX
  8
0
 10
466.562596
 20
257.103011
 42
0.029958
  0
VERTEX
  8
0
 10
468.728590
 20
255.889342
 42
0.033428
  0
VERTEX
  8
0
 10
471.603036
 20
254.727865
 42
0.055284
  0
VERTEX
  8
0
 10
474.162100
 20
254.191179
 42
0.034237
  0
VERTEX
  8
0
 10
477.525607
 20
254.097578
 42
0.006042
  0
VERTEX
  8
0
 10
483.835764
 20
254.430492
 42
0.009134
  0
VERTEX
  8
0
 10
488.358527
 20
254.807023
 42
0.007703
  0
VERTEX
  8
0
 10
493.129881
 20
255.366548
 42
0.007786
  0
VERTEX
  8
0
 10
497.467889
 20
256.012023
 42
0.021327
  0
VERTEX
  8
0
 10
500.500000
 20
256.645409
 42
0.055943
  0
VERTEX
  8
0
 10
510.685438
 20
260.483302
 42
0.059475
  0
VERTEX
  8
0
 10
519.539578
 20
266.423559
 42
0.059218
  0
VERTEX
  8
0
 10
526.777576
 20
274.306666
 42
0.054646
  0
VERTEX
  8
0
 10
532.196025
 20
283.874625
 42
0.014825
  0
VERTEX
  8
0
 10
534.092849
 20
288.673060
 42
0.044770
  0
VERTEX
  8
0
 10
534.986804
 20
292.070127
 42
0.035835
  0
VERTEX
  8
0
 10
535.361776
 20
295.955842
 42
0.006975
  0
VERTEX
  8
0
 10
535.436536
 20
303.000000
 42
0.008340
  0
VERTEX
  8
0
 10
535.322867
 20
308.677964
 42
0.018139
  0
VERTEX
  8
0
 10
535.005112
 20
313.024801
 42
0.023275
  0
VERTEX
  8
0
 10
534.456729
 20
316.516359
 42
0.034585
  0
VERTEX
  8
0
 10
533.627128
 20
319.496862
 42
0.052484
  0
VERTEX
  8
0
 10
528.426533
 20
330.388180
 42
0.065421
  0
VERTEX
  8
0
 10
521.372971
 20
339.092652
 42
0.065009
  0
VERTEX
  8
0
 10
512.271015
 20
345.719166
 42
0.050947
  0
VERTEX
  8
0
 10
501.000000
 20
350.453296
 42
0.048589
  0
VERTEX
  8
0
 10
494.786747
 20
351.704654
 42
0.012775
  0
VERTEX
  8
0
 10
484.654054
 20
352.477165
 42
0.011920
  0
VERTEX
  8
0
 10
474.573001
 20
352.746455
 42
0.063568
  0
SEQEND
  0
POLYLINE
  8
0
 66
1
 70
1
  0
VERTEX
  8
0
 10
498.694974
 20
324.350599
 42
-0.052751
  0
VERTEX
  8
0
 10
501.549679
 20
322.790130
 42
-0.040775
  0
VERTEX
  8
0
 10
504.292388
 20
320.539532
 42
-0.039444
  0
VERTEX
  8
0
 10
506.727038
 20
317.781939
 42
-0.040946
  0
VERTEX
  8
0
 10
508.664673
 20
314.709049
 42
-0.081879
  0
VERTEX
  8
0
 10
509.856272
 20
311.081050
 42
-0.031536
  0
VERTEX
  8
0
 10
510.338994
 20
305.785241
 42
-0.031702
  0
VERTEX
  8
0
 10
510.143582
 20
300.287997
 42
-0.058201
  0
VERTEX
  8
0
 10
509.188176
 20
295.916832
 42
-0.095575
  0
VERTEX
  8
0
 10
506.235713
 20
290.784417
 42
-0.057339
  0
VERTEX
  8
0
 10
501.043310
 20
286.008479
 42
-0.056231
  0
VERTEX
  8
0
 10
494.747217
 20
282.430725
 42
-0.079040
  0
VERTEX
  8
0
 10
488.492080
 20
280.855825
 42
0.000000
  0
VERTEX
  8
0
 10
484.500000
 20
280.500000
 42
0.000000
  0
VERTEX
  8
0
 10
483.866884
 20
287.000000
 42
-0.017650
  0
VERTEX
  8
0
 10
483.203473
 20
297.721335
 42
-0.009060
  0
VERTEX
  8
0
 10
483.090620
 20
311.185765
 42
-0.002506
  0
VERTEX
  8
0
 10
483.293681
 20
324.950366
 42
-0.300468
  0
VERTEX
  8
0
 10
484.250000
 20
326.337662
 42
-0.114828
  0
VERTEX
  8
0
 10
486.357131
 20
326.666549
 42
-0.015722
  0
VERTEX
  8
0
 10
490.812901
 20
326.195787
 42
-0.019125
  0
VERTEX
  8
0
 10
495.395566
 20
325.385780
 42
-0.045445
  0
SEQEND
  0
POLYLINE
  8
0
 66
1
 70
1
  0
VERTEX
  8
0
 10
615.298549
 20
351.040484
 42
0.086992
  0
VERTEX
  8
0
 10
611.767960
 20
347.937080
 42
0.119328
  0
VERTEX
  8
0
 10
609.978766
 20
344.122982
 42
0.052282
  0
VERTEX
  8
0
 10
609.363202
 20
337.772017
 42
0.005932
  0
VERTEX
  8
0
 10
609.648044
 20
323.320992
 42
-0.008027
  0
VERTEX
  8
0
 10
609.878422
 20
308.475611
 42
-0.033402
  0
VERTEX
  8
0
 10
609.276535
 20
299.547950
 42
-0.055315
  0
VERTEX
  8
0
 10
607.715779
 20
293.295249
 42
-0.068050
  0
VERTEX
  8
0
 10
604.882582
 20
287.996606
 42
-0.059277
  0
VERTEX
  8
0
 10
602.200587
 20
285.090581
 42
-0.041896
  0
VERTEX
  8
0
 10
598.590583
 20
282.495293
 42
-0.042879
  0
VERTEX
  8
0
 10
594.789832
 20
280.641198
 42
-0.089437
  0
VERTEX
  8
0
 10
591.565724
 20
280.021962
 42
-0.097842
  0
VERTEX
  8
0
 10
588.660929
 20
280.561685
 42
-0.038672
  0
VERTEX
  8
0
 10
584.996768
 20
282.359223
 42
-0.038683
  0
VERTEX
  8
0
 10
581.546104
 20
284.774610
 42
-0.072149
  0
VERTEX
  8
0
 10
579.253469
 20
287.291980
 42
-0.053951
  0
VERTEX
  8
0
 10
576.369278
 20
292.740344
 42
-0.057476
  0
VERTEX
  8
0
 10
574.793170
 20
298.565502
 42
-0.038626
  0
VERTEX
  8
0
 10
574.232561
 20
306.316397
 42
-0.010744
  0
VERTEX
  8
0
 10
574.555471
 20
318.500000
 42
0.000876
  0
VERTEX
  8
0
 10
574.870885
 20
325.317540
 42
0.001046
  0
VERTEX
  8
0
 10
575.143411
 20
331.743103
 42
0.000900
  0
VERTEX
  8
0
 10
575.352080
 20
337.161174
 42
0.006871
  0
VERTEX
  8
0
 10
575.410606
 20
339.710562
 42
0.071783
  0
VERTEX
  8
0
 10
574.904749
 20
343.459920
 42
0.087728
  0
VERTEX
  8
0
 10
573.360187
 20
346.637614
 42
0.085803
  0
VERTEX
  8
0
 10
570.786818
 20
349.143758
 42
0.065399
  0
VERTEX
  8
0
 10
567.274520
 20
350.929507
 42
0.021365
  0
VERTEX
  8
0
 10
564.925956
 20
351.648373
 42
0.064493
  0
VERTEX
  8
0
 10
563.268473
 20
351.857488
 42
0.066472
  0
VERTEX
  8
0
 10
561.640207
 20
351.634579
 42
0.023722
  0
VERTEX
  8
0
 10
559.405968
 20
350.903494
 42
0.042206
  0
VERTEX
  8
0
 10
557.737482
 20
350.101563
 42
0.036668
  0
VERTEX
  8
0
 10
556.142104
 20
348.996706
 42
0.037618
  0
VERTEX
  8
0
 10
554.772081
 20
347.709602
 42
0.053250
  0
VERTEX
  8
0
 10
553.780296
 20
346.363515
 42
0.083721
  0
VERTEX
  8
0
 10
552.074152
 20
341.851867
 42
0.019884
  0
VERTEX
  8
0
 10
550.831305
 20
333.883480
 42
0.017323
  0
VERTEX
  8
0
 10
549.991065
 20
323.444861
 42
0.009247
  0
VERTEX
  8
0
 10
549.639073
 20
310.500000
 42
0.012576
  0
VERTEX
  8
0
 10
549.835733
 20
298.552686
 42
0.040405
  0
VERTEX
  8
0
 10
550.806202
 20
290.662120
 42
0.049349
  0
VERTEX
  8
0
 10
552.909136
 20
283.906071
 42
0.026627
  0
VERTEX
  8
0
 10
556.732321
 20
276.064081
 42
0.035658
  0
VERTEX
  8
0
 10
560.581238
 20
270.165549
 42
0.039684
  0
VERTEX
  8
0
 10
565.106479
 20
265.096274
 42
0.040685
  0
VERTEX
  8
0
 10
570.265127
 20
260.912805
 42
0.041506
  0
VERTEX
  8
0
 10
576.000000
 20
257.651276
 42
0.018589
  0
VERTEX
  8
0
 10
579.923862
 20
256.006317
 42
0.042449
  0
VERTEX
  8
0
 10
583.010600
 20
255.135588
 42
0.035747
  0
VERTEX
  8
0
 10
586.507701
 20
254.718765
 42
0.009985
  0
VERTEX
  8
0
 10
592.019585
 20
254.568814
 42
0.009250
  0
VERTEX
  8
0
 10
597.745001
 20
254.633344
 42
0.041136
  0
VERTEX
  8
0
 10
601.084594
 20
255.008935
 42
0.049000
  0
VERTEX
  8
0
 10
604.036476
 20
255.896712
 42
0.016830
  0
VERTEX
  8
0
 10
608.109044
 20
257.733628
 42
0.060213
  0
VERTEX
  8
0
 10
616.026540
 20
262.894491
 42
0.053985
  0
VERTEX
  8
0
 10
622.817052
 20
269.967970
 42
0.049907
  0
VERTEX
  8
0
 10
628.372008
 20
278.879770
 42
0.038718
  0
VERTEX
  8
0
 10
632.617130
 20
289.500000
 42
0.034678
  0
VERTEX
  8
0
 10
633.601930
 20
293.639908
 42
0.024855
  0
VERTEX
  8
0
 10
634.145680
 20
298.367535
 42
0.014055
  0
VERTEX
  8
0
 10
634.397763
 20
305.232271
 42
0.002803
  0
VERTEX
  8
0
 10
634.434444
 20
317.500000
 42
0.003904
  0
VERTEX
  8
0
 10
634.333973
 20
327.136499
 42
0.007512
  0
VERTEX
  8
0
 10
634.077189
 20
334.854431
 42
0.007696
  0
VERTEX
  8
0
 10
633.700438
 20
340.763175
 42
0.050619
  0
VERTEX
  8
0
 10
633.169549
 20
343.676999
 42
0.102196
  0
VERTEX
  8
0
 10
630.436979
 20
348.861593
 42
0.123425
  0
VERTEX
  8
0
 10
626.023719
 20
352.123147
 42
0.126142
  0
VERTEX
  8
0
 10
620.671524
 20
352.876736
 42
0.109553
  0
SEQEND
  0
POLYLINE
  8
0
 66
1
 70
1
  0
VERTEX
  8
0
 10
484.500000
 20
722.833022
 42
0.036457
  0
VERTEX
  8
0
 10
482.203855
 20
721.334932
 42
0.032834
  0
VERTEX
  8
0
 10
480.062841
 20
719.469911
 42
0.031623
  0
VERTEX
  8
0
 10
478.431799
 20
717.630077
 42
0.167051
  0
VERTEX
  8
0
 10
478.000000
 20
716.373727
 42
0.183467
  0
VERTEX
  8
0
 10
478.255636
 20
715.700493
 42
0.021361
  0
VERTEX
  8
0
 10
479.395312
 20
714.521657
 42
0.023397
  0
VERTEX
  8
0
 10
480.930720
 20
713.194473
 42
0.017095
  0
VERTEX
  8
0
 10
482.750000
 20
711.862947
 42
-0.019456
  0
VERTEX
  8
0
 10
485.057240
 20
710.157502
 42
-0.007187
  0
VERTEX
  8
0
 10
488.177237
 20
707.583427
 42
-0.007110
  0
VERTEX
  8
0
 10
491.506066
 20
704.673188
 42
-0.008497
  0
VERTEX
  8
0
 10
494.555488
 20
701.834515
 42
0.004724
  0
VERTEX
  8
0
 10
499.014762
 20
697.620169
 42
0.057022
  0
VERTEX
  8
0
 10
500.913726
 20
696.224524
 42
0.168262
  0
VERTEX
  8
0
 10
502.291216
 20
695.964634
 42
0.116546
  0
VERTEX
  8
0
 10
503.776803
 20
696.556220
 42
0.121930
  0
VERTEX
  8
0
 10
505.601641
 20
698.648953
 42
0.050431
  0
VERTEX
  8
0
 10
506.982396
 20
702.170329
 42
0.048476
  0
VERTEX
  8
0
 10
507.699024
 20
706.199240
 42
0.064558
  0
VERTEX
  8
0
 10
507.514177
 20
709.909228
 42
0.062035
  0
VERTEX
  8
0
 10
506.310257
 20
713.765225
 42
0.048448
  0
VERTEX
  8
0
 10
504.115643
 20
717.568492
 42
0.050093
  0
VERTEX
  8
0
 10
501.355112
 20
720.714145
 42
0.088891
  0
VERTEX
  8
0
 10
498.465834
 20
722.578722
 42
0.057849
  0
VERTEX
  8
0
 10
495.100210
 20
723.547287
 42
0.036625
  0
VERTEX
  8
0
 10
491.029345
 20
723.920501
 42
0.036865
  0
VERTEX
  8
0
 10
487.157533
 20
723.705436
 42
0.094283
  0
SEQEND
  0
POLYLINE
  8
0
 66
1
 70
1
  0
VERTEX
  8
0
 10
321.875053
 20
709.561065
 42
0.037063
  0
VERTEX
  8
0
 10
320.380527
 20
708.374736
 42
0.025102
  0
VERTEX
  8
0
 10
318.857562
 20
706.821547
 42
0.025344
  0
VERTEX
  8
0
 10
317.530582
 20
705.162693
 42
0.045271
  0
VERTEX
  8
0
 10
316.642919
 20
703.659936
 42
0.086418
  0
VERTEX
  8
0
 10
315.134250
 20
698.222633
 42
0.074320
  0
VERTEX
  8
0
 10
315.431846
 20
692.289674
 42
0.078467
  0
VERTEX
  8
0
 10
317.390728
 20
687.007080
 42
0.120337
  0
VERTEX
  8
0
 10
320.706480
 20
683.456666
 42
0.090751
  0
VERTEX
  8
0
 10
322.651274
 20
682.636634
 42
0.227155
  0
VERTEX
  8
0
 10
324.114259
 20
682.977179
 42
0.040927
  0
VERTEX
  8
0
 10
326.109093
 20
684.862717
 42
0.000828
  0
VERTEX
  8
0
 10
335.354189
 20
695.191433
 42
0.004894
  0
VERTEX
  8
0
 10
338.667668
 20
698.979636
 42
0.007472
  0
VERTEX
  8
0
 10
341.460293
 20
702.336372
 42
0.003265
  0
VERTEX
  8
0
 10
343.768049
 20
705.234681
 42
0.168034
  0
VERTEX
  8
0
 10
344.000000
 20
705.905382
 42
0.182401
  0
VERTEX
  8
0
 10
343.797339
 20
706.442436
 42
0.021886
  0
VERTEX
  8
0
 10
342.903685
 20
707.372499
 42
0.023765
  0
VERTEX
  8
0
 10
341.697269
 20
708.418025
 42
0.017428
  0
VERTEX
  8
0
 10
340.267865
 20
709.463949
 42
0.081517
  0
VERTEX
  8
0
 10
336.014282
 20
711.436256
 42
0.066653
  0
VERTEX
  8
0
 10
331.041541
 20
712.128858
 42
0.066947
  0
VERTEX
  8
0
 10
326.084021
 20
711.488722
 42
0.083881
  0
SEQEND
  0
POLYLINE
  8
0
 66
1
 70
1
  0
VERTEX
  8
0
 10
468.400000
 20
616.600000
 42
0.025574
  0
VERTEX
  8
0
 10
466.585654
 20
614.589913
 42
0.071548
  0
VERTEX
  8
0
 10
465.611702
 20
612.966114
 42
0.072595
  0
VERTEX
  8
0
 10
465.142496
 20
611.147395
 42
0.026893
  0
VERTEX
  8
0
 10
465.000000
 20
608.500000
 42
0.026893
  0
VERTEX
  8
0
 10
465.142496
 20
605.852605
 42
0.072595
  0
VERTEX
  8
0
 10
465.611702
 20
604.033886
 42
0.071548
  0
VERTEX
  8
0
 10
466.585654
 20
602.410087
 42
0.025574
  0
VERTEX
  8
0
 10
468.400000
 20
600.400000
 42
0.078538
  0
VERTEX
  8
0
 10
471.954605
 20
597.815660
 42
0.110296
  0
VERTEX
  8
0
 10
475.740167
 20
596.840225
 42
0.110925
  0
VERTEX
  8
0
 10
479.565093
 20
597.569740
 42
0.080122
  0
VERTEX
  8
0
 10
483.234223
 20
599.917971
 42
0.029462
  0
VERTEX
  8
0
 10
485.026947
 20
601.720477
 42
0.085087
  0
VERTEX
  8
0
 10
485.950334
 20
603.213109
 42
0.075940
  0
VERTEX
  8
0
 10
486.379547
 20
605.024580
 42
0.020268
  0
VERTEX
  8
0
 10
486.500000
 20
607.994810
 42
0.021472
  0
VERTEX
  8
0
 10
486.369310
 20
611.036650
 42
0.081340
  0
VERTEX
  8
0
 10
485.903099
 20
612.876314
 42
0.082410
  0
VERTEX
  8
0
 10
484.877672
 20
614.458766
 42
0.022394
  0
VERTEX
  8
0
 10
482.764685
 20
616.576839
 42
0.064250
  0
VERTEX
  8
0
 10
478.998080
 20
619.229042
 42
0.121483
  0
VERTEX
  8
0
 10
475.415156
 20
620.118738
 42
0.125829
  0
VERTEX
  8
0
 10
471.915859
 20
619.229951
 42
0.071704
  0
SEQEND
  0
POLYLINE
  8
0
 66
1
 70
1
  0
VERTEX
  8
0
 10
388.129415
 20
611.925740
 42
0.067106
  0
VERTEX
  8
0
 10
385.056378
 20
610.820818
 42
0.090742
  0
VERTEX
  8
0
 10
382.729387
 20
609.014231
 42
0.088534
  0
VERTEX
  8
0
 10
381.154515
 20
606.462989
 42
0.060850
  0
VERTEX
  8
0
 10
380.295389
 20
603.165622
 42
0.085102
  0
VERTEX
  8
0
 10
380.488521
 20
597.871139
 42
0.116250
  0
VERTEX
  8
0
 10
382.504483
 20
593.563479
 42
0.121396
  0
VERTEX
  8
0
 10
386.150506
 20
590.733725
 42
0.098362
  0
VERTEX
  8
0
 10
390.993892
 20
589.638908
 42
0.144244
  0
VERTEX
  8
0
 10
397.157805
 20
591.280605
 42
0.148804
  0
VERTEX
  8
0
 10
401.357567
 20
595.987261
 42
0.144951
  0
VERTEX
  8
0
 10
402.286400
 20
602.338789
 42
0.135262
  0
VERTEX
  8
0
 10
399.654273
 20
608.368689
 42
0.076389
  0
VERTEX
  8
0
 10
397.424557
 20
610.395814
 42
0.071621
  0
VERTEX
  8
0
 10
394.640923
 20
611.714342
 42
0.068264
  0
VERTEX
  8
0
 10
391.475214
 20
612.235130
 42
0.059540
  0
SEQEND
  0
POLYLINE
  8
0
 66
1
 70
1
  0
VERTEX
  8
0
 10
442.532143
 20
602.408712
 42
-0.022685
  0
VERTEX
  8
0
 10
441.460808
 20
600.925068
 42
-0.182016
  0
VERTEX
  8
0
 10
440.750666
 20
600.499446
 42
-0.162554
  0
VERTEX
  8
0
 10
439.893478
 20
600.622375
 42
-0.017211
  0
VERTEX
  8
0
 10
438.096270
 20
601.602204
 42
0.025349
  0
VERTEX
  8
0
 10
436.321187
 20
602.532829
 42
0.133782
  0
VERTEX
  8
0
 10
435.247049
 20
602.713016
 42
0.117249
  0
VERTEX
  8
0
 10
434.158685
 20
602.336312
 42
0.017500
  0
VERTEX
  8
0
 10
432.234664
 20
601.015374
 42
-0.047235
  0
VERTEX
  8
0
 10
430.117887
 20
599.740062
 42
-0.138711
  0
VERTEX
  8
0
 10
428.457202
 20
599.451268
 42
-0.233108
  0
VERTEX
  8
0
 10
427.409757
 20
600.110182
 42
-0.138689
  0
VERTEX
  8
0
 10
427.000000
 20
601.559017
 42
0.253396
  0
VERTEX
  8
0
 10
426.451320
 20
602.572154
 42
0.149503
  0
VERTEX
  8
0
 10
425.094456
 20
602.964236
 42
0.123763
  0
VERTEX
  8
0
 10
423.554997
 20
602.551768
 42
0.175863
  0
VERTEX
  8
0
 10
422.635041
 20
601.491316
 42
0.124987
  0
VERTEX
  8
0
 10
422.449341
 20
599.921171
 42
0.046377
  0
VERTEX
  8
0
 10
422.946499
 20
597.735417
 42
0.046335
  0
VERTEX
  8
0
 10
423.834775
 20
595.685730
 42
0.129639
  0
VERTEX
  8
0
 10
424.904095
 20
594.559273
 42
-0.223470
  0
VERTEX
  8
0
 10
425.323451
 20
593.915705
 42
-0.021991
  0
VERTEX
  8
0
 10
425.501363
 20
592.024943
 42
-0.021680
  0
VERTEX
  8
0
 10
425.518143
 20
589.439841
 42
-0.010025
  0
VERTEX
  8
0
 10
425.326917
 20
586.083467
 42
0.030100
  0
VERTEX
  8
0
 10
425.188709
 20
577.847761
 42
0.107534
  0
VERTEX
  8
0
 10
426.523391
 20
572.782633
 42
0.169276
  0
VERTEX
  8
0
 10
429.425931
 20
570.004335
 42
0.107450
  0
VERTEX
  8
0
 10
434.045455
 20
569.000000
 42
0.142535
  0
VERTEX
  8
0
 10
439.034735
 20
570.451792
 42
0.131305
  0
VERTEX
  8
0
 10
442.655395
 20
574.390466
 42
0.096076
  0
VERTEX
  8
0
 10
444.556386
 20
580.745165
 42
0.049373
  0
VERTEX
  8
0
 10
444.560100
 20
589.086861
 42
-0.010103
  0
VERTEX
  8
0
 10
444.289577
 20
592.547389
 42
-0.042769
  0
VERTEX
  8
0
 10
444.347057
 20
594.623719
 42
-0.076154
  0
VERTEX
  8
0
 10
444.717440
 20
595.987567
 42
-0.115733
  0
VERTEX
  8
0
 10
445.455179
 20
596.962802
 42
0.141325
  0
VERTEX
  8
0
 10
446.552585
 20
598.576272
 42
0.075184
  0
VERTEX
  8
0
 10
446.955945
 20
600.977820
 42
0.080859
  0
VERTEX
  8
0
 10
446.629362
 20
603.213573
 42
0.228342
  0
VERTEX
  8
0
 10
445.575470
 20
604.332666
 42
0.155331
  0
VERTEX
  8
0
 10
444.893981
 20
604.372379
 42
0.078601
  0
VERTEX
  8
0
 10
444.096166
 20
604.028588
 42
0.063019
  0
VERTEX
  8
0
 10
443.276143
 20
603.352313
 42
0.043843
  0
SEQEND
  0
POLYLINE
  8
0
 66
1
 70
1
  0
VERTEX
  8
0
 10
438.735258
 20
593.921031
 42
-0.063704
  0
VERTEX
  8
0
 10
439.213336
 20
592.588848
 42
-0.017980
  0
VERTEX
  8
0
 10
439.611990
 20
590.414855
 42
-0.017814
  0
VERTEX
  8
0
 10
439.888785
 20
587.903601
 42
-0.017938
  0
VERTEX
  8
0
 10
439.985258
 20
585.384859
 42
-0.046262
  0
VERTEX
  8
0
 10
439.554693
 20
580.616209
 42
-0.083466
  0
VERTEX
  8
0
 10
438.216491
 20
576.939346
 42
-0.119891
  0
VERTEX
  8
0
 10
436.162268
 20
574.752945
 42
-0.182019
  0
VERTEX
  8
0
 10
433.643972
 20
574.195571
 42
-0.272286
  0
VERTEX
  8
0
 10
430.555773
 20
576.662173
 42
-0.079311
  0
VERTEX
  8
0
 10
429.255011
 20
582.860229
 42
-0.071383
  0
VERTEX
  8
0
 10
429.915142
 20
589.865921
 42
-0.138099
  0
VERTEX
  8
0
 10
432.645456
 20
594.736365
 42
-0.050893
  0
VERTEX
  8
0
 10
434.564977
 20
596.300391
 42
-0.180703
  0
VERTEX
  8
0
 10
436.086869
 20
596.647841
 42
-0.188030
  0
VERTEX
  8
0
 10
437.424310
 20
595.908813
 42
-0.055676
  0
SEQEND
  0
POLYLINE
  8
0
 66
1
 70
1
  0
VERTEX
  8
0
 10
556.897883
 20
614.716367
 42
0.109966
  0
VERTEX
  8
0
 10
553.542190
 20
611.185779
 42
0.117341
  0
VERTEX
  8
0
 10
552.101562
 20
606.646888
 42
0.114532
  0
VERTEX
  8
0
 10
552.846557
 20
601.858443
 42
0.101088
  0
VERTEX
  8
0
 10
555.636364
 20
597.636364
 42
0.081651
  0
VERTEX
  8
0
 10
559.254188
 20
595.040120
 42
0.112299
  0
VERTEX
  8
0
 10
563.132830
 20
594.107971
 42
0.114021
  0
VERTEX
  8
0
 10
566.989203
 20
594.949571
 42
0.086079
  0
VERTEX
  8
0
 10
570.545455
 20
597.454545
 42
0.108808
  0
VERTEX
  8
0
 10
573.208425
 20
601.621656
 42
0.109255
  0
VERTEX
  8
0
 10
573.869283
 20
606.515532
 42
0.110678
  0
VERTEX
  8
0
 10
572.405896
 20
611.182059
 42
0.114172
  0
VERTEX
  8
0
 10
569.102117
 20
614.716367
 42
0.031960
  0
VERTEX
  8
0
 10
567.602728
 20
615.590539
 42
0.026466
  0
VERTEX
  8
0
 10
565.907993
 20
616.329183
 42
0.027268
  0
VERTEX
  8
0
 10
564.276794
 20
616.840176
 42
0.062345
  0
VERTEX
  8
0
 10
563.000000
 20
617.000000
 42
0.062345
  0
VERTEX
  8
0
 10
561.723206
 20
616.840176
 42
0.027268
  0
VERTEX
  8
0
 10
560.092007
 20
616.329183
 42
0.026466
  0
VERTEX
  8
0
 10
558.397272
 20
615.590539
 42
0.031960
  0
SEQEND
  0
POLYLINE
  8
0
 66
1
 70
1
  0
VERTEX
  8
0
 10
647.770010
 20
609.899490
 42
0.128947
  0
VERTEX
  8
0
 10
644.588166
 20
605.909969
 42
0.116104
  0
VERTEX
  8
0
 10
643.611204
 20
600.706575
 42
0.109763
  0
VERTEX
  8
0
 10
645.052811
 20
595.378253
 42
0.105364
  0
VERTEX
  8
0
 10
648.628820
 20
591.070377
 42
0.038037
  0
VERTEX
  8
0
 10
650.296577
 20
589.948946
 42
0.070054
  0
VERTEX
  8
0
 10
651.814494
 20
589.349598
 42
0.062341
  0
VERTEX
  8
0
 10
653.556320
 20
589.154299
 42
0.024609
  0
VERTEX
  8
0
 10
655.967559
 20
589.304161
 42
0.131819
  0
VERTEX
  8
0
 10
661.927401
 20
591.639145
 42
0.151123
  0
VERTEX
  8
0
 10
665.544872
 20
596.545887
 42
0.148450
  0
VERTEX
  8
0
 10
665.795010
 20
602.709153
 42
0.126150
  0
VERTEX
  8
0
 10
662.631923
 20
608.428798
 42
0.023759
  0
VERTEX
  8
0
 10
660.646639
 20
610.342928
 42
0.072934
  0
VERTEX
  8
0
 10
659.082229
 20
611.354591
 42
0.078513
  0
VERTEX
  8
0
 10
657.358984
 20
611.834699
 42
0.030570
  0
VERTEX
  8
0
 10
654.881923
 20
611.968320
 42
0.032126
  0
VERTEX
  8
0
 10
652.840600
 20
611.822197
 42
0.036865
  0
VERTEX
  8
0
 10
650.928895
 20
611.415955
 42
0.039352
  0
VERTEX
  8
0
 10
649.216349
 20
610.767928
 42
0.050207
  0
SEQEND
  0
POLYLINE
  8
0
 66
1
 70
1
  0
VERTEX
  8
0
 10
594.666667
 20
603.333333
 42
0.175730
  0
VERTEX
  8
0
 10
593.957620
 20
601.817364
 42
0.068129
  0
VERTEX
  8
0
 10
594.066890
 20
599.467384
 42
0.066296
  0
VERTEX
  8
0
 10
594.826229
 20
597.136330
 42
0.128825
  0
VERTEX
  8
0
 10
596.084071
 20
595.653668
 42
-0.069230
  0
VERTEX
  8
0
 10
597.175529
 20
594.638391
 42
-0.120777
  0
VERTEX
  8
0
 10
597.702196
 20
593.528088
 42
-0.069837
  0
VERTEX
  8
0
 10
597.805438
 20
591.893467
 42
-0.011982
  0
VERTEX
  8
0
 10
597.493150
 20
588.791476
 42
0.041919
  0
VERTEX
  8
0
 10
597.301749
 20
584.069042
 42
0.046917
  0
VERTEX
  8
0
 10
597.923487
 20
579.560760
 42
0.050537
  0
VERTEX
  8
0
 10
599.299117
 20
575.568052
 42
0.069506
  0
VERTEX
  8
0
 10
601.349921
 20
572.379581
 42
0.116927
  0
VERTEX
  8
0
 10
604.219429
 20
570.297765
 42
0.099282
  0
VERTEX
  8
0
 10
607.899147
 20
569.563637
 42
0.095986
  0
VERTEX
  8
0
 10
611.683505
 20
570.300788
 42
0.101061
  0
VERTEX
  8
0
 10
614.840909
 20
572.392986
 42
0.050365
  0
VERTEX
  8
0
 10
616.345431
 20
574.240199
 42
0.090944
  0
VERTEX
  8
0
 10
617.105628
 20
576.030866
 42
0.048717
  0
VERTEX
  8
0
 10
617.428577
 20
578.649061
 42
0.006343
  0
VERTEX
  8
0
 10
617.500000
 20
584.279349
 42
-0.010654
  0
VERTEX
  8
0
 10
617.588684
 20
588.440709
 42
-0.018927
  0
VERTEX
  8
0
 10
617.864262
 20
591.858101
 42
-0.022530
  0
VERTEX
  8
0
 10
618.305181
 20
594.532975
 42
-0.066323
  0
VERTEX
  8
0
 10
618.927346
 20
596.286940
 42
0.020903
  0
VERTEX
  8
0
 10
619.670981
 20
597.901896
 42
0.106645
  0
VERTEX
  8
0
 10
619.844272
 20
598.869362
 42
0.141340
  0
VERTEX
  8
0
 10
619.578556
 20
599.681872
 42
0.047162
  0
VERTEX
  8
0
 10
618.773307
 20
600.655264
 42
0.100051
  0
VERTEX
  8
0
 10
617.492451
 20
601.505395
 42
0.176258
  0
VERTEX
  8
0
 10
616.238701
 20
601.552545
 42
0.195552
  0
VERTEX
  8
0
 10
615.336770
 20
600.796594
 42
0.122354
  0
VERTEX
  8
0
 10
615.000000
 20
599.440983
 42
-0.219696
  0
VERTEX
  8
0
 10
614.540169
 20
598.444976
 42
-0.191832
  0
VERTEX
  8
0
 10
613.445215
 20
598.073964
 42
-0.088405
  0
VERTEX
  8
0
 10
611.608774
 20
598.501466
 42
-0.028684
  0
VERTEX
  8
0
 10
609.104010
 20
599.750000
 42
0.023064
  0
VERTEX
  8
0
 10
607.413620
 20
600.616435
 42
0.082481
  0
VERTEX
  8
0
 10
606.244823
 20
600.931042
 42
0.108016
  0
VERTEX
  8
0
 10
605.212783
 20
600.809900
 42
0.056171
  0
VERTEX
  8
0
 10
604.036539
 20
600.250000
 42
-0.054169
  0
VERTEX
  8
0
 10
601.937920
 20
599.240749
 42
-0.136899
  0
VERTEX
  8
0
 10
600.262722
 20
599.126792
 42
-0.164410
  0
VERTEX
  8
0
 10
598.964442
 20
599.887636
 42
-0.088097
  0
VERTEX
  8
0
 10
598.000000
 20
601.500000
 42
0.041812
  0
VERTEX
  8
0
 10
597.261260
 20
603.041501
 42
0.135184
  0
VERTEX
  8
0
 10
596.454702
 20
603.826076
 42
0.209701
  0
VERTEX
  8
0
 10
595.587472
 20
603.903841
 42
0.115869
  0
SEQEND
  0
POLYLINE
  8
0
 66
1
 70
1
  0
VERTEX
  8
0
 10
609.844333
 20
591.877654
 42
-0.088153
  0
VERTEX
  8
0
 10
611.030215
 20
588.929109
 42
-0.030568
  0
VERTEX
  8
0
 10
611.697106
 20
584.375716
 42
-0.029590
  0
VERTEX
  8
0
 10
611.810872
 20
579.852871
 42
-0.114847
  0
VERTEX
  8
0
 10
611.087789
 20
577.164035
 42
-0.116868
  0
VERTEX
  8
0
 10
609.622727
 20
575.507302
 42
-0.193749
  0
VERTEX
  8
0
 10
607.832135
 20
575.085621
 42
-0.159924
  0
VERTEX
  8
0
 10
605.986404
 20
576.020017
 42
-0.077090
  0
VERTEX
  8
0
 10
604.404781
 20
578.184132
 42
-0.090227
  0
VERTEX
  8
0
 10
603.486170
 20
581.182588
 42
-0.030680
  0
VERTEX
  8
0
 10
603.230215
 20
585.750387
 42
-0.030071
  0
VERTEX
  8
0
 10
603.526130
 20
590.262605
 42
-0.107401
  0
VERTEX
  8
0
 10
604.484111
 20
592.974291
 42
-0.174205
  0
VERTEX
  8
0
 10
605.547026
 20
593.820330
 42
-0.133059
  0
VERTEX
  8
0
 10
607.041799
 20
593.914266
 42
-0.109630
  0
VERTEX
  8
0
 10
608.612761
 20
593.212358
 42
-0.093766
  0
SEQEND
  0
ENDSEC
  0
EOF
