  0
SECTION
  2
HEADER
  9
$ACADVER
  1
AC1006
  9
$EXTMIN
 10
0.000000
 20
0.000000
 30
0.000000
  9
$EXTMAX
 10
246.000000
 20
287.000000
 30
0.000000
  0
ENDSEC
  0
SECTION
  2
ENTITIES
  0
POLYLINE
  8
0
 66
1
 70
1
  0
VERTEX
  8
0
 10
0.000000
 20
143.500000
 42
0.000000
  0
VERTEX
  8
0
 10
0.000000
 20
0.000000
 42
0.000000
  0
VERTEX
  8
0
 10
123.000000
 20
0.000000
 42
0.000000
  0
VERTEX
  8
0
 10
246.000000
 20
0.000000
 42
0.000000
  0
VERTEX
  8
0
 10
246.000000
 20
143.500000
 42
0.000000
  0
VERTEX
  8
0
 10
246.000000
 20
287.000000
 42
0.000000
  0
VERTEX
  8
0
 10
123.000000
 20
287.000000
 42
0.000000
  0
VERTEX
  8
0
 10
0.000000
 20
287.000000
 42
0.000000
  0
SEQEND
  0
POLYLINE
  8
0
 66
1
 70
1
  0
VERTEX
  8
0
 10
176.253247
 20
242.089810
 42
-0.010254
  0
VERTEX
  8
0
 10
177.305457
 20
240.928170
 42
-0.014364
  0
VERTEX
  8
0
 10
178.193141
 20
239.845537
 42
-0.010619
  0
VERTEX
  8
0
 10
178.878336
 20
238.919102
 42
-0.155121
  0
VERTEX
  8
0
 10
179.000000
 20
238.536381
 42
-0.171468
  0
VERTEX
  8
0
 10
178.468276
 20
237.031462
 42
-0.018413
  0
VERTEX
  8
0
 10
176.003005
 20
234.198378
 42
-0.017760
  0
VERTEX
  8
0
 10
173.336479
 20
231.547960
 42
-0.188909
  0
VERTEX
  8
0
 10
171.938058
 20
231.000029
 42
-0.188508
  0
VERTEX
  8
0
 10
170.492291
 20
231.565159
 42
-0.030515
  0
VERTEX
  8
0
 10
168.362864
 20
233.785425
 42
-0.032095
  0
VERTEX
  8
0
 10
166.509165
 20
236.278588
 42
-0.144791
  0
VERTEX
  8
0
 10
166.000000
 20
238.000000
 42
-0.144802
  0
VERTEX
  8
0
 10
166.509524
 20
239.722488
 42
-0.032151
  0
VERTEX
  8
0
 10
168.363551
 20
242.215283
 42
-0.030579
  0
VERTEX
  8
0
 10
170.493736
 20
244.434586
 42
-0.188368
  0
VERTEX
  8
0
 10
171.941306
 20
245.000000
 42
-0.118634
  0
VERTEX
  8
0
 10
172.723726
 20
244.811707
 42
-0.030350
  0
VERTEX
  8
0
 10
173.853579
 20
244.145132
 42
-0.029181
  0
VERTEX
  8
0
 10
175.086748
 20
243.203701
 42
-0.025980
  0
SEQEND
  0
POLYLINE
  8
0
 66
1
 70
1
  0
VERTEX
  8
0
 10
90.684900
 20
238.936382
 42
-0.036053
  0
VERTEX
  8
0
 10
91.951787
 20
238.350260
 42
-0.018746
  0
VERTEX
  8
0
 10
93.443892
 20
237.449990
 42
-0.018541
  0
VERTEX
  8
0
 10
94.914010
 20
236.406111
 42
-0.026813
  0
VERTEX
  8
0
 10
96.124094
 20
235.369916
 42
0.000000
  0
VERTEX
  8
0
 10
98.748189
 20
232.867068
 42
0.000000
  0
VERTEX
  8
0
 10
106.331936
 20
234.433534
 42
-0.034277
  0
VERTEX
  8
0
 10
114.282236
 20
235.514727
 42
-0.013264
  0
VERTEX
  8
0
 10
125.398445
 20
235.960860
 42
-0.013280
  0
VERTEX
  8
0
 10
136.535124
 20
235.816380
 42
-0.033794
  0
VERTEX
  8
0
 10
144.566341
 20
234.952996
 42
-0.017941
  0
VERTEX
  8
0
 10
151.292918
 20
233.515536
 42
-0.017296
  0
VERTEX
  8
0
 10
157.982870
 20
231.584584
 42
-0.017553
  0
VERTEX
  8
0
 10
164.418339
 20
229.230440
 42
-0.020109
  0
VERTEX
  8
0
 10
170.381435
 20
226.524442
 42
0.005367
  0
VERTEX
  8
0
 10
174.902992
 20
224.309640
 42
0.069224
  0
VERTEX
  8
0
 10
176.691175
 20
223.743693
 42
0.154502
  0
VERTEX
  8
0
 10
178.019335
 20
223.928543
 42
0.055469
  0
VERTEX
  8
0
 10
179.660873
 20
224.947882
 42
-0.108841
  0
VERTEX
  8
0
 10
184.741692
 20
227.400248
 42
-0.081105
  0
VERTEX
  8
0
 10
190.969463
 20
227.843203
 42
-0.077745
  0
VERTEX
  8
0
 10
197.264062
 20
226.262546
 42
-0.086089
  0
VERTEX
  8
0
 10
202.531281
 20
222.864401
 42
-0.088509
  0
VERTEX
  8
0
 10
206.909773
 20
217.099121
 42
-0.102300
  0
VERTEX
  8
0
 10
208.740826
 20
210.459261
 42
-0.105927
  0
VERTEX
  8
0
 10
207.765329
 20
203.819733
 42
-0.101279
  0
VERTEX
  8
0
 10
204.151770
 20
198.040822
 42
0.000000
  0
VERTEX
  8
0
 10
200.500000
 20
194.203953
 42
0.000000
  0
VERTEX
  8
0
 10
202.983839
 20
186.851976
 42
-0.023099
  0
VERTEX
  8
0
 10
204.380210
 20
181.988940
 42
-0.035268
  0
VERTEX
  8
0
 10
205.091966
 20
177.658935
 42
-0.020048
  0
VERTEX
  8
0
 10
205.398828
 20
171.799494
 42
-0.002997
  0
VERTEX
  8
0
 10
205.472429
 20
160.000000
 42
-0.009957
  0
VERTEX
  8
0
 10
205.185857
 20
145.432183
 42
-0.034920
  0
VERTEX
  8
0
 10
204.161793
 20
136.108172
 42
-0.051796
  0
VERTEX
  8
0
 10
202.136180
 20
129.134917
 42
-0.051619
  0
VERTEX
  8
0
 10
198.718964
 20
122.718232
 42
-0.052394
  0
VERTEX
  8
0
 10
196.146906
 20
119.647089
 42
-0.016329
  0
VERTEX
  8
0
 10
191.685179
 20
115.603618
 42
-0.014614
  0
VERTEX
  8
0
 10
187.058497
 20
111.905002
 42
-0.084206
  0
VERTEX
  8
0
 10
184.284278
 20
110.470783
 42
0.447273
  0
VERTEX
  8
0
 10
184.236563
 20
110.364081
 42
0.001695
  0
VERTEX
  8
0
 10
184.856231
 20
108.991441
 42
0.006462
  0
VERTEX
  8
0
 10
185.604240
 20
107.404074
 42
0.003840
  0
VERTEX
  8
0
 10
186.534278
 20
105.531467
 42
-0.078650
  0
VERTEX
  8
0
 10
188.579539
 20
99.183055
 42
-0.084573
  0
VERTEX
  8
0
 10
188.488104
 20
92.677027
 42
-0.086282
  0
VERTEX
  8
0
 10
186.263077
 20
86.673684
 42
-0.086267
  0
VERTEX
  8
0
 10
182.142298
 20
81.773190
 42
0.033944
  0
VERTEX
  8
0
 10
180.793847
 20
80.472508
 42
0.048889
  0
VERTEX
  8
0
 10
179.807216
 20
79.141442
 42
0.056421
  0
VERTEX
  8
0
 10
179.203647
 20
77.816459
 42
0.078843
  0
VERTEX
  8
0
 10
179.000000
 20
76.533015
 42
-0.066831
  0
VERTEX
  8
0
 10
178.539357
 20
73.102074
 42
-0.015522
  0
VERTEX
  8
0
 10
176.827404
 20
67.527712
 42
-0.016827
  0
VERTEX
  8
0
 10
174.650282
 20
61.790063
 42
-0.032380
  0
VERTEX
  8
0
 10
172.463501
 20
57.387961
 42
0.000000
  0
VERTEX
  8
0
 10
170.077393
 20
53.275921
 42
0.000000
  0
VERTEX
  8
0
 10
172.538696
 20
50.963647
 42
-0.112752
  0
VERTEX
  8
0
 10
174.458271
 20
48.109400
 42
-0.092758
  0
VERTEX
  8
0
 10
175.126171
 20
44.490619
 42
-0.092571
  0
VERTEX
  8
0
 10
174.440534
 20
40.868764
 42
-0.111686
  0
VERTEX
  8
0
 10
172.506614
 20
38.006213
 42
-0.115435
  0
VERTEX
  8
0
 10
167.935662
 20
35.362683
 42
-0.041961
  0
VERTEX
  8
0
 10
160.567611
 20
33.787544
 42
-0.022928
  0
VERTEX
  8
0
 10
148.750220
 20
32.829561
 42
-0.004571
  0
VERTEX
  8
0
 10
127.575051
 20
32.281025
 42
-0.007577
  0
VERTEX
  8
0
 10
100.167440
 20
32.237072
 42
-0.028070
  0
VERTEX
  8
0
 10
82.927173
 20
33.440228
 42
-0.044484
  0
VERTEX
  8
0
 10
72.004478
 20
35.822127
 42
-0.196415
  0
VERTEX
  8
0
 10
67.033436
 20
39.937525
 42
-0.081916
  0
VERTEX
  8
0
 10
66.133797
 20
42.581855
 42
-0.072358
  0
VERTEX
  8
0
 10
66.075531
 20
45.494867
 42
-0.073784
  0
VERTEX
  8
0
 10
66.843435
 20
48.250562
 42
-0.091840
  0
VERTEX
  8
0
 10
68.347191
 20
50.438100
 42
0.043534
  0
VERTEX
  8
0
 10
69.638759
 20
51.976539
 42
0.108397
  0
VERTEX
  8
0
 10
70.201564
 20
53.324879
 42
0.070275
  0
VERTEX
  8
0
 10
70.272019
 20
55.123612
 42
0.011100
  0
VERTEX
  8
0
 10
69.835664
 20
58.642645
 42
-0.022765
  0
VERTEX
  8
0
 10
69.547239
 20
61.515950
 42
-0.009403
  0
VERTEX
  8
0
 10
69.407620
 20
65.423152
 42
-0.009280
  0
VERTEX
  8
0
 10
69.414539
 20
69.625244
 42
-0.011796
  0
VERTEX
  8
0
 10
69.584350
 20
73.500000
 42
0.000000
  0
VERTEX
  8
0
 10
70.191753
 20
82.500000
 42
0.000000
  0
VERTEX
  8
0
 10
67.003941
 20
84.847908
 42
-0.124205
  0
VERTEX
  8
0
 10
62.580333
 20
90.220474
 42
-0.120058
  0
VERTEX
  8
0
 10
61.162437
 20
97.119005
 42
-0.102036
  0
VERTEX
  8
0
 10
63.040497
 20
104.805868
 42
-0.069496
  0
VERTEX
  8
0
 10
68.001530
 20
112.348962
 42
0.008419
  0
VERTEX
  8
0
 10
69.225947
 20
113.791785
 42
0.014289
  0
VERTEX
  8
0
 10
70.194646
 20
115.044379
 42
0.008084
  0
VERTEX
  8
0
 10
70.929198
 20
116.087483
 42
0.427320
  0
VERTEX
  8
0
 10
70.883081
 20
116.303535
 42
0.026125
  0
VERTEX
  8
0
 10
70.595499
 20
116.460863
 42
0.000618
  0
VERTEX
  8
0
 10
69.212097
 20
117.124214
 42
0.001360
  0
VERTEX
  8
0
 10
67.587144
 20
117.895499
 42
0.000923
  0
VERTEX
  8
0
 10
65.732570
 20
118.765421
 42
-0.044076
  0
VERTEX
  8
0
 10
60.746494
 20
121.652433
 42
-0.041589
  0
VERTEX
  8
0
 10
56.238269
 20
125.419482
 42
-0.043890
  0
VERTEX
  8
0
 10
52.684345
 20
129.605841
 42
-0.072063
  0
VERTEX
  8
0
 10
50.573778
 20
133.737492
 42
-0.034612
  0
VERTEX
  8
0
 10
49.470064
 20
137.899847
 42
-0.045517
  0
VERTEX
  8
0
 10
49.081740
 20
141.808161
 42
-0.040122
  0
VERTEX
  8
0
 10
49.390945
 20
146.086890
 42
-0.019857
  0
VERTEX
  8
0
 10
50.431092
 20
151.436111
 42
0.021969
  0
VERTEX
  8
0
 10
51.015981
 20
154.513328
 42
0.007834
  0
VERTEX
  8
0
 10
51.588034
 20
158.949983
 42
0.007756
  0
VERTEX
  8
0
 10
52.064493
 20
163.843957
 42
0.009079
  0
VERTEX
  8
0
 10
52.359997
 20
168.500000
 42
-0.032198
  0
VERTEX
  8
0
 10
53.651514
 20
180.236898
 42
-0.035024
  0
VERTEX
  8
0
 10
56.424792
 20
191.376727
 42
-0.037688
  0
VERTEX
  8
0
 10
60.431220
 20
201.141432
 42
-0.058771
  0
VERTEX
  8
0
 10
65.424142
 20
208.727479
 42
0.017639
  0
VERTEX
  8
0
 10
66.939906
 20
210.663550
 42
0.120123
  0
VERTEX
  8
0
 10
67.397762
 20
211.777859
 42
0.131432
  0
VERTEX
  8
0
 10
67.269650
 20
212.931368
 42
0.022695
  0
VERTEX
  8
0
 10
66.370723
 20
214.958686
 42
-0.046481
  0
VERTEX
  8
0
 10
65.675347
 20
216.752354
 42
-0.036802
  0
VERTEX
  8
0
 10
65.255087
 20
218.790185
 42
-0.031494
  0
VERTEX
  8
0
 10
65.096120
 20
221.164991
 42
-0.019022
  0
VERTEX
  8
0
 10
65.192492
 20
223.984423
 42
-0.053634
  0
VERTEX
  8
0
 10
66.042836
 20
228.674090
 42
-0.068479
  0
VERTEX
  8
0
 10
67.845281
 20
232.674924
 42
-0.071674
  0
VERTEX
  8
0
 10
70.581264
 20
235.902635
 42
-0.066776
  0
VERTEX
  8
0
 10
74.179627
 20
238.318244
 42
-0.072186
  0
VERTEX
  8
0
 10
77.607672
 20
239.430470
 42
-0.033057
  0
VERTEX
  8
0
 10
82.295079
 20
239.917463
 42
-0.033067
  0
VERTEX
  8
0
 10
87.044085
 20
239.781240
 42
-0.066714
  0
SEQEND
  0
POLYLINE
  8
0
 66
1
 70
1
  0
VERTEX
  8
0
 10
44.117647
 20
213.117647
 42
-0.010889
  0
VERTEX
  8
0
 10
45.601967
 20
211.567228
 42
-0.015456
  0
VERTEX
  8
0
 10
46.847511
 20
210.120864
 42
-0.011445
  0
VERTEX
  8
0
 10
47.803662
 20
208.881567
 42
-0.172038
  0
VERTEX
  8
0
 10
47.958987
 20
208.367647
 42
-0.168890
  0
VERTEX
  8
0
 10
47.394302
 20
206.961439
 42
-0.008346
  0
VERTEX
  8
0
 10
44.004036
 20
203.197150
 42
-0.007573
  0
VERTEX
  8
0
 10
40.469319
 20
199.515240
 42
-0.200277
  0
VERTEX
  8
0
 10
39.234592
 20
199.000000
 42
-0.210674
  0
VERTEX
  8
0
 10
38.137477
 20
199.483739
 42
-0.006331
  0
VERTEX
  8
0
 10
34.735829
 20
203.303359
 42
-0.007105
  0
VERTEX
  8
0
 10
31.467133
 20
207.178511
 42
-0.173330
  0
VERTEX
  8
0
 10
31.000000
 20
208.485553
 42
-0.176370
  0
VERTEX
  8
0
 10
31.526694
 20
209.932257
 42
-0.012174
  0
VERTEX
  8
0
 10
34.448141
 20
213.245459
 42
-0.011645
  0
VERTEX
  8
0
 10
37.533326
 20
216.425361
 42
-0.193369
  0
VERTEX
  8
0
 10
38.867647
 20
216.981974
 42
-0.143274
  0
VERTEX
  8
0
 10
39.616577
 20
216.773547
 42
-0.019622
  0
VERTEX
  8
0
 10
40.973989
 20
215.854264
 42
-0.021230
  0
VERTEX
  8
0
 10
42.530940
 20
214.602988
 42
-0.016494
  0
SEQEND
  0
POLYLINE
  8
0
 66
1
 70
1
  0
VERTEX
  8
0
 10
195.648981
 20
63.549566
 42
-0.014778
  0
VERTEX
  8
0
 10
196.932269
 20
62.147593
 42
-0.019311
  0
VERTEX
  8
0
 10
198.015638
 20
60.788692
 42
-0.017181
  0
VERTEX
  8
0
 10
198.821147
 20
59.611483
 42
-0.142381
  0
VERTEX
  8
0
 10
199.000000
 20
58.996137
 42
-0.158135
  0
VERTEX
  8
0
 10
198.407596
 20
57.169876
 42
-0.026419
  0
VERTEX
  8
0
 10
196.059026
 20
54.266615
 42
-0.025321
  0
VERTEX
  8
0
 10
193.430673
 20
51.628935
 42
-0.186240
  0
VERTEX
  8
0
 10
191.800891
 20
51.000029
 42
-0.188517
  0
VERTEX
  8
0
 10
190.184455
 20
51.631905
 42
-0.028654
  0
VERTEX
  8
0
 10
187.730882
 20
54.171346
 42
-0.030148
  0
VERTEX
  8
0
 10
185.576615
 20
57.001429
 42
-0.148669
  0
VERTEX
  8
0
 10
185.000000
 20
58.897820
 42
-0.151893
  0
VERTEX
  8
0
 10
185.483690
 20
60.453298
 42
-0.016382
  0
VERTEX
  8
0
 10
187.747507
 20
63.521151
 42
-0.014183
  0
VERTEX
  8
0
 10
190.211999
 20
66.465893
 42
-0.214594
  0
VERTEX
  8
0
 10
191.398981
 20
66.999971
 42
-0.157944
  0
VERTEX
  8
0
 10
191.914381
 20
66.833015
 42
-0.013842
  0
VERTEX
  8
0
 10
193.018248
 20
65.986426
 42
-0.017075
  0
VERTEX
  8
0
 10
194.299902
 20
64.871192
 42
-0.012448
  0
SEQEND
  0
POLYLINE
  8
0
 66
1
 70
1
  0
VERTEX
  8
0
 10
73.880196
 20
234.564560
 42
0.100887
  0
VERTEX
  8
0
 10
70.199286
 20
230.790138
 42
0.084918
  0
VERTEX
  8
0
 10
68.009028
 20
225.643189
 42
0.087331
  0
VERTEX
  8
0
 10
67.689030
 20
220.196481
 42
0.116651
  0
VERTEX
  8
0
 10
69.371267
 20
215.556128
 42
-0.037981
  0
VERTEX
  8
0
 10
70.601581
 20
213.325912
 42
-0.137712
  0
VERTEX
  8
0
 10
70.848465
 20
211.740551
 42
-0.119970
  0
VERTEX
  8
0
 10
70.247087
 20
210.133182
 42
-0.025679
  0
VERTEX
  8
0
 10
68.435080
 20
207.740477
 42
0.061135
  0
VERTEX
  8
0
 10
63.186841
 20
199.684127
 42
0.037086
  0
VERTEX
  8
0
 10
58.949932
 20
189.111049
 42
0.034169
  0
VERTEX
  8
0
 10
55.985992
 20
176.929950
 42
0.030604
  0
VERTEX
  8
0
 10
54.568589
 20
164.000000
 42
-0.007398
  0
VERTEX
  8
0
 10
54.299729
 20
159.723912
 42
-0.007944
  0
VERTEX
  8
0
 10
53.909201
 20
155.558189
 42
-0.007586
  0
VERTEX
  8
0
 10
53.463105
 20
151.994619
 42
-0.036909
  0
VERTEX
  8
0
 10
53.032114
 20
150.006602
 42
0.066418
  0
VERTEX
  8
0
 10
52.011662
 20
143.460094
 42
0.068979
  0
VERTEX
  8
0
 10
52.767110
 20
136.962598
 42
0.071770
  0
VERTEX
  8
0
 10
55.207358
 20
131.138688
 42
0.082617
  0
VERTEX
  8
0
 10
59.107702
 20
126.554152
 42
0.042358
  0
VERTEX
  8
0
 10
62.529021
 20
124.130515
 42
0.014232
  0
VERTEX
  8
0
 10
67.894661
 20
121.176855
 42
0.010687
  0
VERTEX
  8
0
 10
73.315199
 20
118.535845
 42
0.108262
  0
VERTEX
  8
0
 10
75.750000
 20
118.000789
 42
-0.171343
  0
VERTEX
  8
0
 10
76.569155
 20
117.711004
 42
-0.380741
  0
VERTEX
  8
0
 10
76.668816
 20
117.108006
 42
-0.060557
  0
VERTEX
  8
0
 10
75.633778
 20
115.840460
 42
-0.005089
  0
VERTEX
  8
0
 10
72.549753
 20
112.939096
 42
0.040626
  0
VERTEX
  8
0
 10
68.626550
 20
108.684329
 42
0.055784
  0
VERTEX
  8
0
 10
65.898395
 20
104.256649
 42
0.062566
  0
VERTEX
  8
0
 10
64.435169
 20
99.778230
 42
0.075912
  0
VERTEX
  8
0
 10
64.261843
 20
95.369294
 42
0.060791
  0
VERTEX
  8
0
 10
65.083949
 20
91.915362
 42
0.072078
  0
VERTEX
  8
0
 10
66.687808
 20
88.972607
 42
0.078284
  0
VERTEX
  8
0
 10
68.927572
 20
86.793688
 42
0.092633
  0
VERTEX
  8
0
 10
71.608254
 20
85.562186
 42
-0.041553
  0
VERTEX
  8
0
 10
72.885615
 20
85.126139
 42
-0.174693
  0
VERTEX
  8
0
 10
73.465072
 20
84.577688
 42
-0.153767
  0
VERTEX
  8
0
 10
73.601842
 20
83.739990
 42
-0.030190
  0
VERTEX
  8
0
 10
73.289489
 20
82.227579
 42
0.060474
  0
VERTEX
  8
0
 10
72.535753
 20
77.000926
 42
0.010026
  0
VERTEX
  8
0
 10
72.511609
 20
66.812442
 42
0.005873
  0
VERTEX
  8
0
 10
72.821676
 20
56.278883
 42
0.164261
  0
VERTEX
  8
0
 10
73.793059
 20
53.750372
 42
-0.079532
  0
VERTEX
  8
0
 10
74.255708
 20
52.967364
 42
-0.050830
  0
VERTEX
  8
0
 10
74.541670
 20
51.947488
 42
-0.048785
  0
VERTEX
  8
0
 10
74.624316
 20
50.837272
 42
-0.055737
  0
VERTEX
  8
0
 10
74.481528
 20
49.782425
 42
0.134308
  0
VERTEX
  8
0
 10
74.540881
 20
46.971811
 42
0.142690
  0
VERTEX
  8
0
 10
76.029288
 20
44.657843
 42
0.105900
  0
VERTEX
  8
0
 10
78.966140
 20
43.035398
 42
0.052790
  0
VERTEX
  8
0
 10
83.159350
 20
42.236692
 42
0.054067
  0
VERTEX
  8
0
 10
87.696580
 20
42.351463
 42
0.066220
  0
VERTEX
  8
0
 10
91.786149
 20
43.463787
 42
0.058019
  0
VERTEX
  8
0
 10
95.841238
 20
45.751897
 42
0.030550
  0
VERTEX
  8
0
 10
100.305651
 20
49.441893
 42
0.000000
  0
VERTEX
  8
0
 10
104.111301
 20
53.000000
 42
0.000000
  0
VERTEX
  8
0
 10
120.379653
 20
53.000000
 42
0.000000
  0
VERTEX
  8
0
 10
136.648005
 20
53.000000
 42
0.000000
  0
VERTEX
  8
0
 10
138.574002
 20
49.354057
 42
0.053203
  0
VERTEX
  8
0
 10
140.958373
 20
45.810613
 42
0.081542
  0
VERTEX
  8
0
 10
143.760247
 20
43.404931
 42
0.076772
  0
VERTEX
  8
0
 10
147.312481
 20
41.930222
 42
0.042037
  0
VERTEX
  8
0
 10
151.979441
 20
41.195106
 42
0.040291
  0
VERTEX
  8
0
 10
156.671123
 20
41.234196
 42
0.088331
  0
VERTEX
  8
0
 10
160.125071
 20
42.171815
 42
0.130148
  0
VERTEX
  8
0
 10
162.222519
 20
43.938908
 42
0.154162
  0
VERTEX
  8
0
 10
163.000000
 20
46.400608
 42
-0.061204
  0
VERTEX
  8
0
 10
163.123139
 20
47.402810
 42
-0.044355
  0
VERTEX
  8
0
 10
163.491289
 20
48.466631
 42
-0.044933
  0
VERTEX
  8
0
 10
164.032055
 20
49.429722
 42
-0.070664
  0
VERTEX
  8
0
 10
164.672474
 20
50.127555
 42
0.105287
  0
VERTEX
  8
0
 10
167.039565
 20
53.092049
 42
0.011121
  0
VERTEX
  8
0
 10
170.846420
 20
61.141293
 42
0.014368
  0
VERTEX
  8
0
 10
174.283805
 20
69.484761
 42
0.045653
  0
VERTEX
  8
0
 10
175.896303
 20
75.292622
 42
-0.020347
  0
VERTEX
  8
0
 10
176.556209
 20
78.239963
 42
-0.046768
  0
VERTEX
  8
0
 10
177.344372
 20
80.369857
 42
-0.057285
  0
VERTEX
  8
0
 10
178.396777
 20
82.039794
 42
-0.048666
  0
VERTEX
  8
0
 10
179.854471
 20
83.530999
 42
0.109766
  0
VERTEX
  8
0
 10
184.215340
 20
89.236196
 42
0.106209
  0
VERTEX
  8
0
 10
185.817116
 20
96.320857
 42
0.105484
  0
VERTEX
  8
0
 10
184.370372
 20
103.477582
 42
0.106884
  0
VERTEX
  8
0
 10
180.131812
 20
109.381999
 42
-0.049379
  0
VERTEX
  8
0
 10
179.018901
 20
110.608466
 42
-0.338287
  0
VERTEX
  8
0
 10
179.029745
 20
111.372780
 42
-0.109753
  0
VERTEX
  8
0
 10
179.966114
 20
112.138658
 42
-0.004800
  0
VERTEX
  8
0
 10
183.775402
 20
114.013375
 42
0.041597
  0
VERTEX
  8
0
 10
188.645067
 20
116.872418
 42
0.043106
  0
VERTEX
  8
0
 10
192.912069
 20
120.467896
 42
0.044099
  0
VERTEX
  8
0
 10
196.413388
 20
124.656171
 42
0.048178
  0
VERTEX
  8
0
 10
199.009037
 20
129.276207
 42
0.039340
  0
VERTEX
  8
0
 10
199.972102
 20
132.025342
 42
0.012599
  0
VERTEX
  8
0
 10
200.972720
 20
136.239582
 42
0.011748
  0
VERTEX
  8
0
 10
201.913148
 20
141.280771
 42
0.009265
  0
VERTEX
  8
0
 10
202.701059
 20
146.776207
 42
0.022853
  0
VERTEX
  8
0
 10
203.574082
 20
157.920636
 42
0.027705
  0
VERTEX
  8
0
 10
203.333912
 20
168.399328
 42
0.029243
  0
VERTEX
  8
0
 10
201.974987
 20
178.272410
 42
0.032166
  0
VERTEX
  8
0
 10
199.497359
 20
187.602603
 42
0.000000
  0
VERTEX
  8
0
 10
196.932060
 20
195.244498
 42
0.000000
  0
VERTEX
  8
0
 10
200.876371
 20
198.885866
 42
0.086060
  0
VERTEX
  8
0
 10
204.420220
 20
203.512746
 42
0.104411
  0
VERTEX
  8
0
 10
205.894960
 20
208.762641
 42
0.104763
  0
VERTEX
  8
0
 10
205.119819
 20
214.146895
 42
0.087160
  0
VERTEX
  8
0
 10
202.211975
 20
219.159929
 42
0.106432
  0
VERTEX
  8
0
 10
196.994771
 20
223.202543
 42
0.096779
  0
VERTEX
  8
0
 10
190.393553
 20
224.917683
 42
0.102106
  0
VERTEX
  8
0
 10
183.928231
 20
223.991651
 42
0.133867
  0
VERTEX
  8
0
 10
179.065795
 20
220.579278
 42
-0.135554
  0
VERTEX
  8
0
 10
178.104201
 20
219.909193
 42
-0.147647
  0
VERTEX
  8
0
 10
176.968576
 20
219.856954
 42
-0.058271
  0
VERTEX
  8
0
 10
175.219011
 20
220.522734
 42
-0.007284
  0
VERTEX
  8
0
 10
171.638628
 20
222.453670
 42
0.018107
  0
VERTEX
  8
0
 10
168.618980
 20
223.998802
 42
0.007918
  0
VERTEX
  8
0
 10
164.512597
 20
225.837096
 42
0.007824
  0
VERTEX
  8
0
 10
160.086473
 20
227.653519
 42
0.010364
  0
VERTEX
  8
0
 10
156.000000
 20
229.159353
 42
0.013665
  0
VERTEX
  8
0
 10
149.712626
 20
231.138746
 42
0.040537
  0
VERTEX
  8
0
 10
145.281504
 20
232.021488
 42
0.025531
  0
VERTEX
  8
0
 10
139.798855
 20
232.375936
 42
0.002969
  0
VERTEX
  8
0
 10
127.500000
 20
232.469025
 42
0.003975
  0
VERTEX
  8
0
 10
117.737035
 20
232.407332
 42
0.012842
  0
VERTEX
  8
0
 10
111.255545
 20
232.148253
 42
0.019142
  0
VERTEX
  8
0
 10
106.536619
 20
231.656123
 42
0.034516
  0
VERTEX
  8
0
 10
102.736293
 20
230.841353
 42
-0.006030
  0
VERTEX
  8
0
 10
99.051135
 20
229.828819
 42
-0.075291
  0
VERTEX
  8
0
 10
97.615219
 20
229.676352
 42
-0.186191
  0
VERTEX
  8
0
 10
96.727641
 20
230.064954
 42
-0.074777
  0
VERTEX
  8
0
 10
95.922471
 20
231.144864
 42
0.149750
  0
VERTEX
  8
0
 10
92.242497
 20
234.800708
 42
0.082915
  0
VERTEX
  8
0
 10
86.176259
 20
236.806733
 42
0.078826
  0
VERTEX
  8
0
 10
79.456047
 20
236.783815
 42
0.109462
  0
SEQEND
  0
POLYLINE
  8
0
 66
1
 70
1
  0
VERTEX
  8
0
 10
151.433780
 20
226.508368
 42
-0.019720
  0
VERTEX
  8
0
 10
160.897409
 20
223.337789
 42
-0.036333
  0
VERTEX
  8
0
 10
168.255458
 20
219.915530
 42
-0.039340
  0
VERTEX
  8
0
 10
174.644012
 20
215.669277
 42
-0.028164
  0
VERTEX
  8
0
 10
181.087491
 20
210.000000
 42
-0.031578
  0
VERTEX
  8
0
 10
186.741787
 20
203.678955
 42
-0.035751
  0
VERTEX
  8
0
 10
191.303120
 20
196.942091
 42
-0.035653
  0
VERTEX
  8
0
 10
194.868132
 20
189.607379
 42
-0.031087
  0
VERTEX
  8
0
 10
197.545773
 20
181.500000
 42
-0.034647
  0
VERTEX
  8
0
 10
198.936137
 20
174.174770
 42
-0.018610
  0
VERTEX
  8
0
 10
199.681599
 20
165.002086
 42
-0.018166
  0
VERTEX
  8
0
 10
199.754665
 20
155.320989
 42
-0.022788
  0
VERTEX
  8
0
 10
199.088035
 20
146.371233
 42
-0.042612
  0
VERTEX
  8
0
 10
196.669459
 20
134.744271
 42
-0.079595
  0
VERTEX
  8
0
 10
192.505401
 20
126.104557
 42
-0.089299
  0
VERTEX
  8
0
 10
186.233680
 20
119.841592
 42
-0.066755
  0
VERTEX
  8
0
 10
177.521175
 20
115.380118
 42
-0.070609
  0
VERTEX
  8
0
 10
170.045260
 20
113.872728
 42
-0.008404
  0
VERTEX
  8
0
 10
153.119263
 20
113.175453
 42
-0.010887
  0
VERTEX
  8
0
 10
135.383315
 20
113.129513
 42
-0.022257
  0
VERTEX
  8
0
 10
121.500000
 20
114.014934
 42
-0.010770
  0
VERTEX
  8
0
 10
108.231266
 20
115.746069
 42
-0.007488
  0
VERTEX
  8
0
 10
93.326029
 20
118.247148
 42
-0.006396
  0
VERTEX
  8
0
 10
79.737821
 20
120.917100
 42
-0.038774
  0
VERTEX
  8
0
 10
72.855178
 20
122.928467
 42
-0.053213
  0
VERTEX
  8
0
 10
63.653035
 20
127.581508
 42
-0.109263
  0
VERTEX
  8
0
 10
58.009058
 20
133.302155
 42
-0.122214
  0
VERTEX
  8
0
 10
55.671349
 20
140.409530
 42
-0.076623
  0
VERTEX
  8
0
 10
56.360408
 20
149.180318
 42
0.019045
  0
VERTEX
  8
0
 10
56.970786
 20
152.299173
 42
0.007758
  0
VERTEX
  8
0
 10
57.572727
 20
156.581093
 42
0.007663
  0
VERTEX
  8
0
 10
58.078289
 20
161.208491
 42
0.009693
  0
VERTEX
  8
0
 10
58.396924
 20
165.500000
 42
-0.033161
  0
VERTEX
  8
0
 10
60.044389
 20
179.046231
 42
-0.047406
  0
VERTEX
  8
0
 10
63.412008
 20
190.667181
 42
-0.050079
  0
VERTEX
  8
0
 10
68.730130
 20
200.960678
 42
-0.043596
  0
VERTEX
  8
0
 10
76.211667
 20
210.519572
 42
-0.055168
  0
VERTEX
  8
0
 10
86.952302
 20
219.739253
 42
-0.065773
  0
VERTEX
  8
0
 10
98.858131
 20
225.753572
 42
-0.058777
  0
VERTEX
  8
0
 10
112.991193
 20
228.898999
 42
-0.033521
  0
VERTEX
  8
0
 10
130.500000
 20
229.504213
 42
-0.009623
  0
VERTEX
  8
0
 10
136.769425
 20
229.179723
 42
-0.017799
  0
VERTEX
  8
0
 10
141.839972
 20
228.637395
 42
-0.019730
  0
VERTEX
  8
0
 10
146.491054
 20
227.783347
 42
-0.015697
  0
SEQEND
  0
POLYLINE
  8
0
 66
1
 70
1
  0
VERTEX
  8
0
 10
100.763215
 20
110.430447
 42
-0.012330
  0
VERTEX
  8
0
 10
102.814014
 20
110.120100
 42
-0.017450
  0
VERTEX
  8
0
 10
104.619836
 20
109.735683
 42
-0.013636
  0
VERTEX
  8
0
 10
106.070181
 20
109.331301
 42
-0.181463
  0
VERTEX
  8
0
 10
106.501239
 20
108.997995
 42
-0.155719
  0
VERTEX
  8
0
 10
106.621838
 20
108.514863
 42
-0.023857
  0
VERTEX
  8
0
 10
106.509623
 20
107.517523
 42
-0.024733
  0
VERTEX
  8
0
 10
106.254467
 20
106.315720
 42
-0.019195
  0
VERTEX
  8
0
 10
105.863025
 20
105.036919
 42
0.071923
  0
VERTEX
  8
0
 10
105.223518
 20
101.744179
 42
0.143353
  0
VERTEX
  8
0
 10
105.840269
 20
99.185559
 42
0.163319
  0
VERTEX
  8
0
 10
107.655396
 20
97.575126
 42
0.100823
  0
VERTEX
  8
0
 10
110.478561
 20
97.000000
 42
0.041772
  0
VERTEX
  8
0
 10
112.055408
 20
97.131965
 42
0.043360
  0
VERTEX
  8
0
 10
113.568086
 20
97.524109
 42
0.046033
  0
VERTEX
  8
0
 10
114.898421
 20
98.137969
 42
0.065362
  0
VERTEX
  8
0
 10
115.930517
 20
98.930517
 42
-0.017536
  0
VERTEX
  8
0
 10
117.200093
 20
100.114033
 42
-0.217391
  0
VERTEX
  8
0
 10
117.817266
 20
100.296285
 42
-0.200356
  0
VERTEX
  8
0
 10
118.387982
 20
99.956923
 42
-0.014707
  0
VERTEX
  8
0
 10
119.453570
 20
98.430517
 42
0.055933
  0
VERTEX
  8
0
 10
120.443881
 20
97.234991
 42
0.089588
  0
VERTEX
  8
0
 10
121.543035
 20
96.501334
 42
0.074283
  0
VERTEX
  8
0
 10
122.977230
 20
96.117397
 42
0.028326
  0
VERTEX
  8
0
 10
125.047804
 20
96.000000
 42
0.023341
  0
VERTEX
  8
0
 10
127.254705
 20
96.103077
 42
0.099374
  0
VERTEX
  8
0
 10
128.512986
 20
96.480544
 42
0.128942
  0
VERTEX
  8
0
 10
129.354435
 20
97.258189
 42
0.051294
  0
VERTEX
  8
0
 10
130.066050
 20
98.673724
 42
0.045042
  0
VERTEX
  8
0
 10
130.410647
 20
99.903061
 42
0.027866
  0
VERTEX
  8
0
 10
130.601640
 20
101.392261
 42
0.027838
  0
VERTEX
  8
0
 10
130.625982
 20
102.896838
 42
0.044208
  0
VERTEX
  8
0
 10
130.461844
 20
104.173724
 42
0.000000
  0
VERTEX
  8
0
 10
129.841089
 20
107.000000
 42
0.000000
  0
VERTEX
  8
0
 10
141.042207
 20
107.000000
 42
0.011207
  0
VERTEX
  8
0
 10
146.100415
 20
107.113390
 42
0.006820
  0
VERTEX
  8
0
 10
152.069768
 20
107.462796
 42
0.006833
  0
VERTEX
  8
0
 10
157.982258
 20
107.971168
 42
0.011993
  0
VERTEX
  8
0
 10
162.853611
 20
108.575476
 42
0.000000
  0
VERTEX
  8
0
 10
173.463896
 20
110.150952
 42
0.000000
  0
VERTEX
  8
0
 10
177.731948
 20
105.633685
 42
-0.016774
  0
VERTEX
  8
0
 10
180.005581
 20
103.059569
 42
-0.057673
  0
VERTEX
  8
0
 10
181.215336
 20
101.191685
 42
-0.073969
  0
VERTEX
  8
0
 10
181.806801
 20
99.356879
 42
-0.041066
  0
VERTEX
  8
0
 10
182.000000
 20
97.008550
 42
-0.052139
  0
VERTEX
  8
0
 10
181.640213
 20
93.567690
 42
-0.053751
  0
VERTEX
  8
0
 10
180.576791
 20
90.312625
 42
-0.058844
  0
VERTEX
  8
0
 10
178.984985
 20
87.661401
 42
-0.105673
  0
VERTEX
  8
0
 10
177.055391
 20
86.029644
 42
-0.171749
  0
VERTEX
  8
0
 10
170.529246
 20
85.035187
 42
-0.172158
  0
VERTEX
  8
0
 10
164.838232
 20
88.369165
 42
-0.203528
  0
VERTEX
  8
0
 10
163.088847
 20
94.058421
 42
-0.210765
  0
VERTEX
  8
0
 10
166.000000
 20
99.158121
 42
0.061775
  0
VERTEX
  8
0
 10
168.670019
 20
101.696001
 42
0.343610
  0
VERTEX
  8
0
 10
168.717039
 20
103.544433
 42
0.329329
  0
VERTEX
  8
0
 10
166.903631
 20
104.101420
 42
0.060513
  0
VERTEX
  8
0
 10
163.565945
 20
102.451252
 42
0.087586
  0
VERTEX
  8
0
 10
161.446974
 20
100.458275
 42
0.071920
  0
VERTEX
  8
0
 10
159.961669
 20
97.724583
 42
0.067355
  0
VERTEX
  8
0
 10
159.243185
 20
94.505728
 42
0.060993
  0
VERTEX
  8
0
 10
159.368426
 20
91.097455
 42
-0.015781
  0
VERTEX
  8
0
 10
159.688583
 20
88.590175
 42
-0.179999
  0
VERTEX
  8
0
 10
159.435777
 20
87.642679
 42
-0.188305
  0
VERTEX
  8
0
 10
158.630181
 20
87.113010
 42
-0.017549
  0
VERTEX
  8
0
 10
156.244427
 20
86.692973
 42
-0.012917
  0
VERTEX
  8
0
 10
153.884950
 20
86.424385
 42
-0.001325
  0
VERTEX
  8
0
 10
148.291637
 20
85.948582
 42
-0.001652
  0
VERTEX
  8
0
 10
141.623033
 20
85.421287
 42
-0.001319
  0
VERTEX
  8
0
 10
134.429232
 20
84.895458
 42
-0.013951
  0
VERTEX
  8
0
 10
120.402728
 20
84.299998
 42
-0.014299
  0
VERTEX
  8
0
 10
106.479608
 20
84.495896
 42
-0.015124
  0
VERTEX
  8
0
 10
93.593617
 20
85.437074
 42
-0.024587
  0
VERTEX
  8
0
 10
82.750000
 20
87.101648
 42
0.000000
  0
VERTEX
  8
0
 10
77.000000
 20
88.276105
 42
0.000000
  0
VERTEX
  8
0
 10
77.021962
 20
92.388052
 42
-0.036860
  0
VERTEX
  8
0
 10
77.171526
 20
94.276663
 42
-0.019787
  0
VERTEX
  8
0
 10
77.618521
 20
96.572632
 42
-0.019601
  0
VERTEX
  8
0
 10
78.262549
 20
98.890235
 42
-0.028942
  0
VERTEX
  8
0
 10
79.021962
 20
100.859204
 42
0.008859
  0
VERTEX
  8
0
 10
80.502986
 20
104.283030
 42
0.077546
  0
VERTEX
  8
0
 10
80.888155
 20
105.886374
 42
0.261972
  0
VERTEX
  8
0
 10
80.525464
 20
106.674188
 42
0.158026
  0
VERTEX
  8
0
 10
79.520324
 20
107.000000
 42
0.252297
  0
VERTEX
  8
0
 10
77.832255
 20
106.090303
 42
0.034636
  0
VERTEX
  8
0
 10
75.801989
 20
102.486029
 42
0.037008
  0
VERTEX
  8
0
 10
74.058531
 20
97.987875
 42
0.043608
  0
VERTEX
  8
0
 10
73.112893
 20
93.521087
 42
0.000000
  0
VERTEX
  8
0
 10
72.500000
 20
88.500000
 42
0.000000
  0
VERTEX
  8
0
 10
70.250000
 20
90.750000
 42
-0.118077
  0
VERTEX
  8
0
 10
68.340011
 20
93.862949
 42
-0.098701
  0
VERTEX
  8
0
 10
67.880509
 20
97.722369
 42
-0.085232
  0
VERTEX
  8
0
 10
68.951283
 20
101.945523
 42
-0.062848
  0
VERTEX
  8
0
 10
71.452322
 20
106.081231
 42
-0.016824
  0
VERTEX
  8
0
 10
73.030215
 20
107.942922
 42
-0.011855
  0
VERTEX
  8
0
 10
74.921516
 20
109.931108
 42
-0.011982
  0
VERTEX
  8
0
 10
76.823296
 20
111.748437
 42
-0.024515
  0
VERTEX
  8
0
 10
78.414400
 20
113.060862
 42
0.000000
  0
VERTEX
  8
0
 10
81.924155
 20
115.677801
 42
0.000000
  0
VERTEX
  8
0
 10
88.712078
 20
113.386222
 42
0.012296
  0
VERTEX
  8
0
 10
91.695655
 20
112.460050
 42
0.008970
  0
VERTEX
  8
0
 10
95.052117
 20
111.572687
 42
0.009073
  0
VERTEX
  8
0
 10
98.266163
 20
110.845939
 42
0.019677
  0
SEQEND
  0
POLYLINE
  8
0
 66
1
 70
1
  0
VERTEX
  8
0
 10
90.863087
 20
81.951631
 42
0.035173
  0
VERTEX
  8
0
 10
101.139684
 20
81.190504
 42
0.004323
  0
VERTEX
  8
0
 10
123.670516
 20
81.303937
 42
0.004503
  0
VERTEX
  8
0
 10
146.162754
 20
81.814283
 42
0.032103
  0
VERTEX
  8
0
 10
157.000000
 20
82.856490
 42
-0.016368
  0
VERTEX
  8
0
 10
159.789517
 20
83.213596
 42
-0.038414
  0
VERTEX
  8
0
 10
161.888773
 20
83.250969
 42
-0.049499
  0
VERTEX
  8
0
 10
163.611138
 20
82.976716
 42
-0.053383
  0
VERTEX
  8
0
 10
165.200340
 20
82.372200
 42
0.031692
  0
VERTEX
  8
0
 10
166.420416
 20
81.846567
 42
0.021947
  0
VERTEX
  8
0
 10
167.856418
 20
81.403084
 42
0.022204
  0
VERTEX
  8
0
 10
169.279477
 20
81.097907
 42
0.041737
  0
VERTEX
  8
0
 10
170.450340
 20
81.000000
 42
-0.047525
  0
VERTEX
  8
0
 10
171.445775
 20
80.905169
 42
-0.071948
  0
VERTEX
  8
0
 10
172.266560
 20
80.620718
 42
-0.094987
  0
VERTEX
  8
0
 10
172.808532
 20
80.194276
 42
-0.180608
  0
VERTEX
  8
0
 10
173.000000
 20
79.681501
 42
-0.068391
  0
VERTEX
  8
0
 10
172.641698
 20
77.074232
 42
-0.010069
  0
VERTEX
  8
0
 10
171.098450
 20
71.963858
 42
-0.012141
  0
VERTEX
  8
0
 10
169.177180
 20
66.492392
 42
-0.018273
  0
VERTEX
  8
0
 10
167.215443
 20
61.833175
 42
-0.039943
  0
VERTEX
  8
0
 10
164.982270
 20
57.886324
 42
-0.142422
  0
VERTEX
  8
0
 10
162.772141
 20
56.050636
 42
-0.077993
  0
VERTEX
  8
0
 10
159.219662
 20
55.126494
 42
-0.006939
  0
VERTEX
  8
0
 10
149.982994
 20
54.339939
 42
-0.006821
  0
VERTEX
  8
0
 10
145.323010
 20
54.072017
 42
-0.036874
  0
VERTEX
  8
0
 10
142.790601
 20
54.147822
 42
-0.073404
  0
VERTEX
  8
0
 10
141.211883
 20
54.551245
 42
-0.120920
  0
VERTEX
  8
0
 10
140.110550
 20
55.366796
 42
0.165271
  0
VERTEX
  8
0
 10
138.663538
 20
56.254943
 42
0.035242
  0
VERTEX
  8
0
 10
135.704091
 20
56.709651
 42
0.017884
  0
VERTEX
  8
0
 10
130.601359
 20
56.945743
 42
0.002618
  0
VERTEX
  8
0
 10
120.237798
 20
57.000000
 42
0.002574
  0
VERTEX
  8
0
 10
109.853380
 20
56.946547
 42
0.018002
  0
VERTEX
  8
0
 10
104.790877
 20
56.712010
 42
0.035604
  0
VERTEX
  8
0
 10
101.879987
 20
56.261728
 42
0.180620
  0
VERTEX
  8
0
 10
100.531986
 20
55.374631
 42
-0.118508
  0
VERTEX
  8
0
 10
99.556149
 20
54.546825
 42
-0.117306
  0
VERTEX
  8
0
 10
98.306936
 20
54.248992
 42
-0.045671
  0
VERTEX
  8
0
 10
96.207092
 20
54.440131
 42
-0.004940
  0
VERTEX
  8
0
 10
91.421744
 20
55.370047
 42
-0.003024
  0
VERTEX
  8
0
 10
88.113830
 20
56.067715
 42
-0.002793
  0
VERTEX
  8
0
 10
84.725450
 20
56.823631
 42
-0.002787
  0
VERTEX
  8
0
 10
81.714838
 20
57.530625
 42
-0.009294
  0
VERTEX
  8
0
 10
79.750000
 20
58.042420
 42
0.000000
  0
VERTEX
  8
0
 10
76.000000
 20
59.094008
 42
0.000000
  0
VERTEX
  8
0
 10
76.011006
 20
67.797004
 42
-0.006406
  0
VERTEX
  8
0
 10
76.061879
 20
71.411040
 42
-0.006144
  0
VERTEX
  8
0
 10
76.205419
 20
75.073177
 42
-0.006098
  0
VERTEX
  8
0
 10
76.411100
 20
78.299724
 42
-0.021973
  0
VERTEX
  8
0
 10
76.657382
 20
80.345725
 42
-0.016871
  0
VERTEX
  8
0
 10
77.105673
 20
82.586248
 42
-0.135788
  0
VERTEX
  8
0
 10
77.605559
 20
83.498811
 42
-0.205046
  0
VERTEX
  8
0
 10
78.402966
 20
83.831490
 42
-0.046314
  0
VERTEX
  8
0
 10
79.896376
 20
83.678932
 42
0.008078
  0
VERTEX
  8
0
 10
81.395233
 20
83.408961
 42
0.001458
  0
VERTEX
  8
0
 10
84.191842
 20
82.960124
 42
0.001572
  0
VERTEX
  8
0
 10
87.470342
 20
82.454303
 42
0.001422
  0
SEQEND
  0
POLYLINE
  8
0
 66
1
 70
1
  0
VERTEX
  8
0
 10
85.500000
 20
52.570128
 42
0.000000
  0
VERTEX
  8
0
 10
90.500000
 20
51.178835
 42
0.000000
  0
VERTEX
  8
0
 10
86.441130
 20
51.089417
 42
-0.032790
  0
VERTEX
  8
0
 10
84.744731
 20
51.163310
 42
-0.029205
  0
VERTEX
  8
0
 10
83.004346
 20
51.457549
 42
-0.030371
  0
VERTEX
  8
0
 10
81.469175
 20
51.909983
 42
-0.075201
  0
VERTEX
  8
0
 10
80.441130
 20
52.468197
 42
-0.071595
  0
VERTEX
  8
0
 10
79.473355
 20
53.445910
 42
-0.608983
  0
VERTEX
  8
0
 10
79.682046
 20
53.870693
 42
-0.067422
  0
VERTEX
  8
0
 10
81.326274
 20
53.681611
 42
-0.005564
  0
SEQEND
  0
POLYLINE
  8
0
 66
1
 70
1
  0
VERTEX
  8
0
 10
157.000000
 20
50.000000
 42
-0.090035
  0
VERTEX
  8
0
 10
156.109422
 20
49.629598
 42
-0.019812
  0
VERTEX
  8
0
 10
154.471875
 20
49.340162
 42
-0.019999
  0
VERTEX
  8
0
 10
152.524197
 20
49.153927
 42
-0.018054
  0
VERTEX
  8
0
 10
150.500000
 20
49.114993
 42
-0.004399
  0
VERTEX
  8
0
 10
147.851117
 20
49.183003
 42
-0.076592
  0
VERTEX
  8
0
 10
147.006101
 20
49.343197
 42
-0.664682
  0
VERTEX
  8
0
 10
146.991686
 20
49.594468
 42
-0.036244
  0
VERTEX
  8
0
 10
148.000000
 20
50.000000
 42
-0.045800
  0
VERTEX
  8
0
 10
151.067502
 20
50.680796
 42
-0.031726
  0
VERTEX
  8
0
 10
154.615868
 20
50.906175
 42
-0.057932
  0
VERTEX
  8
0
 10
156.889064
 20
50.641906
 42
-0.661040
  0
SEQEND
  0
POLYLINE
  8
0
 66
1
 70
1
  0
VERTEX
  8
0
 10
94.000000
 20
174.715608
 42
0.158991
  0
VERTEX
  8
0
 10
94.200485
 20
174.101052
 42
0.037906
  0
VERTEX
  8
0
 10
94.907743
 20
173.272288
 42
0.035226
  0
VERTEX
  8
0
 10
95.907262
 20
172.398928
 42
0.028546
  0
VERTEX
  8
0
 10
97.090188
 20
171.605796
 42
0.021003
  0
VERTEX
  8
0
 10
98.674734
 20
170.757433
 42
0.074898
  0
VERTEX
  8
0
 10
99.770715
 20
170.418351
 42
0.122792
  0
VERTEX
  8
0
 10
100.610676
 20
170.497398
 42
0.114539
  0
VERTEX
  8
0
 10
101.340188
 20
170.961171
 42
0.111302
  0
VERTEX
  8
0
 10
101.756805
 20
171.633513
 42
0.177220
  0
VERTEX
  8
0
 10
101.744933
 20
172.302438
 42
0.104065
  0
VERTEX
  8
0
 10
101.250550
 20
173.063776
 42
0.025606
  0
VERTEX
  8
0
 10
100.139216
 20
174.070983
 42
0.060057
  0
VERTEX
  8
0
 10
98.111601
 20
175.356692
 42
0.085338
  0
VERTEX
  8
0
 10
96.061538
 20
175.934852
 42
0.141464
  0
VERTEX
  8
0
 10
94.596122
 20
175.673567
 42
0.285738
  0
SEQEND
  0
POLYLINE
  8
0
 66
1
 70
1
  0
VERTEX
  8
0
 10
151.005251
 20
170.106475
 42
0.059477
  0
VERTEX
  8
0
 10
150.024625
 20
169.703154
 42
0.055089
  0
VERTEX
  8
0
 10
149.138480
 20
169.071755
 42
0.058974
  0
VERTEX
  8
0
 10
148.473427
 20
168.319329
 42
0.104319
  0
VERTEX
  8
0
 10
148.153551
 20
167.558809
 42
0.081884
  0
VERTEX
  8
0
 10
148.127732
 20
166.597397
 42
0.278020
  0
VERTEX
  8
0
 10
148.505536
 20
166.129145
 42
0.116060
  0
VERTEX
  8
0
 10
149.414933
 20
166.020902
 42
0.012065
  0
VERTEX
  8
0
 10
151.561993
 20
166.316347
 42
0.029381
  0
VERTEX
  8
0
 10
154.291283
 20
166.925582
 42
0.086709
  0
VERTEX
  8
0
 10
156.014519
 20
167.760873
 42
0.171710
  0
VERTEX
  8
0
 10
156.718343
 20
168.775748
 42
0.207876
  0
VERTEX
  8
0
 10
156.553851
 20
169.912868
 42
0.127175
  0
VERTEX
  8
0
 10
155.855691
 20
170.582078
 42
0.119656
  0
VERTEX
  8
0
 10
154.904289
 20
170.848521
 42
0.063004
  0
VERTEX
  8
0
 10
153.453177
 20
170.716158
 42
0.013646
  0
SEQEND
  0
POLYLINE
  8
0
 66
1
 70
1
  0
VERTEX
  8
0
 10
89.072580
 20
159.365141
 42
0.020634
  0
VERTEX
  8
0
 10
88.279229
 20
158.266124
 42
0.022951
  0
VERTEX
  8
0
 10
87.608820
 20
157.142877
 42
0.023085
  0
VERTEX
  8
0
 10
87.130016
 20
156.141580
 42
0.100305
  0
VERTEX
  8
0
 10
87.000000
 20
155.500000
 42
0.100305
  0
VERTEX
  8
0
 10
87.130016
 20
154.858420
 42
0.023085
  0
VERTEX
  8
0
 10
87.608820
 20
153.857123
 42
0.022951
  0
VERTEX
  8
0
 10
88.279229
 20
152.733876
 42
0.020634
  0
VERTEX
  8
0
 10
89.072580
 20
151.634859
 42
0.156842
  0
VERTEX
  8
0
 10
92.396261
 20
149.394372
 42
0.149948
  0
VERTEX
  8
0
 10
96.469710
 20
149.458325
 42
0.153042
  0
VERTEX
  8
0
 10
99.748157
 20
151.784536
 42
0.163936
  0
VERTEX
  8
0
 10
101.000000
 20
155.500000
 42
0.163936
  0
VERTEX
  8
0
 10
99.748157
 20
159.215464
 42
0.153042
  0
VERTEX
  8
0
 10
96.469710
 20
161.541675
 42
0.149948
  0
VERTEX
  8
0
 10
92.396261
 20
161.605628
 42
0.156842
  0
SEQEND
  0
POLYLINE
  8
0
 66
1
 70
1
  0
VERTEX
  8
0
 10
146.556704
 20
154.777494
 42
0.069328
  0
VERTEX
  8
0
 10
145.377860
 20
152.471521
 42
0.105892
  0
VERTEX
  8
0
 10
145.102880
 20
150.249863
 42
0.108116
  0
VERTEX
  8
0
 10
145.761957
 20
148.143495
 42
0.074629
  0
VERTEX
  8
0
 10
147.314451
 20
146.174314
 42
0.170422
  0
VERTEX
  8
0
 10
151.703413
 20
144.232253
 42
0.208828
  0
VERTEX
  8
0
 10
155.904163
 20
145.684035
 42
0.186581
  0
VERTEX
  8
0
 10
158.007941
 20
149.958283
 42
0.145990
  0
VERTEX
  8
0
 10
156.964816
 20
155.065741
 42
0.189853
  0
VERTEX
  8
0
 10
155.115388
 20
156.636689
 42
0.089388
  0
VERTEX
  8
0
 10
151.965199
 20
157.114777
 42
0.085396
  0
VERTEX
  8
0
 10
148.707518
 20
156.460972
 42
0.148922
  0
SEQEND
  0
POLYLINE
  8
0
 66
1
 70
1
  0
VERTEX
  8
0
 10
115.180449
 20
150.760346
 42
0.102194
  0
VERTEX
  8
0
 10
115.608853
 20
149.569764
 42
0.135918
  0
VERTEX
  8
0
 10
116.445387
 20
148.788053
 42
0.071640
  0
VERTEX
  8
0
 10
117.989251
 20
148.244853
 42
0.013242
  0
VERTEX
  8
0
 10
120.968353
 20
147.737148
 42
0.015568
  0
VERTEX
  8
0
 10
125.174905
 20
147.267506
 42
0.087989
  0
VERTEX
  8
0
 10
127.413294
 20
147.481866
 42
0.194335
  0
VERTEX
  8
0
 10
128.562997
 20
148.364768
 42
0.133797
  0
VERTEX
  8
0
 10
129.000000
 20
149.968615
 42
0.083433
  0
VERTEX
  8
0
 10
128.777619
 20
151.292027
 42
0.231106
  0
VERTEX
  8
0
 10
128.126643
 20
151.940663
 42
0.289425
  0
VERTEX
  8
0
 10
127.343947
 20
151.754018
 42
0.106853
  0
VERTEX
  8
0
 10
126.713987
 20
150.750000
 42
-0.106420
  0
VERTEX
  8
0
 10
126.373661
 20
150.206563
 42
-0.207197
  0
VERTEX
  8
0
 10
125.909239
 20
150.015308
 42
-0.108765
  0
VERTEX
  8
0
 10
125.216469
 20
150.180911
 42
-0.020731
  0
VERTEX
  8
0
 10
124.068106
 20
150.797536
 42
0.049823
  0
VERTEX
  8
0
 10
123.092098
 20
151.250682
 42
0.040416
  0
VERTEX
  8
0
 10
121.974752
 20
151.541133
 42
0.041910
  0
VERTEX
  8
0
 10
120.890263
 20
151.638739
 42
0.078491
  0
VERTEX
  8
0
 10
120.021609
 20
151.506858
 42
-0.057494
  0
VERTEX
  8
0
 10
119.265020
 20
151.359413
 42
-0.064314
  0
VERTEX
  8
0
 10
118.523787
 20
151.397132
 42
-0.073605
  0
VERTEX
  8
0
 10
117.909020
 20
151.605126
 42
-0.136854
  0
VERTEX
  8
0
 10
117.525140
 20
151.959323
 42
0.104718
  0
VERTEX
  8
0
 10
116.659999
 20
152.865472
 42
0.274757
  0
VERTEX
  8
0
 10
115.796954
 20
152.920426
 42
0.229615
  0
VERTEX
  8
0
 10
115.217767
 20
152.153298
 42
0.084453
  0
SEQEND
  0
ENDSEC
  0
EOF
