solid CATIA STL
  facet normal  0.000000e+000 -1.000000e+000  0.000000e+000
    outer loop
      vertex -6.650000e+000 -3.500000e+000 -1.510856e+000
      vertex -6.650000e+000 -3.500000e+000 -4.650000e+000
      vertex  6.650000e+000 -3.500000e+000 -1.510856e+000
    endloop
  endfacet
  facet normal  0.000000e+000 -1.000000e+000  -0.000000e+000
    outer loop
      vertex  6.650000e+000 -3.500000e+000 -1.510856e+000
      vertex -6.650000e+000 -3.500000e+000 -4.650000e+000
      vertex  6.650000e+000 -3.500000e+000 -4.650000e+000
    endloop
  endfacet
  facet normal  0.000000e+000  1.000000e+000  0.000000e+000
    outer loop
      vertex -6.650000e+000  0.000000e+000 -4.650000e+000
      vertex -6.650000e+000  0.000000e+000  4.650000e+000
      vertex -5.771820e+000  0.000000e+000  1.614498e+000
    endloop
  endfacet
  facet normal  0.000000e+000  9.999999e-001  0.000000e+000
    outer loop
      vertex -6.650000e+000  0.000000e+000 -4.650000e+000
      vertex -5.771820e+000  0.000000e+000  1.614498e+000
      vertex -5.771820e+000  0.000000e+000 -1.614498e+000
    endloop
  endfacet
  facet normal  -0.000000e+000  1.000000e+000  0.000000e+000
    outer loop
      vertex -6.650000e+000  0.000000e+000 -4.650000e+000
      vertex -5.771820e+000  0.000000e+000 -1.614498e+000
      vertex -2.271820e+000  0.000000e+000 -1.614498e+000
    endloop
  endfacet
  facet normal  -0.000000e+000  1.000000e+000  0.000000e+000
    outer loop
      vertex -6.650000e+000  0.000000e+000 -4.650000e+000
      vertex -2.271820e+000  0.000000e+000 -1.614498e+000
      vertex -1.750000e+000  0.000000e+000 -1.614498e+000
    endloop
  endfacet
  facet normal  -0.000000e+000  1.000000e+000  0.000000e+000
    outer loop
      vertex -6.650000e+000  0.000000e+000 -4.650000e+000
      vertex -1.750000e+000  0.000000e+000 -1.614498e+000
      vertex  1.750000e+000  0.000000e+000 -1.614498e+000
    endloop
  endfacet
  facet normal  -0.000000e+000  1.000000e+000  0.000000e+000
    outer loop
      vertex -6.650000e+000  0.000000e+000 -4.650000e+000
      vertex  1.750000e+000  0.000000e+000 -1.614498e+000
      vertex  2.271820e+000  0.000000e+000 -1.614498e+000
    endloop
  endfacet
  facet normal  -0.000000e+000  1.000000e+000  0.000000e+000
    outer loop
      vertex -6.650000e+000  0.000000e+000 -4.650000e+000
      vertex  2.271820e+000  0.000000e+000 -1.614498e+000
      vertex  5.771820e+000  0.000000e+000 -1.614498e+000
    endloop
  endfacet
  facet normal  0.000000e+000  1.000000e+000  0.000000e+000
    outer loop
      vertex -6.650000e+000  0.000000e+000 -4.650000e+000
      vertex  5.771820e+000  0.000000e+000 -1.614498e+000
      vertex  6.650000e+000  0.000000e+000 -4.650000e+000
    endloop
  endfacet
  facet normal  0.000000e+000  1.000000e+000  0.000000e+000
    outer loop
      vertex -6.650000e+000  0.000000e+000  4.650000e+000
      vertex  6.650000e+000  0.000000e+000  4.650000e+000
      vertex  5.771820e+000  0.000000e+000  1.614498e+000
    endloop
  endfacet
  facet normal  0.000000e+000  1.000000e+000  0.000000e+000
    outer loop
      vertex -6.650000e+000  0.000000e+000  4.650000e+000
      vertex  5.771820e+000  0.000000e+000  1.614498e+000
      vertex  2.271820e+000  0.000000e+000  1.614498e+000
    endloop
  endfacet
  facet normal  0.000000e+000  1.000000e+000  0.000000e+000
    outer loop
      vertex -6.650000e+000  0.000000e+000  4.650000e+000
      vertex  2.271820e+000  0.000000e+000  1.614498e+000
      vertex  1.750000e+000  0.000000e+000  1.614498e+000
    endloop
  endfacet
  facet normal  0.000000e+000  1.000000e+000  0.000000e+000
    outer loop
      vertex -6.650000e+000  0.000000e+000  4.650000e+000
      vertex  1.750000e+000  0.000000e+000  1.614498e+000
      vertex -1.750000e+000  0.000000e+000  1.614498e+000
    endloop
  endfacet
  facet normal  0.000000e+000  1.000000e+000  0.000000e+000
    outer loop
      vertex -6.650000e+000  0.000000e+000  4.650000e+000
      vertex -1.750000e+000  0.000000e+000  1.614498e+000
      vertex -2.271820e+000  0.000000e+000  1.614498e+000
    endloop
  endfacet
  facet normal  0.000000e+000  1.000000e+000  0.000000e+000
    outer loop
      vertex -6.650000e+000  0.000000e+000  4.650000e+000
      vertex -2.271820e+000  0.000000e+000  1.614498e+000
      vertex -5.771820e+000  0.000000e+000  1.614498e+000
    endloop
  endfacet
  facet normal  0.000000e+000  1.000000e+000  0.000000e+000
    outer loop
      vertex -2.271820e+000  0.000000e+000 -1.614498e+000
      vertex -2.271820e+000  0.000000e+000  1.614498e+000
      vertex -1.750000e+000  0.000000e+000 -1.614498e+000
    endloop
  endfacet
  facet normal  0.000000e+000  1.000000e+000  -0.000000e+000
    outer loop
      vertex -1.750000e+000  0.000000e+000 -1.614498e+000
      vertex -2.271820e+000  0.000000e+000  1.614498e+000
      vertex -1.750000e+000  0.000000e+000  1.614498e+000
    endloop
  endfacet
  facet normal  0.000000e+000  1.000000e+000  0.000000e+000
    outer loop
      vertex  1.750000e+000  0.000000e+000 -1.614498e+000
      vertex  1.750000e+000  0.000000e+000  1.614498e+000
      vertex  2.271820e+000  0.000000e+000 -1.614498e+000
    endloop
  endfacet
  facet normal  0.000000e+000  1.000000e+000  -0.000000e+000
    outer loop
      vertex  2.271820e+000  0.000000e+000 -1.614498e+000
      vertex  1.750000e+000  0.000000e+000  1.614498e+000
      vertex  2.271820e+000  0.000000e+000  1.614498e+000
    endloop
  endfacet
  facet normal  0.000000e+000  9.999999e-001  0.000000e+000
    outer loop
      vertex  5.771820e+000  0.000000e+000  1.614498e+000
      vertex  6.650000e+000  0.000000e+000  4.650000e+000
      vertex  5.771820e+000  0.000000e+000 -1.614498e+000
    endloop
  endfacet
  facet normal  -0.000000e+000  1.000000e+000  0.000000e+000
    outer loop
      vertex  5.771820e+000  0.000000e+000 -1.614498e+000
      vertex  6.650000e+000  0.000000e+000  4.650000e+000
      vertex  6.650000e+000  0.000000e+000 -4.650000e+000
    endloop
  endfacet
  facet normal -1.000000e+000  -0.000000e+000  -0.000000e+000
    outer loop
      vertex -6.650000e+000 -2.000000e+000 -1.650000e+000
      vertex -6.650000e+000 -1.000000e+000 -1.650000e+000
      vertex -6.650000e+000  0.000000e+000 -4.650000e+000
    endloop
  endfacet
  facet normal -1.000000e+000  0.000000e+000  0.000000e+000
    outer loop
      vertex -6.650000e+000 -2.000000e+000 -1.650000e+000
      vertex -6.650000e+000  0.000000e+000 -4.650000e+000
      vertex -6.650000e+000 -3.500000e+000 -4.650000e+000
    endloop
  endfacet
  facet normal -1.000000e+000  0.000000e+000  0.000000e+000
    outer loop
      vertex -6.650000e+000 -2.000000e+000 -1.650000e+000
      vertex -6.650000e+000 -3.500000e+000 -4.650000e+000
      vertex -6.650000e+000 -3.500000e+000 -1.510856e+000
    endloop
  endfacet
  facet normal -1.000000e+000  0.000000e+000  0.000000e+000
    outer loop
      vertex -6.650000e+000 -2.000000e+000 -1.650000e+000
      vertex -6.650000e+000 -3.500000e+000 -1.510856e+000
      vertex -6.650000e+000 -3.496303e+000 -1.444353e+000
    endloop
  endfacet
  facet normal -9.999999e-001  0.000000e+000  0.000000e+000
    outer loop
      vertex -6.650000e+000 -2.000000e+000 -1.650000e+000
      vertex -6.650000e+000 -3.496303e+000 -1.444353e+000
      vertex -6.650000e+000 -3.485258e+000 -1.378670e+000
    endloop
  endfacet
  facet normal -9.999999e-001  0.000000e+000  0.000000e+000
    outer loop
      vertex -6.650000e+000 -2.000000e+000 -1.650000e+000
      vertex -6.650000e+000 -3.485258e+000 -1.378670e+000
      vertex -6.650000e+000 -3.467000e+000 -1.314615e+000
    endloop
  endfacet
  facet normal -1.000000e+000  0.000000e+000  0.000000e+000
    outer loop
      vertex -6.650000e+000 -2.000000e+000 -1.650000e+000
      vertex -6.650000e+000 -3.467000e+000 -1.314615e+000
      vertex -6.650000e+000 -3.441756e+000 -1.252979e+000
    endloop
  endfacet
  facet normal -9.999999e-001  0.000000e+000  0.000000e+000
    outer loop
      vertex -6.650000e+000 -2.000000e+000 -1.650000e+000
      vertex -6.650000e+000 -3.441756e+000 -1.252979e+000
      vertex -6.650000e+000 -3.409835e+000 -1.194521e+000
    endloop
  endfacet
  facet normal -1.000000e+000  0.000000e+000  0.000000e+000
    outer loop
      vertex -6.650000e+000 -2.000000e+000 -1.650000e+000
      vertex -6.650000e+000 -3.409835e+000 -1.194521e+000
      vertex -6.650000e+000 -3.371632e+000 -1.139961e+000
    endloop
  endfacet
  facet normal -1.000000e+000  0.000000e+000  0.000000e+000
    outer loop
      vertex -6.650000e+000 -2.000000e+000 -1.650000e+000
      vertex -6.650000e+000 -3.371632e+000 -1.139961e+000
      vertex -6.650000e+000 -2.440373e+000 -1.125183e+000
    endloop
  endfacet
  facet normal -1.000000e+000  0.000000e+000  0.000000e+000
    outer loop
      vertex -6.650000e+000 -1.000000e+000 -1.650000e+000
      vertex -6.650000e+000 -1.000000e+000  4.650000e+000
      vertex -6.650000e+000  0.000000e+000 -4.650000e+000
    endloop
  endfacet
  facet normal -9.999999e-001  0.000000e+000  0.000000e+000
    outer loop
      vertex -6.650000e+000  0.000000e+000 -4.650000e+000
      vertex -6.650000e+000 -1.000000e+000  4.650000e+000
      vertex -6.650000e+000  0.000000e+000  4.650000e+000
    endloop
  endfacet
  facet normal -1.000000e+000  -0.000000e+000  0.000000e+000
    outer loop
      vertex -6.650000e+000 -2.909520e+000 -9.109316e-001
      vertex -6.650000e+000 -2.842966e+000 -9.135729e-001
      vertex -6.650000e+000 -2.975955e+000 -9.156832e-001
    endloop
  endfacet
  facet normal -1.000000e+000  0.000000e+000  0.000000e+000
    outer loop
      vertex -6.650000e+000 -2.975955e+000 -9.156832e-001
      vertex -6.650000e+000 -2.842966e+000 -9.135729e-001
      vertex -6.650000e+000 -2.777116e+000 -9.235746e-001
    endloop
  endfacet
  facet normal -1.000000e+000  -0.000000e+000  0.000000e+000
    outer loop
      vertex -6.650000e+000 -2.975955e+000 -9.156832e-001
      vertex -6.650000e+000 -2.777116e+000 -9.235746e-001
      vertex -6.650000e+000 -3.041455e+000 -9.277691e-001
    endloop
  endfacet
  facet normal -1.000000e+000  0.000000e+000  0.000000e+000
    outer loop
      vertex -6.650000e+000 -3.041455e+000 -9.277691e-001
      vertex -6.650000e+000 -2.777116e+000 -9.235746e-001
      vertex -6.650000e+000 -2.712780e+000 -9.408134e-001
    endloop
  endfacet
  facet normal -9.999999e-001  -0.000000e+000  0.000000e+000
    outer loop
      vertex -6.650000e+000 -3.041455e+000 -9.277691e-001
      vertex -6.650000e+000 -2.712780e+000 -9.408134e-001
      vertex -6.650000e+000 -3.105212e+000 -9.470405e-001
    endloop
  endfacet
  facet normal -1.000000e+000  0.000000e+000  0.000000e+000
    outer loop
      vertex -6.650000e+000 -3.105212e+000 -9.470405e-001
      vertex -6.650000e+000 -2.712780e+000 -9.408134e-001
      vertex -6.650000e+000 -2.650751e+000 -9.650769e-001
    endloop
  endfacet
  facet normal -1.000000e+000  -0.000000e+000  0.000000e+000
    outer loop
      vertex -6.650000e+000 -3.105212e+000 -9.470405e-001
      vertex -6.650000e+000 -2.650751e+000 -9.650769e-001
      vertex -6.650000e+000 -3.166440e+000 -9.732598e-001
    endloop
  endfacet
  facet normal -1.000000e+000  0.000000e+000  0.000000e+000
    outer loop
      vertex -6.650000e+000 -3.166440e+000 -9.732598e-001
      vertex -6.650000e+000 -2.650751e+000 -9.650769e-001
      vertex -6.650000e+000 -2.591794e+000 -9.960660e-001
    endloop
  endfacet
  facet normal -1.000000e+000  -0.000000e+000  0.000000e+000
    outer loop
      vertex -6.650000e+000 -3.166440e+000 -9.732598e-001
      vertex -6.650000e+000 -2.591794e+000 -9.960660e-001
      vertex -6.650000e+000 -3.224385e+000 -1.006104e+000
    endloop
  endfacet
  facet normal -1.000000e+000  0.000000e+000  0.000000e+000
    outer loop
      vertex -6.650000e+000 -3.224385e+000 -1.006104e+000
      vertex -6.650000e+000 -2.591794e+000 -9.960660e-001
      vertex -6.650000e+000 -2.536634e+000 -1.033399e+000
    endloop
  endfacet
  facet normal -1.000000e+000  -0.000000e+000  0.000000e+000
    outer loop
      vertex -6.650000e+000 -3.224385e+000 -1.006104e+000
      vertex -6.650000e+000 -2.536634e+000 -1.033399e+000
      vertex -6.650000e+000 -3.278332e+000 -1.045168e+000
    endloop
  endfacet
  facet normal -9.999999e-001  0.000000e+000  0.000000e+000
    outer loop
      vertex -6.650000e+000 -3.278332e+000 -1.045168e+000
      vertex -6.650000e+000 -2.536634e+000 -1.033399e+000
      vertex -6.650000e+000 -2.485953e+000 -1.076616e+000
    endloop
  endfacet
  facet normal -9.999999e-001  -0.000000e+000  0.000000e+000
    outer loop
      vertex -6.650000e+000 -3.278332e+000 -1.045168e+000
      vertex -6.650000e+000 -2.485953e+000 -1.076616e+000
      vertex -6.650000e+000 -3.327616e+000 -1.089971e+000
    endloop
  endfacet
  facet normal -9.999999e-001  0.000000e+000  0.000000e+000
    outer loop
      vertex -6.650000e+000 -3.327616e+000 -1.089971e+000
      vertex -6.650000e+000 -2.485953e+000 -1.076616e+000
      vertex -6.650000e+000 -2.440373e+000 -1.125183e+000
    endloop
  endfacet
  facet normal -1.000000e+000  -0.000000e+000  0.000000e+000
    outer loop
      vertex -6.650000e+000 -3.327616e+000 -1.089971e+000
      vertex -6.650000e+000 -2.440373e+000 -1.125183e+000
      vertex -6.650000e+000 -3.371632e+000 -1.139961e+000
    endloop
  endfacet
  facet normal  9.999999e-001  0.000000e+000  0.000000e+000
    outer loop
      vertex  6.650000e+000 -2.440373e+000 -1.125183e+000
      vertex  6.650000e+000 -2.485953e+000 -1.076616e+000
      vertex  6.650000e+000 -3.327616e+000 -1.089971e+000
    endloop
  endfacet
  facet normal  1.000000e+000  0.000000e+000  0.000000e+000
    outer loop
      vertex  6.650000e+000 -2.440373e+000 -1.125183e+000
      vertex  6.650000e+000 -3.327616e+000 -1.089971e+000
      vertex  6.650000e+000 -3.371632e+000 -1.139961e+000
    endloop
  endfacet
  facet normal  9.999999e-001  -0.000000e+000  0.000000e+000
    outer loop
      vertex  6.650000e+000 -2.440373e+000 -1.125183e+000
      vertex  6.650000e+000 -3.371632e+000 -1.139961e+000
      vertex  6.650000e+000 -3.409835e+000 -1.194521e+000
    endloop
  endfacet
  facet normal  1.000000e+000  -0.000000e+000  0.000000e+000
    outer loop
      vertex  6.650000e+000 -2.440373e+000 -1.125183e+000
      vertex  6.650000e+000 -3.409835e+000 -1.194521e+000
      vertex  6.650000e+000 -3.441756e+000 -1.252979e+000
    endloop
  endfacet
  facet normal  1.000000e+000  -0.000000e+000  0.000000e+000
    outer loop
      vertex  6.650000e+000 -2.440373e+000 -1.125183e+000
      vertex  6.650000e+000 -3.441756e+000 -1.252979e+000
      vertex  6.650000e+000 -3.467000e+000 -1.314615e+000
    endloop
  endfacet
  facet normal  9.999999e-001  -0.000000e+000  0.000000e+000
    outer loop
      vertex  6.650000e+000 -2.440373e+000 -1.125183e+000
      vertex  6.650000e+000 -3.467000e+000 -1.314615e+000
      vertex  6.650000e+000 -3.485258e+000 -1.378670e+000
    endloop
  endfacet
  facet normal  1.000000e+000  -0.000000e+000  0.000000e+000
    outer loop
      vertex  6.650000e+000 -2.440373e+000 -1.125183e+000
      vertex  6.650000e+000 -3.485258e+000 -1.378670e+000
      vertex  6.650000e+000 -3.496303e+000 -1.444353e+000
    endloop
  endfacet
  facet normal  1.000000e+000  -0.000000e+000  0.000000e+000
    outer loop
      vertex  6.650000e+000 -2.440373e+000 -1.125183e+000
      vertex  6.650000e+000 -3.496303e+000 -1.444353e+000
      vertex  6.650000e+000 -3.500000e+000 -1.510856e+000
    endloop
  endfacet
  facet normal  1.000000e+000  -0.000000e+000  0.000000e+000
    outer loop
      vertex  6.650000e+000 -2.440373e+000 -1.125183e+000
      vertex  6.650000e+000 -3.500000e+000 -1.510856e+000
      vertex  6.650000e+000 -3.500000e+000 -4.650000e+000
    endloop
  endfacet
  facet normal  1.000000e+000  0.000000e+000  0.000000e+000
    outer loop
      vertex  6.650000e+000 -2.440373e+000 -1.125183e+000
      vertex  6.650000e+000 -3.500000e+000 -4.650000e+000
      vertex  6.650000e+000 -2.000000e+000 -1.650000e+000
    endloop
  endfacet
  facet normal  1.000000e+000  0.000000e+000  0.000000e+000
    outer loop
      vertex  6.650000e+000 -2.909520e+000 -9.109316e-001
      vertex  6.650000e+000 -2.975955e+000 -9.156832e-001
      vertex  6.650000e+000 -2.842966e+000 -9.135729e-001
    endloop
  endfacet
  facet normal  9.999999e-001  0.000000e+000  0.000000e+000
    outer loop
      vertex  6.650000e+000 -2.842966e+000 -9.135729e-001
      vertex  6.650000e+000 -2.975955e+000 -9.156832e-001
      vertex  6.650000e+000 -3.041455e+000 -9.277691e-001
    endloop
  endfacet
  facet normal  1.000000e+000  0.000000e+000  0.000000e+000
    outer loop
      vertex  6.650000e+000 -2.842966e+000 -9.135729e-001
      vertex  6.650000e+000 -3.041455e+000 -9.277691e-001
      vertex  6.650000e+000 -2.777116e+000 -9.235746e-001
    endloop
  endfacet
  facet normal  1.000000e+000  0.000000e+000  0.000000e+000
    outer loop
      vertex  6.650000e+000 -2.777116e+000 -9.235746e-001
      vertex  6.650000e+000 -3.041455e+000 -9.277691e-001
      vertex  6.650000e+000 -3.105212e+000 -9.470405e-001
    endloop
  endfacet
  facet normal  9.999999e-001  0.000000e+000  0.000000e+000
    outer loop
      vertex  6.650000e+000 -2.777116e+000 -9.235746e-001
      vertex  6.650000e+000 -3.105212e+000 -9.470405e-001
      vertex  6.650000e+000 -2.712780e+000 -9.408134e-001
    endloop
  endfacet
  facet normal  1.000000e+000  0.000000e+000  0.000000e+000
    outer loop
      vertex  6.650000e+000 -2.712780e+000 -9.408134e-001
      vertex  6.650000e+000 -3.105212e+000 -9.470405e-001
      vertex  6.650000e+000 -3.166440e+000 -9.732598e-001
    endloop
  endfacet
  facet normal  1.000000e+000  0.000000e+000  0.000000e+000
    outer loop
      vertex  6.650000e+000 -2.712780e+000 -9.408134e-001
      vertex  6.650000e+000 -3.166440e+000 -9.732598e-001
      vertex  6.650000e+000 -2.650751e+000 -9.650769e-001
    endloop
  endfacet
  facet normal  1.000000e+000  0.000000e+000  0.000000e+000
    outer loop
      vertex  6.650000e+000 -2.650751e+000 -9.650769e-001
      vertex  6.650000e+000 -3.166440e+000 -9.732598e-001
      vertex  6.650000e+000 -3.224385e+000 -1.006104e+000
    endloop
  endfacet
  facet normal  1.000000e+000  0.000000e+000  0.000000e+000
    outer loop
      vertex  6.650000e+000 -2.650751e+000 -9.650769e-001
      vertex  6.650000e+000 -3.224385e+000 -1.006104e+000
      vertex  6.650000e+000 -2.591794e+000 -9.960660e-001
    endloop
  endfacet
  facet normal  1.000000e+000  0.000000e+000  0.000000e+000
    outer loop
      vertex  6.650000e+000 -2.591794e+000 -9.960660e-001
      vertex  6.650000e+000 -3.224385e+000 -1.006104e+000
      vertex  6.650000e+000 -3.278332e+000 -1.045168e+000
    endloop
  endfacet
  facet normal  1.000000e+000  0.000000e+000  0.000000e+000
    outer loop
      vertex  6.650000e+000 -2.591794e+000 -9.960660e-001
      vertex  6.650000e+000 -3.278332e+000 -1.045168e+000
      vertex  6.650000e+000 -2.536634e+000 -1.033399e+000
    endloop
  endfacet
  facet normal  1.000000e+000  0.000000e+000  0.000000e+000
    outer loop
      vertex  6.650000e+000 -2.536634e+000 -1.033399e+000
      vertex  6.650000e+000 -3.278332e+000 -1.045168e+000
      vertex  6.650000e+000 -3.327616e+000 -1.089971e+000
    endloop
  endfacet
  facet normal  1.000000e+000  0.000000e+000  0.000000e+000
    outer loop
      vertex  6.650000e+000 -2.536634e+000 -1.033399e+000
      vertex  6.650000e+000 -3.327616e+000 -1.089971e+000
      vertex  6.650000e+000 -2.485953e+000 -1.076616e+000
    endloop
  endfacet
  facet normal  1.000000e+000  0.000000e+000  0.000000e+000
    outer loop
      vertex  6.650000e+000 -3.500000e+000 -4.650000e+000
      vertex  6.650000e+000  0.000000e+000 -4.650000e+000
      vertex  6.650000e+000 -2.000000e+000 -1.650000e+000
    endloop
  endfacet
  facet normal  1.000000e+000  -0.000000e+000  0.000000e+000
    outer loop
      vertex  6.650000e+000 -2.000000e+000 -1.650000e+000
      vertex  6.650000e+000  0.000000e+000 -4.650000e+000
      vertex  6.650000e+000 -1.000000e+000 -1.650000e+000
    endloop
  endfacet
  facet normal  9.999999e-001  0.000000e+000  0.000000e+000
    outer loop
      vertex  6.650000e+000  0.000000e+000 -4.650000e+000
      vertex  6.650000e+000  0.000000e+000  4.650000e+000
      vertex  6.650000e+000 -1.000000e+000 -1.650000e+000
    endloop
  endfacet
  facet normal  1.000000e+000  0.000000e+000  0.000000e+000
    outer loop
      vertex  6.650000e+000 -1.000000e+000 -1.650000e+000
      vertex  6.650000e+000  0.000000e+000  4.650000e+000
      vertex  6.650000e+000 -1.000000e+000  4.650000e+000
    endloop
  endfacet
  facet normal  0.000000e+000  0.000000e+000 -1.000000e+000
    outer loop
      vertex  6.650000e+000 -3.500000e+000 -4.650000e+000
      vertex -6.650000e+000 -3.500000e+000 -4.650000e+000
      vertex  6.650000e+000  0.000000e+000 -4.650000e+000
    endloop
  endfacet
  facet normal  -0.000000e+000  0.000000e+000 -1.000000e+000
    outer loop
      vertex  6.650000e+000  0.000000e+000 -4.650000e+000
      vertex -6.650000e+000 -3.500000e+000 -4.650000e+000
      vertex -6.650000e+000  0.000000e+000 -4.650000e+000
    endloop
  endfacet
  facet normal  0.000000e+000 -9.999999e-001  0.000000e+000
    outer loop
      vertex -6.650000e+000 -1.000000e+000 -1.650000e+000
      vertex  6.650000e+000 -1.000000e+000 -1.650000e+000
      vertex  5.771820e+000 -1.000000e+000 -1.614498e+000
    endloop
  endfacet
  facet normal  -0.000000e+000 -1.000000e+000  0.000000e+000
    outer loop
      vertex -6.650000e+000 -1.000000e+000 -1.650000e+000
      vertex  5.771820e+000 -1.000000e+000 -1.614498e+000
      vertex  2.271820e+000 -1.000000e+000 -1.614498e+000
    endloop
  endfacet
  facet normal  -0.000000e+000 -1.000000e+000  0.000000e+000
    outer loop
      vertex -6.650000e+000 -1.000000e+000 -1.650000e+000
      vertex  2.271820e+000 -1.000000e+000 -1.614498e+000
      vertex  1.750000e+000 -1.000000e+000 -1.614498e+000
    endloop
  endfacet
  facet normal  -0.000000e+000 -1.000000e+000  0.000000e+000
    outer loop
      vertex -6.650000e+000 -1.000000e+000 -1.650000e+000
      vertex  1.750000e+000 -1.000000e+000 -1.614498e+000
      vertex -1.750000e+000 -1.000000e+000 -1.614498e+000
    endloop
  endfacet
  facet normal  -0.000000e+000 -1.000000e+000  0.000000e+000
    outer loop
      vertex -6.650000e+000 -1.000000e+000 -1.650000e+000
      vertex -1.750000e+000 -1.000000e+000 -1.614498e+000
      vertex -2.271820e+000 -1.000000e+000 -1.614498e+000
    endloop
  endfacet
  facet normal  -0.000000e+000 -1.000000e+000  0.000000e+000
    outer loop
      vertex -6.650000e+000 -1.000000e+000 -1.650000e+000
      vertex -2.271820e+000 -1.000000e+000 -1.614498e+000
      vertex -5.771820e+000 -1.000000e+000 -1.614498e+000
    endloop
  endfacet
  facet normal  -0.000000e+000 -9.999999e-001  0.000000e+000
    outer loop
      vertex -6.650000e+000 -1.000000e+000 -1.650000e+000
      vertex -5.771820e+000 -1.000000e+000 -1.614498e+000
      vertex -5.771820e+000 -1.000000e+000  1.614498e+000
    endloop
  endfacet
  facet normal  -0.000000e+000 -1.000000e+000  0.000000e+000
    outer loop
      vertex -6.650000e+000 -1.000000e+000 -1.650000e+000
      vertex -5.771820e+000 -1.000000e+000  1.614498e+000
      vertex -6.650000e+000 -1.000000e+000  4.650000e+000
    endloop
  endfacet
  facet normal  0.000000e+000 -1.000000e+000  0.000000e+000
    outer loop
      vertex -6.650000e+000 -1.000000e+000  4.650000e+000
      vertex -5.771820e+000 -1.000000e+000  1.614498e+000
      vertex -2.271820e+000 -1.000000e+000  1.614498e+000
    endloop
  endfacet
  facet normal  0.000000e+000 -1.000000e+000  0.000000e+000
    outer loop
      vertex -6.650000e+000 -1.000000e+000  4.650000e+000
      vertex -2.271820e+000 -1.000000e+000  1.614498e+000
      vertex -1.750000e+000 -1.000000e+000  1.614498e+000
    endloop
  endfacet
  facet normal  0.000000e+000 -1.000000e+000  0.000000e+000
    outer loop
      vertex -6.650000e+000 -1.000000e+000  4.650000e+000
      vertex -1.750000e+000 -1.000000e+000  1.614498e+000
      vertex  1.750000e+000 -1.000000e+000  1.614498e+000
    endloop
  endfacet
  facet normal  0.000000e+000 -1.000000e+000  0.000000e+000
    outer loop
      vertex -6.650000e+000 -1.000000e+000  4.650000e+000
      vertex  1.750000e+000 -1.000000e+000  1.614498e+000
      vertex  2.271820e+000 -1.000000e+000  1.614498e+000
    endloop
  endfacet
  facet normal  0.000000e+000 -1.000000e+000  0.000000e+000
    outer loop
      vertex -6.650000e+000 -1.000000e+000  4.650000e+000
      vertex  2.271820e+000 -1.000000e+000  1.614498e+000
      vertex  5.771820e+000 -1.000000e+000  1.614498e+000
    endloop
  endfacet
  facet normal  0.000000e+000 -1.000000e+000  0.000000e+000
    outer loop
      vertex -6.650000e+000 -1.000000e+000  4.650000e+000
      vertex  5.771820e+000 -1.000000e+000  1.614498e+000
      vertex  6.650000e+000 -1.000000e+000  4.650000e+000
    endloop
  endfacet
  facet normal  0.000000e+000 -1.000000e+000  0.000000e+000
    outer loop
      vertex -2.271820e+000 -1.000000e+000 -1.614498e+000
      vertex -1.750000e+000 -1.000000e+000 -1.614498e+000
      vertex -2.271820e+000 -1.000000e+000  1.614498e+000
    endloop
  endfacet
  facet normal  0.000000e+000 -1.000000e+000  0.000000e+000
    outer loop
      vertex -2.271820e+000 -1.000000e+000  1.614498e+000
      vertex -1.750000e+000 -1.000000e+000 -1.614498e+000
      vertex -1.750000e+000 -1.000000e+000  1.614498e+000
    endloop
  endfacet
  facet normal  0.000000e+000 -1.000000e+000  0.000000e+000
    outer loop
      vertex  1.750000e+000 -1.000000e+000 -1.614498e+000
      vertex  2.271820e+000 -1.000000e+000 -1.614498e+000
      vertex  1.750000e+000 -1.000000e+000  1.614498e+000
    endloop
  endfacet
  facet normal  0.000000e+000 -1.000000e+000  0.000000e+000
    outer loop
      vertex  1.750000e+000 -1.000000e+000  1.614498e+000
      vertex  2.271820e+000 -1.000000e+000 -1.614498e+000
      vertex  2.271820e+000 -1.000000e+000  1.614498e+000
    endloop
  endfacet
  facet normal  0.000000e+000 -9.999999e-001  0.000000e+000
    outer loop
      vertex  5.771820e+000 -1.000000e+000  1.614498e+000
      vertex  5.771820e+000 -1.000000e+000 -1.614498e+000
      vertex  6.650000e+000 -1.000000e+000  4.650000e+000
    endloop
  endfacet
  facet normal  0.000000e+000 -1.000000e+000  -0.000000e+000
    outer loop
      vertex  6.650000e+000 -1.000000e+000  4.650000e+000
      vertex  5.771820e+000 -1.000000e+000 -1.614498e+000
      vertex  6.650000e+000 -1.000000e+000 -1.650000e+000
    endloop
  endfacet
  facet normal  0.000000e+000  0.000000e+000  9.999999e-001
    outer loop
      vertex -6.650000e+000 -2.000000e+000 -1.650000e+000
      vertex  6.650000e+000 -2.000000e+000 -1.650000e+000
      vertex -6.650000e+000 -1.000000e+000 -1.650000e+000
    endloop
  endfacet
  facet normal  -0.000000e+000  0.000000e+000  9.999999e-001
    outer loop
      vertex -6.650000e+000 -1.000000e+000 -1.650000e+000
      vertex  6.650000e+000 -2.000000e+000 -1.650000e+000
      vertex  6.650000e+000 -1.000000e+000 -1.650000e+000
    endloop
  endfacet
  facet normal  0.000000e+000  7.660444e-001  6.427877e-001
    outer loop
      vertex -6.650000e+000 -2.440373e+000 -1.125183e+000
      vertex  6.650000e+000 -2.440373e+000 -1.125183e+000
      vertex -6.650000e+000 -2.000000e+000 -1.650000e+000
    endloop
  endfacet
  facet normal  -0.000000e+000  7.660444e-001  6.427877e-001
    outer loop
      vertex -6.650000e+000 -2.000000e+000 -1.650000e+000
      vertex  6.650000e+000 -2.440373e+000 -1.125183e+000
      vertex  6.650000e+000 -2.000000e+000 -1.650000e+000
    endloop
  endfacet
  facet normal  0.000000e+000 -9.984584e-001  5.550461e-002
    outer loop
      vertex -6.650000e+000 -3.500000e+000 -1.510856e+000
      vertex  6.650000e+000 -3.500000e+000 -1.510856e+000
      vertex -6.650000e+000 -3.496303e+000 -1.444353e+000
    endloop
  endfacet
  facet normal  0.000000e+000 -9.984584e-001  5.550461e-002
    outer loop
      vertex -6.650000e+000 -3.496303e+000 -1.444353e+000
      vertex  6.650000e+000 -3.500000e+000 -1.510856e+000
      vertex  6.650000e+000 -3.496303e+000 -1.444353e+000
    endloop
  endfacet
  facet normal  0.000000e+000 -9.861543e-001  1.658303e-001
    outer loop
      vertex -6.650000e+000 -3.496303e+000 -1.444353e+000
      vertex  6.650000e+000 -3.496303e+000 -1.444353e+000
      vertex -6.650000e+000 -3.485258e+000 -1.378670e+000
    endloop
  endfacet
  facet normal  0.000000e+000 -9.861543e-001  1.658303e-001
    outer loop
      vertex -6.650000e+000 -3.485258e+000 -1.378670e+000
      vertex  6.650000e+000 -3.496303e+000 -1.444353e+000
      vertex  6.650000e+000 -3.485258e+000 -1.378670e+000
    endloop
  endfacet
  facet normal  0.000000e+000 -9.616978e-001  2.741117e-001
    outer loop
      vertex -6.650000e+000 -3.485258e+000 -1.378670e+000
      vertex  6.650000e+000 -3.485258e+000 -1.378670e+000
      vertex -6.650000e+000 -3.467000e+000 -1.314615e+000
    endloop
  endfacet
  facet normal  0.000000e+000 -9.616978e-001  2.741117e-001
    outer loop
      vertex -6.650000e+000 -3.467000e+000 -1.314615e+000
      vertex  6.650000e+000 -3.485258e+000 -1.378670e+000
      vertex  6.650000e+000 -3.467000e+000 -1.314615e+000
    endloop
  endfacet
  facet normal  0.000000e+000 -9.253906e-001  3.790149e-001
    outer loop
      vertex -6.650000e+000 -3.467000e+000 -1.314615e+000
      vertex  6.650000e+000 -3.467000e+000 -1.314615e+000
      vertex -6.650000e+000 -3.441756e+000 -1.252979e+000
    endloop
  endfacet
  facet normal  0.000000e+000 -9.253906e-001  3.790149e-001
    outer loop
      vertex -6.650000e+000 -3.441756e+000 -1.252979e+000
      vertex  6.650000e+000 -3.467000e+000 -1.314615e+000
      vertex  6.650000e+000 -3.441756e+000 -1.252979e+000
    endloop
  endfacet
  facet normal  0.000000e+000 -8.776789e-001  4.792491e-001
    outer loop
      vertex -6.650000e+000 -3.441756e+000 -1.252979e+000
      vertex  6.650000e+000 -3.441756e+000 -1.252979e+000
      vertex -6.650000e+000 -3.409835e+000 -1.194521e+000
    endloop
  endfacet
  facet normal  0.000000e+000 -8.776789e-001  4.792491e-001
    outer loop
      vertex -6.650000e+000 -3.409835e+000 -1.194521e+000
      vertex  6.650000e+000 -3.441756e+000 -1.252979e+000
      vertex  6.650000e+000 -3.409835e+000 -1.194521e+000
    endloop
  endfacet
  facet normal  0.000000e+000 -8.191518e-001  5.735767e-001
    outer loop
      vertex -6.650000e+000 -3.409835e+000 -1.194521e+000
      vertex  6.650000e+000 -3.409835e+000 -1.194521e+000
      vertex -6.650000e+000 -3.371632e+000 -1.139961e+000
    endloop
  endfacet
  facet normal  0.000000e+000 -8.191518e-001  5.735767e-001
    outer loop
      vertex -6.650000e+000 -3.371632e+000 -1.139961e+000
      vertex  6.650000e+000 -3.409835e+000 -1.194521e+000
      vertex  6.650000e+000 -3.371632e+000 -1.139961e+000
    endloop
  endfacet
  facet normal  0.000000e+000 -7.505297e-001  6.608367e-001
    outer loop
      vertex -6.650000e+000 -3.371632e+000 -1.139961e+000
      vertex  6.650000e+000 -3.371632e+000 -1.139961e+000
      vertex -6.650000e+000 -3.327616e+000 -1.089971e+000
    endloop
  endfacet
  facet normal  0.000000e+000 -7.505297e-001  6.608367e-001
    outer loop
      vertex -6.650000e+000 -3.327616e+000 -1.089971e+000
      vertex  6.650000e+000 -3.371632e+000 -1.139961e+000
      vertex  6.650000e+000 -3.327616e+000 -1.089971e+000
    endloop
  endfacet
  facet normal  0.000000e+000 -6.726608e-001  7.399510e-001
    outer loop
      vertex -6.650000e+000 -3.327616e+000 -1.089971e+000
      vertex  6.650000e+000 -3.327616e+000 -1.089971e+000
      vertex -6.650000e+000 -3.278332e+000 -1.045168e+000
    endloop
  endfacet
  facet normal  0.000000e+000 -6.726608e-001  7.399510e-001
    outer loop
      vertex -6.650000e+000 -3.278332e+000 -1.045168e+000
      vertex  6.650000e+000 -3.327616e+000 -1.089971e+000
      vertex  6.650000e+000 -3.278332e+000 -1.045168e+000
    endloop
  endfacet
  facet normal  0.000000e+000 -5.865012e-001  8.099484e-001
    outer loop
      vertex -6.650000e+000 -3.278332e+000 -1.045168e+000
      vertex  6.650000e+000 -3.278332e+000 -1.045168e+000
      vertex -6.650000e+000 -3.224385e+000 -1.006104e+000
    endloop
  endfacet
  facet normal  0.000000e+000 -5.865012e-001  8.099484e-001
    outer loop
      vertex -6.650000e+000 -3.224385e+000 -1.006104e+000
      vertex  6.650000e+000 -3.278332e+000 -1.045168e+000
      vertex  6.650000e+000 -3.224385e+000 -1.006104e+000
    endloop
  endfacet
  facet normal  0.000000e+000 -4.931143e-001  8.699646e-001
    outer loop
      vertex -6.650000e+000 -3.224385e+000 -1.006104e+000
      vertex  6.650000e+000 -3.224385e+000 -1.006104e+000
      vertex -6.650000e+000 -3.166440e+000 -9.732598e-001
    endloop
  endfacet
  facet normal  0.000000e+000 -4.931143e-001  8.699646e-001
    outer loop
      vertex -6.650000e+000 -3.166440e+000 -9.732598e-001
      vertex  6.650000e+000 -3.224385e+000 -1.006104e+000
      vertex  6.650000e+000 -3.166440e+000 -9.732598e-001
    endloop
  endfacet
  facet normal  0.000000e+000 -3.936494e-001  9.192607e-001
    outer loop
      vertex -6.650000e+000 -3.166440e+000 -9.732598e-001
      vertex  6.650000e+000 -3.166440e+000 -9.732598e-001
      vertex -6.650000e+000 -3.105212e+000 -9.470405e-001
    endloop
  endfacet
  facet normal  0.000000e+000 -3.936494e-001  9.192607e-001
    outer loop
      vertex -6.650000e+000 -3.105212e+000 -9.470405e-001
      vertex  6.650000e+000 -3.166440e+000 -9.732598e-001
      vertex  6.650000e+000 -3.105212e+000 -9.470405e-001
    endloop
  endfacet
  facet normal  0.000000e+000 -2.893357e-001  9.572276e-001
    outer loop
      vertex -6.650000e+000 -3.105212e+000 -9.470405e-001
      vertex  6.650000e+000 -3.105212e+000 -9.470405e-001
      vertex -6.650000e+000 -3.041455e+000 -9.277691e-001
    endloop
  endfacet
  facet normal  0.000000e+000 -2.893357e-001  9.572276e-001
    outer loop
      vertex -6.650000e+000 -3.041455e+000 -9.277691e-001
      vertex  6.650000e+000 -3.105212e+000 -9.470405e-001
      vertex  6.650000e+000 -3.041455e+000 -9.277691e-001
    endloop
  endfacet
  facet normal  0.000000e+000 -1.814561e-001  9.833990e-001
    outer loop
      vertex -6.650000e+000 -3.041455e+000 -9.277691e-001
      vertex  6.650000e+000 -3.041455e+000 -9.277691e-001
      vertex -6.650000e+000 -2.975955e+000 -9.156832e-001
    endloop
  endfacet
  facet normal  0.000000e+000 -1.814561e-001  9.833990e-001
    outer loop
      vertex -6.650000e+000 -2.975955e+000 -9.156832e-001
      vertex  6.650000e+000 -3.041455e+000 -9.277691e-001
      vertex  6.650000e+000 -2.975955e+000 -9.156832e-001
    endloop
  endfacet
  facet normal  0.000000e+000 -7.133888e-002  9.974521e-001
    outer loop
      vertex -6.650000e+000 -2.975955e+000 -9.156832e-001
      vertex  6.650000e+000 -2.975955e+000 -9.156832e-001
      vertex -6.650000e+000 -2.909520e+000 -9.109316e-001
    endloop
  endfacet
  facet normal  0.000000e+000 -7.133888e-002  9.974521e-001
    outer loop
      vertex -6.650000e+000 -2.909520e+000 -9.109316e-001
      vertex  6.650000e+000 -2.975955e+000 -9.156832e-001
      vertex  6.650000e+000 -2.909520e+000 -9.109316e-001
    endloop
  endfacet
  facet normal  0.000000e+000  3.965604e-002  9.992133e-001
    outer loop
      vertex -6.650000e+000 -2.909520e+000 -9.109316e-001
      vertex  6.650000e+000 -2.909520e+000 -9.109316e-001
      vertex -6.650000e+000 -2.842966e+000 -9.135729e-001
    endloop
  endfacet
  facet normal  -0.000000e+000  3.965604e-002  9.992133e-001
    outer loop
      vertex -6.650000e+000 -2.842966e+000 -9.135729e-001
      vertex  6.650000e+000 -2.909520e+000 -9.109316e-001
      vertex  6.650000e+000 -2.842966e+000 -9.135729e-001
    endloop
  endfacet
  facet normal  0.000000e+000  1.501627e-001  9.886612e-001
    outer loop
      vertex -6.650000e+000 -2.842966e+000 -9.135729e-001
      vertex  6.650000e+000 -2.842966e+000 -9.135729e-001
      vertex -6.650000e+000 -2.777116e+000 -9.235746e-001
    endloop
  endfacet
  facet normal  -0.000000e+000  1.501627e-001  9.886612e-001
    outer loop
      vertex -6.650000e+000 -2.777116e+000 -9.235746e-001
      vertex  6.650000e+000 -2.842966e+000 -9.135729e-001
      vertex  6.650000e+000 -2.777116e+000 -9.235746e-001
    endloop
  endfacet
  facet normal  0.000000e+000  2.588190e-001  9.659258e-001
    outer loop
      vertex -6.650000e+000 -2.777116e+000 -9.235746e-001
      vertex  6.650000e+000 -2.777116e+000 -9.235746e-001
      vertex -6.650000e+000 -2.712780e+000 -9.408134e-001
    endloop
  endfacet
  facet normal  -0.000000e+000  2.588190e-001  9.659258e-001
    outer loop
      vertex -6.650000e+000 -2.712780e+000 -9.408134e-001
      vertex  6.650000e+000 -2.777116e+000 -9.235746e-001
      vertex  6.650000e+000 -2.712780e+000 -9.408134e-001
    endloop
  endfacet
  facet normal  0.000000e+000  3.642853e-001  9.312875e-001
    outer loop
      vertex -6.650000e+000 -2.712780e+000 -9.408134e-001
      vertex  6.650000e+000 -2.712780e+000 -9.408134e-001
      vertex -6.650000e+000 -2.650751e+000 -9.650769e-001
    endloop
  endfacet
  facet normal  -0.000000e+000  3.642853e-001  9.312875e-001
    outer loop
      vertex -6.650000e+000 -2.650751e+000 -9.650769e-001
      vertex  6.650000e+000 -2.712780e+000 -9.408134e-001
      vertex  6.650000e+000 -2.650751e+000 -9.650769e-001
    endloop
  endfacet
  facet normal  0.000000e+000  4.652642e-001  8.851718e-001
    outer loop
      vertex -6.650000e+000 -2.650751e+000 -9.650769e-001
      vertex  6.650000e+000 -2.650751e+000 -9.650769e-001
      vertex -6.650000e+000 -2.591794e+000 -9.960660e-001
    endloop
  endfacet
  facet normal  -0.000000e+000  4.652642e-001  8.851718e-001
    outer loop
      vertex -6.650000e+000 -2.591794e+000 -9.960660e-001
      vertex  6.650000e+000 -2.650751e+000 -9.650769e-001
      vertex  6.650000e+000 -2.591794e+000 -9.960660e-001
    endloop
  endfacet
  facet normal  0.000000e+000  5.605080e-001  8.281490e-001
    outer loop
      vertex -6.650000e+000 -2.591794e+000 -9.960660e-001
      vertex  6.650000e+000 -2.591794e+000 -9.960660e-001
      vertex -6.650000e+000 -2.536634e+000 -1.033399e+000
    endloop
  endfacet
  facet normal  -0.000000e+000  5.605080e-001  8.281490e-001
    outer loop
      vertex -6.650000e+000 -2.536634e+000 -1.033399e+000
      vertex  6.650000e+000 -2.591794e+000 -9.960660e-001
      vertex  6.650000e+000 -2.536634e+000 -1.033399e+000
    endloop
  endfacet
  facet normal  0.000000e+000  6.488448e-001  7.609208e-001
    outer loop
      vertex -6.650000e+000 -2.536634e+000 -1.033399e+000
      vertex  6.650000e+000 -2.536634e+000 -1.033399e+000
      vertex -6.650000e+000 -2.485953e+000 -1.076616e+000
    endloop
  endfacet
  facet normal  -0.000000e+000  6.488448e-001  7.609208e-001
    outer loop
      vertex -6.650000e+000 -2.485953e+000 -1.076616e+000
      vertex  6.650000e+000 -2.536634e+000 -1.033399e+000
      vertex  6.650000e+000 -2.485953e+000 -1.076616e+000
    endloop
  endfacet
  facet normal  0.000000e+000  7.291857e-001  6.843159e-001
    outer loop
      vertex -6.650000e+000 -2.485953e+000 -1.076616e+000
      vertex  6.650000e+000 -2.485953e+000 -1.076616e+000
      vertex -6.650000e+000 -2.440373e+000 -1.125183e+000
    endloop
  endfacet
  facet normal  -0.000000e+000  7.291857e-001  6.843159e-001
    outer loop
      vertex -6.650000e+000 -2.440373e+000 -1.125183e+000
      vertex  6.650000e+000 -2.485953e+000 -1.076616e+000
      vertex  6.650000e+000 -2.440373e+000 -1.125183e+000
    endloop
  endfacet
  facet normal  0.000000e+000  0.000000e+000 -1.000000e+000
    outer loop
      vertex -5.771820e+000 -1.000000e+000  1.614498e+000
      vertex -5.771820e+000  0.000000e+000  1.614498e+000
      vertex -2.271820e+000 -1.000000e+000  1.614498e+000
    endloop
  endfacet
  facet normal  0.000000e+000  0.000000e+000 -1.000000e+000
    outer loop
      vertex -2.271820e+000 -1.000000e+000  1.614498e+000
      vertex -5.771820e+000  0.000000e+000  1.614498e+000
      vertex -2.271820e+000  0.000000e+000  1.614498e+000
    endloop
  endfacet
  facet normal  1.000000e+000  0.000000e+000  0.000000e+000
    outer loop
      vertex -5.771820e+000 -1.000000e+000 -1.614498e+000
      vertex -5.771820e+000  0.000000e+000 -1.614498e+000
      vertex -5.771820e+000 -1.000000e+000  1.614498e+000
    endloop
  endfacet
  facet normal  1.000000e+000  -0.000000e+000  0.000000e+000
    outer loop
      vertex -5.771820e+000 -1.000000e+000  1.614498e+000
      vertex -5.771820e+000  0.000000e+000 -1.614498e+000
      vertex -5.771820e+000  0.000000e+000  1.614498e+000
    endloop
  endfacet
  facet normal  0.000000e+000  0.000000e+000  1.000000e+000
    outer loop
      vertex -2.271820e+000 -1.000000e+000 -1.614498e+000
      vertex -2.271820e+000  0.000000e+000 -1.614498e+000
      vertex -5.771820e+000 -1.000000e+000 -1.614498e+000
    endloop
  endfacet
  facet normal  0.000000e+000  0.000000e+000  1.000000e+000
    outer loop
      vertex -5.771820e+000 -1.000000e+000 -1.614498e+000
      vertex -2.271820e+000  0.000000e+000 -1.614498e+000
      vertex -5.771820e+000  0.000000e+000 -1.614498e+000
    endloop
  endfacet
  facet normal -1.000000e+000  -0.000000e+000  0.000000e+000
    outer loop
      vertex -2.271820e+000 -1.000000e+000  1.614498e+000
      vertex -2.271820e+000  0.000000e+000  1.614498e+000
      vertex -2.271820e+000 -1.000000e+000 -1.614498e+000
    endloop
  endfacet
  facet normal -1.000000e+000  0.000000e+000  0.000000e+000
    outer loop
      vertex -2.271820e+000 -1.000000e+000 -1.614498e+000
      vertex -2.271820e+000  0.000000e+000  1.614498e+000
      vertex -2.271820e+000  0.000000e+000 -1.614498e+000
    endloop
  endfacet
  facet normal  1.000000e+000  0.000000e+000  0.000000e+000
    outer loop
      vertex  2.271820e+000 -1.000000e+000  1.614498e+000
      vertex  2.271820e+000 -1.000000e+000 -1.614498e+000
      vertex  2.271820e+000  0.000000e+000  1.614498e+000
    endloop
  endfacet
  facet normal  1.000000e+000  0.000000e+000  0.000000e+000
    outer loop
      vertex  2.271820e+000  0.000000e+000  1.614498e+000
      vertex  2.271820e+000 -1.000000e+000 -1.614498e+000
      vertex  2.271820e+000  0.000000e+000 -1.614498e+000
    endloop
  endfacet
  facet normal  0.000000e+000  0.000000e+000  1.000000e+000
    outer loop
      vertex  5.771820e+000 -1.000000e+000 -1.614498e+000
      vertex  5.771820e+000  0.000000e+000 -1.614498e+000
      vertex  2.271820e+000 -1.000000e+000 -1.614498e+000
    endloop
  endfacet
  facet normal  0.000000e+000  0.000000e+000  1.000000e+000
    outer loop
      vertex  2.271820e+000 -1.000000e+000 -1.614498e+000
      vertex  5.771820e+000  0.000000e+000 -1.614498e+000
      vertex  2.271820e+000  0.000000e+000 -1.614498e+000
    endloop
  endfacet
  facet normal -1.000000e+000  0.000000e+000  0.000000e+000
    outer loop
      vertex  5.771820e+000 -1.000000e+000 -1.614498e+000
      vertex  5.771820e+000 -1.000000e+000  1.614498e+000
      vertex  5.771820e+000  0.000000e+000 -1.614498e+000
    endloop
  endfacet
  facet normal -1.000000e+000  0.000000e+000  0.000000e+000
    outer loop
      vertex  5.771820e+000  0.000000e+000 -1.614498e+000
      vertex  5.771820e+000 -1.000000e+000  1.614498e+000
      vertex  5.771820e+000  0.000000e+000  1.614498e+000
    endloop
  endfacet
  facet normal  0.000000e+000  0.000000e+000 -1.000000e+000
    outer loop
      vertex  2.271820e+000 -1.000000e+000  1.614498e+000
      vertex  2.271820e+000  0.000000e+000  1.614498e+000
      vertex  5.771820e+000 -1.000000e+000  1.614498e+000
    endloop
  endfacet
  facet normal  0.000000e+000  0.000000e+000 -1.000000e+000
    outer loop
      vertex  5.771820e+000 -1.000000e+000  1.614498e+000
      vertex  2.271820e+000  0.000000e+000  1.614498e+000
      vertex  5.771820e+000  0.000000e+000  1.614498e+000
    endloop
  endfacet
  facet normal  0.000000e+000  0.000000e+000 -1.000000e+000
    outer loop
      vertex -1.750000e+000 -1.000000e+000  1.614498e+000
      vertex -1.750000e+000  0.000000e+000  1.614498e+000
      vertex  1.750000e+000 -1.000000e+000  1.614498e+000
    endloop
  endfacet
  facet normal  0.000000e+000  0.000000e+000 -1.000000e+000
    outer loop
      vertex  1.750000e+000 -1.000000e+000  1.614498e+000
      vertex -1.750000e+000  0.000000e+000  1.614498e+000
      vertex  1.750000e+000  0.000000e+000  1.614498e+000
    endloop
  endfacet
  facet normal  1.000000e+000  0.000000e+000  0.000000e+000
    outer loop
      vertex -1.750000e+000 -1.000000e+000 -1.614498e+000
      vertex -1.750000e+000  0.000000e+000 -1.614498e+000
      vertex -1.750000e+000 -1.000000e+000  1.614498e+000
    endloop
  endfacet
  facet normal  1.000000e+000  -0.000000e+000  0.000000e+000
    outer loop
      vertex -1.750000e+000 -1.000000e+000  1.614498e+000
      vertex -1.750000e+000  0.000000e+000 -1.614498e+000
      vertex -1.750000e+000  0.000000e+000  1.614498e+000
    endloop
  endfacet
  facet normal  0.000000e+000  0.000000e+000  1.000000e+000
    outer loop
      vertex  1.750000e+000 -1.000000e+000 -1.614498e+000
      vertex  1.750000e+000  0.000000e+000 -1.614498e+000
      vertex -1.750000e+000 -1.000000e+000 -1.614498e+000
    endloop
  endfacet
  facet normal  0.000000e+000  0.000000e+000  1.000000e+000
    outer loop
      vertex -1.750000e+000 -1.000000e+000 -1.614498e+000
      vertex  1.750000e+000  0.000000e+000 -1.614498e+000
      vertex -1.750000e+000  0.000000e+000 -1.614498e+000
    endloop
  endfacet
  facet normal -1.000000e+000  -0.000000e+000  0.000000e+000
    outer loop
      vertex  1.750000e+000 -1.000000e+000  1.614498e+000
      vertex  1.750000e+000  0.000000e+000  1.614498e+000
      vertex  1.750000e+000 -1.000000e+000 -1.614498e+000
    endloop
  endfacet
  facet normal -1.000000e+000  0.000000e+000  0.000000e+000
    outer loop
      vertex  1.750000e+000 -1.000000e+000 -1.614498e+000
      vertex  1.750000e+000  0.000000e+000  1.614498e+000
      vertex  1.750000e+000  0.000000e+000 -1.614498e+000
    endloop
  endfacet
  facet normal  0.000000e+000  0.000000e+000  9.999999e-001
    outer loop
      vertex -6.650000e+000 -1.000000e+000  4.650000e+000
      vertex  6.650000e+000 -1.000000e+000  4.650000e+000
      vertex -6.650000e+000  0.000000e+000  4.650000e+000
    endloop
  endfacet
  facet normal  -0.000000e+000  0.000000e+000  9.999999e-001
    outer loop
      vertex -6.650000e+000  0.000000e+000  4.650000e+000
      vertex  6.650000e+000 -1.000000e+000  4.650000e+000
      vertex  6.650000e+000  0.000000e+000  4.650000e+000
    endloop
  endfacet
endsolid CATIA STL
