  0
SECTION
  2
HEADER
  9
$ACADVER
  1
AC1006
  9
$EXTMIN
 10
0.000000
 20
0.000000
 30
0.000000
  9
$EXTMAX
 10
532.000000
 20
543.000000
 30
0.000000
  0
ENDSEC
  0
SECTION
  2
ENTITIES
  0
POLYLINE
  8
0
 66
1
 70
1
  0
VERTEX
  8
0
 10
0.000000
 20
271.500000
 42
0.000000
  0
VERTEX
  8
0
 10
0.000000
 20
0.000000
 42
0.000000
  0
VERTEX
  8
0
 10
266.000000
 20
0.000000
 42
0.000000
  0
VERTEX
  8
0
 10
532.000000
 20
0.000000
 42
0.000000
  0
VERTEX
  8
0
 10
532.000000
 20
271.500000
 42
0.000000
  0
VERTEX
  8
0
 10
532.000000
 20
543.000000
 42
0.000000
  0
VERTEX
  8
0
 10
266.000000
 20
543.000000
 42
0.000000
  0
VERTEX
  8
0
 10
0.000000
 20
543.000000
 42
0.000000
  0
SEQEND
  0
POLYLINE
  8
0
 66
1
 70
1
  0
VERTEX
  8
0
 10
76.545455
 20
489.545455
 42
-0.020418
  0
VERTEX
  8
0
 10
77.485144
 20
488.525716
 42
-0.024553
  0
VERTEX
  8
0
 10
78.278977
 20
487.491477
 42
-0.024360
  0
VERTEX
  8
0
 10
78.851518
 20
486.571805
 42
-0.127719
  0
VERTEX
  8
0
 10
79.000000
 20
486.000000
 42
0.171785
  0
VERTEX
  8
0
 10
79.428117
 20
484.790688
 42
0.018872
  0
VERTEX
  8
0
 10
81.394948
 20
482.540188
 42
0.018275
  0
VERTEX
  8
0
 10
83.525185
 20
480.440091
 42
0.187587
  0
VERTEX
  8
0
 10
84.656938
 20
480.000000
 42
-0.157435
  0
VERTEX
  8
0
 10
85.099265
 20
479.857184
 42
-0.011010
  0
VERTEX
  8
0
 10
86.153777
 20
479.061126
 42
-0.014749
  0
VERTEX
  8
0
 10
87.384731
 20
478.028196
 42
-0.010533
  0
VERTEX
  8
0
 10
88.702393
 20
476.803833
 42
-0.067333
  0
VERTEX
  8
0
 10
90.990259
 20
473.895512
 42
-0.109088
  0
VERTEX
  8
0
 10
91.960326
 20
470.916200
 42
-0.120191
  0
VERTEX
  8
0
 10
91.545849
 20
468.012371
 42
-0.093566
  0
VERTEX
  8
0
 10
89.825686
 20
465.314451
 42
-0.054835
  0
VERTEX
  8
0
 10
88.470528
 20
464.156592
 42
-0.074680
  0
VERTEX
  8
0
 10
87.024062
 20
463.460713
 42
-0.056290
  0
VERTEX
  8
0
 10
85.141577
 20
463.104799
 42
-0.018602
  0
VERTEX
  8
0
 10
82.325686
 20
463.000000
 42
0.010350
  0
VERTEX
  8
0
 10
79.300957
 20
462.937381
 42
0.079629
  0
VERTEX
  8
0
 10
77.915711
 20
462.656115
 42
0.189981
  0
VERTEX
  8
0
 10
77.246530
 20
462.051530
 42
0.115656
  0
VERTEX
  8
0
 10
77.000000
 20
461.000000
 42
-0.048028
  0
VERTEX
  8
0
 10
76.926307
 20
460.234582
 42
-0.068025
  0
VERTEX
  8
0
 10
76.706250
 20
459.587500
 42
-0.088204
  0
VERTEX
  8
0
 10
76.381882
 20
459.151477
 42
-0.191087
  0
VERTEX
  8
0
 10
76.000000
 20
459.000000
 42
0.354422
  0
VERTEX
  8
0
 10
75.590659
 20
458.668156
 42
0.018695
  0
VERTEX
  8
0
 10
75.283598
 20
456.889754
 42
0.021763
  0
VERTEX
  8
0
 10
75.068713
 20
454.510506
 42
0.011639
  0
VERTEX
  8
0
 10
75.000000
 20
451.559017
 42
-0.012539
  0
VERTEX
  8
0
 10
74.927367
 20
448.663205
 42
-0.018327
  0
VERTEX
  8
0
 10
74.706250
 20
446.122275
 42
-0.014001
  0
VERTEX
  8
0
 10
74.394315
 20
444.078430
 42
-0.212560
  0
VERTEX
  8
0
 10
74.000000
 20
443.500000
 42
0.201945
  0
VERTEX
  8
0
 10
73.607770
 20
442.949065
 42
0.018386
  0
VERTEX
  8
0
 10
73.293750
 20
441.256031
 42
0.021513
  0
VERTEX
  8
0
 10
73.072788
 20
439.130932
 42
0.015147
  0
VERTEX
  8
0
 10
73.000000
 20
436.728835
 42
-0.016036
  0
VERTEX
  8
0
 10
72.877784
 20
432.919098
 42
-0.079918
  0
VERTEX
  8
0
 10
72.404807
 20
430.839521
 42
-0.081413
  0
VERTEX
  8
0
 10
71.307083
 20
429.031269
 42
-0.016992
  0
VERTEX
  8
0
 10
68.791792
 20
426.287852
 42
0.000000
  0
VERTEX
  8
0
 10
64.583584
 20
422.000000
 42
0.000000
  0
VERTEX
  8
0
 10
54.791792
 20
422.000000
 42
-0.008264
  0
VERTEX
  8
0
 10
50.802254
 20
422.065941
 42
-0.017182
  0
VERTEX
  8
0
 10
47.697948
 20
422.275532
 42
-0.012841
  0
VERTEX
  8
0
 10
45.364854
 20
422.574513
 42
-0.370041
  0
VERTEX
  8
0
 10
45.000000
 20
423.000000
 42
0.131618
  0
VERTEX
  8
0
 10
44.897846
 20
423.381349
 42
0.100605
  0
VERTEX
  8
0
 10
44.610580
 20
423.706250
 42
0.088108
  0
VERTEX
  8
0
 10
44.180861
 20
423.924805
 42
0.073819
  0
VERTEX
  8
0
 10
43.674314
 20
424.000000
 42
-0.116107
  0
VERTEX
  8
0
 10
43.017227
 20
424.154670
 42
-0.031404
  0
VERTEX
  8
0
 10
42.085668
 20
424.694427
 42
-0.030021
  0
VERTEX
  8
0
 10
41.075368
 20
425.459206
 42
-0.027164
  0
VERTEX
  8
0
 10
40.127760
 20
426.364006
 42
-0.057337
  0
VERTEX
  8
0
 10
38.953230
 20
427.942705
 42
-0.082227
  0
VERTEX
  8
0
 10
38.338463
 20
429.570992
 42
-0.049771
  0
VERTEX
  8
0
 10
38.114811
 20
431.858432
 42
-0.009678
  0
VERTEX
  8
0
 10
38.203446
 20
436.009239
 42
-0.009515
  0
VERTEX
  8
0
 10
38.438438
 20
439.938388
 42
-0.046777
  0
VERTEX
  8
0
 10
38.818825
 20
442.124811
 42
-0.088423
  0
VERTEX
  8
0
 10
39.458278
 20
443.475630
 42
-0.111613
  0
VERTEX
  8
0
 10
40.485914
 20
444.395232
 42
0.025490
  0
VERTEX
  8
0
 10
41.364511
 20
444.944402
 42
0.014630
  0
VERTEX
  8
0
 10
42.367683
 20
445.689537
 42
0.014590
  0
VERTEX
  8
0
 10
43.334536
 20
446.499450
 42
0.023501
  0
VERTEX
  8
0
 10
44.103209
 20
447.250000
 42
-0.083385
  0
VERTEX
  8
0
 10
45.109586
 20
448.021549
 42
-0.053869
  0
VERTEX
  8
0
 10
46.476301
 20
448.567527
 42
-0.043551
  0
VERTEX
  8
0
 10
48.218665
 20
448.894275
 42
-0.024588
  0
VERTEX
  8
0
 10
50.367295
 20
449.000000
 42
0.000000
  0
VERTEX
  8
0
 10
55.000000
 20
449.000000
 42
0.000000
  0
VERTEX
  8
0
 10
55.000000
 20
454.000000
 42
-0.018830
  0
VERTEX
  8
0
 10
55.072205
 20
455.916554
 42
-0.030530
  0
VERTEX
  8
0
 10
55.293750
 20
457.531250
 42
-0.031449
  0
VERTEX
  8
0
 10
55.610183
 20
458.719449
 42
-0.322437
  0
VERTEX
  8
0
 10
56.000000
 20
459.000000
 42
0.354422
  0
VERTEX
  8
0
 10
56.409341
 20
459.331844
 42
0.018695
  0
VERTEX
  8
0
 10
56.716402
 20
461.110246
 42
0.021763
  0
VERTEX
  8
0
 10
56.931287
 20
463.489494
 42
0.011639
  0
VERTEX
  8
0
 10
57.000000
 20
466.440983
 42
-0.012539
  0
VERTEX
  8
0
 10
57.072633
 20
469.336795
 42
-0.018327
  0
VERTEX
  8
0
 10
57.293750
 20
471.877725
 42
-0.014001
  0
VERTEX
  8
0
 10
57.605685
 20
473.921570
 42
-0.212560
  0
VERTEX
  8
0
 10
58.000000
 20
474.500000
 42
0.201683
  0
VERTEX
  8
0
 10
58.392183
 20
475.050282
 42
0.018495
  0
VERTEX
  8
0
 10
58.706250
 20
476.736155
 42
0.021591
  0
VERTEX
  8
0
 10
58.927208
 20
478.852665
 42
0.015213
  0
VERTEX
  8
0
 10
59.000000
 20
481.244566
 42
-0.044155
  0
VERTEX
  8
0
 10
59.471602
 20
486.574501
 42
-0.140503
  0
VERTEX
  8
0
 10
61.029786
 20
489.753935
 42
-0.153841
  0
VERTEX
  8
0
 10
63.934762
 20
491.458537
 42
-0.056399
  0
VERTEX
  8
0
 10
68.719769
 20
492.000000
 42
-0.018908
  0
VERTEX
  8
0
 10
71.598215
 20
491.891111
 42
-0.057140
  0
VERTEX
  8
0
 10
73.522342
 20
491.521506
 42
-0.073036
  0
VERTEX
  8
0
 10
75.040903
 20
490.788430
 42
-0.047495
  0
SEQEND
  0
POLYLINE
  8
0
 66
1
 70
1
  0
VERTEX
  8
0
 10
390.500000
 20
483.000000
 42
0.141978
  0
VERTEX
  8
0
 10
390.926041
 20
482.614759
 42
0.041888
  0
VERTEX
  8
0
 10
391.755269
 20
482.293750
 42
0.038353
  0
VERTEX
  8
0
 10
392.793085
 20
482.073680
 42
0.033084
  0
VERTEX
  8
0
 10
393.905379
 20
482.000000
 42
-0.072089
  0
VERTEX
  8
0
 10
396.886171
 20
481.567987
 42
-0.051224
  0
VERTEX
  8
0
 10
400.013766
 20
480.281578
 42
-0.053102
  0
VERTEX
  8
0
 10
402.618695
 20
478.504490
 42
-0.126338
  0
VERTEX
  8
0
 10
403.960733
 20
476.603280
 42
0.036272
  0
VERTEX
  8
0
 10
404.395737
 20
475.669196
 42
0.024322
  0
VERTEX
  8
0
 10
405.018794
 20
474.668705
 42
0.024533
  0
VERTEX
  8
0
 10
405.721007
 20
473.753891
 42
0.043614
  0
VERTEX
  8
0
 10
406.395824
 20
473.086458
 42
-0.071543
  0
VERTEX
  8
0
 10
407.010156
 20
472.407173
 42
-0.044601
  0
VERTEX
  8
0
 10
407.528773
 20
471.465123
 42
-0.043890
  0
VERTEX
  8
0
 10
407.881853
 20
470.421992
 42
-0.059734
  0
VERTEX
  8
0
 10
408.000000
 20
469.436572
 42
0.039551
  0
VERTEX
  8
0
 10
408.073901
 20
468.503768
 42
0.042550
  0
VERTEX
  8
0
 10
408.293750
 20
467.617557
 42
0.046682
  0
VERTEX
  8
0
 10
408.615740
 20
466.899452
 42
0.126268
  0
VERTEX
  8
0
 10
409.000000
 20
466.500000
 42
-0.204655
  0
VERTEX
  8
0
 10
409.392727
 20
465.942244
 42
-0.017258
  0
VERTEX
  8
0
 10
409.706250
 20
464.171475
 42
-0.020711
  0
VERTEX
  8
0
 10
409.927252
 20
461.953428
 42
-0.014475
  0
VERTEX
  8
0
 10
410.000000
 20
459.440983
 42
-0.014034
  0
VERTEX
  8
0
 10
409.929521
 20
456.930417
 42
-0.024479
  0
VERTEX
  8
0
 10
409.711186
 20
454.860246
 42
-0.022248
  0
VERTEX
  8
0
 10
409.399909
 20
453.312875
 42
-0.344703
  0
VERTEX
  8
0
 10
409.000000
 20
453.000000
 42
0.308946
  0
VERTEX
  8
0
 10
408.611648
 20
452.734720
 42
0.037703
  0
VERTEX
  8
0
 10
408.293750
 20
451.695461
 42
0.034160
  0
VERTEX
  8
0
 10
408.072294
 20
450.261135
 42
0.021227
  0
VERTEX
  8
0
 10
408.000000
 20
448.559017
 42
-0.020930
  0
VERTEX
  8
0
 10
407.926887
 20
446.813184
 42
-0.027868
  0
VERTEX
  8
0
 10
407.706250
 20
445.241025
 42
-0.027581
  0
VERTEX
  8
0
 10
407.388891
 20
443.999702
 42
-0.179846
  0
VERTEX
  8
0
 10
407.000000
 20
443.500000
 42
0.158284
  0
VERTEX
  8
0
 10
406.613440
 20
443.044084
 42
0.036095
  0
VERTEX
  8
0
 10
406.293750
 20
442.070061
 42
0.033884
  0
VERTEX
  8
0
 10
406.073436
 20
440.840047
 42
0.027380
  0
VERTEX
  8
0
 10
406.000000
 20
439.500000
 42
-0.027380
  0
VERTEX
  8
0
 10
405.926564
 20
438.159953
 42
-0.033884
  0
VERTEX
  8
0
 10
405.706250
 20
436.929939
 42
-0.036095
  0
VERTEX
  8
0
 10
405.386560
 20
435.955916
 42
-0.158284
  0
VERTEX
  8
0
 10
405.000000
 20
435.500000
 42
0.123387
  0
VERTEX
  8
0
 10
404.615893
 20
435.105214
 42
0.047457
  0
VERTEX
  8
0
 10
404.293750
 20
434.405225
 42
0.043300
  0
VERTEX
  8
0
 10
404.073939
 20
433.544102
 42
0.040867
  0
VERTEX
  8
0
 10
404.000000
 20
432.640983
 42
-0.034678
  0
VERTEX
  8
0
 10
403.935584
 20
431.713328
 42
-0.032157
  0
VERTEX
  8
0
 10
403.743363
 20
430.779226
 42
-0.033729
  0
VERTEX
  8
0
 10
403.462214
 20
429.970754
 42
-0.085572
  0
VERTEX
  8
0
 10
403.126343
 20
429.450000
 42
0.101180
  0
VERTEX
  8
0
 10
402.756223
 20
428.835181
 42
0.018459
  0
VERTEX
  8
0
 10
402.357284
 20
427.560430
 42
0.019187
  0
VERTEX
  8
0
 10
401.997363
 20
426.009384
 42
0.016383
  0
VERTEX
  8
0
 10
401.735108
 20
424.351463
 42
0.033425
  0
VERTEX
  8
0
 10
401.590227
 20
421.825563
 42
0.105372
  0
VERTEX
  8
0
 10
401.957645
 20
420.178631
 42
0.078227
  0
VERTEX
  8
0
 10
403.029397
 20
418.562612
 42
0.013259
  0
VERTEX
  8
0
 10
405.608766
 20
415.893255
 42
-0.011732
  0
VERTEX
  8
0
 10
407.290827
 20
414.163113
 42
-0.016246
  0
VERTEX
  8
0
 10
408.710075
 20
412.529702
 42
-0.012772
  0
VERTEX
  8
0
 10
409.793823
 20
411.125569
 42
-0.159272
  0
VERTEX
  8
0
 10
410.000000
 20
410.494740
 42
0.155491
  0
VERTEX
  8
0
 10
410.197738
 20
409.874265
 42
0.014558
  0
VERTEX
  8
0
 10
411.175000
 20
408.578387
 42
0.017585
  0
VERTEX
  8
0
 10
412.467929
 20
407.075436
 42
0.012929
  0
VERTEX
  8
0
 10
414.000000
 20
405.500000
 42
-0.013552
  0
VERTEX
  8
0
 10
415.532003
 20
403.920700
 42
-0.018254
  0
VERTEX
  8
0
 10
416.825000
 20
402.405980
 42
-0.015476
  0
VERTEX
  8
0
 10
417.797411
 20
401.097582
 42
-0.153230
  0
VERTEX
  8
0
 10
418.000000
 20
400.452040
 42
0.116386
  0
VERTEX
  8
0
 10
418.132194
 20
399.891820
 42
0.033013
  0
VERTEX
  8
0
 10
418.587500
 20
399.113776
 42
0.031344
  0
VERTEX
  8
0
 10
419.234548
 20
398.276839
 42
0.028616
  0
VERTEX
  8
0
 10
420.000000
 20
397.500000
 42
-0.030542
  0
VERTEX
  8
0
 10
420.765408
 20
396.717205
 42
-0.032529
  0
VERTEX
  8
0
 10
421.412500
 20
395.862576
 42
-0.034438
  0
VERTEX
  8
0
 10
421.865827
 20
395.060035
 42
-0.111796
  0
VERTEX
  8
0
 10
422.000000
 20
394.467457
 42
0.096827
  0
VERTEX
  8
0
 10
422.109526
 20
393.907184
 42
0.041830
  0
VERTEX
  8
0
 10
422.455166
 20
393.226264
 42
0.039331
  0
VERTEX
  8
0
 10
422.956622
 20
392.541310
 42
0.041900
  0
VERTEX
  8
0
 10
423.549502
 20
391.958917
 42
-0.088503
  0
VERTEX
  8
0
 10
424.890341
 20
390.371939
 42
-0.013925
  0
VERTEX
  8
0
 10
426.848243
 20
386.763470
 42
-0.013056
  0
VERTEX
  8
0
 10
428.610374
 20
383.051104
 42
-0.104646
  0
VERTEX
  8
0
 10
429.000000
 20
381.209852
 42
0.132169
  0
VERTEX
  8
0
 10
429.123987
 20
380.748998
 42
0.027552
  0
VERTEX
  8
0
 10
429.587500
 20
380.042634
 42
0.027132
  0
VERTEX
  8
0
 10
430.234368
 20
379.258964
 42
0.022734
  0
VERTEX
  8
0
 10
431.000000
 20
378.500000
 42
-0.042591
  0
VERTEX
  8
0
 10
431.765299
 20
377.678675
 42
-0.038100
  0
VERTEX
  8
0
 10
432.412500
 20
376.709562
 42
-0.040136
  0
VERTEX
  8
0
 10
432.858077
 20
375.744162
 42
-0.088275
  0
VERTEX
  8
0
 10
433.000000
 20
374.946558
 42
0.083383
  0
VERTEX
  8
0
 10
433.167695
 20
373.947982
 42
0.012554
  0
VERTEX
  8
0
 10
433.881250
 20
372.039952
 42
0.013795
  0
VERTEX
  8
0
 10
434.851380
 20
369.811335
 42
0.011525
  0
VERTEX
  8
0
 10
436.000000
 20
367.500000
 42
-0.012137
  0
VERTEX
  8
0
 10
437.148573
 20
365.181650
 42
-0.014288
  0
VERTEX
  8
0
 10
438.118750
 20
362.931857
 42
-0.013226
  0
VERTEX
  8
0
 10
438.828869
 20
360.999146
 42
-0.081595
  0
VERTEX
  8
0
 10
439.000000
 20
359.957471
 42
0.049327
  0
VERTEX
  8
0
 10
439.074117
 20
359.208010
 42
0.047364
  0
VERTEX
  8
0
 10
439.293750
 20
358.476821
 42
0.051098
  0
VERTEX
  8
0
 10
439.616614
 20
357.869420
 42
0.107043
  0
VERTEX
  8
0
 10
440.000000
 20
357.500000
 42
-0.130646
  0
VERTEX
  8
0
 10
440.384508
 20
357.093337
 42
-0.045439
  0
VERTEX
  8
0
 10
440.706250
 20
356.346475
 42
-0.041396
  0
VERTEX
  8
0
 10
440.926158
 20
355.420660
 42
-0.037634
  0
VERTEX
  8
0
 10
441.000000
 20
354.440983
 42
0.039081
  0
VERTEX
  8
0
 10
441.073170
 20
353.506280
 42
0.058208
  0
VERTEX
  8
0
 10
441.293750
 20
352.717039
 42
0.076538
  0
VERTEX
  8
0
 10
441.617207
 20
352.179376
 42
0.222681
  0
VERTEX
  8
0
 10
442.000000
 20
352.000000
 42
-0.254951
  0
VERTEX
  8
0
 10
442.384262
 20
351.790443
 42
-0.062710
  0
VERTEX
  8
0
 10
442.706250
 20
351.118750
 42
-0.048861
  0
VERTEX
  8
0
 10
442.927234
 20
350.149251
 42
-0.031626
  0
VERTEX
  8
0
 10
443.000000
 20
349.000000
 42
0.031626
  0
VERTEX
  8
0
 10
443.072766
 20
347.850749
 42
0.048861
  0
VERTEX
  8
0
 10
443.293750
 20
346.881250
 42
0.062710
  0
VERTEX
  8
0
 10
443.615738
 20
346.209557
 42
0.254951
  0
VERTEX
  8
0
 10
444.000000
 20
346.000000
 42
-0.254951
  0
VERTEX
  8
0
 10
444.384262
 20
345.790443
 42
-0.062710
  0
VERTEX
  8
0
 10
444.706250
 20
345.118750
 42
-0.048861
  0
VERTEX
  8
0
 10
444.927234
 20
344.149251
 42
-0.031626
  0
VERTEX
  8
0
 10
445.000000
 20
343.000000
 42
0.031626
  0
VERTEX
  8
0
 10
445.072766
 20
341.850749
 42
0.048861
  0
VERTEX
  8
0
 10
445.293750
 20
340.881250
 42
0.062710
  0
VERTEX
  8
0
 10
445.615738
 20
340.209557
 42
0.254951
  0
VERTEX
  8
0
 10
446.000000
 20
340.000000
 42
-0.265226
  0
VERTEX
  8
0
 10
446.384863
 20
339.780401
 42
-0.058056
  0
VERTEX
  8
0
 10
446.706250
 20
339.056431
 42
-0.045998
  0
VERTEX
  8
0
 10
446.927341
 20
338.018512
 42
-0.029495
  0
VERTEX
  8
0
 10
447.000000
 20
336.787852
 42
0.065097
  0
VERTEX
  8
0
 10
447.231552
 20
335.016874
 42
0.062908
  0
VERTEX
  8
0
 10
447.911244
 20
333.342771
 42
0.047395
  0
VERTEX
  8
0
 10
449.167680
 20
331.529836
 42
0.018819
  0
VERTEX
  8
0
 10
451.208208
 20
329.287852
 42
0.012185
  0
VERTEX
  8
0
 10
452.900620
 20
327.645446
 42
0.016752
  0
VERTEX
  8
0
 10
454.504761
 20
326.259556
 42
0.013450
  0
VERTEX
  8
0
 10
455.885080
 20
325.205577
 42
0.157594
  0
VERTEX
  8
0
 10
456.521117
 20
325.000000
 42
-0.181486
  0
VERTEX
  8
0
 10
457.845381
 20
324.502958
 42
-0.019468
  0
VERTEX
  8
0
 10
460.270238
 20
322.211780
 42
-0.019687
  0
VERTEX
  8
0
 10
462.508021
 20
319.738424
 42
-0.175795
  0
VERTEX
  8
0
 10
463.000000
 20
318.382372
 42
0.146365
  0
VERTEX
  8
0
 10
463.165004
 20
317.830773
 42
0.019217
  0
VERTEX
  8
0
 10
463.883377
 20
316.824009
 42
0.020992
  0
VERTEX
  8
0
 10
464.855649
 20
315.670080
 42
0.016168
  0
VERTEX
  8
0
 10
466.007241
 20
314.493063
 42
-0.033625
  0
VERTEX
  8
0
 10
467.337420
 20
313.035072
 42
-0.015803
  0
VERTEX
  8
0
 10
468.863353
 20
310.988842
 42
-0.015580
  0
VERTEX
  8
0
 10
470.333073
 20
308.735757
 42
-0.021138
  0
VERTEX
  8
0
 10
471.507241
 20
306.609627
 42
-0.029483
  0
VERTEX
  8
0
 10
472.849952
 20
303.463285
 42
-0.046886
  0
VERTEX
  8
0
 10
473.575609
 20
300.629684
 42
-0.032061
  0
VERTEX
  8
0
 10
473.911228
 20
297.027320
 42
-0.007200
  0
VERTEX
  8
0
 10
474.000000
 20
290.862673
 42
-0.008299
  0
VERTEX
  8
0
 10
473.929516
 20
286.616659
 42
-0.013647
  0
VERTEX
  8
0
 10
473.712353
 20
283.030926
 42
-0.008553
  0
VERTEX
  8
0
 10
473.407650
 20
280.136540
 42
-0.227620
  0
VERTEX
  8
0
 10
473.000000
 20
279.500000
 42
0.125069
  0
VERTEX
  8
0
 10
472.615805
 20
279.102497
 42
0.047009
  0
VERTEX
  8
0
 10
472.293750
 20
278.392002
 42
0.042863
  0
VERTEX
  8
0
 10
472.073917
 20
277.516318
 42
0.040093
  0
VERTEX
  8
0
 10
472.000000
 20
276.595971
 42
-0.071751
  0
VERTEX
  8
0
 10
471.854699
 20
275.588640
 42
-0.041955
  0
VERTEX
  8
0
 10
471.412500
 20
274.449806
 42
-0.041009
  0
VERTEX
  8
0
 10
470.765473
 20
273.361050
 42
-0.054318
  0
VERTEX
  8
0
 10
470.000000
 20
272.500000
 42
0.025925
  0
VERTEX
  8
0
 10
469.234474
 20
271.731400
 42
0.029531
  0
VERTEX
  8
0
 10
468.587500
 20
270.918978
 42
0.030730
  0
VERTEX
  8
0
 10
468.128899
 20
270.174372
 42
0.123265
  0
VERTEX
  8
0
 10
468.000000
 20
269.659464
 42
-0.166147
  0
VERTEX
  8
0
 10
467.545295
 20
268.328859
 42
-0.028580
  0
VERTEX
  8
0
 10
465.769750
 20
266.286877
 42
-0.028324
  0
VERTEX
  8
0
 10
463.775944
 20
264.461590
 42
-0.172859
  0
VERTEX
  8
0
 10
462.480674
 20
264.000000
 42
0.114719
  0
VERTEX
  8
0
 10
461.908914
 20
263.867068
 42
0.033541
  0
VERTEX
  8
0
 10
461.122188
 20
263.412500
 42
0.031777
  0
VERTEX
  8
0
 10
460.278957
 20
262.765436
 42
0.029303
  0
VERTEX
  8
0
 10
459.500000
 20
262.000000
 42
-0.033439
  0
VERTEX
  8
0
 10
458.708140
 20
261.234645
 42
-0.034148
  0
VERTEX
  8
0
 10
457.826608
 20
260.587500
 42
-0.036283
  0
VERTEX
  8
0
 10
456.986360
 20
260.136671
 42
-0.105367
  0
VERTEX
  8
0
 10
456.345012
 20
260.000000
 42
0.322438
  0
VERTEX
  8
0
 10
455.674241
 20
259.517245
 42
0.048796
  0
VERTEX
  8
0
 10
455.282205
 20
257.809315
 42
0.026542
  0
VERTEX
  8
0
 10
455.057860
 20
254.825395
 42
0.005493
  0
VERTEX
  8
0
 10
455.000000
 20
249.559017
 42
-0.008613
  0
VERTEX
  8
0
 10
454.929152
 20
245.446467
 42
-0.013933
  0
VERTEX
  8
0
 10
454.711258
 20
241.954336
 42
-0.008824
  0
VERTEX
  8
0
 10
454.405641
 20
239.130983
 42
-0.226705
  0
VERTEX
  8
0
 10
454.000000
 20
238.500000
 42
0.194165
  0
VERTEX
  8
0
 10
453.609080
 20
237.967949
 42
0.021638
  0
VERTEX
  8
0
 10
453.293750
 20
236.465225
 42
0.023783
  0
VERTEX
  8
0
 10
453.072902
 20
234.570094
 42
0.017115
  0
VERTEX
  8
0
 10
453.000000
 20
232.440983
 42
-0.017292
  0
VERTEX
  8
0
 10
452.927848
 20
230.355280
 42
-0.028158
  0
VERTEX
  8
0
 10
452.706250
 20
228.598289
 42
-0.027462
  0
VERTEX
  8
0
 10
452.390894
 20
227.290799
 42
-0.331172
  0
VERTEX
  8
0
 10
452.000000
 20
227.000000
 42
0.308946
  0
VERTEX
  8
0
 10
451.611648
 20
226.734720
 42
0.037703
  0
VERTEX
  8
0
 10
451.293750
 20
225.695461
 42
0.034160
  0
VERTEX
  8
0
 10
451.072294
 20
224.261135
 42
0.021227
  0
VERTEX
  8
0
 10
451.000000
 20
222.559017
 42
-0.020930
  0
VERTEX
  8
0
 10
450.926887
 20
220.813184
 42
-0.027868
  0
VERTEX
  8
0
 10
450.706250
 20
219.241025
 42
-0.027581
  0
VERTEX
  8
0
 10
450.388891
 20
217.999702
 42
-0.179846
  0
VERTEX
  8
0
 10
450.000000
 20
217.500000
 42
0.158284
  0
VERTEX
  8
0
 10
449.613440
 20
217.044084
 42
0.036095
  0
VERTEX
  8
0
 10
449.293750
 20
216.070061
 42
0.033884
  0
VERTEX
  8
0
 10
449.073436
 20
214.840047
 42
0.027380
  0
VERTEX
  8
0
 10
449.000000
 20
213.500000
 42
-0.027380
  0
VERTEX
  8
0
 10
448.926564
 20
212.159953
 42
-0.033884
  0
VERTEX
  8
0
 10
448.706250
 20
210.929939
 42
-0.036095
  0
VERTEX
  8
0
 10
448.386560
 20
209.955916
 42
-0.158284
  0
VERTEX
  8
0
 10
448.000000
 20
209.500000
 42
0.128561
  0
VERTEX
  8
0
 10
447.615613
 20
209.096789
 42
0.046040
  0
VERTEX
  8
0
 10
447.293750
 20
208.363811
 42
0.041947
  0
VERTEX
  8
0
 10
447.073871
 20
207.457084
 42
0.038534
  0
VERTEX
  8
0
 10
447.000000
 20
206.500000
 42
-0.038534
  0
VERTEX
  8
0
 10
446.926129
 20
205.542916
 42
-0.041947
  0
VERTEX
  8
0
 10
446.706250
 20
204.636189
 42
-0.046040
  0
VERTEX
  8
0
 10
446.384387
 20
203.903211
 42
-0.128561
  0
VERTEX
  8
0
 10
446.000000
 20
203.500000
 42
0.110120
  0
VERTEX
  8
0
 10
445.616496
 20
203.125941
 42
0.050520
  0
VERTEX
  8
0
 10
445.293750
 20
202.502285
 42
0.046631
  0
VERTEX
  8
0
 10
445.074090
 20
201.748074
 42
0.047589
  0
VERTEX
  8
0
 10
445.000000
 20
200.971399
 42
-0.067431
  0
VERTEX
  8
0
 10
444.868364
 20
199.999758
 42
-0.020286
  0
VERTEX
  8
0
 10
444.412500
 20
198.576067
 42
-0.019929
  0
VERTEX
  8
0
 10
443.765531
 20
197.003493
 42
-0.020403
  0
VERTEX
  8
0
 10
443.000000
 20
195.500000
 42
0.014968
  0
VERTEX
  8
0
 10
442.234373
 20
194.035886
 42
0.016729
  0
VERTEX
  8
0
 10
441.587500
 20
192.581231
 42
0.016221
  0
VERTEX
  8
0
 10
441.120887
 20
191.312935
 42
0.080196
  0
VERTEX
  8
0
 10
441.000000
 20
190.564084
 42
-0.108022
  0
VERTEX
  8
0
 10
440.558769
 20
188.545602
 42
-0.015217
  0
VERTEX
  8
0
 10
438.653011
 20
184.707303
 42
-0.017494
  0
VERTEX
  8
0
 10
436.478686
 20
180.964386
 42
-0.065979
  0
VERTEX
  8
0
 10
434.750000
 20
178.882705
 42
0.035117
  0
VERTEX
  8
0
 10
434.080331
 20
178.170436
 42
0.034708
  0
VERTEX
  8
0
 10
433.514063
 20
177.368776
 42
0.036830
  0
VERTEX
  8
0
 10
433.120765
 20
176.598287
 42
0.099918
  0
VERTEX
  8
0
 10
433.000000
 20
176.000000
 42
-0.104749
  0
VERTEX
  8
0
 10
432.873307
 20
175.401887
 42
-0.037681
  0
VERTEX
  8
0
 10
432.459471
 20
174.631224
 42
-0.035375
  0
VERTEX
  8
0
 10
431.864043
 20
173.829568
 42
-0.035061
  0
VERTEX
  8
0
 10
431.159901
 20
173.117295
 42
0.050175
  0
VERTEX
  8
0
 10
430.408242
 20
172.309612
 42
0.029372
  0
VERTEX
  8
0
 10
429.671860
 20
171.210980
 42
0.029135
  0
VERTEX
  8
0
 10
429.058033
 20
170.013020
 42
0.043384
  0
VERTEX
  8
0
 10
428.678198
 20
168.898807
 42
-0.127612
  0
VERTEX
  8
0
 10
426.976466
 20
165.751585
 42
-0.003262
  0
VERTEX
  8
0
 10
415.824503
 20
153.925222
 42
-0.002323
  0
VERTEX
  8
0
 10
404.278223
 20
141.951497
 42
-0.202430
  0
VERTEX
  8
0
 10
402.024342
 20
141.000000
 42
0.125378
  0
VERTEX
  8
0
 10
401.444104
 20
140.852179
 42
0.025231
  0
VERTEX
  8
0
 10
400.528032
 20
140.291336
 42
0.025192
  0
VERTEX
  8
0
 10
399.502041
 20
139.511074
 42
0.021213
  0
VERTEX
  8
0
 10
398.496618
 20
138.587527
 42
0.016631
  0
VERTEX
  8
0
 10
397.195498
 20
137.196847
 42
0.117288
  0
VERTEX
  8
0
 10
396.766404
 20
136.383334
 42
0.212648
  0
VERTEX
  8
0
 10
396.880693
 20
135.706137
 42
0.073087
  0
VERTEX
  8
0
 10
397.560527
 20
134.949767
 42
-0.057370
  0
VERTEX
  8
0
 10
398.241020
 20
134.238739
 42
-0.017663
  0
VERTEX
  8
0
 10
399.096890
 20
133.023312
 42
-0.017416
  0
VERTEX
  8
0
 10
399.965652
 20
131.585013
 42
-0.018273
  0
VERTEX
  8
0
 10
400.717481
 20
130.112240
 42
0.020642
  0
VERTEX
  8
0
 10
401.492995
 20
128.610672
 42
0.017340
  0
VERTEX
  8
0
 10
402.433421
 20
127.086015
 42
0.017690
  0
VERTEX
  8
0
 10
403.390808
 20
125.752710
 42
0.045272
  0
VERTEX
  8
0
 10
404.199027
 20
124.882705
 42
-0.067432
  0
VERTEX
  8
0
 10
404.888780
 20
124.071109
 42
-0.042260
  0
VERTEX
  8
0
 10
405.470964
 20
122.967133
 42
-0.041763
  0
VERTEX
  8
0
 10
405.867656
 20
121.759333
 42
-0.058533
  0
VERTEX
  8
0
 10
406.000000
 20
120.632705
 42
0.036156
  0
VERTEX
  8
0
 10
406.073007
 20
119.624414
 42
0.054665
  0
VERTEX
  8
0
 10
406.293750
 20
118.773357
 42
0.071575
  0
VERTEX
  8
0
 10
406.616730
 20
118.190363
 42
0.234665
  0
VERTEX
  8
0
 10
407.000000
 20
118.000000
 42
-0.254951
  0
VERTEX
  8
0
 10
407.384262
 20
117.790443
 42
-0.062710
  0
VERTEX
  8
0
 10
407.706250
 20
117.118750
 42
-0.048861
  0
VERTEX
  8
0
 10
407.927234
 20
116.149251
 42
-0.031626
  0
VERTEX
  8
0
 10
408.000000
 20
115.000000
 42
0.031626
  0
VERTEX
  8
0
 10
408.072766
 20
113.850749
 42
0.048861
  0
VERTEX
  8
0
 10
408.293750
 20
112.881250
 42
0.062710
  0
VERTEX
  8
0
 10
408.615738
 20
112.209557
 42
0.254951
  0
VERTEX
  8
0
 10
409.000000
 20
112.000000
 42
-0.404307
  0
VERTEX
  8
0
 10
409.874520
 20
111.154670
 42
-0.008485
  0
VERTEX
  8
0
 10
409.986532
 20
104.554855
 42
-0.009524
  0
VERTEX
  8
0
 10
409.861240
 20
97.977824
 42
-0.249791
  0
VERTEX
  8
0
 10
409.000000
 20
96.500000
 42
0.102813
  0
VERTEX
  8
0
 10
408.616763
 20
96.136858
 42
0.051802
  0
VERTEX
  8
0
 10
408.293750
 20
95.551026
 42
0.048337
  0
VERTEX
  8
0
 10
408.074148
 20
94.850522
 42
0.051843
  0
VERTEX
  8
0
 10
408.000000
 20
94.137327
 42
-0.129762
  0
VERTEX
  8
0
 10
406.749090
 20
89.398488
 42
-0.031820
  0
VERTEX
  8
0
 10
402.292994
 20
82.593847
 42
-0.033314
  0
VERTEX
  8
0
 10
396.817146
 20
76.223180
 42
-0.082328
  0
VERTEX
  8
0
 10
391.854420
 20
72.605542
 42
0.059278
  0
VERTEX
  8
0
 10
390.628863
 20
71.795513
 42
0.128270
  0
VERTEX
  8
0
 10
389.983468
 20
70.878357
 42
0.089871
  0
VERTEX
  8
0
 10
389.742492
 20
69.544940
 42
0.019789
  0
VERTEX
  8
0
 10
389.835989
 20
67.211269
 42
-0.012497
  0
VERTEX
  8
0
 10
389.975658
 20
64.656778
 42
-0.128032
  0
VERTEX
  8
0
 10
389.741377
 20
63.633392
 42
-0.227271
  0
VERTEX
  8
0
 10
389.087985
 20
63.142718
 42
-0.049332
  0
VERTEX
  8
0
 10
387.645006
 20
63.000000
 42
-0.057271
  0
VERTEX
  8
0
 10
385.732645
 20
63.219767
 42
-0.201010
  0
VERTEX
  8
0
 10
384.748575
 20
63.930607
 42
-0.095778
  0
VERTEX
  8
0
 10
384.165480
 20
65.491450
 42
-0.008117
  0
VERTEX
  8
0
 10
383.520493
 20
69.750000
 42
-0.012064
  0
VERTEX
  8
0
 10
383.251201
 20
72.189289
 42
-0.042589
  0
VERTEX
  8
0
 10
383.250102
 20
73.764767
 42
-0.082146
  0
VERTEX
  8
0
 10
383.483506
 20
74.685179
 42
-0.298010
  0
VERTEX
  8
0
 10
383.964800
 20
75.000000
 42
0.165095
  0
VERTEX
  8
0
 10
386.398141
 20
75.825980
 42
0.014532
  0
VERTEX
  8
0
 10
391.510541
 20
79.990197
 42
0.019996
  0
VERTEX
  8
0
 10
396.472398
 20
84.636681
 42
0.049586
  0
VERTEX
  8
0
 10
399.596217
 20
88.506502
 42
0.065625
  0
VERTEX
  8
0
 10
402.239369
 20
93.992545
 42
0.045879
  0
VERTEX
  8
0
 10
403.781100
 20
100.690975
 42
0.046720
  0
VERTEX
  8
0
 10
404.055492
 20
107.354080
 42
0.083036
  0
VERTEX
  8
0
 10
402.871134
 20
112.702947
 42
0.015506
  0
VERTEX
  8
0
 10
400.314598
 20
118.511662
 42
0.016367
  0
VERTEX
  8
0
 10
397.445458
 20
124.045062
 42
0.017360
  0
VERTEX
  8
0
 10
394.437346
 20
128.998037
 42
0.026627
  0
VERTEX
  8
0
 10
391.465319
 20
133.042279
 42
-0.003964
  0
VERTEX
  8
0
 10
389.795010
 20
135.111745
 42
-0.006579
  0
VERTEX
  8
0
 10
388.423562
 20
136.886216
 42
-0.001735
  0
VERTEX
  8
0
 10
387.268609
 20
138.433058
 42
-0.382745
  0
VERTEX
  8
0
 10
387.284357
 20
138.601537
 42
-0.038752
  0
VERTEX
  8
0
 10
387.465734
 20
138.744950
 42
-0.000133
  0
VERTEX
  8
0
 10
389.786655
 20
140.303339
 42
-0.000728
  0
VERTEX
  8
0
 10
392.417693
 20
142.063391
 42
-0.000456
  0
VERTEX
  8
0
 10
395.500000
 20
144.114773
 42
0.032915
  0
VERTEX
  8
0
 10
405.014269
 20
151.379321
 42
0.027511
  0
VERTEX
  8
0
 10
414.113902
 20
160.254757
 42
0.027086
  0
VERTEX
  8
0
 10
422.333339
 20
170.239981
 42
0.029094
  0
VERTEX
  8
0
 10
429.215166
 20
180.827436
 42
0.004800
  0
VERTEX
  8
0
 10
432.081082
 20
185.967873
 42
0.006701
  0
VERTEX
  8
0
 10
434.537837
 20
190.623038
 42
0.006313
  0
VERTEX
  8
0
 10
436.445752
 20
194.478077
 42
0.040412
  0
VERTEX
  8
0
 10
437.225299
 20
196.511023
 42
-0.009020
  0
VERTEX
  8
0
 10
437.590307
 20
197.676846
 42
-0.001395
  0
VERTEX
  8
0
 10
438.361743
 20
199.971988
 42
-0.001556
  0
VERTEX
  8
0
 10
439.287770
 20
202.674146
 42
-0.001352
  0
VERTEX
  8
0
 10
440.274590
 20
205.500000
 42
0.005874
  0
VERTEX
  8
0
 10
442.206699
 20
211.197792
 42
0.010192
  0
VERTEX
  8
0
 10
443.658411
 20
215.978724
 42
0.011061
  0
VERTEX
  8
0
 10
444.831781
 20
220.530445
 42
0.008747
  0
VERTEX
  8
0
 10
445.904930
 20
225.500000
 42
-0.000004
  0
VERTEX
  8
0
 10
446.359366
 20
227.798484
 42
-0.000002
  0
VERTEX
  8
0
 10
446.912470
 20
230.595848
 42
-0.000002
  0
VERTEX
  8
0
 10
447.471724
 20
233.424192
 42
-0.000003
  0
VERTEX
  8
0
 10
447.946723
 20
235.826290
 42
0.019683
  0
VERTEX
  8
0
 10
448.352343
 20
238.407452
 42
0.008707
  0
VERTEX
  8
0
 10
448.693833
 20
241.842135
 42
0.008602
  0
VERTEX
  8
0
 10
448.929938
 20
245.498599
 42
0.011462
  0
VERTEX
  8
0
 10
449.011006
 20
248.826290
 42
-0.010182
  0
VERTEX
  8
0
 10
449.193521
 20
257.198161
 42
-0.067374
  0
VERTEX
  8
0
 10
449.927276
 20
261.307264
 42
-0.124869
  0
VERTEX
  8
0
 10
451.542495
 20
263.885277
 42
-0.072025
  0
VERTEX
  8
0
 10
454.543029
 20
266.022131
 42
0.056117
  0
VERTEX
  8
0
 10
459.692699
 20
269.448932
 42
0.063100
  0
VERTEX
  8
0
 10
463.725804
 20
273.817476
 42
0.058376
  0
VERTEX
  8
0
 10
466.768063
 20
279.348861
 42
0.038854
  0
VERTEX
  8
0
 10
468.967886
 20
286.250605
 42
0.037141
  0
VERTEX
  8
0
 10
469.626521
 20
290.421003
 42
0.054718
  0
VERTEX
  8
0
 10
469.526744
 20
294.124214
 42
0.048004
  0
VERTEX
  8
0
 10
468.596889
 20
298.056563
 42
0.021656
  0
VERTEX
  8
0
 10
466.671324
 20
303.000000
 42
0.061720
  0
VERTEX
  8
0
 10
464.625223
 20
306.428731
 42
0.010755
  0
VERTEX
  8
0
 10
459.862716
 20
312.284266
 42
0.012474
  0
VERTEX
  8
0
 10
454.584667
 20
318.190696
 42
0.025503
  0
VERTEX
  8
0
 10
450.105683
 20
322.495581
 42
-0.003233
  0
VERTEX
  8
0
 10
445.630162
 20
326.429251
 42
-0.038202
  0
VERTEX
  8
0
 10
444.025239
 20
328.094638
 42
-0.072879
  0
VERTEX
  8
0
 10
443.100060
 20
329.620564
 42
-0.025545
  0
VERTEX
  8
0
 10
442.222295
 20
332.036721
 42
0.001844
  0
VERTEX
  8
0
 10
439.157038
 20
341.908299
 42
0.003539
  0
VERTEX
  8
0
 10
436.613460
 20
349.798853
 42
0.003766
  0
VERTEX
  8
0
 10
434.571044
 20
355.831456
 42
0.021126
  0
VERTEX
  8
0
 10
433.319328
 20
359.000000
 42
-0.001543
  0
VERTEX
  8
0
 10
432.616563
 20
360.593391
 42
-0.000911
  0
VERTEX
  8
0
 10
431.786808
 20
362.500000
 42
-0.000912
  0
VERTEX
  8
0
 10
430.965234
 20
364.406781
 42
-0.001564
  0
VERTEX
  8
0
 10
430.288095
 20
366.000000
 42
0.023929
  0
VERTEX
  8
0
 10
424.629157
 20
377.817233
 42
0.019300
  0
VERTEX
  8
0
 10
417.474870
 20
389.942795
 42
0.019478
  0
VERTEX
  8
0
 10
409.503981
 20
401.333000
 42
0.026337
  0
VERTEX
  8
0
 10
401.387776
 20
410.925888
 42
-0.004905
  0
VERTEX
  8
0
 10
396.796970
 20
415.902889
 42
-0.046756
  0
VERTEX
  8
0
 10
395.067161
 20
418.217487
 42
-0.118354
  0
VERTEX
  8
0
 10
394.515325
 20
419.924070
 42
-0.107263
  0
VERTEX
  8
0
 10
394.768034
 20
421.762868
 42
0.009232
  0
VERTEX
  8
0
 10
395.236954
 20
423.123790
 42
0.003615
  0
VERTEX
  8
0
 10
395.835594
 20
425.017843
 42
0.003577
  0
VERTEX
  8
0
 10
396.453867
 20
427.076597
 42
0.004446
  0
VERTEX
  8
0
 10
396.998007
 20
429.000000
 42
-0.004812
  0
VERTEX
  8
0
 10
397.528381
 20
430.869529
 42
-0.004537
  0
VERTEX
  8
0
 10
398.104806
 20
432.765625
 42
-0.004514
  0
VERTEX
  8
0
 10
398.645855
 20
434.436089
 42
-0.015714
  0
VERTEX
  8
0
 10
399.038658
 20
435.500000
 42
0.018186
  0
VERTEX
  8
0
 10
399.394015
 20
436.477333
 42
0.008001
  0
VERTEX
  8
0
 10
399.795997
 20
437.793750
 42
0.007906
  0
VERTEX
  8
0
 10
400.178328
 20
439.205057
 42
0.010513
  0
VERTEX
  8
0
 10
400.478415
 20
440.500000
 42
-0.002116
  0
VERTEX
  8
0
 10
400.791860
 20
441.963950
 42
-0.000877
  0
VERTEX
  8
0
 10
401.227472
 20
443.940625
 42
-0.000867
  0
VERTEX
  8
0
 10
401.701729
 20
446.057498
 42
-0.001119
  0
VERTEX
  8
0
 10
402.145030
 20
448.000000
 42
0.021412
  0
VERTEX
  8
0
 10
403.222913
 20
453.798574
 42
0.025347
  0
VERTEX
  8
0
 10
403.725542
 20
459.350307
 42
0.026623
  0
VERTEX
  8
0
 10
403.661566
 20
464.044613
 42
0.098860
  0
VERTEX
  8
0
 10
402.893454
 20
466.886883
 42
0.044385
  0
VERTEX
  8
0
 10
401.052014
 20
469.892152
 42
0.037663
  0
VERTEX
  8
0
 10
398.613898
 20
472.707390
 42
0.038681
  0
VERTEX
  8
0
 10
395.872823
 20
475.037095
 42
0.057324
  0
VERTEX
  8
0
 10
393.127876
 20
476.581906
 42
0.087675
  0
VERTEX
  8
0
 10
388.299289
 20
477.677802
 42
0.009674
  0
VERTEX
  8
0
 10
376.922366
 20
478.007007
 42
0.012339
  0
VERTEX
  8
0
 10
365.404025
 20
477.833096
 42
0.040087
  0
VERTEX
  8
0
 10
357.826290
 20
476.920098
 42
0.013441
  0
VERTEX
  8
0
 10
348.616671
 20
474.793640
 42
0.017328
  0
VERTEX
  8
0
 10
340.293071
 20
472.323796
 42
0.018061
  0
VERTEX
  8
0
 10
332.452156
 20
469.379416
 42
0.017106
  0
VERTEX
  8
0
 10
324.698201
 20
465.827538
 42
0.000000
  0
VERTEX
  8
0
 10
316.896402
 20
461.925591
 42
0.000000
  0
VERTEX
  8
0
 10
311.198201
 20
463.361551
 42
0.013605
  0
VERTEX
  8
0
 10
302.140249
 20
465.383802
 42
0.021493
  0
VERTEX
  8
0
 10
294.270661
 20
466.568895
 42
0.016397
  0
VERTEX
  8
0
 10
284.952969
 20
467.256841
 42
0.004715
  0
VERTEX
  8
0
 10
270.500000
 20
467.711947
 42
0.006687
  0
VERTEX
  8
0
 10
255.649858
 20
467.840794
 42
0.012515
  0
VERTEX
  8
0
 10
243.640912
 20
467.483713
 42
0.014579
  0
VERTEX
  8
0
 10
233.017939
 20
466.590228
 42
0.014723
  0
VERTEX
  8
0
 10
222.500000
 20
465.081077
 42
0.013612
  0
VERTEX
  8
0
 10
216.857331
 20
463.942092
 42
0.010335
  0
VERTEX
  8
0
 10
210.737203
 20
462.398477
 42
0.006062
  0
VERTEX
  8
0
 10
205.126240
 20
460.785872
 42
0.114673
  0
VERTEX
  8
0
 10
203.550000
 20
459.882680
 42
-0.085870
  0
VERTEX
  8
0
 10
203.029106
 20
459.543367
 42
-0.034057
  0
VERTEX
  8
0
 10
202.220774
 20
459.259287
 42
-0.032455
  0
VERTEX
  8
0
 10
201.286672
 20
459.065086
 42
-0.035038
  0
VERTEX
  8
0
 10
200.359017
 20
459.000000
 42
0.040867
  0
VERTEX
  8
0
 10
199.455898
 20
458.926061
 42
0.043300
  0
VERTEX
  8
0
 10
198.594775
 20
458.706250
 42
0.047457
  0
VERTEX
  8
0
 10
197.894786
 20
458.384107
 42
0.123387
  0
VERTEX
  8
0
 10
197.500000
 20
458.000000
 42
-0.128561
  0
VERTEX
  8
0
 10
197.096789
 20
457.615613
 42
-0.046040
  0
VERTEX
  8
0
 10
196.363811
 20
457.293750
 42
-0.041947
  0
VERTEX
  8
0
 10
195.457084
 20
457.073871
 42
-0.038534
  0
VERTEX
  8
0
 10
194.500000
 20
457.000000
 42
0.038534
  0
VERTEX
  8
0
 10
193.542916
 20
456.926129
 42
0.041947
  0
VERTEX
  8
0
 10
192.636189
 20
456.706250
 42
0.046040
  0
VERTEX
  8
0
 10
191.903211
 20
456.384387
 42
0.128561
  0
VERTEX
  8
0
 10
191.500000
 20
456.000000
 42
-0.107351
  0
VERTEX
  8
0
 10
191.130118
 20
455.616603
 42
-0.051043
  0
VERTEX
  8
0
 10
190.521109
 20
455.293750
 42
-0.047291
  0
VERTEX
  8
0
 10
189.787640
 20
455.074115
 42
-0.049149
  0
VERTEX
  8
0
 10
189.035484
 20
455.000000
 42
0.062462
  0
VERTEX
  8
0
 10
188.074158
 20
454.879436
 42
0.017022
  0
VERTEX
  8
0
 10
186.602084
 20
454.450447
 42
0.016940
  0
VERTEX
  8
0
 10
184.951849
 20
453.845291
 42
0.016884
  0
VERTEX
  8
0
 10
183.344501
 20
453.129182
 42
0.008655
  0
VERTEX
  8
0
 10
164.726793
 20
443.667389
 42
0.022975
  0
VERTEX
  8
0
 10
151.880144
 20
436.080654
 42
0.028473
  0
VERTEX
  8
0
 10
141.458217
 20
428.380449
 42
0.021521
  0
VERTEX
  8
0
 10
130.912907
 20
418.823102
 42
0.020656
  0
VERTEX
  8
0
 10
120.196303
 20
407.323360
 42
0.028482
  0
VERTEX
  8
0
 10
111.633230
 20
396.103678
 42
0.028281
  0
VERTEX
  8
0
 10
104.356671
 20
383.920701
 42
0.019947
  0
VERTEX
  8
0
 10
97.532875
 20
369.500000
 42
-0.003318
  0
VERTEX
  8
0
 10
96.814446
 20
367.841232
 42
-0.003160
  0
VERTEX
  8
0
 10
96.062482
 20
366.164923
 42
-0.003134
  0
VERTEX
  8
0
 10
95.379387
 20
364.692072
 42
-0.011215
  0
VERTEX
  8
0
 10
94.915933
 20
363.763569
 42
0.030570
  0
VERTEX
  8
0
 10
94.565160
 20
362.987010
 42
0.022387
  0
VERTEX
  8
0
 10
94.269055
 20
362.088618
 42
0.022764
  0
VERTEX
  8
0
 10
94.064929
 20
361.209273
 42
0.045676
  0
VERTEX
  8
0
 10
94.000000
 20
360.500000
 42
-0.045013
  0
VERTEX
  8
0
 10
93.936017
 20
359.790721
 42
-0.022473
  0
VERTEX
  8
0
 10
93.734880
 20
358.911382
 42
-0.022109
  0
VERTEX
  8
0
 10
93.443113
 20
358.012977
 42
-0.030286
  0
VERTEX
  8
0
 10
93.097464
 20
357.236431
 42
0.030247
  0
VERTEX
  8
0
 10
92.671366
 20
356.279348
 42
0.007820
  0
VERTEX
  8
0
 10
92.103601
 20
354.688202
 42
0.007928
  0
VERTEX
  8
0
 10
91.512296
 20
352.850174
 42
0.008002
  0
VERTEX
  8
0
 10
90.981488
 20
351.000000
 42
-0.002961
  0
VERTEX
  8
0
 10
90.455364
 20
349.093859
 42
-0.002516
  0
VERTEX
  8
0
 10
89.877855
 20
347.087500
 42
-0.002536
  0
VERTEX
  8
0
 10
89.333546
 20
345.265921
 42
-0.007145
  0
VERTEX
  8
0
 10
88.928419
 20
344.000000
 42
0.019341
  0
VERTEX
  8
0
 10
88.530450
 20
342.643329
 42
0.005008
  0
VERTEX
  8
0
 10
87.996412
 20
340.428889
 42
0.005087
  0
VERTEX
  8
0
 10
87.438153
 20
337.890152
 42
0.005167
  0
VERTEX
  8
0
 10
86.934684
 20
335.353664
 42
-0.031866
  0
VERTEX
  8
0
 10
85.946185
 20
331.471373
 42
-0.067938
  0
VERTEX
  8
0
 10
84.605495
 20
328.686678
 42
-0.039729
  0
VERTEX
  8
0
 10
82.153992
 20
325.552490
 42
-0.005270
  0
VERTEX
  8
0
 10
76.390289
 20
319.411749
 42
0.008307
  0
VERTEX
  8
0
 10
72.792495
 20
315.531641
 42
0.012050
  0
VERTEX
  8
0
 10
69.758398
 20
311.979832
 42
0.007728
  0
VERTEX
  8
0
 10
67.362473
 20
308.939417
 42
0.164444
  0
VERTEX
  8
0
 10
67.000000
 20
307.867102
 42
-0.051720
  0
VERTEX
  8
0
 10
66.925853
 20
307.152213
 42
-0.048292
  0
VERTEX
  8
0
 10
66.706250
 20
306.450275
 42
-0.051771
  0
VERTEX
  8
0
 10
66.383244
 20
305.863438
 42
-0.103014
  0
VERTEX
  8
0
 10
66.000000
 20
305.500000
 42
0.255656
  0
VERTEX
  8
0
 10
64.944297
 20
303.641688
 42
0.010767
  0
VERTEX
  8
0
 10
64.987439
 20
295.786495
 42
0.016542
  0
VERTEX
  8
0
 10
65.450307
 20
288.094924
 42
0.092652
  0
VERTEX
  8
0
 10
66.577246
 20
284.145611
 42
0.061004
  0
VERTEX
  8
0
 10
68.210631
 20
281.677363
 42
0.037798
  0
VERTEX
  8
0
 10
70.663614
 20
279.207725
 42
0.031994
  0
VERTEX
  8
0
 10
73.919432
 20
276.736467
 42
0.020204
  0
VERTEX
  8
0
 10
78.000000
 20
274.263276
 42
-0.035218
  0
VERTEX
  8
0
 10
79.862471
 20
273.056600
 42
-0.086495
  0
VERTEX
  8
0
 10
80.973959
 20
271.870509
 42
-0.080475
  0
VERTEX
  8
0
 10
81.663835
 20
270.324756
 42
-0.027574
  0
VERTEX
  8
0
 10
82.162375
 20
267.915397
 42
-0.000127
  0
VERTEX
  8
0
 10
82.497450
 20
265.677918
 42
-0.000044
  0
VERTEX
  8
0
 10
82.980171
 20
262.447023
 42
-0.000043
  0
VERTEX
  8
0
 10
83.511491
 20
258.886593
 42
-0.000051
  0
VERTEX
  8
0
 10
84.016218
 20
255.500000
 42
0.009266
  0
VERTEX
  8
0
 10
84.649011
 20
251.731821
 42
0.004515
  0
VERTEX
  8
0
 10
85.589017
 20
246.945824
 42
0.004476
  0
VERTEX
  8
0
 10
86.656896
 20
241.982419
 42
0.006454
  0
VERTEX
  8
0
 10
87.697301
 20
237.613445
 42
-0.012179
  0
VERTEX
  8
0
 10
89.263119
 20
230.687167
 42
-0.056360
  0
VERTEX
  8
0
 10
89.612690
 20
226.602544
 42
-0.055344
  0
VERTEX
  8
0
 10
89.045024
 20
222.509191
 42
-0.011481
  0
VERTEX
  8
0
 10
87.095081
 20
215.500000
 42
0.035725
  0
VERTEX
  8
0
 10
85.261246
 20
207.408750
 42
0.025094
  0
VERTEX
  8
0
 10
84.316727
 20
198.115067
 42
0.025444
  0
VERTEX
  8
0
 10
84.314673
 20
189.138837
 42
0.050359
  0
VERTEX
  8
0
 10
85.386920
 20
182.105177
 42
0.038963
  0
VERTEX
  8
0
 10
88.063986
 20
174.284352
 42
0.047270
  0
VERTEX
  8
0
 10
91.792625
 20
167.493924
 42
0.046173
  0
VERTEX
  8
0
 10
96.810033
 20
161.401089
 42
0.034609
  0
VERTEX
  8
0
 10
103.345316
 20
155.664297
 42
0.028185
  0
VERTEX
  8
0
 10
107.135294
 20
153.099825
 42
0.012574
  0
VERTEX
  8
0
 10
112.386198
 20
150.139350
 42
0.008238
  0
VERTEX
  8
0
 10
117.608967
 20
147.474803
 42
0.114315
  0
VERTEX
  8
0
 10
119.658567
 20
147.000000
 42
-0.139586
  0
VERTEX
  8
0
 10
120.073519
 20
146.881855
 42
-0.002007
  0
VERTEX
  8
0
 10
122.275300
 20
145.505200
 42
-0.005361
  0
VERTEX
  8
0
 10
124.819802
 20
143.861619
 42
-0.003488
  0
VERTEX
  8
0
 10
127.725032
 20
141.911319
 42
0.006039
  0
VERTEX
  8
0
 10
130.789615
 20
139.876646
 42
0.006538
  0
VERTEX
  8
0
 10
133.822928
 20
137.970884
 42
0.006194
  0
VERTEX
  8
0
 10
136.463174
 20
136.404393
 42
0.031279
  0
VERTEX
  8
0
 10
137.998014
 20
135.642882
 42
0.000000
  0
VERTEX
  8
0
 10
140.803827
 20
134.463126
 42
0.000000
  0
VERTEX
  8
0
 10
138.908302
 20
130.566137
 42
0.029621
  0
VERTEX
  8
0
 10
135.467080
 20
122.276834
 42
0.041698
  0
VERTEX
  8
0
 10
133.480591
 20
114.526792
 42
0.048595
  0
VERTEX
  8
0
 10
133.000227
 20
107.720236
 42
0.089280
  0
VERTEX
  8
0
 10
134.126382
 20
102.297053
 42
0.013961
  0
VERTEX
  8
0
 10
136.303664
 20
97.297883
 42
0.025927
  0
VERTEX
  8
0
 10
138.386973
 20
93.396936
 42
0.030603
  0
VERTEX
  8
0
 10
140.586849
 20
90.205719
 42
0.033155
  0
VERTEX
  8
0
 10
143.106146
 20
87.396351
 42
-0.019666
  0
VERTEX
  8
0
 10
145.368883
 20
85.005976
 42
-0.082885
  0
VERTEX
  8
0
 10
146.402977
 20
83.331581
 42
-0.081699
  0
VERTEX
  8
0
 10
146.844668
 20
81.400207
 42
-0.018790
  0
VERTEX
  8
0
 10
146.925877
 20
78.047052
 42
-0.009104
  0
VERTEX
  8
0
 10
146.848443
 20
75.595116
 42
-0.006183
  0
VERTEX
  8
0
 10
146.674989
 20
72.807572
 42
-0.006231
  0
VERTEX
  8
0
 10
146.440613
 20
70.119560
 42
-0.012412
  0
VERTEX
  8
0
 10
146.175877
 20
68.000000
 42
-0.018936
  0
VERTEX
  8
0
 10
145.729996
 20
65.642785
 42
-0.080372
  0
VERTEX
  8
0
 10
145.192395
 20
64.316916
 42
-0.131002
  0
VERTEX
  8
0
 10
144.413059
 20
63.569247
 42
-0.091016
  0
VERTEX
  8
0
 10
143.250000
 20
63.180449
 42
-0.139310
  0
VERTEX
  8
0
 10
141.981583
 20
63.353714
 42
-0.232725
  0
VERTEX
  8
0
 10
141.301488
 20
64.159698
 42
-0.057485
  0
VERTEX
  8
0
 10
141.042170
 20
66.162904
 42
-0.003473
  0
VERTEX
  8
0
 10
141.000000
 20
72.234282
 42
0.000000
  0
VERTEX
  8
0
 10
141.000000
 20
81.607666
 42
0.000000
  0
VERTEX
  8
0
 10
137.483934
 20
85.015572
 42
-0.047436
  0
VERTEX
  8
0
 10
134.699707
 20
88.279721
 42
-0.025039
  0
VERTEX
  8
0
 10
131.862399
 20
92.791769
 42
-0.023088
  0
VERTEX
  8
0
 10
129.605516
 20
97.289055
 42
-0.105121
  0
VERTEX
  8
0
 10
129.000000
 20
100.137327
 42
0.051843
  0
VERTEX
  8
0
 10
128.925852
 20
100.850522
 42
0.048337
  0
VERTEX
  8
0
 10
128.706250
 20
101.551026
 42
0.051802
  0
VERTEX
  8
0
 10
128.383237
 20
102.136858
 42
0.102813
  0
VERTEX
  8
0
 10
128.000000
 20
102.500000
 42
-0.248448
  0
VERTEX
  8
0
 10
127.152944
 20
103.945072
 42
-0.010789
  0
VERTEX
  8
0
 10
127.022279
 20
110.000000
 42
-0.010789
  0
VERTEX
  8
0
 10
127.152944
 20
116.054928
 42
-0.248448
  0
VERTEX
  8
0
 10
128.000000
 20
117.500000
 42
0.145663
  0
VERTEX
  8
0
 10
128.385511
 20
117.932576
 42
0.040643
  0
VERTEX
  8
0
 10
128.706250
 20
118.791465
 42
0.037350
  0
VERTEX
  8
0
 10
128.926375
 20
119.869117
 42
0.031717
  0
VERTEX
  8
0
 10
129.000000
 20
121.028601
 42
-0.049721
  0
VERTEX
  8
0
 10
129.135439
 20
122.387223
 42
-0.023912
  0
VERTEX
  8
0
 10
129.563157
 20
124.086842
 42
-0.023437
  0
VERTEX
  8
0
 10
130.183033
 20
125.832446
 42
-0.030928
  0
VERTEX
  8
0
 10
130.917129
 20
127.352455
 42
0.052402
  0
VERTEX
  8
0
 10
131.918339
 20
129.674774
 42
0.139819
  0
VERTEX
  8
0
 10
131.962116
 20
131.461148
 42
0.206309
  0
VERTEX
  8
0
 10
131.094803
 20
132.578103
 42
0.126580
  0
VERTEX
  8
0
 10
129.454988
 20
133.000000
 42
-0.116212
  0
VERTEX
  8
0
 10
128.893578
 20
133.132272
 42
-0.033069
  0
VERTEX
  8
0
 10
128.114642
 20
133.587500
 42
-0.031389
  0
VERTEX
  8
0
 10
127.277057
 20
134.234550
 42
-0.028687
  0
VERTEX
  8
0
 10
126.500000
 20
135.000000
 42
0.030542
  0
VERTEX
  8
0
 10
125.717205
 20
135.765408
 42
0.032529
  0
VERTEX
  8
0
 10
124.862576
 20
136.412500
 42
0.034438
  0
VERTEX
  8
0
 10
124.060035
 20
136.865827
 42
0.111796
  0
VERTEX
  8
0
 10
123.467457
 20
137.000000
 42
-0.091954
  0
VERTEX
  8
0
 10
122.913032
 20
137.102833
 42
-0.042731
  0
VERTEX
  8
0
 10
122.252301
 20
137.423794
 42
-0.040403
  0
VERTEX
  8
0
 10
121.596037
 20
137.890693
 42
-0.044765
  0
VERTEX
  8
0
 10
121.047552
 20
138.442703
 42
0.083127
  0
VERTEX
  8
0
 10
120.137849
 20
139.228103
 42
0.006461
  0
VERTEX
  8
0
 10
117.359870
 20
140.868490
 42
0.008683
  0
VERTEX
  8
0
 10
113.968096
 20
142.735161
 42
0.006523
  0
VERTEX
  8
0
 10
110.175107
 20
144.674778
 42
-0.032272
  0
VERTEX
  8
0
 10
101.395579
 20
149.750413
 42
-0.039838
  0
VERTEX
  8
0
 10
93.978987
 20
155.606130
 42
-0.042588
  0
VERTEX
  8
0
 10
88.000246
 20
162.184187
 42
-0.048452
  0
VERTEX
  8
0
 10
83.509344
 20
169.415353
 42
-0.013591
  0
VERTEX
  8
0
 10
82.165919
 20
172.331195
 42
-0.015049
  0
VERTEX
  8
0
 10
81.030870
 20
175.219271
 42
-0.014530
  0
VERTEX
  8
0
 10
80.211784
 20
177.730280
 42
-0.071687
  0
VERTEX
  8
0
 10
80.000000
 20
179.199841
 42
0.034347
  0
VERTEX
  8
0
 10
79.926272
 20
180.271844
 42
0.039242
  0
VERTEX
  8
0
 10
79.706250
 20
181.275639
 42
0.042963
  0
VERTEX
  8
0
 10
79.385014
 20
182.079688
 42
0.138692
  0
VERTEX
  8
0
 10
79.000000
 20
182.500000
 42
-0.230691
  0
VERTEX
  8
0
 10
78.585585
 20
183.155493
 42
-0.007624
  0
VERTEX
  8
0
 10
78.284044
 20
186.317485
 42
-0.012661
  0
VERTEX
  8
0
 10
78.069272
 20
190.253706
 42
-0.007297
  0
VERTEX
  8
0
 10
78.000000
 20
195.000000
 42
-0.007297
  0
VERTEX
  8
0
 10
78.069272
 20
199.746294
 42
-0.012661
  0
VERTEX
  8
0
 10
78.284044
 20
203.682515
 42
-0.007624
  0
VERTEX
  8
0
 10
78.585585
 20
206.844507
 42
-0.230691
  0
VERTEX
  8
0
 10
79.000000
 20
207.500000
 42
0.179846
  0
VERTEX
  8
0
 10
79.388891
 20
207.999702
 42
0.027581
  0
VERTEX
  8
0
 10
79.706250
 20
209.241025
 42
0.027868
  0
VERTEX
  8
0
 10
79.926887
 20
210.813184
 42
0.020930
  0
VERTEX
  8
0
 10
80.000000
 20
212.559017
 42
-0.021227
  0
VERTEX
  8
0
 10
80.072294
 20
214.261135
 42
-0.034160
  0
VERTEX
  8
0
 10
80.293750
 20
215.695461
 42
-0.037703
  0
VERTEX
  8
0
 10
80.611648
 20
216.734720
 42
-0.308946
  0
VERTEX
  8
0
 10
81.000000
 20
217.000000
 42
0.222681
  0
VERTEX
  8
0
 10
81.382793
 20
217.179376
 42
0.076538
  0
VERTEX
  8
0
 10
81.706250
 20
217.717039
 42
0.058208
  0
VERTEX
  8
0
 10
81.926830
 20
218.506280
 42
0.039081
  0
VERTEX
  8
0
 10
82.000000
 20
219.440983
 42
-0.037634
  0
VERTEX
  8
0
 10
82.073842
 20
220.420660
 42
-0.041396
  0
VERTEX
  8
0
 10
82.293750
 20
221.346475
 42
-0.045439
  0
VERTEX
  8
0
 10
82.615492
 20
222.093337
 42
-0.130646
  0
VERTEX
  8
0
 10
83.000000
 20
222.500000
 42
0.169477
  0
VERTEX
  8
0
 10
83.387676
 20
222.977976
 42
0.031768
  0
VERTEX
  8
0
 10
83.706250
 20
224.076814
 42
0.030777
  0
VERTEX
  8
0
 10
83.926732
 20
225.468386
 42
0.023905
  0
VERTEX
  8
0
 10
84.000000
 20
227.000000
 42
0.023905
  0
VERTEX
  8
0
 10
83.926732
 20
228.531614
 42
0.030777
  0
VERTEX
  8
0
 10
83.706250
 20
229.923186
 42
0.031768
  0
VERTEX
  8
0
 10
83.387676
 20
231.022024
 42
0.169477
  0
VERTEX
  8
0
 10
83.000000
 20
231.500000
 42
-0.159713
  0
VERTEX
  8
0
 10
82.613307
 20
231.958660
 42
-0.035556
  0
VERTEX
  8
0
 10
82.293750
 20
232.947275
 42
-0.033489
  0
VERTEX
  8
0
 10
82.073414
 20
234.196361
 42
-0.026918
  0
VERTEX
  8
0
 10
82.000000
 20
235.559017
 42
0.027497
  0
VERTEX
  8
0
 10
81.927436
 20
236.877484
 42
0.043243
  0
VERTEX
  8
0
 10
81.706250
 20
237.989211
 42
0.053437
  0
VERTEX
  8
0
 10
81.385522
 20
238.770364
 42
0.275259
  0
VERTEX
  8
0
 10
81.000000
 20
239.000000
 42
-0.308946
  0
VERTEX
  8
0
 10
80.611648
 20
239.265280
 42
-0.037703
  0
VERTEX
  8
0
 10
80.293750
 20
240.304539
 42
-0.034160
  0
VERTEX
  8
0
 10
80.072294
 20
241.738865
 42
-0.021227
  0
VERTEX
  8
0
 10
80.000000
 20
243.440983
 42
0.020930
  0
VERTEX
  8
0
 10
79.926887
 20
245.186816
 42
0.027868
  0
VERTEX
  8
0
 10
79.706250
 20
246.758975
 42
0.027581
  0
VERTEX
  8
0
 10
79.388891
 20
248.000298
 42
0.179846
  0
VERTEX
  8
0
 10
79.000000
 20
248.500000
 42
-0.193442
  0
VERTEX
  8
0
 10
78.609194
 20
249.030344
 42
-0.021940
  0
VERTEX
  8
0
 10
78.293750
 20
250.517439
 42
-0.023992
  0
VERTEX
  8
0
 10
78.072912
 20
252.393511
 42
-0.017301
  0
VERTEX
  8
0
 10
78.000000
 20
254.500000
 42
0.017301
  0
VERTEX
  8
0
 10
77.927088
 20
256.606489
 42
0.023992
  0
VERTEX
  8
0
 10
77.706250
 20
258.482561
 42
0.021940
  0
VERTEX
  8
0
 10
77.390806
 20
259.969656
 42
0.193442
  0
VERTEX
  8
0
 10
77.000000
 20
260.500000
 42
-0.151722
  0
VERTEX
  8
0
 10
76.614011
 20
260.943591
 42
-0.038510
  0
VERTEX
  8
0
 10
76.293750
 20
261.854905
 42
-0.035692
  0
VERTEX
  8
0
 10
76.073535
 20
263.002366
 42
-0.029573
  0
VERTEX
  8
0
 10
76.000000
 20
264.244566
 42
0.096986
  0
VERTEX
  8
0
 10
75.528170
 20
266.654142
 42
0.055135
  0
VERTEX
  8
0
 10
74.107132
 20
269.274647
 42
0.056496
  0
VERTEX
  8
0
 10
72.283489
 20
271.354210
 42
0.186622
  0
VERTEX
  8
0
 10
70.613538
 20
272.000000
 42
-0.192409
  0
VERTEX
  8
0
 10
68.654387
 20
272.782902
 42
-0.019032
  0
VERTEX
  8
0
 10
65.048123
 20
276.484222
 42
-0.020083
  0
VERTEX
  8
0
 10
61.745098
 20
280.452436
 42
-0.164975
  0
VERTEX
  8
0
 10
61.000000
 20
282.649191
 42
0.041011
  0
VERTEX
  8
0
 10
60.926057
 20
283.549168
 42
0.043381
  0
VERTEX
  8
0
 10
60.706250
 20
284.407636
 42
0.047538
  0
VERTEX
  8
0
 10
60.384091
 20
285.105712
 42
0.123077
  0
VERTEX
  8
0
 10
60.000000
 20
285.500000
 42
-0.253363
  0
VERTEX
  8
0
 10
59.112437
 20
287.046791
 42
-0.006164
  0
VERTEX
  8
0
 10
59.007523
 20
295.556692
 42
-0.005405
  0
VERTEX
  8
0
 10
59.100081
 20
304.119328
 42
-0.407896
  0
VERTEX
  8
0
 10
60.000000
 20
305.000000
 42
0.254951
  0
VERTEX
  8
0
 10
60.384262
 20
305.209557
 42
0.062710
  0
VERTEX
  8
0
 10
60.706250
 20
305.881250
 42
0.048861
  0
VERTEX
  8
0
 10
60.927234
 20
306.850749
 42
0.031626
  0
VERTEX
  8
0
 10
61.000000
 20
308.000000
 42
-0.031626
  0
VERTEX
  8
0
 10
61.072766
 20
309.149251
 42
-0.048861
  0
VERTEX
  8
0
 10
61.293750
 20
310.118750
 42
-0.062710
  0
VERTEX
  8
0
 10
61.615738
 20
310.790443
 42
-0.254951
  0
VERTEX
  8
0
 10
62.000000
 20
311.000000
 42
0.157870
  0
VERTEX
  8
0
 10
62.381407
 20
311.123503
 42
0.097177
  0
VERTEX
  8
0
 10
62.706250
 20
311.471681
 42
0.079099
  0
VERTEX
  8
0
 10
62.925567
 20
311.991677
 42
0.060388
  0
VERTEX
  8
0
 10
63.000000
 20
312.605721
 42
-0.172828
  0
VERTEX
  8
0
 10
63.342664
 20
313.567457
 42
-0.008995
  0
VERTEX
  8
0
 10
65.496875
 20
316.111889
 42
-0.013375
  0
VERTEX
  8
0
 10
68.243380
 20
319.076204
 42
-0.009247
  0
VERTEX
  8
0
 10
71.500000
 20
322.286770
 42
0.006423
  0
VERTEX
  8
0
 10
76.176848
 20
326.845680
 42
0.035490
  0
VERTEX
  8
0
 10
78.478860
 20
329.500347
 42
0.068728
  0
VERTEX
  8
0
 10
79.612508
 20
331.545340
 42
0.092497
  0
VERTEX
  8
0
 10
80.000000
 20
333.622032
 42
-0.028386
  0
VERTEX
  8
0
 10
80.073482
 20
334.915331
 42
-0.034728
  0
VERTEX
  8
0
 10
80.293750
 20
336.105908
 42
-0.037233
  0
VERTEX
  8
0
 10
80.613713
 20
337.049879
 42
-0.155226
  0
VERTEX
  8
0
 10
81.000000
 20
337.500000
 42
0.158284
  0
VERTEX
  8
0
 10
81.386560
 20
337.955916
 42
0.036095
  0
VERTEX
  8
0
 10
81.706250
 20
338.929939
 42
0.033884
  0
VERTEX
  8
0
 10
81.926564
 20
340.159953
 42
0.027380
  0
VERTEX
  8
0
 10
82.000000
 20
341.500000
 42
-0.027380
  0
VERTEX
  8
0
 10
82.073436
 20
342.840047
 42
-0.033884
  0
VERTEX
  8
0
 10
82.293750
 20
344.070061
 42
-0.036095
  0
VERTEX
  8
0
 10
82.613440
 20
345.044084
 42
-0.158284
  0
VERTEX
  8
0
 10
83.000000
 20
345.500000
 42
0.128561
  0
VERTEX
  8
0
 10
83.384387
 20
345.903211
 42
0.046040
  0
VERTEX
  8
0
 10
83.706250
 20
346.636189
 42
0.041947
  0
VERTEX
  8
0
 10
83.926129
 20
347.542916
 42
0.038534
  0
VERTEX
  8
0
 10
84.000000
 20
348.500000
 42
-0.038534
  0
VERTEX
  8
0
 10
84.073871
 20
349.457084
 42
-0.041947
  0
VERTEX
  8
0
 10
84.293750
 20
350.363811
 42
-0.046040
  0
VERTEX
  8
0
 10
84.615613
 20
351.096789
 42
-0.128561
  0
VERTEX
  8
0
 10
85.000000
 20
351.500000
 42
0.158284
  0
VERTEX
  8
0
 10
85.386560
 20
351.955916
 42
0.036095
  0
VERTEX
  8
0
 10
85.706250
 20
352.929939
 42
0.033884
  0
VERTEX
  8
0
 10
85.926564
 20
354.159953
 42
0.027380
  0
VERTEX
  8
0
 10
86.000000
 20
355.500000
 42
-0.027380
  0
VERTEX
  8
0
 10
86.073436
 20
356.840047
 42
-0.033884
  0
VERTEX
  8
0
 10
86.293750
 20
358.070061
 42
-0.036095
  0
VERTEX
  8
0
 10
86.613440
 20
359.044084
 42
-0.158284
  0
VERTEX
  8
0
 10
87.000000
 20
359.500000
 42
0.110120
  0
VERTEX
  8
0
 10
87.383504
 20
359.874059
 42
0.050520
  0
VERTEX
  8
0
 10
87.706250
 20
360.497715
 42
0.046631
  0
VERTEX
  8
0
 10
87.925910
 20
361.251926
 42
0.047589
  0
VERTEX
  8
0
 10
88.000000
 20
362.028601
 42
-0.067431
  0
VERTEX
  8
0
 10
88.131636
 20
363.000242
 42
-0.020286
  0
VERTEX
  8
0
 10
88.587500
 20
364.423933
 42
-0.019929
  0
VERTEX
  8
0
 10
89.234469
 20
365.996507
 42
-0.020403
  0
VERTEX
  8
0
 10
90.000000
 20
367.500000
 42
0.020986
  0
VERTEX
  8
0
 10
90.765531
 20
369.007834
 42
0.020208
  0
VERTEX
  8
0
 10
91.412500
 20
370.593403
 42
0.020615
  0
VERTEX
  8
0
 10
91.867537
 20
372.034859
 42
0.066235
  0
VERTEX
  8
0
 10
92.000000
 20
373.030416
 42
-0.048799
  0
VERTEX
  8
0
 10
92.073739
 20
373.784157
 42
-0.068799
  0
VERTEX
  8
0
 10
92.293750
 20
374.421435
 42
-0.088982
  0
VERTEX
  8
0
 10
92.618168
 20
374.850583
 42
-0.188692
  0
VERTEX
  8
0
 10
93.000000
 20
375.000000
 42
0.191087
  0
VERTEX
  8
0
 10
93.381882
 20
375.151477
 42
0.088204
  0
VERTEX
  8
0
 10
93.706250
 20
375.587500
 42
0.068025
  0
VERTEX
  8
0
 10
93.926307
 20
376.234582
 42
0.048028
  0
VERTEX
  8
0
 10
94.000000
 20
377.000000
 42
-0.048028
  0
VERTEX
  8
0
 10
94.073693
 20
377.765418
 42
-0.068025
  0
VERTEX
  8
0
 10
94.293750
 20
378.412500
 42
-0.088204
  0
VERTEX
  8
0
 10
94.618118
 20
378.848523
 42
-0.191087
  0
VERTEX
  8
0
 10
95.000000
 20
379.000000
 42
0.191087
  0
VERTEX
  8
0
 10
95.381882
 20
379.151477
 42
0.088204
  0
VERTEX
  8
0
 10
95.706250
 20
379.587500
 42
0.068025
  0
VERTEX
  8
0
 10
95.926307
 20
380.234582
 42
0.048028
  0
VERTEX
  8
0
 10
96.000000
 20
381.000000
 42
-0.048028
  0
VERTEX
  8
0
 10
96.073693
 20
381.765418
 42
-0.068025
  0
VERTEX
  8
0
 10
96.293750
 20
382.412500
 42
-0.088204
  0
VERTEX
  8
0
 10
96.618118
 20
382.848523
 42
-0.191087
  0
VERTEX
  8
0
 10
97.000000
 20
383.000000
 42
0.191087
  0
VERTEX
  8
0
 10
97.381882
 20
383.151477
 42
0.088204
  0
VERTEX
  8
0
 10
97.706250
 20
383.587500
 42
0.068025
  0
VERTEX
  8
0
 10
97.926307
 20
384.234582
 42
0.048028
  0
VERTEX
  8
0
 10
98.000000
 20
385.000000
 42
-0.048028
  0
VERTEX
  8
0
 10
98.073693
 20
385.765418
 42
-0.068025
  0
VERTEX
  8
0
 10
98.293750
 20
386.412500
 42
-0.088204
  0
VERTEX
  8
0
 10
98.618118
 20
386.848523
 42
-0.191087
  0
VERTEX
  8
0
 10
99.000000
 20
387.000000
 42
0.160289
  0
VERTEX
  8
0
 10
99.381426
 20
387.125502
 42
0.096675
  0
VERTEX
  8
0
 10
99.706250
 20
387.479607
 42
0.078271
  0
VERTEX
  8
0
 10
99.925629
 20
388.008301
 42
0.059344
  0
VERTEX
  8
0
 10
100.000000
 20
388.632705
 42
-0.085935
  0
VERTEX
  8
0
 10
100.128434
 20
389.374461
 42
-0.040803
  0
VERTEX
  8
0
 10
100.529036
 20
390.260883
 42
-0.038856
  0
VERTEX
  8
0
 10
101.111830
 20
391.143290
 42
-0.044458
  0
VERTEX
  8
0
 10
101.800973
 20
391.882705
 42
0.044479
  0
VERTEX
  8
0
 10
102.606276
 20
392.746822
 42
0.017855
  0
VERTEX
  8
0
 10
103.553024
 20
394.057451
 42
0.017501
  0
VERTEX
  8
0
 10
104.478563
 20
395.550665
 42
0.021160
  0
VERTEX
  8
0
 10
105.236376
 20
397.015000
 42
-0.027525
  0
VERTEX
  8
0
 10
106.048500
 20
398.536537
 42
-0.017820
  0
VERTEX
  8
0
 10
107.144042
 20
400.205204
 42
-0.017922
  0
VERTEX
  8
0
 10
108.334724
 20
401.763583
 42
-0.032094
  0
VERTEX
  8
0
 10
109.435402
 20
402.939314
 42
0.020010
  0
VERTEX
  8
0
 10
110.417283
 20
403.938640
 42
0.024620
  0
VERTEX
  8
0
 10
111.246649
 20
404.948971
 42
0.024224
  0
VERTEX
  8
0
 10
111.847153
 20
405.846463
 42
0.136142
  0
VERTEX
  8
0
 10
112.000000
 20
406.397409
 42
-0.170091
  0
VERTEX
  8
0
 10
112.225892
 20
407.042232
 42
-0.007163
  0
VERTEX
  8
0
 10
113.790021
 20
408.944185
 42
-0.011645
  0
VERTEX
  8
0
 10
115.758836
 20
411.162616
 42
-0.007948
  0
VERTEX
  8
0
 10
118.093690
 20
413.594530
 42
0.008654
  0
VERTEX
  8
0
 10
120.512884
 20
416.121429
 42
0.009799
  0
VERTEX
  8
0
 10
122.742814
 20
418.629710
 42
0.009110
  0
VERTEX
  8
0
 10
124.553132
 20
420.828052
 42
0.052095
  0
VERTEX
  8
0
 10
125.363398
 20
422.101728
 42
-0.049162
  0
VERTEX
  8
0
 10
125.984217
 20
423.090334
 42
-0.031325
  0
VERTEX
  8
0
 10
126.882095
 20
424.110743
 42
-0.031347
  0
VERTEX
  8
0
 10
127.899052
 20
425.009694
 42
-0.049721
  0
VERTEX
  8
0
 10
128.882004
 20
425.628492
 42
0.045364
  0
VERTEX
  8
0
 10
130.082252
 20
426.369593
 42
0.011126
  0
VERTEX
  8
0
 10
131.908872
 20
427.805105
 42
0.011304
  0
VERTEX
  8
0
 10
133.936076
 20
429.550828
 42
0.011072
  0
VERTEX
  8
0
 10
135.896645
 20
431.398199
 42
-0.010360
  0
VERTEX
  8
0
 10
137.762203
 20
433.161064
 42
-0.014585
  0
VERTEX
  8
0
 10
139.502175
 20
434.648221
 42
-0.010735
  0
VERTEX
  8
0
 10
140.993193
 20
435.797257
 42
-0.160125
  0
VERTEX
  8
0
 10
141.610035
 20
436.000000
 42
0.135023
  0
VERTEX
  8
0
 10
142.155213
 20
436.149957
 42
0.024652
  0
VERTEX
  8
0
 10
143.035389
 20
436.734375
 42
0.024929
  0
VERTEX
  8
0
 10
144.024452
 20
437.542870
 42
0.020372
  0
VERTEX
  8
0
 10
145.000000
 20
438.500000
 42
-0.022829
  0
VERTEX
  8
0
 10
145.985061
 20
439.457015
 42
-0.026922
  0
VERTEX
  8
0
 10
147.002611
 20
440.265625
 42
-0.027374
  0
VERTEX
  8
0
 10
147.919572
 20
440.844242
 42
-0.127733
  0
VERTEX
  8
0
 10
148.519326
 20
441.000000
 42
0.107799
  0
VERTEX
  8
0
 10
149.080991
 20
441.122517
 42
0.035607
  0
VERTEX
  8
0
 10
149.825942
 20
441.530184
 42
0.033542
  0
VERTEX
  8
0
 10
150.612004
 20
442.114177
 42
0.032314
  0
VERTEX
  8
0
 10
151.323420
 20
442.804882
 42
-0.049717
  0
VERTEX
  8
0
 10
152.195479
 20
443.594587
 42
-0.020718
  0
VERTEX
  8
0
 10
153.511473
 20
444.485473
 42
-0.020253
  0
VERTEX
  8
0
 10
155.010365
 20
445.330139
 42
-0.024694
  0
VERTEX
  8
0
 10
156.478408
 20
445.991528
 42
0.018719
  0
VERTEX
  8
0
 10
157.827496
 20
446.580040
 42
0.027162
  0
VERTEX
  8
0
 10
158.965532
 20
447.206322
 42
0.025798
  0
VERTEX
  8
0
 10
159.807666
 20
447.793630
 42
0.231569
  0
VERTEX
  8
0
 10
160.000000
 20
448.186646
 42
-0.205233
  0
VERTEX
  8
0
 10
160.133221
 20
448.497536
 42
-0.083276
  0
VERTEX
  8
0
 10
160.522652
 20
448.761077
 42
-0.063541
  0
VERTEX
  8
0
 10
161.098127
 20
448.940267
 42
-0.043766
  0
VERTEX
  8
0
 10
161.779241
 20
449.000000
 42
0.091287
  0
VERTEX
  8
0
 10
162.565449
 20
449.144747
 42
0.047927
  0
VERTEX
  8
0
 10
163.459276
 20
449.587500
 42
0.045499
  0
VERTEX
  8
0
 10
164.316802
 20
450.234851
 42
0.052224
  0
VERTEX
  8
0
 10
165.000000
 20
451.000000
 42
-0.071939
  0
VERTEX
  8
0
 10
165.772663
 20
451.799784
 42
-0.054179
  0
VERTEX
  8
0
 10
166.815796
 20
452.440426
 42
-0.052617
  0
VERTEX
  8
0
 10
168.007617
 20
452.858496
 42
-0.058124
  0
VERTEX
  8
0
 10
169.220759
 20
453.000000
 42
0.034201
  0
VERTEX
  8
0
 10
170.285290
 20
453.072901
 42
0.052207
  0
VERTEX
  8
0
 10
171.183598
 20
453.293750
 42
0.067924
  0
VERTEX
  8
0
 10
171.801694
 20
453.616345
 42
0.243162
  0
VERTEX
  8
0
 10
172.000000
 20
454.000000
 42
-0.191087
  0
VERTEX
  8
0
 10
172.151477
 20
454.381882
 42
-0.088204
  0
VERTEX
  8
0
 10
172.587500
 20
454.706250
 42
-0.068025
  0
VERTEX
  8
0
 10
173.234582
 20
454.926307
 42
-0.048028
  0
VERTEX
  8
0
 10
174.000000
 20
455.000000
 42
0.035668
  0
VERTEX
  8
0
 10
174.766546
 20
455.054752
 42
0.053772
  0
VERTEX
  8
0
 10
175.414792
 20
455.220312
 42
0.069969
  0
VERTEX
  8
0
 10
175.860952
 20
455.462433
 42
0.235061
  0
VERTEX
  8
0
 10
176.007802
 20
455.750000
 42
-0.265512
  0
VERTEX
  8
0
 10
176.498936
 20
456.589288
 42
-0.023691
  0
VERTEX
  8
0
 10
178.757557
 20
457.750613
 42
-0.030124
  0
VERTEX
  8
0
 10
181.240350
 20
458.705950
 42
-0.076924
  0
VERTEX
  8
0
 10
183.140348
 20
459.000000
 42
0.051928
  0
VERTEX
  8
0
 10
183.852387
 20
459.074149
 42
0.048368
  0
VERTEX
  8
0
 10
184.551913
 20
459.293750
 42
0.051823
  0
VERTEX
  8
0
 10
185.137060
 20
459.616767
 42
0.102676
  0
VERTEX
  8
0
 10
185.500000
 20
460.000000
 42
-0.128561
  0
VERTEX
  8
0
 10
185.903211
 20
460.384387
 42
-0.046040
  0
VERTEX
  8
0
 10
186.636189
 20
460.706250
 42
-0.041947
  0
VERTEX
  8
0
 10
187.542916
 20
460.926129
 42
-0.038534
  0
VERTEX
  8
0
 10
188.500000
 20
461.000000
 42
0.038534
  0
VERTEX
  8
0
 10
189.457084
 20
461.073871
 42
0.041947
  0
VERTEX
  8
0
 10
190.363811
 20
461.293750
 42
0.046040
  0
VERTEX
  8
0
 10
191.096789
 20
461.615613
 42
0.128561
  0
VERTEX
  8
0
 10
191.500000
 20
462.000000
 42
-0.110120
  0
VERTEX
  8
0
 10
191.874059
 20
462.383504
 42
-0.050520
  0
VERTEX
  8
0
 10
192.497715
 20
462.706250
 42
-0.046631
  0
VERTEX
  8
0
 10
193.251926
 20
462.925910
 42
-0.047589
  0
VERTEX
  8
0
 10
194.028601
 20
463.000000
 42
0.067431
  0
VERTEX
  8
0
 10
195.000242
 20
463.131636
 42
0.020286
  0
VERTEX
  8
0
 10
196.423933
 20
463.587500
 42
0.019929
  0
VERTEX
  8
0
 10
197.996507
 20
464.234469
 42
0.020403
  0
VERTEX
  8
0
 10
199.500000
 20
465.000000
 42
-0.029814
  0
VERTEX
  8
0
 10
201.076616
 20
465.765768
 42
-0.023203
  0
VERTEX
  8
0
 10
202.869817
 20
466.412500
 42
-0.023721
  0
VERTEX
  8
0
 10
204.603115
 20
466.859345
 42
-0.051263
  0
VERTEX
  8
0
 10
205.971399
 20
467.000000
 42
0.031717
  0
VERTEX
  8
0
 10
207.130883
 20
467.073625
 42
0.037350
  0
VERTEX
  8
0
 10
208.208535
 20
467.293750
 42
0.040643
  0
VERTEX
  8
0
 10
209.067424
 20
467.614489
 42
0.145663
  0
VERTEX
  8
0
 10
209.500000
 20
468.000000
 42
-0.159713
  0
VERTEX
  8
0
 10
209.958660
 20
468.386693
 42
-0.035556
  0
VERTEX
  8
0
 10
210.947275
 20
468.706250
 42
-0.033489
  0
VERTEX
  8
0
 10
212.196361
 20
468.926586
 42
-0.026918
  0
VERTEX
  8
0
 10
213.559017
 20
469.000000
 42
0.027497
  0
VERTEX
  8
0
 10
214.877484
 20
469.072564
 42
0.043243
  0
VERTEX
  8
0
 10
215.989211
 20
469.293750
 42
0.053437
  0
VERTEX
  8
0
 10
216.770364
 20
469.614478
 42
0.275259
  0
VERTEX
  8
0
 10
217.000000
 20
470.000000
 42
-0.331172
  0
VERTEX
  8
0
 10
217.290799
 20
470.390894
 42
-0.027462
  0
VERTEX
  8
0
 10
218.598289
 20
470.706250
 42
-0.028158
  0
VERTEX
  8
0
 10
220.355280
 20
470.927848
 42
-0.017292
  0
VERTEX
  8
0
 10
222.440983
 20
471.000000
 42
0.017115
  0
VERTEX
  8
0
 10
224.570094
 20
471.072902
 42
0.023783
  0
VERTEX
  8
0
 10
226.465225
 20
471.293750
 42
0.021638
  0
VERTEX
  8
0
 10
227.967949
 20
471.609080
 42
0.194165
  0
VERTEX
  8
0
 10
228.500000
 20
472.000000
 42
-0.212149
  0
VERTEX
  8
0
 10
229.077326
 20
472.394227
 42
-0.014168
  0
VERTEX
  8
0
 10
231.104939
 20
472.706250
 42
-0.018453
  0
VERTEX
  8
0
 10
233.626814
 20
472.927361
 42
-0.012639
  0
VERTEX
  8
0
 10
236.500000
 20
473.000000
 42
0.012639
  0
VERTEX
  8
0
 10
239.373186
 20
473.072639
 42
0.018453
  0
VERTEX
  8
0
 10
241.895061
 20
473.293750
 42
0.014168
  0
VERTEX
  8
0
 10
243.922674
 20
473.605773
 42
0.212149
  0
VERTEX
  8
0
 10
244.500000
 20
474.000000
 42
-0.240958
  0
VERTEX
  8
0
 10
245.223613
 20
474.438016
 42
-0.004397
  0
VERTEX
  8
0
 10
249.839345
 20
474.727453
 42
-0.009059
  0
VERTEX
  8
0
 10
255.640731
 20
474.934729
 42
-0.004399
  0
VERTEX
  8
0
 10
263.059017
 20
475.000000
 42
-0.004075
  0
VERTEX
  8
0
 10
270.653530
 20
474.938103
 42
-0.009845
  0
VERTEX
  8
0
 10
276.264754
 20
474.736065
 42
-0.004844
  0
VERTEX
  8
0
 10
280.579202
 20
474.453629
 42
-0.392396
  0
VERTEX
  8
0
 10
281.000000
 20
474.000000
 42
0.354422
  0
VERTEX
  8
0
 10
281.331844
 20
473.590659
 42
0.018695
  0
VERTEX
  8
0
 10
283.110246
 20
473.283598
 42
0.021763
  0
VERTEX
  8
0
 10
285.489494
 20
473.068713
 42
0.011639
  0
VERTEX
  8
0
 10
288.440983
 20
473.000000
 42
-0.012539
  0
VERTEX
  8
0
 10
291.336795
 20
472.927367
 42
-0.018327
  0
VERTEX
  8
0
 10
293.877725
 20
472.706250
 42
-0.014001
  0
VERTEX
  8
0
 10
295.921570
 20
472.394315
 42
-0.212560
  0
VERTEX
  8
0
 10
296.500000
 20
472.000000
 42
0.193442
  0
VERTEX
  8
0
 10
297.030344
 20
471.609194
 42
0.021940
  0
VERTEX
  8
0
 10
298.517439
 20
471.293750
 42
0.023992
  0
VERTEX
  8
0
 10
300.393511
 20
471.072912
 42
0.017301
  0
VERTEX
  8
0
 10
302.500000
 20
471.000000
 42
-0.017301
  0
VERTEX
  8
0
 10
304.606489
 20
470.927088
 42
-0.023992
  0
VERTEX
  8
0
 10
306.482561
 20
470.706250
 42
-0.021940
  0
VERTEX
  8
0
 10
307.969656
 20
470.390806
 42
-0.193442
  0
VERTEX
  8
0
 10
308.500000
 20
470.000000
 42
0.243469
  0
VERTEX
  8
0
 10
310.214115
 20
468.973494
 42
0.051002
  0
VERTEX
  8
0
 10
313.823027
 20
469.117863
 42
0.045675
  0
VERTEX
  8
0
 10
318.187229
 20
470.154375
 42
0.039968
  0
VERTEX
  8
0
 10
322.500000
 20
472.000000
 42
-0.009106
  0
VERTEX
  8
0
 10
324.783997
 20
473.148848
 42
-0.011648
  0
VERTEX
  8
0
 10
326.929669
 20
474.118750
 42
-0.009639
  0
VERTEX
  8
0
 10
328.747590
 20
474.848997
 42
-0.090921
  0
VERTEX
  8
0
 10
329.571129
 20
475.000000
 42
0.077562
  0
VERTEX
  8
0
 10
330.305314
 20
475.114579
 42
0.017131
  0
VERTEX
  8
0
 10
331.508355
 20
475.545406
 42
0.017418
  0
VERTEX
  8
0
 10
332.878937
 20
476.145960
 42
0.015988
  0
VERTEX
  8
0
 10
334.244867
 20
476.856700
 42
-0.041243
  0
VERTEX
  8
0
 10
335.912515
 20
477.620141
 42
-0.017355
  0
VERTEX
  8
0
 10
338.261152
 20
478.378101
 42
-0.017032
  0
VERTEX
  8
0
 10
340.841219
 20
479.018798
 42
-0.021264
  0
VERTEX
  8
0
 10
343.275283
 20
479.428656
 42
0.014983
  0
VERTEX
  8
0
 10
345.469536
 20
479.769857
 42
0.023832
  0
VERTEX
  8
0
 10
347.318364
 20
480.206419
 42
0.020395
  0
VERTEX
  8
0
 10
348.724035
 20
480.672744
 42
0.311993
  0
VERTEX
  8
0
 10
349.000000
 20
481.071956
 42
-0.352361
  0
VERTEX
  8
0
 10
349.294235
 20
481.437636
 42
-0.018149
  0
VERTEX
  8
0
 10
350.892039
 20
481.727387
 42
-0.022244
  0
VERTEX
  8
0
 10
352.971658
 20
481.933143
 42
-0.013535
  0
VERTEX
  8
0
 10
355.440983
 20
482.000000
 42
0.014475
  0
VERTEX
  8
0
 10
357.953428
 20
482.072748
 42
0.020711
  0
VERTEX
  8
0
 10
360.171475
 20
482.293750
 42
0.017258
  0
VERTEX
  8
0
 10
361.942244
 20
482.607273
 42
0.204655
  0
VERTEX
  8
0
 10
362.500000
 20
483.000000
 42
-0.234032
  0
VERTEX
  8
0
 10
363.176747
 20
483.421870
 42
-0.006584
  0
VERTEX
  8
0
 10
366.694844
 20
483.719772
 42
-0.011543
  0
VERTEX
  8
0
 10
371.093106
 20
483.932035
 42
-0.006285
  0
VERTEX
  8
0
 10
376.500000
 20
484.000000
 42
-0.006285
  0
VERTEX
  8
0
 10
381.906894
 20
483.932035
 42
-0.011543
  0
VERTEX
  8
0
 10
386.305156
 20
483.719772
 42
-0.006584
  0
VERTEX
  8
0
 10
389.823253
 20
483.421870
 42
-0.234032
  0
SEQEND
  0
POLYLINE
  8
0
 66
1
 70
1
  0
VERTEX
  8
0
 10
391.404755
 20
469.861443
 42
-0.112137
  0
VERTEX
  8
0
 10
393.918864
 20
467.946761
 42
-0.082497
  0
VERTEX
  8
0
 10
395.700964
 20
464.918864
 42
-0.071289
  0
VERTEX
  8
0
 10
396.587551
 20
461.045326
 42
-0.053721
  0
VERTEX
  8
0
 10
396.479680
 20
456.673341
 42
-0.025615
  0
VERTEX
  8
0
 10
395.120463
 20
449.338284
 42
-0.008927
  0
VERTEX
  8
0
 10
392.438140
 20
438.933314
 42
-0.003348
  0
VERTEX
  8
0
 10
389.393785
 20
428.219290
 42
-0.187714
  0
VERTEX
  8
0
 10
388.152157
 20
426.601699
 42
-0.284232
  0
VERTEX
  8
0
 10
387.673282
 20
426.605927
 42
-0.004301
  0
VERTEX
  8
0
 10
385.229964
 20
428.176462
 42
-0.010091
  0
VERTEX
  8
0
 10
382.379469
 20
430.126889
 42
-0.006319
  0
VERTEX
  8
0
 10
379.120060
 20
432.517828
 42
0.018492
  0
VERTEX
  8
0
 10
371.143256
 20
438.075730
 42
0.013979
  0
VERTEX
  8
0
 10
362.006101
 20
443.597742
 42
0.013683
  0
VERTEX
  8
0
 10
352.321412
 20
448.742158
 42
0.015151
  0
VERTEX
  8
0
 10
342.689446
 20
453.166841
 42
0.000012
  0
VERTEX
  8
0
 10
339.006084
 20
454.725443
 42
0.000014
  0
VERTEX
  8
0
 10
335.538462
 20
456.192548
 42
0.000012
  0
VERTEX
  8
0
 10
332.615900
 20
457.428869
 42
0.000092
  0
VERTEX
  8
0
 10
331.250000
 20
458.006348
 42
-0.047165
  0
VERTEX
  8
0
 10
329.492329
 20
458.953070
 42
-0.319680
  0
VERTEX
  8
0
 10
329.160624
 20
459.824670
 42
-0.210070
  0
VERTEX
  8
0
 10
329.875992
 20
460.728926
 42
-0.024876
  0
VERTEX
  8
0
 10
332.250000
 20
461.839722
 42
0.001094
  0
VERTEX
  8
0
 10
333.640822
 20
462.411565
 42
0.000883
  0
VERTEX
  8
0
 10
335.132812
 20
463.031912
 42
0.000892
  0
VERTEX
  8
0
 10
336.508398
 20
463.609593
 42
0.002293
  0
VERTEX
  8
0
 10
337.500000
 20
464.033468
 42
-0.020448
  0
VERTEX
  8
0
 10
340.913276
 20
465.348145
 42
-0.008278
  0
VERTEX
  8
0
 10
345.663102
 20
466.870730
 42
-0.008221
  0
VERTEX
  8
0
 10
350.792329
 20
468.330179
 42
-0.010951
  0
VERTEX
  8
0
 10
355.500000
 20
469.476570
 42
-0.040871
  0
VERTEX
  8
0
 10
362.953636
 20
470.491010
 42
-0.010714
  0
VERTEX
  8
0
 10
375.017846
 20
470.878958
 42
-0.007429
  0
VERTEX
  8
0
 10
387.144326
 20
470.828761
 42
-0.102489
  0
SEQEND
  0
POLYLINE
  8
0
 66
1
 70
1
  0
VERTEX
  8
0
 10
287.673710
 20
460.060697
 42
0.003630
  0
VERTEX
  8
0
 10
290.014389
 20
459.622763
 42
0.001568
  0
VERTEX
  8
0
 10
293.138527
 20
459.071797
 42
0.001551
  0
VERTEX
  8
0
 10
296.466843
 20
458.506205
 42
0.002055
  0
VERTEX
  8
0
 10
299.500000
 20
458.013251
 42
-0.025561
  0
VERTEX
  8
0
 10
317.616468
 20
454.187564
 42
-0.027175
  0
VERTEX
  8
0
 10
334.872958
 20
448.591991
 42
-0.027355
  0
VERTEX
  8
0
 10
351.315812
 20
441.197837
 42
-0.026661
  0
VERTEX
  8
0
 10
367.000000
 20
431.995576
 42
-0.036409
  0
VERTEX
  8
0
 10
378.107468
 20
423.433706
 42
-0.020197
  0
VERTEX
  8
0
 10
390.399006
 20
411.518141
 42
-0.019472
  0
VERTEX
  8
0
 10
402.435771
 20
397.838532
 42
-0.022138
  0
VERTEX
  8
0
 10
412.838336
 20
383.819825
 42
-0.006138
  0
VERTEX
  8
0
 10
414.049690
 20
381.978338
 42
-0.008866
  0
VERTEX
  8
0
 10
415.071261
 20
380.318974
 42
-0.005242
  0
VERTEX
  8
0
 10
415.886405
 20
378.907183
 42
-0.128993
  0
VERTEX
  8
0
 10
416.000000
 20
378.474195
 42
0.122257
  0
VERTEX
  8
0
 10
416.099795
 20
378.072161
 42
0.010191
  0
VERTEX
  8
0
 10
416.625183
 20
377.126230
 42
0.013110
  0
VERTEX
  8
0
 10
417.313119
 20
376.013172
 42
0.009741
  0
VERTEX
  8
0
 10
418.128281
 20
374.819846
 42
-0.056520
  0
VERTEX
  8
0
 10
422.135861
 20
367.585047
 42
-0.010123
  0
VERTEX
  8
0
 10
427.763158
 20
353.191645
 42
-0.010623
  0
VERTEX
  8
0
 10
432.803406
 20
338.534175
 42
-0.048055
  0
VERTEX
  8
0
 10
434.721152
 20
329.706620
 42
0.029142
  0
VERTEX
  8
0
 10
435.214545
 20
326.934721
 42
0.078952
  0
VERTEX
  8
0
 10
435.975198
 20
325.094694
 42
0.069398
  0
VERTEX
  8
0
 10
437.328451
 20
323.448866
 42
0.018904
  0
VERTEX
  8
0
 10
439.895480
 20
321.259043
 42
-0.016892
  0
VERTEX
  8
0
 10
446.288024
 20
315.850134
 42
-0.017839
  0
VERTEX
  8
0
 10
452.181475
 20
310.116014
 42
-0.018743
  0
VERTEX
  8
0
 10
456.970017
 20
304.721324
 42
-0.052125
  0
VERTEX
  8
0
 10
459.761749
 20
300.500000
 42
-0.071358
  0
VERTEX
  8
0
 10
462.111252
 20
293.808613
 42
-0.093417
  0
VERTEX
  8
0
 10
462.168865
 20
287.340859
 42
-0.094360
  0
VERTEX
  8
0
 10
459.873673
 20
281.344284
 42
-0.074274
  0
VERTEX
  8
0
 10
455.373811
 20
276.023348
 42
-0.037898
  0
VERTEX
  8
0
 10
451.538610
 20
273.139311
 42
-0.054303
  0
VERTEX
  8
0
 10
447.730994
 20
271.250381
 42
-0.047482
  0
VERTEX
  8
0
 10
443.233670
 20
270.067831
 42
-0.021681
  0
VERTEX
  8
0
 10
437.197517
 20
269.346881
 42
-0.025248
  0
VERTEX
  8
0
 10
431.271031
 20
269.198480
 42
-0.043862
  0
VERTEX
  8
0
 10
426.384487
 20
269.753604
 42
-0.049735
  0
VERTEX
  8
0
 10
422.115904
 20
271.074846
 42
-0.046257
  0
VERTEX
  8
0
 10
418.080432
 20
273.237752
 42
0.005407
  0
VERTEX
  8
0
 10
413.733195
 20
276.046598
 42
0.046651
  0
VERTEX
  8
0
 10
411.676080
 20
277.090495
 42
0.112218
  0
VERTEX
  8
0
 10
410.239603
 20
277.311801
 42
0.105579
  0
VERTEX
  8
0
 10
408.813328
 20
276.900096
 42
0.271788
  0
VERTEX
  8
0
 10
407.407062
 20
274.599421
 42
0.172882
  0
VERTEX
  8
0
 10
408.436356
 20
271.539532
 42
0.078123
  0
VERTEX
  8
0
 10
412.429247
 20
267.834709
 42
0.029600
  0
VERTEX
  8
0
 10
419.000000
 20
263.959334
 42
0.034122
  0
VERTEX
  8
0
 10
421.717884
 20
262.792634
 42
0.039391
  0
VERTEX
  8
0
 10
424.442969
 20
262.072015
 42
0.029612
  0
VERTEX
  8
0
 10
427.821706
 20
261.662643
 42
0.010139
  0
VERTEX
  8
0
 10
432.752486
 20
261.459924
 42
-0.008925
  0
VERTEX
  8
0
 10
436.307529
 20
261.322411
 42
-0.014486
  0
VERTEX
  8
0
 10
439.319356
 20
261.064326
 42
-0.008173
  0
VERTEX
  8
0
 10
441.764168
 20
260.742714
 42
-0.336906
  0
VERTEX
  8
0
 10
442.114936
 20
260.383663
 42
-0.047951
  0
VERTEX
  8
0
 10
442.203320
 20
257.225277
 42
-0.002554
  0
VERTEX
  8
0
 10
441.469860
 20
247.190234
 42
-0.003432
  0
VERTEX
  8
0
 10
440.634177
 20
237.374471
 42
-0.029139
  0
VERTEX
  8
0
 10
439.972781
 20
233.000000
 42
-0.018141
  0
VERTEX
  8
0
 10
434.526889
 20
211.181178
 42
-0.035857
  0
VERTEX
  8
0
 10
428.365840
 20
194.436077
 42
-0.041690
  0
VERTEX
  8
0
 10
420.597755
 20
180.469178
 42
-0.036576
  0
VERTEX
  8
0
 10
410.306524
 20
167.318730
 42
-0.026209
  0
VERTEX
  8
0
 10
401.641386
 20
158.725281
 42
-0.032964
  0
VERTEX
  8
0
 10
392.733608
 20
151.769929
 42
-0.029980
  0
VERTEX
  8
0
 10
382.321934
 20
145.569985
 42
-0.016760
  0
VERTEX
  8
0
 10
369.000000
 20
139.239087
 42
-0.028159
  0
VERTEX
  8
0
 10
358.880793
 20
135.501521
 42
-0.018076
  0
VERTEX
  8
0
 10
346.784407
 20
132.265982
 42
-0.016680
  0
VERTEX
  8
0
 10
333.289839
 20
129.644711
 42
-0.014238
  0
VERTEX
  8
0
 10
318.919244
 20
127.765555
 42
-0.021926
  0
VERTEX
  8
0
 10
301.168986
 20
126.740114
 42
-0.003517
  0
VERTEX
  8
0
 10
266.447837
 20
126.503059
 42
-0.003791
  0
VERTEX
  8
0
 10
231.640072
 20
126.774167
 42
-0.017456
  0
VERTEX
  8
0
 10
211.500000
 20
127.787675
 42
-0.008381
  0
VERTEX
  8
0
 10
199.031684
 20
129.063268
 42
-0.007347
  0
VERTEX
  8
0
 10
186.051721
 20
130.805247
 42
-0.007599
  0
VERTEX
  8
0
 10
174.001113
 20
132.790781
 42
-0.014945
  0
VERTEX
  8
0
 10
164.500000
 20
134.799815
 42
-0.001537
  0
VERTEX
  8
0
 10
159.825573
 20
135.950385
 42
-0.087925
  0
VERTEX
  8
0
 10
159.017268
 20
136.311173
 42
-0.693841
  0
VERTEX
  8
0
 10
159.083701
 20
136.585518
 42
-0.009360
  0
VERTEX
  8
0
 10
161.500000
 20
136.831217
 42
-0.032787
  0
VERTEX
  8
0
 10
165.800276
 20
136.904606
 42
-0.002981
  0
VERTEX
  8
0
 10
176.514486
 20
136.320663
 42
-0.003251
  0
VERTEX
  8
0
 10
190.878674
 20
135.358099
 42
-0.001404
  0
VERTEX
  8
0
 10
210.000000
 20
133.897802
 42
0.010464
  0
VERTEX
  8
0
 10
216.699292
 20
133.508107
 42
0.001747
  0
VERTEX
  8
0
 10
229.578125
 20
133.074135
 42
0.001914
  0
VERTEX
  8
0
 10
244.725402
 20
132.674738
 42
0.001696
  0
VERTEX
  8
0
 10
260.500000
 20
132.372750
 42
0.005844
  0
VERTEX
  8
0
 10
297.232527
 20
132.223549
 42
0.020220
  0
VERTEX
  8
0
 10
320.984640
 20
133.365968
 42
0.031214
  0
VERTEX
  8
0
 10
337.948535
 20
135.945472
 42
0.053974
  0
VERTEX
  8
0
 10
351.472101
 20
140.444374
 42
-0.003314
  0
VERTEX
  8
0
 10
353.651162
 20
141.423684
 42
-0.004931
  0
VERTEX
  8
0
 10
355.572327
 20
142.249285
 42
-0.002260
  0
VERTEX
  8
0
 10
357.215983
 20
142.927792
 42
-0.097047
  0
VERTEX
  8
0
 10
357.584505
 20
143.000000
 42
0.157123
  0
VERTEX
  8
0
 10
359.478138
 20
143.610129
 42
0.005958
  0
VERTEX
  8
0
 10
365.529717
 20
148.071829
 42
0.011544
  0
VERTEX
  8
0
 10
371.395945
 20
152.722346
 42
0.030236
  0
VERTEX
  8
0
 10
375.313318
 20
156.400041
 42
0.062052
  0
VERTEX
  8
0
 10
384.314097
 20
168.679039
 42
0.050238
  0
VERTEX
  8
0
 10
390.804153
 20
183.684753
 42
0.044944
  0
VERTEX
  8
0
 10
394.708420
 20
201.310186
 42
0.032447
  0
VERTEX
  8
0
 10
395.982541
 20
221.412871
 42
0.041177
  0
VERTEX
  8
0
 10
394.058516
 20
244.296389
 42
0.042179
  0
VERTEX
  8
0
 10
388.411724
 20
266.365349
 42
0.043509
  0
VERTEX
  8
0
 10
379.370390
 20
286.515701
 42
0.050805
  0
VERTEX
  8
0
 10
367.356139
 20
303.696198
 42
0.024024
  0
VERTEX
  8
0
 10
354.054204
 20
317.696762
 42
0.035185
  0
VERTEX
  8
0
 10
340.980492
 20
328.544248
 42
0.032741
  0
VERTEX
  8
0
 10
325.815984
 20
337.984190
 42
0.017457
  0
VERTEX
  8
0
 10
305.975349
 20
347.726196
 42
0.035366
  0
VERTEX
  8
0
 10
297.683232
 20
350.760748
 42
0.015563
  0
VERTEX
  8
0
 10
286.353244
 20
353.641607
 42
0.014501
  0
VERTEX
  8
0
 10
273.362337
 20
356.124758
 42
0.013063
  0
VERTEX
  8
0
 10
259.789414
 20
357.950924
 42
0.028577
  0
VERTEX
  8
0
 10
235.517692
 20
359.177168
 42
0.018827
  0
VERTEX
  8
0
 10
207.583356
 20
357.938634
 42
0.017312
  0
VERTEX
  8
0
 10
181.976638
 20
354.939875
 42
0.079624
  0
VERTEX
  8
0
 10
167.791006
 20
350.394095
 42
-0.007909
  0
VERTEX
  8
0
 10
165.908314
 20
349.477194
 42
-0.010376
  0
VERTEX
  8
0
 10
164.159505
 20
348.703265
 42
-0.008119
  0
VERTEX
  8
0
 10
162.682106
 20
348.113773
 42
-0.091104
  0
VERTEX
  8
0
 10
162.062879
 20
348.000000
 42
0.106901
  0
VERTEX
  8
0
 10
159.980298
 20
347.549593
 42
0.006704
  0
VERTEX
  8
0
 10
154.259116
 20
344.860401
 42
0.010533
  0
VERTEX
  8
0
 10
148.026951
 20
341.664287
 42
0.012203
  0
VERTEX
  8
0
 10
142.238012
 20
338.354854
 42
0.041354
  0
VERTEX
  8
0
 10
124.415310
 20
325.457979
 42
0.055868
  0
VERTEX
  8
0
 10
110.863847
 20
310.914763
 42
0.055600
  0
VERTEX
  8
0
 10
100.822708
 20
293.675001
 42
0.040434
  0
VERTEX
  8
0
 10
93.509574
 20
272.701210
 42
0.008133
  0
VERTEX
  8
0
 10
92.931690
 20
270.323381
 42
0.008624
  0
VERTEX
  8
0
 10
92.443437
 20
267.973896
 42
0.008303
  0
VERTEX
  8
0
 10
92.091870
 20
265.938562
 42
0.038629
  0
VERTEX
  8
0
 10
92.000000
 20
264.751210
 42
-0.019317
  0
VERTEX
  8
0
 10
91.957425
 20
263.649597
 42
-0.220702
  0
VERTEX
  8
0
 10
91.750000
 20
263.280242
 42
-0.328756
  0
VERTEX
  8
0
 10
91.401135
 20
263.283937
 42
-0.034903
  0
VERTEX
  8
0
 10
90.750000
 20
263.850000
 42
-0.196810
  0
VERTEX
  8
0
 10
89.542248
 20
266.732719
 42
-0.002423
  0
VERTEX
  8
0
 10
89.475666
 20
287.235643
 42
-0.006745
  0
VERTEX
  8
0
 10
89.764545
 20
306.380406
 42
-0.038385
  0
VERTEX
  8
0
 10
90.834185
 20
316.500000
 42
-0.001734
  0
VERTEX
  8
0
 10
92.689125
 20
326.384258
 42
-0.006752
  0
VERTEX
  8
0
 10
93.940551
 20
332.480078
 42
-0.008168
  0
VERTEX
  8
0
 10
95.235705
 20
337.954347
 42
-0.003467
  0
VERTEX
  8
0
 10
97.142066
 20
345.250000
 42
-0.028878
  0
VERTEX
  8
0
 10
103.492757
 20
364.397142
 42
-0.031900
  0
VERTEX
  8
0
 10
111.835288
 20
382.036307
 42
-0.032970
  0
VERTEX
  8
0
 10
122.060333
 20
397.937223
 42
-0.035813
  0
VERTEX
  8
0
 10
134.032440
 20
411.894596
 42
-0.016741
  0
VERTEX
  8
0
 10
139.642743
 20
417.192205
 42
-0.008925
  0
VERTEX
  8
0
 10
146.910332
 20
423.381154
 42
-0.008602
  0
VERTEX
  8
0
 10
154.087443
 20
429.071461
 42
-0.027693
  0
VERTEX
  8
0
 10
159.122807
 20
432.500000
 42
-0.013358
  0
VERTEX
  8
0
 10
168.974573
 20
438.084635
 42
-0.014649
  0
VERTEX
  8
0
 10
178.816064
 20
442.956794
 42
-0.015534
  0
VERTEX
  8
0
 10
188.283078
 20
446.951903
 42
-0.021617
  0
VERTEX
  8
0
 10
197.000000
 20
449.889405
 42
0.008065
  0
VERTEX
  8
0
 10
198.971813
 20
450.494907
 42
0.005604
  0
VERTEX
  8
0
 10
201.179787
 20
451.239559
 42
0.005654
  0
VERTEX
  8
0
 10
203.283628
 20
452.002261
 42
0.011608
  0
VERTEX
  8
0
 10
204.909913
 20
452.656188
 42
-0.018152
  0
VERTEX
  8
0
 10
206.542690
 20
453.288035
 42
-0.008858
  0
VERTEX
  8
0
 10
208.666502
 20
453.980579
 42
-0.008774
  0
VERTEX
  8
0
 10
210.903517
 20
454.623723
 42
-0.012556
  0
VERTEX
  8
0
 10
212.909913
 20
455.108966
 42
0.001854
  0
VERTEX
  8
0
 10
214.958334
 20
455.558198
 42
0.001199
  0
VERTEX
  8
0
 10
217.326662
 20
456.092764
 42
0.001205
  0
VERTEX
  8
0
 10
219.638880
 20
456.626357
 42
0.002278
  0
VERTEX
  8
0
 10
221.500000
 20
457.069524
 42
-0.012610
  0
VERTEX
  8
0
 10
223.543099
 20
457.511623
 42
-0.004304
  0
VERTEX
  8
0
 10
226.528125
 20
458.052573
 42
-0.004275
  0
VERTEX
  8
0
 10
229.835267
 20
458.593469
 42
-0.004920
  0
VERTEX
  8
0
 10
233.000000
 20
459.051492
 42
0.003100
  0
VERTEX
  8
0
 10
235.945754
 20
459.466883
 42
0.004250
  0
VERTEX
  8
0
 10
238.590625
 20
459.879580
 42
0.002778
  0
VERTEX
  8
0
 10
240.804111
 20
460.256907
 42
0.049447
  0
VERTEX
  8
0
 10
241.500000
 20
460.451909
 42
-0.094150
  0
VERTEX
  8
0
 10
244.525303
 20
461.015807
 42
-0.001251
  0
VERTEX
  8
0
 10
263.674137
 20
460.901480
 42
-0.002316
  0
VERTEX
  8
0
 10
281.969364
 20
460.661732
 42
-0.043649
  0
SEQEND
  0
POLYLINE
  8
0
 66
1
 70
1
  0
VERTEX
  8
0
 10
268.500000
 20
349.067720
 42
-0.000122
  0
VERTEX
  8
0
 10
271.196698
 20
348.546305
 42
-0.000076
  0
VERTEX
  8
0
 10
274.353125
 20
347.934701
 42
-0.000077
  0
VERTEX
  8
0
 10
277.462083
 20
347.331309
 42
-0.000140
  0
VERTEX
  8
0
 10
280.000000
 20
346.837607
 42
-0.025308
  0
VERTEX
  8
0
 10
287.292493
 20
345.029692
 42
-0.007823
  0
VERTEX
  8
0
 10
298.071717
 20
341.585528
 42
-0.007920
  0
VERTEX
  8
0
 10
308.793291
 20
337.783828
 42
-0.023229
  0
VERTEX
  8
0
 10
316.000000
 20
334.710992
 42
-0.042173
  0
VERTEX
  8
0
 10
332.876470
 20
324.736695
 42
-0.034620
  0
VERTEX
  8
0
 10
349.066298
 20
311.448044
 42
-0.034944
  0
VERTEX
  8
0
 10
363.094256
 20
296.220759
 42
-0.045901
  0
VERTEX
  8
0
 10
373.491482
 20
280.448710
 42
-0.042364
  0
VERTEX
  8
0
 10
381.292799
 20
262.321881
 42
-0.038638
  0
VERTEX
  8
0
 10
386.219627
 20
242.574313
 42
-0.038813
  0
VERTEX
  8
0
 10
388.033681
 20
222.399175
 42
-0.043781
  0
VERTEX
  8
0
 10
386.567826
 20
203.000000
 42
-0.003755
  0
VERTEX
  8
0
 10
385.272055
 20
195.471107
 42
-0.015824
  0
VERTEX
  8
0
 10
384.318384
 20
190.987810
 42
-0.019774
  0
VERTEX
  8
0
 10
383.187379
 20
187.066136
 42
-0.008364
  0
VERTEX
  8
0
 10
381.375573
 20
181.895742
 42
-0.052848
  0
VERTEX
  8
0
 10
375.492227
 20
170.002258
 42
-0.057729
  0
VERTEX
  8
0
 10
367.390296
 20
159.989534
 42
-0.057671
  0
VERTEX
  8
0
 10
357.205945
 20
152.086257
 42
-0.052561
  0
VERTEX
  8
0
 10
345.170723
 20
146.424595
 42
-0.026527
  0
VERTEX
  8
0
 10
333.565666
 20
143.066868
 42
-0.036650
  0
VERTEX
  8
0
 10
322.857563
 20
141.390027
 42
-0.018441
  0
VERTEX
  8
0
 10
307.585892
 20
140.699444
 42
-0.002239
  0
VERTEX
  8
0
 10
274.000000
 20
140.570695
 42
-0.002333
  0
VERTEX
  8
0
 10
243.277392
 20
140.733838
 42
-0.008129
  0
VERTEX
  8
0
 10
223.446490
 20
141.254202
 42
-0.007500
  0
VERTEX
  8
0
 10
202.864951
 20
142.438783
 42
-0.001766
  0
VERTEX
  8
0
 10
168.500000
 20
145.056362
 42
-0.018063
  0
VERTEX
  8
0
 10
149.018832
 20
147.319983
 42
-0.031500
  0
VERTEX
  8
0
 10
133.138312
 20
150.784200
 42
-0.037063
  0
VERTEX
  8
0
 10
119.805471
 20
155.679031
 42
-0.043862
  0
VERTEX
  8
0
 10
108.114685
 20
162.273891
 42
-0.067107
  0
VERTEX
  8
0
 10
99.297244
 20
170.249175
 42
-0.080027
  0
VERTEX
  8
0
 10
93.522496
 20
179.844119
 42
-0.077771
  0
VERTEX
  8
0
 10
90.948627
 20
190.995551
 42
-0.059151
  0
VERTEX
  8
0
 10
91.533109
 20
203.540829
 42
-0.012879
  0
VERTEX
  8
0
 10
92.782492
 20
210.020569
 42
-0.013998
  0
VERTEX
  8
0
 10
94.334413
 20
216.248148
 42
-0.010970
  0
VERTEX
  8
0
 10
95.928516
 20
221.510074
 42
-0.112309
  0
VERTEX
  8
0
 10
97.090789
 20
223.450000
 42
0.172538
  0
VERTEX
  8
0
 10
97.455078
 20
224.261924
 42
0.004585
  0
VERTEX
  8
0
 10
97.738048
 20
228.248125
 42
0.009084
  0
VERTEX
  8
0
 10
97.944908
 20
232.996986
 42
0.006031
  0
VERTEX
  8
0
 10
98.017459
 20
238.450000
 42
-0.029777
  0
VERTEX
  8
0
 10
99.206576
 20
257.990544
 42
-0.037814
  0
VERTEX
  8
0
 10
102.723903
 20
275.714388
 42
-0.040971
  0
VERTEX
  8
0
 10
108.529515
 20
291.452870
 42
-0.048965
  0
VERTEX
  8
0
 10
116.559804
 20
305.060162
 42
-0.033809
  0
VERTEX
  8
0
 10
121.187396
 20
310.570026
 42
-0.011587
  0
VERTEX
  8
0
 10
128.592219
 20
317.916534
 42
-0.011754
  0
VERTEX
  8
0
 10
136.414792
 20
324.984504
 42
-0.029276
  0
VERTEX
  8
0
 10
142.537214
 20
329.665141
 42
-0.019892
  0
VERTEX
  8
0
 10
147.950337
 20
333.016871
 42
-0.012840
  0
VERTEX
  8
0
 10
154.461575
 20
336.481122
 42
-0.008850
  0
VERTEX
  8
0
 10
160.663509
 20
339.443205
 42
-0.107378
  0
VERTEX
  8
0
 10
163.226301
 20
340.000000
 42
0.040712
  0
VERTEX
  8
0
 10
163.826449
 20
340.048947
 42
0.035707
  0
VERTEX
  8
0
 10
164.438485
 20
340.194926
 42
0.037402
  0
VERTEX
  8
0
 10
164.973586
 20
340.408833
 42
0.082773
  0
VERTEX
  8
0
 10
165.330245
 20
340.663579
 42
-0.105416
  0
VERTEX
  8
0
 10
166.812781
 20
341.625047
 42
-0.006796
  0
VERTEX
  8
0
 10
171.671928
 20
343.408100
 42
-0.010842
  0
VERTEX
  8
0
 10
176.685637
 20
345.049684
 42
-0.025622
  0
VERTEX
  8
0
 10
180.500000
 20
345.997293
 42
0.000227
  0
VERTEX
  8
0
 10
182.569509
 20
346.401145
 42
0.000071
  0
VERTEX
  8
0
 10
185.675000
 20
347.009079
 42
0.000071
  0
VERTEX
  8
0
 10
189.143796
 20
347.689152
 42
0.000078
  0
VERTEX
  8
0
 10
192.500000
 20
348.348188
 42
-0.004782
  0
VERTEX
  8
0
 10
195.892800
 20
348.981316
 42
-0.004113
  0
VERTEX
  8
0
 10
199.471875
 20
349.583523
 42
-0.004144
  0
VERTEX
  8
0
 10
202.729381
 20
350.076454
 42
-0.011909
  0
VERTEX
  8
0
 10
205.000000
 20
350.345813
 42
-0.025714
  0
VERTEX
  8
0
 10
215.037671
 20
350.776098
 42
-0.002887
  0
VERTEX
  8
0
 10
237.873287
 20
350.448367
 42
-0.002199
  0
VERTEX
  8
0
 10
261.159928
 20
349.877191
 42
-0.040480
  0
SEQEND
  0
POLYLINE
  8
0
 66
1
 70
1
  0
VERTEX
  8
0
 10
81.315468
 20
299.259813
 42
-0.004092
  0
VERTEX
  8
0
 10
81.025681
 20
293.375869
 42
-0.006084
  0
VERTEX
  8
0
 10
80.667185
 20
288.230609
 42
-0.002907
  0
VERTEX
  8
0
 10
80.284986
 20
283.875922
 42
-0.115565
  0
VERTEX
  8
0
 10
79.981079
 20
282.969385
 42
-0.298229
  0
VERTEX
  8
0
 10
78.895252
 20
282.461433
 42
-0.108036
  0
VERTEX
  8
0
 10
77.224056
 20
283.085410
 42
-0.069483
  0
VERTEX
  8
0
 10
75.310817
 20
284.734295
 42
-0.046826
  0
VERTEX
  8
0
 10
73.616485
 20
287.072093
 42
-0.095979
  0
VERTEX
  8
0
 10
72.400918
 20
290.484643
 42
-0.038021
  0
VERTEX
  8
0
 10
72.027253
 20
295.469904
 42
-0.038128
  0
VERTEX
  8
0
 10
72.420900
 20
300.544887
 42
-0.079966
  0
VERTEX
  8
0
 10
73.637015
 20
304.299660
 42
-0.030271
  0
VERTEX
  8
0
 10
75.442873
 20
307.358306
 42
-0.014215
  0
VERTEX
  8
0
 10
78.121243
 20
311.091894
 42
-0.005732
  0
VERTEX
  8
0
 10
80.940460
 20
314.708099
 42
-0.447337
  0
VERTEX
  8
0
 10
81.588961
 20
314.744372
 42
-0.202767
  0
VERTEX
  8
0
 10
81.722955
 20
314.413979
 42
-0.000710
  0
VERTEX
  8
0
 10
81.652113
 20
310.052292
 42
-0.003606
  0
VERTEX
  8
0
 10
81.528609
 20
305.087839
 42
-0.002235
  0
SEQEND
  0
POLYLINE
  8
0
 66
1
 70
1
  0
VERTEX
  8
0
 10
383.165689
 20
131.250000
 42
-0.048450
  0
VERTEX
  8
0
 10
389.904038
 20
122.365331
 42
-0.057629
  0
VERTEX
  8
0
 10
394.354650
 20
112.835442
 42
-0.065648
  0
VERTEX
  8
0
 10
396.103047
 20
103.777261
 42
-0.115362
  0
VERTEX
  8
0
 10
394.817911
 20
96.297053
 42
-0.072956
  0
VERTEX
  8
0
 10
392.999198
 20
93.300518
 42
-0.013714
  0
VERTEX
  8
0
 10
388.766854
 20
88.461160
 42
-0.008532
  0
VERTEX
  8
0
 10
384.215435
 20
83.701847
 42
-0.201645
  0
VERTEX
  8
0
 10
382.534160
 20
83.005428
 42
-0.295360
  0
VERTEX
  8
0
 10
382.015059
 20
83.345257
 42
-0.006966
  0
VERTEX
  8
0
 10
380.821684
 20
86.145652
 42
-0.013118
  0
VERTEX
  8
0
 10
379.512893
 20
89.594739
 42
-0.008246
  0
VERTEX
  8
0
 10
378.156678
 20
93.687931
 42
0.008471
  0
VERTEX
  8
0
 10
375.146088
 20
102.760470
 42
0.019546
  0
VERTEX
  8
0
 10
372.505346
 20
109.441153
 42
0.020766
  0
VERTEX
  8
0
 10
370.196682
 20
114.135726
 42
0.178309
  0
VERTEX
  8
0
 10
368.466283
 20
115.651312
 42
0.113742
  0
VERTEX
  8
0
 10
367.667717
 20
115.763763
 42
0.068772
  0
VERTEX
  8
0
 10
366.732071
 20
115.550658
 42
0.059457
  0
VERTEX
  8
0
 10
365.754913
 20
115.041885
 42
0.046679
  0
VERTEX
  8
0
 10
364.834633
 20
114.279078
 42
0.103465
  0
VERTEX
  8
0
 10
363.802614
 20
112.701136
 42
0.132065
  0
VERTEX
  8
0
 10
363.611897
 20
110.980579
 42
0.041199
  0
VERTEX
  8
0
 10
364.295375
 20
108.120435
 42
0.002587
  0
VERTEX
  8
0
 10
367.041933
 20
99.890133
 42
-0.010428
  0
VERTEX
  8
0
 10
370.460565
 20
89.084447
 42
-0.008081
  0
VERTEX
  8
0
 10
373.745348
 20
77.187563
 42
-0.002619
  0
VERTEX
  8
0
 10
376.668112
 20
65.644507
 42
-0.201755
  0
VERTEX
  8
0
 10
376.380056
 20
63.805926
 42
-0.259973
  0
VERTEX
  8
0
 10
374.948849
 20
63.008116
 42
-0.000031
  0
VERTEX
  8
0
 10
265.666822
 20
63.031334
 42
-0.000050
  0
VERTEX
  8
0
 10
156.916739
 20
63.072087
 42
-0.142101
  0
VERTEX
  8
0
 10
154.180855
 20
63.867064
 42
-0.278935
  0
VERTEX
  8
0
 10
153.055690
 20
66.128648
 42
-0.007100
  0
VERTEX
  8
0
 10
154.201680
 20
77.956734
 42
-0.013314
  0
VERTEX
  8
0
 10
156.153182
 20
92.069107
 42
-0.008900
  0
VERTEX
  8
0
 10
159.102225
 20
108.107982
 42
0.010424
  0
VERTEX
  8
0
 10
160.313522
 20
114.810661
 42
0.063869
  0
VERTEX
  8
0
 10
160.420029
 20
118.315766
 42
0.146781
  0
VERTEX
  8
0
 10
159.592728
 20
120.336043
 42
0.146872
  0
VERTEX
  8
0
 10
157.790087
 20
121.566624
 42
0.205466
  0
VERTEX
  8
0
 10
155.318849
 20
121.323764
 42
0.143650
  0
VERTEX
  8
0
 10
153.319862
 20
119.311936
 42
0.062533
  0
VERTEX
  8
0
 10
151.590998
 20
114.880121
 42
0.013328
  0
VERTEX
  8
0
 10
149.779048
 20
106.792034
 42
-0.005710
  0
VERTEX
  8
0
 10
148.009878
 20
98.289693
 42
-0.154467
  0
VERTEX
  8
0
 10
146.875174
 20
96.321989
 42
-0.465648
  0
VERTEX
  8
0
 10
145.541172
 20
96.496906
 42
-0.024917
  0
VERTEX
  8
0
 10
143.134334
 20
100.710162
 42
-0.068660
  0
VERTEX
  8
0
 10
141.392367
 20
105.761439
 42
-0.057605
  0
VERTEX
  8
0
 10
140.939823
 20
111.413397
 42
-0.053432
  0
VERTEX
  8
0
 10
141.798372
 20
117.421104
 42
-0.044276
  0
VERTEX
  8
0
 10
143.937285
 20
123.521957
 42
-0.015120
  0
VERTEX
  8
0
 10
145.289676
 20
126.279724
 42
-0.032032
  0
VERTEX
  8
0
 10
146.533360
 20
128.307254
 42
-0.039889
  0
VERTEX
  8
0
 10
147.637551
 20
129.634298
 42
-0.201947
  0
VERTEX
  8
0
 10
148.506064
 20
130.000000
 42
-0.049486
  0
VERTEX
  8
0
 10
149.570994
 20
129.894342
 42
-0.003494
  0
VERTEX
  8
0
 10
152.502166
 20
129.285589
 42
-0.004909
  0
VERTEX
  8
0
 10
155.991733
 20
128.499468
 42
-0.003680
  0
VERTEX
  8
0
 10
159.818780
 20
127.567962
 42
0.010292
  0
VERTEX
  8
0
 10
170.852375
 20
125.036414
 42
0.014087
  0
VERTEX
  8
0
 10
180.884820
 20
123.244145
 42
0.010371
  0
VERTEX
  8
0
 10
193.076020
 20
121.676699
 42
0.002982
  0
VERTEX
  8
0
 10
212.000000
 20
119.755677
 42
0.020637
  0
VERTEX
  8
0
 10
230.257929
 20
118.770009
 42
0.003146
  0
VERTEX
  8
0
 10
266.727670
 20
118.537590
 42
0.003059
  0
VERTEX
  8
0
 10
303.220172
 20
118.757928
 42
0.022076
  0
VERTEX
  8
0
 10
320.767284
 20
119.746893
 42
0.012445
  0
VERTEX
  8
0
 10
332.701688
 20
121.250577
 42
0.015824
  0
VERTEX
  8
0
 10
343.619424
 20
123.258378
 42
0.015948
  0
VERTEX
  8
0
 10
354.318238
 20
125.937980
 42
0.012990
  0
VERTEX
  8
0
 10
365.590834
 20
129.465580
 42
-0.001950
  0
VERTEX
  8
0
 10
370.614736
 20
131.160396
 42
-0.002913
  0
VERTEX
  8
0
 10
375.020162
 20
132.599006
 42
-0.001233
  0
VERTEX
  8
0
 10
378.797214
 20
133.797856
 42
-0.061807
  0
VERTEX
  8
0
 10
379.562909
 20
133.938316
 42
-0.150605
  0
VERTEX
  8
0
 10
380.125935
 20
133.799941
 42
-0.025279
  0
VERTEX
  8
0
 10
381.059675
 20
133.174068
 42
-0.025708
  0
VERTEX
  8
0
 10
382.115344
 20
132.298419
 42
-0.020313
  0
SEQEND
  0
POLYLINE
  8
0
 66
1
 70
1
  0
VERTEX
  8
0
 10
166.399704
 20
398.234687
 42
0.094750
  0
VERTEX
  8
0
 10
165.198545
 20
397.051960
 42
0.041397
  0
VERTEX
  8
0
 10
164.080066
 20
395.105033
 42
0.041045
  0
VERTEX
  8
0
 10
163.267364
 20
392.923797
 42
0.068760
  0
VERTEX
  8
0
 10
163.000000
 20
390.988818
 42
0.148171
  0
VERTEX
  8
0
 10
163.668561
 20
388.782296
 42
0.044317
  0
VERTEX
  8
0
 10
165.894941
 20
386.012039
 42
0.044110
  0
VERTEX
  8
0
 10
168.558625
 20
383.689521
 42
0.159236
  0
VERTEX
  8
0
 10
170.673077
 20
383.004967
 42
0.086682
  0
VERTEX
  8
0
 10
171.574837
 20
383.165012
 42
0.027803
  0
VERTEX
  8
0
 10
172.829904
 20
383.701835
 42
0.026792
  0
VERTEX
  8
0
 10
174.186404
 20
384.466564
 42
0.026983
  0
VERTEX
  8
0
 10
175.450000
 20
385.370307
 42
0.102971
  0
VERTEX
  8
0
 10
177.503390
 20
387.854403
 42
0.098128
  0
VERTEX
  8
0
 10
178.440149
 20
390.994555
 42
0.099414
  0
VERTEX
  8
0
 10
178.103794
 20
394.220316
 42
0.108799
  0
VERTEX
  8
0
 10
176.545012
 20
396.950262
 42
0.123676
  0
VERTEX
  8
0
 10
174.626890
 20
398.232134
 42
0.054327
  0
VERTEX
  8
0
 10
171.635179
 20
398.946775
 42
0.054345
  0
VERTEX
  8
0
 10
168.563532
 20
399.000070
 42
0.125019
  0
SEQEND
  0
POLYLINE
  8
0
 66
1
 70
1
  0
VERTEX
  8
0
 10
301.174314
 20
394.685549
 42
0.200440
  0
VERTEX
  8
0
 10
299.086793
 20
389.115115
 42
0.190898
  0
VERTEX
  8
0
 10
301.526594
 20
383.567631
 42
0.193199
  0
VERTEX
  8
0
 10
307.073818
 20
381.238618
 42
0.203024
  0
VERTEX
  8
0
 10
312.545455
 20
383.454545
 42
0.088396
  0
VERTEX
  8
0
 10
314.260612
 20
385.913460
 42
0.099763
  0
VERTEX
  8
0
 10
314.927075
 20
388.711131
 42
0.096953
  0
VERTEX
  8
0
 10
314.463947
 20
391.612147
 42
0.078890
  0
VERTEX
  8
0
 10
312.927420
 20
394.365141
 42
0.117518
  0
VERTEX
  8
0
 10
310.437358
 20
396.339184
 42
0.102632
  0
VERTEX
  8
0
 10
307.195712
 20
397.104363
 42
0.101136
  0
VERTEX
  8
0
 10
303.877217
 20
396.519912
 42
0.110620
  0
SEQEND
  0
POLYLINE
  8
0
 66
1
 70
1
  0
VERTEX
  8
0
 10
193.507633
 20
389.024048
 42
0.064313
  0
VERTEX
  8
0
 10
193.320125
 20
387.987037
 42
0.069212
  0
VERTEX
  8
0
 10
193.410233
 20
386.963028
 42
0.068131
  0
VERTEX
  8
0
 10
193.779053
 20
385.989167
 42
0.059441
  0
VERTEX
  8
0
 10
194.409867
 20
385.099596
 42
-0.060873
  0
VERTEX
  8
0
 10
195.019182
 20
384.235124
 42
-0.036294
  0
VERTEX
  8
0
 10
195.532898
 20
383.084199
 42
-0.035849
  0
VERTEX
  8
0
 10
195.883547
 20
381.844222
 42
-0.051025
  0
VERTEX
  8
0
 10
196.000000
 20
380.706056
 42
0.131498
  0
VERTEX
  8
0
 10
196.761276
 20
377.861479
 42
0.052286
  0
VERTEX
  8
0
 10
199.153035
 20
374.563608
 42
0.050997
  0
VERTEX
  8
0
 10
202.358488
 20
371.654641
 42
0.079232
  0
VERTEX
  8
0
 10
205.668564
 20
369.944369
 42
0.063365
  0
VERTEX
  8
0
 10
209.379446
 20
369.222171
 42
0.045395
  0
VERTEX
  8
0
 10
213.609691
 20
369.328267
 42
0.043790
  0
VERTEX
  8
0
 10
217.927561
 20
370.218504
 42
0.047445
  0
VERTEX
  8
0
 10
221.903943
 20
371.832915
 42
0.000000
  0
VERTEX
  8
0
 10
225.914958
 20
373.923572
 42
0.000000
  0
VERTEX
  8
0
 10
227.859254
 20
371.451801
 42
0.118453
  0
VERTEX
  8
0
 10
232.254725
 20
367.980390
 42
0.074899
  0
VERTEX
  8
0
 10
238.557848
 20
366.146417
 42
0.076122
  0
VERTEX
  8
0
 10
245.005651
 20
366.264580
 42
0.133085
  0
VERTEX
  8
0
 10
249.817631
 20
368.500000
 42
-0.016515
  0
VERTEX
  8
0
 10
252.200258
 20
370.374026
 42
-0.146207
  0
VERTEX
  8
0
 10
253.445843
 20
370.818977
 42
-0.151031
  0
VERTEX
  8
0
 10
254.712631
 20
370.499479
 42
-0.017982
  0
VERTEX
  8
0
 10
257.158024
 20
368.887477
 42
0.045399
  0
VERTEX
  8
0
 10
259.001267
 20
367.812335
 42
0.065621
  0
VERTEX
  8
0
 10
260.797388
 20
367.244402
 42
0.046899
  0
VERTEX
  8
0
 10
263.090377
 20
367.057183
 42
0.012833
  0
VERTEX
  8
0
 10
266.719941
 20
367.194902
 42
0.012892
  0
VERTEX
  8
0
 10
270.638279
 20
367.546028
 42
0.067573
  0
VERTEX
  8
0
 10
272.729885
 20
368.080318
 42
0.090105
  0
VERTEX
  8
0
 10
274.314640
 20
369.084424
 42
0.032683
  0
VERTEX
  8
0
 10
276.157546
 20
371.019651
 42
0.032368
  0
VERTEX
  8
0
 10
277.385454
 20
372.700537
 42
0.041347
  0
VERTEX
  8
0
 10
278.276916
 20
374.398133
 42
0.045097
  0
VERTEX
  8
0
 10
278.818019
 20
376.082887
 42
0.055215
  0
VERTEX
  8
0
 10
279.000000
 20
377.725795
 42
-0.030335
  0
VERTEX
  8
0
 10
279.085013
 20
379.125734
 42
-0.024910
  0
VERTEX
  8
0
 10
279.340110
 20
380.601971
 42
-0.025606
  0
VERTEX
  8
0
 10
279.712928
 20
381.938016
 42
-0.058798
  0
VERTEX
  8
0
 10
280.157821
 20
382.881103
 42
0.059218
  0
VERTEX
  8
0
 10
280.551847
 20
383.718178
 42
0.046145
  0
VERTEX
  8
0
 10
280.780710
 20
384.698163
 42
0.047409
  0
VERTEX
  8
0
 10
280.821825
 20
385.666060
 42
0.078690
  0
VERTEX
  8
0
 10
280.652420
 20
386.463396
 42
0.185603
  0
VERTEX
  8
0
 10
279.839322
 20
387.365707
 42
0.098599
  0
VERTEX
  8
0
 10
278.370074
 20
387.778295
 42
0.035131
  0
VERTEX
  8
0
 10
275.603803
 20
387.797573
 42
0.003824
  0
VERTEX
  8
0
 10
269.244599
 20
387.345862
 42
-0.015434
  0
VERTEX
  8
0
 10
254.519728
 20
386.642987
 42
-0.009282
  0
VERTEX
  8
0
 10
237.026158
 20
386.673263
 42
-0.008708
  0
VERTEX
  8
0
 10
220.603417
 20
387.292865
 42
-0.033770
  0
VERTEX
  8
0
 10
210.500000
 20
388.538208
 42
0.003035
  0
VERTEX
  8
0
 10
200.454064
 20
390.408694
 42
0.037375
  0
VERTEX
  8
0
 10
196.581216
 20
390.810186
 42
0.129513
  0
VERTEX
  8
0
 10
194.616810
 20
390.352289
 42
0.196696
  0
SEQEND
  0
POLYLINE
  8
0
 66
1
 70
1
  0
VERTEX
  8
0
 10
215.250000
 20
381.369780
 42
-0.012962
  0
VERTEX
  8
0
 10
217.454147
 20
381.063508
 42
-0.020841
  0
VERTEX
  8
0
 10
219.310937
 20
380.676148
 42
-0.016059
  0
VERTEX
  8
0
 10
220.747970
 20
380.263763
 42
-0.325634
  0
VERTEX
  8
0
 10
221.000000
 20
379.917815
 42
-0.236564
  0
VERTEX
  8
0
 10
220.319687
 20
378.560379
 42
-0.057827
  0
VERTEX
  8
0
 10
218.091114
 20
377.266275
 42
-0.051486
  0
VERTEX
  8
0
 10
215.113168
 20
376.319927
 42
-0.051248
  0
VERTEX
  8
0
 10
212.000000
 20
376.000000
 42
-0.051106
  0
VERTEX
  8
0
 10
208.430700
 20
376.365779
 42
-0.079464
  0
VERTEX
  8
0
 10
205.544277
 20
377.461603
 42
-0.103637
  0
VERTEX
  8
0
 10
203.671718
 20
379.130559
 42
-0.160427
  0
VERTEX
  8
0
 10
203.000000
 20
381.170203
 42
-0.063457
  0
VERTEX
  8
0
 10
203.136986
 20
382.245214
 42
-0.228126
  0
VERTEX
  8
0
 10
203.571516
 20
382.758949
 42
-0.133672
  0
VERTEX
  8
0
 10
204.431254
 20
382.892746
 42
-0.018156
  0
VERTEX
  8
0
 10
206.250000
 20
382.622168
 42
0.008416
  0
VERTEX
  8
0
 10
207.889478
 20
382.345523
 42
0.003017
  0
VERTEX
  8
0
 10
210.234375
 20
382.004786
 42
0.002992
  0
VERTEX
  8
0
 10
212.810313
 20
381.662032
 42
0.003538
  0
SEQEND
  0
POLYLINE
  8
0
 66
1
 70
1
  0
VERTEX
  8
0
 10
272.159746
 20
378.500000
 42
-0.131017
  0
VERTEX
  8
0
 10
270.668640
 20
375.240658
 42
-0.150153
  0
VERTEX
  8
0
 10
267.818710
 20
373.360799
 42
-0.136857
  0
VERTEX
  8
0
 10
264.187594
 20
373.313588
 42
-0.102227
  0
VERTEX
  8
0
 10
260.588004
 20
375.109436
 42
-0.053638
  0
VERTEX
  8
0
 10
258.647330
 20
377.005192
 42
-0.295981
  0
VERTEX
  8
0
 10
258.488421
 20
378.388170
 42
-0.213633
  0
VERTEX
  8
0
 10
259.760742
 20
379.435545
 42
-0.032123
  0
VERTEX
  8
0
 10
263.077654
 20
380.120241
 42
-0.012660
  0
VERTEX
  8
0
 10
267.881214
 20
380.670346
 42
-0.066409
  0
VERTEX
  8
0
 10
270.531180
 20
380.553887
 42
-0.176821
  0
VERTEX
  8
0
 10
271.806598
 20
379.812469
 42
-0.219088
  0
SEQEND
  0
POLYLINE
  8
0
 66
1
 70
1
  0
VERTEX
  8
0
 10
247.920929
 20
379.070030
 42
-0.080284
  0
VERTEX
  8
0
 10
248.585655
 20
378.481703
 42
-0.193427
  0
VERTEX
  8
0
 10
248.778798
 20
377.865920
 42
-0.108362
  0
VERTEX
  8
0
 10
248.527561
 20
377.036375
 42
-0.017521
  0
VERTEX
  8
0
 10
247.647876
 20
375.585343
 42
-0.053927
  0
VERTEX
  8
0
 10
246.515031
 20
374.206562
 42
-0.105944
  0
VERTEX
  8
0
 10
245.320981
 20
373.451022
 42
-0.072695
  0
VERTEX
  8
0
 10
243.629302
 20
373.094128
 42
-0.015698
  0
VERTEX
  8
0
 10
240.631935
 20
373.000000
 42
-0.018509
  0
VERTEX
  8
0
 10
237.960833
 20
373.098911
 42
-0.048976
  0
VERTEX
  8
0
 10
236.078891
 20
373.425641
 42
-0.067359
  0
VERTEX
  8
0
 10
234.675532
 20
374.026077
 42
-0.074244
  0
VERTEX
  8
0
 10
233.533706
 20
374.962755
 42
-0.096049
  0
VERTEX
  8
0
 10
232.164762
 20
377.225654
 42
-0.320698
  0
VERTEX
  8
0
 10
232.599145
 20
378.806687
 42
-0.147153
  0
VERTEX
  8
0
 10
234.908169
 20
379.755246
 42
-0.024964
  0
VERTEX
  8
0
 10
239.718615
 20
379.984687
 42
-0.012144
  0
VERTEX
  8
0
 10
242.419264
 20
379.912983
 42
-0.015057
  0
VERTEX
  8
0
 10
244.925366
 20
379.709690
 42
-0.013405
  0
VERTEX
  8
0
 10
246.998077
 20
379.422118
 42
-0.100236
  0
SEQEND
  0
POLYLINE
  8
0
 66
1
 70
1
  0
VERTEX
  8
0
 10
162.145770
 20
272.843722
 42
0.053982
  0
VERTEX
  8
0
 10
154.225950
 20
270.821337
 42
0.079649
  0
VERTEX
  8
0
 10
148.000261
 20
267.282846
 42
0.084415
  0
VERTEX
  8
0
 10
143.441652
 20
262.153613
 42
0.068915
  0
VERTEX
  8
0
 10
140.439912
 20
255.441300
 42
0.065452
  0
VERTEX
  8
0
 10
139.498208
 20
249.301553
 42
0.068631
  0
VERTEX
  8
0
 10
140.203091
 20
243.229668
 42
0.069664
  0
VERTEX
  8
0
 10
142.506929
 20
237.652310
 42
0.070846
  0
VERTEX
  8
0
 10
146.243656
 20
232.957783
 42
0.072949
  0
VERTEX
  8
0
 10
151.774003
 20
229.080831
 42
0.054538
  0
VERTEX
  8
0
 10
158.758127
 20
226.477387
 42
0.051914
  0
VERTEX
  8
0
 10
166.516697
 20
225.351514
 42
0.051899
  0
VERTEX
  8
0
 10
174.341552
 20
225.847753
 42
0.018540
  0
VERTEX
  8
0
 10
183.000491
 20
227.640134
 42
0.057841
  0
VERTEX
  8
0
 10
188.569682
 20
229.715712
 42
0.079525
  0
VERTEX
  8
0
 10
192.497385
 20
232.585545
 42
0.062493
  0
VERTEX
  8
0
 10
195.718625
 20
236.768392
 42
0.070918
  0
VERTEX
  8
0
 10
197.884388
 20
242.039846
 42
0.061665
  0
VERTEX
  8
0
 10
198.629637
 20
247.968409
 42
0.061933
  0
VERTEX
  8
0
 10
197.906563
 20
253.873962
 42
0.072934
  0
VERTEX
  8
0
 10
195.760458
 20
259.077873
 42
0.023704
  0
VERTEX
  8
0
 10
193.154026
 20
263.020237
 42
0.032700
  0
VERTEX
  8
0
 10
190.430845
 20
266.273463
 42
0.037471
  0
VERTEX
  8
0
 10
187.719291
 20
268.717580
 42
0.069420
  0
VERTEX
  8
0
 10
185.152049
 20
270.187648
 42
0.031112
  0
VERTEX
  8
0
 10
182.110431
 20
271.192996
 42
0.006922
  0
VERTEX
  8
0
 10
176.792854
 20
272.512213
 42
0.004619
  0
VERTEX
  8
0
 10
171.363268
 20
273.726908
 42
0.074871
  0
VERTEX
  8
0
 10
169.500000
 20
273.841443
 42
0.010971
  0
VERTEX
  8
0
 10
168.836296
 20
273.768132
 42
0.000722
  0
VERTEX
  8
0
 10
166.927195
 20
273.511939
 42
0.001047
  0
VERTEX
  8
0
 10
164.652501
 20
273.198490
 42
0.000782
  0
SEQEND
  0
POLYLINE
  8
0
 66
1
 70
1
  0
VERTEX
  8
0
 10
165.069930
 20
261.229667
 42
0.089384
  0
VERTEX
  8
0
 10
166.863908
 20
255.647899
 42
0.090008
  0
VERTEX
  8
0
 10
170.490549
 20
251.058960
 42
0.090320
  0
VERTEX
  8
0
 10
175.486396
 20
248.048574
 42
0.090788
  0
VERTEX
  8
0
 10
181.213625
 20
247.000000
 42
0.019760
  0
VERTEX
  8
0
 10
183.246179
 20
247.080357
 42
0.019178
  0
VERTEX
  8
0
 10
185.286587
 20
247.320963
 42
0.019495
  0
VERTEX
  8
0
 10
187.061525
 20
247.671004
 42
0.064514
  0
VERTEX
  8
0
 10
188.173101
 20
248.092641
 42
-0.103096
  0
VERTEX
  8
0
 10
190.184470
 20
248.683955
 42
-0.291848
  0
VERTEX
  8
0
 10
191.420242
 20
248.028838
 42
-0.168644
  0
VERTEX
  8
0
 10
191.763795
 20
246.154415
 42
-0.041500
  0
VERTEX
  8
0
 10
191.021365
 20
243.064736
 42
-0.095747
  0
VERTEX
  8
0
 10
188.354171
 20
238.292922
 42
-0.113169
  0
VERTEX
  8
0
 10
184.230815
 20
235.191907
 42
-0.078563
  0
VERTEX
  8
0
 10
177.949357
 20
233.503158
 42
-0.026464
  0
VERTEX
  8
0
 10
168.449705
 20
233.000000
 42
-0.047142
  0
VERTEX
  8
0
 10
158.757832
 20
233.915829
 42
-0.112095
  0
VERTEX
  8
0
 10
152.161921
 20
236.795868
 42
-0.140678
  0
VERTEX
  8
0
 10
148.351861
 20
241.742485
 42
-0.094303
  0
VERTEX
  8
0
 10
147.003738
 20
248.799660
 42
-0.023071
  0
VERTEX
  8
0
 10
147.104989
 20
251.026933
 42
-0.020226
  0
VERTEX
  8
0
 10
147.411649
 20
253.336463
 42
-0.020716
  0
VERTEX
  8
0
 10
147.859896
 20
255.400190
 42
-0.055543
  0
VERTEX
  8
0
 10
148.397621
 20
256.802020
 42
-0.068627
  0
VERTEX
  8
0
 10
150.926448
 20
260.387379
 42
-0.060234
  0
VERTEX
  8
0
 10
154.436032
 20
263.338353
 42
-0.063397
  0
VERTEX
  8
0
 10
158.333533
 20
265.231650
 42
-0.100802
  0
VERTEX
  8
0
 10
162.000000
 20
265.691058
 42
-0.068245
  0
VERTEX
  8
0
 10
163.344753
 20
265.400843
 42
-0.156065
  0
VERTEX
  8
0
 10
164.156098
 20
264.773150
 42
-0.099253
  0
VERTEX
  8
0
 10
164.666554
 20
263.581930
 42
-0.018579
  0
SEQEND
  0
POLYLINE
  8
0
 66
1
 70
1
  0
VERTEX
  8
0
 10
289.466317
 20
266.969330
 42
0.059511
  0
VERTEX
  8
0
 10
279.695832
 20
264.011077
 42
0.099155
  0
VERTEX
  8
0
 10
272.676678
 20
259.099569
 42
0.108602
  0
VERTEX
  8
0
 10
268.495753
 20
252.222295
 42
0.082657
  0
VERTEX
  8
0
 10
267.043924
 20
243.500000
 42
0.053769
  0
VERTEX
  8
0
 10
267.759401
 20
236.866014
 42
0.082342
  0
VERTEX
  8
0
 10
269.895525
 20
231.505159
 42
0.079415
  0
VERTEX
  8
0
 10
273.715259
 20
226.988531
 42
0.046635
  0
VERTEX
  8
0
 10
279.500000
 20
222.884013
 42
0.041610
  0
VERTEX
  8
0
 10
282.141228
 20
221.638229
 42
0.051857
  0
VERTEX
  8
0
 10
284.766116
 20
220.956980
 42
0.030897
  0
VERTEX
  8
0
 10
288.387904
 20
220.635482
 42
0.005897
  0
VERTEX
  8
0
 10
295.000000
 20
220.536505
 42
0.009085
  0
VERTEX
  8
0
 10
300.139931
 20
220.613588
 42
0.013290
  0
VERTEX
  8
0
 10
304.656967
 20
220.883777
 42
0.015028
  0
VERTEX
  8
0
 10
308.386743
 20
221.319808
 42
0.039886
  0
VERTEX
  8
0
 10
311.000000
 20
221.921112
 42
0.105280
  0
VERTEX
  8
0
 10
318.387412
 20
226.108566
 42
0.097597
  0
VERTEX
  8
0
 10
323.667880
 20
233.043811
 42
0.096668
  0
VERTEX
  8
0
 10
325.955091
 20
241.524149
 42
0.101044
  0
VERTEX
  8
0
 10
324.827666
 20
250.100777
 42
0.050713
  0
VERTEX
  8
0
 10
323.465007
 20
253.045148
 42
0.019354
  0
VERTEX
  8
0
 10
321.010254
 20
256.845633
 42
0.019295
  0
VERTEX
  8
0
 10
318.276652
 20
260.435692
 42
0.052490
  0
VERTEX
  8
0
 10
316.000000
 20
262.672389
 42
0.096770
  0
VERTEX
  8
0
 10
311.504592
 20
265.005454
 42
0.031319
  0
VERTEX
  8
0
 10
304.160891
 20
266.672083
 42
0.031747
  0
VERTEX
  8
0
 10
296.204515
 20
267.446901
 42
0.052229
  0
SEQEND
  0
POLYLINE
  8
0
 66
1
 70
1
  0
VERTEX
  8
0
 10
292.783039
 20
255.500000
 42
0.083876
  0
VERTEX
  8
0
 10
294.327635
 20
249.672325
 42
0.097818
  0
VERTEX
  8
0
 10
297.657470
 20
245.022500
 42
0.099463
  0
VERTEX
  8
0
 10
302.454551
 20
242.041345
 42
0.089682
  0
VERTEX
  8
0
 10
308.213625
 20
241.000000
 42
0.019760
  0
VERTEX
  8
0
 10
310.246179
 20
241.080357
 42
0.019178
  0
VERTEX
  8
0
 10
312.286587
 20
241.320963
 42
0.019495
  0
VERTEX
  8
0
 10
314.061525
 20
241.671004
 42
0.064514
  0
VERTEX
  8
0
 10
315.173101
 20
242.092641
 42
-0.037504
  0
VERTEX
  8
0
 10
316.168397
 20
242.532851
 42
-0.082966
  0
VERTEX
  8
0
 10
316.983452
 20
242.677715
 42
-0.106127
  0
VERTEX
  8
0
 10
317.670361
 20
242.537674
 42
-0.093476
  0
VERTEX
  8
0
 10
318.275263
 20
242.124737
 42
-0.230877
  0
VERTEX
  8
0
 10
318.875895
 20
240.380284
 42
-0.047963
  0
VERTEX
  8
0
 10
318.154414
 20
237.124205
 42
-0.048179
  0
VERTEX
  8
0
 10
316.681263
 20
233.736543
 42
-0.081695
  0
VERTEX
  8
0
 10
314.766818
 20
231.317616
 42
-0.073100
  0
VERTEX
  8
0
 10
312.177423
 20
229.575136
 42
-0.056888
  0
VERTEX
  8
0
 10
308.965943
 20
228.465309
 42
-0.034912
  0
VERTEX
  8
0
 10
304.315948
 20
227.765940
 42
-0.008894
  0
VERTEX
  8
0
 10
296.702911
 20
227.295628
 42
-0.006768
  0
VERTEX
  8
0
 10
290.829348
 20
227.117164
 42
-0.040285
  0
VERTEX
  8
0
 10
287.769872
 20
227.312280
 42
-0.063669
  0
VERTEX
  8
0
 10
285.426175
 20
227.964404
 42
-0.032898
  0
VERTEX
  8
0
 10
282.701693
 20
229.328932
 42
-0.025406
  0
VERTEX
  8
0
 10
279.080006
 20
231.706367
 42
-0.062877
  0
VERTEX
  8
0
 10
276.776600
 20
233.883753
 42
-0.069698
  0
VERTEX
  8
0
 10
275.224456
 20
236.422445
 42
-0.037336
  0
VERTEX
  8
0
 10
274.014242
 20
239.899443
 42
-0.023199
  0
VERTEX
  8
0
 10
273.476441
 20
242.375002
 42
-0.054489
  0
VERTEX
  8
0
 10
273.365666
 20
244.261269
 42
-0.054881
  0
VERTEX
  8
0
 10
273.665163
 20
246.118761
 42
-0.023829
  0
VERTEX
  8
0
 10
274.446381
 20
248.498771
 42
-0.068943
  0
VERTEX
  8
0
 10
276.993727
 20
253.134322
 42
-0.072604
  0
VERTEX
  8
0
 10
280.667738
 20
256.810523
 42
-0.077642
  0
VERTEX
  8
0
 10
284.997164
 20
259.096305
 42
-0.099277
  0
VERTEX
  8
0
 10
289.457547
 20
259.692557
 42
-0.041933
  0
VERTEX
  8
0
 10
291.137611
 20
259.440647
 42
-0.168460
  0
VERTEX
  8
0
 10
292.001193
 20
258.891451
 42
-0.125988
  0
VERTEX
  8
0
 10
292.478135
 20
257.823216
 42
-0.019387
  0
SEQEND
  0
POLYLINE
  8
0
 66
1
 70
1
  0
VERTEX
  8
0
 10
224.709286
 20
244.279386
 42
0.074245
  0
VERTEX
  8
0
 10
222.674242
 20
242.509463
 42
0.101210
  0
VERTEX
  8
0
 10
221.500976
 20
240.387173
 42
0.080406
  0
VERTEX
  8
0
 10
221.100779
 20
237.604039
 42
0.032263
  0
VERTEX
  8
0
 10
221.417324
 20
233.759737
 42
-0.012496
  0
VERTEX
  8
0
 10
221.654174
 20
231.822674
 42
-0.007472
  0
VERTEX
  8
0
 10
221.843611
 20
229.510089
 42
-0.007478
  0
VERTEX
  8
0
 10
221.963431
 20
227.200514
 42
-0.012870
  0
VERTEX
  8
0
 10
221.984883
 20
225.274608
 42
0.031901
  0
VERTEX
  8
0
 10
222.075401
 20
223.435558
 42
0.022848
  0
VERTEX
  8
0
 10
222.400762
 20
221.401946
 42
0.023190
  0
VERTEX
  8
0
 10
222.891459
 20
219.485864
 42
0.045074
  0
VERTEX
  8
0
 10
223.487275
 20
218.024608
 42
0.040542
  0
VERTEX
  8
0
 10
224.541495
 20
216.336690
 42
0.123356
  0
VERTEX
  8
0
 10
225.580126
 20
215.486439
 42
0.093047
  0
VERTEX
  8
0
 10
227.068987
 20
215.098391
 42
0.017352
  0
VERTEX
  8
0
 10
229.903235
 20
215.000000
 42
0.043529
  0
VERTEX
  8
0
 10
233.270642
 20
215.293715
 42
0.103712
  0
VERTEX
  8
0
 10
235.591021
 20
216.222365
 42
0.169138
  0
VERTEX
  8
0
 10
236.691474
 20
217.675012
 42
0.171559
  0
VERTEX
  8
0
 10
236.643260
 20
219.487265
 42
0.140593
  0
VERTEX
  8
0
 10
236.164106
 20
220.123137
 42
0.073420
  0
VERTEX
  8
0
 10
235.286025
 20
220.601813
 42
0.056252
  0
VERTEX
  8
0
 10
234.058917
 20
220.902291
 42
0.031950
  0
VERTEX
  8
0
 10
232.531385
 20
221.000000
 42
-0.022121
  0
VERTEX
  8
0
 10
230.686686
 20
221.081654
 42
-0.107116
  0
VERTEX
  8
0
 10
229.691423
 20
221.391588
 42
-0.177755
  0
VERTEX
  8
0
 10
229.178431
 20
221.996139
 42
-0.088181
  0
VERTEX
  8
0
 10
229.000000
 20
223.000000
 42
-0.048028
  0
VERTEX
  8
0
 10
229.073693
 20
223.765418
 42
-0.068025
  0
VERTEX
  8
0
 10
229.293750
 20
224.412500
 42
-0.088204
  0
VERTEX
  8
0
 10
229.618118
 20
224.848523
 42
-0.191087
  0
VERTEX
  8
0
 10
230.000000
 20
225.000000
 42
0.357531
  0
VERTEX
  8
0
 10
230.936517
 20
225.767817
 42
0.088249
  0
VERTEX
  8
0
 10
230.982042
 20
227.906656
 42
0.070598
  0
VERTEX
  8
0
 10
230.242952
 20
230.332639
 42
0.144969
  0
VERTEX
  8
0
 10
228.938124
 20
231.806569
 42
-0.064253
  0
VERTEX
  8
0
 10
228.032105
 20
232.549139
 42
-0.085863
  0
VERTEX
  8
0
 10
227.446438
 20
233.434177
 42
-0.081139
  0
VERTEX
  8
0
 10
227.171674
 20
234.504185
 42
-0.051122
  0
VERTEX
  8
0
 10
227.188124
 20
235.797116
 42
-0.056315
  0
VERTEX
  8
0
 10
227.538977
 20
237.313396
 42
-0.173618
  0
VERTEX
  8
0
 10
228.193786
 20
238.117027
 42
-0.105566
  0
VERTEX
  8
0
 10
229.431384
 20
238.544984
 42
-0.014516
  0
VERTEX
  8
0
 10
232.162668
 20
238.801224
 42
0.023373
  0
VERTEX
  8
0
 10
234.077802
 20
239.015170
 42
0.037718
  0
VERTEX
  8
0
 10
235.673286
 20
239.394450
 42
0.044771
  0
VERTEX
  8
0
 10
236.840712
 20
239.885653
 42
0.181100
  0
VERTEX
  8
0
 10
237.343984
 20
240.454025
 42
0.290686
  0
VERTEX
  8
0
 10
236.794336
 20
243.174294
 42
0.128615
  0
VERTEX
  8
0
 10
233.534705
 20
245.171976
 42
0.094715
  0
VERTEX
  8
0
 10
228.824221
 20
245.669007
 42
0.121563
  0
SEQEND
  0
ENDSEC
  0
EOF
