  0
SECTION
  2
HEADER
  9
$ACADVER
  1
AC1006
  9
$EXTMIN
 10
0.000000
 20
0.000000
 30
0.000000
  9
$EXTMAX
 10
736.000000
 20
736.000000
 30
0.000000
  0
ENDSEC
  0
SECTION
  2
ENTITIES
  0
POLYLINE
  8
0
 66
1
 70
1
  0
VERTEX
  8
0
 10
533.000000
 20
637.034643
 42
0.026661
  0
VERTEX
  8
0
 10
528.082278
 20
635.724320
 42
0.016284
  0
VERTEX
  8
0
 10
522.430469
 20
633.685080
 42
0.016218
  0
VERTEX
  8
0
 10
516.868637
 20
631.259319
 42
0.024541
  0
VERTEX
  8
0
 10
512.217173
 20
628.761664
 42
0.043354
  0
VERTEX
  8
0
 10
506.907279
 20
624.902295
 42
0.024517
  0
VERTEX
  8
0
 10
501.159634
 20
619.393512
 42
0.024337
  0
VERTEX
  8
0
 10
495.876946
 20
613.234138
 42
0.036876
  0
VERTEX
  8
0
 10
491.971736
 20
607.357803
 42
-0.001073
  0
VERTEX
  8
0
 10
490.685554
 20
605.085023
 42
-0.001609
  0
VERTEX
  8
0
 10
489.552283
 20
603.107273
 42
-0.000645
  0
VERTEX
  8
0
 10
488.572528
 20
601.415165
 42
-0.036077
  0
VERTEX
  8
0
 10
488.367099
 20
601.113765
 42
-0.309812
  0
VERTEX
  8
0
 10
488.086645
 20
601.027149
 42
-0.006229
  0
VERTEX
  8
0
 10
486.599693
 20
601.509664
 42
-0.012445
  0
VERTEX
  8
0
 10
484.826758
 20
602.159097
 42
-0.007752
  0
VERTEX
  8
0
 10
482.780431
 20
603.003879
 42
0.022845
  0
VERTEX
  8
0
 10
467.845031
 20
608.648408
 42
0.015495
  0
VERTEX
  8
0
 10
450.388773
 20
613.756366
 42
0.014467
  0
VERTEX
  8
0
 10
431.197172
 20
618.143776
 42
0.012827
  0
VERTEX
  8
0
 10
411.000000
 20
621.614150
 42
0.024912
  0
VERTEX
  8
0
 10
396.866112
 20
622.956590
 42
0.006408
  0
VERTEX
  8
0
 10
373.941112
 20
623.691974
 42
0.006667
  0
VERTEX
  8
0
 10
350.736891
 20
623.829294
 42
0.019913
  0
VERTEX
  8
0
 10
334.879957
 20
623.079729
 42
0.008173
  0
VERTEX
  8
0
 10
323.509117
 20
621.899774
 42
0.006090
  0
VERTEX
  8
0
 10
311.005164
 20
620.240545
 42
0.006185
  0
VERTEX
  8
0
 10
299.059355
 20
618.355901
 42
0.011731
  0
VERTEX
  8
0
 10
289.500000
 20
616.494558
 42
-0.000638
  0
VERTEX
  8
0
 10
286.600001
 20
615.862810
 42
-0.000623
  0
VERTEX
  8
0
 10
283.675000
 20
615.233342
 42
-0.000613
  0
VERTEX
  8
0
 10
281.104915
 20
614.686900
 42
-0.002340
  0
VERTEX
  8
0
 10
279.500000
 20
614.355566
 42
0.026323
  0
VERTEX
  8
0
 10
257.421974
 20
608.681816
 42
0.018339
  0
VERTEX
  8
0
 10
233.168358
 20
600.079183
 42
0.018163
  0
VERTEX
  8
0
 10
209.257505
 20
589.577224
 42
0.023474
  0
VERTEX
  8
0
 10
188.190875
 20
578.147386
 42
0.000000
  0
VERTEX
  8
0
 10
179.881749
 20
573.120788
 42
0.000000
  0
VERTEX
  8
0
 10
177.690875
 20
575.810394
 42
0.031110
  0
VERTEX
  8
0
 10
172.053532
 20
581.913312
 42
0.029799
  0
VERTEX
  8
0
 10
165.624647
 20
587.364146
 42
0.030591
  0
VERTEX
  8
0
 10
158.788612
 20
591.867472
 42
0.038302
  0
VERTEX
  8
0
 10
151.935498
 20
595.133892
 42
0.059739
  0
VERTEX
  8
0
 10
144.798254
 20
596.947785
 42
0.022227
  0
VERTEX
  8
0
 10
134.465951
 20
597.829121
 42
0.022471
  0
VERTEX
  8
0
 10
123.926180
 20
597.783934
 42
0.049468
  0
VERTEX
  8
0
 10
115.967285
 20
596.596706
 42
0.063063
  0
VERTEX
  8
0
 10
102.322966
 20
591.259091
 42
0.061191
  0
VERTEX
  8
0
 10
90.286011
 20
582.646084
 42
0.059947
  0
VERTEX
  8
0
 10
80.487210
 20
571.193429
 42
0.056206
  0
VERTEX
  8
0
 10
73.433160
 20
557.500000
 42
0.041156
  0
VERTEX
  8
0
 10
71.455129
 20
550.650309
 42
0.028808
  0
VERTEX
  8
0
 10
70.323418
 20
542.692321
 42
0.028915
  0
VERTEX
  8
0
 10
70.116964
 20
534.707115
 42
0.043244
  0
VERTEX
  8
0
 10
70.940920
 20
527.780524
 42
0.058975
  0
VERTEX
  8
0
 10
73.996190
 20
518.642013
 42
0.044411
  0
VERTEX
  8
0
 10
79.349268
 20
509.489493
 42
0.042536
  0
VERTEX
  8
0
 10
86.528565
 20
501.017774
 42
0.042792
  0
VERTEX
  8
0
 10
95.024443
 20
493.901832
 42
0.000000
  0
VERTEX
  8
0
 10
100.905929
 20
489.776205
 42
0.000000
  0
VERTEX
  8
0
 10
95.937977
 20
479.876405
 42
0.038702
  0
VERTEX
  8
0
 10
81.919551
 20
445.552555
 42
0.033934
  0
VERTEX
  8
0
 10
72.614280
 20
407.940981
 42
0.033400
  0
VERTEX
  8
0
 10
68.371703
 20
368.780129
 42
0.034505
  0
VERTEX
  8
0
 10
69.456424
 20
329.831909
 42
0.007697
  0
VERTEX
  8
0
 10
71.148964
 20
314.813052
 42
0.007082
  0
VERTEX
  8
0
 10
73.344776
 20
299.429469
 42
0.007347
  0
VERTEX
  8
0
 10
75.845379
 20
284.917532
 42
0.011675
  0
VERTEX
  8
0
 10
78.456411
 20
272.587583
 42
-0.007193
  0
VERTEX
  8
0
 10
79.892967
 20
266.091639
 42
-0.037903
  0
VERTEX
  8
0
 10
80.356878
 20
262.472522
 42
-0.042601
  0
VERTEX
  8
0
 10
80.241063
 20
259.009608
 42
-0.010584
  0
VERTEX
  8
0
 10
79.450279
 20
253.387872
 42
0.027269
  0
VERTEX
  8
0
 10
78.355080
 20
243.132637
 42
0.013707
  0
VERTEX
  8
0
 10
78.036594
 20
230.111150
 42
0.013621
  0
VERTEX
  8
0
 10
78.423520
 20
217.302405
 42
0.032492
  0
VERTEX
  8
0
 10
79.585013
 20
207.860468
 42
0.031996
  0
VERTEX
  8
0
 10
82.549965
 20
196.312913
 42
0.036003
  0
VERTEX
  8
0
 10
86.878168
 20
185.701333
 42
0.036370
  0
VERTEX
  8
0
 10
92.639010
 20
175.913183
 42
0.033963
  0
VERTEX
  8
0
 10
99.878803
 20
166.822987
 42
0.065283
  0
VERTEX
  8
0
 10
115.341358
 20
153.800404
 42
0.045295
  0
VERTEX
  8
0
 10
135.643546
 20
143.255621
 42
0.041097
  0
VERTEX
  8
0
 10
159.695777
 20
135.647295
 42
0.033475
  0
VERTEX
  8
0
 10
186.385870
 20
131.414111
 42
-0.007507
  0
VERTEX
  8
0
 10
189.303201
 20
131.105528
 42
-0.012398
  0
VERTEX
  8
0
 10
191.755018
 20
130.747022
 42
-0.006025
  0
VERTEX
  8
0
 10
193.763570
 20
130.377301
 42
-0.371563
  0
VERTEX
  8
0
 10
193.971638
 20
130.112068
 42
-0.222112
  0
VERTEX
  8
0
 10
193.788657
 20
129.763521
 42
-0.006497
  0
VERTEX
  8
0
 10
192.417751
 20
128.748683
 42
-0.011891
  0
VERTEX
  8
0
 10
190.724844
 20
127.589334
 42
-0.007778
  0
VERTEX
  8
0
 10
188.721638
 20
126.330256
 42
0.047095
  0
VERTEX
  8
0
 10
175.894455
 20
116.785835
 42
0.033390
  0
VERTEX
  8
0
 10
163.395634
 20
103.901742
 42
0.033765
  0
VERTEX
  8
0
 10
152.942794
 20
89.743451
 42
0.055122
  0
VERTEX
  8
0
 10
146.346244
 20
76.372853
 42
0.056899
  0
VERTEX
  8
0
 10
142.809615
 20
61.569831
 42
0.069907
  0
VERTEX
  8
0
 10
143.075699
 20
47.376867
 42
0.074700
  0
VERTEX
  8
0
 10
147.142617
 20
34.568631
 42
0.079183
  0
VERTEX
  8
0
 10
154.739701
 20
23.804972
 42
0.073212
  0
VERTEX
  8
0
 10
164.626704
 20
16.257834
 42
0.060195
  0
VERTEX
  8
0
 10
176.942114
 20
11.259102
 42
0.059839
  0
VERTEX
  8
0
 10
190.172136
 20
9.316444
 42
0.070333
  0
VERTEX
  8
0
 10
202.750000
 20
10.758797
 42
0.000000
  0
VERTEX
  8
0
 10
210.000000
 20
12.645675
 42
0.000000
  0
VERTEX
  8
0
 10
210.000000
 20
6.322838
 42
0.000000
  0
VERTEX
  8
0
 10
210.000000
 20
0.000000
 42
0.000000
  0
VERTEX
  8
0
 10
215.347741
 20
0.000000
 42
0.000000
  0
VERTEX
  8
0
 10
220.695481
 20
0.000000
 42
0.000000
  0
VERTEX
  8
0
 10
221.303919
 20
21.250000
 42
-0.004541
  0
VERTEX
  8
0
 10
221.653518
 20
30.517417
 42
-0.003316
  0
VERTEX
  8
0
 10
222.203587
 20
40.804856
 42
-0.003350
  0
VERTEX
  8
0
 10
222.854948
 20
50.548328
 42
-0.007384
  0
VERTEX
  8
0
 10
223.512219
 20
57.979295
 42
0.006898
  0
VERTEX
  8
0
 10
224.559081
 20
69.685254
 42
0.065234
  0
VERTEX
  8
0
 10
224.283263
 20
74.705316
 42
0.198330
  0
VERTEX
  8
0
 10
222.742323
 20
77.074045
 42
0.151766
  0
VERTEX
  8
0
 10
219.761986
 20
78.000000
 42
0.040848
  0
VERTEX
  8
0
 10
218.215992
 20
77.873489
 42
0.066552
  0
VERTEX
  8
0
 10
216.958877
 20
77.489835
 42
0.075252
  0
VERTEX
  8
0
 10
215.956135
 20
76.833820
 42
0.070866
  0
VERTEX
  8
0
 10
215.168535
 20
75.898260
 42
0.099489
  0
VERTEX
  8
0
 10
214.016659
 20
72.837307
 42
0.010958
  0
VERTEX
  8
0
 10
212.967904
 20
65.378000
 42
0.010743
  0
VERTEX
  8
0
 10
211.974559
 20
55.092929
 42
0.004357
  0
VERTEX
  8
0
 10
211.044777
 20
41.044005
 42
-0.003849
  0
VERTEX
  8
0
 10
210.514774
 20
32.910479
 42
-0.019523
  0
VERTEX
  8
0
 10
210.007956
 20
28.396500
 42
-0.033155
  0
VERTEX
  8
0
 10
209.403426
 20
25.656261
 42
-0.165488
  0
VERTEX
  8
0
 10
208.512627
 20
24.385575
 42
-0.089450
  0
VERTEX
  8
0
 10
205.234117
 20
22.789945
 42
-0.019213
  0
VERTEX
  8
0
 10
199.063358
 20
21.305344
 42
-0.020658
  0
VERTEX
  8
0
 10
192.661121
 20
20.295993
 42
-0.059119
  0
VERTEX
  8
0
 10
188.163145
 20
20.309675
 42
-0.044935
  0
VERTEX
  8
0
 10
177.572801
 20
22.577463
 42
-0.063074
  0
VERTEX
  8
0
 10
168.781204
 20
26.574862
 42
-0.069257
  0
VERTEX
  8
0
 10
161.878313
 20
32.283887
 42
-0.071124
  0
VERTEX
  8
0
 10
156.869554
 20
39.613408
 42
-0.015904
  0
VERTEX
  8
0
 10
155.027126
 20
43.677163
 42
-0.046247
  0
VERTEX
  8
0
 10
154.112627
 20
46.618610
 42
-0.042255
  0
VERTEX
  8
0
 10
153.711751
 20
49.820805
 42
-0.011607
  0
VERTEX
  8
0
 10
153.625961
 20
54.906427
 42
-0.038086
  0
VERTEX
  8
0
 10
154.436859
 20
64.715529
 42
-0.055588
  0
VERTEX
  8
0
 10
156.744946
 20
73.065726
 42
-0.046435
  0
VERTEX
  8
0
 10
161.182767
 20
81.726028
 42
-0.018443
  0
VERTEX
  8
0
 10
168.768939
 20
92.738206
 42
-0.031540
  0
VERTEX
  8
0
 10
175.753802
 20
100.977735
 42
-0.024426
  0
VERTEX
  8
0
 10
184.317890
 20
109.048016
 42
-0.023956
  0
VERTEX
  8
0
 10
193.841673
 20
116.423858
 42
-0.026583
  0
VERTEX
  8
0
 10
203.711703
 20
122.583326
 42
0.000000
  0
VERTEX
  8
0
 10
208.923406
 20
125.462848
 42
0.000000
  0
VERTEX
  8
0
 10
220.211703
 20
121.794235
 42
0.003730
  0
VERTEX
  8
0
 10
229.410042
 20
118.880530
 42
0.013223
  0
VERTEX
  8
0
 10
235.370558
 20
117.212536
 42
0.014881
  0
VERTEX
  8
0
 10
241.048470
 20
115.962756
 42
0.005724
  0
VERTEX
  8
0
 10
249.000000
 20
114.553155
 42
0.013066
  0
VERTEX
  8
0
 10
259.566758
 20
113.086978
 42
0.009255
  0
VERTEX
  8
0
 10
271.489020
 20
111.972190
 42
0.008947
  0
VERTEX
  8
0
 10
283.972985
 20
111.261946
 42
0.009447
  0
VERTEX
  8
0
 10
296.250000
 20
111.015828
 42
-0.005315
  0
VERTEX
  8
0
 10
302.146121
 20
110.946363
 42
-0.013470
  0
VERTEX
  8
0
 10
306.425510
 20
110.735005
 42
-0.009194
  0
VERTEX
  8
0
 10
309.579758
 20
110.435477
 42
-0.381472
  0
VERTEX
  8
0
 10
310.000000
 20
109.964817
 42
-0.082068
  0
VERTEX
  8
0
 10
309.910597
 20
109.423797
 42
-0.020367
  0
VERTEX
  8
0
 10
309.586205
 20
108.583116
 42
-0.020277
  0
VERTEX
  8
0
 10
309.130539
 20
107.638710
 42
-0.019100
  0
VERTEX
  8
0
 10
308.591338
 20
106.714817
 42
0.049199
  0
VERTEX
  8
0
 10
306.824856
 20
103.221393
 42
0.022132
  0
VERTEX
  8
0
 10
305.179103
 20
98.346602
 42
0.020784
  0
VERTEX
  8
0
 10
303.812747
 20
92.757672
 42
0.019972
  0
VERTEX
  8
0
 10
302.893782
 20
87.000000
 42
0.045585
  0
VERTEX
  8
0
 10
302.635192
 20
77.504470
 42
0.084855
  0
VERTEX
  8
0
 10
304.409396
 20
70.034369
 42
0.098657
  0
VERTEX
  8
0
 10
308.310569
 20
64.321875
 42
0.081205
  0
VERTEX
  8
0
 10
314.359672
 20
60.067932
 42
0.074272
  0
VERTEX
  8
0
 10
319.141359
 20
58.575317
 42
0.032730
  0
VERTEX
  8
0
 10
325.756553
 20
57.985936
 42
0.032679
  0
VERTEX
  8
0
 10
332.567627
 20
58.271561
 42
0.058050
  0
VERTEX
  8
0
 10
338.037374
 20
59.513186
 42
0.051200
  0
VERTEX
  8
0
 10
342.171314
 20
61.466922
 42
0.035281
  0
VERTEX
  8
0
 10
346.407355
 20
64.455010
 42
0.034322
  0
VERTEX
  8
0
 10
350.323897
 20
68.129256
 42
0.039456
  0
VERTEX
  8
0
 10
353.505810
 20
72.147040
 42
-0.000536
  0
VERTEX
  8
0
 10
354.651705
 20
73.851020
 42
-0.000754
  0
VERTEX
  8
0
 10
355.677671
 20
75.368193
 42
-0.000437
  0
VERTEX
  8
0
 10
356.546349
 20
76.646200
 42
-0.010420
  0
VERTEX
  8
0
 10
356.798233
 20
77.000000
 42
-0.455144
  0
VERTEX
  8
0
 10
357.281870
 20
77.037321
 42
-0.015778
  0
VERTEX
  8
0
 10
358.751287
 20
75.497509
 42
-0.015643
  0
VERTEX
  8
0
 10
360.807246
 20
73.052480
 42
-0.004555
  0
VERTEX
  8
0
 10
363.819196
 20
69.161809
 42
0.038762
  0
VERTEX
  8
0
 10
365.037329
 20
67.792814
 42
0.017352
  0
VERTEX
  8
0
 10
366.832114
 20
66.181908
 42
0.017056
  0
VERTEX
  8
0
 10
368.857142
 20
64.601658
 42
0.022192
  0
VERTEX
  8
0
 10
370.819196
 20
63.304470
 42
0.029235
  0
VERTEX
  8
0
 10
373.849788
 20
61.721561
 42
0.060354
  0
VERTEX
  8
0
 10
376.397742
 20
60.926900
 42
0.038966
  0
VERTEX
  8
0
 10
379.697976
 20
60.582873
 42
0.006494
  0
VERTEX
  8
0
 10
386.078420
 20
60.500000
 42
0.006329
  0
VERTEX
  8
0
 10
392.593106
 20
60.582473
 42
0.041796
  0
VERTEX
  8
0
 10
395.828974
 20
60.936128
 42
0.064030
  0
VERTEX
  8
0
 10
398.355366
 20
61.774155
 42
0.026396
  0
VERTEX
  8
0
 10
401.523660
 20
63.508924
 42
0.138284
  0
VERTEX
  8
0
 10
408.549857
 20
71.169371
 42
0.096164
  0
VERTEX
  8
0
 10
411.763565
 20
82.530058
 42
0.080870
  0
VERTEX
  8
0
 10
410.711607
 20
96.085179
 42
0.062357
  0
VERTEX
  8
0
 10
405.432511
 20
109.967275
 42
-0.003578
  0
VERTEX
  8
0
 10
404.117132
 20
112.489029
 42
-0.005364
  0
VERTEX
  8
0
 10
403.008300
 20
114.710823
 42
-0.002381
  0
VERTEX
  8
0
 10
402.093967
 20
116.616206
 42
-0.111117
  0
VERTEX
  8
0
 10
402.000000
 20
117.033817
 42
-0.329921
  0
VERTEX
  8
0
 10
402.206134
 20
117.312212
 42
-0.006695
  0
VERTEX
  8
0
 10
403.982813
 20
117.828304
 42
-0.013018
  0
VERTEX
  8
0
 10
406.162269
 20
118.369226
 42
-0.008037
  0
VERTEX
  8
0
 10
408.750000
 20
118.896930
 42
0.009657
  0
VERTEX
  8
0
 10
435.709823
 20
124.485758
 42
0.018392
  0
VERTEX
  8
0
 10
457.101398
 20
130.187824
 42
0.021300
  0
VERTEX
  8
0
 10
475.767701
 20
136.788103
 42
0.020041
  0
VERTEX
  8
0
 10
494.196374
 20
145.074078
 42
0.007616
  0
VERTEX
  8
0
 10
504.892256
 20
150.613247
 42
0.031078
  0
VERTEX
  8
0
 10
511.108690
 20
154.469322
 42
0.032702
  0
VERTEX
  8
0
 10
516.647456
 20
158.973380
 42
0.009064
  0
VERTEX
  8
0
 10
524.723754
 20
166.745983
 42
-0.008999
  0
VERTEX
  8
0
 10
533.610496
 20
175.300783
 42
-0.012643
  0
VERTEX
  8
0
 10
541.863765
 20
182.584648
 42
-0.013320
  0
VERTEX
  8
0
 10
550.118863
 20
189.140412
 42
-0.011996
  0
VERTEX
  8
0
 10
559.000000
 20
195.487862
 42
0.004546
  0
VERTEX
  8
0
 10
562.306127
 20
197.777141
 42
0.006432
  0
VERTEX
  8
0
 10
565.204041
 20
199.879357
 42
0.003880
  0
VERTEX
  8
0
 10
567.599137
 20
201.693359
 42
0.086968
  0
VERTEX
  8
0
 10
568.183968
 20
202.332149
 42
0.076854
  0
VERTEX
  8
0
 10
568.488054
 20
203.023410
 42
0.010306
  0
VERTEX
  8
0
 10
568.867735
 20
204.572190
 42
0.011707
  0
VERTEX
  8
0
 10
569.239504
 20
206.440867
 42
0.009607
  0
VERTEX
  8
0
 10
569.551217
 20
208.452176
 42
-0.027961
  0
VERTEX
  8
0
 10
570.330756
 20
212.495686
 42
-0.045609
  0
VERTEX
  8
0
 10
571.486698
 20
215.789516
 42
-0.056822
  0
VERTEX
  8
0
 10
572.918251
 20
218.165892
 42
-0.138036
  0
VERTEX
  8
0
 10
574.544802
 20
219.378819
 42
-0.109965
  0
VERTEX
  8
0
 10
578.467020
 20
219.961006
 42
-0.139659
  0
VERTEX
  8
0
 10
581.892201
 20
218.713762
 42
-0.102955
  0
VERTEX
  8
0
 10
584.874110
 20
215.440624
 42
-0.042122
  0
VERTEX
  8
0
 10
587.500000
 20
209.997573
 42
0.038123
  0
VERTEX
  8
0
 10
589.416459
 20
205.942645
 42
0.077058
  0
VERTEX
  8
0
 10
591.608911
 20
203.183966
 42
0.111516
  0
VERTEX
  8
0
 10
593.935498
 20
201.841516
 42
0.165368
  0
VERTEX
  8
0
 10
596.268027
 20
201.903446
 42
0.105554
  0
VERTEX
  8
0
 10
597.314554
 20
202.566354
 42
0.021556
  0
VERTEX
  8
0
 10
598.821207
 20
204.174843
 42
0.021818
  0
VERTEX
  8
0
 10
600.439597
 20
206.234546
 42
0.018962
  0
VERTEX
  8
0
 10
601.954167
 20
208.524042
 42
-0.036221
  0
VERTEX
  8
0
 10
604.813347
 20
212.538093
 42
-0.091022
  0
VERTEX
  8
0
 10
607.555182
 20
214.837747
 42
-0.108970
  0
VERTEX
  8
0
 10
610.613347
 20
215.781361
 42
-0.067013
  0
VERTEX
  8
0
 10
614.392787
 20
215.586091
 42
-0.047909
  0
VERTEX
  8
0
 10
615.897057
 20
215.151591
 42
-0.057103
  0
VERTEX
  8
0
 10
617.198564
 20
214.455678
 42
-0.059416
  0
VERTEX
  8
0
 10
618.267654
 20
213.510813
 42
-0.059297
  0
VERTEX
  8
0
 10
619.085394
 20
212.340440
 42
-0.086938
  0
VERTEX
  8
0
 10
620.059333
 20
209.381253
 42
-0.037674
  0
VERTEX
  8
0
 10
620.346935
 20
205.232118
 42
-0.035913
  0
VERTEX
  8
0
 10
619.991359
 20
200.677000
 42
-0.040484
  0
VERTEX
  8
0
 10
618.988069
 20
196.404019
 42
0.027190
  0
VERTEX
  8
0
 10
618.350177
 20
193.978581
 42
0.061984
  0
VERTEX
  8
0
 10
618.201030
 20
192.094550
 42
0.052639
  0
VERTEX
  8
0
 10
618.509989
 20
190.050176
 42
0.015237
  0
VERTEX
  8
0
 10
619.410477
 20
186.983892
 42
-0.043140
  0
VERTEX
  8
0
 10
620.831047
 20
180.913747
 42
-0.020925
  0
VERTEX
  8
0
 10
621.641787
 20
172.978688
 42
-0.020932
  0
VERTEX
  8
0
 10
621.787504
 20
164.936398
 42
-0.039753
  0
VERTEX
  8
0
 10
621.120864
 20
158.500000
 42
-0.079107
  0
VERTEX
  8
0
 10
616.464572
 20
145.360035
 42
-0.041757
  0
VERTEX
  8
0
 10
606.930481
 20
130.868244
 42
-0.039060
  0
VERTEX
  8
0
 10
594.062622
 20
116.872887
 42
-0.039793
  0
VERTEX
  8
0
 10
579.250000
 20
105.144209
 42
0.008956
  0
VERTEX
  8
0
 10
575.107059
 20
102.260381
 42
0.023408
  0
VERTEX
  8
0
 10
572.270791
 20
100.000326
 42
0.028697
  0
VERTEX
  8
0
 10
570.453683
 20
98.213493
 42
0.186214
  0
VERTEX
  8
0
 10
570.000000
 20
97.037554
 42
0.044747
  0
VERTEX
  8
0
 10
570.105135
 20
95.865125
 42
0.005072
  0
VERTEX
  8
0
 10
570.606164
 20
93.245964
 42
0.006107
  0
VERTEX
  8
0
 10
571.273364
 20
90.136522
 42
0.004930
  0
VERTEX
  8
0
 10
572.063537
 20
86.813347
 42
-0.004861
  0
VERTEX
  8
0
 10
574.218114
 20
77.757554
 42
-0.002807
  0
VERTEX
  8
0
 10
576.643424
 20
66.821698
 42
-0.002809
  0
VERTEX
  8
0
 10
578.932464
 20
55.922610
 42
-0.005128
  0
VERTEX
  8
0
 10
580.658992
 20
47.000000
 42
0.015059
  0
VERTEX
  8
0
 10
581.461551
 20
43.252966
 42
0.018850
  0
VERTEX
  8
0
 10
582.439910
 20
39.835281
 42
0.020786
  0
VERTEX
  8
0
 10
583.514017
 20
36.964856
 42
0.048300
  0
VERTEX
  8
0
 10
584.606737
 20
34.946249
 42
-0.060164
  0
VERTEX
  8
0
 10
586.112908
 20
31.999405
 42
-0.057766
  0
VERTEX
  8
0
 10
586.900369
 20
28.737962
 42
-0.066026
  0
VERTEX
  8
0
 10
586.871297
 20
25.930192
 42
-0.222309
  0
VERTEX
  8
0
 10
585.890576
 20
24.432372
 42
0.223030
  0
VERTEX
  8
0
 10
585.402521
 20
23.684745
 42
0.024664
  0
VERTEX
  8
0
 10
585.213716
 20
21.596086
 42
0.020912
  0
VERTEX
  8
0
 10
585.216725
 20
18.543719
 42
0.007149
  0
VERTEX
  8
0
 10
585.469405
 20
14.123355
 42
0.004547
  0
VERTEX
  8
0
 10
586.255572
 20
4.377290
 42
0.095381
  0
VERTEX
  8
0
 10
587.057818
 20
1.584990
 42
0.235438
  0
VERTEX
  8
0
 10
588.728600
 20
0.345210
 42
0.044011
  0
VERTEX
  8
0
 10
592.642851
 20
-0.000000
 42
0.000000
  0
VERTEX
  8
0
 10
598.068886
 20
-0.000000
 42
0.000000
  0
VERTEX
  8
0
 10
597.446203
 20
4.750000
 42
-0.002981
  0
VERTEX
  8
0
 10
597.153450
 20
7.091429
 42
-0.001185
  0
VERTEX
  8
0
 10
596.778489
 20
10.307812
 42
-0.001173
  0
VERTEX
  8
0
 10
596.390225
 20
13.780625
 42
-0.001474
  0
VERTEX
  8
0
 10
596.047541
 20
17.000000
 42
0.005072
  0
VERTEX
  8
0
 10
595.738999
 20
19.712970
 42
0.017392
  0
VERTEX
  8
0
 10
595.459620
 20
21.464583
 42
0.191990
  0
VERTEX
  8
0
 10
595.283300
 20
21.738272
 42
0.593339
  0
VERTEX
  8
0
 10
595.135780
 20
21.666667
 42
-0.033603
  0
VERTEX
  8
0
 10
595.000357
 20
20.494949
 42
-0.084879
  0
VERTEX
  8
0
 10
594.705785
 20
19.691954
 42
-0.148229
  0
VERTEX
  8
0
 10
594.277138
 20
19.288177
 42
-0.198594
  0
VERTEX
  8
0
 10
593.750000
 20
19.251678
 42
-0.273137
  0
VERTEX
  8
0
 10
593.129981
 20
19.966393
 42
-0.020237
  0
VERTEX
  8
0
 10
592.752067
 20
22.632031
 42
-0.017574
  0
VERTEX
  8
0
 10
592.486886
 20
26.692132
 42
-0.004845
  0
VERTEX
  8
0
 10
592.356434
 20
33.089954
 42
0.015151
  0
VERTEX
  8
0
 10
591.930001
 20
43.485793
 42
0.019783
  0
VERTEX
  8
0
 10
590.877228
 20
52.943598
 42
0.015953
  0
VERTEX
  8
0
 10
588.888413
 20
63.730876
 42
0.006016
  0
VERTEX
  8
0
 10
585.445799
 20
78.686100
 42
-0.000639
  0
VERTEX
  8
0
 10
584.124848
 20
84.154809
 42
-0.001022
  0
VERTEX
  8
0
 10
583.012203
 20
88.829089
 42
-0.000178
  0
VERTEX
  8
0
 10
582.038248
 20
92.964743
 42
-0.057797
  0
VERTEX
  8
0
 10
582.000000
 20
93.294520
 42
-0.234910
  0
VERTEX
  8
0
 10
582.126467
 20
93.548848
 42
-0.002828
  0
VERTEX
  8
0
 10
583.648104
 20
94.687063
 42
-0.007726
  0
VERTEX
  8
0
 10
585.459919
 20
95.983614
 42
-0.004887
  0
VERTEX
  8
0
 10
587.610566
 20
97.442046
 42
0.039461
  0
VERTEX
  8
0
 10
597.323773
 20
105.058794
 42
0.020118
  0
VERTEX
  8
0
 10
608.310225
 20
116.017260
 42
0.020119
  0
VERTEX
  8
0
 10
618.391567
 20
127.836500
 42
0.039039
  0
VERTEX
  8
0
 10
625.271472
 20
138.157739
 42
0.053533
  0
VERTEX
  8
0
 10
629.902124
 20
149.021140
 42
0.043338
  0
VERTEX
  8
0
 10
632.537193
 20
161.423526
 42
0.043126
  0
VERTEX
  8
0
 10
633.002831
 20
174.164819
 42
0.051479
  0
VERTEX
  8
0
 10
631.177495
 20
186.038411
 42
-0.013420
  0
VERTEX
  8
0
 10
630.301691
 20
189.803193
 42
-0.041722
  0
VERTEX
  8
0
 10
629.994342
 20
192.388403
 42
-0.046589
  0
VERTEX
  8
0
 10
630.136644
 20
194.831742
 42
-0.020072
  0
VERTEX
  8
0
 10
630.758092
 20
198.038411
 42
0.059027
  0
VERTEX
  8
0
 10
631.603318
 20
205.443652
 42
0.066163
  0
VERTEX
  8
0
 10
630.628140
 20
212.548403
 42
0.071029
  0
VERTEX
  8
0
 10
627.942775
 20
218.720834
 42
0.087565
  0
VERTEX
  8
0
 10
623.777719
 20
223.404433
 42
0.000000
  0
VERTEX
  8
0
 10
620.500000
 20
225.997207
 42
0.000000
  0
VERTEX
  8
0
 10
623.799642
 20
231.748603
 42
0.024594
  0
VERTEX
  8
0
 10
633.769807
 20
251.294524
 42
0.029618
  0
VERTEX
  8
0
 10
641.096734
 20
270.567719
 42
0.028412
  0
VERTEX
  8
0
 10
646.312744
 20
291.231338
 42
0.019839
  0
VERTEX
  8
0
 10
649.923928
 20
315.000000
 42
0.053683
  0
VERTEX
  8
0
 10
650.135565
 20
370.100218
 42
0.047939
  0
VERTEX
  8
0
 10
638.807351
 20
426.206650
 42
0.047663
  0
VERTEX
  8
0
 10
616.903891
 20
479.449215
 42
0.051618
  0
VERTEX
  8
0
 10
585.781180
 20
526.064357
 42
-0.008404
  0
VERTEX
  8
0
 10
584.332605
 20
527.874034
 42
-0.011925
  0
VERTEX
  8
0
 10
583.110722
 20
529.534600
 42
-0.008077
  0
VERTEX
  8
0
 10
582.154312
 20
530.949626
 42
-0.145568
  0
VERTEX
  8
0
 10
582.000000
 20
531.468429
 42
-0.177929
  0
VERTEX
  8
0
 10
582.177575
 20
531.951636
 42
-0.012126
  0
VERTEX
  8
0
 10
583.167052
 20
533.060431
 42
-0.016149
  0
VERTEX
  8
0
 10
584.450928
 20
534.344967
 42
-0.011354
  0
VERTEX
  8
0
 10
585.972942
 20
535.708835
 42
0.052245
  0
VERTEX
  8
0
 10
590.563926
 20
540.554124
 42
0.021701
  0
VERTEX
  8
0
 10
595.740631
 20
547.950394
 42
0.021805
  0
VERTEX
  8
0
 10
600.384794
 20
555.993092
 42
0.039235
  0
VERTEX
  8
0
 10
603.360745
 20
563.000000
 42
0.018653
  0
VERTEX
  8
0
 10
605.564356
 20
570.496524
 42
0.040367
  0
VERTEX
  8
0
 10
606.567736
 20
576.416105
 42
0.045714
  0
VERTEX
  8
0
 10
606.544828
 20
581.938280
 42
0.031571
  0
VERTEX
  8
0
 10
605.556719
 20
588.114824
 42
0.084268
  0
VERTEX
  8
0
 10
597.371485
 20
608.033574
 42
0.084442
  0
VERTEX
  8
0
 10
583.076468
 20
624.119522
 42
0.085155
  0
VERTEX
  8
0
 10
564.382430
 20
634.475692
 42
0.087710
  0
VERTEX
  8
0
 10
543.500000
 20
637.867637
 42
0.008574
  0
VERTEX
  8
0
 10
540.563312
 20
637.776290
 42
0.007731
  0
VERTEX
  8
0
 10
537.528125
 20
637.582671
 42
0.007770
  0
VERTEX
  8
0
 10
534.813165
 20
637.324774
 42
0.024216
  0
SEQEND
  0
POLYLINE
  8
0
 66
1
 70
1
  0
VERTEX
  8
0
 10
397.000000
 20
612.010148
 42
-0.041273
  0
VERTEX
  8
0
 10
443.087549
 20
604.306172
 42
-0.044110
  0
VERTEX
  8
0
 10
486.224516
 20
589.226883
 42
-0.044920
  0
VERTEX
  8
0
 10
525.347386
 20
567.125271
 42
-0.046136
  0
VERTEX
  8
0
 10
559.516508
 20
538.565187
 42
-0.023042
  0
VERTEX
  8
0
 10
575.247732
 20
521.207918
 42
-0.018992
  0
VERTEX
  8
0
 10
590.415237
 20
501.348533
 42
-0.019357
  0
VERTEX
  8
0
 10
603.639809
 20
480.966271
 42
-0.028622
  0
VERTEX
  8
0
 10
613.471249
 20
462.063972
 42
-0.023254
  0
VERTEX
  8
0
 10
625.415422
 20
431.798671
 42
-0.028208
  0
VERTEX
  8
0
 10
633.638778
 20
402.426759
 42
-0.028679
  0
VERTEX
  8
0
 10
638.406831
 20
372.737690
 42
-0.025558
  0
VERTEX
  8
0
 10
639.993452
 20
341.527328
 42
-0.020816
  0
VERTEX
  8
0
 10
638.874937
 20
314.871869
 42
-0.031397
  0
VERTEX
  8
0
 10
635.486709
 20
291.883596
 42
-0.033583
  0
VERTEX
  8
0
 10
629.478377
 20
270.690004
 42
-0.029415
  0
VERTEX
  8
0
 10
620.464294
 20
249.500000
 42
-0.010162
  0
VERTEX
  8
0
 10
615.295616
 20
239.604310
 42
-0.025288
  0
VERTEX
  8
0
 10
611.012702
 20
232.653522
 42
-0.033723
  0
VERTEX
  8
0
 10
607.342276
 20
228.022692
 42
-0.118003
  0
VERTEX
  8
0
 10
604.216210
 20
225.892103
 42
0.028404
  0
VERTEX
  8
0
 10
602.957190
 20
225.329688
 42
0.013136
  0
VERTEX
  8
0
 10
601.386089
 20
224.464900
 42
0.012964
  0
VERTEX
  8
0
 10
599.778068
 20
223.467085
 42
0.017578
  0
VERTEX
  8
0
 10
598.383553
 20
222.478979
 42
0.000000
  0
VERTEX
  8
0
 10
595.258237
 20
220.095184
 42
0.000000
  0
VERTEX
  8
0
 10
592.083799
 20
224.045347
 42
0.041752
  0
VERTEX
  8
0
 10
588.653574
 20
227.651501
 42
0.081530
  0
VERTEX
  8
0
 10
585.310005
 20
229.767555
 42
0.078429
  0
VERTEX
  8
0
 10
581.377525
 20
230.750772
 42
0.036243
  0
VERTEX
  8
0
 10
576.092564
 20
230.835388
 42
0.017194
  0
VERTEX
  8
0
 10
572.968488
 20
230.550847
 42
0.030414
  0
VERTEX
  8
0
 10
570.425932
 20
230.072339
 42
0.037008
  0
VERTEX
  8
0
 10
568.372331
 20
229.389940
 42
0.057878
  0
VERTEX
  8
0
 10
566.749201
 20
228.481128
 42
0.087550
  0
VERTEX
  8
0
 10
564.243650
 20
225.897683
 42
0.031720
  0
VERTEX
  8
0
 10
561.642673
 20
221.479004
 42
0.031771
  0
VERTEX
  8
0
 10
559.618306
 20
216.757932
 42
0.085598
  0
VERTEX
  8
0
 10
559.000000
 20
213.172709
 42
-0.105821
  0
VERTEX
  8
0
 10
558.407560
 20
210.404788
 42
-0.087406
  0
VERTEX
  8
0
 10
556.710294
 20
207.902925
 42
-0.040665
  0
VERTEX
  8
0
 10
553.171380
 20
204.804944
 42
-0.006080
  0
VERTEX
  8
0
 10
545.500000
 20
199.263007
 42
0.014824
  0
VERTEX
  8
0
 10
540.811099
 20
195.749281
 42
0.006723
  0
VERTEX
  8
0
 10
534.875991
 20
190.888718
 42
0.006650
  0
VERTEX
  8
0
 10
528.748547
 20
185.590645
 42
0.009058
  0
VERTEX
  8
0
 10
523.375715
 20
180.641737
 42
0.000000
  0
VERTEX
  8
0
 10
511.251430
 20
169.061174
 42
0.000000
  0
VERTEX
  8
0
 10
502.375715
 20
166.988724
 42
-0.012771
  0
VERTEX
  8
0
 10
434.025294
 20
152.859453
 42
-0.016355
  0
VERTEX
  8
0
 10
370.450340
 20
143.537023
 42
-0.017698
  0
VERTEX
  8
0
 10
311.105531
 20
138.928588
 42
-0.021696
  0
VERTEX
  8
0
 10
255.500000
 20
138.999587
 42
0.000232
  0
VERTEX
  8
0
 10
245.098828
 20
139.459604
 42
0.000140
  0
VERTEX
  8
0
 10
232.793750
 20
139.994652
 42
0.000141
  0
VERTEX
  8
0
 10
220.583621
 20
140.518690
 42
0.000248
  0
VERTEX
  8
0
 10
210.500000
 20
140.943603
 42
-0.014573
  0
VERTEX
  8
0
 10
185.793983
 20
142.694778
 42
-0.024937
  0
VERTEX
  8
0
 10
165.361040
 20
145.778120
 42
-0.029278
  0
VERTEX
  8
0
 10
147.951533
 20
150.375375
 42
-0.036619
  0
VERTEX
  8
0
 10
132.500000
 20
156.725282
 42
-0.047081
  0
VERTEX
  8
0
 10
117.084373
 20
166.330371
 42
-0.062888
  0
VERTEX
  8
0
 10
105.338909
 20
177.878287
 42
-0.061643
  0
VERTEX
  8
0
 10
96.669565
 20
192.173871
 42
-0.043003
  0
VERTEX
  8
0
 10
90.442843
 20
210.000000
 42
-0.046204
  0
VERTEX
  8
0
 10
89.104947
 20
218.410167
 42
-0.016173
  0
VERTEX
  8
0
 10
88.699680
 20
230.658631
 42
-0.016504
  0
VERTEX
  8
0
 10
89.109632
 20
243.357446
 42
-0.030790
  0
VERTEX
  8
0
 10
90.410915
 20
253.561888
 42
0.008013
  0
VERTEX
  8
0
 10
91.412093
 20
259.312513
 42
0.043333
  0
VERTEX
  8
0
 10
91.632764
 20
262.471871
 42
0.047293
  0
VERTEX
  8
0
 10
91.293731
 20
265.502820
 42
0.010661
  0
VERTEX
  8
0
 10
90.123955
 20
270.561888
 42
-0.013055
  0
VERTEX
  8
0
 10
87.787652
 20
280.891035
 42
-0.006376
  0
VERTEX
  8
0
 10
85.321898
 20
294.171149
 42
-0.006280
  0
VERTEX
  8
0
 10
83.082534
 20
308.201813
 42
-0.008373
  0
VERTEX
  8
0
 10
81.422804
 20
321.000000
 42
-0.022217
  0
VERTEX
  8
0
 10
80.141280
 20
339.874736
 42
-0.011576
  0
VERTEX
  8
0
 10
80.136215
 20
363.467857
 42
-0.011528
  0
VERTEX
  8
0
 10
81.204206
 20
386.673162
 42
-0.026097
  0
VERTEX
  8
0
 10
83.329483
 20
404.118314
 42
-0.014335
  0
VERTEX
  8
0
 10
87.484073
 20
424.396944
 42
-0.020532
  0
VERTEX
  8
0
 10
92.410780
 20
442.074260
 42
-0.021182
  0
VERTEX
  8
0
 10
98.638248
 20
458.861903
 42
-0.016833
  0
VERTEX
  8
0
 10
106.720487
 20
476.427290
 42
-0.036255
  0
VERTEX
  8
0
 10
121.385706
 20
501.038518
 42
-0.032430
  0
VERTEX
  8
0
 10
139.962305
 20
524.261360
 42
-0.031605
  0
VERTEX
  8
0
 10
161.910165
 20
545.461604
 42
-0.030361
  0
VERTEX
  8
0
 10
186.639448
 20
564.034909
 42
-0.036614
  0
VERTEX
  8
0
 10
217.171233
 20
581.124543
 42
-0.029124
  0
VERTEX
  8
0
 10
252.271029
 20
595.097364
 42
-0.028030
  0
VERTEX
  8
0
 10
290.271968
 20
605.393026
 42
-0.027347
  0
VERTEX
  8
0
 10
329.500000
 20
611.476536
 42
-0.016398
  0
VERTEX
  8
0
 10
343.654066
 20
612.417501
 42
-0.006421
  0
VERTEX
  8
0
 10
363.226110
 20
612.823632
 42
-0.006423
  0
VERTEX
  8
0
 10
382.807836
 20
612.726873
 42
-0.016337
  0
SEQEND
  0
POLYLINE
  8
0
 66
1
 70
1
  0
VERTEX
  8
0
 10
684.759648
 20
310.750000
 42
0.011875
  0
VERTEX
  8
0
 10
680.724452
 20
305.690383
 42
0.006339
  0
VERTEX
  8
0
 10
675.966139
 20
299.256687
 42
0.006259
  0
VERTEX
  8
0
 10
671.201015
 20
292.462201
 42
0.008671
  0
VERTEX
  8
0
 10
667.112319
 20
286.245337
 42
0.016739
  0
VERTEX
  8
0
 10
665.620211
 20
283.704179
 42
0.038143
  0
VERTEX
  8
0
 10
664.711137
 20
281.675126
 42
0.051858
  0
VERTEX
  8
0
 10
664.302367
 20
280.014399
 42
0.096201
  0
VERTEX
  8
0
 10
664.377136
 20
278.633507
 42
0.110866
  0
VERTEX
  8
0
 10
665.109384
 20
277.180243
 42
0.005245
  0
VERTEX
  8
0
 10
668.647887
 20
272.962545
 42
0.008408
  0
VERTEX
  8
0
 10
673.017123
 20
268.034427
 42
0.005930
  0
VERTEX
  8
0
 10
678.085088
 20
262.638170
 42
0.007410
  0
VERTEX
  8
0
 10
688.438695
 20
252.187156
 42
0.099532
  0
VERTEX
  8
0
 10
692.936609
 20
249.260475
 42
0.260519
  0
VERTEX
  8
0
 10
696.416242
 20
249.719881
 42
0.072772
  0
VERTEX
  8
0
 10
700.439385
 20
253.750000
 42
-0.000267
  0
VERTEX
  8
0
 10
701.847457
 20
255.642069
 42
-0.000333
  0
VERTEX
  8
0
 10
703.157815
 20
257.398438
 42
-0.000269
  0
VERTEX
  8
0
 10
704.259745
 20
258.871735
 42
-0.002549
  0
VERTEX
  8
0
 10
704.735192
 20
259.500000
 42
0.008778
  0
VERTEX
  8
0
 10
709.380701
 20
265.800270
 42
0.008491
  0
VERTEX
  8
0
 10
713.855205
 20
272.329135
 42
0.007116
  0
VERTEX
  8
0
 10
717.580585
 20
278.146271
 42
0.053001
  0
VERTEX
  8
0
 10
719.005012
 20
281.099033
 42
0.033685
  0
VERTEX
  8
0
 10
719.449873
 20
282.668364
 42
0.026839
  0
VERTEX
  8
0
 10
719.721985
 20
284.407365
 42
0.027567
  0
VERTEX
  8
0
 10
719.798395
 20
286.051739
 42
0.059374
  0
VERTEX
  8
0
 10
719.637676
 20
287.307478
 42
0.096501
  0
VERTEX
  8
0
 10
718.162173
 20
290.455425
 42
0.016216
  0
VERTEX
  8
0
 10
714.043779
 20
295.727585
 42
0.016279
  0
VERTEX
  8
0
 10
708.486552
 20
301.960777
 42
0.010837
  0
VERTEX
  8
0
 10
701.738495
 20
308.750000
 42
0.017771
  0
VERTEX
  8
0
 10
695.479214
 20
314.365385
 42
0.145625
  0
VERTEX
  8
0
 10
691.994175
 20
315.865491
 42
0.208709
  0
VERTEX
  8
0
 10
688.901281
 20
314.928176
 42
0.042037
  0
SEQEND
  0
POLYLINE
  8
0
 66
1
 70
1
  0
VERTEX
  8
0
 10
699.641315
 20
294.973955
 42
-0.014750
  0
VERTEX
  8
0
 10
705.872705
 20
288.201949
 42
-0.159519
  0
VERTEX
  8
0
 10
707.294842
 20
284.819209
 42
-0.161475
  0
VERTEX
  8
0
 10
706.431428
 20
281.269208
 42
-0.015213
  0
VERTEX
  8
0
 10
701.380235
 20
273.711906
 42
-0.008374
  0
VERTEX
  8
0
 10
698.660171
 20
270.030698
 42
-0.013065
  0
VERTEX
  8
0
 10
696.183774
 20
266.963583
 42
-0.007194
  0
VERTEX
  8
0
 10
694.036450
 20
264.514073
 42
-0.261521
  0
VERTEX
  8
0
 10
693.351762
 20
264.283317
 42
-0.127783
  0
VERTEX
  8
0
 10
692.626680
 20
264.625295
 42
-0.004189
  0
VERTEX
  8
0
 10
690.160949
 20
266.715967
 42
-0.007765
  0
VERTEX
  8
0
 10
687.289454
 20
269.271147
 42
-0.005295
  0
VERTEX
  8
0
 10
684.101838
 20
272.260399
 42
0.000000
  0
VERTEX
  8
0
 10
676.000151
 20
280.020798
 42
0.000000
  0
VERTEX
  8
0
 10
681.952379
 20
288.770642
 42
-0.006064
  0
VERTEX
  8
0
 10
685.742227
 20
294.199024
 42
-0.012061
  0
VERTEX
  8
0
 10
688.897766
 20
298.386895
 42
-0.007696
  0
VERTEX
  8
0
 10
691.496162
 20
301.565843
 42
-0.221037
  0
VERTEX
  8
0
 10
692.430270
 20
302.000000
 42
-0.194671
  0
VERTEX
  8
0
 10
692.667317
 20
301.904072
 42
-0.000834
  0
VERTEX
  8
0
 10
694.693863
 20
299.936099
 42
-0.003859
  0
VERTEX
  8
0
 10
696.986574
 20
297.667455
 42
-0.002403
  0
SEQEND
  0
POLYLINE
  8
0
 66
1
 70
1
  0
VERTEX
  8
0
 10
569.556704
 20
196.777494
 42
0.044201
  0
VERTEX
  8
0
 10
568.398645
 20
194.767355
 42
0.125563
  0
VERTEX
  8
0
 10
568.104241
 20
193.189852
 42
0.130881
  0
VERTEX
  8
0
 10
568.605746
 20
191.704405
 42
0.049921
  0
VERTEX
  8
0
 10
570.000000
 20
190.000000
 42
0.070960
  0
VERTEX
  8
0
 10
571.313366
 20
189.014534
 42
0.066492
  0
VERTEX
  8
0
 10
572.878770
 20
188.408730
 42
0.045120
  0
VERTEX
  8
0
 10
575.030348
 20
188.091738
 42
0.014026
  0
VERTEX
  8
0
 10
578.300000
 20
188.000000
 42
-0.024219
  0
VERTEX
  8
0
 10
582.789176
 20
187.782424
 42
-0.109721
  0
VERTEX
  8
0
 10
585.265442
 20
186.974370
 42
-0.174658
  0
VERTEX
  8
0
 10
586.553605
 20
185.416701
 42
-0.086502
  0
VERTEX
  8
0
 10
587.000000
 20
182.855764
 42
-0.112169
  0
VERTEX
  8
0
 10
586.384604
 20
180.147117
 42
-0.074973
  0
VERTEX
  8
0
 10
584.591557
 20
177.506295
 42
-0.066912
  0
VERTEX
  8
0
 10
581.859934
 20
175.247045
 42
-0.058218
  0
VERTEX
  8
0
 10
578.500000
 20
173.660724
 42
0.063408
  0
VERTEX
  8
0
 10
575.380991
 20
172.148509
 42
0.108874
  0
VERTEX
  8
0
 10
573.366614
 20
170.095138
 42
0.142070
  0
VERTEX
  8
0
 10
572.711104
 20
167.786588
 42
0.145458
  0
VERTEX
  8
0
 10
573.401772
 20
165.509354
 42
0.236469
  0
VERTEX
  8
0
 10
577.433207
 20
163.184891
 42
0.090587
  0
VERTEX
  8
0
 10
584.040039
 20
163.995375
 42
0.078242
  0
VERTEX
  8
0
 10
590.870984
 20
167.370485
 42
0.106811
  0
VERTEX
  8
0
 10
595.501330
 20
172.412057
 42
0.098901
  0
VERTEX
  8
0
 10
597.942963
 20
179.472834
 42
0.093330
  0
VERTEX
  8
0
 10
597.559373
 20
187.084638
 42
0.100231
  0
VERTEX
  8
0
 10
594.521598
 20
193.600254
 42
0.135560
  0
VERTEX
  8
0
 10
589.433352
 20
197.592294
 42
0.050460
  0
VERTEX
  8
0
 10
587.630073
 20
198.140139
 42
0.016257
  0
VERTEX
  8
0
 10
584.868987
 20
198.590249
 42
0.015908
  0
VERTEX
  8
0
 10
581.720657
 20
198.897462
 42
0.016366
  0
VERTEX
  8
0
 10
578.588823
 20
199.000000
 42
0.008510
  0
VERTEX
  8
0
 10
574.306522
 20
198.927106
 42
0.051855
  0
VERTEX
  8
0
 10
572.115759
 20
198.623612
 42
0.099184
  0
VERTEX
  8
0
 10
570.714877
 20
197.965824
 42
0.080943
  0
SEQEND
  0
POLYLINE
  8
0
 66
1
 70
1
  0
VERTEX
  8
0
 10
402.000000
 20
335.413618
 42
0.051920
  0
VERTEX
  8
0
 10
395.648588
 20
330.866231
 42
0.073526
  0
VERTEX
  8
0
 10
391.182302
 20
325.551835
 42
0.075844
  0
VERTEX
  8
0
 10
388.536101
 20
319.305443
 42
0.059445
  0
VERTEX
  8
0
 10
387.576801
 20
312.000000
 42
0.095192
  0
VERTEX
  8
0
 10
389.456369
 20
301.552159
 42
0.102312
  0
VERTEX
  8
0
 10
395.059258
 20
292.843930
 42
0.102628
  0
VERTEX
  8
0
 10
403.640072
 20
287.090897
 42
0.096356
  0
VERTEX
  8
0
 10
414.000000
 20
285.055893
 42
0.041834
  0
VERTEX
  8
0
 10
419.416474
 20
285.499831
 42
0.050550
  0
VERTEX
  8
0
 10
424.336233
 20
286.842426
 42
0.051730
  0
VERTEX
  8
0
 10
428.793966
 20
289.111249
 42
0.047326
  0
VERTEX
  8
0
 10
432.837629
 20
292.306578
 42
0.123566
  0
VERTEX
  8
0
 10
439.509616
 20
302.911091
 42
0.116962
  0
VERTEX
  8
0
 10
440.566392
 20
315.639355
 42
0.117531
  0
VERTEX
  8
0
 10
435.798326
 20
327.439142
 42
0.125633
  0
VERTEX
  8
0
 10
426.311925
 20
335.475456
 42
0.062387
  0
VERTEX
  8
0
 10
420.400420
 20
337.488816
 42
0.051594
  0
VERTEX
  8
0
 10
413.775719
 20
338.157200
 42
0.052849
  0
VERTEX
  8
0
 10
407.340652
 20
337.458559
 42
0.076114
  0
SEQEND
  0
POLYLINE
  8
0
 66
1
 70
1
  0
VERTEX
  8
0
 10
559.000000
 20
316.940983
 42
0.108972
  0
VERTEX
  8
0
 10
559.078288
 20
316.586039
 42
0.182303
  0
VERTEX
  8
0
 10
559.293750
 20
316.374600
 42
0.161196
  0
VERTEX
  8
0
 10
559.617900
 20
316.343488
 42
0.082592
  0
VERTEX
  8
0
 10
560.000000
 20
316.500000
 42
0.029505
  0
VERTEX
  8
0
 10
560.382774
 20
316.768994
 42
0.035638
  0
VERTEX
  8
0
 10
560.706250
 20
317.066025
 42
0.038439
  0
VERTEX
  8
0
 10
560.934461
 20
317.348290
 42
0.151918
  0
VERTEX
  8
0
 10
561.000000
 20
317.559017
 42
0.210953
  0
VERTEX
  8
0
 10
560.925540
 20
317.727648
 42
0.081139
  0
VERTEX
  8
0
 10
560.706250
 20
317.870461
 42
0.061769
  0
VERTEX
  8
0
 10
560.382849
 20
317.967655
 42
0.042167
  0
VERTEX
  8
0
 10
560.000000
 20
318.000000
 42
0.105053
  0
VERTEX
  8
0
 10
559.618444
 20
317.918938
 42
0.099167
  0
VERTEX
  8
0
 10
559.293750
 20
317.688914
 42
0.096420
  0
VERTEX
  8
0
 10
559.076123
 20
317.345238
 42
0.093332
  0
SEQEND
  0
POLYLINE
  8
0
 66
1
 70
1
  0
VERTEX
  8
0
 10
566.543269
 20
314.655298
 42
0.011384
  0
VERTEX
  8
0
 10
565.406591
 20
313.783744
 42
0.269911
  0
VERTEX
  8
0
 10
565.267371
 20
313.421188
 42
0.283558
  0
VERTEX
  8
0
 10
565.516175
 20
313.133608
 42
0.012294
  0
VERTEX
  8
0
 10
566.852140
 20
312.748917
 42
0.041048
  0
VERTEX
  8
0
 10
567.910674
 20
312.563147
 42
0.164214
  0
VERTEX
  8
0
 10
568.541990
 20
312.713528
 42
0.194500
  0
VERTEX
  8
0
 10
568.890118
 20
313.193786
 42
0.060831
  0
VERTEX
  8
0
 10
569.000000
 20
314.093620
 42
0.018627
  0
VERTEX
  8
0
 10
568.946106
 20
315.539764
 42
0.329041
  0
VERTEX
  8
0
 10
568.658496
 20
315.874198
 42
0.208214
  0
VERTEX
  8
0
 10
568.132737
 20
315.775374
 42
0.008754
  0
SEQEND
  0
POLYLINE
  8
0
 66
1
 70
1
  0
VERTEX
  8
0
 10
527.000000
 20
314.000000
 42
0.026766
  0
VERTEX
  8
0
 10
527.647707
 20
313.628962
 42
0.024204
  0
VERTEX
  8
0
 10
528.353125
 20
313.315379
 42
0.024967
  0
VERTEX
  8
0
 10
529.012663
 20
313.096832
 42
0.067616
  0
VERTEX
  8
0
 10
529.500000
 20
313.030626
 42
0.190341
  0
VERTEX
  8
0
 10
529.732273
 20
313.122372
 42
0.335455
  0
VERTEX
  8
0
 10
529.765625
 20
313.315379
 42
0.102785
  0
VERTEX
  8
0
 10
529.514186
 20
313.625641
 42
0.027796
  0
VERTEX
  8
0
 10
529.000000
 20
314.000000
 42
0.026766
  0
VERTEX
  8
0
 10
528.352293
 20
314.371038
 42
0.024204
  0
VERTEX
  8
0
 10
527.646875
 20
314.684621
 42
0.024967
  0
VERTEX
  8
0
 10
526.987337
 20
314.903168
 42
0.067616
  0
VERTEX
  8
0
 10
526.500000
 20
314.969374
 42
0.190341
  0
VERTEX
  8
0
 10
526.267727
 20
314.877628
 42
0.335455
  0
VERTEX
  8
0
 10
526.234375
 20
314.684621
 42
0.102785
  0
VERTEX
  8
0
 10
526.485814
 20
314.374359
 42
0.027796
  0
SEQEND
  0
POLYLINE
  8
0
 66
1
 70
1
  0
VERTEX
  8
0
 10
189.418665
 20
305.924925
 42
0.091920
  0
VERTEX
  8
0
 10
185.667195
 20
304.038547
 42
0.147612
  0
VERTEX
  8
0
 10
183.577968
 20
301.163768
 42
0.163577
  0
VERTEX
  8
0
 10
183.541165
 20
297.836544
 42
0.118595
  0
VERTEX
  8
0
 10
185.490207
 20
294.652650
 42
0.123195
  0
VERTEX
  8
0
 10
187.774227
 20
293.282787
 42
0.014903
  0
VERTEX
  8
0
 10
193.473669
 20
291.734329
 42
0.017544
  0
VERTEX
  8
0
 10
200.287408
 20
290.350320
 42
0.015955
  0
VERTEX
  8
0
 10
207.400324
 20
289.395770
 42
-0.015403
  0
VERTEX
  8
0
 10
212.420063
 20
288.727769
 42
-0.518433
  0
VERTEX
  8
0
 10
212.868358
 20
287.802391
 42
-0.146676
  0
VERTEX
  8
0
 10
211.515310
 20
286.479637
 42
-0.003415
  0
VERTEX
  8
0
 10
203.500000
 20
282.347735
 42
0.020002
  0
VERTEX
  8
0
 10
196.333360
 20
278.347097
 42
0.101069
  0
VERTEX
  8
0
 10
193.000348
 20
275.238386
 42
0.191724
  0
VERTEX
  8
0
 10
192.239030
 20
272.126029
 42
0.110722
  0
VERTEX
  8
0
 10
193.615010
 20
268.464817
 42
0.171497
  0
VERTEX
  8
0
 10
196.283142
 20
266.431995
 42
0.123873
  0
VERTEX
  8
0
 10
200.046389
 20
266.187465
 42
0.057223
  0
VERTEX
  8
0
 10
205.856346
 20
267.958791
 42
0.011345
  0
VERTEX
  8
0
 10
215.742621
 20
272.528033
 42
0.018307
  0
VERTEX
  8
0
 10
225.599778
 20
277.814064
 42
0.036458
  0
VERTEX
  8
0
 10
232.896124
 20
282.824310
 42
0.046631
  0
VERTEX
  8
0
 10
237.608225
 20
287.373486
 42
0.179335
  0
VERTEX
  8
0
 10
239.000000
 20
291.129071
 42
0.134404
  0
VERTEX
  8
0
 10
238.386888
 20
293.368728
 42
0.056303
  0
VERTEX
  8
0
 10
236.486281
 20
295.885011
 42
0.048342
  0
VERTEX
  8
0
 10
233.639322
 20
298.355916
 42
0.037652
  0
VERTEX
  8
0
 10
230.128837
 20
300.474174
 42
0.056373
  0
VERTEX
  8
0
 10
221.235798
 20
303.771136
 42
0.027331
  0
VERTEX
  8
0
 10
209.305508
 20
306.037736
 42
0.026903
  0
VERTEX
  8
0
 10
197.531189
 20
306.973478
 42
0.077178
  0
SEQEND
  0
POLYLINE
  8
0
 66
1
 70
1
  0
VERTEX
  8
0
 10
322.000000
 20
305.000000
 42
0.064033
  0
VERTEX
  8
0
 10
321.098367
 20
303.832258
 42
0.056767
  0
VERTEX
  8
0
 10
320.477160
 20
302.426889
 42
0.048062
  0
VERTEX
  8
0
 10
320.116994
 20
300.709633
 42
0.027679
  0
VERTEX
  8
0
 10
320.000000
 20
298.597825
 42
-0.018647
  0
VERTEX
  8
0
 10
319.902997
 20
295.997641
 42
-0.111823
  0
VERTEX
  8
0
 10
319.508810
 20
294.711036
 42
-0.142683
  0
VERTEX
  8
0
 10
318.643129
 20
293.876094
 42
-0.037128
  0
VERTEX
  8
0
 10
316.850777
 20
293.097825
 42
-0.070530
  0
VERTEX
  8
0
 10
312.083524
 20
292.158222
 42
-0.051873
  0
VERTEX
  8
0
 10
306.698463
 20
292.427056
 42
-0.056157
  0
VERTEX
  8
0
 10
302.309804
 20
293.621509
 42
-0.307384
  0
VERTEX
  8
0
 10
301.000000
 20
295.550772
 42
0.080166
  0
VERTEX
  8
0
 10
300.607696
 20
297.981859
 42
0.088110
  0
VERTEX
  8
0
 10
299.473481
 20
300.079174
 42
0.097778
  0
VERTEX
  8
0
 10
297.804219
 20
301.497623
 42
0.128045
  0
VERTEX
  8
0
 10
295.874669
 20
302.000000
 42
0.112928
  0
VERTEX
  8
0
 10
293.452453
 20
301.445860
 42
0.167099
  0
VERTEX
  8
0
 10
291.918522
 20
299.925529
 42
0.133167
  0
VERTEX
  8
0
 10
291.438870
 20
297.483381
 42
0.062063
  0
VERTEX
  8
0
 10
292.068426
 20
294.292668
 42
-0.042968
  0
VERTEX
  8
0
 10
292.519550
 20
292.390748
 42
-0.021730
  0
VERTEX
  8
0
 10
292.774309
 20
289.939385
 42
-0.020130
  0
VERTEX
  8
0
 10
292.828973
 20
287.185435
 42
-0.018178
  0
VERTEX
  8
0
 10
292.667301
 20
284.340129
 42
0.008896
  0
VERTEX
  8
0
 10
292.376875
 20
280.491538
 42
0.070512
  0
VERTEX
  8
0
 10
292.525045
 20
278.716069
 42
0.131979
  0
VERTEX
  8
0
 10
293.143015
 20
277.547643
 42
0.060529
  0
VERTEX
  8
0
 10
294.470427
 20
276.427420
 42
0.110207
  0
VERTEX
  8
0
 10
296.796198
 20
275.550634
 42
0.163909
  0
VERTEX
  8
0
 10
298.917039
 20
275.945210
 42
0.142833
  0
VERTEX
  8
0
 10
300.569014
 20
277.621218
 42
0.077400
  0
VERTEX
  8
0
 10
301.542067
 20
280.372544
 42
0.000000
  0
VERTEX
  8
0
 10
302.170200
 20
283.720782
 42
0.000000
  0
VERTEX
  8
0
 10
308.837954
 20
283.243707
 42
0.016077
  0
VERTEX
  8
0
 10
312.075407
 20
283.116488
 42
0.027142
  0
VERTEX
  8
0
 10
314.787960
 20
283.244472
 42
0.031938
  0
VERTEX
  8
0
 10
317.111922
 20
283.632093
 42
0.041688
  0
VERTEX
  8
0
 10
319.162100
 20
284.294370
 42
-0.016574
  0
VERTEX
  8
0
 10
321.475229
 20
285.172001
 42
-0.123289
  0
VERTEX
  8
0
 10
322.638313
 20
285.270105
 42
-0.141253
  0
VERTEX
  8
0
 10
323.636193
 20
284.798078
 42
-0.024097
  0
VERTEX
  8
0
 10
325.159246
 20
283.319232
 42
0.030110
  0
VERTEX
  8
0
 10
327.490304
 20
281.109630
 42
0.066791
  0
VERTEX
  8
0
 10
329.553882
 20
279.801244
 42
0.085736
  0
VERTEX
  8
0
 10
331.535141
 20
279.272838
 42
0.084069
  0
VERTEX
  8
0
 10
333.593141
 20
279.434021
 42
0.180318
  0
VERTEX
  8
0
 10
335.379765
 20
280.663429
 42
0.156852
  0
VERTEX
  8
0
 10
336.054653
 20
282.844238
 42
0.118322
  0
VERTEX
  8
0
 10
335.380449
 20
285.522616
 42
0.083811
  0
VERTEX
  8
0
 10
333.498479
 20
288.001429
 42
-0.072953
  0
VERTEX
  8
0
 10
331.643926
 20
290.337678
 42
-0.048464
  0
VERTEX
  8
0
 10
330.220077
 20
293.454979
 42
-0.044284
  0
VERTEX
  8
0
 10
329.313933
 20
297.108757
 42
-0.038273
  0
VERTEX
  8
0
 10
329.005577
 20
301.050000
 42
0.073311
  0
VERTEX
  8
0
 10
328.474650
 20
304.612790
 42
0.193124
  0
VERTEX
  8
0
 10
326.889178
 20
306.590164
 42
0.229540
  0
VERTEX
  8
0
 10
324.602829
 20
306.732426
 42
0.099395
  0
SEQEND
  0
ENDSEC
  0
EOF
