  0
SECTION
  2
HEADER
  9
$ACADVER
  1
AC1006
  9
$EXTMIN
 10
0.000000
 20
0.000000
 30
0.000000
  9
$EXTMAX
 10
421.000000
 20
439.000000
 30
0.000000
  0
ENDSEC
  0
SECTION
  2
ENTITIES
  0
POLYLINE
  8
0
 66
1
 70
1
  0
VERTEX
  8
0
 10
213.705304
 20
391.371971
 42
-0.143774
  0
VERTEX
  8
0
 10
213.141506
 20
391.064108
 42
-0.007377
  0
VERTEX
  8
0
 10
211.081692
 20
390.647714
 42
-0.011248
  0
VERTEX
  8
0
 10
208.583479
 20
390.238875
 42
-0.007883
  0
VERTEX
  8
0
 10
205.753751
 20
389.886310
 42
0.018478
  0
VERTEX
  8
0
 10
196.053294
 20
388.468404
 42
0.013497
  0
VERTEX
  8
0
 10
185.399803
 20
386.207881
 42
0.009084
  0
VERTEX
  8
0
 10
175.718458
 20
383.692008
 42
0.121910
  0
VERTEX
  8
0
 10
172.550000
 20
381.898702
 42
-0.074253
  0
VERTEX
  8
0
 10
172.056086
 20
381.553920
 42
-0.036712
  0
VERTEX
  8
0
 10
171.346327
 20
381.263994
 42
-0.035412
  0
VERTEX
  8
0
 10
170.550500
 20
381.066189
 42
-0.043232
  0
VERTEX
  8
0
 10
169.786431
 20
381.000000
 42
0.039953
  0
VERTEX
  8
0
 10
168.966203
 20
380.934354
 42
0.023010
  0
VERTEX
  8
0
 10
167.995522
 20
380.731779
 42
0.022881
  0
VERTEX
  8
0
 10
167.033364
 20
380.436775
 42
0.035227
  0
VERTEX
  8
0
 10
166.236431
 20
380.086906
 42
-0.006496
  0
VERTEX
  8
0
 10
165.238921
 20
379.578802
 42
-0.001212
  0
VERTEX
  8
0
 10
163.394452
 20
378.674813
 42
-0.001298
  0
VERTEX
  8
0
 10
161.233012
 20
377.628895
 42
-0.001185
  0
VERTEX
  8
0
 10
159.000000
 20
376.561997
 42
0.007257
  0
VERTEX
  8
0
 10
153.529310
 20
373.866116
 42
0.012176
  0
VERTEX
  8
0
 10
149.024854
 20
371.424448
 42
0.014227
  0
VERTEX
  8
0
 10
145.222873
 20
369.095912
 42
0.018779
  0
VERTEX
  8
0
 10
141.905609
 20
366.750000
 42
-0.013402
  0
VERTEX
  8
0
 10
140.449994
 20
365.696958
 42
-0.016997
  0
VERTEX
  8
0
 10
139.048931
 20
364.807813
 42
-0.015107
  0
VERTEX
  8
0
 10
137.844797
 20
364.147980
 42
-0.118316
  0
VERTEX
  8
0
 10
137.228189
 20
364.000000
 42
0.141860
  0
VERTEX
  8
0
 10
136.685326
 20
363.842815
 42
0.030764
  0
VERTEX
  8
0
 10
135.885641
 20
363.265625
 42
0.029750
  0
VERTEX
  8
0
 10
135.010997
 20
362.457029
 42
0.024659
  0
VERTEX
  8
0
 10
134.178660
 20
361.500000
 42
-0.017154
  0
VERTEX
  8
0
 10
133.370890
 20
360.542579
 42
-0.022862
  0
VERTEX
  8
0
 10
132.570016
 20
359.734375
 42
-0.021080
  0
VERTEX
  8
0
 10
131.863691
 20
359.136925
 42
-0.166496
  0
VERTEX
  8
0
 10
131.463893
 20
359.000000
 42
0.198135
  0
VERTEX
  8
0
 10
128.524792
 20
357.787730
 42
0.006818
  0
VERTEX
  8
0
 10
119.655992
 20
348.728057
 42
0.013652
  0
VERTEX
  8
0
 10
110.901442
 20
339.020288
 42
0.024237
  0
VERTEX
  8
0
 10
104.315430
 20
330.500000
 42
0.021132
  0
VERTEX
  8
0
 10
100.983474
 20
325.270959
 42
0.009643
  0
VERTEX
  8
0
 10
97.058582
 20
318.184219
 42
0.009150
  0
VERTEX
  8
0
 10
93.007512
 20
310.173433
 42
0.009082
  0
VERTEX
  8
0
 10
89.241820
 20
302.000000
 42
-0.001900
  0
VERTEX
  8
0
 10
88.591167
 20
300.532658
 42
-0.001711
  0
VERTEX
  8
0
 10
87.906424
 20
299.018048
 42
-0.001713
  0
VERTEX
  8
0
 10
87.283167
 20
297.664218
 42
-0.005421
  0
VERTEX
  8
0
 10
86.852862
 20
296.763569
 42
0.028965
  0
VERTEX
  8
0
 10
86.526224
 20
295.988047
 42
0.021025
  0
VERTEX
  8
0
 10
86.250528
 20
295.092603
 42
0.021353
  0
VERTEX
  8
0
 10
86.060424
 20
294.217590
 42
0.042835
  0
VERTEX
  8
0
 10
86.000000
 20
293.513569
 42
-0.064244
  0
VERTEX
  8
0
 10
85.925341
 20
292.934903
 42
-0.081991
  0
VERTEX
  8
0
 10
85.706250
 20
292.444611
 42
-0.098698
  0
VERTEX
  8
0
 10
85.381359
 20
292.116595
 42
-0.149454
  0
VERTEX
  8
0
 10
85.000000
 20
292.000000
 42
0.167089
  0
VERTEX
  8
0
 10
84.612696
 20
291.866854
 42
0.089864
  0
VERTEX
  8
0
 10
84.272280
 20
291.485937
 42
0.072381
  0
VERTEX
  8
0
 10
84.029036
 20
290.919406
 42
0.054881
  0
VERTEX
  8
0
 10
83.926912
 20
290.250000
 42
-0.067193
  0
VERTEX
  8
0
 10
83.771465
 20
289.375535
 42
-0.021442
  0
VERTEX
  8
0
 10
83.313624
 20
288.132812
 42
-0.020965
  0
VERTEX
  8
0
 10
82.679003
 20
286.777019
 42
-0.021934
  0
VERTEX
  8
0
 10
81.941759
 20
285.500000
 42
0.007898
  0
VERTEX
  8
0
 10
81.142957
 20
284.201898
 42
0.006349
  0
VERTEX
  8
0
 10
80.323854
 20
282.781678
 42
0.006423
  0
VERTEX
  8
0
 10
79.600326
 20
281.449683
 42
0.016275
  0
VERTEX
  8
0
 10
79.119023
 20
280.458903
 42
-0.033663
  0
VERTEX
  8
0
 10
78.653789
 20
279.580261
 42
-0.021624
  0
VERTEX
  8
0
 10
78.004634
 20
278.626294
 42
-0.021728
  0
VERTEX
  8
0
 10
77.284743
 20
277.743666
 42
-0.037625
  0
VERTEX
  8
0
 10
76.604176
 20
277.086458
 42
0.040567
  0
VERTEX
  8
0
 10
75.990370
 20
276.486710
 42
0.038782
  0
VERTEX
  8
0
 10
75.471227
 20
275.787065
 42
0.041332
  0
VERTEX
  8
0
 10
75.112883
 20
275.095758
 42
0.099226
  0
VERTEX
  8
0
 10
75.000000
 20
274.532543
 42
-0.111796
  0
VERTEX
  8
0
 10
74.865827
 20
273.939965
 42
-0.034438
  0
VERTEX
  8
0
 10
74.412500
 20
273.137424
 42
-0.032529
  0
VERTEX
  8
0
 10
73.765408
 20
272.282795
 42
-0.030542
  0
VERTEX
  8
0
 10
73.000000
 20
271.500000
 42
0.030542
  0
VERTEX
  8
0
 10
72.234592
 20
270.717205
 42
0.032529
  0
VERTEX
  8
0
 10
71.587500
 20
269.862576
 42
0.034438
  0
VERTEX
  8
0
 10
71.134173
 20
269.060035
 42
0.111796
  0
VERTEX
  8
0
 10
71.000000
 20
268.467457
 42
-0.092294
  0
VERTEX
  8
0
 10
70.896706
 20
267.912630
 42
-0.042674
  0
VERTEX
  8
0
 10
70.574072
 20
267.250530
 42
-0.040330
  0
VERTEX
  8
0
 10
70.104823
 20
266.592316
 42
-0.044558
  0
VERTEX
  8
0
 10
69.550033
 20
266.041524
 42
0.087250
  0
VERTEX
  8
0
 10
68.404797
 20
264.692875
 42
0.012704
  0
VERTEX
  8
0
 10
66.659111
 20
261.531678
 42
0.014146
  0
VERTEX
  8
0
 10
64.789061
 20
257.668783
 42
0.012088
  0
VERTEX
  8
0
 10
63.034454
 20
253.500000
 42
-0.000814
  0
VERTEX
  8
0
 10
62.654365
 20
252.536764
 42
-0.000360
  0
VERTEX
  8
0
 10
62.149419
 20
251.265866
 42
-0.000357
  0
VERTEX
  8
0
 10
61.612490
 20
249.920098
 42
-0.000481
  0
VERTEX
  8
0
 10
61.124512
 20
248.702947
 42
0.089745
  0
VERTEX
  8
0
 10
59.814584
 20
242.346958
 42
0.020344
  0
VERTEX
  8
0
 10
59.996430
 20
231.291163
 42
0.020732
  0
VERTEX
  8
0
 10
61.088559
 20
220.249352
 42
0.082122
  0
VERTEX
  8
0
 10
63.122756
 20
213.763569
 42
-0.050294
  0
VERTEX
  8
0
 10
63.460026
 20
212.886984
 42
-0.021045
  0
VERTEX
  8
0
 10
63.742309
 20
211.651978
 42
-0.020567
  0
VERTEX
  8
0
 10
63.935655
 20
210.294674
 42
-0.025097
  0
VERTEX
  8
0
 10
64.000000
 20
209.013569
 42
-0.036198
  0
VERTEX
  8
0
 10
63.868355
 20
207.197566
 42
-0.214570
  0
VERTEX
  8
0
 10
63.368922
 20
206.414008
 42
-0.134334
  0
VERTEX
  8
0
 10
62.299364
 20
206.067225
 42
-0.011617
  0
VERTEX
  8
0
 10
59.406380
 20
206.000000
 42
-0.016645
  0
VERTEX
  8
0
 10
56.973369
 20
206.081016
 42
-0.076662
  0
VERTEX
  8
0
 10
55.601056
 20
206.387311
 42
-0.134863
  0
VERTEX
  8
0
 10
54.786345
 20
206.994824
 42
-0.101895
  0
VERTEX
  8
0
 10
54.289749
 20
208.000000
 42
0.081932
  0
VERTEX
  8
0
 10
53.916870
 20
208.836602
 42
0.091765
  0
VERTEX
  8
0
 10
53.306163
 20
209.471735
 42
0.087793
  0
VERTEX
  8
0
 10
52.484601
 20
209.865407
 42
0.068033
  0
VERTEX
  8
0
 10
51.500000
 20
210.000000
 42
0.068033
  0
VERTEX
  8
0
 10
50.515399
 20
209.865407
 42
0.087793
  0
VERTEX
  8
0
 10
49.693837
 20
209.471735
 42
0.091765
  0
VERTEX
  8
0
 10
49.083130
 20
208.836602
 42
0.081932
  0
VERTEX
  8
0
 10
48.710251
 20
208.000000
 42
-0.085968
  0
VERTEX
  8
0
 10
48.292248
 20
207.082016
 42
-0.113899
  0
VERTEX
  8
0
 10
47.619589
 20
206.461414
 42
-0.090817
  0
VERTEX
  8
0
 10
46.619217
 20
206.110683
 42
-0.039038
  0
VERTEX
  8
0
 10
45.203746
 20
206.000000
 42
0.195292
  0
VERTEX
  8
0
 10
42.211615
 20
204.784981
 42
0.098769
  0
VERTEX
  8
0
 10
39.867597
 20
201.376600
 42
0.065755
  0
VERTEX
  8
0
 10
38.329691
 20
195.909539
 42
0.031617
  0
VERTEX
  8
0
 10
37.748908
 20
188.636366
 42
0.013672
  0
VERTEX
  8
0
 10
37.817806
 20
182.299123
 42
0.059912
  0
VERTEX
  8
0
 10
38.405543
 20
178.607773
 42
0.110123
  0
VERTEX
  8
0
 10
39.628514
 20
176.352755
 42
0.123415
  0
VERTEX
  8
0
 10
41.650669
 20
174.942716
 42
0.074458
  0
VERTEX
  8
0
 10
43.361019
 20
174.569791
 42
0.004684
  0
VERTEX
  8
0
 10
48.523339
 20
174.276923
 42
0.006818
  0
VERTEX
  8
0
 10
54.706108
 20
174.068693
 42
0.005007
  0
VERTEX
  8
0
 10
61.565100
 20
174.000000
 42
-0.003242
  0
VERTEX
  8
0
 10
70.211327
 20
173.943929
 42
-0.014575
  0
VERTEX
  8
0
 10
75.264171
 20
173.730991
 42
-0.016323
  0
VERTEX
  8
0
 10
78.477112
 20
173.395932
 42
-0.357616
  0
VERTEX
  8
0
 10
79.075679
 20
172.750000
 42
0.000188
  0
VERTEX
  8
0
 10
79.118456
 20
172.047828
 42
0.000038
  0
VERTEX
  8
0
 10
79.194791
 20
170.804080
 42
0.000040
  0
VERTEX
  8
0
 10
79.283764
 20
169.358145
 42
0.000038
  0
VERTEX
  8
0
 10
79.374894
 20
167.880909
 42
0.035169
  0
VERTEX
  8
0
 10
79.583958
 20
166.306263
 42
0.024361
  0
VERTEX
  8
0
 10
80.030319
 20
164.565565
 42
0.024653
  0
VERTEX
  8
0
 10
80.626534
 20
162.927272
 42
0.045461
  0
VERTEX
  8
0
 10
81.292226
 20
161.676758
 42
0.062591
  0
VERTEX
  8
0
 10
82.491605
 20
160.267341
 42
0.103408
  0
VERTEX
  8
0
 10
83.831451
 20
159.473940
 42
0.060678
  0
VERTEX
  8
0
 10
85.851882
 20
159.048914
 42
0.010595
  0
VERTEX
  8
0
 10
89.743011
 20
158.795849
 42
0.000000
  0
VERTEX
  8
0
 10
96.500000
 20
158.500000
 42
0.000000
  0
VERTEX
  8
0
 10
97.027376
 20
154.000000
 42
0.032575
  0
VERTEX
  8
0
 10
97.430432
 20
151.807322
 42
0.044958
  0
VERTEX
  8
0
 10
98.091484
 20
149.919190
 42
0.047462
  0
VERTEX
  8
0
 10
99.045231
 20
148.259138
 42
0.043112
  0
VERTEX
  8
0
 10
100.322831
 20
146.750000
 42
0.046195
  0
VERTEX
  8
0
 10
102.218287
 20
145.186259
 42
0.091776
  0
VERTEX
  8
0
 10
103.994375
 20
144.404939
 42
0.051132
  0
VERTEX
  8
0
 10
106.543523
 20
144.073703
 42
0.006760
  0
VERTEX
  8
0
 10
111.994563
 20
144.000000
 42
0.000000
  0
VERTEX
  8
0
 10
120.898217
 20
144.000000
 42
0.000000
  0
VERTEX
  8
0
 10
123.626402
 20
140.250000
 42
0.025797
  0
VERTEX
  8
0
 10
126.016434
 20
137.297712
 42
0.017962
  0
VERTEX
  8
0
 10
128.996044
 20
134.212837
 42
0.012070
  0
VERTEX
  8
0
 10
131.906862
 20
131.540582
 42
0.171673
  0
VERTEX
  8
0
 10
133.198478
 20
131.026901
 42
-0.138712
  0
VERTEX
  8
0
 10
133.603534
 20
130.895290
 42
-0.012470
  0
VERTEX
  8
0
 10
134.484182
 20
130.273527
 42
-0.015464
  0
VERTEX
  8
0
 10
135.510360
 20
129.459491
 42
-0.011466
  0
VERTEX
  8
0
 10
136.594501
 20
128.500000
 42
0.030987
  0
VERTEX
  8
0
 10
137.764519
 20
127.543250
 42
0.030628
  0
VERTEX
  8
0
 10
139.048233
 20
126.734375
 42
0.032146
  0
VERTEX
  8
0
 10
140.257091
 20
126.170054
 42
0.093391
  0
VERTEX
  8
0
 10
141.159592
 20
126.000000
 42
-0.037515
  0
VERTEX
  8
0
 10
142.000657
 20
125.936805
 42
-0.022197
  0
VERTEX
  8
0
 10
142.988623
 20
125.742309
 42
-0.022134
  0
VERTEX
  8
0
 10
143.962920
 20
125.458949
 42
-0.035142
  0
VERTEX
  8
0
 10
144.763569
 20
125.122756
 42
0.036563
  0
VERTEX
  8
0
 10
147.993476
 20
123.777287
 42
0.029288
  0
VERTEX
  8
0
 10
151.632827
 20
122.797242
 42
0.027510
  0
VERTEX
  8
0
 10
155.602043
 20
122.199447
 42
0.023624
  0
VERTEX
  8
0
 10
159.820998
 20
122.000000
 42
0.000000
  0
VERTEX
  8
0
 10
166.000000
 20
122.000000
 42
0.000000
  0
VERTEX
  8
0
 10
166.023857
 20
116.250000
 42
0.014540
  0
VERTEX
  8
0
 10
166.106760
 20
113.755869
 42
0.010859
  0
VERTEX
  8
0
 10
166.337680
 20
111.014063
 42
0.010999
  0
VERTEX
  8
0
 10
166.668506
 20
108.438293
 42
0.024461
  0
VERTEX
  8
0
 10
167.058690
 20
106.500000
 42
-0.010780
  0
VERTEX
  8
0
 10
168.310841
 20
101.054170
 42
-0.121235
  0
VERTEX
  8
0
 10
168.229708
 20
98.853480
 42
-0.178224
  0
VERTEX
  8
0
 10
167.111262
 20
97.322357
 42
-0.029544
  0
VERTEX
  8
0
 10
163.903788
 20
95.451246
 42
0.032785
  0
VERTEX
  8
0
 10
159.547034
 20
92.871732
 42
0.050241
  0
VERTEX
  8
0
 10
156.195491
 20
90.045816
 42
0.056084
  0
VERTEX
  8
0
 10
153.741927
 20
86.870249
 42
0.057212
  0
VERTEX
  8
0
 10
152.074831
 20
83.249420
 42
0.019716
  0
VERTEX
  8
0
 10
151.436999
 20
81.012431
 42
0.050984
  0
VERTEX
  8
0
 10
151.209003
 20
79.351923
 42
0.064456
  0
VERTEX
  8
0
 10
151.343982
 20
77.922688
 42
0.051202
  0
VERTEX
  8
0
 10
151.839749
 20
76.452367
 42
-0.038944
  0
VERTEX
  8
0
 10
152.285027
 20
75.231299
 42
-0.020031
  0
VERTEX
  8
0
 10
152.659176
 20
73.646003
 42
-0.019783
  0
VERTEX
  8
0
 10
152.915477
 20
71.974520
 42
-0.028155
  0
VERTEX
  8
0
 10
153.000000
 20
70.474686
 42
0.066200
  0
VERTEX
  8
0
 10
153.267914
 20
68.460035
 42
0.072041
  0
VERTEX
  8
0
 10
154.051990
 20
66.647351
 42
0.046404
  0
VERTEX
  8
0
 10
155.611419
 20
64.573825
 42
0.011959
  0
VERTEX
  8
0
 10
158.503588
 20
61.539891
 42
0.017202
  0
VERTEX
  8
0
 10
160.812143
 20
59.384943
 42
0.018818
  0
VERTEX
  8
0
 10
163.197255
 20
57.460271
 42
0.018607
  0
VERTEX
  8
0
 10
165.348434
 20
55.975506
 42
0.083301
  0
VERTEX
  8
0
 10
166.753588
 20
55.380264
 42
-0.013603
  0
VERTEX
  8
0
 10
167.878380
 20
55.079018
 42
-0.013536
  0
VERTEX
  8
0
 10
168.986991
 20
54.716603
 42
-0.013497
  0
VERTEX
  8
0
 10
169.937482
 20
54.347920
 42
-0.050423
  0
VERTEX
  8
0
 10
170.500000
 20
54.042239
 42
0.069531
  0
VERTEX
  8
0
 10
171.792536
 20
53.402347
 42
0.007986
  0
VERTEX
  8
0
 10
174.895673
 20
52.425809
 42
0.008180
  0
VERTEX
  8
0
 10
179.063512
 20
51.260877
 42
0.003817
  0
VERTEX
  8
0
 10
184.500000
 20
49.881077
 42
0.037574
  0
VERTEX
  8
0
 10
187.422520
 20
49.392004
 42
0.006682
  0
VERTEX
  8
0
 10
192.953698
 20
48.963405
 42
0.007174
  0
VERTEX
  8
0
 10
199.479270
 20
48.639331
 42
0.006326
  0
VERTEX
  8
0
 10
206.291091
 20
48.485213
 42
-0.004451
  0
VERTEX
  8
0
 10
213.776069
 20
48.343948
 42
-0.011496
  0
VERTEX
  8
0
 10
219.171915
 20
48.069799
 42
-0.009534
  0
VERTEX
  8
0
 10
223.110505
 20
47.703155
 42
-0.169986
  0
VERTEX
  8
0
 10
224.241091
 20
47.158909
 42
0.107313
  0
VERTEX
  8
0
 10
224.936037
 20
46.711910
 42
0.031393
  0
VERTEX
  8
0
 10
226.158484
 20
46.340430
 42
0.029967
  0
VERTEX
  8
0
 10
227.623859
 20
46.085366
 42
0.028112
  0
VERTEX
  8
0
 10
229.140983
 20
46.000000
 42
-0.024793
  0
VERTEX
  8
0
 10
230.618577
 20
45.926688
 42
-0.031600
  0
VERTEX
  8
0
 10
231.964600
 20
45.706250
 42
-0.032932
  0
VERTEX
  8
0
 10
233.027979
 20
45.387363
 42
-0.166523
  0
VERTEX
  8
0
 10
233.500000
 20
45.000000
 42
0.257996
  0
VERTEX
  8
0
 10
235.113111
 20
44.092939
 42
0.001292
  0
VERTEX
  8
0
 10
254.324536
 20
44.003087
 42
0.001569
  0
VERTEX
  8
0
 10
273.353526
 20
44.022996
 42
0.192531
  0
VERTEX
  8
0
 10
275.550000
 20
44.912013
 42
-0.122517
  0
VERTEX
  8
0
 10
276.217263
 20
45.295109
 42
-0.015585
  0
VERTEX
  8
0
 10
277.836563
 20
45.702026
 42
-0.017502
  0
VERTEX
  8
0
 10
279.824402
 20
46.063807
 42
-0.013741
  0
VERTEX
  8
0
 10
282.000000
 20
46.320720
 42
0.015039
  0
VERTEX
  8
0
 10
288.457283
 20
47.100254
 42
0.023047
  0
VERTEX
  8
0
 10
293.984344
 20
48.199379
 42
0.025510
  0
VERTEX
  8
0
 10
298.938490
 20
49.696095
 42
0.026450
  0
VERTEX
  8
0
 10
303.653337
 20
51.674458
 42
0.000000
  0
VERTEX
  8
0
 10
309.500000
 20
54.500000
 42
0.000000
  0
VERTEX
  8
0
 10
309.794272
 20
60.617278
 42
-0.015571
  0
VERTEX
  8
0
 10
310.053522
 20
63.883488
 42
-0.051341
  0
VERTEX
  8
0
 10
310.509516
 20
65.992461
 42
-0.071089
  0
VERTEX
  8
0
 10
311.288377
 20
67.574544
 42
-0.054353
  0
VERTEX
  8
0
 10
312.544272
 20
69.041592
 42
0.031819
  0
VERTEX
  8
0
 10
313.484056
 20
70.044349
 42
0.032807
  0
VERTEX
  8
0
 10
314.278630
 20
71.148481
 42
0.034729
  0
VERTEX
  8
0
 10
314.833497
 20
72.191856
 42
0.105219
  0
VERTEX
  8
0
 10
315.000000
 20
72.974314
 42
-0.055456
  0
VERTEX
  8
0
 10
315.077915
 20
73.674648
 42
-0.038738
  0
VERTEX
  8
0
 10
315.312213
 20
74.434668
 42
-0.039128
  0
VERTEX
  8
0
 10
315.655713
 20
75.137338
 42
-0.063208
  0
VERTEX
  8
0
 10
316.062854
 20
75.662854
 42
0.171606
  0
VERTEX
  8
0
 10
316.516857
 20
76.613619
 42
0.013965
  0
VERTEX
  8
0
 10
316.734379
 20
79.408601
 42
0.015270
  0
VERTEX
  8
0
 10
316.806698
 20
83.174101
 42
0.006889
  0
VERTEX
  8
0
 10
316.682651
 20
88.112854
 42
0.007124
  0
VERTEX
  8
0
 10
316.241195
 20
96.412844
 42
0.022722
  0
VERTEX
  8
0
 10
315.616543
 20
101.925895
 42
0.033709
  0
VERTEX
  8
0
 10
314.753479
 20
105.685516
 42
0.100526
  0
VERTEX
  8
0
 10
313.508765
 20
108.000000
 42
-0.071488
  0
VERTEX
  8
0
 10
312.637803
 20
109.417169
 42
-0.029502
  0
VERTEX
  8
0
 10
311.865082
 20
111.538321
 42
-0.021809
  0
VERTEX
  8
0
 10
311.127958
 20
114.464734
 42
-0.008887
  0
VERTEX
  8
0
 10
310.371260
 20
118.500000
 42
0.017045
  0
VERTEX
  8
0
 10
310.106496
 20
119.794935
 42
0.012641
  0
VERTEX
  8
0
 10
309.729469
 20
121.206250
 42
0.012810
  0
VERTEX
  8
0
 10
309.305267
 20
122.521699
 42
0.027958
  0
VERTEX
  8
0
 10
308.899160
 20
123.500000
 42
-0.094874
  0
VERTEX
  8
0
 10
308.530873
 20
124.883377
 42
-0.006761
  0
VERTEX
  8
0
 10
308.300985
 20
128.878125
 42
-0.009327
  0
VERTEX
  8
0
 10
308.179340
 20
133.683309
 42
-0.006899
  0
VERTEX
  8
0
 10
308.217302
 20
139.000000
 42
0.000000
  0
VERTEX
  8
0
 10
308.500000
 20
152.500000
 42
0.000000
  0
VERTEX
  8
0
 10
311.500000
 20
152.785269
 42
0.018382
  0
VERTEX
  8
0
 10
312.794972
 20
152.956633
 42
0.013772
  0
VERTEX
  8
0
 10
314.206250
 20
153.236648
 42
0.013969
  0
VERTEX
  8
0
 10
315.521805
 20
153.574453
 42
0.030736
  0
VERTEX
  8
0
 10
316.500000
 20
153.921287
 42
-0.018031
  0
VERTEX
  8
0
 10
317.564359
 20
154.329379
 42
-0.005225
  0
VERTEX
  8
0
 10
319.234375
 20
154.882102
 42
-0.005246
  0
VERTEX
  8
0
 10
321.130471
 20
155.465892
 42
-0.005579
  0
VERTEX
  8
0
 10
323.000000
 20
155.997479
 42
0.014262
  0
VERTEX
  8
0
 10
325.081711
 20
156.628667
 42
0.007382
  0
VERTEX
  8
0
 10
327.646875
 20
157.529376
 42
0.007333
  0
VERTEX
  8
0
 10
330.257930
 20
158.533441
 42
0.011046
  0
VERTEX
  8
0
 10
332.500000
 20
159.491610
 42
-0.004312
  0
VERTEX
  8
0
 10
334.670457
 20
160.453945
 42
-0.003301
  0
VERTEX
  8
0
 10
337.059375
 20
161.469908
 42
-0.003337
  0
VERTEX
  8
0
 10
339.308488
 20
162.391349
 42
-0.007880
  0
VERTEX
  8
0
 10
341.000000
 20
163.040424
 42
0.011214
  0
VERTEX
  8
0
 10
342.409614
 20
163.592137
 42
0.012269
  0
VERTEX
  8
0
 10
343.750938
 20
164.191183
 42
0.011770
  0
VERTEX
  8
0
 10
344.870653
 20
164.757294
 42
0.058119
  0
VERTEX
  8
0
 10
345.450000
 20
165.160276
 42
-0.072339
  0
VERTEX
  8
0
 10
345.942490
 20
165.482541
 42
-0.034675
  0
VERTEX
  8
0
 10
346.649688
 20
165.753331
 42
-0.033466
  0
VERTEX
  8
0
 10
347.441133
 20
165.938188
 42
-0.040659
  0
VERTEX
  8
0
 10
348.200000
 20
166.000000
 42
0.053595
  0
VERTEX
  8
0
 10
348.888633
 20
166.074027
 42
0.073362
  0
VERTEX
  8
0
 10
349.471250
 20
166.293750
 42
0.093122
  0
VERTEX
  8
0
 10
349.862375
 20
166.618409
 42
0.174820
  0
VERTEX
  8
0
 10
350.000000
 20
167.000000
 42
-0.110826
  0
VERTEX
  8
0
 10
350.085610
 20
167.381490
 42
-0.099999
  0
VERTEX
  8
0
 10
350.327832
 20
167.706250
 42
-0.094786
  0
VERTEX
  8
0
 10
350.689912
 20
167.924087
 42
-0.088381
  0
VERTEX
  8
0
 10
351.116023
 20
168.000000
 42
0.148040
  0
VERTEX
  8
0
 10
352.674715
 20
168.471837
 42
0.006866
  0
VERTEX
  8
0
 10
357.282143
 20
171.634924
 42
0.012393
  0
VERTEX
  8
0
 10
361.960123
 20
175.118890
 42
0.021069
  0
VERTEX
  8
0
 10
365.668458
 20
178.287362
 42
-0.014560
  0
VERTEX
  8
0
 10
367.051012
 20
179.500121
 42
-0.012177
  0
VERTEX
  8
0
 10
368.585283
 20
180.707182
 42
-0.012356
  0
VERTEX
  8
0
 10
370.042959
 20
181.742415
 42
-0.032595
  0
VERTEX
  8
0
 10
371.148750
 20
182.386841
 42
0.049441
  0
VERTEX
  8
0
 10
372.118222
 20
182.996396
 42
0.031337
  0
VERTEX
  8
0
 10
373.120052
 20
183.879948
 42
0.031337
  0
VERTEX
  8
0
 10
374.003604
 20
184.881778
 42
0.049441
  0
VERTEX
  8
0
 10
374.613159
 20
185.851250
 42
-0.032855
  0
VERTEX
  8
0
 10
375.258335
 20
186.957006
 42
-0.012434
  0
VERTEX
  8
0
 10
376.296213
 20
188.414717
 42
-0.012253
  0
VERTEX
  8
0
 10
377.507012
 20
189.948985
 42
-0.014633
  0
VERTEX
  8
0
 10
378.724197
 20
191.331542
 42
0.018224
  0
VERTEX
  8
0
 10
381.585169
 20
194.628640
 42
0.024232
  0
VERTEX
  8
0
 10
383.922266
 20
197.835404
 42
0.025006
  0
VERTEX
  8
0
 10
385.564394
 20
200.629478
 42
0.120919
  0
VERTEX
  8
0
 10
386.000000
 20
202.404370
 42
-0.060788
  0
VERTEX
  8
0
 10
386.074457
 20
203.014540
 42
-0.079411
  0
VERTEX
  8
0
 10
386.293750
 20
203.531284
 42
-0.097358
  0
VERTEX
  8
0
 10
386.618600
 20
203.877247
 42
-0.156960
  0
VERTEX
  8
0
 10
387.000000
 20
204.000000
 42
0.182536
  0
VERTEX
  8
0
 10
387.381715
 20
204.144157
 42
0.090900
  0
VERTEX
  8
0
 10
387.706250
 20
204.556072
 42
0.070807
  0
VERTEX
  8
0
 10
387.926137
 20
205.168668
 42
0.050854
  0
VERTEX
  8
0
 10
388.000000
 20
205.893011
 42
-0.066146
  0
VERTEX
  8
0
 10
388.101335
 20
206.655652
 42
-0.062119
  0
VERTEX
  8
0
 10
388.398857
 20
207.383006
 42
-0.066515
  0
VERTEX
  8
0
 10
388.838498
 20
207.967131
 42
-0.106996
  0
VERTEX
  8
0
 10
389.357810
 20
208.307063
 42
0.136734
  0
VERTEX
  8
0
 10
389.931098
 20
208.732290
 42
0.040445
  0
VERTEX
  8
0
 10
390.535587
 20
209.654983
 42
0.037276
  0
VERTEX
  8
0
 10
391.075404
 20
210.848952
 42
0.032611
  0
VERTEX
  8
0
 10
391.460551
 20
212.164052
 42
-0.000835
  0
VERTEX
  8
0
 10
391.812422
 20
213.727529
 42
-0.000423
  0
VERTEX
  8
0
 10
392.260433
 20
215.695065
 42
-0.000420
  0
VERTEX
  8
0
 10
392.726353
 20
217.725436
 42
-0.000627
  0
VERTEX
  8
0
 10
393.137484
 20
219.500000
 42
0.015707
  0
VERTEX
  8
0
 10
395.524923
 20
231.430426
 42
0.023822
  0
VERTEX
  8
0
 10
396.775102
 20
241.934893
 42
0.027100
  0
VERTEX
  8
0
 10
396.931591
 20
251.341417
 42
0.034840
  0
VERTEX
  8
0
 10
396.006267
 20
259.939805
 42
-0.003901
  0
VERTEX
  8
0
 10
395.557681
 20
262.567986
 42
-0.001911
  0
VERTEX
  8
0
 10
395.025100
 20
265.922943
 42
-0.001895
  0
VERTEX
  8
0
 10
394.498081
 20
269.414284
 42
-0.002751
  0
VERTEX
  8
0
 10
394.061580
 20
272.500000
 42
0.002501
  0
VERTEX
  8
0
 10
393.658003
 20
275.363285
 42
0.002621
  0
VERTEX
  8
0
 10
393.231801
 20
278.178125
 42
0.002513
  0
VERTEX
  8
0
 10
392.838860
 20
280.604717
 42
0.011644
  0
VERTEX
  8
0
 10
392.572182
 20
282.000000
 42
-0.002184
  0
VERTEX
  8
0
 10
392.325124
 20
283.171940
 42
-0.001112
  0
VERTEX
  8
0
 10
392.024333
 20
284.646875
 42
-0.001105
  0
VERTEX
  8
0
 10
391.720895
 20
286.169245
 42
-0.001656
  0
VERTEX
  8
0
 10
391.463280
 20
287.500000
 42
0.028128
  0
VERTEX
  8
0
 10
390.796350
 20
290.177152
 42
0.010958
  0
VERTEX
  8
0
 10
389.587780
 20
293.796162
 42
0.011087
  0
VERTEX
  8
0
 10
388.191099
 20
297.435984
 42
0.022106
  0
VERTEX
  8
0
 10
386.897344
 20
300.236431
 42
-0.034412
  0
VERTEX
  8
0
 10
386.553519
 20
301.031460
 42
-0.022504
  0
VERTEX
  8
0
 10
386.263595
 20
301.987706
 42
-0.022647
  0
VERTEX
  8
0
 10
386.064449
 20
302.949872
 42
-0.039723
  0
VERTEX
  8
0
 10
386.000000
 20
303.759824
 42
0.125079
  0
VERTEX
  8
0
 10
385.192587
 20
306.936953
 42
0.004741
  0
VERTEX
  8
0
 10
379.202351
 20
317.716510
 42
0.005839
  0
VERTEX
  8
0
 10
373.088084
 20
328.190990
 42
0.091311
  0
VERTEX
  8
0
 10
370.357487
 20
331.290761
 42
-0.034195
  0
VERTEX
  8
0
 10
369.455339
 20
332.106072
 42
-0.036349
  0
VERTEX
  8
0
 10
368.692512
 20
333.021189
 42
-0.039033
  0
VERTEX
  8
0
 10
368.160937
 20
333.899613
 42
-0.117073
  0
VERTEX
  8
0
 10
368.000000
 20
334.577529
 42
0.195135
  0
VERTEX
  8
0
 10
367.260130
 20
336.401127
 42
0.001859
  0
VERTEX
  8
0
 10
357.021242
 20
346.864107
 42
0.001835
  0
VERTEX
  8
0
 10
346.697530
 20
357.259012
 42
0.198852
  0
VERTEX
  8
0
 10
344.908036
 20
358.000000
 42
-0.151942
  0
VERTEX
  8
0
 10
344.377892
 20
358.164910
 42
-0.011961
  0
VERTEX
  8
0
 10
343.167768
 20
359.041822
 42
-0.015400
  0
VERTEX
  8
0
 10
341.755453
 20
360.188104
 42
-0.011159
  0
VERTEX
  8
0
 10
340.252320
 20
361.546629
 42
0.013411
  0
VERTEX
  8
0
 10
338.632343
 20
362.997553
 42
0.011808
  0
VERTEX
  8
0
 10
336.867869
 20
364.424324
 42
0.011948
  0
VERTEX
  8
0
 10
335.215102
 20
365.635615
 42
0.034695
  0
VERTEX
  8
0
 10
334.000000
 20
366.362664
 42
-0.006834
  0
VERTEX
  8
0
 10
331.314226
 20
367.772897
 42
-0.008140
  0
VERTEX
  8
0
 10
328.821741
 20
369.178409
 42
-0.006218
  0
VERTEX
  8
0
 10
326.743800
 20
370.430121
 42
-0.069051
  0
VERTEX
  8
0
 10
326.000000
 20
371.047122
 42
0.097977
  0
VERTEX
  8
0
 10
324.834212
 20
371.906145
 42
0.002108
  0
VERTEX
  8
0
 10
318.372878
 20
374.912508
 42
0.005458
  0
VERTEX
  8
0
 10
311.738695
 20
377.878017
 42
0.008714
  0
VERTEX
  8
0
 10
306.000000
 20
380.250467
 42
-0.005814
  0
VERTEX
  8
0
 10
304.915862
 20
380.691317
 42
-0.004274
  0
VERTEX
  8
0
 10
303.724298
 20
381.204101
 42
-0.004319
  0
VERTEX
  8
0
 10
302.605149
 20
381.708689
 42
-0.009594
  0
VERTEX
  8
0
 10
301.763569
 20
382.116671
 42
0.035011
  0
VERTEX
  8
0
 10
300.964247
 20
382.455178
 42
0.022256
  0
VERTEX
  8
0
 10
299.994243
 20
382.740522
 42
0.022338
  0
VERTEX
  8
0
 10
299.012407
 20
382.936410
 42
0.038083
  0
VERTEX
  8
0
 10
298.178725
 20
383.000000
 42
-0.055180
  0
VERTEX
  8
0
 10
297.100874
 20
383.119314
 42
-0.008348
  0
VERTEX
  8
0
 10
294.988831
 20
383.629880
 42
-0.009273
  0
VERTEX
  8
0
 10
292.506801
 20
384.323301
 42
-0.007900
  0
VERTEX
  8
0
 10
289.915156
 20
385.144273
 42
0.008808
  0
VERTEX
  8
0
 10
283.908788
 20
387.034959
 42
0.016518
  0
VERTEX
  8
0
 10
278.982018
 20
388.315623
 42
0.016239
  0
VERTEX
  8
0
 10
273.926156
 20
389.281692
 42
0.008199
  0
VERTEX
  8
0
 10
267.500000
 20
390.186828
 42
0.021736
  0
VERTEX
  8
0
 10
257.171617
 20
391.015598
 42
0.003645
  0
VERTEX
  8
0
 10
237.315330
 20
391.597887
 42
0.000729
  0
VERTEX
  8
0
 10
215.385108
 20
392.049037
 42
0.203884
  0
SEQEND
  0
POLYLINE
  8
0
 66
1
 70
1
  0
VERTEX
  8
0
 10
261.307371
 20
382.972013
 42
-0.002468
  0
VERTEX
  8
0
 10
271.057500
 20
381.529358
 42
-0.008266
  0
VERTEX
  8
0
 10
277.426743
 20
380.446754
 42
-0.012300
  0
VERTEX
  8
0
 10
281.873657
 20
379.501276
 42
-0.032011
  0
VERTEX
  8
0
 10
285.000000
 20
378.540713
 42
0.009333
  0
VERTEX
  8
0
 10
286.661146
 20
377.946688
 42
0.004597
  0
VERTEX
  8
0
 10
288.793750
 20
377.250431
 42
0.004559
  0
VERTEX
  8
0
 10
291.021728
 20
376.567919
 42
0.006629
  0
VERTEX
  8
0
 10
293.000000
 20
376.010001
 42
-0.008070
  0
VERTEX
  8
0
 10
294.850174
 20
375.482451
 42
-0.007994
  0
VERTEX
  8
0
 10
296.688202
 20
374.893899
 42
-0.007887
  0
VERTEX
  8
0
 10
298.279309
 20
374.328103
 42
-0.030486
  0
VERTEX
  8
0
 10
299.236431
 20
373.902536
 42
0.025823
  0
VERTEX
  8
0
 10
299.994445
 20
373.557003
 42
0.021130
  0
VERTEX
  8
0
 10
300.836121
 20
373.265120
 42
0.021632
  0
VERTEX
  8
0
 10
301.634632
 20
373.062672
 42
0.051306
  0
VERTEX
  8
0
 10
302.243791
 20
373.000000
 42
-0.098839
  0
VERTEX
  8
0
 10
303.085342
 20
372.832003
 42
-0.004563
  0
VERTEX
  8
0
 10
305.782972
 20
371.681271
 42
-0.007427
  0
VERTEX
  8
0
 10
308.969824
 20
370.230576
 42
-0.005247
  0
VERTEX
  8
0
 10
312.507360
 20
368.510710
 42
0.003456
  0
VERTEX
  8
0
 10
316.015358
 20
366.789636
 42
0.005149
  0
VERTEX
  8
0
 10
319.109757
 20
365.337002
 42
0.002355
  0
VERTEX
  8
0
 10
321.758979
 20
364.141538
 42
0.102019
  0
VERTEX
  8
0
 10
322.355644
 20
364.010710
 42
-0.128231
  0
VERTEX
  8
0
 10
322.845105
 20
363.876518
 42
-0.014499
  0
VERTEX
  8
0
 10
323.832698
 20
363.268771
 42
-0.016803
  0
VERTEX
  8
0
 10
324.982042
 20
362.458175
 42
-0.012914
  0
VERTEX
  8
0
 10
326.182369
 20
361.500000
 42
0.019334
  0
VERTEX
  8
0
 10
327.413365
 20
360.542955
 42
0.022516
  0
VERTEX
  8
0
 10
328.655215
 20
359.734375
 42
0.022253
  0
VERTEX
  8
0
 10
329.753052
 20
359.152135
 42
0.111239
  0
VERTEX
  8
0
 10
330.428411
 20
359.000000
 42
-0.122484
  0
VERTEX
  8
0
 10
331.098873
 20
358.833256
 42
-0.023763
  0
VERTEX
  8
0
 10
332.180502
 20
358.192187
 42
-0.023973
  0
VERTEX
  8
0
 10
333.399117
 20
357.302781
 42
-0.020145
  0
VERTEX
  8
0
 10
334.602605
 20
356.250000
 42
0.008096
  0
VERTEX
  8
0
 10
336.045388
 20
354.925194
 42
0.003293
  0
VERTEX
  8
0
 10
338.049811
 20
353.167112
 42
0.003257
  0
VERTEX
  8
0
 10
340.229962
 20
351.304854
 42
0.004145
  0
VERTEX
  8
0
 10
342.266508
 20
349.616764
 42
-0.012520
  0
VERTEX
  8
0
 10
346.698433
 20
345.816146
 42
-0.012996
  0
VERTEX
  8
0
 10
350.878417
 20
341.844121
 42
-0.013030
  0
VERTEX
  8
0
 10
354.836144
 20
337.670506
 42
-0.012740
  0
VERTEX
  8
0
 10
358.601805
 20
333.265589
 42
0.001929
  0
VERTEX
  8
0
 10
360.200498
 20
331.311507
 42
0.001962
  0
VERTEX
  8
0
 10
361.805249
 20
329.380871
 42
0.001905
  0
VERTEX
  8
0
 10
363.213424
 20
327.713139
 42
0.008102
  0
VERTEX
  8
0
 10
364.075096
 20
326.733121
 42
-0.025308
  0
VERTEX
  8
0
 10
364.789328
 20
325.862119
 42
-0.012262
  0
VERTEX
  8
0
 10
365.616837
 20
324.682408
 42
-0.012127
  0
VERTEX
  8
0
 10
366.420575
 20
323.408718
 42
-0.017076
  0
VERTEX
  8
0
 10
367.069730
 20
322.233121
 42
0.015155
  0
VERTEX
  8
0
 10
367.763356
 20
320.965501
 42
0.007450
  0
VERTEX
  8
0
 10
368.718058
 20
319.393877
 42
0.007384
  0
VERTEX
  8
0
 10
369.758893
 20
317.789713
 42
0.010665
  0
VERTEX
  8
0
 10
370.729676
 20
316.405609
 42
-0.015009
  0
VERTEX
  8
0
 10
371.598922
 20
315.143084
 42
-0.018232
  0
VERTEX
  8
0
 10
372.333092
 20
313.908495
 42
-0.017017
  0
VERTEX
  8
0
 10
372.870643
 20
312.839687
 42
-0.108414
  0
VERTEX
  8
0
 10
373.000000
 20
312.250110
 42
0.081987
  0
VERTEX
  8
0
 10
373.102606
 20
311.628568
 42
0.010859
  0
VERTEX
  8
0
 10
373.559995
 20
310.371380
 42
0.012347
  0
VERTEX
  8
0
 10
374.176419
 20
308.894255
 42
0.010076
  0
VERTEX
  8
0
 10
374.906366
 20
307.344501
 42
-0.029850
  0
VERTEX
  8
0
 10
380.627678
 20
293.836983
 42
-0.033004
  0
VERTEX
  8
0
 10
384.479282
 20
280.185412
 42
-0.030969
  0
VERTEX
  8
0
 10
386.668152
 20
265.411315
 42
-0.021333
  0
VERTEX
  8
0
 10
387.387429
 20
248.500000
 42
-0.016646
  0
VERTEX
  8
0
 10
386.978369
 20
236.272961
 42
-0.034891
  0
VERTEX
  8
0
 10
385.684565
 20
226.852541
 42
-0.038294
  0
VERTEX
  8
0
 10
383.191319
 20
218.272286
 42
-0.024700
  0
VERTEX
  8
0
 10
379.074990
 20
208.768532
 42
-0.043115
  0
VERTEX
  8
0
 10
374.417131
 20
201.073289
 42
-0.026019
  0
VERTEX
  8
0
 10
367.688468
 20
192.795006
 42
-0.025835
  0
VERTEX
  8
0
 10
360.025250
 20
185.143875
 42
-0.038108
  0
VERTEX
  8
0
 10
352.500000
 20
179.342335
 42
-0.019892
  0
VERTEX
  8
0
 10
344.753024
 20
174.690023
 42
-0.017611
  0
VERTEX
  8
0
 10
336.344070
 20
170.462762
 42
-0.017574
  0
VERTEX
  8
0
 10
327.638040
 20
166.828510
 42
-0.019555
  0
VERTEX
  8
0
 10
319.000000
 20
163.954426
 42
0.002164
  0
VERTEX
  8
0
 10
306.400480
 20
160.243559
 42
0.041940
  0
VERTEX
  8
0
 10
302.617259
 20
158.756200
 42
0.138657
  0
VERTEX
  8
0
 10
300.793277
 20
157.110796
 42
0.086211
  0
VERTEX
  8
0
 10
299.692169
 20
154.426497
 42
0.057602
  0
VERTEX
  8
0
 10
299.158470
 20
149.222416
 42
0.007362
  0
VERTEX
  8
0
 10
299.469266
 20
137.966799
 42
0.008563
  0
VERTEX
  8
0
 10
300.140054
 20
126.698097
 42
0.037352
  0
VERTEX
  8
0
 10
301.146220
 20
120.096682
 42
0.004584
  0
VERTEX
  8
0
 10
302.379531
 20
114.947567
 42
0.008962
  0
VERTEX
  8
0
 10
303.473057
 20
110.872717
 42
0.008520
  0
VERTEX
  8
0
 10
304.418745
 20
107.784373
 42
0.073819
  0
VERTEX
  8
0
 10
305.057577
 20
106.500000
 42
-0.092023
  0
VERTEX
  8
0
 10
306.231419
 20
103.909089
 42
-0.009847
  0
VERTEX
  8
0
 10
307.692236
 20
97.442537
 42
-0.012924
  0
VERTEX
  8
0
 10
308.882440
 20
90.774521
 42
-0.035436
  0
VERTEX
  8
0
 10
309.264203
 20
86.009349
 42
-0.060937
  0
VERTEX
  8
0
 10
308.622815
 20
80.338395
 42
-0.089095
  0
VERTEX
  8
0
 10
306.615060
 20
75.744951
 42
-0.138261
  0
VERTEX
  8
0
 10
303.830083
 20
73.369392
 42
-0.251357
  0
VERTEX
  8
0
 10
300.923826
 20
73.547078
 42
0.089362
  0
VERTEX
  8
0
 10
297.683484
 20
74.823773
 42
0.017760
  0
VERTEX
  8
0
 10
291.511043
 20
75.829731
 42
0.018987
  0
VERTEX
  8
0
 10
284.411180
 20
76.456625
 42
0.020821
  0
VERTEX
  8
0
 10
277.500000
 20
76.515108
 42
0.012380
  0
VERTEX
  8
0
 10
268.456114
 20
75.990580
 42
0.062676
  0
VERTEX
  8
0
 10
263.521622
 20
74.949763
 42
0.138824
  0
VERTEX
  8
0
 10
260.966722
 20
73.168081
 42
0.173191
  0
VERTEX
  8
0
 10
260.000000
 20
70.460889
 42
0.050820
  0
VERTEX
  8
0
 10
260.092775
 20
69.550473
 42
0.056376
  0
VERTEX
  8
0
 10
260.367188
 20
68.710441
 42
0.064087
  0
VERTEX
  8
0
 10
260.771253
 20
68.060722
 42
0.137299
  0
VERTEX
  8
0
 10
261.250000
 20
67.723592
 42
0.083601
  0
VERTEX
  8
0
 10
262.160077
 20
67.563783
 42
0.002940
  0
VERTEX
  8
0
 10
265.746014
 20
67.559719
 42
0.005386
  0
VERTEX
  8
0
 10
269.996760
 20
67.625692
 42
0.003734
  0
VERTEX
  8
0
 10
274.800261
 20
67.787916
 42
-0.015591
  0
VERTEX
  8
0
 10
283.768816
 20
67.878039
 42
-0.031963
  0
VERTEX
  8
0
 10
290.769796
 20
67.281271
 42
-0.041399
  0
VERTEX
  8
0
 10
296.138393
 20
66.014670
 42
-0.083142
  0
VERTEX
  8
0
 10
299.988939
 20
64.008343
 42
-0.090315
  0
VERTEX
  8
0
 10
301.421631
 20
62.453103
 42
-0.197225
  0
VERTEX
  8
0
 10
301.698539
 20
60.885256
 42
-0.194537
  0
VERTEX
  8
0
 10
300.793646
 20
59.559483
 42
-0.087939
  0
VERTEX
  8
0
 10
298.832145
 20
58.701856
 42
0.004110
  0
VERTEX
  8
0
 10
297.663841
 20
58.409782
 42
0.001489
  0
VERTEX
  8
0
 10
296.010068
 20
57.976611
 42
0.001476
  0
VERTEX
  8
0
 10
294.202384
 20
57.491653
 42
0.001758
  0
VERTEX
  8
0
 10
292.500000
 20
57.023119
 42
-0.010925
  0
VERTEX
  8
0
 10
290.578515
 20
56.531993
 42
-0.005043
  0
VERTEX
  8
0
 10
288.059375
 20
55.973144
 42
-0.004992
  0
VERTEX
  8
0
 10
285.398099
 20
55.438560
 42
-0.006906
  0
VERTEX
  8
0
 10
283.000000
 20
55.015933
 42
0.003634
  0
VERTEX
  8
0
 10
280.504776
 20
54.593002
 42
0.002156
  0
VERTEX
  8
0
 10
277.535882
 20
54.054348
 42
0.002157
  0
VERTEX
  8
0
 10
274.578863
 20
53.491463
 42
0.003713
  0
VERTEX
  8
0
 10
272.122152
 20
52.993859
 42
-0.048964
  0
VERTEX
  8
0
 10
264.567387
 20
52.163890
 42
-0.010675
  0
VERTEX
  8
0
 10
251.454506
 20
52.292110
 42
-0.010286
  0
VERTEX
  8
0
 10
238.389736
 20
52.968125
 42
-0.055543
  0
VERTEX
  8
0
 10
231.410772
 20
54.261463
 42
-0.016927
  0
VERTEX
  8
0
 10
225.498494
 20
56.273777
 42
-0.033377
  0
VERTEX
  8
0
 10
220.987529
 20
58.335188
 42
-0.042623
  0
VERTEX
  8
0
 10
217.816400
 20
60.415376
 42
-0.119948
  0
VERTEX
  8
0
 10
216.188188
 20
62.486317
 42
-0.090753
  0
VERTEX
  8
0
 10
215.131584
 20
66.685280
 42
-0.069009
  0
VERTEX
  8
0
 10
215.474983
 20
71.427174
 42
-0.068894
  0
VERTEX
  8
0
 10
217.097538
 20
75.904667
 42
-0.089753
  0
VERTEX
  8
0
 10
219.780067
 20
79.330854
 42
-0.070308
  0
VERTEX
  8
0
 10
221.224173
 20
80.291769
 42
-0.095397
  0
VERTEX
  8
0
 10
222.735647
 20
80.688236
 42
-0.047656
  0
VERTEX
  8
0
 10
224.978289
 20
80.623331
 42
-0.006566
  0
VERTEX
  8
0
 10
229.608688
 20
79.983525
 42
0.038747
  0
VERTEX
  8
0
 10
237.618887
 20
79.397884
 42
0.058560
  0
VERTEX
  8
0
 10
244.552584
 20
80.244216
 42
0.063141
  0
VERTEX
  8
0
 10
250.713040
 20
82.595164
 42
0.055162
  0
VERTEX
  8
0
 10
256.405539
 20
86.497041
 42
-0.008970
  0
VERTEX
  8
0
 10
257.561843
 20
87.457541
 42
-0.012511
  0
VERTEX
  8
0
 10
258.632199
 20
88.271571
 42
-0.008951
  0
VERTEX
  8
0
 10
259.545504
 20
88.906206
 42
-0.138466
  0
VERTEX
  8
0
 10
259.905539
 20
89.023203
 42
0.178968
  0
VERTEX
  8
0
 10
261.072498
 20
89.507253
 42
0.007388
  0
VERTEX
  8
0
 10
264.402889
 20
92.686330
 42
0.013817
  0
VERTEX
  8
0
 10
267.677571
 20
96.089010
 42
0.027118
  0
VERTEX
  8
0
 10
270.052718
 20
99.000000
 42
0.014458
  0
VERTEX
  8
0
 10
272.832895
 20
103.053002
 42
0.020371
  0
VERTEX
  8
0
 10
275.053883
 20
106.829862
 42
0.021116
  0
VERTEX
  8
0
 10
276.594606
 20
110.030627
 42
0.101951
  0
VERTEX
  8
0
 10
277.000000
 20
111.998143
 42
-0.042916
  0
VERTEX
  8
0
 10
277.065455
 20
112.759325
 42
-0.044403
  0
VERTEX
  8
0
 10
277.259855
 20
113.489192
 42
-0.048542
  0
VERTEX
  8
0
 10
277.545014
 20
114.085502
 42
-0.119096
  0
VERTEX
  8
0
 10
277.884612
 20
114.428686
 42
0.160955
  0
VERTEX
  8
0
 10
278.266429
 20
114.883794
 42
0.019612
  0
VERTEX
  8
0
 10
278.706461
 20
116.129109
 42
0.021635
  0
VERTEX
  8
0
 10
279.118602
 20
117.696196
 42
0.016267
  0
VERTEX
  8
0
 10
279.440175
 20
119.449625
 42
0.045037
  0
VERTEX
  8
0
 10
279.627052
 20
122.622129
 42
0.064029
  0
VERTEX
  8
0
 10
279.180150
 20
125.408038
 42
0.086366
  0
VERTEX
  8
0
 10
278.227177
 20
127.335133
 42
0.239224
  0
VERTEX
  8
0
 10
276.917067
 20
128.000000
 42
0.193138
  0
VERTEX
  8
0
 10
275.352054
 20
127.372047
 42
0.036836
  0
VERTEX
  8
0
 10
273.257214
 20
125.049991
 42
0.039286
  0
VERTEX
  8
0
 10
271.400763
 20
122.227725
 42
0.073434
  0
VERTEX
  8
0
 10
270.448041
 20
119.670985
 42
-0.048337
  0
VERTEX
  8
0
 10
268.672009
 20
114.062643
 42
-0.036317
  0
VERTEX
  8
0
 10
265.704913
 20
108.305686
 42
-0.034890
  0
VERTEX
  8
0
 10
261.780189
 20
102.787655
 42
-0.035266
  0
VERTEX
  8
0
 10
257.139302
 20
97.890067
 42
-0.020355
  0
VERTEX
  8
0
 10
251.244513
 20
92.913880
 42
-0.053377
  0
VERTEX
  8
0
 10
246.541192
 20
90.005982
 42
-0.065705
  0
VERTEX
  8
0
 10
241.941110
 20
88.502639
 42
-0.046194
  0
VERTEX
  8
0
 10
236.512171
 20
88.000000
 42
-0.045141
  0
VERTEX
  8
0
 10
230.265076
 20
88.565155
 42
-0.299689
  0
VERTEX
  8
0
 10
228.112385
 20
90.622625
 42
-0.224057
  0
VERTEX
  8
0
 10
228.849188
 20
93.993999
 42
-0.028866
  0
VERTEX
  8
0
 10
233.818658
 20
99.732386
 42
0.037702
  0
VERTEX
  8
0
 10
239.403270
 20
106.415930
 42
0.051546
  0
VERTEX
  8
0
 10
243.282593
 20
113.227723
 42
0.045014
  0
VERTEX
  8
0
 10
246.025937
 20
121.376918
 42
0.021172
  0
VERTEX
  8
0
 10
248.152890
 20
132.293942
 42
0.012886
  0
VERTEX
  8
0
 10
248.770764
 20
137.238769
 42
0.072775
  0
VERTEX
  8
0
 10
248.646831
 20
139.887471
 42
0.134008
  0
VERTEX
  8
0
 10
247.804122
 20
141.594896
 42
0.088856
  0
VERTEX
  8
0
 10
246.079405
 20
142.957504
 42
0.183502
  0
VERTEX
  8
0
 10
243.835613
 20
143.247271
 42
0.164185
  0
VERTEX
  8
0
 10
241.838213
 20
141.995000
 42
0.110392
  0
VERTEX
  8
0
 10
240.460298
 20
139.251443
 42
0.061463
  0
VERTEX
  8
0
 10
240.000000
 20
135.521054
 42
-0.065103
  0
VERTEX
  8
0
 10
239.073250
 20
128.433683
 42
-0.034821
  0
VERTEX
  8
0
 10
236.209566
 20
120.063909
 42
-0.034873
  0
VERTEX
  8
0
 10
232.258757
 20
112.266759
 42
-0.072712
  0
VERTEX
  8
0
 10
227.965836
 20
107.000000
 42
0.039122
  0
VERTEX
  8
0
 10
225.102400
 20
103.931511
 42
0.021706
  0
VERTEX
  8
0
 10
222.087290
 20
99.789550
 42
0.017947
  0
VERTEX
  8
0
 10
219.582355
 20
95.703329
 42
0.129224
  0
VERTEX
  8
0
 10
219.000000
 20
93.487681
 42
-0.116702
  0
VERTEX
  8
0
 10
218.684569
 20
92.154647
 42
-0.035848
  0
VERTEX
  8
0
 10
217.620877
 20
90.365448
 42
-0.029271
  0
VERTEX
  8
0
 10
215.949843
 20
88.241268
 42
-0.015699
  0
VERTEX
  8
0
 10
213.659304
 20
85.814277
 42
0.015593
  0
VERTEX
  8
0
 10
210.684820
 20
82.663937
 42
0.051081
  0
VERTEX
  8
0
 10
209.014883
 20
80.341717
 42
0.056712
  0
VERTEX
  8
0
 10
207.942682
 20
77.861673
 42
0.022584
  0
VERTEX
  8
0
 10
207.025948
 20
74.265490
 42
0.023121
  0
VERTEX
  8
0
 10
206.374986
 20
70.185312
 42
0.037194
  0
VERTEX
  8
0
 10
206.242582
 20
66.667776
 42
0.037557
  0
VERTEX
  8
0
 10
206.632618
 20
63.193918
 42
0.024160
  0
VERTEX
  8
0
 10
207.577711
 20
59.250000
 42
-0.107098
  0
VERTEX
  8
0
 10
207.667781
 20
57.967707
 42
-0.288286
  0
VERTEX
  8
0
 10
207.101004
 20
57.301062
 42
-0.072286
  0
VERTEX
  8
0
 10
205.495103
 20
57.041048
 42
-0.004049
  0
VERTEX
  8
0
 10
200.426827
 20
57.000000
 42
-0.019896
  0
VERTEX
  8
0
 10
193.992885
 20
57.256116
 42
-0.019199
  0
VERTEX
  8
0
 10
187.522088
 20
58.023007
 42
-0.020187
  0
VERTEX
  8
0
 10
181.705012
 20
59.182385
 42
-0.042736
  0
VERTEX
  8
0
 10
177.348871
 20
60.638142
 42
0.009792
  0
VERTEX
  8
0
 10
176.074421
 20
61.159559
 42
0.011626
  0
VERTEX
  8
0
 10
174.850954
 20
61.599954
 42
0.010497
  0
VERTEX
  8
0
 10
173.807296
 20
61.924252
 42
0.070184
  0
VERTEX
  8
0
 10
173.270315
 20
62.000000
 42
-0.117603
  0
VERTEX
  8
0
 10
172.698867
 20
62.136293
 42
-0.008769
  0
VERTEX
  8
0
 10
171.272739
 20
62.889289
 42
-0.011767
  0
VERTEX
  8
0
 10
169.590648
 20
63.867788
 42
-0.008656
  0
VERTEX
  8
0
 10
167.772400
 20
65.027366
 42
-0.066795
  0
VERTEX
  8
0
 10
163.534140
 20
68.732751
 42
-0.088150
  0
VERTEX
  8
0
 10
160.887214
 20
73.117208
 42
-0.097461
  0
VERTEX
  8
0
 10
160.070860
 20
77.789250
 42
-0.101901
  0
VERTEX
  8
0
 10
161.110272
 20
82.342675
 42
-0.088214
  0
VERTEX
  8
0
 10
162.369683
 20
84.169805
 42
-0.061326
  0
VERTEX
  8
0
 10
164.340601
 20
85.727516
 42
-0.040902
  0
VERTEX
  8
0
 10
167.353436
 20
87.237408
 42
-0.013487
  0
VERTEX
  8
0
 10
172.000000
 20
88.964343
 42
0.000000
  0
VERTEX
  8
0
 10
176.500000
 20
90.500000
 42
0.000000
  0
VERTEX
  8
0
 10
176.349289
 20
96.500000
 42
0.010577
  0
VERTEX
  8
0
 10
176.218162
 20
99.332133
 42
0.005152
  0
VERTEX
  8
0
 10
175.937125
 20
102.940625
 42
0.005108
  0
VERTEX
  8
0
 10
175.567515
 20
106.690648
 42
0.007357
  0
VERTEX
  8
0
 10
175.157814
 20
110.000000
 42
-0.003591
  0
VERTEX
  8
0
 10
174.683612
 20
113.607316
 42
-0.001612
  0
VERTEX
  8
0
 10
174.109872
 20
118.353514
 42
-0.001595
  0
VERTEX
  8
0
 10
173.535702
 20
123.373309
 42
-0.002171
  0
VERTEX
  8
0
 10
173.051851
 20
127.905578
 42
0.010156
  0
VERTEX
  8
0
 10
172.204135
 20
134.801064
 42
0.055157
  0
VERTEX
  8
0
 10
171.263405
 20
138.442115
 42
0.125353
  0
VERTEX
  8
0
 10
169.954321
 20
140.305401
 42
0.179115
  0
VERTEX
  8
0
 10
168.077555
 20
141.000000
 42
0.120019
  0
VERTEX
  8
0
 10
166.297308
 20
140.566427
 42
0.135334
  0
VERTEX
  8
0
 10
165.008412
 20
139.373317
 42
0.097638
  0
VERTEX
  8
0
 10
164.242086
 20
137.339121
 42
0.041429
  0
VERTEX
  8
0
 10
164.000000
 20
134.422445
 42
-0.054333
  0
VERTEX
  8
0
 10
163.594445
 20
130.701337
 42
-0.231846
  0
VERTEX
  8
0
 10
162.241067
 20
129.002726
 42
-0.146997
  0
VERTEX
  8
0
 10
159.579084
 20
128.599066
 42
-0.019330
  0
VERTEX
  8
0
 10
153.892217
 20
129.634287
 42
-0.022241
  0
VERTEX
  8
0
 10
147.113531
 20
131.460780
 42
-0.046410
  0
VERTEX
  8
0
 10
142.082573
 20
133.590357
 42
-0.049935
  0
VERTEX
  8
0
 10
137.764435
 20
136.500177
 42
-0.030008
  0
VERTEX
  8
0
 10
133.250000
 20
140.729050
 42
0.000000
  0
VERTEX
  8
0
 10
128.000000
 20
146.274356
 42
0.000000
  0
VERTEX
  8
0
 10
128.000000
 20
160.578161
 42
-0.006082
  0
VERTEX
  8
0
 10
128.067193
 20
166.102316
 42
-0.009528
  0
VERTEX
  8
0
 10
128.273247
 20
170.849099
 42
-0.004168
  0
VERTEX
  8
0
 10
128.556512
 20
174.844841
 42
-0.238925
  0
VERTEX
  8
0
 10
128.930203
 20
175.456863
 42
-0.292375
  0
VERTEX
  8
0
 10
129.477572
 20
175.448477
 42
-0.029962
  0
VERTEX
  8
0
 10
130.562349
 20
174.633846
 42
-0.029906
  0
VERTEX
  8
0
 10
131.840604
 20
173.409603
 42
-0.019114
  0
VERTEX
  8
0
 10
133.180203
 20
171.847799
 42
0.017829
  0
VERTEX
  8
0
 10
138.156918
 20
166.015334
 42
0.016891
  0
VERTEX
  8
0
 10
143.623998
 20
160.442607
 42
0.011271
  0
VERTEX
  8
0
 10
148.719670
 20
155.802438
 42
0.180963
  0
VERTEX
  8
0
 10
150.864192
 20
155.000000
 42
-0.045184
  0
VERTEX
  8
0
 10
151.681888
 20
154.925956
 42
-0.045532
  0
VERTEX
  8
0
 10
152.470792
 20
154.706250
 42
-0.049583
  0
VERTEX
  8
0
 10
153.119067
 20
154.383690
 42
-0.114607
  0
VERTEX
  8
0
 10
153.500000
 20
154.000000
 42
0.215685
  0
VERTEX
  8
0
 10
154.086950
 20
153.604994
 42
0.012734
  0
VERTEX
  8
0
 10
156.263554
 20
153.293750
 42
0.017363
  0
VERTEX
  8
0
 10
158.959766
 20
153.072587
 42
0.011781
  0
VERTEX
  8
0
 10
162.039965
 20
153.000000
 42
0.005395
  0
VERTEX
  8
0
 10
167.086751
 20
153.054453
 42
0.067650
  0
VERTEX
  8
0
 10
168.967740
 20
153.351587
 42
0.176637
  0
VERTEX
  8
0
 10
169.958911
 20
154.091768
 42
0.083642
  0
VERTEX
  8
0
 10
170.607732
 20
155.573216
 42
0.110080
  0
VERTEX
  8
0
 10
170.669121
 20
157.878164
 42
0.212331
  0
VERTEX
  8
0
 10
169.630373
 20
159.360917
 42
0.096671
  0
VERTEX
  8
0
 10
167.060728
 20
160.294573
 42
0.014543
  0
VERTEX
  8
0
 10
161.595732
 20
160.990627
 42
-0.036037
  0
VERTEX
  8
0
 10
155.953217
 20
161.957131
 42
-0.068450
  0
VERTEX
  8
0
 10
151.679234
 20
163.656156
 42
-0.068529
  0
VERTEX
  8
0
 10
148.025809
 20
166.444492
 42
-0.036197
  0
VERTEX
  8
0
 10
144.302642
 20
170.778871
 42
0.018817
  0
VERTEX
  8
0
 10
142.793895
 20
172.663982
 42
0.005608
  0
VERTEX
  8
0
 10
140.352554
 20
175.426265
 42
0.005616
  0
VERTEX
  8
0
 10
137.538711
 20
178.469527
 42
0.006044
  0
VERTEX
  8
0
 10
134.724399
 20
181.374371
 42
-0.016585
  0
VERTEX
  8
0
 10
129.749505
 20
186.730732
 42
-0.149421
  0
VERTEX
  8
0
 10
128.463215
 20
189.621350
 42
-0.293701
  0
VERTEX
  8
0
 10
129.455672
 20
191.679543
 42
-0.062695
  0
VERTEX
  8
0
 10
133.250000
 20
193.396464
 42
0.261530
  0
VERTEX
  8
0
 10
134.731710
 20
194.957001
 42
0.065179
  0
VERTEX
  8
0
 10
135.160451
 20
198.582316
 42
0.065386
  0
VERTEX
  8
0
 10
134.641461
 20
202.185701
 42
0.266393
  0
VERTEX
  8
0
 10
133.121898
 20
203.678374
 42
-0.087548
  0
VERTEX
  8
0
 10
132.319769
 20
204.046663
 42
-0.044097
  0
VERTEX
  8
0
 10
131.460467
 20
204.760532
 42
-0.041986
  0
VERTEX
  8
0
 10
130.678489
 20
205.678588
 42
-0.048557
  0
VERTEX
  8
0
 10
130.103295
 20
206.672637
 42
0.061275
  0
VERTEX
  8
0
 10
129.230745
 20
208.096044
 42
0.164801
  0
VERTEX
  8
0
 10
128.245361
 20
208.730162
 42
0.079992
  0
VERTEX
  8
0
 10
126.635125
 20
208.868172
 42
0.007800
  0
VERTEX
  8
0
 10
122.731397
 20
208.516892
 42
-0.017543
  0
VERTEX
  8
0
 10
113.838206
 20
207.891018
 42
-0.003001
  0
VERTEX
  8
0
 10
96.894218
 20
207.396493
 42
-0.001263
  0
VERTEX
  8
0
 10
78.911707
 20
207.025094
 42
-0.067077
  0
VERTEX
  8
0
 10
75.500000
 20
207.422045
 42
-0.229334
  0
VERTEX
  8
0
 10
72.882177
 20
209.629934
 42
-0.033524
  0
VERTEX
  8
0
 10
70.415466
 20
216.340639
 42
-0.035153
  0
VERTEX
  8
0
 10
68.606905
 20
224.624556
 42
-0.036184
  0
VERTEX
  8
0
 10
68.000000
 20
233.000000
 42
-0.039629
  0
VERTEX
  8
0
 10
68.720759
 20
242.079636
 42
-0.049103
  0
VERTEX
  8
0
 10
70.871339
 20
250.277287
 42
-0.041419
  0
VERTEX
  8
0
 10
74.911947
 20
258.916541
 42
-0.018867
  0
VERTEX
  8
0
 10
81.517762
 20
269.500000
 42
0.008738
  0
VERTEX
  8
0
 10
84.053676
 20
273.385423
 42
0.007177
  0
VERTEX
  8
0
 10
86.628371
 20
277.618750
 42
0.007260
  0
VERTEX
  8
0
 10
88.882061
 20
281.577342
 42
0.019023
  0
VERTEX
  8
0
 10
90.348300
 20
284.500000
 42
-0.002140
  0
VERTEX
  8
0
 10
91.463813
 20
286.924449
 42
-0.002402
  0
VERTEX
  8
0
 10
92.558387
 20
289.247577
 42
-0.002204
  0
VERTEX
  8
0
 10
93.508379
 20
291.216594
 42
-0.012892
  0
VERTEX
  8
0
 10
94.038948
 20
292.236431
 42
0.020672
  0
VERTEX
  8
0
 10
94.406807
 20
292.971206
 42
0.019921
  0
VERTEX
  8
0
 10
94.717691
 20
293.742862
 42
0.020306
  0
VERTEX
  8
0
 10
94.936421
 20
294.443640
 42
0.065578
  0
VERTEX
  8
0
 10
95.000000
 20
294.926315
 42
-0.098958
  0
VERTEX
  8
0
 10
95.132775
 20
295.590609
 42
-0.002493
  0
VERTEX
  8
0
 10
96.334455
 20
298.436547
 42
-0.005249
  0
VERTEX
  8
0
 10
97.802067
 20
301.767417
 42
-0.003543
  0
VERTEX
  8
0
 10
99.542827
 20
305.537150
 42
-0.014950
  0
VERTEX
  8
0
 10
103.279890
 20
312.901637
 42
-0.012332
  0
VERTEX
  8
0
 10
107.687476
 20
320.526200
 42
-0.012641
  0
VERTEX
  8
0
 10
112.146810
 20
327.421200
 42
-0.027353
  0
VERTEX
  8
0
 10
115.987285
 20
332.430764
 42
-0.010373
  0
VERTEX
  8
0
 10
121.345590
 20
338.424317
 42
-0.012789
  0
VERTEX
  8
0
 10
126.595395
 20
343.775663
 42
-0.013873
  0
VERTEX
  8
0
 10
131.670372
 20
348.424993
 42
-0.019040
  0
VERTEX
  8
0
 10
136.500000
 20
352.297372
 42
0.004387
  0
VERTEX
  8
0
 10
139.206450
 20
354.340063
 42
0.006480
  0
VERTEX
  8
0
 10
141.541667
 20
356.183566
 42
0.003244
  0
VERTEX
  8
0
 10
143.485102
 20
357.780094
 42
0.116039
  0
VERTEX
  8
0
 10
143.833333
 20
358.242425
 42
-0.117737
  0
VERTEX
  8
0
 10
144.053348
 20
358.532500
 42
-0.061096
  0
VERTEX
  8
0
 10
144.439368
 20
358.777462
 42
-0.055626
  0
VERTEX
  8
0
 10
144.921041
 20
358.943676
 42
-0.055343
  0
VERTEX
  8
0
 10
145.428346
 20
359.000000
 42
0.110817
  0
VERTEX
  8
0
 10
146.038341
 20
359.136877
 42
0.034731
  0
VERTEX
  8
0
 10
146.860187
 20
359.597555
 42
0.032779
  0
VERTEX
  8
0
 10
147.733439
 20
360.255731
 42
0.030967
  0
VERTEX
  8
0
 10
148.530978
 20
361.034231
 42
-0.087005
  0
VERTEX
  8
0
 10
151.272530
 20
363.169259
 42
-0.006342
  0
VERTEX
  8
0
 10
159.813269
 20
367.565854
 42
-0.009415
  0
VERTEX
  8
0
 10
168.507236
 20
371.700167
 42
-0.030155
  0
VERTEX
  8
0
 10
174.500000
 20
373.988529
 42
0.006651
  0
VERTEX
  8
0
 10
176.158768
 20
374.534137
 42
0.006275
  0
VERTEX
  8
0
 10
177.835077
 20
375.133963
 42
0.006252
  0
VERTEX
  8
0
 10
179.306408
 20
375.702411
 42
0.021656
  0
VERTEX
  8
0
 10
180.236431
 20
376.122756
 42
-0.043450
  0
VERTEX
  8
0
 10
181.077083
 20
376.459452
 42
-0.021946
  0
VERTEX
  8
0
 10
182.183810
 20
376.742309
 42
-0.021617
  0
VERTEX
  8
0
 10
183.360601
 20
376.935977
 42
-0.029980
  0
VERTEX
  8
0
 10
184.427414
 20
377.000000
 42
0.032516
  0
VERTEX
  8
0
 10
185.406211
 20
377.063721
 42
0.037941
  0
VERTEX
  8
0
 10
186.317999
 20
377.254124
 42
0.041381
  0
VERTEX
  8
0
 10
187.045749
 20
377.531736
 42
0.143493
  0
VERTEX
  8
0
 10
187.416629
 20
377.865104
 42
-0.196816
  0
VERTEX
  8
0
 10
188.557700
 20
378.694555
 42
-0.006932
  0
VERTEX
  8
0
 10
193.978351
 20
379.941077
 42
-0.011429
  0
VERTEX
  8
0
 10
200.760495
 20
381.240548
 42
-0.006536
  0
VERTEX
  8
0
 10
209.000000
 20
382.514310
 42
-0.025652
  0
VERTEX
  8
0
 10
219.398124
 20
383.442338
 42
-0.007243
  0
VERTEX
  8
0
 10
235.665901
 20
383.820400
 42
-0.006954
  0
VERTEX
  8
0
 10
251.825986
 20
383.737046
 42
-0.030733
  0
SEQEND
  0
POLYLINE
  8
0
 66
1
 70
1
  0
VERTEX
  8
0
 10
46.000000
 20
187.440983
 42
-0.021227
  0
VERTEX
  8
0
 10
45.927706
 20
185.738865
 42
-0.034160
  0
VERTEX
  8
0
 10
45.706250
 20
184.304539
 42
-0.037703
  0
VERTEX
  8
0
 10
45.388352
 20
183.265280
 42
-0.308946
  0
VERTEX
  8
0
 10
45.000000
 20
183.000000
 42
-0.323693
  0
VERTEX
  8
0
 10
44.610035
 20
183.282006
 42
-0.030871
  0
VERTEX
  8
0
 10
44.293750
 20
184.486086
 42
-0.030190
  0
VERTEX
  8
0
 10
44.072197
 20
186.119825
 42
-0.018609
  0
VERTEX
  8
0
 10
44.000000
 20
188.059017
 42
-0.014995
  0
VERTEX
  8
0
 10
44.062207
 20
190.132763
 42
-0.040398
  0
VERTEX
  8
0
 10
44.268876
 20
191.591614
 42
-0.077973
  0
VERTEX
  8
0
 10
44.588375
 20
192.398291
 42
-0.420328
  0
VERTEX
  8
0
 10
45.000000
 20
192.500000
 42
-0.179846
  0
VERTEX
  8
0
 10
45.388891
 20
192.000298
 42
-0.027581
  0
VERTEX
  8
0
 10
45.706250
 20
190.758975
 42
-0.027868
  0
VERTEX
  8
0
 10
45.926887
 20
189.186816
 42
-0.020930
  0
SEQEND
  0
POLYLINE
  8
0
 66
1
 70
1
  0
VERTEX
  8
0
 10
95.813358
 20
169.250000
 42
0.000000
  0
VERTEX
  8
0
 10
96.126717
 20
166.000000
 42
0.000000
  0
VERTEX
  8
0
 10
91.063358
 20
166.000000
 42
-0.009625
  0
VERTEX
  8
0
 10
87.863286
 20
166.061604
 42
-0.118467
  0
VERTEX
  8
0
 10
86.696767
 20
166.389894
 42
-0.223178
  0
VERTEX
  8
0
 10
86.154084
 20
167.147690
 42
-0.045610
  0
VERTEX
  8
0
 10
86.000000
 20
168.833333
 42
-0.045134
  0
VERTEX
  8
0
 10
86.213563
 20
171.194397
 42
-0.193039
  0
VERTEX
  8
0
 10
86.952353
 20
172.368089
 42
-0.151396
  0
VERTEX
  8
0
 10
88.426502
 20
172.868250
 42
-0.025019
  0
VERTEX
  8
0
 10
91.463721
 20
172.797055
 42
-0.019268
  0
VERTEX
  8
0
 10
93.865427
 20
172.526946
 42
-0.134193
  0
VERTEX
  8
0
 10
94.935717
 20
172.052422
 42
-0.165648
  0
VERTEX
  8
0
 10
95.501165
 20
171.147247
 42
-0.033497
  0
SEQEND
  0
POLYLINE
  8
0
 66
1
 70
1
  0
VERTEX
  8
0
 10
153.420200
 20
295.855451
 42
0.134726
  0
VERTEX
  8
0
 10
150.339391
 20
293.155525
 42
0.088610
  0
VERTEX
  8
0
 10
148.463783
 20
288.799580
 42
0.086993
  0
VERTEX
  8
0
 10
148.192462
 20
283.984157
 42
0.122150
  0
VERTEX
  8
0
 10
149.704109
 20
279.972506
 42
0.033114
  0
VERTEX
  8
0
 10
151.621883
 20
277.550158
 42
0.075957
  0
VERTEX
  8
0
 10
153.421868
 20
276.084695
 42
0.083683
  0
VERTEX
  8
0
 10
155.462548
 20
275.305582
 42
0.047262
  0
VERTEX
  8
0
 10
158.103977
 20
275.031803
 42
0.129942
  0
VERTEX
  8
0
 10
162.281393
 20
276.096744
 42
0.091461
  0
VERTEX
  8
0
 10
166.037996
 20
279.200125
 42
0.094130
  0
VERTEX
  8
0
 10
168.358573
 20
283.346707
 42
0.149462
  0
VERTEX
  8
0
 10
168.462616
 20
287.382082
 42
0.080307
  0
VERTEX
  8
0
 10
166.125634
 20
292.461382
 42
0.117108
  0
VERTEX
  8
0
 10
162.522438
 20
295.792289
 42
0.130015
  0
VERTEX
  8
0
 10
158.102441
 20
296.941716
 42
0.112370
  0
SEQEND
  0
POLYLINE
  8
0
 66
1
 70
1
  0
VERTEX
  8
0
 10
244.901210
 20
293.894245
 42
0.033316
  0
VERTEX
  8
0
 10
243.383258
 20
292.035270
 42
0.071183
  0
VERTEX
  8
0
 10
242.535617
 20
290.391167
 42
0.062556
  0
VERTEX
  8
0
 10
242.122355
 20
288.442202
 42
0.021002
  0
VERTEX
  8
0
 10
242.000000
 20
285.530608
 42
0.065064
  0
VERTEX
  8
0
 10
242.597498
 20
280.958397
 42
0.117949
  0
VERTEX
  8
0
 10
244.378642
 20
277.656566
 42
0.128286
  0
VERTEX
  8
0
 10
247.337981
 20
275.691771
 42
0.084868
  0
VERTEX
  8
0
 10
251.386364
 20
275.031803
 42
0.092655
  0
VERTEX
  8
0
 10
255.581646
 20
275.849576
 42
0.104421
  0
VERTEX
  8
0
 10
259.000446
 20
278.115861
 42
0.103937
  0
VERTEX
  8
0
 10
261.222177
 20
281.580593
 42
0.091016
  0
VERTEX
  8
0
 10
262.000000
 20
285.818214
 42
0.132948
  0
VERTEX
  8
0
 10
260.332177
 20
291.979816
 42
0.151352
  0
VERTEX
  8
0
 10
255.838569
 20
296.096752
 42
0.162476
  0
VERTEX
  8
0
 10
250.060275
 20
296.788331
 42
0.155336
  0
SEQEND
  0
POLYLINE
  8
0
 66
1
 70
1
  0
VERTEX
  8
0
 10
168.122874
 20
254.370334
 42
0.115300
  0
VERTEX
  8
0
 10
167.662618
 20
252.075557
 42
0.168565
  0
VERTEX
  8
0
 10
168.392943
 20
250.167964
 42
0.081917
  0
VERTEX
  8
0
 10
170.695752
 20
248.197828
 42
0.014077
  0
VERTEX
  8
0
 10
175.714578
 20
245.350318
 42
0.071331
  0
VERTEX
  8
0
 10
189.126815
 20
240.522667
 42
0.057168
  0
VERTEX
  8
0
 10
204.429965
 20
239.159038
 42
0.055594
  0
VERTEX
  8
0
 10
220.085185
 20
241.307946
 42
0.059153
  0
VERTEX
  8
0
 10
234.537080
 20
246.841149
 42
0.009517
  0
VERTEX
  8
0
 10
238.534333
 20
249.039690
 42
0.059474
  0
VERTEX
  8
0
 10
240.402329
 20
250.432509
 42
0.108850
  0
VERTEX
  8
0
 10
241.351455
 20
251.836505
 42
0.070487
  0
VERTEX
  8
0
 10
241.813358
 20
253.750000
 42
0.023049
  0
VERTEX
  8
0
 10
241.913154
 20
255.743003
 42
0.200729
  0
VERTEX
  8
0
 10
241.581329
 20
256.545112
 42
0.179626
  0
VERTEX
  8
0
 10
240.754980
 20
256.920986
 42
0.017859
  0
VERTEX
  8
0
 10
238.543487
 20
257.000000
 42
0.049447
  0
VERTEX
  8
0
 10
236.892097
 20
256.836287
 42
0.026958
  0
VERTEX
  8
0
 10
234.917502
 20
256.328869
 42
0.026459
  0
VERTEX
  8
0
 10
232.930890
 20
255.584866
 42
0.035624
  0
VERTEX
  8
0
 10
231.230128
 20
254.694096
 42
-0.040141
  0
VERTEX
  8
0
 10
225.895311
 20
251.961041
 42
-0.038341
  0
VERTEX
  8
0
 10
220.110739
 20
250.066156
 42
-0.032660
  0
VERTEX
  8
0
 10
213.312505
 20
248.866843
 42
-0.017764
  0
VERTEX
  8
0
 10
204.852370
 20
248.241378
 42
-0.007282
  0
VERTEX
  8
0
 10
198.261970
 20
248.085106
 42
-0.025762
  0
VERTEX
  8
0
 10
194.034754
 20
248.264316
 42
-0.033379
  0
VERTEX
  8
0
 10
190.441502
 20
248.846458
 42
-0.019594
  0
VERTEX
  8
0
 10
186.238231
 20
249.994056
 42
-0.018329
  0
VERTEX
  8
0
 10
183.381016
 20
251.012368
 42
-0.017427
  0
VERTEX
  8
0
 10
180.556670
 20
252.252932
 42
-0.017680
  0
VERTEX
  8
0
 10
178.139568
 20
253.523848
 42
-0.057122
  0
VERTEX
  8
0
 10
176.679505
 20
254.596361
 42
0.067503
  0
VERTEX
  8
0
 10
174.118048
 20
256.397567
 42
0.126792
  0
VERTEX
  8
0
 10
171.667969
 20
256.960466
 42
0.157700
  0
VERTEX
  8
0
 10
169.608763
 20
256.233827
 42
0.123425
  0
SEQEND
  0
ENDSEC
  0
EOF
