  0
SECTION
  2
HEADER
  9
$ACADVER
  1
AC1006
  9
$EXTMIN
 10
0.000000
 20
0.000000
 30
0.000000
  9
$EXTMAX
 10
434.000000
 20
297.000000
 30
0.000000
  0
ENDSEC
  0
SECTION
  2
ENTITIES
  0
POLYLINE
  8
0
 66
1
 70
1
  0
VERTEX
  8
0
 10
225.008444
 20
277.353652
 42
0.036392
  0
VERTEX
  8
0
 10
223.477044
 20
275.861977
 42
0.010813
  0
VERTEX
  8
0
 10
221.360431
 20
273.370164
 42
0.010786
  0
VERTEX
  8
0
 10
219.096509
 20
270.458933
 42
0.011447
  0
VERTEX
  8
0
 10
217.006068
 20
267.508992
 42
0.000000
  0
VERTEX
  8
0
 10
212.148698
 20
260.310681
 42
0.000000
  0
VERTEX
  8
0
 10
205.824349
 20
261.226343
 42
0.029638
  0
VERTEX
  8
0
 10
199.723431
 20
261.743261
 42
0.027574
  0
VERTEX
  8
0
 10
193.453935
 20
261.555950
 42
0.025282
  0
VERTEX
  8
0
 10
186.750350
 20
260.641636
 42
0.017873
  0
VERTEX
  8
0
 10
179.336718
 20
258.969387
 42
0.000000
  0
VERTEX
  8
0
 10
171.173436
 20
256.818792
 42
0.000000
  0
VERTEX
  8
0
 10
161.836718
 20
260.539449
 42
0.018823
  0
VERTEX
  8
0
 10
143.919198
 20
266.909195
 42
0.177410
  0
VERTEX
  8
0
 10
135.897898
 20
266.530014
 42
0.341597
  0
VERTEX
  8
0
 10
133.048949
 20
261.484912
 42
0.053892
  0
VERTEX
  8
0
 10
136.082935
 20
249.699401
 42
0.003715
  0
VERTEX
  8
0
 10
137.431872
 20
246.191106
 42
0.002966
  0
VERTEX
  8
0
 10
138.936557
 20
242.428618
 42
0.002998
  0
VERTEX
  8
0
 10
140.371177
 20
238.961849
 42
0.007570
  0
VERTEX
  8
0
 10
141.468167
 20
236.461852
 42
-0.010066
  0
VERTEX
  8
0
 10
142.883215
 20
233.192756
 42
-0.084258
  0
VERTEX
  8
0
 10
143.233764
 20
231.627019
 42
-0.112774
  0
VERTEX
  8
0
 10
142.988837
 20
230.220952
 42
-0.023925
  0
VERTEX
  8
0
 10
141.911731
 20
227.961852
 42
0.025413
  0
VERTEX
  8
0
 10
140.997393
 20
226.029360
 42
0.006069
  0
VERTEX
  8
0
 10
139.682024
 20
222.726294
 42
0.006222
  0
VERTEX
  8
0
 10
138.262879
 20
218.890945
 42
0.006119
  0
VERTEX
  8
0
 10
136.931378
 20
215.000000
 42
0.009955
  0
VERTEX
  8
0
 10
135.241984
 20
209.491222
 42
0.031495
  0
VERTEX
  8
0
 10
134.420257
 20
205.722694
 42
0.035331
  0
VERTEX
  8
0
 10
134.127222
 20
202.116847
 42
0.015204
  0
VERTEX
  8
0
 10
134.223534
 20
197.289625
 42
0.000000
  0
VERTEX
  8
0
 10
134.637309
 20
189.079250
 42
0.000000
  0
VERTEX
  8
0
 10
131.568655
 20
188.433208
 42
0.037393
  0
VERTEX
  8
0
 10
127.634392
 20
187.292304
 42
0.008697
  0
VERTEX
  8
0
 10
121.225651
 20
184.774133
 42
0.002772
  0
VERTEX
  8
0
 10
114.468085
 20
181.938300
 42
0.531244
  0
VERTEX
  8
0
 10
114.348090
 20
181.318577
 42
0.261440
  0
VERTEX
  8
0
 10
114.750978
 20
181.205352
 42
0.003009
  0
VERTEX
  8
0
 10
117.548875
 20
181.900384
 42
0.008213
  0
VERTEX
  8
0
 10
120.816846
 20
182.790509
 42
0.005152
  0
VERTEX
  8
0
 10
124.610122
 20
183.933454
 42
-0.001705
  0
VERTEX
  8
0
 10
128.415513
 20
185.108723
 42
-0.002609
  0
VERTEX
  8
0
 10
131.723531
 20
186.099202
 42
-0.000901
  0
VERTEX
  8
0
 10
134.584159
 20
186.933892
 42
-0.070643
  0
VERTEX
  8
0
 10
135.049728
 20
187.000000
 42
-0.277783
  0
VERTEX
  8
0
 10
135.873163
 20
186.504274
 42
-0.028067
  0
VERTEX
  8
0
 10
136.869334
 20
184.337147
 42
-0.029638
  0
VERTEX
  8
0
 10
137.615597
 20
182.050764
 42
-0.205264
  0
VERTEX
  8
0
 10
137.444856
 20
180.910774
 42
-0.094458
  0
VERTEX
  8
0
 10
137.012858
 20
180.439490
 42
-0.014026
  0
VERTEX
  8
0
 10
135.953208
 20
179.694998
 42
-0.015373
  0
VERTEX
  8
0
 10
134.634510
 20
178.879837
 42
-0.012694
  0
VERTEX
  8
0
 10
133.182151
 20
178.091055
 42
0.030062
  0
VERTEX
  8
0
 10
128.950122
 20
175.598610
 42
0.010674
  0
VERTEX
  8
0
 10
123.205538
 20
171.551840
 42
0.003401
  0
VERTEX
  8
0
 10
117.341966
 20
167.169220
 42
0.454855
  0
VERTEX
  8
0
 10
117.287843
 20
166.378824
 42
0.328609
  0
VERTEX
  8
0
 10
117.690572
 20
166.317788
 42
0.004218
  0
VERTEX
  8
0
 10
120.085620
 20
167.604550
 42
0.010223
  0
VERTEX
  8
0
 10
122.893323
 20
169.219188
 42
0.006288
  0
VERTEX
  8
0
 10
126.135031
 20
171.228668
 42
-0.005131
  0
VERTEX
  8
0
 10
134.536387
 20
176.463476
 42
-0.062288
  0
VERTEX
  8
0
 10
137.993997
 20
178.018133
 42
-0.181119
  0
VERTEX
  8
0
 10
140.277430
 20
177.880460
 42
-0.110102
  0
VERTEX
  8
0
 10
142.476561
 20
176.250299
 42
0.000000
  0
VERTEX
  8
0
 10
144.857704
 20
173.500000
 42
0.000000
  0
VERTEX
  8
0
 10
137.947499
 20
166.500000
 42
0.004510
  0
VERTEX
  8
0
 10
133.118164
 20
161.518842
 42
0.016908
  0
VERTEX
  8
0
 10
130.222978
 20
158.264703
 42
0.023543
  0
VERTEX
  8
0
 10
128.491481
 20
155.968975
 42
0.142221
  0
VERTEX
  8
0
 10
128.031803
 20
154.565780
 42
0.652736
  0
VERTEX
  8
0
 10
128.279768
 20
154.446539
 42
0.003972
  0
VERTEX
  8
0
 10
130.780387
 20
156.623453
 42
0.008265
  0
VERTEX
  8
0
 10
133.816489
 20
159.400027
 42
0.004582
  0
VERTEX
  8
0
 10
137.433343
 20
162.882509
 42
0.000000
  0
VERTEX
  8
0
 10
146.866685
 20
172.133457
 42
0.000000
  0
VERTEX
  8
0
 10
149.408785
 20
170.467810
 42
0.000000
  0
VERTEX
  8
0
 10
151.950884
 20
168.802162
 42
0.000000
  0
VERTEX
  8
0
 10
149.556656
 20
165.651081
 42
0.040763
  0
VERTEX
  8
0
 10
146.912504
 20
161.510080
 42
0.007182
  0
VERTEX
  8
0
 10
142.710152
 20
153.286588
 42
0.007580
  0
VERTEX
  8
0
 10
138.740832
 20
144.918244
 42
0.034174
  0
VERTEX
  8
0
 10
136.838527
 20
139.855389
 42
-0.040174
  0
VERTEX
  8
0
 10
136.201645
 20
138.220162
 42
-0.050907
  0
VERTEX
  8
0
 10
135.349868
 20
136.841522
 42
-0.055621
  0
VERTEX
  8
0
 10
134.312053
 20
135.763260
 42
-0.067288
  0
VERTEX
  8
0
 10
133.122383
 20
135.019036
 42
0.066084
  0
VERTEX
  8
0
 10
126.574560
 20
130.944709
 42
0.034916
  0
VERTEX
  8
0
 10
119.615848
 20
124.352056
 42
0.034243
  0
VERTEX
  8
0
 10
113.383692
 20
116.552288
 42
0.047338
  0
VERTEX
  8
0
 10
109.004542
 20
108.743173
 42
-0.022875
  0
VERTEX
  8
0
 10
107.835268
 20
106.396223
 42
-0.071991
  0
VERTEX
  8
0
 10
106.770753
 20
105.000828
 42
-0.091544
  0
VERTEX
  8
0
 10
105.508093
 20
104.150295
 42
-0.053272
  0
VERTEX
  8
0
 10
103.759324
 20
103.602112
 42
0.071753
  0
VERTEX
  8
0
 10
100.493360
 20
102.444676
 42
0.016766
  0
VERTEX
  8
0
 10
95.430630
 20
99.563590
 42
0.014843
  0
VERTEX
  8
0
 10
90.587551
 20
96.386510
 42
0.106896
  0
VERTEX
  8
0
 10
88.700310
 20
94.350692
 42
-0.251696
  0
VERTEX
  8
0
 10
87.421533
 20
93.578780
 42
-0.004941
  0
VERTEX
  8
0
 10
79.523087
 20
93.262232
 42
-0.006451
  0
VERTEX
  8
0
 10
67.295279
 20
93.051011
 42
-0.001093
  0
VERTEX
  8
0
 10
43.950310
 20
93.000000
 42
0.000904
  0
VERTEX
  8
0
 10
18.873243
 20
92.954650
 42
0.007625
  0
VERTEX
  8
0
 10
7.575052
 20
92.741468
 42
0.008121
  0
VERTEX
  8
0
 10
0.844047
 20
92.402219
 42
0.394839
  0
VERTEX
  8
0
 10
0.000000
 20
91.500000
 42
0.393858
  0
VERTEX
  8
0
 10
0.838594
 20
90.600555
 42
0.008663
  0
VERTEX
  8
0
 10
7.320647
 20
90.258839
 42
0.007896
  0
VERTEX
  8
0
 10
18.234203
 20
90.045450
 42
0.000939
  0
VERTEX
  8
0
 10
42.423884
 20
90.000000
 42
0.000000
  0
VERTEX
  8
0
 10
84.847768
 20
90.000000
 42
0.000000
  0
VERTEX
  8
0
 10
80.277331
 20
82.395908
 42
0.000000
  0
VERTEX
  8
0
 10
75.706893
 20
74.791816
 42
0.000000
  0
VERTEX
  8
0
 10
74.403766
 20
77.891043
 42
0.051938
  0
VERTEX
  8
0
 10
72.558710
 20
81.253922
 42
0.068510
  0
VERTEX
  8
0
 10
70.197423
 20
83.827545
 42
0.077312
  0
VERTEX
  8
0
 10
67.486612
 20
85.442464
 42
0.096033
  0
VERTEX
  8
0
 10
64.610554
 20
86.000000
 42
-0.024952
  0
VERTEX
  8
0
 10
63.075474
 20
86.076654
 42
-0.016836
  0
VERTEX
  8
0
 10
61.337084
 20
86.310041
 42
-0.016986
  0
VERTEX
  8
0
 10
59.667144
 20
86.650459
 42
-0.032075
  0
VERTEX
  8
0
 10
58.354133
 20
87.055459
 42
0.071015
  0
VERTEX
  8
0
 10
55.681685
 20
87.657362
 42
0.090373
  0
VERTEX
  8
0
 10
53.171426
 20
87.404176
 42
0.076713
  0
VERTEX
  8
0
 10
50.612220
 20
86.218357
 42
0.037549
  0
VERTEX
  8
0
 10
47.770166
 20
84.003082
 42
-0.001047
  0
VERTEX
  8
0
 10
46.389829
 20
82.755156
 42
-0.000925
  0
VERTEX
  8
0
 10
44.946549
 20
81.460631
 42
-0.000929
  0
VERTEX
  8
0
 10
43.641877
 20
80.299131
 42
-0.002832
  0
VERTEX
  8
0
 10
42.750000
 20
79.517073
 42
0.153350
  0
VERTEX
  8
0
 10
41.471579
 20
77.442377
 42
0.058204
  0
VERTEX
  8
0
 10
41.020088
 20
74.032440
 42
0.056517
  0
VERTEX
  8
0
 10
41.376475
 20
70.390748
 42
0.092657
  0
VERTEX
  8
0
 10
42.565984
 20
67.539640
 42
0.051727
  0
VERTEX
  8
0
 10
43.369460
 20
66.552934
 42
0.031889
  0
VERTEX
  8
0
 10
44.495781
 20
65.564521
 42
0.031766
  0
VERTEX
  8
0
 10
45.748133
 20
64.720534
 42
0.048555
  0
VERTEX
  8
0
 10
46.936464
 20
64.171993
 42
-0.054363
  0
VERTEX
  8
0
 10
48.299060
 20
63.523758
 42
-0.086981
  0
VERTEX
  8
0
 10
49.259994
 20
62.670369
 42
-0.080629
  0
VERTEX
  8
0
 10
49.919611
 20
61.491596
 42
-0.040865
  0
VERTEX
  8
0
 10
50.370424
 20
59.847170
 42
0.033231
  0
VERTEX
  8
0
 10
50.811455
 20
58.136554
 42
0.010048
  0
VERTEX
  8
0
 10
51.703500
 20
55.605586
 42
0.010018
  0
VERTEX
  8
0
 10
52.820495
 20
52.800758
 42
0.010741
  0
VERTEX
  8
0
 10
54.024628
 20
50.108017
 42
-0.009454
  0
VERTEX
  8
0
 10
55.145236
 20
47.619266
 42
-0.014841
  0
VERTEX
  8
0
 10
56.003294
 20
45.436123
 42
-0.008877
  0
VERTEX
  8
0
 10
56.619660
 20
43.619221
 42
-0.280719
  0
VERTEX
  8
0
 10
56.513004
 20
43.179670
 42
-0.167856
  0
VERTEX
  8
0
 10
56.038849
 20
42.948995
 42
-0.003188
  0
VERTEX
  8
0
 10
53.273565
 20
42.632940
 42
-0.007373
  0
VERTEX
  8
0
 10
50.009330
 20
42.329549
 42
-0.004824
  0
VERTEX
  8
0
 10
46.238320
 20
42.071653
 42
0.011512
  0
VERTEX
  8
0
 10
39.476043
 20
41.518233
 42
0.115378
  0
VERTEX
  8
0
 10
36.816047
 20
40.593960
 42
0.690037
  0
VERTEX
  8
0
 10
36.995077
 20
39.716992
 42
0.025923
  0
VERTEX
  8
0
 10
41.699237
 20
39.199501
 42
-0.013069
  0
VERTEX
  8
0
 10
44.154985
 20
38.993057
 42
-0.054668
  0
VERTEX
  8
0
 10
45.600295
 20
38.671024
 42
-0.131640
  0
VERTEX
  8
0
 10
46.290360
 20
38.208753
 42
-0.278157
  0
VERTEX
  8
0
 10
46.399139
 20
37.597756
 42
0.338326
  0
VERTEX
  8
0
 10
46.589517
 20
36.950506
 42
0.087176
  0
VERTEX
  8
0
 10
47.631448
 20
36.436431
 42
0.038969
  0
VERTEX
  8
0
 10
49.668525
 20
36.009624
 42
0.008990
  0
VERTEX
  8
0
 10
53.157102
 20
35.622016
 42
-0.013474
  0
VERTEX
  8
0
 10
55.987733
 20
35.281793
 42
-0.018973
  0
VERTEX
  8
0
 10
58.486666
 20
34.815418
 42
-0.015464
  0
VERTEX
  8
0
 10
60.486212
 20
34.297658
 42
-0.185309
  0
VERTEX
  8
0
 10
61.109199
 20
33.823313
 42
0.249864
  0
VERTEX
  8
0
 10
62.067968
 20
33.264742
 42
0.005673
  0
VERTEX
  8
0
 10
67.535744
 20
33.119956
 42
0.008468
  0
VERTEX
  8
0
 10
75.330842
 20
33.134049
 42
0.002302
  0
VERTEX
  8
0
 10
87.651999
 20
33.421762
 42
-0.000836
  0
VERTEX
  8
0
 10
107.559983
 20
33.945047
 42
-0.008826
  0
VERTEX
  8
0
 10
115.692020
 20
34.001607
 42
-0.021399
  0
VERTEX
  8
0
 10
120.293216
 20
33.755256
 42
-0.071515
  0
VERTEX
  8
0
 10
123.222780
 20
33.041231
 42
-0.609352
  0
VERTEX
  8
0
 10
123.259885
 20
32.649349
 42
-0.115102
  0
VERTEX
  8
0
 10
122.358262
 20
32.328920
 42
-0.022125
  0
VERTEX
  8
0
 10
119.545565
 20
32.137271
 42
-0.004500
  0
VERTEX
  8
0
 10
114.550000
 20
32.063386
 42
0.006426
  0
VERTEX
  8
0
 10
110.026939
 20
31.979062
 42
0.016899
  0
VERTEX
  8
0
 10
106.790539
 20
31.767463
 42
0.020000
  0
VERTEX
  8
0
 10
104.673426
 20
31.471105
 42
0.608774
  0
VERTEX
  8
0
 10
104.550000
 20
31.069301
 42
0.170277
  0
VERTEX
  8
0
 10
105.970963
 20
30.404126
 42
0.000680
  0
VERTEX
  8
0
 10
123.756544
 20
28.635109
 42
0.001134
  0
VERTEX
  8
0
 10
141.100729
 20
26.973524
 42
0.093361
  0
VERTEX
  8
0
 10
143.769209
 20
27.222256
 42
-0.101523
  0
VERTEX
  8
0
 10
144.303939
 20
27.263390
 42
-0.002776
  0
VERTEX
  8
0
 10
146.635330
 20
26.955908
 42
-0.005632
  0
VERTEX
  8
0
 10
149.381560
 20
26.546619
 42
-0.003820
  0
VERTEX
  8
0
 10
152.500000
 20
26.021416
 42
-0.006823
  0
VERTEX
  8
0
 10
155.986800
 20
25.357562
 42
-0.032716
  0
VERTEX
  8
0
 10
157.937488
 20
24.823585
 42
-0.213872
  0
VERTEX
  8
0
 10
158.373134
 20
24.414475
 42
-0.461676
  0
VERTEX
  8
0
 10
158.190983
 20
24.055563
 42
0.068799
  0
VERTEX
  8
0
 10
156.278047
 20
23.305894
 42
0.447635
  0
VERTEX
  8
0
 10
156.080196
 20
22.413357
 42
0.189921
  0
VERTEX
  8
0
 10
157.345877
 20
21.598877
 42
0.032620
  0
VERTEX
  8
0
 10
160.232352
 20
21.217949
 42
-0.010332
  0
VERTEX
  8
0
 10
164.527007
 20
20.844847
 42
-0.113685
  0
VERTEX
  8
0
 10
166.149374
 20
20.282391
 42
-0.521351
  0
VERTEX
  8
0
 10
166.186278
 20
19.537629
 42
-0.062897
  0
VERTEX
  8
0
 10
164.500000
 20
18.541634
 42
0.000000
  0
VERTEX
  8
0
 10
161.500000
 20
17.245276
 42
0.000000
  0
VERTEX
  8
0
 10
164.315100
 20
16.122638
 42
0.019143
  0
VERTEX
  8
0
 10
165.525562
 20
15.692842
 42
0.016186
  0
VERTEX
  8
0
 10
166.834709
 20
15.329775
 42
0.016490
  0
VERTEX
  8
0
 10
168.050713
 20
15.076707
 42
0.043079
  0
VERTEX
  8
0
 10
168.939373
 20
15.000000
 42
-0.048662
  0
VERTEX
  8
0
 10
169.907234
 20
14.905580
 42
-0.012033
  0
VERTEX
  8
0
 10
171.465966
 20
14.559375
 42
-0.012197
  0
VERTEX
  8
0
 10
173.239626
 20
14.074194
 42
-0.011945
  0
VERTEX
  8
0
 10
175.000000
 20
13.500000
 42
0.043361
  0
VERTEX
  8
0
 10
179.235823
 20
12.407047
 42
0.048238
  0
VERTEX
  8
0
 10
183.446370
 20
12.114157
 42
0.033139
  0
VERTEX
  8
0
 10
188.778319
 20
12.612571
 42
0.009337
  0
VERTEX
  8
0
 10
197.001981
 20
14.093164
 42
-0.017117
  0
VERTEX
  8
0
 10
203.569960
 20
15.170467
 42
-0.014592
  0
VERTEX
  8
0
 10
210.555449
 20
15.865454
 42
-0.010011
  0
VERTEX
  8
0
 10
219.651247
 20
16.320265
 42
-0.003012
  0
VERTEX
  8
0
 10
233.500000
 20
16.651522
 42
0.002161
  0
VERTEX
  8
0
 10
243.573150
 20
16.875309
 42
0.003308
  0
VERTEX
  8
0
 10
252.303125
 20
17.164819
 42
0.001166
  0
VERTEX
  8
0
 10
259.823119
 20
17.481586
 42
0.088379
  0
VERTEX
  8
0
 10
261.000000
 20
17.745664
 42
0.754099
  0
VERTEX
  8
0
 10
260.915518
 20
18.455414
 42
0.016682
  0
VERTEX
  8
0
 10
255.593256
 20
19.133504
 42
0.013475
  0
VERTEX
  8
0
 10
247.673760
 20
19.660253
 42
0.007682
  0
VERTEX
  8
0
 10
238.083333
 20
19.891466
 42
-0.003066
  0
VERTEX
  8
0
 10
233.350365
 20
19.961868
 42
-0.005381
  0
VERTEX
  8
0
 10
229.436458
 20
20.086252
 42
-0.001661
  0
VERTEX
  8
0
 10
226.145257
 20
20.237272
 42
-0.656862
  0
VERTEX
  8
0
 10
226.083333
 20
20.402159
 42
-0.184763
  0
VERTEX
  8
0
 10
226.802586
 20
20.708186
 42
-0.000225
  0
VERTEX
  8
0
 10
242.937456
 20
21.296120
 42
-0.002279
  0
VERTEX
  8
0
 10
257.875239
 20
21.765565
 42
-0.005073
  0
VERTEX
  8
0
 10
269.250000
 20
21.955682
 42
0.013372
  0
VERTEX
  8
0
 10
271.882241
 20
22.043389
 42
0.023366
  0
VERTEX
  8
0
 10
274.051421
 20
22.275885
 42
0.020490
  0
VERTEX
  8
0
 10
275.682331
 20
22.597111
 42
0.346818
  0
VERTEX
  8
0
 10
276.000000
 20
23.000000
 42
0.389549
  0
VERTEX
  8
0
 10
275.587158
 20
23.449486
 42
0.005790
  0
VERTEX
  8
0
 10
271.708333
 20
23.734536
 42
0.010860
  0
VERTEX
  8
0
 10
266.642517
 20
23.937567
 42
0.004584
  0
VERTEX
  8
0
 10
259.833333
 20
24.000000
 42
-0.003685
  0
VERTEX
  8
0
 10
253.677126
 20
24.045376
 42
-0.006527
  0
VERTEX
  8
0
 10
248.602093
 20
24.186468
 42
-0.002419
  0
VERTEX
  8
0
 10
244.400072
 20
24.378567
 42
-0.650061
  0
VERTEX
  8
0
 10
244.301450
 20
24.634783
 42
-0.176257
  0
VERTEX
  8
0
 10
244.885875
 20
24.907402
 42
-0.001559
  0
VERTEX
  8
0
 10
249.826318
 20
25.325473
 42
-0.005136
  0
VERTEX
  8
0
 10
255.547903
 20
25.732567
 42
-0.003263
  0
VERTEX
  8
0
 10
262.218116
 20
26.094670
 42
0.007020
  0
VERTEX
  8
0
 10
280.292213
 20
27.212126
 42
0.020897
  0
VERTEX
  8
0
 10
292.610432
 20
28.667150
 42
0.081290
  0
VERTEX
  8
0
 10
297.230280
 20
30.206255
 42
0.684873
  0
VERTEX
  8
0
 10
297.059846
 20
31.694601
 42
-0.010490
  0
VERTEX
  8
0
 10
295.672590
 20
32.088647
 42
-0.305819
  0
VERTEX
  8
0
 10
295.452330
 20
32.361311
 42
-0.258849
  0
VERTEX
  8
0
 10
295.605865
 20
32.704501
 42
-0.008134
  0
VERTEX
  8
0
 10
296.892535
 20
33.637282
 42
-0.063371
  0
VERTEX
  8
0
 10
297.974409
 20
34.206637
 42
-0.020361
  0
VERTEX
  8
0
 10
299.701629
 20
34.773566
 42
-0.019944
  0
VERTEX
  8
0
 10
301.694440
 20
35.253970
 42
-0.021063
  0
VERTEX
  8
0
 10
303.683305
 20
35.563826
 42
0.004215
  0
VERTEX
  8
0
 10
310.168133
 20
36.351443
 42
0.034952
  0
VERTEX
  8
0
 10
313.072947
 20
36.937769
 42
0.097982
  0
VERTEX
  8
0
 10
314.492880
 20
37.649049
 42
0.231789
  0
VERTEX
  8
0
 10
315.000000
 20
38.684202
 42
0.198825
  0
VERTEX
  8
0
 10
314.677632
 20
39.462837
 42
0.156955
  0
VERTEX
  8
0
 10
313.858962
 20
39.883198
 42
0.055634
  0
VERTEX
  8
0
 10
312.195137
 20
39.969531
 42
0.007780
  0
VERTEX
  8
0
 10
308.753876
 20
39.711399
 42
-0.005635
  0
VERTEX
  8
0
 10
305.698632
 20
39.469039
 42
-0.045111
  0
VERTEX
  8
0
 10
304.288084
 20
39.500459
 42
-0.450641
  0
VERTEX
  8
0
 10
304.085415
 20
39.789454
 42
-0.209332
  0
VERTEX
  8
0
 10
304.398536
 20
40.203156
 42
-0.096519
  0
VERTEX
  8
0
 10
306.472270
 20
40.885226
 42
-0.003936
  0
VERTEX
  8
0
 10
314.325570
 20
41.811864
 42
-0.007659
  0
VERTEX
  8
0
 10
322.486261
 20
42.583383
 42
-0.012884
  0
VERTEX
  8
0
 10
329.356989
 20
42.949086
 42
0.059186
  0
VERTEX
  8
0
 10
330.133825
 20
43.063036
 42
0.155330
  0
VERTEX
  8
0
 10
330.602046
 20
43.364525
 42
0.180955
  0
VERTEX
  8
0
 10
330.768244
 20
43.845831
 42
0.085421
  0
VERTEX
  8
0
 10
330.638374
 20
44.500000
 42
-0.087953
  0
VERTEX
  8
0
 10
330.509328
 20
45.167561
 42
-0.199527
  0
VERTEX
  8
0
 10
330.695762
 20
45.636533
 42
-0.153122
  0
VERTEX
  8
0
 10
331.212259
 20
45.915118
 42
-0.047727
  0
VERTEX
  8
0
 10
332.099479
 20
46.000000
 42
-0.033588
  0
VERTEX
  8
0
 10
333.303076
 20
45.919056
 42
-0.394665
  0
VERTEX
  8
0
 10
333.574785
 20
45.586268
 42
-0.133666
  0
VERTEX
  8
0
 10
333.352941
 20
44.944581
 42
-0.005041
  0
VERTEX
  8
0
 10
331.887234
 20
42.841635
 42
0.082449
  0
VERTEX
  8
0
 10
330.269434
 20
39.528557
 42
0.037635
  0
VERTEX
  8
0
 10
329.241350
 20
34.809123
 42
0.033211
  0
VERTEX
  8
0
 10
328.914264
 20
30.327704
 42
0.261658
  0
VERTEX
  8
0
 10
329.886863
 20
28.569923
 42
-0.132014
  0
VERTEX
  8
0
 10
330.929192
 20
27.461578
 42
-0.245794
  0
VERTEX
  8
0
 10
330.941411
 20
26.260340
 42
-0.188659
  0
VERTEX
  8
0
 10
329.888006
 20
25.325188
 42
-0.088497
  0
VERTEX
  8
0
 10
328.065100
 20
25.000000
 42
0.045444
  0
VERTEX
  8
0
 10
325.210447
 20
24.740008
 42
0.048943
  0
VERTEX
  8
0
 10
322.522985
 20
23.968786
 42
0.062649
  0
VERTEX
  8
0
 10
320.688047
 20
22.960619
 42
0.392712
  0
VERTEX
  8
0
 10
320.498843
 20
22.001873
 42
0.179706
  0
VERTEX
  8
0
 10
320.999178
 20
21.612271
 42
0.027639
  0
VERTEX
  8
0
 10
322.240685
 20
21.294300
 42
0.027907
  0
VERTEX
  8
0
 10
323.813102
 20
21.073252
 42
0.020969
  0
VERTEX
  8
0
 10
325.559017
 20
21.000000
 42
-0.021227
  0
VERTEX
  8
0
 10
327.261135
 20
20.927706
 42
-0.034160
  0
VERTEX
  8
0
 10
328.695461
 20
20.706250
 42
-0.037703
  0
VERTEX
  8
0
 10
329.734720
 20
20.388352
 42
-0.308946
  0
VERTEX
  8
0
 10
330.000000
 20
20.000000
 42
-0.222681
  0
VERTEX
  8
0
 10
329.820624
 20
19.617207
 42
-0.076538
  0
VERTEX
  8
0
 10
329.282961
 20
19.293750
 42
-0.058208
  0
VERTEX
  8
0
 10
328.493720
 20
19.073170
 42
-0.039081
  0
VERTEX
  8
0
 10
327.559017
 20
19.000000
 42
0.062063
  0
VERTEX
  8
0
 10
325.824415
 20
18.783859
 42
0.133725
  0
VERTEX
  8
0
 10
324.661270
 20
18.127418
 42
0.267170
  0
VERTEX
  8
0
 10
324.429724
 20
17.287423
 42
0.193370
  0
VERTEX
  8
0
 10
325.018620
 20
16.488492
 42
0.114801
  0
VERTEX
  8
0
 10
325.865573
 20
16.203138
 42
0.001950
  0
VERTEX
  8
0
 10
330.787041
 20
15.746731
 42
0.004875
  0
VERTEX
  8
0
 10
336.546395
 20
15.291819
 42
0.003211
  0
VERTEX
  8
0
 10
343.179584
 20
14.875698
 42
0.005474
  0
VERTEX
  8
0
 10
354.102258
 20
14.380770
 42
0.023407
  0
VERTEX
  8
0
 10
360.623364
 20
14.462107
 42
0.021058
  0
VERTEX
  8
0
 10
367.413906
 20
15.152948
 42
0.003853
  0
VERTEX
  8
0
 10
379.894652
 20
17.054600
 42
0.003495
  0
VERTEX
  8
0
 10
389.842145
 20
18.720200
 42
0.014659
  0
VERTEX
  8
0
 10
395.780876
 20
19.937686
 42
0.021305
  0
VERTEX
  8
0
 10
399.563904
 20
21.001493
 42
0.125454
  0
VERTEX
  8
0
 10
401.288955
 20
22.098296
 42
-0.036551
  0
VERTEX
  8
0
 10
402.081357
 20
22.826009
 42
-0.035109
  0
VERTEX
  8
0
 10
402.981587
 20
23.441375
 42
-0.037178
  0
VERTEX
  8
0
 10
403.852967
 20
23.867794
 42
-0.095483
  0
VERTEX
  8
0
 10
404.538955
 20
24.000000
 42
0.103255
  0
VERTEX
  8
0
 10
405.096460
 20
24.116371
 42
0.098841
  0
VERTEX
  8
0
 10
405.570818
 20
24.446923
 42
0.096897
  0
VERTEX
  8
0
 10
405.888684
 20
24.940705
 42
0.094976
  0
VERTEX
  8
0
 10
406.000000
 20
25.521439
 42
-0.129273
  0
VERTEX
  8
0
 10
406.174226
 20
26.184048
 42
-0.057603
  0
VERTEX
  8
0
 10
406.709478
 20
26.919215
 42
-0.051586
  0
VERTEX
  8
0
 10
407.491350
 20
27.609576
 42
-0.048216
  0
VERTEX
  8
0
 10
408.415246
 20
28.143337
 42
0.050162
  0
VERTEX
  8
0
 10
409.375676
 20
28.703191
 42
0.042440
  0
VERTEX
  8
0
 10
410.265284
 20
29.472229
 42
0.044388
  0
VERTEX
  8
0
 10
410.959154
 20
30.322571
 42
0.085185
  0
VERTEX
  8
0
 10
411.321626
 20
31.121898
 42
-0.091173
  0
VERTEX
  8
0
 10
411.668053
 20
31.862320
 42
-0.080918
  0
VERTEX
  8
0
 10
412.267466
 20
32.467089
 42
-0.078633
  0
VERTEX
  8
0
 10
413.044986
 20
32.863430
 42
-0.078781
  0
VERTEX
  8
0
 10
413.906380
 20
33.000000
 42
0.066206
  0
VERTEX
  8
0
 10
414.726668
 20
33.109095
 42
0.089551
  0
VERTEX
  8
0
 10
415.401063
 20
33.429116
 42
0.106036
  0
VERTEX
  8
0
 10
415.842133
 20
33.914282
 42
0.132401
  0
VERTEX
  8
0
 10
416.000000
 20
34.500000
 42
0.100723
  0
VERTEX
  8
0
 10
415.883506
 20
35.072421
 42
0.098326
  0
VERTEX
  8
0
 10
415.552104
 20
35.559375
 42
0.097539
  0
VERTEX
  8
0
 10
415.057190
 20
35.885578
 42
0.097378
  0
VERTEX
  8
0
 10
414.475249
 20
36.000000
 42
-0.136450
  0
VERTEX
  8
0
 10
413.822013
 20
36.181650
 42
-0.062060
  0
VERTEX
  8
0
 10
413.119185
 20
36.734375
 42
-0.054776
  0
VERTEX
  8
0
 10
412.476685
 20
37.543720
 42
-0.049595
  0
VERTEX
  8
0
 10
412.000000
 20
38.500000
 42
0.031572
  0
VERTEX
  8
0
 10
411.565179
 20
39.457073
 42
0.041178
  0
VERTEX
  8
0
 10
411.044781
 20
40.265625
 42
0.046535
  0
VERTEX
  8
0
 10
410.518985
 20
40.833223
 42
0.184711
  0
VERTEX
  8
0
 10
410.082933
 20
41.000000
 42
-0.368878
  0
VERTEX
  8
0
 10
409.702965
 20
41.324475
 42
-0.024699
  0
VERTEX
  8
0
 10
409.536844
 20
42.858989
 42
-0.024246
  0
VERTEX
  8
0
 10
409.515436
 20
45.007298
 42
-0.011281
  0
VERTEX
  8
0
 10
409.685617
 20
47.790044
 42
0.038898
  0
VERTEX
  8
0
 10
409.715171
 20
52.813578
 42
0.064319
  0
VERTEX
  8
0
 10
408.872297
 20
56.964435
 42
0.062101
  0
VERTEX
  8
0
 10
406.975007
 20
60.863805
 42
0.033740
  0
VERTEX
  8
0
 10
403.769310
 20
65.130634
 42
0.124202
  0
VERTEX
  8
0
 10
396.171942
 20
70.461722
 42
0.044029
  0
VERTEX
  8
0
 10
383.300717
 20
74.117346
 42
0.040057
  0
VERTEX
  8
0
 10
367.732217
 20
75.815659
 42
0.035781
  0
VERTEX
  8
0
 10
351.482646
 20
75.117396
 42
-0.016801
  0
VERTEX
  8
0
 10
342.564239
 20
74.394519
 42
-0.006346
  0
VERTEX
  8
0
 10
330.060457
 20
73.961863
 42
-0.001621
  0
VERTEX
  8
0
 10
316.847489
 20
73.715341
 42
-0.202921
  0
VERTEX
  8
0
 10
315.340794
 20
74.325873
 42
-0.234628
  0
VERTEX
  8
0
 10
315.212719
 20
74.706632
 42
-0.008986
  0
VERTEX
  8
0
 10
315.448884
 20
76.223914
 42
-0.014443
  0
VERTEX
  8
0
 10
315.822711
 20
78.056133
 42
-0.009493
  0
VERTEX
  8
0
 10
316.353533
 20
80.142515
 42
0.002193
  0
VERTEX
  8
0
 10
316.956906
 20
82.377014
 42
0.002068
  0
VERTEX
  8
0
 10
317.552706
 20
84.660614
 42
0.002055
  0
VERTEX
  8
0
 10
318.063815
 20
86.687890
 42
0.007200
  0
VERTEX
  8
0
 10
318.368906
 20
88.000000
 42
0.000000
  0
VERTEX
  8
0
 10
318.912382
 20
90.500000
 42
0.000000
  0
VERTEX
  8
0
 10
376.456191
 20
90.148578
 42
0.000612
  0
VERTEX
  8
0
 10
410.717220
 20
89.981275
 42
0.006345
  0
VERTEX
  8
0
 10
424.821623
 20
90.108640
 42
0.006857
  0
VERTEX
  8
0
 10
433.049612
 20
90.400297
 42
0.399891
  0
VERTEX
  8
0
 10
434.000000
 20
91.398578
 42
0.398164
  0
VERTEX
  8
0
 10
433.051923
 20
92.400393
 42
0.006791
  0
VERTEX
  8
0
 10
424.805538
 20
92.743012
 42
0.006362
  0
VERTEX
  8
0
 10
410.707381
 20
92.957587
 42
0.000624
  0
VERTEX
  8
0
 10
376.704576
 20
93.000000
 42
0.000000
  0
VERTEX
  8
0
 10
319.409151
 20
93.000000
 42
0.000000
  0
VERTEX
  8
0
 10
319.811773
 20
105.250000
 42
0.042415
  0
VERTEX
  8
0
 10
318.733674
 20
125.994452
 42
0.039749
  0
VERTEX
  8
0
 10
314.180379
 20
146.729845
 42
0.034478
  0
VERTEX
  8
0
 10
305.692596
 20
168.972381
 42
0.020157
  0
VERTEX
  8
0
 10
292.672414
 20
194.365984
 42
0.012222
  0
VERTEX
  8
0
 10
288.995547
 20
200.520362
 42
0.026614
  0
VERTEX
  8
0
 10
285.817619
 20
205.007848
 42
0.025047
  0
VERTEX
  8
0
 10
282.061612
 20
209.294710
 42
0.009672
  0
VERTEX
  8
0
 10
276.450982
 20
214.865984
 42
-0.009384
  0
VERTEX
  8
0
 10
272.142504
 20
219.139305
 42
-0.006937
  0
VERTEX
  8
0
 10
267.532780
 20
224.020008
 42
-0.007016
  0
VERTEX
  8
0
 10
263.305262
 20
228.753945
 42
-0.015609
  0
VERTEX
  8
0
 10
260.252972
 20
232.500000
 42
0.005787
  0
VERTEX
  8
0
 10
257.687357
 20
235.778190
 42
0.005701
  0
VERTEX
  8
0
 10
255.033817
 20
239.012771
 42
0.005616
  0
VERTEX
  8
0
 10
252.645159
 20
241.793662
 42
0.021656
  0
VERTEX
  8
0
 10
251.069950
 20
243.437091
 42
-0.032800
  0
VERTEX
  8
0
 10
249.895131
 20
244.718741
 42
-0.033092
  0
VERTEX
  8
0
 10
248.901798
 20
246.139378
 42
-0.035019
  0
VERTEX
  8
0
 10
248.209584
 20
247.488599
 42
-0.101350
  0
VERTEX
  8
0
 10
248.000000
 20
248.511939
 42
0.074536
  0
VERTEX
  8
0
 10
247.492329
 20
251.898560
 42
0.011896
  0
VERTEX
  8
0
 10
245.370012
 20
258.273266
 42
0.014034
  0
VERTEX
  8
0
 10
242.823571
 20
264.775925
 42
0.032206
  0
VERTEX
  8
0
 10
240.463022
 20
269.472887
 42
0.027742
  0
VERTEX
  8
0
 10
237.772417
 20
273.530234
 42
0.035346
  0
VERTEX
  8
0
 10
234.840747
 20
276.929375
 42
0.038409
  0
VERTEX
  8
0
 10
232.068299
 20
279.320393
 42
0.160067
  0
VERTEX
  8
0
 10
229.999802
 20
280.000000
 42
0.094244
  0
VERTEX
  8
0
 10
229.079556
 20
279.824990
 42
0.027917
  0
VERTEX
  8
0
 10
227.771971
 20
279.222635
 42
0.026934
  0
VERTEX
  8
0
 10
226.348099
 20
278.366493
 42
0.026079
  0
SEQEND
  0
POLYLINE
  8
0
 66
1
 70
1
  0
VERTEX
  8
0
 10
233.506967
 20
265.570170
 42
-0.015590
  0
VERTEX
  8
0
 10
234.638191
 20
261.399780
 42
-0.019751
  0
VERTEX
  8
0
 10
235.408670
 20
257.482415
 42
-0.020324
  0
VERTEX
  8
0
 10
235.852074
 20
253.612005
 42
-0.018358
  0
VERTEX
  8
0
 10
236.000000
 20
249.584398
 42
0.000000
  0
VERTEX
  8
0
 10
236.000000
 20
241.772004
 42
0.000000
  0
VERTEX
  8
0
 10
230.717205
 20
247.403206
 42
0.009090
  0
VERTEX
  8
0
 10
227.965363
 20
250.231681
 42
0.046134
  0
VERTEX
  8
0
 10
226.269435
 20
251.627824
 42
0.107345
  0
VERTEX
  8
0
 10
225.100293
 20
252.098424
 42
0.243181
  0
VERTEX
  8
0
 10
224.217205
 20
251.817205
 42
-0.024359
  0
VERTEX
  8
0
 10
223.584048
 20
251.242908
 42
-0.252001
  0
VERTEX
  8
0
 10
223.250000
 20
251.177186
 42
-0.295224
  0
VERTEX
  8
0
 10
223.047700
 20
251.418737
 42
-0.030774
  0
VERTEX
  8
0
 10
223.000000
 20
252.193011
 42
0.153481
  0
VERTEX
  8
0
 10
222.525459
 20
253.702524
 42
0.231269
  0
VERTEX
  8
0
 10
221.341944
 20
254.360003
 42
0.170001
  0
VERTEX
  8
0
 10
219.772518
 20
253.901479
 42
0.092696
  0
VERTEX
  8
0
 10
218.366530
 20
252.436644
 42
0.043982
  0
VERTEX
  8
0
 10
217.327903
 20
250.499375
 42
0.240005
  0
VERTEX
  8
0
 10
217.404955
 20
249.348918
 42
0.458075
  0
VERTEX
  8
0
 10
218.170384
 20
249.214590
 42
0.059506
  0
VERTEX
  8
0
 10
219.478529
 20
250.573001
 42
-0.004864
  0
VERTEX
  8
0
 10
220.469023
 20
251.856095
 42
-0.242632
  0
VERTEX
  8
0
 10
220.751284
 20
251.984726
 42
-0.383358
  0
VERTEX
  8
0
 10
220.930151
 20
251.807560
 42
-0.008616
  0
VERTEX
  8
0
 10
220.983509
 20
250.500000
 42
0.037721
  0
VERTEX
  8
0
 10
221.070382
 20
249.625004
 42
0.025573
  0
VERTEX
  8
0
 10
221.294438
 20
248.648306
 42
0.025822
  0
VERTEX
  8
0
 10
221.609988
 20
247.721831
 42
0.045995
  0
VERTEX
  8
0
 10
221.975828
 20
247.004871
 42
0.047030
  0
VERTEX
  8
0
 10
222.543532
 20
246.269971
 42
0.256282
  0
VERTEX
  8
0
 10
223.004464
 20
246.118603
 42
0.170092
  0
VERTEX
  8
0
 10
223.513940
 20
246.411274
 42
0.020263
  0
VERTEX
  8
0
 10
224.336353
 20
247.445313
 42
-0.029662
  0
VERTEX
  8
0
 10
225.244546
 20
248.544183
 42
-0.311911
  0
VERTEX
  8
0
 10
225.784533
 20
248.662734
 42
-0.168578
  0
VERTEX
  8
0
 10
226.319834
 20
248.190773
 42
-0.009233
  0
VERTEX
  8
0
 10
227.401519
 20
246.190442
 42
0.026905
  0
VERTEX
  8
0
 10
228.118931
 20
244.968947
 42
0.034739
  0
VERTEX
  8
0
 10
228.910290
 20
243.937192
 42
0.037240
  0
VERTEX
  8
0
 10
229.663666
 20
243.202848
 42
0.176334
  0
VERTEX
  8
0
 10
230.220961
 20
243.000000
 42
-0.127545
  0
VERTEX
  8
0
 10
230.844125
 20
242.838409
 42
-0.022341
  0
VERTEX
  8
0
 10
231.884781
 20
242.197347
 42
-0.022966
  0
VERTEX
  8
0
 10
233.064920
 20
241.313698
 42
-0.018839
  0
VERTEX
  8
0
 10
234.242611
 20
240.267564
 42
0.014037
  0
VERTEX
  8
0
 10
235.830609
 20
238.829445
 42
0.097611
  0
VERTEX
  8
0
 10
236.739358
 20
238.317264
 42
0.223529
  0
VERTEX
  8
0
 10
237.411887
 20
238.399175
 42
0.111947
  0
VERTEX
  8
0
 10
238.032017
 20
239.017564
 42
0.134715
  0
VERTEX
  8
0
 10
238.906268
 20
241.884147
 42
0.011736
  0
VERTEX
  8
0
 10
238.942643
 20
249.572463
 42
0.016400
  0
VERTEX
  8
0
 10
238.537060
 20
257.435570
 42
0.042393
  0
VERTEX
  8
0
 10
237.581987
 20
263.030725
 42
-0.005495
  0
VERTEX
  8
0
 10
237.058079
 20
265.145813
 42
-0.008685
  0
VERTEX
  8
0
 10
236.660452
 20
266.971435
 42
-0.003441
  0
VERTEX
  8
0
 10
236.360909
 20
268.527257
 42
-0.247028
  0
VERTEX
  8
0
 10
236.436099
 20
268.769432
 42
-0.530095
  0
VERTEX
  8
0
 10
236.968951
 20
268.667249
 42
-0.002685
  0
VERTEX
  8
0
 10
239.462514
 20
262.787364
 42
-0.009160
  0
VERTEX
  8
0
 10
241.714873
 20
257.105406
 42
-0.025209
  0
VERTEX
  8
0
 10
243.023959
 20
253.000000
 42
-0.015871
  0
VERTEX
  8
0
 10
243.525688
 20
250.823167
 42
-0.007131
  0
VERTEX
  8
0
 10
244.052590
 20
247.936293
 42
-0.007051
  0
VERTEX
  8
0
 10
244.523161
 20
244.867725
 42
-0.009532
  0
VERTEX
  8
0
 10
244.856359
 20
242.080998
 42
0.021854
  0
VERTEX
  8
0
 10
245.495121
 20
237.664599
 42
0.133628
  0
VERTEX
  8
0
 10
246.494263
 20
235.612068
 42
0.465441
  0
VERTEX
  8
0
 10
247.609368
 20
235.633419
 42
0.089906
  0
VERTEX
  8
0
 10
248.721028
 20
237.663085
 42
-0.136939
  0
VERTEX
  8
0
 10
249.512215
 20
238.834745
 42
-0.364486
  0
VERTEX
  8
0
 10
250.448965
 20
238.840022
 42
-0.055326
  0
VERTEX
  8
0
 10
252.023156
 20
237.206319
 42
-0.002469
  0
VERTEX
  8
0
 10
256.782804
 20
230.963085
 42
0.012015
  0
VERTEX
  8
0
 10
259.989763
 20
226.919020
 42
0.008840
  0
VERTEX
  8
0
 10
263.727288
 20
222.589693
 42
0.008943
  0
VERTEX
  8
0
 10
267.410256
 20
218.618272
 42
0.019636
  0
VERTEX
  8
0
 10
270.396168
 20
215.746509
 42
-0.016463
  0
VERTEX
  8
0
 10
274.642534
 20
211.714018
 42
-0.016707
  0
VERTEX
  8
0
 10
278.592834
 20
207.429999
 42
-0.035482
  0
VERTEX
  8
0
 10
280.578343
 20
204.766300
 42
-0.797960
  0
VERTEX
  8
0
 10
280.196667
 20
204.378453
 42
0.108264
  0
VERTEX
  8
0
 10
279.689769
 20
204.556557
 42
0.232780
  0
VERTEX
  8
0
 10
279.308490
 20
204.423734
 42
0.151436
  0
VERTEX
  8
0
 10
279.071030
 20
203.964906
 42
0.044276
  0
VERTEX
  8
0
 10
279.000000
 20
203.164352
 42
-0.068938
  0
VERTEX
  8
0
 10
278.510324
 20
199.629658
 42
-0.016869
  0
VERTEX
  8
0
 10
276.718764
 20
194.018437
 42
-0.017524
  0
VERTEX
  8
0
 10
274.522673
 20
188.485322
 42
-0.055747
  0
VERTEX
  8
0
 10
272.534104
 20
185.046226
 42
0.035314
  0
VERTEX
  8
0
 10
270.701068
 20
182.154922
 42
0.107729
  0
VERTEX
  8
0
 10
270.062866
 20
179.933861
 42
0.226604
  0
VERTEX
  8
0
 10
270.607266
 20
178.572874
 42
0.188332
  0
VERTEX
  8
0
 10
272.074237
 20
178.000000
 42
0.172932
  0
VERTEX
  8
0
 10
274.480540
 20
178.857908
 42
0.012984
  0
VERTEX
  8
0
 10
279.823221
 20
183.458628
 42
0.015394
  0
VERTEX
  8
0
 10
284.856477
 20
188.316496
 42
0.116779
  0
VERTEX
  8
0
 10
286.540031
 20
191.126126
 42
-0.036031
  0
VERTEX
  8
0
 10
286.825986
 20
191.843391
 42
-0.046530
  0
VERTEX
  8
0
 10
287.192959
 20
192.449550
 42
-0.054183
  0
VERTEX
  8
0
 10
287.581585
 20
192.870374
 42
-0.181168
  0
VERTEX
  8
0
 10
287.927593
 20
193.000000
 42
-0.279270
  0
VERTEX
  8
0
 10
289.301290
 20
192.167832
 42
-0.004300
  0
VERTEX
  8
0
 10
293.693765
 20
183.581756
 42
-0.006129
  0
VERTEX
  8
0
 10
297.798730
 20
175.127300
 42
-0.153072
  0
VERTEX
  8
0
 10
298.144873
 20
172.597221
 42
-0.042130
  0
VERTEX
  8
0
 10
297.865077
 20
171.510656
 42
-0.009396
  0
VERTEX
  8
0
 10
297.198364
 20
169.712333
 42
-0.009691
  0
VERTEX
  8
0
 10
296.346343
 20
167.658306
 42
-0.009224
  0
VERTEX
  8
0
 10
295.401840
 20
165.604467
 42
0.005924
  0
VERTEX
  8
0
 10
294.481791
 20
163.638102
 42
0.008166
  0
VERTEX
  8
0
 10
293.705540
 20
161.849434
 42
0.005529
  0
VERTEX
  8
0
 10
293.098831
 20
160.339492
 42
0.093019
  0
VERTEX
  8
0
 10
293.000000
 20
159.812847
 42
0.376722
  0
VERTEX
  8
0
 10
293.654408
 20
159.067557
 42
0.069661
  0
VERTEX
  8
0
 10
295.638295
 20
159.086246
 42
0.052481
  0
VERTEX
  8
0
 10
298.225836
 20
159.756289
 42
0.047358
  0
VERTEX
  8
0
 10
300.713708
 20
160.966969
 42
-0.024669
  0
VERTEX
  8
0
 10
301.982690
 20
161.657278
 42
-0.039136
  0
VERTEX
  8
0
 10
303.135231
 20
162.105175
 42
-0.046303
  0
VERTEX
  8
0
 10
304.039123
 20
162.288293
 42
-0.288791
  0
VERTEX
  8
0
 10
304.444325
 20
162.090084
 42
-0.069828
  0
VERTEX
  8
0
 10
306.885184
 20
156.537220
 42
-0.008008
  0
VERTEX
  8
0
 10
310.387819
 20
143.301250
 42
-0.003233
  0
VERTEX
  8
0
 10
313.794602
 20
129.148372
 42
-0.483224
  0
VERTEX
  8
0
 10
312.883825
 20
128.000000
 42
-0.294558
  0
VERTEX
  8
0
 10
312.541772
 20
128.220654
 42
-0.044434
  0
VERTEX
  8
0
 10
312.259623
 20
129.028125
 42
-0.038021
  0
VERTEX
  8
0
 10
312.063989
 20
130.158688
 42
-0.023839
  0
VERTEX
  8
0
 10
312.000000
 20
131.500000
 42
0.040138
  0
VERTEX
  8
0
 10
311.827778
 20
133.641934
 42
0.159880
  0
VERTEX
  8
0
 10
311.229952
 20
134.797179
 42
0.345173
  0
VERTEX
  8
0
 10
310.401053
 20
134.889937
 42
0.116505
  0
VERTEX
  8
0
 10
309.482430
 20
133.971571
 42
-0.119207
  0
VERTEX
  8
0
 10
308.902972
 20
133.398419
 42
-0.005027
  0
VERTEX
  8
0
 10
306.393161
 20
131.919168
 42
-0.008414
  0
VERTEX
  8
0
 10
303.348245
 20
130.233119
 42
-0.005861
  0
VERTEX
  8
0
 10
299.858318
 20
128.428843
 42
0.008179
  0
VERTEX
  8
0
 10
295.518138
 20
126.159429
 42
0.031174
  0
VERTEX
  8
0
 10
292.931133
 20
124.535803
 42
0.052083
  0
VERTEX
  8
0
 10
291.491707
 20
123.255719
 42
0.236265
  0
VERTEX
  8
0
 10
291.194948
 20
122.207271
 42
0.166187
  0
VERTEX
  8
0
 10
291.678272
 20
121.358319
 42
0.105292
  0
VERTEX
  8
0
 10
292.679399
 20
120.792972
 42
0.052832
  0
VERTEX
  8
0
 10
294.442183
 20
120.438040
 42
0.011783
  0
VERTEX
  8
0
 10
297.510043
 20
120.224293
 42
0.033371
  0
VERTEX
  8
0
 10
303.257785
 20
120.343411
 42
0.053150
  0
VERTEX
  8
0
 10
308.078085
 20
121.288654
 42
0.068541
  0
VERTEX
  8
0
 10
311.521446
 20
122.895893
 42
0.188088
  0
VERTEX
  8
0
 10
313.064739
 20
125.033190
 42
-0.016970
  0
VERTEX
  8
0
 10
313.464238
 20
126.384281
 42
-0.565124
  0
VERTEX
  8
0
 10
313.734404
 20
126.444867
 42
-0.136690
  0
VERTEX
  8
0
 10
314.007179
 20
125.934629
 42
-0.003921
  0
VERTEX
  8
0
 10
314.529690
 20
123.500000
 42
-0.029822
  0
VERTEX
  8
0
 10
315.093852
 20
119.607741
 42
-0.014880
  0
VERTEX
  8
0
 10
315.365423
 20
114.634941
 42
-0.012966
  0
VERTEX
  8
0
 10
315.358778
 20
108.768803
 42
-0.008820
  0
VERTEX
  8
0
 10
315.060477
 20
102.100218
 42
-0.003170
  0
VERTEX
  8
0
 10
314.766401
 20
97.825142
 42
-0.100923
  0
VERTEX
  8
0
 10
314.481588
 20
96.820254
 42
-0.493540
  0
VERTEX
  8
0
 10
313.980377
 20
96.730852
 42
-0.037447
  0
VERTEX
  8
0
 10
312.884799
 20
97.893940
 42
0.045343
  0
VERTEX
  8
0
 10
311.664404
 20
99.149286
 42
0.156051
  0
VERTEX
  8
0
 10
310.630708
 20
99.585456
 42
0.085240
  0
VERTEX
  8
0
 10
309.188395
 20
99.469260
 42
0.008114
  0
VERTEX
  8
0
 10
305.765386
 20
98.534126
 42
-0.013217
  0
VERTEX
  8
0
 10
303.290842
 20
97.885169
 42
-0.007353
  0
VERTEX
  8
0
 10
300.244545
 20
97.218849
 42
-0.007329
  0
VERTEX
  8
0
 10
297.139701
 20
96.634668
 42
-0.011763
  0
VERTEX
  8
0
 10
294.474283
 20
96.237840
 42
0.013780
  0
VERTEX
  8
0
 10
291.590408
 20
95.796590
 42
0.047668
  0
VERTEX
  8
0
 10
289.774099
 20
95.284804
 42
0.082947
  0
VERTEX
  8
0
 10
288.691744
 20
94.642712
 42
0.171553
  0
VERTEX
  8
0
 10
288.201016
 20
93.805273
 42
0.261035
  0
VERTEX
  8
0
 10
288.779826
 20
92.061119
 42
0.084815
  0
VERTEX
  8
0
 10
291.148910
 20
90.541019
 42
0.052864
  0
VERTEX
  8
0
 10
295.139614
 20
89.325666
 42
0.022833
  0
VERTEX
  8
0
 10
300.645679
 20
88.525383
 42
0.023919
  0
VERTEX
  8
0
 10
305.851797
 20
88.260428
 42
0.075850
  0
VERTEX
  8
0
 10
309.291829
 20
88.774670
 42
0.138968
  0
VERTEX
  8
0
 10
311.253852
 20
90.048844
 42
0.181624
  0
VERTEX
  8
0
 10
312.000000
 20
92.035184
 42
-0.048922
  0
VERTEX
  8
0
 10
312.073747
 20
92.787094
 42
-0.068922
  0
VERTEX
  8
0
 10
312.293750
 20
93.422835
 42
-0.089104
  0
VERTEX
  8
0
 10
312.618175
 20
93.850907
 42
-0.188314
  0
VERTEX
  8
0
 10
313.000000
 20
94.000000
 42
-0.243944
  0
VERTEX
  8
0
 10
313.383693
 20
93.800956
 42
-0.067583
  0
VERTEX
  8
0
 10
313.706250
 20
93.179488
 42
-0.051982
  0
VERTEX
  8
0
 10
313.927108
 20
92.276669
 42
-0.034025
  0
VERTEX
  8
0
 10
314.000000
 20
91.206768
 42
-0.062847
  0
VERTEX
  8
0
 10
313.471880
 20
87.021759
 42
-0.010204
  0
VERTEX
  8
0
 10
311.270316
 20
79.112104
 42
-0.011861
  0
VERTEX
  8
0
 10
308.657829
 20
71.110850
 42
-0.032438
  0
VERTEX
  8
0
 10
306.319329
 20
65.643463
 42
-0.044424
  0
VERTEX
  8
0
 10
303.711425
 20
61.463508
 42
-0.016020
  0
VERTEX
  8
0
 10
299.309582
 20
56.004961
 42
-0.009081
  0
VERTEX
  8
0
 10
294.647384
 20
50.783103
 42
-0.208912
  0
VERTEX
  8
0
 10
292.854943
 20
50.000000
 42
-0.261899
  0
VERTEX
  8
0
 10
292.526080
 20
50.184943
 42
-0.059572
  0
VERTEX
  8
0
 10
292.251139
 20
50.788880
 42
-0.046920
  0
VERTEX
  8
0
 10
292.062148
 20
51.656679
 42
-0.030175
  0
VERTEX
  8
0
 10
292.000000
 20
52.685549
 42
0.110684
  0
VERTEX
  8
0
 10
291.442288
 20
55.174070
 42
0.074569
  0
VERTEX
  8
0
 10
289.816886
 20
57.602682
 42
0.076501
  0
VERTEX
  8
0
 10
287.605340
 20
59.388972
 42
0.132447
  0
VERTEX
  8
0
 10
285.339106
 20
60.000000
 42
-0.089322
  0
VERTEX
  8
0
 10
284.160937
 20
60.212166
 42
-0.102660
  0
VERTEX
  8
0
 10
283.194666
 20
60.819242
 42
-0.074788
  0
VERTEX
  8
0
 10
282.338851
 20
61.931216
 42
-0.027726
  0
VERTEX
  8
0
 10
281.475282
 20
63.713402
 42
0.016992
  0
VERTEX
  8
0
 10
280.764593
 20
65.264004
 42
0.014401
  0
VERTEX
  8
0
 10
279.912195
 20
66.852351
 42
0.014641
  0
VERTEX
  8
0
 10
279.050982
 20
68.255066
 42
0.038935
  0
VERTEX
  8
0
 10
278.332919
 20
69.184623
 42
-0.063308
  0
VERTEX
  8
0
 10
277.555934
 20
70.298412
 42
-0.104126
  0
VERTEX
  8
0
 10
277.245010
 20
71.399705
 42
-0.068760
  0
VERTEX
  8
0
 10
277.345411
 20
72.839028
 42
-0.015631
  0
VERTEX
  8
0
 10
277.923850
 20
75.221221
 42
0.005088
  0
VERTEX
  8
0
 10
282.326720
 20
91.819362
 42
0.012925
  0
VERTEX
  8
0
 10
285.087280
 20
103.977690
 42
0.017071
  0
VERTEX
  8
0
 10
286.733538
 20
113.970455
 42
0.020242
  0
VERTEX
  8
0
 10
287.580668
 20
123.500000
 42
-0.007944
  0
VERTEX
  8
0
 10
287.923199
 20
128.838714
 42
-0.008097
  0
VERTEX
  8
0
 10
288.433542
 20
134.129878
 42
-0.007916
  0
VERTEX
  8
0
 10
289.023933
 20
138.710518
 42
-0.032984
  0
VERTEX
  8
0
 10
289.603773
 20
141.431501
 42
0.021857
  0
VERTEX
  8
0
 10
290.534930
 20
145.369392
 42
0.034750
  0
VERTEX
  8
0
 10
290.945926
 20
148.806347
 42
0.040058
  0
VERTEX
  8
0
 10
290.868649
 20
151.336878
 42
0.382178
  0
VERTEX
  8
0
 10
290.127808
 20
152.000000
 42
0.281666
  0
VERTEX
  8
0
 10
289.747637
 20
151.767382
 42
0.028275
  0
VERTEX
  8
0
 10
289.298805
 20
150.751563
 42
0.028912
  0
VERTEX
  8
0
 10
288.871539
 20
149.378631
 42
0.018727
  0
VERTEX
  8
0
 10
288.530450
 20
147.750000
 42
-0.013792
  0
VERTEX
  8
0
 10
288.025280
 20
145.213425
 42
-0.688804
  0
VERTEX
  8
0
 10
287.663153
 20
145.162288
 42
-0.073754
  0
VERTEX
  8
0
 10
287.245788
 20
146.279585
 42
-0.001380
  0
VERTEX
  8
0
 10
285.954706
 20
152.412221
 42
0.012170
  0
VERTEX
  8
0
 10
285.132506
 20
155.938432
 42
0.015243
  0
VERTEX
  8
0
 10
284.191817
 20
159.162397
 42
0.013458
  0
VERTEX
  8
0
 10
283.257950
 20
161.791549
 42
0.104677
  0
VERTEX
  8
0
 10
282.552064
 20
162.876507
 42
0.011227
  0
VERTEX
  8
0
 10
281.609524
 20
163.777643
 42
0.242117
  0
VERTEX
  8
0
 10
281.250000
 20
163.875367
 42
0.334113
  0
VERTEX
  8
0
 10
281.038747
 20
163.632650
 42
0.017826
  0
VERTEX
  8
0
 10
281.000000
 20
162.546199
 42
0.028383
  0
VERTEX
  8
0
 10
281.061800
 20
161.458409
 42
0.004822
  0
VERTEX
  8
0
 10
281.317056
 20
159.396100
 42
0.005251
  0
VERTEX
  8
0
 10
281.666120
 20
156.976764
 42
0.004655
  0
VERTEX
  8
0
 10
282.079341
 20
154.465792
 42
-0.010979
  0
VERTEX
  8
0
 10
282.468313
 20
151.900029
 42
-0.010934
  0
VERTEX
  8
0
 10
282.744882
 20
149.316138
 42
-0.010833
  0
VERTEX
  8
0
 10
282.888070
 20
147.049820
 42
-0.041537
  0
VERTEX
  8
0
 10
282.829341
 20
145.638679
 42
-0.021062
  0
VERTEX
  8
0
 10
282.553632
 20
144.000480
 42
-0.270227
  0
VERTEX
  8
0
 10
282.151961
 20
143.557651
 42
-0.189344
  0
VERTEX
  8
0
 10
281.466207
 20
143.604360
 42
-0.010384
  0
VERTEX
  8
0
 10
279.500000
 20
144.585954
 42
0.106342
  0
VERTEX
  8
0
 10
275.750239
 20
145.631455
 42
0.041769
  0
VERTEX
  8
0
 10
270.357574
 20
145.504895
 42
0.034822
  0
VERTEX
  8
0
 10
263.771188
 20
144.329705
 42
0.021794
  0
VERTEX
  8
0
 10
256.263337
 20
142.091185
 42
0.000000
  0
VERTEX
  8
0
 10
248.231217
 20
139.309917
 42
0.000000
  0
VERTEX
  8
0
 10
247.546885
 20
147.154959
 42
0.011051
  0
VERTEX
  8
0
 10
247.217418
 20
150.162475
 42
0.017974
  0
VERTEX
  8
0
 10
246.790013
 20
152.695519
 42
0.012230
  0
VERTEX
  8
0
 10
246.327479
 20
154.692893
 42
0.342183
  0
VERTEX
  8
0
 10
245.931276
 20
155.000000
 42
0.333820
  0
VERTEX
  8
0
 10
245.352495
 20
154.565121
 42
0.033539
  0
VERTEX
  8
0
 10
244.960439
 20
152.769690
 42
0.035262
  0
VERTEX
  8
0
 10
244.786222
 20
150.524543
 42
0.034033
  0
VERTEX
  8
0
 10
244.925354
 20
148.250000
 42
-0.082595
  0
VERTEX
  8
0
 10
244.908313
 20
147.772633
 42
-0.103799
  0
VERTEX
  8
0
 10
244.733365
 20
147.367188
 42
-0.116034
  0
VERTEX
  8
0
 10
244.428977
 20
147.097217
 42
-0.124261
  0
VERTEX
  8
0
 10
244.043837
 20
147.000000
 42
-0.136906
  0
VERTEX
  8
0
 10
243.645781
 20
147.111074
 42
-0.100245
  0
VERTEX
  8
0
 10
243.306627
 20
147.423289
 42
-0.086307
  0
VERTEX
  8
0
 10
243.078317
 20
147.890283
 42
-0.070751
  0
VERTEX
  8
0
 10
243.000000
 20
148.440983
 42
0.120074
  0
VERTEX
  8
0
 10
242.740701
 20
149.505157
 42
0.091957
  0
VERTEX
  8
0
 10
242.002676
 20
150.453335
 42
0.116546
  0
VERTEX
  8
0
 10
241.115421
 20
150.931094
 42
0.267977
  0
VERTEX
  8
0
 10
240.408337
 20
150.741671
 42
0.269351
  0
VERTEX
  8
0
 10
240.310076
 20
150.371079
 42
0.010765
  0
VERTEX
  8
0
 10
240.722744
 20
148.980896
 42
0.016407
  0
VERTEX
  8
0
 10
241.323025
 20
147.299442
 42
0.010582
  0
VERTEX
  8
0
 10
242.122651
 20
145.391535
 42
-0.048812
  0
VERTEX
  8
0
 10
244.080802
 20
139.492312
 42
-0.029069
  0
VERTEX
  8
0
 10
245.296062
 20
132.186047
 42
-0.015600
  0
VERTEX
  8
0
 10
246.136434
 20
121.076842
 42
-0.002859
  0
VERTEX
  8
0
 10
246.930841
 20
100.500000
 42
0.004001
  0
VERTEX
  8
0
 10
247.890467
 20
77.033837
 42
0.023782
  0
VERTEX
  8
0
 10
249.071385
 20
64.825008
 42
0.043308
  0
VERTEX
  8
0
 10
251.067007
 20
56.322700
 42
0.040287
  0
VERTEX
  8
0
 10
254.531898
 20
48.073121
 42
-0.007385
  0
VERTEX
  8
0
 10
256.172620
 20
44.789608
 42
-0.011438
  0
VERTEX
  8
0
 10
257.481515
 20
41.903314
 42
-0.005867
  0
VERTEX
  8
0
 10
258.488761
 20
39.460850
 42
-0.237569
  0
VERTEX
  8
0
 10
258.440059
 20
38.903014
 42
-0.197422
  0
VERTEX
  8
0
 10
257.399246
 20
38.148292
 42
-0.002391
  0
VERTEX
  8
0
 10
249.124513
 20
36.186545
 42
-0.007349
  0
VERTEX
  8
0
 10
240.135804
 20
34.239628
 42
-0.007123
  0
VERTEX
  8
0
 10
231.000000
 20
32.536025
 42
0.013565
  0
VERTEX
  8
0
 10
227.235763
 20
31.783786
 42
0.008886
  0
VERTEX
  8
0
 10
222.940625
 20
30.722949
 42
0.008941
  0
VERTEX
  8
0
 10
218.790362
 20
29.539434
 42
0.016926
  0
VERTEX
  8
0
 10
215.500000
 20
28.414157
 42
-0.004854
  0
VERTEX
  8
0
 10
204.572170
 20
24.379750
 42
-0.007043
  0
VERTEX
  8
0
 10
194.843878
 20
21.048981
 42
-0.005244
  0
VERTEX
  8
0
 10
186.786865
 20
18.509825
 42
-0.070534
  0
VERTEX
  8
0
 10
183.735976
 20
18.036320
 42
-0.097273
  0
VERTEX
  8
0
 10
181.333451
 20
18.475481
 42
-0.028188
  0
VERTEX
  8
0
 10
177.893723
 20
20.057556
 42
-0.022585
  0
VERTEX
  8
0
 10
174.706938
 20
21.935955
 42
-0.248723
  0
VERTEX
  8
0
 10
174.012379
 20
23.190983
 42
-0.115736
  0
VERTEX
  8
0
 10
174.079110
 20
23.500224
 42
-0.050889
  0
VERTEX
  8
0
 10
174.297386
 20
23.860537
 42
-0.046626
  0
VERTEX
  8
0
 10
174.618361
 20
24.212385
 42
-0.046156
  0
VERTEX
  8
0
 10
175.000000
 20
24.500000
 42
-0.160037
  0
VERTEX
  8
0
 10
175.378998
 20
24.591219
 42
-0.191086
  0
VERTEX
  8
0
 10
175.706250
 20
24.429567
 42
-0.125741
  0
VERTEX
  8
0
 10
175.927530
 20
24.008849
 42
-0.058574
  0
VERTEX
  8
0
 10
176.000000
 20
23.392350
 42
0.034205
  0
VERTEX
  8
0
 10
176.042555
 20
22.771018
 42
0.093587
  0
VERTEX
  8
0
 10
176.181845
 20
22.355431
 42
0.227546
  0
VERTEX
  8
0
 10
176.386608
 20
22.211312
 42
0.242392
  0
VERTEX
  8
0
 10
176.619048
 20
22.285714
 42
-0.216372
  0
VERTEX
  8
0
 10
176.963399
 20
22.415024
 42
-0.079048
  0
VERTEX
  8
0
 10
177.482887
 20
22.296280
 42
-0.060112
  0
VERTEX
  8
0
 10
178.089031
 20
21.963120
 42
-0.040711
  0
VERTEX
  8
0
 10
178.690476
 20
21.452381
 42
0.311123
  0
VERTEX
  8
0
 10
182.157070
 20
20.813908
 42
0.192147
  0
VERTEX
  8
0
 10
185.160296
 20
23.911029
 42
0.090132
  0
VERTEX
  8
0
 10
186.646373
 20
30.864017
 42
0.058952
  0
VERTEX
  8
0
 10
185.932288
 20
39.052896
 42
0.023708
  0
VERTEX
  8
0
 10
184.688871
 20
43.879077
 42
0.073552
  0
VERTEX
  8
0
 10
183.241136
 20
46.903853
 42
0.127918
  0
VERTEX
  8
0
 10
181.498811
 20
48.441575
 42
0.165879
  0
VERTEX
  8
0
 10
179.402887
 20
48.736685
 42
-0.013674
  0
VERTEX
  8
0
 10
178.140520
 20
48.530973
 42
-0.182750
  0
VERTEX
  8
0
 10
177.690549
 20
48.635059
 42
-0.398002
  0
VERTEX
  8
0
 10
177.620787
 20
48.940706
 42
-0.039911
  0
VERTEX
  8
0
 10
178.092707
 20
49.611705
 42
0.135958
  0
VERTEX
  8
0
 10
178.494445
 20
50.505384
 42
0.084739
  0
VERTEX
  8
0
 10
178.474946
 20
51.661201
 42
0.051025
  0
VERTEX
  8
0
 10
178.005604
 20
53.246111
 42
0.015245
  0
VERTEX
  8
0
 10
176.975511
 20
55.550588
 42
-0.053451
  0
VERTEX
  8
0
 10
175.648645
 20
59.253936
 42
-0.121969
  0
VERTEX
  8
0
 10
175.664861
 20
62.202539
 42
-0.158777
  0
VERTEX
  8
0
 10
176.999000
 20
64.315645
 42
-0.112168
  0
VERTEX
  8
0
 10
179.521354
 20
65.594716
 42
-0.203103
  0
VERTEX
  8
0
 10
182.932274
 20
65.062271
 42
-0.115250
  0
VERTEX
  8
0
 10
185.937563
 20
62.058823
 42
-0.059748
  0
VERTEX
  8
0
 10
188.745239
 20
56.046086
 42
-0.016764
  0
VERTEX
  8
0
 10
191.654551
 20
46.078347
 42
0.028635
  0
VERTEX
  8
0
 10
192.080417
 20
44.738337
 42
0.034587
  0
VERTEX
  8
0
 10
192.635571
 20
43.540874
 42
0.037045
  0
VERTEX
  8
0
 10
193.231029
 20
42.626665
 42
0.150541
  0
VERTEX
  8
0
 10
193.764958
 20
42.245014
 42
0.439406
  0
VERTEX
  8
0
 10
194.672925
 20
42.748453
 42
0.056701
  0
VERTEX
  8
0
 10
194.979750
 20
45.225672
 42
0.035994
  0
VERTEX
  8
0
 10
194.737088
 20
49.134184
 42
0.016059
  0
VERTEX
  8
0
 10
193.884147
 20
54.222679
 42
0.000000
  0
VERTEX
  8
0
 10
192.768294
 20
59.778921
 42
0.000000
  0
VERTEX
  8
0
 10
197.004292
 20
65.389461
 42
-0.005429
  0
VERTEX
  8
0
 10
198.664868
 20
67.539923
 42
-0.008465
  0
VERTEX
  8
0
 10
200.146226
 20
69.351904
 42
-0.003516
  0
VERTEX
  8
0
 10
201.438309
 20
70.857269
 42
-0.216925
  0
VERTEX
  8
0
 10
201.751814
 20
71.000000
 42
-0.394856
  0
VERTEX
  8
0
 10
201.931201
 20
70.832170
 42
-0.016614
  0
VERTEX
  8
0
 10
201.962919
 20
69.880481
 42
-0.020968
  0
VERTEX
  8
0
 10
201.911419
 20
68.650263
 42
-0.012392
  0
VERTEX
  8
0
 10
201.752159
 20
67.188872
 42
0.029192
  0
VERTEX
  8
0
 10
201.572394
 20
64.795392
 42
0.162381
  0
VERTEX
  8
0
 10
201.954470
 20
63.583274
 42
0.116840
  0
VERTEX
  8
0
 10
203.052471
 20
62.637861
 42
0.012032
  0
VERTEX
  8
0
 10
206.146948
 20
61.127087
 42
-0.030011
  0
VERTEX
  8
0
 10
208.463024
 20
59.891369
 42
-0.036745
  0
VERTEX
  8
0
 10
210.454316
 20
58.458982
 42
-0.038460
  0
VERTEX
  8
0
 10
212.138904
 20
56.812635
 42
-0.039245
  0
VERTEX
  8
0
 10
213.539003
 20
54.938215
 42
0.026132
  0
VERTEX
  8
0
 10
216.109501
 20
51.301978
 42
0.333305
  0
VERTEX
  8
0
 10
217.628492
 20
50.898310
 42
0.328238
  0
VERTEX
  8
0
 10
218.460759
 20
52.247360
 42
0.025793
  0
VERTEX
  8
0
 10
217.866482
 20
56.685291
 42
0.065166
  0
VERTEX
  8
0
 10
216.205554
 20
61.785306
 42
0.080523
  0
VERTEX
  8
0
 10
213.363770
 20
65.888875
 42
0.075643
  0
VERTEX
  8
0
 10
209.214711
 20
69.065412
 42
0.049948
  0
VERTEX
  8
0
 10
203.678967
 20
71.422871
 42
-0.055682
  0
VERTEX
  8
0
 10
202.697285
 20
71.854258
 42
-0.293306
  0
VERTEX
  8
0
 10
202.440651
 20
72.353400
 42
-0.122815
  0
VERTEX
  8
0
 10
202.713750
 20
73.125171
 42
-0.008565
  0
VERTEX
  8
0
 10
204.025846
 20
75.036298
 42
-0.024313
  0
VERTEX
  8
0
 10
205.039455
 20
76.322570
 42
-0.017099
  0
VERTEX
  8
0
 10
206.295868
 20
77.670680
 42
-0.017303
  0
VERTEX
  8
0
 10
207.590091
 20
78.880714
 42
-0.034301
  0
VERTEX
  8
0
 10
208.709277
 20
79.729081
 42
-0.038993
  0
VERTEX
  8
0
 10
210.313366
 20
80.609762
 42
-0.130333
  0
VERTEX
  8
0
 10
211.487510
 20
80.805200
 42
-0.086848
  0
VERTEX
  8
0
 10
212.863750
 20
80.427975
 42
-0.011740
  0
VERTEX
  8
0
 10
215.551096
 20
79.082215
 42
-0.039482
  0
VERTEX
  8
0
 10
217.661359
 20
77.739495
 42
-0.012789
  0
VERTEX
  8
0
 10
220.561502
 20
75.436320
 42
-0.012662
  0
VERTEX
  8
0
 10
223.667174
 20
72.701046
 42
-0.013901
  0
VERTEX
  8
0
 10
226.532567
 20
69.893559
 42
0.006350
  0
VERTEX
  8
0
 10
229.148598
 20
67.251800
 42
0.009589
  0
VERTEX
  8
0
 10
231.498957
 20
65.024983
 42
0.004899
  0
VERTEX
  8
0
 10
233.524779
 20
63.214090
 42
0.181876
  0
VERTEX
  8
0
 10
234.093868
 20
63.000000
 42
0.368060
  0
VERTEX
  8
0
 10
234.833636
 20
63.629889
 42
0.056083
  0
VERTEX
  8
0
 10
234.934296
 20
65.722897
 42
0.038490
  0
VERTEX
  8
0
 10
234.492636
 20
68.835944
 42
0.017701
  0
VERTEX
  8
0
 10
233.465647
 20
72.803724
 42
0.059270
  0
VERTEX
  8
0
 10
231.466253
 20
77.441005
 42
0.064063
  0
VERTEX
  8
0
 10
228.475907
 20
81.346766
 42
0.070339
  0
VERTEX
  8
0
 10
224.893337
 20
84.064444
 42
0.105323
  0
VERTEX
  8
0
 10
221.152788
 20
85.216009
 42
0.000000
  0
VERTEX
  8
0
 10
217.500000
 20
85.541158
 42
0.000000
  0
VERTEX
  8
0
 10
222.931501
 20
87.270579
 42
-0.026143
  0
VERTEX
  8
0
 10
225.466445
 20
87.934033
 42
-0.014394
  0
VERTEX
  8
0
 10
228.623558
 20
88.491983
 42
-0.014317
  0
VERTEX
  8
0
 10
231.866911
 20
88.874850
 42
-0.022221
  0
VERTEX
  8
0
 10
234.681501
 20
89.000000
 42
0.017402
  0
VERTEX
  8
0
 10
238.784435
 20
89.142839
 42
0.132010
  0
VERTEX
  8
0
 10
240.598107
 20
89.768329
 42
0.462942
  0
VERTEX
  8
0
 10
240.701843
 20
90.715708
 42
0.080507
  0
VERTEX
  8
0
 10
239.065741
 20
91.964816
 42
0.132897
  0
VERTEX
  8
0
 10
234.364666
 20
93.051421
 42
0.038512
  0
VERTEX
  8
0
 10
226.902467
 20
92.196410
 42
0.037926
  0
VERTEX
  8
0
 10
218.796362
 20
89.980157
 42
0.046882
  0
VERTEX
  8
0
 10
211.703773
 20
86.672287
 42
0.046300
  0
VERTEX
  8
0
 10
207.540628
 20
83.683651
 42
0.024094
  0
VERTEX
  8
0
 10
202.917769
 20
79.260382
 42
0.022973
  0
VERTEX
  8
0
 10
198.383434
 20
74.020537
 42
0.024583
  0
VERTEX
  8
0
 10
194.456946
 20
68.500150
 42
-0.004984
  0
VERTEX
  8
0
 10
192.071580
 20
64.851846
 42
-0.092626
  0
VERTEX
  8
0
 10
191.113663
 20
63.871355
 42
-0.328654
  0
VERTEX
  8
0
 10
190.325094
 20
63.889298
 42
-0.075635
  0
VERTEX
  8
0
 10
189.348842
 20
64.912346
 42
0.076612
  0
VERTEX
  8
0
 10
187.384647
 20
66.962710
 42
0.057287
  0
VERTEX
  8
0
 10
184.695975
 20
68.572499
 42
0.054727
  0
VERTEX
  8
0
 10
181.574768
 20
69.591928
 42
0.056054
  0
VERTEX
  8
0
 10
178.332162
 20
69.898793
 42
-0.016266
  0
VERTEX
  8
0
 10
176.622285
 20
69.924261
 42
-0.010504
  0
VERTEX
  8
0
 10
174.646293
 20
70.059691
 42
-0.010561
  0
VERTEX
  8
0
 10
172.718147
 20
70.273738
 42
-0.019554
  0
VERTEX
  8
0
 10
171.165857
 20
70.541449
 42
0.038159
  0
VERTEX
  8
0
 10
169.382269
 20
70.781172
 42
0.070483
  0
VERTEX
  8
0
 10
167.927503
 20
70.659548
 42
0.068688
  0
VERTEX
  8
0
 10
166.539096
 20
70.134881
 42
0.034557
  0
VERTEX
  8
0
 10
164.956350
 20
69.125849
 42
-0.029430
  0
VERTEX
  8
0
 10
163.708479
 20
68.312209
 42
-0.026978
  0
VERTEX
  8
0
 10
162.337672
 20
67.624468
 42
-0.027989
  0
VERTEX
  8
0
 10
161.046764
 20
67.145770
 42
-0.074925
  0
VERTEX
  8
0
 10
160.079448
 20
67.000000
 42
0.138915
  0
VERTEX
  8
0
 10
158.191089
 20
66.465034
 42
0.059204
  0
VERTEX
  8
0
 10
156.114341
 20
64.818380
 42
0.056479
  0
VERTEX
  8
0
 10
154.340631
 20
62.576301
 42
0.077793
  0
VERTEX
  8
0
 10
153.339268
 20
60.215613
 42
0.070421
  0
VERTEX
  8
0
 10
152.991415
 20
56.924214
 42
0.060629
  0
VERTEX
  8
0
 10
153.533830
 20
53.484964
 42
0.062134
  0
VERTEX
  8
0
 10
154.860489
 20
50.361433
 42
0.083557
  0
VERTEX
  8
0
 10
156.819326
 20
48.000000
 42
-0.033449
  0
VERTEX
  8
0
 10
158.791105
 20
46.055381
 42
-0.034229
  0
VERTEX
  8
0
 10
160.469555
 20
43.879402
 42
-0.036241
  0
VERTEX
  8
0
 10
161.646820
 20
41.804766
 42
-0.111381
  0
VERTEX
  8
0
 10
162.000000
 20
40.238984
 42
-0.482170
  0
VERTEX
  8
0
 10
160.608920
 20
39.131831
 42
-0.006179
  0
VERTEX
  8
0
 10
148.154815
 20
42.162263
 42
-0.013630
  0
VERTEX
  8
0
 10
136.195154
 20
45.579369
 42
-0.054498
  0
VERTEX
  8
0
 10
129.232570
 20
48.642427
 42
-0.035074
  0
VERTEX
  8
0
 10
127.134483
 20
50.057737
 42
-0.011104
  0
VERTEX
  8
0
 10
124.209934
 20
52.450804
 42
-0.011027
  0
VERTEX
  8
0
 10
121.057976
 20
55.271788
 42
-0.012041
  0
VERTEX
  8
0
 10
118.126795
 20
58.149403
 42
0.007983
  0
VERTEX
  8
0
 10
114.934231
 20
61.334922
 42
0.029754
  0
VERTEX
  8
0
 10
112.780635
 20
63.181652
 42
0.056131
  0
VERTEX
  8
0
 10
111.373236
 20
64.019948
 42
0.431498
  0
VERTEX
  8
0
 10
110.737753
 20
63.758978
 42
0.176914
  0
VERTEX
  8
0
 10
110.703194
 20
61.626413
 42
0.051501
  0
VERTEX
  8
0
 10
112.115657
 20
58.601946
 42
0.042484
  0
VERTEX
  8
0
 10
114.619015
 20
55.130308
 42
0.027286
  0
VERTEX
  8
0
 10
118.057349
 20
51.543126
 42
-0.021882
  0
VERTEX
  8
0
 10
121.421635
 20
48.108245
 42
-0.462222
  0
VERTEX
  8
0
 10
121.252103
 20
46.857134
 42
-0.125807
  0
VERTEX
  8
0
 10
119.172602
 20
46.168309
 42
-0.002836
  0
VERTEX
  8
0
 10
108.622161
 20
45.493222
 42
0.013517
  0
VERTEX
  8
0
 10
100.573279
 20
44.805322
 42
0.014687
  0
VERTEX
  8
0
 10
92.794601
 20
43.695946
 42
0.015744
  0
VERTEX
  8
0
 10
85.789436
 20
42.257533
 42
0.027678
  0
VERTEX
  8
0
 10
80.124273
 20
40.570991
 42
-0.043493
  0
VERTEX
  8
0
 10
76.468894
 20
39.607344
 42
-0.025003
  0
VERTEX
  8
0
 10
71.943285
 20
39.057826
 42
-0.016638
  0
VERTEX
  8
0
 10
67.742966
 20
38.899973
 42
-0.415471
  0
VERTEX
  8
0
 10
67.000000
 20
39.639757
 42
-0.149565
  0
VERTEX
  8
0
 10
67.097638
 20
39.958861
 42
-0.031410
  0
VERTEX
  8
0
 10
67.458146
 20
40.426591
 42
-0.030323
  0
VERTEX
  8
0
 10
67.962571
 20
40.936405
 42
-0.024683
  0
VERTEX
  8
0
 10
68.559646
 20
41.419956
 42
0.241372
  0
VERTEX
  8
0
 10
70.220365
 20
44.724076
 42
0.040036
  0
VERTEX
  8
0
 10
69.574851
 20
52.043047
 42
0.042464
  0
VERTEX
  8
0
 10
67.557557
 20
59.849714
 42
0.077759
  0
VERTEX
  8
0
 10
64.454274
 20
65.626579
 42
-0.019158
  0
VERTEX
  8
0
 10
63.588238
 20
66.866085
 42
-0.029791
  0
VERTEX
  8
0
 10
62.949688
 20
68.002386
 42
-0.029732
  0
VERTEX
  8
0
 10
62.566156
 20
68.927620
 42
-0.287261
  0
VERTEX
  8
0
 10
62.657250
 20
69.323917
 42
0.277019
  0
VERTEX
  8
0
 10
62.752742
 20
69.705989
 42
0.036708
  0
VERTEX
  8
0
 10
62.439360
 20
70.516474
 42
0.034005
  0
VERTEX
  8
0
 10
61.882646
 20
71.510998
 42
0.022057
  0
VERTEX
  8
0
 10
61.114004
 20
72.582196
 42
-0.032460
  0
VERTEX
  8
0
 10
60.304908
 20
73.760751
 42
-0.028993
  0
VERTEX
  8
0
 10
59.620989
 20
75.078451
 42
-0.030147
  0
VERTEX
  8
0
 10
59.146611
 20
76.336809
 42
-0.075199
  0
VERTEX
  8
0
 10
59.000000
 20
77.306118
 42
-0.143774
  0
VERTEX
  8
0
 10
59.817569
 20
80.090583
 42
-0.124441
  0
VERTEX
  8
0
 10
62.048314
 20
82.177104
 42
-0.124633
  0
VERTEX
  8
0
 10
64.999687
 20
82.950891
 42
-0.144452
  0
VERTEX
  8
0
 10
67.783636
 20
82.154882
 42
-0.125299
  0
VERTEX
  8
0
 10
68.465518
 20
81.431800
 42
-0.006891
  0
VERTEX
  8
0
 10
69.951667
 20
78.665589
 42
-0.010330
  0
VERTEX
  8
0
 10
71.623108
 20
75.279774
 42
-0.007343
  0
VERTEX
  8
0
 10
73.361612
 20
71.420195
 42
0.005123
  0
VERTEX
  8
0
 10
76.807861
 20
63.677722
 42
0.118656
  0
VERTEX
  8
0
 10
78.287793
 20
61.791316
 42
0.655204
  0
VERTEX
  8
0
 10
79.060366
 20
62.204085
 42
0.017228
  0
VERTEX
  8
0
 10
78.465419
 20
67.382034
 42
-0.033573
  0
VERTEX
  8
0
 10
78.250324
 20
70.007966
 42
-0.078610
  0
VERTEX
  8
0
 10
78.528903
 20
71.952597
 42
-0.059022
  0
VERTEX
  8
0
 10
79.451424
 20
74.034619
 42
-0.012783
  0
VERTEX
  8
0
 10
81.547074
 20
77.373048
 42
-0.013345
  0
VERTEX
  8
0
 10
83.847351
 20
80.644577
 42
-0.051109
  0
VERTEX
  8
0
 10
85.527575
 20
82.478704
 42
-0.204100
  0
VERTEX
  8
0
 10
86.496243
 20
82.804409
 42
-0.380240
  0
VERTEX
  8
0
 10
87.029313
 20
82.250000
 42
0.193040
  0
VERTEX
  8
0
 10
88.147479
 20
79.749168
 42
0.036553
  0
VERTEX
  8
0
 10
92.058003
 20
76.482834
 42
0.049218
  0
VERTEX
  8
0
 10
95.801441
 20
74.317315
 42
0.545293
  0
VERTEX
  8
0
 10
97.000000
 20
75.089536
 42
0.096054
  0
VERTEX
  8
0
 10
96.560080
 20
77.358375
 42
0.027793
  0
VERTEX
  8
0
 10
95.037899
 20
80.603370
 42
0.028706
  0
VERTEX
  8
0
 10
93.103690
 20
83.746994
 42
0.065668
  0
VERTEX
  8
0
 10
91.230666
 20
85.797793
 42
0.000000
  0
VERTEX
  8
0
 10
88.500000
 20
88.095585
 42
0.000000
  0
VERTEX
  8
0
 10
92.865013
 20
92.035727
 42
-0.015916
  0
VERTEX
  8
0
 10
94.601821
 20
93.505928
 42
-0.024215
  0
VERTEX
  8
0
 10
96.207769
 20
94.657786
 42
-0.021132
  0
VERTEX
  8
0
 10
97.550183
 20
95.447085
 42
-0.266783
  0
VERTEX
  8
0
 10
98.115013
 20
95.428918
 42
0.093840
  0
VERTEX
  8
0
 10
98.452684
 20
95.299328
 42
0.172131
  0
VERTEX
  8
0
 10
98.740035
 20
95.346176
 42
0.173520
  0
VERTEX
  8
0
 10
98.932076
 20
95.563093
 42
0.095546
  0
VERTEX
  8
0
 10
99.000000
 20
95.915303
 42
-0.238558
  0
VERTEX
  8
0
 10
99.419912
 20
96.745322
 42
-0.016159
  0
VERTEX
  8
0
 10
101.670162
 20
98.290613
 42
-0.020481
  0
VERTEX
  8
0
 10
104.016946
 20
99.660862
 42
-0.122489
  0
VERTEX
  8
0
 10
105.380534
 20
100.000000
 42
-0.431677
  0
VERTEX
  8
0
 10
105.525251
 20
99.846444
 42
-0.019681
  0
VERTEX
  8
0
 10
105.446187
 20
99.047252
 42
-0.022476
  0
VERTEX
  8
0
 10
105.252571
 20
98.000553
 42
-0.012862
  0
VERTEX
  8
0
 10
104.930194
 20
96.756602
 42
0.055609
  0
VERTEX
  8
0
 10
104.242101
 20
92.704248
 42
0.014389
  0
VERTEX
  8
0
 10
104.054285
 20
86.073447
 42
0.015037
  0
VERTEX
  8
0
 10
104.260102
 20
79.334315
 42
0.041878
  0
VERTEX
  8
0
 10
104.940345
 20
74.653345
 42
0.061509
  0
VERTEX
  8
0
 10
105.915659
 20
71.988755
 42
0.031143
  0
VERTEX
  8
0
 10
107.743486
 20
68.911712
 42
0.025350
  0
VERTEX
  8
0
 10
109.693744
 20
66.340770
 42
0.439555
  0
VERTEX
  8
0
 10
110.633779
 20
66.300446
 42
0.246992
  0
VERTEX
  8
0
 10
110.713984
 20
66.558712
 42
0.003952
  0
VERTEX
  8
0
 10
110.414080
 20
68.109031
 42
0.009343
  0
VERTEX
  8
0
 10
110.010211
 20
69.934998
 42
0.005933
  0
VERTEX
  8
0
 10
109.475038
 20
72.046503
 42
-0.074742
  0
VERTEX
  8
0
 10
108.034935
 20
84.980235
 42
-0.059087
  0
VERTEX
  8
0
 10
110.229481
 20
98.901375
 42
-0.058624
  0
VERTEX
  8
0
 10
115.651822
 20
112.036449
 42
-0.070696
  0
VERTEX
  8
0
 10
123.721182
 20
122.656132
 42
-0.027408
  0
VERTEX
  8
0
 10
129.303636
 20
127.602535
 42
-0.031606
  0
VERTEX
  8
0
 10
135.144316
 20
131.659253
 42
-0.030394
  0
VERTEX
  8
0
 10
141.646172
 20
135.069904
 42
-0.022251
  0
VERTEX
  8
0
 10
149.222539
 20
138.077058
 42
0.010703
  0
VERTEX
  8
0
 10
154.514970
 20
140.037496
 42
0.099443
  0
VERTEX
  8
0
 10
156.551596
 20
141.355565
 42
0.589643
  0
VERTEX
  8
0
 10
156.323751
 20
142.187335
 42
0.060424
  0
VERTEX
  8
0
 10
153.750000
 20
142.490334
 42
-0.036317
  0
VERTEX
  8
0
 10
152.359732
 20
142.586537
 42
-0.134223
  0
VERTEX
  8
0
 10
151.559626
 20
142.932902
 42
-0.163672
  0
VERTEX
  8
0
 10
151.136433
 20
143.591786
 42
-0.061695
  0
VERTEX
  8
0
 10
151.000000
 20
144.693281
 42
-0.064906
  0
VERTEX
  8
0
 10
151.282086
 20
146.857156
 42
-0.032182
  0
VERTEX
  8
0
 10
152.163939
 20
149.486472
 42
-0.026094
  0
VERTEX
  8
0
 10
153.625137
 20
152.589278
 42
-0.014352
  0
VERTEX
  8
0
 10
155.714578
 20
156.230128
 42
0.005983
  0
VERTEX
  8
0
 10
157.449114
 20
159.138695
 42
0.087397
  0
VERTEX
  8
0
 10
157.858902
 20
160.256396
 42
0.349869
  0
VERTEX
  8
0
 10
157.566457
 20
160.796775
 42
0.100746
  0
VERTEX
  8
0
 10
156.568094
 20
161.000000
 42
0.146398
  0
VERTEX
  8
0
 10
155.868519
 20
160.790681
 42
0.034773
  0
VERTEX
  8
0
 10
154.890023
 20
160.045312
 42
0.032852
  0
VERTEX
  8
0
 10
153.840411
 20
158.994064
 42
0.027323
  0
VERTEX
  8
0
 10
152.866274
 20
157.750000
 42
-0.007913
  0
VERTEX
  8
0
 10
151.937344
 20
156.463833
 42
-0.009551
  0
VERTEX
  8
0
 10
151.023314
 20
155.287159
 42
-0.008369
  0
VERTEX
  8
0
 10
150.221201
 20
154.327611
 42
-0.062094
  0
VERTEX
  8
0
 10
149.779909
 20
153.929691
 42
0.154782
  0
VERTEX
  8
0
 10
148.930044
 20
152.820835
 42
0.018619
  0
VERTEX
  8
0
 10
147.979491
 20
149.849051
 42
0.023285
  0
VERTEX
  8
0
 10
147.237443
 20
146.618489
 42
0.044835
  0
VERTEX
  8
0
 10
147.000000
 20
143.975840
 42
-0.064856
  0
VERTEX
  8
0
 10
146.835084
 20
142.709795
 42
-0.106190
  0
VERTEX
  8
0
 10
146.346534
 20
141.749562
 42
-0.092282
  0
VERTEX
  8
0
 10
145.449850
 20
140.987344
 42
-0.039909
  0
VERTEX
  8
0
 10
144.027157
 20
140.316352
 42
0.000000
  0
VERTEX
  8
0
 10
141.054314
 20
139.194230
 42
0.000000
  0
VERTEX
  8
0
 10
142.527157
 20
142.719239
 42
0.004099
  0
VERTEX
  8
0
 10
143.091440
 20
144.101505
 42
0.005866
  0
VERTEX
  8
0
 10
143.567352
 20
145.337114
 42
0.003346
  0
VERTEX
  8
0
 10
143.948629
 20
146.384135
 42
0.085844
  0
VERTEX
  8
0
 10
144.000000
 20
146.681141
 42
-0.372728
  0
VERTEX
  8
0
 10
144.093664
 20
146.789332
 42
-0.096190
  0
VERTEX
  8
0
 10
144.343670
 20
146.777297
 42
-0.052781
  0
VERTEX
  8
0
 10
144.720825
 20
146.641607
 42
-0.025694
  0
VERTEX
  8
0
 10
145.169939
 20
146.394972
 42
0.055660
  0
VERTEX
  8
0
 10
145.648576
 20
146.168252
 42
0.337750
  0
VERTEX
  8
0
 10
145.892659
 20
146.249213
 42
0.214493
  0
VERTEX
  8
0
 10
145.950117
 20
146.571372
 42
0.030089
  0
VERTEX
  8
0
 10
145.741300
 20
147.231778
 42
-0.194538
  0
VERTEX
  8
0
 10
145.778509
 20
149.313950
 42
-0.007579
  0
VERTEX
  8
0
 10
148.949388
 20
156.466204
 42
-0.010828
  0
VERTEX
  8
0
 10
152.295079
 20
163.320151
 42
-0.100916
  0
VERTEX
  8
0
 10
154.345561
 20
165.871827
 42
-0.088621
  0
VERTEX
  8
0
 10
155.154714
 20
166.330769
 42
-0.081900
  0
VERTEX
  8
0
 10
156.095648
 20
166.497841
 42
-0.061174
  0
VERTEX
  8
0
 10
157.263834
 20
166.368933
 42
-0.025838
  0
VERTEX
  8
0
 10
158.781412
 20
165.926356
 42
0.031848
  0
VERTEX
  8
0
 10
160.165487
 20
165.540685
 42
0.021474
  0
VERTEX
  8
0
 10
161.783421
 20
165.271043
 42
0.021672
  0
VERTEX
  8
0
 10
163.377406
 20
165.145077
 42
0.039633
  0
VERTEX
  8
0
 10
164.679447
 20
165.202012
 42
0.123253
  0
VERTEX
  8
0
 10
165.670940
 20
165.584515
 42
0.493769
  0
VERTEX
  8
0
 10
165.693067
 20
166.136924
 42
0.056489
  0
VERTEX
  8
0
 10
164.220079
 20
167.103395
 42
0.003776
  0
VERTEX
  8
0
 10
159.691160
 20
169.348721
 42
-0.012539
  0
VERTEX
  8
0
 10
156.724536
 20
170.884839
 42
-0.020117
  0
VERTEX
  8
0
 10
154.284920
 20
172.357487
 42
-0.015067
  0
VERTEX
  8
0
 10
152.440406
 20
173.656151
 42
-0.322800
  0
VERTEX
  8
0
 10
152.252544
 20
174.257633
 42
-0.149260
  0
VERTEX
  8
0
 10
152.671742
 20
174.847207
 42
-0.011457
  0
VERTEX
  8
0
 10
154.258484
 20
176.012576
 42
-0.014915
  0
VERTEX
  8
0
 10
156.259632
 20
177.325752
 42
-0.010801
  0
VERTEX
  8
0
 10
158.561385
 20
178.672232
 42
0.012183
  0
VERTEX
  8
0
 10
162.979907
 20
181.273399
 42
0.721368
  0
VERTEX
  8
0
 10
162.831293
 20
181.892800
 42
0.124900
  0
VERTEX
  8
0
 10
160.787720
 20
181.556620
 42
0.007580
  0
VERTEX
  8
0
 10
155.096516
 20
178.969088
 42
0.000000
  0
VERTEX
  8
0
 10
148.693032
 20
175.939753
 42
0.000000
  0
VERTEX
  8
0
 10
146.335814
 20
178.154245
 42
-0.080163
  0
VERTEX
  8
0
 10
145.000252
 20
179.887144
 42
-0.373220
  0
VERTEX
  8
0
 10
145.251644
 20
181.023191
 42
-0.106742
  0
VERTEX
  8
0
 10
147.183672
 20
181.899741
 42
-0.007825
  0
VERTEX
  8
0
 10
152.931093
 20
183.050396
 42
0.007593
  0
VERTEX
  8
0
 10
155.556112
 20
183.574667
 42
0.009082
  0
VERTEX
  8
0
 10
158.011009
 20
184.150701
 42
0.008015
  0
VERTEX
  8
0
 10
160.057136
 20
184.705261
 42
0.057527
  0
VERTEX
  8
0
 10
161.000000
 20
185.099048
 42
0.685080
  0
VERTEX
  8
0
 10
160.907072
 20
185.753526
 42
0.070429
  0
VERTEX
  8
0
 10
158.648486
 20
185.952437
 42
0.027668
  0
VERTEX
  8
0
 10
154.262350
 20
185.476422
 42
0.022849
  0
VERTEX
  8
0
 10
149.661309
 20
184.500000
 42
-0.004720
  0
VERTEX
  8
0
 10
144.759259
 20
183.272475
 42
-0.087350
  0
VERTEX
  8
0
 10
143.169151
 20
183.174293
 42
-0.212359
  0
VERTEX
  8
0
 10
142.188629
 20
183.750237
 42
-0.048457
  0
VERTEX
  8
0
 10
141.201771
 20
185.456506
 42
-0.135622
  0
VERTEX
  8
0
 10
140.946964
 20
187.056526
 42
-0.322115
  0
VERTEX
  8
0
 10
141.712426
 20
187.903459
 42
-0.052537
  0
VERTEX
  8
0
 10
144.259141
 20
188.178718
 42
-0.002028
  0
VERTEX
  8
0
 10
153.750000
 20
188.165750
 42
0.009988
  0
VERTEX
  8
0
 10
156.913152
 20
188.211790
 42
0.016541
  0
VERTEX
  8
0
 10
159.576562
 20
188.392135
 42
0.010482
  0
VERTEX
  8
0
 10
161.698690
 20
188.651571
 42
0.373034
  0
VERTEX
  8
0
 10
162.000000
 20
188.999236
 42
0.362178
  0
VERTEX
  8
0
 10
161.202003
 20
189.956392
 42
0.017734
  0
VERTEX
  8
0
 10
156.816094
 20
190.598649
 42
0.024069
  0
VERTEX
  8
0
 10
151.516577
 20
190.926628
 42
0.021280
  0
VERTEX
  8
0
 10
145.986206
 20
190.766900
 42
-0.006734
  0
VERTEX
  8
0
 10
141.862967
 20
190.527648
 42
-0.065225
  0
VERTEX
  8
0
 10
140.121073
 20
190.677423
 42
-0.167181
  0
VERTEX
  8
0
 10
139.183555
 20
191.248791
 42
-0.107897
  0
VERTEX
  8
0
 10
138.593869
 20
192.389259
 42
-0.031879
  0
VERTEX
  8
0
 10
138.082467
 20
194.931654
 42
-0.106148
  0
VERTEX
  8
0
 10
138.212348
 20
196.620847
 42
-0.140587
  0
VERTEX
  8
0
 10
138.987214
 20
197.836195
 42
-0.074221
  0
VERTEX
  8
0
 10
140.500000
 20
198.818046
 42
0.076907
  0
VERTEX
  8
0
 10
142.305333
 20
200.003526
 42
0.212924
  0
VERTEX
  8
0
 10
142.906598
 20
201.362088
 42
0.241551
  0
VERTEX
  8
0
 10
142.272826
 20
202.588592
 42
0.093755
  0
VERTEX
  8
0
 10
140.486575
 20
203.414013
 42
-0.041045
  0
VERTEX
  8
0
 10
139.168952
 20
203.862314
 42
-0.162229
  0
VERTEX
  8
0
 10
138.540421
 20
204.426666
 42
-0.150800
  0
VERTEX
  8
0
 10
138.350850
 20
205.281846
 42
-0.033993
  0
VERTEX
  8
0
 10
138.574846
 20
206.772421
 42
-0.019930
  0
VERTEX
  8
0
 10
140.056277
 20
212.409846
 42
-0.014880
  0
VERTEX
  8
0
 10
142.118392
 20
218.497851
 42
-0.014873
  0
VERTEX
  8
0
 10
144.540519
 20
224.456446
 42
-0.019827
  0
VERTEX
  8
0
 10
147.110429
 20
229.702896
 42
0.002965
  0
VERTEX
  8
0
 10
148.601114
 20
232.503002
 42
0.004531
  0
VERTEX
  8
0
 10
149.857438
 20
234.950653
 42
0.001699
  0
VERTEX
  8
0
 10
150.909431
 20
237.064644
 42
0.115093
  0
VERTEX
  8
0
 10
151.000000
 20
237.452896
 42
0.361034
  0
VERTEX
  8
0
 10
150.543065
 20
238.003225
 42
0.110714
  0
VERTEX
  8
0
 10
149.379869
 20
237.961777
 42
0.081111
  0
VERTEX
  8
0
 10
148.071953
 20
237.380808
 42
0.157408
  0
VERTEX
  8
0
 10
147.361626
 20
236.500000
 42
-0.097841
  0
VERTEX
  8
0
 10
146.614933
 20
235.312885
 42
-0.392870
  0
VERTEX
  8
0
 10
145.834214
 20
235.261615
 42
-0.128509
  0
VERTEX
  8
0
 10
144.985597
 20
236.420477
 42
-0.017886
  0
VERTEX
  8
0
 10
143.982517
 20
239.250000
 42
0.007632
  0
VERTEX
  8
0
 10
143.277068
 20
241.377487
 42
0.002733
  0
VERTEX
  8
0
 10
142.208739
 20
244.388897
 42
0.002711
  0
VERTEX
  8
0
 10
141.001127
 20
247.678787
 42
0.003206
  0
VERTEX
  8
0
 10
139.822458
 20
250.776031
 42
-0.008477
  0
VERTEX
  8
0
 10
138.741779
 20
253.708407
 42
-0.010189
  0
VERTEX
  8
0
 10
137.829097
 20
256.502125
 42
-0.009005
  0
VERTEX
  8
0
 10
137.153423
 20
258.875286
 42
-0.064933
  0
VERTEX
  8
0
 10
137.000000
 20
260.051711
 42
-0.036642
  0
VERTEX
  8
0
 10
137.083204
 20
261.185532
 42
-0.316064
  0
VERTEX
  8
0
 10
137.413425
 20
261.533831
 42
-0.161806
  0
VERTEX
  8
0
 10
138.049392
 20
261.456467
 42
-0.010326
  0
VERTEX
  8
0
 10
139.750000
 20
260.608528
 42
-0.036347
  0
VERTEX
  8
0
 10
141.162369
 20
259.731192
 42
-0.009330
  0
VERTEX
  8
0
 10
143.307812
 20
258.109775
 42
-0.009451
  0
VERTEX
  8
0
 10
145.692564
 20
256.162584
 42
-0.009475
  0
VERTEX
  8
0
 10
148.000000
 20
254.128241
 42
-0.006641
  0
VERTEX
  8
0
 10
150.823988
 20
251.471925
 42
-0.051940
  0
VERTEX
  8
0
 10
151.983409
 20
250.092379
 42
-0.274977
  0
VERTEX
  8
0
 10
152.023432
 20
249.408277
 42
-0.274204
  0
VERTEX
  8
0
 10
151.441130
 20
249.045393
 42
0.082253
  0
VERTEX
  8
0
 10
149.212446
 20
248.625593
 42
0.090182
  0
VERTEX
  8
0
 10
147.316524
 20
247.514243
 42
0.134694
  0
VERTEX
  8
0
 10
146.395078
 20
246.146777
 42
0.283022
  0
VERTEX
  8
0
 10
146.671855
 20
244.945466
 42
-0.077741
  0
VERTEX
  8
0
 10
147.077641
 20
244.380528
 42
-0.061329
  0
VERTEX
  8
0
 10
147.332753
 20
243.671134
 42
-0.062119
  0
VERTEX
  8
0
 10
147.405962
 20
242.931344
 42
-0.085449
  0
VERTEX
  8
0
 10
147.276138
 20
242.277220
 42
0.086798
  0
VERTEX
  8
0
 10
147.154109
 20
241.653631
 42
0.079287
  0
VERTEX
  8
0
 10
147.244362
 20
241.004528
 42
0.081328
  0
VERTEX
  8
0
 10
147.528045
 20
240.430070
 42
0.099382
  0
VERTEX
  8
0
 10
147.964981
 20
240.021643
 42
0.125981
  0
VERTEX
  8
0
 10
149.484439
 20
239.546732
 42
0.097147
  0
VERTEX
  8
0
 10
151.209860
 20
239.792337
 42
0.128522
  0
VERTEX
  8
0
 10
152.399523
 20
240.590132
 42
0.279677
  0
VERTEX
  8
0
 10
152.587942
 20
241.631422
 42
-0.071050
  0
VERTEX
  8
0
 10
152.468418
 20
242.154739
 42
-0.119251
  0
VERTEX
  8
0
 10
152.537538
 20
242.597980
 42
-0.152636
  0
VERTEX
  8
0
 10
152.781243
 20
242.890264
 42
-0.144200
  0
VERTEX
  8
0
 10
153.153830
 20
243.000000
 42
0.144652
  0
VERTEX
  8
0
 10
153.525786
 20
243.109908
 42
0.281709
  0
VERTEX
  8
0
 10
153.654750
 20
243.378950
 42
0.120630
  0
VERTEX
  8
0
 10
153.491924
 20
243.835917
 42
0.027590
  0
VERTEX
  8
0
 10
153.000000
 20
244.500000
 42
-0.019108
  0
VERTEX
  8
0
 10
152.144248
 20
245.615204
 42
-0.540882
  0
VERTEX
  8
0
 10
152.255832
 20
245.898407
 42
-0.118629
  0
VERTEX
  8
0
 10
152.878995
 20
245.878260
 42
-0.002707
  0
VERTEX
  8
0
 10
155.756602
 20
245.069806
 42
0.244046
  0
VERTEX
  8
0
 10
158.123980
 20
245.548304
 42
0.373345
  0
VERTEX
  8
0
 10
158.473153
 20
247.489319
 42
0.064948
  0
VERTEX
  8
0
 10
154.844938
 20
252.103311
 42
0.015283
  0
VERTEX
  8
0
 10
147.609210
 20
258.765559
 42
-0.010480
  0
VERTEX
  8
0
 10
145.808829
 20
260.391581
 42
-0.021339
  0
VERTEX
  8
0
 10
144.478736
 20
261.756133
 42
-0.027572
  0
VERTEX
  8
0
 10
143.688350
 20
262.743977
 42
-0.609834
  0
VERTEX
  8
0
 10
143.820196
 20
263.000000
 42
-0.080549
  0
VERTEX
  8
0
 10
144.593952
 20
262.874535
 42
-0.002206
  0
VERTEX
  8
0
 10
147.841036
 20
261.777125
 42
-0.004505
  0
VERTEX
  8
0
 10
151.651208
 20
260.432160
 42
-0.003069
  0
VERTEX
  8
0
 10
155.960986
 20
258.837020
 42
-0.008202
  0
VERTEX
  8
0
 10
160.675267
 20
256.970306
 42
-0.019162
  0
VERTEX
  8
0
 10
164.120677
 20
255.382864
 42
-0.017848
  0
VERTEX
  8
0
 10
166.539186
 20
254.043479
 42
-0.263171
  0
VERTEX
  8
0
 10
167.000000
 20
253.228612
 42
0.126500
  0
VERTEX
  8
0
 10
167.160966
 20
252.602564
 42
0.196139
  0
VERTEX
  8
0
 10
167.588986
 20
252.256363
 42
0.108110
  0
VERTEX
  8
0
 10
168.363335
 20
252.196335
 42
0.026978
  0
VERTEX
  8
0
 10
169.616663
 20
252.439925
 42
-0.008786
  0
VERTEX
  8
0
 10
170.843099
 20
252.724931
 42
-0.004545
  0
VERTEX
  8
0
 10
172.385100
 20
253.040194
 42
-0.004517
  0
VERTEX
  8
0
 10
173.976415
 20
253.335602
 42
-0.006836
  0
VERTEX
  8
0
 10
175.366663
 20
253.561162
 42
0.000000
  0
VERTEX
  8
0
 10
178.500000
 20
254.025660
 42
0.000000
  0
VERTEX
  8
0
 10
175.093151
 20
252.704974
 42
0.102109
  0
VERTEX
  8
0
 10
172.491724
 20
251.025281
 42
0.099957
  0
VERTEX
  8
0
 10
170.744047
 20
248.441410
 42
0.079357
  0
VERTEX
  8
0
 10
169.880440
 20
244.866929
 42
0.040834
  0
VERTEX
  8
0
 10
169.894037
 20
240.250000
 42
0.235110
  0
VERTEX
  8
0
 10
170.535756
 20
239.194824
 42
0.299332
  0
VERTEX
  8
0
 10
171.648095
 20
239.216098
 42
0.105486
  0
VERTEX
  8
0
 10
173.121781
 20
240.767258
 42
0.046230
  0
VERTEX
  8
0
 10
174.379686
 20
243.324134
 42
-0.037855
  0
VERTEX
  8
0
 10
176.332701
 20
247.467407
 42
-0.028344
  0
VERTEX
  8
0
 10
179.068517
 20
251.709200
 42
-0.023206
  0
VERTEX
  8
0
 10
181.883078
 20
255.219009
 42
-0.215361
  0
VERTEX
  8
0
 10
183.612191
 20
256.000000
 42
-0.091261
  0
VERTEX
  8
0
 10
184.301859
 20
255.873063
 42
-0.307692
  0
VERTEX
  8
0
 10
184.551154
 20
255.516196
 42
-0.110725
  0
VERTEX
  8
0
 10
184.403052
 20
254.813728
 42
-0.010933
  0
VERTEX
  8
0
 10
183.647293
 20
253.250000
 42
0.047879
  0
VERTEX
  8
0
 10
182.246707
 20
249.706219
 42
0.022667
  0
VERTEX
  8
0
 10
181.099787
 20
244.923694
 42
0.021189
  0
VERTEX
  8
0
 10
180.406344
 20
240.261999
 42
0.088027
  0
VERTEX
  8
0
 10
180.605322
 20
237.436388
 42
0.138190
  0
VERTEX
  8
0
 10
181.651226
 20
235.611989
 42
0.387438
  0
VERTEX
  8
0
 10
183.000422
 20
235.562925
 42
0.096767
  0
VERTEX
  8
0
 10
184.831506
 20
237.850789
 42
0.013970
  0
VERTEX
  8
0
 10
187.466852
 20
243.250000
 42
-0.013966
  0
VERTEX
  8
0
 10
190.706054
 20
249.886504
 42
-0.036312
  0
VERTEX
  8
0
 10
193.504291
 20
254.403826
 42
-0.052246
  0
VERTEX
  8
0
 10
195.980459
 20
257.161945
 42
-0.185799
  0
VERTEX
  8
0
 10
198.157880
 20
258.000000
 42
-0.041603
  0
VERTEX
  8
0
 10
199.140487
 20
257.918100
 42
-0.192427
  0
VERTEX
  8
0
 10
199.618282
 20
257.627444
 42
-0.213021
  0
VERTEX
  8
0
 10
199.736325
 20
257.110025
 42
-0.051440
  0
VERTEX
  8
0
 10
199.471929
 20
256.250000
 42
0.014394
  0
VERTEX
  8
0
 10
197.255433
 20
250.573460
 42
0.044582
  0
VERTEX
  8
0
 10
196.221263
 20
246.595891
 42
0.075452
  0
VERTEX
  8
0
 10
196.181880
 20
243.906979
 42
0.223948
  0
VERTEX
  8
0
 10
197.161952
 20
242.399908
 42
0.171248
  0
VERTEX
  8
0
 10
197.730730
 20
242.276078
 42
0.084790
  0
VERTEX
  8
0
 10
198.446918
 20
242.492932
 42
0.067036
  0
VERTEX
  8
0
 10
199.210028
 20
243.011718
 42
0.047650
  0
VERTEX
  8
0
 10
199.911952
 20
243.773334
 42
0.008241
  0
VERTEX
  8
0
 10
202.708649
 20
247.585600
 42
0.010494
  0
VERTEX
  8
0
 10
205.154775
 20
251.196177
 42
0.004735
  0
VERTEX
  8
0
 10
207.190272
 20
254.407055
 42
0.222076
  0
VERTEX
  8
0
 10
207.279317
 20
255.155144
 42
-0.212797
  0
VERTEX
  8
0
 10
207.309045
 20
255.449202
 42
-0.073995
  0
VERTEX
  8
0
 10
207.578911
 20
255.791366
 42
-0.057503
  0
VERTEX
  8
0
 10
208.029101
 20
256.126818
 42
-0.039794
  0
VERTEX
  8
0
 10
208.602643
 20
256.401014
 42
-0.079842
  0
VERTEX
  8
0
 10
209.313148
 20
256.550272
 42
-0.237184
  0
VERTEX
  8
0
 10
209.755070
 20
256.353957
 42
-0.158868
  0
VERTEX
  8
0
 10
209.972903
 20
255.795458
 42
-0.034393
  0
VERTEX
  8
0
 10
209.960333
 20
254.745870
 42
0.028125
  0
VERTEX
  8
0
 10
209.866312
 20
250.909100
 42
0.556347
  0
VERTEX
  8
0
 10
210.704963
 20
250.424840
 42
0.136896
  0
VERTEX
  8
0
 10
212.194151
 20
251.851194
 42
0.006864
  0
VERTEX
  8
0
 10
215.585459
 20
257.758902
 42
-0.008929
  0
VERTEX
  8
0
 10
218.400123
 20
262.615532
 42
-0.012526
  0
VERTEX
  8
0
 10
221.096823
 20
266.839900
 42
-0.013927
  0
VERTEX
  8
0
 10
223.731610
 20
270.522312
 42
-0.018050
  0
VERTEX
  8
0
 10
226.358346
 20
273.737513
 42
-0.138308
  0
VERTEX
  8
0
 10
228.254760
 20
274.965992
 42
-0.296171
  0
VERTEX
  8
0
 10
229.861971
 20
274.510900
 42
-0.093939
  0
VERTEX
  8
0
 10
231.421508
 20
271.859257
 42
-0.012068
  0
SEQEND
  0
POLYLINE
  8
0
 66
1
 70
1
  0
VERTEX
  8
0
 10
283.604331
 20
125.546187
 42
0.001649
  0
VERTEX
  8
0
 10
283.366931
 20
121.911483
 42
0.001947
  0
VERTEX
  8
0
 10
283.167079
 20
118.471363
 42
0.001700
  0
VERTEX
  8
0
 10
283.019535
 20
115.565695
 42
0.012272
  0
VERTEX
  8
0
 10
282.987603
 20
114.164836
 42
-0.045584
  0
VERTEX
  8
0
 10
282.859999
 20
112.740544
 42
-0.005367
  0
VERTEX
  8
0
 10
282.254444
 20
109.611937
 42
-0.006390
  0
VERTEX
  8
0
 10
281.445167
 20
105.900743
 42
-0.005194
  0
VERTEX
  8
0
 10
280.486000
 20
101.944771
 42
0.004397
  0
VERTEX
  8
0
 10
279.458568
 20
97.736550
 42
0.003710
  0
VERTEX
  8
0
 10
278.443525
 20
93.265704
 42
0.003742
  0
VERTEX
  8
0
 10
277.578292
 20
89.173149
 42
0.010384
  0
VERTEX
  8
0
 10
277.051526
 20
86.279935
 42
-0.006372
  0
VERTEX
  8
0
 10
276.607722
 20
83.726264
 42
-0.004304
  0
VERTEX
  8
0
 10
276.039455
 20
80.825041
 42
-0.004336
  0
VERTEX
  8
0
 10
275.441495
 20
78.029217
 42
-0.008611
  0
VERTEX
  8
0
 10
274.910421
 20
75.826586
 42
0.027372
  0
VERTEX
  8
0
 10
274.313347
 20
72.867208
 42
0.082410
  0
VERTEX
  8
0
 10
274.354596
 20
70.814786
 42
0.057616
  0
VERTEX
  8
0
 10
275.067381
 20
68.507673
 42
0.008663
  0
VERTEX
  8
0
 10
277.099048
 20
64.101893
 42
0.010560
  0
VERTEX
  8
0
 10
278.940595
 20
60.481228
 42
0.045584
  0
VERTEX
  8
0
 10
280.267912
 20
58.467396
 42
0.084452
  0
VERTEX
  8
0
 10
281.459738
 20
57.404152
 42
0.138039
  0
VERTEX
  8
0
 10
282.750000
 20
57.025307
 42
-0.116934
  0
VERTEX
  8
0
 10
284.733276
 20
56.531428
 42
-0.061845
  0
VERTEX
  8
0
 10
286.836669
 20
55.091183
 42
-0.062948
  0
VERTEX
  8
0
 10
288.467281
 20
53.236265
 42
-0.149960
  0
VERTEX
  8
0
 10
289.000000
 20
51.500000
 42
-0.096916
  0
VERTEX
  8
0
 10
288.859575
 20
50.782339
 42
-0.034346
  0
VERTEX
  8
0
 10
288.397474
 20
49.838099
 42
-0.032547
  0
VERTEX
  8
0
 10
287.733794
 20
48.844421
 42
-0.032879
  0
VERTEX
  8
0
 10
286.948848
 20
47.948848
 42
-0.086847
  0
VERTEX
  8
0
 10
285.289961
 20
46.784130
 42
-0.129520
  0
VERTEX
  8
0
 10
283.555463
 20
46.466219
 42
-0.080152
  0
VERTEX
  8
0
 10
281.300845
 20
47.009111
 42
-0.018589
  0
VERTEX
  8
0
 10
277.750000
 20
48.652365
 42
0.010985
  0
VERTEX
  8
0
 10
276.183806
 20
49.406285
 42
0.112049
  0
VERTEX
  8
0
 10
275.482435
 20
49.551015
 42
0.308013
  0
VERTEX
  8
0
 10
275.125856
 20
49.297924
 42
0.089224
  0
VERTEX
  8
0
 10
275.000000
 20
48.598260
 42
0.184378
  0
VERTEX
  8
0
 10
275.597863
 20
47.032079
 42
0.044072
  0
VERTEX
  8
0
 10
277.666256
 20
45.092038
 42
0.045108
  0
VERTEX
  8
0
 10
280.127458
 20
43.496556
 42
0.121845
  0
VERTEX
  8
0
 10
282.134859
 20
43.000000
 42
-0.086102
  0
VERTEX
  8
0
 10
283.413908
 20
42.778097
 42
-0.282727
  0
VERTEX
  8
0
 10
283.927868
 20
42.137518
 42
-0.201954
  0
VERTEX
  8
0
 10
283.659885
 20
41.182078
 42
-0.051563
  0
VERTEX
  8
0
 10
282.510962
 20
40.009097
 42
-0.162864
  0
VERTEX
  8
0
 10
280.494610
 20
39.227420
 42
-0.065760
  0
VERTEX
  8
0
 10
277.516750
 20
39.479330
 42
-0.056450
  0
VERTEX
  8
0
 10
274.150082
 20
40.626881
 42
-0.048625
  0
VERTEX
  8
0
 10
270.939163
 20
42.544884
 42
0.035964
  0
VERTEX
  8
0
 10
268.153853
 20
44.305659
 42
0.489433
  0
VERTEX
  8
0
 10
267.205298
 20
43.883790
 42
0.230956
  0
VERTEX
  8
0
 10
267.548457
 20
42.289052
 42
0.023850
  0
VERTEX
  8
0
 10
270.137792
 20
39.298355
 42
-0.003065
  0
VERTEX
  8
0
 10
272.295378
 20
37.006152
 42
-0.112599
  0
VERTEX
  8
0
 10
272.653835
 20
36.386965
 42
-0.571769
  0
VERTEX
  8
0
 10
272.439482
 20
36.151401
 42
-0.020946
  0
VERTEX
  8
0
 10
271.000000
 20
36.516174
 42
-0.060630
  0
VERTEX
  8
0
 10
267.727215
 20
37.943223
 42
-0.057890
  0
VERTEX
  8
0
 10
264.835712
 20
40.131990
 42
-0.048469
  0
VERTEX
  8
0
 10
262.126820
 20
43.281439
 42
-0.025899
  0
VERTEX
  8
0
 10
259.389599
 20
47.631030
 42
-0.026341
  0
VERTEX
  8
0
 10
256.023254
 20
54.473084
 42
-0.035584
  0
VERTEX
  8
0
 10
253.767147
 20
60.986891
 42
-0.032579
  0
VERTEX
  8
0
 10
252.329039
 20
68.186476
 42
-0.017631
  0
VERTEX
  8
0
 10
251.455873
 20
77.182241
 42
0.000000
  0
VERTEX
  8
0
 10
250.745305
 20
88.721069
 42
0.000000
  0
VERTEX
  8
0
 10
255.622653
 20
89.296463
 42
0.002103
  0
VERTEX
  8
0
 10
265.872311
 20
90.549367
 42
0.038232
  0
VERTEX
  8
0
 10
269.097629
 20
91.210786
 42
0.196553
  0
VERTEX
  8
0
 10
270.252628
 20
92.119931
 42
0.224196
  0
VERTEX
  8
0
 10
270.356833
 20
93.512493
 42
0.192819
  0
VERTEX
  8
0
 10
269.194255
 20
94.767031
 42
0.037345
  0
VERTEX
  8
0
 10
266.252968
 20
95.900431
 42
0.036910
  0
VERTEX
  8
0
 10
262.592238
 20
96.716594
 42
0.036031
  0
VERTEX
  8
0
 10
258.821429
 20
96.994423
 42
0.067338
  0
VERTEX
  8
0
 10
256.123864
 20
96.633636
 42
0.085935
  0
VERTEX
  8
0
 10
253.856600
 20
95.569362
 42
0.123553
  0
VERTEX
  8
0
 10
252.606562
 20
94.128526
 42
0.250001
  0
VERTEX
  8
0
 10
252.637513
 20
92.669380
 42
-0.013065
  0
VERTEX
  8
0
 10
252.916424
 20
92.140170
 42
-0.454830
  0
VERTEX
  8
0
 10
252.868457
 20
92.025058
 42
-0.262463
  0
VERTEX
  8
0
 10
252.701331
 20
92.057389
 42
-0.008897
  0
VERTEX
  8
0
 10
252.180063
 20
92.516641
 42
-0.177292
  0
VERTEX
  8
0
 10
251.680902
 20
93.475835
 42
-0.007598
  0
VERTEX
  8
0
 10
251.241797
 20
97.321228
 42
-0.011187
  0
VERTEX
  8
0
 10
250.864630
 20
102.265952
 42
-0.005636
  0
VERTEX
  8
0
 10
250.598916
 20
108.516641
 42
0.002975
  0
VERTEX
  8
0
 10
250.368961
 20
114.701979
 42
0.002957
  0
VERTEX
  8
0
 10
250.065034
 20
120.896719
 42
0.002897
  0
VERTEX
  8
0
 10
249.735930
 20
126.309222
 42
0.011544
  0
VERTEX
  8
0
 10
249.438355
 20
129.621127
 42
0.000000
  0
VERTEX
  8
0
 10
248.745594
 20
135.742254
 42
0.000000
  0
VERTEX
  8
0
 10
257.347661
 20
136.458802
 42
-0.011621
  0
VERTEX
  8
0
 10
261.171210
 20
136.687978
 42
-0.007741
  0
VERTEX
  8
0
 10
265.559942
 20
136.780784
 42
-0.007795
  0
VERTEX
  8
0
 10
269.822714
 20
136.738462
 42
-0.015103
  0
VERTEX
  8
0
 10
273.224864
 20
136.548694
 42
0.012603
  0
VERTEX
  8
0
 10
276.280791
 20
136.362907
 42
0.019872
  0
VERTEX
  8
0
 10
278.907793
 20
136.373995
 42
0.020454
  0
VERTEX
  8
0
 10
280.977479
 20
136.550052
 42
0.117551
  0
VERTEX
  8
0
 10
282.000000
 20
136.934687
 42
-0.296709
  0
VERTEX
  8
0
 10
283.153700
 20
136.954242
 42
-0.221238
  0
VERTEX
  8
0
 10
283.865043
 20
135.857562
 42
-0.046663
  0
VERTEX
  8
0
 10
284.014309
 20
132.663235
 42
-0.005489
  0
SEQEND
  0
POLYLINE
  8
0
 66
1
 70
1
  0
VERTEX
  8
0
 10
57.000000
 20
84.059017
 42
-0.089642
  0
VERTEX
  8
0
 10
56.926698
 20
83.653442
 42
-0.053229
  0
VERTEX
  8
0
 10
56.706250
 20
83.212900
 42
-0.051032
  0
VERTEX
  8
0
 10
56.382515
 20
82.806203
 42
-0.060810
  0
VERTEX
  8
0
 10
56.000000
 20
82.500000
 42
0.225948
  0
VERTEX
  8
0
 10
55.206690
 20
81.269892
 42
0.035084
  0
VERTEX
  8
0
 10
55.033478
 20
78.297955
 42
0.038583
  0
VERTEX
  8
0
 10
55.319401
 20
75.095626
 42
0.076789
  0
VERTEX
  8
0
 10
56.117040
 20
72.684259
 42
0.035148
  0
VERTEX
  8
0
 10
56.698096
 20
71.721465
 42
0.019398
  0
VERTEX
  8
0
 10
57.532506
 20
70.628520
 42
0.019259
  0
VERTEX
  8
0
 10
58.468707
 20
69.581041
 42
0.029195
  0
VERTEX
  8
0
 10
59.367040
 20
68.753255
 42
0.000000
  0
VERTEX
  8
0
 10
61.500000
 20
67.006510
 42
0.000000
  0
VERTEX
  8
0
 10
59.052803
 20
67.344846
 42
-0.049872
  0
VERTEX
  8
0
 10
58.084577
 20
67.578756
 42
-0.052145
  0
VERTEX
  8
0
 10
57.197156
 20
67.997516
 42
-0.057859
  0
VERTEX
  8
0
 10
56.515446
 20
68.527346
 42
-0.124636
  0
VERTEX
  8
0
 10
56.172196
 20
69.091591
 42
0.072946
  0
VERTEX
  8
0
 10
55.850530
 20
69.767527
 42
0.022769
  0
VERTEX
  8
0
 10
55.182340
 20
70.673780
 42
0.022218
  0
VERTEX
  8
0
 10
54.333918
 20
71.630858
 42
0.022817
  0
VERTEX
  8
0
 10
53.411093
 20
72.500000
 42
-0.071969
  0
VERTEX
  8
0
 10
51.278374
 20
74.945011
 42
-0.117593
  0
VERTEX
  8
0
 10
50.366869
 20
77.526040
 42
-0.128378
  0
VERTEX
  8
0
 10
50.752592
 20
80.078459
 42
-0.095300
  0
VERTEX
  8
0
 10
52.358768
 20
82.449677
 42
-0.029965
  0
VERTEX
  8
0
 10
54.166845
 20
84.053119
 42
-0.083141
  0
VERTEX
  8
0
 10
55.653363
 20
84.864579
 42
-0.214152
  0
VERTEX
  8
0
 10
56.575412
 20
84.783084
 42
-0.271573
  0
SEQEND
  0
POLYLINE
  8
0
 66
1
 70
1
  0
VERTEX
  8
0
 10
47.837545
 20
72.829122
 42
0.043689
  0
VERTEX
  8
0
 10
48.769616
 20
71.310458
 42
0.053957
  0
VERTEX
  8
0
 10
49.895569
 20
70.091112
 42
0.055792
  0
VERTEX
  8
0
 10
51.222343
 20
69.171836
 42
0.052083
  0
VERTEX
  8
0
 10
52.750000
 20
68.543203
 42
-0.035937
  0
VERTEX
  8
0
 10
53.994050
 20
68.077560
 42
-0.046964
  0
VERTEX
  8
0
 10
55.045313
 20
67.470251
 42
-0.055025
  0
VERTEX
  8
0
 10
55.774926
 20
66.820382
 42
-0.185381
  0
VERTEX
  8
0
 10
56.000000
 20
66.234186
 42
-0.065030
  0
VERTEX
  8
0
 10
55.937420
 20
65.755057
 42
-0.137035
  0
VERTEX
  8
0
 10
55.748684
 20
65.434502
 42
-0.191365
  0
VERTEX
  8
0
 10
55.469184
 20
65.320221
 42
-0.141828
  0
VERTEX
  8
0
 10
55.144457
 20
65.410721
 42
0.367734
  0
VERTEX
  8
0
 10
54.866762
 20
65.368411
 42
0.139541
  0
VERTEX
  8
0
 10
54.687519
 20
64.985231
 42
0.060179
  0
VERTEX
  8
0
 10
54.657198
 20
64.228225
 42
0.025538
  0
VERTEX
  8
0
 10
54.790325
 20
63.219738
 42
0.039134
  0
VERTEX
  8
0
 10
55.083752
 20
62.119117
 42
0.037443
  0
VERTEX
  8
0
 10
55.548401
 20
61.060556
 42
0.039814
  0
VERTEX
  8
0
 10
56.103465
 20
60.190868
 42
0.097825
  0
VERTEX
  8
0
 10
56.666900
 20
59.688540
 42
-0.067501
  0
VERTEX
  8
0
 10
57.149149
 20
59.308127
 42
-0.085618
  0
VERTEX
  8
0
 10
57.467721
 20
58.839750
 42
-0.101912
  0
VERTEX
  8
0
 10
57.576898
 20
58.359074
 42
-0.144441
  0
VERTEX
  8
0
 10
57.462015
 20
57.938540
 42
-0.154260
  0
VERTEX
  8
0
 10
56.588384
 20
57.185933
 42
-0.303649
  0
VERTEX
  8
0
 10
55.725908
 20
57.346974
 42
-0.107042
  0
VERTEX
  8
0
 10
54.851955
 20
58.671276
 42
-0.020740
  0
VERTEX
  8
0
 10
53.921367
 20
61.400747
 42
0.028246
  0
VERTEX
  8
0
 10
53.134252
 20
63.600776
 42
0.062267
  0
VERTEX
  8
0
 10
52.241982
 20
65.143251
 42
0.073100
  0
VERTEX
  8
0
 10
51.099765
 20
66.264305
 42
0.053787
  0
VERTEX
  8
0
 10
49.560991
 20
67.150747
 42
-0.083324
  0
VERTEX
  8
0
 10
47.269912
 20
68.656485
 42
-0.071488
  0
VERTEX
  8
0
 10
45.452921
 20
70.901719
 42
-0.078018
  0
VERTEX
  8
0
 10
44.469680
 20
73.349836
 42
-0.149243
  0
VERTEX
  8
0
 10
44.616706
 20
75.443535
 42
-0.071676
  0
VERTEX
  8
0
 10
45.169468
 20
76.432868
 42
-0.422799
  0
VERTEX
  8
0
 10
45.698933
 20
76.495724
 42
-0.100734
  0
VERTEX
  8
0
 10
46.371898
 20
75.677279
 42
-0.006057
  0
SEQEND
  0
POLYLINE
  8
0
 66
1
 70
1
  0
VERTEX
  8
0
 10
355.546953
 20
69.404096
 42
0.105097
  0
VERTEX
  8
0
 10
354.391164
 20
67.624397
 42
0.036689
  0
VERTEX
  8
0
 10
353.503844
 20
64.685338
 42
0.034998
  0
VERTEX
  8
0
 10
353.057707
 20
61.731281
 42
0.159712
  0
VERTEX
  8
0
 10
353.459899
 20
60.064885
 42
0.235006
  0
VERTEX
  8
0
 10
354.874224
 20
59.186844
 42
0.148993
  0
VERTEX
  8
0
 10
356.813850
 20
59.583778
 42
0.064672
  0
VERTEX
  8
0
 10
359.547649
 20
61.563800
 42
0.015953
  0
VERTEX
  8
0
 10
363.464195
 20
65.500000
 42
-0.010785
  0
VERTEX
  8
0
 10
366.576542
 20
68.693299
 42
-0.035300
  0
VERTEX
  8
0
 10
368.818702
 20
70.605331
 42
-0.055356
  0
VERTEX
  8
0
 10
370.629084
 20
71.653767
 42
-0.103954
  0
VERTEX
  8
0
 10
372.276400
 20
72.000000
 42
-0.047385
  0
VERTEX
  8
0
 10
375.972885
 20
71.648895
 42
-0.005577
  0
VERTEX
  8
0
 10
384.083307
 20
70.000168
 42
-0.006251
  0
VERTEX
  8
0
 10
392.132233
 20
68.164676
 42
-0.035945
  0
VERTEX
  8
0
 10
396.295266
 20
66.837710
 42
-0.112126
  0
VERTEX
  8
0
 10
399.464799
 20
64.651837
 42
-0.034229
  0
VERTEX
  8
0
 10
403.128782
 20
60.077099
 42
-0.034028
  0
VERTEX
  8
0
 10
406.125645
 20
55.064391
 42
-0.118249
  0
VERTEX
  8
0
 10
407.000000
 20
51.418996
 42
-0.027493
  0
VERTEX
  8
0
 10
406.842411
 20
48.555182
 42
-0.073462
  0
VERTEX
  8
0
 10
406.324810
 20
46.582543
 42
-0.120975
  0
VERTEX
  8
0
 10
405.457197
 20
45.427039
 42
-0.173194
  0
VERTEX
  8
0
 10
404.261342
 20
45.000000
 42
-0.155774
  0
VERTEX
  8
0
 10
403.557191
 20
45.224833
 42
-0.177502
  0
VERTEX
  8
0
 10
403.158576
 20
45.805836
 42
-0.080140
  0
VERTEX
  8
0
 10
403.058157
 20
46.918115
 42
-0.015860
  0
VERTEX
  8
0
 10
403.261773
 20
48.914998
 42
0.028484
  0
VERTEX
  8
0
 10
403.428696
 20
51.096175
 42
0.084545
  0
VERTEX
  8
0
 10
403.206359
 20
52.574665
 42
0.089092
  0
VERTEX
  8
0
 10
402.515558
 20
53.852293
 42
0.033924
  0
VERTEX
  8
0
 10
401.143442
 20
55.351379
 42
0.026650
  0
VERTEX
  8
0
 10
399.925909
 20
56.394677
 42
0.018521
  0
VERTEX
  8
0
 10
398.449576
 20
57.444545
 42
0.018733
  0
VERTEX
  8
0
 10
396.953093
 20
58.349039
 42
0.036254
  0
VERTEX
  8
0
 10
395.684900
 20
58.936382
 42
0.073710
  0
VERTEX
  8
0
 10
390.620731
 20
60.037457
 42
0.092146
  0
VERTEX
  8
0
 10
385.851591
 20
59.477710
 42
0.235469
  0
VERTEX
  8
0
 10
383.957934
 20
57.666604
 42
0.328074
  0
VERTEX
  8
0
 10
384.601615
 20
55.500548
 42
0.034590
  0
VERTEX
  8
0
 10
385.447001
 20
54.948164
 42
0.028425
  0
VERTEX
  8
0
 10
386.416797
 20
54.476366
 42
0.029322
  0
VERTEX
  8
0
 10
387.361270
 20
54.145116
 42
0.064842
  0
VERTEX
  8
0
 10
388.115141
 20
54.031803
 42
-0.159528
  0
VERTEX
  8
0
 10
391.262403
 20
52.932366
 42
-0.062213
  0
VERTEX
  8
0
 10
394.588396
 20
49.663501
 42
-0.060557
  0
VERTEX
  8
0
 10
397.145844
 20
45.481217
 42
-0.107376
  0
VERTEX
  8
0
 10
398.000000
 20
41.549660
 42
0.065362
  0
VERTEX
  8
0
 10
398.242570
 20
39.701997
 42
0.335806
  0
VERTEX
  8
0
 10
399.007231
 20
39.106364
 42
0.217114
  0
VERTEX
  8
0
 10
400.134295
 20
39.601279
 42
0.037366
  0
VERTEX
  8
0
 10
401.591957
 20
41.500000
 42
-0.029600
  0
VERTEX
  8
0
 10
402.302432
 20
42.455792
 42
-0.035461
  0
VERTEX
  8
0
 10
403.082242
 20
43.261127
 42
-0.038195
  0
VERTEX
  8
0
 10
403.819422
 20
43.826498
 42
-0.148934
  0
VERTEX
  8
0
 10
404.365010
 20
43.984687
 42
-0.050128
  0
VERTEX
  8
0
 10
404.795543
 20
43.935540
 42
-0.303561
  0
VERTEX
  8
0
 10
404.943741
 20
43.781946
 42
-0.245842
  0
VERTEX
  8
0
 10
404.872242
 20
43.554077
 42
-0.037768
  0
VERTEX
  8
0
 10
404.500000
 20
43.234687
 42
0.064697
  0
VERTEX
  8
0
 10
404.092684
 20
42.845343
 42
0.035136
  0
VERTEX
  8
0
 10
403.696169
 20
42.276197
 42
0.034340
  0
VERTEX
  8
0
 10
403.368393
 20
41.630286
 42
0.045662
  0
VERTEX
  8
0
 10
403.167810
 20
41.003430
 42
-0.066121
  0
VERTEX
  8
0
 10
402.611823
 20
39.482544
 42
-0.068991
  0
VERTEX
  8
0
 10
401.683996
 20
38.183696
 42
-0.076851
  0
VERTEX
  8
0
 10
400.546706
 20
37.302236
 42
-0.127164
  0
VERTEX
  8
0
 10
399.377555
 20
37.000000
 42
0.069976
  0
VERTEX
  8
0
 10
398.851072
 20
36.925955
 42
0.085829
  0
VERTEX
  8
0
 10
398.404657
 20
36.709935
 42
0.100120
  0
VERTEX
  8
0
 10
398.106188
 20
36.389099
 42
0.138302
  0
VERTEX
  8
0
 10
398.000000
 20
36.012545
 42
-0.249059
  0
VERTEX
  8
0
 10
397.259517
 20
34.618191
 42
-0.016507
  0
VERTEX
  8
0
 10
393.287142
 20
32.119868
 42
-0.021281
  0
VERTEX
  8
0
 10
388.198738
 20
29.432837
 42
-0.015608
  0
VERTEX
  8
0
 10
382.349244
 20
26.875979
 42
-0.047508
  0
VERTEX
  8
0
 10
367.497180
 20
22.509807
 42
-0.054629
  0
VERTEX
  8
0
 10
352.776679
 20
21.302563
 42
-0.063398
  0
VERTEX
  8
0
 10
340.588468
 20
23.193875
 42
-0.171453
  0
VERTEX
  8
0
 10
333.566082
 20
28.209118
 42
-0.134281
  0
VERTEX
  8
0
 10
332.101193
 20
32.297594
 42
-0.105589
  0
VERTEX
  8
0
 10
332.729227
 20
36.980520
 42
-0.090393
  0
VERTEX
  8
0
 10
335.395931
 20
41.595005
 42
-0.070588
  0
VERTEX
  8
0
 10
339.734430
 20
45.442952
 42
-0.059345
  0
VERTEX
  8
0
 10
343.929435
 20
47.553087
 42
-0.017728
  0
VERTEX
  8
0
 10
350.757631
 20
49.755805
 42
-0.018137
  0
VERTEX
  8
0
 10
357.809395
 20
51.483964
 42
-0.049526
  0
VERTEX
  8
0
 10
362.909963
 20
52.021962
 42
0.077941
  0
VERTEX
  8
0
 10
367.672066
 20
52.798699
 42
0.041973
  0
VERTEX
  8
0
 10
373.160498
 20
55.126605
 42
0.039419
  0
VERTEX
  8
0
 10
377.767467
 20
58.039664
 42
0.236295
  0
VERTEX
  8
0
 10
379.000000
 20
60.502077
 42
0.386885
  0
VERTEX
  8
0
 10
378.680152
 20
60.853568
 42
0.080826
  0
VERTEX
  8
0
 10
377.772297
 20
60.792557
 42
0.041440
  0
VERTEX
  8
0
 10
376.301438
 20
60.319392
 42
0.014059
  0
VERTEX
  8
0
 10
374.250000
 20
59.397889
 42
-0.052877
  0
VERTEX
  8
0
 10
367.943972
 20
57.134188
 42
-0.017092
  0
VERTEX
  8
0
 10
358.217317
 20
55.113744
 42
-0.015428
  0
VERTEX
  8
0
 10
348.556433
 20
53.754523
 42
-0.084449
  0
VERTEX
  8
0
 10
343.312842
 20
54.067281
 42
0.038699
  0
VERTEX
  8
0
 10
341.030867
 20
54.413834
 42
0.005828
  0
VERTEX
  8
0
 10
336.409606
 20
54.699324
 42
0.006511
  0
VERTEX
  8
0
 10
330.933916
 20
54.902135
 42
0.005584
  0
VERTEX
  8
0
 10
325.166667
 20
54.976143
 42
-0.004914
  0
VERTEX
  8
0
 10
319.695301
 20
55.039023
 42
-0.008505
  0
VERTEX
  8
0
 10
315.150493
 20
55.213305
 42
-0.003209
  0
VERTEX
  8
0
 10
311.372564
 20
55.446909
 42
-0.531399
  0
VERTEX
  8
0
 10
311.196714
 20
55.750000
 42
0.004955
  0
VERTEX
  8
0
 10
313.263160
 20
60.124998
 42
0.005492
  0
VERTEX
  8
0
 10
315.171136
 20
64.393180
 42
0.002375
  0
VERTEX
  8
0
 10
316.822683
 20
68.249453
 42
0.100307
  0
VERTEX
  8
0
 10
317.000000
 20
69.124430
 42
-0.351392
  0
VERTEX
  8
0
 10
317.276505
 20
69.469291
 42
-0.018560
  0
VERTEX
  8
0
 10
318.762500
 20
69.742801
 42
-0.022522
  0
VERTEX
  8
0
 10
320.699749
 20
69.936919
 42
-0.013709
  0
VERTEX
  8
0
 10
323.000000
 20
70.000000
 42
-0.015443
  0
VERTEX
  8
0
 10
327.259526
 20
69.868410
 42
-0.216560
  0
VERTEX
  8
0
 10
328.579557
 20
69.167199
 42
-0.219269
  0
VERTEX
  8
0
 10
328.910357
 20
67.716901
 42
-0.015848
  0
VERTEX
  8
0
 10
327.911224
 20
63.618913
 42
0.018588
  0
VERTEX
  8
0
 10
327.407790
 20
61.503754
 42
0.073088
  0
VERTEX
  8
0
 10
327.340211
 20
60.168723
 42
0.106529
  0
VERTEX
  8
0
 10
327.666282
 20
59.142309
 42
0.066484
  0
VERTEX
  8
0
 10
328.435565
 20
58.135864
 42
0.171451
  0
VERTEX
  8
0
 10
330.203038
 20
57.291218
 42
0.204009
  0
VERTEX
  8
0
 10
331.957754
 20
57.826903
 42
0.099500
  0
VERTEX
  8
0
 10
333.723201
 20
60.038623
 42
0.027789
  0
VERTEX
  8
0
 10
335.536754
 20
64.102459
 42
0.000000
  0
VERTEX
  8
0
 10
337.594205
 20
69.500000
 42
0.000000
  0
VERTEX
  8
0
 10
346.547103
 20
70.541541
 42
-0.004456
  0
VERTEX
  8
0
 10
353.093889
 20
71.244094
 42
-0.055986
  0
VERTEX
  8
0
 10
355.577656
 20
71.209659
 42
-0.411454
  0
VERTEX
  8
0
 10
356.098854
 20
70.544162
 42
-0.168855
  0
SEQEND
  0
POLYLINE
  8
0
 66
1
 70
1
  0
VERTEX
  8
0
 10
172.035184
 20
65.065741
 42
0.082487
  0
VERTEX
  8
0
 10
171.237628
 20
62.712712
 42
0.050273
  0
VERTEX
  8
0
 10
171.056142
 20
59.776587
 42
0.048743
  0
VERTEX
  8
0
 10
171.472157
 20
56.739654
 42
0.061001
  0
VERTEX
  8
0
 10
172.461040
 20
54.075340
 42
-0.010423
  0
VERTEX
  8
0
 10
173.354060
 20
52.256481
 42
-0.198500
  0
VERTEX
  8
0
 10
173.381112
 20
51.637155
 42
-0.292243
  0
VERTEX
  8
0
 10
172.960818
 20
51.315058
 42
-0.021313
  0
VERTEX
  8
0
 10
171.435295
 20
51.250000
 42
-0.140858
  0
VERTEX
  8
0
 10
169.087875
 20
51.924692
 42
-0.090298
  0
VERTEX
  8
0
 10
166.979439
 20
53.849328
 42
-0.081238
  0
VERTEX
  8
0
 10
165.508193
 20
56.616206
 42
-0.081830
  0
VERTEX
  8
0
 10
165.000000
 20
59.700600
 42
-0.044046
  0
VERTEX
  8
0
 10
165.291713
 20
63.005615
 42
-0.108179
  0
VERTEX
  8
0
 10
166.217391
 20
65.247420
 42
-0.141524
  0
VERTEX
  8
0
 10
167.807267
 20
66.539689
 42
-0.100669
  0
VERTEX
  8
0
 10
170.070368
 20
67.000000
 42
-0.015732
  0
VERTEX
  8
0
 10
171.786246
 20
66.946000
 42
-0.180586
  0
VERTEX
  8
0
 10
172.392525
 20
66.675077
 42
-0.290480
  0
VERTEX
  8
0
 10
172.513563
 20
66.153045
 42
-0.038477
  0
SEQEND
  0
POLYLINE
  8
0
 66
1
 70
1
  0
VERTEX
  8
0
 10
160.184674
 20
60.139295
 42
0.036394
  0
VERTEX
  8
0
 10
160.136928
 20
58.000768
 42
0.074546
  0
VERTEX
  8
0
 10
160.468081
 20
56.360818
 42
0.067627
  0
VERTEX
  8
0
 10
161.291549
 20
54.791042
 42
0.025598
  0
VERTEX
  8
0
 10
162.831391
 20
52.844816
 42
-0.027795
  0
VERTEX
  8
0
 10
163.972533
 20
51.389423
 42
-0.030306
  0
VERTEX
  8
0
 10
164.909799
 20
49.856534
 42
-0.031769
  0
VERTEX
  8
0
 10
165.541404
 20
48.459778
 42
-0.113287
  0
VERTEX
  8
0
 10
165.673142
 20
47.493836
 42
0.084533
  0
VERTEX
  8
0
 10
165.738192
 20
46.667930
 42
0.105266
  0
VERTEX
  8
0
 10
166.077196
 20
45.978544
 42
0.101871
  0
VERTEX
  8
0
 10
166.678188
 20
45.471336
 42
0.074793
  0
VERTEX
  8
0
 10
167.500000
 20
45.172633
 42
-0.066861
  0
VERTEX
  8
0
 10
169.086294
 20
44.624248
 42
-0.134356
  0
VERTEX
  8
0
 10
170.062829
 20
43.744197
 42
-0.136881
  0
VERTEX
  8
0
 10
170.444566
 20
42.501944
 42
-0.070577
  0
VERTEX
  8
0
 10
170.256726
 20
40.873718
 42
-0.072097
  0
VERTEX
  8
0
 10
169.487464
 20
39.052834
 42
-0.406750
  0
VERTEX
  8
0
 10
168.562334
 20
38.812165
 42
-0.136434
  0
VERTEX
  8
0
 10
167.377207
 20
40.006603
 42
-0.013820
  0
VERTEX
  8
0
 10
165.502822
 20
43.583759
 42
0.015526
  0
VERTEX
  8
0
 10
164.356166
 20
45.754048
 42
0.019848
  0
VERTEX
  8
0
 10
163.161264
 20
47.673552
 42
0.018126
  0
VERTEX
  8
0
 10
162.060404
 20
49.174740
 42
0.134654
  0
VERTEX
  8
0
 10
161.353562
 20
49.694567
 42
-0.141809
  0
VERTEX
  8
0
 10
159.963196
 20
50.747470
 42
-0.039746
  0
VERTEX
  8
0
 10
158.497305
 20
53.078035
 42
-0.040593
  0
VERTEX
  8
0
 10
157.365694
 20
55.748072
 42
-0.080103
  0
VERTEX
  8
0
 10
157.000000
 20
58.016082
 42
-0.065605
  0
VERTEX
  8
0
 10
157.246096
 20
59.883610
 42
-0.044330
  0
VERTEX
  8
0
 10
157.984966
 20
61.903708
 42
-0.043421
  0
VERTEX
  8
0
 10
158.938955
 20
63.546809
 42
-0.244180
  0
VERTEX
  8
0
 10
159.811610
 20
64.000000
 42
-0.351030
  0
VERTEX
  8
0
 10
160.080173
 20
63.784954
 42
-0.031034
  0
VERTEX
  8
0
 10
160.226960
 20
62.865918
 42
-0.029937
  0
VERTEX
  8
0
 10
160.272446
 20
61.619436
 42
-0.017926
  0
SEQEND
  0
POLYLINE
  8
0
 66
1
 70
1
  0
VERTEX
  8
0
 10
61.558672
 20
49.225338
 42
0.262569
  0
VERTEX
  8
0
 10
61.477801
 20
48.935223
 42
0.081852
  0
VERTEX
  8
0
 10
61.662544
 20
48.504322
 42
0.057761
  0
VERTEX
  8
0
 10
62.069915
 20
48.004425
 42
0.035080
  0
VERTEX
  8
0
 10
62.653144
 20
47.511677
 42
-0.062930
  0
VERTEX
  8
0
 10
63.239718
 20
46.957434
 42
-0.063887
  0
VERTEX
  8
0
 10
63.666504
 20
46.277360
 42
-0.070294
  0
VERTEX
  8
0
 10
63.876506
 20
45.579946
 42
-0.119025
  0
VERTEX
  8
0
 10
63.825100
 20
44.975300
 42
-0.150253
  0
VERTEX
  8
0
 10
63.478788
 20
44.490233
 42
-0.244676
  0
VERTEX
  8
0
 10
62.991776
 20
44.405344
 42
-0.100573
  0
VERTEX
  8
0
 10
62.279172
 20
44.801912
 42
-0.019278
  0
VERTEX
  8
0
 10
61.187500
 20
45.812500
 42
-0.051313
  0
VERTEX
  8
0
 10
59.684595
 20
47.660171
 42
-0.110220
  0
VERTEX
  8
0
 10
59.039842
 20
49.369102
 42
-0.300760
  0
VERTEX
  8
0
 10
59.457281
 20
50.248733
 42
-0.231457
  0
VERTEX
  8
0
 10
60.543128
 20
50.345077
 42
-0.039946
  0
VERTEX
  8
0
 10
61.096942
 20
50.080106
 42
-0.077165
  0
VERTEX
  8
0
 10
61.477984
 20
49.771890
 42
-0.130962
  0
VERTEX
  8
0
 10
61.631532
 20
49.474195
 42
-0.255650
  0
SEQEND
  0
POLYLINE
  8
0
 66
1
 70
1
  0
VERTEX
  8
0
 10
171.918781
 20
28.635190
 42
-0.731059
  0
VERTEX
  8
0
 10
171.506840
 20
28.535762
 42
-0.031540
  0
VERTEX
  8
0
 10
170.461932
 20
30.532906
 42
-0.020694
  0
VERTEX
  8
0
 10
169.385235
 20
33.247549
 42
-0.083251
  0
VERTEX
  8
0
 10
169.084246
 20
35.000000
 42
-0.379217
  0
VERTEX
  8
0
 10
169.243148
 20
35.180827
 42
-0.264195
  0
VERTEX
  8
0
 10
169.509162
 20
35.070962
 42
-0.048640
  0
VERTEX
  8
0
 10
169.975645
 20
34.335658
 42
-0.014634
  0
VERTEX
  8
0
 10
170.539142
 20
33.135190
 42
-0.013067
  0
VERTEX
  8
0
 10
171.092449
 20
31.763721
 42
-0.014963
  0
VERTEX
  8
0
 10
171.547015
 20
30.425331
 42
-0.014177
  0
VERTEX
  8
0
 10
171.864544
 20
29.274149
 42
-0.078211
  0
SEQEND
  0
POLYLINE
  8
0
 66
1
 70
1
  0
VERTEX
  8
0
 10
116.000000
 20
24.099498
 42
0.389348
  0
VERTEX
  8
0
 10
116.532682
 20
23.519128
 42
0.001968
  0
VERTEX
  8
0
 10
125.044699
 20
22.822144
 42
0.003050
  0
VERTEX
  8
0
 10
133.352215
 20
22.225771
 42
0.166294
  0
VERTEX
  8
0
 10
134.850136
 20
22.630683
 42
0.246421
  0
VERTEX
  8
0
 10
134.938945
 20
22.795591
 42
0.060996
  0
VERTEX
  8
0
 10
134.903793
 20
23.110832
 42
0.048316
  0
VERTEX
  8
0
 10
134.768090
 20
23.507726
 42
0.031903
  0
VERTEX
  8
0
 10
134.541119
 20
23.933469
 42
0.250568
  0
VERTEX
  8
0
 10
133.027488
 20
24.812614
 42
0.006554
  0
VERTEX
  8
0
 10
124.968756
 20
24.990437
 42
0.005732
  0
VERTEX
  8
0
 10
116.858513
 20
24.970091
 42
0.410127
  0
SEQEND
  0
POLYLINE
  8
0
 66
1
 70
1
  0
VERTEX
  8
0
 10
196.701850
 20
233.368517
 42
0.298550
  0
VERTEX
  8
0
 10
196.442099
 20
232.120151
 42
0.086170
  0
VERTEX
  8
0
 10
197.518107
 20
230.353346
 42
0.061369
  0
VERTEX
  8
0
 10
199.616458
 20
228.478233
 42
0.045152
  0
VERTEX
  8
0
 10
202.330682
 20
226.936948
 42
0.062472
  0
VERTEX
  8
0
 10
206.605961
 20
225.607775
 42
0.033035
  0
VERTEX
  8
0
 10
212.134288
 20
224.993856
 42
0.030324
  0
VERTEX
  8
0
 10
216.967961
 20
225.071581
 42
0.487948
  0
VERTEX
  8
0
 10
217.750152
 20
226.249543
 42
0.192175
  0
VERTEX
  8
0
 10
217.306379
 20
226.774839
 42
0.032315
  0
VERTEX
  8
0
 10
216.083277
 20
227.328390
 42
0.031337
  0
VERTEX
  8
0
 10
214.480546
 20
227.820199
 42
0.023255
  0
VERTEX
  8
0
 10
212.660575
 20
228.167538
 42
-0.031373
  0
VERTEX
  8
0
 10
210.537811
 20
228.608472
 42
-0.017240
  0
VERTEX
  8
0
 10
208.003185
 20
229.398096
 42
-0.017128
  0
VERTEX
  8
0
 10
205.476791
 20
230.380124
 42
-0.026174
  0
VERTEX
  8
0
 10
203.367803
 20
231.417995
 42
0.006456
  0
VERTEX
  8
0
 10
200.159797
 20
233.157011
 42
0.049834
  0
VERTEX
  8
0
 10
198.578301
 20
233.796486
 42
0.124852
  0
VERTEX
  8
0
 10
197.555582
 20
233.833569
 42
0.144295
  0
SEQEND
  0
POLYLINE
  8
0
 66
1
 70
1
  0
VERTEX
  8
0
 10
161.000000
 20
227.921052
 42
-0.033432
  0
VERTEX
  8
0
 10
159.333955
 20
226.676975
 42
-0.020002
  0
VERTEX
  8
0
 10
157.206250
 20
225.417238
 42
-0.019979
  0
VERTEX
  8
0
 10
154.977615
 20
224.327981
 42
-0.032524
  0
VERTEX
  8
0
 10
153.000000
 20
223.606919
 42
0.023594
  0
VERTEX
  8
0
 10
149.916800
 20
222.544690
 42
0.201020
  0
VERTEX
  8
0
 10
148.894482
 20
221.541976
 42
0.435936
  0
VERTEX
  8
0
 10
149.276832
 20
220.694607
 42
0.050367
  0
VERTEX
  8
0
 10
151.555856
 20
220.175188
 42
0.128205
  0
VERTEX
  8
0
 10
156.071514
 20
220.772819
 42
0.049455
  0
VERTEX
  8
0
 10
161.704884
 20
223.744592
 42
0.050898
  0
VERTEX
  8
0
 10
166.170437
 20
227.399981
 42
0.347196
  0
VERTEX
  8
0
 10
166.474860
 20
230.040677
 42
0.144315
  0
VERTEX
  8
0
 10
165.720575
 20
230.716476
 42
0.206175
  0
VERTEX
  8
0
 10
164.834192
 20
230.749524
 42
0.075294
  0
VERTEX
  8
0
 10
163.521778
 20
229.998628
 42
0.009562
  0
SEQEND
  0
POLYLINE
  8
0
 66
1
 70
1
  0
VERTEX
  8
0
 10
194.550891
 20
219.655609
 42
0.023924
  0
VERTEX
  8
0
 10
192.988117
 20
217.389662
 42
0.061833
  0
VERTEX
  8
0
 10
192.157274
 20
215.589547
 42
0.143882
  0
VERTEX
  8
0
 10
192.131596
 20
214.478405
 42
0.343811
  0
VERTEX
  8
0
 10
192.750000
 20
214.012379
 42
0.228110
  0
VERTEX
  8
0
 10
193.433641
 20
214.355398
 42
0.005278
  0
VERTEX
  8
0
 10
195.672092
 20
217.320534
 42
0.011775
  0
VERTEX
  8
0
 10
197.733873
 20
220.254594
 42
0.042718
  0
VERTEX
  8
0
 10
198.833333
 20
222.250000
 42
0.385430
  0
VERTEX
  8
0
 10
198.635170
 20
222.852936
 42
0.271966
  0
VERTEX
  8
0
 10
197.878516
 20
222.842644
 42
0.058714
  0
VERTEX
  8
0
 10
196.213047
 20
221.544771
 42
0.034994
  0
SEQEND
  0
POLYLINE
  8
0
 66
1
 70
1
  0
VERTEX
  8
0
 10
252.419544
 20
219.577174
 42
-0.066101
  0
VERTEX
  8
0
 10
252.548592
 20
217.164422
 42
-0.250736
  0
VERTEX
  8
0
 10
251.760587
 20
215.934805
 42
-0.094833
  0
VERTEX
  8
0
 10
249.672339
 20
215.241775
 42
-0.006146
  0
VERTEX
  8
0
 10
243.295322
 20
214.479033
 42
0.026536
  0
VERTEX
  8
0
 10
238.669359
 20
213.733398
 42
0.107996
  0
VERTEX
  8
0
 10
236.091761
 20
212.557406
 42
0.394526
  0
VERTEX
  8
0
 10
235.862878
 20
211.270789
 42
0.159321
  0
VERTEX
  8
0
 10
237.380153
 20
210.045566
 42
0.050966
  0
VERTEX
  8
0
 10
241.599816
 20
208.916363
 42
0.024713
  0
VERTEX
  8
0
 10
247.157088
 20
208.301349
 42
0.017055
  0
VERTEX
  8
0
 10
252.467840
 20
208.159537
 42
0.257956
  0
VERTEX
  8
0
 10
254.020111
 20
209.032541
 42
-0.597644
  0
VERTEX
  8
0
 10
254.801502
 20
208.985485
 42
-0.060508
  0
VERTEX
  8
0
 10
255.534712
 20
206.715389
 42
-0.038344
  0
VERTEX
  8
0
 10
255.918574
 20
203.389001
 42
-0.071156
  0
VERTEX
  8
0
 10
255.637516
 20
200.691884
 42
-0.115012
  0
VERTEX
  8
0
 10
254.968420
 20
199.390580
 42
-0.151081
  0
VERTEX
  8
0
 10
253.847966
 20
198.677195
 42
-0.054887
  0
VERTEX
  8
0
 10
251.685147
 20
198.333915
 42
-0.005110
  0
VERTEX
  8
0
 10
246.277458
 20
198.130910
 42
0.007264
  0
VERTEX
  8
0
 10
242.862800
 20
197.987987
 42
0.010699
  0
VERTEX
  8
0
 10
239.870298
 20
197.754826
 42
0.006267
  0
VERTEX
  8
0
 10
237.384557
 20
197.476034
 42
0.166015
  0
VERTEX
  8
0
 10
236.791641
 20
197.187240
 42
0.399608
  0
VERTEX
  8
0
 10
236.743582
 20
195.482112
 42
0.078332
  0
VERTEX
  8
0
 10
239.361795
 20
193.354918
 42
0.058239
  0
VERTEX
  8
0
 10
243.412247
 20
191.596379
 42
0.073446
  0
VERTEX
  8
0
 10
247.450340
 20
191.000000
 42
-0.020307
  0
VERTEX
  8
0
 10
250.085202
 20
190.892945
 42
-0.304589
  0
VERTEX
  8
0
 10
250.769073
 20
190.348314
 42
-0.207658
  0
VERTEX
  8
0
 10
250.664082
 20
189.328223
 42
-0.010380
  0
VERTEX
  8
0
 10
248.918441
 20
186.368034
 42
-0.029190
  0
VERTEX
  8
0
 10
247.229924
 20
183.962079
 42
-0.186395
  0
VERTEX
  8
0
 10
245.968667
 20
183.219804
 42
-0.144353
  0
VERTEX
  8
0
 10
244.356419
 20
183.419689
 42
-0.015419
  0
VERTEX
  8
0
 10
240.907083
 20
185.047403
 42
0.042788
  0
VERTEX
  8
0
 10
234.823538
 20
187.521234
 42
0.024363
  0
VERTEX
  8
0
 10
227.128425
 20
189.502360
 42
0.023460
  0
VERTEX
  8
0
 10
218.788525
 20
190.817064
 42
0.026566
  0
VERTEX
  8
0
 10
210.702174
 20
191.272982
 42
0.009403
  0
VERTEX
  8
0
 10
206.876755
 20
191.213287
 42
0.013485
  0
VERTEX
  8
0
 10
203.492647
 20
191.005322
 42
0.009279
  0
VERTEX
  8
0
 10
200.712461
 20
190.706976
 42
0.166498
  0
VERTEX
  8
0
 10
199.917752
 20
190.317752
 42
0.576629
  0
VERTEX
  8
0
 10
200.036209
 20
189.873744
 42
0.034451
  0
VERTEX
  8
0
 10
201.724148
 20
189.540206
 42
0.021010
  0
VERTEX
  8
0
 10
204.611500
 20
189.296515
 42
0.006521
  0
VERTEX
  8
0
 10
208.966770
 20
189.169547
 42
-0.008396
  0
VERTEX
  8
0
 10
213.157257
 20
189.031653
 42
-0.007777
  0
VERTEX
  8
0
 10
217.449384
 20
188.751233
 42
-0.007787
  0
VERTEX
  8
0
 10
221.261137
 20
188.382762
 42
-0.025694
  0
VERTEX
  8
0
 10
223.751192
 20
187.972440
 42
-0.018072
  0
VERTEX
  8
0
 10
229.571518
 20
186.481099
 42
-0.010197
  0
VERTEX
  8
0
 10
236.518400
 20
184.275982
 42
-0.003090
  0
VERTEX
  8
0
 10
243.444620
 20
181.873058
 42
-0.317760
  0
VERTEX
  8
0
 10
244.000000
 20
181.087398
 42
-0.201803
  0
VERTEX
  8
0
 10
243.821587
 20
180.663352
 42
-0.011228
  0
VERTEX
  8
0
 10
242.751563
 20
179.662861
 42
-0.015879
  0
VERTEX
  8
0
 10
241.378384
 20
178.511830
 42
-0.010839
  0
VERTEX
  8
0
 10
239.750000
 20
177.288798
 42
0.000000
  0
VERTEX
  8
0
 10
235.500000
 20
174.238556
 42
0.000000
  0
VERTEX
  8
0
 10
232.031902
 20
176.616755
 42
0.039394
  0
VERTEX
  8
0
 10
227.015001
 20
179.504860
 42
0.021010
  0
VERTEX
  8
0
 10
220.421114
 20
182.305001
 42
0.020984
  0
VERTEX
  8
0
 10
213.711937
 20
184.510525
 42
0.045346
  0
VERTEX
  8
0
 10
208.376103
 20
185.509140
 42
0.000000
  0
VERTEX
  8
0
 10
202.500000
 20
186.065394
 42
0.000000
  0
VERTEX
  8
0
 10
210.949330
 20
183.482480
 42
-0.013175
  0
VERTEX
  8
0
 10
214.680653
 20
182.233438
 42
-0.008607
  0
VERTEX
  8
0
 10
218.918384
 20
180.606425
 42
-0.008658
  0
VERTEX
  8
0
 10
222.997414
 20
178.876504
 42
-0.016352
  0
VERTEX
  8
0
 10
226.213008
 20
177.318727
 42
-0.017050
  0
VERTEX
  8
0
 10
230.947379
 20
174.621038
 42
-0.220198
  0
VERTEX
  8
0
 10
232.042383
 20
172.968864
 42
-0.330920
  0
VERTEX
  8
0
 10
231.278347
 20
171.527206
 42
-0.031393
  0
VERTEX
  8
0
 10
227.340784
 20
169.947454
 42
-0.030993
  0
VERTEX
  8
0
 10
225.215758
 20
169.389409
 42
-0.109847
  0
VERTEX
  8
0
 10
223.815083
 20
169.422999
 42
-0.090699
  0
VERTEX
  8
0
 10
222.417726
 20
170.053226
 42
-0.017291
  0
VERTEX
  8
0
 10
220.170776
 20
171.723314
 42
0.029441
  0
VERTEX
  8
0
 10
214.454189
 20
175.760533
 42
0.020013
  0
VERTEX
  8
0
 10
207.524450
 20
179.691602
 42
0.012782
  0
VERTEX
  8
0
 10
201.070628
 20
182.812555
 42
0.544895
  0
VERTEX
  8
0
 10
200.000000
 20
182.121828
 42
0.196377
  0
VERTEX
  8
0
 10
200.158428
 20
181.734006
 42
0.055568
  0
VERTEX
  8
0
 10
200.674077
 20
181.313481
 42
0.046953
  0
VERTEX
  8
0
 10
201.416238
 20
180.927785
 42
0.034898
  0
VERTEX
  8
0
 10
202.294730
 20
180.640875
 42
-0.071245
  0
VERTEX
  8
0
 10
205.055594
 20
179.511960
 42
-0.010007
  0
VERTEX
  8
0
 10
210.316849
 20
176.283235
 42
-0.011934
  0
VERTEX
  8
0
 10
215.518257
 20
172.768137
 42
-0.037141
  0
VERTEX
  8
0
 10
218.772174
 20
170.069344
 42
-0.032248
  0
VERTEX
  8
0
 10
219.599661
 20
169.162485
 42
-0.044962
  0
VERTEX
  8
0
 10
220.206172
 20
168.247427
 42
-0.053217
  0
VERTEX
  8
0
 10
220.532720
 20
167.451048
 42
-0.212194
  0
VERTEX
  8
0
 10
220.463157
 20
166.940387
 42
0.208692
  0
VERTEX
  8
0
 10
220.412298
 20
166.584878
 42
0.179372
  0
VERTEX
  8
0
 10
220.634672
 20
166.276239
 42
0.101590
  0
VERTEX
  8
0
 10
221.144687
 20
166.067196
 42
0.046660
  0
VERTEX
  8
0
 10
221.863177
 20
166.000000
 42
-0.137707
  0
VERTEX
  8
0
 10
222.897460
 20
165.709637
 42
-0.029512
  0
VERTEX
  8
0
 10
224.444203
 20
164.636874
 42
-0.028069
  0
VERTEX
  8
0
 10
226.180553
 20
163.109296
 42
-0.021137
  0
VERTEX
  8
0
 10
227.915738
 20
161.250000
 42
0.008697
  0
VERTEX
  8
0
 10
231.079859
 20
157.685822
 42
0.450340
  0
VERTEX
  8
0
 10
231.902690
 20
157.701358
 42
0.349134
  0
VERTEX
  8
0
 10
231.935669
 20
158.675631
 42
0.008383
  0
VERTEX
  8
0
 10
228.990693
 20
162.511712
 42
0.000000
  0
VERTEX
  8
0
 10
225.981385
 20
166.298433
 42
0.000000
  0
VERTEX
  8
0
 10
231.629702
 20
168.594080
 42
0.000000
  0
VERTEX
  8
0
 10
237.278018
 20
170.889728
 42
0.000000
  0
VERTEX
  8
0
 10
240.639009
 20
168.326175
 42
0.018392
  0
VERTEX
  8
0
 10
241.929532
 20
167.414907
 42
0.037838
  0
VERTEX
  8
0
 10
243.012709
 20
166.819780
 42
0.063122
  0
VERTEX
  8
0
 10
243.752618
 20
166.590343
 42
0.466331
  0
VERTEX
  8
0
 10
244.000000
 20
166.797905
 42
0.153438
  0
VERTEX
  8
0
 10
243.836455
 20
167.318292
 42
0.030117
  0
VERTEX
  8
0
 10
243.220711
 20
168.096745
 42
0.029392
  0
VERTEX
  8
0
 10
242.362763
 20
168.949897
 42
0.023570
  0
VERTEX
  8
0
 10
241.347102
 20
169.765688
 42
0.000000
  0
VERTEX
  8
0
 10
238.694204
 20
171.698190
 42
0.000000
  0
VERTEX
  8
0
 10
244.309160
 20
175.599095
 42
0.008859
  0
VERTEX
  8
0
 10
246.463503
 20
177.153097
 42
0.013210
  0
VERTEX
  8
0
 10
248.285867
 20
178.594021
 42
0.008194
  0
VERTEX
  8
0
 10
249.738434
 20
179.847205
 42
0.201706
  0
VERTEX
  8
0
 10
249.962057
 20
180.316722
 42
-0.116045
  0
VERTEX
  8
0
 10
250.098917
 20
180.797222
 42
-0.011339
  0
VERTEX
  8
0
 10
250.714416
 20
181.844792
 42
-0.013874
  0
VERTEX
  8
0
 10
251.521269
 20
183.071922
 42
-0.010555
  0
VERTEX
  8
0
 10
252.469997
 20
184.371777
 42
0.037361
  0
VERTEX
  8
0
 10
255.325791
 20
188.760114
 42
0.040811
  0
VERTEX
  8
0
 10
257.401475
 20
193.400030
 42
0.041516
  0
VERTEX
  8
0
 10
258.669028
 20
198.240986
 42
0.041444
  0
VERTEX
  8
0
 10
259.120376
 20
203.227643
 42
0.018397
  0
VERTEX
  8
0
 10
258.967527
 20
208.431163
 42
0.041597
  0
VERTEX
  8
0
 10
258.381742
 20
212.325484
 42
0.048119
  0
VERTEX
  8
0
 10
257.228627
 20
215.707328
 42
0.033892
  0
VERTEX
  8
0
 10
255.327478
 20
219.250000
 42
0.009516
  0
VERTEX
  8
0
 10
253.336627
 20
222.293200
 42
0.218481
  0
VERTEX
  8
0
 10
252.467325
 20
222.816939
 42
0.481572
  0
VERTEX
  8
0
 10
252.003197
 20
222.352667
 42
0.018276
  0
SEQEND
  0
POLYLINE
  8
0
 66
1
 70
1
  0
VERTEX
  8
0
 10
169.312769
 20
216.750000
 42
0.000740
  0
VERTEX
  8
0
 10
169.618936
 20
215.973740
 42
0.000494
  0
VERTEX
  8
0
 10
169.971709
 20
215.085737
 42
0.000497
  0
VERTEX
  8
0
 10
170.315461
 20
214.225417
 42
0.000977
  0
VERTEX
  8
0
 10
170.590921
 20
213.541872
 42
-0.138818
  0
VERTEX
  8
0
 10
170.666251
 20
212.854521
 42
-0.165880
  0
VERTEX
  8
0
 10
170.357972
 20
212.284107
 42
-0.100382
  0
VERTEX
  8
0
 10
169.602673
 20
211.824704
 42
-0.032590
  0
VERTEX
  8
0
 10
168.340921
 20
211.460233
 42
0.005088
  0
VERTEX
  8
0
 10
162.307490
 20
210.071543
 42
0.004411
  0
VERTEX
  8
0
 10
156.008471
 20
208.495142
 42
0.003727
  0
VERTEX
  8
0
 10
150.435631
 20
207.003685
 42
0.025269
  0
VERTEX
  8
0
 10
147.727765
 20
206.107879
 42
0.000000
  0
VERTEX
  8
0
 10
144.955530
 20
205.032594
 42
0.000000
  0
VERTEX
  8
0
 10
147.510864
 20
202.164668
 42
0.073881
  0
VERTEX
  8
0
 10
150.190527
 20
199.928247
 42
0.055138
  0
VERTEX
  8
0
 10
153.681273
 20
198.294154
 42
0.055337
  0
VERTEX
  8
0
 10
157.429063
 20
197.467505
 42
0.076128
  0
VERTEX
  8
0
 10
160.869615
 20
197.623923
 42
-0.023999
  0
VERTEX
  8
0
 10
163.438473
 20
198.010607
 42
-0.508883
  0
VERTEX
  8
0
 10
163.878787
 20
197.519338
 42
-0.229378
  0
VERTEX
  8
0
 10
163.224454
 20
196.679120
 42
-0.015602
  0
VERTEX
  8
0
 10
160.391914
 20
195.390392
 42
0.019483
  0
VERTEX
  8
0
 10
157.732417
 20
194.155400
 42
0.392213
  0
VERTEX
  8
0
 10
157.452115
 20
193.386419
 42
0.333275
  0
VERTEX
  8
0
 10
158.230367
 20
192.931062
 42
0.017863
  0
VERTEX
  8
0
 10
161.235339
 20
193.384371
 42
0.086600
  0
VERTEX
  8
0
 10
164.832893
 20
194.731170
 42
0.070513
  0
VERTEX
  8
0
 10
168.057729
 20
197.295393
 42
0.064725
  0
VERTEX
  8
0
 10
170.670933
 20
200.887337
 42
0.054247
  0
VERTEX
  8
0
 10
172.469142
 20
205.245856
 42
0.035136
  0
VERTEX
  8
0
 10
173.337969
 20
209.269448
 42
0.078834
  0
VERTEX
  8
0
 10
173.291483
 20
212.385416
 42
0.098346
  0
VERTEX
  8
0
 10
172.323989
 20
214.892303
 42
0.080916
  0
VERTEX
  8
0
 10
170.416945
 20
217.041097
 42
0.005542
  0
VERTEX
  8
0
 10
169.317349
 20
217.916507
 42
0.233894
  0
VERTEX
  8
0
 10
169.031002
 20
217.975077
 42
0.436237
  0
VERTEX
  8
0
 10
168.930465
 20
217.786738
 42
0.010457
  0
SEQEND
  0
POLYLINE
  8
0
 66
1
 70
1
  0
VERTEX
  8
0
 10
171.000000
 20
208.222506
 42
-0.150378
  0
VERTEX
  8
0
 10
170.507371
 20
206.621580
 42
-0.042842
  0
VERTEX
  8
0
 10
168.847452
 20
204.580078
 42
-0.042446
  0
VERTEX
  8
0
 10
166.659633
 20
202.670279
 42
-0.059328
  0
VERTEX
  8
0
 10
164.401426
 20
201.394367
 42
-0.041754
  0
VERTEX
  8
0
 10
161.282124
 20
200.387187
 42
-0.060717
  0
VERTEX
  8
0
 10
158.410526
 20
200.077080
 42
-0.059054
  0
VERTEX
  8
0
 10
155.489887
 20
200.463912
 42
-0.037005
  0
VERTEX
  8
0
 10
152.217881
 20
201.561414
 42
-0.008242
  0
VERTEX
  8
0
 10
150.014812
 20
202.529667
 42
-0.134302
  0
VERTEX
  8
0
 10
149.401486
 20
203.043730
 42
-0.382500
  0
VERTEX
  8
0
 10
149.462850
 20
203.534270
 42
-0.050518
  0
VERTEX
  8
0
 10
150.394233
 20
204.191821
 42
-0.067241
  0
VERTEX
  8
0
 10
151.452325
 20
204.613831
 42
-0.091572
  0
VERTEX
  8
0
 10
152.475418
 20
204.677952
 42
-0.073693
  0
VERTEX
  8
0
 10
153.613483
 20
204.366457
 42
-0.029829
  0
VERTEX
  8
0
 10
155.048525
 20
203.630407
 42
0.079454
  0
VERTEX
  8
0
 10
158.652506
 20
202.211826
 42
0.132576
  0
VERTEX
  8
0
 10
161.888210
 20
202.364662
 42
0.139246
  0
VERTEX
  8
0
 10
164.499950
 20
204.104025
 42
0.091695
  0
VERTEX
  8
0
 10
166.316616
 20
207.250000
 42
-0.176731
  0
VERTEX
  8
0
 10
167.191844
 20
208.309051
 42
-0.081570
  0
VERTEX
  8
0
 10
168.883675
 20
208.960428
 42
-0.105591
  0
VERTEX
  8
0
 10
170.413445
 20
208.951767
 42
-0.352256
  0
SEQEND
  0
POLYLINE
  8
0
 66
1
 70
1
  0
VERTEX
  8
0
 10
191.000000
 20
211.800516
 42
0.104525
  0
VERTEX
  8
0
 10
191.158919
 20
211.048623
 42
0.002836
  0
VERTEX
  8
0
 10
192.545434
 20
207.962566
 42
0.006548
  0
VERTEX
  8
0
 10
194.049791
 20
204.775614
 42
0.009438
  0
VERTEX
  8
0
 10
195.470200
 20
202.000000
 42
0.123496
  0
VERTEX
  8
0
 10
198.643013
 20
198.508568
 42
0.058777
  0
VERTEX
  8
0
 10
204.092334
 20
195.740463
 42
0.057031
  0
VERTEX
  8
0
 10
210.324929
 20
194.224168
 42
0.085436
  0
VERTEX
  8
0
 10
215.907768
 20
194.479743
 42
0.033843
  0
VERTEX
  8
0
 10
218.622846
 20
195.271845
 42
0.534651
  0
VERTEX
  8
0
 10
218.812088
 20
196.054267
 42
0.191552
  0
VERTEX
  8
0
 10
217.472315
 20
196.697525
 42
0.017986
  0
VERTEX
  8
0
 10
213.750000
 20
196.820908
 42
-0.017426
  0
VERTEX
  8
0
 10
211.556628
 20
196.891157
 42
-0.015960
  0
VERTEX
  8
0
 10
209.307813
 20
197.114025
 42
-0.016201
  0
VERTEX
  8
0
 10
207.313967
 20
197.442132
 42
-0.049174
  0
VERTEX
  8
0
 10
206.000000
 20
197.839633
 42
-0.018365
  0
VERTEX
  8
0
 10
204.678797
 20
198.443587
 42
-0.616826
  0
VERTEX
  8
0
 10
204.678822
 20
198.714046
 42
-0.110085
  0
VERTEX
  8
0
 10
205.336818
 20
198.879272
 42
-0.003301
  0
VERTEX
  8
0
 10
208.184900
 20
198.936614
 42
0.032163
  0
VERTEX
  8
0
 10
212.363907
 20
199.262535
 42
0.062555
  0
VERTEX
  8
0
 10
215.586430
 20
200.144280
 42
0.063765
  0
VERTEX
  8
0
 10
218.451034
 20
201.782107
 42
0.034678
  0
VERTEX
  8
0
 10
221.513847
 20
204.447181
 42
0.015027
  0
VERTEX
  8
0
 10
224.151256
 20
207.248074
 42
0.151693
  0
VERTEX
  8
0
 10
224.803050
 20
208.691302
 42
0.317879
  0
VERTEX
  8
0
 10
224.277868
 20
209.670151
 42
0.059500
  0
VERTEX
  8
0
 10
222.250000
 20
210.396480
 42
0.042291
  0
VERTEX
  8
0
 10
217.919453
 20
211.009168
 42
0.002779
  0
VERTEX
  8
0
 10
205.297919
 20
211.646565
 42
0.000580
  0
VERTEX
  8
0
 10
191.470835
 20
212.251719
 42
0.426740
  0
SEQEND
  0
POLYLINE
  8
0
 66
1
 70
1
  0
VERTEX
  8
0
 10
202.223427
 20
206.443088
 42
0.117958
  0
VERTEX
  8
0
 10
204.480842
 20
204.656669
 42
0.097905
  0
VERTEX
  8
0
 10
207.464320
 20
203.928367
 42
0.105446
  0
VERTEX
  8
0
 10
210.317462
 20
204.406015
 42
0.160498
  0
VERTEX
  8
0
 10
212.232073
 20
206.000000
 42
-0.162392
  0
VERTEX
  8
0
 10
213.761836
 20
207.264050
 42
-0.055305
  0
VERTEX
  8
0
 10
216.584899
 20
208.009316
 42
-0.062789
  0
VERTEX
  8
0
 10
219.177708
 20
208.066862
 42
-0.384293
  0
VERTEX
  8
0
 10
220.000000
 20
207.154988
 42
-0.187276
  0
VERTEX
  8
0
 10
219.558277
 20
206.017011
 42
-0.039776
  0
VERTEX
  8
0
 10
217.975155
 20
204.539926
 42
-0.038680
  0
VERTEX
  8
0
 10
215.848120
 20
203.103618
 42
-0.038341
  0
VERTEX
  8
0
 10
213.519117
 20
202.007268
 42
-0.113347
  0
VERTEX
  8
0
 10
208.216844
 20
201.273089
 42
-0.064720
  0
VERTEX
  8
0
 10
201.872248
 20
202.674562
 42
-0.069627
  0
VERTEX
  8
0
 10
196.679542
 20
205.415619
 42
-0.241030
  0
VERTEX
  8
0
 10
195.000000
 20
208.697302
 42
-0.359399
  0
VERTEX
  8
0
 10
195.792251
 20
209.657122
 42
-0.123927
  0
VERTEX
  8
0
 10
197.724562
 20
209.549002
 42
-0.075685
  0
VERTEX
  8
0
 10
200.206101
 20
208.339325
 42
-0.075047
  0
SEQEND
  0
POLYLINE
  8
0
 66
1
 70
1
  0
VERTEX
  8
0
 10
176.012181
 20
198.693558
 42
0.069183
  0
VERTEX
  8
0
 10
173.678339
 20
197.514318
 42
0.133500
  0
VERTEX
  8
0
 10
172.340779
 20
195.924245
 42
0.225686
  0
VERTEX
  8
0
 10
172.355745
 20
194.428593
 42
0.189845
  0
VERTEX
  8
0
 10
173.535184
 20
193.348125
 42
-0.071636
  0
VERTEX
  8
0
 10
175.762927
 20
192.103666
 42
-0.048079
  0
VERTEX
  8
0
 10
177.903348
 20
190.115450
 42
-0.049290
  0
VERTEX
  8
0
 10
179.499495
 20
187.915511
 42
-0.133068
  0
VERTEX
  8
0
 10
180.000000
 20
186.068177
 42
-0.107795
  0
VERTEX
  8
0
 10
179.765579
 20
184.993472
 42
-0.034245
  0
VERTEX
  8
0
 10
178.978038
 20
183.544962
 42
-0.032199
  0
VERTEX
  8
0
 10
177.847180
 20
181.996645
 42
-0.029874
  0
VERTEX
  8
0
 10
176.500000
 20
180.564771
 42
0.022650
  0
VERTEX
  8
0
 10
175.160170
 20
179.181288
 42
0.026753
  0
VERTEX
  8
0
 10
174.028125
 20
177.754115
 42
0.027157
  0
VERTEX
  8
0
 10
173.217610
 20
176.469306
 42
0.127812
  0
VERTEX
  8
0
 10
173.000000
 20
175.631923
 42
0.121508
  0
VERTEX
  8
0
 10
173.294785
 20
174.436804
 42
0.392935
  0
VERTEX
  8
0
 10
173.998824
 20
174.189078
 42
0.106997
  0
VERTEX
  8
0
 10
175.241500
 20
175.083103
 42
0.015127
  0
VERTEX
  8
0
 10
177.292632
 20
177.500029
 42
-0.029182
  0
VERTEX
  8
0
 10
178.682379
 20
179.047325
 42
-0.050348
  0
VERTEX
  8
0
 10
180.026812
 20
180.134584
 42
-0.061392
  0
VERTEX
  8
0
 10
181.341675
 20
180.780781
 42
-0.083735
  0
VERTEX
  8
0
 10
182.641503
 20
181.000000
 42
-0.074709
  0
VERTEX
  8
0
 10
185.411316
 20
180.583818
 42
-0.037820
  0
VERTEX
  8
0
 10
188.702770
 20
179.292452
 42
-0.037589
  0
VERTEX
  8
0
 10
191.666908
 20
177.577027
 42
-0.103562
  0
VERTEX
  8
0
 10
193.329630
 20
175.843786
 42
0.080804
  0
VERTEX
  8
0
 10
194.417877
 20
174.601769
 42
0.139639
  0
VERTEX
  8
0
 10
195.666741
 20
174.055185
 42
0.235220
  0
VERTEX
  8
0
 10
196.598726
 20
174.371268
 42
0.197972
  0
VERTEX
  8
0
 10
197.000000
 20
175.345012
 42
0.169602
  0
VERTEX
  8
0
 10
196.448034
 20
176.925444
 42
0.061522
  0
VERTEX
  8
0
 10
194.728512
 20
178.612591
 42
0.042180
  0
VERTEX
  8
0
 10
191.878120
 20
180.434368
 42
0.017002
  0
VERTEX
  8
0
 10
187.716014
 20
182.446887
 42
-0.016637
  0
VERTEX
  8
0
 10
185.173199
 20
183.674136
 42
-0.040550
  0
VERTEX
  8
0
 10
183.415874
 20
184.785669
 42
-0.058273
  0
VERTEX
  8
0
 10
182.346026
 20
185.805473
 42
-0.176982
  0
VERTEX
  8
0
 10
182.013655
 20
186.737390
 42
-0.040858
  0
VERTEX
  8
0
 10
182.237350
 20
189.232409
 42
-0.068385
  0
VERTEX
  8
0
 10
182.874127
 20
191.236530
 42
-0.094114
  0
VERTEX
  8
0
 10
183.828492
 20
192.540316
 42
-0.190050
  0
VERTEX
  8
0
 10
184.994187
 20
193.000000
 42
0.075682
  0
VERTEX
  8
0
 10
185.766296
 20
193.117542
 42
0.044507
  0
VERTEX
  8
0
 10
186.631468
 20
193.474293
 42
0.043361
  0
VERTEX
  8
0
 10
187.452443
 20
193.996729
 42
0.056229
  0
VERTEX
  8
0
 10
188.095122
 20
194.614616
 42
0.056534
  0
VERTEX
  8
0
 10
188.710842
 20
195.554862
 42
0.187669
  0
VERTEX
  8
0
 10
188.780294
 20
196.277566
 42
0.131588
  0
VERTEX
  8
0
 10
188.338030
 20
197.020606
 42
0.022898
  0
VERTEX
  8
0
 10
187.106783
 20
198.114616
 42
0.081305
  0
VERTEX
  8
0
 10
184.953535
 20
199.342928
 42
0.076151
  0
VERTEX
  8
0
 10
182.471332
 20
199.856812
 42
0.062381
  0
VERTEX
  8
0
 10
179.535765
 20
199.643712
 42
0.033175
  0
SEQEND
  0
POLYLINE
  8
0
 66
1
 70
1
  0
VERTEX
  8
0
 10
182.283190
 20
194.374099
 42
-0.013065
  0
VERTEX
  8
0
 10
180.713089
 20
192.883973
 42
-0.119761
  0
VERTEX
  8
0
 10
179.891310
 20
192.440613
 42
-0.237228
  0
VERTEX
  8
0
 10
179.226480
 20
192.581952
 42
-0.066122
  0
VERTEX
  8
0
 10
178.468402
 20
193.374099
 42
0.065198
  0
VERTEX
  8
0
 10
177.874065
 20
193.997440
 42
0.047342
  0
VERTEX
  8
0
 10
177.073634
 20
194.526890
 42
0.047851
  0
VERTEX
  8
0
 10
176.200492
 20
194.890036
 42
0.072731
  0
VERTEX
  8
0
 10
175.389757
 20
195.015313
 42
-0.011647
  0
VERTEX
  8
0
 10
174.349175
 20
195.047994
 42
-0.292761
  0
VERTEX
  8
0
 10
174.127952
 20
195.207365
 42
-0.342097
  0
VERTEX
  8
0
 10
174.198268
 20
195.449762
 42
-0.013874
  0
VERTEX
  8
0
 10
175.000000
 20
196.000000
 42
-0.079337
  0
VERTEX
  8
0
 10
175.851406
 20
196.375519
 42
-0.021533
  0
VERTEX
  8
0
 10
177.294460
 20
196.689119
 42
-0.021224
  0
VERTEX
  8
0
 10
178.984861
 20
196.907518
 42
-0.020604
  0
VERTEX
  8
0
 10
180.704545
 20
196.984687
 42
0.000000
  0
VERTEX
  8
0
 10
184.909091
 20
197.000000
 42
0.000000
  0
SEQEND
  0
POLYLINE
  8
0
 66
1
 70
1
  0
VERTEX
  8
0
 10
176.000000
 20
166.506142
 42
0.309277
  0
VERTEX
  8
0
 10
177.690575
 20
164.034462
 42
0.049510
  0
VERTEX
  8
0
 10
183.635000
 20
162.376017
 42
0.049053
  0
VERTEX
  8
0
 10
190.556704
 20
161.855173
 42
0.092709
  0
VERTEX
  8
0
 10
196.014330
 20
163.005936
 42
0.024434
  0
VERTEX
  8
0
 10
198.474322
 20
164.168738
 42
0.313044
  0
VERTEX
  8
0
 10
198.914876
 20
165.028315
 42
0.424701
  0
VERTEX
  8
0
 10
198.269917
 20
165.502942
 42
0.027627
  0
VERTEX
  8
0
 10
195.756602
 20
164.930194
 42
-0.046326
  0
VERTEX
  8
0
 10
191.689829
 20
164.161922
 42
-0.038522
  0
VERTEX
  8
0
 10
187.287335
 20
164.086535
 42
-0.039694
  0
VERTEX
  8
0
 10
183.104565
 20
164.672697
 42
-0.063310
  0
VERTEX
  8
0
 10
179.711442
 20
165.892201
 42
0.013795
  0
VERTEX
  8
0
 10
177.936963
 20
166.736043
 42
0.063176
  0
VERTEX
  8
0
 10
176.845952
 20
167.061756
 42
0.176215
  0
VERTEX
  8
0
 10
176.253833
 20
166.951000
 42
0.265228
  0
SEQEND
  0
POLYLINE
  8
0
 66
1
 70
1
  0
VERTEX
  8
0
 10
166.500000
 20
142.000000
 42
0.497258
  0
VERTEX
  8
0
 10
166.666996
 20
141.568586
 42
0.035755
  0
VERTEX
  8
0
 10
168.126180
 20
141.262016
 42
0.024937
  0
VERTEX
  8
0
 10
170.474309
 20
141.060189
 42
0.008970
  0
VERTEX
  8
0
 10
173.829116
 20
141.000000
 42
-0.037897
  0
VERTEX
  8
0
 10
181.250554
 20
140.436684
 42
-0.024919
  0
VERTEX
  8
0
 10
189.648047
 20
138.722663
 42
-0.024692
  0
VERTEX
  8
0
 10
197.961182
 20
136.146125
 42
-0.033564
  0
VERTEX
  8
0
 10
205.139977
 20
132.965871
 42
0.005385
  0
VERTEX
  8
0
 10
209.476953
 20
130.744495
 42
0.067418
  0
VERTEX
  8
0
 10
211.218799
 20
130.151849
 42
0.629598
  0
VERTEX
  8
0
 10
211.524693
 20
130.562424
 42
0.063105
  0
VERTEX
  8
0
 10
210.591769
 20
131.898596
 42
0.096314
  0
VERTEX
  8
0
 10
208.444907
 20
133.507723
 42
0.011028
  0
VERTEX
  8
0
 10
202.921611
 20
136.034854
 42
0.012923
  0
VERTEX
  8
0
 10
196.116347
 20
138.762486
 42
0.009993
  0
VERTEX
  8
0
 10
188.571861
 20
141.392050
 42
0.053462
  0
VERTEX
  8
0
 10
183.428855
 20
142.480537
 42
0.018554
  0
VERTEX
  8
0
 10
175.852969
 20
142.970929
 42
0.010777
  0
VERTEX
  8
0
 10
168.289754
 20
143.016195
 42
0.255783
  0
SEQEND
  0
POLYLINE
  8
0
 66
1
 70
1
  0
VERTEX
  8
0
 10
206.000000
 20
125.000000
 42
0.023197
  0
VERTEX
  8
0
 10
205.271114
 20
124.479509
 42
0.409657
  0
VERTEX
  8
0
 10
205.237851
 20
124.218347
 42
0.220444
  0
VERTEX
  8
0
 10
205.555791
 20
124.050422
 42
0.011293
  0
VERTEX
  8
0
 10
206.750000
 20
124.015313
 42
-0.054610
  0
VERTEX
  8
0
 10
208.266987
 20
123.838677
 42
-0.260125
  0
VERTEX
  8
0
 10
208.891815
 20
123.274993
 42
-0.230189
  0
VERTEX
  8
0
 10
208.780170
 20
122.384096
 42
-0.044809
  0
VERTEX
  8
0
 10
207.750000
 20
121.075000
 42
0.009948
  0
VERTEX
  8
0
 10
207.098927
 20
120.356757
 42
0.232662
  0
VERTEX
  8
0
 10
207.030396
 20
120.098412
 42
0.421010
  0
VERTEX
  8
0
 10
207.195768
 20
119.991025
 42
0.018560
  0
VERTEX
  8
0
 10
207.928557
 20
120.184519
 42
0.105129
  0
VERTEX
  8
0
 10
209.507236
 20
121.056744
 42
0.113306
  0
VERTEX
  8
0
 10
210.543824
 20
122.475781
 42
0.145717
  0
VERTEX
  8
0
 10
210.714491
 20
123.942364
 42
0.210458
  0
VERTEX
  8
0
 10
210.000000
 20
125.013154
 42
0.023911
  0
VERTEX
  8
0
 10
208.767039
 20
125.718626
 42
0.119358
  0
VERTEX
  8
0
 10
207.997617
 20
125.902278
 42
0.119300
  0
VERTEX
  8
0
 10
207.229227
 20
125.713617
 42
0.023877
  0
SEQEND
  0
POLYLINE
  8
0
 66
1
 70
1
  0
VERTEX
  8
0
 10
148.573001
 20
122.478529
 42
0.056695
  0
VERTEX
  8
0
 10
147.338680
 20
121.303143
 42
0.329488
  0
VERTEX
  8
0
 10
147.287980
 20
120.459321
 42
0.330674
  0
VERTEX
  8
0
 10
148.078766
 20
120.165698
 42
0.056817
  0
VERTEX
  8
0
 10
149.649174
 20
120.823544
 42
-0.057855
  0
VERTEX
  8
0
 10
150.552154
 20
121.199609
 42
-0.069144
  0
VERTEX
  8
0
 10
151.463946
 20
121.329007
 42
-0.068477
  0
VERTEX
  8
0
 10
152.383614
 20
121.205186
 42
-0.055262
  0
VERTEX
  8
0
 10
153.309823
 20
120.834188
 42
0.062893
  0
VERTEX
  8
0
 10
154.923209
 20
120.216242
 42
0.306873
  0
VERTEX
  8
0
 10
155.793339
 20
120.539145
 42
0.335169
  0
VERTEX
  8
0
 10
155.769689
 20
121.419583
 42
0.066540
  0
VERTEX
  8
0
 10
154.557298
 20
122.581761
 42
0.043079
  0
VERTEX
  8
0
 10
152.898011
 20
123.588304
 42
0.119669
  0
VERTEX
  8
0
 10
151.576379
 20
123.885174
 42
0.117455
  0
VERTEX
  8
0
 10
150.250664
 20
123.545127
 42
0.040710
  0
SEQEND
  0
POLYLINE
  8
0
 66
1
 70
1
  0
VERTEX
  8
0
 10
162.666667
 20
122.333333
 42
0.094927
  0
VERTEX
  8
0
 10
162.410216
 20
121.955335
 42
0.034848
  0
VERTEX
  8
0
 10
162.195833
 20
121.343753
 42
0.033020
  0
VERTEX
  8
0
 10
162.049175
 20
120.625690
 42
0.033876
  0
VERTEX
  8
0
 10
162.000000
 20
119.900721
 42
-0.102575
  0
VERTEX
  8
0
 10
161.850197
 20
119.178194
 42
-0.071552
  0
VERTEX
  8
0
 10
161.412500
 20
118.467057
 42
-0.068021
  0
VERTEX
  8
0
 10
160.764448
 20
117.874883
 42
-0.074439
  0
VERTEX
  8
0
 10
160.000000
 20
117.500000
 42
0.117446
  0
VERTEX
  8
0
 10
158.669175
 20
116.700179
 42
0.164954
  0
VERTEX
  8
0
 10
158.047880
 20
115.473618
 42
0.240753
  0
VERTEX
  8
0
 10
158.401362
 20
114.443701
 42
0.194308
  0
VERTEX
  8
0
 10
159.500000
 20
114.000000
 42
-0.195690
  0
VERTEX
  8
0
 10
160.203213
 20
113.713816
 42
-0.124365
  0
VERTEX
  8
0
 10
160.671875
 20
112.950000
 42
-0.060783
  0
VERTEX
  8
0
 10
160.929545
 20
111.545711
 42
-0.015014
  0
VERTEX
  8
0
 10
161.000000
 20
109.200000
 42
0.022886
  0
VERTEX
  8
0
 10
161.088184
 20
107.274412
 42
0.026473
  0
VERTEX
  8
0
 10
161.352500
 20
105.457500
 42
0.026952
  0
VERTEX
  8
0
 10
161.735443
 20
103.965785
 42
0.120635
  0
VERTEX
  8
0
 10
162.200000
 20
103.200000
 42
0.132280
  0
VERTEX
  8
0
 10
163.616633
 20
102.384436
 42
0.055240
  0
VERTEX
  8
0
 10
165.813809
 20
102.054695
 42
0.054388
  0
VERTEX
  8
0
 10
168.114858
 20
102.216203
 42
0.096767
  0
VERTEX
  8
0
 10
169.878115
 20
102.903509
 42
0.175295
  0
VERTEX
  8
0
 10
170.592161
 20
103.825213
 42
0.199738
  0
VERTEX
  8
0
 10
170.500993
 20
104.931446
 42
0.196993
  0
VERTEX
  8
0
 10
169.648616
 20
105.657116
 42
0.172347
  0
VERTEX
  8
0
 10
168.471962
 20
105.627615
 42
-0.108328
  0
VERTEX
  8
0
 10
167.878411
 20
105.537548
 42
-0.069791
  0
VERTEX
  8
0
 10
167.194452
 20
105.679455
 42
-0.065134
  0
VERTEX
  8
0
 10
166.527802
 20
106.021464
 42
-0.068601
  0
VERTEX
  8
0
 10
165.984662
 20
106.518482
 42
-0.162126
  0
VERTEX
  8
0
 10
165.259038
 20
108.382290
 42
-0.076307
  0
VERTEX
  8
0
 10
165.526581
 20
110.983160
 42
-0.077212
  0
VERTEX
  8
0
 10
166.552669
 20
113.350824
 42
-0.176912
  0
VERTEX
  8
0
 10
168.069499
 20
114.522058
 42
0.081446
  0
VERTEX
  8
0
 10
169.470144
 20
115.233301
 42
0.244768
  0
VERTEX
  8
0
 10
169.930106
 20
116.165653
 42
0.246191
  0
VERTEX
  8
0
 10
169.429188
 20
117.072686
 42
0.082099
  0
VERTEX
  8
0
 10
168.000000
 20
117.710251
 42
-0.082332
  0
VERTEX
  8
0
 10
167.146770
 20
118.091353
 42
-0.096222
  0
VERTEX
  8
0
 10
166.514648
 20
118.711977
 42
-0.089464
  0
VERTEX
  8
0
 10
166.130127
 20
119.563245
 42
-0.061532
  0
VERTEX
  8
0
 10
166.000000
 20
120.616631
 42
0.104658
  0
VERTEX
  8
0
 10
165.705967
 20
122.005985
 42
0.171168
  0
VERTEX
  8
0
 10
164.888912
 20
122.872268
 42
0.189764
  0
VERTEX
  8
0
 10
163.777805
 20
122.984330
 42
0.128411
  0
SEQEND
  0
POLYLINE
  8
0
 66
1
 70
1
  0
VERTEX
  8
0
 10
217.458881
 20
121.933469
 42
0.113371
  0
VERTEX
  8
0
 10
217.136385
 20
120.985128
 42
0.261672
  0
VERTEX
  8
0
 10
217.426445
 20
120.317483
 42
0.188422
  0
VERTEX
  8
0
 10
218.275512
 20
120.076451
 42
0.067736
  0
VERTEX
  8
0
 10
219.520254
 20
120.369399
 42
0.067341
  0
VERTEX
  8
0
 10
220.088046
 20
120.680239
 42
0.097937
  0
VERTEX
  8
0
 10
220.472022
 20
121.100609
 42
0.123144
  0
VERTEX
  8
0
 10
220.614372
 20
121.560991
 42
0.153283
  0
VERTEX
  8
0
 10
220.504365
 20
121.992937
 42
0.104938
  0
VERTEX
  8
0
 10
219.817295
 20
122.711950
 42
0.155876
  0
VERTEX
  8
0
 10
218.989050
 20
122.958873
 42
0.152164
  0
VERTEX
  8
0
 10
218.156314
 20
122.681493
 42
0.098738
  0
SEQEND
  0
POLYLINE
  8
0
 66
1
 70
1
  0
VERTEX
  8
0
 10
148.837107
 20
118.346391
 42
0.116617
  0
VERTEX
  8
0
 10
148.084150
 20
117.933308
 42
0.035019
  0
VERTEX
  8
0
 10
147.170880
 20
116.985467
 42
0.033001
  0
VERTEX
  8
0
 10
146.263265
 20
115.742833
 42
0.030458
  0
VERTEX
  8
0
 10
145.499971
 20
114.358697
 42
0.092822
  0
VERTEX
  8
0
 10
144.386674
 20
110.138945
 42
0.139150
  0
VERTEX
  8
0
 10
145.152637
 20
106.430567
 42
0.153646
  0
VERTEX
  8
0
 10
147.661310
 20
103.920479
 42
0.120775
  0
VERTEX
  8
0
 10
151.416441
 20
103.000000
 42
0.082958
  0
VERTEX
  8
0
 10
153.636380
 20
103.370877
 42
0.065048
  0
VERTEX
  8
0
 10
155.826028
 20
104.458428
 42
0.070908
  0
VERTEX
  8
0
 10
157.459043
 20
105.927147
 42
0.175968
  0
VERTEX
  8
0
 10
158.000000
 20
107.416639
 42
0.372220
  0
VERTEX
  8
0
 10
157.776775
 20
107.674951
 42
0.031169
  0
VERTEX
  8
0
 10
156.825000
 20
107.754278
 42
0.029670
  0
VERTEX
  8
0
 10
155.533768
 20
107.704560
 42
0.017392
  0
VERTEX
  8
0
 10
154.000000
 20
107.500000
 42
-0.017705
  0
VERTEX
  8
0
 10
152.248274
 20
107.267489
 42
-0.049846
  0
VERTEX
  8
0
 10
151.013905
 20
107.271259
 42
-0.089430
  0
VERTEX
  8
0
 10
150.263394
 20
107.487924
 42
-0.285218
  0
VERTEX
  8
0
 10
150.000000
 20
107.912102
 42
-0.136747
  0
VERTEX
  8
0
 10
150.115623
 20
108.326960
 42
-0.100259
  0
VERTEX
  8
0
 10
150.440625
 20
108.680430
 42
-0.086362
  0
VERTEX
  8
0
 10
150.926749
 20
108.918372
 42
-0.070840
  0
VERTEX
  8
0
 10
151.500000
 20
109.000000
 42
0.146734
  0
VERTEX
  8
0
 10
153.030785
 20
109.459122
 42
0.045221
  0
VERTEX
  8
0
 10
154.934779
 20
110.977382
 42
0.044973
  0
VERTEX
  8
0
 10
156.523523
 20
112.798442
 42
0.161312
  0
VERTEX
  8
0
 10
156.984687
 20
114.250000
 42
0.161289
  0
VERTEX
  8
0
 10
156.276580
 20
116.303422
 42
0.113746
  0
VERTEX
  8
0
 10
154.382868
 20
117.873970
 42
0.097110
  0
VERTEX
  8
0
 10
151.706435
 20
118.621183
 42
0.087278
  0
SEQEND
  0
POLYLINE
  8
0
 66
1
 70
1
  0
VERTEX
  8
0
 10
153.000000
 20
113.968615
 42
-0.213422
  0
VERTEX
  8
0
 10
152.621817
 20
113.122972
 42
-0.075769
  0
VERTEX
  8
0
 10
151.486858
 20
112.381846
 42
-0.076784
  0
VERTEX
  8
0
 10
150.197884
 20
112.019605
 42
-0.230479
  0
VERTEX
  8
0
 10
149.356736
 20
112.309930
 42
-0.242984
  0
VERTEX
  8
0
 10
149.115307
 20
113.067091
 42
-0.130219
  0
VERTEX
  8
0
 10
149.532249
 20
113.983357
 42
-0.102648
  0
VERTEX
  8
0
 10
150.459491
 20
114.733481
 42
-0.119467
  0
VERTEX
  8
0
 10
151.559017
 20
115.000000
 42
-0.069866
  0
VERTEX
  8
0
 10
152.109745
 20
114.922668
 42
-0.085761
  0
VERTEX
  8
0
 10
152.576711
 20
114.697031
 42
-0.100101
  0
VERTEX
  8
0
 10
152.888923
 20
114.361922
 42
-0.138501
  0
SEQEND
  0
POLYLINE
  8
0
 66
1
 70
1
  0
VERTEX
  8
0
 10
123.666667
 20
117.333333
 42
0.195625
  0
VERTEX
  8
0
 10
122.908722
 20
115.535756
 42
0.015045
  0
VERTEX
  8
0
 10
123.001959
 20
110.186730
 42
0.015065
  0
VERTEX
  8
0
 10
123.416895
 20
104.853393
 42
0.194991
  0
VERTEX
  8
0
 10
124.342009
 20
103.131121
 42
0.117228
  0
VERTEX
  8
0
 10
125.524083
 20
102.546444
 42
0.304378
  0
VERTEX
  8
0
 10
126.369269
 20
102.869401
 42
0.129541
  0
VERTEX
  8
0
 10
126.875462
 20
104.225646
 42
0.023829
  0
VERTEX
  8
0
 10
127.015313
 20
106.916667
 42
-0.024271
  0
VERTEX
  8
0
 10
127.093638
 20
108.398576
 42
-0.023230
  0
VERTEX
  8
0
 10
127.315379
 20
109.888021
 42
-0.023895
  0
VERTEX
  8
0
 10
127.634769
 20
111.181829
 42
-0.072904
  0
VERTEX
  8
0
 10
128.015313
 20
112.000000
 42
-0.257573
  0
VERTEX
  8
0
 10
129.071259
 20
112.557420
 42
-0.275581
  0
VERTEX
  8
0
 10
130.056106
 20
111.945046
 42
-0.087827
  0
VERTEX
  8
0
 10
130.761929
 20
109.675270
 42
-0.030679
  0
VERTEX
  8
0
 10
130.984687
 20
106.250000
 42
0.031069
  0
VERTEX
  8
0
 10
131.153042
 20
103.691998
 42
0.132442
  0
VERTEX
  8
0
 10
131.731648
 20
102.289134
 42
0.365462
  0
VERTEX
  8
0
 10
132.553240
 20
102.109297
 42
0.133776
  0
VERTEX
  8
0
 10
133.490506
 20
102.984639
 42
0.065899
  0
VERTEX
  8
0
 10
133.767657
 20
103.601994
 42
0.009963
  0
VERTEX
  8
0
 10
134.130242
 20
104.909907
 42
0.011024
  0
VERTEX
  8
0
 10
134.495529
 20
106.480899
 42
0.009333
  0
VERTEX
  8
0
 10
134.813784
 20
108.156059
 42
-0.027102
  0
VERTEX
  8
0
 10
135.687940
 20
112.005946
 42
-0.347879
  0
VERTEX
  8
0
 10
136.809025
 20
112.812683
 42
-0.368815
  0
VERTEX
  8
0
 10
137.782567
 20
111.901213
 42
-0.027917
  0
VERTEX
  8
0
 10
138.000000
 20
108.010009
 42
0.010322
  0
VERTEX
  8
0
 10
138.058579
 20
105.172758
 42
0.076824
  0
VERTEX
  8
0
 10
138.318731
 20
103.853069
 42
0.208254
  0
VERTEX
  8
0
 10
138.860844
 20
103.281118
 42
0.148374
  0
VERTEX
  8
0
 10
139.750000
 20
103.185670
 42
0.145098
  0
VERTEX
  8
0
 10
140.600931
 20
103.624192
 42
0.108655
  0
VERTEX
  8
0
 10
141.191025
 20
104.504937
 42
0.061134
  0
VERTEX
  8
0
 10
141.576143
 20
106.002386
 42
0.016572
  0
VERTEX
  8
0
 10
141.812295
 20
108.442724
 42
0.012980
  0
VERTEX
  8
0
 10
141.889139
 20
110.498081
 42
0.012138
  0
VERTEX
  8
0
 10
141.862082
 20
112.601223
 42
0.012210
  0
VERTEX
  8
0
 10
141.747118
 20
114.466430
 42
0.040003
  0
VERTEX
  8
0
 10
141.543243
 20
115.683729
 42
0.127538
  0
VERTEX
  8
0
 10
140.735102
 20
117.164389
 42
0.157509
  0
VERTEX
  8
0
 10
139.366182
 20
117.921193
 42
0.141531
  0
VERTEX
  8
0
 10
137.695305
 20
117.772737
 42
0.096919
  0
VERTEX
  8
0
 10
136.075000
 20
116.750000
 42
-0.026382
  0
VERTEX
  8
0
 10
135.367600
 20
116.149887
 42
-0.164145
  0
VERTEX
  8
0
 10
134.923333
 20
116.000000
 42
-0.247772
  0
VERTEX
  8
0
 10
134.586056
 20
116.178067
 42
-0.062037
  0
VERTEX
  8
0
 10
134.291667
 20
116.750000
 42
0.221675
  0
VERTEX
  8
0
 10
133.394177
 20
117.643295
 42
0.084841
  0
VERTEX
  8
0
 10
131.617190
 20
117.962035
 42
0.076985
  0
VERTEX
  8
0
 10
129.650473
 20
117.673923
 42
0.122170
  0
VERTEX
  8
0
 10
128.200000
 20
116.800000
 42
-0.018208
  0
VERTEX
  8
0
 10
127.578624
 20
116.222304
 42
-0.180052
  0
VERTEX
  8
0
 10
127.250000
 20
116.100000
 42
-0.354955
  0
VERTEX
  8
0
 10
127.056215
 20
116.257401
 42
-0.051663
  0
VERTEX
  8
0
 10
127.000000
 20
116.800000
 42
0.221461
  0
VERTEX
  8
0
 10
126.650837
 20
117.549655
 42
0.135920
  0
VERTEX
  8
0
 10
125.748038
 20
117.962429
 42
0.111164
  0
VERTEX
  8
0
 10
124.607685
 20
117.890763
 42
0.125964
  0
SEQEND
  0
POLYLINE
  8
0
 66
1
 70
1
  0
VERTEX
  8
0
 10
179.630286
 20
115.750000
 42
0.062712
  0
VERTEX
  8
0
 10
179.023885
 20
111.337623
 42
0.050887
  0
VERTEX
  8
0
 10
179.455205
 20
106.577876
 42
0.060165
  0
VERTEX
  8
0
 10
180.624250
 20
102.956326
 42
0.380955
  0
VERTEX
  8
0
 10
182.256153
 20
102.246263
 42
0.203454
  0
VERTEX
  8
0
 10
182.769070
 20
102.695207
 42
0.032486
  0
VERTEX
  8
0
 10
183.281495
 20
103.958190
 42
0.031517
  0
VERTEX
  8
0
 10
183.717667
 20
105.614662
 42
0.022909
  0
VERTEX
  8
0
 10
184.000000
 20
107.500000
 42
-0.023241
  0
VERTEX
  8
0
 10
184.642099
 20
111.768421
 42
-0.330475
  0
VERTEX
  8
0
 10
185.717733
 20
112.744005
 42
-0.396667
  0
VERTEX
  8
0
 10
186.747581
 20
111.949756
 42
-0.025345
  0
VERTEX
  8
0
 10
187.195481
 20
107.815160
 42
0.014173
  0
VERTEX
  8
0
 10
187.415059
 20
105.255498
 42
0.053394
  0
VERTEX
  8
0
 10
187.766892
 20
103.686613
 42
0.104160
  0
VERTEX
  8
0
 10
188.283241
 20
102.815095
 42
0.210102
  0
VERTEX
  8
0
 10
189.000000
 20
102.500000
 42
0.211238
  0
VERTEX
  8
0
 10
189.723941
 20
102.820133
 42
0.077852
  0
VERTEX
  8
0
 10
190.352194
 20
103.773440
 42
0.047820
  0
VERTEX
  8
0
 10
190.904160
 20
105.375821
 42
0.017033
  0
VERTEX
  8
0
 10
191.390643
 20
107.750000
 42
-0.012665
  0
VERTEX
  8
0
 10
192.222364
 20
111.997327
 42
-0.301835
  0
VERTEX
  8
0
 10
193.057596
 20
112.800467
 42
-0.430050
  0
VERTEX
  8
0
 10
193.815487
 20
112.244683
 42
-0.015394
  0
VERTEX
  8
0
 10
194.195209
 20
108.258994
 42
0.018025
  0
VERTEX
  8
0
 10
194.425943
 20
105.965020
 42
0.059967
  0
VERTEX
  8
0
 10
194.809038
 20
104.501884
 42
0.102574
  0
VERTEX
  8
0
 10
195.384037
 20
103.624833
 42
0.150747
  0
VERTEX
  8
0
 10
196.192991
 20
103.196649
 42
0.397696
  0
VERTEX
  8
0
 10
198.198063
 20
104.480318
 42
0.059087
  0
VERTEX
  8
0
 10
198.861341
 20
109.705625
 42
0.052480
  0
VERTEX
  8
0
 10
198.314391
 20
115.347649
 42
0.256110
  0
VERTEX
  8
0
 10
196.312362
 20
117.710377
 42
0.083511
  0
VERTEX
  8
0
 10
195.575655
 20
117.859541
 42
0.047145
  0
VERTEX
  8
0
 10
194.663429
 20
117.803751
 42
0.045383
  0
VERTEX
  8
0
 10
193.727320
 20
117.568701
 42
0.055441
  0
VERTEX
  8
0
 10
192.913895
 20
117.178299
 42
-0.039993
  0
VERTEX
  8
0
 10
192.101665
 20
116.757194
 42
-0.083547
  0
VERTEX
  8
0
 10
191.410436
 20
116.594141
 42
-0.119984
  0
VERTEX
  8
0
 10
190.868828
 20
116.689276
 42
-0.152290
  0
VERTEX
  8
0
 10
190.487343
 20
117.020479
 42
0.197436
  0
VERTEX
  8
0
 10
189.448879
 20
117.773454
 42
0.068245
  0
VERTEX
  8
0
 10
187.569349
 20
117.964365
 42
0.065475
  0
VERTEX
  8
0
 10
185.585471
 20
117.632357
 42
0.122816
  0
VERTEX
  8
0
 10
184.200000
 20
116.800000
 42
-0.018208
  0
VERTEX
  8
0
 10
183.578624
 20
116.222304
 42
-0.180052
  0
VERTEX
  8
0
 10
183.250000
 20
116.100000
 42
-0.354955
  0
VERTEX
  8
0
 10
183.056215
 20
116.257401
 42
-0.051663
  0
VERTEX
  8
0
 10
183.000000
 20
116.800000
 42
0.226365
  0
VERTEX
  8
0
 10
182.544684
 20
117.754181
 42
0.250663
  0
VERTEX
  8
0
 10
181.548644
 20
117.944851
 42
0.144050
  0
VERTEX
  8
0
 10
180.358045
 20
117.150788
 42
0.109088
  0
SEQEND
  0
POLYLINE
  8
0
 66
1
 70
1
  0
VERTEX
  8
0
 10
202.556704
 20
115.777494
 42
0.112350
  0
VERTEX
  8
0
 10
201.273960
 20
112.632321
 42
0.076195
  0
VERTEX
  8
0
 10
201.229705
 20
108.748722
 42
0.078140
  0
VERTEX
  8
0
 10
202.335402
 20
105.131592
 42
0.133139
  0
VERTEX
  8
0
 10
204.399704
 20
102.765313
 42
0.177282
  0
VERTEX
  8
0
 10
207.460351
 20
102.023414
 42
0.135513
  0
VERTEX
  8
0
 10
210.681478
 20
103.319284
 42
0.116811
  0
VERTEX
  8
0
 10
213.125041
 20
106.302066
 42
0.113935
  0
VERTEX
  8
0
 10
214.000000
 20
110.091945
 42
0.064016
  0
VERTEX
  8
0
 10
213.571014
 20
113.428844
 42
0.108489
  0
VERTEX
  8
0
 10
212.296178
 20
115.927090
 42
0.123289
  0
VERTEX
  8
0
 10
210.229244
 20
117.457919
 42
0.098349
  0
VERTEX
  8
0
 10
207.500000
 20
118.000000
 42
0.040257
  0
VERTEX
  8
0
 10
205.873748
 20
117.868853
 42
0.065489
  0
VERTEX
  8
0
 10
204.548943
 20
117.471017
 42
0.072266
  0
VERTEX
  8
0
 10
203.464081
 20
116.780539
 42
0.062255
  0
SEQEND
  0
POLYLINE
  8
0
 66
1
 70
1
  0
VERTEX
  8
0
 10
209.500000
 20
112.000000
 42
-0.080080
  0
VERTEX
  8
0
 10
209.795193
 20
110.013403
 42
-0.077516
  0
VERTEX
  8
0
 10
209.457570
 20
108.010886
 42
-0.094452
  0
VERTEX
  8
0
 10
208.626210
 20
106.524948
 42
-0.221613
  0
VERTEX
  8
0
 10
207.500000
 20
106.000000
 42
-0.127946
  0
VERTEX
  8
0
 10
206.930708
 20
106.148101
 42
-0.069205
  0
VERTEX
  8
0
 10
206.349345
 20
106.587500
 42
-0.061697
  0
VERTEX
  8
0
 10
205.844406
 20
107.235212
 42
-0.057963
  0
VERTEX
  8
0
 10
205.500000
 20
108.000000
 42
-0.080080
  0
VERTEX
  8
0
 10
205.204807
 20
109.986597
 42
-0.077516
  0
VERTEX
  8
0
 10
205.542430
 20
111.989114
 42
-0.094452
  0
VERTEX
  8
0
 10
206.373790
 20
113.475052
 42
-0.221613
  0
VERTEX
  8
0
 10
207.500000
 20
114.000000
 42
-0.127946
  0
VERTEX
  8
0
 10
208.069292
 20
113.851899
 42
-0.069205
  0
VERTEX
  8
0
 10
208.650655
 20
113.412500
 42
-0.061697
  0
VERTEX
  8
0
 10
209.155594
 20
112.764788
 42
-0.057963
  0
SEQEND
  0
POLYLINE
  8
0
 66
1
 70
1
  0
VERTEX
  8
0
 10
217.250526
 20
116.333158
 42
0.082461
  0
VERTEX
  8
0
 10
216.704943
 20
113.938922
 42
0.015043
  0
VERTEX
  8
0
 10
216.570757
 20
109.378275
 42
0.010491
  0
VERTEX
  8
0
 10
216.671072
 20
104.745879
 42
0.187855
  0
VERTEX
  8
0
 10
217.259181
 20
103.407486
 42
0.135295
  0
VERTEX
  8
0
 10
217.624207
 20
103.200208
 42
0.056946
  0
VERTEX
  8
0
 10
218.188273
 20
103.124331
 42
0.050641
  0
VERTEX
  8
0
 10
218.846458
 20
103.177928
 42
0.046022
  0
VERTEX
  8
0
 10
219.502875
 20
103.362730
 42
0.166692
  0
VERTEX
  8
0
 10
220.278239
 20
104.011521
 42
0.092318
  0
VERTEX
  8
0
 10
220.717373
 20
105.179667
 42
0.045541
  0
VERTEX
  8
0
 10
220.884910
 20
107.158839
 42
0.009422
  0
VERTEX
  8
0
 10
220.796003
 20
110.656571
 42
0.024930
  0
VERTEX
  8
0
 10
220.387369
 20
114.986045
 42
0.103958
  0
VERTEX
  8
0
 10
219.491122
 20
117.432773
 42
0.415801
  0
VERTEX
  8
0
 10
218.384478
 20
117.685349
 42
0.155865
  0
SEQEND
  0
POLYLINE
  8
0
 66
1
 70
1
  0
VERTEX
  8
0
 10
149.542705
 20
99.069098
 42
0.108373
  0
VERTEX
  8
0
 10
149.401101
 20
98.665803
 42
0.099685
  0
VERTEX
  8
0
 10
149.434921
 20
98.227140
 42
0.095498
  0
VERTEX
  8
0
 10
149.639411
 20
97.820631
 42
0.090427
  0
VERTEX
  8
0
 10
149.983688
 20
97.510081
 42
0.142343
  0
VERTEX
  8
0
 10
150.922836
 20
97.249368
 42
0.116119
  0
VERTEX
  8
0
 10
151.939360
 20
97.501581
 42
0.119510
  0
VERTEX
  8
0
 10
152.715504
 20
98.171804
 42
0.156409
  0
VERTEX
  8
0
 10
153.000000
 20
99.059017
 42
0.280205
  0
VERTEX
  8
0
 10
152.598328
 20
99.719488
 42
0.119333
  0
VERTEX
  8
0
 10
151.552855
 20
99.975841
 42
0.097450
  0
VERTEX
  8
0
 10
150.337303
 20
99.740337
 42
0.159216
  0
SEQEND
  0
POLYLINE
  8
0
 66
1
 70
1
  0
VERTEX
  8
0
 10
186.970410
 20
98.122039
 42
0.016654
  0
VERTEX
  8
0
 10
185.908487
 20
97.176885
 42
0.093388
  0
VERTEX
  8
0
 10
185.466025
 20
96.562285
 42
0.343869
  0
VERTEX
  8
0
 10
185.545784
 20
96.213276
 42
0.169534
  0
VERTEX
  8
0
 10
186.000000
 20
96.048582
 42
0.079466
  0
VERTEX
  8
0
 10
187.564202
 20
96.279595
 42
0.086557
  0
VERTEX
  8
0
 10
188.927852
 20
96.985908
 42
0.108340
  0
VERTEX
  8
0
 10
189.757835
 20
97.962615
 42
0.205386
  0
VERTEX
  8
0
 10
189.842295
 20
98.973116
 42
0.216675
  0
VERTEX
  8
0
 10
189.493014
 20
99.349169
 42
0.172594
  0
VERTEX
  8
0
 10
188.934159
 20
99.379218
 42
0.079037
  0
VERTEX
  8
0
 10
188.106905
 20
98.983835
 42
0.022600
  0
SEQEND
  0
POLYLINE
  8
0
 66
1
 70
1
  0
VERTEX
  8
0
 10
191.559307
 20
95.095961
 42
0.064700
  0
VERTEX
  8
0
 10
191.340527
 20
94.611725
 42
0.056560
  0
VERTEX
  8
0
 10
191.239810
 20
94.064874
 42
0.059455
  0
VERTEX
  8
0
 10
191.265851
 20
93.540653
 42
0.096591
  0
VERTEX
  8
0
 10
191.422817
 20
93.124885
 42
-0.480019
  0
VERTEX
  8
0
 10
191.316177
 20
92.824848
 42
-0.058382
  0
VERTEX
  8
0
 10
190.528493
 20
92.650692
 42
-0.035855
  0
VERTEX
  8
0
 10
189.248958
 20
92.613208
 42
-0.017464
  0
VERTEX
  8
0
 10
187.618816
 20
92.739497
 42
0.019683
  0
VERTEX
  8
0
 10
185.194688
 20
92.916479
 42
0.083457
  0
VERTEX
  8
0
 10
183.757724
 20
92.724210
 42
0.113305
  0
VERTEX
  8
0
 10
182.693125
 20
92.107304
 42
0.052284
  0
VERTEX
  8
0
 10
181.636982
 20
90.892106
 42
0.117254
  0
VERTEX
  8
0
 10
179.986946
 20
86.731632
 42
0.127463
  0
VERTEX
  8
0
 10
180.461646
 20
82.411054
 42
0.143105
  0
VERTEX
  8
0
 10
182.882529
 20
79.208420
 42
0.161187
  0
VERTEX
  8
0
 10
186.533651
 20
78.000000
 42
0.106138
  0
VERTEX
  8
0
 10
189.336118
 20
78.601677
 42
0.125203
  0
VERTEX
  8
0
 10
191.453423
 20
80.286302
 42
0.111766
  0
VERTEX
  8
0
 10
192.664951
 20
82.949049
 42
0.072711
  0
VERTEX
  8
0
 10
192.865792
 20
86.336347
 42
-0.038938
  0
VERTEX
  8
0
 10
192.854128
 20
87.775337
 42
-0.034874
  0
VERTEX
  8
0
 10
193.061678
 20
89.254018
 42
-0.036597
  0
VERTEX
  8
0
 10
193.439914
 20
90.557922
 42
-0.084508
  0
VERTEX
  8
0
 10
193.948811
 20
91.438321
 42
0.036799
  0
VERTEX
  8
0
 10
194.630963
 20
92.395540
 42
0.150475
  0
VERTEX
  8
0
 10
194.803342
 20
93.079512
 42
0.148780
  0
VERTEX
  8
0
 10
194.561969
 20
93.746515
 42
0.035712
  0
VERTEX
  8
0
 10
193.782422
 20
94.646150
 42
0.036495
  0
VERTEX
  8
0
 10
193.048185
 20
95.280369
 42
0.110406
  0
VERTEX
  8
0
 10
192.448355
 20
95.547920
 42
0.176158
  0
VERTEX
  8
0
 10
191.959548
 20
95.474494
 42
0.130580
  0
SEQEND
  0
POLYLINE
  8
0
 66
1
 70
1
  0
VERTEX
  8
0
 10
189.000000
 20
85.500000
 42
-0.083168
  0
VERTEX
  8
0
 10
188.906340
 20
84.940814
 42
-0.025462
  0
VERTEX
  8
0
 10
188.585201
 20
84.143324
 42
-0.024707
  0
VERTEX
  8
0
 10
188.128377
 20
83.272529
 42
-0.024713
  0
VERTEX
  8
0
 10
187.587917
 20
82.451120
 42
-0.018554
  0
VERTEX
  8
0
 10
186.669959
 20
81.288819
 42
-0.287990
  0
VERTEX
  8
0
 10
186.206174
 20
81.143108
 42
-0.214021
  0
VERTEX
  8
0
 10
185.778745
 20
81.487393
 42
-0.010880
  0
VERTEX
  8
0
 10
184.985036
 20
83.133498
 42
-0.034769
  0
VERTEX
  8
0
 10
184.459125
 20
84.539151
 42
-0.074485
  0
VERTEX
  8
0
 10
184.298115
 20
85.683273
 42
-0.078515
  0
VERTEX
  8
0
 10
184.482345
 20
86.785634
 42
-0.042299
  0
VERTEX
  8
0
 10
185.028754
 20
88.053728
 42
-0.013126
  0
VERTEX
  8
0
 10
185.841534
 20
89.481051
 42
-0.218681
  0
VERTEX
  8
0
 10
186.281868
 20
89.779921
 42
-0.263519
  0
VERTEX
  8
0
 10
186.745341
 20
89.610954
 42
-0.018629
  0
VERTEX
  8
0
 10
187.631635
 20
88.489091
 42
-0.025449
  0
VERTEX
  8
0
 10
188.155359
 20
87.690563
 42
-0.025077
  0
VERTEX
  8
0
 10
188.598043
 20
86.839114
 42
-0.025895
  0
VERTEX
  8
0
 10
188.908661
 20
86.055821
 42
-0.081619
  0
SEQEND
  0
POLYLINE
  8
0
 66
1
 70
1
  0
VERTEX
  8
0
 10
148.986401
 20
89.745662
 42
0.046978
  0
VERTEX
  8
0
 10
147.562021
 20
86.824198
 42
0.090534
  0
VERTEX
  8
0
 10
147.099650
 20
84.271389
 42
0.107734
  0
VERTEX
  8
0
 10
147.593589
 20
82.020700
 42
0.088913
  0
VERTEX
  8
0
 10
149.000000
 20
80.000000
 42
0.038141
  0
VERTEX
  8
0
 10
150.574552
 20
78.648946
 42
0.119354
  0
VERTEX
  8
0
 10
151.853115
 20
78.115413
 42
0.122095
  0
VERTEX
  8
0
 10
153.216707
 20
78.231940
 42
0.040813
  0
VERTEX
  8
0
 10
155.065741
 20
79.035184
 42
-0.055339
  0
VERTEX
  8
0
 10
156.156189
 20
79.471774
 42
-0.329480
  0
VERTEX
  8
0
 10
156.694728
 20
79.265189
 42
-0.133247
  0
VERTEX
  8
0
 10
156.953664
 20
78.436970
 42
-0.009521
  0
VERTEX
  8
0
 10
157.000000
 20
76.003799
 42
0.024677
  0
VERTEX
  8
0
 10
157.090918
 20
74.162783
 42
0.055349
  0
VERTEX
  8
0
 10
157.381270
 20
72.795676
 42
0.079024
  0
VERTEX
  8
0
 10
157.864484
 20
71.862004
 42
0.143239
  0
VERTEX
  8
0
 10
158.543128
 20
71.345077
 42
0.026369
  0
VERTEX
  8
0
 10
159.157967
 20
71.145628
 42
0.036162
  0
VERTEX
  8
0
 10
159.729024
 20
71.036595
 42
0.039400
  0
VERTEX
  8
0
 10
160.189343
 20
71.019274
 42
0.205458
  0
VERTEX
  8
0
 10
160.413276
 20
71.126461
 42
0.156872
  0
VERTEX
  8
0
 10
160.557740
 20
71.460776
 42
0.001150
  0
VERTEX
  8
0
 10
160.846286
 20
74.509055
 42
0.004190
  0
VERTEX
  8
0
 10
161.140865
 20
78.020415
 42
0.002656
  0
VERTEX
  8
0
 10
161.428131
 20
82.117131
 42
0.000000
  0
VERTEX
  8
0
 10
162.115965
 20
92.734262
 42
0.000000
  0
VERTEX
  8
0
 10
156.540646
 20
92.862793
 42
0.013247
  0
VERTEX
  8
0
 10
153.126416
 20
92.851036
 42
0.090600
  0
VERTEX
  8
0
 10
151.488195
 20
92.500760
 42
0.124598
  0
VERTEX
  8
0
 10
150.321539
 20
91.633462
 42
0.034033
  0
SEQEND
  0
POLYLINE
  8
0
 66
1
 70
1
  0
VERTEX
  8
0
 10
156.800558
 20
86.837285
 42
-0.105930
  0
VERTEX
  8
0
 10
156.625576
 20
84.937033
 42
-0.102310
  0
VERTEX
  8
0
 10
155.688110
 20
83.248438
 42
-0.130537
  0
VERTEX
  8
0
 10
154.351793
 20
82.333290
 42
-0.227413
  0
VERTEX
  8
0
 10
153.043805
 20
82.472927
 42
-0.209275
  0
VERTEX
  8
0
 10
152.221565
 20
83.662943
 42
-0.055576
  0
VERTEX
  8
0
 10
152.030556
 20
86.016166
 42
-0.055862
  0
VERTEX
  8
0
 10
152.359309
 20
88.321432
 42
-0.238638
  0
VERTEX
  8
0
 10
153.250000
 20
89.333333
 42
-0.075333
  0
VERTEX
  8
0
 10
154.673792
 20
89.666893
 42
-0.174871
  0
VERTEX
  8
0
 10
155.716900
 20
89.382134
 42
-0.155010
  0
VERTEX
  8
0
 10
156.418819
 20
88.459740
 42
-0.055975
  0
SEQEND
  0
POLYLINE
  8
0
 66
1
 70
1
  0
VERTEX
  8
0
 10
164.975249
 20
90.434900
 42
0.082102
  0
VERTEX
  8
0
 10
164.041683
 20
85.817233
 42
0.119133
  0
VERTEX
  8
0
 10
164.870482
 20
81.759947
 42
0.143076
  0
VERTEX
  8
0
 10
167.288010
 20
79.019495
 42
0.141865
  0
VERTEX
  8
0
 10
170.808870
 20
78.000000
 42
0.070883
  0
VERTEX
  8
0
 10
173.444684
 20
78.375556
 42
0.110591
  0
VERTEX
  8
0
 10
175.445208
 20
79.477151
 42
0.107808
  0
VERTEX
  8
0
 10
176.818130
 20
81.350768
 42
0.064929
  0
VERTEX
  8
0
 10
177.603663
 20
84.003280
 42
0.061040
  0
VERTEX
  8
0
 10
177.715013
 20
87.068196
 42
0.057629
  0
VERTEX
  8
0
 10
177.091490
 20
90.132403
 42
0.071915
  0
VERTEX
  8
0
 10
176.004810
 20
92.328719
 42
0.332864
  0
VERTEX
  8
0
 10
174.743847
 20
92.753737
 42
0.204947
  0
VERTEX
  8
0
 10
174.230929
 20
92.302188
 42
0.032020
  0
VERTEX
  8
0
 10
173.718505
 20
91.021581
 42
0.031207
  0
VERTEX
  8
0
 10
173.282314
 20
89.342875
 42
0.022608
  0
VERTEX
  8
0
 10
173.000000
 20
87.431136
 42
-0.017693
  0
VERTEX
  8
0
 10
172.672450
 20
85.051513
 42
-0.058319
  0
VERTEX
  8
0
 10
172.222234
 20
83.535491
 42
-0.098592
  0
VERTEX
  8
0
 10
171.598435
 20
82.627065
 42
-0.147309
  0
VERTEX
  8
0
 10
170.750000
 20
82.185357
 42
-0.158546
  0
VERTEX
  8
0
 10
169.856875
 20
82.299384
 42
-0.204556
  0
VERTEX
  8
0
 10
169.313606
 20
82.911608
 42
-0.071531
  0
VERTEX
  8
0
 10
169.056732
 20
84.327829
 42
-0.009153
  0
VERTEX
  8
0
 10
169.000000
 20
87.426676
 42
0.011717
  0
VERTEX
  8
0
 10
168.934040
 20
90.241090
 42
0.055101
  0
VERTEX
  8
0
 10
168.681605
 20
91.836191
 42
0.122175
  0
VERTEX
  8
0
 10
168.207909
 20
92.682669
 42
0.207259
  0
VERTEX
  8
0
 10
167.475249
 20
93.000000
 42
0.139113
  0
VERTEX
  8
0
 10
166.820293
 20
92.814177
 42
0.061413
  0
VERTEX
  8
0
 10
166.111914
 20
92.246502
 42
0.054039
  0
VERTEX
  8
0
 10
165.461350
 20
91.416128
 42
0.048358
  0
SEQEND
  0
POLYLINE
  8
0
 66
1
 70
1
  0
VERTEX
  8
0
 10
261.860784
 20
120.070983
 42
0.196801
  0
VERTEX
  8
0
 10
260.781573
 20
118.081688
 42
0.342485
  0
VERTEX
  8
0
 10
261.713581
 20
116.566616
 42
0.052490
  0
VERTEX
  8
0
 10
266.347718
 20
115.361117
 42
0.003883
  0
VERTEX
  8
0
 10
279.333080
 20
113.506761
 42
0.017228
  0
VERTEX
  8
0
 10
280.854000
 20
113.354734
 42
0.157227
  0
VERTEX
  8
0
 10
281.491100
 20
113.515192
 42
0.306011
  0
VERTEX
  8
0
 10
281.684354
 20
113.949988
 42
0.059995
  0
VERTEX
  8
0
 10
281.421829
 20
114.812305
 42
-0.038378
  0
VERTEX
  8
0
 10
281.139778
 20
115.613079
 42
-0.020652
  0
VERTEX
  8
0
 10
280.910563
 20
116.635049
 42
-0.020452
  0
VERTEX
  8
0
 10
280.761901
 20
117.702020
 42
-0.030107
  0
VERTEX
  8
0
 10
280.726577
 20
118.647434
 42
0.210640
  0
VERTEX
  8
0
 10
280.080605
 20
120.208451
 42
0.118900
  0
VERTEX
  8
0
 10
278.277172
 20
121.256746
 42
0.057902
  0
VERTEX
  8
0
 10
274.964064
 20
121.839714
 42
0.014626
  0
VERTEX
  8
0
 10
269.485784
 20
122.000000
 42
0.021646
  0
VERTEX
  8
0
 10
266.939646
 20
121.889719
 42
0.040325
  0
VERTEX
  8
0
 10
264.904485
 20
121.546275
 42
0.049068
  0
VERTEX
  8
0
 10
263.247970
 20
120.949389
 42
0.060369
  0
SEQEND
  0
ENDSEC
  0
EOF
