  0
SECTION
  2
HEADER
  9
$ACADVER
  1
AC1006
  9
$EXTMIN
 10
0.000000
 20
0.000000
 30
0.000000
  9
$EXTMAX
 10
566.000000
 20
571.000000
 30
0.000000
  0
ENDSEC
  0
SECTION
  2
ENTITIES
  0
POLYLINE
  8
0
 66
1
 70
1
  0
VERTEX
  8
0
 10
268.500000
 20
528.000000
 42
-0.069077
  0
VERTEX
  8
0
 10
267.256522
 20
527.658636
 42
-0.009582
  0
VERTEX
  8
0
 10
264.590625
 20
527.361972
 42
-0.010823
  0
VERTEX
  8
0
 10
261.401044
 20
527.138286
 42
-0.008984
  0
VERTEX
  8
0
 10
258.000000
 20
527.034850
 42
0.012087
  0
VERTEX
  8
0
 10
254.257136
 20
526.897760
 42
0.019466
  0
VERTEX
  8
0
 10
251.082244
 20
526.580137
 42
0.022252
  0
VERTEX
  8
0
 10
248.568184
 20
526.114513
 42
0.073051
  0
VERTEX
  8
0
 10
247.000000
 20
525.500000
 42
-0.052522
  0
VERTEX
  8
0
 10
245.746029
 20
524.948462
 42
-0.023488
  0
VERTEX
  8
0
 10
244.003274
 20
524.480268
 42
-0.022941
  0
VERTEX
  8
0
 10
242.096873
 20
524.153780
 42
-0.028829
  0
VERTEX
  8
0
 10
240.309017
 20
524.035435
 42
0.022040
  0
VERTEX
  8
0
 10
238.658995
 20
523.948684
 42
0.028876
  0
VERTEX
  8
0
 10
237.167588
 20
523.716659
 42
0.029081
  0
VERTEX
  8
0
 10
235.990074
 20
523.390496
 42
0.173938
  0
VERTEX
  8
0
 10
235.500000
 20
523.000000
 42
-0.161967
  0
VERTEX
  8
0
 10
235.036973
 20
522.613093
 42
-0.034697
  0
VERTEX
  8
0
 10
234.024611
 20
522.293750
 42
-0.032865
  0
VERTEX
  8
0
 10
232.744598
 20
522.073381
 42
-0.026202
  0
VERTEX
  8
0
 10
231.345275
 20
522.000000
 42
0.032643
  0
VERTEX
  8
0
 10
229.797204
 20
521.898826
 42
0.022555
  0
VERTEX
  8
0
 10
228.067789
 20
521.591931
 42
0.022816
  0
VERTEX
  8
0
 10
226.425139
 20
521.143756
 42
0.042573
  0
VERTEX
  8
0
 10
225.154292
 20
520.610830
 42
-0.028286
  0
VERTEX
  8
0
 10
223.557231
 20
519.886854
 42
-0.004504
  0
VERTEX
  8
0
 10
220.342198
 20
518.676538
 42
-0.004977
  0
VERTEX
  8
0
 10
216.523200
 20
517.320954
 42
-0.004340
  0
VERTEX
  8
0
 10
212.500000
 20
515.976754
 42
0.006174
  0
VERTEX
  8
0
 10
208.341416
 20
514.570347
 42
0.005738
  0
VERTEX
  8
0
 10
204.115625
 20
513.028092
 42
0.005730
  0
VERTEX
  8
0
 10
200.389680
 20
511.570586
 42
0.019225
  0
VERTEX
  8
0
 10
198.000000
 20
510.495432
 42
-0.013634
  0
VERTEX
  8
0
 10
192.620877
 20
508.002602
 42
-0.117114
  0
VERTEX
  8
0
 10
190.028832
 20
507.548235
 42
-0.147640
  0
VERTEX
  8
0
 10
187.778209
 20
508.376923
 42
-0.025753
  0
VERTEX
  8
0
 10
184.271804
 20
511.315110
 42
0.026489
  0
VERTEX
  8
0
 10
178.646019
 20
516.015152
 42
0.036587
  0
VERTEX
  8
0
 10
173.107951
 20
519.563920
 42
0.039559
  0
VERTEX
  8
0
 10
167.484354
 20
522.059499
 42
0.041039
  0
VERTEX
  8
0
 10
161.606079
 20
523.601570
 42
0.037062
  0
VERTEX
  8
0
 10
155.127614
 20
524.254406
 42
0.032619
  0
VERTEX
  8
0
 10
148.337004
 20
523.990290
 42
0.033300
  0
VERTEX
  8
0
 10
141.805081
 20
522.864566
 42
0.044438
  0
VERTEX
  8
0
 10
136.106304
 20
520.937661
 42
0.060347
  0
VERTEX
  8
0
 10
131.147543
 20
517.995998
 42
0.036351
  0
VERTEX
  8
0
 10
126.039476
 20
513.437186
 42
0.035806
  0
VERTEX
  8
0
 10
121.525211
 20
508.054798
 42
0.049279
  0
VERTEX
  8
0
 10
118.347599
 20
502.604575
 42
0.021219
  0
VERTEX
  8
0
 10
116.804298
 20
498.817109
 42
0.045580
  0
VERTEX
  8
0
 10
116.014517
 20
495.767450
 42
0.034230
  0
VERTEX
  8
0
 10
115.671256
 20
492.121656
 42
0.007667
  0
VERTEX
  8
0
 10
115.608106
 20
485.874856
 42
0.006674
  0
VERTEX
  8
0
 10
115.726524
 20
479.499712
 42
0.038118
  0
VERTEX
  8
0
 10
116.091682
 20
476.135549
 42
0.057674
  0
VERTEX
  8
0
 10
116.902496
 20
473.510132
 42
0.027975
  0
VERTEX
  8
0
 10
118.497854
 20
470.374856
 42
0.011639
  0
VERTEX
  8
0
 10
119.824677
 20
468.210306
 42
0.007198
  0
VERTEX
  8
0
 10
121.478884
 20
465.726735
 42
0.007218
  0
VERTEX
  8
0
 10
123.184576
 20
463.319303
 42
0.012877
  0
VERTEX
  8
0
 10
124.666046
 20
461.397008
 42
-0.023097
  0
VERTEX
  8
0
 10
125.942141
 20
459.669309
 42
-0.024831
  0
VERTEX
  8
0
 10
127.020651
 20
457.871440
 42
-0.025400
  0
VERTEX
  8
0
 10
127.785151
 20
456.247086
 42
-0.097584
  0
VERTEX
  8
0
 10
128.000000
 20
455.156724
 42
-0.105221
  0
VERTEX
  8
0
 10
127.742700
 20
453.947593
 42
-0.015169
  0
VERTEX
  8
0
 10
126.639351
 20
451.661595
 42
-0.016645
  0
VERTEX
  8
0
 10
125.141551
 20
449.004492
 42
-0.013541
  0
VERTEX
  8
0
 10
123.368003
 20
446.259716
 42
0.026962
  0
VERTEX
  8
0
 10
118.693475
 20
438.580951
 42
0.013479
  0
VERTEX
  8
0
 10
113.582769
 20
428.418538
 42
0.013444
  0
VERTEX
  8
0
 10
108.927099
 20
417.768682
 42
0.022079
  0
VERTEX
  8
0
 10
105.637105
 20
408.500000
 42
-0.000210
  0
VERTEX
  8
0
 10
104.477066
 20
404.714442
 42
-0.000187
  0
VERTEX
  8
0
 10
103.268740
 20
400.782450
 42
-0.000188
  0
VERTEX
  8
0
 10
102.179882
 20
397.248643
 42
-0.000582
  0
VERTEX
  8
0
 10
101.441645
 20
394.865786
 42
0.011583
  0
VERTEX
  8
0
 10
100.889786
 20
392.935255
 42
0.011328
  0
VERTEX
  8
0
 10
100.423483
 20
390.966925
 42
0.011283
  0
VERTEX
  8
0
 10
100.092629
 20
389.222089
 42
0.041230
  0
VERTEX
  8
0
 10
100.000000
 20
388.100688
 42
-0.036940
  0
VERTEX
  8
0
 10
99.913010
 20
386.924835
 42
-0.007977
  0
VERTEX
  8
0
 10
99.580503
 20
384.911123
 42
-0.008283
  0
VERTEX
  8
0
 10
99.118610
 20
382.586781
 42
-0.007831
  0
VERTEX
  8
0
 10
98.571924
 20
380.234902
 42
0.032902
  0
VERTEX
  8
0
 10
96.888317
 20
370.891110
 42
0.013899
  0
VERTEX
  8
0
 10
95.809367
 20
358.182640
 42
0.010242
  0
VERTEX
  8
0
 10
95.188072
 20
341.130695
 42
0.003984
  0
VERTEX
  8
0
 10
95.000000
 20
317.529109
 42
0.000000
  0
VERTEX
  8
0
 10
95.000000
 20
282.650360
 42
0.000000
  0
VERTEX
  8
0
 10
97.597499
 20
275.124728
 42
0.025437
  0
VERTEX
  8
0
 10
100.211478
 20
268.640742
 42
0.030570
  0
VERTEX
  8
0
 10
103.335481
 20
262.856435
 42
0.028807
  0
VERTEX
  8
0
 10
107.302043
 20
257.228223
 42
0.018849
  0
VERTEX
  8
0
 10
112.473308
 20
251.202173
 42
0.044293
  0
VERTEX
  8
0
 10
120.601028
 20
243.849593
 42
0.020094
  0
VERTEX
  8
0
 10
132.397747
 20
235.663210
 42
0.018569
  0
VERTEX
  8
0
 10
144.312691
 20
228.692597
 42
0.081483
  0
VERTEX
  8
0
 10
152.000000
 20
226.062942
 42
0.000000
  0
VERTEX
  8
0
 10
155.500000
 20
225.472969
 42
0.000000
  0
VERTEX
  8
0
 10
156.044863
 20
214.986485
 42
0.019393
  0
VERTEX
  8
0
 10
156.728804
 20
207.465893
 42
0.061780
  0
VERTEX
  8
0
 10
157.988506
 20
202.591042
 42
0.060192
  0
VERTEX
  8
0
 10
160.419401
 20
198.104261
 42
0.017748
  0
VERTEX
  8
0
 10
165.175504
 20
191.877057
 42
-0.009431
  0
VERTEX
  8
0
 10
167.510699
 20
188.922742
 42
-0.088137
  0
VERTEX
  8
0
 10
168.248765
 20
187.484747
 42
-0.148964
  0
VERTEX
  8
0
 10
168.252157
 20
186.193131
 42
-0.042429
  0
VERTEX
  8
0
 10
167.503573
 20
184.307618
 42
-0.037221
  0
VERTEX
  8
0
 10
166.616840
 20
182.818710
 42
-0.010414
  0
VERTEX
  8
0
 10
165.014065
 20
180.631427
 42
-0.010444
  0
VERTEX
  8
0
 10
163.092142
 20
178.225850
 42
-0.010809
  0
VERTEX
  8
0
 10
161.092774
 20
175.930560
 42
0.050078
  0
VERTEX
  8
0
 10
156.608378
 20
169.884191
 42
0.060645
  0
VERTEX
  8
0
 10
153.750505
 20
163.431525
 42
0.055408
  0
VERTEX
  8
0
 10
152.362074
 20
156.015910
 42
0.033240
  0
VERTEX
  8
0
 10
152.290949
 20
147.046561
 42
0.036372
  0
VERTEX
  8
0
 10
153.715712
 20
136.252534
 42
0.045734
  0
VERTEX
  8
0
 10
156.650207
 20
126.607569
 42
0.050278
  0
VERTEX
  8
0
 10
160.967606
 20
118.458953
 42
0.065736
  0
VERTEX
  8
0
 10
166.515103
 20
112.120884
 42
-0.023902
  0
VERTEX
  8
0
 10
167.980578
 20
110.704606
 42
-0.013400
  0
VERTEX
  8
0
 10
169.629076
 20
108.854645
 42
-0.013348
  0
VERTEX
  8
0
 10
171.197929
 20
106.892135
 42
-0.021151
  0
VERTEX
  8
0
 10
172.422737
 20
105.122392
 42
0.023061
  0
VERTEX
  8
0
 10
173.588047
 20
103.452284
 42
0.046922
  0
VERTEX
  8
0
 10
174.676819
 20
102.281456
 42
0.065370
  0
VERTEX
  8
0
 10
175.632942
 20
101.631026
 42
0.211371
  0
VERTEX
  8
0
 10
176.382685
 20
101.593356
 42
-0.126540
  0
VERTEX
  8
0
 10
178.638273
 20
101.853134
 42
-0.011549
  0
VERTEX
  8
0
 10
184.264154
 20
100.944237
 42
-0.015423
  0
VERTEX
  8
0
 10
189.875068
 20
99.724173
 42
-0.053046
  0
VERTEX
  8
0
 10
193.369353
 20
98.444905
 42
0.032073
  0
VERTEX
  8
0
 10
194.740130
 20
97.876922
 42
0.056866
  0
VERTEX
  8
0
 10
195.933655
 20
97.616181
 42
0.069795
  0
VERTEX
  8
0
 10
196.970227
 20
97.655474
 42
0.088079
  0
VERTEX
  8
0
 10
197.869353
 20
97.986695
 42
0.006732
  0
VERTEX
  8
0
 10
198.856650
 20
98.581363
 42
0.291903
  0
VERTEX
  8
0
 10
198.957261
 20
98.791149
 42
0.364626
  0
VERTEX
  8
0
 10
198.804862
 20
98.933314
 42
0.008502
  0
VERTEX
  8
0
 10
197.750000
 20
98.969591
 42
-0.135829
  0
VERTEX
  8
0
 10
196.683340
 20
99.284856
 42
-0.190669
  0
VERTEX
  8
0
 10
196.099377
 20
100.074780
 42
-0.140629
  0
VERTEX
  8
0
 10
196.122699
 20
101.261834
 42
-0.066998
  0
VERTEX
  8
0
 10
196.769008
 20
102.660487
 42
-0.149184
  0
VERTEX
  8
0
 10
198.309897
 20
103.979445
 42
-0.013372
  0
VERTEX
  8
0
 10
203.081813
 20
105.913271
 42
-0.017244
  0
VERTEX
  8
0
 10
207.969903
 20
107.553769
 42
-0.072405
  0
VERTEX
  8
0
 10
211.027494
 20
107.999496
 42
0.081899
  0
VERTEX
  8
0
 10
213.743867
 20
108.447993
 42
0.096561
  0
VERTEX
  8
0
 10
216.002527
 20
109.739988
 42
0.108985
  0
VERTEX
  8
0
 10
217.421647
 20
111.639787
 42
0.132595
  0
VERTEX
  8
0
 10
217.776095
 20
113.824981
 42
-0.040448
  0
VERTEX
  8
0
 10
217.743931
 20
115.287042
 42
-0.169790
  0
VERTEX
  8
0
 10
218.077266
 20
116.086061
 42
-0.152087
  0
VERTEX
  8
0
 10
218.861845
 20
116.553522
 42
-0.030594
  0
VERTEX
  8
0
 10
220.481923
 20
116.838802
 42
-0.040368
  0
VERTEX
  8
0
 10
221.907469
 20
116.885065
 42
-0.018531
  0
VERTEX
  8
0
 10
223.761249
 20
116.726538
 42
-0.018213
  0
VERTEX
  8
0
 10
225.710581
 20
116.414382
 42
-0.023976
  0
VERTEX
  8
0
 10
227.458206
 20
115.980864
 42
0.020016
  0
VERTEX
  8
0
 10
230.794174
 20
115.125248
 42
0.010526
  0
VERTEX
  8
0
 10
234.998129
 20
114.316773
 42
0.006491
  0
VERTEX
  8
0
 10
241.057458
 20
113.364010
 42
0.001613
  0
VERTEX
  8
0
 10
251.000000
 20
111.965368
 42
-0.003318
  0
VERTEX
  8
0
 10
258.936699
 20
110.821274
 42
-0.037361
  0
VERTEX
  8
0
 10
262.037278
 20
110.113294
 42
-0.122789
  0
VERTEX
  8
0
 10
263.465708
 20
109.250179
 42
-0.198266
  0
VERTEX
  8
0
 10
264.000000
 20
107.955728
 42
-0.170668
  0
VERTEX
  8
0
 10
263.393388
 20
106.230319
 42
-0.126236
  0
VERTEX
  8
0
 10
261.762320
 20
105.007027
 42
-0.078380
  0
VERTEX
  8
0
 10
259.011581
 20
104.345777
 42
-0.031003
  0
VERTEX
  8
0
 10
255.111467
 20
104.277570
 42
0.016125
  0
VERTEX
  8
0
 10
253.101468
 20
104.302199
 42
0.033399
  0
VERTEX
  8
0
 10
251.538344
 20
104.166226
 42
0.044615
  0
VERTEX
  8
0
 10
250.506100
 20
103.910648
 42
0.411249
  0
VERTEX
  8
0
 10
250.321257
 20
103.536230
 42
0.260620
  0
VERTEX
  8
0
 10
250.740965
 20
103.153654
 42
0.018681
  0
VERTEX
  8
0
 10
252.345169
 20
102.841983
 42
0.022453
  0
VERTEX
  8
0
 10
254.391572
 20
102.616721
 42
0.014811
  0
VERTEX
  8
0
 10
256.757583
 20
102.533600
 42
0.000000
  0
VERTEX
  8
0
 10
262.870900
 20
102.500000
 42
0.000000
  0
VERTEX
  8
0
 10
269.435450
 20
95.605053
 42
-0.010585
  0
VERTEX
  8
0
 10
272.537339
 20
92.205777
 42
-0.029754
  0
VERTEX
  8
0
 10
274.508358
 20
89.661034
 42
-0.043236
  0
VERTEX
  8
0
 10
275.643218
 20
87.646932
 42
-0.107081
  0
VERTEX
  8
0
 10
276.000000
 20
86.000087
 42
-0.065777
  0
VERTEX
  8
0
 10
275.788270
 20
84.397587
 42
-0.227643
  0
VERTEX
  8
0
 10
275.124076
 20
83.625446
 42
-0.090335
  0
VERTEX
  8
0
 10
273.660679
 20
83.278829
 42
-0.006222
  0
VERTEX
  8
0
 10
269.396604
 20
83.108400
 42
-0.015702
  0
VERTEX
  8
0
 10
266.721700
 20
83.118826
 42
-0.020962
  0
VERTEX
  8
0
 10
264.300576
 20
83.306150
 42
-0.020451
  0
VERTEX
  8
0
 10
262.344401
 20
83.621898
 42
-0.123572
  0
VERTEX
  8
0
 10
261.424483
 20
84.062674
 42
0.067026
  0
VERTEX
  8
0
 10
260.681902
 20
84.527069
 42
0.142428
  0
VERTEX
  8
0
 10
260.016881
 20
84.622189
 42
0.120525
  0
VERTEX
  8
0
 10
259.330111
 20
84.347265
 42
0.041205
  0
VERTEX
  8
0
 10
258.505889
 20
83.648746
 42
0.036061
  0
VERTEX
  8
0
 10
257.721202
 20
82.741903
 42
0.346798
  0
VERTEX
  8
0
 10
257.733805
 20
82.265077
 42
0.170717
  0
VERTEX
  8
0
 10
258.296953
 20
81.928612
 42
0.010732
  0
VERTEX
  8
0
 10
260.228010
 20
81.579364
 42
0.023198
  0
VERTEX
  8
0
 10
261.973700
 20
81.384665
 42
0.006341
  0
VERTEX
  8
0
 10
264.741978
 20
81.240576
 42
0.006397
  0
VERTEX
  8
0
 10
267.888618
 20
81.157082
 42
0.006624
  0
VERTEX
  8
0
 10
271.000000
 20
81.155570
 42
-0.014193
  0
VERTEX
  8
0
 10
274.379325
 20
81.102775
 42
-0.008729
  0
VERTEX
  8
0
 10
278.351817
 20
80.858309
 42
-0.008750
  0
VERTEX
  8
0
 10
282.275665
 20
80.478798
 42
-0.015452
  0
VERTEX
  8
0
 10
285.495546
 20
80.009207
 42
0.039224
  0
VERTEX
  8
0
 10
296.375173
 20
78.947118
 42
0.034205
  0
VERTEX
  8
0
 10
307.805666
 20
79.513145
 42
0.034732
  0
VERTEX
  8
0
 10
318.849006
 20
81.606088
 42
0.044672
  0
VERTEX
  8
0
 10
328.565724
 20
85.109208
 42
-0.011964
  0
VERTEX
  8
0
 10
330.227472
 20
85.834179
 42
-0.013461
  0
VERTEX
  8
0
 10
331.858461
 20
86.449078
 42
-0.012783
  0
VERTEX
  8
0
 10
333.267898
 20
86.897524
 42
-0.068056
  0
VERTEX
  8
0
 10
334.065724
 20
87.015313
 42
0.019391
  0
VERTEX
  8
0
 10
334.772990
 20
87.050318
 42
0.334220
  0
VERTEX
  8
0
 10
334.934848
 20
87.196140
 42
0.290661
  0
VERTEX
  8
0
 10
334.849566
 20
87.413845
 42
0.016551
  0
VERTEX
  8
0
 10
334.226175
 20
87.839055
 42
-0.205749
  0
VERTEX
  8
0
 10
333.122959
 20
89.453506
 42
-0.057735
  0
VERTEX
  8
0
 10
332.878821
 20
92.566003
 42
-0.053994
  0
VERTEX
  8
0
 10
333.394350
 20
96.097723
 42
-0.068877
  0
VERTEX
  8
0
 10
334.645139
 20
99.137427
 42
-0.042125
  0
VERTEX
  8
0
 10
336.033365
 20
101.114800
 42
-0.117978
  0
VERTEX
  8
0
 10
337.382529
 20
102.118521
 42
-0.070318
  0
VERTEX
  8
0
 10
339.429760
 20
102.672670
 42
-0.008628
  0
VERTEX
  8
0
 10
344.052937
 20
103.167787
 42
0.024844
  0
VERTEX
  8
0
 10
359.744678
 20
105.364850
 42
0.034130
  0
VERTEX
  8
0
 10
373.520244
 20
108.985523
 42
0.037698
  0
VERTEX
  8
0
 10
385.503740
 20
114.060716
 42
0.045454
  0
VERTEX
  8
0
 10
395.814161
 20
120.623164
 42
-0.001684
  0
VERTEX
  8
0
 10
398.538125
 20
122.712452
 42
-0.001324
  0
VERTEX
  8
0
 10
401.503127
 20
124.958415
 42
-0.001339
  0
VERTEX
  8
0
 10
404.270146
 20
127.031309
 42
-0.003304
  0
VERTEX
  8
0
 10
406.314161
 20
128.533142
 42
0.011479
  0
VERTEX
  8
0
 10
411.989075
 20
132.847378
 42
0.066978
  0
VERTEX
  8
0
 10
414.579528
 20
135.550765
 42
0.118780
  0
VERTEX
  8
0
 10
415.639426
 20
138.101202
 42
0.073538
  0
VERTEX
  8
0
 10
415.673977
 20
141.361944
 42
-0.015364
  0
VERTEX
  8
0
 10
415.491393
 20
143.086304
 42
-0.021096
  0
VERTEX
  8
0
 10
415.440597
 20
144.644771
 42
-0.018441
  0
VERTEX
  8
0
 10
415.499380
 20
145.908520
 42
-0.177334
  0
VERTEX
  8
0
 10
415.722253
 20
146.388920
 42
0.107047
  0
VERTEX
  8
0
 10
416.547679
 20
147.670722
 42
0.011497
  0
VERTEX
  8
0
 10
417.718653
 20
151.025338
 42
0.015073
  0
VERTEX
  8
0
 10
418.802659
 20
154.757078
 42
0.021301
  0
VERTEX
  8
0
 10
419.523959
 20
158.141811
 42
-0.034576
  0
VERTEX
  8
0
 10
419.921050
 20
159.789467
 42
-0.023483
  0
VERTEX
  8
0
 10
420.587576
 20
161.600925
 42
-0.023716
  0
VERTEX
  8
0
 10
421.400593
 20
163.297163
 42
-0.043061
  0
VERTEX
  8
0
 10
422.243405
 20
164.582309
 42
0.030079
  0
VERTEX
  8
0
 10
423.327172
 20
166.144969
 42
0.097999
  0
VERTEX
  8
0
 10
423.758064
 20
167.322246
 42
0.096901
  0
VERTEX
  8
0
 10
423.710521
 20
168.582380
 42
0.029025
  0
VERTEX
  8
0
 10
423.160480
 20
170.432745
 42
-0.040012
  0
VERTEX
  8
0
 10
422.712427
 20
172.070811
 42
-0.014706
  0
VERTEX
  8
0
 10
422.335762
 20
174.440923
 42
-0.014468
  0
VERTEX
  8
0
 10
422.074367
 20
177.065679
 42
-0.016847
  0
VERTEX
  8
0
 10
421.982541
 20
179.570998
 42
0.032461
  0
VERTEX
  8
0
 10
421.398603
 20
188.164762
 42
0.014175
  0
VERTEX
  8
0
 10
419.564542
 20
199.451182
 42
0.012738
  0
VERTEX
  8
0
 10
417.214262
 20
210.218070
 42
0.062834
  0
VERTEX
  8
0
 10
414.996247
 20
216.007013
 42
-0.074376
  0
VERTEX
  8
0
 10
414.271651
 20
218.036566
 42
-0.192493
  0
VERTEX
  8
0
 10
414.553775
 20
219.536683
 42
-0.143956
  0
VERTEX
  8
0
 10
415.899571
 20
220.713749
 42
-0.036602
  0
VERTEX
  8
0
 10
418.643737
 20
221.745089
 42
0.004090
  0
VERTEX
  8
0
 10
427.509689
 20
224.434378
 42
0.029345
  0
VERTEX
  8
0
 10
431.692826
 20
226.015427
 42
0.054462
  0
VERTEX
  8
0
 10
434.507890
 20
227.660480
 42
0.036950
  0
VERTEX
  8
0
 10
437.322665
 20
230.087371
 42
-0.011764
  0
VERTEX
  8
0
 10
438.893609
 20
231.586080
 42
-0.016230
  0
VERTEX
  8
0
 10
440.377169
 20
232.850665
 42
-0.012829
  0
VERTEX
  8
0
 10
441.651846
 20
233.815206
 42
-0.156795
  0
VERTEX
  8
0
 10
442.226645
 20
234.000000
 42
0.141557
  0
VERTEX
  8
0
 10
442.885436
 20
234.190327
 42
0.003761
  0
VERTEX
  8
0
 10
445.465081
 20
235.843843
 42
0.007588
  0
VERTEX
  8
0
 10
448.475914
 20
237.871599
 42
0.005087
  0
VERTEX
  8
0
 10
451.858998
 20
240.276911
 42
-0.007714
  0
VERTEX
  8
0
 10
458.244494
 20
244.766554
 42
-0.028669
  0
VERTEX
  8
0
 10
462.460834
 20
247.294258
 42
-0.046694
  0
VERTEX
  8
0
 10
465.254506
 20
248.440689
 42
-0.340658
  0
VERTEX
  8
0
 10
466.523306
 20
247.962290
 42
-0.077134
  0
VERTEX
  8
0
 10
466.707969
 20
247.525048
 42
-0.058918
  0
VERTEX
  8
0
 10
466.774330
 20
247.009220
 42
-0.059368
  0
VERTEX
  8
0
 10
466.718572
 20
246.496624
 42
-0.081839
  0
VERTEX
  8
0
 10
466.542705
 20
246.069098
 42
0.108373
  0
VERTEX
  8
0
 10
466.401101
 20
245.665803
 42
0.099685
  0
VERTEX
  8
0
 10
466.434921
 20
245.227140
 42
0.095498
  0
VERTEX
  8
0
 10
466.639411
 20
244.820631
 42
0.090427
  0
VERTEX
  8
0
 10
466.983688
 20
244.510081
 42
0.237853
  0
VERTEX
  8
0
 10
467.378336
 20
244.475841
 42
0.175333
  0
VERTEX
  8
0
 10
467.711275
 20
244.772369
 42
0.088229
  0
VERTEX
  8
0
 10
467.931342
 20
245.436359
 42
0.036024
  0
VERTEX
  8
0
 10
468.000000
 20
246.388068
 42
-0.064179
  0
VERTEX
  8
0
 10
468.164531
 20
247.664600
 42
-0.019375
  0
VERTEX
  8
0
 10
468.734375
 20
249.539173
 42
-0.019065
  0
VERTEX
  8
0
 10
469.543074
 20
251.611991
 42
-0.019648
  0
VERTEX
  8
0
 10
470.500000
 20
253.596025
 42
0.011724
  0
VERTEX
  8
0
 10
471.457177
 20
255.502772
 42
0.014003
  0
VERTEX
  8
0
 10
472.265625
 20
257.343728
 42
0.012787
  0
VERTEX
  8
0
 10
472.859732
 20
258.921079
 42
0.083856
  0
VERTEX
  8
0
 10
473.000000
 20
259.751560
 42
-0.119251
  0
VERTEX
  8
0
 10
473.680270
 20
262.563266
 42
-0.030062
  0
VERTEX
  8
0
 10
476.097892
 20
266.643822
 42
-0.029566
  0
VERTEX
  8
0
 10
478.970587
 20
270.390775
 42
-0.131288
  0
VERTEX
  8
0
 10
481.246208
 20
271.935984
 42
0.023524
  0
VERTEX
  8
0
 10
482.305768
 20
272.362220
 42
0.032185
  0
VERTEX
  8
0
 10
483.211018
 20
272.849561
 42
0.033481
  0
VERTEX
  8
0
 10
483.874884
 20
273.328670
 42
0.201218
  0
VERTEX
  8
0
 10
484.067897
 20
273.697980
 42
-0.000195
  0
VERTEX
  8
0
 10
484.111119
 20
274.206167
 42
-0.000019
  0
VERTEX
  8
0
 10
484.216537
 20
275.439407
 42
-0.000024
  0
VERTEX
  8
0
 10
484.342336
 20
276.909576
 42
-0.000019
  0
VERTEX
  8
0
 10
484.478561
 20
278.500000
 42
-0.018819
  0
VERTEX
  8
0
 10
485.030483
 20
282.960233
 42
-0.005011
  0
VERTEX
  8
0
 10
486.247910
 20
290.019757
 42
-0.005323
  0
VERTEX
  8
0
 10
487.663906
 20
297.325765
 42
-0.010980
  0
VERTEX
  8
0
 10
488.956891
 20
303.000000
 42
0.061760
  0
VERTEX
  8
0
 10
489.858529
 20
310.315057
 42
0.003028
  0
VERTEX
  8
0
 10
489.692986
 20
334.730340
 42
0.004445
  0
VERTEX
  8
0
 10
489.176135
 20
358.515974
 42
0.031555
  0
VERTEX
  8
0
 10
488.096856
 20
370.000000
 42
0.016446
  0
VERTEX
  8
0
 10
485.082674
 20
385.699443
 42
0.018940
  0
VERTEX
  8
0
 10
481.155550
 20
400.435131
 42
0.019739
  0
VERTEX
  8
0
 10
476.299006
 20
414.261072
 42
0.021648
  0
VERTEX
  8
0
 10
470.497722
 20
427.232211
 42
0.000000
  0
VERTEX
  8
0
 10
465.128909
 20
437.964422
 42
0.000000
  0
VERTEX
  8
0
 10
468.044724
 20
446.232211
 42
0.014310
  0
VERTEX
  8
0
 10
469.569698
 20
450.985769
 42
0.030026
  0
VERTEX
  8
0
 10
470.423015
 20
454.770031
 42
0.028408
  0
VERTEX
  8
0
 10
470.843171
 20
458.758874
 42
0.011529
  0
VERTEX
  8
0
 10
470.980270
 20
464.222665
 42
0.009046
  0
VERTEX
  8
0
 10
470.890566
 20
469.806696
 42
0.034657
  0
VERTEX
  8
0
 10
470.531692
 20
473.263676
 42
0.044607
  0
VERTEX
  8
0
 10
469.749337
 20
476.182508
 42
0.022796
  0
VERTEX
  8
0
 10
468.282780
 20
479.684185
 42
0.051212
  0
VERTEX
  8
0
 10
464.444835
 20
486.021411
 42
0.032302
  0
VERTEX
  8
0
 10
458.792445
 20
492.578204
 42
0.032340
  0
VERTEX
  8
0
 10
452.357969
 20
498.337695
 42
0.052254
  0
VERTEX
  8
0
 10
446.141011
 20
502.244341
 42
0.017222
  0
VERTEX
  8
0
 10
441.904606
 20
504.147268
 42
0.052773
  0
VERTEX
  8
0
 10
438.885625
 20
505.022870
 42
0.039749
  0
VERTEX
  8
0
 10
435.322897
 20
505.370918
 42
0.006703
  0
VERTEX
  8
0
 10
428.472113
 20
505.401882
 42
0.019591
  0
VERTEX
  8
0
 10
420.740897
 20
505.030003
 42
0.030124
  0
VERTEX
  8
0
 10
414.115938
 20
504.045868
 42
0.035411
  0
VERTEX
  8
0
 10
408.664349
 20
502.487130
 42
0.063310
  0
VERTEX
  8
0
 10
404.527494
 20
500.355807
 42
-0.068511
  0
VERTEX
  8
0
 10
402.589533
 20
499.382627
 42
-0.084381
  0
VERTEX
  8
0
 10
400.595309
 20
499.060374
 42
-0.090023
  0
VERTEX
  8
0
 10
398.708842
 20
499.418717
 42
-0.091258
  0
VERTEX
  8
0
 10
397.078741
 20
500.416554
 42
0.081469
  0
VERTEX
  8
0
 10
390.087063
 20
504.885425
 42
0.008525
  0
VERTEX
  8
0
 10
372.034054
 20
512.287120
 42
0.010317
  0
VERTEX
  8
0
 10
353.753765
 20
518.989238
 42
0.049904
  0
VERTEX
  8
0
 10
343.000000
 20
521.519131
 42
-0.013188
  0
VERTEX
  8
0
 10
338.969223
 20
522.160123
 42
-0.009663
  0
VERTEX
  8
0
 10
334.533492
 20
523.075016
 42
-0.009358
  0
VERTEX
  8
0
 10
329.957531
 20
524.201836
 42
-0.009818
  0
VERTEX
  8
0
 10
325.500000
 20
525.482631
 42
0.026216
  0
VERTEX
  8
0
 10
323.565898
 20
525.970335
 42
0.012104
  0
VERTEX
  8
0
 10
321.007900
 20
526.410446
 42
0.011951
  0
VERTEX
  8
0
 10
318.290188
 20
526.744427
 42
0.016246
  0
VERTEX
  8
0
 10
315.824767
 20
526.907104
 42
-0.012718
  0
VERTEX
  8
0
 10
313.408731
 20
527.049415
 42
-0.010489
  0
VERTEX
  8
0
 10
310.841923
 20
527.320568
 42
-0.010632
  0
VERTEX
  8
0
 10
308.495802
 20
527.669122
 42
-0.027644
  0
VERTEX
  8
0
 10
306.831369
 20
528.048363
 42
0.065848
  0
VERTEX
  8
0
 10
301.796922
 20
528.797887
 42
0.004387
  0
VERTEX
  8
0
 10
287.162725
 20
528.907836
 42
0.003326
  0
VERTEX
  8
0
 10
272.199907
 20
528.789425
 42
0.098136
  0
SEQEND
  0
POLYLINE
  8
0
 66
1
 70
1
  0
VERTEX
  8
0
 10
319.000000
 20
519.041490
 42
-0.001596
  0
VERTEX
  8
0
 10
329.381893
 20
516.865490
 42
-0.004771
  0
VERTEX
  8
0
 10
336.463083
 20
515.286917
 42
-0.006458
  0
VERTEX
  8
0
 10
342.203939
 20
513.871092
 42
-0.006153
  0
VERTEX
  8
0
 10
348.000000
 20
512.285560
 42
-0.003711
  0
VERTEX
  8
0
 10
354.432874
 20
510.388660
 42
-0.005860
  0
VERTEX
  8
0
 10
359.918568
 20
508.656267
 42
-0.006819
  0
VERTEX
  8
0
 10
364.584907
 20
507.051428
 42
-0.011056
  0
VERTEX
  8
0
 10
368.500000
 20
505.546424
 42
-0.018866
  0
VERTEX
  8
0
 10
373.001276
 20
503.499269
 42
-0.002484
  0
VERTEX
  8
0
 10
382.359511
 20
498.751166
 42
-0.000902
  0
VERTEX
  8
0
 10
392.384959
 20
493.578882
 42
-0.076975
  0
VERTEX
  8
0
 10
393.762632
 20
492.570702
 42
-0.284303
  0
VERTEX
  8
0
 10
393.834061
 20
492.267562
 42
-0.010534
  0
VERTEX
  8
0
 10
393.420818
 20
491.112759
 42
-0.016337
  0
VERTEX
  8
0
 10
392.835834
 20
489.718996
 42
-0.010422
  0
VERTEX
  8
0
 10
392.069761
 20
488.136743
 42
0.054723
  0
VERTEX
  8
0
 10
390.636491
 20
484.356558
 42
0.050818
  0
VERTEX
  8
0
 10
390.010868
 20
480.259275
 42
0.060493
  0
VERTEX
  8
0
 10
390.241741
 20
477.006802
 42
0.359116
  0
VERTEX
  8
0
 10
391.462739
 20
476.000000
 42
0.188362
  0
VERTEX
  8
0
 10
392.242163
 20
476.304428
 42
0.019442
  0
VERTEX
  8
0
 10
393.665907
 20
477.723062
 42
0.022063
  0
VERTEX
  8
0
 10
395.276451
 20
479.618956
 42
0.015883
  0
VERTEX
  8
0
 10
396.908828
 20
481.865743
 42
-0.023143
  0
VERTEX
  8
0
 10
400.363206
 20
486.478026
 42
-0.037610
  0
VERTEX
  8
0
 10
403.748710
 20
490.009545
 42
-0.038825
  0
VERTEX
  8
0
 10
407.543931
 20
492.916968
 42
-0.026775
  0
VERTEX
  8
0
 10
412.238043
 20
495.620625
 42
-0.092956
  0
VERTEX
  8
0
 10
420.256594
 20
497.958067
 42
-0.048400
  0
VERTEX
  8
0
 10
430.709785
 20
497.974173
 42
-0.048616
  0
VERTEX
  8
0
 10
440.811473
 20
496.006901
 42
-0.106524
  0
VERTEX
  8
0
 10
447.684673
 20
492.236475
 42
0.000132
  0
VERTEX
  8
0
 10
448.944381
 20
491.145528
 42
0.000085
  0
VERTEX
  8
0
 10
450.407373
 20
489.879638
 42
0.000085
  0
VERTEX
  8
0
 10
451.840479
 20
488.640458
 42
0.000159
  0
VERTEX
  8
0
 10
453.000000
 20
487.638831
 42
-0.054545
  0
VERTEX
  8
0
 10
458.445346
 20
481.789730
 42
-0.072712
  0
VERTEX
  8
0
 10
461.892465
 20
475.411983
 42
-0.066798
  0
VERTEX
  8
0
 10
463.549328
 20
467.894991
 42
-0.038200
  0
VERTEX
  8
0
 10
463.616213
 20
458.586684
 42
-0.044196
  0
VERTEX
  8
0
 10
462.297461
 20
450.283716
 42
-0.073007
  0
VERTEX
  8
0
 10
459.592303
 20
443.732601
 42
-0.065208
  0
VERTEX
  8
0
 10
454.875812
 20
437.749777
 42
-0.028654
  0
VERTEX
  8
0
 10
447.250000
 20
431.119445
 42
0.026438
  0
VERTEX
  8
0
 10
444.350893
 20
428.621242
 42
0.129324
  0
VERTEX
  8
0
 10
443.230323
 20
426.791307
 42
0.241959
  0
VERTEX
  8
0
 10
443.506980
 20
425.292736
 42
0.105906
  0
VERTEX
  8
0
 10
445.093141
 20
423.950153
 42
0.098651
  0
VERTEX
  8
0
 10
447.230432
 20
423.301327
 42
0.092021
  0
VERTEX
  8
0
 10
449.509743
 20
423.496588
 42
0.075973
  0
VERTEX
  8
0
 10
451.917604
 20
424.573717
 42
0.043807
  0
VERTEX
  8
0
 10
454.431962
 20
426.524525
 42
-0.025808
  0
VERTEX
  8
0
 10
455.578838
 20
427.482331
 42
-0.033197
  0
VERTEX
  8
0
 10
456.729205
 20
428.232454
 42
-0.035091
  0
VERTEX
  8
0
 10
457.736020
 20
428.708052
 42
-0.172836
  0
VERTEX
  8
0
 10
458.354025
 20
428.725894
 42
-0.200340
  0
VERTEX
  8
0
 10
460.334076
 20
427.027863
 42
-0.004553
  0
VERTEX
  8
0
 10
465.942155
 20
415.633523
 42
-0.006887
  0
VERTEX
  8
0
 10
471.118612
 20
404.479046
 42
-0.105569
  0
VERTEX
  8
0
 10
472.000000
 20
400.351114
 42
0.056598
  0
VERTEX
  8
0
 10
472.091165
 20
399.548326
 42
0.016064
  0
VERTEX
  8
0
 10
472.412597
 20
398.331590
 42
0.015964
  0
VERTEX
  8
0
 10
472.866935
 20
396.971185
 42
0.016265
  0
VERTEX
  8
0
 10
473.404586
 20
395.651129
 42
-0.020437
  0
VERTEX
  8
0
 10
473.984904
 20
394.191587
 42
-0.011875
  0
VERTEX
  8
0
 10
474.567159
 20
392.397519
 42
-0.011859
  0
VERTEX
  8
0
 10
475.066113
 20
390.568757
 42
-0.019557
  0
VERTEX
  8
0
 10
475.389883
 20
389.000000
 42
0.008279
  0
VERTEX
  8
0
 10
475.721073
 20
387.190017
 42
0.002549
  0
VERTEX
  8
0
 10
476.279525
 20
384.471875
 42
0.002549
  0
VERTEX
  8
0
 10
476.935436
 20
381.436686
 42
0.002794
  0
VERTEX
  8
0
 10
477.602986
 20
378.500000
 42
-0.021114
  0
VERTEX
  8
0
 10
478.277960
 20
374.930396
 42
-0.007340
  0
VERTEX
  8
0
 10
478.956766
 20
369.737500
 42
-0.007275
  0
VERTEX
  8
0
 10
479.537757
 20
363.990432
 42
-0.008410
  0
VERTEX
  8
0
 10
479.919299
 20
358.500000
 42
-0.010527
  0
VERTEX
  8
0
 10
480.409707
 20
342.940165
 42
-0.005805
  0
VERTEX
  8
0
 10
480.387690
 20
323.907517
 42
-0.002426
  0
VERTEX
  8
0
 10
480.056032
 20
305.085798
 42
-0.094044
  0
VERTEX
  8
0
 10
479.185140
 20
301.000000
 42
0.016636
  0
VERTEX
  8
0
 10
478.670533
 20
299.650364
 42
0.004458
  0
VERTEX
  8
0
 10
477.943540
 20
297.471875
 42
0.004512
  0
VERTEX
  8
0
 10
477.161502
 20
294.980469
 42
0.004649
  0
VERTEX
  8
0
 10
476.432540
 20
292.500000
 42
-0.033049
  0
VERTEX
  8
0
 10
473.089751
 20
283.127941
 42
-0.028095
  0
VERTEX
  8
0
 10
468.379878
 20
273.736679
 42
-0.027381
  0
VERTEX
  8
0
 10
462.501904
 20
264.681953
 42
-0.027309
  0
VERTEX
  8
0
 10
455.664818
 20
256.315428
 42
-0.027514
  0
VERTEX
  8
0
 10
450.675441
 20
251.418584
 42
-0.015324
  0
VERTEX
  8
0
 10
444.106514
 20
245.992821
 42
-0.014784
  0
VERTEX
  8
0
 10
437.542601
 20
241.205280
 42
-0.048219
  0
VERTEX
  8
0
 10
432.838264
 20
238.609336
 42
-0.001017
  0
VERTEX
  8
0
 10
431.307438
 20
237.951546
 42
-0.000578
  0
VERTEX
  8
0
 10
429.452490
 20
237.161479
 42
-0.000577
  0
VERTEX
  8
0
 10
427.582078
 20
236.369921
 42
-0.000952
  0
VERTEX
  8
0
 10
426.000000
 20
235.706081
 42
-0.096311
  0
VERTEX
  8
0
 10
418.730663
 20
234.207112
 42
-0.001837
  0
VERTEX
  8
0
 10
380.014834
 20
233.910916
 42
-0.001640
  0
VERTEX
  8
0
 10
341.002474
 20
233.883774
 42
-0.110396
  0
VERTEX
  8
0
 10
334.554599
 20
235.342481
 42
0.005052
  0
VERTEX
  8
0
 10
329.884113
 20
237.497374
 42
0.023316
  0
VERTEX
  8
0
 10
327.114800
 20
238.589219
 42
0.031706
  0
VERTEX
  8
0
 10
324.670226
 20
239.254050
 42
0.015268
  0
VERTEX
  8
0
 10
321.469518
 20
239.808803
 42
-0.013890
  0
VERTEX
  8
0
 10
318.516844
 20
240.312193
 42
-0.103107
  0
VERTEX
  8
0
 10
317.212142
 20
240.867092
 42
-0.163402
  0
VERTEX
  8
0
 10
316.527599
 20
241.787970
 42
-0.049829
  0
VERTEX
  8
0
 10
316.150840
 20
243.507305
 42
-0.039087
  0
VERTEX
  8
0
 10
316.086636
 20
245.195528
 42
-0.007837
  0
VERTEX
  8
0
 10
316.254653
 20
248.203729
 42
-0.008238
  0
VERTEX
  8
0
 10
316.563533
 20
251.706910
 42
-0.007607
  0
VERTEX
  8
0
 10
316.994556
 20
255.292623
 42
0.027216
  0
VERTEX
  8
0
 10
317.570348
 20
262.436475
 42
0.094445
  0
VERTEX
  8
0
 10
316.824551
 20
266.990523
 42
0.115785
  0
VERTEX
  8
0
 10
314.561747
 20
270.435271
 42
0.051939
  0
VERTEX
  8
0
 10
310.241222
 20
273.755816
 42
0.020742
  0
VERTEX
  8
0
 10
306.815019
 20
275.672327
 42
0.036843
  0
VERTEX
  8
0
 10
303.831251
 20
276.915863
 42
0.028679
  0
VERTEX
  8
0
 10
300.227423
 20
277.889547
 42
0.008048
  0
VERTEX
  8
0
 10
294.500000
 20
278.993665
 42
-0.007272
  0
VERTEX
  8
0
 10
292.330188
 20
279.408464
 42
-0.005380
  0
VERTEX
  8
0
 10
289.942564
 20
279.927842
 42
-0.005438
  0
VERTEX
  8
0
 10
287.697469
 20
280.467339
 42
-0.012160
  0
VERTEX
  8
0
 10
286.006602
 20
280.937165
 42
0.058922
  0
VERTEX
  8
0
 10
283.572778
 20
281.374103
 42
0.004818
  0
VERTEX
  8
0
 10
277.104531
 20
281.699676
 42
0.006162
  0
VERTEX
  8
0
 10
269.116005
 20
281.926065
 42
0.004002
  0
VERTEX
  8
0
 10
259.878726
 20
282.000000
 42
0.002784
  0
VERTEX
  8
0
 10
248.193887
 20
281.934937
 42
0.011500
  0
VERTEX
  8
0
 10
241.132108
 20
281.693780
 42
0.017945
  0
VERTEX
  8
0
 10
236.485495
 20
281.260287
 42
0.066816
  0
VERTEX
  8
0
 10
233.654243
 20
280.500000
 42
-0.034392
  0
VERTEX
  8
0
 10
231.957692
 20
279.924529
 42
-0.018586
  0
VERTEX
  8
0
 10
229.804828
 20
279.440625
 42
-0.018432
  0
VERTEX
  8
0
 10
227.565663
 20
279.108916
 42
-0.027559
  0
VERTEX
  8
0
 10
225.591136
 20
279.000000
 42
0.020781
  0
VERTEX
  8
0
 10
223.832994
 20
278.926895
 42
0.027716
  0
VERTEX
  8
0
 10
222.250460
 20
278.706250
 42
0.027361
  0
VERTEX
  8
0
 10
221.000864
 20
278.388960
 42
0.180383
  0
VERTEX
  8
0
 10
220.500000
 20
278.000000
 42
-0.101199
  0
VERTEX
  8
0
 10
220.139224
 20
277.616816
 42
-0.052041
  0
VERTEX
  8
0
 10
219.561403
 20
277.293750
 42
-0.048697
  0
VERTEX
  8
0
 10
218.872333
 20
277.074158
 42
-0.052846
  0
VERTEX
  8
0
 10
218.172652
 20
277.000000
 42
0.157373
  0
VERTEX
  8
0
 10
215.800685
 20
276.234476
 42
0.018728
  0
VERTEX
  8
0
 10
211.387087
 20
272.796169
 42
0.021995
  0
VERTEX
  8
0
 10
207.231175
 20
268.976568
 42
0.090134
  0
VERTEX
  8
0
 10
205.295104
 20
266.169419
 42
0.069908
  0
VERTEX
  8
0
 10
204.817495
 20
264.535614
 42
0.011981
  0
VERTEX
  8
0
 10
204.426699
 20
261.317766
 42
0.012701
  0
VERTEX
  8
0
 10
204.149734
 20
257.450355
 42
0.010417
  0
VERTEX
  8
0
 10
204.045104
 20
253.309017
 42
-0.007778
  0
VERTEX
  8
0
 10
203.955467
 20
248.823635
 42
-0.018925
  0
VERTEX
  8
0
 10
203.712939
 20
245.524580
 42
-0.019217
  0
VERTEX
  8
0
 10
203.357070
 20
243.164454
 42
-0.210305
  0
VERTEX
  8
0
 10
202.825841
 20
242.392364
 42
-0.111430
  0
VERTEX
  8
0
 10
201.969916
 20
242.097629
 42
-0.006395
  0
VERTEX
  8
0
 10
199.183688
 20
241.826812
 42
-0.009496
  0
VERTEX
  8
0
 10
195.829570
 20
241.608106
 42
-0.006817
  0
VERTEX
  8
0
 10
192.075841
 20
241.486107
 42
0.005496
  0
VERTEX
  8
0
 10
186.101104
 20
241.307716
 42
0.011362
  0
VERTEX
  8
0
 10
181.439684
 20
241.011023
 42
0.009556
  0
VERTEX
  8
0
 10
176.318039
 20
240.469211
 42
0.002859
  0
VERTEX
  8
0
 10
168.533511
 20
239.449695
 42
0.040239
  0
VERTEX
  8
0
 10
166.780723
 20
239.064396
 42
0.024591
  0
VERTEX
  8
0
 10
164.787246
 20
238.345773
 42
0.024571
  0
VERTEX
  8
0
 10
162.870094
 20
237.433145
 42
0.039566
  0
VERTEX
  8
0
 10
161.350233
 20
236.453564
 42
-0.060374
  0
VERTEX
  8
0
 10
158.372554
 20
234.704884
 42
-0.108265
  0
VERTEX
  8
0
 10
155.603203
 20
234.158742
 42
-0.076472
  0
VERTEX
  8
0
 10
152.225088
 20
234.751232
 42
-0.019066
  0
VERTEX
  8
0
 10
146.971155
 20
236.755258
 42
-0.018239
  0
VERTEX
  8
0
 10
138.981256
 20
240.507001
 42
-0.028353
  0
VERTEX
  8
0
 10
132.423814
 20
244.368225
 42
-0.029095
  0
VERTEX
  8
0
 10
126.467336
 20
248.868529
 42
-0.020628
  0
VERTEX
  8
0
 10
120.316744
 20
254.557807
 42
-0.030543
  0
VERTEX
  8
0
 10
113.480578
 20
262.320375
 42
-0.040567
  0
VERTEX
  8
0
 10
108.328245
 20
270.186737
 42
-0.044142
  0
VERTEX
  8
0
 10
104.846178
 20
278.186147
 42
-0.050019
  0
VERTEX
  8
0
 10
103.001196
 20
286.345742
 42
0.000627
  0
VERTEX
  8
0
 10
102.614055
 20
289.460171
 42
0.000463
  0
VERTEX
  8
0
 10
102.178063
 20
292.906214
 42
0.000468
  0
VERTEX
  8
0
 10
101.759969
 20
296.162128
 42
0.001049
  0
VERTEX
  8
0
 10
101.435077
 20
298.632860
 42
-0.031817
  0
VERTEX
  8
0
 10
101.246021
 20
301.359280
 42
-0.016738
  0
VERTEX
  8
0
 10
101.340647
 20
304.755532
 42
-0.015248
  0
VERTEX
  8
0
 10
101.692811
 20
308.580025
 42
-0.012564
  0
VERTEX
  8
0
 10
102.294745
 20
312.632860
 42
0.019991
  0
VERTEX
  8
0
 10
102.983635
 20
317.797881
 42
0.009590
  0
VERTEX
  8
0
 10
103.474398
 20
324.468629
 42
0.008041
  0
VERTEX
  8
0
 10
103.785038
 20
332.601588
 42
0.004704
  0
VERTEX
  8
0
 10
103.908749
 20
342.350757
 42
-0.004068
  0
VERTEX
  8
0
 10
104.002975
 20
350.602717
 42
-0.005310
  0
VERTEX
  8
0
 10
104.230744
 20
358.148570
 42
-0.003991
  0
VERTEX
  8
0
 10
104.538660
 20
364.456067
 42
-0.048337
  0
VERTEX
  8
0
 10
104.908815
 20
366.850757
 42
0.013583
  0
VERTEX
  8
0
 10
105.312911
 20
368.634421
 42
0.005772
  0
VERTEX
  8
0
 10
105.761494
 20
371.043660
 42
0.005706
  0
VERTEX
  8
0
 10
106.181409
 20
373.627138
 42
0.007446
  0
VERTEX
  8
0
 10
106.503289
 20
376.000000
 42
-0.010792
  0
VERTEX
  8
0
 10
107.086128
 20
380.090904
 42
-0.012256
  0
VERTEX
  8
0
 10
107.824815
 20
383.981913
 42
-0.009886
  0
VERTEX
  8
0
 10
108.882395
 20
388.460498
 42
-0.004047
  0
VERTEX
  8
0
 10
110.487478
 20
394.500000
 42
-0.002417
  0
VERTEX
  8
0
 10
112.757935
 20
402.618779
 42
-0.009991
  0
VERTEX
  8
0
 10
114.252017
 20
407.491775
 42
-0.010380
  0
VERTEX
  8
0
 10
115.375170
 20
410.684691
 42
-0.166056
  0
VERTEX
  8
0
 10
116.092488
 20
411.557161
 42
0.111168
  0
VERTEX
  8
0
 10
116.440561
 20
411.898070
 42
0.050311
  0
VERTEX
  8
0
 10
116.733418
 20
412.469171
 42
0.046377
  0
VERTEX
  8
0
 10
116.932772
 20
413.160866
 42
0.047014
  0
VERTEX
  8
0
 10
117.000000
 20
413.874267
 42
-0.114725
  0
VERTEX
  8
0
 10
117.686606
 20
416.827272
 42
-0.004701
  0
VERTEX
  8
0
 10
122.622479
 20
426.633775
 42
-0.009016
  0
VERTEX
  8
0
 10
127.833725
 20
436.316496
 42
-0.021866
  0
VERTEX
  8
0
 10
132.114335
 20
443.213005
 42
-0.023290
  0
VERTEX
  8
0
 10
140.239925
 20
453.995578
 42
-0.017529
  0
VERTEX
  8
0
 10
150.113659
 20
465.086213
 42
-0.017629
  0
VERTEX
  8
0
 10
160.647625
 20
475.363607
 42
-0.024974
  0
VERTEX
  8
0
 10
170.764624
 20
483.677484
 42
-0.015530
  0
VERTEX
  8
0
 10
179.049651
 20
489.429678
 42
-0.006620
  0
VERTEX
  8
0
 10
190.468958
 20
496.630201
 42
-0.005106
  0
VERTEX
  8
0
 10
201.683884
 20
503.339557
 42
-0.043053
  0
VERTEX
  8
0
 10
207.000000
 20
505.860941
 42
0.003851
  0
VERTEX
  8
0
 10
208.578191
 20
506.463132
 42
0.002335
  0
VERTEX
  8
0
 10
210.436529
 20
507.198685
 42
0.002340
  0
VERTEX
  8
0
 10
212.273948
 20
507.945905
 42
0.004121
  0
VERTEX
  8
0
 10
213.783927
 20
508.582824
 42
-0.017273
  0
VERTEX
  8
0
 10
215.170776
 20
509.125304
 42
-0.016184
  0
VERTEX
  8
0
 10
216.621984
 20
509.583704
 42
-0.016400
  0
VERTEX
  8
0
 10
217.935338
 20
509.906210
 42
-0.052046
  0
VERTEX
  8
0
 10
218.833927
 20
510.000000
 42
0.041462
  0
VERTEX
  8
0
 10
219.579804
 20
510.061958
 42
0.033720
  0
VERTEX
  8
0
 10
220.360279
 20
510.247312
 42
0.034886
  0
VERTEX
  8
0
 10
221.059713
 20
510.518859
 42
0.071391
  0
VERTEX
  8
0
 10
221.550000
 20
510.841912
 42
-0.121725
  0
VERTEX
  8
0
 10
224.220398
 20
512.241986
 42
-0.004321
  0
VERTEX
  8
0
 10
235.603980
 20
514.931341
 42
-0.008855
  0
VERTEX
  8
0
 10
247.442523
 20
517.400766
 42
-0.014749
  0
VERTEX
  8
0
 10
257.500000
 20
519.007710
 42
0.001742
  0
VERTEX
  8
0
 10
261.056452
 20
519.481444
 42
0.002293
  0
VERTEX
  8
0
 10
264.296875
 20
519.939724
 42
0.001662
  0
VERTEX
  8
0
 10
267.009305
 20
520.345241
 42
0.022089
  0
VERTEX
  8
0
 10
268.000000
 20
520.541839
 42
-0.065824
  0
VERTEX
  8
0
 10
272.434410
 20
521.025369
 42
-0.001641
  0
VERTEX
  8
0
 10
292.816450
 20
520.492691
 42
-0.002343
  0
VERTEX
  8
0
 10
312.627635
 20
519.816960
 42
-0.041182
  0
SEQEND
  0
POLYLINE
  8
0
 66
1
 70
1
  0
VERTEX
  8
0
 10
167.500000
 20
515.530922
 42
-0.042744
  0
VERTEX
  8
0
 10
172.475742
 20
512.757697
 42
-0.034138
  0
VERTEX
  8
0
 10
177.320365
 20
508.981007
 42
-0.030953
  0
VERTEX
  8
0
 10
181.091436
 20
505.157583
 42
-0.219800
  0
VERTEX
  8
0
 10
181.802373
 20
502.721040
 42
-0.063559
  0
VERTEX
  8
0
 10
181.561744
 20
501.870694
 42
-0.043423
  0
VERTEX
  8
0
 10
181.089067
 20
500.983463
 42
-0.043524
  0
VERTEX
  8
0
 10
180.472236
 20
500.194064
 42
-0.065256
  0
VERTEX
  8
0
 10
179.798705
 20
499.637965
 42
-0.148837
  0
VERTEX
  8
0
 10
178.709518
 20
499.343134
 42
-0.122162
  0
VERTEX
  8
0
 10
177.544368
 20
499.670963
 42
-0.057845
  0
VERTEX
  8
0
 10
176.013069
 20
500.794397
 42
-0.011000
  0
VERTEX
  8
0
 10
173.527814
 20
503.206744
 42
0.035010
  0
VERTEX
  8
0
 10
168.746605
 20
507.421548
 42
0.061301
  0
VERTEX
  8
0
 10
164.200203
 20
510.085843
 42
0.062948
  0
VERTEX
  8
0
 10
159.229380
 20
511.525454
 42
0.039062
  0
VERTEX
  8
0
 10
153.164404
 20
512.000000
 42
0.050356
  0
VERTEX
  8
0
 10
146.368872
 20
511.313867
 42
0.093655
  0
VERTEX
  8
0
 10
141.260325
 20
509.225792
 42
0.084097
  0
VERTEX
  8
0
 10
136.917630
 20
505.239899
 42
0.034488
  0
VERTEX
  8
0
 10
132.442894
 20
498.577873
 42
0.024224
  0
VERTEX
  8
0
 10
130.994264
 20
495.754608
 42
0.045508
  0
VERTEX
  8
0
 10
130.152747
 20
493.334841
 42
0.042127
  0
VERTEX
  8
0
 10
129.725764
 20
490.681029
 42
0.017879
  0
VERTEX
  8
0
 10
129.583119
 20
487.077873
 42
0.034247
  0
VERTEX
  8
0
 10
129.892403
 20
482.300798
 42
0.055431
  0
VERTEX
  8
0
 10
130.874514
 20
478.353756
 42
0.054184
  0
VERTEX
  8
0
 10
132.719274
 20
474.657140
 42
0.031115
  0
VERTEX
  8
0
 10
135.670280
 20
470.638113
 42
-0.021224
  0
VERTEX
  8
0
 10
136.819298
 20
469.136399
 42
-0.082052
  0
VERTEX
  8
0
 10
137.324694
 20
468.081925
 42
-0.136374
  0
VERTEX
  8
0
 10
137.335164
 20
467.218691
 42
-0.108871
  0
VERTEX
  8
0
 10
136.907142
 20
466.388113
 42
-0.121062
  0
VERTEX
  8
0
 10
135.467073
 20
465.322349
 42
-0.194742
  0
VERTEX
  8
0
 10
133.961071
 20
465.305029
 42
-0.095545
  0
VERTEX
  8
0
 10
132.075001
 20
466.497195
 42
-0.017975
  0
VERTEX
  8
0
 10
129.190310
 20
469.409365
 42
-0.048455
  0
VERTEX
  8
0
 10
126.195393
 20
473.366379
 42
-0.057802
  0
VERTEX
  8
0
 10
124.222328
 20
477.606063
 42
-0.051335
  0
VERTEX
  8
0
 10
123.121911
 20
482.585051
 42
-0.028376
  0
VERTEX
  8
0
 10
122.759234
 20
488.809597
 42
-0.063051
  0
VERTEX
  8
0
 10
123.672677
 20
496.110265
 42
-0.063315
  0
VERTEX
  8
0
 10
126.376508
 20
502.941841
 42
-0.061653
  0
VERTEX
  8
0
 10
130.783366
 20
509.030886
 42
-0.054686
  0
VERTEX
  8
0
 10
136.709098
 20
514.143863
 42
-0.084579
  0
VERTEX
  8
0
 10
143.151039
 20
517.128605
 42
-0.055083
  0
VERTEX
  8
0
 10
151.270063
 20
518.397833
 42
-0.053273
  0
VERTEX
  8
0
 10
159.805351
 20
517.872867
 42
-0.063876
  0
SEQEND
  0
POLYLINE
  8
0
 66
1
 70
1
  0
VERTEX
  8
0
 10
292.500000
 20
269.267310
 42
-0.020519
  0
VERTEX
  8
0
 10
304.131850
 20
266.033206
 42
-0.293099
  0
VERTEX
  8
0
 10
306.741950
 20
262.860073
 42
-0.343087
  0
VERTEX
  8
0
 10
304.788504
 20
259.622463
 42
-0.024148
  0
VERTEX
  8
0
 10
294.064371
 20
256.085055
 42
-0.051997
  0
VERTEX
  8
0
 10
273.054945
 20
252.555817
 42
-0.028645
  0
VERTEX
  8
0
 10
246.974315
 20
252.418778
 42
-0.023905
  0
VERTEX
  8
0
 10
222.866315
 20
254.833263
 42
-0.184766
  0
VERTEX
  8
0
 10
213.167382
 20
260.297108
 42
-0.148210
  0
VERTEX
  8
0
 10
212.271435
 20
262.427642
 42
-0.220807
  0
VERTEX
  8
0
 10
212.917639
 20
264.309060
 42
-0.103201
  0
VERTEX
  8
0
 10
215.462366
 20
266.048652
 42
-0.023249
  0
VERTEX
  8
0
 10
220.419465
 20
267.843959
 42
-0.026141
  0
VERTEX
  8
0
 10
228.625507
 20
269.928080
 42
-0.027692
  0
VERTEX
  8
0
 10
236.848047
 20
271.095850
 42
-0.019649
  0
VERTEX
  8
0
 10
247.238182
 20
271.578465
 42
-0.005974
  0
VERTEX
  8
0
 10
263.000000
 20
271.502424
 42
-0.003844
  0
VERTEX
  8
0
 10
273.980110
 20
271.233800
 42
-0.010869
  0
VERTEX
  8
0
 10
281.637435
 20
270.820788
 42
-0.015275
  0
VERTEX
  8
0
 10
287.486220
 20
270.197481
 42
-0.023364
  0
SEQEND
  0
POLYLINE
  8
0
 66
1
 70
1
  0
VERTEX
  8
0
 10
305.984687
 20
244.750000
 42
-0.039665
  0
VERTEX
  8
0
 10
305.756133
 20
242.035531
 42
-0.118728
  0
VERTEX
  8
0
 10
305.036468
 20
240.331651
 42
-0.095957
  0
VERTEX
  8
0
 10
303.522194
 20
238.939295
 42
-0.020761
  0
VERTEX
  8
0
 10
300.405320
 20
237.193249
 42
0.060862
  0
VERTEX
  8
0
 10
295.859481
 20
234.144996
 42
0.047649
  0
VERTEX
  8
0
 10
291.750098
 20
229.849893
 42
0.047627
  0
VERTEX
  8
0
 10
288.526173
 20
224.852028
 42
0.060634
  0
VERTEX
  8
0
 10
286.612411
 20
219.714630
 42
-0.059473
  0
VERTEX
  8
0
 10
286.176127
 20
218.535114
 42
-0.054566
  0
VERTEX
  8
0
 10
285.464342
 20
217.453680
 42
-0.056193
  0
VERTEX
  8
0
 10
284.560603
 20
216.581909
 42
-0.073081
  0
VERTEX
  8
0
 10
283.557640
 20
216.021915
 42
0.176312
  0
VERTEX
  8
0
 10
281.180063
 20
213.968554
 42
0.111342
  0
VERTEX
  8
0
 10
280.128629
 20
210.414455
 42
0.138599
  0
VERTEX
  8
0
 10
280.798306
 20
207.266034
 42
0.278313
  0
VERTEX
  8
0
 10
282.896607
 20
206.000000
 42
-0.116355
  0
VERTEX
  8
0
 10
284.463829
 20
205.630286
 42
-0.105707
  0
VERTEX
  8
0
 10
285.764676
 20
204.591257
 42
-0.046015
  0
VERTEX
  8
0
 10
287.245382
 20
202.399904
 42
-0.006225
  0
VERTEX
  8
0
 10
289.857796
 20
197.500000
 42
0.025138
  0
VERTEX
  8
0
 10
292.307766
 20
193.295818
 42
0.037602
  0
VERTEX
  8
0
 10
294.889896
 20
189.920758
 42
0.039122
  0
VERTEX
  8
0
 10
297.865809
 20
187.067548
 42
0.030499
  0
VERTEX
  8
0
 10
301.500000
 20
184.444603
 42
-0.018825
  0
VERTEX
  8
0
 10
303.986244
 20
182.736961
 42
-0.095788
  0
VERTEX
  8
0
 10
305.113442
 20
181.503268
 42
-0.168328
  0
VERTEX
  8
0
 10
305.376926
 20
180.301298
 42
-0.093689
  0
VERTEX
  8
0
 10
304.922136
 20
178.854510
 42
-0.143396
  0
VERTEX
  8
0
 10
302.887695
 20
176.782489
 42
-0.013511
  0
VERTEX
  8
0
 10
296.507368
 20
173.439071
 42
-0.011641
  0
VERTEX
  8
0
 10
289.905187
 20
170.392166
 42
-0.196342
  0
VERTEX
  8
0
 10
287.551354
 20
170.341920
 42
-0.119135
  0
VERTEX
  8
0
 10
286.957679
 20
170.751184
 42
-0.065153
  0
VERTEX
  8
0
 10
286.455710
 20
171.484970
 42
-0.059160
  0
VERTEX
  8
0
 10
286.115512
 20
172.412174
 42
-0.058435
  0
VERTEX
  8
0
 10
286.000000
 20
173.397187
 42
0.055387
  0
VERTEX
  8
0
 10
285.882266
 20
174.456748
 42
0.038731
  0
VERTEX
  8
0
 10
285.528253
 20
175.606277
 42
0.039128
  0
VERTEX
  8
0
 10
285.009238
 20
176.668796
 42
0.063283
  0
VERTEX
  8
0
 10
284.394054
 20
177.463089
 42
0.155695
  0
VERTEX
  8
0
 10
282.754066
 20
178.309576
 42
0.261661
  0
VERTEX
  8
0
 10
281.335184
 20
177.800837
 42
0.126158
  0
VERTEX
  8
0
 10
280.297422
 20
175.725531
 42
0.037073
  0
VERTEX
  8
0
 10
279.801537
 20
172.170327
 42
0.000000
  0
VERTEX
  8
0
 10
279.500000
 20
167.500000
 42
0.000000
  0
VERTEX
  8
0
 10
272.500000
 20
166.726041
 42
-0.029519
  0
VERTEX
  8
0
 10
263.790806
 20
166.280636
 42
-0.013279
  0
VERTEX
  8
0
 10
252.343638
 20
166.675482
 42
-0.013100
  0
VERTEX
  8
0
 10
241.110707
 20
167.657856
 42
-0.035695
  0
VERTEX
  8
0
 10
233.270393
 20
169.123391
 42
-0.033614
  0
VERTEX
  8
0
 10
224.887692
 20
171.932560
 42
-0.046078
  0
VERTEX
  8
0
 10
217.844760
 20
175.622911
 42
-0.055555
  0
VERTEX
  8
0
 10
213.143986
 20
179.469025
 42
-0.277135
  0
VERTEX
  8
0
 10
212.388318
 20
182.648121
 42
-0.098136
  0
VERTEX
  8
0
 10
212.860328
 20
183.506047
 42
-0.032698
  0
VERTEX
  8
0
 10
213.856802
 20
184.546111
 42
-0.031088
  0
VERTEX
  8
0
 10
215.139470
 20
185.581807
 42
-0.030789
  0
VERTEX
  8
0
 10
216.544672
 20
186.454124
 42
0.052210
  0
VERTEX
  8
0
 10
219.912307
 20
188.749775
 42
0.031502
  0
VERTEX
  8
0
 10
223.398350
 20
192.100677
 42
0.030392
  0
VERTEX
  8
0
 10
226.608539
 20
196.058977
 42
0.034901
  0
VERTEX
  8
0
 10
229.155440
 20
200.204940
 42
0.035848
  0
VERTEX
  8
0
 10
230.308773
 20
202.862643
 42
0.044191
  0
VERTEX
  8
0
 10
230.975474
 20
205.479740
 42
0.031329
  0
VERTEX
  8
0
 10
231.304478
 20
208.809749
 42
0.008961
  0
VERTEX
  8
0
 10
231.397504
 20
214.000000
 42
0.039474
  0
VERTEX
  8
0
 10
230.706105
 20
222.743928
 42
0.087853
  0
VERTEX
  8
0
 10
228.530224
 20
229.033318
 42
0.087800
  0
VERTEX
  8
0
 10
224.326006
 20
234.195471
 42
0.039391
  0
VERTEX
  8
0
 10
217.250000
 20
239.391916
 42
-0.022145
  0
VERTEX
  8
0
 10
215.215180
 20
240.780932
 42
-0.058765
  0
VERTEX
  8
0
 10
213.941789
 20
241.992799
 42
-0.082585
  0
VERTEX
  8
0
 10
213.242465
 20
243.191959
 42
-0.091041
  0
VERTEX
  8
0
 10
213.000000
 20
244.512545
 42
-0.136395
  0
VERTEX
  8
0
 10
213.458557
 20
246.162259
 42
-0.226813
  0
VERTEX
  8
0
 10
214.639805
 20
246.940375
 42
-0.100501
  0
VERTEX
  8
0
 10
216.858323
 20
246.798365
 42
-0.018735
  0
VERTEX
  8
0
 10
220.774310
 20
245.579628
 42
0.056790
  0
VERTEX
  8
0
 10
227.560988
 20
244.021128
 42
0.010607
  0
VERTEX
  8
0
 10
240.298553
 20
242.858087
 42
0.011866
  0
VERTEX
  8
0
 10
254.467223
 20
242.204292
 42
0.015282
  0
VERTEX
  8
0
 10
267.500000
 20
242.310923
 42
0.007902
  0
VERTEX
  8
0
 10
277.927701
 20
242.880298
 42
0.016192
  0
VERTEX
  8
0
 10
286.070001
 20
243.719734
 42
0.020284
  0
VERTEX
  8
0
 10
292.725959
 20
244.901205
 42
0.028969
  0
VERTEX
  8
0
 10
298.500000
 20
246.525112
 42
-0.015322
  0
VERTEX
  8
0
 10
302.677798
 20
247.824056
 42
-0.126585
  0
VERTEX
  8
0
 10
304.649974
 20
247.861469
 42
-0.264455
  0
VERTEX
  8
0
 10
305.657270
 20
246.923194
 42
-0.077278
  0
SEQEND
  0
POLYLINE
  8
0
 66
1
 70
1
  0
VERTEX
  8
0
 10
202.697511
 20
231.971309
 42
-0.006603
  0
VERTEX
  8
0
 10
206.004793
 20
231.531191
 42
-0.007486
  0
VERTEX
  8
0
 10
209.163360
 20
231.019920
 42
-0.006892
  0
VERTEX
  8
0
 10
211.831141
 20
230.508980
 42
-0.040577
  0
VERTEX
  8
0
 10
213.197511
 20
230.109968
 42
-0.137792
  0
VERTEX
  8
0
 10
217.690398
 20
226.771167
 42
-0.085873
  0
VERTEX
  8
0
 10
220.778816
 20
220.932169
 42
-0.078706
  0
VERTEX
  8
0
 10
221.905819
 20
213.863709
 42
-0.085123
  0
VERTEX
  8
0
 10
220.734944
 20
206.993821
 42
-0.043482
  0
VERTEX
  8
0
 10
218.899192
 20
202.943695
 42
-0.055337
  0
VERTEX
  8
0
 10
216.506858
 20
199.614047
 42
-0.053901
  0
VERTEX
  8
0
 10
213.388110
 20
196.825791
 42
-0.038372
  0
VERTEX
  8
0
 10
209.376823
 20
194.393385
 42
-0.021865
  0
VERTEX
  8
0
 10
205.860145
 20
192.803171
 42
-0.050040
  0
VERTEX
  8
0
 10
203.067948
 20
191.997375
 42
-0.038531
  0
VERTEX
  8
0
 10
199.756485
 20
191.651955
 42
-0.008725
  0
VERTEX
  8
0
 10
194.100557
 20
191.598445
 42
-0.031220
  0
VERTEX
  8
0
 10
185.446497
 20
192.208773
 42
-0.075394
  0
VERTEX
  8
0
 10
179.303015
 20
193.997527
 42
-0.081678
  0
VERTEX
  8
0
 10
174.262385
 20
197.422574
 42
-0.041676
  0
VERTEX
  8
0
 10
169.157382
 20
203.153802
 42
-0.062087
  0
VERTEX
  8
0
 10
168.583903
 20
204.154582
 42
-0.012356
  0
VERTEX
  8
0
 10
167.833796
 20
206.079234
 42
-0.012900
  0
VERTEX
  8
0
 10
167.068951
 20
208.378624
 42
-0.011697
  0
VERTEX
  8
0
 10
166.396480
 20
210.790361
 42
-0.014266
  0
VERTEX
  8
0
 10
165.596024
 20
214.369839
 42
-0.050359
  0
VERTEX
  8
0
 10
165.382491
 20
216.713994
 42
-0.052196
  0
VERTEX
  8
0
 10
165.645627
 20
219.010359
 42
-0.016132
  0
VERTEX
  8
0
 10
166.510045
 20
222.386559
 42
-0.010541
  0
VERTEX
  8
0
 10
167.625513
 20
225.942222
 42
-0.107870
  0
VERTEX
  8
0
 10
168.414113
 20
227.257855
 42
-0.168259
  0
VERTEX
  8
0
 10
169.548794
 20
227.852205
 42
-0.035132
  0
VERTEX
  8
0
 10
171.820958
 20
228.031803
 42
0.034344
  0
VERTEX
  8
0
 10
173.371937
 20
228.151940
 42
0.028721
  0
VERTEX
  8
0
 10
174.989488
 20
228.485547
 42
0.029687
  0
VERTEX
  8
0
 10
176.437260
 20
228.965600
 42
0.067109
  0
VERTEX
  8
0
 10
177.441130
 20
229.531803
 42
-0.045485
  0
VERTEX
  8
0
 10
178.344726
 20
230.094108
 42
-0.031155
  0
VERTEX
  8
0
 10
179.456558
 20
230.568717
 42
-0.031472
  0
VERTEX
  8
0
 10
180.595129
 20
230.893954
 42
-0.053882
  0
VERTEX
  8
0
 10
181.576320
 20
231.000000
 42
0.047212
  0
VERTEX
  8
0
 10
182.650903
 20
231.101693
 42
0.018142
  0
VERTEX
  8
0
 10
184.114288
 20
231.436607
 42
0.017773
  0
VERTEX
  8
0
 10
185.686015
 20
231.917308
 42
0.020903
  0
VERTEX
  8
0
 10
187.135190
 20
232.486320
 42
-0.030708
  0
VERTEX
  8
0
 10
188.570294
 20
233.017594
 42
-0.028303
  0
VERTEX
  8
0
 10
190.099087
 20
233.386157
 42
-0.029449
  0
VERTEX
  8
0
 10
191.499294
 20
233.556549
 42
-0.078157
  0
VERTEX
  8
0
 10
192.500000
 20
233.462423
 42
0.023080
  0
VERTEX
  8
0
 10
193.719568
 20
233.210593
 42
0.003071
  0
VERTEX
  8
0
 10
196.320519
 20
232.813944
 42
0.003550
  0
VERTEX
  8
0
 10
199.412280
 20
232.384256
 42
0.002975
  0
SEQEND
  0
POLYLINE
  8
0
 66
1
 70
1
  0
VERTEX
  8
0
 10
325.500000
 20
228.038414
 42
-0.003069
  0
VERTEX
  8
0
 10
327.741348
 20
227.614849
 42
-0.001935
  0
VERTEX
  8
0
 10
330.353125
 20
227.094154
 42
-0.001943
  0
VERTEX
  8
0
 10
332.917211
 20
226.562256
 42
-0.003570
  0
VERTEX
  8
0
 10
335.000000
 20
226.106190
 42
0.018033
  0
VERTEX
  8
0
 10
337.086825
 20
225.712109
 42
0.009942
  0
VERTEX
  8
0
 10
339.661563
 20
225.373666
 42
0.009901
  0
VERTEX
  8
0
 10
342.289327
 20
225.133841
 42
0.015648
  0
VERTEX
  8
0
 10
344.550000
 20
225.043551
 42
-0.020851
  0
VERTEX
  8
0
 10
346.568232
 20
224.941910
 42
-0.024782
  0
VERTEX
  8
0
 10
348.456574
 20
224.672781
 42
-0.024734
  0
VERTEX
  8
0
 10
350.000267
 20
224.294067
 42
-0.124477
  0
VERTEX
  8
0
 10
350.757487
 20
223.842513
 42
0.154035
  0
VERTEX
  8
0
 10
351.731762
 20
223.335629
 42
0.043577
  0
VERTEX
  8
0
 10
353.456034
 20
223.185301
 42
0.027294
  0
VERTEX
  8
0
 10
356.078680
 20
223.328926
 42
0.007389
  0
VERTEX
  8
0
 10
360.207487
 20
223.843789
 42
-0.016904
  0
VERTEX
  8
0
 10
364.444435
 20
224.290450
 42
-0.005701
  0
VERTEX
  8
0
 10
370.643926
 20
224.661791
 42
-0.005663
  0
VERTEX
  8
0
 10
377.513770
 20
224.916780
 42
-0.006464
  0
VERTEX
  8
0
 10
384.090983
 20
225.001276
 42
0.000000
  0
VERTEX
  8
0
 10
399.681966
 20
225.000000
 42
0.000000
  0
VERTEX
  8
0
 10
402.840983
 20
218.521040
 42
-0.010147
  0
VERTEX
  8
0
 10
404.050548
 20
215.906922
 42
-0.012351
  0
VERTEX
  8
0
 10
405.072039
 20
213.410344
 42
-0.010941
  0
VERTEX
  8
0
 10
405.828512
 20
211.283968
 42
-0.080149
  0
VERTEX
  8
0
 10
406.000000
 20
210.221040
 42
0.044054
  0
VERTEX
  8
0
 10
406.067704
 20
209.454109
 42
0.036055
  0
VERTEX
  8
0
 10
406.269982
 20
208.655868
 42
0.037387
  0
VERTEX
  8
0
 10
406.566521
 20
207.944587
 42
0.074921
  0
VERTEX
  8
0
 10
406.919088
 20
207.450000
 42
-0.179453
  0
VERTEX
  8
0
 10
409.821624
 20
200.839482
 42
-0.013451
  0
VERTEX
  8
0
 10
410.454544
 20
180.884846
 42
-0.016760
  0
VERTEX
  8
0
 10
409.885778
 20
161.079652
 42
-0.104619
  0
VERTEX
  8
0
 10
407.188680
 20
151.361030
 42
0.005185
  0
VERTEX
  8
0
 10
406.694017
 20
150.384354
 42
0.001546
  0
VERTEX
  8
0
 10
405.959144
 20
148.883617
 42
0.001550
  0
VERTEX
  8
0
 10
405.144232
 20
147.192995
 42
0.001676
  0
VERTEX
  8
0
 10
404.360867
 20
145.540644
 42
-0.069591
  0
VERTEX
  8
0
 10
401.157820
 20
140.633717
 42
-0.018139
  0
VERTEX
  8
0
 10
394.699633
 20
133.750417
 42
-0.018682
  0
VERTEX
  8
0
 10
387.684707
 20
127.298469
 42
-0.058147
  0
VERTEX
  8
0
 10
382.357370
 20
123.730796
 42
-0.018490
  0
VERTEX
  8
0
 10
377.420297
 20
121.424863
 42
-0.013134
  0
VERTEX
  8
0
 10
371.731329
 20
119.193990
 42
-0.010867
  0
VERTEX
  8
0
 10
366.450411
 20
117.410397
 42
-0.076142
  0
VERTEX
  8
0
 10
363.771090
 20
117.000000
 42
0.039668
  0
VERTEX
  8
0
 10
362.956786
 20
116.935295
 42
0.022722
  0
VERTEX
  8
0
 10
361.991015
 20
116.735474
 42
0.022587
  0
VERTEX
  8
0
 10
361.032260
 20
116.444533
 42
0.034670
  0
VERTEX
  8
0
 10
360.236431
 20
116.099488
 42
-0.087010
  0
VERTEX
  8
0
 10
356.415008
 20
114.897111
 42
-0.012247
  0
VERTEX
  8
0
 10
348.168045
 20
114.013311
 42
-0.010720
  0
VERTEX
  8
0
 10
339.841233
 20
113.506191
 42
-0.117261
  0
VERTEX
  8
0
 10
336.573588
 20
114.148425
 42
0.139788
  0
VERTEX
  8
0
 10
333.962496
 20
114.542388
 42
0.138420
  0
VERTEX
  8
0
 10
331.525000
 20
113.502864
 42
0.081903
  0
VERTEX
  8
0
 10
329.064111
 20
110.748285
 42
0.024979
  0
VERTEX
  8
0
 10
326.298070
 20
105.869404
 42
-0.057454
  0
VERTEX
  8
0
 10
320.794629
 20
97.480201
 42
-0.092551
  0
VERTEX
  8
0
 10
314.226225
 20
92.049709
 42
-0.099732
  0
VERTEX
  8
0
 10
306.516035
 20
89.601461
 42
-0.076271
  0
VERTEX
  8
0
 10
297.655590
 20
89.987926
 42
-0.010216
  0
VERTEX
  8
0
 10
295.073024
 20
90.555326
 42
-0.008999
  0
VERTEX
  8
0
 10
292.403520
 20
91.250330
 42
-0.009078
  0
VERTEX
  8
0
 10
290.018620
 20
91.964215
 42
-0.026825
  0
VERTEX
  8
0
 10
288.420222
 20
92.570676
 42
-0.097961
  0
VERTEX
  8
0
 10
282.605905
 20
96.648048
 42
-0.071561
  0
VERTEX
  8
0
 10
278.004310
 20
103.079467
 42
-0.064559
  0
VERTEX
  8
0
 10
275.033994
 20
111.236272
 42
-0.054596
  0
VERTEX
  8
0
 10
274.014553
 20
120.365786
 42
-0.037404
  0
VERTEX
  8
0
 10
274.487825
 20
126.868469
 42
-0.052043
  0
VERTEX
  8
0
 10
275.939021
 20
132.518396
 42
-0.053379
  0
VERTEX
  8
0
 10
278.489162
 20
137.638918
 42
-0.042254
  0
VERTEX
  8
0
 10
282.250000
 20
142.553550
 42
0.015423
  0
VERTEX
  8
0
 10
284.524279
 20
145.216743
 42
0.039533
  0
VERTEX
  8
0
 10
285.947947
 20
147.311518
 42
0.054761
  0
VERTEX
  8
0
 10
286.734679
 20
149.129162
 42
0.074908
  0
VERTEX
  8
0
 10
287.000000
 20
150.890209
 42
0.028965
  0
VERTEX
  8
0
 10
286.894973
 20
152.701651
 42
0.179126
  0
VERTEX
  8
0
 10
286.479472
 20
153.518970
 42
0.164448
  0
VERTEX
  8
0
 10
285.610454
 20
153.907054
 42
0.023511
  0
VERTEX
  8
0
 10
283.634859
 20
154.000000
 42
0.157365
  0
VERTEX
  8
0
 10
277.676343
 20
152.077053
 42
0.072922
  0
VERTEX
  8
0
 10
271.771173
 20
146.351835
 42
0.065429
  0
VERTEX
  8
0
 10
267.127569
 20
138.327649
 42
0.070555
  0
VERTEX
  8
0
 10
264.864929
 20
129.578283
 42
-0.020564
  0
VERTEX
  8
0
 10
264.044979
 20
124.271885
 42
-0.112113
  0
VERTEX
  8
0
 10
262.873543
 20
121.632608
 42
-0.215248
  0
VERTEX
  8
0
 10
261.093105
 20
120.646617
 42
-0.103399
  0
VERTEX
  8
0
 10
258.447468
 20
120.977290
 42
0.028524
  0
VERTEX
  8
0
 10
256.833681
 20
121.429790
 42
0.007210
  0
VERTEX
  8
0
 10
254.162694
 20
121.976582
 42
0.007332
  0
VERTEX
  8
0
 10
251.087547
 20
122.513453
 42
0.007347
  0
VERTEX
  8
0
 10
248.000000
 20
122.959537
 42
-0.003532
  0
VERTEX
  8
0
 10
231.941014
 20
125.154779
 42
-0.049572
  0
VERTEX
  8
0
 10
226.292529
 20
126.548939
 42
-0.174711
  0
VERTEX
  8
0
 10
223.846634
 20
128.555227
 42
-0.146936
  0
VERTEX
  8
0
 10
223.025714
 20
131.823277
 42
0.009777
  0
VERTEX
  8
0
 10
223.144701
 20
136.376334
 42
0.062280
  0
VERTEX
  8
0
 10
222.873454
 20
138.667804
 42
0.132108
  0
VERTEX
  8
0
 10
222.136265
 20
140.001588
 42
0.112691
  0
VERTEX
  8
0
 10
220.787295
 20
140.882981
 42
0.143468
  0
VERTEX
  8
0
 10
217.640652
 20
141.101464
 42
0.186278
  0
VERTEX
  8
0
 10
215.249417
 20
139.521083
 42
0.087891
  0
VERTEX
  8
0
 10
213.359378
 20
135.538748
 42
0.017904
  0
VERTEX
  8
0
 10
211.557710
 20
127.912482
 42
-0.076764
  0
VERTEX
  8
0
 10
210.568369
 20
125.197245
 42
-0.048414
  0
VERTEX
  8
0
 10
208.661269
 20
122.406032
 42
-0.042929
  0
VERTEX
  8
0
 10
205.969992
 20
119.696161
 42
-0.033310
  0
VERTEX
  8
0
 10
202.625432
 20
117.224453
 42
-0.031979
  0
VERTEX
  8
0
 10
200.086043
 20
115.817633
 42
-0.056094
  0
VERTEX
  8
0
 10
197.816245
 20
115.040416
 42
-0.042095
  0
VERTEX
  8
0
 10
195.017019
 20
114.663934
 42
-0.011121
  0
VERTEX
  8
0
 10
190.500000
 20
114.540544
 42
-0.013100
  0
VERTEX
  8
0
 10
186.655530
 20
114.621791
 42
-0.024243
  0
VERTEX
  8
0
 10
183.547237
 20
114.920492
 42
-0.029728
  0
VERTEX
  8
0
 10
181.002459
 20
115.446200
 42
-0.045996
  0
VERTEX
  8
0
 10
178.899510
 20
116.225970
 42
-0.062295
  0
VERTEX
  8
0
 10
175.420800
 20
118.462776
 42
-0.029593
  0
VERTEX
  8
0
 10
171.535513
 20
122.119017
 42
-0.029423
  0
VERTEX
  8
0
 10
168.163763
 20
126.140326
 42
-0.074290
  0
VERTEX
  8
0
 10
166.369048
 20
129.500000
 42
0.002164
  0
VERTEX
  8
0
 10
165.863514
 20
130.899467
 42
0.001115
  0
VERTEX
  8
0
 10
165.219308
 20
132.646875
 42
0.001108
  0
VERTEX
  8
0
 10
164.548618
 20
134.441492
 42
0.001677
  0
VERTEX
  8
0
 10
163.956253
 20
136.000000
 42
-0.048011
  0
VERTEX
  8
0
 10
163.412662
 20
137.959365
 42
-0.011345
  0
VERTEX
  8
0
 10
162.898133
 20
141.318569
 42
-0.011575
  0
VERTEX
  8
0
 10
162.482002
 20
145.224068
 42
-0.011174
  0
VERTEX
  8
0
 10
162.241110
 20
149.190875
 42
-0.007307
  0
VERTEX
  8
0
 10
162.102731
 20
155.030753
 42
-0.041270
  0
VERTEX
  8
0
 10
162.331142
 20
158.136348
 42
-0.060309
  0
VERTEX
  8
0
 10
163.035347
 20
160.619104
 42
-0.026726
  0
VERTEX
  8
0
 10
164.520276
 20
163.690875
 42
-0.023466
  0
VERTEX
  8
0
 10
165.851444
 20
165.858896
 42
-0.012465
  0
VERTEX
  8
0
 10
167.689018
 20
168.419284
 42
-0.012380
  0
VERTEX
  8
0
 10
169.701658
 20
170.948286
 42
-0.018769
  0
VERTEX
  8
0
 10
171.585419
 20
173.034349
 42
0.010863
  0
VERTEX
  8
0
 10
173.276483
 20
174.848527
 42
0.015140
  0
VERTEX
  8
0
 10
174.703217
 20
176.548303
 42
0.011499
  0
VERTEX
  8
0
 10
175.799393
 20
178.005273
 42
0.156770
  0
VERTEX
  8
0
 10
176.000000
 20
178.629362
 42
-0.122544
  0
VERTEX
  8
0
 10
176.131606
 20
179.158275
 42
-0.030977
  0
VERTEX
  8
0
 10
176.598145
 20
179.919769
 42
-0.029723
  0
VERTEX
  8
0
 10
177.256851
 20
180.749426
 42
-0.026197
  0
VERTEX
  8
0
 10
178.036240
 20
181.532796
 42
-0.041742
  0
VERTEX
  8
0
 10
179.300791
 20
182.498369
 42
-0.119823
  0
VERTEX
  8
0
 10
180.338624
 20
182.854068
 42
-0.091546
  0
VERTEX
  8
0
 10
181.587119
 20
182.740259
 42
-0.018374
  0
VERTEX
  8
0
 10
183.722809
 20
182.055592
 42
0.034143
  0
VERTEX
  8
0
 10
185.574150
 20
181.525805
 42
0.012839
  0
VERTEX
  8
0
 10
188.226292
 20
181.030091
 42
0.012649
  0
VERTEX
  8
0
 10
191.150659
 20
180.636442
 42
0.015028
  0
VERTEX
  8
0
 10
193.927818
 20
180.418111
 42
0.000000
  0
VERTEX
  8
0
 10
200.482496
 20
180.100606
 42
0.000000
  0
VERTEX
  8
0
 10
203.991248
 20
175.101447
 42
0.054377
  0
VERTEX
  8
0
 10
207.435502
 20
171.179395
 42
0.023352
  0
VERTEX
  8
0
 10
212.794686
 20
166.712591
 42
0.019297
  0
VERTEX
  8
0
 10
218.276121
 20
162.885227
 42
0.143716
  0
VERTEX
  8
0
 10
221.292284
 20
162.000000
 42
-0.064149
  0
VERTEX
  8
0
 10
222.050633
 20
161.902304
 42
-0.018756
  0
VERTEX
  8
0
 10
223.178290
 20
161.561185
 42
-0.018511
  0
VERTEX
  8
0
 10
224.430547
 20
161.077960
 42
-0.018860
  0
VERTEX
  8
0
 10
225.635693
 20
160.506161
 42
0.026862
  0
VERTEX
  8
0
 10
226.893680
 20
159.933758
 42
0.021356
  0
VERTEX
  8
0
 10
228.305215
 20
159.449327
 42
0.021835
  0
VERTEX
  8
0
 10
229.655282
 20
159.112883
 42
0.049483
  0
VERTEX
  8
0
 10
230.701210
 20
159.006161
 42
-0.037682
  0
VERTEX
  8
0
 10
231.908204
 20
158.911670
 42
-0.008394
  0
VERTEX
  8
0
 10
233.948389
 20
158.560950
 42
-0.008670
  0
VERTEX
  8
0
 10
236.296977
 20
158.074173
 42
-0.008274
  0
VERTEX
  8
0
 10
238.664377
 20
157.499201
 42
0.056824
  0
VERTEX
  8
0
 10
246.472516
 20
156.388678
 42
0.007580
  0
VERTEX
  8
0
 10
263.138826
 20
156.178790
 42
0.003949
  0
VERTEX
  8
0
 10
280.611465
 20
156.361627
 42
0.164942
  0
VERTEX
  8
0
 10
284.098075
 20
157.615805
 42
-0.046941
  0
VERTEX
  8
0
 10
284.811784
 20
158.081804
 42
-0.021214
  0
VERTEX
  8
0
 10
285.822559
 20
158.560371
 42
-0.020784
  0
VERTEX
  8
0
 10
286.940099
 20
158.978737
 42
-0.026669
  0
VERTEX
  8
0
 10
288.000000
 20
159.264473
 42
0.035236
  0
VERTEX
  8
0
 10
294.685358
 20
161.190108
 42
0.033547
  0
VERTEX
  8
0
 10
301.149033
 20
164.060799
 42
0.034424
  0
VERTEX
  8
0
 10
306.995555
 20
167.676367
 42
0.043092
  0
VERTEX
  8
0
 10
311.835167
 20
171.826058
 42
-0.007262
  0
VERTEX
  8
0
 10
315.331230
 20
175.287390
 42
-0.078968
  0
VERTEX
  8
0
 10
316.953393
 20
176.416991
 42
-0.143977
  0
VERTEX
  8
0
 10
318.475393
 20
176.669923
 42
-0.041526
  0
VERTEX
  8
0
 10
320.835167
 20
176.180965
 42
0.022679
  0
VERTEX
  8
0
 10
325.761268
 20
174.965191
 42
0.021549
  0
VERTEX
  8
0
 10
330.861830
 20
174.175920
 42
0.017759
  0
VERTEX
  8
0
 10
336.830810
 20
173.727892
 42
0.008558
  0
VERTEX
  8
0
 10
344.500000
 20
173.556919
 42
0.016273
  0
VERTEX
  8
0
 10
352.527408
 20
173.776675
 42
0.058740
  0
VERTEX
  8
0
 10
357.554860
 20
174.677279
 42
0.108731
  0
VERTEX
  8
0
 10
360.491854
 20
176.324795
 42
0.177216
  0
VERTEX
  8
0
 10
361.826764
 20
178.814409
 42
0.144071
  0
VERTEX
  8
0
 10
361.423732
 20
181.578620
 42
0.213706
  0
VERTEX
  8
0
 10
359.609273
 20
183.166056
 42
0.067892
  0
VERTEX
  8
0
 10
355.356285
 20
183.861603
 42
0.006633
  0
VERTEX
  8
0
 10
344.924608
 20
184.000000
 42
-0.005428
  0
VERTEX
  8
0
 10
339.076742
 20
184.063491
 42
-0.007268
  0
VERTEX
  8
0
 10
333.775807
 20
184.255728
 42
-0.005246
  0
VERTEX
  8
0
 10
329.355586
 20
184.526923
 42
-0.072752
  0
VERTEX
  8
0
 10
327.797053
 20
184.870562
 42
0.009737
  0
VERTEX
  8
0
 10
326.534460
 20
185.321158
 42
0.002309
  0
VERTEX
  8
0
 10
324.412259
 20
186.021375
 42
0.002375
  0
VERTEX
  8
0
 10
321.965565
 20
186.803318
 42
0.002342
  0
VERTEX
  8
0
 10
319.500000
 20
187.565733
 42
-0.071539
  0
VERTEX
  8
0
 10
307.602028
 20
193.138762
 42
-0.102713
  0
VERTEX
  8
0
 10
299.398492
 20
201.345507
 42
-0.124450
  0
VERTEX
  8
0
 10
296.095375
 20
210.899500
 42
-0.140086
  0
VERTEX
  8
0
 10
297.955914
 20
220.413529
 42
-0.088859
  0
VERTEX
  8
0
 10
301.983146
 20
225.725064
 42
-0.119248
  0
VERTEX
  8
0
 10
307.244068
 20
228.650132
 42
-0.084822
  0
VERTEX
  8
0
 10
314.637648
 20
229.398105
 42
-0.028062
  0
SEQEND
  0
POLYLINE
  8
0
 66
1
 70
1
  0
VERTEX
  8
0
 10
482.596368
 20
267.703372
 42
0.017687
  0
VERTEX
  8
0
 10
482.321237
 20
266.203998
 42
0.024292
  0
VERTEX
  8
0
 10
482.187765
 20
264.839867
 42
0.022467
  0
VERTEX
  8
0
 10
482.183310
 20
263.735295
 42
0.188306
  0
VERTEX
  8
0
 10
482.379962
 20
263.286705
 42
0.259538
  0
VERTEX
  8
0
 10
483.106506
 20
263.079727
 42
0.263178
  0
VERTEX
  8
0
 10
483.658522
 20
263.588880
 42
0.078893
  0
VERTEX
  8
0
 10
483.900760
 20
265.153290
 42
0.021704
  0
VERTEX
  8
0
 10
483.782752
 20
267.649679
 42
0.000000
  0
VERTEX
  8
0
 10
483.432813
 20
271.500000
 42
0.000000
  0
SEQEND
  0
POLYLINE
  8
0
 66
1
 70
1
  0
VERTEX
  8
0
 10
482.916667
 20
260.750000
 42
0.056851
  0
VERTEX
  8
0
 10
482.626433
 20
259.375989
 42
0.036834
  0
VERTEX
  8
0
 10
482.592354
 20
257.750114
 42
0.032795
  0
VERTEX
  8
0
 10
482.760071
 20
256.338348
 42
0.361345
  0
VERTEX
  8
0
 10
483.167119
 20
256.000000
 42
0.255034
  0
VERTEX
  8
0
 10
483.487167
 20
256.174603
 42
0.062673
  0
VERTEX
  8
0
 10
483.755341
 20
256.734375
 42
0.048837
  0
VERTEX
  8
0
 10
483.939395
 20
257.542290
 42
0.031609
  0
VERTEX
  8
0
 10
484.000000
 20
258.500000
 42
0.035454
  0
VERTEX
  8
0
 10
483.905086
 20
259.836866
 42
0.076893
  0
VERTEX
  8
0
 10
483.606228
 20
260.819537
 42
0.318311
  0
VERTEX
  8
0
 10
483.248053
 20
261.017884
 42
0.292552
  0
SEQEND
  0
POLYLINE
  8
0
 66
1
 70
1
  0
VERTEX
  8
0
 10
483.078947
 20
253.416667
 42
0.018894
  0
VERTEX
  8
0
 10
483.137993
 20
252.670344
 42
0.168741
  0
VERTEX
  8
0
 10
483.279315
 20
252.378580
 42
0.470617
  0
VERTEX
  8
0
 10
483.461564
 20
252.395823
 42
0.054073
  0
VERTEX
  8
0
 10
483.683114
 20
252.812500
 42
0.051402
  0
VERTEX
  8
0
 10
483.839148
 20
253.359369
 42
0.054150
  0
VERTEX
  8
0
 10
483.876576
 20
253.916927
 42
0.060344
  0
VERTEX
  8
0
 10
483.797407
 20
254.402231
 42
0.126455
  0
VERTEX
  8
0
 10
483.604167
 20
254.729167
 42
0.296942
  0
VERTEX
  8
0
 10
483.385309
 20
254.775380
 42
0.208169
  0
VERTEX
  8
0
 10
483.200665
 20
254.592839
 42
0.077125
  0
VERTEX
  8
0
 10
483.089945
 20
254.112848
 42
0.028489
  0
SEQEND
  0
POLYLINE
  8
0
 66
1
 70
1
  0
VERTEX
  8
0
 10
480.078947
 20
247.416667
 42
0.018894
  0
VERTEX
  8
0
 10
480.137993
 20
246.670344
 42
0.168741
  0
VERTEX
  8
0
 10
480.279315
 20
246.378580
 42
0.470617
  0
VERTEX
  8
0
 10
480.461564
 20
246.395823
 42
0.054073
  0
VERTEX
  8
0
 10
480.683114
 20
246.812500
 42
0.051402
  0
VERTEX
  8
0
 10
480.839148
 20
247.359369
 42
0.054150
  0
VERTEX
  8
0
 10
480.876576
 20
247.916927
 42
0.060344
  0
VERTEX
  8
0
 10
480.797407
 20
248.402231
 42
0.126455
  0
VERTEX
  8
0
 10
480.604167
 20
248.729167
 42
0.296942
  0
VERTEX
  8
0
 10
480.385309
 20
248.775380
 42
0.208169
  0
VERTEX
  8
0
 10
480.200665
 20
248.592839
 42
0.077125
  0
VERTEX
  8
0
 10
480.089945
 20
248.112848
 42
0.028489
  0
SEQEND
  0
POLYLINE
  8
0
 66
1
 70
1
  0
VERTEX
  8
0
 10
477.606989
 20
241.418213
 42
0.049627
  0
VERTEX
  8
0
 10
477.372472
 20
240.561634
 42
0.013916
  0
VERTEX
  8
0
 10
477.178303
 20
239.186068
 42
0.013891
  0
VERTEX
  8
0
 10
477.044609
 20
237.609890
 42
0.014211
  0
VERTEX
  8
0
 10
477.000000
 20
236.040657
 42
-0.033592
  0
VERTEX
  8
0
 10
476.896527
 20
234.502227
 42
-0.035335
  0
VERTEX
  8
0
 10
476.587981
 20
233.017951
 42
-0.037776
  0
VERTEX
  8
0
 10
476.137320
 20
231.787617
 42
-0.113342
  0
VERTEX
  8
0
 10
475.597383
 20
231.080821
 42
0.159326
  0
VERTEX
  8
0
 10
474.394937
 20
229.171705
 42
0.041814
  0
VERTEX
  8
0
 10
473.802278
 20
225.556737
 42
0.049880
  0
VERTEX
  8
0
 10
473.868334
 20
222.374798
 42
0.488288
  0
VERTEX
  8
0
 10
474.861576
 20
221.776860
 42
0.160221
  0
VERTEX
  8
0
 10
475.444819
 20
222.252686
 42
0.095439
  0
VERTEX
  8
0
 10
475.779085
 20
223.093393
 42
0.059334
  0
VERTEX
  8
0
 10
475.867926
 20
224.367658
 42
0.021106
  0
VERTEX
  8
0
 10
475.701523
 20
226.188644
 42
-0.010389
  0
VERTEX
  8
0
 10
475.443819
 20
228.468528
 42
-0.123599
  0
VERTEX
  8
0
 10
475.579180
 20
229.339550
 42
-0.310773
  0
VERTEX
  8
0
 10
476.063498
 20
229.648653
 42
-0.068297
  0
VERTEX
  8
0
 10
477.089947
 20
229.471452
 42
0.129117
  0
VERTEX
  8
0
 10
478.112823
 20
229.419735
 42
0.263716
  0
VERTEX
  8
0
 10
478.696795
 20
229.933975
 42
0.076824
  0
VERTEX
  8
0
 10
478.951709
 20
231.336658
 42
0.006606
  0
VERTEX
  8
0
 10
479.000000
 20
234.991629
 42
-0.012199
  0
VERTEX
  8
0
 10
479.061548
 20
237.513918
 42
-0.032150
  0
VERTEX
  8
0
 10
479.265408
 20
239.309163
 42
-0.053432
  0
VERTEX
  8
0
 10
479.576224
 20
240.373557
 42
-0.462711
  0
VERTEX
  8
0
 10
479.988546
 20
240.507079
 42
0.114400
  0
VERTEX
  8
0
 10
480.325929
 20
240.393111
 42
0.329480
  0
VERTEX
  8
0
 10
480.525685
 20
240.512472
 42
0.155351
  0
VERTEX
  8
0
 10
480.556862
 20
240.868281
 42
0.036408
  0
VERTEX
  8
0
 10
480.381557
 20
241.448062
 42
0.073199
  0
VERTEX
  8
0
 10
479.748649
 20
242.572824
 42
0.234901
  0
VERTEX
  8
0
 10
478.996655
 20
242.936708
 42
0.231167
  0
VERTEX
  8
0
 10
478.243181
 20
242.558592
 42
0.071352
  0
SEQEND
  0
POLYLINE
  8
0
 66
1
 70
1
  0
VERTEX
  8
0
 10
463.668312
 20
238.327201
 42
0.018521
  0
VERTEX
  8
0
 10
463.458904
 20
236.612548
 42
0.019192
  0
VERTEX
  8
0
 10
463.380225
 20
234.907383
 42
0.019301
  0
VERTEX
  8
0
 10
463.425791
 20
233.431679
 42
0.074373
  0
VERTEX
  8
0
 10
463.623571
 20
232.538575
 42
-0.048442
  0
VERTEX
  8
0
 10
463.814228
 20
231.848607
 42
-0.173441
  0
VERTEX
  8
0
 10
463.737717
 20
231.404677
 42
-0.233458
  0
VERTEX
  8
0
 10
463.422506
 20
231.189973
 42
-0.087241
  0
VERTEX
  8
0
 10
462.872681
 20
231.209106
 42
0.207359
  0
VERTEX
  8
0
 10
462.252319
 20
231.083290
 42
0.127927
  0
VERTEX
  8
0
 10
461.760727
 20
230.508231
 42
0.069418
  0
VERTEX
  8
0
 10
461.405997
 20
229.416713
 42
0.023262
  0
VERTEX
  8
0
 10
461.189635
 20
227.750000
 42
-0.023450
  0
VERTEX
  8
0
 10
461.002554
 20
226.313083
 42
-0.036364
  0
VERTEX
  8
0
 10
460.694422
 20
225.101562
 42
-0.040858
  0
VERTEX
  8
0
 10
460.322949
 20
224.231259
 42
-0.278294
  0
VERTEX
  8
0
 10
459.939635
 20
224.000000
 42
0.321817
  0
VERTEX
  8
0
 10
459.573417
 20
223.737058
 42
0.031734
  0
VERTEX
  8
0
 10
459.276018
 20
222.627818
 42
0.030698
  0
VERTEX
  8
0
 10
459.067850
 20
221.119278
 42
0.018940
  0
VERTEX
  8
0
 10
459.000000
 20
219.328741
 42
-0.026402
  0
VERTEX
  8
0
 10
458.895816
 20
217.357066
 42
-0.031133
  0
VERTEX
  8
0
 10
458.583701
 20
215.514838
 42
-0.034070
  0
VERTEX
  8
0
 10
458.114175
 20
213.987191
 42
-0.092579
  0
VERTEX
  8
0
 10
457.523838
 20
213.026340
 42
0.087822
  0
VERTEX
  8
0
 10
456.936509
 20
212.090307
 42
0.027811
  0
VERTEX
  8
0
 10
456.400858
 20
210.524275
 42
0.026803
  0
VERTEX
  8
0
 10
455.987361
 20
208.678351
 42
0.026822
  0
VERTEX
  8
0
 10
455.773838
 20
206.799209
 42
-0.015897
  0
VERTEX
  8
0
 10
455.615356
 20
205.068238
 42
-0.029865
  0
VERTEX
  8
0
 10
455.360127
 20
203.687655
 42
-0.036630
  0
VERTEX
  8
0
 10
455.057597
 20
202.761567
 42
-0.461490
  0
VERTEX
  8
0
 10
454.750000
 20
202.660627
 42
0.397911
  0
VERTEX
  8
0
 10
454.463952
 20
202.599730
 42
0.080915
  0
VERTEX
  8
0
 10
454.220312
 20
202.085084
 42
0.046948
  0
VERTEX
  8
0
 10
454.053143
 20
201.200827
 42
0.023259
  0
VERTEX
  8
0
 10
454.000000
 20
200.059017
 42
0.033142
  0
VERTEX
  8
0
 10
454.077754
 20
198.887254
 42
0.050845
  0
VERTEX
  8
0
 10
454.313545
 20
197.898586
 42
0.065834
  0
VERTEX
  8
0
 10
454.657628
 20
197.216491
 42
0.247930
  0
VERTEX
  8
0
 10
455.067388
 20
197.000000
 42
0.203084
  0
VERTEX
  8
0
 10
455.425808
 20
197.151842
 42
0.131876
  0
VERTEX
  8
0
 10
455.647476
 20
197.550825
 42
0.088154
  0
VERTEX
  8
0
 10
455.689491
 20
198.158530
 42
0.050168
  0
VERTEX
  8
0
 10
455.537587
 20
198.881575
 42
-0.066400
  0
VERTEX
  8
0
 10
455.387991
 20
199.729018
 42
-0.109489
  0
VERTEX
  8
0
 10
455.514787
 20
200.442033
 42
-0.117920
  0
VERTEX
  8
0
 10
455.920016
 20
200.999154
 42
-0.085401
  0
VERTEX
  8
0
 10
456.582015
 20
201.393098
 42
0.122468
  0
VERTEX
  8
0
 10
457.366050
 20
201.941227
 42
0.133263
  0
VERTEX
  8
0
 10
457.771603
 20
202.776561
 42
0.069604
  0
VERTEX
  8
0
 10
457.836889
 20
204.134831
 42
0.014475
  0
VERTEX
  8
0
 10
457.550543
 20
206.511523
 42
-0.011898
  0
VERTEX
  8
0
 10
457.250547
 20
208.897898
 42
-0.073263
  0
VERTEX
  8
0
 10
457.306101
 20
210.131511
 42
-0.184313
  0
VERTEX
  8
0
 10
457.693431
 20
210.755109
 42
-0.164063
  0
VERTEX
  8
0
 10
458.419675
 20
211.000000
 42
0.246749
  0
VERTEX
  8
0
 10
459.684269
 20
211.664534
 42
0.089265
  0
VERTEX
  8
0
 10
460.547419
 20
213.571325
 42
0.064513
  0
VERTEX
  8
0
 10
460.876200
 20
216.340645
 42
0.043720
  0
VERTEX
  8
0
 10
460.564745
 20
219.506573
 42
-0.017136
  0
VERTEX
  8
0
 10
460.290702
 20
221.305484
 42
-0.091844
  0
VERTEX
  8
0
 10
460.356096
 20
222.290861
 42
-0.199135
  0
VERTEX
  8
0
 10
460.740339
 20
222.804181
 42
-0.134579
  0
VERTEX
  8
0
 10
461.454687
 20
223.000000
 42
0.152056
  0
VERTEX
  8
0
 10
462.148592
 20
223.216019
 42
0.135343
  0
VERTEX
  8
0
 10
462.635619
 20
223.796419
 42
0.080695
  0
VERTEX
  8
0
 10
462.916540
 20
224.819205
 42
0.026759
  0
VERTEX
  8
0
 10
463.000000
 20
226.377555
 42
-0.037522
  0
VERTEX
  8
0
 10
463.103584
 20
227.755929
 42
-0.037399
  0
VERTEX
  8
0
 10
463.412019
 20
229.104899
 42
-0.039988
  0
VERTEX
  8
0
 10
463.863461
 20
230.236883
 42
-0.105049
  0
VERTEX
  8
0
 10
464.402617
 20
230.919179
 42
0.162687
  0
VERTEX
  8
0
 10
465.367366
 20
232.473391
 42
0.020743
  0
VERTEX
  8
0
 10
466.126741
 20
236.390275
 42
0.023521
  0
VERTEX
  8
0
 10
466.500111
 20
240.002977
 42
0.606372
  0
VERTEX
  8
0
 10
465.835410
 20
240.398320
 42
-0.181822
  0
VERTEX
  8
0
 10
465.549355
 20
240.342147
 42
-0.124617
  0
VERTEX
  8
0
 10
465.243260
 20
240.476558
 42
-0.090425
  0
VERTEX
  8
0
 10
464.961788
 20
240.791894
 42
-0.056712
  0
VERTEX
  8
0
 10
464.752833
 20
241.241502
 42
0.540735
  0
VERTEX
  8
0
 10
464.531568
 20
241.299805
 42
0.120776
  0
VERTEX
  8
0
 10
464.261835
 20
240.902686
 42
0.036015
  0
VERTEX
  8
0
 10
463.953352
 20
239.846865
 42
0.013425
  0
SEQEND
  0
POLYLINE
  8
0
 66
1
 70
1
  0
VERTEX
  8
0
 10
478.000000
 20
215.616577
 42
0.300822
  0
VERTEX
  8
0
 10
478.114399
 20
215.443639
 42
0.017542
  0
VERTEX
  8
0
 10
478.734375
 20
215.205400
 42
0.021857
  0
VERTEX
  8
0
 10
479.541800
 20
214.966135
 42
0.013875
  0
VERTEX
  8
0
 10
480.500000
 20
214.755249
 42
0.031701
  0
VERTEX
  8
0
 10
481.458177
 20
214.634359
 42
0.053628
  0
VERTEX
  8
0
 10
482.265625
 20
214.670744
 42
0.076393
  0
VERTEX
  8
0
 10
482.816555
 20
214.843992
 42
0.285831
  0
VERTEX
  8
0
 10
483.000000
 20
215.138672
 42
0.249889
  0
VERTEX
  8
0
 10
482.823693
 20
215.469414
 42
0.064968
  0
VERTEX
  8
0
 10
482.265625
 20
215.746985
 42
0.050289
  0
VERTEX
  8
0
 10
481.457653
 20
215.937276
 42
0.032714
  0
VERTEX
  8
0
 10
480.500000
 20
216.000000
 42
0.014412
  0
VERTEX
  8
0
 10
479.541581
 20
215.972369
 42
0.023639
  0
VERTEX
  8
0
 10
478.734375
 20
215.887370
 42
0.020244
  0
VERTEX
  8
0
 10
478.119163
 20
215.767351
 42
0.347462
  0
SEQEND
  0
POLYLINE
  8
0
 66
1
 70
1
  0
VERTEX
  8
0
 10
471.542705
 20
212.069098
 42
0.108373
  0
VERTEX
  8
0
 10
471.401101
 20
211.665803
 42
0.099685
  0
VERTEX
  8
0
 10
471.434921
 20
211.227140
 42
0.095498
  0
VERTEX
  8
0
 10
471.639411
 20
210.820631
 42
0.090427
  0
VERTEX
  8
0
 10
471.983688
 20
210.510081
 42
0.136093
  0
VERTEX
  8
0
 10
472.369640
 20
210.397824
 42
0.190788
  0
VERTEX
  8
0
 10
472.701458
 20
210.524436
 42
0.140899
  0
VERTEX
  8
0
 10
472.925389
 20
210.890269
 42
0.067432
  0
VERTEX
  8
0
 10
473.000000
 20
211.440983
 42
0.039415
  0
VERTEX
  8
0
 10
472.914842
 20
212.519563
 42
0.257010
  0
VERTEX
  8
0
 10
472.592818
 20
212.933879
 42
0.315493
  0
VERTEX
  8
0
 10
472.133140
 20
212.838655
 42
0.050477
  0
SEQEND
  0
POLYLINE
  8
0
 66
1
 70
1
  0
VERTEX
  8
0
 10
469.015313
 20
207.250000
 42
0.022193
  0
VERTEX
  8
0
 10
469.081769
 20
205.621136
 42
0.035645
  0
VERTEX
  8
0
 10
469.298248
 20
204.248437
 42
0.040321
  0
VERTEX
  8
0
 10
469.613126
 20
203.259574
 42
0.304392
  0
VERTEX
  8
0
 10
470.000000
 20
203.000000
 42
0.357708
  0
VERTEX
  8
0
 10
470.745040
 20
203.611222
 42
0.049214
  0
VERTEX
  8
0
 10
470.957010
 20
205.759566
 42
0.047896
  0
VERTEX
  8
0
 10
470.722183
 20
208.205372
 42
0.095866
  0
VERTEX
  8
0
 10
470.000000
 20
210.000000
 42
0.157619
  0
VERTEX
  8
0
 10
469.569159
 20
210.351549
 42
0.422406
  0
VERTEX
  8
0
 10
469.245644
 20
210.204113
 42
0.075274
  0
VERTEX
  8
0
 10
469.062734
 20
209.271067
 42
0.009929
  0
SEQEND
  0
POLYLINE
  8
0
 66
1
 70
1
  0
VERTEX
  8
0
 10
482.500000
 20
202.000000
 42
0.159713
  0
VERTEX
  8
0
 10
482.958660
 20
201.613307
 42
0.035556
  0
VERTEX
  8
0
 10
483.947275
 20
201.293750
 42
0.033489
  0
VERTEX
  8
0
 10
485.196361
 20
201.073414
 42
0.026918
  0
VERTEX
  8
0
 10
486.559017
 20
201.000000
 42
0.027497
  0
VERTEX
  8
0
 10
487.877484
 20
201.072564
 42
0.043243
  0
VERTEX
  8
0
 10
488.989211
 20
201.293750
 42
0.053437
  0
VERTEX
  8
0
 10
489.770364
 20
201.614478
 42
0.275259
  0
VERTEX
  8
0
 10
490.000000
 20
202.000000
 42
0.297764
  0
VERTEX
  8
0
 10
489.746916
 20
202.387294
 42
0.042932
  0
VERTEX
  8
0
 10
488.807664
 20
202.706250
 42
0.037160
  0
VERTEX
  8
0
 10
487.496569
 20
202.927625
 42
0.023250
  0
VERTEX
  8
0
 10
485.940983
 20
203.000000
 42
0.019531
  0
VERTEX
  8
0
 10
484.311372
 20
202.936318
 42
0.051222
  0
VERTEX
  8
0
 10
483.161260
 20
202.726474
 42
0.106919
  0
VERTEX
  8
0
 10
482.562569
 20
202.402624
 42
0.369423
  0
SEQEND
  0
POLYLINE
  8
0
 66
1
 70
1
  0
VERTEX
  8
0
 10
500.788612
 20
181.250000
 42
0.001776
  0
VERTEX
  8
0
 10
500.635711
 20
166.487524
 42
0.013987
  0
VERTEX
  8
0
 10
500.780687
 20
159.639052
 42
0.023927
  0
VERTEX
  8
0
 10
501.154160
 20
155.800194
 42
0.372404
  0
VERTEX
  8
0
 10
502.079526
 20
155.000000
 42
0.402377
  0
VERTEX
  8
0
 10
502.496123
 20
155.400026
 42
0.002240
  0
VERTEX
  8
0
 10
502.712892
 20
161.402184
 42
0.006898
  0
VERTEX
  8
0
 10
502.845213
 20
168.825545
 42
0.003170
  0
VERTEX
  8
0
 10
502.822828
 20
178.500000
 42
0.003075
  0
VERTEX
  8
0
 10
502.689423
 20
187.510980
 42
0.005123
  0
VERTEX
  8
0
 10
502.452678
 20
195.096875
 42
0.001054
  0
VERTEX
  8
0
 10
502.165026
 20
201.697451
 42
0.400902
  0
VERTEX
  8
0
 10
501.848337
 20
202.000000
 42
0.397783
  0
VERTEX
  8
0
 10
501.530588
 20
201.699691
 42
0.001348
  0
VERTEX
  8
0
 10
501.218959
 20
195.904687
 42
0.005798
  0
VERTEX
  8
0
 10
500.954703
 20
189.206463
 42
0.003482
  0
SEQEND
  0
POLYLINE
  8
0
 66
1
 70
1
  0
VERTEX
  8
0
 10
466.731213
 20
198.080159
 42
0.013933
  0
VERTEX
  8
0
 10
466.479614
 20
196.995419
 42
0.131195
  0
VERTEX
  8
0
 10
466.508441
 20
196.522275
 42
0.470166
  0
VERTEX
  8
0
 10
466.729330
 20
196.436586
 42
0.069225
  0
VERTEX
  8
0
 10
467.168450
 20
196.768450
 42
0.074100
  0
VERTEX
  8
0
 10
467.539971
 20
197.270088
 42
0.058506
  0
VERTEX
  8
0
 10
467.786200
 20
197.899953
 42
0.059552
  0
VERTEX
  8
0
 10
467.876600
 20
198.556574
 42
0.085105
  0
VERTEX
  8
0
 10
467.787763
 20
199.136710
 42
0.170804
  0
VERTEX
  8
0
 10
467.564152
 20
199.424773
 42
0.353106
  0
VERTEX
  8
0
 10
467.298474
 20
199.396366
 42
0.106885
  0
VERTEX
  8
0
 10
467.004403
 20
198.940026
 42
0.025930
  0
SEQEND
  0
POLYLINE
  8
0
 66
1
 70
1
  0
VERTEX
  8
0
 10
477.603006
 20
199.166667
 42
0.162770
  0
VERTEX
  8
0
 10
477.528782
 20
198.850897
 42
0.190804
  0
VERTEX
  8
0
 10
477.666970
 20
198.578125
 42
0.124167
  0
VERTEX
  8
0
 10
478.023273
 20
198.393656
 42
0.057730
  0
VERTEX
  8
0
 10
478.543989
 20
198.333333
 42
0.055286
  0
VERTEX
  8
0
 10
479.100961
 20
198.395108
 42
0.074868
  0
VERTEX
  8
0
 10
479.572297
 20
198.578125
 42
0.094314
  0
VERTEX
  8
0
 10
479.888458
 20
198.848724
 42
0.170324
  0
VERTEX
  8
0
 10
480.000000
 20
199.166667
 42
0.112153
  0
VERTEX
  8
0
 10
479.927786
 20
199.484563
 42
0.100145
  0
VERTEX
  8
0
 10
479.723586
 20
199.755208
 42
0.094392
  0
VERTEX
  8
0
 10
479.418314
 20
199.936779
 42
0.087308
  0
VERTEX
  8
0
 10
479.059017
 20
200.000000
 42
0.076861
  0
VERTEX
  8
0
 10
478.660916
 20
199.938439
 42
0.053298
  0
VERTEX
  8
0
 10
478.243158
 20
199.755208
 42
0.052880
  0
VERTEX
  8
0
 10
477.869696
 20
199.485481
 42
0.071639
  0
SEQEND
  0
POLYLINE
  8
0
 66
1
 70
1
  0
VERTEX
  8
0
 10
473.703625
 20
195.896375
 42
0.081552
  0
VERTEX
  8
0
 10
474.319734
 20
195.454056
 42
0.112876
  0
VERTEX
  8
0
 10
474.979007
 20
195.296134
 42
0.092968
  0
VERTEX
  8
0
 10
475.736085
 20
195.430066
 42
0.041530
  0
VERTEX
  8
0
 10
476.653625
 20
195.865967
 42
0.016776
  0
VERTEX
  8
0
 10
477.652801
 20
196.492498
 42
0.471567
  0
VERTEX
  8
0
 10
477.678588
 20
196.760595
 42
0.189830
  0
VERTEX
  8
0
 10
477.288592
 20
196.930193
 42
0.006175
  0
VERTEX
  8
0
 10
475.550000
 20
196.969591
 42
0.016922
  0
VERTEX
  8
0
 10
474.163235
 20
196.936951
 42
0.117828
  0
VERTEX
  8
0
 10
473.518253
 20
196.743112
 42
0.358555
  0
VERTEX
  8
0
 10
473.389929
 20
196.397715
 42
0.113627
  0
SEQEND
  0
POLYLINE
  8
0
 66
1
 70
1
  0
VERTEX
  8
0
 10
453.000000
 20
194.000000
 42
0.048028
  0
VERTEX
  8
0
 10
453.073693
 20
193.234582
 42
0.068025
  0
VERTEX
  8
0
 10
453.293750
 20
192.587500
 42
0.088204
  0
VERTEX
  8
0
 10
453.618118
 20
192.151477
 42
0.191087
  0
VERTEX
  8
0
 10
454.000000
 20
192.000000
 42
0.191087
  0
VERTEX
  8
0
 10
454.381882
 20
192.151477
 42
0.088204
  0
VERTEX
  8
0
 10
454.706250
 20
192.587500
 42
0.068025
  0
VERTEX
  8
0
 10
454.926307
 20
193.234582
 42
0.048028
  0
VERTEX
  8
0
 10
455.000000
 20
194.000000
 42
0.048028
  0
VERTEX
  8
0
 10
454.926307
 20
194.765418
 42
0.068025
  0
VERTEX
  8
0
 10
454.706250
 20
195.412500
 42
0.088204
  0
VERTEX
  8
0
 10
454.381882
 20
195.848523
 42
0.191087
  0
VERTEX
  8
0
 10
454.000000
 20
196.000000
 42
0.191087
  0
VERTEX
  8
0
 10
453.618118
 20
195.848523
 42
0.088204
  0
VERTEX
  8
0
 10
453.293750
 20
195.412500
 42
0.068025
  0
VERTEX
  8
0
 10
453.073693
 20
194.765418
 42
0.048028
  0
SEQEND
  0
POLYLINE
  8
0
 66
1
 70
1
  0
VERTEX
  8
0
 10
450.617985
 20
189.000000
 42
0.032111
  0
VERTEX
  8
0
 10
450.445646
 20
187.406034
 42
0.019225
  0
VERTEX
  8
0
 10
450.436011
 20
185.500000
 42
0.019209
  0
VERTEX
  8
0
 10
450.573087
 20
183.594209
 42
0.031442
  0
VERTEX
  8
0
 10
450.851799
 20
182.000000
 42
0.000000
  0
VERTEX
  8
0
 10
451.693266
 20
178.500000
 42
0.000000
  0
VERTEX
  8
0
 10
452.415206
 20
183.000000
 42
0.025693
  0
VERTEX
  8
0
 10
452.621314
 20
184.906289
 42
0.022433
  0
VERTEX
  8
0
 10
452.644324
 20
186.912500
 42
0.023055
  0
VERTEX
  8
0
 10
452.499596
 20
188.729331
 42
0.059962
  0
VERTEX
  8
0
 10
452.181392
 20
190.000000
 42
0.007376
  0
VERTEX
  8
0
 10
451.531256
 20
191.628158
 42
0.466263
  0
VERTEX
  8
0
 10
451.271498
 20
191.709520
 42
0.207240
  0
VERTEX
  8
0
 10
451.045406
 20
191.374065
 42
0.003114
  0
SEQEND
  0
POLYLINE
  8
0
 66
1
 70
1
  0
VERTEX
  8
0
 10
464.056631
 20
188.500000
 42
-0.014937
  0
VERTEX
  8
0
 10
463.980597
 20
187.187022
 42
-0.010597
  0
VERTEX
  8
0
 10
463.820224
 20
185.720313
 42
-0.010710
  0
VERTEX
  8
0
 10
463.607199
 20
184.325182
 42
-0.022228
  0
VERTEX
  8
0
 10
463.369714
 20
183.250000
 42
0.035681
  0
VERTEX
  8
0
 10
463.162127
 20
182.173554
 42
0.136451
  0
VERTEX
  8
0
 10
463.264620
 20
181.504700
 42
0.199763
  0
VERTEX
  8
0
 10
463.663717
 20
181.130525
 42
0.089952
  0
VERTEX
  8
0
 10
464.383369
 20
181.000000
 42
0.308733
  0
VERTEX
  8
0
 10
465.446859
 20
181.725854
 42
0.075287
  0
VERTEX
  8
0
 10
465.941305
 20
183.909169
 42
0.059886
  0
VERTEX
  8
0
 10
465.806581
 20
186.760640
 42
0.059825
  0
VERTEX
  8
0
 10
465.000000
 20
189.500000
 42
0.013395
  0
VERTEX
  8
0
 10
464.500231
 20
190.582156
 42
0.522485
  0
VERTEX
  8
0
 10
464.277767
 20
190.615418
 42
0.179034
  0
VERTEX
  8
0
 10
464.122860
 20
190.251013
 42
0.004916
  0
SEQEND
  0
POLYLINE
  8
0
 66
1
 70
1
  0
VERTEX
  8
0
 10
448.000000
 20
176.549690
 42
-0.058197
  0
VERTEX
  8
0
 10
447.882893
 20
175.546972
 42
-0.052391
  0
VERTEX
  8
0
 10
447.536843
 20
174.559963
 42
-0.055659
  0
VERTEX
  8
0
 10
447.027039
 20
173.734213
 42
-0.099396
  0
VERTEX
  8
0
 10
446.423297
 20
173.217013
 42
0.104913
  0
VERTEX
  8
0
 10
445.703391
 20
172.586539
 42
0.113814
  0
VERTEX
  8
0
 10
445.327618
 20
171.735528
 42
0.072486
  0
VERTEX
  8
0
 10
445.272754
 20
170.501798
 42
0.021295
  0
VERTEX
  8
0
 10
445.543335
 20
168.620694
 42
0.016716
  0
VERTEX
  8
0
 10
446.168787
 20
165.808902
 42
0.491051
  0
VERTEX
  8
0
 10
446.753285
 20
165.557936
 42
0.268375
  0
VERTEX
  8
0
 10
447.227623
 20
166.350973
 42
0.013057
  0
VERTEX
  8
0
 10
447.191102
 20
169.536684
 42
-0.022715
  0
VERTEX
  8
0
 10
447.201939
 20
170.917929
 42
-0.056022
  0
VERTEX
  8
0
 10
447.368395
 20
171.916388
 42
-0.118143
  0
VERTEX
  8
0
 10
447.658295
 20
172.431853
 42
-0.358486
  0
VERTEX
  8
0
 10
448.028904
 20
172.482136
 42
0.114374
  0
VERTEX
  8
0
 10
448.399609
 20
172.356891
 42
0.182477
  0
VERTEX
  8
0
 10
448.718752
 20
172.442790
 42
0.155823
  0
VERTEX
  8
0
 10
448.935717
 20
172.735583
 42
0.079702
  0
VERTEX
  8
0
 10
449.013655
 20
173.190983
 42
-0.029720
  0
VERTEX
  8
0
 10
449.059548
 20
173.846913
 42
-0.010571
  0
VERTEX
  8
0
 10
449.200423
 20
174.776414
 42
-0.010447
  0
VERTEX
  8
0
 10
449.398434
 20
175.792580
 42
-0.012124
  0
VERTEX
  8
0
 10
449.630286
 20
176.750000
 42
0.038449
  0
VERTEX
  8
0
 10
449.801941
 20
177.667370
 42
0.083333
  0
VERTEX
  8
0
 10
449.760372
 20
178.381252
 42
0.136015
  0
VERTEX
  8
0
 10
449.519018
 20
178.828542
 42
0.204170
  0
VERTEX
  8
0
 10
449.116631
 20
179.000000
 42
0.205728
  0
VERTEX
  8
0
 10
448.689804
 20
178.816618
 42
0.083094
  0
VERTEX
  8
0
 10
448.328010
 20
178.280221
 42
0.063386
  0
VERTEX
  8
0
 10
448.081997
 20
177.487705
 42
0.043624
  0
SEQEND
  0
POLYLINE
  8
0
 66
1
 70
1
  0
VERTEX
  8
0
 10
461.443355
 20
177.250000
 42
0.029999
  0
VERTEX
  8
0
 10
460.989156
 20
176.024113
 42
0.051671
  0
VERTEX
  8
0
 10
460.782083
 20
174.956588
 42
0.031374
  0
VERTEX
  8
0
 10
460.746104
 20
173.552372
 42
0.005129
  0
VERTEX
  8
0
 10
460.875000
 20
170.833333
 42
0.101927
  0
VERTEX
  8
0
 10
461.220780
 20
169.537585
 42
0.615294
  0
VERTEX
  8
0
 10
461.742533
 20
169.535663
 42
0.076208
  0
VERTEX
  8
0
 10
462.364007
 20
171.416182
 42
0.020863
  0
VERTEX
  8
0
 10
462.755526
 20
174.523501
 42
0.009542
  0
VERTEX
  8
0
 10
462.955788
 20
177.622387
 42
0.124131
  0
VERTEX
  8
0
 10
462.726380
 20
178.745162
 42
0.588288
  0
VERTEX
  8
0
 10
462.256375
 20
178.772794
 42
0.037815
  0
SEQEND
  0
POLYLINE
  8
0
 66
1
 70
1
  0
VERTEX
  8
0
 10
459.085598
 20
165.500000
 42
0.008210
  0
VERTEX
  8
0
 10
459.105533
 20
162.753633
 42
0.044227
  0
VERTEX
  8
0
 10
459.272448
 20
161.270558
 42
0.246959
  0
VERTEX
  8
0
 10
459.594813
 20
160.875727
 42
0.364725
  0
VERTEX
  8
0
 10
460.000000
 20
161.000000
 42
0.096100
  0
VERTEX
  8
0
 10
460.663612
 20
162.651284
 42
0.047664
  0
VERTEX
  8
0
 10
460.879158
 20
164.907244
 42
0.045615
  0
VERTEX
  8
0
 10
460.657854
 20
167.327992
 42
0.055939
  0
VERTEX
  8
0
 10
460.000000
 20
169.500000
 42
0.229560
  0
VERTEX
  8
0
 10
459.633409
 20
169.817421
 42
0.425269
  0
VERTEX
  8
0
 10
459.328238
 20
169.633720
 42
0.047003
  0
VERTEX
  8
0
 10
459.149470
 20
168.274824
 42
0.006926
  0
SEQEND
  0
POLYLINE
  8
0
 66
1
 70
1
  0
VERTEX
  8
0
 10
427.636170
 20
166.505744
 42
0.064087
  0
VERTEX
  8
0
 10
427.922037
 20
165.975437
 42
0.094924
  0
VERTEX
  8
0
 10
428.304103
 20
165.612949
 42
0.122111
  0
VERTEX
  8
0
 10
428.718783
 20
165.472387
 42
0.160704
  0
VERTEX
  8
0
 10
429.104785
 20
165.564761
 42
-0.095482
  0
VERTEX
  8
0
 10
429.446288
 20
165.694547
 42
-0.173470
  0
VERTEX
  8
0
 10
429.737031
 20
165.644424
 42
-0.172183
  0
VERTEX
  8
0
 10
429.931465
 20
165.420729
 42
-0.093902
  0
VERTEX
  8
0
 10
430.000000
 20
165.059017
 42
0.370297
  0
VERTEX
  8
0
 10
430.720082
 20
164.220035
 42
0.040564
  0
VERTEX
  8
0
 10
433.459270
 20
164.024813
 42
0.039928
  0
VERTEX
  8
0
 10
436.319638
 20
164.282215
 42
0.215145
  0
VERTEX
  8
0
 10
437.583031
 20
165.134348
 42
0.201883
  0
VERTEX
  8
0
 10
437.654440
 20
165.590861
 42
0.269288
  0
VERTEX
  8
0
 10
437.368524
 20
165.886109
 42
0.087338
  0
VERTEX
  8
0
 10
436.576194
 20
165.966508
 42
0.018157
  0
VERTEX
  8
0
 10
435.180416
 20
165.813172
 42
-0.031647
  0
VERTEX
  8
0
 10
433.817894
 20
165.700569
 42
-0.063708
  0
VERTEX
  8
0
 10
432.747621
 20
165.816678
 42
-0.089298
  0
VERTEX
  8
0
 10
431.992923
 20
166.147777
 42
-0.154418
  0
VERTEX
  8
0
 10
431.569752
 20
166.678824
 42
0.114675
  0
VERTEX
  8
0
 10
431.227816
 20
167.184294
 42
0.065762
  0
VERTEX
  8
0
 10
430.624196
 20
167.611905
 42
0.060286
  0
VERTEX
  8
0
 10
429.865298
 20
167.901537
 42
0.061116
  0
VERTEX
  8
0
 10
429.062770
 20
168.000000
 42
0.049567
  0
VERTEX
  8
0
 10
428.198669
 20
167.914128
 42
0.153809
  0
VERTEX
  8
0
 10
427.691555
 20
167.634893
 42
0.196953
  0
VERTEX
  8
0
 10
427.508299
 20
167.167019
 42
0.087923
  0
SEQEND
  0
POLYLINE
  8
0
 66
1
 70
1
  0
VERTEX
  8
0
 10
456.078947
 20
157.416667
 42
0.018894
  0
VERTEX
  8
0
 10
456.137993
 20
156.670344
 42
0.168741
  0
VERTEX
  8
0
 10
456.279315
 20
156.378580
 42
0.470617
  0
VERTEX
  8
0
 10
456.461564
 20
156.395823
 42
0.054073
  0
VERTEX
  8
0
 10
456.683114
 20
156.812500
 42
0.051402
  0
VERTEX
  8
0
 10
456.839148
 20
157.359369
 42
0.054150
  0
VERTEX
  8
0
 10
456.876576
 20
157.916927
 42
0.060344
  0
VERTEX
  8
0
 10
456.797407
 20
158.402231
 42
0.126455
  0
VERTEX
  8
0
 10
456.604167
 20
158.729167
 42
0.296942
  0
VERTEX
  8
0
 10
456.385309
 20
158.775380
 42
0.208169
  0
VERTEX
  8
0
 10
456.200665
 20
158.592839
 42
0.077125
  0
VERTEX
  8
0
 10
456.089945
 20
158.112848
 42
0.028489
  0
SEQEND
  0
POLYLINE
  8
0
 66
1
 70
1
  0
VERTEX
  8
0
 10
500.912771
 20
153.000000
 42
0.017610
  0
VERTEX
  8
0
 10
500.791366
 20
150.190984
 42
0.012352
  0
VERTEX
  8
0
 10
500.844323
 20
147.024981
 42
0.006105
  0
VERTEX
  8
0
 10
501.004977
 20
144.032661
 42
0.181854
  0
VERTEX
  8
0
 10
501.312611
 20
143.354055
 42
0.634776
  0
VERTEX
  8
0
 10
501.864789
 20
143.552991
 42
0.011779
  0
VERTEX
  8
0
 10
502.147244
 20
147.567443
 42
0.012461
  0
VERTEX
  8
0
 10
502.238369
 20
151.753350
 42
0.141773
  0
VERTEX
  8
0
 10
501.778426
 20
153.324274
 42
0.035519
  0
VERTEX
  8
0
 10
501.421598
 20
153.806040
 42
0.315018
  0
VERTEX
  8
0
 10
501.179323
 20
153.868402
 42
0.261309
  0
VERTEX
  8
0
 10
501.001600
 20
153.657911
 42
0.027905
  0
SEQEND
  0
POLYLINE
  8
0
 66
1
 70
1
  0
VERTEX
  8
0
 10
443.812500
 20
151.316886
 42
0.051402
  0
VERTEX
  8
0
 10
444.359369
 20
151.160852
 42
0.054150
  0
VERTEX
  8
0
 10
444.916927
 20
151.123424
 42
0.060344
  0
VERTEX
  8
0
 10
445.402231
 20
151.202593
 42
0.126455
  0
VERTEX
  8
0
 10
445.729167
 20
151.395833
 42
0.296942
  0
VERTEX
  8
0
 10
445.775380
 20
151.614691
 42
0.208169
  0
VERTEX
  8
0
 10
445.592839
 20
151.799335
 42
0.077125
  0
VERTEX
  8
0
 10
445.112848
 20
151.910055
 42
0.028489
  0
VERTEX
  8
0
 10
444.416667
 20
151.921053
 42
0.018894
  0
VERTEX
  8
0
 10
443.670344
 20
151.862007
 42
0.168741
  0
VERTEX
  8
0
 10
443.378580
 20
151.720685
 42
0.470617
  0
VERTEX
  8
0
 10
443.395823
 20
151.538436
 42
0.054073
  0
SEQEND
  0
POLYLINE
  8
0
 66
1
 70
1
  0
VERTEX
  8
0
 10
455.861190
 20
148.809017
 42
0.004063
  0
VERTEX
  8
0
 10
455.632031
 20
142.031564
 42
0.018263
  0
VERTEX
  8
0
 10
455.675053
 20
138.065669
 42
0.026687
  0
VERTEX
  8
0
 10
455.915191
 20
135.689748
 42
0.464166
  0
VERTEX
  8
0
 10
456.500000
 20
135.333156
 42
0.305311
  0
VERTEX
  8
0
 10
457.404047
 20
136.506286
 42
0.008354
  0
VERTEX
  8
0
 10
457.724425
 20
143.286028
 42
0.008892
  0
VERTEX
  8
0
 10
457.810490
 20
150.047391
 42
0.258584
  0
VERTEX
  8
0
 10
456.993554
 20
151.503984
 42
0.320533
  0
VERTEX
  8
0
 10
456.594529
 20
151.477290
 42
0.122063
  0
VERTEX
  8
0
 10
456.242474
 20
151.005136
 42
0.062160
  0
VERTEX
  8
0
 10
455.983371
 20
150.081940
 42
0.026890
  0
SEQEND
  0
POLYLINE
  8
0
 66
1
 70
1
  0
VERTEX
  8
0
 10
441.000000
 20
149.000000
 42
0.011213
  0
VERTEX
  8
0
 10
440.169589
 20
148.436556
 42
0.309569
  0
VERTEX
  8
0
 10
440.083458
 20
148.201904
 42
0.327416
  0
VERTEX
  8
0
 10
440.271084
 20
148.047261
 42
0.011938
  0
VERTEX
  8
0
 10
441.250000
 20
148.015313
 42
0.055234
  0
VERTEX
  8
0
 10
441.919445
 20
148.083567
 42
0.075283
  0
VERTEX
  8
0
 10
442.485937
 20
148.298248
 42
0.095191
  0
VERTEX
  8
0
 10
442.865757
 20
148.619685
 42
0.171310
  0
VERTEX
  8
0
 10
443.000000
 20
149.000000
 42
0.042895
  0
VERTEX
  8
0
 10
442.938046
 20
149.720828
 42
0.364836
  0
VERTEX
  8
0
 10
442.707705
 20
149.914708
 42
0.137048
  0
VERTEX
  8
0
 10
442.262820
 20
149.790433
 42
0.007234
  0
SEQEND
  0
POLYLINE
  8
0
 66
1
 70
1
  0
VERTEX
  8
0
 10
436.566376
 20
147.046976
 42
0.026838
  0
VERTEX
  8
0
 10
435.678070
 20
146.669412
 42
0.175772
  0
VERTEX
  8
0
 10
435.347301
 20
146.326408
 42
0.299755
  0
VERTEX
  8
0
 10
435.406050
 20
145.969659
 42
0.067991
  0
VERTEX
  8
0
 10
435.903509
 20
145.559635
 42
0.094319
  0
VERTEX
  8
0
 10
436.471603
 20
145.342233
 42
0.077148
  0
VERTEX
  8
0
 10
437.122989
 20
145.326976
 42
0.076188
  0
VERTEX
  8
0
 10
437.755951
 20
145.510809
 42
0.087890
  0
VERTEX
  8
0
 10
438.270466
 20
145.870466
 42
0.065068
  0
VERTEX
  8
0
 10
438.980618
 20
146.794140
 42
0.391328
  0
VERTEX
  8
0
 10
438.859528
 20
147.334313
 42
0.207886
  0
VERTEX
  8
0
 10
438.084825
 20
147.486779
 42
0.033169
  0
SEQEND
  0
POLYLINE
  8
0
 66
1
 70
1
  0
VERTEX
  8
0
 10
426.500000
 20
143.000000
 42
0.028241
  0
VERTEX
  8
0
 10
428.370848
 20
142.318381
 42
0.073362
  0
VERTEX
  8
0
 10
429.786013
 20
142.109620
 42
0.143808
  0
VERTEX
  8
0
 10
430.652880
 20
142.364209
 42
0.255204
  0
VERTEX
  8
0
 10
431.000000
 20
143.000000
 42
0.271066
  0
VERTEX
  8
0
 10
430.777634
 20
143.380032
 42
0.058404
  0
VERTEX
  8
0
 10
430.045313
 20
143.685604
 42
0.045955
  0
VERTEX
  8
0
 10
428.995246
 20
143.884048
 42
0.029148
  0
VERTEX
  8
0
 10
427.750000
 20
143.929715
 42
0.005351
  0
VERTEX
  8
0
 10
425.919087
 20
143.870510
 42
0.150234
  0
VERTEX
  8
0
 10
425.475171
 20
143.712848
 42
0.552992
  0
VERTEX
  8
0
 10
425.493736
 20
143.478284
 42
0.018923
  0
SEQEND
  0
POLYLINE
  8
0
 66
1
 70
1
  0
VERTEX
  8
0
 10
423.500000
 20
141.000000
 42
0.082592
  0
VERTEX
  8
0
 10
423.343488
 20
140.617900
 42
0.161196
  0
VERTEX
  8
0
 10
423.374600
 20
140.293750
 42
0.182303
  0
VERTEX
  8
0
 10
423.586039
 20
140.078288
 42
0.108972
  0
VERTEX
  8
0
 10
423.940983
 20
140.000000
 42
0.093332
  0
VERTEX
  8
0
 10
424.345238
 20
140.076123
 42
0.096420
  0
VERTEX
  8
0
 10
424.688914
 20
140.293750
 42
0.099167
  0
VERTEX
  8
0
 10
424.918938
 20
140.618444
 42
0.105053
  0
VERTEX
  8
0
 10
425.000000
 20
141.000000
 42
0.042167
  0
VERTEX
  8
0
 10
424.967655
 20
141.382849
 42
0.061769
  0
VERTEX
  8
0
 10
424.870461
 20
141.706250
 42
0.081139
  0
VERTEX
  8
0
 10
424.727648
 20
141.925540
 42
0.210953
  0
VERTEX
  8
0
 10
424.559017
 20
142.000000
 42
0.151918
  0
VERTEX
  8
0
 10
424.348290
 20
141.934461
 42
0.038439
  0
VERTEX
  8
0
 10
424.066025
 20
141.706250
 42
0.035638
  0
VERTEX
  8
0
 10
423.768994
 20
141.382774
 42
0.029505
  0
SEQEND
  0
POLYLINE
  8
0
 66
1
 70
1
  0
VERTEX
  8
0
 10
443.000000
 20
132.455716
 42
-0.010979
  0
VERTEX
  8
0
 10
441.815477
 20
131.843985
 42
-0.005579
  0
VERTEX
  8
0
 10
440.300873
 20
131.124276
 42
-0.005539
  0
VERTEX
  8
0
 10
438.721096
 20
130.416215
 42
-0.008247
  0
VERTEX
  8
0
 10
437.322122
 20
129.834955
 42
0.040602
  0
VERTEX
  8
0
 10
435.413154
 20
128.892831
 42
0.199523
  0
VERTEX
  8
0
 10
434.712971
 20
127.947108
 42
0.391297
  0
VERTEX
  8
0
 10
435.097657
 20
127.247156
 42
0.080751
  0
VERTEX
  8
0
 10
436.618034
 20
127.000000
 42
0.069308
  0
VERTEX
  8
0
 10
437.146634
 20
127.073627
 42
0.143790
  0
VERTEX
  8
0
 10
437.495862
 20
127.293750
 42
0.190139
  0
VERTEX
  8
0
 10
437.613866
 20
127.620091
 42
0.131946
  0
VERTEX
  8
0
 10
437.500000
 20
128.000000
 42
-0.146489
  0
VERTEX
  8
0
 10
437.397987
 20
128.379403
 42
-0.191582
  0
VERTEX
  8
0
 10
437.538811
 20
128.706250
 42
-0.134005
  0
VERTEX
  8
0
 10
437.925364
 20
128.927049
 42
-0.063222
  0
VERTEX
  8
0
 10
438.500000
 20
129.000000
 42
-0.063222
  0
VERTEX
  8
0
 10
439.074636
 20
128.927049
 42
-0.134005
  0
VERTEX
  8
0
 10
439.461189
 20
128.706250
 42
-0.191582
  0
VERTEX
  8
0
 10
439.602013
 20
128.379403
 42
-0.146489
  0
VERTEX
  8
0
 10
439.500000
 20
128.000000
 42
0.279373
  0
VERTEX
  8
0
 10
439.493838
 20
127.293382
 42
0.365328
  0
VERTEX
  8
0
 10
440.078291
 20
127.090490
 42
0.071035
  0
VERTEX
  8
0
 10
441.655593
 20
127.969098
 42
0.033848
  0
VERTEX
  8
0
 10
443.409091
 20
129.500000
 42
-0.043973
  0
VERTEX
  8
0
 10
444.701500
 20
130.583087
 42
-0.050076
  0
VERTEX
  8
0
 10
446.110632
 20
131.370464
 42
-0.051240
  0
VERTEX
  8
0
 10
447.618700
 20
131.848708
 42
-0.050055
  0
VERTEX
  8
0
 10
449.204545
 20
132.015313
 42
0.010781
  0
VERTEX
  8
0
 10
450.829654
 20
132.057914
 42
0.113957
  0
VERTEX
  8
0
 10
451.464099
 20
132.236719
 42
0.472729
  0
VERTEX
  8
0
 10
451.521082
 20
132.539594
 42
0.075101
  0
VERTEX
  8
0
 10
451.000000
 20
133.000000
 42
0.090216
  0
VERTEX
  8
0
 10
449.334198
 20
133.692127
 42
0.070561
  0
VERTEX
  8
0
 10
447.377720
 20
133.835120
 42
0.062100
  0
VERTEX
  8
0
 10
445.229090
 20
133.417503
 42
0.045696
  0
SEQEND
  0
POLYLINE
  8
0
 66
1
 70
1
  0
VERTEX
  8
0
 10
428.000000
 20
125.031385
 42
0.184534
  0
VERTEX
  8
0
 10
428.122486
 20
124.710807
 42
0.147206
  0
VERTEX
  8
0
 10
428.440625
 20
124.516384
 42
0.100118
  0
VERTEX
  8
0
 10
428.925634
 20
124.488865
 42
0.055937
  0
VERTEX
  8
0
 10
429.500000
 20
124.638374
 42
0.021360
  0
VERTEX
  8
0
 10
430.074558
 20
124.887494
 42
0.030395
  0
VERTEX
  8
0
 10
430.559375
 20
125.160341
 42
0.030693
  0
VERTEX
  8
0
 10
430.912889
 20
125.420671
 42
0.222225
  0
VERTEX
  8
0
 10
431.000000
 20
125.606989
 42
0.289661
  0
VERTEX
  8
0
 10
430.903916
 20
125.758929
 42
0.046727
  0
VERTEX
  8
0
 10
430.559375
 20
125.884553
 42
0.039339
  0
VERTEX
  8
0
 10
430.074824
 20
125.971531
 42
0.024748
  0
VERTEX
  8
0
 10
429.500000
 20
126.000000
 42
0.062722
  0
VERTEX
  8
0
 10
428.926468
 20
125.927770
 42
0.080880
  0
VERTEX
  8
0
 10
428.440625
 20
125.715469
 42
0.098158
  0
VERTEX
  8
0
 10
428.115494
 20
125.400789
 42
0.152681
  0
SEQEND
  0
POLYLINE
  8
0
 66
1
 70
1
  0
VERTEX
  8
0
 10
432.812500
 20
124.316886
 42
0.051402
  0
VERTEX
  8
0
 10
433.359369
 20
124.160852
 42
0.054150
  0
VERTEX
  8
0
 10
433.916927
 20
124.123424
 42
0.060344
  0
VERTEX
  8
0
 10
434.402231
 20
124.202593
 42
0.126455
  0
VERTEX
  8
0
 10
434.729167
 20
124.395833
 42
0.296942
  0
VERTEX
  8
0
 10
434.775380
 20
124.614691
 42
0.208169
  0
VERTEX
  8
0
 10
434.592839
 20
124.799335
 42
0.077125
  0
VERTEX
  8
0
 10
434.112848
 20
124.910055
 42
0.028489
  0
VERTEX
  8
0
 10
433.416667
 20
124.921053
 42
0.018894
  0
VERTEX
  8
0
 10
432.670344
 20
124.862007
 42
0.168741
  0
VERTEX
  8
0
 10
432.378580
 20
124.720685
 42
0.470617
  0
VERTEX
  8
0
 10
432.395823
 20
124.538436
 42
0.054073
  0
SEQEND
  0
POLYLINE
  8
0
 66
1
 70
1
  0
VERTEX
  8
0
 10
454.696909
 20
119.304280
 42
-0.004736
  0
VERTEX
  8
0
 10
454.419853
 20
117.227058
 42
-0.003603
  0
VERTEX
  8
0
 10
454.078391
 20
114.956570
 42
-0.003643
  0
VERTEX
  8
0
 10
453.727343
 20
112.832177
 42
-0.008520
  0
VERTEX
  8
0
 10
453.426189
 20
111.250000
 42
0.022206
  0
VERTEX
  8
0
 10
453.195060
 20
109.824382
 42
0.063472
  0
VERTEX
  8
0
 10
453.205539
 20
108.821958
 42
0.119567
  0
VERTEX
  8
0
 10
453.440459
 20
108.225554
 42
0.244071
  0
VERTEX
  8
0
 10
453.875000
 20
108.000000
 42
0.267246
  0
VERTEX
  8
0
 10
454.315140
 20
108.253345
 42
0.058881
  0
VERTEX
  8
0
 10
454.675132
 20
109.084800
 42
0.045505
  0
VERTEX
  8
0
 10
454.920102
 20
110.293112
 42
0.027277
  0
VERTEX
  8
0
 10
455.000000
 20
111.756602
 42
-0.021127
  0
VERTEX
  8
0
 10
455.071402
 20
113.445673
 42
-0.013003
  0
VERTEX
  8
0
 10
455.290909
 20
115.424041
 42
-0.013033
  0
VERTEX
  8
0
 10
455.610517
 20
117.372654
 42
-0.022670
  0
VERTEX
  8
0
 10
455.990328
 20
118.966274
 42
0.027009
  0
VERTEX
  8
0
 10
456.307507
 20
120.350221
 42
0.034362
  0
VERTEX
  8
0
 10
456.441643
 20
121.653109
 42
0.036720
  0
VERTEX
  8
0
 10
456.399572
 20
122.717242
 42
0.169721
  0
VERTEX
  8
0
 10
456.136047
 20
123.263953
 42
0.467954
  0
VERTEX
  8
0
 10
455.768881
 20
123.230830
 42
0.064302
  0
VERTEX
  8
0
 10
455.364899
 20
122.449200
 42
0.038016
  0
VERTEX
  8
0
 10
454.984769
 20
121.089506
 42
0.018375
  0
SEQEND
  0
POLYLINE
  8
0
 66
1
 70
1
  0
VERTEX
  8
0
 10
425.000000
 20
122.000000
 42
0.099038
  0
VERTEX
  8
0
 10
425.076342
 20
121.618362
 42
0.097945
  0
VERTEX
  8
0
 10
425.293750
 20
121.293750
 42
0.097945
  0
VERTEX
  8
0
 10
425.618362
 20
121.076342
 42
0.099038
  0
VERTEX
  8
0
 10
426.000000
 20
121.000000
 42
0.099038
  0
VERTEX
  8
0
 10
426.381638
 20
121.076342
 42
0.097945
  0
VERTEX
  8
0
 10
426.706250
 20
121.293750
 42
0.097945
  0
VERTEX
  8
0
 10
426.923658
 20
121.618362
 42
0.099038
  0
VERTEX
  8
0
 10
427.000000
 20
122.000000
 42
0.099038
  0
VERTEX
  8
0
 10
426.923658
 20
122.381638
 42
0.097945
  0
VERTEX
  8
0
 10
426.706250
 20
122.706250
 42
0.097945
  0
VERTEX
  8
0
 10
426.381638
 20
122.923658
 42
0.099038
  0
VERTEX
  8
0
 10
426.000000
 20
123.000000
 42
0.099038
  0
VERTEX
  8
0
 10
425.618362
 20
122.923658
 42
0.097945
  0
VERTEX
  8
0
 10
425.293750
 20
122.706250
 42
0.097945
  0
VERTEX
  8
0
 10
425.076342
 20
122.381638
 42
0.099038
  0
SEQEND
  0
POLYLINE
  8
0
 66
1
 70
1
  0
VERTEX
  8
0
 10
418.243769
 20
120.335642
 42
0.150655
  0
VERTEX
  8
0
 10
417.434382
 20
119.678053
 42
0.413087
  0
VERTEX
  8
0
 10
417.562606
 20
119.025508
 42
0.140964
  0
VERTEX
  8
0
 10
418.786203
 20
118.629216
 42
0.055561
  0
VERTEX
  8
0
 10
420.568083
 20
118.768264
 42
0.018431
  0
VERTEX
  8
0
 10
421.785277
 20
119.047800
 42
0.138888
  0
VERTEX
  8
0
 10
422.287199
 20
119.347718
 42
0.368195
  0
VERTEX
  8
0
 10
422.304829
 20
119.695889
 42
0.087952
  0
VERTEX
  8
0
 10
421.841950
 20
120.118842
 42
0.026172
  0
VERTEX
  8
0
 10
420.853524
 20
120.675071
 42
0.100350
  0
VERTEX
  8
0
 10
420.174735
 20
120.855797
 42
0.091450
  0
VERTEX
  8
0
 10
419.446294
 20
120.766326
 42
0.019658
  0
SEQEND
  0
POLYLINE
  8
0
 66
1
 70
1
  0
VERTEX
  8
0
 10
411.000000
 20
115.940983
 42
-0.085786
  0
VERTEX
  8
0
 10
410.936835
 20
115.575536
 42
-0.164630
  0
VERTEX
  8
0
 10
410.754519
 20
115.344768
 42
-0.179912
  0
VERTEX
  8
0
 10
410.482750
 20
115.284050
 42
-0.104723
  0
VERTEX
  8
0
 10
410.164319
 20
115.398445
 42
0.135717
  0
VERTEX
  8
0
 10
409.661352
 20
115.545141
 42
0.027105
  0
VERTEX
  8
0
 10
408.718038
 20
115.507203
 42
0.026843
  0
VERTEX
  8
0
 10
407.591341
 20
115.339147
 42
0.022214
  0
VERTEX
  8
0
 10
406.414319
 20
115.043415
 42
0.007158
  0
VERTEX
  8
0
 10
404.942728
 20
114.580294
 42
0.137275
  0
VERTEX
  8
0
 10
404.548087
 20
114.314884
 42
0.568257
  0
VERTEX
  8
0
 10
404.618215
 20
114.108536
 42
0.027374
  0
VERTEX
  8
0
 10
405.500000
 20
113.970798
 42
0.030472
  0
VERTEX
  8
0
 10
407.883532
 20
113.877096
 42
0.045200
  0
VERTEX
  8
0
 10
409.959175
 20
114.110486
 42
0.050056
  0
VERTEX
  8
0
 10
411.792306
 20
114.682243
 42
0.052208
  0
VERTEX
  8
0
 10
413.447664
 20
115.601003
 42
0.004588
  0
VERTEX
  8
0
 10
414.786842
 20
116.557437
 42
0.282420
  0
VERTEX
  8
0
 10
414.893944
 20
116.817306
 42
0.361322
  0
VERTEX
  8
0
 10
414.705359
 20
116.981966
 42
0.006081
  0
VERTEX
  8
0
 10
413.222506
 20
117.000000
 42
0.045687
  0
VERTEX
  8
0
 10
412.371808
 20
116.922105
 42
0.065606
  0
VERTEX
  8
0
 10
411.652861
 20
116.688914
 42
0.085632
  0
VERTEX
  8
0
 10
411.167364
 20
116.345589
 42
0.198661
  0
SEQEND
  0
POLYLINE
  8
0
 66
1
 70
1
  0
VERTEX
  8
0
 10
398.000000
 20
111.917588
 42
0.046570
  0
VERTEX
  8
0
 10
396.782590
 20
111.441432
 42
0.642320
  0
VERTEX
  8
0
 10
396.795653
 20
111.088757
 42
0.077505
  0
VERTEX
  8
0
 10
397.940055
 20
110.812146
 42
0.005404
  0
VERTEX
  8
0
 10
401.250000
 20
110.574586
 42
0.023269
  0
VERTEX
  8
0
 10
402.304046
 20
110.559502
 42
0.038010
  0
VERTEX
  8
0
 10
403.192187
 20
110.655978
 42
0.045140
  0
VERTEX
  8
0
 10
403.826133
 20
110.834438
 42
0.311028
  0
VERTEX
  8
0
 10
404.000000
 20
111.086903
 42
0.303748
  0
VERTEX
  8
0
 10
403.523125
 20
111.799462
 42
0.063499
  0
VERTEX
  8
0
 10
401.996500
 20
112.212780
 42
0.053201
  0
VERTEX
  8
0
 10
399.995654
 20
112.275367
 42
0.051226
  0
SEQEND
  0
POLYLINE
  8
0
 66
1
 70
1
  0
VERTEX
  8
0
 10
488.000000
 20
110.940983
 42
0.108972
  0
VERTEX
  8
0
 10
488.078288
 20
110.586039
 42
0.182303
  0
VERTEX
  8
0
 10
488.293750
 20
110.374600
 42
0.161196
  0
VERTEX
  8
0
 10
488.617900
 20
110.343488
 42
0.082592
  0
VERTEX
  8
0
 10
489.000000
 20
110.500000
 42
0.029505
  0
VERTEX
  8
0
 10
489.382774
 20
110.768994
 42
0.035638
  0
VERTEX
  8
0
 10
489.706250
 20
111.066025
 42
0.038439
  0
VERTEX
  8
0
 10
489.934461
 20
111.348290
 42
0.151918
  0
VERTEX
  8
0
 10
490.000000
 20
111.559017
 42
0.210953
  0
VERTEX
  8
0
 10
489.925540
 20
111.727648
 42
0.081139
  0
VERTEX
  8
0
 10
489.706250
 20
111.870461
 42
0.061769
  0
VERTEX
  8
0
 10
489.382849
 20
111.967655
 42
0.042167
  0
VERTEX
  8
0
 10
489.000000
 20
112.000000
 42
0.105053
  0
VERTEX
  8
0
 10
488.618444
 20
111.918938
 42
0.099167
  0
VERTEX
  8
0
 10
488.293750
 20
111.688914
 42
0.096420
  0
VERTEX
  8
0
 10
488.076123
 20
111.345238
 42
0.093332
  0
SEQEND
  0
POLYLINE
  8
0
 66
1
 70
1
  0
VERTEX
  8
0
 10
219.000000
 20
109.216816
 42
0.289187
  0
VERTEX
  8
0
 10
219.522517
 20
108.388944
 42
0.037154
  0
VERTEX
  8
0
 10
221.570967
 20
107.593261
 42
0.037596
  0
VERTEX
  8
0
 10
223.740652
 20
107.105652
 42
0.237127
  0
VERTEX
  8
0
 10
224.784665
 20
107.451332
 42
0.209341
  0
VERTEX
  8
0
 10
225.000330
 20
108.002979
 42
0.237084
  0
VERTEX
  8
0
 10
224.727300
 20
108.496155
 42
0.075465
  0
VERTEX
  8
0
 10
223.742677
 20
108.970527
 42
0.013105
  0
VERTEX
  8
0
 10
221.747950
 20
109.527124
 42
0.028769
  0
VERTEX
  8
0
 10
220.638435
 20
109.738646
 42
0.060902
  0
VERTEX
  8
0
 10
219.764565
 20
109.746692
 42
0.100528
  0
VERTEX
  8
0
 10
219.203583
 20
109.565241
 42
0.270734
  0
SEQEND
  0
POLYLINE
  8
0
 66
1
 70
1
  0
VERTEX
  8
0
 10
393.000000
 20
109.000000
 42
0.195654
  0
VERTEX
  8
0
 10
393.155423
 20
108.618015
 42
0.086673
  0
VERTEX
  8
0
 10
393.604836
 20
108.293750
 42
0.066561
  0
VERTEX
  8
0
 10
394.270941
 20
108.073608
 42
0.046600
  0
VERTEX
  8
0
 10
395.059017
 20
108.000000
 42
0.047867
  0
VERTEX
  8
0
 10
395.804599
 20
108.071541
 42
0.104212
  0
VERTEX
  8
0
 10
396.331650
 20
108.293750
 42
0.181468
  0
VERTEX
  8
0
 10
396.558599
 20
108.621877
 42
0.202618
  0
VERTEX
  8
0
 10
396.500000
 20
109.000000
 42
0.088250
  0
VERTEX
  8
0
 10
396.157656
 20
109.382836
 42
0.053305
  0
VERTEX
  8
0
 10
395.640225
 20
109.706250
 42
0.051278
  0
VERTEX
  8
0
 10
395.038022
 20
109.925833
 42
0.061875
  0
VERTEX
  8
0
 10
394.440983
 20
110.000000
 42
0.067639
  0
VERTEX
  8
0
 10
393.890182
 20
109.925146
 42
0.084330
  0
VERTEX
  8
0
 10
393.423289
 20
109.706250
 42
0.099650
  0
VERTEX
  8
0
 10
393.111069
 20
109.381340
 42
0.142666
  0
SEQEND
  0
POLYLINE
  8
0
 66
1
 70
1
  0
VERTEX
  8
0
 10
230.816977
 20
106.889527
 42
0.164114
  0
VERTEX
  8
0
 10
229.887225
 20
106.274429
 42
0.508536
  0
VERTEX
  8
0
 10
230.060949
 20
105.670073
 42
0.059287
  0
VERTEX
  8
0
 10
232.366484
 20
105.126480
 42
0.010766
  0
VERTEX
  8
0
 10
236.750000
 20
104.723909
 42
0.013365
  0
VERTEX
  8
0
 10
239.166727
 20
104.619151
 42
0.044452
  0
VERTEX
  8
0
 10
240.750919
 20
104.733816
 42
0.082290
  0
VERTEX
  8
0
 10
241.682391
 20
105.047995
 42
0.277102
  0
VERTEX
  8
0
 10
242.000000
 20
105.577081
 42
0.350853
  0
VERTEX
  8
0
 10
241.245852
 20
106.519517
 42
0.026064
  0
VERTEX
  8
0
 10
237.766845
 20
107.112923
 42
0.032576
  0
VERTEX
  8
0
 10
233.903652
 20
107.312819
 42
0.061504
  0
SEQEND
  0
POLYLINE
  8
0
 66
1
 70
1
  0
VERTEX
  8
0
 10
383.500000
 20
106.000000
 42
0.076764
  0
VERTEX
  8
0
 10
383.338175
 20
105.617617
 42
0.154201
  0
VERTEX
  8
0
 10
383.357263
 20
105.293750
 42
0.186277
  0
VERTEX
  8
0
 10
383.550471
 20
105.079239
 42
0.117858
  0
VERTEX
  8
0
 10
383.881966
 20
105.000000
 42
0.085235
  0
VERTEX
  8
0
 10
384.310186
 20
105.073533
 42
0.053414
  0
VERTEX
  8
0
 10
384.769763
 20
105.293750
 42
0.051777
  0
VERTEX
  8
0
 10
385.189439
 20
105.617474
 42
0.064269
  0
VERTEX
  8
0
 10
385.500000
 20
106.000000
 42
0.076764
  0
VERTEX
  8
0
 10
385.661825
 20
106.382383
 42
0.154201
  0
VERTEX
  8
0
 10
385.642737
 20
106.706250
 42
0.186277
  0
VERTEX
  8
0
 10
385.449529
 20
106.920761
 42
0.117858
  0
VERTEX
  8
0
 10
385.118034
 20
107.000000
 42
0.085235
  0
VERTEX
  8
0
 10
384.689814
 20
106.926467
 42
0.053414
  0
VERTEX
  8
0
 10
384.230237
 20
106.706250
 42
0.051777
  0
VERTEX
  8
0
 10
383.810561
 20
106.382526
 42
0.064269
  0
SEQEND
  0
POLYLINE
  8
0
 66
1
 70
1
  0
VERTEX
  8
0
 10
453.157895
 20
105.000000
 42
0.017491
  0
VERTEX
  8
0
 10
453.189089
 20
104.108560
 42
0.078554
  0
VERTEX
  8
0
 10
453.306058
 20
103.601562
 42
0.447206
  0
VERTEX
  8
0
 10
453.474999
 20
103.540618
 42
0.174857
  0
VERTEX
  8
0
 10
453.662281
 20
103.750000
 42
0.057986
  0
VERTEX
  8
0
 10
453.818615
 20
104.320008
 42
0.037979
  0
VERTEX
  8
0
 10
453.870340
 20
105.000000
 42
0.037979
  0
VERTEX
  8
0
 10
453.818615
 20
105.679992
 42
0.057986
  0
VERTEX
  8
0
 10
453.662281
 20
106.250000
 42
0.174857
  0
VERTEX
  8
0
 10
453.474999
 20
106.459382
 42
0.447206
  0
VERTEX
  8
0
 10
453.306058
 20
106.398438
 42
0.078554
  0
VERTEX
  8
0
 10
453.189089
 20
105.891440
 42
0.017491
  0
SEQEND
  0
POLYLINE
  8
0
 66
1
 70
1
  0
VERTEX
  8
0
 10
243.688828
 20
105.305531
 42
0.137233
  0
VERTEX
  8
0
 10
243.554767
 20
104.840739
 42
0.124175
  0
VERTEX
  8
0
 10
243.673419
 20
104.353853
 42
0.104605
  0
VERTEX
  8
0
 10
244.036265
 20
103.918292
 42
0.075484
  0
VERTEX
  8
0
 10
244.587531
 20
103.604785
 42
0.037946
  0
VERTEX
  8
0
 10
246.328482
 20
103.084217
 42
0.104898
  0
VERTEX
  8
0
 10
247.601097
 20
103.077011
 42
0.180871
  0
VERTEX
  8
0
 10
248.366754
 20
103.558366
 42
0.164377
  0
VERTEX
  8
0
 10
248.666667
 20
104.445986
 42
0.077289
  0
VERTEX
  8
0
 10
248.568859
 20
105.074941
 42
0.250061
  0
VERTEX
  8
0
 10
248.275817
 20
105.360337
 42
0.162497
  0
VERTEX
  8
0
 10
247.762266
 20
105.339749
 42
0.032299
  0
VERTEX
  8
0
 10
246.914003
 20
104.953976
 42
-0.040305
  0
VERTEX
  8
0
 10
246.104372
 20
104.601285
 42
-0.112520
  0
VERTEX
  8
0
 10
245.492075
 20
104.536034
 42
-0.165494
  0
VERTEX
  8
0
 10
245.053643
 20
104.745631
 42
-0.119334
  0
VERTEX
  8
0
 10
244.763755
 20
105.208735
 42
0.047705
  0
VERTEX
  8
0
 10
244.543955
 20
105.704801
 42
0.246987
  0
VERTEX
  8
0
 10
244.300275
 20
105.862401
 42
0.236655
  0
VERTEX
  8
0
 10
244.024157
 20
105.753729
 42
0.044406
  0
SEQEND
  0
POLYLINE
  8
0
 66
1
 70
1
  0
VERTEX
  8
0
 10
377.595968
 20
102.610508
 42
0.120025
  0
VERTEX
  8
0
 10
377.950659
 20
102.097926
 42
0.096896
  0
VERTEX
  8
0
 10
378.528836
 20
101.756529
 42
0.084314
  0
VERTEX
  8
0
 10
379.267445
 20
101.628248
 42
0.064969
  0
VERTEX
  8
0
 10
380.080167
 20
101.731215
 42
0.040502
  0
VERTEX
  8
0
 10
382.001820
 20
102.403929
 42
0.295308
  0
VERTEX
  8
0
 10
382.510879
 20
103.182948
 42
0.361499
  0
VERTEX
  8
0
 10
381.984552
 20
103.821633
 42
0.046980
  0
VERTEX
  8
0
 10
380.090402
 20
104.000000
 42
0.024659
  0
VERTEX
  8
0
 10
378.687903
 20
103.930788
 42
0.102762
  0
VERTEX
  8
0
 10
377.884640
 20
103.679293
 42
0.211751
  0
VERTEX
  8
0
 10
377.552442
 20
103.237954
 42
0.149678
  0
SEQEND
  0
POLYLINE
  8
0
 66
1
 70
1
  0
VERTEX
  8
0
 10
369.500000
 20
101.000000
 42
0.028612
  0
VERTEX
  8
0
 10
371.384101
 20
100.315133
 42
0.072989
  0
VERTEX
  8
0
 10
372.818523
 20
100.104617
 42
0.222118
  0
VERTEX
  8
0
 10
373.457265
 20
100.403095
 42
0.323112
  0
VERTEX
  8
0
 10
373.500000
 20
101.000000
 42
0.142534
  0
VERTEX
  8
0
 10
373.078664
 20
101.380154
 42
0.044278
  0
VERTEX
  8
0
 10
372.273037
 20
101.685604
 42
0.040210
  0
VERTEX
  8
0
 10
371.266376
 20
101.882887
 42
0.034829
  0
VERTEX
  8
0
 10
370.190983
 20
101.929715
 42
0.004250
  0
VERTEX
  8
0
 10
368.545770
 20
101.872748
 42
0.225862
  0
VERTEX
  8
0
 10
368.274745
 20
101.729097
 42
0.474239
  0
VERTEX
  8
0
 10
368.325420
 20
101.527703
 42
0.008195
  0
SEQEND
  0
POLYLINE
  8
0
 66
1
 70
1
  0
VERTEX
  8
0
 10
482.564293
 20
99.293128
 42
0.008399
  0
VERTEX
  8
0
 10
482.218210
 20
98.336218
 42
0.286372
  0
VERTEX
  8
0
 10
482.270328
 20
98.111181
 42
0.400052
  0
VERTEX
  8
0
 10
482.463552
 20
98.106486
 42
0.011214
  0
VERTEX
  8
0
 10
483.124088
 20
98.733333
 42
0.043285
  0
VERTEX
  8
0
 10
483.558688
 20
99.246577
 42
0.063152
  0
VERTEX
  8
0
 10
483.837219
 20
99.768815
 42
0.082976
  0
VERTEX
  8
0
 10
483.927901
 20
100.220211
 42
0.207420
  0
VERTEX
  8
0
 10
483.806872
 20
100.526461
 42
0.278911
  0
VERTEX
  8
0
 10
483.538684
 20
100.592490
 42
0.120343
  0
VERTEX
  8
0
 10
483.210949
 20
100.395085
 42
0.070189
  0
VERTEX
  8
0
 10
482.866277
 20
99.940734
 42
0.036269
  0
SEQEND
  0
POLYLINE
  8
0
 66
1
 70
1
  0
VERTEX
  8
0
 10
451.498477
 20
98.997536
 42
0.098708
  0
VERTEX
  8
0
 10
450.791825
 20
97.101748
 42
0.025022
  0
VERTEX
  8
0
 10
450.429349
 20
93.819282
 42
0.018330
  0
VERTEX
  8
0
 10
450.354259
 20
90.596154
 42
0.410305
  0
VERTEX
  8
0
 10
450.958433
 20
90.000000
 42
0.287389
  0
VERTEX
  8
0
 10
451.354461
 20
90.248121
 42
0.028221
  0
VERTEX
  8
0
 10
451.807754
 20
91.335445
 42
0.028865
  0
VERTEX
  8
0
 10
452.231379
 20
92.803994
 42
0.018572
  0
VERTEX
  8
0
 10
452.559198
 20
94.546195
 42
0.017132
  0
VERTEX
  8
0
 10
452.903727
 20
97.539677
 42
0.078726
  0
VERTEX
  8
0
 10
452.770091
 20
99.276291
 42
0.437642
  0
VERTEX
  8
0
 10
452.236121
 20
99.576240
 42
0.177832
  0
SEQEND
  0
POLYLINE
  8
0
 66
1
 70
1
  0
VERTEX
  8
0
 10
360.000000
 20
98.000000
 42
0.320305
  0
VERTEX
  8
0
 10
360.274860
 20
97.614959
 42
0.034411
  0
VERTEX
  8
0
 10
361.395312
 20
97.314396
 42
0.032203
  0
VERTEX
  8
0
 10
362.929294
 20
97.115560
 42
0.019831
  0
VERTEX
  8
0
 10
364.750000
 20
97.070285
 42
0.006847
  0
VERTEX
  8
0
 10
367.086444
 20
97.136868
 42
0.071077
  0
VERTEX
  8
0
 10
368.029547
 20
97.312482
 42
0.560431
  0
VERTEX
  8
0
 10
368.095294
 20
97.602206
 42
0.091871
  0
VERTEX
  8
0
 10
367.500000
 20
98.000000
 42
0.057259
  0
VERTEX
  8
0
 10
365.251417
 20
98.674591
 42
0.044296
  0
VERTEX
  8
0
 10
362.701724
 20
98.900920
 42
0.046096
  0
VERTEX
  8
0
 10
360.586137
 20
98.705466
 42
0.361221
  0
SEQEND
  0
POLYLINE
  8
0
 66
1
 70
1
  0
VERTEX
  8
0
 10
177.015313
 20
95.178571
 42
0.075419
  0
VERTEX
  8
0
 10
177.357048
 20
92.853655
 42
0.065786
  0
VERTEX
  8
0
 10
178.378377
 20
90.614175
 42
0.093690
  0
VERTEX
  8
0
 10
179.629309
 20
89.260832
 42
0.371634
  0
VERTEX
  8
0
 10
180.671158
 20
89.337824
 42
0.224645
  0
VERTEX
  8
0
 10
181.011069
 20
90.288310
 42
0.109720
  0
VERTEX
  8
0
 10
180.600413
 20
91.539757
 42
0.123104
  0
VERTEX
  8
0
 10
179.737736
 20
92.410726
 42
0.281820
  0
VERTEX
  8
0
 10
178.849539
 20
92.407010
 42
-0.094241
  0
VERTEX
  8
0
 10
178.372698
 20
92.224445
 42
-0.338390
  0
VERTEX
  8
0
 10
178.100951
 20
92.364152
 42
-0.150595
  0
VERTEX
  8
0
 10
178.032722
 20
92.833391
 42
-0.025312
  0
VERTEX
  8
0
 10
178.219909
 20
93.732930
 42
0.048679
  0
VERTEX
  8
0
 10
178.361075
 20
94.616119
 42
0.039261
  0
VERTEX
  8
0
 10
178.344474
 20
95.577392
 42
0.040661
  0
VERTEX
  8
0
 10
178.184734
 20
96.470288
 42
0.076762
  0
VERTEX
  8
0
 10
177.892745
 20
97.139302
 42
0.147211
  0
VERTEX
  8
0
 10
177.525402
 20
97.457430
 42
0.414397
  0
VERTEX
  8
0
 10
177.238941
 20
97.348194
 42
0.090123
  0
VERTEX
  8
0
 10
177.063239
 20
96.633357
 42
0.014162
  0
SEQEND
  0
POLYLINE
  8
0
 66
1
 70
1
  0
VERTEX
  8
0
 10
200.542705
 20
96.069098
 42
0.096910
  0
VERTEX
  8
0
 10
200.392636
 20
95.670838
 42
0.097419
  0
VERTEX
  8
0
 10
200.404140
 20
95.246164
 42
0.098430
  0
VERTEX
  8
0
 10
200.575024
 20
94.860961
 42
0.101208
  0
VERTEX
  8
0
 10
200.878903
 20
94.574842
 42
0.157716
  0
VERTEX
  8
0
 10
201.271104
 20
94.478565
 42
0.122565
  0
VERTEX
  8
0
 10
201.691106
 20
94.615910
 42
0.096130
  0
VERTEX
  8
0
 10
202.076686
 20
94.976296
 42
0.065363
  0
VERTEX
  8
0
 10
202.363830
 20
95.505744
 42
0.124688
  0
VERTEX
  8
0
 10
202.475758
 20
96.447359
 42
0.293249
  0
VERTEX
  8
0
 10
202.039042
 20
96.965546
 42
0.232893
  0
VERTEX
  8
0
 10
201.270687
 20
96.843423
 42
0.100833
  0
SEQEND
  0
POLYLINE
  8
0
 66
1
 70
1
  0
VERTEX
  8
0
 10
355.400860
 20
95.839589
 42
0.113509
  0
VERTEX
  8
0
 10
355.091382
 20
94.928719
 42
0.337246
  0
VERTEX
  8
0
 10
355.414544
 20
94.400516
 42
0.149866
  0
VERTEX
  8
0
 10
356.392113
 20
94.328356
 42
0.032631
  0
VERTEX
  8
0
 10
358.031077
 20
94.815793
 42
0.000000
  0
VERTEX
  8
0
 10
360.352521
 20
95.674551
 42
0.000000
  0
VERTEX
  8
0
 10
358.177257
 20
96.243395
 42
0.045590
  0
VERTEX
  8
0
 10
357.300544
 20
96.389074
 42
0.054547
  0
VERTEX
  8
0
 10
356.464394
 20
96.359426
 42
0.063600
  0
VERTEX
  8
0
 10
355.788451
 20
96.171291
 42
0.155929
  0
SEQEND
  0
POLYLINE
  8
0
 66
1
 70
1
  0
VERTEX
  8
0
 10
204.675201
 20
93.595972
 42
0.370678
  0
VERTEX
  8
0
 10
205.052822
 20
92.540370
 42
0.073343
  0
VERTEX
  8
0
 10
207.080539
 20
91.751848
 42
0.064480
  0
VERTEX
  8
0
 10
209.425061
 20
91.526861
 42
0.251115
  0
VERTEX
  8
0
 10
210.644164
 20
92.233262
 42
0.097546
  0
VERTEX
  8
0
 10
210.914546
 20
92.953567
 42
0.278336
  0
VERTEX
  8
0
 10
210.724671
 20
93.431293
 42
0.095463
  0
VERTEX
  8
0
 10
209.956803
 20
93.810975
 42
0.008455
  0
VERTEX
  8
0
 10
207.854258
 20
94.352208
 42
0.035191
  0
VERTEX
  8
0
 10
206.641403
 20
94.553773
 42
0.082152
  0
VERTEX
  8
0
 10
205.726148
 20
94.489964
 42
0.116707
  0
VERTEX
  8
0
 10
205.081603
 20
94.165873
 42
0.127211
  0
SEQEND
  0
POLYLINE
  8
0
 66
1
 70
1
  0
VERTEX
  8
0
 10
480.000000
 20
93.500000
 42
0.024748
  0
VERTEX
  8
0
 10
480.028469
 20
92.925176
 42
0.039339
  0
VERTEX
  8
0
 10
480.115447
 20
92.440625
 42
0.046727
  0
VERTEX
  8
0
 10
480.241071
 20
92.096084
 42
0.289661
  0
VERTEX
  8
0
 10
480.393011
 20
92.000000
 42
0.222225
  0
VERTEX
  8
0
 10
480.579329
 20
92.087111
 42
0.030693
  0
VERTEX
  8
0
 10
480.839659
 20
92.440625
 42
0.030395
  0
VERTEX
  8
0
 10
481.112506
 20
92.925442
 42
0.021360
  0
VERTEX
  8
0
 10
481.361626
 20
93.500000
 42
0.055937
  0
VERTEX
  8
0
 10
481.511135
 20
94.074366
 42
0.100118
  0
VERTEX
  8
0
 10
481.483616
 20
94.559375
 42
0.147206
  0
VERTEX
  8
0
 10
481.289193
 20
94.877514
 42
0.184534
  0
VERTEX
  8
0
 10
480.968615
 20
95.000000
 42
0.152681
  0
VERTEX
  8
0
 10
480.599211
 20
94.884506
 42
0.098158
  0
VERTEX
  8
0
 10
480.284531
 20
94.559375
 42
0.080880
  0
VERTEX
  8
0
 10
480.072230
 20
94.073532
 42
0.062722
  0
SEQEND
  0
POLYLINE
  8
0
 66
1
 70
1
  0
VERTEX
  8
0
 10
347.000000
 20
93.000000
 42
0.133028
  0
VERTEX
  8
0
 10
346.608504
 20
92.564781
 42
0.443264
  0
VERTEX
  8
0
 10
346.730275
 20
92.247461
 42
0.082519
  0
VERTEX
  8
0
 10
347.585313
 20
92.069471
 42
0.010143
  0
VERTEX
  8
0
 10
349.500000
 20
92.030626
 42
0.010143
  0
VERTEX
  8
0
 10
351.414687
 20
92.069471
 42
0.082519
  0
VERTEX
  8
0
 10
352.269725
 20
92.247461
 42
0.443264
  0
VERTEX
  8
0
 10
352.391496
 20
92.564781
 42
0.133028
  0
VERTEX
  8
0
 10
352.000000
 20
93.000000
 42
0.026766
  0
VERTEX
  8
0
 10
351.352293
 20
93.371038
 42
0.024204
  0
VERTEX
  8
0
 10
350.646875
 20
93.684621
 42
0.024967
  0
VERTEX
  8
0
 10
349.987337
 20
93.903168
 42
0.067616
  0
VERTEX
  8
0
 10
349.500000
 20
93.969374
 42
0.067616
  0
VERTEX
  8
0
 10
349.012663
 20
93.903168
 42
0.024967
  0
VERTEX
  8
0
 10
348.353125
 20
93.684621
 42
0.024204
  0
VERTEX
  8
0
 10
347.647707
 20
93.371038
 42
0.026766
  0
SEQEND
  0
POLYLINE
  8
0
 66
1
 70
1
  0
VERTEX
  8
0
 10
212.500000
 20
91.000000
 42
0.386734
  0
VERTEX
  8
0
 10
212.574454
 20
90.600962
 42
0.102620
  0
VERTEX
  8
0
 10
213.213458
 20
90.297179
 42
0.048081
  0
VERTEX
  8
0
 10
214.437936
 20
90.120671
 42
0.017553
  0
VERTEX
  8
0
 10
216.190983
 20
90.099680
 42
0.003596
  0
VERTEX
  8
0
 10
218.651620
 20
90.174312
 42
0.106470
  0
VERTEX
  8
0
 10
219.253240
 20
90.327709
 42
0.648202
  0
VERTEX
  8
0
 10
219.243929
 20
90.553461
 42
0.017358
  0
VERTEX
  8
0
 10
218.000000
 20
91.000000
 42
0.015514
  0
VERTEX
  8
0
 10
215.657299
 20
91.670891
 42
0.062051
  0
VERTEX
  8
0
 10
214.179315
 20
91.855020
 42
0.113850
  0
VERTEX
  8
0
 10
213.193920
 20
91.627699
 42
0.141885
  0
SEQEND
  0
POLYLINE
  8
0
 66
1
 70
1
  0
VERTEX
  8
0
 10
336.988813
 20
90.993086
 42
0.114934
  0
VERTEX
  8
0
 10
336.003163
 20
90.013253
 42
0.415034
  0
VERTEX
  8
0
 10
336.182864
 20
89.236339
 42
0.180083
  0
VERTEX
  8
0
 10
337.476708
 20
88.973597
 42
0.059444
  0
VERTEX
  8
0
 10
339.374280
 20
89.508481
 42
0.006891
  0
VERTEX
  8
0
 10
341.080956
 20
90.244741
 42
0.173130
  0
VERTEX
  8
0
 10
341.443368
 20
90.591911
 42
0.448001
  0
VERTEX
  8
0
 10
341.325928
 20
90.887344
 42
0.023572
  0
VERTEX
  8
0
 10
340.234979
 20
91.228301
 42
0.044369
  0
VERTEX
  8
0
 10
339.373496
 20
91.373607
 42
0.037705
  0
VERTEX
  8
0
 10
338.450815
 20
91.376414
 42
0.039374
  0
VERTEX
  8
0
 10
337.605426
 20
91.247746
 42
0.081134
  0
SEQEND
  0
POLYLINE
  8
0
 66
1
 70
1
  0
VERTEX
  8
0
 10
477.030626
 20
88.500000
 42
0.040274
  0
VERTEX
  8
0
 10
477.101250
 20
87.624621
 42
0.027303
  0
VERTEX
  8
0
 10
477.315379
 20
86.646875
 42
0.027565
  0
VERTEX
  8
0
 10
477.628331
 20
85.719031
 42
0.048366
  0
VERTEX
  8
0
 10
478.000000
 20
85.000000
 42
0.016040
  0
VERTEX
  8
0
 10
478.540150
 20
84.220228
 42
0.367612
  0
VERTEX
  8
0
 10
478.785703
 20
84.163161
 42
0.268550
  0
VERTEX
  8
0
 10
478.944796
 20
84.411438
 42
0.011288
  0
VERTEX
  8
0
 10
478.969374
 20
85.500000
 42
0.040274
  0
VERTEX
  8
0
 10
478.898750
 20
86.375379
 42
0.027303
  0
VERTEX
  8
0
 10
478.684621
 20
87.353125
 42
0.027565
  0
VERTEX
  8
0
 10
478.371669
 20
88.280969
 42
0.048366
  0
VERTEX
  8
0
 10
478.000000
 20
89.000000
 42
0.016040
  0
VERTEX
  8
0
 10
477.459850
 20
89.779772
 42
0.367612
  0
VERTEX
  8
0
 10
477.214297
 20
89.836839
 42
0.268550
  0
VERTEX
  8
0
 10
477.055204
 20
89.588562
 42
0.011288
  0
SEQEND
  0
POLYLINE
  8
0
 66
1
 70
1
  0
VERTEX
  8
0
 10
221.000000
 20
88.000000
 42
0.006993
  0
VERTEX
  8
0
 10
219.516360
 20
87.501872
 42
0.588866
  0
VERTEX
  8
0
 10
219.484056
 20
87.311978
 42
0.160647
  0
VERTEX
  8
0
 10
219.855357
 20
87.173767
 42
0.002570
  0
VERTEX
  8
0
 10
222.125000
 20
87.099680
 42
-0.011595
  0
VERTEX
  8
0
 10
223.730190
 20
87.018261
 42
-0.007772
  0
VERTEX
  8
0
 10
225.560851
 20
86.854142
 42
-0.007829
  0
VERTEX
  8
0
 10
227.330050
 20
86.639714
 42
-0.015283
  0
VERTEX
  8
0
 10
228.731089
 20
86.403782
 42
0.029738
  0
VERTEX
  8
0
 10
230.182388
 20
86.202314
 42
0.087695
  0
VERTEX
  8
0
 10
231.181295
 20
86.298971
 42
0.128473
  0
VERTEX
  8
0
 10
231.863652
 20
86.695986
 42
0.105865
  0
VERTEX
  8
0
 10
232.324704
 20
87.403782
 42
0.152786
  0
VERTEX
  8
0
 10
232.374723
 20
88.194408
 42
0.250353
  0
VERTEX
  8
0
 10
231.937737
 20
88.682049
 42
0.082302
  0
VERTEX
  8
0
 10
230.772567
 20
88.900427
 42
0.010540
  0
VERTEX
  8
0
 10
228.218615
 20
88.900320
 42
0.013769
  0
VERTEX
  8
0
 10
226.228719
 20
88.803418
 42
0.011972
  0
VERTEX
  8
0
 10
224.151718
 20
88.594733
 42
0.012127
  0
VERTEX
  8
0
 10
222.280946
 20
88.315181
 42
0.034351
  0
SEQEND
  0
POLYLINE
  8
0
 66
1
 70
1
  0
VERTEX
  8
0
 10
449.115620
 20
84.901823
 42
0.026797
  0
VERTEX
  8
0
 10
448.695494
 20
83.450894
 42
0.017212
  0
VERTEX
  8
0
 10
448.357814
 20
81.730780
 42
0.017300
  0
VERTEX
  8
0
 10
448.143048
 20
80.019238
 42
0.030826
  0
VERTEX
  8
0
 10
448.102471
 20
78.600777
 42
0.052363
  0
VERTEX
  8
0
 10
448.237912
 20
77.623154
 42
0.701088
  0
VERTEX
  8
0
 10
448.483304
 20
77.597146
 42
0.054810
  0
VERTEX
  8
0
 10
448.869925
 20
78.676483
 42
0.004855
  0
VERTEX
  8
0
 10
449.515396
 20
81.500000
 42
0.005287
  0
VERTEX
  8
0
 10
450.436842
 20
85.943809
 42
0.077873
  0
VERTEX
  8
0
 10
450.497990
 20
87.533322
 42
0.770727
  0
VERTEX
  8
0
 10
450.145605
 20
87.583176
 42
0.015662
  0
SEQEND
  0
POLYLINE
  8
0
 66
1
 70
1
  0
VERTEX
  8
0
 10
238.508611
 20
84.495542
 42
0.084783
  0
VERTEX
  8
0
 10
241.473172
 20
83.770378
 42
0.028886
  0
VERTEX
  8
0
 10
245.919782
 20
83.712649
 42
0.021857
  0
VERTEX
  8
0
 10
250.153054
 20
84.088195
 42
0.376006
  0
VERTEX
  8
0
 10
251.000000
 20
85.055208
 42
0.374318
  0
VERTEX
  8
0
 10
250.725157
 20
85.370895
 42
0.009774
  0
VERTEX
  8
0
 10
248.723437
 20
85.609335
 42
0.015943
  0
VERTEX
  8
0
 10
246.221461
 20
85.777541
 42
0.009626
  0
VERTEX
  8
0
 10
243.250000
 20
85.825069
 42
0.002237
  0
VERTEX
  8
0
 10
238.340740
 20
85.787118
 42
0.065389
  0
VERTEX
  8
0
 10
237.103341
 20
85.609212
 42
0.657690
  0
VERTEX
  8
0
 10
237.054116
 20
85.243750
 42
0.033036
  0
SEQEND
  0
POLYLINE
  8
0
 66
1
 70
1
  0
VERTEX
  8
0
 10
182.638374
 20
82.500000
 42
0.021360
  0
VERTEX
  8
0
 10
182.887494
 20
81.925442
 42
0.030395
  0
VERTEX
  8
0
 10
183.160341
 20
81.440625
 42
0.030693
  0
VERTEX
  8
0
 10
183.420671
 20
81.087111
 42
0.222225
  0
VERTEX
  8
0
 10
183.606989
 20
81.000000
 42
0.289661
  0
VERTEX
  8
0
 10
183.758929
 20
81.096084
 42
0.046727
  0
VERTEX
  8
0
 10
183.884553
 20
81.440625
 42
0.039339
  0
VERTEX
  8
0
 10
183.971531
 20
81.925176
 42
0.024748
  0
VERTEX
  8
0
 10
184.000000
 20
82.500000
 42
0.062722
  0
VERTEX
  8
0
 10
183.927770
 20
83.073532
 42
0.080880
  0
VERTEX
  8
0
 10
183.715469
 20
83.559375
 42
0.098158
  0
VERTEX
  8
0
 10
183.400789
 20
83.884506
 42
0.152681
  0
VERTEX
  8
0
 10
183.031385
 20
84.000000
 42
0.184534
  0
VERTEX
  8
0
 10
182.710807
 20
83.877514
 42
0.147206
  0
VERTEX
  8
0
 10
182.516384
 20
83.559375
 42
0.100118
  0
VERTEX
  8
0
 10
182.488865
 20
83.074366
 42
0.055937
  0
SEQEND
  0
POLYLINE
  8
0
 66
1
 70
1
  0
VERTEX
  8
0
 10
474.732357
 20
81.915465
 42
0.023786
  0
VERTEX
  8
0
 10
475.031533
 20
80.959635
 42
0.172440
  0
VERTEX
  8
0
 10
475.334155
 20
80.594776
 42
0.331649
  0
VERTEX
  8
0
 10
475.669843
 20
80.629684
 42
0.068391
  0
VERTEX
  8
0
 10
476.072755
 20
81.117720
 42
0.092521
  0
VERTEX
  8
0
 10
476.464072
 20
82.129448
 42
0.133347
  0
VERTEX
  8
0
 10
476.387218
 20
83.081045
 42
0.160203
  0
VERTEX
  8
0
 10
475.866388
 20
83.747402
 42
0.148493
  0
VERTEX
  8
0
 10
475.034603
 20
84.000000
 42
0.266792
  0
VERTEX
  8
0
 10
474.753766
 20
83.838667
 42
0.096278
  0
VERTEX
  8
0
 10
474.596281
 20
83.387668
 42
0.063501
  0
VERTEX
  8
0
 10
474.584727
 20
82.714383
 42
0.036542
  0
SEQEND
  0
POLYLINE
  8
0
 66
1
 70
1
  0
VERTEX
  8
0
 10
445.639163
 20
72.502058
 42
0.057482
  0
VERTEX
  8
0
 10
445.132120
 20
70.529239
 42
0.044141
  0
VERTEX
  8
0
 10
445.024156
 20
68.305291
 42
0.058627
  0
VERTEX
  8
0
 10
445.284571
 20
66.658503
 42
0.498695
  0
VERTEX
  8
0
 10
445.880598
 20
66.426205
 42
0.171428
  0
VERTEX
  8
0
 10
446.684877
 20
67.425548
 42
0.042946
  0
VERTEX
  8
0
 10
447.215341
 20
69.483500
 42
0.043633
  0
VERTEX
  8
0
 10
447.386401
 20
71.638251
 42
0.137248
  0
VERTEX
  8
0
 10
446.988134
 20
73.019200
 42
0.081535
  0
VERTEX
  8
0
 10
446.633005
 20
73.427151
 42
0.270814
  0
VERTEX
  8
0
 10
446.295525
 20
73.482604
 42
0.174648
  0
VERTEX
  8
0
 10
445.967219
 20
73.199336
 42
0.036690
  0
SEQEND
  0
POLYLINE
  8
0
 66
1
 70
1
  0
VERTEX
  8
0
 10
188.078947
 20
71.416667
 42
0.018894
  0
VERTEX
  8
0
 10
188.137993
 20
70.670344
 42
0.168741
  0
VERTEX
  8
0
 10
188.279315
 20
70.378580
 42
0.470617
  0
VERTEX
  8
0
 10
188.461564
 20
70.395823
 42
0.054073
  0
VERTEX
  8
0
 10
188.683114
 20
70.812500
 42
0.051402
  0
VERTEX
  8
0
 10
188.839148
 20
71.359369
 42
0.054150
  0
VERTEX
  8
0
 10
188.876576
 20
71.916927
 42
0.060344
  0
VERTEX
  8
0
 10
188.797407
 20
72.402231
 42
0.126455
  0
VERTEX
  8
0
 10
188.604167
 20
72.729167
 42
0.296942
  0
VERTEX
  8
0
 10
188.385309
 20
72.775380
 42
0.208169
  0
VERTEX
  8
0
 10
188.200665
 20
72.592839
 42
0.077125
  0
VERTEX
  8
0
 10
188.089945
 20
72.112848
 42
0.028489
  0
SEQEND
  0
POLYLINE
  8
0
 66
1
 70
1
  0
VERTEX
  8
0
 10
448.500000
 20
56.000000
 42
0.060810
  0
VERTEX
  8
0
 10
448.806203
 20
55.617485
 42
0.051032
  0
VERTEX
  8
0
 10
449.212900
 20
55.293750
 42
0.053229
  0
VERTEX
  8
0
 10
449.653442
 20
55.073302
 42
0.089642
  0
VERTEX
  8
0
 10
450.059017
 20
55.000000
 42
0.105429
  0
VERTEX
  8
0
 10
450.418051
 20
55.076556
 42
0.099231
  0
VERTEX
  8
0
 10
450.723586
 20
55.293750
 42
0.096318
  0
VERTEX
  8
0
 10
450.928382
 20
55.618268
 42
0.092995
  0
VERTEX
  8
0
 10
451.000000
 20
56.000000
 42
0.153634
  0
VERTEX
  8
0
 10
450.879982
 20
56.381379
 42
0.097988
  0
VERTEX
  8
0
 10
450.542039
 20
56.706250
 42
0.080552
  0
VERTEX
  8
0
 10
450.037096
 20
56.925455
 42
0.062283
  0
VERTEX
  8
0
 10
449.440983
 20
57.000000
 42
0.066118
  0
VERTEX
  8
0
 10
448.889346
 20
56.926733
 42
0.138808
  0
VERTEX
  8
0
 10
448.521475
 20
56.706250
 42
0.191142
  0
VERTEX
  8
0
 10
448.392057
 20
56.379648
 42
0.139169
  0
SEQEND
  0
POLYLINE
  8
0
 66
1
 70
1
  0
VERTEX
  8
0
 10
197.000000
 20
55.300616
 42
-0.062452
  0
VERTEX
  8
0
 10
197.695656
 20
54.946216
 42
-0.023850
  0
VERTEX
  8
0
 10
198.566906
 20
54.292630
 42
-0.023174
  0
VERTEX
  8
0
 10
199.456133
 20
53.484527
 42
-0.026308
  0
VERTEX
  8
0
 10
200.227764
 20
52.629563
 42
0.023926
  0
VERTEX
  8
0
 10
200.941529
 20
51.831106
 42
0.090467
  0
VERTEX
  8
0
 10
201.487493
 20
51.447030
 42
0.286724
  0
VERTEX
  8
0
 10
201.816327
 20
51.488634
 42
0.220906
  0
VERTEX
  8
0
 10
201.977764
 20
51.821429
 42
0.139066
  0
VERTEX
  8
0
 10
201.600430
 20
53.242525
 42
0.078410
  0
VERTEX
  8
0
 10
200.453085
 20
54.625920
 42
0.076320
  0
VERTEX
  8
0
 10
198.895514
 20
55.623303
 42
0.115644
  0
VERTEX
  8
0
 10
197.321429
 20
55.921053
 42
0.008227
  0
VERTEX
  8
0
 10
196.392251
 20
55.865450
 42
0.259761
  0
VERTEX
  8
0
 10
196.207958
 20
55.743515
 42
0.438182
  0
VERTEX
  8
0
 10
196.264648
 20
55.587227
 42
0.012608
  0
SEQEND
  0
POLYLINE
  8
0
 66
1
 70
1
  0
VERTEX
  8
0
 10
443.510081
 20
52.983688
 42
0.090427
  0
VERTEX
  8
0
 10
443.820631
 20
52.639411
 42
0.095498
  0
VERTEX
  8
0
 10
444.227140
 20
52.434921
 42
0.099685
  0
VERTEX
  8
0
 10
444.665803
 20
52.401101
 42
0.108373
  0
VERTEX
  8
0
 10
445.069098
 20
52.542705
 42
0.050477
  0
VERTEX
  8
0
 10
445.838655
 20
53.133140
 42
0.315493
  0
VERTEX
  8
0
 10
445.933879
 20
53.592818
 42
0.257010
  0
VERTEX
  8
0
 10
445.519563
 20
53.914842
 42
0.039415
  0
VERTEX
  8
0
 10
444.440983
 20
54.000000
 42
0.067432
  0
VERTEX
  8
0
 10
443.890269
 20
53.925389
 42
0.140899
  0
VERTEX
  8
0
 10
443.524436
 20
53.701458
 42
0.190788
  0
VERTEX
  8
0
 10
443.397824
 20
53.369640
 42
0.136093
  0
SEQEND
  0
POLYLINE
  8
0
 66
1
 70
1
  0
VERTEX
  8
0
 10
210.000000
 20
43.000000
 42
0.105053
  0
VERTEX
  8
0
 10
210.081062
 20
42.618444
 42
0.099167
  0
VERTEX
  8
0
 10
210.311086
 20
42.293750
 42
0.096420
  0
VERTEX
  8
0
 10
210.654762
 20
42.076123
 42
0.093332
  0
VERTEX
  8
0
 10
211.059017
 20
42.000000
 42
0.108972
  0
VERTEX
  8
0
 10
211.413961
 20
42.078288
 42
0.182303
  0
VERTEX
  8
0
 10
211.625400
 20
42.293750
 42
0.161196
  0
VERTEX
  8
0
 10
211.656512
 20
42.617900
 42
0.082592
  0
VERTEX
  8
0
 10
211.500000
 20
43.000000
 42
0.029505
  0
VERTEX
  8
0
 10
211.231006
 20
43.382774
 42
0.035638
  0
VERTEX
  8
0
 10
210.933975
 20
43.706250
 42
0.038439
  0
VERTEX
  8
0
 10
210.651710
 20
43.934461
 42
0.151918
  0
VERTEX
  8
0
 10
210.440983
 20
44.000000
 42
0.210953
  0
VERTEX
  8
0
 10
210.272352
 20
43.925540
 42
0.081139
  0
VERTEX
  8
0
 10
210.129539
 20
43.706250
 42
0.061769
  0
VERTEX
  8
0
 10
210.032345
 20
43.382849
 42
0.042167
  0
SEQEND
  0
POLYLINE
  8
0
 66
1
 70
1
  0
VERTEX
  8
0
 10
403.750000
 20
37.337719
 42
0.057986
  0
VERTEX
  8
0
 10
404.320008
 20
37.181385
 42
0.037979
  0
VERTEX
  8
0
 10
405.000000
 20
37.129660
 42
0.037979
  0
VERTEX
  8
0
 10
405.679992
 20
37.181385
 42
0.057986
  0
VERTEX
  8
0
 10
406.250000
 20
37.337719
 42
0.174857
  0
VERTEX
  8
0
 10
406.459382
 20
37.525001
 42
0.447206
  0
VERTEX
  8
0
 10
406.398438
 20
37.693942
 42
0.078554
  0
VERTEX
  8
0
 10
405.891440
 20
37.810911
 42
0.017491
  0
VERTEX
  8
0
 10
405.000000
 20
37.842105
 42
0.017491
  0
VERTEX
  8
0
 10
404.108560
 20
37.810911
 42
0.078554
  0
VERTEX
  8
0
 10
403.601562
 20
37.693942
 42
0.447206
  0
VERTEX
  8
0
 10
403.540618
 20
37.525001
 42
0.174857
  0
SEQEND
  0
POLYLINE
  8
0
 66
1
 70
1
  0
VERTEX
  8
0
 10
222.000000
 20
33.500000
 42
0.034033
  0
VERTEX
  8
0
 10
222.546404
 20
32.925990
 42
0.035584
  0
VERTEX
  8
0
 10
223.157967
 20
32.440625
 42
0.038054
  0
VERTEX
  8
0
 10
223.743571
 20
32.102489
 42
0.112363
  0
VERTEX
  8
0
 10
224.193873
 20
32.000000
 42
0.292116
  0
VERTEX
  8
0
 10
224.411096
 20
32.138748
 42
0.199070
  0
VERTEX
  8
0
 10
224.423468
 20
32.440625
 42
0.078501
  0
VERTEX
  8
0
 10
224.154438
 20
32.923032
 42
0.030007
  0
VERTEX
  8
0
 10
223.642857
 20
33.500000
 42
0.021226
  0
VERTEX
  8
0
 10
223.017684
 20
34.074232
 42
0.025202
  0
VERTEX
  8
0
 10
222.379657
 20
34.559375
 42
0.025246
  0
VERTEX
  8
0
 10
221.809945
 20
34.908070
 42
0.125339
  0
VERTEX
  8
0
 10
221.448984
 20
35.000000
 42
0.367029
  0
VERTEX
  8
0
 10
221.295323
 20
34.869644
 42
0.129665
  0
VERTEX
  8
0
 10
221.324622
 20
34.559375
 42
0.059248
  0
VERTEX
  8
0
 10
221.570237
 20
34.076326
 42
0.025998
  0
SEQEND
  0
POLYLINE
  8
0
 66
1
 70
1
  0
VERTEX
  8
0
 10
388.800000
 20
31.800000
 42
0.049631
  0
VERTEX
  8
0
 10
389.452741
 20
31.265408
 42
0.147822
  0
VERTEX
  8
0
 10
390.000000
 20
31.100000
 42
0.147822
  0
VERTEX
  8
0
 10
390.547259
 20
31.265408
 42
0.049631
  0
VERTEX
  8
0
 10
391.200000
 20
31.800000
 42
0.051663
  0
VERTEX
  8
0
 10
391.686384
 20
32.398813
 42
0.354955
  0
VERTEX
  8
0
 10
391.650000
 20
32.750000
 42
0.180052
  0
VERTEX
  8
0
 10
391.199072
 20
32.956320
 42
0.018208
  0
VERTEX
  8
0
 10
390.000000
 20
33.000000
 42
0.018208
  0
VERTEX
  8
0
 10
388.800928
 20
32.956320
 42
0.180052
  0
VERTEX
  8
0
 10
388.350000
 20
32.750000
 42
0.354955
  0
VERTEX
  8
0
 10
388.313616
 20
32.398813
 42
0.051663
  0
SEQEND
  0
POLYLINE
  8
0
 66
1
 70
1
  0
VERTEX
  8
0
 10
374.557637
 20
27.093259
 42
0.236417
  0
VERTEX
  8
0
 10
374.531490
 20
26.801120
 42
0.238295
  0
VERTEX
  8
0
 10
374.749762
 20
26.606613
 42
0.095442
  0
VERTEX
  8
0
 10
375.266748
 20
26.570513
 42
0.033809
  0
VERTEX
  8
0
 10
375.998620
 20
26.709890
 42
0.020231
  0
VERTEX
  8
0
 10
377.475053
 20
27.160521
 42
0.209047
  0
VERTEX
  8
0
 10
377.930595
 20
27.583925
 42
0.493596
  0
VERTEX
  8
0
 10
377.747863
 20
27.912738
 42
0.036651
  0
VERTEX
  8
0
 10
376.559017
 20
28.000000
 42
0.056553
  0
VERTEX
  8
0
 10
375.966253
 20
27.932740
 42
0.049897
  0
VERTEX
  8
0
 10
375.376706
 20
27.733645
 42
0.052741
  0
VERTEX
  8
0
 10
374.877374
 20
27.440555
 42
0.095554
  0
SEQEND
  0
POLYLINE
  8
0
 66
1
 70
1
  0
VERTEX
  8
0
 10
236.000000
 20
25.500000
 42
0.087337
  0
VERTEX
  8
0
 10
236.667300
 20
24.933545
 42
0.046624
  0
VERTEX
  8
0
 10
237.651048
 20
24.474700
 42
0.044518
  0
VERTEX
  8
0
 10
238.775065
 20
24.182571
 42
0.052402
  0
VERTEX
  8
0
 10
239.872445
 20
24.116001
 42
0.004055
  0
VERTEX
  8
0
 10
241.284334
 20
24.189810
 42
0.176852
  0
VERTEX
  8
0
 10
241.552990
 20
24.306711
 42
0.582425
  0
VERTEX
  8
0
 10
241.517446
 20
24.449175
 42
0.008863
  0
VERTEX
  8
0
 10
240.500000
 20
24.713066
 42
-0.027624
  0
VERTEX
  8
0
 10
239.664611
 20
24.963524
 42
-0.023041
  0
VERTEX
  8
0
 10
238.808437
 20
25.318054
 42
-0.023660
  0
VERTEX
  8
0
 10
238.054045
 20
25.716549
 42
-0.056740
  0
VERTEX
  8
0
 10
237.550000
 20
26.097065
 42
0.057822
  0
VERTEX
  8
0
 10
236.479874
 20
26.901311
 42
0.227996
  0
VERTEX
  8
0
 10
235.680540
 20
26.965912
 42
0.410816
  0
VERTEX
  8
0
 10
235.449078
 20
26.452465
 42
0.084362
  0
SEQEND
  0
POLYLINE
  8
0
 66
1
 70
1
  0
VERTEX
  8
0
 10
364.812500
 20
24.316886
 42
0.051402
  0
VERTEX
  8
0
 10
365.359369
 20
24.160852
 42
0.054150
  0
VERTEX
  8
0
 10
365.916927
 20
24.123424
 42
0.060344
  0
VERTEX
  8
0
 10
366.402231
 20
24.202593
 42
0.126455
  0
VERTEX
  8
0
 10
366.729167
 20
24.395833
 42
0.296942
  0
VERTEX
  8
0
 10
366.775380
 20
24.614691
 42
0.208169
  0
VERTEX
  8
0
 10
366.592839
 20
24.799335
 42
0.077125
  0
VERTEX
  8
0
 10
366.112848
 20
24.910055
 42
0.028489
  0
VERTEX
  8
0
 10
365.416667
 20
24.921053
 42
0.018894
  0
VERTEX
  8
0
 10
364.670344
 20
24.862007
 42
0.168741
  0
VERTEX
  8
0
 10
364.378580
 20
24.720685
 42
0.470617
  0
VERTEX
  8
0
 10
364.395823
 20
24.538436
 42
0.054073
  0
SEQEND
  0
POLYLINE
  8
0
 66
1
 70
1
  0
VERTEX
  8
0
 10
245.000000
 20
21.059017
 42
0.088797
  0
VERTEX
  8
0
 10
245.072509
 20
20.653950
 42
0.053277
  0
VERTEX
  8
0
 10
245.290385
 20
20.214980
 42
0.051183
  0
VERTEX
  8
0
 10
245.610411
 20
19.810572
 42
0.061454
  0
VERTEX
  8
0
 10
245.988546
 20
19.507079
 42
0.114400
  0
VERTEX
  8
0
 10
246.325929
 20
19.393111
 42
0.329480
  0
VERTEX
  8
0
 10
246.525685
 20
19.512472
 42
0.155351
  0
VERTEX
  8
0
 10
246.556862
 20
19.868281
 42
0.036408
  0
VERTEX
  8
0
 10
246.381557
 20
20.448062
 42
0.029964
  0
VERTEX
  8
0
 10
245.894727
 20
21.519970
 42
0.168622
  0
VERTEX
  8
0
 10
245.441482
 20
21.942608
 42
0.444011
  0
VERTEX
  8
0
 10
245.117673
 20
21.798253
 42
0.079093
  0
SEQEND
  0
POLYLINE
  8
0
 66
1
 70
1
  0
VERTEX
  8
0
 10
247.500000
 20
21.000000
 42
0.029505
  0
VERTEX
  8
0
 10
247.768994
 20
20.617226
 42
0.035638
  0
VERTEX
  8
0
 10
248.066025
 20
20.293750
 42
0.038439
  0
VERTEX
  8
0
 10
248.348290
 20
20.065539
 42
0.151918
  0
VERTEX
  8
0
 10
248.559017
 20
20.000000
 42
0.210953
  0
VERTEX
  8
0
 10
248.727648
 20
20.074460
 42
0.081139
  0
VERTEX
  8
0
 10
248.870461
 20
20.293750
 42
0.061769
  0
VERTEX
  8
0
 10
248.967655
 20
20.617151
 42
0.042167
  0
VERTEX
  8
0
 10
249.000000
 20
21.000000
 42
0.105053
  0
VERTEX
  8
0
 10
248.918938
 20
21.381556
 42
0.099167
  0
VERTEX
  8
0
 10
248.688914
 20
21.706250
 42
0.096420
  0
VERTEX
  8
0
 10
248.345238
 20
21.923877
 42
0.093332
  0
VERTEX
  8
0
 10
247.940983
 20
22.000000
 42
0.108972
  0
VERTEX
  8
0
 10
247.586039
 20
21.921712
 42
0.182303
  0
VERTEX
  8
0
 10
247.374600
 20
21.706250
 42
0.161196
  0
VERTEX
  8
0
 10
247.343488
 20
21.382100
 42
0.082592
  0
SEQEND
  0
POLYLINE
  8
0
 66
1
 70
1
  0
VERTEX
  8
0
 10
355.000000
 20
21.000000
 42
0.099038
  0
VERTEX
  8
0
 10
355.076342
 20
20.618362
 42
0.097945
  0
VERTEX
  8
0
 10
355.293750
 20
20.293750
 42
0.097945
  0
VERTEX
  8
0
 10
355.618362
 20
20.076342
 42
0.099038
  0
VERTEX
  8
0
 10
356.000000
 20
20.000000
 42
0.099038
  0
VERTEX
  8
0
 10
356.381638
 20
20.076342
 42
0.097945
  0
VERTEX
  8
0
 10
356.706250
 20
20.293750
 42
0.097945
  0
VERTEX
  8
0
 10
356.923658
 20
20.618362
 42
0.099038
  0
VERTEX
  8
0
 10
357.000000
 20
21.000000
 42
0.099038
  0
VERTEX
  8
0
 10
356.923658
 20
21.381638
 42
0.097945
  0
VERTEX
  8
0
 10
356.706250
 20
21.706250
 42
0.097945
  0
VERTEX
  8
0
 10
356.381638
 20
21.923658
 42
0.099038
  0
VERTEX
  8
0
 10
356.000000
 20
22.000000
 42
0.099038
  0
VERTEX
  8
0
 10
355.618362
 20
21.923658
 42
0.097945
  0
VERTEX
  8
0
 10
355.293750
 20
21.706250
 42
0.097945
  0
VERTEX
  8
0
 10
355.076342
 20
21.381638
 42
0.099038
  0
SEQEND
  0
POLYLINE
  8
0
 66
1
 70
1
  0
VERTEX
  8
0
 10
359.473008
 20
21.043674
 42
0.126981
  0
VERTEX
  8
0
 10
359.809536
 20
20.720854
 42
0.081026
  0
VERTEX
  8
0
 10
360.321649
 20
20.533742
 42
0.072258
  0
VERTEX
  8
0
 10
360.926665
 20
20.506898
 42
0.066719
  0
VERTEX
  8
0
 10
361.532025
 20
20.650663
 42
0.027681
  0
VERTEX
  8
0
 10
362.769457
 20
21.205874
 42
0.395517
  0
VERTEX
  8
0
 10
362.917133
 20
21.622791
 42
0.275668
  0
VERTEX
  8
0
 10
362.476999
 20
21.936989
 42
0.020503
  0
VERTEX
  8
0
 10
360.940983
 20
22.000000
 42
0.045552
  0
VERTEX
  8
0
 10
360.193244
 20
21.931736
 42
0.099152
  0
VERTEX
  8
0
 10
359.660421
 20
21.719079
 42
0.177225
  0
VERTEX
  8
0
 10
359.425420
 20
21.405148
 42
0.214542
  0
SEQEND
  0
POLYLINE
  8
0
 66
1
 70
1
  0
VERTEX
  8
0
 10
250.510081
 20
18.983688
 42
0.101689
  0
VERTEX
  8
0
 10
250.829470
 20
18.645120
 42
0.098530
  0
VERTEX
  8
0
 10
251.259982
 20
18.455218
 42
0.097299
  0
VERTEX
  8
0
 10
251.735034
 20
18.443330
 42
0.096449
  0
VERTEX
  8
0
 10
252.180902
 20
18.611803
 42
-0.131568
  0
VERTEX
  8
0
 10
252.645759
 20
18.751506
 42
-0.099345
  0
VERTEX
  8
0
 10
253.173722
 20
18.662109
 42
-0.087063
  0
VERTEX
  8
0
 10
253.684569
 20
18.356265
 42
-0.073390
  0
VERTEX
  8
0
 10
254.096491
 20
17.878115
 42
0.018391
  0
VERTEX
  8
0
 10
254.561505
 20
17.200423
 42
0.345083
  0
VERTEX
  8
0
 10
254.794931
 20
17.136309
 42
0.283898
  0
VERTEX
  8
0
 10
254.950359
 20
17.353547
 42
0.014763
  0
VERTEX
  8
0
 10
254.984687
 20
18.250000
 42
0.102339
  0
VERTEX
  8
0
 10
254.830117
 20
19.031702
 42
0.143218
  0
VERTEX
  8
0
 10
254.382943
 20
19.580532
 42
0.107976
  0
VERTEX
  8
0
 10
253.600645
 20
19.899806
 42
0.043119
  0
VERTEX
  8
0
 10
252.440983
 20
20.000000
 42
0.034977
  0
VERTEX
  8
0
 10
251.465312
 20
19.931665
 42
0.086376
  0
VERTEX
  8
0
 10
250.784891
 20
19.712076
 42
0.173612
  0
VERTEX
  8
0
 10
250.479395
 20
19.379179
 42
0.242672
  0
SEQEND
  0
POLYLINE
  8
0
 66
1
 70
1
  0
VERTEX
  8
0
 10
351.500000
 20
19.000000
 42
0.029505
  0
VERTEX
  8
0
 10
351.768994
 20
18.617226
 42
0.035638
  0
VERTEX
  8
0
 10
352.066025
 20
18.293750
 42
0.038439
  0
VERTEX
  8
0
 10
352.348290
 20
18.065539
 42
0.151918
  0
VERTEX
  8
0
 10
352.559017
 20
18.000000
 42
0.210953
  0
VERTEX
  8
0
 10
352.727648
 20
18.074460
 42
0.081139
  0
VERTEX
  8
0
 10
352.870461
 20
18.293750
 42
0.061769
  0
VERTEX
  8
0
 10
352.967655
 20
18.617151
 42
0.042167
  0
VERTEX
  8
0
 10
353.000000
 20
19.000000
 42
0.105053
  0
VERTEX
  8
0
 10
352.918938
 20
19.381556
 42
0.099167
  0
VERTEX
  8
0
 10
352.688914
 20
19.706250
 42
0.096420
  0
VERTEX
  8
0
 10
352.345238
 20
19.923877
 42
0.093332
  0
VERTEX
  8
0
 10
351.940983
 20
20.000000
 42
0.108972
  0
VERTEX
  8
0
 10
351.586039
 20
19.921712
 42
0.182303
  0
VERTEX
  8
0
 10
351.374600
 20
19.706250
 42
0.161196
  0
VERTEX
  8
0
 10
351.343488
 20
19.382100
 42
0.082592
  0
SEQEND
  0
POLYLINE
  8
0
 66
1
 70
1
  0
VERTEX
  8
0
 10
265.000000
 20
16.000000
 42
0.153634
  0
VERTEX
  8
0
 10
265.120018
 20
15.618621
 42
0.097988
  0
VERTEX
  8
0
 10
265.457961
 20
15.293750
 42
0.080552
  0
VERTEX
  8
0
 10
265.962904
 20
15.074545
 42
0.062283
  0
VERTEX
  8
0
 10
266.559017
 20
15.000000
 42
0.066118
  0
VERTEX
  8
0
 10
267.110654
 20
15.073267
 42
0.138808
  0
VERTEX
  8
0
 10
267.478525
 20
15.293750
 42
0.191142
  0
VERTEX
  8
0
 10
267.607943
 20
15.620352
 42
0.139169
  0
VERTEX
  8
0
 10
267.500000
 20
16.000000
 42
0.060810
  0
VERTEX
  8
0
 10
267.193797
 20
16.382515
 42
0.051032
  0
VERTEX
  8
0
 10
266.787100
 20
16.706250
 42
0.053229
  0
VERTEX
  8
0
 10
266.346558
 20
16.926698
 42
0.089642
  0
VERTEX
  8
0
 10
265.940983
 20
17.000000
 42
0.105429
  0
VERTEX
  8
0
 10
265.581949
 20
16.923444
 42
0.099231
  0
VERTEX
  8
0
 10
265.276414
 20
16.706250
 42
0.096318
  0
VERTEX
  8
0
 10
265.071618
 20
16.381732
 42
0.092995
  0
SEQEND
  0
POLYLINE
  8
0
 66
1
 70
1
  0
VERTEX
  8
0
 10
333.000000
 20
16.000000
 42
0.210568
  0
VERTEX
  8
0
 10
333.167975
 20
15.618823
 42
0.082215
  0
VERTEX
  8
0
 10
333.660937
 20
15.298248
 42
0.062416
  0
VERTEX
  8
0
 10
334.388595
 20
15.082804
 42
0.042523
  0
VERTEX
  8
0
 10
335.250000
 20
15.015313
 42
0.011293
  0
VERTEX
  8
0
 10
336.444209
 20
15.050422
 42
0.220444
  0
VERTEX
  8
0
 10
336.762149
 20
15.218347
 42
0.409657
  0
VERTEX
  8
0
 10
336.728886
 20
15.479509
 42
0.023197
  0
VERTEX
  8
0
 10
336.000000
 20
16.000000
 42
0.031558
  0
VERTEX
  8
0
 10
334.698623
 20
16.729028
 42
0.112355
  0
VERTEX
  8
0
 10
333.772965
 20
16.939692
 42
0.234725
  0
VERTEX
  8
0
 10
333.224247
 20
16.667076
 42
0.163584
  0
SEQEND
  0
POLYLINE
  8
0
 66
1
 70
1
  0
VERTEX
  8
0
 10
291.675726
 20
13.778426
 42
0.677149
  0
VERTEX
  8
0
 10
291.728760
 20
13.496822
 42
0.025653
  0
VERTEX
  8
0
 10
293.195369
 20
13.285797
 42
0.018119
  0
VERTEX
  8
0
 10
295.509369
 20
13.157526
 42
0.008562
  0
VERTEX
  8
0
 10
298.500000
 20
13.151495
 42
0.001365
  0
VERTEX
  8
0
 10
304.263958
 20
13.254317
 42
0.615496
  0
VERTEX
  8
0
 10
304.394369
 20
13.526538
 42
0.214814
  0
VERTEX
  8
0
 10
303.853092
 20
13.815865
 42
0.001116
  0
VERTEX
  8
0
 10
297.675726
 20
14.220798
 42
0.015557
  0
VERTEX
  8
0
 10
295.742502
 20
14.282903
 42
0.018652
  0
VERTEX
  8
0
 10
293.923213
 20
14.216840
 42
0.017627
  0
VERTEX
  8
0
 10
292.412323
 20
14.051733
 42
0.105994
  0
SEQEND
  0
POLYLINE
  8
0
 66
1
 70
1
  0
VERTEX
  8
0
 10
311.500000
 20
13.971310
 42
0.401341
  0
VERTEX
  8
0
 10
311.349007
 20
13.627472
 42
0.266024
  0
VERTEX
  8
0
 10
311.703103
 20
13.328461
 42
0.035780
  0
VERTEX
  8
0
 10
313.380235
 20
13.143706
 42
0.007007
  0
VERTEX
  8
0
 10
316.416667
 20
13.070285
 42
0.004818
  0
VERTEX
  8
0
 10
319.040867
 20
13.068906
 42
0.008824
  0
VERTEX
  8
0
 10
321.179167
 20
13.126138
 42
0.004845
  0
VERTEX
  8
0
 10
322.869191
 20
13.217655
 42
0.671892
  0
VERTEX
  8
0
 10
322.916667
 20
13.359122
 42
0.153092
  0
VERTEX
  8
0
 10
321.515351
 20
13.964074
 42
0.012535
  0
VERTEX
  8
0
 10
317.490781
 20
14.281222
 42
0.015189
  0
VERTEX
  8
0
 10
313.483104
 20
14.374198
 42
0.096928
  0
SEQEND
  0
POLYLINE
  8
0
 66
1
 70
1
  0
VERTEX
  8
0
 10
278.767909
 20
13.275269
 42
0.018638
  0
VERTEX
  8
0
 10
280.218327
 20
13.150328
 42
0.012590
  0
VERTEX
  8
0
 10
281.878422
 20
13.111345
 42
0.012695
  0
VERTEX
  8
0
 10
283.487453
 20
13.154945
 42
0.024559
  0
VERTEX
  8
0
 10
284.767909
 20
13.285474
 42
0.212532
  0
VERTEX
  8
0
 10
285.000181
 20
13.434198
 42
0.556092
  0
VERTEX
  8
0
 10
284.934948
 20
13.575472
 42
0.025342
  0
VERTEX
  8
0
 10
283.655786
 20
13.668409
 42
0.005888
  0
VERTEX
  8
0
 10
281.500000
 20
13.690131
 42
0.005499
  0
VERTEX
  8
0
 10
279.352754
 20
13.662864
 42
0.031761
  0
VERTEX
  8
0
 10
278.222448
 20
13.564056
 42
0.756877
  0
VERTEX
  8
0
 10
278.205163
 20
13.425738
 42
0.069146
  0
SEQEND
  0
POLYLINE
  8
0
 66
1
 70
1
  0
VERTEX
  8
0
 10
419.325948
 20
490.064314
 42
0.064081
  0
VERTEX
  8
0
 10
416.737776
 20
489.294365
 42
0.046533
  0
VERTEX
  8
0
 10
414.112163
 20
487.825238
 42
0.028078
  0
VERTEX
  8
0
 10
410.775324
 20
485.239370
 42
0.006804
  0
VERTEX
  8
0
 10
405.568996
 20
480.589252
 42
0.009660
  0
VERTEX
  8
0
 10
401.727290
 20
476.923581
 42
0.014317
  0
VERTEX
  8
0
 10
398.518425
 20
473.553453
 42
0.012797
  0
VERTEX
  8
0
 10
396.084114
 20
470.702129
 42
0.109223
  0
VERTEX
  8
0
 10
395.337367
 20
469.208041
 42
0.182567
  0
VERTEX
  8
0
 10
395.616321
 20
466.798371
 42
0.082839
  0
VERTEX
  8
0
 10
397.545985
 20
464.215842
 42
0.045719
  0
VERTEX
  8
0
 10
401.427620
 20
461.125304
 42
0.012242
  0
VERTEX
  8
0
 10
408.134033
 20
456.952781
 42
-0.028353
  0
VERTEX
  8
0
 10
413.185730
 20
453.579377
 42
-0.020404
  0
VERTEX
  8
0
 10
418.433200
 20
449.281308
 42
-0.018160
  0
VERTEX
  8
0
 10
423.925269
 20
444.025890
 42
-0.012825
  0
VERTEX
  8
0
 10
429.718738
 20
437.750000
 42
0.019984
  0
VERTEX
  8
0
 10
431.578557
 20
435.792296
 42
0.031548
  0
VERTEX
  8
0
 10
433.337654
 20
434.286426
 42
0.036718
  0
VERTEX
  8
0
 10
434.883030
 20
433.292582
 42
0.125176
  0
VERTEX
  8
0
 10
436.033405
 20
433.000000
 42
0.088689
  0
VERTEX
  8
0
 10
437.622323
 20
433.284074
 42
0.050888
  0
VERTEX
  8
0
 10
439.375479
 20
434.142910
 42
0.023625
  0
VERTEX
  8
0
 10
441.949402
 20
435.920686
 42
0.003352
  0
VERTEX
  8
0
 10
447.036069
 20
439.855397
 42
0.100795
  0
VERTEX
  8
0
 10
452.088711
 20
445.796161
 42
0.071979
  0
VERTEX
  8
0
 10
455.173817
 20
453.988363
 42
0.068671
  0
VERTEX
  8
0
 10
455.900174
 20
463.125584
 42
0.075159
  0
VERTEX
  8
0
 10
454.065886
 20
471.823823
 42
0.047935
  0
VERTEX
  8
0
 10
451.688136
 20
476.700394
 42
0.041688
  0
VERTEX
  8
0
 10
448.325561
 20
481.285322
 42
0.042269
  0
VERTEX
  8
0
 10
444.307831
 20
485.182669
 42
0.053541
  0
VERTEX
  8
0
 10
439.980222
 20
488.010090
 42
0.064731
  0
VERTEX
  8
0
 10
436.042961
 20
489.413761
 42
0.028520
  0
VERTEX
  8
0
 10
430.571320
 20
490.275202
 42
0.027962
  0
VERTEX
  8
0
 10
424.673204
 20
490.530295
 42
0.037136
  0
SEQEND
  0
POLYLINE
  8
0
 66
1
 70
1
  0
VERTEX
  8
0
 10
233.000000
 20
360.225412
 42
0.047540
  0
VERTEX
  8
0
 10
232.286077
 20
359.919610
 42
0.018047
  0
VERTEX
  8
0
 10
231.353125
 20
359.365691
 42
0.017682
  0
VERTEX
  8
0
 10
230.375754
 20
358.686590
 42
0.020659
  0
VERTEX
  8
0
 10
229.500000
 20
357.972709
 42
-0.032780
  0
VERTEX
  8
0
 10
228.457077
 20
357.163804
 42
-0.012621
  0
VERTEX
  8
0
 10
226.912500
 20
356.176139
 42
-0.012433
  0
VERTEX
  8
0
 10
225.178064
 20
355.185805
 42
-0.014987
  0
VERTEX
  8
0
 10
223.500000
 20
354.346089
 42
0.087700
  0
VERTEX
  8
0
 10
219.852551
 20
351.802490
 42
0.288582
  0
VERTEX
  8
0
 10
219.226666
 20
349.067765
 42
0.283596
  0
VERTEX
  8
0
 10
221.428513
 20
347.282808
 42
0.086397
  0
VERTEX
  8
0
 10
225.905209
 20
347.479180
 42
0.089679
  0
VERTEX
  8
0
 10
229.225033
 20
348.863583
 42
0.039814
  0
VERTEX
  8
0
 10
233.005459
 20
351.758715
 42
0.037906
  0
VERTEX
  8
0
 10
236.129196
 20
355.032918
 42
0.173229
  0
VERTEX
  8
0
 10
237.000000
 20
357.470934
 42
0.088750
  0
VERTEX
  8
0
 10
236.719960
 20
359.036193
 42
0.154634
  0
VERTEX
  8
0
 10
235.917906
 20
360.067688
 42
0.148970
  0
VERTEX
  8
0
 10
234.643150
 20
360.472211
 42
0.080474
  0
SEQEND
  0
POLYLINE
  8
0
 66
1
 70
1
  0
VERTEX
  8
0
 10
284.750000
 20
358.919901
 42
0.136967
  0
VERTEX
  8
0
 10
283.419487
 20
357.550908
 42
0.175127
  0
VERTEX
  8
0
 10
283.154804
 20
355.824940
 42
0.113010
  0
VERTEX
  8
0
 10
284.088108
 20
353.732962
 42
0.041741
  0
VERTEX
  8
0
 10
286.250000
 20
351.308120
 42
0.042292
  0
VERTEX
  8
0
 10
290.825933
 20
347.647698
 42
0.073076
  0
VERTEX
  8
0
 10
295.217808
 20
345.557124
 42
0.110998
  0
VERTEX
  8
0
 10
298.729496
 20
345.285173
 42
0.238260
  0
VERTEX
  8
0
 10
300.895041
 20
346.803882
 42
0.103618
  0
VERTEX
  8
0
 10
301.374400
 20
348.440678
 42
0.183008
  0
VERTEX
  8
0
 10
300.985648
 20
349.774446
 42
0.108050
  0
VERTEX
  8
0
 10
299.569584
 20
350.991368
 42
0.025030
  0
VERTEX
  8
0
 10
296.716651
 20
352.350517
 42
-0.036050
  0
VERTEX
  8
0
 10
295.081763
 20
353.174031
 42
-0.022591
  0
VERTEX
  8
0
 10
293.293970
 20
354.355217
 42
-0.022643
  0
VERTEX
  8
0
 10
291.630209
 20
355.685050
 42
-0.037944
  0
VERTEX
  8
0
 10
290.377758
 20
356.962907
 42
0.013603
  0
VERTEX
  8
0
 10
288.498561
 20
359.076716
 42
0.121143
  0
VERTEX
  8
0
 10
287.462448
 20
359.749300
 42
0.179384
  0
VERTEX
  8
0
 10
286.417155
 20
359.728044
 42
0.038041
  0
SEQEND
  0
POLYLINE
  8
0
 66
1
 70
1
  0
VERTEX
  8
0
 10
194.250000
 20
329.258651
 42
0.221969
  0
VERTEX
  8
0
 10
193.438393
 20
328.479776
 42
0.071594
  0
VERTEX
  8
0
 10
193.054984
 20
326.813596
 42
0.066342
  0
VERTEX
  8
0
 10
193.148056
 20
324.925716
 42
0.107455
  0
VERTEX
  8
0
 10
193.765313
 20
323.448660
 42
0.107159
  0
VERTEX
  8
0
 10
194.314415
 20
322.939813
 42
0.014538
  0
VERTEX
  8
0
 10
195.695203
 20
322.176876
 42
0.016197
  0
VERTEX
  8
0
 10
197.410409
 20
321.362414
 42
0.013019
  0
VERTEX
  8
0
 10
199.303464
 20
320.595534
 42
-0.045243
  0
VERTEX
  8
0
 10
202.954378
 20
318.835161
 42
-0.336407
  0
VERTEX
  8
0
 10
203.628711
 20
317.156884
 42
-0.208894
  0
VERTEX
  8
0
 10
202.184023
 20
315.366108
 42
-0.022527
  0
VERTEX
  8
0
 10
197.245487
 20
313.070944
 42
0.027281
  0
VERTEX
  8
0
 10
193.448388
 20
311.262186
 42
0.077356
  0
VERTEX
  8
0
 10
191.125820
 20
309.483684
 42
0.138450
  0
VERTEX
  8
0
 10
190.197515
 20
307.733766
 42
0.193917
  0
VERTEX
  8
0
 10
190.494469
 20
306.008949
 42
0.213323
  0
VERTEX
  8
0
 10
191.719351
 20
305.176568
 42
0.071232
  0
VERTEX
  8
0
 10
193.935273
 20
305.100517
 42
0.050928
  0
VERTEX
  8
0
 10
196.909762
 20
305.733526
 42
0.026261
  0
VERTEX
  8
0
 10
200.469754
 20
307.089645
 42
-0.024649
  0
VERTEX
  8
0
 10
202.713037
 20
307.952473
 42
-0.012804
  0
VERTEX
  8
0
 10
205.586478
 20
308.817116
 42
-0.012700
  0
VERTEX
  8
0
 10
208.589569
 20
309.556114
 42
-0.018869
  0
VERTEX
  8
0
 10
211.254701
 20
310.036002
 42
0.035559
  0
VERTEX
  8
0
 10
216.225504
 20
311.103329
 42
0.171465
  0
VERTEX
  8
0
 10
218.539587
 20
312.763154
 42
0.249463
  0
VERTEX
  8
0
 10
218.818840
 20
315.079085
 42
0.074530
  0
VERTEX
  8
0
 10
216.999305
 20
318.273754
 42
0.088497
  0
VERTEX
  8
0
 10
212.957201
 20
321.874730
 42
0.025347
  0
VERTEX
  8
0
 10
205.567903
 20
325.916612
 42
0.021430
  0
VERTEX
  8
0
 10
197.971030
 20
329.191340
 42
0.174775
  0
SEQEND
  0
POLYLINE
  8
0
 66
1
 70
1
  0
VERTEX
  8
0
 10
317.109540
 20
323.916878
 42
0.010819
  0
VERTEX
  8
0
 10
313.084986
 20
322.204867
 42
0.013451
  0
VERTEX
  8
0
 10
309.424483
 20
320.433306
 42
0.013569
  0
VERTEX
  8
0
 10
305.891122
 20
318.481059
 42
0.011363
  0
VERTEX
  8
0
 10
302.250000
 20
316.225381
 42
0.013633
  0
VERTEX
  8
0
 10
299.304377
 20
314.190112
 42
0.070539
  0
VERTEX
  8
0
 10
297.890558
 20
312.811656
 42
0.108905
  0
VERTEX
  8
0
 10
297.220626
 20
311.389596
 42
0.055885
  0
VERTEX
  8
0
 10
297.000000
 20
309.421814
 42
0.059954
  0
VERTEX
  8
0
 10
297.269785
 20
307.179949
 42
0.210404
  0
VERTEX
  8
0
 10
298.134647
 20
306.052340
 42
0.086103
  0
VERTEX
  8
0
 10
300.073202
 20
305.388397
 42
0.005692
  0
VERTEX
  8
0
 10
305.931550
 20
304.522125
 42
-0.026142
  0
VERTEX
  8
0
 10
308.071293
 20
304.115726
 42
-0.010854
  0
VERTEX
  8
0
 10
310.914604
 20
303.354250
 42
-0.010704
  0
VERTEX
  8
0
 10
313.932075
 20
302.404991
 42
-0.013593
  0
VERTEX
  8
0
 10
316.672111
 20
301.394301
 42
0.015447
  0
VERTEX
  8
0
 10
321.159672
 20
299.757896
 42
0.114329
  0
VERTEX
  8
0
 10
323.411193
 20
299.552195
 42
0.264953
  0
VERTEX
  8
0
 10
324.578060
 20
300.447686
 42
0.099887
  0
VERTEX
  8
0
 10
325.000000
 20
302.538693
 42
0.088271
  0
VERTEX
  8
0
 10
324.775815
 20
303.798663
 42
0.094292
  0
VERTEX
  8
0
 10
324.132349
 20
304.871641
 42
0.067884
  0
VERTEX
  8
0
 10
322.949401
 20
305.882282
 42
0.024931
  0
VERTEX
  8
0
 10
321.039838
 20
306.979676
 42
0.012558
  0
VERTEX
  8
0
 10
319.424775
 20
307.753138
 42
0.014472
  0
VERTEX
  8
0
 10
317.846791
 20
308.406530
 42
0.013616
  0
VERTEX
  8
0
 10
316.486250
 20
308.882304
 42
0.077448
  0
VERTEX
  8
0
 10
315.730968
 20
309.000000
 42
-0.073267
  0
VERTEX
  8
0
 10
315.081214
 20
309.095724
 42
-0.027967
  0
VERTEX
  8
0
 10
314.219324
 20
309.408838
 42
-0.026970
  0
VERTEX
  8
0
 10
313.306663
 20
309.859093
 42
-0.029793
  0
VERTEX
  8
0
 10
312.478876
 20
310.391787
 42
-0.187850
  0
VERTEX
  8
0
 10
311.506589
 20
311.915212
 42
-0.250910
  0
VERTEX
  8
0
 10
311.975181
 20
313.457380
 42
-0.100118
  0
VERTEX
  8
0
 10
314.297866
 20
314.994341
 42
-0.025527
  0
VERTEX
  8
0
 10
318.583764
 20
316.481327
 42
0.012170
  0
VERTEX
  8
0
 10
321.754411
 20
317.487362
 42
0.088995
  0
VERTEX
  8
0
 10
323.140001
 20
318.260783
 42
0.158527
  0
VERTEX
  8
0
 10
323.788520
 20
319.273171
 42
0.063909
  0
VERTEX
  8
0
 10
324.000000
 20
320.920946
 42
0.096089
  0
VERTEX
  8
0
 10
323.549728
 20
323.242315
 42
0.196856
  0
VERTEX
  8
0
 10
322.278801
 20
324.547974
 42
0.148820
  0
VERTEX
  8
0
 10
320.149298
 20
324.793231
 42
0.049982
  0
SEQEND
  0
POLYLINE
  8
0
 66
1
 70
1
  0
VERTEX
  8
0
 10
250.232498
 20
299.490188
 42
0.026419
  0
VERTEX
  8
0
 10
247.697181
 20
296.493005
 42
0.047817
  0
VERTEX
  8
0
 10
246.008981
 20
293.762350
 42
0.062244
  0
VERTEX
  8
0
 10
245.192229
 20
291.407342
 42
0.144982
  0
VERTEX
  8
0
 10
245.337156
 20
289.563770
 42
0.189834
  0
VERTEX
  8
0
 10
246.417871
 20
288.384013
 42
0.146606
  0
VERTEX
  8
0
 10
248.154130
 20
288.098751
 42
0.099054
  0
VERTEX
  8
0
 10
250.338359
 20
288.836571
 42
0.056105
  0
VERTEX
  8
0
 10
252.594501
 20
290.500000
 42
-0.018943
  0
VERTEX
  8
0
 10
254.772386
 20
292.370170
 42
-0.157161
  0
VERTEX
  8
0
 10
255.975971
 20
292.823032
 42
-0.160136
  0
VERTEX
  8
0
 10
257.206377
 20
292.483206
 42
-0.019870
  0
VERTEX
  8
0
 10
259.486707
 20
290.831796
 42
0.076648
  0
VERTEX
  8
0
 10
261.587984
 20
289.646699
 42
0.145030
  0
VERTEX
  8
0
 10
263.510633
 20
289.507117
 42
0.173513
  0
VERTEX
  8
0
 10
264.970550
 20
290.420755
 42
0.118877
  0
VERTEX
  8
0
 10
265.795622
 20
292.213339
 42
0.232068
  0
VERTEX
  8
0
 10
265.283761
 20
294.127099
 42
0.016325
  0
VERTEX
  8
0
 10
261.394963
 20
298.300953
 42
0.017794
  0
VERTEX
  8
0
 10
257.244673
 20
302.186823
 42
0.184182
  0
VERTEX
  8
0
 10
255.085240
 20
302.981547
 42
0.127391
  0
VERTEX
  8
0
 10
254.269204
 20
302.760039
 42
0.026304
  0
VERTEX
  8
0
 10
253.005836
 20
301.948349
 42
0.026074
  0
VERTEX
  8
0
 10
251.599753
 20
300.821027
 42
0.021984
  0
SEQEND
  0
POLYLINE
  8
0
 66
1
 70
1
  0
VERTEX
  8
0
 10
280.606989
 20
232.418213
 42
0.060955
  0
VERTEX
  8
0
 10
280.073669
 20
230.281932
 42
0.063952
  0
VERTEX
  8
0
 10
280.084158
 20
228.115517
 42
0.070672
  0
VERTEX
  8
0
 10
280.614168
 20
226.227523
 42
0.116341
  0
VERTEX
  8
0
 10
281.608213
 20
224.910192
 42
0.042777
  0
VERTEX
  8
0
 10
282.525605
 20
224.272795
 42
0.179145
  0
VERTEX
  8
0
 10
283.177169
 20
224.162833
 42
0.157948
  0
VERTEX
  8
0
 10
283.793638
 20
224.500130
 42
0.031378
  0
VERTEX
  8
0
 10
284.608213
 20
225.478876
 42
0.052545
  0
VERTEX
  8
0
 10
285.562912
 20
227.121901
 42
0.092084
  0
VERTEX
  8
0
 10
285.932126
 20
228.645576
 42
0.089421
  0
VERTEX
  8
0
 10
285.734053
 20
230.231113
 42
0.047222
  0
VERTEX
  8
0
 10
284.964816
 20
232.065741
 42
0.090775
  0
VERTEX
  8
0
 10
283.907000
 20
233.394237
 42
0.160504
  0
VERTEX
  8
0
 10
282.628787
 20
233.933149
 42
0.192178
  0
VERTEX
  8
0
 10
281.443878
 20
233.567887
 42
0.132173
  0
SEQEND
  0
POLYLINE
  8
0
 66
1
 70
1
  0
VERTEX
  8
0
 10
280.818046
 20
194.500000
 42
0.105964
  0
VERTEX
  8
0
 10
280.344542
 20
192.346015
 42
0.066560
  0
VERTEX
  8
0
 10
280.674107
 20
189.778855
 42
0.074111
  0
VERTEX
  8
0
 10
281.579098
 20
187.688382
 42
0.259152
  0
VERTEX
  8
0
 10
282.818046
 20
187.000000
 42
0.262519
  0
VERTEX
  8
0
 10
284.000811
 20
187.666960
 42
0.065205
  0
VERTEX
  8
0
 10
284.928250
 20
189.779594
 42
0.060451
  0
VERTEX
  8
0
 10
285.349752
 20
192.347610
 42
0.101661
  0
VERTEX
  8
0
 10
285.001507
 20
194.496037
 42
0.057888
  0
VERTEX
  8
0
 10
284.049760
 20
196.328783
 42
0.248757
  0
VERTEX
  8
0
 10
282.999485
 20
196.887051
 42
0.236867
  0
VERTEX
  8
0
 10
281.907339
 20
196.340204
 42
0.053524
  0
SEQEND
  0
ENDSEC
  0
EOF
