  0
SECTION
  2
HEADER
  9
$ACADVER
  1
AC1006
  9
$EXTMIN
 10
0.000000
 20
0.000000
 30
0.000000
  9
$EXTMAX
 10
500.000000
 20
500.000000
 30
0.000000
  0
ENDSEC
  0
SECTION
  2
ENTITIES
  0
POLYLINE
  8
0
 66
1
 70
1
  0
VERTEX
  8
0
 10
299.433333
 20
442.500000
 42
-0.007622
  0
VERTEX
  8
0
 10
298.050711
 20
441.158898
 42
-0.011238
  0
VERTEX
  8
0
 10
296.793342
 20
440.028125
 42
-0.006686
  0
VERTEX
  8
0
 10
295.714457
 20
439.125663
 42
-0.172485
  0
VERTEX
  8
0
 10
295.361023
 20
439.000000
 42
-0.145976
  0
VERTEX
  8
0
 10
295.010284
 20
439.104628
 42
-0.008657
  0
VERTEX
  8
0
 10
294.084073
 20
439.734375
 42
-0.012448
  0
VERTEX
  8
0
 10
292.997459
 20
440.542273
 42
-0.008821
  0
VERTEX
  8
0
 10
291.817631
 20
441.500000
 42
0.058744
  0
VERTEX
  8
0
 10
289.181942
 20
443.234942
 42
0.105463
  0
VERTEX
  8
0
 10
286.686212
 20
443.884586
 42
0.110138
  0
VERTEX
  8
0
 10
284.217710
 20
443.448413
 42
0.068164
  0
VERTEX
  8
0
 10
281.666183
 20
441.952060
 42
-0.044236
  0
VERTEX
  8
0
 10
279.900958
 20
440.800322
 42
-0.111836
  0
VERTEX
  8
0
 10
278.430836
 20
440.398290
 42
-0.059378
  0
VERTEX
  8
0
 10
276.422955
 20
440.547992
 42
-0.006170
  0
VERTEX
  8
0
 10
271.781325
 20
441.514899
 42
0.033647
  0
VERTEX
  8
0
 10
262.404857
 20
442.936296
 42
0.012608
  0
VERTEX
  8
0
 10
249.122692
 20
443.707060
 42
0.012659
  0
VERTEX
  8
0
 10
235.771068
 20
443.806326
 42
0.032133
  0
VERTEX
  8
0
 10
226.111013
 20
443.011189
 42
0.015292
  0
VERTEX
  8
0
 10
222.207869
 20
442.313212
 42
0.008895
  0
VERTEX
  8
0
 10
217.568742
 20
441.249836
 42
0.008887
  0
VERTEX
  8
0
 10
212.954163
 20
440.017855
 42
0.014822
  0
VERTEX
  8
0
 10
209.123002
 20
438.797777
 42
0.000000
  0
VERTEX
  8
0
 10
200.746003
 20
435.853850
 42
0.000000
  0
VERTEX
  8
0
 10
197.623002
 20
438.865591
 42
0.074914
  0
VERTEX
  8
0
 10
192.951268
 20
442.184699
 42
0.081683
  0
VERTEX
  8
0
 10
187.643873
 20
443.856540
 42
0.080088
  0
VERTEX
  8
0
 10
181.992888
 20
443.756635
 42
0.068438
  0
VERTEX
  8
0
 10
176.322704
 20
441.914172
 42
0.052597
  0
VERTEX
  8
0
 10
172.957068
 20
439.823087
 42
0.058406
  0
VERTEX
  8
0
 10
170.231726
 20
437.139311
 42
0.055744
  0
VERTEX
  8
0
 10
168.105622
 20
433.785732
 42
0.041662
  0
VERTEX
  8
0
 10
166.520136
 20
429.702632
 42
0.056205
  0
VERTEX
  8
0
 10
165.862933
 20
425.981591
 42
0.064284
  0
VERTEX
  8
0
 10
166.100617
 20
422.378310
 42
0.061319
  0
VERTEX
  8
0
 10
167.267761
 20
418.817561
 42
0.044825
  0
VERTEX
  8
0
 10
169.369225
 20
415.221211
 42
-0.011657
  0
VERTEX
  8
0
 10
170.959642
 20
412.871871
 42
-0.119712
  0
VERTEX
  8
0
 10
171.340760
 20
411.771755
 42
-0.155951
  0
VERTEX
  8
0
 10
171.116948
 20
410.742929
 42
-0.023795
  0
VERTEX
  8
0
 10
169.967652
 20
408.954571
 42
0.065669
  0
VERTEX
  8
0
 10
165.458336
 20
400.451913
 42
0.027765
  0
VERTEX
  8
0
 10
161.621325
 20
388.089895
 42
0.025240
  0
VERTEX
  8
0
 10
158.718413
 20
373.390265
 42
0.020840
  0
VERTEX
  8
0
 10
157.078638
 20
357.500000
 42
-0.005438
  0
VERTEX
  8
0
 10
156.670723
 20
351.846729
 42
-0.006171
  0
VERTEX
  8
0
 10
156.153948
 20
346.437500
 42
-0.005653
  0
VERTEX
  8
0
 10
155.606713
 20
341.856448
 42
-0.033790
  0
VERTEX
  8
0
 10
155.134552
 20
339.500000
 42
0.053023
  0
VERTEX
  8
0
 10
154.062325
 20
332.828622
 42
0.055534
  0
VERTEX
  8
0
 10
154.444926
 20
326.187085
 42
0.057255
  0
VERTEX
  8
0
 10
156.250127
 20
319.976768
 42
0.063670
  0
VERTEX
  8
0
 10
159.374448
 20
314.575720
 42
0.000000
  0
VERTEX
  8
0
 10
161.983175
 20
311.155502
 42
0.000000
  0
VERTEX
  8
0
 10
154.703292
 20
311.706078
 42
0.012238
  0
VERTEX
  8
0
 10
150.654483
 20
311.912793
 42
0.040740
  0
VERTEX
  8
0
 10
147.997063
 20
311.766759
 42
0.052318
  0
VERTEX
  8
0
 10
145.767990
 20
311.219203
 42
0.031593
  0
VERTEX
  8
0
 10
143.269636
 20
310.137558
 42
0.055602
  0
VERTEX
  8
0
 10
139.605750
 20
307.722225
 42
0.057958
  0
VERTEX
  8
0
 10
136.621078
 20
304.588771
 42
0.056447
  0
VERTEX
  8
0
 10
134.374147
 20
300.775974
 42
0.048261
  0
VERTEX
  8
0
 10
132.891974
 20
296.352350
 42
0.020876
  0
VERTEX
  8
0
 10
132.357652
 20
293.498859
 42
0.048469
  0
VERTEX
  8
0
 10
132.256558
 20
291.326314
 42
0.047802
  0
VERTEX
  8
0
 10
132.575343
 20
289.156821
 42
0.019816
  0
VERTEX
  8
0
 10
133.398379
 20
286.305951
 42
0.025369
  0
VERTEX
  8
0
 10
134.210234
 20
284.221516
 42
0.021503
  0
VERTEX
  8
0
 10
135.270611
 20
282.108626
 42
0.022054
  0
VERTEX
  8
0
 10
136.406230
 20
280.265643
 42
0.055124
  0
VERTEX
  8
0
 10
137.431125
 20
279.064705
 42
0.000000
  0
VERTEX
  8
0
 10
139.796931
 20
276.842146
 42
0.000000
  0
VERTEX
  8
0
 10
136.483458
 20
269.670568
 42
0.026463
  0
VERTEX
  8
0
 10
132.963945
 20
260.856259
 42
0.030148
  0
VERTEX
  8
0
 10
130.569263
 20
252.091490
 42
0.027575
  0
VERTEX
  8
0
 10
129.101585
 20
242.464753
 42
0.016885
  0
VERTEX
  8
0
 10
128.385354
 20
231.000000
 42
-0.004898
  0
VERTEX
  8
0
 10
128.145223
 20
224.752921
 42
-0.003817
  0
VERTEX
  8
0
 10
127.765942
 20
217.968750
 42
-0.003859
  0
VERTEX
  8
0
 10
127.315469
 20
211.652659
 42
-0.009361
  0
VERTEX
  8
0
 10
126.859732
 20
207.000000
 42
0.030997
  0
VERTEX
  8
0
 10
126.423083
 20
198.979453
 42
0.045713
  0
VERTEX
  8
0
 10
127.119262
 20
191.966658
 42
0.050732
  0
VERTEX
  8
0
 10
128.978060
 20
185.775861
 42
0.053917
  0
VERTEX
  8
0
 10
132.018554
 20
180.220764
 42
-0.025678
  0
VERTEX
  8
0
 10
133.433959
 20
177.948941
 42
-0.043975
  0
VERTEX
  8
0
 10
134.339672
 20
175.909529
 42
-0.047183
  0
VERTEX
  8
0
 10
134.834927
 20
173.847849
 42
-0.035379
  0
VERTEX
  8
0
 10
135.000000
 20
171.517817
 42
0.023234
  0
VERTEX
  8
0
 10
135.088272
 20
169.619205
 42
0.018147
  0
VERTEX
  8
0
 10
135.354281
 20
167.571937
 42
0.018489
  0
VERTEX
  8
0
 10
135.742566
 20
165.680507
 42
0.041938
  0
VERTEX
  8
0
 10
136.206061
 20
164.297053
 42
0.049980
  0
VERTEX
  8
0
 10
139.027331
 20
159.217335
 42
0.022266
  0
VERTEX
  8
0
 10
143.673701
 20
153.122820
 42
0.022314
  0
VERTEX
  8
0
 10
148.941882
 20
147.359289
 42
0.041490
  0
VERTEX
  8
0
 10
153.770437
 20
143.269768
 42
-0.013668
  0
VERTEX
  8
0
 10
156.390603
 20
141.289789
 42
-0.028991
  0
VERTEX
  8
0
 10
158.280989
 20
139.589795
 42
-0.033483
  0
VERTEX
  8
0
 10
159.479608
 20
138.205035
 42
-0.258789
  0
VERTEX
  8
0
 10
159.594957
 20
137.386858
 42
0.045240
  0
VERTEX
  8
0
 10
158.847463
 20
134.747562
 42
0.000535
  0
VERTEX
  8
0
 10
155.544224
 20
117.047510
 42
0.001383
  0
VERTEX
  8
0
 10
152.525708
 20
100.521716
 42
0.012804
  0
VERTEX
  8
0
 10
151.422918
 20
93.336376
 42
0.011578
  0
VERTEX
  8
0
 10
151.087102
 20
90.104214
 42
0.101649
  0
VERTEX
  8
0
 10
151.261623
 20
88.683537
 42
0.155531
  0
VERTEX
  8
0
 10
151.968943
 20
87.720369
 42
0.037902
  0
VERTEX
  8
0
 10
153.667183
 20
86.672107
 42
0.024797
  0
VERTEX
  8
0
 10
155.035038
 20
86.048641
 42
0.013608
  0
VERTEX
  8
0
 10
156.764162
 20
85.415765
 42
0.013536
  0
VERTEX
  8
0
 10
158.558434
 20
84.867448
 42
0.021019
  0
VERTEX
  8
0
 10
160.135043
 20
84.502488
 42
-0.045852
  0
VERTEX
  8
0
 10
162.156767
 20
83.927506
 42
-0.107597
  0
VERTEX
  8
0
 10
163.460747
 20
83.067399
 42
-0.078521
  0
VERTEX
  8
0
 10
164.524083
 20
81.567224
 42
-0.016744
  0
VERTEX
  8
0
 10
165.850488
 20
78.647432
 42
-0.017499
  0
VERTEX
  8
0
 10
166.674949
 20
76.443228
 42
-0.015765
  0
VERTEX
  8
0
 10
167.375032
 20
74.109187
 42
-0.016017
  0
VERTEX
  8
0
 10
167.869417
 20
71.977055
 42
-0.047147
  0
VERTEX
  8
0
 10
168.021962
 20
70.480674
 42
0.073348
  0
VERTEX
  8
0
 10
168.621839
 20
66.611159
 42
0.054399
  0
VERTEX
  8
0
 10
170.344836
 20
62.635224
 42
0.053428
  0
VERTEX
  8
0
 10
172.929354
 20
59.048266
 42
0.063853
  0
VERTEX
  8
0
 10
176.080553
 20
56.327995
 42
0.026887
  0
VERTEX
  8
0
 10
178.534793
 20
54.887236
 42
0.053598
  0
VERTEX
  8
0
 10
180.632346
 20
54.073704
 42
0.049420
  0
VERTEX
  8
0
 10
182.963672
 20
53.687582
 42
0.019742
  0
VERTEX
  8
0
 10
186.203554
 20
53.603671
 42
0.062811
  0
VERTEX
  8
0
 10
191.544289
 20
54.351082
 42
0.077909
  0
VERTEX
  8
0
 10
196.121168
 20
56.395001
 42
0.076184
  0
VERTEX
  8
0
 10
199.928088
 20
59.785323
 42
0.056923
  0
VERTEX
  8
0
 10
203.000000
 20
64.500576
 42
0.000000
  0
VERTEX
  8
0
 10
205.500000
 20
69.500000
 42
0.000000
  0
VERTEX
  8
0
 10
220.647991
 20
69.224504
 42
0.000000
  0
VERTEX
  8
0
 10
235.795982
 20
68.949007
 42
0.000000
  0
VERTEX
  8
0
 10
236.464480
 20
66.285498
 42
0.072572
  0
VERTEX
  8
0
 10
238.326570
 20
61.765692
 42
0.066944
  0
VERTEX
  8
0
 10
241.443898
 20
57.825864
 42
0.065903
  0
VERTEX
  8
0
 10
245.542593
 20
54.798861
 42
0.066425
  0
VERTEX
  8
0
 10
250.277018
 20
52.952482
 42
0.094879
  0
VERTEX
  8
0
 10
258.678148
 20
52.532071
 42
0.120815
  0
VERTEX
  8
0
 10
265.861852
 20
55.398463
 42
0.117944
  0
VERTEX
  8
0
 10
271.022937
 20
61.332157
 42
0.087583
  0
VERTEX
  8
0
 10
273.652184
 20
69.644452
 42
-0.029842
  0
VERTEX
  8
0
 10
274.111760
 20
72.017499
 42
-0.041740
  0
VERTEX
  8
0
 10
274.820450
 20
74.057233
 42
-0.044343
  0
VERTEX
  8
0
 10
275.817496
 20
75.854643
 42
-0.040962
  0
VERTEX
  8
0
 10
277.139786
 20
77.500000
 42
0.006339
  0
VERTEX
  8
0
 10
278.321147
 20
78.777901
 42
0.005626
  0
VERTEX
  8
0
 10
279.518347
 20
80.136772
 42
0.005655
  0
VERTEX
  8
0
 10
280.568332
 20
81.384192
 42
0.017207
  0
VERTEX
  8
0
 10
281.242266
 20
82.263479
 42
-0.111078
  0
VERTEX
  8
0
 10
282.130562
 20
83.058446
 42
-0.036056
  0
VERTEX
  8
0
 10
283.737255
 20
83.808341
 42
-0.030938
  0
VERTEX
  8
0
 10
285.846188
 20
84.467054
 42
-0.019962
  0
VERTEX
  8
0
 10
288.354948
 20
84.978133
 42
0.054713
  0
VERTEX
  8
0
 10
294.432332
 20
86.662494
 42
0.254776
  0
VERTEX
  8
0
 10
296.673821
 20
89.366332
 42
0.107631
  0
VERTEX
  8
0
 10
296.567527
 20
94.380146
 42
0.007045
  0
VERTEX
  8
0
 10
292.961460
 20
108.518942
 42
-0.003183
  0
VERTEX
  8
0
 10
290.149383
 20
119.199483
 42
-0.070575
  0
VERTEX
  8
0
 10
289.797085
 20
122.384480
 42
-0.198682
  0
VERTEX
  8
0
 10
290.694465
 20
124.377831
 42
-0.053563
  0
VERTEX
  8
0
 10
293.515082
 20
126.515444
 42
0.271005
  0
VERTEX
  8
0
 10
294.610717
 20
128.520919
 42
0.075316
  0
VERTEX
  8
0
 10
293.944827
 20
132.187957
 42
0.051901
  0
VERTEX
  8
0
 10
291.726506
 20
136.978192
 42
0.027633
  0
VERTEX
  8
0
 10
288.073683
 20
142.402652
 42
0.000000
  0
VERTEX
  8
0
 10
283.222753
 20
148.811617
 42
0.000000
  0
VERTEX
  8
0
 10
287.111377
 20
152.608756
 42
0.022949
  0
VERTEX
  8
0
 10
288.599927
 20
154.202093
 42
0.026711
  0
VERTEX
  8
0
 10
289.857717
 20
155.849403
 42
0.027201
  0
VERTEX
  8
0
 10
290.756374
 20
157.334025
 42
0.123098
  0
VERTEX
  8
0
 10
291.000000
 20
158.308592
 42
-0.092867
  0
VERTEX
  8
0
 10
291.176656
 20
159.251515
 42
-0.028459
  0
VERTEX
  8
0
 10
291.779795
 20
160.576026
 42
-0.027394
  0
VERTEX
  8
0
 10
292.638629
 20
162.012081
 42
-0.026853
  0
VERTEX
  8
0
 10
293.654621
 20
163.355644
 42
0.037280
  0
VERTEX
  8
0
 10
295.941793
 20
166.514932
 42
0.027422
  0
VERTEX
  8
0
 10
298.004350
 20
170.315076
 42
0.027451
  0
VERTEX
  8
0
 10
299.511797
 20
174.008070
 42
0.080848
  0
VERTEX
  8
0
 10
299.978038
 20
176.702947
 42
-0.068005
  0
VERTEX
  8
0
 10
300.382449
 20
179.457596
 42
-0.075373
  0
VERTEX
  8
0
 10
301.508245
 20
181.899234
 42
-0.079405
  0
VERTEX
  8
0
 10
303.245062
 20
183.797662
 42
-0.088372
  0
VERTEX
  8
0
 10
305.427963
 20
184.976226
 42
0.032275
  0
VERTEX
  8
0
 10
306.982297
 20
185.603007
 42
0.010836
  0
VERTEX
  8
0
 10
309.165433
 20
186.710601
 42
0.010730
  0
VERTEX
  8
0
 10
311.534447
 20
188.043936
 42
0.012072
  0
VERTEX
  8
0
 10
313.751323
 20
189.428370
 42
0.000000
  0
VERTEX
  8
0
 10
318.941390
 20
192.846434
 42
0.000000
  0
VERTEX
  8
0
 10
325.720695
 20
189.476010
 42
0.005148
  0
VERTEX
  8
0
 10
328.473448
 20
188.142610
 42
0.005851
  0
VERTEX
  8
0
 10
331.138563
 20
186.923294
 42
0.005348
  0
VERTEX
  8
0
 10
333.423508
 20
185.939185
 42
0.032245
  0
VERTEX
  8
0
 10
334.644628
 20
185.518849
 42
0.140764
  0
VERTEX
  8
0
 10
336.640942
 20
185.544087
 42
0.132048
  0
VERTEX
  8
0
 10
338.376806
 20
186.620116
 42
0.097759
  0
VERTEX
  8
0
 10
339.707256
 20
188.749730
 42
0.051125
  0
VERTEX
  8
0
 10
340.518333
 20
191.782146
 42
-0.005460
  0
VERTEX
  8
0
 10
341.320267
 20
196.450784
 42
-0.042383
  0
VERTEX
  8
0
 10
341.900679
 20
198.583219
 42
-0.114191
  0
VERTEX
  8
0
 10
342.576132
 20
199.619016
 42
-0.193757
  0
VERTEX
  8
0
 10
343.522369
 20
200.000000
 42
0.146414
  0
VERTEX
  8
0
 10
344.365978
 20
200.252445
 42
0.015174
  0
VERTEX
  8
0
 10
346.081326
 20
201.456116
 42
0.017840
  0
VERTEX
  8
0
 10
348.071438
 20
203.058514
 42
0.013360
  0
VERTEX
  8
0
 10
350.149424
 20
204.956990
 42
-0.010547
  0
VERTEX
  8
0
 10
352.896552
 20
207.495297
 42
-0.050390
  0
VERTEX
  8
0
 10
354.627212
 20
208.741632
 42
-0.101089
  0
VERTEX
  8
0
 10
355.923622
 20
209.174034
 42
-0.154164
  0
VERTEX
  8
0
 10
357.080365
 20
208.956990
 42
0.070362
  0
VERTEX
  8
0
 10
358.091664
 20
208.586800
 42
0.017755
  0
VERTEX
  8
0
 10
359.821517
 20
208.281116
 42
0.017763
  0
VERTEX
  8
0
 10
361.843159
 20
208.070356
 42
0.017090
  0
VERTEX
  8
0
 10
363.900925
 20
208.000000
 42
0.023240
  0
VERTEX
  8
0
 10
366.783042
 20
208.134032
 42
0.073232
  0
VERTEX
  8
0
 10
368.658226
 20
208.591223
 42
0.074986
  0
VERTEX
  8
0
 10
370.297819
 20
209.563022
 42
0.025172
  0
VERTEX
  8
0
 10
372.367676
 20
211.434343
 42
0.099636
  0
VERTEX
  8
0
 10
375.698244
 20
216.443429
 42
0.104970
  0
VERTEX
  8
0
 10
376.750077
 20
222.256957
 42
0.106332
  0
VERTEX
  8
0
 10
375.347695
 20
227.937125
 42
0.104723
  0
VERTEX
  8
0
 10
371.729445
 20
232.574203
 42
0.032360
  0
VERTEX
  8
0
 10
369.829479
 20
233.973541
 42
0.077767
  0
VERTEX
  8
0
 10
368.234245
 20
234.676173
 42
0.066636
  0
VERTEX
  8
0
 10
366.353609
 20
234.915529
 42
0.019067
  0
VERTEX
  8
0
 10
363.410871
 20
234.784166
 42
0.000000
  0
VERTEX
  8
0
 10
358.229349
 20
234.354474
 42
0.000000
  0
VERTEX
  8
0
 10
356.584896
 20
240.269246
 42
0.013840
  0
VERTEX
  8
0
 10
355.780913
 20
242.878897
 42
0.009095
  0
VERTEX
  8
0
 10
354.718491
 20
245.837824
 42
0.009152
  0
VERTEX
  8
0
 10
353.578312
 20
248.682433
 42
0.017378
  0
VERTEX
  8
0
 10
352.540408
 20
250.920258
 42
-0.029956
  0
VERTEX
  8
0
 10
351.438856
 20
253.460758
 42
-0.008845
  0
VERTEX
  8
0
 10
350.057465
 20
257.473493
 42
-0.008845
  0
VERTEX
  8
0
 10
348.661160
 20
262.049449
 42
-0.009413
  0
VERTEX
  8
0
 10
347.458098
 20
266.578250
 42
0.009725
  0
VERTEX
  8
0
 10
344.879357
 20
276.261303
 42
0.015529
  0
VERTEX
  8
0
 10
342.261142
 20
284.412966
 42
0.017850
  0
VERTEX
  8
0
 10
339.475737
 20
291.436988
 42
0.022794
  0
VERTEX
  8
0
 10
336.392109
 20
297.679578
 42
-0.004745
  0
VERTEX
  8
0
 10
334.269723
 20
301.612120
 42
-0.070776
  0
VERTEX
  8
0
 10
333.744105
 20
303.078900
 42
-0.255630
  0
VERTEX
  8
0
 10
333.996485
 20
303.901280
 42
-0.116817
  0
VERTEX
  8
0
 10
334.990441
 20
304.496966
 42
0.185511
  0
VERTEX
  8
0
 10
336.454675
 20
305.667014
 42
0.141088
  0
VERTEX
  8
0
 10
336.966108
 20
307.674679
 42
0.108587
  0
VERTEX
  8
0
 10
336.356674
 20
310.089419
 42
0.083236
  0
VERTEX
  8
0
 10
334.749458
 20
312.295455
 42
0.011499
  0
VERTEX
  8
0
 10
333.621488
 20
313.350652
 42
0.004666
  0
VERTEX
  8
0
 10
332.039160
 20
314.737754
 42
0.004614
  0
VERTEX
  8
0
 10
330.308966
 20
316.198592
 42
0.005855
  0
VERTEX
  8
0
 10
328.683245
 20
317.513922
 42
0.000000
  0
VERTEX
  8
0
 10
324.867572
 20
320.527843
 42
0.000000
  0
VERTEX
  8
0
 10
327.846055
 20
326.531010
 42
0.026715
  0
VERTEX
  8
0
 10
331.164365
 20
334.225760
 42
0.040554
  0
VERTEX
  8
0
 10
333.125163
 20
341.237866
 42
0.035028
  0
VERTEX
  8
0
 10
334.096421
 20
349.187481
 42
0.014585
  0
VERTEX
  8
0
 10
334.338436
 20
360.000000
 42
0.006217
  0
VERTEX
  8
0
 10
334.183169
 20
368.076927
 42
0.019731
  0
VERTEX
  8
0
 10
333.799295
 20
373.465988
 42
0.025008
  0
VERTEX
  8
0
 10
333.051059
 20
378.085586
 42
0.015921
  0
VERTEX
  8
0
 10
331.743454
 20
383.373450
 42
-0.004019
  0
VERTEX
  8
0
 10
330.182549
 20
389.097427
 42
-0.050186
  0
VERTEX
  8
0
 10
329.829500
 20
391.314751
 42
-0.131005
  0
VERTEX
  8
0
 10
330.121226
 20
392.732637
 42
-0.080663
  0
VERTEX
  8
0
 10
331.123450
 20
394.123450
 42
0.041924
  0
VERTEX
  8
0
 10
332.400201
 20
395.634353
 42
0.122519
  0
VERTEX
  8
0
 10
332.895039
 20
396.895266
 42
0.118247
  0
VERTEX
  8
0
 10
332.749980
 20
398.268423
 42
0.037705
  0
VERTEX
  8
0
 10
331.913742
 20
400.161174
 42
-0.048587
  0
VERTEX
  8
0
 10
331.449356
 20
401.277249
 42
-0.148043
  0
VERTEX
  8
0
 10
331.446717
 20
402.089397
 42
-0.132377
  0
VERTEX
  8
0
 10
331.899873
 20
402.822045
 42
-0.035674
  0
VERTEX
  8
0
 10
332.969936
 20
403.691496
 42
0.145731
  0
VERTEX
  8
0
 10
334.613404
 20
405.764385
 42
0.135203
  0
VERTEX
  8
0
 10
334.917504
 20
408.464342
 42
0.124538
  0
VERTEX
  8
0
 10
333.785280
 20
411.109665
 42
0.114216
  0
VERTEX
  8
0
 10
331.500000
 20
413.000146
 42
-0.023756
  0
VERTEX
  8
0
 10
329.701345
 20
414.009051
 42
-0.167820
  0
VERTEX
  8
0
 10
329.080648
 20
414.777298
 42
-0.151602
  0
VERTEX
  8
0
 10
329.033207
 20
415.805443
 42
-0.018349
  0
VERTEX
  8
0
 10
329.691713
 20
418.000146
 42
0.123139
  0
VERTEX
  8
0
 10
330.267640
 20
424.910968
 42
0.087731
  0
VERTEX
  8
0
 10
327.688674
 20
432.273794
 42
0.087083
  0
VERTEX
  8
0
 10
322.715720
 20
438.352765
 42
0.118422
  0
VERTEX
  8
0
 10
316.439005
 20
441.586001
 42
-0.032562
  0
VERTEX
  8
0
 10
315.140338
 20
441.994885
 42
-0.019772
  0
VERTEX
  8
0
 10
313.662781
 20
442.636487
 42
-0.019776
  0
VERTEX
  8
0
 10
312.241306
 20
443.392404
 42
-0.032715
  0
VERTEX
  8
0
 10
311.115141
 20
444.152491
 42
0.085553
  0
VERTEX
  8
0
 10
308.267733
 20
445.665497
 42
0.115068
  0
VERTEX
  8
0
 10
305.368830
 20
445.923022
 42
0.103138
  0
VERTEX
  8
0
 10
302.421735
 20
444.860339
 42
0.058510
  0
SEQEND
  0
POLYLINE
  8
0
 66
1
 70
1
  0
VERTEX
  8
0
 10
308.902401
 20
440.617600
 42
-0.081509
  0
VERTEX
  8
0
 10
309.331572
 20
439.885234
 42
-0.035027
  0
VERTEX
  8
0
 10
309.664497
 20
438.798923
 42
-0.033475
  0
VERTEX
  8
0
 10
309.863864
 20
437.566937
 42
-0.037678
  0
VERTEX
  8
0
 10
309.885683
 20
436.367600
 42
0.049125
  0
VERTEX
  8
0
 10
309.939666
 20
435.052953
 42
0.026532
  0
VERTEX
  8
0
 10
310.249546
 20
433.461108
 42
0.026168
  0
VERTEX
  8
0
 10
310.741215
 20
431.858279
 42
0.037147
  0
VERTEX
  8
0
 10
311.354677
 20
430.500000
 42
-0.055197
  0
VERTEX
  8
0
 10
312.567248
 20
427.534944
 42
-0.079817
  0
VERTEX
  8
0
 10
312.901671
 20
424.728989
 42
-0.084934
  0
VERTEX
  8
0
 10
312.338763
 20
422.089722
 42
-0.071854
  0
VERTEX
  8
0
 10
310.911704
 20
419.614879
 42
-0.062600
  0
VERTEX
  8
0
 10
308.197776
 20
416.934155
 42
-0.070765
  0
VERTEX
  8
0
 10
305.009107
 20
415.138331
 42
-0.060245
  0
VERTEX
  8
0
 10
301.029934
 20
414.116882
 42
-0.031177
  0
VERTEX
  8
0
 10
295.900058
 20
413.764448
 42
-0.030563
  0
VERTEX
  8
0
 10
290.732797
 20
414.048144
 42
-0.084311
  0
VERTEX
  8
0
 10
287.244513
 20
415.067019
 42
-0.108577
  0
VERTEX
  8
0
 10
284.807446
 20
416.992685
 42
-0.073401
  0
VERTEX
  8
0
 10
282.982276
 20
420.042790
 42
-0.033240
  0
VERTEX
  8
0
 10
282.352483
 20
421.904250
 42
-0.070628
  0
VERTEX
  8
0
 10
282.172667
 20
423.411167
 42
-0.061114
  0
VERTEX
  8
0
 10
282.409757
 20
425.042419
 42
-0.019840
  0
VERTEX
  8
0
 10
283.145382
 20
427.370253
 42
0.023112
  0
VERTEX
  8
0
 10
283.789872
 20
429.457116
 42
0.045098
  0
VERTEX
  8
0
 10
284.072592
 20
431.174200
 42
0.053745
  0
VERTEX
  8
0
 10
284.020190
 20
432.699795
 42
0.052652
  0
VERTEX
  8
0
 10
283.644483
 20
434.190253
 42
-0.144067
  0
VERTEX
  8
0
 10
283.427731
 20
437.470952
 42
-0.234798
  0
VERTEX
  8
0
 10
285.148503
 20
439.592657
 42
-0.215851
  0
VERTEX
  8
0
 10
288.023327
 20
439.601125
 42
-0.130483
  0
VERTEX
  8
0
 10
290.714884
 20
437.416846
 42
0.037263
  0
VERTEX
  8
0
 10
291.888671
 20
436.034693
 42
0.117623
  0
VERTEX
  8
0
 10
292.912666
 20
435.395438
 42
0.102866
  0
VERTEX
  8
0
 10
294.195332
 20
435.242211
 42
0.024838
  0
VERTEX
  8
0
 10
296.325388
 20
435.533220
 42
0.037840
  0
VERTEX
  8
0
 10
297.948119
 20
435.966797
 42
0.047993
  0
VERTEX
  8
0
 10
299.355943
 20
436.616972
 42
0.054187
  0
VERTEX
  8
0
 10
300.460581
 20
437.433992
 42
0.085546
  0
VERTEX
  8
0
 10
301.176802
 20
438.366375
 42
-0.078010
  0
VERTEX
  8
0
 10
302.882006
 20
440.656391
 42
-0.123495
  0
VERTEX
  8
0
 10
304.983114
 20
441.885472
 42
-0.152036
  0
VERTEX
  8
0
 10
307.101796
 20
441.846879
 42
-0.140437
  0
SEQEND
  0
POLYLINE
  8
0
 66
1
 70
1
  0
VERTEX
  8
0
 10
267.500000
 20
438.325977
 42
-0.010002
  0
VERTEX
  8
0
 10
271.738091
 20
437.558209
 42
-0.018379
  0
VERTEX
  8
0
 10
275.147507
 20
436.738409
 42
-0.018552
  0
VERTEX
  8
0
 10
277.707313
 20
435.918925
 42
-0.137156
  0
VERTEX
  8
0
 10
278.740434
 20
435.182091
 42
-0.110772
  0
VERTEX
  8
0
 10
279.269454
 20
434.108950
 42
-0.040286
  0
VERTEX
  8
0
 10
279.535917
 20
432.423861
 42
-0.029741
  0
VERTEX
  8
0
 10
279.574802
 20
430.114756
 42
-0.012513
  0
VERTEX
  8
0
 10
279.364799
 20
427.015244
 42
0.054341
  0
VERTEX
  8
0
 10
279.475413
 20
420.059192
 42
0.129119
  0
VERTEX
  8
0
 10
281.386179
 20
415.293140
 42
0.129173
  0
VERTEX
  8
0
 10
285.391527
 20
412.082144
 42
0.054408
  0
VERTEX
  8
0
 10
292.013016
 20
409.960153
 42
-0.019908
  0
VERTEX
  8
0
 10
294.304050
 20
409.396509
 42
-0.017388
  0
VERTEX
  8
0
 10
296.650406
 20
408.629839
 42
-0.017734
  0
VERTEX
  8
0
 10
298.723156
 20
407.787381
 42
-0.048547
  0
VERTEX
  8
0
 10
300.094748
 20
407.004730
 42
0.057881
  0
VERTEX
  8
0
 10
303.001451
 20
405.417102
 42
0.018293
  0
VERTEX
  8
0
 10
307.658718
 20
403.729180
 42
0.018214
  0
VERTEX
  8
0
 10
312.418120
 20
402.387878
 42
0.059639
  0
VERTEX
  8
0
 10
315.658448
 20
402.000000
 42
-0.086715
  0
VERTEX
  8
0
 10
316.726824
 20
401.813307
 42
-0.064069
  0
VERTEX
  8
0
 10
317.796693
 20
401.264509
 42
-0.057471
  0
VERTEX
  8
0
 10
318.797778
 20
400.392247
 42
-0.045918
  0
VERTEX
  8
0
 10
319.661565
 20
399.250000
 42
0.010285
  0
VERTEX
  8
0
 10
320.440629
 20
398.051155
 42
0.007024
  0
VERTEX
  8
0
 10
321.372533
 20
396.720313
 42
0.007082
  0
VERTEX
  8
0
 10
322.307583
 20
395.462071
 42
0.014174
  0
VERTEX
  8
0
 10
323.088132
 20
394.500000
 42
-0.090737
  0
VERTEX
  8
0
 10
325.077883
 20
391.096051
 42
-0.019898
  0
VERTEX
  8
0
 10
327.142928
 20
384.609361
 42
-0.020181
  0
VERTEX
  8
0
 10
328.947071
 20
376.836102
 42
-0.018621
  0
VERTEX
  8
0
 10
330.175783
 20
368.731637
 42
-0.039079
  0
VERTEX
  8
0
 10
330.645094
 20
355.368934
 42
-0.041303
  0
VERTEX
  8
0
 10
329.001276
 20
342.347072
 42
-0.044621
  0
VERTEX
  8
0
 10
325.491323
 20
330.891386
 42
-0.075136
  0
VERTEX
  8
0
 10
320.363144
 20
322.267681
 42
-0.058742
  0
VERTEX
  8
0
 10
314.483033
 20
316.600356
 42
-0.064571
  0
VERTEX
  8
0
 10
307.621312
 20
312.665582
 42
-0.068726
  0
VERTEX
  8
0
 10
300.384629
 20
310.783329
 42
-0.083608
  0
VERTEX
  8
0
 10
293.398311
 20
311.130151
 42
0.040865
  0
VERTEX
  8
0
 10
287.001162
 20
311.997390
 42
0.044394
  0
VERTEX
  8
0
 10
280.726387
 20
311.773478
 42
0.047076
  0
VERTEX
  8
0
 10
274.947882
 20
310.490502
 42
0.060978
  0
VERTEX
  8
0
 10
270.027253
 20
308.207722
 42
-0.016018
  0
VERTEX
  8
0
 10
267.145019
 20
306.541577
 42
-0.052784
  0
VERTEX
  8
0
 10
265.114141
 20
305.714743
 42
-0.068334
  0
VERTEX
  8
0
 10
263.252570
 20
305.443453
 42
-0.041729
  0
VERTEX
  8
0
 10
261.034605
 20
305.610457
 42
0.034718
  0
VERTEX
  8
0
 10
259.320578
 20
305.763680
 42
0.022542
  0
VERTEX
  8
0
 10
257.331203
 20
305.713281
 42
0.022670
  0
VERTEX
  8
0
 10
255.383886
 20
305.486892
 42
0.039447
  0
VERTEX
  8
0
 10
253.804807
 20
305.100595
 42
-0.050091
  0
VERTEX
  8
0
 10
251.691902
 20
304.631047
 42
-0.049824
  0
VERTEX
  8
0
 10
249.523942
 20
304.589827
 42
-0.033311
  0
VERTEX
  8
0
 10
246.739932
 20
305.002480
 42
-0.009304
  0
VERTEX
  8
0
 10
242.452230
 20
306.017075
 42
0.020857
  0
VERTEX
  8
0
 10
232.005041
 20
308.235667
 42
0.024777
  0
VERTEX
  8
0
 10
221.992369
 20
309.422697
 42
0.023119
  0
VERTEX
  8
0
 10
211.353894
 20
309.659226
 42
0.014685
  0
VERTEX
  8
0
 10
198.976387
 20
308.998042
 42
-0.011841
  0
VERTEX
  8
0
 10
186.799551
 20
308.278111
 42
-0.040640
  0
VERTEX
  8
0
 10
178.891983
 20
308.641030
 42
-0.060046
  0
VERTEX
  8
0
 10
172.933538
 20
310.143743
 42
-0.058979
  0
VERTEX
  8
0
 10
167.463695
 20
313.024979
 42
-0.085502
  0
VERTEX
  8
0
 10
162.507425
 20
317.862066
 42
-0.082462
  0
VERTEX
  8
0
 10
159.379420
 20
324.137242
 42
-0.078326
  0
VERTEX
  8
0
 10
158.348100
 20
331.374947
 42
-0.066976
  0
VERTEX
  8
0
 10
159.489174
 20
339.000000
 42
0.032550
  0
VERTEX
  8
0
 10
160.164608
 20
342.060386
 42
0.011063
  0
VERTEX
  8
0
 10
160.755452
 20
346.579090
 42
0.010393
  0
VERTEX
  8
0
 10
161.217774
 20
351.873167
 42
0.008726
  0
VERTEX
  8
0
 10
161.492972
 20
357.500000
 42
-0.017255
  0
VERTEX
  8
0
 10
162.389098
 20
371.073533
 42
-0.027447
  0
VERTEX
  8
0
 10
164.189079
 20
382.569660
 42
-0.030640
  0
VERTEX
  8
0
 10
167.040030
 20
392.812984
 42
-0.031199
  0
VERTEX
  8
0
 10
171.107802
 20
402.567413
 42
0.000000
  0
VERTEX
  8
0
 10
174.179213
 20
408.806334
 42
0.000000
  0
VERTEX
  8
0
 10
181.339606
 20
408.666839
 42
0.013060
  0
VERTEX
  8
0
 10
185.418599
 20
408.693922
 42
0.047585
  0
VERTEX
  8
0
 10
187.984098
 20
409.023739
 42
0.059240
  0
VERTEX
  8
0
 10
190.142783
 20
409.790498
 42
0.028664
  0
VERTEX
  8
0
 10
192.694763
 20
411.241347
 42
0.062961
  0
VERTEX
  8
0
 10
196.406597
 20
414.367890
 42
0.052328
  0
VERTEX
  8
0
 10
199.493492
 20
418.509894
 42
0.053098
  0
VERTEX
  8
0
 10
201.611121
 20
423.129617
 42
0.070516
  0
VERTEX
  8
0
 10
202.450838
 20
427.669127
 42
-0.051203
  0
VERTEX
  8
0
 10
202.935972
 20
431.004728
 42
-0.174711
  0
VERTEX
  8
0
 10
204.142578
 20
432.796437
 42
-0.080308
  0
VERTEX
  8
0
 10
206.778607
 20
434.141811
 42
-0.005868
  0
VERTEX
  8
0
 10
214.582081
 20
436.554926
 42
-0.033253
  0
VERTEX
  8
0
 10
226.478639
 20
439.236376
 42
-0.030448
  0
VERTEX
  8
0
 10
238.982623
 20
440.419430
 42
-0.027976
  0
VERTEX
  8
0
 10
252.512171
 20
440.115197
 42
-0.020200
  0
SEQEND
  0
POLYLINE
  8
0
 66
1
 70
1
  0
VERTEX
  8
0
 10
311.500000
 20
408.519105
 42
-0.011818
  0
VERTEX
  8
0
 10
313.671553
 20
407.563920
 42
-0.033836
  0
VERTEX
  8
0
 10
315.113302
 20
406.765636
 42
-0.139249
  0
VERTEX
  8
0
 10
315.531022
 20
406.290096
 42
-0.547511
  0
VERTEX
  8
0
 10
315.364835
 20
406.023735
 42
-0.066177
  0
VERTEX
  8
0
 10
312.363491
 20
406.388816
 42
-0.020812
  0
VERTEX
  8
0
 10
308.026317
 20
407.705900
 42
-0.012841
  0
VERTEX
  8
0
 10
303.868536
 20
409.280985
 42
-0.463643
  0
VERTEX
  8
0
 10
303.588082
 20
410.142520
 42
-0.166665
  0
VERTEX
  8
0
 10
304.320681
 20
410.743386
 42
-0.140670
  0
VERTEX
  8
0
 10
305.325103
 20
410.821009
 42
-0.043388
  0
VERTEX
  8
0
 10
307.102118
 20
410.292468
 42
-0.003734
  0
SEQEND
  0
POLYLINE
  8
0
 66
1
 70
1
  0
VERTEX
  8
0
 10
330.699415
 20
408.633918
 42
-0.235791
  0
VERTEX
  8
0
 10
330.946838
 20
407.892947
 42
-0.288704
  0
VERTEX
  8
0
 10
330.483713
 20
407.346409
 42
-0.096561
  0
VERTEX
  8
0
 10
329.076439
 20
407.186455
 42
-0.034227
  0
VERTEX
  8
0
 10
327.062780
 20
407.486211
 42
-0.027806
  0
VERTEX
  8
0
 10
325.918249
 20
407.805190
 42
-0.050873
  0
VERTEX
  8
0
 10
325.038068
 20
408.207854
 42
-0.077669
  0
VERTEX
  8
0
 10
324.528106
 20
408.625106
 42
-0.332389
  0
VERTEX
  8
0
 10
324.495577
 20
408.992843
 42
-0.238725
  0
VERTEX
  8
0
 10
325.342739
 20
409.510547
 42
-0.034428
  0
VERTEX
  8
0
 10
327.432366
 20
409.533613
 42
-0.036915
  0
VERTEX
  8
0
 10
329.554025
 20
409.252809
 42
-0.146029
  0
SEQEND
  0
POLYLINE
  8
0
 66
1
 70
1
  0
VERTEX
  8
0
 10
327.625714
 20
399.532989
 42
-0.049399
  0
VERTEX
  8
0
 10
328.096894
 20
397.815071
 42
-0.268928
  0
VERTEX
  8
0
 10
327.773262
 20
396.945928
 42
-0.419589
  0
VERTEX
  8
0
 10
327.069386
 20
397.020561
 42
-0.060844
  0
VERTEX
  8
0
 10
326.233632
 20
398.386579
 42
-0.023623
  0
VERTEX
  8
0
 10
325.791663
 20
399.492197
 42
-0.066090
  0
VERTEX
  8
0
 10
325.625323
 20
400.308322
 42
-0.137347
  0
VERTEX
  8
0
 10
325.727373
 20
400.801828
 42
-0.280503
  0
VERTEX
  8
0
 10
326.052824
 20
401.000000
 42
-0.124008
  0
VERTEX
  8
0
 10
326.480792
 20
400.892199
 42
-0.064356
  0
VERTEX
  8
0
 10
326.931463
 20
400.569066
 42
-0.057892
  0
VERTEX
  8
0
 10
327.335306
 20
400.094019
 42
-0.055682
  0
SEQEND
  0
POLYLINE
  8
0
 66
1
 70
1
  0
VERTEX
  8
0
 10
327.116023
 20
313.414831
 42
-0.011112
  0
VERTEX
  8
0
 10
328.987256
 20
311.976156
 42
-0.016181
  0
VERTEX
  8
0
 10
330.565332
 20
310.619671
 42
-0.011674
  0
VERTEX
  8
0
 10
331.790875
 20
309.441399
 42
-0.197955
  0
VERTEX
  8
0
 10
332.000000
 20
308.933883
 42
-0.331566
  0
VERTEX
  8
0
 10
331.238073
 20
307.911215
 42
-0.051227
  0
VERTEX
  8
0
 10
328.594652
 20
307.408874
 42
-0.032491
  0
VERTEX
  8
0
 10
324.338363
 20
307.321735
 42
-0.010305
  0
VERTEX
  8
0
 10
318.000000
 20
307.734940
 42
0.000000
  0
VERTEX
  8
0
 10
308.500000
 20
308.551168
 42
0.000000
  0
VERTEX
  8
0
 10
312.128615
 20
310.331925
 42
0.024179
  0
VERTEX
  8
0
 10
313.685681
 20
311.191821
 42
0.016631
  0
VERTEX
  8
0
 10
315.365686
 20
312.307409
 42
0.016802
  0
VERTEX
  8
0
 10
316.914179
 20
313.492026
 42
0.032503
  0
VERTEX
  8
0
 10
318.052929
 20
314.556341
 42
-0.018883
  0
VERTEX
  8
0
 10
319.000906
 20
315.491976
 42
-0.023631
  0
VERTEX
  8
0
 10
319.950894
 20
316.282175
 42
-0.022845
  0
VERTEX
  8
0
 10
320.790190
 20
316.857475
 42
-0.139702
  0
VERTEX
  8
0
 10
321.290337
 20
317.000000
 42
-0.130196
  0
VERTEX
  8
0
 10
321.872479
 20
316.845802
 42
-0.008451
  0
VERTEX
  8
0
 10
323.390087
 20
315.946857
 42
-0.011852
  0
VERTEX
  8
0
 10
325.176574
 20
314.788183
 42
-0.008538
  0
SEQEND
  0
POLYLINE
  8
0
 66
1
 70
1
  0
VERTEX
  8
0
 10
156.361626
 20
306.500000
 42
-0.121027
  0
VERTEX
  8
0
 10
155.962700
 20
305.925915
 42
-0.064860
  0
VERTEX
  8
0
 10
155.242724
 20
305.440625
 42
-0.058672
  0
VERTEX
  8
0
 10
154.331132
 20
305.111644
 42
-0.057345
  0
VERTEX
  8
0
 10
153.360893
 20
305.000000
 42
0.066818
  0
VERTEX
  8
0
 10
150.660653
 20
304.637530
 42
0.038884
  0
VERTEX
  8
0
 10
147.578266
 20
303.531179
 42
0.038872
  0
VERTEX
  8
0
 10
144.702362
 20
301.959920
 42
0.066442
  0
VERTEX
  8
0
 10
142.631737
 20
300.178596
 42
0.104552
  0
VERTEX
  8
0
 10
140.948738
 20
297.234576
 42
0.062896
  0
VERTEX
  8
0
 10
140.204317
 20
293.264430
 42
0.061587
  0
VERTEX
  8
0
 10
140.466588
 20
289.126085
 42
0.086902
  0
VERTEX
  8
0
 10
141.764434
 20
285.674682
 42
-0.042642
  0
VERTEX
  8
0
 10
143.156273
 20
282.777190
 42
-0.213804
  0
VERTEX
  8
0
 10
143.053237
 20
281.023458
 42
-0.460175
  0
VERTEX
  8
0
 10
141.974893
 20
280.772927
 42
-0.067601
  0
VERTEX
  8
0
 10
140.138461
 20
282.551105
 42
-0.051076
  0
VERTEX
  8
0
 10
137.848377
 20
286.167952
 42
-0.071452
  0
VERTEX
  8
0
 10
136.647542
 20
289.794882
 42
-0.074423
  0
VERTEX
  8
0
 10
136.541983
 20
293.498295
 42
-0.061260
  0
VERTEX
  8
0
 10
137.492099
 20
297.340141
 42
-0.066048
  0
VERTEX
  8
0
 10
139.946793
 20
301.868745
 42
-0.083484
  0
VERTEX
  8
0
 10
143.342867
 20
305.198899
 42
-0.083630
  0
VERTEX
  8
0
 10
147.636230
 20
307.231393
 42
-0.066544
  0
VERTEX
  8
0
 10
152.718615
 20
307.959962
 42
-0.013509
  0
VERTEX
  8
0
 10
154.886385
 20
307.921966
 42
-0.084353
  0
VERTEX
  8
0
 10
155.967157
 20
307.688385
 42
-0.230634
  0
VERTEX
  8
0
 10
156.391686
 20
307.219977
 42
-0.163782
  0
SEQEND
  0
POLYLINE
  8
0
 66
1
 70
1
  0
VERTEX
  8
0
 10
294.306534
 20
306.523037
 42
0.014811
  0
VERTEX
  8
0
 10
297.779165
 20
305.894059
 42
0.005079
  0
VERTEX
  8
0
 10
302.842354
 20
305.183621
 42
0.005043
  0
VERTEX
  8
0
 10
308.447653
 20
304.512502
 42
0.005811
  0
VERTEX
  8
0
 10
313.806534
 20
303.988591
 42
-0.002081
  0
VERTEX
  8
0
 10
318.755182
 20
303.542025
 42
-0.003028
  0
VERTEX
  8
0
 10
323.115536
 20
303.103586
 42
-0.001517
  0
VERTEX
  8
0
 10
326.811333
 20
302.698001
 42
-0.051669
  0
VERTEX
  8
0
 10
327.671887
 20
302.509550
 42
-0.197790
  0
VERTEX
  8
0
 10
330.661716
 20
299.942975
 42
-0.016111
  0
VERTEX
  8
0
 10
335.136040
 20
290.405912
 42
-0.020925
  0
VERTEX
  8
0
 10
339.553460
 20
278.831868
 42
-0.019146
  0
VERTEX
  8
0
 10
343.134952
 20
266.583349
 42
0.006576
  0
VERTEX
  8
0
 10
344.415088
 20
261.758307
 42
0.007207
  0
VERTEX
  8
0
 10
345.785175
 20
257.114605
 42
0.006789
  0
VERTEX
  8
0
 10
347.066788
 20
253.180046
 42
0.035531
  0
VERTEX
  8
0
 10
347.952032
 20
251.083349
 42
-0.046744
  0
VERTEX
  8
0
 10
351.636414
 20
241.781076
 42
-0.041684
  0
VERTEX
  8
0
 10
353.705956
 20
231.591438
 42
-0.044017
  0
VERTEX
  8
0
 10
353.983783
 20
222.040459
 42
-0.089634
  0
VERTEX
  8
0
 10
352.222350
 20
214.769806
 42
-0.054929
  0
VERTEX
  8
0
 10
350.314964
 20
211.486064
 42
-0.038428
  0
VERTEX
  8
0
 10
347.513566
 20
208.245190
 42
-0.036304
  0
VERTEX
  8
0
 10
344.047637
 20
205.274496
 42
-0.035011
  0
VERTEX
  8
0
 10
340.147730
 20
202.796510
 42
0.036115
  0
VERTEX
  8
0
 10
338.423956
 20
201.695889
 42
0.111763
  0
VERTEX
  8
0
 10
337.531599
 20
200.652962
 42
0.097199
  0
VERTEX
  8
0
 10
337.108454
 20
199.241985
 42
0.023506
  0
VERTEX
  8
0
 10
336.984687
 20
196.796510
 42
-0.027341
  0
VERTEX
  8
0
 10
336.721803
 20
192.287264
 42
-0.238355
  0
VERTEX
  8
0
 10
335.653857
 20
190.660357
 42
-0.223860
  0
VERTEX
  8
0
 10
333.658689
 20
190.497428
 42
-0.024254
  0
VERTEX
  8
0
 10
329.302029
 20
192.377911
 42
-0.017341
  0
VERTEX
  8
0
 10
323.608577
 20
195.419514
 42
-0.016642
  0
VERTEX
  8
0
 10
318.059153
 20
198.888014
 42
-0.016767
  0
VERTEX
  8
0
 10
312.795464
 20
202.689086
 42
-0.018341
  0
VERTEX
  8
0
 10
307.958441
 20
206.727274
 42
-0.023200
  0
VERTEX
  8
0
 10
303.522104
 20
211.104585
 42
-0.090807
  0
VERTEX
  8
0
 10
301.471328
 20
214.342530
 42
-0.098959
  0
VERTEX
  8
0
 10
300.791910
 20
217.949267
 42
-0.030414
  0
VERTEX
  8
0
 10
301.191650
 20
223.500000
 42
0.037335
  0
VERTEX
  8
0
 10
301.770796
 20
233.462839
 42
0.019982
  0
VERTEX
  8
0
 10
301.073934
 20
245.777378
 42
0.019888
  0
VERTEX
  8
0
 10
299.435273
 20
257.729030
 42
0.046857
  0
VERTEX
  8
0
 10
297.039944
 20
266.394938
 42
-0.027875
  0
VERTEX
  8
0
 10
296.593473
 20
267.800403
 42
-0.064525
  0
VERTEX
  8
0
 10
296.457916
 20
268.897118
 42
-0.084981
  0
VERTEX
  8
0
 10
296.616872
 20
269.793804
 42
-0.087150
  0
VERTEX
  8
0
 10
297.064595
 20
270.577832
 42
0.185478
  0
VERTEX
  8
0
 10
297.578089
 20
272.097083
 42
0.285178
  0
VERTEX
  8
0
 10
296.821871
 20
273.210891
 42
0.088706
  0
VERTEX
  8
0
 10
294.265014
 20
273.841432
 42
0.016210
  0
VERTEX
  8
0
 10
289.375242
 20
274.000000
 42
-0.016439
  0
VERTEX
  8
0
 10
282.807538
 20
274.215993
 42
-0.129225
  0
VERTEX
  8
0
 10
279.938167
 20
275.175718
 42
-0.200942
  0
VERTEX
  8
0
 10
278.552681
 20
277.225440
 42
-0.049488
  0
VERTEX
  8
0
 10
278.142857
 20
281.355897
 42
0.051858
  0
VERTEX
  8
0
 10
277.667159
 20
285.930141
 42
0.043559
  0
VERTEX
  8
0
 10
276.252555
 20
290.597108
 42
0.044622
  0
VERTEX
  8
0
 10
274.106428
 20
294.816242
 42
0.064305
  0
VERTEX
  8
0
 10
271.449518
 20
298.047426
 42
-0.078311
  0
VERTEX
  8
0
 10
269.441441
 20
300.633177
 42
-0.247475
  0
VERTEX
  8
0
 10
269.401505
 20
302.757186
 42
-0.159826
  0
VERTEX
  8
0
 10
271.291639
 20
304.654997
 42
-0.031936
  0
VERTEX
  8
0
 10
275.740524
 20
306.570688
 42
-0.046425
  0
VERTEX
  8
0
 10
279.567413
 20
307.547732
 42
-0.039960
  0
VERTEX
  8
0
 10
283.708586
 20
307.868526
 42
-0.033431
  0
VERTEX
  8
0
 10
288.494203
 20
307.535854
 42
-0.018142
  0
SEQEND
  0
POLYLINE
  8
0
 66
1
 70
1
  0
VERTEX
  8
0
 10
237.017508
 20
303.448639
 42
-0.005011
  0
VERTEX
  8
0
 10
239.982007
 20
302.751345
 42
-0.006388
  0
VERTEX
  8
0
 10
242.700108
 20
302.046252
 42
-0.005069
  0
VERTEX
  8
0
 10
244.959724
 20
301.404492
 42
-0.052202
  0
VERTEX
  8
0
 10
245.855201
 20
301.035171
 42
-0.158018
  0
VERTEX
  8
0
 10
246.407783
 20
300.455953
 42
-0.040795
  0
VERTEX
  8
0
 10
246.876875
 20
299.235236
 42
-0.036028
  0
VERTEX
  8
0
 10
247.223038
 20
297.637080
 42
-0.025387
  0
VERTEX
  8
0
 10
247.389298
 20
295.805357
 42
0.056191
  0
VERTEX
  8
0
 10
247.976569
 20
291.972068
 42
0.073880
  0
VERTEX
  8
0
 10
249.391188
 20
288.733069
 42
0.065439
  0
VERTEX
  8
0
 10
251.838461
 20
285.767643
 42
0.034053
  0
VERTEX
  8
0
 10
255.567928
 20
282.739012
 42
-0.010847
  0
VERTEX
  8
0
 10
257.266089
 20
281.486034
 42
-0.015922
  0
VERTEX
  8
0
 10
258.698079
 20
280.306065
 42
-0.011233
  0
VERTEX
  8
0
 10
259.814440
 20
279.279511
 42
-0.203964
  0
VERTEX
  8
0
 10
260.000000
 20
278.843551
 42
0.246920
  0
VERTEX
  8
0
 10
260.734066
 20
277.447730
 42
0.022891
  0
VERTEX
  8
0
 10
264.153709
 20
275.319414
 42
0.028446
  0
VERTEX
  8
0
 10
267.862279
 20
273.509350
 42
0.096894
  0
VERTEX
  8
0
 10
270.482135
 20
272.967354
 42
-0.040690
  0
VERTEX
  8
0
 10
272.011908
 20
272.825980
 42
-0.013375
  0
VERTEX
  8
0
 10
274.229127
 20
272.375977
 42
-0.013224
  0
VERTEX
  8
0
 10
276.672909
 20
271.743030
 42
-0.014592
  0
VERTEX
  8
0
 10
279.000000
 20
271.000000
 42
0.015522
  0
VERTEX
  8
0
 10
281.342209
 20
270.256938
 42
0.013594
  0
VERTEX
  8
0
 10
283.831519
 20
269.624023
 42
0.013791
  0
VERTEX
  8
0
 10
286.111601
 20
269.175548
 42
0.039147
  0
VERTEX
  8
0
 10
287.724320
 20
269.032646
 42
-0.143028
  0
VERTEX
  8
0
 10
290.435382
 20
268.211055
 42
-0.123790
  0
VERTEX
  8
0
 10
292.459203
 20
266.021516
 42
-0.065738
  0
VERTEX
  8
0
 10
294.052615
 20
261.894677
 42
-0.015747
  0
VERTEX
  8
0
 10
295.556208
 20
254.688323
 42
-0.029192
  0
VERTEX
  8
0
 10
296.548099
 20
246.163944
 42
-0.011472
  0
VERTEX
  8
0
 10
296.956540
 20
234.339623
 42
-0.006986
  0
VERTEX
  8
0
 10
296.928634
 20
222.637753
 42
-0.119322
  0
VERTEX
  8
0
 10
295.970356
 20
218.944609
 42
-0.066777
  0
VERTEX
  8
0
 10
295.355191
 20
218.091527
 42
-0.027193
  0
VERTEX
  8
0
 10
294.314231
 20
217.105476
 42
-0.026314
  0
VERTEX
  8
0
 10
293.064539
 20
216.152833
 42
-0.030375
  0
VERTEX
  8
0
 10
291.778367
 20
215.385389
 42
0.054489
  0
VERTEX
  8
0
 10
287.710125
 20
212.684280
 42
0.024099
  0
VERTEX
  8
0
 10
282.954428
 20
208.314114
 42
0.022661
  0
VERTEX
  8
0
 10
278.781814
 20
203.689997
 42
0.092772
  0
VERTEX
  8
0
 10
276.965110
 20
200.394281
 42
0.030421
  0
VERTEX
  8
0
 10
276.559239
 20
198.855891
 42
0.019658
  0
VERTEX
  8
0
 10
276.269635
 20
197.036078
 42
0.019766
  0
VERTEX
  8
0
 10
276.126558
 20
195.228207
 42
0.034915
  0
VERTEX
  8
0
 10
276.171964
 20
193.732657
 42
-0.080879
  0
VERTEX
  8
0
 10
276.046222
 20
191.682430
 42
-0.101777
  0
VERTEX
  8
0
 10
275.262669
 20
189.953510
 42
-0.049187
  0
VERTEX
  8
0
 10
273.410367
 20
187.869772
 42
-0.006770
  0
VERTEX
  8
0
 10
269.088462
 20
183.984124
 42
0.021118
  0
VERTEX
  8
0
 10
263.947064
 20
179.087819
 42
0.013517
  0
VERTEX
  8
0
 10
258.381862
 20
172.999618
 42
0.010579
  0
VERTEX
  8
0
 10
253.506848
 20
167.121230
 42
0.087586
  0
VERTEX
  8
0
 10
251.861117
 20
164.083352
 42
-0.237991
  0
VERTEX
  8
0
 10
251.361492
 20
163.587352
 42
-0.010590
  0
VERTEX
  8
0
 10
248.959117
 20
162.861838
 42
-0.015903
  0
VERTEX
  8
0
 10
245.971542
 20
162.129751
 42
-0.010495
  0
VERTEX
  8
0
 10
242.497129
 20
161.470495
 42
0.008222
  0
VERTEX
  8
0
 10
238.121409
 20
160.660806
 42
0.003426
  0
VERTEX
  8
0
 10
232.243942
 20
159.430988
 42
0.003388
  0
VERTEX
  8
0
 10
225.967312
 20
158.028107
 42
0.004379
  0
VERTEX
  8
0
 10
220.226928
 20
156.651122
 42
0.000000
  0
VERTEX
  8
0
 10
206.953855
 20
153.344030
 42
0.000000
  0
VERTEX
  8
0
 10
195.323141
 20
159.172015
 42
0.005820
  0
VERTEX
  8
0
 10
190.735117
 20
161.404575
 42
0.008102
  0
VERTEX
  8
0
 10
186.573886
 20
163.288029
 42
0.005325
  0
VERTEX
  8
0
 10
183.057565
 20
164.767153
 42
0.097186
  0
VERTEX
  8
0
 10
181.870934
 20
165.000000
 42
-0.151645
  0
VERTEX
  8
0
 10
180.823852
 20
165.325045
 42
-0.013878
  0
VERTEX
  8
0
 10
178.594430
 20
166.949692
 42
-0.016946
  0
VERTEX
  8
0
 10
176.002401
 20
169.095059
 42
-0.012468
  0
VERTEX
  8
0
 10
173.274720
 20
171.637248
 42
0.016245
  0
VERTEX
  8
0
 10
169.905042
 20
174.730554
 42
0.020888
  0
VERTEX
  8
0
 10
166.604683
 20
177.336722
 42
0.022668
  0
VERTEX
  8
0
 10
163.357030
 20
179.470560
 42
0.028018
  0
VERTEX
  8
0
 10
160.146087
 20
181.142047
 42
0.020649
  0
VERTEX
  8
0
 10
153.909322
 20
183.652251
 42
0.061335
  0
VERTEX
  8
0
 10
149.417848
 20
184.651154
 42
0.080276
  0
VERTEX
  8
0
 10
145.534435
 20
184.402715
 42
0.056747
  0
VERTEX
  8
0
 10
141.402932
 20
182.953010
 42
0.000000
  0
VERTEX
  8
0
 10
136.685981
 20
180.669574
 42
0.000000
  0
VERTEX
  8
0
 10
134.899501
 20
182.875784
 42
-0.062303
  0
VERTEX
  8
0
 10
133.041632
 20
185.864210
 42
-0.020120
  0
VERTEX
  8
0
 10
131.048825
 20
190.691139
 42
-0.019864
  0
VERTEX
  8
0
 10
129.456391
 20
195.635517
 42
-0.068069
  0
VERTEX
  8
0
 10
129.000000
 20
198.972413
 42
-0.031477
  0
VERTEX
  8
0
 10
129.082757
 20
200.285678
 42
-0.018282
  0
VERTEX
  8
0
 10
129.338386
 20
201.845629
 42
-0.018229
  0
VERTEX
  8
0
 10
129.710427
 20
203.396520
 42
-0.029139
  0
VERTEX
  8
0
 10
130.151952
 20
204.684900
 42
0.070236
  0
VERTEX
  8
0
 10
130.638568
 20
206.605267
 42
0.004999
  0
VERTEX
  8
0
 10
131.179140
 20
212.107439
 42
0.006964
  0
VERTEX
  8
0
 10
131.668579
 20
218.708853
 42
0.005197
  0
VERTEX
  8
0
 10
132.031127
 20
226.000000
 42
-0.022449
  0
VERTEX
  8
0
 10
133.617341
 20
244.798482
 42
-0.042452
  0
VERTEX
  8
0
 10
136.843784
 20
259.649806
 42
-0.050479
  0
VERTEX
  8
0
 10
142.022481
 20
271.910492
 42
-0.052090
  0
VERTEX
  8
0
 10
149.508670
 20
282.745529
 42
-0.013191
  0
VERTEX
  8
0
 10
151.520679
 20
284.970963
 42
-0.069011
  0
VERTEX
  8
0
 10
152.810345
 20
285.995938
 42
-0.136807
  0
VERTEX
  8
0
 10
153.883805
 20
286.283580
 42
-0.120904
  0
VERTEX
  8
0
 10
155.008355
 20
285.995529
 42
0.161236
  0
VERTEX
  8
0
 10
161.464924
 20
284.876073
 42
0.076732
  0
VERTEX
  8
0
 10
169.612075
 20
287.407073
 42
0.076916
  0
VERTEX
  8
0
 10
176.596052
 20
292.266525
 42
0.164151
  0
VERTEX
  8
0
 10
179.618649
 20
298.016624
 42
0.000000
  0
VERTEX
  8
0
 10
180.231758
 20
301.850799
 42
0.000000
  0
VERTEX
  8
0
 10
187.365879
 20
303.393077
 42
-0.004979
  0
VERTEX
  8
0
 10
190.390518
 20
304.015494
 42
-0.004296
  0
VERTEX
  8
0
 10
193.579352
 20
304.610271
 42
-0.004327
  0
VERTEX
  8
0
 10
196.480477
 20
305.099771
 42
-0.012507
  0
VERTEX
  8
0
 10
198.500000
 20
305.370964
 42
-0.030575
  0
VERTEX
  8
0
 10
206.209177
 20
305.736224
 42
-0.009020
  0
VERTEX
  8
0
 10
218.035616
 20
305.359709
 42
-0.008839
  0
VERTEX
  8
0
 10
229.783153
 20
304.565017
 42
-0.033956
  0
SEQEND
  0
POLYLINE
  8
0
 66
1
 70
1
  0
VERTEX
  8
0
 10
173.697726
 20
302.462402
 42
-0.074718
  0
VERTEX
  8
0
 10
175.346600
 20
300.989176
 42
-0.182836
  0
VERTEX
  8
0
 10
175.866751
 20
299.474371
 42
-0.134113
  0
VERTEX
  8
0
 10
175.310791
 20
297.661373
 42
-0.033844
  0
VERTEX
  8
0
 10
173.471562
 20
295.148572
 42
-0.073223
  0
VERTEX
  8
0
 10
170.731071
 20
292.720113
 42
-0.044226
  0
VERTEX
  8
0
 10
166.896849
 20
290.672394
 42
-0.044567
  0
VERTEX
  8
0
 10
162.833959
 20
289.357232
 42
-0.084788
  0
VERTEX
  8
0
 10
159.413547
 20
289.169572
 42
-0.239524
  0
VERTEX
  8
0
 10
156.112381
 20
291.353928
 42
-0.174731
  0
VERTEX
  8
0
 10
155.355115
 20
295.763139
 42
-0.129510
  0
VERTEX
  8
0
 10
157.632535
 20
300.683825
 42
-0.136186
  0
VERTEX
  8
0
 10
162.001376
 20
303.731019
 42
-0.055084
  0
VERTEX
  8
0
 10
165.017814
 20
304.431804
 42
-0.056625
  0
VERTEX
  8
0
 10
168.085904
 20
304.447415
 42
-0.057550
  0
VERTEX
  8
0
 10
171.034147
 20
303.778796
 42
-0.060587
  0
SEQEND
  0
POLYLINE
  8
0
 66
1
 70
1
  0
VERTEX
  8
0
 10
261.000000
 20
301.459507
 42
-0.128202
  0
VERTEX
  8
0
 10
260.913344
 20
301.127095
 42
-0.008843
  0
VERTEX
  8
0
 10
260.420704
 20
300.281867
 42
-0.012137
  0
VERTEX
  8
0
 10
259.783336
 20
299.286763
 42
-0.008805
  0
VERTEX
  8
0
 10
259.027928
 20
298.209507
 42
0.047888
  0
VERTEX
  8
0
 10
258.255083
 20
296.900878
 42
0.027229
  0
VERTEX
  8
0
 10
257.566909
 20
295.194355
 42
0.026971
  0
VERTEX
  8
0
 10
257.056185
 20
293.383819
 42
0.039806
  0
VERTEX
  8
0
 10
256.823541
 20
291.750000
 42
-0.018904
  0
VERTEX
  8
0
 10
256.543877
 20
288.953533
 42
-0.269327
  0
VERTEX
  8
0
 10
255.949519
 20
288.193450
 42
-0.329829
  0
VERTEX
  8
0
 10
255.105972
 20
288.414427
 42
-0.024346
  0
VERTEX
  8
0
 10
253.615010
 20
290.464817
 42
-0.075027
  0
VERTEX
  8
0
 10
252.352442
 20
293.215855
 42
-0.085532
  0
VERTEX
  8
0
 10
252.035116
 20
296.093127
 42
-0.096352
  0
VERTEX
  8
0
 10
252.692114
 20
298.635194
 42
-0.129404
  0
VERTEX
  8
0
 10
254.222506
 20
300.443296
 42
-0.071291
  0
VERTEX
  8
0
 10
256.055614
 20
301.371389
 42
-0.044404
  0
VERTEX
  8
0
 10
258.401023
 20
301.939336
 42
-0.046612
  0
VERTEX
  8
0
 10
260.428964
 20
302.052358
 42
-0.403278
  0
SEQEND
  0
POLYLINE
  8
0
 66
1
 70
1
  0
VERTEX
  8
0
 10
270.652745
 20
292.640809
 42
-0.020670
  0
VERTEX
  8
0
 10
272.397035
 20
289.870142
 42
-0.051268
  0
VERTEX
  8
0
 10
273.369424
 20
287.681468
 42
-0.053943
  0
VERTEX
  8
0
 10
273.848889
 20
285.408127
 42
-0.025025
  0
VERTEX
  8
0
 10
274.000000
 20
282.390809
 42
-0.008554
  0
VERTEX
  8
0
 10
273.941359
 20
278.963515
 42
-0.110835
  0
VERTEX
  8
0
 10
273.621193
 20
277.735222
 42
-0.227177
  0
VERTEX
  8
0
 10
272.870518
 20
277.166602
 42
-0.050418
  0
VERTEX
  8
0
 10
271.222506
 20
277.000000
 42
-0.128245
  0
VERTEX
  8
0
 10
267.252017
 20
278.035421
 42
-0.099366
  0
VERTEX
  8
0
 10
263.845479
 20
280.953253
 42
-0.089423
  0
VERTEX
  8
0
 10
261.564260
 20
285.270939
 42
-0.080546
  0
VERTEX
  8
0
 10
260.823263
 20
290.277246
 42
-0.065790
  0
VERTEX
  8
0
 10
261.255874
 20
293.235887
 42
-0.078279
  0
VERTEX
  8
0
 10
262.438148
 20
295.794710
 42
-0.098556
  0
VERTEX
  8
0
 10
264.077837
 20
297.433952
 42
-0.198121
  0
VERTEX
  8
0
 10
265.841238
 20
297.787024
 42
-0.137948
  0
VERTEX
  8
0
 10
266.598731
 20
297.404403
 42
-0.019278
  0
VERTEX
  8
0
 10
267.858622
 20
296.156926
 42
-0.020831
  0
VERTEX
  8
0
 10
269.263872
 20
294.522485
 42
-0.016322
  0
SEQEND
  0
POLYLINE
  8
0
 66
1
 70
1
  0
VERTEX
  8
0
 10
370.075686
 20
228.419436
 42
-0.044722
  0
VERTEX
  8
0
 10
371.220138
 20
226.959365
 42
-0.059677
  0
VERTEX
  8
0
 10
371.961626
 20
225.448399
 42
-0.054398
  0
VERTEX
  8
0
 10
372.368388
 20
223.697838
 42
-0.029914
  0
VERTEX
  8
0
 10
372.500000
 20
221.500000
 42
-0.075206
  0
VERTEX
  8
0
 10
371.907854
 20
217.585429
 42
-0.109187
  0
VERTEX
  8
0
 10
370.184549
 20
214.559990
 42
-0.116216
  0
VERTEX
  8
0
 10
367.440711
 20
212.666192
 42
-0.093452
  0
VERTEX
  8
0
 10
363.907473
 20
212.000000
 42
-0.027450
  0
VERTEX
  8
0
 10
359.662628
 20
212.233217
 42
-0.214400
  0
VERTEX
  8
0
 10
357.997807
 20
213.213538
 42
-0.160844
  0
VERTEX
  8
0
 10
357.362936
 20
215.286020
 42
-0.014089
  0
VERTEX
  8
0
 10
357.640613
 20
220.848887
 42
-0.021134
  0
VERTEX
  8
0
 10
358.299592
 20
226.299673
 42
-0.108627
  0
VERTEX
  8
0
 10
359.418922
 20
229.110434
 42
-0.171454
  0
VERTEX
  8
0
 10
361.336228
 20
230.525485
 42
-0.074185
  0
VERTEX
  8
0
 10
364.516816
 20
231.000000
 42
-0.053960
  0
VERTEX
  8
0
 10
366.034061
 20
230.835780
 42
-0.054802
  0
VERTEX
  8
0
 10
367.472703
 20
230.350830
 42
-0.052555
  0
VERTEX
  8
0
 10
368.822364
 20
229.542474
 42
-0.043016
  0
SEQEND
  0
POLYLINE
  8
0
 66
1
 70
1
  0
VERTEX
  8
0
 10
299.903714
 20
209.456956
 42
0.037451
  0
VERTEX
  8
0
 10
301.260958
 20
207.753522
 42
0.012243
  0
VERTEX
  8
0
 10
303.503010
 20
205.451127
 42
0.012122
  0
VERTEX
  8
0
 10
306.126438
 20
203.007404
 42
0.013395
  0
VERTEX
  8
0
 10
308.781207
 20
200.776236
 42
0.000000
  0
VERTEX
  8
0
 10
315.254987
 20
195.624894
 42
0.000000
  0
VERTEX
  8
0
 10
312.887036
 20
193.707444
 42
-0.037843
  0
VERTEX
  8
0
 10
309.958374
 20
191.682234
 42
-0.015972
  0
VERTEX
  8
0
 10
305.752708
 20
189.398757
 42
-0.012573
  0
VERTEX
  8
0
 10
301.574130
 20
187.429869
 42
-0.104171
  0
VERTEX
  8
0
 10
299.533244
 20
187.000000
 42
-0.064356
  0
VERTEX
  8
0
 10
298.947060
 20
187.075763
 42
-0.082072
  0
VERTEX
  8
0
 10
298.450390
 20
187.298068
 42
-0.098736
  0
VERTEX
  8
0
 10
298.118115
 20
187.627735
 42
-0.149219
  0
VERTEX
  8
0
 10
298.000000
 20
188.014698
 42
0.179050
  0
VERTEX
  8
0
 10
297.810235
 20
188.527629
 42
0.027483
  0
VERTEX
  8
0
 10
297.045313
 20
189.326580
 42
0.027786
  0
VERTEX
  8
0
 10
295.994563
 20
190.205604
 42
0.020894
  0
VERTEX
  8
0
 10
294.750000
 20
191.055784
 42
0.041321
  0
VERTEX
  8
0
 10
292.895062
 20
192.009556
 42
0.049178
  0
VERTEX
  8
0
 10
291.012207
 20
192.579751
 42
0.041928
  0
VERTEX
  8
0
 10
288.822542
 20
192.825962
 42
0.020263
  0
VERTEX
  8
0
 10
286.000000
 20
192.791086
 42
0.000000
  0
VERTEX
  8
0
 10
280.500000
 20
192.500000
 42
0.000000
  0
VERTEX
  8
0
 10
280.611793
 20
196.224411
 42
-0.046081
  0
VERTEX
  8
0
 10
280.830977
 20
198.010535
 42
-0.037225
  0
VERTEX
  8
0
 10
281.381223
 20
199.863797
 42
-0.036023
  0
VERTEX
  8
0
 10
282.224836
 20
201.679017
 42
-0.036151
  0
VERTEX
  8
0
 10
283.319378
 20
203.352080
 42
-0.051351
  0
VERTEX
  8
0
 10
285.941399
 20
206.142941
 42
-0.019900
  0
VERTEX
  8
0
 10
290.090150
 20
209.458086
 42
-0.015271
  0
VERTEX
  8
0
 10
294.332962
 20
212.384732
 42
-0.145932
  0
VERTEX
  8
0
 10
296.421445
 20
212.993167
 42
-0.173741
  0
VERTEX
  8
0
 10
296.978332
 20
212.789646
 42
-0.024669
  0
VERTEX
  8
0
 10
297.889265
 20
211.951586
 42
-0.025661
  0
VERTEX
  8
0
 10
298.904373
 20
210.809039
 42
-0.019300
  0
SEQEND
  0
POLYLINE
  8
0
 66
1
 70
1
  0
VERTEX
  8
0
 10
293.714286
 20
186.714286
 42
-0.126981
  0
VERTEX
  8
0
 10
295.292394
 20
184.038020
 42
-0.072793
  0
VERTEX
  8
0
 10
295.799348
 20
180.301366
 42
-0.062191
  0
VERTEX
  8
0
 10
295.211642
 20
175.964874
 42
-0.049061
  0
VERTEX
  8
0
 10
293.555039
 20
171.522969
 42
-0.009710
  0
VERTEX
  8
0
 10
292.468016
 20
169.406313
 42
-0.014918
  0
VERTEX
  8
0
 10
291.437845
 20
167.622372
 42
-0.009297
  0
VERTEX
  8
0
 10
290.524474
 20
166.203998
 42
-0.250046
  0
VERTEX
  8
0
 10
290.142059
 20
166.000000
 42
-0.195901
  0
VERTEX
  8
0
 10
289.775933
 20
166.149173
 42
-0.022883
  0
VERTEX
  8
0
 10
289.160825
 20
166.807813
 42
-0.024714
  0
VERTEX
  8
0
 10
288.476560
 20
167.696687
 42
-0.017810
  0
VERTEX
  8
0
 10
287.799894
 20
168.750000
 42
0.036547
  0
VERTEX
  8
0
 10
286.816947
 20
170.160974
 42
0.009165
  0
VERTEX
  8
0
 10
285.009199
 20
172.307812
 42
0.009311
  0
VERTEX
  8
0
 10
282.845607
 20
174.692565
 42
0.009255
  0
VERTEX
  8
0
 10
280.590446
 20
177.000000
 42
-0.009810
  0
VERTEX
  8
0
 10
278.473305
 20
179.171036
 42
-0.015036
  0
VERTEX
  8
0
 10
276.734600
 20
181.140922
 42
-0.009461
  0
VERTEX
  8
0
 10
275.392015
 20
182.821184
 42
-0.247532
  0
VERTEX
  8
0
 10
275.297277
 20
183.373353
 42
-0.150243
  0
VERTEX
  8
0
 10
275.620452
 20
183.832174
 42
-0.012477
  0
VERTEX
  8
0
 10
276.808326
 20
184.705464
 42
-0.015778
  0
VERTEX
  8
0
 10
278.312438
 20
185.685409
 42
-0.011507
  0
VERTEX
  8
0
 10
280.041118
 20
186.681786
 42
-0.060177
  0
VERTEX
  8
0
 10
283.797726
 20
188.180700
 42
-0.064355
  0
VERTEX
  8
0
 10
287.717833
 20
188.696831
 42
-0.072098
  0
VERTEX
  8
0
 10
291.211981
 20
188.198833
 42
-0.125625
  0
SEQEND
  0
POLYLINE
  8
0
 66
1
 70
1
  0
VERTEX
  8
0
 10
154.353256
 20
179.058255
 42
0.000000
  0
VERTEX
  8
0
 10
157.206512
 20
177.970986
 42
0.000000
  0
VERTEX
  8
0
 10
153.852091
 20
174.235493
 42
0.015124
  0
VERTEX
  8
0
 10
152.327531
 20
172.430808
 42
0.007491
  0
VERTEX
  8
0
 10
150.498063
 20
170.055114
 42
0.007427
  0
VERTEX
  8
0
 10
148.672885
 20
167.532763
 42
0.010790
  0
VERTEX
  8
0
 10
147.144589
 20
165.250000
 42
-0.003616
  0
VERTEX
  8
0
 10
145.838569
 20
163.237371
 42
-0.005807
  0
VERTEX
  8
0
 10
144.692573
 20
161.542188
 42
-0.001597
  0
VERTEX
  8
0
 10
143.679251
 20
160.090075
 42
-0.244276
  0
VERTEX
  8
0
 10
143.505881
 20
160.000000
 42
-0.274023
  0
VERTEX
  8
0
 10
143.345953
 20
160.094763
 42
-0.002684
  0
VERTEX
  8
0
 10
142.684307
 20
161.318674
 42
-0.007828
  0
VERTEX
  8
0
 10
141.939646
 20
162.768184
 42
-0.004878
  0
VERTEX
  8
0
 10
141.110127
 20
164.489102
 42
-0.035369
  0
VERTEX
  8
0
 10
139.651806
 20
168.263558
 42
-0.064415
  0
VERTEX
  8
0
 10
139.095735
 20
171.515938
 42
-0.078261
  0
VERTEX
  8
0
 10
139.424072
 20
174.345508
 42
-0.085026
  0
VERTEX
  8
0
 10
140.606999
 20
176.849299
 42
-0.089245
  0
VERTEX
  8
0
 10
143.058056
 20
179.282611
 42
-0.111563
  0
VERTEX
  8
0
 10
146.025659
 20
180.473211
 42
-0.089854
  0
VERTEX
  8
0
 10
149.715810
 20
180.399794
 42
-0.041263
  0
SEQEND
  0
POLYLINE
  8
0
 66
1
 70
1
  0
VERTEX
  8
0
 10
278.638085
 20
172.258505
 42
-0.011766
  0
VERTEX
  8
0
 10
280.739100
 20
169.931770
 42
-0.010621
  0
VERTEX
  8
0
 10
282.803199
 20
167.429274
 42
-0.010708
  0
VERTEX
  8
0
 10
284.556829
 20
165.108232
 42
-0.032917
  0
VERTEX
  8
0
 10
285.602015
 20
163.440428
 42
-0.015914
  0
VERTEX
  8
0
 10
286.687814
 20
161.260809
 42
-0.118022
  0
VERTEX
  8
0
 10
286.911299
 20
160.131634
 42
-0.130131
  0
VERTEX
  8
0
 10
286.585917
 20
159.073660
 42
-0.020926
  0
VERTEX
  8
0
 10
285.357970
 20
157.275019
 42
-0.052419
  0
VERTEX
  8
0
 10
284.194204
 20
156.014767
 42
-0.019279
  0
VERTEX
  8
0
 10
282.311611
 20
154.486509
 42
-0.018862
  0
VERTEX
  8
0
 10
280.110952
 20
152.962760
 42
-0.021511
  0
VERTEX
  8
0
 10
277.894040
 20
151.679053
 42
0.033144
  0
VERTEX
  8
0
 10
274.241274
 20
149.448947
 42
0.138104
  0
VERTEX
  8
0
 10
272.631389
 20
147.466010
 42
0.347981
  0
VERTEX
  8
0
 10
273.019213
 20
146.021449
 42
0.131530
  0
VERTEX
  8
0
 10
275.096846
 20
145.198356
 42
-0.161927
  0
VERTEX
  8
0
 10
276.724449
 20
144.438652
 42
-0.094588
  0
VERTEX
  8
0
 10
277.995592
 20
142.674608
 42
-0.032203
  0
VERTEX
  8
0
 10
279.422928
 20
139.009939
 42
-0.002969
  0
VERTEX
  8
0
 10
282.314439
 20
129.698356
 42
-0.004490
  0
VERTEX
  8
0
 10
286.689984
 20
114.827980
 42
-0.008013
  0
VERTEX
  8
0
 10
289.981925
 20
102.511012
 42
-0.003084
  0
VERTEX
  8
0
 10
292.490940
 20
92.212370
 42
-0.256435
  0
VERTEX
  8
0
 10
292.072073
 20
90.694468
 42
-0.177743
  0
VERTEX
  8
0
 10
289.416543
 20
89.419285
 42
-0.007226
  0
VERTEX
  8
0
 10
278.641898
 20
88.540094
 42
-0.008355
  0
VERTEX
  8
0
 10
262.696904
 20
87.738083
 42
-0.002057
  0
VERTEX
  8
0
 10
236.482988
 20
86.966336
 42
-0.004205
  0
VERTEX
  8
0
 10
207.306297
 20
86.473017
 42
-0.009193
  0
VERTEX
  8
0
 10
184.950089
 20
86.694121
 42
-0.010112
  0
VERTEX
  8
0
 10
168.286063
 20
87.502952
 42
-0.060257
  0
VERTEX
  8
0
 10
159.750000
 20
89.136567
 42
-0.094445
  0
VERTEX
  8
0
 10
157.193443
 20
90.525896
 42
-0.197177
  0
VERTEX
  8
0
 10
156.135069
 20
92.484999
 42
-0.067158
  0
VERTEX
  8
0
 10
156.236638
 20
96.090708
 42
-0.004787
  0
VERTEX
  8
0
 10
157.956532
 20
106.000000
 42
-0.001726
  0
VERTEX
  8
0
 10
160.767914
 20
121.032959
 42
-0.006555
  0
VERTEX
  8
0
 10
162.679770
 20
130.395125
 42
-0.005945
  0
VERTEX
  8
0
 10
164.145943
 20
136.758926
 42
-0.114089
  0
VERTEX
  8
0
 10
165.052130
 20
138.562813
 42
0.130599
  0
VERTEX
  8
0
 10
165.641876
 20
139.838621
 42
0.202106
  0
VERTEX
  8
0
 10
165.374209
 20
141.005052
 42
0.103173
  0
VERTEX
  8
0
 10
164.078671
 20
142.189822
 42
0.023025
  0
VERTEX
  8
0
 10
161.418181
 20
143.605850
 42
-0.033880
  0
VERTEX
  8
0
 10
159.729789
 20
144.552038
 42
-0.012261
  0
VERTEX
  8
0
 10
157.464821
 20
146.111755
 42
-0.012094
  0
VERTEX
  8
0
 10
155.060634
 20
147.946110
 42
-0.014092
  0
VERTEX
  8
0
 10
152.870420
 20
149.806412
 42
-0.011005
  0
VERTEX
  8
0
 10
150.014257
 20
152.490334
 42
-0.065938
  0
VERTEX
  8
0
 10
148.761317
 20
154.095479
 42
-0.115343
  0
VERTEX
  8
0
 10
148.309970
 20
155.547207
 42
-0.067390
  0
VERTEX
  8
0
 10
148.424913
 20
157.374565
 42
-0.097411
  0
VERTEX
  8
0
 10
149.899178
 20
160.944805
 42
-0.013558
  0
VERTEX
  8
0
 10
154.526256
 20
167.524052
 42
-0.008987
  0
VERTEX
  8
0
 10
159.571033
 20
174.050897
 42
-0.227510
  0
VERTEX
  8
0
 10
161.548917
 20
175.000000
 42
-0.186400
  0
VERTEX
  8
0
 10
163.987732
 20
174.058081
 42
-0.012656
  0
VERTEX
  8
0
 10
169.463538
 20
168.827960
 42
-0.018824
  0
VERTEX
  8
0
 10
174.682433
 20
163.173808
 42
-0.052424
  0
VERTEX
  8
0
 10
177.742366
 20
158.729718
 42
0.064138
  0
VERTEX
  8
0
 10
180.720146
 20
154.614060
 42
0.029059
  0
VERTEX
  8
0
 10
185.558971
 20
150.031038
 42
0.028570
  0
VERTEX
  8
0
 10
190.767076
 20
146.128809
 42
0.084898
  0
VERTEX
  8
0
 10
194.832845
 20
144.330128
 42
-0.043724
  0
VERTEX
  8
0
 10
195.968852
 20
143.935276
 42
-0.149417
  0
VERTEX
  8
0
 10
196.551194
 20
143.426017
 42
-0.161364
  0
VERTEX
  8
0
 10
196.724469
 20
142.704333
 42
-0.053399
  0
VERTEX
  8
0
 10
196.514926
 20
141.620799
 42
0.020592
  0
VERTEX
  8
0
 10
194.636137
 20
134.458895
 42
0.114153
  0
VERTEX
  8
0
 10
194.683379
 20
130.505329
 42
0.256175
  0
VERTEX
  8
0
 10
196.399637
 20
128.628859
 42
0.122932
  0
VERTEX
  8
0
 10
199.752900
 20
128.347327
 42
0.049507
  0
VERTEX
  8
0
 10
201.321299
 20
128.764235
 42
0.029122
  0
VERTEX
  8
0
 10
203.096988
 20
129.550764
 42
0.028907
  0
VERTEX
  8
0
 10
204.796872
 20
130.553607
 42
0.043324
  0
VERTEX
  8
0
 10
206.138867
 20
131.633043
 42
-0.013930
  0
VERTEX
  8
0
 10
207.872961
 20
133.204149
 42
-0.118061
  0
VERTEX
  8
0
 10
208.802724
 20
133.680226
 42
-0.194849
  0
VERTEX
  8
0
 10
209.627939
 20
133.558313
 42
-0.050528
  0
VERTEX
  8
0
 10
210.732768
 20
132.748493
 42
0.071994
  0
VERTEX
  8
0
 10
212.839031
 20
131.338992
 42
0.063194
  0
VERTEX
  8
0
 10
215.353516
 20
130.506303
 42
0.066616
  0
VERTEX
  8
0
 10
217.851853
 20
130.354886
 42
0.105108
  0
VERTEX
  8
0
 10
219.906859
 20
130.950153
 42
0.140403
  0
VERTEX
  8
0
 10
221.263039
 20
132.266193
 42
0.099993
  0
VERTEX
  8
0
 10
221.937031
 20
134.285730
 42
0.085135
  0
VERTEX
  8
0
 10
221.823005
 20
136.706449
 42
0.068725
  0
VERTEX
  8
0
 10
220.918980
 20
139.151388
 42
-0.023793
  0
VERTEX
  8
0
 10
220.536235
 20
139.956395
 42
-0.034099
  0
VERTEX
  8
0
 10
220.281719
 20
140.704156
 42
-0.036361
  0
VERTEX
  8
0
 10
220.166684
 20
141.311436
 42
-0.228854
  0
VERTEX
  8
0
 10
220.267610
 20
141.600943
 42
-0.117743
  0
VERTEX
  8
0
 10
220.626183
 20
141.821276
 42
-0.003680
  0
VERTEX
  8
0
 10
222.277979
 20
142.348982
 42
-0.006996
  0
VERTEX
  8
0
 10
224.250382
 20
142.933010
 42
-0.004769
  0
VERTEX
  8
0
 10
226.508079
 20
143.544120
 42
0.021684
  0
VERTEX
  8
0
 10
232.388596
 20
145.351367
 42
0.013429
  0
VERTEX
  8
0
 10
239.131861
 20
147.954290
 42
0.013268
  0
VERTEX
  8
0
 10
245.415265
 20
150.773658
 42
0.035745
  0
VERTEX
  8
0
 10
249.661105
 20
153.203357
 42
0.051576
  0
VERTEX
  8
0
 10
251.293012
 20
154.562038
 42
0.030832
  0
VERTEX
  8
0
 10
252.943847
 20
156.475682
 42
0.027851
  0
VERTEX
  8
0
 10
254.532253
 20
158.825224
 42
0.022458
  0
VERTEX
  8
0
 10
255.977054
 20
161.508861
 42
-0.026892
  0
VERTEX
  8
0
 10
257.488995
 20
164.258547
 42
-0.013200
  0
VERTEX
  8
0
 10
259.688695
 20
167.594813
 42
-0.013056
  0
VERTEX
  8
0
 10
262.162460
 20
170.949330
 42
-0.018506
  0
VERTEX
  8
0
 10
264.547194
 20
173.789021
 42
-0.015401
  0
VERTEX
  8
0
 10
268.878964
 20
178.289121
 42
-0.224105
  0
VERTEX
  8
0
 10
270.911395
 20
178.991488
 42
-0.169579
  0
VERTEX
  8
0
 10
273.045969
 20
177.975715
 42
-0.008171
  0
SEQEND
  0
POLYLINE
  8
0
 66
1
 70
1
  0
VERTEX
  8
0
 10
194.250000
 20
154.857163
 42
-0.009924
  0
VERTEX
  8
0
 10
198.073232
 20
152.847476
 42
-0.037466
  0
VERTEX
  8
0
 10
200.336065
 20
151.369134
 42
-0.064913
  0
VERTEX
  8
0
 10
201.591009
 20
150.119586
 42
-0.165976
  0
VERTEX
  8
0
 10
202.000000
 20
148.921452
 42
-0.047734
  0
VERTEX
  8
0
 10
201.901285
 20
147.889784
 42
-0.212239
  0
VERTEX
  8
0
 10
201.561171
 20
147.402181
 42
-0.179679
  0
VERTEX
  8
0
 10
200.926878
 20
147.281575
 42
-0.033186
  0
VERTEX
  8
0
 10
199.750000
 20
147.562120
 42
-0.036207
  0
VERTEX
  8
0
 10
195.873312
 20
149.077991
 42
-0.025240
  0
VERTEX
  8
0
 10
191.739690
 20
151.312610
 42
-0.025454
  0
VERTEX
  8
0
 10
187.917857
 20
153.910255
 42
-0.041497
  0
VERTEX
  8
0
 10
185.000000
 20
156.525729
 42
-0.003270
  0
VERTEX
  8
0
 10
182.793543
 20
158.891794
 42
-0.104863
  0
VERTEX
  8
0
 10
182.393052
 20
159.567545
 42
-0.573902
  0
VERTEX
  8
0
 10
182.613371
 20
159.820795
 42
-0.025768
  0
VERTEX
  8
0
 10
184.000000
 20
159.483346
 42
-0.028548
  0
VERTEX
  8
0
 10
185.417976
 20
158.970037
 42
-0.004889
  0
VERTEX
  8
0
 10
188.042188
 20
157.816392
 42
-0.005316
  0
VERTEX
  8
0
 10
191.099560
 20
156.397179
 42
-0.004721
  0
SEQEND
  0
POLYLINE
  8
0
 66
1
 70
1
  0
VERTEX
  8
0
 10
244.393965
 20
155.519710
 42
-0.040861
  0
VERTEX
  8
0
 10
239.747403
 20
153.227173
 42
-0.010940
  0
VERTEX
  8
0
 10
232.014520
 20
150.362447
 42
-0.011354
  0
VERTEX
  8
0
 10
224.056584
 20
147.811560
 42
-0.032336
  0
VERTEX
  8
0
 10
218.383710
 20
146.526047
 42
-0.014711
  0
VERTEX
  8
0
 10
216.055111
 20
146.224514
 42
-0.096624
  0
VERTEX
  8
0
 10
214.889068
 20
146.333619
 42
-0.178897
  0
VERTEX
  8
0
 10
214.200887
 20
146.845996
 42
-0.080416
  0
VERTEX
  8
0
 10
213.738561
 20
147.891744
 42
-0.217869
  0
VERTEX
  8
0
 10
213.996673
 20
149.366594
 42
-0.145796
  0
VERTEX
  8
0
 10
215.351314
 20
150.459706
 42
-0.033528
  0
VERTEX
  8
0
 10
218.797412
 20
151.610793
 42
-0.001970
  0
VERTEX
  8
0
 10
229.500000
 20
154.359611
 42
-0.003547
  0
VERTEX
  8
0
 10
235.535618
 20
155.838995
 42
-0.009230
  0
VERTEX
  8
0
 10
239.905303
 20
156.792387
 42
-0.012182
  0
VERTEX
  8
0
 10
243.503542
 20
157.417438
 42
-0.013581
  0
VERTEX
  8
0
 10
247.000000
 20
157.840707
 42
-0.553600
  0
VERTEX
  8
0
 10
247.148070
 20
157.647099
 42
-0.121817
  0
VERTEX
  8
0
 10
246.853227
 20
157.216818
 42
-0.034324
  0
VERTEX
  8
0
 10
245.873563
 20
156.458081
 42
-0.012589
  0
SEQEND
  0
POLYLINE
  8
0
 66
1
 70
1
  0
VERTEX
  8
0
 10
209.000000
 20
147.440983
 42
-0.066118
  0
VERTEX
  8
0
 10
208.926733
 20
146.889346
 42
-0.138808
  0
VERTEX
  8
0
 10
208.706250
 20
146.521475
 42
-0.191142
  0
VERTEX
  8
0
 10
208.379648
 20
146.392057
 42
-0.139169
  0
VERTEX
  8
0
 10
208.000000
 20
146.500000
 42
-0.060810
  0
VERTEX
  8
0
 10
207.617485
 20
146.806203
 42
-0.051032
  0
VERTEX
  8
0
 10
207.293750
 20
147.212900
 42
-0.053229
  0
VERTEX
  8
0
 10
207.073302
 20
147.653442
 42
-0.089642
  0
VERTEX
  8
0
 10
207.000000
 20
148.059017
 42
-0.105429
  0
VERTEX
  8
0
 10
207.076556
 20
148.418051
 42
-0.099231
  0
VERTEX
  8
0
 10
207.293750
 20
148.723586
 42
-0.096318
  0
VERTEX
  8
0
 10
207.618268
 20
148.928382
 42
-0.092995
  0
VERTEX
  8
0
 10
208.000000
 20
149.000000
 42
-0.153634
  0
VERTEX
  8
0
 10
208.381379
 20
148.879982
 42
-0.097988
  0
VERTEX
  8
0
 10
208.706250
 20
148.542039
 42
-0.080552
  0
VERTEX
  8
0
 10
208.925455
 20
148.037096
 42
-0.062283
  0
SEQEND
  0
POLYLINE
  8
0
 66
1
 70
1
  0
VERTEX
  8
0
 10
205.000000
 20
139.688561
 42
-0.114740
  0
VERTEX
  8
0
 10
204.544051
 20
137.727839
 42
-0.049779
  0
VERTEX
  8
0
 10
203.121562
 20
135.440870
 42
-0.049461
  0
VERTEX
  8
0
 10
201.355748
 20
133.563375
 42
-0.181247
  0
VERTEX
  8
0
 10
199.852637
 20
133.000000
 42
-0.419712
  0
VERTEX
  8
0
 10
199.200540
 20
133.664430
 42
-0.058823
  0
VERTEX
  8
0
 10
199.490736
 20
135.781183
 42
-0.049377
  0
VERTEX
  8
0
 10
200.412681
 20
138.287939
 42
-0.070709
  0
VERTEX
  8
0
 10
201.732899
 20
140.250000
 42
-0.037124
  0
VERTEX
  8
0
 10
203.181749
 20
141.635667
 42
-0.218134
  0
VERTEX
  8
0
 10
204.173386
 20
141.898781
 42
-0.299229
  0
VERTEX
  8
0
 10
204.806847
 20
141.306658
 42
-0.059474
  0
SEQEND
  0
POLYLINE
  8
0
 66
1
 70
1
  0
VERTEX
  8
0
 10
215.767045
 20
138.323864
 42
-0.023465
  0
VERTEX
  8
0
 10
216.786382
 20
137.204081
 42
-0.058512
  0
VERTEX
  8
0
 10
217.387086
 20
136.276450
 42
-0.115700
  0
VERTEX
  8
0
 10
217.538756
 20
135.620999
 42
-0.322001
  0
VERTEX
  8
0
 10
217.277030
 20
135.259010
 42
-0.155954
  0
VERTEX
  8
0
 10
215.823681
 20
135.241083
 42
-0.060626
  0
VERTEX
  8
0
 10
213.964583
 20
136.067261
 42
-0.057347
  0
VERTEX
  8
0
 10
212.197179
 20
137.421638
 42
-0.077900
  0
VERTEX
  8
0
 10
210.987735
 20
139.022918
 42
-0.166972
  0
VERTEX
  8
0
 10
210.754839
 20
140.461454
 42
-0.406867
  0
VERTEX
  8
0
 10
211.544288
 20
141.034140
 42
-0.118627
  0
VERTEX
  8
0
 10
213.475673
 20
140.259614
 42
-0.041990
  0
SEQEND
  0
POLYLINE
  8
0
 66
1
 70
1
  0
VERTEX
  8
0
 10
289.994877
 20
130.309017
 42
-0.120378
  0
VERTEX
  8
0
 10
289.710896
 20
129.124490
 42
-0.228708
  0
VERTEX
  8
0
 10
288.945737
 20
128.547374
 42
-0.213433
  0
VERTEX
  8
0
 10
287.971573
 20
128.769339
 42
-0.109134
  0
VERTEX
  8
0
 10
287.138933
 20
129.740401
 42
-0.041661
  0
VERTEX
  8
0
 10
286.725240
 20
130.697135
 42
-0.013345
  0
VERTEX
  8
0
 10
286.269917
 20
132.178714
 42
-0.013211
  0
VERTEX
  8
0
 10
285.848892
 20
133.862280
 42
-0.014395
  0
VERTEX
  8
0
 10
285.530651
 20
135.518410
 42
0.000000
  0
VERTEX
  8
0
 10
284.883783
 20
139.500000
 42
0.000000
  0
VERTEX
  8
0
 10
287.436768
 20
135.500000
 42
-0.012322
  0
VERTEX
  8
0
 10
288.414683
 20
133.881194
 42
-0.015230
  0
VERTEX
  8
0
 10
289.241319
 20
132.325149
 42
-0.013623
  0
VERTEX
  8
0
 10
289.853662
 20
130.992163
 42
-0.100102
  0
SEQEND
  0
POLYLINE
  8
0
 66
1
 70
1
  0
VERTEX
  8
0
 10
276.075791
 20
82.141617
 42
-0.048884
  0
VERTEX
  8
0
 10
275.524995
 20
81.317363
 42
-0.023255
  0
VERTEX
  8
0
 10
274.670024
 20
80.368283
 42
-0.022793
  0
VERTEX
  8
0
 10
273.676469
 20
79.451123
 42
-0.029964
  0
VERTEX
  8
0
 10
272.686841
 20
78.714380
 42
0.071923
  0
VERTEX
  8
0
 10
271.472453
 20
77.641439
 42
0.076770
  0
VERTEX
  8
0
 10
270.643574
 20
76.290477
 42
0.053251
  0
VERTEX
  8
0
 10
270.067441
 20
74.364602
 42
0.016823
  0
VERTEX
  8
0
 10
269.616294
 20
71.392354
 42
-0.057871
  0
VERTEX
  8
0
 10
268.035383
 20
64.718901
 42
-0.114600
  0
VERTEX
  8
0
 10
265.086276
 20
60.182319
 42
-0.123607
  0
VERTEX
  8
0
 10
260.611498
 20
57.619046
 42
-0.073709
  0
VERTEX
  8
0
 10
254.489881
 20
56.836882
 42
-0.062485
  0
VERTEX
  8
0
 10
249.483731
 20
57.567273
 42
-0.103619
  0
VERTEX
  8
0
 10
245.705518
 20
59.515961
 42
-0.094753
  0
VERTEX
  8
0
 10
242.808343
 20
62.961402
 42
-0.045691
  0
VERTEX
  8
0
 10
240.453501
 20
68.250000
 42
0.000000
  0
VERTEX
  8
0
 10
238.839267
 20
73.000000
 42
0.000000
  0
VERTEX
  8
0
 10
222.419633
 20
73.178571
 42
-0.000267
  0
VERTEX
  8
0
 10
215.968361
 20
73.252177
 42
-0.000368
  0
VERTEX
  8
0
 10
210.171741
 20
73.325670
 42
-0.000232
  0
VERTEX
  8
0
 10
205.296705
 20
73.393323
 42
-0.004463
  0
VERTEX
  8
0
 10
203.782039
 20
73.428571
 42
0.089416
  0
VERTEX
  8
0
 10
202.641641
 20
73.260689
 42
0.131544
  0
VERTEX
  8
0
 10
201.802365
 20
72.703466
 42
0.087979
  0
VERTEX
  8
0
 10
201.137062
 20
71.612455
 42
0.024643
  0
VERTEX
  8
0
 10
200.500987
 20
69.710978
 42
-0.083084
  0
VERTEX
  8
0
 10
197.779994
 20
63.921106
 42
-0.101328
  0
VERTEX
  8
0
 10
193.463881
 20
59.788204
 42
-0.106579
  0
VERTEX
  8
0
 10
188.055497
 20
57.817698
 42
-0.100904
  0
VERTEX
  8
0
 10
182.201461
 20
58.193399
 42
-0.079763
  0
VERTEX
  8
0
 10
177.855769
 20
60.157087
 42
-0.094477
  0
VERTEX
  8
0
 10
174.631207
 20
63.296332
 42
-0.089324
  0
VERTEX
  8
0
 10
172.667030
 20
67.554005
 42
-0.063600
  0
VERTEX
  8
0
 10
172.000000
 20
72.776752
 42
0.033450
  0
VERTEX
  8
0
 10
171.891969
 20
74.389738
 42
0.028736
  0
VERTEX
  8
0
 10
171.568717
 20
76.059657
 42
0.029775
  0
VERTEX
  8
0
 10
171.095976
 20
77.544669
 42
0.070072
  0
VERTEX
  8
0
 10
170.531803
 20
78.558870
 42
-0.021423
  0
VERTEX
  8
0
 10
169.967491
 20
79.375424
 42
-0.022566
  0
VERTEX
  8
0
 10
169.485535
 20
80.223543
 42
-0.022928
  0
VERTEX
  8
0
 10
169.138569
 20
80.988580
 42
-0.087246
  0
VERTEX
  8
0
 10
169.031762
 20
81.500000
 42
-0.410377
  0
VERTEX
  8
0
 10
169.459647
 20
81.962069
 42
-0.003385
  0
VERTEX
  8
0
 10
174.868474
 20
82.168684
 42
-0.007965
  0
VERTEX
  8
0
 10
181.919540
 20
82.277852
 42
-0.003033
  0
VERTEX
  8
0
 10
191.749959
 20
82.213823
 42
0.005952
  0
VERTEX
  8
0
 10
208.237139
 20
82.202688
 42
0.002159
  0
VERTEX
  8
0
 10
231.628732
 20
82.566346
 42
0.002195
  0
VERTEX
  8
0
 10
255.456565
 20
83.144370
 42
0.004740
  0
VERTEX
  8
0
 10
273.785184
 20
83.843488
 42
-0.012769
  0
VERTEX
  8
0
 10
275.681102
 20
83.885336
 42
-0.160232
  0
VERTEX
  8
0
 10
276.352368
 20
83.661969
 42
-0.320244
  0
VERTEX
  8
0
 10
276.510645
 20
83.171166
 42
-0.045909
  0
SEQEND
  0
POLYLINE
  8
0
 66
1
 70
1
  0
VERTEX
  8
0
 10
301.000000
 20
427.000000
 42
0.064853
  0
VERTEX
  8
0
 10
301.099593
 20
426.235391
 42
0.082425
  0
VERTEX
  8
0
 10
301.391667
 20
425.587500
 42
0.098894
  0
VERTEX
  8
0
 10
301.824861
 20
425.154091
 42
0.148195
  0
VERTEX
  8
0
 10
302.333333
 20
425.000000
 42
0.071951
  0
VERTEX
  8
0
 10
303.521979
 20
425.171939
 42
0.158715
  0
VERTEX
  8
0
 10
304.269391
 20
425.685595
 42
0.170852
  0
VERTEX
  8
0
 10
304.538545
 20
426.510360
 42
0.086065
  0
VERTEX
  8
0
 10
304.324110
 20
427.597766
 42
0.142098
  0
VERTEX
  8
0
 10
303.504144
 20
428.679262
 42
0.207321
  0
VERTEX
  8
0
 10
302.355969
 20
428.949220
 42
0.208730
  0
VERTEX
  8
0
 10
301.379600
 20
428.296226
 42
0.143413
  0
SEQEND
  0
POLYLINE
  8
0
 66
1
 70
1
  0
VERTEX
  8
0
 10
290.500000
 20
426.000000
 42
0.146325
  0
VERTEX
  8
0
 10
290.228266
 20
424.990666
 42
0.144467
  0
VERTEX
  8
0
 10
290.553147
 20
423.992115
 42
0.131205
  0
VERTEX
  8
0
 10
291.404587
 20
423.262677
 42
0.112333
  0
VERTEX
  8
0
 10
292.559017
 20
423.000000
 42
0.137622
  0
VERTEX
  8
0
 10
293.108519
 20
423.154167
 42
0.100183
  0
VERTEX
  8
0
 10
293.576711
 20
423.587500
 42
0.086062
  0
VERTEX
  8
0
 10
293.891917
 20
424.235643
 42
0.070352
  0
VERTEX
  8
0
 10
294.000000
 20
425.000000
 42
0.148170
  0
VERTEX
  8
0
 10
293.627782
 20
426.228473
 42
0.177865
  0
VERTEX
  8
0
 10
292.657809
 20
426.936213
 42
0.178179
  0
VERTEX
  8
0
 10
291.461727
 20
426.847111
 42
0.148632
  0
SEQEND
  0
POLYLINE
  8
0
 66
1
 70
1
  0
VERTEX
  8
0
 10
192.266075
 20
356.902724
 42
0.133942
  0
VERTEX
  8
0
 10
189.087025
 20
354.630233
 42
0.120019
  0
VERTEX
  8
0
 10
187.338635
 20
350.964010
 42
0.118988
  0
VERTEX
  8
0
 10
187.464368
 20
346.878551
 42
0.130170
  0
VERTEX
  8
0
 10
189.454545
 20
343.454545
 42
0.140579
  0
VERTEX
  8
0
 10
193.649032
 20
341.129909
 42
0.159487
  0
VERTEX
  8
0
 10
198.213180
 20
341.539792
 42
0.157193
  0
VERTEX
  8
0
 10
201.697874
 20
344.582008
 42
0.136145
  0
VERTEX
  8
0
 10
203.000000
 20
349.275496
 42
0.117562
  0
VERTEX
  8
0
 10
202.101024
 20
353.046078
 42
0.121825
  0
VERTEX
  8
0
 10
199.604038
 20
355.947889
 42
0.122987
  0
VERTEX
  8
0
 10
196.063178
 20
357.333663
 42
0.121241
  0
SEQEND
  0
POLYLINE
  8
0
 66
1
 70
1
  0
VERTEX
  8
0
 10
257.356999
 20
356.029953
 42
0.084822
  0
VERTEX
  8
0
 10
255.395276
 20
354.796189
 42
0.057769
  0
VERTEX
  8
0
 10
253.644120
 20
352.818553
 42
0.058409
  0
VERTEX
  8
0
 10
252.412908
 20
350.524870
 42
0.094267
  0
VERTEX
  8
0
 10
252.000000
 20
348.354219
 42
0.126838
  0
VERTEX
  8
0
 10
252.698835
 20
345.643703
 42
0.067436
  0
VERTEX
  8
0
 10
254.780169
 20
342.844313
 42
0.067722
  0
VERTEX
  8
0
 10
257.516501
 20
340.713760
 42
0.132347
  0
VERTEX
  8
0
 10
260.165817
 20
340.000000
 42
0.122978
  0
VERTEX
  8
0
 10
263.034865
 20
340.716496
 42
0.067304
  0
VERTEX
  8
0
 10
265.994481
 20
342.846683
 42
0.067987
  0
VERTEX
  8
0
 10
268.246514
 20
345.650061
 42
0.136081
  0
VERTEX
  8
0
 10
269.000000
 20
348.367313
 42
0.144190
  0
VERTEX
  8
0
 10
267.946620
 20
351.944113
 42
0.104354
  0
VERTEX
  8
0
 10
265.005603
 20
354.912484
 42
0.103786
  0
VERTEX
  8
0
 10
261.100829
 20
356.450584
 42
0.141070
  0
SEQEND
  0
POLYLINE
  8
0
 66
1
 70
1
  0
VERTEX
  8
0
 10
218.651123
 20
347.317790
 42
0.233270
  0
VERTEX
  8
0
 10
218.009684
 20
345.426955
 42
0.202596
  0
VERTEX
  8
0
 10
219.078703
 20
343.606906
 42
0.134983
  0
VERTEX
  8
0
 10
221.622401
 20
342.615613
 42
0.117176
  0
VERTEX
  8
0
 10
224.467594
 20
342.987679
 42
-0.038233
  0
VERTEX
  8
0
 10
225.745131
 20
343.364593
 42
-0.060965
  0
VERTEX
  8
0
 10
226.877950
 20
343.465321
 42
-0.068011
  0
VERTEX
  8
0
 10
227.909301
 20
343.289444
 42
-0.063467
  0
VERTEX
  8
0
 10
228.882139
 20
342.841533
 42
0.116407
  0
VERTEX
  8
0
 10
231.150734
 20
342.073404
 42
0.114116
  0
VERTEX
  8
0
 10
233.541344
 20
342.392137
 42
0.130085
  0
VERTEX
  8
0
 10
235.329987
 20
343.665053
 42
0.175151
  0
VERTEX
  8
0
 10
236.000000
 20
345.519052
 42
0.038433
  0
VERTEX
  8
0
 10
235.926867
 20
346.469095
 42
0.057437
  0
VERTEX
  8
0
 10
235.706250
 20
347.271222
 42
0.075489
  0
VERTEX
  8
0
 10
235.382889
 20
347.818277
 42
0.225263
  0
VERTEX
  8
0
 10
235.000000
 20
348.000000
 42
0.138107
  0
VERTEX
  8
0
 10
234.618662
 20
347.892621
 42
0.100138
  0
VERTEX
  8
0
 10
234.293750
 20
347.590803
 42
0.085896
  0
VERTEX
  8
0
 10
234.074991
 20
347.139376
 42
0.070083
  0
VERTEX
  8
0
 10
234.000000
 20
346.606989
 42
-0.172035
  0
VERTEX
  8
0
 10
233.565397
 20
345.381248
 42
-0.171721
  0
VERTEX
  8
0
 10
232.455394
 20
344.701917
 42
-0.126147
  0
VERTEX
  8
0
 10
230.863664
 20
344.768635
 42
-0.079706
  0
VERTEX
  8
0
 10
229.182397
 20
345.584798
 42
0.044506
  0
VERTEX
  8
0
 10
228.012810
 20
346.257660
 42
0.097258
  0
VERTEX
  8
0
 10
227.012440
 20
346.501619
 42
0.087386
  0
VERTEX
  8
0
 10
225.926118
 20
346.360663
 42
0.031051
  0
VERTEX
  8
0
 10
224.458047
 20
345.798931
 42
-0.024558
  0
VERTEX
  8
0
 10
222.963129
 20
345.204578
 42
-0.112985
  0
VERTEX
  8
0
 10
222.041861
 20
345.108142
 42
-0.150482
  0
VERTEX
  8
0
 10
221.312108
 20
345.433541
 42
-0.055372
  0
VERTEX
  8
0
 10
220.541576
 20
346.274028
 42
0.041728
  0
VERTEX
  8
0
 10
220.019403
 20
346.875699
 42
0.067135
  0
VERTEX
  8
0
 10
219.475032
 20
347.279773
 42
0.095457
  0
VERTEX
  8
0
 10
218.994771
 20
347.435806
 42
0.231296
  0
SEQEND
  0
POLYLINE
  8
0
 66
1
 70
1
  0
VERTEX
  8
0
 10
156.355764
 20
219.629592
 42
0.192149
  0
VERTEX
  8
0
 10
153.658068
 20
214.457418
 42
0.182132
  0
VERTEX
  8
0
 10
155.183791
 20
208.704094
 42
0.178152
  0
VERTEX
  8
0
 10
160.168330
 20
205.303818
 42
0.186480
  0
VERTEX
  8
0
 10
166.055391
 20
206.029644
 42
0.133758
  0
VERTEX
  8
0
 10
168.934265
 20
208.751306
 42
0.116210
  0
VERTEX
  8
0
 10
170.228423
 20
212.707613
 42
0.115922
  0
VERTEX
  8
0
 10
169.621499
 20
216.833456
 42
0.132622
  0
VERTEX
  8
0
 10
167.244262
 20
220.022503
 42
0.081711
  0
VERTEX
  8
0
 10
164.618323
 20
221.468867
 42
0.094395
  0
VERTEX
  8
0
 10
161.797880
 20
221.901378
 42
0.092802
  0
VERTEX
  8
0
 10
158.978125
 20
221.267442
 42
0.076184
  0
SEQEND
  0
POLYLINE
  8
0
 66
1
 70
1
  0
VERTEX
  8
0
 10
223.174314
 20
217.685549
 42
0.108134
  0
VERTEX
  8
0
 10
221.409122
 20
214.732447
 42
0.090199
  0
VERTEX
  8
0
 10
220.885660
 20
211.107509
 42
0.092938
  0
VERTEX
  8
0
 10
221.671082
 20
207.625300
 42
0.124918
  0
VERTEX
  8
0
 10
223.634859
 20
205.072580
 42
0.098120
  0
VERTEX
  8
0
 10
227.145582
 20
203.285263
 42
0.125076
  0
VERTEX
  8
0
 10
230.764459
 20
203.189596
 42
0.123781
  0
VERTEX
  8
0
 10
234.017300
 20
204.836778
 42
0.094907
  0
VERTEX
  8
0
 10
236.489650
 20
207.979984
 42
0.036308
  0
VERTEX
  8
0
 10
237.644353
 20
210.675979
 42
0.113509
  0
VERTEX
  8
0
 10
237.851836
 20
212.625448
 42
0.111219
  0
VERTEX
  8
0
 10
237.188060
 20
214.492728
 42
0.034121
  0
VERTEX
  8
0
 10
235.411106
 20
216.923275
 42
0.096246
  0
VERTEX
  8
0
 10
232.621880
 20
219.176000
 42
0.106721
  0
VERTEX
  8
0
 10
229.292039
 20
220.114975
 42
0.110602
  0
VERTEX
  8
0
 10
225.965006
 20
219.584561
 42
0.109991
  0
SEQEND
  0
POLYLINE
  8
0
 66
1
 70
1
  0
VERTEX
  8
0
 10
185.649399
 20
214.241733
 42
0.147319
  0
VERTEX
  8
0
 10
185.345801
 20
213.105244
 42
0.075015
  0
VERTEX
  8
0
 10
185.614752
 20
211.637583
 42
0.080519
  0
VERTEX
  8
0
 10
186.270157
 20
210.413786
 42
0.233728
  0
VERTEX
  8
0
 10
187.106989
 20
210.000000
 42
-0.370524
  0
VERTEX
  8
0
 10
187.462145
 20
209.694930
 42
-0.010791
  0
VERTEX
  8
0
 10
187.738776
 20
207.576562
 42
-0.016800
  0
VERTEX
  8
0
 10
187.938041
 20
204.913122
 42
-0.010157
  0
VERTEX
  8
0
 10
188.003738
 20
201.750000
 42
0.027788
  0
VERTEX
  8
0
 10
188.402065
 20
194.646381
 42
0.096098
  0
VERTEX
  8
0
 10
189.771381
 20
190.269185
 42
0.154739
  0
VERTEX
  8
0
 10
192.246976
 20
187.873665
 42
0.115996
  0
VERTEX
  8
0
 10
195.962249
 20
187.000000
 42
0.094461
  0
VERTEX
  8
0
 10
199.705506
 20
187.713553
 42
0.185610
  0
VERTEX
  8
0
 10
201.903462
 20
189.735737
 42
0.110755
  0
VERTEX
  8
0
 10
202.842871
 20
193.585011
 42
0.023873
  0
VERTEX
  8
0
 10
202.642874
 20
200.484634
 42
-0.009307
  0
VERTEX
  8
0
 10
202.435619
 20
204.047772
 42
-0.019739
  0
VERTEX
  8
0
 10
202.435580
 20
206.811447
 42
-0.018511
  0
VERTEX
  8
0
 10
202.592459
 20
208.858822
 42
-0.229857
  0
VERTEX
  8
0
 10
202.998761
 20
209.499234
 42
0.181412
  0
VERTEX
  8
0
 10
203.668657
 20
210.365421
 42
0.056609
  0
VERTEX
  8
0
 10
203.978057
 20
212.007085
 42
0.062772
  0
VERTEX
  8
0
 10
203.898857
 20
213.523091
 42
0.363109
  0
VERTEX
  8
0
 10
203.328741
 20
214.000000
 42
0.126431
  0
VERTEX
  8
0
 10
202.963822
 20
213.906227
 42
0.019991
  0
VERTEX
  8
0
 10
202.324998
 20
213.520659
 42
0.021095
  0
VERTEX
  8
0
 10
201.593925
 20
212.992986
 42
0.017048
  0
VERTEX
  8
0
 10
200.854364
 20
212.368201
 42
-0.035590
  0
VERTEX
  8
0
 10
199.772809
 20
211.521126
 42
-0.137633
  0
VERTEX
  8
0
 10
198.971438
 20
211.255815
 42
-0.125844
  0
VERTEX
  8
0
 10
198.108069
 20
211.434612
 42
-0.027672
  0
VERTEX
  8
0
 10
196.775623
 20
212.179767
 42
0.045457
  0
VERTEX
  8
0
 10
195.539911
 20
212.814303
 42
0.074225
  0
VERTEX
  8
0
 10
194.396617
 20
213.088468
 42
0.071110
  0
VERTEX
  8
0
 10
193.188597
 20
213.022201
 42
0.038387
  0
VERTEX
  8
0
 10
191.751112
 20
212.618916
 42
-0.030394
  0
VERTEX
  8
0
 10
190.261267
 20
212.175161
 42
-0.108145
  0
VERTEX
  8
0
 10
189.271325
 20
212.162031
 42
-0.131013
  0
VERTEX
  8
0
 10
188.473570
 20
212.559996
 42
-0.054090
  0
VERTEX
  8
0
 10
187.653755
 20
213.458840
 42
0.038187
  0
VERTEX
  8
0
 10
187.042331
 20
214.173495
 42
0.103967
  0
VERTEX
  8
0
 10
186.488047
 20
214.536298
 42
0.181148
  0
VERTEX
  8
0
 10
186.021091
 20
214.542819
 42
0.169798
  0
SEQEND
  0
POLYLINE
  8
0
 66
1
 70
1
  0
VERTEX
  8
0
 10
196.350736
 20
208.886055
 42
-0.068190
  0
VERTEX
  8
0
 10
197.404594
 20
208.219902
 42
-0.058746
  0
VERTEX
  8
0
 10
198.301781
 20
207.263714
 42
-0.056417
  0
VERTEX
  8
0
 10
198.982470
 20
206.084464
 42
-0.053399
  0
VERTEX
  8
0
 10
199.397789
 20
204.761055
 42
-0.031757
  0
VERTEX
  8
0
 10
199.838073
 20
201.492642
 42
-0.017695
  0
VERTEX
  8
0
 10
199.978804
 20
197.476133
 42
-0.016059
  0
VERTEX
  8
0
 10
199.856022
 20
193.696962
 42
-0.075597
  0
VERTEX
  8
0
 10
199.393011
 20
191.581787
 42
-0.215612
  0
VERTEX
  8
0
 10
198.149504
 20
190.352452
 42
-0.101045
  0
VERTEX
  8
0
 10
195.865157
 20
189.998933
 42
-0.094434
  0
VERTEX
  8
0
 10
193.494479
 20
190.569480
 42
-0.165207
  0
VERTEX
  8
0
 10
192.035184
 20
191.934259
 42
-0.108381
  0
VERTEX
  8
0
 10
191.141233
 20
195.096841
 42
-0.017977
  0
VERTEX
  8
0
 10
190.990950
 20
201.461391
 42
-0.012259
  0
VERTEX
  8
0
 10
191.229152
 20
207.920772
 42
-0.289150
  0
VERTEX
  8
0
 10
192.250000
 20
209.337719
 42
-0.000187
  0
VERTEX
  8
0
 10
192.743569
 20
209.536664
 42
-0.000249
  0
VERTEX
  8
0
 10
193.192428
 20
209.717133
 42
-0.000175
  0
VERTEX
  8
0
 10
193.568998
 20
209.868166
 42
-0.002523
  0
VERTEX
  8
0
 10
193.702947
 20
209.921053
 42
-0.184209
  0
VERTEX
  8
0
 10
193.851771
 20
209.922043
 42
-0.003738
  0
VERTEX
  8
0
 10
194.564451
 20
209.649588
 42
-0.008302
  0
VERTEX
  8
0
 10
195.399063
 20
209.307264
 42
-0.005422
  0
SEQEND
  0
ENDSEC
  0
EOF
