  0
SECTION
  2
HEADER
  9
$ACADVER
  1
AC1006
  9
$EXTMIN
 10
0.000000
 20
0.000000
 30
0.000000
  9
$EXTMAX
 10
479.000000
 20
392.000000
 30
0.000000
  0
ENDSEC
  0
SECTION
  2
ENTITIES
  0
POLYLINE
  8
0
 66
1
 70
1
  0
VERTEX
  8
0
 10
227.464952
 20
360.593856
 42
0.030868
  0
VERTEX
  8
0
 10
223.316582
 20
358.387991
 42
0.048596
  0
VERTEX
  8
0
 10
220.101552
 20
355.956322
 42
0.047613
  0
VERTEX
  8
0
 10
217.371774
 20
352.912003
 42
0.028246
  0
VERTEX
  8
0
 10
214.700792
 20
348.829399
 42
0.000000
  0
VERTEX
  8
0
 10
212.008754
 20
344.158798
 42
0.000000
  0
VERTEX
  8
0
 10
208.254377
 20
345.288574
 42
0.055025
  0
VERTEX
  8
0
 10
205.673273
 20
345.764562
 42
0.006293
  0
VERTEX
  8
0
 10
199.758230
 20
346.118937
 42
0.007033
  0
VERTEX
  8
0
 10
192.303642
 20
346.366435
 42
0.004295
  0
VERTEX
  8
0
 10
183.500000
 20
346.459175
 42
0.006818
  0
VERTEX
  8
0
 10
169.720198
 20
346.298066
 42
0.017669
  0
VERTEX
  8
0
 10
159.806231
 20
345.695936
 42
0.021564
  0
VERTEX
  8
0
 10
151.179149
 20
344.487966
 42
0.015963
  0
VERTEX
  8
0
 10
141.765098
 20
342.440455
 42
-0.009012
  0
VERTEX
  8
0
 10
139.389335
 20
341.889045
 42
-0.008990
  0
VERTEX
  8
0
 10
136.993350
 20
341.423134
 42
-0.008867
  0
VERTEX
  8
0
 10
134.887355
 20
341.091162
 42
-0.034667
  0
VERTEX
  8
0
 10
133.574115
 20
341.000000
 42
0.037410
  0
VERTEX
  8
0
 10
132.588659
 20
340.926165
 42
0.041256
  0
VERTEX
  8
0
 10
131.657960
 20
340.706250
 42
0.045284
  0
VERTEX
  8
0
 10
130.907539
 20
340.384539
 42
0.131172
  0
VERTEX
  8
0
 10
130.500000
 20
340.000000
 42
-0.086978
  0
VERTEX
  8
0
 10
130.159416
 20
339.617191
 42
-0.053360
  0
VERTEX
  8
0
 10
129.647581
 20
339.293750
 42
-0.051494
  0
VERTEX
  8
0
 10
129.053485
 20
339.074160
 42
-0.062870
  0
VERTEX
  8
0
 10
128.466025
 20
339.000000
 42
0.099210
  0
VERTEX
  8
0
 10
126.604338
 20
338.626930
 42
0.005109
  0
VERTEX
  8
0
 10
120.938765
 20
336.192971
 42
0.007859
  0
VERTEX
  8
0
 10
114.174362
 20
333.076739
 42
0.005337
  0
VERTEX
  8
0
 10
106.569210
 20
329.326820
 42
0.017012
  0
VERTEX
  8
0
 10
100.291383
 20
325.874466
 42
0.009474
  0
VERTEX
  8
0
 10
92.875116
 20
321.268573
 42
0.008894
  0
VERTEX
  8
0
 10
86.008775
 20
316.646374
 42
0.034024
  0
VERTEX
  8
0
 10
81.995643
 20
313.412391
 42
0.000000
  0
VERTEX
  8
0
 10
79.491287
 20
311.096500
 42
0.000000
  0
VERTEX
  8
0
 10
72.653148
 20
315.798250
 42
0.000000
  0
VERTEX
  8
0
 10
65.815010
 20
320.500000
 42
0.000000
  0
VERTEX
  8
0
 10
56.157505
 20
320.472994
 42
0.025932
  0
VERTEX
  8
0
 10
48.741751
 20
320.067336
 42
0.066118
  0
VERTEX
  8
0
 10
43.519556
 20
318.797435
 42
0.075066
  0
VERTEX
  8
0
 10
39.205654
 20
316.324942
 42
0.041472
  0
VERTEX
  8
0
 10
34.764320
 20
312.160891
 42
0.016715
  0
VERTEX
  8
0
 10
31.960307
 20
308.840523
 42
0.039501
  0
VERTEX
  8
0
 10
30.162653
 20
306.149265
 42
0.039161
  0
VERTEX
  8
0
 10
28.801713
 20
303.194710
 42
0.016176
  0
VERTEX
  8
0
 10
27.411436
 20
299.013727
 42
0.020706
  0
VERTEX
  8
0
 10
26.695824
 20
296.178858
 42
0.051825
  0
VERTEX
  8
0
 10
26.478121
 20
294.058284
 42
0.047863
  0
VERTEX
  8
0
 10
26.693636
 20
291.841278
 42
0.015563
  0
VERTEX
  8
0
 10
27.424446
 20
288.628763
 42
0.037856
  0
VERTEX
  8
0
 10
30.036202
 20
281.015680
 42
0.055341
  0
VERTEX
  8
0
 10
33.534223
 20
274.859570
 42
0.061370
  0
VERTEX
  8
0
 10
37.971520
 20
270.095297
 42
0.063903
  0
VERTEX
  8
0
 10
43.376004
 20
266.625864
 42
-0.019303
  0
VERTEX
  8
0
 10
45.379366
 20
265.578643
 42
-0.095163
  0
VERTEX
  8
0
 10
46.341392
 20
264.751716
 42
-0.158446
  0
VERTEX
  8
0
 10
46.677576
 20
263.849654
 42
-0.085024
  0
VERTEX
  8
0
 10
46.525330
 20
262.659027
 42
0.004353
  0
VERTEX
  8
0
 10
45.248422
 20
258.350419
 42
0.007823
  0
VERTEX
  8
0
 10
44.287147
 20
254.790893
 42
0.008356
  0
VERTEX
  8
0
 10
43.480523
 20
251.367622
 42
0.005914
  0
VERTEX
  8
0
 10
42.684952
 20
247.500000
 42
0.041579
  0
VERTEX
  8
0
 10
41.784813
 20
239.192719
 42
0.006794
  0
VERTEX
  8
0
 10
41.602730
 20
222.990762
 42
0.007030
  0
VERTEX
  8
0
 10
41.868749
 20
206.780415
 42
0.037686
  0
VERTEX
  8
0
 10
42.801244
 20
198.000000
 42
0.004061
  0
VERTEX
  8
0
 10
44.451274
 20
189.386183
 42
0.006749
  0
VERTEX
  8
0
 10
45.998687
 20
182.157530
 42
0.006909
  0
VERTEX
  8
0
 10
47.713965
 20
175.093217
 42
0.004528
  0
VERTEX
  8
0
 10
49.876222
 20
167.000000
 42
-0.018765
  0
VERTEX
  8
0
 10
50.691164
 20
163.559808
 42
-0.013011
  0
VERTEX
  8
0
 10
51.363693
 20
159.619611
 42
-0.013114
  0
VERTEX
  8
0
 10
51.821233
 20
155.720439
 42
-0.021819
  0
VERTEX
  8
0
 10
51.976464
 20
152.416781
 42
0.036539
  0
VERTEX
  8
0
 10
52.769295
 20
142.055342
 42
0.042392
  0
VERTEX
  8
0
 10
55.063140
 20
132.438497
 42
0.046658
  0
VERTEX
  8
0
 10
58.631686
 20
124.275619
 42
0.075641
  0
VERTEX
  8
0
 10
63.244133
 20
118.287844
 42
0.051117
  0
VERTEX
  8
0
 10
67.244331
 20
115.175028
 42
0.026376
  0
VERTEX
  8
0
 10
72.795605
 20
112.096052
 42
0.025199
  0
VERTEX
  8
0
 10
79.106969
 20
109.403263
 42
0.027516
  0
VERTEX
  8
0
 10
85.476556
 20
107.447793
 42
0.022035
  0
VERTEX
  8
0
 10
89.632275
 20
106.610640
 42
0.024263
  0
VERTEX
  8
0
 10
93.714083
 20
106.175490
 42
0.018397
  0
VERTEX
  8
0
 10
98.662243
 20
106.072068
 42
0.006503
  0
VERTEX
  8
0
 10
105.750019
 20
106.276947
 42
0.000000
  0
VERTEX
  8
0
 10
119.046925
 20
106.834456
 42
0.000000
  0
VERTEX
  8
0
 10
118.427527
 20
102.165200
 42
0.056865
  0
VERTEX
  8
0
 10
118.347532
 20
97.788942
 42
0.029375
  0
VERTEX
  8
0
 10
119.188615
 20
92.372895
 42
0.029371
  0
VERTEX
  8
0
 10
120.644217
 20
87.144410
 42
0.062529
  0
VERTEX
  8
0
 10
122.486300
 20
83.380565
 42
0.044485
  0
VERTEX
  8
0
 10
123.417970
 20
82.202055
 42
0.016007
  0
VERTEX
  8
0
 10
124.937896
 20
80.695675
 42
0.015731
  0
VERTEX
  8
0
 10
126.717935
 20
79.142464
 42
0.018004
  0
VERTEX
  8
0
 10
128.515760
 20
77.775783
 42
0.000000
  0
VERTEX
  8
0
 10
132.895665
 20
74.688541
 42
0.000000
  0
VERTEX
  8
0
 10
132.315795
 20
68.478849
 42
0.016099
  0
VERTEX
  8
0
 10
132.145322
 20
65.683812
 42
0.010069
  0
VERTEX
  8
0
 10
132.117181
 20
62.405107
 42
0.010103
  0
VERTEX
  8
0
 10
132.219944
 20
59.170589
 42
0.018085
  0
VERTEX
  8
0
 10
132.453950
 20
56.522274
 42
0.022640
  0
VERTEX
  8
0
 10
133.016331
 20
53.237614
 42
0.062283
  0
VERTEX
  8
0
 10
133.797069
 20
51.025210
 42
0.060298
  0
VERTEX
  8
0
 10
135.113911
 20
49.033162
 42
0.020214
  0
VERTEX
  8
0
 10
137.482947
 20
46.464421
 42
0.021130
  0
VERTEX
  8
0
 10
139.850467
 20
44.288970
 42
0.047436
  0
VERTEX
  8
0
 10
141.854155
 20
42.900181
 42
0.054185
  0
VERTEX
  8
0
 10
143.908051
 20
42.024471
 42
0.036494
  0
VERTEX
  8
0
 10
146.396959
 20
41.463181
 42
0.000000
  0
VERTEX
  8
0
 10
151.000000
 20
40.772912
 42
0.000000
  0
VERTEX
  8
0
 10
151.000000
 20
28.386456
 42
0.000000
  0
VERTEX
  8
0
 10
151.000000
 20
16.000000
 42
0.000000
  0
VERTEX
  8
0
 10
154.000000
 20
16.000000
 42
0.000000
  0
VERTEX
  8
0
 10
157.000000
 20
16.000000
 42
0.000000
  0
VERTEX
  8
0
 10
157.000000
 20
28.524751
 42
-0.002933
  0
VERTEX
  8
0
 10
157.047074
 20
36.548517
 42
-0.039694
  0
VERTEX
  8
0
 10
157.313539
 20
39.466033
 42
-0.127326
  0
VERTEX
  8
0
 10
157.992473
 20
40.971304
 42
-0.133400
  0
VERTEX
  8
0
 10
159.306370
 20
41.926382
 42
0.038715
  0
VERTEX
  8
0
 10
160.413952
 20
42.448775
 42
0.014442
  0
VERTEX
  8
0
 10
161.883923
 20
43.343940
 42
0.014209
  0
VERTEX
  8
0
 10
163.436692
 20
44.416044
 42
0.016703
  0
VERTEX
  8
0
 10
164.842287
 20
45.520747
 42
0.073817
  0
VERTEX
  8
0
 10
168.947621
 20
50.164607
 42
0.064304
  0
VERTEX
  8
0
 10
171.761770
 20
56.018312
 42
0.052018
  0
VERTEX
  8
0
 10
173.398481
 20
63.486296
 42
0.026804
  0
VERTEX
  8
0
 10
173.955867
 20
73.050000
 42
0.012303
  0
VERTEX
  8
0
 10
173.828092
 20
79.442948
 42
0.072652
  0
VERTEX
  8
0
 10
173.198385
 20
82.723601
 42
0.166102
  0
VERTEX
  8
0
 10
171.907390
 20
84.373752
 42
0.145441
  0
VERTEX
  8
0
 10
169.800000
 20
85.000000
 42
0.177726
  0
VERTEX
  8
0
 10
168.647680
 20
84.577045
 42
0.174225
  0
VERTEX
  8
0
 10
168.030834
 20
83.505300
 42
0.047938
  0
VERTEX
  8
0
 10
167.837107
 20
81.132369
 42
0.003803
  0
VERTEX
  8
0
 10
167.975756
 20
74.816835
 42
-0.038867
  0
VERTEX
  8
0
 10
167.533423
 20
65.635146
 42
-0.057914
  0
VERTEX
  8
0
 10
165.611861
 20
57.834726
 42
-0.070540
  0
VERTEX
  8
0
 10
162.403059
 20
51.934109
 42
-0.121856
  0
VERTEX
  8
0
 10
158.116011
 20
48.400488
 42
-0.084799
  0
VERTEX
  8
0
 10
154.171808
 20
47.276355
 42
-0.042649
  0
VERTEX
  8
0
 10
148.980608
 20
47.155853
 42
-0.042394
  0
VERTEX
  8
0
 10
144.042709
 20
47.885859
 42
-0.126684
  0
VERTEX
  8
0
 10
141.043086
 20
49.461008
 42
-0.092440
  0
VERTEX
  8
0
 10
139.305291
 20
51.742812
 42
-0.050548
  0
VERTEX
  8
0
 10
138.044105
 20
55.038245
 42
-0.042423
  0
VERTEX
  8
0
 10
137.293164
 20
59.171933
 42
-0.028011
  0
VERTEX
  8
0
 10
137.105257
 20
64.000000
 42
-0.017193
  0
VERTEX
  8
0
 10
137.373214
 20
69.199475
 42
-0.071909
  0
VERTEX
  8
0
 10
138.083941
 20
72.242549
 42
-0.121721
  0
VERTEX
  8
0
 10
139.403227
 20
74.109150
 42
-0.101413
  0
VERTEX
  8
0
 10
141.527583
 20
75.300621
 42
0.153305
  0
VERTEX
  8
0
 10
147.776402
 20
79.698342
 42
0.115317
  0
VERTEX
  8
0
 10
151.252233
 20
87.405332
 42
0.098745
  0
VERTEX
  8
0
 10
151.225702
 20
96.917106
 42
0.084950
  0
VERTEX
  8
0
 10
147.611880
 20
106.258349
 42
0.077502
  0
VERTEX
  8
0
 10
143.138441
 20
111.641952
 42
0.129289
  0
VERTEX
  8
0
 10
137.905349
 20
114.271452
 42
0.076126
  0
VERTEX
  8
0
 10
130.120456
 20
114.711883
 42
0.014494
  0
VERTEX
  8
0
 10
116.000000
 20
112.945759
 42
-0.033175
  0
VERTEX
  8
0
 10
108.101038
 20
112.256099
 42
-0.014368
  0
VERTEX
  8
0
 10
97.544551
 20
112.340247
 42
-0.013213
  0
VERTEX
  8
0
 10
87.362175
 20
112.983919
 42
-0.058598
  0
VERTEX
  8
0
 10
81.500000
 20
114.212684
 42
-0.065885
  0
VERTEX
  8
0
 10
70.796410
 20
119.452731
 42
-0.100623
  0
VERTEX
  8
0
 10
63.524126
 20
126.754341
 42
-0.093967
  0
VERTEX
  8
0
 10
59.369800
 20
136.706748
 42
-0.051417
  0
VERTEX
  8
0
 10
57.975412
 20
149.899223
 42
0.011711
  0
VERTEX
  8
0
 10
57.853665
 20
154.583820
 42
0.018890
  0
VERTEX
  8
0
 10
57.506248
 20
158.558758
 42
0.021790
  0
VERTEX
  8
0
 10
56.916819
 20
162.023082
 42
0.027733
  0
VERTEX
  8
0
 10
56.059841
 20
165.149304
 42
-0.021370
  0
VERTEX
  8
0
 10
54.397896
 20
170.922979
 42
-0.004975
  0
VERTEX
  8
0
 10
52.121197
 20
180.753293
 42
-0.005369
  0
VERTEX
  8
0
 10
49.864729
 20
191.503330
 42
-0.007614
  0
VERTEX
  8
0
 10
48.106354
 20
201.115297
 42
-0.032476
  0
VERTEX
  8
0
 10
47.109043
 20
210.977733
 42
-0.013694
  0
VERTEX
  8
0
 10
46.996258
 20
224.301938
 42
-0.013728
  0
VERTEX
  8
0
 10
47.616493
 20
237.666300
 42
-0.031014
  0
VERTEX
  8
0
 10
48.987953
 20
247.700374
 42
-0.015334
  0
VERTEX
  8
0
 10
51.588441
 20
258.881696
 42
-0.029936
  0
VERTEX
  8
0
 10
54.458024
 20
267.569113
 42
-0.031263
  0
VERTEX
  8
0
 10
58.255030
 20
275.605428
 42
-0.018442
  0
VERTEX
  8
0
 10
63.722476
 20
284.710494
 42
-0.038166
  0
VERTEX
  8
0
 10
73.012674
 20
296.831472
 42
-0.035677
  0
VERTEX
  8
0
 10
84.235307
 20
307.696878
 42
-0.033679
  0
VERTEX
  8
0
 10
97.525398
 20
317.398486
 42
-0.026977
  0
VERTEX
  8
0
 10
113.000000
 20
326.040044
 42
-0.002635
  0
VERTEX
  8
0
 10
119.897415
 20
329.372602
 42
-0.008979
  0
VERTEX
  8
0
 10
124.438278
 20
331.437898
 42
-0.013155
  0
VERTEX
  8
0
 10
128.006783
 20
332.873945
 42
-0.014924
  0
VERTEX
  8
0
 10
131.500000
 20
334.056576
 42
0.001315
  0
VERTEX
  8
0
 10
133.214575
 20
334.585494
 42
0.001051
  0
VERTEX
  8
0
 10
135.059375
 20
335.164157
 42
0.001062
  0
VERTEX
  8
0
 10
136.764322
 20
335.706877
 42
0.002694
  0
VERTEX
  8
0
 10
138.000000
 20
336.110466
 42
-0.021859
  0
VERTEX
  8
0
 10
139.550451
 20
336.551886
 42
-0.002661
  0
VERTEX
  8
0
 10
142.996875
 20
337.352787
 42
-0.003152
  0
VERTEX
  8
0
 10
147.105022
 20
338.257260
 42
-0.002594
  0
VERTEX
  8
0
 10
151.500000
 20
339.172057
 42
-0.013649
  0
VERTEX
  8
0
 10
158.057797
 20
340.316201
 42
-0.017715
  0
VERTEX
  8
0
 10
164.121799
 20
340.986007
 42
-0.013561
  0
VERTEX
  8
0
 10
171.351297
 20
341.329409
 42
-0.004459
  0
VERTEX
  8
0
 10
182.000000
 20
341.451092
 42
-0.004570
  0
VERTEX
  8
0
 10
190.653276
 20
341.393703
 42
-0.008429
  0
VERTEX
  8
0
 10
197.686057
 20
341.164138
 42
-0.009341
  0
VERTEX
  8
0
 10
203.128370
 20
340.792559
 42
-0.042644
  0
VERTEX
  8
0
 10
206.250000
 20
340.250000
 42
0.001459
  0
VERTEX
  8
0
 10
208.412407
 20
339.687686
 42
0.000859
  0
VERTEX
  8
0
 10
211.000000
 20
339.027597
 42
0.000859
  0
VERTEX
  8
0
 10
213.587721
 20
338.376937
 42
0.001470
  0
VERTEX
  8
0
 10
215.750000
 20
337.843947
 42
-0.036166
  0
VERTEX
  8
0
 10
221.444734
 20
336.013237
 42
-0.012982
  0
VERTEX
  8
0
 10
229.266118
 20
332.620303
 42
-0.013197
  0
VERTEX
  8
0
 10
237.265409
 20
328.640544
 42
-0.021976
  0
VERTEX
  8
0
 10
243.750000
 20
324.823717
 42
-0.003427
  0
VERTEX
  8
0
 10
246.146009
 20
323.244340
 42
-0.005511
  0
VERTEX
  8
0
 10
248.164062
 20
321.861726
 42
-0.001447
  0
VERTEX
  8
0
 10
249.897406
 20
320.638385
 42
-0.242946
  0
VERTEX
  8
0
 10
250.000000
 20
320.439702
 42
-0.122181
  0
VERTEX
  8
0
 10
249.944038
 20
320.214110
 42
-0.002393
  0
VERTEX
  8
0
 10
249.377916
 20
319.155548
 42
-0.005588
  0
VERTEX
  8
0
 10
248.693838
 20
317.924103
 42
-0.003701
  0
VERTEX
  8
0
 10
247.882268
 20
316.525033
 42
0.043950
  0
VERTEX
  8
0
 10
246.968663
 20
314.610326
 42
0.025158
  0
VERTEX
  8
0
 10
246.194221
 20
312.167919
 42
0.023279
  0
VERTEX
  8
0
 10
245.603662
 20
309.399890
 42
0.020891
  0
VERTEX
  8
0
 10
245.246906
 20
306.487152
 42
0.000000
  0
VERTEX
  8
0
 10
244.729274
 20
300.038559
 42
0.000000
  0
VERTEX
  8
0
 10
237.409218
 20
294.529042
 42
0.057145
  0
VERTEX
  8
0
 10
224.424816
 20
282.203609
 42
0.044478
  0
VERTEX
  8
0
 10
213.291326
 20
266.218397
 42
0.041632
  0
VERTEX
  8
0
 10
204.502609
 20
247.366942
 42
0.036630
  0
VERTEX
  8
0
 10
198.506566
 20
226.500000
 42
0.009028
  0
VERTEX
  8
0
 10
196.938790
 20
218.282707
 42
0.006506
  0
VERTEX
  8
0
 10
195.474939
 20
209.062858
 42
0.005913
  0
VERTEX
  8
0
 10
194.346767
 20
200.605975
 42
0.028099
  0
VERTEX
  8
0
 10
194.031710
 20
195.736431
 42
-0.021205
  0
VERTEX
  8
0
 10
193.951929
 20
194.168153
 42
-0.019534
  0
VERTEX
  8
0
 10
193.739039
 20
192.568334
 42
-0.019959
  0
VERTEX
  8
0
 10
193.436611
 20
191.158212
 42
-0.059088
  0
VERTEX
  8
0
 10
193.079913
 20
190.236431
 42
0.042974
  0
VERTEX
  8
0
 10
189.749314
 20
182.388664
 42
0.027590
  0
VERTEX
  8
0
 10
187.201652
 20
172.823346
 42
0.027741
  0
VERTEX
  8
0
 10
185.787822
 20
163.447523
 42
0.063972
  0
VERTEX
  8
0
 10
186.026628
 20
156.336391
 42
0.053425
  0
VERTEX
  8
0
 10
188.080731
 20
148.858772
 42
0.051438
  0
VERTEX
  8
0
 10
191.691016
 20
141.883594
 42
0.049116
  0
VERTEX
  8
0
 10
196.825062
 20
135.516016
 42
0.041095
  0
VERTEX
  8
0
 10
203.400038
 20
129.842382
 42
-0.003712
  0
VERTEX
  8
0
 10
205.915087
 20
127.980648
 42
-0.123828
  0
VERTEX
  8
0
 10
206.382704
 20
127.402087
 42
-0.515753
  0
VERTEX
  8
0
 10
206.195096
 20
127.073659
 42
-0.024870
  0
VERTEX
  8
0
 10
204.715138
 20
127.000000
 42
0.051752
  0
VERTEX
  8
0
 10
201.670962
 20
126.684070
 42
0.079311
  0
VERTEX
  8
0
 10
199.198724
 20
125.739050
 42
0.089944
  0
VERTEX
  8
0
 10
197.361106
 20
124.182401
 42
0.088519
  0
VERTEX
  8
0
 10
196.174738
 20
122.071408
 42
-0.034851
  0
VERTEX
  8
0
 10
195.209302
 20
119.820038
 42
-0.243701
  0
VERTEX
  8
0
 10
194.265354
 20
119.149083
 42
-0.270146
  0
VERTEX
  8
0
 10
193.247848
 20
119.564772
 42
-0.040987
  0
VERTEX
  8
0
 10
192.008098
 20
121.484869
 42
0.135964
  0
VERTEX
  8
0
 10
190.136561
 20
123.447407
 42
0.087989
  0
VERTEX
  8
0
 10
187.184984
 20
124.569627
 42
0.066230
  0
VERTEX
  8
0
 10
183.235332
 20
124.789208
 42
0.035874
  0
VERTEX
  8
0
 10
178.414418
 20
124.068261
 42
0.032521
  0
VERTEX
  8
0
 10
174.162617
 20
122.821753
 42
0.067530
  0
VERTEX
  8
0
 10
171.110329
 20
121.213038
 42
0.106817
  0
VERTEX
  8
0
 10
169.475271
 20
119.415361
 42
0.226677
  0
VERTEX
  8
0
 10
169.329507
 20
117.583703
 42
0.095974
  0
VERTEX
  8
0
 10
169.790018
 20
116.845522
 42
0.105208
  0
VERTEX
  8
0
 10
170.479927
 20
116.361254
 42
0.086156
  0
VERTEX
  8
0
 10
171.422991
 20
116.139958
 42
0.045028
  0
VERTEX
  8
0
 10
172.632541
 20
116.177945
 42
-0.058464
  0
VERTEX
  8
0
 10
174.111723
 20
116.184743
 42
-0.166941
  0
VERTEX
  8
0
 10
175.028791
 20
115.749606
 42
-0.109421
  0
VERTEX
  8
0
 10
175.712358
 20
114.703895
 42
-0.018284
  0
VERTEX
  8
0
 10
176.481535
 20
112.416765
 42
0.083150
  0
VERTEX
  8
0
 10
180.257529
 20
104.674692
 42
0.042446
  0
VERTEX
  8
0
 10
187.283439
 20
96.409653
 42
0.040297
  0
VERTEX
  8
0
 10
196.258434
 20
88.836813
 42
0.045224
  0
VERTEX
  8
0
 10
206.006089
 20
83.126408
 42
0.000000
  0
VERTEX
  8
0
 10
210.500000
 20
81.013266
 42
0.000000
  0
VERTEX
  8
0
 10
210.571170
 20
71.149641
 42
0.007773
  0
VERTEX
  8
0
 10
210.703243
 20
65.347870
 42
0.038636
  0
VERTEX
  8
0
 10
211.078899
 20
62.111022
 42
0.055861
  0
VERTEX
  8
0
 10
211.884012
 20
59.548120
 42
0.028534
  0
VERTEX
  8
0
 10
213.422561
 20
56.541928
 42
0.068162
  0
VERTEX
  8
0
 10
216.779959
 20
52.270938
 42
0.093330
  0
VERTEX
  8
0
 10
220.854969
 20
49.587363
 42
0.080146
  0
VERTEX
  8
0
 10
226.105490
 20
48.323119
 42
0.038343
  0
VERTEX
  8
0
 10
233.062447
 20
48.325297
 42
0.000000
  0
VERTEX
  8
0
 10
240.734402
 20
48.916915
 42
0.000000
  0
VERTEX
  8
0
 10
241.356360
 20
43.708458
 42
0.023167
  0
VERTEX
  8
0
 10
242.200421
 20
38.644960
 42
0.005214
  0
VERTEX
  8
0
 10
244.123726
 20
30.121484
 42
0.004536
  0
VERTEX
  8
0
 10
246.208523
 20
21.654779
 42
0.034354
  0
VERTEX
  8
0
 10
247.498994
 20
17.750000
 42
0.105044
  0
VERTEX
  8
0
 10
248.002463
 20
17.009620
 42
0.081192
  0
VERTEX
  8
0
 10
248.808624
 20
16.455415
 42
0.067385
  0
VERTEX
  8
0
 10
249.892781
 20
16.113304
 42
0.042801
  0
VERTEX
  8
0
 10
251.213978
 20
16.000000
 42
0.020033
  0
VERTEX
  8
0
 10
252.797148
 20
16.063458
 42
0.145236
  0
VERTEX
  8
0
 10
253.499931
 20
16.334893
 42
0.263326
  0
VERTEX
  8
0
 10
253.717768
 20
16.851851
 42
0.070030
  0
VERTEX
  8
0
 10
253.482692
 20
17.750000
 42
-0.033636
  0
VERTEX
  8
0
 10
251.337281
 20
24.042756
 42
-0.013637
  0
VERTEX
  8
0
 10
249.235073
 20
32.859837
 42
-0.011927
  0
VERTEX
  8
0
 10
247.250058
 20
43.589805
 42
-0.007955
  0
VERTEX
  8
0
 10
245.466561
 20
55.961993
 42
-0.003123
  0
VERTEX
  8
0
 10
244.227043
 20
66.154783
 42
-0.043865
  0
VERTEX
  8
0
 10
244.127210
 20
69.838623
 42
-0.148007
  0
VERTEX
  8
0
 10
244.835901
 20
71.753521
 42
-0.140701
  0
VERTEX
  8
0
 10
246.500000
 20
73.000000
 42
0.118947
  0
VERTEX
  8
0
 10
248.587580
 20
74.428505
 42
0.372306
  0
VERTEX
  8
0
 10
248.620705
 20
75.998339
 42
0.149078
  0
VERTEX
  8
0
 10
246.392639
 20
77.468000
 42
0.035420
  0
VERTEX
  8
0
 10
242.000000
 20
78.433301
 42
-0.030596
  0
VERTEX
  8
0
 10
226.663031
 20
81.649007
 42
-0.034295
  0
VERTEX
  8
0
 10
212.425365
 20
86.627978
 42
-0.037332
  0
VERTEX
  8
0
 10
200.331953
 20
92.917857
 42
-0.063783
  0
VERTEX
  8
0
 10
191.506893
 20
100.078123
 42
-0.028772
  0
VERTEX
  8
0
 10
187.140203
 20
105.217955
 42
-0.044231
  0
VERTEX
  8
0
 10
184.049414
 20
110.166323
 42
-0.054623
  0
VERTEX
  8
0
 10
182.506605
 20
114.255547
 42
-0.270356
  0
VERTEX
  8
0
 10
183.151838
 20
116.529764
 42
-0.123762
  0
VERTEX
  8
0
 10
184.081843
 20
117.062231
 42
-0.112845
  0
VERTEX
  8
0
 10
185.187326
 20
117.116414
 42
-0.058082
  0
VERTEX
  8
0
 10
186.768065
 20
116.641604
 42
-0.011733
  0
VERTEX
  8
0
 10
189.436429
 20
115.413640
 42
0.038819
  0
VERTEX
  8
0
 10
194.476367
 20
113.417170
 42
0.124990
  0
VERTEX
  8
0
 10
198.050489
 20
113.235174
 42
0.212567
  0
VERTEX
  8
0
 10
200.181495
 20
114.745968
 42
0.134600
  0
VERTEX
  8
0
 10
201.000000
 20
117.731385
 42
-0.120215
  0
VERTEX
  8
0
 10
201.492246
 20
119.749146
 42
-0.251806
  0
VERTEX
  8
0
 10
202.787675
 20
120.633263
 42
-0.163832
  0
VERTEX
  8
0
 10
204.756691
 20
120.194489
 42
-0.055144
  0
VERTEX
  8
0
 10
207.122912
 20
118.379897
 42
0.000000
  0
VERTEX
  8
0
 10
210.126429
 20
115.500000
 42
0.000000
  0
VERTEX
  8
0
 10
229.813215
 20
114.861843
 42
-0.004039
  0
VERTEX
  8
0
 10
237.937062
 20
114.532797
 42
-0.004020
  0
VERTEX
  8
0
 10
246.067007
 20
114.072155
 42
-0.003940
  0
VERTEX
  8
0
 10
253.164962
 20
113.556504
 42
-0.015717
  0
VERTEX
  8
0
 10
257.500000
 20
113.069678
 42
-0.011490
  0
VERTEX
  8
0
 10
265.183043
 20
111.780541
 42
-0.001109
  0
VERTEX
  8
0
 10
283.754536
 20
108.181170
 42
-0.001465
  0
VERTEX
  8
0
 10
302.332788
 20
104.481139
 42
-0.005451
  0
VERTEX
  8
0
 10
314.000000
 20
101.989238
 42
0.003914
  0
VERTEX
  8
0
 10
334.125887
 20
97.625969
 42
0.014715
  0
VERTEX
  8
0
 10
346.840855
 20
95.361597
 42
0.022536
  0
VERTEX
  8
0
 10
356.521720
 20
94.373190
 42
0.025892
  0
VERTEX
  8
0
 10
365.811620
 20
94.327588
 42
0.003843
  0
VERTEX
  8
0
 10
370.123719
 20
94.563050
 42
0.004399
  0
VERTEX
  8
0
 10
374.241538
 20
94.856056
 42
0.003982
  0
VERTEX
  8
0
 10
377.729101
 20
95.163048
 42
0.024922
  0
VERTEX
  8
0
 10
379.500000
 20
95.422719
 42
-0.086010
  0
VERTEX
  8
0
 10
381.385820
 20
95.467666
 42
-0.128783
  0
VERTEX
  8
0
 10
382.892854
 20
94.823517
 42
-0.057226
  0
VERTEX
  8
0
 10
384.647547
 20
93.106971
 42
-0.006542
  0
VERTEX
  8
0
 10
388.085565
 20
88.758291
 42
-0.016265
  0
VERTEX
  8
0
 10
395.821799
 20
77.998566
 42
-0.013122
  0
VERTEX
  8
0
 10
403.440186
 20
65.970159
 42
-0.008633
  0
VERTEX
  8
0
 10
409.874563
 20
54.760523
 42
-0.126626
  0
VERTEX
  8
0
 10
411.000000
 20
50.387819
 42
-0.171237
  0
VERTEX
  8
0
 10
410.767577
 20
49.729058
 42
-0.042690
  0
VERTEX
  8
0
 10
409.965693
 20
48.891593
 42
-0.038650
  0
VERTEX
  8
0
 10
408.826830
 20
48.035649
 42
-0.030579
  0
VERTEX
  8
0
 10
407.478955
 20
47.288574
 42
0.054366
  0
VERTEX
  8
0
 10
405.823194
 20
46.265209
 42
0.030078
  0
VERTEX
  8
0
 10
404.037852
 20
44.691875
 42
0.028009
  0
VERTEX
  8
0
 10
402.287189
 20
42.744656
 42
0.026450
  0
VERTEX
  8
0
 10
400.728955
 20
40.577614
 42
0.020781
  0
VERTEX
  8
0
 10
398.983327
 20
37.591192
 42
0.054457
  0
VERTEX
  8
0
 10
398.066658
 20
35.286771
 42
0.051617
  0
VERTEX
  8
0
 10
397.642972
 20
32.767958
 42
0.017170
  0
VERTEX
  8
0
 10
397.533695
 20
29.022861
 42
0.034477
  0
VERTEX
  8
0
 10
397.953713
 20
23.364446
 42
0.080028
  0
VERTEX
  8
0
 10
399.218803
 20
19.314045
 42
0.121127
  0
VERTEX
  8
0
 10
401.274714
 20
16.890602
 42
0.157838
  0
VERTEX
  8
0
 10
404.025680
 20
16.000000
 42
0.019586
  0
VERTEX
  8
0
 10
406.244878
 20
16.086965
 42
0.297532
  0
VERTEX
  8
0
 10
406.826072
 20
16.534981
 42
0.261015
  0
VERTEX
  8
0
 10
406.690432
 20
17.302418
 42
0.016114
  0
VERTEX
  8
0
 10
405.111148
 20
19.111071
 42
-0.106211
  0
VERTEX
  8
0
 10
403.082427
 20
22.507844
 42
-0.061349
  0
VERTEX
  8
0
 10
402.112940
 20
27.188918
 42
-0.058693
  0
VERTEX
  8
0
 10
402.292387
 20
32.230976
 42
-0.072688
  0
VERTEX
  8
0
 10
403.669965
 20
36.716931
 42
-0.073384
  0
VERTEX
  8
0
 10
405.915790
 20
40.074243
 42
-0.093183
  0
VERTEX
  8
0
 10
408.881728
 20
42.323771
 42
-0.078261
  0
VERTEX
  8
0
 10
412.875041
 20
43.589117
 42
-0.037543
  0
VERTEX
  8
0
 10
418.250000
 20
43.996262
 42
-0.012512
  0
VERTEX
  8
0
 10
422.489328
 20
43.892512
 42
-0.076756
  0
VERTEX
  8
0
 10
424.624724
 20
43.453634
 42
-0.088306
  0
VERTEX
  8
0
 10
426.394609
 20
42.411702
 42
-0.019296
  0
VERTEX
  8
0
 10
429.000000
 20
40.000000
 42
-0.019262
  0
VERTEX
  8
0
 10
431.404728
 20
37.402493
 42
-0.087534
  0
VERTEX
  8
0
 10
432.449502
 20
35.634523
 42
-0.076988
  0
VERTEX
  8
0
 10
432.892146
 20
33.510305
 42
-0.012943
  0
VERTEX
  8
0
 10
433.000000
 20
29.344391
 42
-0.014274
  0
VERTEX
  8
0
 10
432.895117
 20
25.671107
 42
-0.048205
  0
VERTEX
  8
0
 10
432.528560
 20
23.300741
 42
-0.062647
  0
VERTEX
  8
0
 10
431.775999
 20
21.388275
 42
-0.037913
  0
VERTEX
  8
0
 10
430.449109
 20
19.344391
 42
0.000000
  0
VERTEX
  8
0
 10
427.898217
 20
16.000000
 42
0.000000
  0
VERTEX
  8
0
 10
431.204997
 20
16.000000
 42
0.076761
  0
VERTEX
  8
0
 10
433.419399
 20
16.341976
 42
0.156676
  0
VERTEX
  8
0
 10
434.838467
 20
17.349223
 42
0.070510
  0
VERTEX
  8
0
 10
436.056415
 20
19.568546
 42
0.007293
  0
VERTEX
  8
0
 10
438.086759
 20
25.190967
 42
0.153227
  0
VERTEX
  8
0
 10
438.290149
 20
32.487185
 42
0.086352
  0
VERTEX
  8
0
 10
434.414327
 20
40.541673
 42
0.086288
  0
VERTEX
  8
0
 10
428.042071
 20
46.818762
 42
0.152599
  0
VERTEX
  8
0
 10
421.061551
 20
49.000000
 42
-0.044438
  0
VERTEX
  8
0
 10
419.097311
 20
49.174919
 42
-0.067192
  0
VERTEX
  8
0
 10
417.465756
 20
49.700822
 42
-0.089297
  0
VERTEX
  8
0
 10
416.378656
 20
50.483696
 42
-0.194538
  0
VERTEX
  8
0
 10
416.000000
 20
51.420081
 42
0.115240
  0
VERTEX
  8
0
 10
415.553241
 20
53.332723
 42
0.002945
  0
VERTEX
  8
0
 10
411.558535
 20
61.298668
 42
0.006264
  0
VERTEX
  8
0
 10
407.605353
 20
68.832272
 42
0.030761
  0
VERTEX
  8
0
 10
405.065658
 20
72.907791
 42
-0.015112
  0
VERTEX
  8
0
 10
404.274794
 20
74.092672
 42
-0.018163
  0
VERTEX
  8
0
 10
403.606787
 20
75.253949
 42
-0.017067
  0
VERTEX
  8
0
 10
403.118790
 20
76.260173
 42
-0.104737
  0
VERTEX
  8
0
 10
403.000000
 20
76.821037
 42
0.067554
  0
VERTEX
  8
0
 10
402.944092
 20
77.232952
 42
0.059738
  0
VERTEX
  8
0
 10
402.779688
 20
77.633888
 42
0.062837
  0
VERTEX
  8
0
 10
402.536897
 20
77.964108
 42
0.098587
  0
VERTEX
  8
0
 10
402.250000
 20
78.166667
 42
-0.119403
  0
VERTEX
  8
0
 10
401.830223
 20
78.489713
 42
-0.007583
  0
VERTEX
  8
0
 10
400.868270
 20
79.723958
 42
-0.010788
  0
VERTEX
  8
0
 10
399.765143
 20
81.251948
 42
-0.007795
  0
VERTEX
  8
0
 10
398.599430
 20
83.000000
 42
0.010356
  0
VERTEX
  8
0
 10
397.212554
 20
85.056795
 42
0.005550
  0
VERTEX
  8
0
 10
395.420132
 20
87.540767
 42
0.005523
  0
VERTEX
  8
0
 10
393.534472
 20
90.035610
 42
0.008602
  0
VERTEX
  8
0
 10
391.849430
 20
92.138780
 42
-0.029910
  0
VERTEX
  8
0
 10
388.542137
 20
96.647590
 42
-0.258520
  0
VERTEX
  8
0
 10
388.380905
 20
99.046716
 42
-0.195774
  0
VERTEX
  8
0
 10
390.375029
 20
100.886926
 42
-0.017318
  0
VERTEX
  8
0
 10
397.000000
 20
103.111729
 42
0.027497
  0
VERTEX
  8
0
 10
402.580697
 20
105.113088
 42
0.020772
  0
VERTEX
  8
0
 10
408.470650
 20
107.892112
 42
0.020601
  0
VERTEX
  8
0
 10
414.173767
 20
111.184729
 42
0.025291
  0
VERTEX
  8
0
 10
419.194644
 20
114.734087
 42
0.005773
  0
VERTEX
  8
0
 10
421.421653
 20
116.525691
 42
0.008876
  0
VERTEX
  8
0
 10
423.303014
 20
118.132235
 42
0.004045
  0
VERTEX
  8
0
 10
424.855464
 20
119.528864
 42
0.198295
  0
VERTEX
  8
0
 10
425.028382
 20
119.897517
 42
-0.152052
  0
VERTEX
  8
0
 10
425.168577
 20
120.282940
 42
-0.004604
  0
VERTEX
  8
0
 10
426.225304
 20
121.644895
 42
-0.008720
  0
VERTEX
  8
0
 10
427.525888
 20
123.231963
 42
-0.005871
  0
VERTEX
  8
0
 10
429.063153
 20
125.000000
 42
0.049397
  0
VERTEX
  8
0
 10
434.133108
 20
131.972302
 42
0.031304
  0
VERTEX
  8
0
 10
438.664251
 20
140.949805
 42
0.025616
  0
VERTEX
  8
0
 10
442.845790
 20
152.278088
 42
0.014106
  0
VERTEX
  8
0
 10
446.845861
 20
166.500000
 42
0.033263
  0
VERTEX
  8
0
 10
447.766294
 20
171.573561
 42
0.007371
  0
VERTEX
  8
0
 10
448.632531
 20
180.364462
 42
0.007477
  0
VERTEX
  8
0
 10
449.238355
 20
189.191554
 42
0.031473
  0
VERTEX
  8
0
 10
449.188702
 20
194.500000
 42
0.010604
  0
VERTEX
  8
0
 10
447.513016
 20
212.372555
 42
0.023847
  0
VERTEX
  8
0
 10
445.312340
 20
225.806263
 42
0.029645
  0
VERTEX
  8
0
 10
442.228134
 20
236.979289
 42
0.030203
  0
VERTEX
  8
0
 10
437.859487
 20
247.637673
 42
0.007389
  0
VERTEX
  8
0
 10
436.616192
 20
250.121092
 42
0.010277
  0
VERTEX
  8
0
 10
435.425029
 20
252.304155
 42
0.007061
  0
VERTEX
  8
0
 10
434.372416
 20
254.083655
 42
0.117775
  0
VERTEX
  8
0
 10
433.891669
 20
254.566952
 42
-0.231092
  0
VERTEX
  8
0
 10
433.050078
 20
255.900371
 42
-0.108561
  0
VERTEX
  8
0
 10
433.274241
 20
257.978094
 42
-0.069599
  0
VERTEX
  8
0
 10
434.586318
 20
260.608331
 42
-0.035769
  0
VERTEX
  8
0
 10
436.886866
 20
263.493090
 42
0.057319
  0
VERTEX
  8
0
 10
440.345121
 20
268.234188
 42
0.058271
  0
VERTEX
  8
0
 10
442.613832
 20
273.611016
 42
0.060348
  0
VERTEX
  8
0
 10
443.526294
 20
279.182969
 42
0.071006
  0
VERTEX
  8
0
 10
442.992787
 20
284.500000
 42
0.063186
  0
VERTEX
  8
0
 10
440.300978
 20
291.481839
 42
0.079938
  0
VERTEX
  8
0
 10
436.099802
 20
296.965708
 42
0.080121
  0
VERTEX
  8
0
 10
430.398904
 20
300.846138
 42
0.063821
  0
VERTEX
  8
0
 10
423.304295
 20
303.120811
 42
0.048371
  0
VERTEX
  8
0
 10
416.549754
 20
303.704021
 42
0.063751
  0
VERTEX
  8
0
 10
410.432323
 20
302.855243
 42
0.066272
  0
VERTEX
  8
0
 10
404.909417
 20
300.536146
 42
0.058273
  0
VERTEX
  8
0
 10
399.915096
 20
296.768427
 42
-0.012307
  0
VERTEX
  8
0
 10
397.838696
 20
294.879657
 42
-0.121239
  0
VERTEX
  8
0
 10
396.794064
 20
294.346124
 42
-0.172268
  0
VERTEX
  8
0
 10
395.781880
 20
294.458209
 42
-0.031126
  0
VERTEX
  8
0
 10
394.107324
 20
295.403054
 42
0.028078
  0
VERTEX
  8
0
 10
388.931717
 20
298.365033
 42
0.008354
  0
VERTEX
  8
0
 10
380.714370
 20
302.303607
 42
0.008457
  0
VERTEX
  8
0
 10
372.331947
 20
305.980102
 42
0.025978
  0
VERTEX
  8
0
 10
366.500000
 20
308.072465
 42
-0.003089
  0
VERTEX
  8
0
 10
364.821902
 20
308.589179
 42
-0.002767
  0
VERTEX
  8
0
 10
363.087500
 20
309.145552
 42
-0.002774
  0
VERTEX
  8
0
 10
361.535794
 20
309.662353
 42
-0.008669
  0
VERTEX
  8
0
 10
360.500000
 20
310.033869
 42
0.023593
  0
VERTEX
  8
0
 10
359.385358
 20
310.396512
 42
0.005426
  0
VERTEX
  8
0
 10
357.471875
 20
310.898401
 42
0.005596
  0
VERTEX
  8
0
 10
355.252343
 20
311.428563
 42
0.005436
  0
VERTEX
  8
0
 10
353.000000
 20
311.914300
 42
-0.001925
  0
VERTEX
  8
0
 10
350.566191
 20
312.421317
 42
-0.001300
  0
VERTEX
  8
0
 10
347.793750
 20
313.017566
 42
-0.001310
  0
VERTEX
  8
0
 10
345.116149
 20
313.608057
 42
-0.002608
  0
VERTEX
  8
0
 10
343.000000
 20
314.092149
 42
0.038572
  0
VERTEX
  8
0
 10
340.138887
 20
314.533352
 42
0.003938
  0
VERTEX
  8
0
 10
333.291999
 20
314.999797
 42
0.004900
  0
VERTEX
  8
0
 10
325.112214
 20
315.411944
 42
0.003891
  0
VERTEX
  8
0
 10
316.270634
 20
315.701709
 42
0.000000
  0
VERTEX
  8
0
 10
294.041269
 20
316.257112
 42
0.000000
  0
VERTEX
  8
0
 10
291.486749
 20
319.606260
 42
0.059424
  0
VERTEX
  8
0
 10
288.346192
 20
322.843039
 42
0.047971
  0
VERTEX
  8
0
 10
284.307201
 20
325.523498
 42
0.046255
  0
VERTEX
  8
0
 10
279.669061
 20
327.471335
 42
0.046199
  0
VERTEX
  8
0
 10
274.750000
 20
328.534291
 42
0.000000
  0
VERTEX
  8
0
 10
269.000000
 20
329.230447
 42
0.000000
  0
VERTEX
  8
0
 10
269.000000
 20
334.568170
 42
0.020739
  0
VERTEX
  8
0
 10
268.858219
 20
337.984908
 42
0.042062
  0
VERTEX
  8
0
 10
268.411305
 20
340.635793
 42
0.031423
  0
VERTEX
  8
0
 10
267.440970
 20
343.624606
 42
0.007250
  0
VERTEX
  8
0
 10
265.420692
 20
348.522110
 42
0.066756
  0
VERTEX
  8
0
 10
263.440906
 20
351.831942
 42
0.034151
  0
VERTEX
  8
0
 10
260.169369
 20
355.410191
 42
0.033537
  0
VERTEX
  8
0
 10
256.285995
 20
358.646869
 42
0.047126
  0
VERTEX
  8
0
 10
252.404208
 20
360.940023
 42
0.072403
  0
VERTEX
  8
0
 10
246.999425
 20
362.581482
 42
0.041067
  0
VERTEX
  8
0
 10
240.163085
 20
363.048508
 42
0.040700
  0
VERTEX
  8
0
 10
233.219238
 20
362.385200
 42
0.062684
  0
SEQEND
  0
POLYLINE
  8
0
 66
1
 70
1
  0
VERTEX
  8
0
 10
252.234449
 20
353.968097
 42
-0.033561
  0
VERTEX
  8
0
 10
255.779789
 20
351.261033
 42
-0.057817
  0
VERTEX
  8
0
 10
258.270103
 20
348.512084
 42
-0.058100
  0
VERTEX
  8
0
 10
260.057100
 20
345.275701
 42
-0.034247
  0
VERTEX
  8
0
 10
261.448111
 20
341.077659
 42
-0.051651
  0
VERTEX
  8
0
 10
262.086299
 20
336.805460
 42
-0.056788
  0
VERTEX
  8
0
 10
261.800434
 20
332.631374
 42
-0.064680
  0
VERTEX
  8
0
 10
260.696421
 20
329.196835
 42
-0.144074
  0
VERTEX
  8
0
 10
258.889753
 20
327.163223
 42
-0.046209
  0
VERTEX
  8
0
 10
257.332499
 20
326.380217
 42
-0.212579
  0
VERTEX
  8
0
 10
256.347178
 20
326.424963
 42
-0.386135
  0
VERTEX
  8
0
 10
256.095317
 20
327.075286
 42
-0.080966
  0
VERTEX
  8
0
 10
256.768013
 20
328.225834
 42
0.067960
  0
VERTEX
  8
0
 10
257.218401
 20
328.952354
 42
0.019673
  0
VERTEX
  8
0
 10
257.708783
 20
330.180503
 42
0.019392
  0
VERTEX
  8
0
 10
258.157685
 20
331.622628
 42
0.019573
  0
VERTEX
  8
0
 10
258.491934
 20
333.090772
 42
0.108582
  0
VERTEX
  8
0
 10
258.286228
 20
339.597381
 42
0.091683
  0
VERTEX
  8
0
 10
255.404447
 20
345.868134
 42
0.093420
  0
VERTEX
  8
0
 10
250.532176
 20
350.600844
 42
0.118634
  0
VERTEX
  8
0
 10
244.655595
 20
352.735352
 42
0.035197
  0
VERTEX
  8
0
 10
239.405210
 20
352.955350
 42
0.048758
  0
VERTEX
  8
0
 10
234.733464
 20
352.363929
 42
0.054879
  0
VERTEX
  8
0
 10
230.726897
 20
350.978082
 42
0.069580
  0
VERTEX
  8
0
 10
227.457803
 20
348.828807
 42
0.021023
  0
VERTEX
  8
0
 10
226.133964
 20
347.564061
 42
0.025926
  0
VERTEX
  8
0
 10
225.015730
 20
346.274443
 42
0.025802
  0
VERTEX
  8
0
 10
224.208148
 20
345.121201
 42
0.140747
  0
VERTEX
  8
0
 10
224.000000
 20
344.396408
 42
-0.162090
  0
VERTEX
  8
0
 10
223.814031
 20
343.837819
 42
-0.106139
  0
VERTEX
  8
0
 10
223.297825
 20
343.388221
 42
-0.079132
  0
VERTEX
  8
0
 10
222.491459
 20
343.096503
 42
-0.047332
  0
VERTEX
  8
0
 10
221.474320
 20
343.000000
 42
-0.020495
  0
VERTEX
  8
0
 10
219.924617
 20
343.063548
 42
-0.285699
  0
VERTEX
  8
0
 10
219.495010
 20
343.382435
 42
-0.204936
  0
VERTEX
  8
0
 10
219.512523
 20
343.994910
 42
-0.011098
  0
VERTEX
  8
0
 10
220.381468
 20
345.770785
 42
-0.047898
  0
VERTEX
  8
0
 10
222.235045
 20
348.643784
 42
-0.032819
  0
VERTEX
  8
0
 10
224.837253
 20
351.526442
 42
-0.033140
  0
VERTEX
  8
0
 10
227.740248
 20
353.994599
 42
-0.055868
  0
VERTEX
  8
0
 10
230.500000
 20
355.599523
 42
-0.054319
  0
VERTEX
  8
0
 10
232.120646
 20
356.112571
 42
-0.015951
  0
VERTEX
  8
0
 10
234.698076
 20
356.544820
 42
-0.015816
  0
VERTEX
  8
0
 10
237.648474
 20
356.848686
 42
-0.016369
  0
VERTEX
  8
0
 10
240.578555
 20
356.960858
 42
-0.013878
  0
VERTEX
  8
0
 10
244.666847
 20
356.869982
 42
-0.050380
  0
VERTEX
  8
0
 10
247.233840
 20
356.480299
 42
-0.059135
  0
VERTEX
  8
0
 10
249.455473
 20
355.619984
 42
-0.024362
  0
SEQEND
  0
POLYLINE
  8
0
 66
1
 70
1
  0
VERTEX
  8
0
 10
66.282119
 20
312.638016
 42
-0.048463
  0
VERTEX
  8
0
 10
68.959667
 20
311.184842
 42
-0.054077
  0
VERTEX
  8
0
 10
71.201321
 20
309.288507
 42
-0.064839
  0
VERTEX
  8
0
 10
72.573954
 20
307.410294
 42
-0.270092
  0
VERTEX
  8
0
 10
72.538944
 20
306.063013
 42
-0.146498
  0
VERTEX
  8
0
 10
71.698342
 20
305.316334
 42
-0.103321
  0
VERTEX
  8
0
 10
70.459979
 20
305.027091
 42
-0.131934
  0
VERTEX
  8
0
 10
69.413373
 20
305.281891
 42
-0.273971
  0
VERTEX
  8
0
 10
69.000000
 20
305.979676
 42
0.209412
  0
VERTEX
  8
0
 10
68.784216
 20
306.472298
 42
0.024197
  0
VERTEX
  8
0
 10
67.836702
 20
307.265043
 42
0.025836
  0
VERTEX
  8
0
 10
66.556762
 20
308.134420
 42
0.018314
  0
VERTEX
  8
0
 10
65.039838
 20
308.979676
 42
0.068724
  0
VERTEX
  8
0
 10
60.431999
 20
310.581236
 42
0.054289
  0
VERTEX
  8
0
 10
55.169592
 20
311.049806
 42
0.054712
  0
VERTEX
  8
0
 10
49.976401
 20
310.376249
 42
0.073078
  0
VERTEX
  8
0
 10
45.575088
 20
308.596873
 42
0.125389
  0
VERTEX
  8
0
 10
39.710910
 20
302.800680
 42
0.116552
  0
VERTEX
  8
0
 10
37.132835
 20
294.743989
 42
0.117479
  0
VERTEX
  8
0
 10
38.441526
 20
286.436498
 42
0.128841
  0
VERTEX
  8
0
 10
43.345492
 20
279.937270
 42
-0.003477
  0
VERTEX
  8
0
 10
47.796211
 20
276.374245
 42
-0.044349
  0
VERTEX
  8
0
 10
49.329871
 20
274.885106
 42
-0.172251
  0
VERTEX
  8
0
 10
49.713448
 20
273.897126
 42
-0.204150
  0
VERTEX
  8
0
 10
49.350663
 20
272.971646
 42
-0.289464
  0
VERTEX
  8
0
 10
46.787309
 20
272.368974
 42
-0.085019
  0
VERTEX
  8
0
 10
43.079717
 20
274.405232
 42
-0.063169
  0
VERTEX
  8
0
 10
39.183347
 20
278.401366
 42
-0.051842
  0
VERTEX
  8
0
 10
36.100570
 20
283.509434
 42
-0.091947
  0
VERTEX
  8
0
 10
33.872039
 20
292.022662
 42
-0.101221
  0
VERTEX
  8
0
 10
34.968177
 20
300.465690
 42
-0.104424
  0
VERTEX
  8
0
 10
39.235794
 20
307.602067
 42
-0.103997
  0
VERTEX
  8
0
 10
46.029753
 20
312.416525
 42
-0.073215
  0
VERTEX
  8
0
 10
50.144523
 20
313.524734
 42
-0.026500
  0
VERTEX
  8
0
 10
56.198873
 20
313.912283
 42
-0.026391
  0
VERTEX
  8
0
 10
62.239755
 20
313.659429
 42
-0.076597
  0
SEQEND
  0
POLYLINE
  8
0
 66
1
 70
1
  0
VERTEX
  8
0
 10
340.036074
 20
309.565353
 42
-0.014464
  0
VERTEX
  8
0
 10
352.532117
 20
307.143215
 42
-0.022374
  0
VERTEX
  8
0
 10
363.141283
 20
304.262656
 42
-0.022748
  0
VERTEX
  8
0
 10
373.322191
 20
300.484464
 42
-0.015655
  0
VERTEX
  8
0
 10
384.500000
 20
295.328996
 42
-0.008242
  0
VERTEX
  8
0
 10
390.166304
 20
292.379487
 42
-0.061312
  0
VERTEX
  8
0
 10
392.635774
 20
290.620626
 42
-0.166039
  0
VERTEX
  8
0
 10
393.474083
 20
289.087400
 42
-0.167192
  0
VERTEX
  8
0
 10
393.196317
 20
287.366665
 42
0.046753
  0
VERTEX
  8
0
 10
392.764343
 20
286.339007
 42
0.012878
  0
VERTEX
  8
0
 10
392.281343
 20
284.651271
 42
0.012893
  0
VERTEX
  8
0
 10
391.830648
 20
282.701764
 42
0.013144
  0
VERTEX
  8
0
 10
391.484259
 20
280.744045
 42
0.027811
  0
VERTEX
  8
0
 10
391.228372
 20
278.007271
 42
0.056801
  0
VERTEX
  8
0
 10
391.391633
 20
275.859260
 42
0.049602
  0
VERTEX
  8
0
 10
392.054733
 20
273.624633
 42
0.016859
  0
VERTEX
  8
0
 10
393.441714
 20
270.529606
 42
0.051560
  0
VERTEX
  8
0
 10
396.409149
 20
265.775835
 42
0.041251
  0
VERTEX
  8
0
 10
400.497955
 20
261.329449
 42
0.042568
  0
VERTEX
  8
0
 10
405.049401
 20
257.799025
 42
0.074151
  0
VERTEX
  8
0
 10
409.389753
 20
255.826213
 42
0.033824
  0
VERTEX
  8
0
 10
411.489318
 20
255.376599
 42
0.011979
  0
VERTEX
  8
0
 10
414.542575
 20
255.010358
 42
0.011827
  0
VERTEX
  8
0
 10
417.925539
 20
254.767143
 42
0.013633
  0
VERTEX
  8
0
 10
421.159437
 20
254.699691
 42
0.000000
  0
VERTEX
  8
0
 10
428.818873
 20
254.748780
 42
0.000000
  0
VERTEX
  8
0
 10
431.330339
 20
250.124390
 42
-0.016433
  0
VERTEX
  8
0
 10
433.612017
 20
245.572556
 42
-0.011229
  0
VERTEX
  8
0
 10
435.914501
 20
240.265386
 42
-0.011307
  0
VERTEX
  8
0
 10
437.889032
 20
235.086717
 42
-0.024340
  0
VERTEX
  8
0
 10
439.121845
 20
231.000000
 42
-0.017444
  0
VERTEX
  8
0
 10
441.877144
 20
218.036500
 42
-0.019975
  0
VERTEX
  8
0
 10
443.576909
 20
205.484245
 42
-0.020791
  0
VERTEX
  8
0
 10
444.223394
 20
193.315056
 42
-0.022770
  0
VERTEX
  8
0
 10
443.821126
 20
181.500000
 42
-0.010728
  0
VERTEX
  8
0
 10
442.984387
 20
173.245390
 42
-0.021860
  0
VERTEX
  8
0
 10
441.906603
 20
166.819896
 42
-0.020755
  0
VERTEX
  8
0
 10
440.233594
 20
160.306027
 42
-0.008730
  0
VERTEX
  8
0
 10
437.471008
 20
151.692668
 42
-0.048728
  0
VERTEX
  8
0
 10
430.483680
 20
136.262406
 42
-0.061945
  0
VERTEX
  8
0
 10
421.075962
 20
123.792168
 42
-0.063419
  0
VERTEX
  8
0
 10
409.097686
 20
114.222608
 42
-0.054653
  0
VERTEX
  8
0
 10
394.500000
 20
107.382182
 42
-0.070709
  0
VERTEX
  8
0
 10
384.074724
 20
105.400638
 42
-0.015974
  0
VERTEX
  8
0
 10
365.999470
 20
105.134882
 42
-0.015390
  0
VERTEX
  8
0
 10
343.951710
 20
106.194459
 42
-0.011164
  0
VERTEX
  8
0
 10
319.500000
 20
108.675631
 42
0.001026
  0
VERTEX
  8
0
 10
314.320007
 20
109.307603
 42
0.000794
  0
VERTEX
  8
0
 10
308.675000
 20
109.975467
 42
0.000803
  0
VERTEX
  8
0
 10
303.404051
 20
110.582014
 42
0.001933
  0
VERTEX
  8
0
 10
299.500000
 20
111.009640
 42
-0.007736
  0
VERTEX
  8
0
 10
295.892979
 20
111.447152
 42
-0.004716
  0
VERTEX
  8
0
 10
291.646875
 20
112.069828
 42
-0.004725
  0
VERTEX
  8
0
 10
287.448997
 20
112.766640
 42
-0.008345
  0
VERTEX
  8
0
 10
284.000000
 20
113.432212
 42
0.004000
  0
VERTEX
  8
0
 10
276.681548
 20
114.910572
 42
0.005755
  0
VERTEX
  8
0
 10
270.178250
 20
116.092717
 42
0.005140
  0
VERTEX
  8
0
 10
263.126714
 20
117.216399
 42
0.002423
  0
VERTEX
  8
0
 10
254.000000
 20
118.529543
 42
-0.004073
  0
VERTEX
  8
0
 10
249.303898
 20
119.221035
 42
-0.004297
  0
VERTEX
  8
0
 10
244.703125
 20
119.977380
 42
-0.004113
  0
VERTEX
  8
0
 10
240.748639
 20
120.695987
 42
-0.019364
  0
VERTEX
  8
0
 10
238.500000
 20
121.214685
 42
-0.023228
  0
VERTEX
  8
0
 10
221.340759
 20
126.746814
 42
-0.050745
  0
VERTEX
  8
0
 10
208.972357
 20
132.870532
 42
-0.065868
  0
VERTEX
  8
0
 10
200.241641
 20
140.115675
 42
-0.078440
  0
VERTEX
  8
0
 10
194.292882
 20
149.000000
 42
-0.024037
  0
VERTEX
  8
0
 10
193.009942
 20
152.162441
 42
-0.037438
  0
VERTEX
  8
0
 10
192.247136
 20
155.001452
 42
-0.032602
  0
VERTEX
  8
0
 10
191.854402
 20
158.192305
 42
-0.013584
  0
VERTEX
  8
0
 10
191.723706
 20
162.530481
 42
-0.025254
  0
VERTEX
  8
0
 10
192.034271
 20
169.057599
 42
-0.040535
  0
VERTEX
  8
0
 10
193.026483
 20
174.539268
 42
-0.034068
  0
VERTEX
  8
0
 10
195.028213
 20
180.417798
 42
-0.012607
  0
VERTEX
  8
0
 10
198.609058
 20
188.403638
 42
0.047991
  0
VERTEX
  8
0
 10
199.143853
 20
189.864966
 42
0.020057
  0
VERTEX
  8
0
 10
199.591411
 20
191.916336
 42
0.019624
  0
VERTEX
  8
0
 10
199.898010
 20
194.165904
 42
0.024058
  0
VERTEX
  8
0
 10
200.000000
 20
196.284309
 42
-0.036550
  0
VERTEX
  8
0
 10
200.744038
 20
206.449038
 42
-0.013520
  0
VERTEX
  8
0
 10
203.219624
 20
220.601209
 42
-0.013705
  0
VERTEX
  8
0
 10
206.517537
 20
234.838708
 42
-0.029820
  0
VERTEX
  8
0
 10
209.987423
 20
245.500000
 42
-0.030776
  0
VERTEX
  8
0
 10
216.815906
 20
260.163720
 42
-0.036179
  0
VERTEX
  8
0
 10
225.080380
 20
273.066848
 42
-0.038377
  0
VERTEX
  8
0
 10
234.616798
 20
283.968218
 42
-0.045038
  0
VERTEX
  8
0
 10
245.243830
 20
292.656387
 42
-0.005431
  0
VERTEX
  8
0
 10
250.280757
 20
295.988745
 42
-0.019322
  0
VERTEX
  8
0
 10
253.608737
 20
297.960974
 42
-0.018033
  0
VERTEX
  8
0
 10
257.190457
 20
299.736754
 42
-0.004283
  0
VERTEX
  8
0
 10
263.284492
 20
302.426404
 42
-0.021446
  0
VERTEX
  8
0
 10
268.174729
 20
304.290539
 42
-0.009989
  0
VERTEX
  8
0
 10
274.657291
 20
306.305261
 42
-0.009551
  0
VERTEX
  8
0
 10
281.847215
 20
308.235253
 42
-0.009986
  0
VERTEX
  8
0
 10
289.000000
 20
309.858610
 42
-0.045903
  0
VERTEX
  8
0
 10
296.960383
 20
310.749577
 42
-0.006367
  0
VERTEX
  8
0
 10
313.600190
 20
310.865845
 42
-0.007203
  0
VERTEX
  8
0
 10
330.282911
 20
310.529603
 42
-0.032004
  0
SEQEND
  0
POLYLINE
  8
0
 66
1
 70
1
  0
VERTEX
  8
0
 10
212.845630
 20
124.142585
 42
0.010794
  0
VERTEX
  8
0
 10
213.971907
 20
123.390149
 42
0.009933
  0
VERTEX
  8
0
 10
215.160904
 20
122.665217
 42
0.009982
  0
VERTEX
  8
0
 10
216.246454
 20
122.061289
 42
0.032085
  0
VERTEX
  8
0
 10
217.000000
 20
121.721532
 42
-0.071616
  0
VERTEX
  8
0
 10
217.426696
 20
121.487083
 42
-0.525690
  0
VERTEX
  8
0
 10
217.418429
 20
121.293092
 42
-0.119262
  0
VERTEX
  8
0
 10
216.987964
 20
121.149087
 42
-0.014996
  0
VERTEX
  8
0
 10
216.000000
 20
121.094260
 42
-0.042538
  0
VERTEX
  8
0
 10
214.175931
 20
121.203061
 42
-0.087347
  0
VERTEX
  8
0
 10
212.821128
 20
121.650303
 42
-0.076501
  0
VERTEX
  8
0
 10
211.590049
 20
122.578056
 42
-0.026811
  0
VERTEX
  8
0
 10
210.127555
 20
124.250000
 42
-0.048282
  0
VERTEX
  8
0
 10
209.311383
 20
125.527340
 42
-0.573353
  0
VERTEX
  8
0
 10
209.565880
 20
125.925175
 42
-0.129656
  0
VERTEX
  8
0
 10
210.642314
 20
125.595292
 42
-0.013830
  0
SEQEND
  0
POLYLINE
  8
0
 66
1
 70
1
  0
VERTEX
  8
0
 10
138.454106
 20
107.454754
 42
-0.037656
  0
VERTEX
  8
0
 10
139.775560
 20
106.701045
 42
-0.031576
  0
VERTEX
  8
0
 10
141.053613
 20
105.715777
 42
-0.032742
  0
VERTEX
  8
0
 10
142.109129
 20
104.660375
 42
-0.071769
  0
VERTEX
  8
0
 10
142.730723
 20
103.704754
 42
-0.011954
  0
VERTEX
  8
0
 10
144.373093
 20
99.920819
 42
-0.029993
  0
VERTEX
  8
0
 10
145.335125
 20
97.071566
 42
-0.037019
  0
VERTEX
  8
0
 10
145.832223
 20
94.509647
 42
-0.029643
  0
VERTEX
  8
0
 10
145.996262
 20
91.702947
 42
-0.127987
  0
VERTEX
  8
0
 10
144.188175
 20
84.780356
 42
-0.181179
  0
VERTEX
  8
0
 10
139.373439
 20
80.706332
 42
-0.188098
  0
VERTEX
  8
0
 10
133.214522
 20
80.879202
 42
-0.136882
  0
VERTEX
  8
0
 10
127.798140
 20
85.187888
 42
-0.049785
  0
VERTEX
  8
0
 10
124.937648
 20
90.100899
 42
-0.063637
  0
VERTEX
  8
0
 10
123.387939
 20
95.099000
 42
-0.071249
  0
VERTEX
  8
0
 10
123.239539
 20
99.838535
 42
-0.091830
  0
VERTEX
  8
0
 10
124.499978
 20
103.999958
 42
-0.094999
  0
VERTEX
  8
0
 10
126.924995
 20
107.081838
 42
-0.118547
  0
VERTEX
  8
0
 10
130.148357
 20
108.754612
 42
-0.106432
  0
VERTEX
  8
0
 10
134.056360
 20
108.874378
 42
-0.065503
  0
SEQEND
  0
POLYLINE
  8
0
 66
1
 70
1
  0
VERTEX
  8
0
 10
235.078114
 20
74.000000
 42
-0.186304
  0
VERTEX
  8
0
 10
236.851541
 20
73.315447
 42
-0.122230
  0
VERTEX
  8
0
 10
238.085563
 20
71.475485
 42
-0.066639
  0
VERTEX
  8
0
 10
238.794568
 20
68.220010
 42
-0.020342
  0
VERTEX
  8
0
 10
239.000000
 20
63.172730
 42
-0.020946
  0
VERTEX
  8
0
 10
238.784187
 20
58.023363
 42
-0.192690
  0
VERTEX
  8
0
 10
237.801843
 20
56.062787
 42
-0.167870
  0
VERTEX
  8
0
 10
235.665840
 20
55.177378
 42
-0.015081
  0
VERTEX
  8
0
 10
229.786290
 20
55.000000
 42
-0.015007
  0
VERTEX
  8
0
 10
226.130580
 20
55.109749
 42
-0.075746
  0
VERTEX
  8
0
 10
224.139259
 20
55.536741
 42
-0.088629
  0
VERTEX
  8
0
 10
222.515137
 20
56.508582
 42
-0.024665
  0
VERTEX
  8
0
 10
220.368077
 20
58.571202
 42
-0.028351
  0
VERTEX
  8
0
 10
218.370375
 20
60.945612
 42
-0.091716
  0
VERTEX
  8
0
 10
217.459551
 20
62.784716
 42
-0.061319
  0
VERTEX
  8
0
 10
217.083420
 20
65.200767
 42
-0.007989
  0
VERTEX
  8
0
 10
217.000000
 20
70.421146
 42
0.000000
  0
VERTEX
  8
0
 10
217.000000
 20
78.699888
 42
0.000000
  0
VERTEX
  8
0
 10
225.113298
 20
76.349944
 42
0.005599
  0
VERTEX
  8
0
 10
228.355550
 20
75.450084
 42
0.006984
  0
VERTEX
  8
0
 10
231.387198
 20
74.690296
 42
0.005769
  0
VERTEX
  8
0
 10
233.941678
 20
74.118915
 42
0.052177
  0
SEQEND
  0
POLYLINE
  8
0
 66
1
 70
1
  0
VERTEX
  8
0
 10
67.083548
 20
246.156110
 42
0.063688
  0
VERTEX
  8
0
 10
66.637637
 20
244.986343
 42
0.012154
  0
VERTEX
  8
0
 10
66.156265
 20
242.757212
 42
0.012783
  0
VERTEX
  8
0
 10
65.721459
 20
240.110189
 42
0.011449
  0
VERTEX
  8
0
 10
65.403921
 20
237.345345
 42
0.009526
  0
VERTEX
  8
0
 10
65.102157
 20
233.184585
 42
0.063204
  0
VERTEX
  8
0
 10
65.253471
 20
231.112409
 42
0.098632
  0
VERTEX
  8
0
 10
65.901968
 20
229.560255
 42
0.039534
  0
VERTEX
  8
0
 10
67.340329
 20
227.750000
 42
0.086609
  0
VERTEX
  8
0
 10
69.984872
 20
225.749748
 42
0.112576
  0
VERTEX
  8
0
 10
72.918959
 20
224.998770
 42
0.113779
  0
VERTEX
  8
0
 10
75.865016
 20
225.596646
 42
0.089889
  0
VERTEX
  8
0
 10
78.545455
 20
227.454545
 42
0.050313
  0
VERTEX
  8
0
 10
79.836939
 20
229.035841
 42
0.079173
  0
VERTEX
  8
0
 10
80.560431
 20
230.628914
 42
0.054168
  0
VERTEX
  8
0
 10
80.906414
 20
232.772116
 42
0.012956
  0
VERTEX
  8
0
 10
81.000000
 20
236.383117
 42
0.014278
  0
VERTEX
  8
0
 10
80.912432
 20
239.449106
 42
0.034180
  0
VERTEX
  8
0
 10
80.627926
 20
241.705247
 42
0.047172
  0
VERTEX
  8
0
 10
80.142664
 20
243.343041
 42
0.101111
  0
VERTEX
  8
0
 10
79.419380
 20
244.437763
 42
0.112545
  0
VERTEX
  8
0
 10
77.771269
 20
245.473919
 42
0.366693
  0
VERTEX
  8
0
 10
76.656785
 20
245.046985
 42
0.131550
  0
VERTEX
  8
0
 10
76.153730
 20
242.995139
 42
0.022876
  0
VERTEX
  8
0
 10
76.422865
 20
238.979006
 42
-0.013009
  0
VERTEX
  8
0
 10
76.684630
 20
235.965345
 42
-0.047652
  0
VERTEX
  8
0
 10
76.618397
 20
234.052212
 42
-0.076225
  0
VERTEX
  8
0
 10
76.226844
 20
232.700705
 42
-0.088038
  0
VERTEX
  8
0
 10
75.459691
 20
231.602548
 42
-0.049443
  0
VERTEX
  8
0
 10
74.623250
 20
230.916981
 42
-0.096826
  0
VERTEX
  8
0
 10
73.831245
 20
230.587027
 42
-0.107615
  0
VERTEX
  8
0
 10
73.030732
 20
230.597206
 42
-0.071684
  0
VERTEX
  8
0
 10
72.172341
 20
230.930384
 42
-0.144712
  0
VERTEX
  8
0
 10
71.338154
 20
231.790662
 42
-0.073080
  0
VERTEX
  8
0
 10
70.834725
 20
233.229039
 42
-0.039021
  0
VERTEX
  8
0
 10
70.569941
 20
235.567066
 42
-0.008692
  0
VERTEX
  8
0
 10
70.500000
 20
239.589926
 42
0.018031
  0
VERTEX
  8
0
 10
70.315459
 20
244.705472
 42
0.102266
  0
VERTEX
  8
0
 10
69.576648
 20
247.314594
 42
0.437778
  0
VERTEX
  8
0
 10
68.451674
 20
247.620793
 42
0.130701
  0
SEQEND
  0
POLYLINE
  8
0
 66
1
 70
1
  0
VERTEX
  8
0
 10
181.055860
 20
198.567307
 42
0.073779
  0
VERTEX
  8
0
 10
180.682215
 20
197.951583
 42
0.055594
  0
VERTEX
  8
0
 10
180.457758
 20
197.191284
 42
0.056110
  0
VERTEX
  8
0
 10
180.407699
 20
196.408827
 42
0.079717
  0
VERTEX
  8
0
 10
180.550921
 20
195.727899
 42
-0.163196
  0
VERTEX
  8
0
 10
180.609828
 20
194.354545
 42
-0.254423
  0
VERTEX
  8
0
 10
179.797533
 20
193.531703
 42
-0.122949
  0
VERTEX
  8
0
 10
178.015237
 20
193.444472
 42
-0.037820
  0
VERTEX
  8
0
 10
175.402398
 20
194.171454
 42
0.018616
  0
VERTEX
  8
0
 10
173.169716
 20
194.886020
 42
0.131942
  0
VERTEX
  8
0
 10
172.042180
 20
194.897465
 42
0.147963
  0
VERTEX
  8
0
 10
171.123692
 20
194.339362
 42
0.025361
  0
VERTEX
  8
0
 10
169.824821
 20
192.734074
 42
-0.068374
  0
VERTEX
  8
0
 10
168.005279
 20
190.842917
 42
-0.148265
  0
VERTEX
  8
0
 10
166.146290
 20
190.113799
 42
-0.170704
  0
VERTEX
  8
0
 10
164.375206
 20
190.582592
 42
-0.097243
  0
VERTEX
  8
0
 10
162.799678
 20
192.175181
 42
0.118806
  0
VERTEX
  8
0
 10
161.344191
 20
193.526104
 42
0.202592
  0
VERTEX
  8
0
 10
159.721582
 20
193.708401
 42
0.203955
  0
VERTEX
  8
0
 10
158.467711
 20
192.672934
 42
0.120103
  0
VERTEX
  8
0
 10
158.000000
 20
190.753891
 42
0.138256
  0
VERTEX
  8
0
 10
159.086190
 20
186.900781
 42
0.167862
  0
VERTEX
  8
0
 10
161.967792
 20
184.529098
 42
0.139533
  0
VERTEX
  8
0
 10
166.160807
 20
184.198277
 42
0.087467
  0
VERTEX
  8
0
 10
170.774170
 20
186.003738
 42
-0.043052
  0
VERTEX
  8
0
 10
172.379035
 20
186.801807
 42
-0.029055
  0
VERTEX
  8
0
 10
174.322910
 20
187.440217
 42
-0.028612
  0
VERTEX
  8
0
 10
176.373037
 20
187.860112
 42
-0.036219
  0
VERTEX
  8
0
 10
178.301663
 20
188.000000
 42
0.070977
  0
VERTEX
  8
0
 10
182.838372
 20
188.647262
 42
0.144779
  0
VERTEX
  8
0
 10
185.838351
 20
190.574356
 42
0.181588
  0
VERTEX
  8
0
 10
186.908951
 20
193.480342
 42
0.121878
  0
VERTEX
  8
0
 10
186.027780
 20
196.948092
 42
0.074694
  0
VERTEX
  8
0
 10
184.910989
 20
198.446467
 42
0.117115
  0
VERTEX
  8
0
 10
183.545770
 20
199.279752
 42
0.149141
  0
VERTEX
  8
0
 10
182.187761
 20
199.305204
 42
0.151317
  0
SEQEND
  0
POLYLINE
  8
0
 66
1
 70
1
  0
VERTEX
  8
0
 10
117.377868
 20
197.519354
 42
0.122142
  0
VERTEX
  8
0
 10
113.521910
 20
194.463645
 42
0.084291
  0
VERTEX
  8
0
 10
110.891344
 20
189.524736
 42
0.084453
  0
VERTEX
  8
0
 10
110.041650
 20
184.004064
 42
0.123470
  0
VERTEX
  8
0
 10
111.307220
 20
179.275037
 42
0.076359
  0
VERTEX
  8
0
 10
113.377900
 20
176.604847
 42
0.050565
  0
VERTEX
  8
0
 10
116.454097
 20
174.228619
 42
0.051173
  0
VERTEX
  8
0
 10
119.881205
 20
172.554422
 42
0.088269
  0
VERTEX
  8
0
 10
122.997277
 20
172.000000
 42
0.099510
  0
VERTEX
  8
0
 10
126.937551
 20
172.792034
 42
0.065389
  0
VERTEX
  8
0
 10
130.948753
 20
175.127879
 42
0.064667
  0
VERTEX
  8
0
 10
134.267907
 20
178.458167
 42
0.091119
  0
VERTEX
  8
0
 10
136.172528
 20
182.181510
 42
0.026392
  0
VERTEX
  8
0
 10
136.761450
 20
184.605643
 42
0.080810
  0
VERTEX
  8
0
 10
136.802385
 20
186.291034
 42
0.070744
  0
VERTEX
  8
0
 10
136.307450
 20
188.023701
 42
0.017065
  0
VERTEX
  8
0
 10
134.996515
 20
190.712641
 42
0.022623
  0
VERTEX
  8
0
 10
133.916850
 20
192.542779
 42
0.020715
  0
VERTEX
  8
0
 10
132.645972
 20
194.324268
 42
0.021221
  0
VERTEX
  8
0
 10
131.378289
 20
195.818640
 42
0.061279
  0
VERTEX
  8
0
 10
130.343845
 20
196.694273
 42
0.079595
  0
VERTEX
  8
0
 10
127.561345
 20
197.940815
 42
0.049736
  0
VERTEX
  8
0
 10
124.030168
 20
198.521325
 42
0.049383
  0
VERTEX
  8
0
 10
120.415488
 20
198.394266
 42
0.073439
  0
SEQEND
  0
POLYLINE
  8
0
 66
1
 70
1
  0
VERTEX
  8
0
 10
218.247943
 20
195.025413
 42
0.074178
  0
VERTEX
  8
0
 10
217.766362
 20
193.917883
 42
0.022089
  0
VERTEX
  8
0
 10
217.366583
 20
192.112376
 42
0.021629
  0
VERTEX
  8
0
 10
217.091818
 20
190.018592
 42
0.021812
  0
VERTEX
  8
0
 10
217.000000
 20
187.914779
 42
0.020944
  0
VERTEX
  8
0
 10
217.121283
 20
185.020624
 42
0.071616
  0
VERTEX
  8
0
 10
217.543747
 20
183.189542
 42
0.080935
  0
VERTEX
  8
0
 10
218.434942
 20
181.672891
 42
0.031676
  0
VERTEX
  8
0
 10
220.105755
 20
179.901210
 42
0.032778
  0
VERTEX
  8
0
 10
221.885749
 20
178.444559
 42
0.064345
  0
VERTEX
  8
0
 10
223.496351
 20
177.581791
 42
0.062165
  0
VERTEX
  8
0
 10
225.310154
 20
177.139652
 42
0.028741
  0
VERTEX
  8
0
 10
227.737678
 20
177.000000
 42
0.028768
  0
VERTEX
  8
0
 10
230.303699
 20
177.147759
 42
0.077603
  0
VERTEX
  8
0
 10
232.058480
 20
177.633287
 42
0.073587
  0
VERTEX
  8
0
 10
233.634688
 20
178.647463
 42
0.024007
  0
VERTEX
  8
0
 10
235.631923
 20
180.571202
 42
0.024545
  0
VERTEX
  8
0
 10
236.921081
 20
182.080014
 42
0.027132
  0
VERTEX
  8
0
 10
238.010627
 20
183.659948
 42
0.027960
  0
VERTEX
  8
0
 10
238.783075
 20
185.095785
 42
0.109854
  0
VERTEX
  8
0
 10
239.000000
 20
186.071202
 42
-0.093942
  0
VERTEX
  8
0
 10
239.179785
 20
187.019650
 42
-0.171456
  0
VERTEX
  8
0
 10
239.689783
 20
187.607885
 42
-0.105406
  0
VERTEX
  8
0
 10
240.662607
 20
187.916153
 42
-0.024213
  0
VERTEX
  8
0
 10
242.393011
 20
188.000000
 42
0.072331
  0
VERTEX
  8
0
 10
244.790424
 20
188.348641
 42
0.163985
  0
VERTEX
  8
0
 10
246.269869
 20
189.391261
 42
0.283268
  0
VERTEX
  8
0
 10
246.373466
 20
190.687560
 42
0.156873
  0
VERTEX
  8
0
 10
245.212762
 20
191.852599
 42
0.056406
  0
VERTEX
  8
0
 10
242.731943
 20
192.795915
 42
0.011871
  0
VERTEX
  8
0
 10
238.204925
 20
193.841219
 42
0.012591
  0
VERTEX
  8
0
 10
232.988476
 20
194.779707
 42
0.013374
  0
VERTEX
  8
0
 10
227.835082
 20
195.432904
 42
-0.006069
  0
VERTEX
  8
0
 10
225.568105
 20
195.686655
 42
-0.007276
  0
VERTEX
  8
0
 10
223.441449
 20
195.982355
 42
-0.006344
  0
VERTEX
  8
0
 10
221.659898
 20
196.279736
 42
-0.047116
  0
VERTEX
  8
0
 10
220.833025
 20
196.510580
 42
0.145619
  0
VERTEX
  8
0
 10
220.228570
 20
196.557338
 42
0.077521
  0
VERTEX
  8
0
 10
219.522088
 20
196.285969
 42
0.066339
  0
VERTEX
  8
0
 10
218.824670
 20
195.751424
 42
0.056588
  0
SEQEND
  0
POLYLINE
  8
0
 66
1
 70
1
  0
VERTEX
  8
0
 10
257.171682
 20
179.477456
 42
0.146468
  0
VERTEX
  8
0
 10
256.824034
 20
176.949394
 42
0.173904
  0
VERTEX
  8
0
 10
257.970281
 20
174.844068
 42
0.123151
  0
VERTEX
  8
0
 10
260.617189
 20
173.456654
 42
0.059501
  0
VERTEX
  8
0
 10
264.440983
 20
173.000000
 42
-0.020930
  0
VERTEX
  8
0
 10
266.186816
 20
172.926887
 42
-0.027868
  0
VERTEX
  8
0
 10
267.758975
 20
172.706250
 42
-0.027581
  0
VERTEX
  8
0
 10
269.000298
 20
172.388891
 42
-0.179846
  0
VERTEX
  8
0
 10
269.500000
 20
172.000000
 42
0.224415
  0
VERTEX
  8
0
 10
270.889297
 20
171.098278
 42
0.056965
  0
VERTEX
  8
0
 10
273.650019
 20
171.041994
 42
0.056157
  0
VERTEX
  8
0
 10
276.516563
 20
171.639861
 42
0.130080
  0
VERTEX
  8
0
 10
278.345012
 20
172.828741
 42
0.069565
  0
VERTEX
  8
0
 10
279.877021
 20
175.084210
 42
0.285337
  0
VERTEX
  8
0
 10
279.722063
 20
176.657917
 42
0.361305
  0
VERTEX
  8
0
 10
278.384300
 20
176.961738
 42
0.078989
  0
VERTEX
  8
0
 10
276.323199
 20
175.466056
 42
-0.137368
  0
VERTEX
  8
0
 10
274.806315
 20
174.612845
 42
-0.102686
  0
VERTEX
  8
0
 10
272.880015
 20
174.545996
 42
-0.093141
  0
VERTEX
  8
0
 10
270.925764
 20
175.272029
 42
-0.090287
  0
VERTEX
  8
0
 10
269.343762
 20
176.663878
 42
0.099005
  0
VERTEX
  8
0
 10
268.598230
 20
177.297282
 42
0.085848
  0
VERTEX
  8
0
 10
267.628201
 20
177.635644
 42
0.062118
  0
VERTEX
  8
0
 10
266.336621
 20
177.687678
 42
0.025414
  0
VERTEX
  8
0
 10
264.593762
 20
177.451612
 42
-0.016547
  0
VERTEX
  8
0
 10
262.760074
 20
177.170058
 42
-0.085755
  0
VERTEX
  8
0
 10
261.740240
 20
177.222959
 42
-0.191181
  0
VERTEX
  8
0
 10
261.206800
 20
177.588471
 42
-0.149160
  0
VERTEX
  8
0
 10
261.000000
 20
178.266264
 42
0.074689
  0
VERTEX
  8
0
 10
260.902132
 20
178.917778
 42
0.044544
  0
VERTEX
  8
0
 10
260.605480
 20
179.645184
 42
0.043498
  0
VERTEX
  8
0
 10
260.170928
 20
180.333401
 42
0.057044
  0
VERTEX
  8
0
 10
259.656954
 20
180.869740
 42
0.087536
  0
VERTEX
  8
0
 10
258.942635
 20
181.276929
 42
0.216836
  0
VERTEX
  8
0
 10
258.355863
 20
181.227766
 42
0.131918
  0
VERTEX
  8
0
 10
257.806032
 20
180.691433
 42
0.027001
  0
SEQEND
  0
POLYLINE
  8
0
 66
1
 70
1
  0
VERTEX
  8
0
 10
299.221458
 20
180.250000
 42
0.058399
  0
VERTEX
  8
0
 10
298.943812
 20
179.252949
 42
0.012915
  0
VERTEX
  8
0
 10
298.715108
 20
177.491163
 42
0.013257
  0
VERTEX
  8
0
 10
298.556512
 20
175.428800
 42
0.012423
  0
VERTEX
  8
0
 10
298.502843
 20
173.315663
 42
0.021361
  0
VERTEX
  8
0
 10
298.624287
 20
170.437354
 42
0.064296
  0
VERTEX
  8
0
 10
299.039542
 20
168.520148
 42
0.072701
  0
VERTEX
  8
0
 10
299.895242
 20
166.903676
 42
0.033006
  0
VERTEX
  8
0
 10
301.437091
 20
165.065663
 42
0.136494
  0
VERTEX
  8
0
 10
306.056971
 20
162.324534
 42
0.130640
  0
VERTEX
  8
0
 10
311.512849
 20
162.300613
 42
0.121833
  0
VERTEX
  8
0
 10
316.548202
 20
165.037695
 42
0.109871
  0
VERTEX
  8
0
 10
319.959570
 20
169.902394
 42
-0.032833
  0
VERTEX
  8
0
 10
320.765902
 20
171.536681
 42
-0.143566
  0
VERTEX
  8
0
 10
321.537591
 20
172.272531
 42
-0.133315
  0
VERTEX
  8
0
 10
322.617139
 20
172.504187
 42
-0.026804
  0
VERTEX
  8
0
 10
324.589277
 20
172.291799
 42
0.017177
  0
VERTEX
  8
0
 10
326.513728
 20
172.047000
 42
0.129929
  0
VERTEX
  8
0
 10
327.409148
 20
172.197236
 42
0.226394
  0
VERTEX
  8
0
 10
327.858048
 20
172.729249
 42
0.063984
  0
VERTEX
  8
0
 10
328.000000
 20
173.833974
 42
0.144597
  0
VERTEX
  8
0
 10
327.510385
 20
175.491603
 42
0.126412
  0
VERTEX
  8
0
 10
326.177622
 20
176.720560
 42
0.059897
  0
VERTEX
  8
0
 10
323.544332
 20
177.753312
 42
0.011262
  0
VERTEX
  8
0
 10
318.500000
 20
178.942827
 42
-0.003869
  0
VERTEX
  8
0
 10
315.990236
 20
179.495625
 42
-0.003529
  0
VERTEX
  8
0
 10
313.410853
 20
180.103906
 42
-0.003530
  0
VERTEX
  8
0
 10
311.113484
 20
180.680033
 42
-0.011436
  0
VERTEX
  8
0
 10
309.600777
 20
181.107889
 42
0.040152
  0
VERTEX
  8
0
 10
306.107922
 20
181.882547
 42
0.055170
  0
VERTEX
  8
0
 10
302.894819
 20
181.971772
 42
0.068878
  0
VERTEX
  8
0
 10
300.428106
 20
181.420153
 42
0.209225
  0
SEQEND
  0
ENDSEC
  0
EOF
