  0
SECTION
  2
HEADER
  9
$ACADVER
  1
AC1006
  9
$EXTMIN
 10
0.000000
 20
0.000000
 30
0.000000
  9
$EXTMAX
 10
178.000000
 20
215.000000
 30
0.000000
  0
ENDSEC
  0
SECTION
  2
ENTITIES
  0
POLYLINE
  8
0
 66
1
 70
1
  0
VERTEX
  8
0
 10
81.000000
 20
204.463260
 42
0.014890
  0
VERTEX
  8
0
 10
77.781540
 20
203.781725
 42
0.011445
  0
VERTEX
  8
0
 10
74.311126
 20
202.853536
 42
0.011605
  0
VERTEX
  8
0
 10
71.103589
 20
201.835128
 42
0.026838
  0
VERTEX
  8
0
 10
68.761280
 20
200.887856
 42
-0.015138
  0
VERTEX
  8
0
 10
66.138425
 20
199.755051
 42
-0.058577
  0
VERTEX
  8
0
 10
64.428937
 20
199.299549
 42
-0.085069
  0
VERTEX
  8
0
 10
63.007240
 20
199.337012
 42
-0.057928
  0
VERTEX
  8
0
 10
61.464227
 20
199.834346
 42
0.047946
  0
VERTEX
  8
0
 10
58.953455
 20
200.699141
 42
0.070687
  0
VERTEX
  8
0
 10
56.635850
 20
200.919394
 42
0.065057
  0
VERTEX
  8
0
 10
54.210799
 20
200.487326
 42
0.034218
  0
VERTEX
  8
0
 10
51.357078
 20
199.365155
 42
0.105293
  0
VERTEX
  8
0
 10
47.975160
 20
196.778809
 42
0.087239
  0
VERTEX
  8
0
 10
45.662915
 20
192.868986
 42
0.092308
  0
VERTEX
  8
0
 10
44.906450
 20
188.613771
 42
0.139841
  0
VERTEX
  8
0
 10
45.960601
 20
185.029508
 42
-0.113940
  0
VERTEX
  8
0
 10
46.255310
 20
184.188412
 42
-0.078982
  0
VERTEX
  8
0
 10
46.207263
 20
183.178054
 42
-0.058714
  0
VERTEX
  8
0
 10
45.803707
 20
181.970198
 42
-0.028107
  0
VERTEX
  8
0
 10
45.024228
 20
180.529508
 42
0.053662
  0
VERTEX
  8
0
 10
41.138827
 20
172.380707
 42
0.038153
  0
VERTEX
  8
0
 10
38.521197
 20
162.597147
 42
0.037650
  0
VERTEX
  8
0
 10
37.390921
 20
152.353685
 42
0.047175
  0
VERTEX
  8
0
 10
37.960437
 20
142.817039
 42
0.041033
  0
VERTEX
  8
0
 10
39.541558
 20
136.240707
 42
0.039874
  0
VERTEX
  8
0
 10
42.186246
 20
129.944637
 42
0.041628
  0
VERTEX
  8
0
 10
45.645667
 20
124.433993
 42
0.057751
  0
VERTEX
  8
0
 10
49.655946
 20
120.207655
 42
0.000000
  0
VERTEX
  8
0
 10
53.905028
 20
116.655862
 42
0.000000
  0
VERTEX
  8
0
 10
50.952514
 20
113.293135
 42
0.013163
  0
VERTEX
  8
0
 10
49.821792
 20
111.934806
 42
0.017303
  0
VERTEX
  8
0
 10
48.867301
 20
110.634680
 42
0.014864
  0
VERTEX
  8
0
 10
48.152435
 20
109.516820
 42
0.135630
  0
VERTEX
  8
0
 10
48.000000
 20
108.965204
 42
-0.149468
  0
VERTEX
  8
0
 10
47.887451
 20
108.597115
 42
-0.098696
  0
VERTEX
  8
0
 10
47.570818
 20
108.283529
 42
-0.081986
  0
VERTEX
  8
0
 10
47.097540
 20
108.072061
 42
-0.064237
  0
VERTEX
  8
0
 10
46.538955
 20
108.000000
 42
0.188097
  0
VERTEX
  8
0
 10
44.443775
 20
107.182895
 42
0.077146
  0
VERTEX
  8
0
 10
42.508895
 20
104.756191
 42
0.050744
  0
VERTEX
  8
0
 10
40.726802
 20
100.741040
 42
0.020749
  0
VERTEX
  8
0
 10
39.105371
 20
94.990526
 42
0.008096
  0
VERTEX
  8
0
 10
38.299423
 20
91.337483
 42
0.008274
  0
VERTEX
  8
0
 10
37.618453
 20
87.686662
 42
0.008084
  0
VERTEX
  8
0
 10
37.131193
 20
84.499131
 42
0.033893
  0
VERTEX
  8
0
 10
37.000000
 20
82.565984
 42
-0.022055
  0
VERTEX
  8
0
 10
36.919046
 20
80.731610
 42
-0.101286
  0
VERTEX
  8
0
 10
36.616018
 20
79.716482
 42
-0.173061
  0
VERTEX
  8
0
 10
36.032759
 20
79.188075
 42
-0.098660
  0
VERTEX
  8
0
 10
35.088894
 20
79.000000
 42
0.116081
  0
VERTEX
  8
0
 10
34.170870
 20
78.783958
 42
0.036368
  0
VERTEX
  8
0
 10
32.947238
 20
78.058836
 42
0.034126
  0
VERTEX
  8
0
 10
31.654461
 20
77.022180
 42
0.031805
  0
VERTEX
  8
0
 10
30.481831
 20
75.796038
 42
0.029299
  0
VERTEX
  8
0
 10
29.072171
 20
73.906368
 42
0.075941
  0
VERTEX
  8
0
 10
28.364514
 20
72.366420
 42
0.072735
  0
VERTEX
  8
0
 10
28.132680
 20
70.646005
 42
0.025249
  0
VERTEX
  8
0
 10
28.287563
 20
68.141109
 42
0.046878
  0
VERTEX
  8
0
 10
28.763680
 20
65.861819
 42
0.013762
  0
VERTEX
  8
0
 10
29.913665
 20
62.472812
 42
0.013691
  0
VERTEX
  8
0
 10
31.424568
 20
58.712285
 42
0.014300
  0
VERTEX
  8
0
 10
33.118733
 20
55.095071
 42
0.017924
  0
VERTEX
  8
0
 10
35.648501
 20
50.491328
 42
0.025146
  0
VERTEX
  8
0
 10
38.251995
 20
46.591026
 42
0.023297
  0
VERTEX
  8
0
 10
41.386126
 20
42.758264
 42
0.012642
  0
VERTEX
  8
0
 10
45.568455
 20
38.334224
 42
0.012231
  0
VERTEX
  8
0
 10
50.346668
 20
33.758681
 42
0.030399
  0
VERTEX
  8
0
 10
54.114323
 20
30.721286
 42
0.030180
  0
VERTEX
  8
0
 10
58.238461
 20
28.150719
 42
0.011903
  0
VERTEX
  8
0
 10
64.194388
 20
25.101087
 42
0.021685
  0
VERTEX
  8
0
 10
75.297038
 20
20.327437
 42
0.037836
  0
VERTEX
  8
0
 10
84.899878
 20
17.492517
 42
0.036407
  0
VERTEX
  8
0
 10
95.071472
 20
16.073168
 42
0.018462
  0
VERTEX
  8
0
 10
108.000000
 20
15.698869
 42
0.007460
  0
VERTEX
  8
0
 10
115.048445
 20
15.860283
 42
0.004390
  0
VERTEX
  8
0
 10
123.467717
 20
16.252884
 42
0.004391
  0
VERTEX
  8
0
 10
131.876079
 20
16.793101
 42
0.007482
  0
VERTEX
  8
0
 10
138.890100
 20
17.411255
 42
-0.000533
  0
VERTEX
  8
0
 10
144.850775
 20
18.020165
 42
-0.000819
  0
VERTEX
  8
0
 10
150.011954
 20
18.533306
 42
-0.000259
  0
VERTEX
  8
0
 10
154.487070
 20
18.968492
 42
-0.024110
  0
VERTEX
  8
0
 10
155.140100
 20
19.000000
 42
0.185279
  0
VERTEX
  8
0
 10
156.644864
 20
19.577426
 42
0.056536
  0
VERTEX
  8
0
 10
158.290630
 20
21.434910
 42
0.055222
  0
VERTEX
  8
0
 10
159.574158
 20
23.774642
 42
0.098168
  0
VERTEX
  8
0
 10
160.000000
 20
25.922677
 42
0.083010
  0
VERTEX
  8
0
 10
159.720215
 20
27.596307
 42
0.072081
  0
VERTEX
  8
0
 10
158.905671
 20
29.179424
 42
0.047114
  0
VERTEX
  8
0
 10
157.356651
 20
30.969725
 42
0.014093
  0
VERTEX
  8
0
 10
154.676877
 20
33.393040
 42
-0.020576
  0
VERTEX
  8
0
 10
152.415903
 20
35.491544
 42
-0.026062
  0
VERTEX
  8
0
 10
150.516498
 20
37.616589
 42
-0.029035
  0
VERTEX
  8
0
 10
149.094900
 20
39.611148
 42
-0.065942
  0
VERTEX
  8
0
 10
148.325482
 20
41.291142
 42
-0.035503
  0
VERTEX
  8
0
 10
147.831820
 20
43.430267
 42
-0.193060
  0
VERTEX
  8
0
 10
148.092718
 20
44.567055
 42
-0.112164
  0
VERTEX
  8
0
 10
149.156073
 20
45.538730
 42
-0.008665
  0
VERTEX
  8
0
 10
152.569406
 20
47.401907
 42
0.053921
  0
VERTEX
  8
0
 10
157.538469
 20
50.729410
 42
0.084049
  0
VERTEX
  8
0
 10
160.870740
 20
54.643377
 42
0.078549
  0
VERTEX
  8
0
 10
162.869454
 20
59.635695
 42
0.041574
  0
VERTEX
  8
0
 10
163.808495
 20
66.254367
 42
0.027252
  0
VERTEX
  8
0
 10
163.828653
 20
72.281724
 42
0.038398
  0
VERTEX
  8
0
 10
163.143468
 20
77.609467
 42
0.044194
  0
VERTEX
  8
0
 10
161.795083
 20
82.079136
 42
0.071420
  0
VERTEX
  8
0
 10
159.810957
 20
85.513200
 42
-0.050945
  0
VERTEX
  8
0
 10
158.977871
 20
86.828177
 42
-0.017001
  0
VERTEX
  8
0
 10
158.029405
 20
88.902210
 42
-0.016721
  0
VERTEX
  8
0
 10
157.128269
 20
91.285623
 42
-0.018309
  0
VERTEX
  8
0
 10
156.418010
 20
93.653471
 42
0.018239
  0
VERTEX
  8
0
 10
154.752802
 20
99.207761
 42
0.028219
  0
VERTEX
  8
0
 10
152.876172
 20
103.849877
 42
0.032019
  0
VERTEX
  8
0
 10
150.707517
 20
107.776402
 42
0.037994
  0
VERTEX
  8
0
 10
148.162447
 20
111.162201
 42
0.000000
  0
VERTEX
  8
0
 10
145.036207
 20
114.722792
 42
0.000000
  0
VERTEX
  8
0
 10
147.120483
 20
116.609036
 42
0.095033
  0
VERTEX
  8
0
 10
150.069059
 20
120.522219
 42
0.081085
  0
VERTEX
  8
0
 10
151.570315
 20
125.472983
 42
0.029852
  0
VERTEX
  8
0
 10
152.198767
 20
134.075798
 42
0.002602
  0
VERTEX
  8
0
 10
152.374880
 20
156.000000
 42
0.006794
  0
VERTEX
  8
0
 10
152.304908
 20
162.502949
 42
0.028215
  0
VERTEX
  8
0
 10
151.988415
 20
166.413186
 42
0.041149
  0
VERTEX
  8
0
 10
151.302604
 20
169.488272
 42
0.028854
  0
VERTEX
  8
0
 10
150.054114
 20
172.811475
 42
0.000000
  0
VERTEX
  8
0
 10
147.700820
 20
178.122951
 42
0.000000
  0
VERTEX
  8
0
 10
149.850410
 20
181.947630
 42
0.037077
  0
VERTEX
  8
0
 10
151.341925
 20
185.133036
 42
0.079454
  0
VERTEX
  8
0
 10
151.893477
 20
187.782828
 42
0.088941
  0
VERTEX
  8
0
 10
151.565411
 20
190.277214
 42
0.056404
  0
VERTEX
  8
0
 10
150.364459
 20
192.960167
 42
0.096088
  0
VERTEX
  8
0
 10
147.307393
 20
196.409705
 42
0.095239
  0
VERTEX
  8
0
 10
143.173218
 20
198.479393
 42
0.094693
  0
VERTEX
  8
0
 10
138.545783
 20
198.875644
 42
0.093735
  0
VERTEX
  8
0
 10
134.080215
 20
197.541481
 42
-0.057791
  0
VERTEX
  8
0
 10
132.231793
 20
196.841938
 42
-0.111414
  0
VERTEX
  8
0
 10
130.657677
 20
196.803478
 42
-0.058188
  0
VERTEX
  8
0
 10
128.610612
 20
197.467634
 42
-0.007240
  0
VERTEX
  8
0
 10
124.379875
 20
199.482444
 42
0.047001
  0
VERTEX
  8
0
 10
114.739043
 20
203.166423
 42
0.039208
  0
VERTEX
  8
0
 10
103.973505
 20
205.266930
 42
0.037672
  0
VERTEX
  8
0
 10
92.563121
 20
205.712266
 42
0.035665
  0
SEQEND
  0
POLYLINE
  8
0
 66
1
 70
1
  0
VERTEX
  8
0
 10
115.797992
 20
199.630648
 42
-0.064426
  0
VERTEX
  8
0
 10
131.561866
 20
191.739600
 42
-0.094678
  0
VERTEX
  8
0
 10
142.530401
 20
180.854577
 42
-0.098313
  0
VERTEX
  8
0
 10
148.451090
 20
167.022001
 42
-0.074435
  0
VERTEX
  8
0
 10
149.440898
 20
150.500000
 42
0.008227
  0
VERTEX
  8
0
 10
149.149359
 20
146.474953
 42
0.005309
  0
VERTEX
  8
0
 10
148.937980
 20
141.804959
 42
0.005337
  0
VERTEX
  8
0
 10
148.828513
 20
137.233341
 42
0.010022
  0
VERTEX
  8
0
 10
148.853554
 20
133.538158
 42
-0.020998
  0
VERTEX
  8
0
 10
148.765133
 20
127.710013
 42
-0.056279
  0
VERTEX
  8
0
 10
148.065608
 20
123.625073
 42
-0.080597
  0
VERTEX
  8
0
 10
146.687194
 20
120.718932
 42
-0.097059
  0
VERTEX
  8
0
 10
144.528015
 20
118.610313
 42
-0.051275
  0
VERTEX
  8
0
 10
143.101110
 20
117.871837
 42
-0.120630
  0
VERTEX
  8
0
 10
141.920639
 20
117.711476
 42
-0.077012
  0
VERTEX
  8
0
 10
140.483303
 20
118.091995
 42
-0.012730
  0
VERTEX
  8
0
 10
137.879144
 20
119.311565
 42
0.038845
  0
VERTEX
  8
0
 10
135.031984
 20
120.467913
 42
0.043856
  0
VERTEX
  8
0
 10
132.152949
 20
121.113175
 42
0.027259
  0
VERTEX
  8
0
 10
128.247768
 20
121.419652
 42
0.005953
  0
VERTEX
  8
0
 10
121.500000
 20
121.500000
 42
0.005109
  0
VERTEX
  8
0
 10
114.121358
 20
121.424606
 42
0.036201
  0
VERTEX
  8
0
 10
110.557134
 20
121.092872
 42
0.061138
  0
VERTEX
  8
0
 10
107.891304
 20
120.305184
 42
0.030508
  0
VERTEX
  8
0
 10
104.750000
 20
118.707846
 42
0.010205
  0
VERTEX
  8
0
 10
102.928666
 20
117.586594
 42
0.015298
  0
VERTEX
  8
0
 10
101.390620
 20
116.527958
 42
0.010152
  0
VERTEX
  8
0
 10
100.177423
 20
115.598523
 42
0.222098
  0
VERTEX
  8
0
 10
99.984027
 20
115.207846
 42
-0.143980
  0
VERTEX
  8
0
 10
99.848023
 20
114.781152
 42
-0.009478
  0
VERTEX
  8
0
 10
99.096188
 20
113.713437
 42
-0.013110
  0
VERTEX
  8
0
 10
98.128286
 20
112.462913
 42
-0.009387
  0
VERTEX
  8
0
 10
96.984027
 20
111.114491
 42
0.022341
  0
VERTEX
  8
0
 10
95.841807
 20
109.695563
 42
0.025048
  0
VERTEX
  8
0
 10
94.876558
 20
108.231925
 42
0.025450
  0
VERTEX
  8
0
 10
94.188658
 20
106.917156
 42
0.108208
  0
VERTEX
  8
0
 10
94.000000
 20
106.055621
 42
-0.095388
  0
VERTEX
  8
0
 10
93.647816
 20
104.226360
 42
-0.075193
  0
VERTEX
  8
0
 10
92.625320
 20
102.483263
 42
-0.117335
  0
VERTEX
  8
0
 10
91.458167
 20
101.583801
 42
-0.376461
  0
VERTEX
  8
0
 10
90.593626
 20
101.848510
 42
0.136632
  0
VERTEX
  8
0
 10
89.663889
 20
102.707109
 42
0.136123
  0
VERTEX
  8
0
 10
88.422811
 20
102.963182
 42
0.169121
  0
VERTEX
  8
0
 10
87.409595
 20
102.532196
 42
0.211456
  0
VERTEX
  8
0
 10
87.000000
 20
101.606989
 42
0.088908
  0
VERTEX
  8
0
 10
87.102498
 20
101.035116
 42
0.066553
  0
VERTEX
  8
0
 10
87.402961
 20
100.468544
 42
0.065601
  0
VERTEX
  8
0
 10
87.847382
 20
99.992952
 42
0.080635
  0
VERTEX
  8
0
 10
88.371782
 20
99.687575
 42
-0.169922
  0
VERTEX
  8
0
 10
90.127769
 20
98.199393
 42
-0.032657
  0
VERTEX
  8
0
 10
92.030540
 20
94.414638
 42
-0.034145
  0
VERTEX
  8
0
 10
93.431779
 20
90.354065
 42
-0.128178
  0
VERTEX
  8
0
 10
93.456002
 20
87.680720
 42
-0.188795
  0
VERTEX
  8
0
 10
91.196905
 20
84.510306
 42
-0.148310
  0
VERTEX
  8
0
 10
87.112747
 20
83.318088
 42
-0.143512
  0
VERTEX
  8
0
 10
82.954548
 20
84.584037
 42
-0.176369
  0
VERTEX
  8
0
 10
80.543203
 20
87.815707
 42
0.033991
  0
VERTEX
  8
0
 10
79.897170
 20
89.532841
 42
0.124635
  0
VERTEX
  8
0
 10
79.176098
 20
90.432239
 42
0.126753
  0
VERTEX
  8
0
 10
78.121144
 20
90.871877
 42
0.035688
  0
VERTEX
  8
0
 10
76.328387
 20
91.000000
 42
0.168006
  0
VERTEX
  8
0
 10
73.136375
 20
89.896294
 42
0.153992
  0
VERTEX
  8
0
 10
71.169537
 20
87.017713
 42
0.139213
  0
VERTEX
  8
0
 10
71.105509
 20
83.290192
 42
0.132245
  0
VERTEX
  8
0
 10
73.000000
 20
80.000000
 42
0.078078
  0
VERTEX
  8
0
 10
74.409484
 20
78.973278
 42
0.069191
  0
VERTEX
  8
0
 10
76.125000
 20
78.375000
 42
0.040348
  0
VERTEX
  8
0
 10
78.653688
 20
78.078443
 42
0.009023
  0
VERTEX
  8
0
 10
83.000000
 20
78.000000
 42
-0.014310
  0
VERTEX
  8
0
 10
88.856073
 20
77.832359
 42
-0.208826
  0
VERTEX
  8
0
 10
90.659370
 20
76.918673
 42
-0.223718
  0
VERTEX
  8
0
 10
91.146265
 20
75.011039
 42
-0.016534
  0
VERTEX
  8
0
 10
89.920828
 20
69.616020
 42
-0.003829
  0
VERTEX
  8
0
 10
88.328279
 20
63.726163
 42
-0.016539
  0
VERTEX
  8
0
 10
87.240383
 20
60.268243
 42
-0.026295
  0
VERTEX
  8
0
 10
86.347056
 20
58.097825
 42
-0.109189
  0
VERTEX
  8
0
 10
85.483252
 20
56.986101
 42
-0.211633
  0
VERTEX
  8
0
 10
83.594766
 20
56.452019
 42
-0.076149
  0
VERTEX
  8
0
 10
80.860639
 20
57.278366
 42
-0.061659
  0
VERTEX
  8
0
 10
77.869458
 20
59.190022
 42
-0.050547
  0
VERTEX
  8
0
 10
75.205341
 20
61.894105
 42
0.041957
  0
VERTEX
  8
0
 10
73.626659
 20
63.552392
 42
0.019945
  0
VERTEX
  8
0
 10
71.344302
 20
65.421706
 42
0.019610
  0
VERTEX
  8
0
 10
68.787724
 20
67.197671
 42
0.026276
  0
VERTEX
  8
0
 10
66.332052
 20
68.588676
 42
-0.087884
  0
VERTEX
  8
0
 10
54.537888
 20
77.336266
 42
-0.121133
  0
VERTEX
  8
0
 10
48.053421
 20
88.761368
 42
-0.134634
  0
VERTEX
  8
0
 10
47.962070
 20
100.978204
 42
-0.121924
  0
VERTEX
  8
0
 10
54.059132
 20
112.064051
 42
0.008666
  0
VERTEX
  8
0
 10
55.568954
 20
113.757449
 42
0.012432
  0
VERTEX
  8
0
 10
56.842370
 20
115.313124
 42
0.008302
  0
VERTEX
  8
0
 10
57.841721
 20
116.642848
 42
0.158274
  0
VERTEX
  8
0
 10
58.000000
 20
117.130339
 42
0.191068
  0
VERTEX
  8
0
 10
57.830111
 20
117.558685
 42
0.018191
  0
VERTEX
  8
0
 10
57.013672
 20
118.365142
 42
0.021174
  0
VERTEX
  8
0
 10
55.928470
 20
119.280174
 42
0.015110
  0
VERTEX
  8
0
 10
54.642287
 20
120.213949
 42
-0.068223
  0
VERTEX
  8
0
 10
48.633078
 20
125.634955
 42
-0.068683
  0
VERTEX
  8
0
 10
44.320475
 20
132.461548
 42
-0.062727
  0
VERTEX
  8
0
 10
41.747588
 20
140.749957
 42
-0.043953
  0
VERTEX
  8
0
 10
40.888889
 20
150.499471
 42
-0.021621
  0
VERTEX
  8
0
 10
41.196501
 20
157.609822
 42
-0.025397
  0
VERTEX
  8
0
 10
42.119271
 20
164.290571
 42
-0.027615
  0
VERTEX
  8
0
 10
43.597396
 20
170.246704
 42
-0.042664
  0
VERTEX
  8
0
 10
45.581706
 20
175.161239
 42
-0.012399
  0
VERTEX
  8
0
 10
47.144635
 20
178.064665
 42
-0.104709
  0
VERTEX
  8
0
 10
48.126286
 20
179.167620
 42
-0.163980
  0
VERTEX
  8
0
 10
49.282731
 20
179.537804
 42
-0.042587
  0
VERTEX
  8
0
 10
51.253793
 20
179.339260
 42
0.000000
  0
VERTEX
  8
0
 10
54.500000
 20
178.730037
 42
0.000000
  0
VERTEX
  8
0
 10
51.050000
 20
182.368973
 42
-0.025061
  0
VERTEX
  8
0
 10
49.402959
 20
184.290467
 42
-0.051705
  0
VERTEX
  8
0
 10
48.360921
 20
185.970364
 42
-0.061131
  0
VERTEX
  8
0
 10
47.792260
 20
187.631735
 42
-0.051966
  0
VERTEX
  8
0
 10
47.600000
 20
189.476613
 42
-0.184154
  0
VERTEX
  8
0
 10
49.768035
 20
195.163457
 42
-0.181564
  0
VERTEX
  8
0
 10
55.186205
 20
198.005783
 42
-0.172126
  0
VERTEX
  8
0
 10
61.363263
 20
196.643915
 42
-0.169764
  0
VERTEX
  8
0
 10
65.343925
 20
191.686618
 42
0.124551
  0
VERTEX
  8
0
 10
66.124781
 20
190.515493
 42
0.408130
  0
VERTEX
  8
0
 10
66.965785
 20
190.549224
 42
0.176118
  0
VERTEX
  8
0
 10
67.520499
 20
191.835848
 42
0.064036
  0
VERTEX
  8
0
 10
67.380448
 20
193.847759
 42
-0.050856
  0
VERTEX
  8
0
 10
67.228231
 20
195.432281
 42
-0.158428
  0
VERTEX
  8
0
 10
67.561417
 20
196.437372
 42
-0.111575
  0
VERTEX
  8
0
 10
68.509838
 20
197.259557
 42
-0.019202
  0
VERTEX
  8
0
 10
70.663203
 20
198.309310
 42
-0.057657
  0
VERTEX
  8
0
 10
80.787647
 20
201.441255
 42
-0.038908
  0
VERTEX
  8
0
 10
92.821911
 20
202.734397
 42
-0.038591
  0
VERTEX
  8
0
 10
105.056980
 20
202.148170
 42
-0.052652
  0
SEQEND
  0
POLYLINE
  8
0
 66
1
 70
1
  0
VERTEX
  8
0
 10
146.076923
 20
194.076923
 42
-0.033874
  0
VERTEX
  8
0
 10
147.419404
 20
192.539079
 42
-0.054070
  0
VERTEX
  8
0
 10
148.318332
 20
191.045940
 42
-0.058746
  0
VERTEX
  8
0
 10
148.827947
 20
189.490042
 42
-0.049833
  0
VERTEX
  8
0
 10
149.000000
 20
187.768053
 42
-0.060180
  0
VERTEX
  8
0
 10
148.677865
 20
185.101303
 42
-0.067938
  0
VERTEX
  8
0
 10
147.730900
 20
182.703270
 42
-0.131748
  0
VERTEX
  8
0
 10
146.597455
 20
181.543107
 42
-0.408801
  0
VERTEX
  8
0
 10
145.636331
 20
181.779411
 42
-0.092787
  0
VERTEX
  8
0
 10
145.458310
 20
182.240399
 42
-0.096255
  0
VERTEX
  8
0
 10
145.462423
 20
182.728360
 42
-0.099270
  0
VERTEX
  8
0
 10
145.647133
 20
183.167390
 42
-0.105663
  0
VERTEX
  8
0
 10
145.983688
 20
183.489919
 42
0.154539
  0
VERTEX
  8
0
 10
146.376216
 20
183.946071
 42
0.037486
  0
VERTEX
  8
0
 10
146.701458
 20
184.898786
 42
0.034917
  0
VERTEX
  8
0
 10
146.925309
 20
186.100020
 42
0.028616
  0
VERTEX
  8
0
 10
147.000000
 20
187.404029
 42
0.118031
  0
VERTEX
  8
0
 10
146.206672
 20
190.717875
 42
0.123600
  0
VERTEX
  8
0
 10
144.006159
 20
193.247647
 42
0.124248
  0
VERTEX
  8
0
 10
140.881832
 20
194.429764
 42
0.120023
  0
VERTEX
  8
0
 10
137.526718
 20
194.010158
 42
-0.066534
  0
VERTEX
  8
0
 10
135.543915
 20
193.544958
 42
-0.272010
  0
VERTEX
  8
0
 10
134.465940
 20
194.044034
 42
-0.387973
  0
VERTEX
  8
0
 10
134.594052
 20
194.993258
 42
-0.078921
  0
VERTEX
  8
0
 10
136.185755
 20
195.945072
 42
-0.051755
  0
VERTEX
  8
0
 10
139.073509
 20
196.769222
 42
-0.090561
  0
VERTEX
  8
0
 10
141.552648
 20
196.754243
 42
-0.092970
  0
VERTEX
  8
0
 10
143.822203
 20
195.868534
 42
-0.057040
  0
SEQEND
  0
POLYLINE
  8
0
 66
1
 70
1
  0
VERTEX
  8
0
 10
134.205272
 20
117.445724
 42
-0.081857
  0
VERTEX
  8
0
 10
140.584713
 20
114.028683
 42
-0.057268
  0
VERTEX
  8
0
 10
146.454510
 20
108.342536
 42
-0.056092
  0
VERTEX
  8
0
 10
151.004364
 20
101.318729
 42
-0.069436
  0
VERTEX
  8
0
 10
153.483764
 20
93.938237
 42
0.000000
  0
VERTEX
  8
0
 10
154.128781
 20
90.500000
 42
0.000000
  0
VERTEX
  8
0
 10
142.314391
 20
90.500000
 42
0.006344
  0
VERTEX
  8
0
 10
135.936129
 20
90.419069
 42
0.024659
  0
VERTEX
  8
0
 10
131.998461
 20
90.124440
 42
0.038761
  0
VERTEX
  8
0
 10
129.126160
 20
89.537782
 42
0.045366
  0
VERTEX
  8
0
 10
126.533162
 20
88.533162
 42
0.050026
  0
VERTEX
  8
0
 10
122.520770
 20
86.016102
 42
0.035378
  0
VERTEX
  8
0
 10
118.557794
 20
82.462687
 42
0.035531
  0
VERTEX
  8
0
 10
115.159499
 20
78.412280
 42
0.052691
  0
VERTEX
  8
0
 10
112.852371
 20
74.399166
 42
-0.013168
  0
VERTEX
  8
0
 10
112.052989
 20
72.713463
 42
-0.019788
  0
VERTEX
  8
0
 10
111.260428
 20
71.292255
 42
-0.015287
  0
VERTEX
  8
0
 10
110.545298
 20
70.197999
 42
-0.245080
  0
VERTEX
  8
0
 10
110.165614
 20
70.000000
 42
-0.175414
  0
VERTEX
  8
0
 10
109.706958
 20
70.166018
 42
-0.006306
  0
VERTEX
  8
0
 10
108.265186
 20
71.398265
 42
-0.010924
  0
VERTEX
  8
0
 10
106.586610
 20
72.936078
 42
-0.007366
  0
VERTEX
  8
0
 10
104.736340
 20
74.760052
 42
-0.011436
  0
VERTEX
  8
0
 10
102.012529
 20
77.654989
 42
-0.070231
  0
VERTEX
  8
0
 10
100.872424
 20
79.350978
 42
-0.108386
  0
VERTEX
  8
0
 10
100.486284
 20
80.958886
 42
-0.045189
  0
VERTEX
  8
0
 10
100.644405
 20
83.196150
 42
0.031397
  0
VERTEX
  8
0
 10
100.848318
 20
85.268084
 42
0.093061
  0
VERTEX
  8
0
 10
100.635356
 20
86.674681
 42
0.091953
  0
VERTEX
  8
0
 10
99.924851
 20
87.917797
 42
0.030199
  0
VERTEX
  8
0
 10
98.462259
 20
89.447397
 42
-0.111749
  0
VERTEX
  8
0
 10
96.492556
 20
92.321485
 42
-0.087379
  0
VERTEX
  8
0
 10
95.724379
 20
96.036080
 42
-0.069499
  0
VERTEX
  8
0
 10
96.217791
 20
100.538024
 42
-0.039600
  0
VERTEX
  8
0
 10
97.979934
 20
105.731718
 42
-0.039044
  0
VERTEX
  8
0
 10
100.148818
 20
109.854314
 42
-0.054479
  0
VERTEX
  8
0
 10
102.738233
 20
113.114646
 42
-0.057785
  0
VERTEX
  8
0
 10
105.839253
 20
115.598301
 42
-0.052279
  0
VERTEX
  8
0
 10
109.529778
 20
117.405643
 42
-0.063710
  0
VERTEX
  8
0
 10
114.527409
 20
118.542554
 42
-0.023707
  0
VERTEX
  8
0
 10
121.737263
 20
118.896336
 42
-0.023845
  0
VERTEX
  8
0
 10
128.996404
 20
118.561767
 42
-0.058732
  0
SEQEND
  0
POLYLINE
  8
0
 66
1
 70
1
  0
VERTEX
  8
0
 10
44.312434
 20
96.186708
 42
0.014766
  0
VERTEX
  8
0
 10
44.112249
 20
92.490831
 42
0.037771
  0
VERTEX
  8
0
 10
44.248611
 20
89.815363
 42
0.044347
  0
VERTEX
  8
0
 10
44.764902
 20
87.451855
 42
0.028200
  0
VERTEX
  8
0
 10
45.757944
 20
84.814303
 42
0.048374
  0
VERTEX
  8
0
 10
48.430005
 20
80.072350
 42
0.040588
  0
VERTEX
  8
0
 10
52.109250
 20
75.623075
 42
0.037345
  0
VERTEX
  8
0
 10
56.779137
 20
71.493589
 42
0.028966
  0
VERTEX
  8
0
 10
62.414085
 20
67.708498
 42
-0.017444
  0
VERTEX
  8
0
 10
65.458094
 20
65.763996
 42
-0.012251
  0
VERTEX
  8
0
 10
68.748864
 20
63.375500
 42
-0.012380
  0
VERTEX
  8
0
 10
71.789997
 20
60.930794
 42
-0.025173
  0
VERTEX
  8
0
 10
74.028856
 20
58.835877
 42
0.053628
  0
VERTEX
  8
0
 10
79.623635
 20
54.167486
 42
0.176691
  0
VERTEX
  8
0
 10
84.220300
 20
53.050135
 42
0.215625
  0
VERTEX
  8
0
 10
87.856223
 20
55.210216
 42
0.080921
  0
VERTEX
  8
0
 10
90.486097
 20
60.675474
 42
-0.004223
  0
VERTEX
  8
0
 10
91.684353
 20
64.612466
 42
-0.004432
  0
VERTEX
  8
0
 10
92.930401
 20
68.465736
 42
-0.002316
  0
VERTEX
  8
0
 10
94.088508
 20
71.888567
 42
-0.061441
  0
VERTEX
  8
0
 10
94.510905
 20
72.754982
 42
-0.467588
  0
VERTEX
  8
0
 10
94.666412
 20
72.773684
 42
-0.000325
  0
VERTEX
  8
0
 10
98.127006
 20
69.512577
 42
-0.002812
  0
VERTEX
  8
0
 10
102.008719
 20
65.808368
 42
-0.001677
  0
VERTEX
  8
0
 10
106.588316
 20
61.358945
 42
0.012306
  0
VERTEX
  8
0
 10
115.974536
 20
52.619601
 42
0.056285
  0
VERTEX
  8
0
 10
122.060199
 20
48.342057
 42
0.076918
  0
VERTEX
  8
0
 10
127.998264
 20
46.196821
 42
0.035746
  0
VERTEX
  8
0
 10
136.152988
 20
45.199590
 42
0.000000
  0
VERTEX
  8
0
 10
144.805975
 20
44.764638
 42
0.000000
  0
VERTEX
  8
0
 10
146.048269
 20
40.327600
 42
-0.019995
  0
VERTEX
  8
0
 10
146.484977
 20
38.487426
 42
-0.031964
  0
VERTEX
  8
0
 10
146.692910
 20
36.885958
 42
-0.035738
  0
VERTEX
  8
0
 10
146.685107
 20
35.634565
 42
-0.181478
  0
VERTEX
  8
0
 10
146.395281
 20
35.013672
 42
-0.162936
  0
VERTEX
  8
0
 10
144.886595
 20
34.281190
 42
-0.003360
  0
VERTEX
  8
0
 10
136.452214
 20
33.245051
 42
-0.008382
  0
VERTEX
  8
0
 10
127.396377
 20
32.347873
 42
-0.009519
  0
VERTEX
  8
0
 10
118.691344
 20
31.799176
 42
0.000000
  0
VERTEX
  8
0
 10
111.882689
 20
31.500000
 42
0.000000
  0
VERTEX
  8
0
 10
109.860520
 20
37.000000
 42
-0.010108
  0
VERTEX
  8
0
 10
108.988655
 20
39.527984
 42
-0.005845
  0
VERTEX
  8
0
 10
108.037584
 20
42.600293
 42
-0.005840
  0
VERTEX
  8
0
 10
107.155074
 20
45.706276
 42
-0.009756
  0
VERTEX
  8
0
 10
106.494420
 20
48.341423
 42
0.006219
  0
VERTEX
  8
0
 10
105.460815
 20
52.591364
 42
0.066039
  0
VERTEX
  8
0
 10
104.796597
 20
54.240461
 42
0.242453
  0
VERTEX
  8
0
 10
104.035320
 20
54.739535
 42
0.166034
  0
VERTEX
  8
0
 10
103.007985
 20
54.504935
 42
0.259472
  0
VERTEX
  8
0
 10
102.301795
 20
53.240880
 42
0.048582
  0
VERTEX
  8
0
 10
102.563779
 20
50.501838
 42
0.032996
  0
VERTEX
  8
0
 10
103.626033
 20
46.483063
 42
0.011307
  0
VERTEX
  8
0
 10
105.675337
 20
40.816133
 42
-0.016781
  0
VERTEX
  8
0
 10
107.560628
 20
35.418740
 42
-0.139854
  0
VERTEX
  8
0
 10
107.623636
 20
32.856397
 42
-0.298555
  0
VERTEX
  8
0
 10
106.320510
 20
31.673162
 42
-0.074691
  0
VERTEX
  8
0
 10
103.302256
 20
31.649467
 42
-0.033418
  0
VERTEX
  8
0
 10
90.066001
 20
34.443928
 42
-0.045529
  0
VERTEX
  8
0
 10
78.680853
 20
38.805834
 42
-0.044800
  0
VERTEX
  8
0
 10
68.136352
 20
45.218707
 42
-0.030951
  0
VERTEX
  8
0
 10
57.426456
 20
54.199853
 42
-0.019778
  0
VERTEX
  8
0
 10
51.233842
 20
60.566608
 42
-0.034365
  0
VERTEX
  8
0
 10
46.696301
 20
66.373740
 42
-0.040286
  0
VERTEX
  8
0
 10
43.515253
 20
72.007035
 42
-0.046297
  0
VERTEX
  8
0
 10
41.450410
 20
77.825872
 42
-0.016721
  0
VERTEX
  8
0
 10
40.648336
 20
81.498305
 42
-0.038693
  0
VERTEX
  8
0
 10
40.354852
 20
84.303525
 42
-0.036351
  0
VERTEX
  8
0
 10
40.488643
 20
87.224168
 42
-0.013237
  0
VERTEX
  8
0
 10
41.087257
 20
91.325872
 42
-0.007277
  0
VERTEX
  8
0
 10
42.671443
 20
99.747083
 42
-0.096627
  0
VERTEX
  8
0
 10
43.875491
 20
102.650181
 42
-0.751580
  0
VERTEX
  8
0
 10
44.642250
 20
102.409600
 42
-0.015346
  0
SEQEND
  0
POLYLINE
  8
0
 66
1
 70
1
  0
VERTEX
  8
0
 10
152.722727
 20
87.308287
 42
-0.667302
  0
VERTEX
  8
0
 10
152.734799
 20
86.969745
 42
-0.081596
  0
VERTEX
  8
0
 10
151.716378
 20
86.691479
 42
-0.020481
  0
VERTEX
  8
0
 10
149.024045
 20
86.521813
 42
-0.005448
  0
VERTEX
  8
0
 10
144.722727
 20
86.474147
 42
0.008497
  0
VERTEX
  8
0
 10
139.279753
 20
86.380643
 42
0.026549
  0
VERTEX
  8
0
 10
135.632106
 20
86.061558
 42
0.037051
  0
VERTEX
  8
0
 10
132.768064
 20
85.437900
 42
0.036046
  0
VERTEX
  8
0
 10
130.000000
 20
84.394294
 42
0.035106
  0
VERTEX
  8
0
 10
125.439170
 20
81.886200
 42
0.045783
  0
VERTEX
  8
0
 10
121.691347
 20
78.950575
 42
0.048248
  0
VERTEX
  8
0
 10
118.692881
 20
75.520824
 42
0.046580
  0
VERTEX
  8
0
 10
116.366871
 20
71.540865
 42
-0.007249
  0
VERTEX
  8
0
 10
114.647505
 20
67.984219
 42
-0.480948
  0
VERTEX
  8
0
 10
114.066870
 20
67.860814
 42
-0.323635
  0
VERTEX
  8
0
 10
113.869749
 20
68.608906
 42
-0.006857
  0
VERTEX
  8
0
 10
115.374904
 20
72.354846
 42
-0.086827
  0
VERTEX
  8
0
 10
119.850863
 20
79.353382
 42
-0.078472
  0
VERTEX
  8
0
 10
126.580668
 20
84.706550
 42
-0.075268
  0
VERTEX
  8
0
 10
134.903244
 20
87.887542
 42
-0.070221
  0
VERTEX
  8
0
 10
144.000000
 20
88.567544
 42
-0.009451
  0
VERTEX
  8
0
 10
146.651509
 20
88.342958
 42
-0.009994
  0
VERTEX
  8
0
 10
149.243551
 20
88.021499
 42
-0.009670
  0
VERTEX
  8
0
 10
151.463045
 20
87.657134
 42
-0.044083
  0
SEQEND
  0
POLYLINE
  8
0
 66
1
 70
1
  0
VERTEX
  8
0
 10
78.281223
 20
84.858234
 42
-0.018666
  0
VERTEX
  8
0
 10
79.491390
 20
82.534675
 42
-0.195013
  0
VERTEX
  8
0
 10
79.552095
 20
81.482830
 42
-0.356640
  0
VERTEX
  8
0
 10
78.891428
 20
81.070373
 42
-0.045099
  0
VERTEX
  8
0
 10
77.126513
 20
81.459846
 42
-0.119323
  0
VERTEX
  8
0
 10
75.695798
 20
82.326928
 42
-0.086282
  0
VERTEX
  8
0
 10
74.613828
 20
83.854466
 42
-0.091217
  0
VERTEX
  8
0
 10
74.152532
 20
85.573190
 42
-0.159804
  0
VERTEX
  8
0
 10
74.494469
 20
86.991051
 42
-0.117211
  0
VERTEX
  8
0
 10
75.273966
 20
87.768160
 42
-0.272309
  0
VERTEX
  8
0
 10
76.069310
 20
87.783099
 42
-0.116400
  0
VERTEX
  8
0
 10
76.993086
 20
86.931609
 42
-0.019213
  0
SEQEND
  0
POLYLINE
  8
0
 66
1
 70
1
  0
VERTEX
  8
0
 10
98.000000
 20
84.468615
 42
-0.108992
  0
VERTEX
  8
0
 10
97.653890
 20
82.899707
 42
-0.097769
  0
VERTEX
  8
0
 10
96.672230
 20
81.550998
 42
-0.129990
  0
VERTEX
  8
0
 10
95.470900
 20
80.913041
 42
-0.259351
  0
VERTEX
  8
0
 10
94.467355
 20
81.199311
 42
-0.296003
  0
VERTEX
  8
0
 10
94.291017
 20
82.027342
 42
-0.020519
  0
VERTEX
  8
0
 10
95.280645
 20
84.324507
 42
-0.021032
  0
VERTEX
  8
0
 10
96.459012
 20
86.534426
 42
-0.262937
  0
VERTEX
  8
0
 10
97.250000
 20
86.992198
 42
-0.274488
  0
VERTEX
  8
0
 10
97.538951
 20
86.824685
 42
-0.055245
  0
VERTEX
  8
0
 10
97.779687
 20
86.254114
 42
-0.044206
  0
VERTEX
  8
0
 10
97.945574
 20
85.437985
 42
-0.028051
  0
SEQEND
  0
POLYLINE
  8
0
 66
1
 70
1
  0
VERTEX
  8
0
 10
156.186778
 20
81.570483
 42
-0.032254
  0
VERTEX
  8
0
 10
158.252138
 20
80.544111
 42
-0.106070
  0
VERTEX
  8
0
 10
159.373061
 20
79.526682
 42
-0.095429
  0
VERTEX
  8
0
 10
160.041463
 20
78.077413
 42
-0.023253
  0
VERTEX
  8
0
 10
160.554806
 20
75.483093
 42
-0.067072
  0
VERTEX
  8
0
 10
160.731159
 20
63.653200
 42
-0.133177
  0
VERTEX
  8
0
 10
157.245813
 20
55.023235
 42
-0.145491
  0
VERTEX
  8
0
 10
150.147191
 20
49.812526
 42
-0.086278
  0
VERTEX
  8
0
 10
139.721339
 20
48.000000
 42
-0.030340
  0
VERTEX
  8
0
 10
133.311644
 20
48.389294
 42
-0.037120
  0
VERTEX
  8
0
 10
127.424159
 20
49.555350
 42
-0.041612
  0
VERTEX
  8
0
 10
122.545853
 20
51.352165
 42
-0.087551
  0
VERTEX
  8
0
 10
119.249173
 20
53.659918
 42
-0.039468
  0
VERTEX
  8
0
 10
117.896634
 20
55.244675
 42
-0.095459
  0
VERTEX
  8
0
 10
117.247310
 20
56.633760
 42
-0.071912
  0
VERTEX
  8
0
 10
117.064272
 20
58.398522
 42
-0.015656
  0
VERTEX
  8
0
 10
117.283510
 20
61.458008
 42
-0.053489
  0
VERTEX
  8
0
 10
118.582313
 20
67.559964
 42
-0.061024
  0
VERTEX
  8
0
 10
121.115945
 20
72.962840
 42
-0.063820
  0
VERTEX
  8
0
 10
124.759514
 20
77.396805
 42
-0.068357
  0
VERTEX
  8
0
 10
129.326400
 20
80.650047
 42
-0.071464
  0
VERTEX
  8
0
 10
135.139088
 20
82.704787
 42
-0.040734
  0
VERTEX
  8
0
 10
142.555120
 20
83.566491
 42
-0.040599
  0
VERTEX
  8
0
 10
150.067787
 20
83.213895
 42
-0.067267
  0
SEQEND
  0
POLYLINE
  8
0
 66
1
 70
1
  0
VERTEX
  8
0
 10
110.000000
 20
64.222701
 42
-0.503755
  0
VERTEX
  8
0
 10
109.383391
 20
63.765999
 42
-0.084848
  0
VERTEX
  8
0
 10
107.834638
 20
64.543155
 42
-0.036523
  0
VERTEX
  8
0
 10
105.367971
 20
66.652139
 42
-0.013445
  0
VERTEX
  8
0
 10
102.199065
 20
69.962897
 42
-0.003803
  0
VERTEX
  8
0
 10
97.850354
 20
74.831871
 42
-0.251058
  0
VERTEX
  8
0
 10
97.603026
 20
75.890746
 42
-0.550019
  0
VERTEX
  8
0
 10
98.227320
 20
76.085639
 42
-0.004723
  0
VERTEX
  8
0
 10
102.785904
 20
72.147015
 42
-0.011414
  0
VERTEX
  8
0
 10
105.549527
 20
69.598944
 42
-0.016154
  0
VERTEX
  8
0
 10
107.880859
 20
67.198642
 42
-0.012234
  0
VERTEX
  8
0
 10
109.674589
 20
65.128790
 42
-0.174125
  0
SEQEND
  0
POLYLINE
  8
0
 66
1
 70
1
  0
VERTEX
  8
0
 10
41.048036
 20
70.250861
 42
0.028026
  0
VERTEX
  8
0
 10
43.107370
 20
66.599353
 42
0.023219
  0
VERTEX
  8
0
 10
45.686746
 20
62.955356
 42
0.019405
  0
VERTEX
  8
0
 10
49.027591
 20
58.998645
 42
0.010411
  0
VERTEX
  8
0
 10
53.435313
 20
54.368843
 42
0.032895
  0
VERTEX
  8
0
 10
66.120941
 20
43.166605
 42
0.053427
  0
VERTEX
  8
0
 10
78.359655
 20
35.648473
 42
0.056812
  0
VERTEX
  8
0
 10
91.347373
 20
31.191063
 42
0.043416
  0
VERTEX
  8
0
 10
106.253785
 20
29.237313
 42
0.019394
  0
VERTEX
  8
0
 10
117.139137
 20
29.185457
 42
0.009623
  0
VERTEX
  8
0
 10
130.927613
 20
29.920600
 42
0.005137
  0
VERTEX
  8
0
 10
144.409741
 20
31.039292
 42
0.116824
  0
VERTEX
  8
0
 10
148.068205
 20
32.274668
 42
-0.115919
  0
VERTEX
  8
0
 10
149.068120
 20
32.614305
 42
-0.109543
  0
VERTEX
  8
0
 10
150.137188
 20
32.483677
 42
-0.065585
  0
VERTEX
  8
0
 10
151.466218
 20
31.807263
 42
-0.017925
  0
VERTEX
  8
0
 10
153.360832
 20
30.403653
 42
-0.038830
  0
VERTEX
  8
0
 10
155.656003
 20
28.260843
 42
-0.105373
  0
VERTEX
  8
0
 10
156.779317
 20
26.352962
 42
-0.165682
  0
VERTEX
  8
0
 10
156.768942
 20
24.686576
 42
-0.141405
  0
VERTEX
  8
0
 10
155.750000
 20
23.245800
 42
-0.143280
  0
VERTEX
  8
0
 10
152.350265
 20
21.849618
 42
-0.006316
  0
VERTEX
  8
0
 10
139.497252
 20
20.658350
 42
-0.010770
  0
VERTEX
  8
0
 10
124.642376
 20
19.792076
 42
-0.009268
  0
VERTEX
  8
0
 10
109.000000
 20
19.507736
 42
-0.002431
  0
VERTEX
  8
0
 10
95.332440
 20
19.579104
 42
-0.021067
  0
VERTEX
  8
0
 10
89.255402
 20
19.896685
 42
-0.038222
  0
VERTEX
  8
0
 10
84.687033
 20
20.684386
 42
-0.018587
  0
VERTEX
  8
0
 10
79.000000
 20
22.346361
 42
-0.038038
  0
VERTEX
  8
0
 10
64.498749
 20
28.435233
 42
-0.050301
  0
VERTEX
  8
0
 10
52.477469
 20
36.210020
 42
-0.053773
  0
VERTEX
  8
0
 10
42.873896
 20
45.749474
 42
-0.054348
  0
VERTEX
  8
0
 10
35.564574
 20
57.085122
 42
-0.011792
  0
VERTEX
  8
0
 10
33.817008
 20
60.791937
 42
-0.013798
  0
VERTEX
  8
0
 10
32.340843
 20
64.389578
 42
-0.012790
  0
VERTEX
  8
0
 10
31.261139
 20
67.479218
 42
-0.077810
  0
VERTEX
  8
0
 10
31.000000
 20
69.147105
 42
-0.111143
  0
VERTEX
  8
0
 10
31.516342
 20
71.441288
 42
-0.048744
  0
VERTEX
  8
0
 10
33.127473
 20
74.128064
 42
-0.048213
  0
VERTEX
  8
0
 10
35.125740
 20
76.343412
 42
-0.187275
  0
VERTEX
  8
0
 10
36.817268
 20
77.000000
 42
-0.247622
  0
VERTEX
  8
0
 10
37.304446
 20
76.742968
 42
-0.009976
  0
VERTEX
  8
0
 10
38.434679
 20
75.017440
 42
-0.015492
  0
VERTEX
  8
0
 10
39.708957
 20
72.837373
 42
-0.010127
  0
SEQEND
  0
POLYLINE
  8
0
 66
1
 70
1
  0
VERTEX
  8
0
 10
113.683114
 20
62.812500
 42
-0.054073
  0
VERTEX
  8
0
 10
113.461564
 20
62.395823
 42
-0.470617
  0
VERTEX
  8
0
 10
113.279315
 20
62.378580
 42
-0.168741
  0
VERTEX
  8
0
 10
113.137993
 20
62.670344
 42
-0.018894
  0
VERTEX
  8
0
 10
113.078947
 20
63.416667
 42
-0.028489
  0
VERTEX
  8
0
 10
113.089945
 20
64.112848
 42
-0.077125
  0
VERTEX
  8
0
 10
113.200665
 20
64.592839
 42
-0.208169
  0
VERTEX
  8
0
 10
113.385309
 20
64.775380
 42
-0.296942
  0
VERTEX
  8
0
 10
113.604167
 20
64.729167
 42
-0.126455
  0
VERTEX
  8
0
 10
113.797407
 20
64.402231
 42
-0.060344
  0
VERTEX
  8
0
 10
113.876576
 20
63.916927
 42
-0.054150
  0
VERTEX
  8
0
 10
113.839148
 20
63.359369
 42
-0.051402
  0
SEQEND
  0
POLYLINE
  8
0
 66
1
 70
1
  0
VERTEX
  8
0
 10
51.072580
 20
193.365141
 42
0.023821
  0
VERTEX
  8
0
 10
50.279306
 20
192.251345
 42
0.024960
  0
VERTEX
  8
0
 10
49.608820
 20
191.083951
 42
0.025637
  0
VERTEX
  8
0
 10
49.135139
 20
190.023725
 42
0.092489
  0
VERTEX
  8
0
 10
49.000000
 20
189.299400
 42
0.086388
  0
VERTEX
  8
0
 10
49.301521
 20
187.567263
 42
0.055912
  0
VERTEX
  8
0
 10
50.200403
 20
185.736463
 42
0.054885
  0
VERTEX
  8
0
 10
51.509502
 20
184.110219
 42
0.073122
  0
VERTEX
  8
0
 10
53.031836
 20
182.982962
 42
0.093720
  0
VERTEX
  8
0
 10
54.236411
 20
182.604392
 42
0.116037
  0
VERTEX
  8
0
 10
55.401475
 20
182.737117
 42
0.067998
  0
VERTEX
  8
0
 10
56.822704
 20
183.477494
 42
0.015226
  0
VERTEX
  8
0
 10
59.008918
 20
185.127408
 42
0.047252
  0
VERTEX
  8
0
 10
61.644296
 20
187.689917
 42
0.119200
  0
VERTEX
  8
0
 10
62.842598
 20
190.062428
 42
0.159930
  0
VERTEX
  8
0
 10
62.650509
 20
192.271123
 42
0.108247
  0
VERTEX
  8
0
 10
61.171259
 20
194.345012
 42
0.109895
  0
VERTEX
  8
0
 10
58.790371
 20
195.697657
 42
0.098938
  0
VERTEX
  8
0
 10
55.965083
 20
195.982581
 42
0.097832
  0
VERTEX
  8
0
 10
53.220970
 20
195.158410
 42
0.104747
  0
SEQEND
  0
POLYLINE
  8
0
 66
1
 70
1
  0
VERTEX
  8
0
 10
84.200000
 20
143.800000
 42
0.134603
  0
VERTEX
  8
0
 10
83.106360
 20
141.880137
 42
0.103278
  0
VERTEX
  8
0
 10
82.998808
 20
139.458086
 42
0.104677
  0
VERTEX
  8
0
 10
83.866287
 20
137.221820
 42
0.142103
  0
VERTEX
  8
0
 10
85.500000
 20
135.818046
 42
0.101123
  0
VERTEX
  8
0
 10
88.184149
 20
135.200981
 42
0.128260
  0
VERTEX
  8
0
 10
90.651804
 20
135.780645
 42
0.140702
  0
VERTEX
  8
0
 10
92.367745
 20
137.429350
 42
0.132215
  0
VERTEX
  8
0
 10
93.000000
 20
139.778561
 42
0.067417
  0
VERTEX
  8
0
 10
92.688649
 20
142.077219
 42
0.124253
  0
VERTEX
  8
0
 10
91.762605
 20
143.707804
 42
0.128255
  0
VERTEX
  8
0
 10
90.197739
 20
144.671415
 42
0.074342
  0
VERTEX
  8
0
 10
88.000000
 20
145.000000
 42
0.040779
  0
VERTEX
  8
0
 10
86.916514
 20
144.911486
 42
0.035729
  0
VERTEX
  8
0
 10
85.811250
 20
144.647500
 42
0.037420
  0
VERTEX
  8
0
 10
84.844671
 20
144.260669
 42
0.082665
  0
SEQEND
  0
POLYLINE
  8
0
 66
1
 70
1
  0
VERTEX
  8
0
 10
127.245080
 20
143.845080
 42
0.185835
  0
VERTEX
  8
0
 10
126.068350
 20
141.195269
 42
0.142034
  0
VERTEX
  8
0
 10
126.803122
 20
138.081536
 42
0.135496
  0
VERTEX
  8
0
 10
129.132486
 20
135.742240
 42
0.166611
  0
VERTEX
  8
0
 10
132.142503
 20
135.169642
 42
0.135379
  0
VERTEX
  8
0
 10
134.239581
 20
136.084408
 42
0.112793
  0
VERTEX
  8
0
 10
135.746278
 20
138.003043
 42
0.114556
  0
VERTEX
  8
0
 10
136.255913
 20
140.359882
 42
0.142972
  0
VERTEX
  8
0
 10
135.598705
 20
142.490646
 42
0.131150
  0
VERTEX
  8
0
 10
133.989747
 20
143.921243
 42
0.076457
  0
VERTEX
  8
0
 10
131.517430
 20
144.722352
 42
0.078573
  0
VERTEX
  8
0
 10
128.995216
 20
144.732226
 42
0.159453
  0
SEQEND
  0
POLYLINE
  8
0
 66
1
 70
1
  0
VERTEX
  8
0
 10
105.234388
 20
134.562500
 42
0.013135
  0
VERTEX
  8
0
 10
105.328252
 20
129.472244
 42
0.113764
  0
VERTEX
  8
0
 10
105.931840
 20
127.301973
 42
0.223531
  0
VERTEX
  8
0
 10
107.253979
 20
126.331593
 42
0.069135
  0
VERTEX
  8
0
 10
109.783699
 20
126.191644
 42
0.025081
  0
VERTEX
  8
0
 10
112.107484
 20
126.502391
 42
0.180952
  0
VERTEX
  8
0
 10
113.058978
 20
127.074192
 42
0.139765
  0
VERTEX
  8
0
 10
113.529755
 20
128.206840
 42
0.013028
  0
VERTEX
  8
0
 10
113.804791
 20
131.250000
 42
-0.018640
  0
VERTEX
  8
0
 10
113.989947
 20
133.070545
 42
-0.029682
  0
VERTEX
  8
0
 10
114.297705
 20
134.604688
 42
-0.029747
  0
VERTEX
  8
0
 10
114.669162
 20
135.737725
 42
-0.307836
  0
VERTEX
  8
0
 10
115.054791
 20
136.000000
 42
0.137683
  0
VERTEX
  8
0
 10
115.415236
 20
136.101172
 42
0.100177
  0
VERTEX
  8
0
 10
115.722345
 20
136.385547
 42
0.086041
  0
VERTEX
  8
0
 10
115.929105
 20
136.810890
 42
0.070318
  0
VERTEX
  8
0
 10
116.000000
 20
137.312500
 42
0.255010
  0
VERTEX
  8
0
 10
115.676129
 20
137.906222
 42
0.083241
  0
VERTEX
  8
0
 10
114.727733
 20
138.313861
 42
0.045931
  0
VERTEX
  8
0
 10
113.108501
 20
138.555356
 42
0.014064
  0
VERTEX
  8
0
 10
110.633101
 20
138.625000
 42
0.000000
  0
VERTEX
  8
0
 10
105.266201
 20
138.625000
 42
0.000000
  0
SEQEND
  0
POLYLINE
  8
0
 66
1
 70
1
  0
VERTEX
  8
0
 10
111.810365
 20
132.258317
 42
-0.078351
  0
VERTEX
  8
0
 10
111.212395
 20
129.805669
 42
-0.143791
  0
VERTEX
  8
0
 10
109.928182
 20
128.221316
 42
-0.264895
  0
VERTEX
  8
0
 10
108.535748
 20
128.101089
 42
-0.195594
  0
VERTEX
  8
0
 10
107.456162
 20
129.253645
 42
-0.137558
  0
VERTEX
  8
0
 10
107.284516
 20
131.093826
 42
-0.062035
  0
VERTEX
  8
0
 10
108.017116
 20
133.426516
 42
-0.064103
  0
VERTEX
  8
0
 10
109.232467
 20
135.381305
 42
-0.225332
  0
VERTEX
  8
0
 10
110.535614
 20
136.000000
 42
-0.144625
  0
VERTEX
  8
0
 10
111.272781
 20
135.782220
 42
-0.168551
  0
VERTEX
  8
0
 10
111.719932
 20
135.208822
 42
-0.084139
  0
VERTEX
  8
0
 10
111.894752
 20
134.128785
 42
-0.018839
  0
SEQEND
  0
POLYLINE
  8
0
 66
1
 70
1
  0
VERTEX
  8
0
 10
105.708849
 20
93.375516
 42
0.168689
  0
VERTEX
  8
0
 10
105.020204
 20
91.954148
 42
0.062930
  0
VERTEX
  8
0
 10
105.039902
 20
89.705194
 42
0.063771
  0
VERTEX
  8
0
 10
105.607879
 20
87.585654
 42
0.206669
  0
VERTEX
  8
0
 10
106.626748
 20
86.589736
 42
0.148647
  0
VERTEX
  8
0
 10
108.277724
 20
86.471864
 42
0.145843
  0
VERTEX
  8
0
 10
109.729322
 20
87.290518
 42
0.125256
  0
VERTEX
  8
0
 10
110.645361
 20
88.896234
 42
0.096535
  0
VERTEX
  8
0
 10
110.800558
 20
90.914404
 42
0.132139
  0
VERTEX
  8
0
 10
110.151035
 20
92.547801
 42
0.120406
  0
VERTEX
  8
0
 10
108.750120
 20
93.703796
 42
0.133532
  0
VERTEX
  8
0
 10
107.089942
 20
94.014053
 42
0.178009
  0
SEQEND
  0
POLYLINE
  8
0
 66
1
 70
1
  0
VERTEX
  8
0
 10
34.741548
 20
72.408215
 42
0.301358
  0
VERTEX
  8
0
 10
34.474770
 20
71.092114
 42
0.014380
  0
VERTEX
  8
0
 10
36.374879
 20
66.769731
 42
0.020909
  0
VERTEX
  8
0
 10
38.993749
 20
61.797040
 42
0.017448
  0
VERTEX
  8
0
 10
42.172482
 20
56.743117
 42
0.055535
  0
VERTEX
  8
0
 10
52.628860
 20
44.511048
 42
0.053740
  0
VERTEX
  8
0
 10
65.629535
 20
34.726602
 42
0.052668
  0
VERTEX
  8
0
 10
80.674036
 20
27.780324
 42
0.049346
  0
VERTEX
  8
0
 10
97.170835
 20
23.940262
 42
0.016160
  0
VERTEX
  8
0
 10
102.937034
 20
23.374669
 42
0.016018
  0
VERTEX
  8
0
 10
108.744732
 20
23.180482
 42
0.011894
  0
VERTEX
  8
0
 10
115.884309
 20
23.340413
 42
0.004157
  0
VERTEX
  8
0
 10
126.142182
 20
23.899994
 42
0.001892
  0
VERTEX
  8
0
 10
142.018312
 20
24.958821
 42
0.015735
  0
VERTEX
  8
0
 10
149.193020
 20
25.692065
 42
0.030621
  0
VERTEX
  8
0
 10
153.092271
 20
26.460319
 42
0.341140
  0
VERTEX
  8
0
 10
154.000000
 20
27.635924
 42
0.302356
  0
VERTEX
  8
0
 10
153.389231
 20
28.553606
 42
0.102320
  0
VERTEX
  8
0
 10
151.734786
 20
28.875906
 42
0.019377
  0
VERTEX
  8
0
 10
147.890673
 20
28.682459
 42
0.000758
  0
VERTEX
  8
0
 10
133.798320
 20
27.402956
 42
-0.018010
  0
VERTEX
  8
0
 10
113.264078
 20
26.250857
 42
-0.036151
  0
VERTEX
  8
0
 10
97.056566
 20
27.098288
 42
-0.043715
  0
VERTEX
  8
0
 10
83.322786
 20
30.052589
 42
-0.045461
  0
VERTEX
  8
0
 10
70.500000
 20
35.325194
 42
-0.045388
  0
VERTEX
  8
0
 10
62.016922
 20
40.782810
 42
-0.030223
  0
VERTEX
  8
0
 10
53.341522
 20
48.435253
 42
-0.030355
  0
VERTEX
  8
0
 10
45.719808
 20
57.006122
 42
-0.048656
  0
VERTEX
  8
0
 10
40.451014
 20
65.245711
 42
0.004579
  0
VERTEX
  8
0
 10
37.878343
 20
70.177166
 42
0.045779
  0
VERTEX
  8
0
 10
36.601502
 20
72.119691
 42
0.178153
  0
VERTEX
  8
0
 10
35.662218
 20
72.689386
 42
0.249489
  0
SEQEND
  0
ENDSEC
  0
EOF
