  0
SECTION
  2
HEADER
  9
$ACADVER
  1
AC1006
  9
$EXTMIN
 10
0.000000
 20
0.000000
 30
0.000000
  9
$EXTMAX
 10
360.000000
 20
360.000000
 30
0.000000
  0
ENDSEC
  0
SECTION
  2
ENTITIES
  0
POLYLINE
  8
0
 66
1
 70
1
  0
VERTEX
  8
0
 10
222.500000
 20
293.115493
 42
0.028294
  0
VERTEX
  8
0
 10
221.072239
 20
292.105531
 42
0.010911
  0
VERTEX
  8
0
 10
219.206250
 20
290.552713
 42
0.010762
  0
VERTEX
  8
0
 10
217.251304
 20
288.776991
 42
0.013059
  0
VERTEX
  8
0
 10
215.500000
 20
287.026966
 42
-0.024342
  0
VERTEX
  8
0
 10
211.293840
 20
283.009362
 42
-0.033231
  0
VERTEX
  8
0
 10
207.114068
 20
279.849239
 42
-0.038089
  0
VERTEX
  8
0
 10
203.232589
 20
277.704597
 42
-0.083393
  0
VERTEX
  8
0
 10
199.962795
 20
276.826903
 42
0.042486
  0
VERTEX
  8
0
 10
198.295554
 20
276.522202
 42
0.071804
  0
VERTEX
  8
0
 10
196.994777
 20
275.958320
 42
0.075434
  0
VERTEX
  8
0
 10
195.949686
 20
275.072696
 42
0.051990
  0
VERTEX
  8
0
 10
195.054977
 20
273.801615
 42
0.030871
  0
VERTEX
  8
0
 10
194.259355
 20
272.144946
 42
0.128511
  0
VERTEX
  8
0
 10
194.116509
 20
271.055574
 42
0.109062
  0
VERTEX
  8
0
 10
194.514090
 20
269.940512
 42
0.019220
  0
VERTEX
  8
0
 10
195.773781
 20
268.092108
 42
-0.045877
  0
VERTEX
  8
0
 10
196.870335
 20
266.283144
 42
-0.054889
  0
VERTEX
  8
0
 10
197.541198
 20
264.408092
 42
-0.042762
  0
VERTEX
  8
0
 10
197.889116
 20
262.081695
 42
-0.016135
  0
VERTEX
  8
0
 10
197.990231
 20
258.790493
 42
-0.051643
  0
VERTEX
  8
0
 10
197.373833
 20
252.927440
 42
-0.053855
  0
VERTEX
  8
0
 10
195.569910
 20
247.401689
 42
-0.049605
  0
VERTEX
  8
0
 10
192.472122
 20
242.019840
 42
-0.034042
  0
VERTEX
  8
0
 10
187.987612
 20
236.580417
 42
-0.043637
  0
VERTEX
  8
0
 10
182.761739
 20
231.940737
 42
-0.063150
  0
VERTEX
  8
0
 10
177.387451
 20
228.915506
 42
-0.052739
  0
VERTEX
  8
0
 10
170.728995
 20
226.992273
 42
-0.021279
  0
VERTEX
  8
0
 10
161.340380
 20
225.733723
 42
-0.005364
  0
VERTEX
  8
0
 10
154.987468
 20
225.224552
 42
-0.027924
  0
VERTEX
  8
0
 10
151.474042
 20
225.177410
 42
-0.049201
  0
VERTEX
  8
0
 10
148.993031
 20
225.528906
 42
-0.051046
  0
VERTEX
  8
0
 10
146.660625
 20
226.356754
 42
0.042668
  0
VERTEX
  8
0
 10
143.541639
 20
227.522853
 42
0.068476
  0
VERTEX
  8
0
 10
140.731808
 20
227.906665
 42
0.058560
  0
VERTEX
  8
0
 10
137.623326
 20
227.538246
 42
0.023364
  0
VERTEX
  8
0
 10
133.495636
 20
226.343813
 42
0.086320
  0
VERTEX
  8
0
 10
127.228263
 20
222.914967
 42
0.067965
  0
VERTEX
  8
0
 10
121.876277
 20
217.309313
 42
0.068247
  0
VERTEX
  8
0
 10
118.242451
 20
210.500684
 42
0.088724
  0
VERTEX
  8
0
 10
117.000000
 20
203.553996
 42
-0.062232
  0
VERTEX
  8
0
 10
116.818284
 20
202.099659
 42
-0.027629
  0
VERTEX
  8
0
 10
116.238852
 20
200.251747
 42
-0.026824
  0
VERTEX
  8
0
 10
115.400754
 20
198.337746
 42
-0.032633
  0
VERTEX
  8
0
 10
114.408859
 20
196.651062
 42
0.034366
  0
VERTEX
  8
0
 10
109.360404
 20
187.997889
 42
0.039660
  0
VERTEX
  8
0
 10
105.817232
 20
179.130984
 42
0.039795
  0
VERTEX
  8
0
 10
103.727158
 20
169.842491
 42
0.035029
  0
VERTEX
  8
0
 10
103.014781
 20
159.931501
 42
0.026399
  0
VERTEX
  8
0
 10
103.377630
 20
152.831554
 42
0.037350
  0
VERTEX
  8
0
 10
104.501097
 20
146.605056
 42
0.037231
  0
VERTEX
  8
0
 10
106.541886
 20
140.600078
 42
0.025998
  0
VERTEX
  8
0
 10
109.680202
 20
134.169303
 42
0.000000
  0
VERTEX
  8
0
 10
113.188139
 20
127.838606
 42
0.000000
  0
VERTEX
  8
0
 10
112.821549
 20
114.169303
 42
-0.010696
  0
VERTEX
  8
0
 10
112.367459
 20
104.756143
 42
-0.049743
  0
VERTEX
  8
0
 10
111.453867
 20
99.401707
 42
-0.070623
  0
VERTEX
  8
0
 10
109.660090
 20
95.267923
 42
-0.036288
  0
VERTEX
  8
0
 10
106.359306
 20
90.673275
 42
0.061959
  0
VERTEX
  8
0
 10
104.709137
 20
88.108679
 42
0.105245
  0
VERTEX
  8
0
 10
104.109405
 20
85.639510
 42
0.107527
  0
VERTEX
  8
0
 10
104.571888
 20
83.177378
 42
0.066752
  0
VERTEX
  8
0
 10
106.072580
 20
80.634859
 42
0.065263
  0
VERTEX
  8
0
 10
107.860285
 20
78.887664
 42
0.129162
  0
VERTEX
  8
0
 10
109.684465
 20
78.144862
 42
0.101156
  0
VERTEX
  8
0
 10
111.943552
 20
78.307415
 42
0.030590
  0
VERTEX
  8
0
 10
115.207975
 20
79.442431
 42
-0.023425
  0
VERTEX
  8
0
 10
117.285367
 20
80.198238
 42
-0.094577
  0
VERTEX
  8
0
 10
118.619429
 20
80.350313
 42
-0.094637
  0
VERTEX
  8
0
 10
119.915284
 20
80.000309
 42
-0.023471
  0
VERTEX
  8
0
 10
121.854268
 20
78.942431
 42
0.038740
  0
VERTEX
  8
0
 10
124.758166
 20
77.471220
 42
0.126330
  0
VERTEX
  8
0
 10
126.875611
 20
77.172458
 42
0.119778
  0
VERTEX
  8
0
 10
128.940951
 20
77.925378
 42
0.033146
  0
VERTEX
  8
0
 10
131.699915
 20
80.041384
 42
-0.023990
  0
VERTEX
  8
0
 10
133.362564
 20
81.365576
 42
-0.050530
  0
VERTEX
  8
0
 10
134.790011
 20
82.189754
 42
-0.068249
  0
VERTEX
  8
0
 10
136.025340
 20
82.553500
 42
-0.114852
  0
VERTEX
  8
0
 10
137.097630
 20
82.469013
 42
0.114163
  0
VERTEX
  8
0
 10
139.651770
 20
82.264271
 42
0.064059
  0
VERTEX
  8
0
 10
142.663441
 20
83.114966
 42
0.064421
  0
VERTEX
  8
0
 10
145.338606
 20
84.689233
 42
0.121265
  0
VERTEX
  8
0
 10
146.883582
 20
86.643836
 42
0.126255
  0
VERTEX
  8
0
 10
147.501242
 20
90.110027
 42
0.227969
  0
VERTEX
  8
0
 10
146.091292
 20
92.554863
 42
0.103272
  0
VERTEX
  8
0
 10
142.072569
 20
94.223666
 42
0.018432
  0
VERTEX
  8
0
 10
133.991388
 20
95.452577
 42
-0.009599
  0
VERTEX
  8
0
 10
131.802162
 20
95.746031
 42
-0.011935
  0
VERTEX
  8
0
 10
129.780249
 20
96.106267
 42
-0.010286
  0
VERTEX
  8
0
 10
128.108106
 20
96.481520
 42
-0.083732
  0
VERTEX
  8
0
 10
127.391092
 20
96.791797
 42
-0.120014
  0
VERTEX
  8
0
 10
125.877023
 20
98.396220
 42
-0.055297
  0
VERTEX
  8
0
 10
124.732753
 20
101.050226
 42
-0.039042
  0
VERTEX
  8
0
 10
123.886074
 20
104.862593
 42
-0.015885
  0
VERTEX
  8
0
 10
123.308938
 20
110.149683
 42
-0.005304
  0
VERTEX
  8
0
 10
122.899774
 20
116.306932
 42
-0.268414
  0
VERTEX
  8
0
 10
123.425707
 20
117.345596
 42
-0.314848
  0
VERTEX
  8
0
 10
124.514770
 20
117.310261
 42
-0.006692
  0
VERTEX
  8
0
 10
129.000000
 20
113.858890
 42
0.043943
  0
VERTEX
  8
0
 10
134.146685
 20
110.476519
 42
0.083788
  0
VERTEX
  8
0
 10
138.822676
 20
108.893656
 42
0.046604
  0
VERTEX
  8
0
 10
145.366953
 20
108.460615
 42
0.006214
  0
VERTEX
  8
0
 10
159.211567
 20
109.007683
 42
0.002087
  0
VERTEX
  8
0
 10
166.836169
 20
109.435846
 42
0.002746
  0
VERTEX
  8
0
 10
173.788710
 20
109.893717
 42
0.001997
  0
VERTEX
  8
0
 10
179.610032
 20
110.332580
 42
0.026300
  0
VERTEX
  8
0
 10
181.750000
 20
110.616335
 42
0.000000
  0
VERTEX
  8
0
 10
185.000000
 20
111.222582
 42
0.000000
  0
VERTEX
  8
0
 10
184.994423
 20
102.861291
 42
-0.019197
  0
VERTEX
  8
0
 10
184.684285
 20
94.924443
 42
-0.071881
  0
VERTEX
  8
0
 10
183.593513
 20
90.068526
 42
-0.086153
  0
VERTEX
  8
0
 10
181.285050
 20
86.185419
 42
-0.035207
  0
VERTEX
  8
0
 10
176.959411
 20
81.800773
 42
0.012578
  0
VERTEX
  8
0
 10
174.073464
 20
79.128667
 42
0.038134
  0
VERTEX
  8
0
 10
172.305056
 20
77.122399
 42
0.058124
  0
VERTEX
  8
0
 10
171.325856
 20
75.451622
 42
0.103871
  0
VERTEX
  8
0
 10
171.000000
 20
73.899986
 42
0.088072
  0
VERTEX
  8
0
 10
171.399497
 20
71.649554
 42
0.151884
  0
VERTEX
  8
0
 10
172.544890
 20
70.151721
 42
0.097672
  0
VERTEX
  8
0
 10
174.751758
 20
69.161520
 42
0.023793
  0
VERTEX
  8
0
 10
178.696836
 20
68.445828
 42
-0.028426
  0
VERTEX
  8
0
 10
181.482608
 20
67.913764
 42
-0.053945
  0
VERTEX
  8
0
 10
183.622617
 20
67.124483
 42
-0.051835
  0
VERTEX
  8
0
 10
185.598706
 20
65.872580
 42
-0.024298
  0
VERTEX
  8
0
 10
187.883201
 20
63.881538
 42
0.043128
  0
VERTEX
  8
0
 10
191.284086
 20
61.135573
 42
0.130054
  0
VERTEX
  8
0
 10
194.075946
 20
60.165561
 42
0.153556
  0
VERTEX
  8
0
 10
196.694122
 20
60.775806
 42
0.068379
  0
VERTEX
  8
0
 10
199.500000
 20
63.000000
 42
-0.033820
  0
VERTEX
  8
0
 10
200.963941
 20
64.334561
 42
-0.050476
  0
VERTEX
  8
0
 10
202.420361
 20
65.269558
 42
-0.056384
  0
VERTEX
  8
0
 10
203.901267
 20
65.822252
 42
-0.060007
  0
VERTEX
  8
0
 10
205.437091
 20
66.014742
 42
0.055750
  0
VERTEX
  8
0
 10
208.108141
 20
66.326518
 42
0.052603
  0
VERTEX
  8
0
 10
210.700075
 20
67.222128
 42
0.055770
  0
VERTEX
  8
0
 10
212.889474
 20
68.562137
 42
0.088225
  0
VERTEX
  8
0
 10
214.359806
 20
70.191464
 42
0.222637
  0
VERTEX
  8
0
 10
214.586479
 20
72.070917
 42
0.112549
  0
VERTEX
  8
0
 10
213.328139
 20
74.159449
 42
0.062454
  0
VERTEX
  8
0
 10
210.440541
 20
76.492822
 42
0.021772
  0
VERTEX
  8
0
 10
205.770353
 20
79.113465
 42
-0.019415
  0
VERTEX
  8
0
 10
203.464920
 20
80.392898
 42
-0.019651
  0
VERTEX
  8
0
 10
201.275231
 20
81.842488
 42
-0.019886
  0
VERTEX
  8
0
 10
199.474790
 20
83.250914
 42
-0.071913
  0
VERTEX
  8
0
 10
198.513698
 20
84.338750
 42
-0.092789
  0
VERTEX
  8
0
 10
197.263729
 20
87.336983
 42
-0.015380
  0
VERTEX
  8
0
 10
196.143733
 20
93.520411
 42
-0.017186
  0
VERTEX
  8
0
 10
195.326653
 20
100.652963
 42
-0.018666
  0
VERTEX
  8
0
 10
195.030876
 20
107.630773
 42
0.000000
  0
VERTEX
  8
0
 10
195.000000
 20
113.761547
 42
0.000000
  0
VERTEX
  8
0
 10
200.286814
 20
116.436431
 42
0.037483
  0
VERTEX
  8
0
 10
205.585257
 20
119.636503
 42
0.021624
  0
VERTEX
  8
0
 10
211.467191
 20
124.215670
 42
0.021110
  0
VERTEX
  8
0
 10
217.181714
 20
129.506903
 42
0.026339
  0
VERTEX
  8
0
 10
221.999030
 20
134.901138
 42
0.049669
  0
VERTEX
  8
0
 10
227.731964
 20
143.708244
 42
0.039156
  0
VERTEX
  8
0
 10
232.159765
 20
154.195302
 42
0.036337
  0
VERTEX
  8
0
 10
235.172503
 20
166.063565
 42
0.030229
  0
VERTEX
  8
0
 10
236.673557
 20
179.000000
 42
-0.006417
  0
VERTEX
  8
0
 10
237.073704
 20
184.883157
 42
-0.033762
  0
VERTEX
  8
0
 10
237.551750
 20
188.084215
 42
-0.061460
  0
VERTEX
  8
0
 10
238.300413
 20
190.210737
 42
-0.069102
  0
VERTEX
  8
0
 10
239.522565
 20
192.000000
 42
0.036625
  0
VERTEX
  8
0
 10
243.039960
 20
196.494643
 42
0.012897
  0
VERTEX
  8
0
 10
247.426274
 20
203.413583
 42
0.013136
  0
VERTEX
  8
0
 10
251.644946
 20
210.903575
 42
0.021857
  0
VERTEX
  8
0
 10
254.748916
 20
217.446243
 42
0.020331
  0
VERTEX
  8
0
 10
257.494021
 20
224.770084
 42
0.016695
  0
VERTEX
  8
0
 10
259.839298
 20
232.787938
 42
0.016910
  0
VERTEX
  8
0
 10
261.490107
 20
240.262604
 42
0.045499
  0
VERTEX
  8
0
 10
261.992994
 20
245.677094
 42
-0.046709
  0
VERTEX
  8
0
 10
262.234623
 20
248.212152
 42
-0.087431
  0
VERTEX
  8
0
 10
262.963562
 20
250.132431
 42
-0.054528
  0
VERTEX
  8
0
 10
264.540909
 20
252.223931
 42
-0.009510
  0
VERTEX
  8
0
 10
268.000000
 20
255.761847
 42
0.014596
  0
VERTEX
  8
0
 10
271.892847
 20
259.825264
 42
0.080196
  0
VERTEX
  8
0
 10
273.537956
 20
262.365372
 42
0.179903
  0
VERTEX
  8
0
 10
273.650243
 20
264.276852
 42
0.146216
  0
VERTEX
  8
0
 10
272.505006
 20
265.995845
 42
0.067943
  0
VERTEX
  8
0
 10
271.633277
 20
266.538796
 42
0.128745
  0
VERTEX
  8
0
 10
270.822714
 20
266.674005
 42
0.095714
  0
VERTEX
  8
0
 10
269.888459
 20
266.403695
 42
0.026895
  0
VERTEX
  8
0
 10
268.569571
 20
265.637541
 42
-0.013203
  0
VERTEX
  8
0
 10
266.996816
 20
264.665394
 42
-0.233352
  0
VERTEX
  8
0
 10
266.417340
 20
264.625502
 42
-0.256284
  0
VERTEX
  8
0
 10
266.065959
 20
265.060682
 42
-0.015702
  0
VERTEX
  8
0
 10
265.814565
 20
266.769251
 42
0.122544
  0
VERTEX
  8
0
 10
264.983357
 20
268.987224
 42
0.221352
  0
VERTEX
  8
0
 10
263.345764
 20
269.952634
 42
0.219432
  0
VERTEX
  8
0
 10
261.540985
 20
269.324330
 42
0.121091
  0
VERTEX
  8
0
 10
260.269613
 20
267.308840
 42
0.000000
  0
VERTEX
  8
0
 10
259.335109
 20
264.505326
 42
0.000000
  0
VERTEX
  8
0
 10
258.132371
 20
266.752663
 42
0.107901
  0
VERTEX
  8
0
 10
256.714150
 20
268.414836
 42
0.173949
  0
VERTEX
  8
0
 10
254.958253
 20
268.967644
 42
0.192922
  0
VERTEX
  8
0
 10
253.382578
 20
268.262843
 42
0.131532
  0
VERTEX
  8
0
 10
252.417450
 20
266.527118
 42
0.076022
  0
VERTEX
  8
0
 10
252.292657
 20
265.205593
 42
0.020946
  0
VERTEX
  8
0
 10
252.500625
 20
263.122074
 42
0.020647
  0
VERTEX
  8
0
 10
252.938594
 20
260.751068
 42
0.020201
  0
VERTEX
  8
0
 10
253.573165
 20
258.406697
 42
-0.019283
  0
VERTEX
  8
0
 10
254.496416
 20
255.020490
 42
-0.046909
  0
VERTEX
  8
0
 10
254.841565
 20
252.457689
 42
-0.040379
  0
VERTEX
  8
0
 10
254.727814
 20
249.656980
 42
-0.011292
  0
VERTEX
  8
0
 10
254.098703
 20
245.315045
 42
-0.027956
  0
VERTEX
  8
0
 10
251.770585
 20
235.018722
 42
-0.037876
  0
VERTEX
  8
0
 10
248.465990
 20
226.076552
 42
-0.040677
  0
VERTEX
  8
0
 10
244.079876
 20
218.253784
 42
-0.041682
  0
VERTEX
  8
0
 10
238.516761
 20
211.312617
 42
-0.005373
  0
VERTEX
  8
0
 10
235.155680
 20
207.844288
 42
-0.064213
  0
VERTEX
  8
0
 10
233.686710
 20
206.699252
 42
-0.240286
  0
VERTEX
  8
0
 10
232.726691
 20
206.639439
 42
-0.156897
  0
VERTEX
  8
0
 10
231.875541
 20
207.386957
 42
0.027112
  0
VERTEX
  8
0
 10
231.220409
 20
208.358917
 42
0.007180
  0
VERTEX
  8
0
 10
230.069851
 20
209.836342
 42
0.007263
  0
VERTEX
  8
0
 10
228.710435
 20
211.481639
 42
0.007412
  0
VERTEX
  8
0
 10
227.312808
 20
213.075520
 42
0.000000
  0
VERTEX
  8
0
 10
223.878286
 20
216.877125
 42
0.000000
  0
VERTEX
  8
0
 10
229.859218
 20
224.403498
 42
0.022766
  0
VERTEX
  8
0
 10
235.111858
 20
231.669207
 42
0.033273
  0
VERTEX
  8
0
 10
238.991639
 20
238.542162
 42
0.036181
  0
VERTEX
  8
0
 10
241.688459
 20
245.392288
 42
0.035873
  0
VERTEX
  8
0
 10
243.378861
 20
252.579159
 42
-0.009401
  0
VERTEX
  8
0
 10
243.954224
 20
255.775587
 42
-0.010518
  0
VERTEX
  8
0
 10
244.630617
 20
258.829991
 42
-0.009888
  0
VERTEX
  8
0
 10
245.311304
 20
261.401760
 42
-0.053734
  0
VERTEX
  8
0
 10
245.853221
 20
262.735704
 42
0.059200
  0
VERTEX
  8
0
 10
247.203794
 20
266.166934
 42
0.033335
  0
VERTEX
  8
0
 10
248.050531
 20
270.567802
 42
0.033044
  0
VERTEX
  8
0
 10
248.312644
 20
275.131684
 42
0.050205
  0
VERTEX
  8
0
 10
247.880708
 20
279.077911
 42
0.114938
  0
VERTEX
  8
0
 10
244.290866
 20
286.738587
 42
0.099956
  0
VERTEX
  8
0
 10
237.524684
 20
292.489393
 42
0.108472
  0
VERTEX
  8
0
 10
229.546142
 20
294.862522
 42
0.159352
  0
SEQEND
  0
POLYLINE
  8
0
 66
1
 70
1
  0
VERTEX
  8
0
 10
234.684900
 20
290.936382
 42
-0.061302
  0
VERTEX
  8
0
 10
237.360358
 20
289.530916
 42
-0.034754
  0
VERTEX
  8
0
 10
240.220016
 20
287.239039
 42
-0.034419
  0
VERTEX
  8
0
 10
242.789048
 20
284.519140
 42
-0.051707
  0
VERTEX
  8
0
 10
244.589276
 20
281.799660
 42
-0.044048
  0
VERTEX
  8
0
 10
245.595655
 20
279.374762
 42
-0.070053
  0
VERTEX
  8
0
 10
245.965080
 20
277.162597
 42
-0.140599
  0
VERTEX
  8
0
 10
245.619891
 20
275.831712
 42
-0.361899
  0
VERTEX
  8
0
 10
244.750000
 20
275.520880
 42
0.129092
  0
VERTEX
  8
0
 10
243.545938
 20
275.635033
 42
0.113078
  0
VERTEX
  8
0
 10
242.372916
 20
275.156362
 42
0.081303
  0
VERTEX
  8
0
 10
241.232724
 20
274.039885
 42
0.037269
  0
VERTEX
  8
0
 10
240.125502
 20
272.270519
 42
0.096828
  0
VERTEX
  8
0
 10
239.449765
 20
270.019217
 42
0.086583
  0
VERTEX
  8
0
 10
239.630807
 20
267.583480
 42
0.095970
  0
VERTEX
  8
0
 10
240.578914
 20
265.560552
 42
0.159798
  0
VERTEX
  8
0
 10
242.091539
 20
264.470947
 42
-0.048618
  0
VERTEX
  8
0
 10
243.126153
 20
264.028031
 42
-0.243323
  0
VERTEX
  8
0
 10
243.466921
 20
263.521032
 42
-0.135931
  0
VERTEX
  8
0
 10
243.344587
 20
262.742192
 42
-0.012812
  0
VERTEX
  8
0
 10
242.492125
 20
260.984772
 42
0.042634
  0
VERTEX
  8
0
 10
241.919641
 20
259.600069
 42
0.022541
  0
VERTEX
  8
0
 10
241.438312
 20
257.803320
 42
0.022265
  0
VERTEX
  8
0
 10
241.108723
 20
255.907690
 42
0.031917
  0
VERTEX
  8
0
 10
241.000000
 20
254.206210
 42
-0.055935
  0
VERTEX
  8
0
 10
240.550867
 20
250.203995
 42
-0.022674
  0
VERTEX
  8
0
 10
239.090988
 20
244.905303
 42
-0.022731
  0
VERTEX
  8
0
 10
237.074092
 20
239.541122
 42
-0.037137
  0
VERTEX
  8
0
 10
234.834300
 20
235.231892
 42
-0.015985
  0
VERTEX
  8
0
 10
233.606990
 20
233.381074
 42
-0.004408
  0
VERTEX
  8
0
 10
231.559845
 20
230.551565
 42
-0.004448
  0
VERTEX
  8
0
 10
229.182702
 20
227.385560
 42
-0.004637
  0
VERTEX
  8
0
 10
226.781998
 20
224.306325
 42
0.000000
  0
VERTEX
  8
0
 10
220.933555
 20
216.946676
 42
0.000000
  0
VERTEX
  8
0
 10
225.471922
 20
211.375355
 42
-0.003813
  0
VERTEX
  8
0
 10
227.271764
 20
209.131120
 42
-0.004603
  0
VERTEX
  8
0
 10
228.926307
 20
206.995378
 42
-0.003936
  0
VERTEX
  8
0
 10
230.287560
 20
205.174836
 42
-0.031000
  0
VERTEX
  8
0
 10
230.858505
 20
204.288354
 42
0.271686
  0
VERTEX
  8
0
 10
232.150645
 20
203.531222
 42
0.141661
  0
VERTEX
  8
0
 10
234.004713
 20
204.068364
 42
0.054891
  0
VERTEX
  8
0
 10
236.768325
 20
206.271879
 42
0.011701
  0
VERTEX
  8
0
 10
241.029266
 20
210.713752
 42
0.066535
  0
VERTEX
  8
0
 10
248.559000
 20
221.525436
 42
0.045374
  0
VERTEX
  8
0
 10
254.188673
 20
235.427229
 42
0.046407
  0
VERTEX
  8
0
 10
256.982991
 20
249.117733
 42
0.122914
  0
VERTEX
  8
0
 10
255.637788
 20
258.947238
 42
-0.011281
  0
VERTEX
  8
0
 10
255.010813
 20
260.622852
 42
-0.012414
  0
VERTEX
  8
0
 10
254.481100
 20
262.272766
 42
-0.011880
  0
VERTEX
  8
0
 10
254.098158
 20
263.700365
 42
-0.059649
  0
VERTEX
  8
0
 10
254.000000
 20
264.520236
 42
-0.152487
  0
VERTEX
  8
0
 10
254.364231
 20
265.686769
 42
-0.372074
  0
VERTEX
  8
0
 10
255.171199
 20
265.895493
 42
-0.143908
  0
VERTEX
  8
0
 10
256.259484
 20
264.891456
 42
-0.051134
  0
VERTEX
  8
0
 10
257.165687
 20
262.954556
 42
0.060717
  0
VERTEX
  8
0
 10
258.182524
 20
260.885128
 42
0.303532
  0
VERTEX
  8
0
 10
259.312081
 20
260.403011
 42
0.229084
  0
VERTEX
  8
0
 10
260.462407
 20
261.253013
 42
0.041117
  0
VERTEX
  8
0
 10
261.534848
 20
263.776623
 42
-0.012628
  0
VERTEX
  8
0
 10
262.669598
 20
266.935155
 42
-0.242240
  0
VERTEX
  8
0
 10
263.427385
 20
267.606943
 42
-0.518798
  0
VERTEX
  8
0
 10
263.908707
 20
267.195609
 42
-0.017551
  0
VERTEX
  8
0
 10
263.532543
 20
264.286698
 42
0.023203
  0
VERTEX
  8
0
 10
263.069886
 20
260.360577
 42
0.248974
  0
VERTEX
  8
0
 10
263.698088
 20
258.942924
 42
0.336732
  0
VERTEX
  8
0
 10
265.026514
 20
258.921626
 42
0.034062
  0
VERTEX
  8
0
 10
267.597748
 20
261.094741
 42
-0.015739
  0
VERTEX
  8
0
 10
268.930599
 20
262.307610
 42
-0.025635
  0
VERTEX
  8
0
 10
270.142777
 20
263.239808
 42
-0.023315
  0
VERTEX
  8
0
 10
271.138295
 20
263.860747
 42
-0.335964
  0
VERTEX
  8
0
 10
271.526118
 20
263.807215
 42
-0.377204
  0
VERTEX
  8
0
 10
271.594646
 20
262.737835
 42
-0.020693
  0
VERTEX
  8
0
 10
269.252729
 20
259.950572
 42
-0.028122
  0
VERTEX
  8
0
 10
266.340740
 20
257.101953
 42
-0.041172
  0
VERTEX
  8
0
 10
263.457776
 20
254.973904
 42
0.030156
  0
VERTEX
  8
0
 10
261.451709
 20
253.560244
 42
0.115743
  0
VERTEX
  8
0
 10
260.514394
 20
252.367798
 42
0.093351
  0
VERTEX
  8
0
 10
260.101488
 20
250.747689
 42
0.015848
  0
VERTEX
  8
0
 10
260.000000
 20
247.546665
 42
-0.046347
  0
VERTEX
  8
0
 10
259.408741
 20
241.181727
 42
-0.017429
  0
VERTEX
  8
0
 10
257.452367
 20
232.437489
 42
-0.017546
  0
VERTEX
  8
0
 10
254.746350
 20
223.371097
 42
-0.026925
  0
VERTEX
  8
0
 10
251.715118
 20
215.759224
 42
-0.018872
  0
VERTEX
  8
0
 10
248.547070
 20
209.530980
 42
-0.014219
  0
VERTEX
  8
0
 10
244.619123
 20
202.929242
 42
-0.014455
  0
VERTEX
  8
0
 10
240.543771
 20
196.895858
 42
-0.030168
  0
VERTEX
  8
0
 10
236.964975
 20
192.500000
 42
0.052808
  0
VERTEX
  8
0
 10
235.376607
 20
190.358157
 42
0.079946
  0
VERTEX
  8
0
 10
234.532727
 20
188.201813
 42
0.038689
  0
VERTEX
  8
0
 10
234.084361
 20
184.928579
 42
0.004446
  0
VERTEX
  8
0
 10
233.713354
 20
177.500000
 42
-0.016719
  0
VERTEX
  8
0
 10
233.013266
 20
168.113300
 42
-0.031289
  0
VERTEX
  8
0
 10
231.722031
 20
160.610777
 42
-0.033364
  0
VERTEX
  8
0
 10
229.572445
 20
153.654313
 42
-0.022207
  0
VERTEX
  8
0
 10
226.238284
 20
146.000000
 42
-0.061905
  0
VERTEX
  8
0
 10
219.460707
 20
135.629596
 42
-0.048345
  0
VERTEX
  8
0
 10
209.808350
 20
126.238822
 42
-0.048312
  0
VERTEX
  8
0
 10
198.524037
 20
118.869876
 42
-0.061566
  0
VERTEX
  8
0
 10
186.896887
 20
114.507017
 42
-0.029737
  0
VERTEX
  8
0
 10
183.199164
 20
113.847355
 42
-0.005455
  0
VERTEX
  8
0
 10
176.296344
 20
113.111689
 42
-0.005845
  0
VERTEX
  8
0
 10
168.189647
 20
112.432603
 42
-0.005286
  0
VERTEX
  8
0
 10
159.792794
 20
111.917133
 42
-0.006054
  0
VERTEX
  8
0
 10
143.982476
 20
111.306060
 42
-0.065900
  0
VERTEX
  8
0
 10
137.656570
 20
111.973294
 42
-0.098235
  0
VERTEX
  8
0
 10
132.675642
 20
114.272980
 42
-0.020265
  0
VERTEX
  8
0
 10
125.055630
 20
120.296413
 42
-0.067676
  0
VERTEX
  8
0
 10
113.404973
 20
133.414560
 42
-0.083851
  0
VERTEX
  8
0
 10
106.698088
 20
148.282573
 42
-0.084382
  0
VERTEX
  8
0
 10
105.270009
 20
164.452455
 42
-0.069549
  0
VERTEX
  8
0
 10
109.039118
 20
181.375005
 42
-0.027237
  0
VERTEX
  8
0
 10
111.311001
 20
186.566844
 42
-0.025963
  0
VERTEX
  8
0
 10
114.166612
 20
191.567494
 42
-0.026906
  0
VERTEX
  8
0
 10
116.776591
 20
195.188264
 42
-0.597122
  0
VERTEX
  8
0
 10
117.787202
 20
195.000000
 42
0.019308
  0
VERTEX
  8
0
 10
118.081433
 20
194.190510
 42
0.004511
  0
VERTEX
  8
0
 10
118.638976
 20
192.857932
 42
0.004644
  0
VERTEX
  8
0
 10
119.309030
 20
191.335349
 42
0.004543
  0
VERTEX
  8
0
 10
120.012078
 20
189.814236
 42
-0.027198
  0
VERTEX
  8
0
 10
120.864756
 20
187.725937
 42
-0.061846
  0
VERTEX
  8
0
 10
121.218980
 20
186.061855
 42
-0.060996
  0
VERTEX
  8
0
 10
121.157850
 20
184.347501
 42
-0.025843
  0
VERTEX
  8
0
 10
120.679296
 20
182.092981
 42
0.077450
  0
VERTEX
  8
0
 10
120.259112
 20
178.152956
 42
0.090938
  0
VERTEX
  8
0
 10
121.113223
 20
174.500624
 42
0.112151
  0
VERTEX
  8
0
 10
123.000402
 20
171.936479
 42
0.180150
  0
VERTEX
  8
0
 10
125.515206
 20
171.000000
 42
0.054409
  0
VERTEX
  8
0
 10
126.532102
 20
171.110986
 42
0.057266
  0
VERTEX
  8
0
 10
127.482704
 20
171.438535
 42
0.063923
  0
VERTEX
  8
0
 10
128.229489
 20
171.921328
 42
0.126368
  0
VERTEX
  8
0
 10
128.635643
 20
172.492885
 42
-0.108878
  0
VERTEX
  8
0
 10
129.042299
 20
173.109114
 42
-0.120279
  0
VERTEX
  8
0
 10
129.657165
 20
173.470347
 42
-0.092049
  0
VERTEX
  8
0
 10
130.505646
 20
173.562502
 42
-0.042654
  0
VERTEX
  8
0
 10
131.604258
 20
173.384477
 42
0.036443
  0
VERTEX
  8
0
 10
132.551613
 20
173.218880
 42
0.070469
  0
VERTEX
  8
0
 10
133.318747
 20
173.249974
 42
0.111842
  0
VERTEX
  8
0
 10
133.815685
 20
173.462407
 42
0.240498
  0
VERTEX
  8
0
 10
134.000000
 20
173.823438
 42
-0.211114
  0
VERTEX
  8
0
 10
134.265337
 20
174.423851
 42
-0.008478
  0
VERTEX
  8
0
 10
136.096904
 20
176.035465
 42
-0.013630
  0
VERTEX
  8
0
 10
138.402968
 20
177.890351
 42
-0.009091
  0
VERTEX
  8
0
 10
141.138397
 20
179.892962
 42
-0.007973
  0
VERTEX
  8
0
 10
145.032626
 20
182.544703
 42
-0.042279
  0
VERTEX
  8
0
 10
147.297203
 20
183.774117
 42
-0.086157
  0
VERTEX
  8
0
 10
148.885889
 20
184.164529
 42
-0.141044
  0
VERTEX
  8
0
 10
150.231538
 20
183.876085
 42
0.124672
  0
VERTEX
  8
0
 10
152.552998
 20
183.299778
 42
0.079281
  0
VERTEX
  8
0
 10
155.315265
 20
183.753953
 42
0.048658
  0
VERTEX
  8
0
 10
158.929363
 20
185.361124
 42
0.014630
  0
VERTEX
  8
0
 10
164.081720
 20
188.484244
 42
0.022935
  0
VERTEX
  8
0
 10
172.710920
 20
194.645380
 42
0.062999
  0
VERTEX
  8
0
 10
177.958295
 20
199.959789
 42
0.100203
  0
VERTEX
  8
0
 10
180.305905
 20
204.776832
 42
0.155501
  0
VERTEX
  8
0
 10
180.054765
 20
209.355958
 42
0.046667
  0
VERTEX
  8
0
 10
179.557914
 20
210.367453
 42
0.052987
  0
VERTEX
  8
0
 10
178.899516
 20
211.223313
 42
0.060444
  0
VERTEX
  8
0
 10
178.187241
 20
211.809326
 42
0.142888
  0
VERTEX
  8
0
 10
177.533649
 20
212.000000
 42
0.128524
  0
VERTEX
  8
0
 10
176.506740
 20
211.731601
 42
0.003219
  0
VERTEX
  8
0
 10
172.274527
 20
209.321123
 42
0.006711
  0
VERTEX
  8
0
 10
167.332785
 20
206.375050
 42
0.004499
  0
VERTEX
  8
0
 10
161.758898
 20
202.880418
 42
-0.002632
  0
VERTEX
  8
0
 10
156.136570
 20
199.326104
 42
-0.003617
  0
VERTEX
  8
0
 10
151.041895
 20
196.193790
 42
-0.002333
  0
VERTEX
  8
0
 10
146.733909
 20
193.615286
 42
-0.042844
  0
VERTEX
  8
0
 10
145.298616
 20
192.923653
 42
0.025375
  0
VERTEX
  8
0
 10
144.186508
 20
192.434802
 42
0.007950
  0
VERTEX
  8
0
 10
142.572408
 20
191.592869
 42
0.007921
  0
VERTEX
  8
0
 10
140.797522
 20
190.594170
 42
0.008682
  0
VERTEX
  8
0
 10
139.109212
 20
189.568943
 42
-0.015632
  0
VERTEX
  8
0
 10
136.637300
 20
188.114504
 42
-0.089526
  0
VERTEX
  8
0
 10
135.199982
 20
187.635002
 42
-0.107787
  0
VERTEX
  8
0
 10
133.810089
 20
187.734300
 42
-0.027435
  0
VERTEX
  8
0
 10
131.667870
 20
188.494306
 42
-0.042480
  0
VERTEX
  8
0
 10
129.774273
 20
189.481792
 42
-0.096654
  0
VERTEX
  8
0
 10
128.607966
 20
190.586559
 42
-0.076560
  0
VERTEX
  8
0
 10
127.787967
 20
192.213075
 42
-0.019675
  0
VERTEX
  8
0
 10
126.987055
 20
195.053962
 42
-0.038676
  0
VERTEX
  8
0
 10
126.090411
 20
200.676772
 42
-0.079944
  0
VERTEX
  8
0
 10
126.439408
 20
205.100605
 42
-0.090675
  0
VERTEX
  8
0
 10
128.101035
 20
208.830151
 42
-0.062178
  0
VERTEX
  8
0
 10
131.178142
 20
212.309093
 42
-0.038115
  0
VERTEX
  8
0
 10
137.271630
 20
216.905193
 42
-0.059244
  0
VERTEX
  8
0
 10
143.186865
 20
219.774856
 42
-0.046022
  0
VERTEX
  8
0
 10
150.625660
 20
221.605932
 42
-0.014525
  0
VERTEX
  8
0
 10
162.000000
 20
222.981233
 42
0.008552
  0
VERTEX
  8
0
 10
168.232162
 20
223.659358
 42
0.025178
  0
VERTEX
  8
0
 10
172.476762
 20
224.413488
 42
0.032434
  0
VERTEX
  8
0
 10
175.989077
 20
225.465528
 42
0.024391
  0
VERTEX
  8
0
 10
179.697360
 20
227.053694
 42
0.071718
  0
VERTEX
  8
0
 10
187.471975
 20
232.333919
 42
0.057548
  0
VERTEX
  8
0
 10
194.118228
 20
239.972648
 42
0.058891
  0
VERTEX
  8
0
 10
198.701761
 20
248.703827
 42
0.086107
  0
VERTEX
  8
0
 10
200.371733
 20
257.204533
 42
-0.015490
  0
VERTEX
  8
0
 10
200.496960
 20
259.557636
 42
-0.031311
  0
VERTEX
  8
0
 10
200.768232
 20
261.392924
 42
-0.036669
  0
VERTEX
  8
0
 10
201.138443
 20
262.667624
 42
-0.311386
  0
VERTEX
  8
0
 10
201.601325
 20
262.991897
 42
-0.123433
  0
VERTEX
  8
0
 10
202.236063
 20
262.837732
 42
-0.014249
  0
VERTEX
  8
0
 10
203.524372
 20
262.113062
 42
-0.016462
  0
VERTEX
  8
0
 10
205.027824
 20
261.141307
 42
-0.012737
  0
VERTEX
  8
0
 10
206.601325
 20
259.988739
 42
0.009478
  0
VERTEX
  8
0
 10
211.652726
 20
256.237826
 42
0.017313
  0
VERTEX
  8
0
 10
215.931764
 20
253.402815
 42
0.017751
  0
VERTEX
  8
0
 10
219.365124
 20
251.459664
 42
0.120457
  0
VERTEX
  8
0
 10
221.245441
 20
251.000000
 42
0.086848
  0
VERTEX
  8
0
 10
223.423602
 20
251.381212
 42
0.038229
  0
VERTEX
  8
0
 10
226.100525
 20
252.586112
 42
0.034758
  0
VERTEX
  8
0
 10
228.426190
 20
254.073025
 42
0.219439
  0
VERTEX
  8
0
 10
229.083871
 20
255.275680
 42
0.005457
  0
VERTEX
  8
0
 10
229.127550
 20
256.034715
 42
0.000616
  0
VERTEX
  8
0
 10
229.205638
 20
257.755981
 42
0.000747
  0
VERTEX
  8
0
 10
229.292970
 20
259.804357
 42
0.000607
  0
VERTEX
  8
0
 10
229.380623
 20
262.000000
 42
-0.028205
  0
VERTEX
  8
0
 10
229.628689
 20
264.601085
 42
-0.023237
  0
VERTEX
  8
0
 10
230.176934
 20
267.334526
 42
-0.023292
  0
VERTEX
  8
0
 10
230.974406
 20
269.997345
 42
-0.028827
  0
VERTEX
  8
0
 10
231.970857
 20
272.386107
 42
0.007094
  0
VERTEX
  8
0
 10
233.436891
 20
275.511143
 42
0.085885
  0
VERTEX
  8
0
 10
233.767754
 20
276.790318
 42
0.193712
  0
VERTEX
  8
0
 10
233.492162
 20
277.678311
 42
0.064040
  0
VERTEX
  8
0
 10
232.482975
 20
278.636107
 42
0.040448
  0
VERTEX
  8
0
 10
231.632191
 20
279.158336
 42
0.029798
  0
VERTEX
  8
0
 10
230.617739
 20
279.599357
 42
0.030385
  0
VERTEX
  8
0
 10
229.601459
 20
279.902363
 42
0.057315
  0
VERTEX
  8
0
 10
228.752500
 20
280.000000
 42
-0.112458
  0
VERTEX
  8
0
 10
227.844537
 20
280.206831
 42
-0.033829
  0
VERTEX
  8
0
 10
226.604303
 20
280.909686
 42
-0.032017
  0
VERTEX
  8
0
 10
225.278708
 20
281.911623
 42
-0.029861
  0
VERTEX
  8
0
 10
224.058766
 20
283.096803
 42
0.017894
  0
VERTEX
  8
0
 10
222.424903
 20
284.761900
 42
0.095484
  0
VERTEX
  8
0
 10
221.356611
 20
285.444672
 42
0.150732
  0
VERTEX
  8
0
 10
220.358862
 20
285.523749
 42
0.067923
  0
VERTEX
  8
0
 10
219.115136
 20
285.061619
 42
0.027957
  0
VERTEX
  8
0
 10
218.305393
 20
284.568168
 42
0.035465
  0
VERTEX
  8
0
 10
217.621321
 20
284.021633
 42
0.038249
  0
VERTEX
  8
0
 10
217.136157
 20
283.500153
 42
0.169824
  0
VERTEX
  8
0
 10
217.000000
 20
283.110839
 42
-0.179253
  0
VERTEX
  8
0
 10
216.486487
 20
281.724492
 42
-0.025715
  0
VERTEX
  8
0
 10
214.365221
 20
279.496634
 42
-0.026279
  0
VERTEX
  8
0
 10
212.020736
 20
277.497989
 42
-0.164816
  0
VERTEX
  8
0
 10
210.551032
 20
277.000000
 42
-0.645299
  0
VERTEX
  8
0
 10
210.198345
 20
277.779960
 42
-0.007781
  0
VERTEX
  8
0
 10
215.114686
 20
283.196600
 42
-0.012424
  0
VERTEX
  8
0
 10
220.267578
 20
288.432311
 42
-0.065447
  0
VERTEX
  8
0
 10
223.500000
 20
290.828041
 42
-0.080941
  0
VERTEX
  8
0
 10
225.754154
 20
291.639599
 42
-0.043619
  0
VERTEX
  8
0
 10
228.700344
 20
291.925885
 42
-0.041939
  0
VERTEX
  8
0
 10
231.836426
 20
291.692942
 42
-0.050863
  0
SEQEND
  0
POLYLINE
  8
0
 66
1
 70
1
  0
VERTEX
  8
0
 10
225.530493
 20
278.552554
 42
0.015984
  0
VERTEX
  8
0
 10
226.893732
 20
277.958264
 42
0.016270
  0
VERTEX
  8
0
 10
228.284188
 20
277.456063
 42
0.016263
  0
VERTEX
  8
0
 10
229.518301
 20
277.099133
 42
0.062334
  0
VERTEX
  8
0
 10
230.310380
 20
277.000000
 42
-0.184351
  0
VERTEX
  8
0
 10
230.937472
 20
276.760656
 42
-0.248648
  0
VERTEX
  8
0
 10
231.144392
 20
276.201049
 42
-0.071557
  0
VERTEX
  8
0
 10
230.823724
 20
275.069358
 42
-0.008934
  0
VERTEX
  8
0
 10
229.740717
 20
272.750000
 42
0.031272
  0
VERTEX
  8
0
 10
228.911132
 20
270.744359
 42
0.017276
  0
VERTEX
  8
0
 10
228.139538
 20
268.206250
 42
0.017169
  0
VERTEX
  8
0
 10
227.532671
 20
265.569802
 42
0.026356
  0
VERTEX
  8
0
 10
227.207636
 20
263.250000
 42
0.000000
  0
VERTEX
  8
0
 10
226.752340
 20
258.000000
 42
0.000000
  0
VERTEX
  8
0
 10
222.786974
 20
258.000000
 42
-0.043141
  0
VERTEX
  8
0
 10
220.510987
 20
258.196745
 42
-0.079894
  0
VERTEX
  8
0
 10
218.761560
 20
258.799701
 42
-0.060727
  0
VERTEX
  8
0
 10
216.993797
 20
260.042247
 42
-0.016422
  0
VERTEX
  8
0
 10
214.524229
 20
262.421678
 42
0.042049
  0
VERTEX
  8
0
 10
211.383727
 20
265.151779
 42
0.045745
  0
VERTEX
  8
0
 10
207.914310
 20
267.232060
 42
0.048553
  0
VERTEX
  8
0
 10
204.336122
 20
268.544990
 42
0.062887
  0
VERTEX
  8
0
 10
200.872445
 20
268.994423
 42
-0.129292
  0
VERTEX
  8
0
 10
199.344715
 20
269.401786
 42
-0.097575
  0
VERTEX
  8
0
 10
198.024498
 20
270.541783
 42
-0.102122
  0
VERTEX
  8
0
 10
197.277817
 20
272.047165
 42
-0.157103
  0
VERTEX
  8
0
 10
197.356740
 20
273.487265
 42
-0.184697
  0
VERTEX
  8
0
 10
198.013330
 20
274.218469
 42
-0.069937
  0
VERTEX
  8
0
 10
199.331832
 20
274.676265
 42
-0.038818
  0
VERTEX
  8
0
 10
201.494715
 20
274.930357
 42
-0.009837
  0
VERTEX
  8
0
 10
205.034357
 20
275.000000
 42
0.019292
  0
VERTEX
  8
0
 10
210.437298
 20
275.208548
 42
0.083052
  0
VERTEX
  8
0
 10
213.549186
 20
275.979595
 42
0.108005
  0
VERTEX
  8
0
 10
215.816918
 20
277.611531
 42
0.044596
  0
VERTEX
  8
0
 10
218.096033
 20
280.655385
 42
-0.006722
  0
VERTEX
  8
0
 10
219.561150
 20
282.956243
 42
-0.135247
  0
VERTEX
  8
0
 10
220.178746
 20
283.499527
 42
-0.375447
  0
VERTEX
  8
0
 10
220.686837
 20
283.361251
 42
-0.041789
  0
VERTEX
  8
0
 10
221.314774
 20
282.220588
 42
0.075907
  0
VERTEX
  8
0
 10
221.907081
 20
281.298989
 42
0.033015
  0
VERTEX
  8
0
 10
222.942523
 20
280.270468
 42
0.031712
  0
VERTEX
  8
0
 10
224.208782
 20
279.302573
 42
0.036558
  0
SEQEND
  0
POLYLINE
  8
0
 66
1
 70
1
  0
VERTEX
  8
0
 10
245.662844
 20
272.436230
 42
-0.137781
  0
VERTEX
  8
0
 10
245.822821
 20
270.713001
 42
-0.058685
  0
VERTEX
  8
0
 10
245.135480
 20
268.479173
 42
-0.060089
  0
VERTEX
  8
0
 10
244.011440
 20
266.585879
 42
-0.232823
  0
VERTEX
  8
0
 10
242.821439
 20
266.000000
 42
-0.049957
  0
VERTEX
  8
0
 10
242.266390
 20
266.055596
 42
-0.351845
  0
VERTEX
  8
0
 10
242.104466
 20
266.250000
 42
-0.184297
  0
VERTEX
  8
0
 10
242.223201
 20
266.578698
 42
-0.018566
  0
VERTEX
  8
0
 10
242.800000
 20
267.200000
 42
0.124920
  0
VERTEX
  8
0
 10
243.621681
 20
268.580628
 42
0.059942
  0
VERTEX
  8
0
 10
243.969906
 20
270.626992
 42
0.068456
  0
VERTEX
  8
0
 10
243.812005
 20
272.419014
 42
0.349863
  0
VERTEX
  8
0
 10
243.083333
 20
273.000000
 42
0.201713
  0
VERTEX
  8
0
 10
242.664625
 20
272.823918
 42
0.041240
  0
VERTEX
  8
0
 10
242.140899
 20
272.192187
 42
0.037406
  0
VERTEX
  8
0
 10
241.613955
 20
271.303029
 42
0.027514
  0
VERTEX
  8
0
 10
241.162281
 20
270.250000
 42
-0.016120
  0
VERTEX
  8
0
 10
240.769107
 20
269.272484
 42
-0.058127
  0
VERTEX
  8
0
 10
240.429742
 20
268.694312
 42
-0.327886
  0
VERTEX
  8
0
 10
240.217579
 20
268.630949
 42
-0.300429
  0
VERTEX
  8
0
 10
240.078947
 20
268.815741
 42
-0.127546
  0
VERTEX
  8
0
 10
240.591636
 20
271.428112
 42
-0.137876
  0
VERTEX
  8
0
 10
242.302314
 20
273.372528
 42
-0.210643
  0
VERTEX
  8
0
 10
244.262498
 20
273.688901
 42
-0.241855
  0
SEQEND
  0
POLYLINE
  8
0
 66
1
 70
1
  0
VERTEX
  8
0
 10
210.595012
 20
261.845198
 42
0.000000
  0
VERTEX
  8
0
 10
212.500000
 20
259.690397
 42
0.000000
  0
VERTEX
  8
0
 10
209.750000
 20
261.460208
 42
-0.010783
  0
VERTEX
  8
0
 10
207.935928
 20
262.683799
 42
-0.078231
  0
VERTEX
  8
0
 10
207.184120
 20
263.414433
 42
-0.422229
  0
VERTEX
  8
0
 10
207.246034
 20
263.809368
 42
-0.155293
  0
VERTEX
  8
0
 10
207.845012
 20
264.000000
 42
-0.142218
  0
VERTEX
  8
0
 10
208.286589
 20
263.871807
 42
-0.024894
  0
VERTEX
  8
0
 10
209.001393
 20
263.367027
 42
-0.025257
  0
VERTEX
  8
0
 10
209.803714
 20
262.670204
 42
-0.020305
  0
SEQEND
  0
POLYLINE
  8
0
 66
1
 70
1
  0
VERTEX
  8
0
 10
224.269032
 20
254.344063
 42
-0.062780
  0
VERTEX
  8
0
 10
223.671085
 20
254.185595
 42
-0.030339
  0
VERTEX
  8
0
 10
222.880008
 20
254.127736
 42
-0.029507
  0
VERTEX
  8
0
 10
222.036634
 20
254.167106
 42
-0.037336
  0
VERTEX
  8
0
 10
221.269032
 20
254.307009
 42
-0.087174
  0
VERTEX
  8
0
 10
220.883358
 20
254.483340
 42
-0.597527
  0
VERTEX
  8
0
 10
220.900903
 20
254.643467
 42
-0.080377
  0
VERTEX
  8
0
 10
221.431793
 20
254.764444
 42
-0.012823
  0
VERTEX
  8
0
 10
222.500000
 20
254.805051
 42
-0.014395
  0
VERTEX
  8
0
 10
223.580113
 20
254.787295
 42
-0.052471
  0
VERTEX
  8
0
 10
224.257153
 20
254.684921
 42
-0.333666
  0
VERTEX
  8
0
 10
224.386009
 20
254.522870
 42
-0.313180
  0
SEQEND
  0
POLYLINE
  8
0
 66
1
 70
1
  0
VERTEX
  8
0
 10
145.000000
 20
224.158288
 42
-0.249843
  0
VERTEX
  8
0
 10
144.791688
 20
223.767425
 42
-0.027539
  0
VERTEX
  8
0
 10
143.889817
 20
223.231209
 42
-0.028423
  0
VERTEX
  8
0
 10
142.668627
 20
222.679235
 42
-0.019149
  0
VERTEX
  8
0
 10
141.220653
 20
222.184255
 42
0.071505
  0
VERTEX
  8
0
 10
137.973500
 20
220.679831
 42
0.016520
  0
VERTEX
  8
0
 10
133.019255
 20
217.219657
 42
0.017589
  0
VERTEX
  8
0
 10
128.218464
 20
213.354236
 42
0.049304
  0
VERTEX
  8
0
 10
125.250000
 20
210.226082
 42
0.147096
  0
VERTEX
  8
0
 10
124.292195
 20
207.746241
 42
0.019899
  0
VERTEX
  8
0
 10
124.085318
 20
202.111125
 42
0.023952
  0
VERTEX
  8
0
 10
124.384642
 20
196.246252
 42
0.057504
  0
VERTEX
  8
0
 10
125.306442
 20
192.000000
 42
0.046450
  0
VERTEX
  8
0
 10
126.045549
 20
190.351506
 42
0.052770
  0
VERTEX
  8
0
 10
127.050834
 20
188.942645
 42
0.052137
  0
VERTEX
  8
0
 10
128.340135
 20
187.762044
 42
0.043593
  0
VERTEX
  8
0
 10
129.922848
 20
186.791438
 42
-0.017598
  0
VERTEX
  8
0
 10
131.348958
 20
186.015732
 42
-0.014802
  0
VERTEX
  8
0
 10
132.803523
 20
185.097771
 42
-0.015058
  0
VERTEX
  8
0
 10
134.082130
 20
184.179771
 42
-0.039406
  0
VERTEX
  8
0
 10
134.922848
 20
183.425019
 42
-0.023862
  0
VERTEX
  8
0
 10
135.764079
 20
182.451719
 42
-0.484898
  0
VERTEX
  8
0
 10
135.684197
 20
182.122385
 42
-0.147137
  0
VERTEX
  8
0
 10
135.090640
 20
182.040147
 42
-0.005040
  0
VERTEX
  8
0
 10
132.750000
 20
182.428894
 42
0.012902
  0
VERTEX
  8
0
 10
129.974087
 20
182.845200
 42
0.276527
  0
VERTEX
  8
0
 10
129.245774
 20
182.522998
 42
0.292618
  0
VERTEX
  8
0
 10
129.210554
 20
181.747268
 42
0.014019
  0
VERTEX
  8
0
 10
130.635458
 20
179.433608
 42
-0.035689
  0
VERTEX
  8
0
 10
131.792783
 20
177.358217
 42
-0.318683
  0
VERTEX
  8
0
 10
131.616344
 20
176.386800
 42
-0.395719
  0
VERTEX
  8
0
 10
130.751030
 20
176.369068
 42
-0.039271
  0
VERTEX
  8
0
 10
129.186956
 20
178.017446
 42
0.064703
  0
VERTEX
  8
0
 10
127.568334
 20
179.558680
 42
0.313214
  0
VERTEX
  8
0
 10
126.367106
 20
179.588255
 42
0.241100
  0
VERTEX
  8
0
 10
125.682426
 20
178.378931
 42
0.046967
  0
VERTEX
  8
0
 10
125.816437
 20
175.797339
 42
-0.006827
  0
VERTEX
  8
0
 10
126.088229
 20
173.751447
 42
-0.184765
  0
VERTEX
  8
0
 10
125.956987
 20
173.230930
 42
-0.413164
  0
VERTEX
  8
0
 10
125.591708
 20
173.166424
 42
-0.020980
  0
VERTEX
  8
0
 10
124.533994
 20
173.971787
 42
-0.092359
  0
VERTEX
  8
0
 10
123.652108
 20
175.031908
 42
-0.092511
  0
VERTEX
  8
0
 10
123.211798
 20
176.337879
 42
-0.050652
  0
VERTEX
  8
0
 10
123.134059
 20
178.306573
 42
-0.010087
  0
VERTEX
  8
0
 10
123.422533
 20
181.819932
 42
0.014837
  0
VERTEX
  8
0
 10
123.606945
 20
184.361715
 42
0.019831
  0
VERTEX
  8
0
 10
123.614108
 20
186.674343
 42
0.017945
  0
VERTEX
  8
0
 10
123.477441
 20
188.557536
 42
0.143984
  0
VERTEX
  8
0
 10
123.147067
 20
189.351456
 42
-0.060137
  0
VERTEX
  8
0
 10
122.689906
 20
190.080306
 42
-0.009418
  0
VERTEX
  8
0
 10
121.994937
 20
191.631365
 42
-0.010357
  0
VERTEX
  8
0
 10
121.244318
 20
193.501486
 42
-0.008867
  0
VERTEX
  8
0
 10
120.530067
 20
195.500000
 42
-0.115128
  0
VERTEX
  8
0
 10
119.532429
 20
205.831477
 42
-0.114014
  0
VERTEX
  8
0
 10
123.201557
 20
215.578502
 42
-0.117886
  0
VERTEX
  8
0
 10
130.643495
 20
222.497926
 42
-0.129299
  0
VERTEX
  8
0
 10
140.157284
 20
225.000000
 42
-0.016346
  0
VERTEX
  8
0
 10
142.013711
 20
224.939294
 42
-0.026685
  0
VERTEX
  8
0
 10
143.577452
 20
224.752747
 42
-0.025046
  0
VERTEX
  8
0
 10
144.749795
 20
224.487914
 42
-0.336542
  0
SEQEND
  0
POLYLINE
  8
0
 66
1
 70
1
  0
VERTEX
  8
0
 10
178.000000
 20
205.845164
 42
-0.064646
  0
VERTEX
  8
0
 10
177.776448
 20
204.123327
 42
-0.066768
  0
VERTEX
  8
0
 10
177.121025
 20
202.535892
 42
-0.050983
  0
VERTEX
  8
0
 10
175.906376
 20
200.858645
 42
-0.020430
  0
VERTEX
  8
0
 10
173.932277
 20
198.820795
 42
-0.027647
  0
VERTEX
  8
0
 10
168.797712
 20
194.450585
 42
-0.020608
  0
VERTEX
  8
0
 10
162.693710
 20
190.196532
 42
-0.017264
  0
VERTEX
  8
0
 10
156.916172
 20
186.788617
 42
-0.125250
  0
VERTEX
  8
0
 10
153.817380
 20
186.000000
 42
-0.123544
  0
VERTEX
  8
0
 10
151.683889
 20
186.535329
 42
-0.082998
  0
VERTEX
  8
0
 10
149.684626
 20
188.078336
 42
-0.102947
  0
VERTEX
  8
0
 10
148.582720
 20
189.905353
 42
-0.288349
  0
VERTEX
  8
0
 10
148.900454
 20
191.300454
 42
-0.053595
  0
VERTEX
  8
0
 10
151.540282
 20
193.427817
 42
-0.001728
  0
VERTEX
  8
0
 10
163.078273
 20
200.787025
 42
-0.000830
  0
VERTEX
  8
0
 10
175.206200
 20
208.435500
 42
-0.126626
  0
VERTEX
  8
0
 10
176.750000
 20
208.928458
 42
-0.218490
  0
VERTEX
  8
0
 10
177.255684
 20
208.730546
 42
-0.095884
  0
VERTEX
  8
0
 10
177.656615
 20
208.113688
 42
-0.063870
  0
VERTEX
  8
0
 10
177.916542
 20
207.127050
 42
-0.032518
  0
SEQEND
  0
POLYLINE
  8
0
 66
1
 70
1
  0
VERTEX
  8
0
 10
120.377811
 20
112.246267
 42
0.020461
  0
VERTEX
  8
0
 10
121.642499
 20
101.544558
 42
0.123531
  0
VERTEX
  8
0
 10
123.825819
 20
96.442708
 42
0.164302
  0
VERTEX
  8
0
 10
127.844367
 20
93.723328
 42
0.044058
  0
VERTEX
  8
0
 10
135.535790
 20
92.314428
 42
-0.020347
  0
VERTEX
  8
0
 10
140.208448
 20
91.685473
 42
-0.072810
  0
VERTEX
  8
0
 10
143.061857
 20
90.740357
 42
-0.155294
  0
VERTEX
  8
0
 10
144.385164
 20
89.448583
 42
-0.217259
  0
VERTEX
  8
0
 10
144.485251
 20
87.822160
 42
-0.144243
  0
VERTEX
  8
0
 10
143.552026
 20
86.601970
 42
-0.077604
  0
VERTEX
  8
0
 10
141.854628
 20
85.725888
 42
-0.054686
  0
VERTEX
  8
0
 10
139.375545
 20
85.191503
 42
-0.024776
  0
VERTEX
  8
0
 10
136.054719
 20
85.013655
 42
0.048131
  0
VERTEX
  8
0
 10
134.337001
 20
84.841048
 42
0.053869
  0
VERTEX
  8
0
 10
132.751027
 20
84.343539
 42
0.051129
  0
VERTEX
  8
0
 10
131.241767
 20
83.491828
 42
0.037027
  0
VERTEX
  8
0
 10
129.751727
 20
82.262139
 42
-0.015341
  0
VERTEX
  8
0
 10
127.876680
 20
80.572941
 42
-0.134382
  0
VERTEX
  8
0
 10
126.871897
 20
80.105471
 42
-0.152142
  0
VERTEX
  8
0
 10
125.825371
 20
80.246203
 42
-0.021349
  0
VERTEX
  8
0
 10
123.865968
 20
81.262139
 42
0.058243
  0
VERTEX
  8
0
 10
121.225175
 20
82.393208
 42
0.052472
  0
VERTEX
  8
0
 10
118.299492
 20
82.936075
 42
0.057462
  0
VERTEX
  8
0
 10
115.777989
 20
82.844808
 42
0.220011
  0
VERTEX
  8
0
 10
114.500000
 20
82.000000
 42
-0.211444
  0
VERTEX
  8
0
 10
113.246638
 20
81.141660
 42
-0.067082
  0
VERTEX
  8
0
 10
110.931873
 20
81.026384
 42
-0.067240
  0
VERTEX
  8
0
 10
108.676031
 20
81.527237
 42
-0.216184
  0
VERTEX
  8
0
 10
107.606989
 20
82.581787
 42
-0.061310
  0
VERTEX
  8
0
 10
107.120375
 20
84.536858
 42
-0.094382
  0
VERTEX
  8
0
 10
107.236274
 20
86.271106
 42
-0.065636
  0
VERTEX
  8
0
 10
108.044458
 20
88.259686
 42
-0.017168
  0
VERTEX
  8
0
 10
109.852931
 20
91.199868
 42
0.030935
  0
VERTEX
  8
0
 10
112.448356
 20
95.691910
 42
0.051510
  0
VERTEX
  8
0
 10
113.982869
 20
99.779295
 42
0.045226
  0
VERTEX
  8
0
 10
114.765343
 20
104.454623
 42
0.018464
  0
VERTEX
  8
0
 10
115.013655
 20
110.899223
 42
-0.006458
  0
VERTEX
  8
0
 10
115.063853
 20
114.360031
 42
-0.007524
  0
VERTEX
  8
0
 10
115.203494
 20
117.646203
 42
-0.006767
  0
VERTEX
  8
0
 10
115.400751
 20
120.417891
 42
-0.044316
  0
VERTEX
  8
0
 10
115.640740
 20
121.789977
 42
-0.019657
  0
VERTEX
  8
0
 10
116.053128
 20
123.118218
 42
-0.236603
  0
VERTEX
  8
0
 10
116.427980
 20
123.478648
 42
-0.243126
  0
VERTEX
  8
0
 10
116.934032
 20
123.388719
 42
-0.020677
  0
VERTEX
  8
0
 10
117.981333
 20
122.516894
 42
-0.110527
  0
VERTEX
  8
0
 10
118.831365
 20
121.313729
 42
-0.041444
  0
VERTEX
  8
0
 10
119.469095
 20
119.336973
 42
-0.028352
  0
VERTEX
  8
0
 10
119.971283
 20
116.455389
 42
-0.009785
  0
SEQEND
  0
POLYLINE
  8
0
 66
1
 70
1
  0
VERTEX
  8
0
 10
192.359439
 20
107.750000
 42
-0.000491
  0
VERTEX
  8
0
 10
192.611740
 20
105.505612
 42
-0.000138
  0
VERTEX
  8
0
 10
193.000904
 20
102.004074
 42
-0.000139
  0
VERTEX
  8
0
 10
193.438582
 20
98.046018
 42
-0.000147
  0
VERTEX
  8
0
 10
193.866319
 20
94.157486
 42
0.012540
  0
VERTEX
  8
0
 10
194.375393
 20
90.391005
 42
0.014622
  0
VERTEX
  8
0
 10
195.052592
 20
86.844279
 42
0.013890
  0
VERTEX
  8
0
 10
195.792274
 20
83.894412
 42
0.076794
  0
VERTEX
  8
0
 10
196.467720
 20
82.408922
 42
0.078666
  0
VERTEX
  8
0
 10
197.511892
 20
81.258563
 42
0.017844
  0
VERTEX
  8
0
 10
199.630880
 20
79.677410
 42
0.018051
  0
VERTEX
  8
0
 10
202.235176
 20
78.010814
 42
0.016666
  0
VERTEX
  8
0
 10
205.022112
 20
76.488865
 42
-0.010177
  0
VERTEX
  8
0
 10
207.696256
 20
75.073243
 42
-0.015534
  0
VERTEX
  8
0
 10
209.950245
 20
73.727375
 42
-0.010060
  0
VERTEX
  8
0
 10
211.732712
 20
72.535271
 42
-0.245035
  0
VERTEX
  8
0
 10
212.000000
 20
72.022612
 42
-0.231212
  0
VERTEX
  8
0
 10
211.477630
 20
70.953368
 42
-0.062333
  0
VERTEX
  8
0
 10
209.809837
 20
69.959497
 42
-0.053705
  0
VERTEX
  8
0
 10
207.536591
 20
69.242323
 42
-0.049614
  0
VERTEX
  8
0
 10
205.100538
 20
69.000000
 42
0.064897
  0
VERTEX
  8
0
 10
203.577741
 20
68.801513
 42
0.045232
  0
VERTEX
  8
0
 10
201.947568
 20
68.207140
 42
0.040188
  0
VERTEX
  8
0
 10
200.259950
 20
67.240063
 42
0.029968
  0
VERTEX
  8
0
 10
198.565083
 20
65.923000
 42
-0.053948
  0
VERTEX
  8
0
 10
195.800278
 20
63.979322
 42
-0.142257
  0
VERTEX
  8
0
 10
193.461749
 20
63.450654
 42
-0.160183
  0
VERTEX
  8
0
 10
191.382719
 20
64.276118
 42
-0.073918
  0
VERTEX
  8
0
 10
189.424610
 20
66.474715
 42
0.081496
  0
VERTEX
  8
0
 10
187.800488
 20
68.243908
 42
0.059877
  0
VERTEX
  8
0
 10
185.521030
 20
69.628567
 42
0.046381
  0
VERTEX
  8
0
 10
182.433916
 20
70.698321
 42
0.022421
  0
VERTEX
  8
0
 10
178.328338
 20
71.513671
 42
-0.044881
  0
VERTEX
  8
0
 10
174.873182
 20
72.362553
 42
-0.277095
  0
VERTEX
  8
0
 10
173.743583
 20
73.704875
 42
-0.243933
  0
VERTEX
  8
0
 10
174.332335
 20
75.483913
 42
-0.036999
  0
VERTEX
  8
0
 10
177.293297
 20
77.971417
 42
0.064084
  0
VERTEX
  8
0
 10
182.297579
 20
82.659133
 42
0.076939
  0
VERTEX
  8
0
 10
185.591440
 20
88.198241
 42
0.064623
  0
VERTEX
  8
0
 10
187.418226
 20
95.239694
 42
0.031203
  0
VERTEX
  8
0
 10
188.000000
 20
104.553156
 42
-0.015838
  0
VERTEX
  8
0
 10
188.119774
 20
108.333331
 42
-0.086489
  0
VERTEX
  8
0
 10
188.596084
 20
110.314875
 42
-0.162859
  0
VERTEX
  8
0
 10
189.560752
 20
111.389935
 42
-0.100954
  0
VERTEX
  8
0
 10
191.188727
 20
111.921053
 42
-0.343141
  0
VERTEX
  8
0
 10
191.482891
 20
111.741922
 42
-0.022276
  0
VERTEX
  8
0
 10
191.816724
 20
110.728372
 42
-0.024948
  0
VERTEX
  8
0
 10
192.125018
 20
109.373583
 42
-0.015235
  0
SEQEND
  0
ENDSEC
  0
EOF
