  0
SECTION
  2
HEADER
  9
$ACADVER
  1
AC1006
  9
$EXTMIN
 10
0.000000
 20
0.000000
 30
0.000000
  9
$EXTMAX
 10
645.000000
 20
612.000000
 30
0.000000
  0
ENDSEC
  0
SECTION
  2
ENTITIES
  0
POLYLINE
  8
0
 66
1
 70
1
  0
VERTEX
  8
0
 10
434.516235
 20
560.967012
 42
0.000994
  0
VERTEX
  8
0
 10
434.722755
 20
534.289902
 42
0.005346
  0
VERTEX
  8
0
 10
435.019233
 20
519.772835
 42
0.004225
  0
VERTEX
  8
0
 10
435.395402
 20
510.269169
 42
0.162422
  0
VERTEX
  8
0
 10
436.154933
 20
508.311171
 42
0.195168
  0
VERTEX
  8
0
 10
437.886422
 20
507.380413
 42
0.019836
  0
VERTEX
  8
0
 10
442.635961
 20
507.056584
 42
0.010830
  0
VERTEX
  8
0
 10
451.058759
 20
506.999736
 42
0.001173
  0
VERTEX
  8
0
 10
470.500000
 20
507.335233
 42
-0.003012
  0
VERTEX
  8
0
 10
487.956081
 20
507.572242
 42
-0.006201
  0
VERTEX
  8
0
 10
501.618144
 20
507.505988
 42
-0.007080
  0
VERTEX
  8
0
 10
514.045432
 20
507.115501
 42
-0.005564
  0
VERTEX
  8
0
 10
527.500000
 20
506.351825
 42
0.004433
  0
VERTEX
  8
0
 10
541.324609
 20
505.535787
 42
0.010114
  0
VERTEX
  8
0
 10
551.770637
 20
505.223713
 42
0.009794
  0
VERTEX
  8
0
 10
562.420528
 20
505.329670
 42
0.003914
  0
VERTEX
  8
0
 10
577.000000
 20
505.874673
 42
-0.001014
  0
VERTEX
  8
0
 10
588.311612
 20
506.363231
 42
-0.000679
  0
VERTEX
  8
0
 10
601.251562
 20
506.878234
 42
-0.000684
  0
VERTEX
  8
0
 10
613.789140
 20
507.343000
 42
-0.001349
  0
VERTEX
  8
0
 10
623.750000
 20
507.671706
 42
0.002203
  0
VERTEX
  8
0
 10
635.370672
 20
508.075057
 42
0.015194
  0
VERTEX
  8
0
 10
641.065412
 20
508.471404
 42
0.024804
  0
VERTEX
  8
0
 10
644.311912
 20
508.960305
 42
0.357039
  0
VERTEX
  8
0
 10
645.000000
 20
509.801071
 42
0.374433
  0
VERTEX
  8
0
 10
644.283901
 20
510.623250
 42
0.025536
  0
VERTEX
  8
0
 10
640.947908
 20
510.913009
 42
0.014231
  0
VERTEX
  8
0
 10
634.931957
 20
510.955837
 42
0.001737
  0
VERTEX
  8
0
 10
621.750000
 20
510.628645
 42
0.001900
  0
VERTEX
  8
0
 10
611.296097
 20
510.293059
 42
0.001186
  0
VERTEX
  8
0
 10
599.051387
 20
509.824318
 42
0.001190
  0
VERTEX
  8
0
 10
586.984997
 20
509.304967
 42
0.002164
  0
VERTEX
  8
0
 10
577.127063
 20
508.814411
 42
-0.005045
  0
VERTEX
  8
0
 10
565.234063
 20
508.291282
 42
-0.010024
  0
VERTEX
  8
0
 10
555.802096
 20
508.160921
 42
-0.010076
  0
VERTEX
  8
0
 10
546.404139
 20
508.408884
 42
-0.005156
  0
VERTEX
  8
0
 10
534.627063
 20
509.079053
 42
0.007405
  0
VERTEX
  8
0
 10
523.097177
 20
509.683151
 42
0.004648
  0
VERTEX
  8
0
 10
509.600656
 20
510.064413
 42
0.004096
  0
VERTEX
  8
0
 10
494.176001
 20
510.230297
 42
0.002846
  0
VERTEX
  8
0
 10
476.750000
 20
510.175743
 42
-0.000857
  0
VERTEX
  8
0
 10
462.658179
 20
510.075571
 42
-0.001430
  0
VERTEX
  8
0
 10
450.795313
 20
510.045520
 42
-0.000083
  0
VERTEX
  8
0
 10
440.136913
 20
510.050767
 42
-0.414021
  0
VERTEX
  8
0
 10
440.000000
 20
510.187771
 42
-0.183342
  0
VERTEX
  8
0
 10
440.087580
 20
510.418586
 42
-0.000715
  0
VERTEX
  8
0
 10
441.982813
 20
512.550286
 42
-0.003486
  0
VERTEX
  8
0
 10
444.162316
 20
514.960641
 42
-0.002170
  0
VERTEX
  8
0
 10
446.750000
 20
517.758146
 42
0.000000
  0
VERTEX
  8
0
 10
453.500000
 20
524.992236
 42
0.000000
  0
VERTEX
  8
0
 10
473.000000
 20
525.325795
 42
-0.006536
  0
VERTEX
  8
0
 10
482.469767
 20
525.363974
 42
-0.002786
  0
VERTEX
  8
0
 10
495.143750
 20
525.178771
 42
-0.002755
  0
VERTEX
  8
0
 10
508.661381
 20
524.831376
 42
-0.003616
  0
VERTEX
  8
0
 10
521.000000
 20
524.356886
 42
0.003186
  0
VERTEX
  8
0
 10
544.000384
 20
523.452558
 42
0.006757
  0
VERTEX
  8
0
 10
561.822103
 20
523.106543
 42
0.008322
  0
VERTEX
  8
0
 10
576.970912
 20
523.269322
 42
0.009404
  0
VERTEX
  8
0
 10
591.500000
 20
523.940987
 42
-0.003023
  0
VERTEX
  8
0
 10
598.254075
 20
524.339655
 42
-0.001333
  0
VERTEX
  8
0
 10
607.189063
 20
524.788988
 42
-0.001319
  0
VERTEX
  8
0
 10
616.664528
 20
525.215131
 42
-0.001773
  0
VERTEX
  8
0
 10
625.250000
 20
525.548063
 42
0.001791
  0
VERTEX
  8
0
 10
637.448573
 20
526.021546
 42
0.022189
  0
VERTEX
  8
0
 10
642.072137
 20
526.423638
 42
0.071759
  0
VERTEX
  8
0
 10
644.279819
 20
527.045080
 42
0.296544
  0
VERTEX
  8
0
 10
645.000000
 20
528.152587
 42
0.273428
  0
VERTEX
  8
0
 10
644.379278
 20
529.202799
 42
0.105641
  0
VERTEX
  8
0
 10
642.696379
 20
529.709911
 42
0.027373
  0
VERTEX
  8
0
 10
639.010668
 20
529.811083
 42
0.001949
  0
VERTEX
  8
0
 10
628.750000
 20
529.490964
 42
0.002391
  0
VERTEX
  8
0
 10
621.580077
 20
529.204951
 42
0.001644
  0
VERTEX
  8
0
 10
613.454687
 20
528.815112
 42
0.001658
  0
VERTEX
  8
0
 10
605.636802
 20
528.388258
 42
0.003377
  0
VERTEX
  8
0
 10
599.500000
 20
527.991172
 42
-0.002546
  0
VERTEX
  8
0
 10
593.828298
 20
527.614704
 42
-0.001862
  0
VERTEX
  8
0
 10
587.528125
 20
527.252276
 42
-0.001881
  0
VERTEX
  8
0
 10
581.557264
 20
526.953627
 42
-0.004164
  0
VERTEX
  8
0
 10
577.000000
 20
526.780888
 42
0.000000
  0
VERTEX
  8
0
 10
567.500000
 20
526.500000
 42
0.000000
  0
VERTEX
  8
0
 10
567.500000
 20
569.250464
 42
0.001309
  0
VERTEX
  8
0
 10
567.445606
 20
590.034723
 42
0.005475
  0
VERTEX
  8
0
 10
567.243218
 20
602.539297
 42
0.002311
  0
VERTEX
  8
0
 10
566.961722
 20
611.400974
 42
0.403715
  0
VERTEX
  8
0
 10
566.339769
 20
612.000464
 42
0.390684
  0
VERTEX
  8
0
 10
564.970794
 20
610.737101
 42
0.006835
  0
VERTEX
  8
0
 10
564.237120
 20
599.791448
 42
0.010285
  0
VERTEX
  8
0
 10
563.728753
 20
584.245464
 42
0.002982
  0
VERTEX
  8
0
 10
563.581015
 20
560.250000
 42
0.000000
  0
VERTEX
  8
0
 10
563.574388
 20
526.000000
 42
0.000000
  0
VERTEX
  8
0
 10
558.645916
 20
526.000000
 42
0.000000
  0
VERTEX
  8
0
 10
553.717444
 20
526.000000
 42
0.000000
  0
VERTEX
  8
0
 10
554.415382
 20
567.250000
 42
-0.001090
  0
VERTEX
  8
0
 10
554.719790
 20
583.187669
 42
-0.001706
  0
VERTEX
  8
0
 10
555.058327
 20
596.896875
 42
-0.000441
  0
VERTEX
  8
0
 10
555.405368
 20
608.867797
 42
-0.063609
  0
VERTEX
  8
0
 10
555.624048
 20
610.250000
 42
0.065832
  0
VERTEX
  8
0
 10
555.746946
 20
611.049725
 42
0.175787
  0
VERTEX
  8
0
 10
555.564395
 20
611.587924
 42
0.167160
  0
VERTEX
  8
0
 10
555.070399
 20
611.900746
 42
0.058379
  0
VERTEX
  8
0
 10
554.223219
 20
612.000000
 42
0.354577
  0
VERTEX
  8
0
 10
553.026417
 20
611.029232
 42
0.030003
  0
VERTEX
  8
0
 10
552.399411
 20
606.818517
 42
0.012193
  0
VERTEX
  8
0
 10
551.873313
 20
598.537921
 42
0.000879
  0
VERTEX
  8
0
 10
551.016744
 20
575.587689
 42
0.002262
  0
VERTEX
  8
0
 10
550.570338
 20
561.203502
 42
0.002997
  0
VERTEX
  8
0
 10
550.301740
 20
548.107865
 42
0.002143
  0
VERTEX
  8
0
 10
550.189485
 20
537.133442
 42
0.029659
  0
VERTEX
  8
0
 10
550.401083
 20
533.171533
 42
-0.012916
  0
VERTEX
  8
0
 10
550.604112
 20
530.839127
 42
-0.019556
  0
VERTEX
  8
0
 10
550.648697
 20
528.802768
 42
-0.014882
  0
VERTEX
  8
0
 10
550.571875
 20
527.168719
 42
-0.252224
  0
VERTEX
  8
0
 10
550.290171
 20
526.730074
 42
-0.137554
  0
VERTEX
  8
0
 10
549.641160
 20
526.576481
 42
-0.001167
  0
VERTEX
  8
0
 10
544.444613
 20
526.801866
 42
-0.004002
  0
VERTEX
  8
0
 10
538.456540
 20
527.123633
 42
-0.002555
  0
VERTEX
  8
0
 10
531.500000
 20
527.588995
 42
0.007799
  0
VERTEX
  8
0
 10
522.576615
 20
528.091978
 42
0.003016
  0
VERTEX
  8
0
 10
510.195312
 20
528.521486
 42
0.002985
  0
VERTEX
  8
0
 10
496.767484
 20
528.825982
 42
0.003686
  0
VERTEX
  8
0
 10
484.250000
 20
528.942765
 42
0.000000
  0
VERTEX
  8
0
 10
455.000000
 20
529.000000
 42
0.000000
  0
VERTEX
  8
0
 10
454.881866
 20
556.750000
 42
0.001815
  0
VERTEX
  8
0
 10
454.790266
 20
568.363570
 42
0.001667
  0
VERTEX
  8
0
 10
454.612823
 20
580.310925
 42
0.001664
  0
VERTEX
  8
0
 10
454.383535
 20
590.967333
 42
0.005492
  0
VERTEX
  8
0
 10
454.131866
 20
597.989319
 42
0.003232
  0
VERTEX
  8
0
 10
453.707257
 20
605.952468
 42
0.030246
  0
VERTEX
  8
0
 10
453.295603
 20
609.360447
 42
0.085666
  0
VERTEX
  8
0
 10
452.662557
 20
611.086120
 42
0.218260
  0
VERTEX
  8
0
 10
451.601462
 20
611.841249
 42
0.134638
  0
VERTEX
  8
0
 10
450.602353
 20
611.762211
 42
0.259794
  0
VERTEX
  8
0
 10
450.091576
 20
611.174927
 42
0.071348
  0
VERTEX
  8
0
 10
449.996672
 20
609.717624
 42
0.005659
  0
VERTEX
  8
0
 10
450.340623
 20
605.851930
 42
-0.019394
  0
VERTEX
  8
0
 10
450.594699
 20
601.710744
 42
-0.001538
  0
VERTEX
  8
0
 10
450.808314
 20
590.711834
 42
-0.002084
  0
VERTEX
  8
0
 10
450.968141
 20
577.585252
 42
-0.001595
  0
VERTEX
  8
0
 10
451.037273
 20
563.230908
 42
0.000000
  0
VERTEX
  8
0
 10
451.096224
 20
526.961816
 42
0.000000
  0
VERTEX
  8
0
 10
444.855414
 20
520.506939
 42
-0.007172
  0
VERTEX
  8
0
 10
442.427556
 20
518.066833
 42
-0.011936
  0
VERTEX
  8
0
 10
440.305188
 20
516.090836
 42
-0.005601
  0
VERTEX
  8
0
 10
438.497607
 20
514.522574
 42
-0.390402
  0
VERTEX
  8
0
 10
438.128974
 20
514.537692
 42
-0.195000
  0
VERTEX
  8
0
 10
437.928681
 20
515.011125
 42
-0.000148
  0
VERTEX
  8
0
 10
437.729744
 20
528.478513
 42
-0.001606
  0
VERTEX
  8
0
 10
437.560209
 20
543.530571
 42
-0.000978
  0
VERTEX
  8
0
 10
437.451841
 20
561.313857
 42
0.001185
  0
VERTEX
  8
0
 10
437.265030
 20
590.024812
 42
0.009649
  0
VERTEX
  8
0
 10
436.895064
 20
603.153062
 42
0.012360
  0
VERTEX
  8
0
 10
436.340381
 20
610.823455
 42
0.386107
  0
VERTEX
  8
0
 10
435.043915
 20
612.000000
 42
0.410890
  0
VERTEX
  8
0
 10
434.709182
 20
611.669048
 42
0.000255
  0
VERTEX
  8
0
 10
434.550119
 20
597.009060
 42
0.002515
  0
VERTEX
  8
0
 10
434.462662
 20
580.535628
 42
0.001508
  0
SEQEND
  0
POLYLINE
  8
0
 66
1
 70
1
  0
VERTEX
  8
0
 10
611.603006
 20
605.166667
 42
0.156081
  0
VERTEX
  8
0
 10
611.524383
 20
604.850742
 42
0.191391
  0
VERTEX
  8
0
 10
611.654049
 20
604.578125
 42
0.128073
  0
VERTEX
  8
0
 10
611.996371
 20
604.393832
 42
0.059847
  0
VERTEX
  8
0
 10
612.500000
 20
604.333333
 42
0.059847
  0
VERTEX
  8
0
 10
613.003629
 20
604.393832
 42
0.128073
  0
VERTEX
  8
0
 10
613.345951
 20
604.578125
 42
0.191391
  0
VERTEX
  8
0
 10
613.475617
 20
604.850742
 42
0.156081
  0
VERTEX
  8
0
 10
613.396994
 20
605.166667
 42
0.030643
  0
VERTEX
  8
0
 10
613.171760
 20
605.485629
 42
0.036533
  0
VERTEX
  8
0
 10
612.921053
 20
605.755208
 42
0.039602
  0
VERTEX
  8
0
 10
612.681431
 20
605.944840
 42
0.148655
  0
VERTEX
  8
0
 10
612.500000
 20
606.000000
 42
0.148655
  0
VERTEX
  8
0
 10
612.318569
 20
605.944840
 42
0.039602
  0
VERTEX
  8
0
 10
612.078947
 20
605.755208
 42
0.036533
  0
VERTEX
  8
0
 10
611.828240
 20
605.485629
 42
0.030643
  0
SEQEND
  0
POLYLINE
  8
0
 66
1
 70
1
  0
VERTEX
  8
0
 10
603.924314
 20
597.368555
 42
0.001399
  0
VERTEX
  8
0
 10
602.302230
 20
595.597965
 42
0.148001
  0
VERTEX
  8
0
 10
602.162663
 20
595.305302
 42
0.632083
  0
VERTEX
  8
0
 10
602.279040
 20
595.226610
 42
0.003673
  0
VERTEX
  8
0
 10
603.730690
 20
596.097043
 42
0.028353
  0
VERTEX
  8
0
 10
604.620370
 20
596.711172
 42
0.027067
  0
VERTEX
  8
0
 10
605.449443
 20
597.431002
 42
0.028116
  0
VERTEX
  8
0
 10
606.110054
 20
598.146588
 42
0.080887
  0
VERTEX
  8
0
 10
606.449305
 20
598.728488
 42
0.051557
  0
VERTEX
  8
0
 10
606.706440
 20
599.682080
 42
0.621806
  0
VERTEX
  8
0
 10
606.470414
 20
599.850068
 42
0.077909
  0
VERTEX
  8
0
 10
605.732037
 20
599.289281
 42
0.005324
  0
SEQEND
  0
POLYLINE
  8
0
 66
1
 70
1
  0
VERTEX
  8
0
 10
596.566950
 20
589.647008
 42
0.009773
  0
VERTEX
  8
0
 10
595.202771
 20
587.914205
 42
0.013645
  0
VERTEX
  8
0
 10
594.056724
 20
586.309211
 42
0.009990
  0
VERTEX
  8
0
 10
593.175199
 20
584.942430
 42
0.147745
  0
VERTEX
  8
0
 10
593.030409
 20
584.397008
 42
0.316969
  0
VERTEX
  8
0
 10
593.146423
 20
584.243697
 42
0.254799
  0
VERTEX
  8
0
 10
593.354756
 20
584.283737
 42
0.067306
  0
VERTEX
  8
0
 10
593.692280
 20
584.647843
 42
0.021480
  0
VERTEX
  8
0
 10
594.091869
 20
585.271032
 42
-0.051962
  0
VERTEX
  8
0
 10
594.555724
 20
585.905833
 42
-0.073147
  0
VERTEX
  8
0
 10
595.095745
 20
586.351434
 42
-0.094539
  0
VERTEX
  8
0
 10
595.624379
 20
586.547606
 42
-0.182072
  0
VERTEX
  8
0
 10
596.061460
 20
586.462015
 42
0.177010
  0
VERTEX
  8
0
 10
596.416771
 20
586.388812
 42
0.188494
  0
VERTEX
  8
0
 10
596.724304
 20
586.564822
 42
0.116426
  0
VERTEX
  8
0
 10
596.932411
 20
586.999459
 42
0.053737
  0
VERTEX
  8
0
 10
597.000000
 20
587.626532
 42
-0.089543
  0
VERTEX
  8
0
 10
597.149954
 20
588.457145
 42
-0.033652
  0
VERTEX
  8
0
 10
597.638705
 20
589.538501
 42
-0.032020
  0
VERTEX
  8
0
 10
598.342225
 20
590.671187
 42
-0.033606
  0
VERTEX
  8
0
 10
599.174314
 20
591.685549
 42
0.013123
  0
VERTEX
  8
0
 10
599.966334
 20
592.574237
 42
0.026646
  0
VERTEX
  8
0
 10
600.531510
 20
593.320130
 42
0.037361
  0
VERTEX
  8
0
 10
600.835508
 20
593.850514
 42
0.551692
  0
VERTEX
  8
0
 10
600.741264
 20
594.000000
 42
0.197402
  0
VERTEX
  8
0
 10
600.376336
 20
593.850083
 42
0.006691
  0
VERTEX
  8
0
 10
599.264521
 20
592.721309
 42
0.011703
  0
VERTEX
  8
0
 10
597.977840
 20
591.315105
 42
0.007791
  0
SEQEND
  0
POLYLINE
  8
0
 66
1
 70
1
  0
VERTEX
  8
0
 10
585.500000
 20
579.829933
 42
0.002255
  0
VERTEX
  8
0
 10
581.040204
 20
576.236798
 42
0.035560
  0
VERTEX
  8
0
 10
579.618303
 20
574.902062
 42
0.710833
  0
VERTEX
  8
0
 10
579.775495
 20
574.607358
 42
0.062647
  0
VERTEX
  8
0
 10
581.000000
 20
574.959805
 42
-0.004297
  0
VERTEX
  8
0
 10
582.085225
 20
575.414530
 42
-0.003286
  0
VERTEX
  8
0
 10
583.279688
 20
575.893864
 42
-0.003322
  0
VERTEX
  8
0
 10
584.404213
 20
576.327969
 42
-0.007830
  0
VERTEX
  8
0
 10
585.250000
 20
576.632976
 42
0.063056
  0
VERTEX
  8
0
 10
585.919091
 20
576.961473
 42
0.062871
  0
VERTEX
  8
0
 10
586.485937
 20
577.446636
 42
0.068751
  0
VERTEX
  8
0
 10
586.869955
 20
578.007924
 42
0.116203
  0
VERTEX
  8
0
 10
587.000000
 20
578.559927
 42
-0.121066
  0
VERTEX
  8
0
 10
587.151427
 20
579.176152
 42
-0.042886
  0
VERTEX
  8
0
 10
587.643215
 20
579.947410
 42
-0.039516
  0
VERTEX
  8
0
 10
588.351797
 20
580.735459
 42
-0.037127
  0
VERTEX
  8
0
 10
589.189668
 20
581.420295
 42
0.021476
  0
VERTEX
  8
0
 10
589.997585
 20
582.039538
 42
0.036740
  0
VERTEX
  8
0
 10
590.606968
 20
582.630850
 42
0.044557
  0
VERTEX
  8
0
 10
590.972006
 20
583.123243
 42
0.348459
  0
VERTEX
  8
0
 10
590.939668
 20
583.387623
 42
0.343759
  0
VERTEX
  8
0
 10
590.597536
 20
583.427584
 42
0.008316
  0
VERTEX
  8
0
 10
589.160402
 20
582.521422
 42
0.014636
  0
VERTEX
  8
0
 10
587.448560
 20
581.328874
 42
0.008985
  0
SEQEND
  0
POLYLINE
  8
0
 66
1
 70
1
  0
VERTEX
  8
0
 10
276.500000
 20
579.127658
 42
0.034118
  0
VERTEX
  8
0
 10
273.428437
 20
578.087038
 42
0.021166
  0
VERTEX
  8
0
 10
269.977693
 20
576.474319
 42
0.020363
  0
VERTEX
  8
0
 10
266.483422
 20
574.472530
 42
0.022253
  0
VERTEX
  8
0
 10
263.268898
 20
572.247512
 42
-0.026378
  0
VERTEX
  8
0
 10
261.255147
 20
570.878062
 42
-0.094169
  0
VERTEX
  8
0
 10
259.801582
 20
570.336433
 42
-0.081752
  0
VERTEX
  8
0
 10
258.143129
 20
570.326882
 42
-0.016925
  0
VERTEX
  8
0
 10
255.268898
 20
570.883317
 42
0.052843
  0
VERTEX
  8
0
 10
228.545119
 20
574.091804
 42
0.044441
  0
VERTEX
  8
0
 10
200.095361
 20
571.956314
 42
0.044802
  0
VERTEX
  8
0
 10
172.728167
 20
564.872339
 42
0.056369
  0
VERTEX
  8
0
 10
149.230583
 20
553.363228
 42
0.000000
  0
VERTEX
  8
0
 10
143.961165
 20
550.000000
 42
0.000000
  0
VERTEX
  8
0
 10
125.438424
 20
550.000000
 42
0.015657
  0
VERTEX
  8
0
 10
107.521883
 20
549.438817
 42
0.046846
  0
VERTEX
  8
0
 10
95.426522
 20
547.533422
 42
0.060704
  0
VERTEX
  8
0
 10
85.724023
 20
543.757558
 42
0.043200
  0
VERTEX
  8
0
 10
75.946966
 20
537.369589
 42
0.028713
  0
VERTEX
  8
0
 10
70.442834
 20
532.517772
 42
0.023334
  0
VERTEX
  8
0
 10
65.115224
 20
526.732464
 42
0.015033
  0
VERTEX
  8
0
 10
58.570445
 20
518.429169
 42
0.003956
  0
VERTEX
  8
0
 10
48.604287
 20
504.747062
 42
0.006411
  0
VERTEX
  8
0
 10
38.821836
 20
490.714817
 42
0.031776
  0
VERTEX
  8
0
 10
33.939047
 20
482.427884
 42
0.057865
  0
VERTEX
  8
0
 10
31.669224
 20
476.273203
 42
0.080286
  0
VERTEX
  8
0
 10
31.214906
 20
470.422065
 42
0.082333
  0
VERTEX
  8
0
 10
32.593818
 20
464.954180
 42
0.122570
  0
VERTEX
  8
0
 10
35.586787
 20
461.059737
 42
0.110251
  0
VERTEX
  8
0
 10
40.320874
 20
458.761179
 42
0.058164
  0
VERTEX
  8
0
 10
46.842155
 20
458.000000
 42
0.044255
  0
VERTEX
  8
0
 10
51.417705
 20
458.405775
 42
0.039337
  0
VERTEX
  8
0
 10
56.041174
 20
459.613652
 42
0.025082
  0
VERTEX
  8
0
 10
61.980277
 20
462.015644
 42
0.006404
  0
VERTEX
  8
0
 10
71.338853
 20
466.505079
 42
-0.019299
  0
VERTEX
  8
0
 10
79.750318
 20
470.276563
 42
-0.027768
  0
VERTEX
  8
0
 10
87.475863
 20
472.900202
 42
-0.030855
  0
VERTEX
  8
0
 10
94.738371
 20
474.449463
 42
-0.036310
  0
VERTEX
  8
0
 10
101.750000
 20
474.982636
 42
0.000000
  0
VERTEX
  8
0
 10
107.000000
 20
475.000000
 42
0.000000
  0
VERTEX
  8
0
 10
107.034888
 20
466.250000
 42
0.014142
  0
VERTEX
  8
0
 10
107.161787
 20
462.318776
 42
0.008805
  0
VERTEX
  8
0
 10
107.521932
 20
457.720312
 42
0.008832
  0
VERTEX
  8
0
 10
108.037559
 20
453.194118
 42
0.015799
  0
VERTEX
  8
0
 10
108.643918
 20
449.500000
 42
-0.015858
  0
VERTEX
  8
0
 10
110.188658
 20
440.082037
 42
-0.029114
  0
VERTEX
  8
0
 10
110.752701
 20
432.331846
 42
-0.034308
  0
VERTEX
  8
0
 10
110.383670
 20
425.523636
 42
-0.037264
  0
VERTEX
  8
0
 10
109.084050
 20
419.020099
 42
0.028005
  0
VERTEX
  8
0
 10
107.534536
 20
411.949351
 42
0.037380
  0
VERTEX
  8
0
 10
106.976663
 20
405.403000
 42
0.040381
  0
VERTEX
  8
0
 10
107.341550
 20
400.230766
 42
0.236320
  0
VERTEX
  8
0
 10
108.868517
 20
398.070368
 42
0.033971
  0
VERTEX
  8
0
 10
109.625451
 20
397.729176
 42
0.044935
  0
VERTEX
  8
0
 10
110.354714
 20
397.530674
 42
0.052246
  0
VERTEX
  8
0
 10
110.958203
 20
397.487420
 42
0.190390
  0
VERTEX
  8
0
 10
111.304034
 20
397.637368
 42
-0.474358
  0
VERTEX
  8
0
 10
111.568340
 20
397.610728
 42
-0.049178
  0
VERTEX
  8
0
 10
111.903595
 20
396.976425
 42
-0.033645
  0
VERTEX
  8
0
 10
112.248514
 20
395.937954
 42
-0.016993
  0
VERTEX
  8
0
 10
112.548880
 20
394.591139
 42
0.017668
  0
VERTEX
  8
0
 10
112.867612
 20
393.170998
 42
0.022677
  0
VERTEX
  8
0
 10
113.265142
 20
391.892492
 42
0.021381
  0
VERTEX
  8
0
 10
113.681942
 20
390.877240
 42
0.147278
  0
VERTEX
  8
0
 10
114.035349
 20
390.478153
 42
-0.335389
  0
VERTEX
  8
0
 10
114.216138
 20
390.012067
 42
-0.016013
  0
VERTEX
  8
0
 10
113.674668
 20
388.317044
 42
-0.020808
  0
VERTEX
  8
0
 10
112.829645
 20
386.218677
 42
-0.012845
  0
VERTEX
  8
0
 10
111.671986
 20
383.822970
 42
0.019268
  0
VERTEX
  8
0
 10
109.846661
 20
379.918344
 42
0.053042
  0
VERTEX
  8
0
 10
108.970645
 20
377.012219
 42
0.039685
  0
VERTEX
  8
0
 10
108.596734
 20
373.546141
 42
0.007231
  0
VERTEX
  8
0
 10
108.508387
 20
367.083772
 42
0.007139
  0
VERTEX
  8
0
 10
108.605834
 20
360.618228
 42
0.039916
  0
VERTEX
  8
0
 10
108.982865
 20
357.177341
 42
0.054131
  0
VERTEX
  8
0
 10
109.859089
 20
354.315205
 42
0.019965
  0
VERTEX
  8
0
 10
111.679337
 20
350.500000
 42
0.046106
  0
VERTEX
  8
0
 10
116.460506
 20
343.158143
 42
0.063201
  0
VERTEX
  8
0
 10
122.086166
 20
337.646252
 42
0.071763
  0
VERTEX
  8
0
 10
128.273315
 20
334.220507
 42
0.089535
  0
VERTEX
  8
0
 10
134.720764
 20
333.021962
 42
-0.038881
  0
VERTEX
  8
0
 10
136.921912
 20
332.839011
 42
-0.045267
  0
VERTEX
  8
0
 10
138.954928
 20
332.317472
 42
-0.041624
  0
VERTEX
  8
0
 10
140.994124
 20
331.395082
 42
-0.025869
  0
VERTEX
  8
0
 10
143.220764
 20
329.999976
 42
0.066506
  0
VERTEX
  8
0
 10
151.665652
 20
325.618226
 42
0.045695
  0
VERTEX
  8
0
 10
162.120568
 20
322.898678
 42
0.044001
  0
VERTEX
  8
0
 10
173.382318
 20
322.050093
 42
0.048463
  0
VERTEX
  8
0
 10
184.250000
 20
323.245829
 42
-0.008758
  0
VERTEX
  8
0
 10
186.838581
 20
323.740763
 42
-0.014958
  0
VERTEX
  8
0
 10
189.017188
 20
324.051087
 42
-0.008905
  0
VERTEX
  8
0
 10
190.769360
 20
324.215865
 42
-0.436640
  0
VERTEX
  8
0
 10
191.000000
 20
324.002110
 42
-0.085974
  0
VERTEX
  8
0
 10
190.920593
 20
323.543715
 42
-0.002456
  0
VERTEX
  8
0
 10
190.240502
 20
321.668761
 42
-0.004915
  0
VERTEX
  8
0
 10
189.405168
 20
319.467601
 42
-0.003355
  0
VERTEX
  8
0
 10
188.414476
 20
316.981802
 42
0.017265
  0
VERTEX
  8
0
 10
187.372066
 20
314.138747
 42
0.023478
  0
VERTEX
  8
0
 10
186.643510
 20
311.505845
 42
0.026433
  0
VERTEX
  8
0
 10
186.253988
 20
309.238764
 42
0.065852
  0
VERTEX
  8
0
 10
186.277847
 20
307.560268
 42
-0.063364
  0
VERTEX
  8
0
 10
186.309230
 20
305.923336
 42
-0.029359
  0
VERTEX
  8
0
 10
185.956935
 20
303.821783
 42
-0.026124
  0
VERTEX
  8
0
 10
185.277935
 20
301.433798
 42
-0.019988
  0
VERTEX
  8
0
 10
184.297927
 20
298.901370
 42
0.000000
  0
VERTEX
  8
0
 10
181.869111
 20
293.300992
 42
0.000000
  0
VERTEX
  8
0
 10
140.184556
 20
292.648348
 42
-0.000220
  0
VERTEX
  8
0
 10
120.696202
 20
292.351797
 42
-0.000113
  0
VERTEX
  8
0
 10
96.277651
 20
291.996485
 42
-0.000112
  0
VERTEX
  8
0
 10
71.142330
 20
291.642068
 42
-0.000169
  0
VERTEX
  8
0
 10
49.250000
 20
291.345717
 42
0.000680
  0
VERTEX
  8
0
 10
19.092588
 20
290.906684
 42
0.008120
  0
VERTEX
  8
0
 10
7.438429
 20
290.531791
 42
0.012517
  0
VERTEX
  8
0
 10
0.994389
 20
290.057757
 42
0.385660
  0
VERTEX
  8
0
 10
0.000000
 20
288.960302
 42
0.279178
  0
VERTEX
  8
0
 10
0.582813
 20
287.997855
 42
0.077304
  0
VERTEX
  8
0
 10
2.327338
 20
287.405164
 42
0.027910
  0
VERTEX
  8
0
 10
5.833180
 20
286.991672
 42
0.003222
  0
VERTEX
  8
0
 10
13.750000
 20
286.554601
 42
0.011876
  0
VERTEX
  8
0
 10
21.922135
 20
286.350594
 42
0.001754
  0
VERTEX
  8
0
 10
38.442188
 20
286.388591
 42
0.001977
  0
VERTEX
  8
0
 10
57.965840
 20
286.579205
 42
0.001699
  0
VERTEX
  8
0
 10
78.500000
 20
286.930698
 42
-0.001301
  0
VERTEX
  8
0
 10
121.375215
 20
287.698791
 42
-0.003507
  0
VERTEX
  8
0
 10
151.842584
 20
287.951576
 42
-0.000677
  0
VERTEX
  8
0
 10
176.108427
 20
287.949844
 42
-0.413796
  0
VERTEX
  8
0
 10
177.000000
 20
287.057000
 42
-0.159937
  0
VERTEX
  8
0
 10
176.806761
 20
286.468342
 42
-0.006691
  0
VERTEX
  8
0
 10
175.457510
 20
284.685200
 42
-0.010981
  0
VERTEX
  8
0
 10
173.760917
 20
282.600426
 42
-0.007525
  0
VERTEX
  8
0
 10
171.748970
 20
280.307000
 42
0.014673
  0
VERTEX
  8
0
 10
159.022264
 20
265.374517
 42
0.028044
  0
VERTEX
  8
0
 10
149.863630
 20
252.556485
 42
0.034238
  0
VERTEX
  8
0
 10
143.510041
 20
240.811424
 42
0.043911
  0
VERTEX
  8
0
 10
139.417741
 20
229.230085
 42
0.000000
  0
VERTEX
  8
0
 10
137.546763
 20
221.960169
 42
0.000000
  0
VERTEX
  8
0
 10
68.773196
 20
222.230085
 42
0.000000
  0
VERTEX
  8
0
 10
-0.000371
 20
222.500000
 42
0.000000
  0
VERTEX
  8
0
 10
-0.000185
 20
219.750000
 42
0.000000
  0
VERTEX
  8
0
 10
0.000000
 20
217.000000
 42
0.000000
  0
VERTEX
  8
0
 10
37.500000
 20
217.000000
 42
-0.001466
  0
VERTEX
  8
0
 10
51.879376
 20
216.957852
 42
-0.002444
  0
VERTEX
  8
0
 10
63.984375
 20
216.827709
 42
-0.000241
  0
VERTEX
  8
0
 10
74.763514
 20
216.653923
 42
-0.409359
  0
VERTEX
  8
0
 10
75.000000
 20
216.413478
 42
-0.130509
  0
VERTEX
  8
0
 10
74.898617
 20
216.031679
 42
-0.005183
  0
VERTEX
  8
0
 10
74.163918
 20
214.776225
 42
-0.008844
  0
VERTEX
  8
0
 10
73.244277
 20
213.301276
 42
-0.006109
  0
VERTEX
  8
0
 10
72.153764
 20
211.663478
 42
0.003902
  0
VERTEX
  8
0
 10
65.665937
 20
202.012255
 42
0.001699
  0
VERTEX
  8
0
 10
57.192275
 20
189.096752
 42
0.000394
  0
VERTEX
  8
0
 10
48.346341
 20
175.490011
 42
0.052363
  0
VERTEX
  8
0
 10
47.449488
 20
173.728963
 42
-0.202831
  0
VERTEX
  8
0
 10
46.729376
 20
172.981315
 42
-0.034550
  0
VERTEX
  8
0
 10
44.821103
 20
172.317323
 42
-0.025886
  0
VERTEX
  8
0
 10
41.927246
 20
171.688350
 42
-0.008925
  0
VERTEX
  8
0
 10
37.689311
 20
171.072061
 42
-0.006383
  0
VERTEX
  8
0
 10
31.819434
 20
170.401207
 42
-0.049662
  0
VERTEX
  8
0
 10
29.066742
 20
170.396289
 42
-0.073160
  0
VERTEX
  8
0
 10
26.803090
 20
170.958685
 42
-0.022108
  0
VERTEX
  8
0
 10
23.580522
 20
172.451407
 42
0.019454
  0
VERTEX
  8
0
 10
18.534402
 20
174.821414
 42
0.195864
  0
VERTEX
  8
0
 10
16.256067
 20
174.851848
 42
0.521709
  0
VERTEX
  8
0
 10
15.958976
 20
173.614250
 42
0.036306
  0
VERTEX
  8
0
 10
18.997560
 20
170.655507
 42
-0.036505
  0
VERTEX
  8
0
 10
20.871958
 20
168.828908
 42
-0.457992
  0
VERTEX
  8
0
 10
20.755616
 20
167.963434
 42
-0.098304
  0
VERTEX
  8
0
 10
19.209822
 20
167.342016
 42
-0.002561
  0
VERTEX
  8
0
 10
11.856857
 20
165.995375
 42
-0.009476
  0
VERTEX
  8
0
 10
8.036323
 20
165.390332
 42
-0.048782
  0
VERTEX
  8
0
 10
5.897517
 20
165.303400
 42
-0.078991
  0
VERTEX
  8
0
 10
4.291203
 20
165.653370
 42
-0.052013
  0
VERTEX
  8
0
 10
2.606857
 20
166.521941
 42
0.000000
  0
VERTEX
  8
0
 10
0.000000
 20
168.230020
 42
0.000000
  0
VERTEX
  8
0
 10
0.000000
 20
163.115010
 42
0.007541
  0
VERTEX
  8
0
 10
0.029582
 20
161.153774
 42
0.012521
  0
VERTEX
  8
0
 10
0.120830
 20
159.502534
 42
0.006143
  0
VERTEX
  8
0
 10
0.246485
 20
158.148419
 42
0.383837
  0
VERTEX
  8
0
 10
0.411336
 20
158.000000
 42
0.055128
  0
VERTEX
  8
0
 10
0.728340
 20
158.035058
 42
0.000298
  0
VERTEX
  8
0
 10
3.738825
 20
158.711053
 42
0.001302
  0
VERTEX
  8
0
 10
7.168633
 20
159.492740
 42
0.000826
  0
VERTEX
  8
0
 10
11.161336
 20
160.420606
 42
-0.014125
  0
VERTEX
  8
0
 10
35.847772
 20
165.469544
 42
-0.007821
  0
VERTEX
  8
0
 10
66.229683
 20
170.305610
 42
-0.007506
  0
VERTEX
  8
0
 10
98.932080
 20
174.487867
 42
-0.008128
  0
VERTEX
  8
0
 10
130.890779
 20
177.563124
 42
0.000000
  0
VERTEX
  8
0
 10
139.281559
 20
178.233085
 42
0.000000
  0
VERTEX
  8
0
 10
136.186377
 20
174.366543
 42
0.033803
  0
VERTEX
  8
0
 10
133.636737
 20
170.698818
 42
0.026161
  0
VERTEX
  8
0
 10
131.356379
 20
166.398526
 42
0.026374
  0
VERTEX
  8
0
 10
129.560592
 20
161.935298
 42
0.036961
  0
VERTEX
  8
0
 10
128.473313
 20
157.779739
 42
0.000000
  0
VERTEX
  8
0
 10
127.788576
 20
154.059478
 42
0.000000
  0
VERTEX
  8
0
 10
124.644288
 20
156.404258
 42
0.021806
  0
VERTEX
  8
0
 10
121.052229
 20
158.846747
 42
0.044170
  0
VERTEX
  8
0
 10
117.999308
 20
160.379394
 42
0.042243
  0
VERTEX
  8
0
 10
114.637426
 20
161.391962
 42
0.018324
  0
VERTEX
  8
0
 10
110.032374
 20
162.189419
 42
-0.000794
  0
VERTEX
  8
0
 10
107.261223
 20
162.569807
 42
-0.000675
  0
VERTEX
  8
0
 10
104.336301
 20
162.980061
 42
-0.000680
  0
VERTEX
  8
0
 10
101.673863
 20
163.360855
 42
-0.001918
  0
VERTEX
  8
0
 10
99.814607
 20
163.636639
 42
0.063231
  0
VERTEX
  8
0
 10
96.108412
 20
163.728563
 42
0.060557
  0
VERTEX
  8
0
 10
92.439294
 20
162.898581
 42
0.065024
  0
VERTEX
  8
0
 10
89.334583
 20
161.308597
 42
0.104815
  0
VERTEX
  8
0
 10
87.298198
 20
159.160758
 42
-0.004973
  0
VERTEX
  8
0
 10
86.434531
 20
157.782717
 42
-0.001496
  0
VERTEX
  8
0
 10
85.093644
 20
155.703510
 42
-0.001499
  0
VERTEX
  8
0
 10
83.575239
 20
153.379717
 42
-0.001627
  0
VERTEX
  8
0
 10
82.083619
 20
151.127786
 42
0.073018
  0
VERTEX
  8
0
 10
79.113883
 20
144.860414
 42
0.118111
  0
VERTEX
  8
0
 10
78.752469
 20
139.000133
 42
0.100755
  0
VERTEX
  8
0
 10
81.124215
 20
132.963606
 42
0.043134
  0
VERTEX
  8
0
 10
86.472287
 20
126.092795
 42
-0.022577
  0
VERTEX
  8
0
 10
88.607641
 20
123.570347
 42
-0.006325
  0
VERTEX
  8
0
 10
91.712531
 20
119.440694
 42
-0.006366
  0
VERTEX
  8
0
 10
95.109143
 20
114.675934
 42
-0.006660
  0
VERTEX
  8
0
 10
98.331621
 20
109.896801
 42
0.014284
  0
VERTEX
  8
0
 10
104.296046
 20
101.335740
 42
0.035770
  0
VERTEX
  8
0
 10
109.248780
 20
95.556988
 42
0.046083
  0
VERTEX
  8
0
 10
114.127940
 20
91.458928
 42
0.044322
  0
VERTEX
  8
0
 10
119.736985
 20
88.262874
 42
0.067893
  0
VERTEX
  8
0
 10
126.014508
 20
86.363869
 42
0.057627
  0
VERTEX
  8
0
 10
132.940324
 20
86.065504
 42
0.051195
  0
VERTEX
  8
0
 10
140.492013
 20
87.395817
 42
0.035679
  0
VERTEX
  8
0
 10
148.633040
 20
90.349088
 42
-0.019697
  0
VERTEX
  8
0
 10
155.381619
 20
93.044090
 42
-0.020944
  0
VERTEX
  8
0
 10
162.185800
 20
95.138962
 42
-0.019544
  0
VERTEX
  8
0
 10
169.547622
 20
96.767486
 42
-0.013472
  0
VERTEX
  8
0
 10
177.991158
 20
98.058122
 42
0.000000
  0
VERTEX
  8
0
 10
185.865611
 20
99.045495
 42
0.000000
  0
VERTEX
  8
0
 10
195.318972
 20
93.994438
 42
0.025991
  0
VERTEX
  8
0
 10
208.315040
 20
87.895971
 42
0.024347
  0
VERTEX
  8
0
 10
222.156931
 20
83.029219
 42
0.022902
  0
VERTEX
  8
0
 10
237.208729
 20
79.288057
 42
0.017864
  0
VERTEX
  8
0
 10
253.841743
 20
76.568027
 42
0.020877
  0
VERTEX
  8
0
 10
268.724016
 20
75.305599
 42
0.014824
  0
VERTEX
  8
0
 10
285.474219
 20
75.083982
 42
0.014983
  0
VERTEX
  8
0
 10
301.424636
 20
75.824294
 42
0.032119
  0
VERTEX
  8
0
 10
313.616900
 20
77.549417
 42
-0.025634
  0
VERTEX
  8
0
 10
315.415705
 20
77.827759
 42
-0.152625
  0
VERTEX
  8
0
 10
316.335631
 20
77.640658
 42
-0.172247
  0
VERTEX
  8
0
 10
316.925252
 20
76.976589
 42
-0.034772
  0
VERTEX
  8
0
 10
317.422499
 20
75.452765
 42
0.044647
  0
VERTEX
  8
0
 10
319.179088
 20
70.409104
 42
0.018396
  0
VERTEX
  8
0
 10
322.401722
 20
63.923556
 42
0.018488
  0
VERTEX
  8
0
 10
326.129095
 20
57.633100
 42
0.040126
  0
VERTEX
  8
0
 10
329.535175
 20
53.172101
 42
0.026235
  0
VERTEX
  8
0
 10
331.671963
 20
51.032618
 42
0.018031
  0
VERTEX
  8
0
 10
334.300311
 20
48.829950
 42
0.018214
  0
VERTEX
  8
0
 10
337.004105
 20
46.879084
 42
0.033410
  0
VERTEX
  8
0
 10
339.357981
 20
45.525682
 42
0.067864
  0
VERTEX
  8
0
 10
347.647673
 20
42.783215
 42
0.078432
  0
VERTEX
  8
0
 10
355.957324
 20
42.555204
 42
0.058299
  0
VERTEX
  8
0
 10
365.755985
 20
45.011104
 42
0.020961
  0
VERTEX
  8
0
 10
379.000000
 20
50.672503
 42
-0.018787
  0
VERTEX
  8
0
 10
396.042588
 20
58.045424
 42
-0.028334
  0
VERTEX
  8
0
 10
411.425798
 20
63.042412
 42
-0.027611
  0
VERTEX
  8
0
 10
427.567176
 20
66.351765
 42
-0.016683
  0
VERTEX
  8
0
 10
446.966714
 20
68.566061
 42
0.004864
  0
VERTEX
  8
0
 10
454.118712
 20
69.211583
 42
0.005176
  0
VERTEX
  8
0
 10
461.109674
 20
69.984361
 42
0.004938
  0
VERTEX
  8
0
 10
467.109563
 20
70.770723
 42
0.023783
  0
VERTEX
  8
0
 10
470.491752
 20
71.413305
 42
-0.003458
  0
VERTEX
  8
0
 10
472.802391
 20
71.950409
 42
-0.005570
  0
VERTEX
  8
0
 10
474.778898
 20
72.372380
 42
-0.001455
  0
VERTEX
  8
0
 10
476.497892
 20
72.714194
 42
-0.249697
  0
VERTEX
  8
0
 10
476.672341
 20
72.660992
 42
-0.375843
  0
VERTEX
  8
0
 10
476.682738
 20
72.504597
 42
-0.001347
  0
VERTEX
  8
0
 10
475.461722
 20
70.916091
 42
-0.005784
  0
VERTEX
  8
0
 10
474.026643
 20
69.103201
 42
-0.003489
  0
VERTEX
  8
0
 10
472.285910
 20
66.986077
 42
0.033299
  0
VERTEX
  8
0
 10
468.572190
 20
61.877007
 42
0.020343
  0
VERTEX
  8
0
 10
464.858349
 20
55.410015
 42
0.020162
  0
VERTEX
  8
0
 10
461.825664
 20
48.973078
 42
0.053684
  0
VERTEX
  8
0
 10
460.362116
 20
44.116708
 42
0.028793
  0
VERTEX
  8
0
 10
460.125583
 20
42.277073
 42
0.084567
  0
VERTEX
  8
0
 10
460.250646
 20
41.010588
 42
0.101921
  0
VERTEX
  8
0
 10
460.767277
 20
39.994292
 42
0.054226
  0
VERTEX
  8
0
 10
461.765694
 20
38.988646
 42
-0.039898
  0
VERTEX
  8
0
 10
462.640472
 20
38.156526
 42
-0.092813
  0
VERTEX
  8
0
 10
463.108141
 20
37.386041
 42
-0.124231
  0
VERTEX
  8
0
 10
463.192208
 20
36.646879
 42
-0.108015
  0
VERTEX
  8
0
 10
462.924980
 20
35.912855
 42
0.109238
  0
VERTEX
  8
0
 10
462.143623
 20
33.750370
 42
0.046442
  0
VERTEX
  8
0
 10
462.031236
 20
30.655393
 42
0.044893
  0
VERTEX
  8
0
 10
462.452862
 20
27.793000
 42
0.246948
  0
VERTEX
  8
0
 10
463.448619
 20
26.658091
 42
0.146210
  0
VERTEX
  8
0
 10
464.403804
 20
26.585314
 42
0.011485
  0
VERTEX
  8
0
 10
466.910236
 20
27.191483
 42
0.014859
  0
VERTEX
  8
0
 10
469.913278
 20
28.087543
 42
0.010806
  0
VERTEX
  8
0
 10
473.198619
 20
29.254500
 42
0.000000
  0
VERTEX
  8
0
 10
481.500000
 20
32.406798
 42
0.000000
  0
VERTEX
  8
0
 10
507.000000
 20
32.520267
 42
0.004113
  0
VERTEX
  8
0
 10
523.990882
 20
32.735664
 42
0.025194
  0
VERTEX
  8
0
 10
532.733732
 20
33.359920
 42
0.038496
  0
VERTEX
  8
0
 10
539.715239
 20
34.765055
 42
0.017998
  0
VERTEX
  8
0
 10
548.500000
 20
37.594150
 42
-0.021185
  0
VERTEX
  8
0
 10
549.226703
 20
37.823081
 42
-0.078754
  0
VERTEX
  8
0
 10
549.702523
 20
37.873533
 42
-0.345667
  0
VERTEX
  8
0
 10
549.846846
 20
37.747674
 42
-0.234929
  0
VERTEX
  8
0
 10
549.785184
 20
37.527847
 42
0.242898
  0
VERTEX
  8
0
 10
549.428140
 20
36.176986
 42
0.137327
  0
VERTEX
  8
0
 10
550.246677
 20
34.646493
 42
0.101850
  0
VERTEX
  8
0
 10
552.012344
 20
33.428825
 42
0.100521
  0
VERTEX
  8
0
 10
554.123810
 20
33.000000
 42
0.097908
  0
VERTEX
  8
0
 10
557.905239
 20
33.747631
 42
0.011389
  0
VERTEX
  8
0
 10
565.844265
 20
37.228091
 42
0.014580
  0
VERTEX
  8
0
 10
574.328793
 20
41.485762
 42
0.020528
  0
VERTEX
  8
0
 10
581.609292
 20
45.803603
 42
0.049240
  0
VERTEX
  8
0
 10
592.813657
 20
54.767441
 42
0.046787
  0
VERTEX
  8
0
 10
602.263527
 20
65.893152
 42
0.046967
  0
VERTEX
  8
0
 10
609.448508
 20
78.536820
 42
0.050498
  0
VERTEX
  8
0
 10
613.939742
 20
92.000000
 42
0.044994
  0
VERTEX
  8
0
 10
614.891643
 20
99.216598
 42
0.029482
  0
VERTEX
  8
0
 10
614.742862
 20
107.609048
 42
0.029438
  0
VERTEX
  8
0
 10
613.605646
 20
115.948424
 42
0.044026
  0
VERTEX
  8
0
 10
611.557699
 20
123.006961
 42
-0.123181
  0
VERTEX
  8
0
 10
611.469350
 20
123.708635
 42
-0.117910
  0
VERTEX
  8
0
 10
611.718702
 20
124.382081
 42
-0.091803
  0
VERTEX
  8
0
 10
612.316140
 20
124.995206
 42
-0.049533
  0
VERTEX
  8
0
 10
613.236274
 20
125.517503
 42
0.325273
  0
VERTEX
  8
0
 10
615.402032
 20
129.260524
 42
0.080674
  0
VERTEX
  8
0
 10
613.430132
 20
136.514812
 42
0.056943
  0
VERTEX
  8
0
 10
608.075173
 20
145.444693
 42
0.040962
  0
VERTEX
  8
0
 10
600.265156
 20
154.070277
 42
0.032595
  0
VERTEX
  8
0
 10
594.195974
 20
159.058341
 42
0.027186
  0
VERTEX
  8
0
 10
587.160688
 20
163.551956
 42
0.026830
  0
VERTEX
  8
0
 10
579.570421
 20
167.316356
 42
0.029315
  0
VERTEX
  8
0
 10
571.838625
 20
170.122413
 42
0.000000
  0
VERTEX
  8
0
 10
565.500000
 20
172.010683
 42
0.000000
  0
VERTEX
  8
0
 10
570.500000
 20
171.449559
 42
-0.016488
  0
VERTEX
  8
0
 10
581.012664
 20
169.917343
 42
-0.003092
  0
VERTEX
  8
0
 10
600.138856
 20
166.360099
 42
-0.003369
  0
VERTEX
  8
0
 10
619.409780
 20
162.517673
 42
-0.011796
  0
VERTEX
  8
0
 10
631.750000
 20
159.665518
 42
0.000000
  0
VERTEX
  8
0
 10
645.000000
 20
156.271946
 42
0.000000
  0
VERTEX
  8
0
 10
645.000000
 20
160.758417
 42
0.008349
  0
VERTEX
  8
0
 10
644.957939
 20
163.277256
 42
0.098587
  0
VERTEX
  8
0
 10
644.735971
 20
164.225540
 42
0.377511
  0
VERTEX
  8
0
 10
644.282586
 20
164.429307
 42
0.098610
  0
VERTEX
  8
0
 10
643.519720
 20
164.016366
 42
-0.173427
  0
VERTEX
  8
0
 10
642.154126
 20
163.518990
 42
-0.033765
  0
VERTEX
  8
0
 10
639.496734
 20
163.683045
 42
-0.020066
  0
VERTEX
  8
0
 10
635.253634
 20
164.408291
 42
-0.004033
  0
VERTEX
  8
0
 10
627.769720
 20
166.062053
 42
-0.003801
  0
VERTEX
  8
0
 10
622.232828
 20
167.376884
 42
-0.005669
  0
VERTEX
  8
0
 10
617.413240
 20
168.618253
 42
-0.002622
  0
VERTEX
  8
0
 10
613.338273
 20
169.740196
 42
-0.111747
  0
VERTEX
  8
0
 10
612.551947
 20
170.166184
 42
-0.280195
  0
VERTEX
  8
0
 10
612.376859
 20
170.721625
 42
-0.064558
  0
VERTEX
  8
0
 10
612.747471
 20
171.677280
 42
-0.045332
  0
VERTEX
  8
0
 10
613.564141
 20
172.898338
 42
-0.022424
  0
VERTEX
  8
0
 10
614.801947
 20
174.295661
 42
0.040037
  0
VERTEX
  8
0
 10
618.182236
 20
178.393419
 42
0.528812
  0
VERTEX
  8
0
 10
617.597778
 20
179.931481
 42
0.200887
  0
VERTEX
  8
0
 10
614.667393
 20
179.453446
 42
0.024197
  0
VERTEX
  8
0
 10
609.174044
 20
175.641872
 42
0.000000
  0
VERTEX
  8
0
 10
603.500000
 20
171.283743
 42
0.000000
  0
VERTEX
  8
0
 10
594.500000
 20
172.729323
 42
-0.001082
  0
VERTEX
  8
0
 10
584.540449
 20
174.351145
 42
-0.042731
  0
VERTEX
  8
0
 10
582.381660
 20
174.900071
 42
-0.325523
  0
VERTEX
  8
0
 10
581.836880
 20
175.684568
 42
-0.134761
  0
VERTEX
  8
0
 10
582.227920
 20
176.993350
 42
-0.041833
  0
VERTEX
  8
0
 10
582.815653
 20
177.779671
 42
-0.106678
  0
VERTEX
  8
0
 10
583.386599
 20
178.198376
 42
-0.162729
  0
VERTEX
  8
0
 10
583.925755
 20
178.251154
 42
-0.141010
  0
VERTEX
  8
0
 10
584.424959
 20
177.975041
 42
0.556552
  0
VERTEX
  8
0
 10
585.703554
 20
178.274849
 42
0.144784
  0
VERTEX
  8
0
 10
585.802263
 20
180.928172
 42
0.039613
  0
VERTEX
  8
0
 10
583.713175
 20
187.035794
 42
0.025613
  0
VERTEX
  8
0
 10
580.394315
 20
193.734949
 42
-0.003436
  0
VERTEX
  8
0
 10
578.772945
 20
196.672639
 42
-0.002625
  0
VERTEX
  8
0
 10
577.038073
 20
199.908079
 42
-0.002654
  0
VERTEX
  8
0
 10
575.445097
 20
202.955723
 42
-0.006254
  0
VERTEX
  8
0
 10
574.297467
 20
205.250000
 42
0.017960
  0
VERTEX
  8
0
 10
573.333408
 20
207.069557
 42
0.025595
  0
VERTEX
  8
0
 10
572.340050
 20
208.604688
 42
0.023747
  0
VERTEX
  8
0
 10
571.431691
 20
209.744226
 42
0.215842
  0
VERTEX
  8
0
 10
570.866792
 20
210.000000
 42
0.446598
  0
VERTEX
  8
0
 10
569.920935
 20
208.944681
 42
0.049513
  0
VERTEX
  8
0
 10
570.675679
 20
205.372714
 42
0.034505
  0
VERTEX
  8
0
 10
572.703130
 20
200.239538
 42
0.017044
  0
VERTEX
  8
0
 10
575.937465
 20
194.015280
 42
-0.005848
  0
VERTEX
  8
0
 10
577.876952
 20
190.478700
 42
-0.008290
  0
VERTEX
  8
0
 10
579.512880
 20
187.284644
 42
-0.005160
  0
VERTEX
  8
0
 10
580.808408
 20
184.578158
 42
-0.109465
  0
VERTEX
  8
0
 10
581.000000
 20
183.713514
 42
-0.136995
  0
VERTEX
  8
0
 10
580.803259
 20
183.008931
 42
-0.022346
  0
VERTEX
  8
0
 10
580.007280
 20
181.818248
 42
-0.023186
  0
VERTEX
  8
0
 10
578.914465
 20
180.467752
 42
-0.018585
  0
VERTEX
  8
0
 10
577.620527
 20
179.116820
 42
-0.057211
  0
VERTEX
  8
0
 10
575.025627
 20
177.121626
 42
-0.111859
  0
VERTEX
  8
0
 10
572.561219
 20
176.309341
 42
-0.061405
  0
VERTEX
  8
0
 10
569.082456
 20
176.403481
 42
-0.008400
  0
VERTEX
  8
0
 10
561.904778
 20
177.609796
 42
0.000000
  0
VERTEX
  8
0
 10
559.309556
 20
178.090921
 42
0.000000
  0
VERTEX
  8
0
 10
558.666848
 20
194.295460
 42
0.002787
  0
VERTEX
  8
0
 10
558.373686
 20
200.774795
 42
0.003388
  0
VERTEX
  8
0
 10
558.024080
 20
206.841479
 42
0.002859
  0
VERTEX
  8
0
 10
557.666324
 20
211.939753
 42
0.023509
  0
VERTEX
  8
0
 10
557.381228
 20
214.250000
 42
0.000000
  0
VERTEX
  8
0
 10
556.738315
 20
218.000000
 42
0.000000
  0
VERTEX
  8
0
 10
588.119158
 20
217.900320
 42
-0.001912
  0
VERTEX
  8
0
 10
600.304350
 20
217.815019
 42
-0.002876
  0
VERTEX
  8
0
 10
610.928372
 20
217.638889
 42
-0.001154
  0
VERTEX
  8
0
 10
620.033339
 20
217.414511
 42
-0.065183
  0
VERTEX
  8
0
 10
621.700831
 20
217.150320
 42
-0.146733
  0
VERTEX
  8
0
 10
623.089960
 20
216.242788
 42
-0.010510
  0
VERTEX
  8
0
 10
626.017465
 20
212.620316
 42
-0.012351
  0
VERTEX
  8
0
 10
629.676419
 20
207.643598
 42
-0.005699
  0
VERTEX
  8
0
 10
634.200831
 20
201.000000
 42
0.000000
  0
VERTEX
  8
0
 10
644.500000
 20
185.500000
 42
0.000000
  0
VERTEX
  8
0
 10
644.816602
 20
189.936329
 42
0.056032
  0
VERTEX
  8
0
 10
644.698492
 20
192.836586
 42
0.070959
  0
VERTEX
  8
0
 10
643.921139
 20
195.400974
 42
0.035555
  0
VERTEX
  8
0
 10
642.053306
 20
198.763133
 42
0.004782
  0
VERTEX
  8
0
 10
637.566602
 20
205.497089
 42
-0.003205
  0
VERTEX
  8
0
 10
634.666503
 20
209.820151
 42
-0.004958
  0
VERTEX
  8
0
 10
632.222689
 20
213.594812
 42
-0.001726
  0
VERTEX
  8
0
 10
630.163865
 20
216.869980
 42
-0.140347
  0
VERTEX
  8
0
 10
630.000000
 20
217.442267
 42
-0.388064
  0
VERTEX
  8
0
 10
630.281468
 20
217.750310
 42
-0.011218
  0
VERTEX
  8
0
 10
632.203125
 20
217.880532
 42
-0.017100
  0
VERTEX
  8
0
 10
634.624246
 20
217.907236
 42
-0.010231
  0
VERTEX
  8
0
 10
637.500000
 20
217.781694
 42
0.000000
  0
VERTEX
  8
0
 10
645.000000
 20
217.300373
 42
0.000000
  0
VERTEX
  8
0
 10
645.000000
 20
220.150186
 42
0.000000
  0
VERTEX
  8
0
 10
645.000000
 20
223.000000
 42
0.000000
  0
VERTEX
  8
0
 10
600.545313
 20
223.000000
 42
0.000000
  0
VERTEX
  8
0
 10
556.090626
 20
223.000000
 42
0.000000
  0
VERTEX
  8
0
 10
555.476532
 20
226.750000
 42
0.018239
  0
VERTEX
  8
0
 10
554.127646
 20
233.445806
 42
0.002996
  0
VERTEX
  8
0
 10
550.972363
 20
246.269557
 42
0.003276
  0
VERTEX
  8
0
 10
547.640750
 20
259.113286
 42
0.013653
  0
VERTEX
  8
0
 10
545.372173
 20
266.780897
 42
-0.002704
  0
VERTEX
  8
0
 10
544.463204
 20
269.622881
 42
-0.003960
  0
VERTEX
  8
0
 10
543.696714
 20
272.134266
 42
-0.001944
  0
VERTEX
  8
0
 10
543.071470
 20
274.272993
 42
-0.070116
  0
VERTEX
  8
0
 10
542.999621
 20
274.780897
 42
-0.411903
  0
VERTEX
  8
0
 10
543.290106
 20
275.073992
 42
-0.000196
  0
VERTEX
  8
0
 10
557.980715
 20
275.191943
 42
-0.002204
  0
VERTEX
  8
0
 10
574.443525
 20
275.245110
 42
-0.001321
  0
VERTEX
  8
0
 10
593.999621
 20
275.170398
 42
0.000584
  0
VERTEX
  8
0
 10
626.329199
 20
274.999204
 42
0.008383
  0
VERTEX
  8
0
 10
637.826239
 20
275.144509
 42
0.015708
  0
VERTEX
  8
0
 10
643.948375
 20
275.517292
 42
0.387544
  0
VERTEX
  8
0
 10
644.999410
 20
276.670398
 42
0.358332
  0
VERTEX
  8
0
 10
644.086306
 20
277.780174
 42
0.031729
  0
VERTEX
  8
0
 10
640.222309
 20
278.288184
 42
0.012949
  0
VERTEX
  8
0
 10
632.649764
 20
278.601784
 42
0.000993
  0
VERTEX
  8
0
 10
612.249410
 20
278.877347
 42
-0.001046
  0
VERTEX
  8
0
 10
598.287792
 20
279.067424
 42
-0.000865
  0
VERTEX
  8
0
 10
583.415790
 20
279.326753
 42
-0.000873
  0
VERTEX
  8
0
 10
569.778577
 20
279.611990
 42
-0.002348
  0
VERTEX
  8
0
 10
560.080940
 20
279.877347
 42
0.000000
  0
VERTEX
  8
0
 10
540.661879
 20
280.500000
 42
0.000000
  0
VERTEX
  8
0
 10
539.726773
 20
283.312500
 42
-0.024637
  0
VERTEX
  8
0
 10
539.414082
 20
284.434819
 42
-0.032738
  0
VERTEX
  8
0
 10
539.248472
 20
285.480946
 42
-0.034363
  0
VERTEX
  8
0
 10
539.229038
 20
286.331219
 42
-0.187024
  0
VERTEX
  8
0
 10
539.411641
 20
286.744975
 42
-0.195523
  0
VERTEX
  8
0
 10
540.014411
 20
286.999270
 42
-0.000187
  0
VERTEX
  8
0
 10
555.266730
 20
287.192582
 42
-0.001811
  0
VERTEX
  8
0
 10
572.348373
 20
287.340798
 42
-0.001105
  0
VERTEX
  8
0
 10
592.515808
 20
287.398141
 42
0.000000
  0
VERTEX
  8
0
 10
645.000000
 20
287.431332
 42
0.000000
  0
VERTEX
  8
0
 10
645.000000
 20
289.715666
 42
0.000000
  0
VERTEX
  8
0
 10
645.000000
 20
292.000000
 42
0.000000
  0
VERTEX
  8
0
 10
624.250000
 20
292.213501
 42
0.001031
  0
VERTEX
  8
0
 10
613.957237
 20
292.298178
 42
0.000396
  0
VERTEX
  8
0
 10
599.655650
 20
292.375008
 42
0.000392
  0
VERTEX
  8
0
 10
584.138090
 20
292.433903
 42
0.000483
  0
VERTEX
  8
0
 10
569.662850
 20
292.463501
 42
0.000000
  0
VERTEX
  8
0
 10
535.825701
 20
292.500000
 42
0.000000
  0
VERTEX
  8
0
 10
532.570811
 20
300.500000
 42
0.016445
  0
VERTEX
  8
0
 10
526.611363
 20
313.870196
 42
0.015295
  0
VERTEX
  8
0
 10
519.649483
 20
327.152764
 42
0.012691
  0
VERTEX
  8
0
 10
510.750778
 20
342.040614
 42
0.006280
  0
VERTEX
  8
0
 10
498.744230
 20
360.500000
 42
0.006760
  0
VERTEX
  8
0
 10
488.768571
 20
374.995441
 42
0.011684
  0
VERTEX
  8
0
 10
480.034012
 20
386.735560
 42
0.013203
  0
VERTEX
  8
0
 10
471.586889
 20
396.982510
 42
0.012835
  0
VERTEX
  8
0
 10
462.532937
 20
406.868667
 42
0.013941
  0
VERTEX
  8
0
 10
454.447330
 20
414.799898
 42
0.005447
  0
VERTEX
  8
0
 10
442.863543
 20
425.313098
 42
0.005513
  0
VERTEX
  8
0
 10
430.665184
 20
435.905901
 42
0.009876
  0
VERTEX
  8
0
 10
420.382425
 20
444.294408
 42
-0.021642
  0
VERTEX
  8
0
 10
415.273875
 20
448.666005
 42
-0.034076
  0
VERTEX
  8
0
 10
411.333658
 20
452.882192
 42
-0.033009
  0
VERTEX
  8
0
 10
407.917786
 20
457.692761
 42
-0.018800
  0
VERTEX
  8
0
 10
404.410095
 20
463.907144
 42
0.030459
  0
VERTEX
  8
0
 10
401.508364
 20
468.779168
 42
0.045310
  0
VERTEX
  8
0
 10
398.355984
 20
472.609379
 42
0.046477
  0
VERTEX
  8
0
 10
394.629523
 20
475.740018
 42
0.034337
  0
VERTEX
  8
0
 10
390.000000
 20
478.497434
 42
-0.075576
  0
VERTEX
  8
0
 10
384.917185
 20
482.121549
 42
-0.008932
  0
VERTEX
  8
0
 10
375.105597
 20
491.986996
 42
-0.004097
  0
VERTEX
  8
0
 10
365.003094
 20
502.688717
 42
-0.290781
  0
VERTEX
  8
0
 10
364.578822
 20
504.988221
 42
0.066659
  0
VERTEX
  8
0
 10
364.843182
 20
506.021895
 42
0.004603
  0
VERTEX
  8
0
 10
365.168686
 20
509.022555
 42
0.006490
  0
VERTEX
  8
0
 10
365.478422
 20
512.620738
 42
0.004830
  0
VERTEX
  8
0
 10
365.730314
 20
516.599201
 42
0.048619
  0
VERTEX
  8
0
 10
365.119584
 20
530.600063
 42
0.113144
  0
VERTEX
  8
0
 10
361.382296
 20
540.348670
 42
0.109651
  0
VERTEX
  8
0
 10
353.681797
 20
547.681583
 42
0.044012
  0
VERTEX
  8
0
 10
340.542893
 20
554.102379
 42
-0.006725
  0
VERTEX
  8
0
 10
336.795266
 20
555.599392
 42
-0.003419
  0
VERTEX
  8
0
 10
332.121558
 20
557.577199
 42
-0.003396
  0
VERTEX
  8
0
 10
327.327394
 20
559.683476
 42
-0.005073
  0
VERTEX
  8
0
 10
323.168794
 20
561.595196
 42
0.001733
  0
VERTEX
  8
0
 10
319.559655
 20
563.283617
 42
0.002727
  0
VERTEX
  8
0
 10
316.446967
 20
564.706089
 42
0.000696
  0
VERTEX
  8
0
 10
313.721434
 20
565.929152
 42
0.105493
  0
VERTEX
  8
0
 10
313.389376
 20
566.000000
 42
-0.156115
  0
VERTEX
  8
0
 10
313.085956
 20
566.097104
 42
-0.002338
  0
VERTEX
  8
0
 10
311.556668
 20
567.198454
 42
-0.006075
  0
VERTEX
  8
0
 10
309.790370
 20
568.516181
 42
-0.003946
  0
VERTEX
  8
0
 10
307.779775
 20
570.079843
 42
0.023548
  0
VERTEX
  8
0
 10
301.987900
 20
574.230535
 42
0.040747
  0
VERTEX
  8
0
 10
296.773778
 20
577.033636
 42
0.045963
  0
VERTEX
  8
0
 10
291.648611
 20
578.731838
 42
0.042260
  0
VERTEX
  8
0
 10
286.152255
 20
579.526742
 42
0.012861
  0
VERTEX
  8
0
 10
283.385366
 20
579.619294
 42
0.012261
  0
VERTEX
  8
0
 10
280.572850
 20
579.572032
 42
0.012298
  0
VERTEX
  8
0
 10
278.091830
 20
579.408252
 42
0.042008
  0
SEQEND
  0
POLYLINE
  8
0
 66
1
 70
1
  0
VERTEX
  8
0
 10
291.715053
 20
572.375713
 42
-0.035386
  0
VERTEX
  8
0
 10
295.680126
 20
570.708666
 42
-0.023069
  0
VERTEX
  8
0
 10
300.003460
 20
568.262663
 42
-0.023166
  0
VERTEX
  8
0
 10
304.042001
 20
565.456117
 42
-0.038478
  0
VERTEX
  8
0
 10
307.128472
 20
562.690841
 42
-0.021372
  0
VERTEX
  8
0
 10
308.303488
 20
561.352691
 42
-0.003354
  0
VERTEX
  8
0
 10
310.485866
 20
558.604444
 42
-0.003723
  0
VERTEX
  8
0
 10
313.014301
 20
555.326194
 42
-0.003241
  0
VERTEX
  8
0
 10
315.614365
 20
551.856201
 42
0.010272
  0
VERTEX
  8
0
 10
319.798436
 20
546.432861
 42
0.044897
  0
VERTEX
  8
0
 10
322.608371
 20
543.519873
 42
0.100032
  0
VERTEX
  8
0
 10
324.628682
 20
542.378442
 42
0.282221
  0
VERTEX
  8
0
 10
326.140934
 20
542.740934
 42
0.264954
  0
VERTEX
  8
0
 10
326.408926
 20
543.719175
 42
0.038609
  0
VERTEX
  8
0
 10
325.719401
 20
545.746821
 42
0.027948
  0
VERTEX
  8
0
 10
324.283325
 20
548.639132
 42
0.009209
  0
VERTEX
  8
0
 10
321.861378
 20
552.724295
 42
-0.009748
  0
VERTEX
  8
0
 10
321.118093
 20
553.981099
 42
-0.017832
  0
VERTEX
  8
0
 10
320.569430
 20
555.037762
 42
-0.014574
  0
VERTEX
  8
0
 10
320.209532
 20
555.856579
 42
-0.532030
  0
VERTEX
  8
0
 10
320.306167
 20
556.000000
 42
-0.099853
  0
VERTEX
  8
0
 10
320.643562
 20
555.931942
 42
-0.001492
  0
VERTEX
  8
0
 10
322.506518
 20
555.141935
 42
-0.003979
  0
VERTEX
  8
0
 10
324.665449
 20
554.198417
 42
-0.002611
  0
VERTEX
  8
0
 10
327.137726
 20
553.078927
 42
0.003836
  0
VERTEX
  8
0
 10
330.140628
 20
551.728016
 42
0.001912
  0
VERTEX
  8
0
 10
333.962347
 20
550.061300
 42
0.001898
  0
VERTEX
  8
0
 10
337.933764
 20
548.365198
 42
0.002794
  0
VERTEX
  8
0
 10
341.436220
 20
546.908086
 42
-0.050914
  0
VERTEX
  8
0
 10
350.977644
 20
541.813943
 42
-0.109941
  0
VERTEX
  8
0
 10
356.679425
 20
535.810796
 42
-0.106921
  0
VERTEX
  8
0
 10
359.388529
 20
527.839765
 42
-0.046506
  0
VERTEX
  8
0
 10
359.631859
 20
516.598114
 42
-0.027166
  0
VERTEX
  8
0
 10
358.367103
 20
506.583277
 42
-0.033330
  0
VERTEX
  8
0
 10
356.066262
 20
497.442070
 42
-0.035256
  0
VERTEX
  8
0
 10
353.166176
 20
490.258410
 42
-0.157590
  0
VERTEX
  8
0
 10
350.055391
 20
487.029644
 42
-0.094002
  0
VERTEX
  8
0
 10
347.391224
 20
486.193995
 42
-0.040309
  0
VERTEX
  8
0
 10
343.649761
 20
486.059564
 42
-0.039984
  0
VERTEX
  8
0
 10
339.789079
 20
486.543057
 42
-0.066521
  0
VERTEX
  8
0
 10
336.700340
 20
487.626485
 42
-0.046942
  0
VERTEX
  8
0
 10
330.641058
 20
491.459356
 42
-0.028878
  0
VERTEX
  8
0
 10
324.265018
 20
497.001839
 42
-0.024271
  0
VERTEX
  8
0
 10
317.463169
 20
504.318533
 42
-0.014634
  0
VERTEX
  8
0
 10
310.096262
 20
513.595278
 42
0.012813
  0
VERTEX
  8
0
 10
298.277269
 20
528.590123
 42
0.042763
  0
VERTEX
  8
0
 10
289.484051
 20
537.503632
 42
0.068242
  0
VERTEX
  8
0
 10
281.949946
 20
542.337482
 42
0.108452
  0
VERTEX
  8
0
 10
274.500000
 20
543.988677
 42
0.059660
  0
VERTEX
  8
0
 10
270.920097
 20
543.567456
 42
0.047403
  0
VERTEX
  8
0
 10
267.236375
 20
542.301415
 42
0.048979
  0
VERTEX
  8
0
 10
264.335707
 20
540.626501
 42
0.241874
  0
VERTEX
  8
0
 10
263.500000
 20
539.000000
 42
0.221643
  0
VERTEX
  8
0
 10
263.835095
 20
538.281203
 42
0.128200
  0
VERTEX
  8
0
 10
264.713745
 20
537.863984
 42
0.051583
  0
VERTEX
  8
0
 10
266.417622
 20
537.718403
 42
0.009191
  0
VERTEX
  8
0
 10
269.616810
 20
537.834338
 42
-0.019098
  0
VERTEX
  8
0
 10
272.971395
 20
537.889405
 42
-0.042895
  0
VERTEX
  8
0
 10
275.500654
 20
537.616419
 42
-0.045295
  0
VERTEX
  8
0
 10
277.861004
 20
536.928019
 42
-0.023683
  0
VERTEX
  8
0
 10
280.656956
 20
535.673833
 42
-0.051819
  0
VERTEX
  8
0
 10
285.155197
 20
532.774269
 42
-0.036416
  0
VERTEX
  8
0
 10
289.569787
 20
528.670588
 42
-0.021962
  0
VERTEX
  8
0
 10
295.066484
 20
522.212665
 42
-0.005225
  0
VERTEX
  8
0
 10
303.621916
 20
510.977158
 42
0.026497
  0
VERTEX
  8
0
 10
317.257786
 20
494.567133
 42
0.061982
  0
VERTEX
  8
0
 10
329.435357
 20
484.295922
 42
0.090886
  0
VERTEX
  8
0
 10
340.447983
 20
479.696853
 42
0.145804
  0
VERTEX
  8
0
 10
350.525322
 20
480.456520
 42
0.059323
  0
VERTEX
  8
0
 10
353.857082
 20
482.205143
 42
0.057932
  0
VERTEX
  8
0
 10
356.714760
 20
484.699212
 42
0.053690
  0
VERTEX
  8
0
 10
359.095948
 20
487.963544
 42
0.039820
  0
VERTEX
  8
0
 10
361.012766
 20
492.000000
 42
-0.003009
  0
VERTEX
  8
0
 10
361.542452
 20
493.366597
 42
-0.004262
  0
VERTEX
  8
0
 10
362.031464
 20
494.575776
 42
-0.002469
  0
VERTEX
  8
0
 10
362.457058
 20
495.588686
 42
-0.059893
  0
VERTEX
  8
0
 10
362.609627
 20
495.853705
 42
-0.452345
  0
VERTEX
  8
0
 10
362.837687
 20
495.871804
 42
-0.001096
  0
VERTEX
  8
0
 10
365.482085
 20
493.294228
 42
-0.005187
  0
VERTEX
  8
0
 10
368.491901
 20
490.285796
 42
-0.003086
  0
VERTEX
  8
0
 10
372.016852
 20
486.643900
 42
0.011805
  0
VERTEX
  8
0
 10
376.267601
 20
482.402664
 42
0.012964
  0
VERTEX
  8
0
 10
380.586060
 20
478.500948
 42
0.013929
  0
VERTEX
  8
0
 10
384.667481
 20
475.193967
 42
0.026038
  0
VERTEX
  8
0
 10
388.173238
 20
472.790195
 42
-0.015328
  0
VERTEX
  8
0
 10
392.308988
 20
470.082773
 42
-0.054583
  0
VERTEX
  8
0
 10
394.686851
 20
467.999997
 42
-0.053753
  0
VERTEX
  8
0
 10
396.576130
 20
465.435804
 42
-0.014555
  0
VERTEX
  8
0
 10
398.990693
 20
461.000000
 42
0.025161
  0
VERTEX
  8
0
 10
403.168788
 20
453.697491
 42
0.040797
  0
VERTEX
  8
0
 10
407.503165
 20
448.014172
 42
0.029152
  0
VERTEX
  8
0
 10
413.656161
 20
441.934404
 42
0.007119
  0
VERTEX
  8
0
 10
424.500000
 20
432.672379
 42
-0.010132
  0
VERTEX
  8
0
 10
447.243636
 20
413.008212
 42
-0.024718
  0
VERTEX
  8
0
 10
462.946340
 20
397.393194
 42
-0.025651
  0
VERTEX
  8
0
 10
476.691427
 20
380.653571
 42
-0.011703
  0
VERTEX
  8
0
 10
492.970071
 20
357.500000
 42
-0.012083
  0
VERTEX
  8
0
 10
510.510453
 20
329.844204
 42
-0.024410
  0
VERTEX
  8
0
 10
522.700143
 20
307.113665
 42
-0.025981
  0
VERTEX
  8
0
 10
532.140425
 20
284.243905
 42
-0.015778
  0
VERTEX
  8
0
 10
541.012121
 20
256.353839
 42
-0.004620
  0
VERTEX
  8
0
 10
544.796658
 20
242.527761
 42
-0.012268
  0
VERTEX
  8
0
 10
547.165369
 20
232.564203
 42
-0.013965
  0
VERTEX
  8
0
 10
548.867535
 20
223.259794
 42
-0.007765
  0
VERTEX
  8
0
 10
550.447972
 20
211.836841
 42
-0.024252
  0
VERTEX
  8
0
 10
552.015850
 20
190.532113
 42
-0.031252
  0
VERTEX
  8
0
 10
551.279835
 20
170.923432
 42
-0.033292
  0
VERTEX
  8
0
 10
548.205048
 20
152.634165
 42
-0.035338
  0
VERTEX
  8
0
 10
542.767218
 20
135.286958
 42
-0.014459
  0
VERTEX
  8
0
 10
539.599049
 20
127.862579
 42
-0.131493
  0
VERTEX
  8
0
 10
537.368326
 20
125.180236
 42
-0.094473
  0
VERTEX
  8
0
 10
533.854273
 20
123.580556
 42
-0.005691
  0
VERTEX
  8
0
 10
522.500000
 20
120.952913
 42
0.005847
  0
VERTEX
  8
0
 10
515.104931
 20
119.239091
 42
0.039186
  0
VERTEX
  8
0
 10
511.524001
 20
118.061309
 42
0.081690
  0
VERTEX
  8
0
 10
509.418347
 20
116.743783
 42
0.089556
  0
VERTEX
  8
0
 10
507.923541
 20
114.857134
 42
0.061681
  0
VERTEX
  8
0
 10
507.458590
 20
113.651922
 42
0.112382
  0
VERTEX
  8
0
 10
507.436382
 20
112.602464
 42
0.084530
  0
VERTEX
  8
0
 10
507.884840
 20
111.450769
 42
0.024168
  0
VERTEX
  8
0
 10
508.952316
 20
109.850625
 42
0.000000
  0
VERTEX
  8
0
 10
511.103388
 20
106.941145
 42
0.000000
  0
VERTEX
  8
0
 10
507.301694
 20
105.375290
 42
0.011175
  0
VERTEX
  8
0
 10
501.487827
 20
102.827238
 42
0.033681
  0
VERTEX
  8
0
 10
497.696678
 20
100.742601
 42
0.037027
  0
VERTEX
  8
0
 10
494.416610
 20
98.279488
 42
0.015862
  0
VERTEX
  8
0
 10
490.403839
 20
94.542411
 42
0.017273
  0
VERTEX
  8
0
 10
487.972988
 20
91.957501
 42
0.016930
  0
VERTEX
  8
0
 10
485.709388
 20
89.194056
 42
0.017084
  0
VERTEX
  8
0
 10
483.891753
 20
86.638696
 42
0.059353
  0
VERTEX
  8
0
 10
482.983298
 20
84.830355
 42
-0.041285
  0
VERTEX
  8
0
 10
482.027404
 20
82.743315
 42
-0.105215
  0
VERTEX
  8
0
 10
480.933244
 20
81.500015
 42
-0.076582
  0
VERTEX
  8
0
 10
479.216720
 20
80.591943
 42
-0.015045
  0
VERTEX
  8
0
 10
475.877260
 20
79.545598
 42
-0.016940
  0
VERTEX
  8
0
 10
468.482383
 20
77.738495
 42
-0.013573
  0
VERTEX
  8
0
 10
460.415170
 20
76.281718
 42
-0.013872
  0
VERTEX
  8
0
 10
452.598208
 20
75.309253
 42
-0.023383
  0
VERTEX
  8
0
 10
446.000000
 20
74.983908
 42
0.036404
  0
VERTEX
  8
0
 10
430.816764
 20
73.838660
 42
0.025487
  0
VERTEX
  8
0
 10
413.991853
 20
70.445175
 42
0.024673
  0
VERTEX
  8
0
 10
396.901327
 20
65.171155
 42
0.026815
  0
VERTEX
  8
0
 10
380.894903
 20
58.360799
 42
-0.007610
  0
VERTEX
  8
0
 10
375.999714
 20
56.052227
 42
-0.005977
  0
VERTEX
  8
0
 10
370.626986
 20
53.694705
 42
-0.006047
  0
VERTEX
  8
0
 10
365.577691
 20
51.622425
 42
-0.014773
  0
VERTEX
  8
0
 10
361.799483
 20
50.252646
 42
-0.009252
  0
VERTEX
  8
0
 10
357.083423
 20
48.795030
 42
-0.045386
  0
VERTEX
  8
0
 10
354.348256
 20
48.267447
 42
-0.058358
  0
VERTEX
  8
0
 10
351.887383
 20
48.308660
 42
-0.021712
  0
VERTEX
  8
0
 10
348.475814
 20
48.917999
 42
-0.077721
  0
VERTEX
  8
0
 10
340.935470
 20
51.888620
 42
-0.075049
  0
VERTEX
  8
0
 10
334.559566
 20
57.047085
 42
-0.061126
  0
VERTEX
  8
0
 10
329.025163
 20
64.821681
 42
-0.031250
  0
VERTEX
  8
0
 10
323.980032
 20
75.705514
 42
0.007492
  0
VERTEX
  8
0
 10
322.049964
 20
80.447194
 42
0.005110
  0
VERTEX
  8
0
 10
319.720626
 20
85.780758
 42
0.005150
  0
VERTEX
  8
0
 10
317.368047
 20
90.879661
 42
0.010337
  0
VERTEX
  8
0
 10
315.386808
 20
94.846002
 42
-0.026322
  0
VERTEX
  8
0
 10
312.236535
 20
101.691536
 42
-0.070695
  0
VERTEX
  8
0
 10
310.977947
 20
106.890602
 42
-0.101225
  0
VERTEX
  8
0
 10
311.420062
 20
111.069361
 42
-0.103959
  0
VERTEX
  8
0
 10
313.468399
 20
114.694236
 42
0.000000
  0
VERTEX
  8
0
 10
315.936798
 20
117.500000
 42
0.000000
  0
VERTEX
  8
0
 10
315.969953
 20
113.000000
 42
0.052692
  0
VERTEX
  8
0
 10
316.437805
 20
108.864564
 42
0.059292
  0
VERTEX
  8
0
 10
317.757957
 20
105.089180
 42
0.069413
  0
VERTEX
  8
0
 10
319.633030
 20
102.309396
 42
0.176211
  0
VERTEX
  8
0
 10
321.750000
 20
101.180449
 42
0.079177
  0
VERTEX
  8
0
 10
323.274291
 20
101.206280
 42
0.334797
  0
VERTEX
  8
0
 10
323.858486
 20
101.833755
 42
0.101534
  0
VERTEX
  8
0
 10
323.712307
 20
103.308261
 42
0.006802
  0
VERTEX
  8
0
 10
322.392428
 20
107.361686
 42
-0.054215
  0
VERTEX
  8
0
 10
321.422565
 20
111.697307
 42
-0.055764
  0
VERTEX
  8
0
 10
321.421079
 20
116.098122
 42
-0.060630
  0
VERTEX
  8
0
 10
322.347004
 20
120.014033
 42
-0.099508
  0
VERTEX
  8
0
 10
324.126028
 20
122.904901
 42
-0.054182
  0
VERTEX
  8
0
 10
325.385699
 20
123.993142
 42
-0.082398
  0
VERTEX
  8
0
 10
326.691481
 20
124.607609
 42
-0.063869
  0
VERTEX
  8
0
 10
328.359647
 20
124.856045
 42
-0.021200
  0
VERTEX
  8
0
 10
330.836702
 20
124.801250
 42
-0.012438
  0
VERTEX
  8
0
 10
333.445239
 20
124.567461
 42
-0.093968
  0
VERTEX
  8
0
 10
334.621226
 20
124.201563
 42
-0.212796
  0
VERTEX
  8
0
 10
335.121249
 20
123.560509
 42
-0.103089
  0
VERTEX
  8
0
 10
335.161184
 20
122.500000
 42
0.015952
  0
VERTEX
  8
0
 10
335.000443
 20
121.324617
 42
0.002575
  0
VERTEX
  8
0
 10
334.772435
 20
119.025768
 42
0.002842
  0
VERTEX
  8
0
 10
334.533210
 20
116.315129
 42
0.002494
  0
VERTEX
  8
0
 10
334.313566
 20
113.481337
 42
0.010462
  0
VERTEX
  8
0
 10
334.113881
 20
109.603137
 42
0.045417
  0
VERTEX
  8
0
 10
334.252412
 20
107.306685
 42
0.072297
  0
VERTEX
  8
0
 10
334.760487
 20
105.636849
 42
0.060310
  0
VERTEX
  8
0
 10
335.746624
 20
104.064578
 42
0.089741
  0
VERTEX
  8
0
 10
337.683487
 20
102.395963
 42
0.220935
  0
VERTEX
  8
0
 10
339.508079
 20
102.217965
 42
0.261118
  0
VERTEX
  8
0
 10
340.605858
 20
103.463748
 42
0.111236
  0
VERTEX
  8
0
 10
340.582725
 20
105.762438
 42
-0.029868
  0
VERTEX
  8
0
 10
339.304181
 20
113.126462
 42
-0.095783
  0
VERTEX
  8
0
 10
339.694418
 20
118.068820
 42
-0.171242
  0
VERTEX
  8
0
 10
341.673092
 20
120.906077
 42
-0.156927
  0
VERTEX
  8
0
 10
345.072713
 20
122.000000
 42
-0.099912
  0
VERTEX
  8
0
 10
349.879065
 20
121.029896
 42
-0.087991
  0
VERTEX
  8
0
 10
354.180625
 20
118.249277
 42
-0.064224
  0
VERTEX
  8
0
 10
358.272639
 20
113.322852
 42
-0.026890
  0
VERTEX
  8
0
 10
362.500000
 20
105.784776
 42
0.010177
  0
VERTEX
  8
0
 10
364.105446
 20
102.683490
 42
0.016120
  0
VERTEX
  8
0
 10
365.618750
 20
100.102326
 42
0.010167
  0
VERTEX
  8
0
 10
366.954642
 20
98.075928
 42
0.299047
  0
VERTEX
  8
0
 10
367.500000
 20
97.854014
 42
0.347319
  0
VERTEX
  8
0
 10
368.513087
 20
99.038606
 42
0.030577
  0
VERTEX
  8
0
 10
368.419521
 20
103.255224
 42
0.035749
  0
VERTEX
  8
0
 10
367.695278
 20
107.896686
 42
0.063829
  0
VERTEX
  8
0
 10
366.359104
 20
111.515058
 42
0.000000
  0
VERTEX
  8
0
 10
364.278283
 20
115.500000
 42
0.000000
  0
VERTEX
  8
0
 10
368.677833
 20
128.500000
 42
-0.021503
  0
VERTEX
  8
0
 10
375.652595
 20
146.518448
 42
-0.038788
  0
VERTEX
  8
0
 10
383.097939
 20
160.481580
 42
-0.046209
  0
VERTEX
  8
0
 10
391.520329
 20
171.339204
 42
-0.053507
  0
VERTEX
  8
0
 10
401.424546
 20
179.882789
 42
-0.025658
  0
VERTEX
  8
0
 10
414.389778
 20
187.895463
 42
-0.047024
  0
VERTEX
  8
0
 10
425.780327
 20
192.822815
 42
-0.048924
  0
VERTEX
  8
0
 10
437.578699
 20
195.418160
 42
-0.030348
  0
VERTEX
  8
0
 10
451.750000
 20
196.242144
 42
0.003973
  0
VERTEX
  8
0
 10
458.626873
 20
196.278916
 42
0.021762
  0
VERTEX
  8
0
 10
462.335233
 20
196.489810
 42
0.038705
  0
VERTEX
  8
0
 10
464.454911
 20
196.870482
 42
0.341333
  0
VERTEX
  8
0
 10
465.000000
 20
197.575926
 42
0.317419
  0
VERTEX
  8
0
 10
463.797424
 20
199.279366
 42
0.028061
  0
VERTEX
  8
0
 10
458.457342
 20
200.845314
 42
0.031029
  0
VERTEX
  8
0
 10
451.696350
 20
201.985717
 42
0.026745
  0
VERTEX
  8
0
 10
444.500000
 20
202.357269
 42
0.027132
  0
VERTEX
  8
0
 10
436.660402
 20
201.916668
 42
0.029920
  0
VERTEX
  8
0
 10
429.170852
 20
200.629376
 42
0.029862
  0
VERTEX
  8
0
 10
421.875756
 20
198.454467
 42
0.026824
  0
VERTEX
  8
0
 10
414.617622
 20
195.359359
 42
0.028495
  0
VERTEX
  8
0
 10
402.658693
 20
188.611927
 42
0.034791
  0
VERTEX
  8
0
 10
392.359055
 20
180.939836
 42
0.036680
  0
VERTEX
  8
0
 10
383.683880
 20
172.304366
 42
0.039272
  0
VERTEX
  8
0
 10
376.578991
 20
162.678824
 42
0.026887
  0
VERTEX
  8
0
 10
372.770065
 20
155.765809
 42
0.011862
  0
VERTEX
  8
0
 10
368.455693
 20
146.261129
 42
0.011907
  0
VERTEX
  8
0
 10
364.553652
 20
136.451106
 42
0.023840
  0
VERTEX
  8
0
 10
362.032164
 20
128.500000
 42
-0.013498
  0
VERTEX
  8
0
 10
360.781260
 20
124.252662
 42
-0.129429
  0
VERTEX
  8
0
 10
359.770631
 20
122.678844
 42
-0.302764
  0
VERTEX
  8
0
 10
358.546135
 20
122.488075
 42
-0.075052
  0
VERTEX
  8
0
 10
356.763244
 20
123.664478
 42
0.027207
  0
VERTEX
  8
0
 10
354.292528
 20
125.657041
 42
0.065758
  0
VERTEX
  8
0
 10
352.229545
 20
126.765235
 42
0.050653
  0
VERTEX
  8
0
 10
349.642842
 20
127.454468
 42
0.011140
  0
VERTEX
  8
0
 10
345.082697
 20
128.082704
 42
-0.008711
  0
VERTEX
  8
0
 10
342.219027
 20
128.463057
 42
-0.006374
  0
VERTEX
  8
0
 10
339.054044
 20
128.981016
 42
-0.006443
  0
VERTEX
  8
0
 10
336.067737
 20
129.548681
 42
-0.014150
  0
VERTEX
  8
0
 10
333.803410
 20
130.076543
 42
0.021056
  0
VERTEX
  8
0
 10
331.087241
 20
130.670322
 42
0.057288
  0
VERTEX
  8
0
 10
329.124728
 20
130.785590
 42
0.056842
  0
VERTEX
  8
0
 10
327.178532
 20
130.452822
 42
0.020478
  0
VERTEX
  8
0
 10
324.511878
 20
129.557686
 42
0.030238
  0
VERTEX
  8
0
 10
322.636834
 20
128.708472
 42
0.026979
  0
VERTEX
  8
0
 10
320.802352
 20
127.609657
 42
0.027956
  0
VERTEX
  8
0
 10
319.261244
 20
126.439289
 42
0.071458
  0
VERTEX
  8
0
 10
318.336176
 20
125.390317
 42
-0.051920
  0
VERTEX
  8
0
 10
317.488326
 20
124.349936
 42
-0.025850
  0
VERTEX
  8
0
 10
316.221777
 20
123.212881
 42
-0.025343
  0
VERTEX
  8
0
 10
314.774616
 20
122.159479
 42
-0.033881
  0
VERTEX
  8
0
 10
313.358014
 20
121.365599
 42
0.066891
  0
VERTEX
  8
0
 10
309.765214
 20
119.028885
 42
0.090403
  0
VERTEX
  8
0
 10
307.332897
 20
116.022587
 42
0.081310
  0
VERTEX
  8
0
 10
305.955169
 20
112.098755
 42
0.044316
  0
VERTEX
  8
0
 10
305.511307
 20
107.000000
 42
0.020165
  0
VERTEX
  8
0
 10
305.669046
 20
103.252201
 42
0.047490
  0
VERTEX
  8
0
 10
306.162180
 20
100.500000
 42
0.043865
  0
VERTEX
  8
0
 10
307.192103
 20
97.762780
 42
0.015073
  0
VERTEX
  8
0
 10
309.140052
 20
94.000000
 42
-0.007539
  0
VERTEX
  8
0
 10
313.176043
 20
86.483413
 42
-0.225656
  0
VERTEX
  8
0
 10
313.246908
 20
84.388172
 42
-0.257643
  0
VERTEX
  8
0
 10
311.663194
 20
83.168132
 42
-0.009717
  0
VERTEX
  8
0
 10
303.985947
 20
82.143669
 42
-0.043014
  0
VERTEX
  8
0
 10
270.658178
 20
81.235223
 42
-0.040146
  0
VERTEX
  8
0
 10
236.866584
 20
85.961740
 42
-0.042338
  0
VERTEX
  8
0
 10
206.493999
 20
95.485174
 42
-0.071823
  0
VERTEX
  8
0
 10
183.575669
 20
108.971036
 42
-0.028651
  0
VERTEX
  8
0
 10
173.350254
 20
118.169111
 42
-0.042025
  0
VERTEX
  8
0
 10
165.589678
 20
127.439963
 42
-0.042180
  0
VERTEX
  8
0
 10
159.508377
 20
137.851427
 42
-0.029148
  0
VERTEX
  8
0
 10
154.367366
 20
150.500000
 42
-0.008940
  0
VERTEX
  8
0
 10
152.138640
 20
157.460172
 42
-0.035230
  0
VERTEX
  8
0
 10
151.149965
 20
161.848765
 42
-0.031685
  0
VERTEX
  8
0
 10
150.736286
 20
166.548124
 42
-0.006275
  0
VERTEX
  8
0
 10
150.635685
 20
175.000000
 42
-0.007729
  0
VERTEX
  8
0
 10
150.756999
 20
182.531806
 42
-0.019565
  0
VERTEX
  8
0
 10
151.143721
 20
187.993486
 42
-0.021626
  0
VERTEX
  8
0
 10
151.928708
 20
193.082023
 42
-0.011527
  0
VERTEX
  8
0
 10
153.314911
 20
199.299723
 42
-0.047486
  0
VERTEX
  8
0
 10
160.436248
 20
219.604980
 42
-0.051793
  0
VERTEX
  8
0
 10
171.104028
 20
237.576112
 42
-0.051865
  0
VERTEX
  8
0
 10
185.222481
 20
252.950596
 42
-0.047857
  0
VERTEX
  8
0
 10
202.567845
 20
265.562349
 42
0.005880
  0
VERTEX
  8
0
 10
205.656268
 20
267.433849
 42
0.008202
  0
VERTEX
  8
0
 10
208.370859
 20
269.185185
 42
0.005367
  0
VERTEX
  8
0
 10
210.597379
 20
270.708754
 42
0.099281
  0
VERTEX
  8
0
 10
211.184017
 20
271.323445
 42
0.142012
  0
VERTEX
  8
0
 10
211.536773
 20
272.541020
 42
0.265254
  0
VERTEX
  8
0
 10
211.043566
 20
273.405020
 42
0.138707
  0
VERTEX
  8
0
 10
209.635457
 20
273.776401
 42
0.041940
  0
VERTEX
  8
0
 10
207.414536
 20
273.549945
 42
-0.021993
  0
VERTEX
  8
0
 10
205.461729
 20
273.271830
 42
-0.142102
  0
VERTEX
  8
0
 10
204.493547
 20
273.452842
 42
-0.177538
  0
VERTEX
  8
0
 10
203.885713
 20
274.102380
 42
-0.038750
  0
VERTEX
  8
0
 10
203.390701
 20
275.579459
 42
-0.050753
  0
VERTEX
  8
0
 10
203.169136
 20
277.102259
 42
-0.009950
  0
VERTEX
  8
0
 10
203.104955
 20
279.872276
 42
-0.010464
  0
VERTEX
  8
0
 10
203.162266
 20
283.116926
 42
-0.009532
  0
VERTEX
  8
0
 10
203.355166
 20
286.459133
 42
0.007539
  0
VERTEX
  8
0
 10
203.552355
 20
289.654224
 42
0.011314
  0
VERTEX
  8
0
 10
203.619214
 20
292.447069
 42
0.006381
  0
VERTEX
  8
0
 10
203.592577
 20
294.772845
 42
0.192627
  0
VERTEX
  8
0
 10
203.366737
 20
295.299929
 42
0.223898
  0
VERTEX
  8
0
 10
202.950339
 20
295.449509
 42
0.036814
  0
VERTEX
  8
0
 10
202.084639
 20
295.301567
 42
0.034404
  0
VERTEX
  8
0
 10
201.018942
 20
294.958274
 42
0.024213
  0
VERTEX
  8
0
 10
199.873216
 20
294.434437
 42
-0.079496
  0
VERTEX
  8
0
 10
197.852285
 20
293.767880
 42
-0.455836
  0
VERTEX
  8
0
 10
197.091180
 20
294.403067
 42
-0.080785
  0
VERTEX
  8
0
 10
197.411793
 20
296.657341
 42
-0.004086
  0
VERTEX
  8
0
 10
199.687501
 20
303.745347
 42
0.007203
  0
VERTEX
  8
0
 10
201.043197
 20
308.060078
 42
0.034017
  0
VERTEX
  8
0
 10
201.614087
 20
310.589023
 42
0.064943
  0
VERTEX
  8
0
 10
201.653446
 20
312.207760
 42
0.171658
  0
VERTEX
  8
0
 10
201.161275
 20
313.238725
 42
0.094962
  0
VERTEX
  8
0
 10
200.384423
 20
313.765695
 42
0.131184
  0
VERTEX
  8
0
 10
199.554753
 20
313.887531
 42
0.081367
  0
VERTEX
  8
0
 10
198.488166
 20
313.583775
 42
0.020303
  0
VERTEX
  8
0
 10
196.875582
 20
312.743378
 42
-0.011290
  0
VERTEX
  8
0
 10
195.649115
 20
312.075833
 42
-0.013939
  0
VERTEX
  8
0
 10
194.476111
 20
311.512117
 42
-0.012333
  0
VERTEX
  8
0
 10
193.474835
 20
311.094150
 42
-0.092962
  0
VERTEX
  8
0
 10
192.972822
 20
311.000000
 42
-0.445786
  0
VERTEX
  8
0
 10
192.726990
 20
311.273535
 42
-0.020567
  0
VERTEX
  8
0
 10
192.933524
 20
312.661612
 42
-0.022767
  0
VERTEX
  8
0
 10
193.369308
 20
314.486891
 42
-0.012870
  0
VERTEX
  8
0
 10
194.053861
 20
316.656550
 42
0.009956
  0
VERTEX
  8
0
 10
194.800463
 20
318.975687
 42
0.010721
  0
VERTEX
  8
0
 10
195.434697
 20
321.266440
 42
0.010309
  0
VERTEX
  8
0
 10
195.895450
 20
323.251760
 42
0.049305
  0
VERTEX
  8
0
 10
196.021703
 20
324.406550
 42
-0.248862
  0
VERTEX
  8
0
 10
196.996087
 20
326.197886
 42
-0.024403
  0
VERTEX
  8
0
 10
201.366494
 20
328.793959
 42
-0.016545
  0
VERTEX
  8
0
 10
208.842394
 20
332.443319
 42
-0.003121
  0
VERTEX
  8
0
 10
222.750000
 20
338.567435
 42
0.011352
  0
VERTEX
  8
0
 10
227.077336
 20
340.558618
 42
0.114300
  0
VERTEX
  8
0
 10
228.609733
 20
341.801793
 42
0.438188
  0
VERTEX
  8
0
 10
228.450939
 20
342.759197
 42
0.083834
  0
VERTEX
  8
0
 10
226.634288
 20
343.555652
 42
0.099934
  0
VERTEX
  8
0
 10
223.610978
 20
343.696940
 42
0.035482
  0
VERTEX
  8
0
 10
219.369904
 20
342.733222
 42
0.024275
  0
VERTEX
  8
0
 10
213.562372
 20
340.659827
 42
0.008060
  0
VERTEX
  8
0
 10
205.260454
 20
337.075490
 42
-0.005539
  0
VERTEX
  8
0
 10
200.737350
 20
335.095531
 42
-0.005098
  0
VERTEX
  8
0
 10
196.045258
 20
333.159463
 42
-0.005097
  0
VERTEX
  8
0
 10
191.827367
 20
331.518883
 42
-0.016777
  0
VERTEX
  8
0
 10
189.000000
 20
330.559261
 42
-0.037501
  0
VERTEX
  8
0
 10
182.495019
 20
329.113591
 42
-0.021836
  0
VERTEX
  8
0
 10
174.535596
 20
328.314539
 42
-0.021825
  0
VERTEX
  8
0
 10
166.756045
 20
328.215364
 42
-0.049053
  0
VERTEX
  8
0
 10
160.908460
 20
328.973460
 42
-0.026438
  0
VERTEX
  8
0
 10
155.951637
 20
330.397819
 42
-0.015440
  0
VERTEX
  8
0
 10
150.172543
 20
332.596580
 42
-0.007038
  0
VERTEX
  8
0
 10
144.667523
 20
334.979485
 42
-0.295206
  0
VERTEX
  8
0
 10
144.000000
 20
336.011564
 42
-0.367521
  0
VERTEX
  8
0
 10
144.896395
 20
337.066355
 42
-0.034584
  0
VERTEX
  8
0
 10
148.549984
 20
337.406623
 42
-0.030986
  0
VERTEX
  8
0
 10
153.605889
 20
337.213259
 42
-0.017166
  0
VERTEX
  8
0
 10
159.728116
 20
336.384782
 42
0.012082
  0
VERTEX
  8
0
 10
163.749491
 20
335.798912
 42
0.010437
  0
VERTEX
  8
0
 10
167.995607
 20
335.374441
 42
0.010559
  0
VERTEX
  8
0
 10
171.861561
 20
335.151334
 42
0.029826
  0
VERTEX
  8
0
 10
174.564539
 20
335.213795
 42
0.062662
  0
VERTEX
  8
0
 10
180.286054
 20
336.420732
 42
0.031028
  0
VERTEX
  8
0
 10
187.147202
 20
339.282004
 42
0.029994
  0
VERTEX
  8
0
 10
194.057866
 20
343.212241
 42
0.036245
  0
VERTEX
  8
0
 10
200.000000
 20
347.725074
 42
-0.013558
  0
VERTEX
  8
0
 10
209.285526
 20
355.465154
 42
-0.040759
  0
VERTEX
  8
0
 10
216.153579
 20
360.026858
 42
-0.056352
  0
VERTEX
  8
0
 10
222.299546
 20
362.569219
 42
-0.052681
  0
VERTEX
  8
0
 10
229.000000
 20
363.749624
 42
-0.017868
  0
VERTEX
  8
0
 10
232.242471
 20
363.857898
 42
-0.027838
  0
VERTEX
  8
0
 10
235.032663
 20
363.695847
 42
-0.030877
  0
VERTEX
  8
0
 10
237.559506
 20
363.248014
 42
-0.031307
  0
VERTEX
  8
0
 10
240.000000
 20
362.493786
 42
0.017590
  0
VERTEX
  8
0
 10
244.827143
 20
360.855709
 42
0.055213
  0
VERTEX
  8
0
 10
248.189790
 20
360.238031
 42
0.096840
  0
VERTEX
  8
0
 10
250.447474
 20
360.514222
 42
0.195653
  0
VERTEX
  8
0
 10
251.793610
 20
361.650894
 42
0.256904
  0
VERTEX
  8
0
 10
251.705815
 20
366.086161
 42
0.118366
  0
VERTEX
  8
0
 10
247.607068
 20
370.412764
 42
0.089799
  0
VERTEX
  8
0
 10
240.833031
 20
373.258285
 42
0.095319
  0
VERTEX
  8
0
 10
233.637377
 20
373.463416
 42
0.046812
  0
VERTEX
  8
0
 10
225.079728
 20
371.231563
 42
0.040398
  0
VERTEX
  8
0
 10
216.630976
 20
367.362649
 42
0.032979
  0
VERTEX
  8
0
 10
207.488225
 20
361.423272
 42
0.016564
  0
VERTEX
  8
0
 10
196.735157
 20
352.813213
 42
-0.012491
  0
VERTEX
  8
0
 10
193.761869
 20
350.392483
 42
-0.009764
  0
VERTEX
  8
0
 10
190.419659
 20
347.910251
 42
-0.009894
  0
VERTEX
  8
0
 10
187.215671
 20
345.720670
 42
-0.023662
  0
VERTEX
  8
0
 10
184.735157
 20
344.259324
 42
-0.024251
  0
VERTEX
  8
0
 10
181.362640
 20
342.685674
 42
-0.059491
  0
VERTEX
  8
0
 10
178.729026
 20
341.958934
 42
-0.040113
  0
VERTEX
  8
0
 10
175.441314
 20
341.727681
 42
-0.006427
  0
VERTEX
  8
0
 10
169.000000
 20
341.874654
 42
0.002284
  0
VERTEX
  8
0
 10
153.740477
 20
342.349351
 42
0.020226
  0
VERTEX
  8
0
 10
147.007155
 20
342.255637
 42
0.045852
  0
VERTEX
  8
0
 10
142.713496
 20
341.624251
 42
0.051821
  0
VERTEX
  8
0
 10
138.788672
 20
340.230618
 42
-0.013652
  0
VERTEX
  8
0
 10
135.823585
 20
338.915580
 42
-0.079971
  0
VERTEX
  8
0
 10
134.169322
 20
338.527309
 42
-0.092065
  0
VERTEX
  8
0
 10
132.581254
 20
338.707013
 42
-0.021083
  0
VERTEX
  8
0
 10
130.022326
 20
339.607744
 42
-0.101485
  0
VERTEX
  8
0
 10
123.806719
 20
343.705712
 42
-0.067898
  0
VERTEX
  8
0
 10
118.634286
 20
350.509093
 42
-0.063490
  0
VERTEX
  8
0
 10
115.177873
 20
358.974356
 42
-0.065301
  0
VERTEX
  8
0
 10
114.000000
 20
367.954627
 42
-0.019424
  0
VERTEX
  8
0
 10
114.150674
 20
371.831700
 42
-0.042942
  0
VERTEX
  8
0
 10
114.632309
 20
374.750862
 42
-0.039908
  0
VERTEX
  8
0
 10
115.630303
 20
377.672851
 42
-0.014749
  0
VERTEX
  8
0
 10
117.478764
 20
381.615643
 42
-0.021315
  0
VERTEX
  8
0
 10
119.287640
 20
384.845595
 42
-0.009541
  0
VERTEX
  8
0
 10
121.924691
 20
388.939758
 42
-0.009425
  0
VERTEX
  8
0
 10
124.881540
 20
393.169034
 42
-0.012634
  0
VERTEX
  8
0
 10
127.728764
 20
396.881407
 42
0.002922
  0
VERTEX
  8
0
 10
136.256564
 20
407.564214
 42
0.011987
  0
VERTEX
  8
0
 10
141.232116
 20
414.193197
 42
0.018915
  0
VERTEX
  8
0
 10
144.627339
 20
419.352069
 42
0.021063
  0
VERTEX
  8
0
 10
147.494850
 20
424.574594
 42
0.011180
  0
VERTEX
  8
0
 10
148.836857
 20
427.442686
 42
0.013269
  0
VERTEX
  8
0
 10
149.970362
 20
430.210051
 42
0.012117
  0
VERTEX
  8
0
 10
150.802981
 20
432.579018
 42
0.078599
  0
VERTEX
  8
0
 10
151.000000
 20
433.824594
 42
0.156320
  0
VERTEX
  8
0
 10
150.477061
 20
435.456372
 42
0.327811
  0
VERTEX
  8
0
 10
149.277822
 20
435.849785
 42
0.130466
  0
VERTEX
  8
0
 10
147.449822
 20
434.662506
 42
0.037694
  0
VERTEX
  8
0
 10
145.367850
 20
431.979672
 42
-0.012909
  0
VERTEX
  8
0
 10
144.313303
 20
430.472194
 42
-0.022164
  0
VERTEX
  8
0
 10
143.348592
 20
429.280576
 42
-0.018707
  0
VERTEX
  8
0
 10
142.540848
 20
428.434604
 42
-0.410032
  0
VERTEX
  8
0
 10
142.229840
 20
428.436827
 42
0.272851
  0
VERTEX
  8
0
 10
141.859749
 20
428.532377
 42
0.015218
  0
VERTEX
  8
0
 10
140.680553
 20
428.153990
 42
0.020003
  0
VERTEX
  8
0
 10
139.242050
 20
427.577862
 42
0.012981
  0
VERTEX
  8
0
 10
137.626178
 20
426.803469
 42
-0.032163
  0
VERTEX
  8
0
 10
135.657154
 20
425.951039
 42
-0.016978
  0
VERTEX
  8
0
 10
133.120167
 20
425.137521
 42
-0.016826
  0
VERTEX
  8
0
 10
130.456790
 20
424.478111
 42
-0.024870
  0
VERTEX
  8
0
 10
128.080773
 20
424.096315
 42
0.023544
  0
VERTEX
  8
0
 10
124.233339
 20
423.488533
 42
0.158891
  0
VERTEX
  8
0
 10
122.579351
 20
422.543929
 42
0.412950
  0
VERTEX
  8
0
 10
122.631554
 20
421.421954
 42
0.078545
  0
VERTEX
  8
0
 10
124.521158
 20
420.172314
 42
0.053997
  0
VERTEX
  8
0
 10
127.124152
 20
419.310755
 42
0.060082
  0
VERTEX
  8
0
 10
129.757958
 20
419.068474
 42
0.055381
  0
VERTEX
  8
0
 10
132.547877
 20
419.458611
 42
0.036564
  0
VERTEX
  8
0
 10
135.621715
 20
420.486409
 42
0.000000
  0
VERTEX
  8
0
 10
139.179192
 20
421.972818
 42
0.000000
  0
VERTEX
  8
0
 10
137.339596
 20
419.096368
 42
-0.020367
  0
VERTEX
  8
0
 10
136.237741
 20
417.518887
 42
-0.004045
  0
VERTEX
  8
0
 10
134.131006
 20
414.796139
 42
-0.004276
  0
VERTEX
  8
0
 10
131.623400
 20
411.664406
 42
-0.003968
  0
VERTEX
  8
0
 10
129.000000
 20
408.496563
 42
0.003495
  0
VERTEX
  8
0
 10
126.401427
 20
405.364743
 42
0.004030
  0
VERTEX
  8
0
 10
123.968750
 20
402.341404
 42
0.003620
  0
VERTEX
  8
0
 10
121.947523
 20
399.749192
 42
0.023395
  0
VERTEX
  8
0
 10
121.000000
 20
398.388391
 42
-0.028182
  0
VERTEX
  8
0
 10
119.599376
 20
396.417344
 42
-0.313488
  0
VERTEX
  8
0
 10
118.723186
 20
396.156761
 42
-0.294934
  0
VERTEX
  8
0
 10
118.130757
 20
396.891325
 42
-0.026278
  0
VERTEX
  8
0
 10
118.000000
 20
399.377555
 42
0.063456
  0
VERTEX
  8
0
 10
117.681530
 20
401.876806
 42
0.117933
  0
VERTEX
  8
0
 10
116.728306
 20
403.671398
 42
0.159005
  0
VERTEX
  8
0
 10
115.289516
 20
404.519012
 42
0.146897
  0
VERTEX
  8
0
 10
113.575951
 20
404.390772
 42
-0.052341
  0
VERTEX
  8
0
 10
112.738908
 20
404.166468
 42
-0.293264
  0
VERTEX
  8
0
 10
112.333831
 20
404.344117
 42
-0.181124
  0
VERTEX
  8
0
 10
112.206968
 20
404.889360
 42
-0.021917
  0
VERTEX
  8
0
 10
112.423376
 20
406.123519
 42
-0.001398
  0
VERTEX
  8
0
 10
112.739511
 20
407.535862
 42
-0.000205
  0
VERTEX
  8
0
 10
113.389223
 20
410.395415
 42
-0.000232
  0
VERTEX
  8
0
 10
114.160067
 20
413.774430
 42
-0.000199
  0
VERTEX
  8
0
 10
114.974173
 20
417.328957
 42
0.006664
  0
VERTEX
  8
0
 10
115.749713
 20
420.928326
 42
0.007282
  0
VERTEX
  8
0
 10
116.404913
 20
424.442467
 42
0.006873
  0
VERTEX
  8
0
 10
116.879961
 20
427.462479
 42
0.035584
  0
VERTEX
  8
0
 10
117.000000
 20
429.147051
 42
0.000000
  0
VERTEX
  8
0
 10
117.000000
 20
432.136188
 42
0.000000
  0
VERTEX
  8
0
 10
119.914845
 20
430.060636
 42
0.153439
  0
VERTEX
  8
0
 10
128.747712
 20
427.189556
 42
0.133491
  0
VERTEX
  8
0
 10
138.192701
 20
429.658121
 42
0.127952
  0
VERTEX
  8
0
 10
145.372021
 20
436.697810
 42
0.136003
  0
VERTEX
  8
0
 10
148.000000
 20
446.180551
 42
0.038940
  0
VERTEX
  8
0
 10
147.742484
 20
449.482090
 42
0.080052
  0
VERTEX
  8
0
 10
146.940244
 20
451.940368
 42
0.115778
  0
VERTEX
  8
0
 10
145.654665
 20
453.449002
 42
0.159976
  0
VERTEX
  8
0
 10
143.976606
 20
454.000000
 42
0.068732
  0
VERTEX
  8
0
 10
143.089916
 20
453.877534
 42
0.155505
  0
VERTEX
  8
0
 10
142.530536
 20
453.508616
 42
0.143419
  0
VERTEX
  8
0
 10
142.260680
 20
452.860118
 42
0.055337
  0
VERTEX
  8
0
 10
142.261790
 20
451.876076
 42
-0.290054
  0
VERTEX
  8
0
 10
141.306428
 20
449.913008
 42
-0.053711
  0
VERTEX
  8
0
 10
137.509321
 20
448.097781
 42
-0.028416
  0
VERTEX
  8
0
 10
130.633831
 20
446.107277
 42
-0.005846
  0
VERTEX
  8
0
 10
118.290909
 20
443.433926
 42
-0.257218
  0
VERTEX
  8
0
 10
116.571366
 20
443.969456
 42
-0.113508
  0
VERTEX
  8
0
 10
115.308818
 20
446.079001
 42
-0.041148
  0
VERTEX
  8
0
 10
114.253994
 20
450.563554
 42
-0.006016
  0
VERTEX
  8
0
 10
112.978463
 20
459.833994
 42
-0.029980
  0
VERTEX
  8
0
 10
112.409806
 20
468.602821
 42
-0.025022
  0
VERTEX
  8
0
 10
112.831757
 20
477.928400
 42
-0.024832
  0
VERTEX
  8
0
 10
114.191652
 20
487.247528
 42
-0.028128
  0
VERTEX
  8
0
 10
116.433543
 20
495.998382
 42
0.008890
  0
VERTEX
  8
0
 10
117.306771
 20
498.932557
 42
0.013085
  0
VERTEX
  8
0
 10
117.959875
 20
501.541283
 42
0.008351
  0
VERTEX
  8
0
 10
118.406497
 20
503.717235
 42
0.186962
  0
VERTEX
  8
0
 10
118.290988
 20
504.338189
 42
0.207074
  0
VERTEX
  8
0
 10
117.879801
 20
504.624869
 42
0.036940
  0
VERTEX
  8
0
 10
116.929233
 20
504.745879
 42
0.034523
  0
VERTEX
  8
0
 10
115.719983
 20
504.726235
 42
0.025051
  0
VERTEX
  8
0
 10
114.385479
 20
504.544494
 42
-0.035566
  0
VERTEX
  8
0
 10
111.931179
 20
504.262632
 42
-0.340889
  0
VERTEX
  8
0
 10
111.124743
 20
504.830873
 42
-0.299571
  0
VERTEX
  8
0
 10
111.419920
 20
505.848832
 42
-0.031611
  0
VERTEX
  8
0
 10
113.500000
 20
507.408043
 42
0.049939
  0
VERTEX
  8
0
 10
114.456367
 20
508.181160
 42
0.046565
  0
VERTEX
  8
0
 10
115.265625
 20
509.145653
 42
0.049850
  0
VERTEX
  8
0
 10
115.819785
 20
510.147092
 42
0.101801
  0
VERTEX
  8
0
 10
116.000000
 20
511.023053
 42
0.094951
  0
VERTEX
  8
0
 10
115.809362
 20
512.017879
 42
0.176031
  0
VERTEX
  8
0
 10
115.269701
 20
512.624364
 42
0.100737
  0
VERTEX
  8
0
 10
114.217439
 20
512.943359
 42
0.020183
  0
VERTEX
  8
0
 10
112.250000
 20
513.048099
 42
0.000000
  0
VERTEX
  8
0
 10
108.500000
 20
513.096199
 42
0.000000
  0
VERTEX
  8
0
 10
114.000000
 20
515.948766
 42
0.016205
  0
VERTEX
  8
0
 10
116.277638
 20
517.225358
 42
0.014189
  0
VERTEX
  8
0
 10
118.573070
 20
518.701986
 42
0.014406
  0
VERTEX
  8
0
 10
120.570421
 20
520.154709
 42
0.040699
  0
VERTEX
  8
0
 10
121.844492
 20
521.315700
 42
0.000000
  0
VERTEX
  8
0
 10
124.188984
 20
523.830067
 42
0.000000
  0
VERTEX
  8
0
 10
121.388471
 20
525.665033
 42
0.119530
  0
VERTEX
  8
0
 10
117.297557
 20
527.121856
 42
0.025679
  0
VERTEX
  8
0
 10
109.725116
 20
527.522292
 42
0.027715
  0
VERTEX
  8
0
 10
101.564352
 20
527.081741
 42
0.046142
  0
VERTEX
  8
0
 10
94.824308
 20
525.704465
 42
0.062855
  0
VERTEX
  8
0
 10
86.155054
 20
521.839972
 42
0.034194
  0
VERTEX
  8
0
 10
76.606112
 20
515.119949
 42
0.032834
  0
VERTEX
  8
0
 10
67.466159
 20
506.652197
 42
0.037869
  0
VERTEX
  8
0
 10
59.976876
 20
497.432604
 42
0.022047
  0
VERTEX
  8
0
 10
56.762511
 20
492.333086
 42
0.018677
  0
VERTEX
  8
0
 10
53.814701
 20
486.684448
 42
0.016874
  0
VERTEX
  8
0
 10
51.563358
 20
481.502991
 42
0.094314
  0
VERTEX
  8
0
 10
51.000000
 20
478.542962
 42
0.137864
  0
VERTEX
  8
0
 10
51.499632
 20
476.765360
 42
0.447485
  0
VERTEX
  8
0
 10
52.561385
 20
476.570756
 42
0.088462
  0
VERTEX
  8
0
 10
54.409574
 20
478.619063
 42
0.013819
  0
VERTEX
  8
0
 10
57.173689
 20
483.336831
 42
-0.008476
  0
VERTEX
  8
0
 10
58.839099
 20
486.250267
 42
-0.005922
  0
VERTEX
  8
0
 10
60.810861
 20
489.480083
 42
-0.005976
  0
VERTEX
  8
0
 10
62.775175
 20
492.531969
 42
-0.012347
  0
VERTEX
  8
0
 10
64.396754
 20
494.859351
 42
-0.032437
  0
VERTEX
  8
0
 10
69.411704
 20
500.836589
 42
-0.019297
  0
VERTEX
  8
0
 10
76.090324
 20
507.303291
 42
-0.019098
  0
VERTEX
  8
0
 10
82.941171
 20
512.986380
 42
-0.050765
  0
VERTEX
  8
0
 10
88.345007
 20
516.320838
 42
-0.034070
  0
VERTEX
  8
0
 10
93.600007
 20
518.439941
 42
-0.018330
  0
VERTEX
  8
0
 10
100.320295
 20
520.361762
 42
-0.016351
  0
VERTEX
  8
0
 10
106.766542
 20
521.730219
 42
-0.083544
  0
VERTEX
  8
0
 10
110.415544
 20
521.765910
 42
-0.097106
  0
VERTEX
  8
0
 10
111.200598
 20
521.478876
 42
-0.460227
  0
VERTEX
  8
0
 10
111.268963
 20
521.065789
 42
-0.089361
  0
VERTEX
  8
0
 10
110.503459
 20
520.428946
 42
-0.007714
  0
VERTEX
  8
0
 10
108.264625
 20
519.205190
 42
0.058468
  0
VERTEX
  8
0
 10
103.870798
 20
516.188828
 42
0.134128
  0
VERTEX
  8
0
 10
101.669886
 20
512.871083
 42
0.240284
  0
VERTEX
  8
0
 10
102.092447
 20
510.123007
 42
0.176987
  0
VERTEX
  8
0
 10
104.683517
 20
508.364584
 42
-0.027685
  0
VERTEX
  8
0
 10
105.789493
 20
508.020939
 42
-0.132361
  0
VERTEX
  8
0
 10
106.322709
 20
507.640427
 42
-0.261222
  0
VERTEX
  8
0
 10
106.401823
 20
507.197556
 42
-0.113267
  0
VERTEX
  8
0
 10
106.073216
 20
506.673216
 42
0.162834
  0
VERTEX
  8
0
 10
104.972386
 20
504.465578
 42
0.135736
  0
VERTEX
  8
0
 10
105.314079
 20
501.853882
 42
0.134826
  0
VERTEX
  8
0
 10
106.952983
 20
499.776488
 42
0.160049
  0
VERTEX
  8
0
 10
109.316631
 20
499.000000
 42
-0.057636
  0
VERTEX
  8
0
 10
110.246817
 20
498.892419
 42
-0.211295
  0
VERTEX
  8
0
 10
110.709188
 20
498.543285
 42
-0.166481
  0
VERTEX
  8
0
 10
110.824850
 20
497.899052
 42
-0.033805
  0
VERTEX
  8
0
 10
110.568046
 20
496.750000
 42
0.007127
  0
VERTEX
  8
0
 10
110.212276
 20
495.480374
 42
0.001446
  0
VERTEX
  8
0
 10
109.620027
 20
493.218246
 42
0.001525
  0
VERTEX
  8
0
 10
108.946931
 20
490.583527
 42
0.001428
  0
VERTEX
  8
0
 10
108.274879
 20
487.886584
 42
0.000000
  0
VERTEX
  8
0
 10
106.646928
 20
481.273167
 42
0.000000
  0
VERTEX
  8
0
 10
98.073464
 20
480.688541
 42
0.023423
  0
VERTEX
  8
0
 10
90.338899
 20
479.795741
 42
0.034204
  0
VERTEX
  8
0
 10
83.663868
 20
478.231843
 42
0.027508
  0
VERTEX
  8
0
 10
76.284248
 20
475.508557
 42
0.009651
  0
VERTEX
  8
0
 10
66.000000
 20
470.818988
 42
-0.016036
  0
VERTEX
  8
0
 10
56.008671
 20
466.416207
 42
-0.050088
  0
VERTEX
  8
0
 10
48.961939
 20
464.367767
 42
-0.080451
  0
VERTEX
  8
0
 10
43.757750
 20
464.251963
 42
-0.133726
  0
VERTEX
  8
0
 10
39.750000
 20
465.966205
 42
-0.115392
  0
VERTEX
  8
0
 10
37.795639
 20
468.428123
 42
-0.102103
  0
VERTEX
  8
0
 10
37.023370
 20
471.615595
 42
-0.081885
  0
VERTEX
  8
0
 10
37.520515
 20
475.441926
 42
-0.047150
  0
VERTEX
  8
0
 10
39.278170
 20
479.756644
 42
-0.030868
  0
VERTEX
  8
0
 10
42.617104
 20
485.291832
 42
-0.002543
  0
VERTEX
  8
0
 10
52.264919
 20
499.107902
 42
-0.003598
  0
VERTEX
  8
0
 10
62.086001
 20
512.810406
 42
-0.012442
  0
VERTEX
  8
0
 10
68.727613
 20
521.475774
 42
-0.027488
  0
VERTEX
  8
0
 10
73.333962
 20
526.583879
 42
-0.020530
  0
VERTEX
  8
0
 10
78.930104
 20
531.703791
 42
-0.020904
  0
VERTEX
  8
0
 10
84.649818
 20
536.125779
 42
-0.041396
  0
VERTEX
  8
0
 10
89.584534
 20
539.040922
 42
-0.050346
  0
VERTEX
  8
0
 10
95.411688
 20
541.169541
 42
-0.025298
  0
VERTEX
  8
0
 10
103.098697
 20
542.720107
 42
-0.021983
  0
VERTEX
  8
0
 10
112.282292
 20
543.683273
 42
-0.015135
  0
VERTEX
  8
0
 10
122.742956
 20
544.000000
 42
-0.002095
  0
VERTEX
  8
0
 10
131.263174
 20
543.964305
 42
-0.034001
  0
VERTEX
  8
0
 10
134.118237
 20
543.745881
 42
-0.251986
  0
VERTEX
  8
0
 10
134.910659
 20
543.158316
 42
-0.297423
  0
VERTEX
  8
0
 10
134.783487
 20
542.250000
 42
0.028874
  0
VERTEX
  8
0
 10
132.925083
 20
539.853268
 42
0.068625
  0
VERTEX
  8
0
 10
131.916231
 20
537.841298
 42
0.110049
  0
VERTEX
  8
0
 10
131.743693
 20
536.257871
 42
0.194237
  0
VERTEX
  8
0
 10
132.358345
 20
535.117563
 42
0.232014
  0
VERTEX
  8
0
 10
133.357564
 20
534.876463
 42
0.069160
  0
VERTEX
  8
0
 10
134.869464
 20
535.440887
 42
0.036488
  0
VERTEX
  8
0
 10
137.092252
 20
536.860428
 42
0.008558
  0
VERTEX
  8
0
 10
140.587331
 20
539.564024
 42
-0.027392
  0
VERTEX
  8
0
 10
151.311865
 20
547.232417
 42
-0.023383
  0
VERTEX
  8
0
 10
163.380320
 20
554.129802
 42
-0.023843
  0
VERTEX
  8
0
 10
175.721539
 20
559.712001
 42
-0.033276
  0
VERTEX
  8
0
 10
187.253463
 20
563.413364
 42
-0.025160
  0
VERTEX
  8
0
 10
200.067864
 20
565.927614
 42
-0.019514
  0
VERTEX
  8
0
 10
214.208441
 20
567.409466
 42
-0.019502
  0
VERTEX
  8
0
 10
228.432759
 20
567.784955
 42
-0.025009
  0
VERTEX
  8
0
 10
241.500000
 20
566.965667
 42
-0.003903
  0
VERTEX
  8
0
 10
250.752627
 20
565.845953
 42
-0.159622
  0
VERTEX
  8
0
 10
252.556634
 20
564.986038
 42
-0.371922
  0
VERTEX
  8
0
 10
252.696521
 20
563.552512
 42
-0.017180
  0
VERTEX
  8
0
 10
249.500038
 20
559.340932
 42
0.031536
  0
VERTEX
  8
0
 10
246.724251
 20
555.457097
 42
0.067648
  0
VERTEX
  8
0
 10
245.217766
 20
552.105140
 42
0.143434
  0
VERTEX
  8
0
 10
245.212603
 20
549.925216
 42
0.333677
  0
VERTEX
  8
0
 10
246.444635
 20
549.000000
 42
0.172829
  0
VERTEX
  8
0
 10
247.319065
 20
549.311560
 42
0.008155
  0
VERTEX
  8
0
 10
249.744266
 20
551.357860
 42
0.012621
  0
VERTEX
  8
0
 10
252.570861
 20
553.951340
 42
0.008667
  0
VERTEX
  8
0
 10
255.648787
 20
557.026758
 42
-0.029490
  0
VERTEX
  8
0
 10
265.942439
 20
566.489460
 42
-0.070628
  0
VERTEX
  8
0
 10
274.798784
 20
571.838987
 42
-0.093637
  0
VERTEX
  8
0
 10
283.135882
 20
573.665100
 42
-0.089274
  0
SEQEND
  0
POLYLINE
  8
0
 66
1
 70
1
  0
VERTEX
  8
0
 10
143.000000
 20
442.732135
 42
-0.101043
  0
VERTEX
  8
0
 10
142.855937
 20
442.026538
 42
-0.016395
  0
VERTEX
  8
0
 10
142.262389
 20
440.751212
 42
-0.017508
  0
VERTEX
  8
0
 10
141.450358
 20
439.276717
 42
-0.014611
  0
VERTEX
  8
0
 10
140.488983
 20
437.768975
 42
-0.111418
  0
VERTEX
  8
0
 10
136.382409
 20
433.927710
 42
-0.111093
  0
VERTEX
  8
0
 10
131.019896
 20
432.216861
 42
-0.105971
  0
VERTEX
  8
0
 10
125.234816
 20
432.935571
 42
-0.093400
  0
VERTEX
  8
0
 10
119.953729
 20
435.966453
 42
0.000000
  0
VERTEX
  8
0
 10
116.500000
 20
438.918719
 42
0.000000
  0
VERTEX
  8
0
 10
119.250000
 20
438.959359
 42
-0.061677
  0
VERTEX
  8
0
 10
120.449265
 20
438.828824
 42
-0.039925
  0
VERTEX
  8
0
 10
121.779688
 20
438.400562
 42
-0.039778
  0
VERTEX
  8
0
 10
123.032842
 20
437.762824
 42
-0.058852
  0
VERTEX
  8
0
 10
124.000000
 20
437.000000
 42
0.161612
  0
VERTEX
  8
0
 10
127.415337
 20
435.286786
 42
0.102031
  0
VERTEX
  8
0
 10
131.907640
 20
435.551535
 42
0.111793
  0
VERTEX
  8
0
 10
135.628657
 20
437.511901
 42
0.219227
  0
VERTEX
  8
0
 10
137.000000
 20
440.489265
 42
-0.168743
  0
VERTEX
  8
0
 10
137.392152
 20
441.618156
 42
-0.067549
  0
VERTEX
  8
0
 10
138.585847
 20
442.769246
 42
-0.063381
  0
VERTEX
  8
0
 10
140.169782
 20
443.646406
 42
-0.088941
  0
VERTEX
  8
0
 10
141.750000
 20
443.969591
 42
-0.101065
  0
VERTEX
  8
0
 10
142.226972
 20
443.884214
 42
-0.100786
  0
VERTEX
  8
0
 10
142.632812
 20
443.618632
 42
-0.100074
  0
VERTEX
  8
0
 10
142.904526
 20
443.213659
 42
-0.098182
  0
SEQEND
  0
POLYLINE
  8
0
 66
1
 70
1
  0
VERTEX
  8
0
 10
192.192211
 20
298.308012
 42
0.034164
  0
VERTEX
  8
0
 10
191.258916
 20
293.387719
 42
0.082336
  0
VERTEX
  8
0
 10
191.425653
 20
289.697024
 42
0.131915
  0
VERTEX
  8
0
 10
192.641044
 20
287.314778
 42
0.175360
  0
VERTEX
  8
0
 10
194.770124
 20
286.180449
 42
-0.090225
  0
VERTEX
  8
0
 10
195.963325
 20
285.781989
 42
-0.168541
  0
VERTEX
  8
0
 10
196.638051
 20
285.034965
 42
-0.083550
  0
VERTEX
  8
0
 10
196.971924
 20
283.633879
 42
-0.011996
  0
VERTEX
  8
0
 10
197.099680
 20
280.680449
 42
0.011147
  0
VERTEX
  8
0
 10
197.189719
 20
278.513721
 42
0.010193
  0
VERTEX
  8
0
 10
197.377643
 20
276.287382
 42
0.010255
  0
VERTEX
  8
0
 10
197.626763
 20
274.306486
 42
0.032472
  0
VERTEX
  8
0
 10
197.905961
 20
273.000000
 42
-0.092778
  0
VERTEX
  8
0
 10
198.041922
 20
271.500608
 42
-0.152606
  0
VERTEX
  8
0
 10
197.553112
 20
270.336264
 42
-0.071753
  0
VERTEX
  8
0
 10
196.166948
 20
269.102760
 42
-0.009553
  0
VERTEX
  8
0
 10
192.848670
 20
267.000000
 42
0.059801
  0
VERTEX
  8
0
 10
179.242882
 20
256.327150
 42
0.039327
  0
VERTEX
  8
0
 10
166.291867
 20
241.184571
 42
0.038775
  0
VERTEX
  8
0
 10
155.637230
 20
223.861766
 42
0.051216
  0
VERTEX
  8
0
 10
148.913375
 20
206.606436
 42
-0.008576
  0
VERTEX
  8
0
 10
147.961717
 20
203.374678
 42
-0.015607
  0
VERTEX
  8
0
 10
147.057597
 20
200.775348
 42
-0.011445
  0
VERTEX
  8
0
 10
146.260011
 20
198.828577
 42
-0.548679
  0
VERTEX
  8
0
 10
145.911920
 20
198.774040
 42
-0.118828
  0
VERTEX
  8
0
 10
145.015604
 20
200.470751
 42
-0.012793
  0
VERTEX
  8
0
 10
144.022435
 20
204.832680
 42
-0.016885
  0
VERTEX
  8
0
 10
143.251832
 20
209.474249
 42
-0.033559
  0
VERTEX
  8
0
 10
143.014781
 20
213.192820
 42
-0.066013
  0
VERTEX
  8
0
 10
144.464925
 20
223.847962
 42
-0.037338
  0
VERTEX
  8
0
 10
148.839466
 20
236.146343
 42
-0.034588
  0
VERTEX
  8
0
 10
155.548537
 20
248.860982
 42
-0.032414
  0
VERTEX
  8
0
 10
164.078875
 20
260.822741
 42
0.004999
  0
VERTEX
  8
0
 10
176.776827
 20
276.709725
 42
0.019311
  0
VERTEX
  8
0
 10
184.168441
 20
286.940063
 42
0.030029
  0
VERTEX
  8
0
 10
188.914489
 20
295.095828
 42
0.034587
  0
VERTEX
  8
0
 10
192.401400
 20
303.393128
 42
-0.068175
  0
VERTEX
  8
0
 10
193.066274
 20
304.718949
 42
-0.753024
  0
VERTEX
  8
0
 10
193.405409
 20
304.606171
 42
-0.041897
  0
VERTEX
  8
0
 10
193.093167
 20
302.118443
 42
-0.011788
  0
SEQEND
  0
POLYLINE
  8
0
 66
1
 70
1
  0
VERTEX
  8
0
 10
137.272294
 20
209.582680
 42
0.031750
  0
VERTEX
  8
0
 10
138.020075
 20
204.236290
 42
0.029481
  0
VERTEX
  8
0
 10
139.450183
 20
198.890278
 42
0.030979
  0
VERTEX
  8
0
 10
141.326198
 20
194.224138
 42
0.069161
  0
VERTEX
  8
0
 10
143.425157
 20
191.036536
 42
-0.086294
  0
VERTEX
  8
0
 10
143.932850
 20
190.205208
 42
-0.047865
  0
VERTEX
  8
0
 10
144.262733
 20
189.059875
 42
-0.043830
  0
VERTEX
  8
0
 10
144.391154
 20
187.742452
 42
-0.040690
  0
VERTEX
  8
0
 10
144.293844
 20
186.388865
 42
-0.056970
  0
VERTEX
  8
0
 10
143.778705
 20
184.504986
 42
-0.190644
  0
VERTEX
  8
0
 10
142.914979
 20
183.591679
 42
-0.082428
  0
VERTEX
  8
0
 10
141.207673
 20
183.115413
 42
-0.005807
  0
VERTEX
  8
0
 10
136.256004
 20
182.638865
 42
-0.005486
  0
VERTEX
  8
0
 10
126.671223
 20
181.934476
 42
-0.056618
  0
VERTEX
  8
0
 10
122.717990
 20
182.135190
 42
-0.139476
  0
VERTEX
  8
0
 10
120.398456
 20
183.230041
 42
-0.089897
  0
VERTEX
  8
0
 10
118.532791
 20
185.568970
 42
0.041907
  0
VERTEX
  8
0
 10
116.858840
 20
188.136474
 42
0.067103
  0
VERTEX
  8
0
 10
114.992872
 20
189.965003
 42
0.157245
  0
VERTEX
  8
0
 10
113.610680
 20
190.437395
 42
0.393286
  0
VERTEX
  8
0
 10
112.884846
 20
189.785184
 42
0.034089
  0
VERTEX
  8
0
 10
112.844913
 20
187.902772
 42
0.035875
  0
VERTEX
  8
0
 10
113.064032
 20
186.064859
 42
0.038605
  0
VERTEX
  8
0
 10
113.489766
 20
184.511796
 42
0.105669
  0
VERTEX
  8
0
 10
114.086459
 20
183.550000
 42
-0.295634
  0
VERTEX
  8
0
 10
114.349990
 20
182.186661
 42
-0.251521
  0
VERTEX
  8
0
 10
113.204272
 20
181.233276
 42
-0.023192
  0
VERTEX
  8
0
 10
108.627953
 20
180.518994
 42
-0.000647
  0
VERTEX
  8
0
 10
88.734105
 20
178.378920
 42
0.000000
  0
VERTEX
  8
0
 10
72.968210
 20
176.703555
 42
0.000000
  0
VERTEX
  8
0
 10
69.568455
 20
180.601778
 42
0.013518
  0
VERTEX
  8
0
 10
67.764331
 20
182.560894
 42
0.069633
  0
VERTEX
  8
0
 10
66.602267
 20
183.463683
 42
0.157434
  0
VERTEX
  8
0
 10
65.713794
 20
183.652255
 42
0.168668
  0
VERTEX
  8
0
 10
64.911475
 20
183.277126
 42
0.078397
  0
VERTEX
  8
0
 10
64.348626
 20
182.525522
 42
0.122693
  0
VERTEX
  8
0
 10
64.155894
 20
181.745170
 42
0.083885
  0
VERTEX
  8
0
 10
64.324997
 20
180.756537
 42
0.022689
  0
VERTEX
  8
0
 10
64.919595
 20
179.277126
 42
-0.001650
  0
VERTEX
  8
0
 10
65.415724
 20
178.178646
 42
-0.002188
  0
VERTEX
  8
0
 10
65.859518
 20
177.175583
 42
-0.001557
  0
VERTEX
  8
0
 10
66.225204
 20
176.332042
 42
-0.021787
  0
VERTEX
  8
0
 10
66.342469
 20
176.022733
 42
-0.432417
  0
VERTEX
  8
0
 10
66.222057
 20
175.800985
 42
-0.005299
  0
VERTEX
  8
0
 10
64.470913
 20
175.360433
 42
-0.011514
  0
VERTEX
  8
0
 10
62.327145
 20
174.897137
 42
-0.006809
  0
VERTEX
  8
0
 10
59.750000
 20
174.438298
 42
-0.009282
  0
VERTEX
  8
0
 10
57.161534
 20
174.062927
 42
-0.015759
  0
VERTEX
  8
0
 10
54.982813
 20
173.857669
 42
-0.009751
  0
VERTEX
  8
0
 10
53.239176
 20
173.782793
 42
-0.421088
  0
VERTEX
  8
0
 10
53.000000
 20
174.016434
 42
-0.148209
  0
VERTEX
  8
0
 10
53.138992
 20
174.475040
 42
-0.003176
  0
VERTEX
  8
0
 10
54.471611
 20
176.444383
 42
-0.007031
  0
VERTEX
  8
0
 10
56.089871
 20
178.733740
 42
-0.004650
  0
VERTEX
  8
0
 10
58.009739
 20
181.319451
 42
0.009133
  0
VERTEX
  8
0
 10
60.561770
 20
184.821745
 42
0.002719
  0
VERTEX
  8
0
 10
64.331704
 20
190.261816
 42
0.002726
  0
VERTEX
  8
0
 10
68.500634
 20
196.419811
 42
0.002943
  0
VERTEX
  8
0
 10
72.496369
 20
202.468583
 42
0.000000
  0
VERTEX
  8
0
 10
81.973260
 20
217.000000
 42
0.000000
  0
VERTEX
  8
0
 10
109.342292
 20
217.000000
 42
0.000000
  0
VERTEX
  8
0
 10
136.711323
 20
217.000000
 42
0.000000
  0
SEQEND
  0
POLYLINE
  8
0
 66
1
 70
1
  0
VERTEX
  8
0
 10
147.060485
 20
152.500000
 42
0.029663
  0
VERTEX
  8
0
 10
149.472738
 20
145.224923
 42
0.015955
  0
VERTEX
  8
0
 10
153.253507
 20
136.558969
 42
0.015952
  0
VERTEX
  8
0
 10
157.543955
 20
128.220140
 42
0.032105
  0
VERTEX
  8
0
 10
161.542116
 20
122.000000
 42
0.016924
  0
VERTEX
  8
0
 10
163.236757
 20
119.857968
 42
0.006973
  0
VERTEX
  8
0
 10
165.668982
 20
117.068570
 42
0.006889
  0
VERTEX
  8
0
 10
168.363575
 20
114.145944
 42
0.008793
  0
VERTEX
  8
0
 10
170.930490
 20
111.531303
 42
-0.005344
  0
VERTEX
  8
0
 10
173.256645
 20
109.194363
 42
-0.008186
  0
VERTEX
  8
0
 10
175.217081
 20
107.115246
 42
-0.003654
  0
VERTEX
  8
0
 10
176.834113
 20
105.316860
 42
-0.183272
  0
VERTEX
  8
0
 10
177.000000
 20
104.879490
 42
-0.339467
  0
VERTEX
  8
0
 10
176.771395
 20
104.581580
 42
-0.010344
  0
VERTEX
  8
0
 10
175.164062
 20
104.186420
 42
-0.016426
  0
VERTEX
  8
0
 10
173.146035
 20
103.803477
 42
-0.010116
  0
VERTEX
  8
0
 10
170.750000
 20
103.479371
 42
0.025400
  0
VERTEX
  8
0
 10
164.774177
 20
102.484253
 42
0.019107
  0
VERTEX
  8
0
 10
158.323927
 20
100.809667
 42
0.017370
  0
VERTEX
  8
0
 10
151.387640
 20
98.457403
 42
0.013137
  0
VERTEX
  8
0
 10
143.943629
 20
95.415229
 42
-0.074650
  0
VERTEX
  8
0
 10
132.246745
 20
92.238264
 42
-0.133765
  0
VERTEX
  8
0
 10
122.471551
 20
93.713305
 42
-0.106927
  0
VERTEX
  8
0
 10
113.337689
 20
100.355649
 42
-0.037421
  0
VERTEX
  8
0
 10
103.402425
 20
113.312018
 42
0.009938
  0
VERTEX
  8
0
 10
100.431158
 20
117.662093
 42
0.007565
  0
VERTEX
  8
0
 10
97.011369
 20
122.310716
 42
0.007657
  0
VERTEX
  8
0
 10
93.671453
 20
126.572623
 42
0.017742
  0
VERTEX
  8
0
 10
91.006062
 20
129.639354
 42
-0.023845
  0
VERTEX
  8
0
 10
87.381267
 20
133.914189
 42
-0.060144
  0
VERTEX
  8
0
 10
85.302922
 20
137.417257
 42
-0.085577
  0
VERTEX
  8
0
 10
84.536914
 20
140.486315
 42
-0.107453
  0
VERTEX
  8
0
 10
84.945685
 20
143.382209
 42
-0.010569
  0
VERTEX
  8
0
 10
85.424392
 20
144.596752
 42
-0.403664
  0
VERTEX
  8
0
 10
85.670225
 20
144.702691
 42
-0.239753
  0
VERTEX
  8
0
 10
85.901918
 20
144.448812
 42
-0.005804
  0
VERTEX
  8
0
 10
86.319147
 20
142.864554
 42
0.080240
  0
VERTEX
  8
0
 10
87.298225
 20
140.587268
 42
0.033634
  0
VERTEX
  8
0
 10
89.279556
 20
137.889244
 42
0.029915
  0
VERTEX
  8
0
 10
91.474409
 20
135.582154
 42
0.189861
  0
VERTEX
  8
0
 10
92.952251
 20
135.000000
 42
0.331754
  0
VERTEX
  8
0
 10
93.761808
 20
135.603576
 42
0.104653
  0
VERTEX
  8
0
 10
93.891500
 20
137.202462
 42
0.050153
  0
VERTEX
  8
0
 10
93.272382
 20
139.872729
 42
0.016219
  0
VERTEX
  8
0
 10
91.839245
 20
143.674557
 42
-0.016744
  0
VERTEX
  8
0
 10
90.795578
 20
146.452028
 42
-0.045665
  0
VERTEX
  8
0
 10
90.307867
 20
148.491878
 42
-0.058776
  0
VERTEX
  8
0
 10
90.261648
 20
150.268929
 42
-0.047006
  0
VERTEX
  8
0
 10
90.614894
 20
152.152812
 42
-0.100947
  0
VERTEX
  8
0
 10
91.954722
 20
154.723170
 42
-0.066477
  0
VERTEX
  8
0
 10
94.388139
 20
157.019004
 42
-0.070607
  0
VERTEX
  8
0
 10
97.124263
 20
158.452426
 42
-0.178872
  0
VERTEX
  8
0
 10
99.334857
 20
158.424998
 42
-0.054245
  0
VERTEX
  8
0
 10
100.175001
 20
157.993157
 42
-0.252074
  0
VERTEX
  8
0
 10
100.424731
 20
157.529173
 42
-0.132981
  0
VERTEX
  8
0
 10
100.241339
 20
156.852085
 42
-0.012781
  0
VERTEX
  8
0
 10
99.334560
 20
155.387850
 42
0.146984
  0
VERTEX
  8
0
 10
98.053166
 20
151.064838
 42
0.071870
  0
VERTEX
  8
0
 10
98.904201
 20
145.325515
 42
0.074544
  0
VERTEX
  8
0
 10
101.266443
 20
140.301469
 42
0.199740
  0
VERTEX
  8
0
 10
104.491564
 20
138.150564
 42
0.065225
  0
VERTEX
  8
0
 10
105.392371
 20
138.093175
 42
0.284048
  0
VERTEX
  8
0
 10
105.808631
 20
138.390447
 42
0.146096
  0
VERTEX
  8
0
 10
105.883964
 20
139.091929
 42
0.017002
  0
VERTEX
  8
0
 10
105.540069
 20
140.650564
 42
-0.031504
  0
VERTEX
  8
0
 10
104.202745
 20
147.673365
 42
-0.104923
  0
VERTEX
  8
0
 10
104.594120
 20
152.327518
 42
-0.182085
  0
VERTEX
  8
0
 10
106.629127
 20
154.986748
 42
-0.140253
  0
VERTEX
  8
0
 10
110.170299
 20
156.000000
 42
-0.079395
  0
VERTEX
  8
0
 10
113.919549
 20
155.400878
 42
-0.061421
  0
VERTEX
  8
0
 10
117.668391
 20
153.637806
 42
-0.047365
  0
VERTEX
  8
0
 10
121.681908
 20
150.542444
 42
-0.022243
  0
VERTEX
  8
0
 10
126.270910
 20
145.854225
 42
0.006845
  0
VERTEX
  8
0
 10
128.688220
 20
143.227554
 42
0.010332
  0
VERTEX
  8
0
 10
130.870997
 20
141.013428
 42
0.005471
  0
VERTEX
  8
0
 10
132.754532
 20
139.219912
 42
0.189723
  0
VERTEX
  8
0
 10
133.313231
 20
139.000000
 42
0.341800
  0
VERTEX
  8
0
 10
133.622020
 20
139.239011
 42
0.046370
  0
VERTEX
  8
0
 10
133.761853
 20
140.101562
 42
0.037772
  0
VERTEX
  8
0
 10
133.752813
 20
141.312257
 42
0.022169
  0
VERTEX
  8
0
 10
133.568787
 20
142.750000
 42
-0.006145
  0
VERTEX
  8
0
 10
133.314487
 20
144.332383
 42
-0.005442
  0
VERTEX
  8
0
 10
133.087919
 20
145.985938
 42
-0.005471
  0
VERTEX
  8
0
 10
132.916381
 20
147.479580
 42
-0.016586
  0
VERTEX
  8
0
 10
132.844594
 20
148.500000
 42
-0.072069
  0
VERTEX
  8
0
 10
133.257708
 20
152.352577
 42
-0.023321
  0
VERTEX
  8
0
 10
134.942190
 20
157.849699
 42
-0.023821
  0
VERTEX
  8
0
 10
137.264455
 20
163.473412
 42
-0.039260
  0
VERTEX
  8
0
 10
139.808443
 20
167.940103
 42
0.000000
  0
VERTEX
  8
0
 10
143.500000
 20
173.380207
 42
0.000000
  0
VERTEX
  8
0
 10
144.212466
 20
166.940103
 42
0.014258
  0
VERTEX
  8
0
 10
144.636267
 20
163.904105
 42
0.006880
  0
VERTEX
  8
0
 10
145.342964
 20
160.041780
 42
0.006816
  0
VERTEX
  8
0
 10
146.190535
 20
156.033060
 42
0.009717
  0
SEQEND
  0
POLYLINE
  8
0
 66
1
 70
1
  0
VERTEX
  8
0
 10
569.142315
 20
163.893346
 42
-0.029368
  0
VERTEX
  8
0
 10
577.085032
 20
161.181195
 42
-0.032037
  0
VERTEX
  8
0
 10
584.419275
 20
157.621852
 42
-0.032701
  0
VERTEX
  8
0
 10
591.102670
 20
153.231104
 42
-0.033456
  0
VERTEX
  8
0
 10
597.102643
 20
148.037097
 42
-0.022615
  0
VERTEX
  8
0
 10
601.049434
 20
143.759223
 42
-0.022203
  0
VERTEX
  8
0
 10
604.619318
 20
139.116917
 42
-0.019802
  0
VERTEX
  8
0
 10
607.349111
 20
134.872515
 42
-0.133776
  0
VERTEX
  8
0
 10
608.000000
 20
132.483302
 42
-0.490600
  0
VERTEX
  8
0
 10
607.829778
 20
132.351574
 42
-0.029848
  0
VERTEX
  8
0
 10
607.121632
 20
132.580977
 42
-0.026227
  0
VERTEX
  8
0
 10
606.157247
 20
133.017906
 42
-0.013932
  0
VERTEX
  8
0
 10
605.009812
 20
133.653276
 42
0.021966
  0
VERTEX
  8
0
 10
603.477728
 20
134.469760
 42
0.076267
  0
VERTEX
  8
0
 10
602.406243
 20
134.793563
 42
0.122196
  0
VERTEX
  8
0
 10
601.575626
 20
134.708585
 42
0.110511
  0
VERTEX
  8
0
 10
600.845379
 20
134.245379
 42
0.187882
  0
VERTEX
  8
0
 10
600.438347
 20
133.318942
 42
0.069663
  0
VERTEX
  8
0
 10
600.578084
 20
131.876468
 42
0.038297
  0
VERTEX
  8
0
 10
601.277260
 20
129.710420
 42
0.009501
  0
VERTEX
  8
0
 10
602.756811
 20
126.285567
 42
-0.015408
  0
VERTEX
  8
0
 10
605.451478
 20
119.839901
 42
-0.035165
  0
VERTEX
  8
0
 10
606.982597
 20
114.798625
 42
-0.037043
  0
VERTEX
  8
0
 10
607.747438
 20
109.755420
 42
-0.018946
  0
VERTEX
  8
0
 10
607.994423
 20
103.355335
 42
-0.050762
  0
VERTEX
  8
0
 10
606.806100
 20
91.600800
 42
-0.057213
  0
VERTEX
  8
0
 10
603.274238
 20
80.816515
 42
-0.052808
  0
VERTEX
  8
0
 10
597.105529
 20
70.438969
 42
-0.034546
  0
VERTEX
  8
0
 10
588.014550
 20
59.881414
 42
-0.008714
  0
VERTEX
  8
0
 10
582.734811
 20
54.726796
 42
-0.025154
  0
VERTEX
  8
0
 10
578.844051
 20
51.411680
 42
-0.031643
  0
VERTEX
  8
0
 10
575.176578
 20
48.944824
 42
-0.022317
  0
VERTEX
  8
0
 10
570.778451
 20
46.631414
 42
-0.005627
  0
VERTEX
  8
0
 10
564.648451
 20
43.832307
 42
-0.072396
  0
VERTEX
  8
0
 10
562.228618
 20
43.155935
 42
-0.733068
  0
VERTEX
  8
0
 10
561.977612
 20
43.697996
 42
-0.027646
  0
VERTEX
  8
0
 10
564.599962
 20
45.836113
 42
0.030338
  0
VERTEX
  8
0
 10
568.608019
 20
49.140114
 42
0.026788
  0
VERTEX
  8
0
 10
572.366621
 20
53.038305
 42
0.024144
  0
VERTEX
  8
0
 10
575.283988
 20
56.756226
 42
0.155498
  0
VERTEX
  8
0
 10
576.000000
 20
59.002881
 42
0.027743
  0
VERTEX
  8
0
 10
575.957509
 20
59.768099
 42
0.043585
  0
VERTEX
  8
0
 10
575.828015
 20
60.413346
 42
0.054017
  0
VERTEX
  8
0
 10
575.640183
 20
60.866294
 42
0.274005
  0
VERTEX
  8
0
 10
575.414518
 20
61.000000
 42
0.140345
  0
VERTEX
  8
0
 10
575.002527
 20
60.882035
 42
0.001414
  0
VERTEX
  8
0
 10
572.400460
 20
59.248622
 42
0.004462
  0
VERTEX
  8
0
 10
569.411640
 20
57.323103
 42
0.002863
  0
VERTEX
  8
0
 10
565.976062
 20
55.037861
 42
-0.015737
  0
VERTEX
  8
0
 10
558.724500
 20
50.479164
 42
-0.019226
  0
VERTEX
  8
0
 10
551.660955
 20
46.699741
 42
-0.019502
  0
VERTEX
  8
0
 10
544.415558
 20
43.517405
 42
-0.017079
  0
VERTEX
  8
0
 10
536.619094
 20
40.753360
 42
-0.028121
  0
VERTEX
  8
0
 10
531.709009
 20
39.497939
 42
-0.030313
  0
VERTEX
  8
0
 10
526.810541
 20
38.840151
 42
-0.015485
  0
VERTEX
  8
0
 10
519.697893
 20
38.541869
 42
-0.002174
  0
VERTEX
  8
0
 10
505.000000
 20
38.444903
 42
0.002527
  0
VERTEX
  8
0
 10
491.906941
 20
38.349288
 42
0.011438
  0
VERTEX
  8
0
 10
484.274150
 20
38.080266
 42
0.019456
  0
VERTEX
  8
0
 10
479.210894
 20
37.587524
 42
0.046815
  0
VERTEX
  8
0
 10
475.546661
 20
36.731575
 42
-0.008559
  0
VERTEX
  8
0
 10
473.620891
 20
36.123336
 42
-0.013268
  0
VERTEX
  8
0
 10
471.937422
 20
35.671393
 42
-0.007493
  0
VERTEX
  8
0
 10
470.533308
 20
35.356294
 42
-0.252991
  0
VERTEX
  8
0
 10
470.215641
 20
35.451026
 42
-0.379493
  0
VERTEX
  8
0
 10
470.113363
 20
37.153879
 42
-0.029823
  0
VERTEX
  8
0
 10
473.380441
 20
40.841185
 42
-0.030171
  0
VERTEX
  8
0
 10
478.202834
 20
45.120483
 42
-0.020686
  0
VERTEX
  8
0
 10
484.141599
 20
49.397172
 42
0.012836
  0
VERTEX
  8
0
 10
488.369291
 20
52.342019
 42
0.113002
  0
VERTEX
  8
0
 10
489.847785
 20
54.056370
 42
0.405807
  0
VERTEX
  8
0
 10
489.526067
 20
55.156956
 42
0.098053
  0
VERTEX
  8
0
 10
487.537348
 20
55.815818
 42
0.123224
  0
VERTEX
  8
0
 10
484.589481
 20
55.458054
 42
0.031562
  0
VERTEX
  8
0
 10
480.187286
 20
53.443966
 42
0.031799
  0
VERTEX
  8
0
 10
475.553634
 20
50.566130
 42
0.037891
  0
VERTEX
  8
0
 10
471.603449
 20
47.271930
 42
-0.015852
  0
VERTEX
  8
0
 10
470.157783
 20
45.954193
 42
-0.025817
  0
VERTEX
  8
0
 10
468.842236
 20
44.941990
 42
-0.023608
  0
VERTEX
  8
0
 10
467.761976
 20
44.269258
 42
-0.335604
  0
VERTEX
  8
0
 10
467.338705
 20
44.327962
 42
-0.320686
  0
VERTEX
  8
0
 10
466.996284
 20
46.387572
 42
-0.013340
  0
VERTEX
  8
0
 10
470.654526
 20
53.370341
 42
-0.022149
  0
VERTEX
  8
0
 10
475.044533
 20
60.473914
 42
-0.039127
  0
VERTEX
  8
0
 10
479.354847
 20
65.847325
 42
-0.034624
  0
VERTEX
  8
0
 10
483.025751
 20
69.248709
 42
-0.014655
  0
VERTEX
  8
0
 10
488.379093
 20
73.308030
 42
-0.014208
  0
VERTEX
  8
0
 10
493.840761
 20
76.973276
 42
-0.046436
  0
VERTEX
  8
0
 10
497.716746
 20
78.941346
 42
0.096086
  0
VERTEX
  8
0
 10
500.535608
 20
80.742644
 42
0.162496
  0
VERTEX
  8
0
 10
501.837821
 20
83.193352
 42
0.259436
  0
VERTEX
  8
0
 10
501.140807
 20
85.154832
 42
0.182404
  0
VERTEX
  8
0
 10
498.901145
 20
86.000000
 42
0.064876
  0
VERTEX
  8
0
 10
497.873241
 20
85.866065
 42
0.017825
  0
VERTEX
  8
0
 10
496.308184
 20
85.390864
 42
0.017700
  0
VERTEX
  8
0
 10
494.557139
 20
84.720089
 42
0.017632
  0
VERTEX
  8
0
 10
492.855623
 20
83.926345
 42
-0.018186
  0
VERTEX
  8
0
 10
490.092205
 20
82.640960
 42
-0.588192
  0
VERTEX
  8
0
 10
489.624129
 20
83.007530
 42
-0.126497
  0
VERTEX
  8
0
 10
490.157885
 20
84.240237
 42
-0.003944
  0
VERTEX
  8
0
 10
493.594402
 20
88.594246
 42
-0.066611
  0
VERTEX
  8
0
 10
497.413279
 20
92.236389
 42
-0.030933
  0
VERTEX
  8
0
 10
503.203900
 20
95.922269
 42
-0.028540
  0
VERTEX
  8
0
 10
510.189410
 20
99.278877
 42
-0.025945
  0
VERTEX
  8
0
 10
517.735105
 20
101.939505
 42
0.014855
  0
VERTEX
  8
0
 10
520.917018
 20
102.982739
 42
0.028586
  0
VERTEX
  8
0
 10
523.383681
 20
104.036359
 42
0.035158
  0
VERTEX
  8
0
 10
525.148961
 20
105.073347
 42
0.120068
  0
VERTEX
  8
0
 10
526.031349
 20
106.058576
 42
0.079596
  0
VERTEX
  8
0
 10
526.637490
 20
107.813655
 42
0.221964
  0
VERTEX
  8
0
 10
526.306810
 20
109.041063
 42
0.144373
  0
VERTEX
  8
0
 10
524.974482
 20
109.921639
 42
0.029912
  0
VERTEX
  8
0
 10
522.214921
 20
110.589495
 42
-0.010054
  0
VERTEX
  8
0
 10
517.856801
 20
111.462724
 42
-0.346701
  0
VERTEX
  8
0
 10
517.235193
 20
112.222864
 42
-0.351926
  0
VERTEX
  8
0
 10
517.831367
 20
112.992978
 42
-0.010170
  0
VERTEX
  8
0
 10
522.154638
 20
113.936644
 42
0.022014
  0
VERTEX
  8
0
 10
534.486686
 20
116.936041
 42
0.037749
  0
VERTEX
  8
0
 10
544.393756
 20
120.643288
 42
0.046049
  0
VERTEX
  8
0
 10
552.014475
 20
125.063130
 42
0.075541
  0
VERTEX
  8
0
 10
557.366819
 20
130.236504
 42
0.067036
  0
VERTEX
  8
0
 10
558.924256
 20
132.970987
 42
0.048983
  0
VERTEX
  8
0
 10
559.911372
 20
136.328148
 42
0.056841
  0
VERTEX
  8
0
 10
560.121190
 20
139.138288
 42
0.402826
  0
VERTEX
  8
0
 10
559.225167
 20
140.000000
 42
0.177464
  0
VERTEX
  8
0
 10
558.755276
 20
139.827799
 42
0.007673
  0
VERTEX
  8
0
 10
557.411626
 20
138.654339
 42
0.012273
  0
VERTEX
  8
0
 10
555.847462
 20
137.174279
 42
0.008361
  0
VERTEX
  8
0
 10
554.139473
 20
135.419028
 42
-0.009509
  0
VERTEX
  8
0
 10
552.454146
 20
133.695001
 42
-0.015819
  0
VERTEX
  8
0
 10
550.962457
 20
132.316186
 42
-0.009645
  0
VERTEX
  8
0
 10
549.709156
 20
131.270845
 42
-0.382489
  0
VERTEX
  8
0
 10
549.377651
 20
131.289015
 42
-0.258947
  0
VERTEX
  8
0
 10
549.272686
 20
131.655929
 42
-0.010427
  0
VERTEX
  8
0
 10
549.626040
 20
133.045688
 42
-0.016013
  0
VERTEX
  8
0
 10
550.149529
 20
134.726922
 42
-0.010396
  0
VERTEX
  8
0
 10
550.856491
 20
136.635915
 42
0.028596
  0
VERTEX
  8
0
 10
552.221940
 20
140.780046
 42
0.006202
  0
VERTEX
  8
0
 10
554.077426
 20
148.086118
 42
0.006548
  0
VERTEX
  8
0
 10
555.982664
 20
156.479597
 42
0.006821
  0
VERTEX
  8
0
 10
557.640105
 20
164.806815
 42
-0.044165
  0
VERTEX
  8
0
 10
557.941041
 20
165.889533
 42
-0.143994
  0
VERTEX
  8
0
 10
558.384029
 20
166.477857
 42
-0.170333
  0
VERTEX
  8
0
 10
559.024271
 20
166.677276
 42
-0.068068
  0
VERTEX
  8
0
 10
559.941962
 20
166.518421
 42
0.006449
  0
VERTEX
  8
0
 10
561.070870
 20
166.176081
 42
0.000900
  0
VERTEX
  8
0
 10
563.418143
 20
165.501781
 42
0.001029
  0
VERTEX
  8
0
 10
566.200309
 20
164.714151
 42
0.000873
  0
SEQEND
  0
POLYLINE
  8
0
 66
1
 70
1
  0
VERTEX
  8
0
 10
0.000096
 20
276.866280
 42
0.375919
  0
VERTEX
  8
0
 10
0.867849
 20
275.875088
 42
0.016948
  0
VERTEX
  8
0
 10
5.743983
 20
275.392440
 42
0.010491
  0
VERTEX
  8
0
 10
14.504105
 20
275.008619
 42
0.001074
  0
VERTEX
  8
0
 10
35.250000
 20
274.580002
 42
0.005484
  0
VERTEX
  8
0
 10
69.783954
 20
274.319566
 42
0.004061
  0
VERTEX
  8
0
 10
107.966763
 20
274.760601
 42
0.000699
  0
VERTEX
  8
0
 10
146.288053
 20
275.568168
 42
0.193080
  0
VERTEX
  8
0
 10
149.222430
 20
276.822430
 42
0.643094
  0
VERTEX
  8
0
 10
148.831895
 20
277.867539
 42
0.012367
  0
VERTEX
  8
0
 10
141.248279
 20
278.212385
 42
0.004790
  0
VERTEX
  8
0
 10
125.750376
 20
278.384849
 42
0.000202
  0
VERTEX
  8
0
 10
70.750096
 20
278.447714
 42
0.000485
  0
VERTEX
  8
0
 10
28.196759
 20
278.437911
 42
0.005287
  0
VERTEX
  8
0
 10
11.068694
 20
278.236232
 42
0.005033
  0
VERTEX
  8
0
 10
1.000217
 20
277.909753
 42
0.401808
  0
SEQEND
  0
POLYLINE
  8
0
 66
1
 70
1
  0
VERTEX
  8
0
 10
6.405191
 20
204.371236
 42
0.009670
  0
VERTEX
  8
0
 10
3.114711
 20
200.694804
 42
0.036776
  0
VERTEX
  8
0
 10
1.282933
 20
198.220095
 42
0.059803
  0
VERTEX
  8
0
 10
0.330822
 20
196.219618
 42
0.080914
  0
VERTEX
  8
0
 10
0.005863
 20
194.247119
 42
0.000000
  0
VERTEX
  8
0
 10
0.000000
 20
190.994238
 42
0.000000
  0
VERTEX
  8
0
 10
3.305980
 20
194.747119
 42
0.007922
  0
VERTEX
  8
0
 10
6.400734
 20
198.374499
 42
0.004943
  0
VERTEX
  8
0
 10
9.916377
 20
202.716664
 42
0.003641
  0
VERTEX
  8
0
 10
13.129664
 20
206.827754
 42
0.034809
  0
VERTEX
  8
0
 10
14.361231
 20
208.680902
 42
0.094734
  0
VERTEX
  8
0
 10
14.532544
 20
209.184226
 42
0.093504
  0
VERTEX
  8
0
 10
14.507288
 20
209.717699
 42
0.094984
  0
VERTEX
  8
0
 10
14.290714
 20
210.198564
 42
0.101509
  0
VERTEX
  8
0
 10
13.915640
 20
210.552138
 42
0.301120
  0
VERTEX
  8
0
 10
13.172604
 20
210.528803
 42
0.018059
  0
VERTEX
  8
0
 10
11.304653
 20
209.101460
 42
0.021367
  0
VERTEX
  8
0
 10
9.020948
 20
207.052291
 42
0.011838
  0
SEQEND
  0
POLYLINE
  8
0
 66
1
 70
1
  0
VERTEX
  8
0
 10
46.000000
 20
155.424460
 42
0.013653
  0
VERTEX
  8
0
 10
36.153794
 20
153.360983
 42
0.003294
  0
VERTEX
  8
0
 10
19.973322
 20
149.393233
 42
0.000758
  0
VERTEX
  8
0
 10
2.397378
 20
144.932003
 42
0.123955
  0
VERTEX
  8
0
 10
0.656220
 20
143.988155
 42
0.095589
  0
VERTEX
  8
0
 10
0.358446
 20
143.585532
 42
0.056103
  0
VERTEX
  8
0
 10
0.161285
 20
143.017557
 42
0.053270
  0
VERTEX
  8
0
 10
0.087419
 20
142.381350
 42
0.060983
  0
VERTEX
  8
0
 10
0.156220
 20
141.773296
 42
0.382255
  0
VERTEX
  8
0
 10
1.012160
 20
141.180043
 42
0.018605
  0
VERTEX
  8
0
 10
4.712163
 20
141.782295
 42
0.014120
  0
VERTEX
  8
0
 10
10.750077
 20
143.175664
 42
0.002487
  0
VERTEX
  8
0
 10
22.000000
 20
146.168526
 42
-0.002762
  0
VERTEX
  8
0
 10
30.705899
 20
148.479452
 42
-0.003126
  0
VERTEX
  8
0
 10
39.085288
 20
150.598394
 42
-0.002851
  0
VERTEX
  8
0
 10
46.228227
 20
152.314087
 42
-0.017179
  0
VERTEX
  8
0
 10
49.971192
 20
153.055976
 42
0.005869
  0
VERTEX
  8
0
 10
52.486996
 20
153.495749
 42
0.008599
  0
VERTEX
  8
0
 10
54.688302
 20
153.946541
 42
0.004779
  0
VERTEX
  8
0
 10
56.523971
 20
154.373923
 42
0.137633
  0
VERTEX
  8
0
 10
56.942232
 20
154.608899
 42
0.399880
  0
VERTEX
  8
0
 10
56.954877
 20
155.123008
 42
0.044519
  0
VERTEX
  8
0
 10
56.009166
 20
155.996293
 42
0.042880
  0
VERTEX
  8
0
 10
54.836577
 20
156.749400
 42
0.168793
  0
VERTEX
  8
0
 10
54.000000
 20
156.876499
 42
-0.001012
  0
VERTEX
  8
0
 10
53.625335
 20
156.807688
 42
-0.000015
  0
VERTEX
  8
0
 10
51.443750
 20
156.411651
 42
-0.000041
  0
VERTEX
  8
0
 10
48.910439
 20
155.952059
 42
-0.000027
  0
SEQEND
  0
POLYLINE
  8
0
 66
1
 70
1
  0
VERTEX
  8
0
 10
631.232439
 20
142.802683
 42
0.202798
  0
VERTEX
  8
0
 10
631.716724
 20
142.252653
 42
0.017249
  0
VERTEX
  8
0
 10
633.477799
 20
141.478397
 42
0.020673
  0
VERTEX
  8
0
 10
635.726091
 20
140.687188
 42
0.014480
  0
VERTEX
  8
0
 10
638.315772
 20
139.975814
 42
0.004223
  0
VERTEX
  8
0
 10
642.521211
 20
138.988116
 42
0.061256
  0
VERTEX
  8
0
 10
644.040020
 20
138.835917
 42
0.245641
  0
VERTEX
  8
0
 10
644.725455
 20
139.214144
 42
0.147257
  0
VERTEX
  8
0
 10
645.000000
 20
140.126126
 42
0.138915
  0
VERTEX
  8
0
 10
644.759439
 20
140.975276
 42
0.093690
  0
VERTEX
  8
0
 10
644.076996
 20
141.724237
 42
0.065062
  0
VERTEX
  8
0
 10
642.919970
 20
142.379137
 42
0.028565
  0
VERTEX
  8
0
 10
641.250000
 20
142.947419
 42
0.029974
  0
VERTEX
  8
0
 10
637.523035
 20
143.745526
 42
0.041392
  0
VERTEX
  8
0
 10
634.111293
 20
143.978879
 42
0.055800
  0
VERTEX
  8
0
 10
631.715939
 20
143.675622
 42
0.439136
  0
SEQEND
  0
POLYLINE
  8
0
 66
1
 70
1
  0
VERTEX
  8
0
 10
27.602549
 20
133.937137
 42
0.014271
  0
VERTEX
  8
0
 10
23.278836
 20
132.378989
 42
0.052597
  0
VERTEX
  8
0
 10
20.705191
 20
131.040682
 42
0.128597
  0
VERTEX
  8
0
 10
19.647453
 20
129.859663
 42
0.325848
  0
VERTEX
  8
0
 10
19.815965
 20
128.784035
 42
0.214177
  0
VERTEX
  8
0
 10
20.509669
 20
128.520211
 42
0.026277
  0
VERTEX
  8
0
 10
22.162573
 20
128.704608
 42
0.025726
  0
VERTEX
  8
0
 10
24.296813
 20
129.170858
 42
0.014604
  0
VERTEX
  8
0
 10
26.826801
 20
129.941654
 42
-0.012774
  0
VERTEX
  8
0
 10
29.379481
 20
130.729581
 42
-0.012367
  0
VERTEX
  8
0
 10
31.996613
 20
131.395361
 42
-0.012372
  0
VERTEX
  8
0
 10
34.326727
 20
131.866807
 42
-0.043750
  0
VERTEX
  8
0
 10
35.846010
 20
132.000000
 42
0.075409
  0
VERTEX
  8
0
 10
37.881658
 20
132.308769
 42
0.085206
  0
VERTEX
  8
0
 10
39.641532
 20
133.205092
 42
0.133688
  0
VERTEX
  8
0
 10
40.522819
 20
134.331462
 42
0.304828
  0
VERTEX
  8
0
 10
40.324657
 20
135.342009
 42
0.193696
  0
VERTEX
  8
0
 10
38.867864
 20
135.962651
 42
0.032530
  0
VERTEX
  8
0
 10
35.776895
 20
135.823634
 42
0.030836
  0
VERTEX
  8
0
 10
31.904433
 20
135.152379
 42
0.021017
  0
SEQEND
  0
POLYLINE
  8
0
 66
1
 70
1
  0
VERTEX
  8
0
 10
65.226656
 20
117.565334
 42
0.045769
  0
VERTEX
  8
0
 10
54.799665
 20
112.564989
 42
0.084948
  0
VERTEX
  8
0
 10
47.692642
 20
106.479452
 42
0.124349
  0
VERTEX
  8
0
 10
44.629832
 20
100.069646
 42
0.184651
  0
VERTEX
  8
0
 10
45.651907
 20
94.001280
 42
0.061847
  0
VERTEX
  8
0
 10
47.312133
 20
91.842500
 42
0.028745
  0
VERTEX
  8
0
 10
49.940348
 20
89.470522
 42
0.025647
  0
VERTEX
  8
0
 10
52.665257
 20
87.502718
 42
0.144533
  0
VERTEX
  8
0
 10
54.368034
 20
87.000000
 42
0.367277
  0
VERTEX
  8
0
 10
54.989944
 20
87.528057
 42
0.157029
  0
VERTEX
  8
0
 10
54.816013
 20
88.689517
 42
0.072335
  0
VERTEX
  8
0
 10
53.681417
 20
90.331763
 42
0.046323
  0
VERTEX
  8
0
 10
51.949739
 20
91.879039
 42
-0.054074
  0
VERTEX
  8
0
 10
49.110619
 20
94.495891
 42
-0.121705
  0
VERTEX
  8
0
 10
47.778228
 20
97.081309
 42
-0.133884
  0
VERTEX
  8
0
 10
47.867529
 20
99.823462
 42
-0.072108
  0
VERTEX
  8
0
 10
49.326700
 20
102.901288
 42
-0.079145
  0
VERTEX
  8
0
 10
52.432766
 20
106.271498
 42
-0.029763
  0
VERTEX
  8
0
 10
57.713619
 20
109.952113
 42
-0.029079
  0
VERTEX
  8
0
 10
63.926460
 20
113.274292
 42
-0.035480
  0
VERTEX
  8
0
 10
70.090413
 20
115.608305
 42
0.018563
  0
VERTEX
  8
0
 10
72.381768
 20
116.388451
 42
0.028832
  0
VERTEX
  8
0
 10
74.285228
 20
117.245187
 42
0.028743
  0
VERTEX
  8
0
 10
75.673537
 20
118.073703
 42
0.248769
  0
VERTEX
  8
0
 10
76.000000
 20
118.689252
 42
0.333700
  0
VERTEX
  8
0
 10
75.271700
 20
119.658985
 42
0.096907
  0
VERTEX
  8
0
 10
73.289456
 20
119.836396
 42
0.047698
  0
VERTEX
  8
0
 10
69.982444
 20
119.168536
 42
0.015273
  0
SEQEND
  0
POLYLINE
  8
0
 66
1
 70
1
  0
VERTEX
  8
0
 10
638.000000
 20
119.097825
 42
0.277594
  0
VERTEX
  8
0
 10
638.385572
 20
118.456851
 42
0.012926
  0
VERTEX
  8
0
 10
640.748716
 20
117.280607
 42
0.019531
  0
VERTEX
  8
0
 10
643.161985
 20
116.269002
 42
0.089709
  0
VERTEX
  8
0
 10
644.649223
 20
116.000000
 42
0.394657
  0
VERTEX
  8
0
 10
645.104235
 20
116.425405
 42
0.104192
  0
VERTEX
  8
0
 10
644.951330
 20
117.507273
 42
0.073031
  0
VERTEX
  8
0
 10
644.293454
 20
118.729333
 42
0.142132
  0
VERTEX
  8
0
 10
643.418213
 20
119.393011
 42
0.051419
  0
VERTEX
  8
0
 10
641.639149
 20
119.873261
 42
0.053887
  0
VERTEX
  8
0
 10
639.827820
 20
119.969793
 42
0.066216
  0
VERTEX
  8
0
 10
638.441021
 20
119.707877
 42
0.323609
  0
SEQEND
  0
POLYLINE
  8
0
 66
1
 70
1
  0
VERTEX
  8
0
 10
643.000000
 20
76.000018
 42
-0.042880
  0
VERTEX
  8
0
 10
642.069107
 20
75.505856
 42
-0.006392
  0
VERTEX
  8
0
 10
640.104687
 20
74.699456
 42
-0.007152
  0
VERTEX
  8
0
 10
637.752877
 20
73.807675
 42
-0.006109
  0
VERTEX
  8
0
 10
635.250000
 20
72.933800
 42
0.016403
  0
VERTEX
  8
0
 10
630.620352
 20
71.209664
 42
0.170919
  0
VERTEX
  8
0
 10
629.128222
 20
69.880048
 42
0.572472
  0
VERTEX
  8
0
 10
629.617990
 20
69.054595
 42
0.032923
  0
VERTEX
  8
0
 10
633.250119
 20
69.310696
 42
0.031036
  0
VERTEX
  8
0
 10
637.829475
 20
70.230722
 42
0.047920
  0
VERTEX
  8
0
 10
641.610601
 20
71.637080
 42
0.060250
  0
VERTEX
  8
0
 10
644.196404
 20
73.302562
 42
0.223156
  0
VERTEX
  8
0
 10
645.000000
 20
75.013420
 42
0.010956
  0
VERTEX
  8
0
 10
644.967107
 20
76.514392
 42
0.273720
  0
VERTEX
  8
0
 10
644.750314
 20
76.846610
 42
0.253613
  0
VERTEX
  8
0
 10
644.341643
 20
76.830877
 42
0.009624
  0
SEQEND
  0
POLYLINE
  8
0
 66
1
 70
1
  0
VERTEX
  8
0
 10
0.000000
 20
70.094273
 42
0.135756
  0
VERTEX
  8
0
 10
0.275987
 20
69.096522
 42
0.102384
  0
VERTEX
  8
0
 10
1.049775
 20
68.255490
 42
0.061868
  0
VERTEX
  8
0
 10
2.459137
 20
67.486684
 42
0.018993
  0
VERTEX
  8
0
 10
4.750000
 20
66.681934
 42
-0.008927
  0
VERTEX
  8
0
 10
7.258738
 20
65.856984
 42
-0.002436
  0
VERTEX
  8
0
 10
11.189062
 20
64.464836
 42
-0.002462
  0
VERTEX
  8
0
 10
15.631644
 20
62.842091
 42
-0.002561
  0
VERTEX
  8
0
 10
20.000000
 20
61.196527
 42
0.028215
  0
VERTEX
  8
0
 10
33.300794
 20
56.951038
 42
0.011261
  0
VERTEX
  8
0
 10
51.937077
 20
52.586836
 42
0.011358
  0
VERTEX
  8
0
 10
71.018189
 20
49.020016
 42
0.024044
  0
VERTEX
  8
0
 10
85.959861
 20
47.309190
 42
0.029193
  0
VERTEX
  8
0
 10
92.462085
 20
47.260059
 42
0.818541
  0
VERTEX
  8
0
 10
92.597369
 20
48.166881
 42
0.038290
  0
VERTEX
  8
0
 10
85.887851
 20
50.027098
 42
0.004377
  0
VERTEX
  8
0
 10
70.446383
 20
52.919371
 42
-0.003014
  0
VERTEX
  8
0
 10
49.613022
 20
56.762828
 42
-0.012903
  0
VERTEX
  8
0
 10
37.269330
 20
59.448914
 42
-0.019516
  0
VERTEX
  8
0
 10
27.771604
 20
62.170757
 42
-0.015640
  0
VERTEX
  8
0
 10
17.775510
 20
65.812843
 42
0.003152
  0
VERTEX
  8
0
 10
7.318021
 20
69.921651
 42
0.032940
  0
VERTEX
  8
0
 10
2.919820
 20
71.292858
 42
0.132477
  0
VERTEX
  8
0
 10
0.850987
 20
71.236860
 42
0.331477
  0
SEQEND
  0
POLYLINE
  8
0
 66
1
 70
1
  0
VERTEX
  8
0
 10
140.241529
 20
67.750000
 42
0.284803
  0
VERTEX
  8
0
 10
145.281755
 20
63.502582
 42
0.004850
  0
VERTEX
  8
0
 10
182.678394
 20
58.399195
 42
0.012190
  0
VERTEX
  8
0
 10
218.913637
 20
54.706841
 42
0.038529
  0
VERTEX
  8
0
 10
243.298075
 20
54.703213
 42
0.023757
  0
VERTEX
  8
0
 10
249.424997
 20
55.469209
 42
0.784371
  0
VERTEX
  8
0
 10
249.486013
 20
56.356746
 42
0.058675
  0
VERTEX
  8
0
 10
244.789258
 20
57.269496
 42
0.005342
  0
VERTEX
  8
0
 10
232.870229
 20
58.033878
 42
-0.006146
  0
VERTEX
  8
0
 10
207.937980
 20
59.673073
 42
-0.007573
  0
VERTEX
  8
0
 10
184.734953
 20
61.839271
 42
-0.008274
  0
VERTEX
  8
0
 10
164.683740
 20
64.354357
 42
-0.019160
  0
VERTEX
  8
0
 10
149.760587
 20
67.064424
 42
0.001228
  0
VERTEX
  8
0
 10
142.752874
 20
68.598427
 42
0.035302
  0
VERTEX
  8
0
 10
140.927486
 20
68.860268
 42
0.289817
  0
VERTEX
  8
0
 10
140.319708
 20
68.534305
 42
0.210525
  0
SEQEND
  0
POLYLINE
  8
0
 66
1
 70
1
  0
VERTEX
  8
0
 10
272.000000
 20
55.000000
 42
0.333273
  0
VERTEX
  8
0
 10
272.293312
 20
54.608830
 42
0.026513
  0
VERTEX
  8
0
 10
273.632961
 20
54.293750
 42
0.027583
  0
VERTEX
  8
0
 10
275.428041
 20
54.072140
 42
0.016922
  0
VERTEX
  8
0
 10
277.559017
 20
54.000000
 42
0.013434
  0
VERTEX
  8
0
 10
279.854670
 20
54.061691
 42
0.036506
  0
VERTEX
  8
0
 10
281.467663
 20
54.267178
 42
0.067066
  0
VERTEX
  8
0
 10
282.382798
 20
54.584344
 42
0.439638
  0
VERTEX
  8
0
 10
282.500000
 20
55.000000
 42
0.187586
  0
VERTEX
  8
0
 10
281.983175
 20
55.389932
 42
0.024383
  0
VERTEX
  8
0
 10
280.612100
 20
55.706250
 42
0.025672
  0
VERTEX
  8
0
 10
278.878446
 20
55.927002
 42
0.018832
  0
VERTEX
  8
0
 10
276.940983
 20
56.000000
 42
0.019057
  0
VERTEX
  8
0
 10
275.047067
 20
55.927787
 42
0.030878
  0
VERTEX
  8
0
 10
273.451414
 20
55.706250
 42
0.032040
  0
VERTEX
  8
0
 10
272.279067
 20
55.389668
 42
0.321151
  0
SEQEND
  0
POLYLINE
  8
0
 66
1
 70
1
  0
VERTEX
  8
0
 10
431.000000
 20
44.453051
 42
-0.002792
  0
VERTEX
  8
0
 10
424.794765
 20
43.561009
 42
-0.003390
  0
VERTEX
  8
0
 10
418.968899
 20
42.796892
 42
-0.002866
  0
VERTEX
  8
0
 10
414.060819
 20
42.215517
 42
-0.023428
  0
VERTEX
  8
0
 10
411.809017
 20
42.068209
 42
0.024092
  0
VERTEX
  8
0
 10
410.351884
 20
41.970942
 42
0.030688
  0
VERTEX
  8
0
 10
409.026035
 20
41.734898
 42
0.031706
  0
VERTEX
  8
0
 10
407.978307
 20
41.409725
 42
0.164690
  0
VERTEX
  8
0
 10
407.518119
 20
41.029317
 42
0.457910
  0
VERTEX
  8
0
 10
407.843710
 20
39.996017
 42
0.078777
  0
VERTEX
  8
0
 10
410.113000
 20
39.417801
 42
0.040449
  0
VERTEX
  8
0
 10
414.105848
 20
39.372249
 42
0.017191
  0
VERTEX
  8
0
 10
419.430873
 20
39.927103
 42
-0.006937
  0
VERTEX
  8
0
 10
422.717992
 20
40.337900
 42
-0.005805
  0
VERTEX
  8
0
 10
426.216472
 20
40.684836
 42
-0.005863
  0
VERTEX
  8
0
 10
429.422671
 20
40.927394
 42
-0.015947
  0
VERTEX
  8
0
 10
431.698574
 20
41.000000
 42
0.043329
  0
VERTEX
  8
0
 10
436.775347
 20
41.440770
 42
0.011398
  0
VERTEX
  8
0
 10
444.785630
 20
43.031229
 42
0.005508
  0
VERTEX
  8
0
 10
452.999339
 20
44.952798
 42
0.196573
  0
VERTEX
  8
0
 10
454.550216
 20
46.081251
 42
0.585030
  0
VERTEX
  8
0
 10
454.100450
 20
46.894647
 42
0.019013
  0
VERTEX
  8
0
 10
449.462270
 20
46.750785
 42
0.015368
  0
VERTEX
  8
0
 10
442.176230
 20
46.021505
 42
0.004467
  0
SEQEND
  0
POLYLINE
  8
0
 66
1
 70
1
  0
VERTEX
  8
0
 10
112.000000
 20
45.005355
 42
0.025703
  0
VERTEX
  8
0
 10
111.197817
 20
44.405765
 42
0.218669
  0
VERTEX
  8
0
 10
111.008380
 20
44.010552
 42
0.229590
  0
VERTEX
  8
0
 10
111.189033
 20
43.621735
 42
0.028292
  0
VERTEX
  8
0
 10
111.968007
 20
43.056247
 42
0.105901
  0
VERTEX
  8
0
 10
114.619275
 20
42.057278
 42
0.018628
  0
VERTEX
  8
0
 10
119.941248
 20
41.458331
 42
0.020685
  0
VERTEX
  8
0
 10
125.394284
 20
41.275835
 42
0.065249
  0
VERTEX
  8
0
 10
129.009965
 20
41.778811
 42
0.003649
  0
VERTEX
  8
0
 10
131.402093
 20
42.455897
 42
0.207522
  0
VERTEX
  8
0
 10
131.748565
 20
42.743233
 42
0.430536
  0
VERTEX
  8
0
 10
131.640018
 20
43.046321
 42
0.008968
  0
VERTEX
  8
0
 10
130.000000
 20
43.731714
 42
0.059438
  0
VERTEX
  8
0
 10
126.198726
 20
44.739618
 42
0.017454
  0
VERTEX
  8
0
 10
120.184635
 20
45.376740
 42
0.012743
  0
VERTEX
  8
0
 10
114.189097
 20
45.647657
 42
0.153730
  0
SEQEND
  0
POLYLINE
  8
0
 66
1
 70
1
  0
VERTEX
  8
0
 10
615.500000
 20
44.576963
 42
-0.005523
  0
VERTEX
  8
0
 10
613.626202
 20
43.977962
 42
-0.002858
  0
VERTEX
  8
0
 10
611.272120
 20
43.268696
 42
-0.002841
  0
VERTEX
  8
0
 10
608.844039
 20
42.567222
 42
-0.004310
  0
VERTEX
  8
0
 10
606.724239
 20
41.987526
 42
0.018023
  0
VERTEX
  8
0
 10
603.349309
 20
40.964346
 42
0.097368
  0
VERTEX
  8
0
 10
601.698960
 20
40.009467
 42
0.371174
  0
VERTEX
  8
0
 10
601.575134
 20
39.139085
 42
0.160067
  0
VERTEX
  8
0
 10
602.554828
 20
38.340587
 42
0.148268
  0
VERTEX
  8
0
 10
604.777431
 20
38.180248
 42
0.007321
  0
VERTEX
  8
0
 10
611.996342
 20
39.924045
 42
0.009516
  0
VERTEX
  8
0
 10
619.018829
 20
41.872815
 42
0.092689
  0
VERTEX
  8
0
 10
621.750000
 20
43.275910
 42
0.136946
  0
VERTEX
  8
0
 10
622.885946
 20
44.804243
 42
0.462418
  0
VERTEX
  8
0
 10
622.366714
 20
45.756289
 42
0.105981
  0
VERTEX
  8
0
 10
619.724579
 20
45.740605
 42
0.025841
  0
SEQEND
  0
POLYLINE
  8
0
 66
1
 70
1
  0
VERTEX
  8
0
 10
4.000000
 20
44.133948
 42
0.335538
  0
VERTEX
  8
0
 10
5.817263
 20
41.730848
 42
0.004678
  0
VERTEX
  8
0
 10
24.496711
 20
36.631356
 42
0.011905
  0
VERTEX
  8
0
 10
45.370900
 20
31.670145
 42
0.011021
  0
VERTEX
  8
0
 10
67.000000
 20
27.566635
 42
0.009437
  0
VERTEX
  8
0
 10
91.455381
 20
23.956077
 42
0.003385
  0
VERTEX
  8
0
 10
126.420388
 20
19.706759
 42
0.003448
  0
VERTEX
  8
0
 10
163.085011
 20
15.758519
 42
0.005755
  0
VERTEX
  8
0
 10
194.000000
 20
13.003970
 42
-0.001691
  0
VERTEX
  8
0
 10
199.970741
 20
12.520847
 42
-0.001148
  0
VERTEX
  8
0
 10
206.765625
 20
11.932176
 42
-0.001157
  0
VERTEX
  8
0
 10
213.323771
 20
11.333538
 42
-0.002320
  0
VERTEX
  8
0
 10
218.500000
 20
10.824721
 42
0.021242
  0
VERTEX
  8
0
 10
232.604712
 20
9.975350
 42
0.002916
  0
VERTEX
  8
0
 10
262.059552
 20
9.626716
 42
0.002226
  0
VERTEX
  8
0
 10
292.028890
 20
9.580208
 42
0.034786
  0
VERTEX
  8
0
 10
302.250000
 20
10.321956
 42
0.080399
  0
VERTEX
  8
0
 10
305.773336
 20
11.421276
 42
0.750689
  0
VERTEX
  8
0
 10
305.604037
 20
12.351757
 42
0.022772
  0
VERTEX
  8
0
 10
296.299560
 20
12.886387
 42
0.002904
  0
VERTEX
  8
0
 10
276.250000
 20
13.007712
 42
-0.008348
  0
VERTEX
  8
0
 10
246.684577
 20
13.508550
 42
-0.008642
  0
VERTEX
  8
0
 10
217.492664
 20
14.996239
 42
-0.006928
  0
VERTEX
  8
0
 10
183.318536
 20
17.806823
 42
-0.002924
  0
VERTEX
  8
0
 10
137.500000
 20
22.485551
 42
-0.003155
  0
VERTEX
  8
0
 10
96.768253
 20
27.145871
 42
-0.009528
  0
VERTEX
  8
0
 10
69.101267
 20
31.024567
 42
-0.012432
  0
VERTEX
  8
0
 10
45.945986
 20
35.314737
 42
-0.009678
  0
VERTEX
  8
0
 10
21.000000
 20
41.087757
 42
0.000816
  0
VERTEX
  8
0
 10
9.594687
 20
43.941052
 42
0.016552
  0
VERTEX
  8
0
 10
6.109407
 20
44.685399
 42
0.073669
  0
VERTEX
  8
0
 10
4.532919
 20
44.733076
 42
0.380392
  0
SEQEND
  0
POLYLINE
  8
0
 66
1
 70
1
  0
VERTEX
  8
0
 10
641.500000
 20
29.888638
 42
-0.012489
  0
VERTEX
  8
0
 10
630.893929
 20
26.856001
 42
-0.003010
  0
VERTEX
  8
0
 10
613.177409
 20
22.379258
 42
-0.002960
  0
VERTEX
  8
0
 10
595.442607
 20
18.122521
 42
-0.013326
  0
VERTEX
  8
0
 10
585.000000
 20
15.973130
 42
-0.005412
  0
VERTEX
  8
0
 10
556.740025
 20
11.252383
 42
-0.006040
  0
VERTEX
  8
0
 10
529.399519
 20
7.326594
 42
-0.006245
  0
VERTEX
  8
0
 10
502.858699
 20
4.179004
 42
-0.006808
  0
VERTEX
  8
0
 10
477.000000
 20
1.794929
 42
0.000000
  0
VERTEX
  8
0
 10
460.500000
 20
0.500000
 42
0.000000
  0
VERTEX
  8
0
 10
490.829521
 20
0.235218
 42
0.002268
  0
VERTEX
  8
0
 10
509.953317
 20
0.155033
 42
0.013597
  0
VERTEX
  8
0
 10
519.905261
 20
0.429142
 42
0.017351
  0
VERTEX
  8
0
 10
528.801762
 20
1.226853
 42
0.005158
  0
VERTEX
  8
0
 10
542.329521
 20
3.056560
 42
-0.000445
  0
VERTEX
  8
0
 10
550.581745
 20
4.252024
 42
-0.000651
  0
VERTEX
  8
0
 10
557.849545
 20
5.288615
 42
-0.000310
  0
VERTEX
  8
0
 10
564.037947
 20
6.159128
 42
-0.011765
  0
VERTEX
  8
0
 10
565.434886
 20
6.321342
 42
-0.107455
  0
VERTEX
  8
0
 10
566.378159
 20
6.205675
 42
-0.120301
  0
VERTEX
  8
0
 10
567.144631
 20
5.708365
 42
-0.085120
  0
VERTEX
  8
0
 10
567.777347
 20
4.755080
 42
-0.032256
  0
VERTEX
  8
0
 10
568.329546
 20
3.250000
 42
0.032467
  0
VERTEX
  8
0
 10
568.961187
 20
1.530644
 42
0.116286
  0
VERTEX
  8
0
 10
569.663356
 20
0.604123
 42
0.129175
  0
VERTEX
  8
0
 10
570.661103
 20
0.141906
 42
0.044254
  0
VERTEX
  8
0
 10
572.261292
 20
0.000000
 42
0.030705
  0
VERTEX
  8
0
 10
574.188605
 20
0.118468
 42
0.324085
  0
VERTEX
  8
0
 10
574.733304
 20
0.625490
 42
0.120852
  0
VERTEX
  8
0
 10
574.684077
 20
1.691653
 42
0.003835
  0
VERTEX
  8
0
 10
573.417155
 20
5.870799
 42
-0.184398
  0
VERTEX
  8
0
 10
573.496549
 20
7.135769
 42
-0.189012
  0
VERTEX
  8
0
 10
574.398225
 20
8.009746
 42
-0.057254
  0
VERTEX
  8
0
 10
576.679969
 20
8.670322
 42
-0.006060
  0
VERTEX
  8
0
 10
582.161269
 20
9.528475
 42
-0.015319
  0
VERTEX
  8
0
 10
584.993437
 20
9.848573
 42
-0.102436
  0
VERTEX
  8
0
 10
586.393020
 20
9.676616
 42
-0.137292
  0
VERTEX
  8
0
 10
587.414342
 20
8.978960
 42
-0.035531
  0
VERTEX
  8
0
 10
588.595887
 20
7.350238
 42
0.021857
  0
VERTEX
  8
0
 10
590.846345
 20
4.062674
 42
0.047180
  0
VERTEX
  8
0
 10
592.907962
 20
1.796966
 42
0.064475
  0
VERTEX
  8
0
 10
594.836936
 20
0.450309
 42
0.120754
  0
VERTEX
  8
0
 10
596.674314
 20
0.000000
 42
0.082062
  0
VERTEX
  8
0
 10
598.325030
 20
0.272757
 42
0.367724
  0
VERTEX
  8
0
 10
598.789614
 20
1.050388
 42
0.100214
  0
VERTEX
  8
0
 10
598.191143
 20
2.611966
 42
0.006733
  0
VERTEX
  8
0
 10
595.561600
 20
6.632427
 42
0.000000
  0
VERTEX
  8
0
 10
592.123200
 20
11.738158
 42
0.000000
  0
VERTEX
  8
0
 10
599.686643
 20
13.031926
 42
0.000000
  0
VERTEX
  8
0
 10
607.250086
 20
14.325695
 42
0.000000
  0
VERTEX
  8
0
 10
610.707978
 20
10.162847
 42
0.041642
  0
VERTEX
  8
0
 10
613.309523
 20
7.514016
 42
0.099067
  0
VERTEX
  8
0
 10
615.702777
 20
6.163744
 42
0.234914
  0
VERTEX
  8
0
 10
617.276321
 20
6.393954
 42
0.245794
  0
VERTEX
  8
0
 10
618.000000
 20
7.777139
 42
0.103775
  0
VERTEX
  8
0
 10
617.813111
 20
8.667889
 42
0.028505
  0
VERTEX
  8
0
 10
617.159704
 20
9.952249
 42
0.027517
  0
VERTEX
  8
0
 10
616.234281
 20
11.356670
 42
0.025629
  0
VERTEX
  8
0
 10
615.139419
 20
12.686213
 42
0.000000
  0
VERTEX
  8
0
 10
612.278838
 20
15.818148
 42
0.000000
  0
VERTEX
  8
0
 10
616.389419
 20
16.900169
 42
0.001251
  0
VERTEX
  8
0
 10
618.654207
 20
17.502389
 42
0.000282
  0
VERTEX
  8
0
 10
622.504836
 20
18.538944
 42
0.000292
  0
VERTEX
  8
0
 10
626.947415
 20
19.740313
 42
0.000283
  0
VERTEX
  8
0
 10
631.435555
 20
20.959542
 42
-0.006226
  0
VERTEX
  8
0
 10
636.762039
 20
22.338751
 42
-0.022034
  0
VERTEX
  8
0
 10
640.224930
 20
23.029392
 42
-0.031247
  0
VERTEX
  8
0
 10
642.545609
 20
23.239571
 42
-0.182117
  0
VERTEX
  8
0
 10
643.685555
 20
22.846003
 42
0.167162
  0
VERTEX
  8
0
 10
644.313279
 20
22.608676
 42
0.321619
  0
VERTEX
  8
0
 10
644.737909
 20
22.894308
 42
0.079520
  0
VERTEX
  8
0
 10
644.953154
 20
23.969346
 42
0.009725
  0
VERTEX
  8
0
 10
645.000000
 20
26.377555
 42
0.005074
  0
VERTEX
  8
0
 10
644.982073
 20
28.144154
 42
0.008690
  0
VERTEX
  8
0
 10
644.926563
 20
29.616908
 42
0.003187
  0
VERTEX
  8
0
 10
644.850902
 20
30.847082
 42
0.493628
  0
VERTEX
  8
0
 10
644.750000
 20
30.914047
 42
-0.006238
  0
VERTEX
  8
0
 10
644.566549
 20
30.853523
 42
-0.000143
  0
VERTEX
  8
0
 10
643.692187
 20
30.577378
 42
-0.000320
  0
VERTEX
  8
0
 10
642.667682
 20
30.254856
 42
-0.000217
  0
SEQEND
  0
POLYLINE
  8
0
 66
1
 70
1
  0
VERTEX
  8
0
 10
0.000000
 20
18.312909
 42
0.000000
  0
VERTEX
  8
0
 10
0.000000
 20
11.625818
 42
0.000000
  0
VERTEX
  8
0
 10
2.804719
 20
14.312909
 42
-0.015250
  0
VERTEX
  8
0
 10
3.947874
 20
15.343134
 42
-0.019554
  0
VERTEX
  8
0
 10
5.063228
 20
16.215727
 42
-0.017749
  0
VERTEX
  8
0
 10
6.032366
 20
16.863618
 42
-0.134699
  0
VERTEX
  8
0
 10
6.554719
 20
17.017225
 42
-0.061510
  0
VERTEX
  8
0
 10
9.562464
 20
16.701324
 42
-0.008050
  0
VERTEX
  8
0
 10
15.817501
 20
15.146643
 42
-0.003000
  0
VERTEX
  8
0
 10
22.478767
 20
13.333787
 42
-0.336692
  0
VERTEX
  8
0
 10
23.000000
 20
12.647484
 42
-0.153593
  0
VERTEX
  8
0
 10
22.825757
 20
12.093644
 42
-0.010062
  0
VERTEX
  8
0
 10
21.825000
 20
10.720310
 42
-0.013854
  0
VERTEX
  8
0
 10
20.532320
 20
9.113777
 42
-0.009861
  0
VERTEX
  8
0
 10
19.000000
 20
7.384174
 42
0.016122
  0
VERTEX
  8
0
 10
17.468371
 20
5.611112
 42
0.020359
  0
VERTEX
  8
0
 10
16.175000
 20
3.872222
 42
0.018883
  0
VERTEX
  8
0
 10
15.224000
 20
2.358858
 42
0.131571
  0
VERTEX
  8
0
 10
15.000000
 20
1.522343
 42
0.317150
  0
VERTEX
  8
0
 10
15.859521
 20
0.303572
 42
0.200116
  0
VERTEX
  8
0
 10
17.670713
 20
0.399074
 42
0.070018
  0
VERTEX
  8
0
 10
20.649476
 20
2.382763
 42
0.024151
  0
VERTEX
  8
0
 10
24.351691
 20
6.013152
 42
0.000000
  0
VERTEX
  8
0
 10
29.918810
 20
12.026304
 42
0.000000
  0
VERTEX
  8
0
 10
43.616904
 20
9.496358
 42
0.002547
  0
VERTEX
  8
0
 10
49.500877
 20
8.440594
 42
0.002032
  0
VERTEX
  8
0
 10
55.855821
 20
7.360300
 42
0.002054
  0
VERTEX
  8
0
 10
61.748406
 20
6.408081
 42
0.005186
  0
VERTEX
  8
0
 10
66.045678
 20
5.777361
 42
0.000000
  0
VERTEX
  8
0
 10
74.776357
 20
4.588310
 42
0.000000
  0
VERTEX
  8
0
 10
73.273168
 20
2.294155
 42
0.014829
  0
VERTEX
  8
0
 10
72.375209
 20
0.830804
 42
0.281255
  0
VERTEX
  8
0
 10
72.389428
 20
0.316067
 42
0.241797
  0
VERTEX
  8
0
 10
72.865042
 20
0.043529
 42
0.011466
  0
VERTEX
  8
0
 10
74.763018
 20
-0.000000
 42
0.050156
  0
VERTEX
  8
0
 10
76.087785
 20
0.133224
 42
0.054936
  0
VERTEX
  8
0
 10
77.317429
 20
0.527406
 42
0.058680
  0
VERTEX
  8
0
 10
78.358862
 20
1.147720
 42
0.075907
  0
VERTEX
  8
0
 10
79.128028
 20
1.949173
 42
-0.116107
  0
VERTEX
  8
0
 10
80.323096
 20
3.010716
 42
-0.117432
  0
VERTEX
  8
0
 10
81.861177
 20
3.422063
 42
-0.038476
  0
VERTEX
  8
0
 10
84.597501
 20
3.286831
 42
-0.002873
  0
VERTEX
  8
0
 10
92.000000
 20
2.303669
 42
0.016848
  0
VERTEX
  8
0
 10
99.205422
 20
1.550887
 42
0.006799
  0
VERTEX
  8
0
 10
109.079153
 20
0.989394
 42
0.005355
  0
VERTEX
  8
0
 10
121.864165
 20
0.573750
 42
0.002483
  0
VERTEX
  8
0
 10
138.476921
 20
0.294241
 42
0.001207
  0
VERTEX
  8
0
 10
151.856475
 20
0.167892
 42
0.002056
  0
VERTEX
  8
0
 10
163.039276
 20
0.135277
 42
0.000250
  0
VERTEX
  8
0
 10
172.903544
 20
0.151997
 42
0.675515
  0
VERTEX
  8
0
 10
172.976921
 20
0.335499
 42
0.164464
  0
VERTEX
  8
0
 10
172.539674
 20
0.539733
 42
0.001136
  0
VERTEX
  8
0
 10
168.380720
 20
0.993571
 42
0.004242
  0
VERTEX
  8
0
 10
163.592638
 20
1.464002
 42
0.002682
  0
VERTEX
  8
0
 10
158.000000
 20
1.935392
 42
-0.004371
  0
VERTEX
  8
0
 10
137.771962
 20
3.709209
 42
-0.001998
  0
VERTEX
  8
0
 10
111.393683
 20
6.361303
 42
-0.001846
  0
VERTEX
  8
0
 10
85.963490
 20
9.115710
 42
-0.007706
  0
VERTEX
  8
0
 10
70.681905
 20
11.066930
 42
-0.006435
  0
VERTEX
  8
0
 10
52.021134
 20
13.988092
 42
-0.005758
  0
VERTEX
  8
0
 10
32.734878
 20
17.490953
 42
-0.005778
  0
VERTEX
  8
0
 10
15.492653
 20
21.035290
 42
-0.017999
  0
VERTEX
  8
0
 10
4.006602
 20
23.971663
 42
0.001856
  0
VERTEX
  8
0
 10
2.649253
 20
24.365751
 42
0.002803
  0
VERTEX
  8
0
 10
1.464013
 20
24.697926
 42
0.001091
  0
VERTEX
  8
0
 10
0.444425
 20
24.975131
 42
0.065916
  0
VERTEX
  8
0
 10
0.256602
 20
25.000000
 42
0.401351
  0
VERTEX
  8
0
 10
0.152302
 20
24.900202
 42
0.001440
  0
VERTEX
  8
0
 10
0.075377
 20
23.035667
 42
0.005992
  0
VERTEX
  8
0
 10
0.018442
 20
20.877044
 42
0.003596
  0
SEQEND
  0
POLYLINE
  8
0
 66
1
 70
1
  0
VERTEX
  8
0
 10
366.333270
 20
14.072891
 42
0.003826
  0
VERTEX
  8
0
 10
355.754186
 20
13.638784
 42
0.026915
  0
VERTEX
  8
0
 10
350.627597
 20
13.111569
 42
0.100726
  0
VERTEX
  8
0
 10
348.542166
 20
12.333576
 42
0.483089
  0
VERTEX
  8
0
 10
348.419311
 20
11.250000
 42
0.200326
  0
VERTEX
  8
0
 10
350.576304
 20
10.367841
 42
0.002290
  0
VERTEX
  8
0
 10
366.443611
 20
10.554699
 42
0.005793
  0
VERTEX
  8
0
 10
381.270690
 20
10.969084
 42
0.051124
  0
VERTEX
  8
0
 10
387.750000
 20
11.893303
 42
0.014775
  0
VERTEX
  8
0
 10
391.956500
 20
13.072864
 42
0.281828
  0
VERTEX
  8
0
 10
392.816502
 20
14.056478
 42
0.452984
  0
VERTEX
  8
0
 10
392.196660
 20
14.820445
 42
0.018947
  0
VERTEX
  8
0
 10
388.250000
 20
14.822891
 42
-0.000664
  0
VERTEX
  8
0
 10
385.443870
 20
14.721993
 42
-0.000101
  0
VERTEX
  8
0
 10
379.852586
 20
14.529521
 42
-0.000113
  0
VERTEX
  8
0
 10
373.254010
 20
14.305214
 42
-0.000098
  0
SEQEND
  0
POLYLINE
  8
0
 66
1
 70
1
  0
VERTEX
  8
0
 10
195.000000
 20
482.068094
 42
0.288074
  0
VERTEX
  8
0
 10
197.872463
 20
477.496198
 42
0.043727
  0
VERTEX
  8
0
 10
208.433926
 20
473.503000
 42
0.043673
  0
VERTEX
  8
0
 10
219.660995
 20
471.381189
 42
0.249377
  0
VERTEX
  8
0
 10
225.089808
 20
473.608213
 42
0.042777
  0
VERTEX
  8
0
 10
225.727205
 20
474.525605
 42
0.179145
  0
VERTEX
  8
0
 10
225.837167
 20
475.177169
 42
0.157948
  0
VERTEX
  8
0
 10
225.499870
 20
475.793638
 42
0.031378
  0
VERTEX
  8
0
 10
224.521124
 20
476.608213
 42
0.065566
  0
VERTEX
  8
0
 10
223.540318
 20
477.144574
 42
0.028957
  0
VERTEX
  8
0
 10
222.131441
 20
477.598343
 42
0.028046
  0
VERTEX
  8
0
 10
220.561065
 20
477.912774
 42
0.033680
  0
VERTEX
  8
0
 10
219.058870
 20
478.024446
 42
-0.034381
  0
VERTEX
  8
0
 10
215.184457
 20
478.317925
 42
-0.023957
  0
VERTEX
  8
0
 10
210.878544
 20
479.156055
 42
-0.023577
  0
VERTEX
  8
0
 10
206.575104
 20
480.427579
 42
-0.028917
  0
VERTEX
  8
0
 10
202.702380
 20
482.029706
 42
0.023811
  0
VERTEX
  8
0
 10
199.229507
 20
483.508105
 42
0.087690
  0
VERTEX
  8
0
 10
196.890756
 20
483.933487
 42
0.197995
  0
VERTEX
  8
0
 10
195.554353
 20
483.390468
 42
0.201126
  0
SEQEND
  0
POLYLINE
  8
0
 66
1
 70
1
  0
VERTEX
  8
0
 10
130.946167
 20
475.436115
 42
-0.035045
  0
VERTEX
  8
0
 10
129.214799
 20
473.880036
 42
-0.017191
  0
VERTEX
  8
0
 10
126.814275
 20
472.138267
 42
-0.016965
  0
VERTEX
  8
0
 10
124.184791
 20
470.491974
 42
-0.023613
  0
VERTEX
  8
0
 10
121.719450
 20
469.214005
 42
0.026198
  0
VERTEX
  8
0
 10
117.315667
 20
466.902260
 42
0.232436
  0
VERTEX
  8
0
 10
116.151530
 20
465.118598
 42
0.401373
  0
VERTEX
  8
0
 10
117.093805
 20
463.858013
 42
0.044582
  0
VERTEX
  8
0
 10
121.028769
 20
463.556714
 42
0.109074
  0
VERTEX
  8
0
 10
126.753612
 20
464.896985
 42
0.063601
  0
VERTEX
  8
0
 10
132.699812
 20
468.744432
 42
0.068555
  0
VERTEX
  8
0
 10
136.954311
 20
473.473936
 42
0.245269
  0
VERTEX
  8
0
 10
137.404891
 20
477.387255
 42
0.145129
  0
VERTEX
  8
0
 10
136.480897
 20
478.591043
 42
0.234480
  0
VERTEX
  8
0
 10
135.233591
 20
478.801636
 42
0.105337
  0
VERTEX
  8
0
 10
133.487378
 20
477.840232
 42
0.022257
  0
SEQEND
  0
POLYLINE
  8
0
 66
1
 70
1
  0
VERTEX
  8
0
 10
334.735568
 20
470.402234
 42
0.253764
  0
VERTEX
  8
0
 10
334.443827
 20
469.418714
 42
0.052463
  0
VERTEX
  8
0
 10
335.020459
 20
467.640068
 42
0.028955
  0
VERTEX
  8
0
 10
336.439083
 20
464.889890
 42
0.006327
  0
VERTEX
  8
0
 10
339.210376
 20
460.336963
 42
-0.025085
  0
VERTEX
  8
0
 10
343.335981
 20
452.948802
 42
-0.028301
  0
VERTEX
  8
0
 10
346.519941
 20
445.470819
 42
-0.027036
  0
VERTEX
  8
0
 10
348.352016
 20
439.373379
 42
-0.498879
  0
VERTEX
  8
0
 10
347.250000
 20
438.031803
 42
-0.098864
  0
VERTEX
  8
0
 10
346.843762
 20
438.130987
 42
-0.017988
  0
VERTEX
  8
0
 10
346.150106
 20
438.485547
 42
-0.018737
  0
VERTEX
  8
0
 10
345.357039
 20
438.967390
 42
-0.016032
  0
VERTEX
  8
0
 10
344.558870
 20
439.531803
 42
0.038541
  0
VERTEX
  8
0
 10
343.682972
 20
440.093864
 42
0.030083
  0
VERTEX
  8
0
 10
342.656592
 20
440.568717
 42
0.030896
  0
VERTEX
  8
0
 10
341.641073
 20
440.895586
 42
0.062488
  0
VERTEX
  8
0
 10
340.808870
 20
441.000000
 42
0.258765
  0
VERTEX
  8
0
 10
339.548154
 20
440.300717
 42
0.144639
  0
VERTEX
  8
0
 10
339.065530
 20
438.561382
 42
0.054794
  0
VERTEX
  8
0
 10
339.482368
 20
435.273233
 42
0.010741
  0
VERTEX
  8
0
 10
341.000000
 20
429.500000
 42
-0.030839
  0
VERTEX
  8
0
 10
342.235951
 20
423.890886
 42
-0.023222
  0
VERTEX
  8
0
 10
342.921749
 20
417.611706
 42
-0.014979
  0
VERTEX
  8
0
 10
343.105142
 20
411.952474
 42
-0.414928
  0
VERTEX
  8
0
 10
342.154988
 20
411.000000
 42
-0.136196
  0
VERTEX
  8
0
 10
341.717217
 20
411.121498
 42
-0.026046
  0
VERTEX
  8
0
 10
341.026517
 20
411.587500
 42
-0.026030
  0
VERTEX
  8
0
 10
340.254929
 20
412.234318
 42
-0.021385
  0
VERTEX
  8
0
 10
339.500000
 20
413.000000
 42
0.070654
  0
VERTEX
  8
0
 10
337.429933
 20
414.723023
 42
0.212054
  0
VERTEX
  8
0
 10
335.648340
 20
414.965314
 42
0.213292
  0
VERTEX
  8
0
 10
334.281194
 20
413.806669
 42
0.071416
  0
VERTEX
  8
0
 10
333.476616
 20
411.250000
 42
-0.009957
  0
VERTEX
  8
0
 10
331.548577
 20
400.785904
 42
-0.021342
  0
VERTEX
  8
0
 10
329.559286
 20
392.822661
 42
-0.019734
  0
VERTEX
  8
0
 10
327.620921
 20
387.106569
 42
-0.310541
  0
VERTEX
  8
0
 10
326.011059
 20
386.000000
 42
-0.257392
  0
VERTEX
  8
0
 10
325.678813
 20
386.183170
 42
-0.035601
  0
VERTEX
  8
0
 10
325.292891
 20
386.903352
 42
-0.033500
  0
VERTEX
  8
0
 10
324.925899
 20
387.897051
 42
-0.022356
  0
VERTEX
  8
0
 10
324.634952
 20
389.075241
 42
0.142467
  0
VERTEX
  8
0
 10
323.502129
 20
391.248931
 42
0.356953
  0
VERTEX
  8
0
 10
321.846872
 20
391.451258
 42
0.102630
  0
VERTEX
  8
0
 10
319.437700
 20
389.121583
 42
0.016399
  0
VERTEX
  8
0
 10
315.910656
 20
383.555823
 42
-0.011964
  0
VERTEX
  8
0
 10
313.785586
 20
380.135705
 42
-0.008583
  0
VERTEX
  8
0
 10
311.255604
 20
376.414206
 42
-0.008675
  0
VERTEX
  8
0
 10
308.723125
 20
372.952318
 42
-0.018418
  0
VERTEX
  8
0
 10
306.620647
 20
370.382766
 42
0.009421
  0
VERTEX
  8
0
 10
304.850557
 20
368.297151
 42
0.013246
  0
VERTEX
  8
0
 10
303.357315
 20
366.366816
 42
0.009469
  0
VERTEX
  8
0
 10
302.198405
 20
364.719167
 42
0.149614
  0
VERTEX
  8
0
 10
302.000000
 20
364.070953
 42
0.538726
  0
VERTEX
  8
0
 10
303.572380
 20
363.035144
 42
0.057933
  0
VERTEX
  8
0
 10
308.141202
 20
365.660334
 42
0.040865
  0
VERTEX
  8
0
 10
313.647620
 20
370.479568
 42
0.049954
  0
VERTEX
  8
0
 10
317.896901
 20
375.839334
 42
-0.011697
  0
VERTEX
  8
0
 10
319.882850
 20
378.780465
 42
-0.081076
  0
VERTEX
  8
0
 10
321.100494
 20
380.013543
 42
-0.143523
  0
VERTEX
  8
0
 10
322.333108
 20
380.456230
 42
-0.064363
  0
VERTEX
  8
0
 10
324.066490
 20
380.336702
 42
0.173345
  0
VERTEX
  8
0
 10
328.320722
 20
380.961763
 42
0.114004
  0
VERTEX
  8
0
 10
332.091269
 20
384.243456
 42
0.075957
  0
VERTEX
  8
0
 10
335.167708
 20
390.211557
 42
0.035471
  0
VERTEX
  8
0
 10
337.354273
 20
398.654278
 42
0.000000
  0
VERTEX
  8
0
 10
338.614607
 20
405.483053
 42
0.000000
  0
VERTEX
  8
0
 10
342.325657
 20
405.163328
 42
0.026902
  0
VERTEX
  8
0
 10
344.522111
 20
405.092684
 42
0.134378
  0
VERTEX
  8
0
 10
345.692525
 20
405.440416
 42
0.130634
  0
VERTEX
  8
0
 10
346.540042
 20
406.341009
 42
0.024872
  0
VERTEX
  8
0
 10
347.518353
 20
408.389682
 42
0.056784
  0
VERTEX
  8
0
 10
348.525236
 20
411.860714
 42
0.035705
  0
VERTEX
  8
0
 10
348.936872
 20
416.068928
 42
0.032455
  0
VERTEX
  8
0
 10
348.754875
 20
420.762011
 42
0.026910
  0
VERTEX
  8
0
 10
347.970751
 20
425.700779
 42
-0.012366
  0
VERTEX
  8
0
 10
347.336361
 20
429.062242
 42
-0.055679
  0
VERTEX
  8
0
 10
347.235466
 20
431.056240
 42
-0.161473
  0
VERTEX
  8
0
 10
347.613180
 20
431.999531
 42
-0.307008
  0
VERTEX
  8
0
 10
348.366341
 20
432.211220
 42
0.145741
  0
VERTEX
  8
0
 10
348.849111
 20
432.195618
 42
0.029058
  0
VERTEX
  8
0
 10
349.678394
 20
432.466057
 42
0.028495
  0
VERTEX
  8
0
 10
350.640219
 20
432.907533
 42
0.023193
  0
VERTEX
  8
0
 10
351.616341
 20
433.484273
 42
0.229168
  0
VERTEX
  8
0
 10
353.875107
 20
437.250751
 42
0.087364
  0
VERTEX
  8
0
 10
353.344038
 20
443.510176
 42
0.056919
  0
VERTEX
  8
0
 10
350.083691
 20
451.850716
 42
0.026407
  0
VERTEX
  8
0
 10
344.104535
 20
461.844534
 42
0.009622
  0
VERTEX
  8
0
 10
340.350643
 20
467.201779
 42
0.050085
  0
VERTEX
  8
0
 10
337.946094
 20
469.885782
 42
0.127539
  0
VERTEX
  8
0
 10
336.189791
 20
470.814615
 42
0.260182
  0
SEQEND
  0
POLYLINE
  8
0
 66
1
 70
1
  0
VERTEX
  8
0
 10
189.590776
 20
458.750000
 42
0.052079
  0
VERTEX
  8
0
 10
188.020150
 20
455.658525
 42
0.090625
  0
VERTEX
  8
0
 10
187.491866
 20
452.839423
 42
0.076406
  0
VERTEX
  8
0
 10
187.961187
 20
449.692093
 42
0.028358
  0
VERTEX
  8
0
 10
189.531233
 20
445.485761
 42
0.049809
  0
VERTEX
  8
0
 10
193.400394
 20
438.624758
 42
0.080603
  0
VERTEX
  8
0
 10
198.072673
 20
433.843529
 42
0.082183
  0
VERTEX
  8
0
 10
203.947399
 20
430.844077
 42
0.053791
  0
VERTEX
  8
0
 10
211.415182
 20
429.325690
 42
0.047044
  0
VERTEX
  8
0
 10
217.561329
 20
429.331269
 42
0.052178
  0
VERTEX
  8
0
 10
223.379753
 20
430.505809
 42
0.053047
  0
VERTEX
  8
0
 10
228.746634
 20
432.834887
 42
0.051633
  0
VERTEX
  8
0
 10
233.556444
 20
436.258599
 42
0.042390
  0
VERTEX
  8
0
 10
237.680477
 20
440.560606
 42
0.066123
  0
VERTEX
  8
0
 10
240.348688
 20
444.937115
 42
0.105434
  0
VERTEX
  8
0
 10
241.071280
 20
448.406318
 42
0.311896
  0
VERTEX
  8
0
 10
239.750000
 20
450.299159
 42
0.087122
  0
VERTEX
  8
0
 10
238.841427
 20
450.467228
 42
0.003228
  0
VERTEX
  8
0
 10
235.342187
 20
450.476513
 42
0.005778
  0
VERTEX
  8
0
 10
231.188403
 20
450.412715
 42
0.004019
  0
VERTEX
  8
0
 10
226.500000
 20
450.248778
 42
-0.017176
  0
VERTEX
  8
0
 10
218.075496
 20
450.175968
 42
-0.012342
  0
VERTEX
  8
0
 10
208.676481
 20
450.649967
 42
-0.011881
  0
VERTEX
  8
0
 10
200.054827
 20
451.504834
 42
-0.042481
  0
VERTEX
  8
0
 10
194.638620
 20
452.645121
 42
-0.092644
  0
VERTEX
  8
0
 10
193.717008
 20
453.121616
 42
-0.160847
  0
VERTEX
  8
0
 10
193.242541
 20
453.830398
 42
-0.090385
  0
VERTEX
  8
0
 10
193.137034
 20
454.991012
 42
-0.017237
  0
VERTEX
  8
0
 10
193.400438
 20
457.102738
 42
0.015255
  0
VERTEX
  8
0
 10
193.657101
 20
459.096050
 42
0.079190
  0
VERTEX
  8
0
 10
193.590219
 20
460.200204
 42
0.180892
  0
VERTEX
  8
0
 10
193.216149
 20
460.775585
 42
0.160461
  0
VERTEX
  8
0
 10
192.534871
 20
461.000000
 42
0.116285
  0
VERTEX
  8
0
 10
191.860441
 20
460.840998
 42
0.047409
  0
VERTEX
  8
0
 10
191.055927
 20
460.339063
 42
0.043542
  0
VERTEX
  8
0
 10
190.257714
 20
459.610834
 42
0.042539
  0
SEQEND
  0
POLYLINE
  8
0
 66
1
 70
1
  0
VERTEX
  8
0
 10
201.913462
 20
444.616264
 42
0.070017
  0
VERTEX
  8
0
 10
202.234115
 20
444.029637
 42
0.012107
  0
VERTEX
  8
0
 10
203.016106
 20
443.030847
 42
0.012961
  0
VERTEX
  8
0
 10
203.999706
 20
441.896595
 42
0.011274
  0
VERTEX
  8
0
 10
205.086538
 20
440.759615
 42
0.094215
  0
VERTEX
  8
0
 10
208.093145
 20
438.713597
 42
0.094303
  0
VERTEX
  8
0
 10
211.639813
 20
437.914535
 42
0.095652
  0
VERTEX
  8
0
 10
215.190198
 20
438.477207
 42
0.100211
  0
VERTEX
  8
0
 10
218.210361
 20
440.319152
 42
0.013672
  0
VERTEX
  8
0
 10
219.197227
 20
441.285226
 42
0.015251
  0
VERTEX
  8
0
 10
220.093311
 20
442.270151
 42
0.014686
  0
VERTEX
  8
0
 10
220.803241
 20
443.151059
 42
0.073936
  0
VERTEX
  8
0
 10
221.106384
 20
443.704169
 42
-0.237447
  0
VERTEX
  8
0
 10
221.592057
 20
444.157327
 42
-0.014563
  0
VERTEX
  8
0
 10
223.565362
 20
444.672552
 42
-0.019135
  0
VERTEX
  8
0
 10
226.051124
 20
445.145478
 42
-0.012801
  0
VERTEX
  8
0
 10
228.924635
 20
445.504046
 42
0.000000
  0
VERTEX
  8
0
 10
236.349270
 20
446.238059
 42
0.000000
  0
VERTEX
  8
0
 10
233.924635
 20
443.251970
 42
-0.066916
  0
VERTEX
  8
0
 10
228.841036
 20
438.466857
 42
-0.065830
  0
VERTEX
  8
0
 10
222.647090
 20
435.162617
 42
-0.067893
  0
VERTEX
  8
0
 10
215.993332
 20
433.653671
 42
-0.080140
  0
VERTEX
  8
0
 10
209.561448
 20
434.120859
 42
-0.032668
  0
VERTEX
  8
0
 10
205.026647
 20
435.512517
 42
-0.047197
  0
VERTEX
  8
0
 10
201.266685
 20
437.363216
 42
-0.053167
  0
VERTEX
  8
0
 10
198.274169
 20
439.675937
 42
-0.063343
  0
VERTEX
  8
0
 10
196.032286
 20
442.447761
 42
-0.008527
  0
VERTEX
  8
0
 10
195.253885
 20
443.756634
 42
-0.011472
  0
VERTEX
  8
0
 10
194.596984
 20
444.969079
 42
-0.008687
  0
VERTEX
  8
0
 10
194.093100
 20
445.995874
 42
-0.110151
  0
VERTEX
  8
0
 10
194.000000
 20
446.413347
 42
-0.456004
  0
VERTEX
  8
0
 10
194.627013
 20
446.957895
 42
-0.020692
  0
VERTEX
  8
0
 10
197.787075
 20
446.376571
 42
-0.021235
  0
VERTEX
  8
0
 10
200.972314
 20
445.509526
 42
-0.229438
  0
SEQEND
  0
POLYLINE
  8
0
 66
1
 70
1
  0
VERTEX
  8
0
 10
195.383786
 20
430.557748
 42
0.212559
  0
VERTEX
  8
0
 10
195.486214
 20
428.607676
 42
0.088599
  0
VERTEX
  8
0
 10
197.111539
 20
426.461201
 42
0.055370
  0
VERTEX
  8
0
 10
200.256150
 20
424.142617
 42
0.022246
  0
VERTEX
  8
0
 10
205.000000
 20
421.671562
 42
0.049617
  0
VERTEX
  8
0
 10
211.132649
 20
419.525739
 42
0.045315
  0
VERTEX
  8
0
 10
217.758766
 20
418.545538
 42
0.048015
  0
VERTEX
  8
0
 10
223.952972
 20
418.791337
 42
0.087904
  0
VERTEX
  8
0
 10
228.750000
 20
420.333123
 42
0.032974
  0
VERTEX
  8
0
 10
231.774695
 20
422.196993
 42
0.461624
  0
VERTEX
  8
0
 10
231.873287
 20
423.318870
 42
0.208528
  0
VERTEX
  8
0
 10
230.251649
 20
423.970963
 42
0.016071
  0
VERTEX
  8
0
 10
225.458517
 20
423.678357
 42
-0.037307
  0
VERTEX
  8
0
 10
218.252795
 20
423.544806
 42
-0.045462
  0
VERTEX
  8
0
 10
211.581263
 20
424.532024
 42
-0.046306
  0
VERTEX
  8
0
 10
205.299248
 20
426.685985
 42
-0.041193
  0
VERTEX
  8
0
 10
199.255067
 20
430.028867
 42
0.010637
  0
VERTEX
  8
0
 10
197.344924
 20
431.243171
 42
0.102663
  0
VERTEX
  8
0
 10
196.443292
 20
431.562501
 42
0.251344
  0
VERTEX
  8
0
 10
195.860083
 20
431.345167
 42
0.089032
  0
SEQEND
  0
POLYLINE
  8
0
 66
1
 70
1
  0
VERTEX
  8
0
 10
134.500000
 20
381.983899
 42
0.038083
  0
VERTEX
  8
0
 10
127.321410
 20
379.975539
 42
0.076614
  0
VERTEX
  8
0
 10
122.178213
 20
377.153394
 42
0.103187
  0
VERTEX
  8
0
 10
119.097545
 20
373.571901
 42
0.126854
  0
VERTEX
  8
0
 10
118.000000
 20
369.315481
 42
0.061532
  0
VERTEX
  8
0
 10
118.399402
 20
366.082270
 42
0.060965
  0
VERTEX
  8
0
 10
119.573826
 20
363.032610
 42
0.054608
  0
VERTEX
  8
0
 10
121.583482
 20
360.085516
 42
0.035684
  0
VERTEX
  8
0
 10
124.476721
 20
357.154583
 42
0.033326
  0
VERTEX
  8
0
 10
128.768153
 20
353.865686
 42
0.045547
  0
VERTEX
  8
0
 10
133.048609
 20
351.548071
 42
0.049405
  0
VERTEX
  8
0
 10
137.379971
 20
350.177370
 42
0.051986
  0
VERTEX
  8
0
 10
141.821823
 20
349.714286
 42
0.026979
  0
VERTEX
  8
0
 10
144.918400
 20
349.881492
 42
0.060109
  0
VERTEX
  8
0
 10
147.213766
 20
350.414006
 42
0.051446
  0
VERTEX
  8
0
 10
149.526582
 20
351.533612
 42
0.015460
  0
VERTEX
  8
0
 10
152.791911
 20
353.694280
 42
0.025808
  0
VERTEX
  8
0
 10
158.034874
 20
357.823162
 42
0.053079
  0
VERTEX
  8
0
 10
161.576761
 20
361.655306
 42
0.066066
  0
VERTEX
  8
0
 10
163.734691
 20
365.530818
 42
0.070196
  0
VERTEX
  8
0
 10
164.750583
 20
369.756063
 42
0.021671
  0
VERTEX
  8
0
 10
164.894228
 20
372.491796
 42
0.069615
  0
VERTEX
  8
0
 10
164.658521
 20
374.296351
 42
0.077082
  0
VERTEX
  8
0
 10
163.952450
 20
375.865838
 42
0.030734
  0
VERTEX
  8
0
 10
162.543297
 20
377.766175
 42
0.043164
  0
VERTEX
  8
0
 10
161.251423
 20
379.057062
 42
0.028768
  0
VERTEX
  8
0
 10
159.573622
 20
380.309445
 42
0.028978
  0
VERTEX
  8
0
 10
157.791402
 20
381.343553
 42
0.049266
  0
VERTEX
  8
0
 10
156.185724
 20
381.965167
 42
0.051587
  0
VERTEX
  8
0
 10
152.136846
 20
382.651144
 42
0.015972
  0
VERTEX
  8
0
 10
145.952609
 20
382.854095
 42
0.016531
  0
VERTEX
  8
0
 10
139.538346
 20
382.647519
 42
0.032865
  0
SEQEND
  0
POLYLINE
  8
0
 66
1
 70
1
  0
VERTEX
  8
0
 10
260.000000
 20
363.305840
 42
-0.062277
  0
VERTEX
  8
0
 10
259.573019
 20
359.891037
 42
-0.098315
  0
VERTEX
  8
0
 10
258.306956
 20
357.234814
 42
-0.098173
  0
VERTEX
  8
0
 10
256.120566
 20
355.261216
 42
-0.061948
  0
VERTEX
  8
0
 10
252.963820
 20
353.871014
 42
0.039742
  0
VERTEX
  8
0
 10
249.814006
 20
352.647367
 42
0.295699
  0
VERTEX
  8
0
 10
249.019212
 20
351.338731
 42
0.353407
  0
VERTEX
  8
0
 10
249.918623
 20
350.289411
 42
0.045722
  0
VERTEX
  8
0
 10
253.076923
 20
350.000000
 42
0.126154
  0
VERTEX
  8
0
 10
257.767767
 20
351.202674
 42
0.107203
  0
VERTEX
  8
0
 10
261.636447
 20
354.565448
 42
0.109572
  0
VERTEX
  8
0
 10
263.707186
 20
359.160632
 42
0.137078
  0
VERTEX
  8
0
 10
263.393654
 20
363.808718
 42
0.046480
  0
VERTEX
  8
0
 10
262.279224
 20
366.221448
 42
0.307232
  0
VERTEX
  8
0
 10
261.143670
 20
366.768647
 42
0.318150
  0
VERTEX
  8
0
 10
260.250664
 20
365.914503
 42
0.047934
  0
SEQEND
  0
POLYLINE
  8
0
 66
1
 70
1
  0
VERTEX
  8
0
 10
328.572187
 20
303.750000
 42
0.026940
  0
VERTEX
  8
0
 10
328.358485
 20
302.339096
 42
0.002957
  0
VERTEX
  8
0
 10
328.062279
 20
299.076562
 42
0.003607
  0
VERTEX
  8
0
 10
327.760439
 20
295.185324
 42
0.002908
  0
VERTEX
  8
0
 10
327.490595
 20
291.000000
 42
-0.023027
  0
VERTEX
  8
0
 10
326.527785
 20
281.830222
 42
-0.018143
  0
VERTEX
  8
0
 10
324.671912
 20
272.018635
 42
-0.015020
  0
VERTEX
  8
0
 10
321.740243
 20
260.691505
 42
-0.007922
  0
VERTEX
  8
0
 10
317.458880
 20
246.808824
 42
0.007199
  0
VERTEX
  8
0
 10
313.199460
 20
233.067924
 42
0.018440
  0
VERTEX
  8
0
 10
310.630325
 20
222.977596
 42
0.022812
  0
VERTEX
  8
0
 10
309.131757
 20
214.078197
 42
0.018203
  0
VERTEX
  8
0
 10
308.307400
 20
204.381023
 42
0.034026
  0
VERTEX
  8
0
 10
308.578103
 20
190.587340
 42
0.064790
  0
VERTEX
  8
0
 10
310.963473
 20
179.770422
 42
0.084511
  0
VERTEX
  8
0
 10
315.402535
 20
171.928021
 42
0.116022
  0
VERTEX
  8
0
 10
321.801738
 20
167.001489
 42
-0.003469
  0
VERTEX
  8
0
 10
323.911940
 20
166.028535
 42
-0.002144
  0
VERTEX
  8
0
 10
326.379846
 20
164.856886
 42
-0.002149
  0
VERTEX
  8
0
 10
328.808336
 20
163.678295
 42
-0.003863
  0
VERTEX
  8
0
 10
330.789227
 20
162.687329
 42
0.058876
  0
VERTEX
  8
0
 10
334.867533
 20
161.180275
 42
0.056911
  0
VERTEX
  8
0
 10
339.232383
 20
160.642232
 42
0.060268
  0
VERTEX
  8
0
 10
343.348305
 20
161.102825
 42
0.088134
  0
VERTEX
  8
0
 10
346.688090
 20
162.545058
 42
-0.045729
  0
VERTEX
  8
0
 10
348.029226
 20
163.263964
 42
-0.026655
  0
VERTEX
  8
0
 10
349.746610
 20
163.885748
 42
-0.026479
  0
VERTEX
  8
0
 10
351.548087
 20
164.328757
 42
-0.040137
  0
VERTEX
  8
0
 10
353.151434
 20
164.502519
 42
0.129995
  0
VERTEX
  8
0
 10
359.504399
 20
166.372495
 42
0.097229
  0
VERTEX
  8
0
 10
364.923394
 20
171.307125
 42
0.078827
  0
VERTEX
  8
0
 10
368.918762
 20
178.963382
 42
0.051651
  0
VERTEX
  8
0
 10
371.099111
 20
188.693955
 42
-0.034372
  0
VERTEX
  8
0
 10
373.354587
 20
200.684057
 42
-0.055767
  0
VERTEX
  8
0
 10
377.062085
 20
210.355300
 42
-0.047749
  0
VERTEX
  8
0
 10
383.252915
 20
219.952142
 42
-0.018673
  0
VERTEX
  8
0
 10
393.489071
 20
231.965736
 42
0.023836
  0
VERTEX
  8
0
 10
400.929373
 20
240.882838
 42
0.032357
  0
VERTEX
  8
0
 10
406.700197
 20
249.633528
 42
0.036755
  0
VERTEX
  8
0
 10
410.640564
 20
257.899403
 42
0.061844
  0
VERTEX
  8
0
 10
412.523290
 20
265.340109
 42
0.026753
  0
VERTEX
  8
0
 10
412.863251
 20
270.133519
 42
0.057195
  0
VERTEX
  8
0
 10
412.504517
 20
273.821936
 42
0.090332
  0
VERTEX
  8
0
 10
411.533064
 20
276.175914
 42
0.255136
  0
VERTEX
  8
0
 10
410.023200
 20
277.000000
 42
0.177182
  0
VERTEX
  8
0
 10
409.064660
 20
276.649318
 42
0.111967
  0
VERTEX
  8
0
 10
408.339504
 20
275.688141
 42
0.052297
  0
VERTEX
  8
0
 10
407.728574
 20
273.837390
 42
0.010482
  0
VERTEX
  8
0
 10
407.060118
 20
270.423823
 42
-0.039078
  0
VERTEX
  8
0
 10
404.558449
 20
260.648129
 42
-0.048030
  0
VERTEX
  8
0
 10
400.679528
 20
252.069134
 42
-0.040642
  0
VERTEX
  8
0
 10
394.689806
 20
243.348813
 42
-0.018762
  0
VERTEX
  8
0
 10
385.601863
 20
233.000000
 42
0.033613
  0
VERTEX
  8
0
 10
377.393544
 20
223.073571
 42
0.047599
  0
VERTEX
  8
0
 10
371.615337
 20
213.180309
 42
0.047315
  0
VERTEX
  8
0
 10
367.789097
 20
202.326665
 42
0.032685
  0
VERTEX
  8
0
 10
365.468009
 20
189.500000
 42
-0.030423
  0
VERTEX
  8
0
 10
364.572907
 20
184.422667
 42
-0.038020
  0
VERTEX
  8
0
 10
363.107318
 20
179.868262
 42
-0.042508
  0
VERTEX
  8
0
 10
361.177945
 20
176.091551
 42
-0.071006
  0
VERTEX
  8
0
 10
358.885835
 20
173.364935
 42
-0.085226
  0
VERTEX
  8
0
 10
354.811540
 20
170.810870
 42
-0.215010
  0
VERTEX
  8
0
 10
351.391513
 20
170.926058
 42
-0.167405
  0
VERTEX
  8
0
 10
348.615117
 20
173.722376
 42
-0.050067
  0
VERTEX
  8
0
 10
346.525418
 20
179.446443
 42
0.011295
  0
VERTEX
  8
0
 10
345.867542
 20
181.799908
 42
0.014067
  0
VERTEX
  8
0
 10
345.146089
 20
183.953145
 42
0.012346
  0
VERTEX
  8
0
 10
344.451661
 20
185.711528
 42
0.096443
  0
VERTEX
  8
0
 10
343.961916
 20
186.438084
 42
0.528849
  0
VERTEX
  8
0
 10
342.220642
 20
186.107677
 42
0.093372
  0
VERTEX
  8
0
 10
341.327466
 20
182.189963
 42
0.050645
  0
VERTEX
  8
0
 10
341.715302
 20
176.066773
 42
0.074709
  0
VERTEX
  8
0
 10
343.373959
 20
170.952201
 42
-0.014494
  0
VERTEX
  8
0
 10
344.274197
 20
169.008561
 42
-0.169360
  0
VERTEX
  8
0
 10
344.331179
 20
168.186782
 42
-0.213762
  0
VERTEX
  8
0
 10
343.854452
 20
167.606207
 42
-0.024704
  0
VERTEX
  8
0
 10
342.272229
 20
166.913402
 42
-0.131795
  0
VERTEX
  8
0
 10
337.246783
 20
166.402871
 42
-0.159651
  0
VERTEX
  8
0
 10
333.058629
 20
168.569805
 42
-0.107376
  0
VERTEX
  8
0
 10
329.827735
 20
173.691621
 42
-0.041605
  0
VERTEX
  8
0
 10
327.613379
 20
181.829541
 42
0.013293
  0
VERTEX
  8
0
 10
327.073610
 20
184.373289
 42
0.021932
  0
VERTEX
  8
0
 10
326.467447
 20
186.484985
 42
0.017718
  0
VERTEX
  8
0
 10
325.867820
 20
188.083739
 42
0.357933
  0
VERTEX
  8
0
 10
325.441132
 20
188.310832
 42
0.276545
  0
VERTEX
  8
0
 10
324.309970
 20
187.282200
 42
0.038464
  0
VERTEX
  8
0
 10
323.600661
 20
184.054835
 42
0.039881
  0
VERTEX
  8
0
 10
323.368790
 20
180.177504
 42
0.047571
  0
VERTEX
  8
0
 10
323.789083
 20
176.540808
 42
-0.015994
  0
VERTEX
  8
0
 10
324.102615
 20
174.799493
 42
-0.027605
  0
VERTEX
  8
0
 10
324.236305
 20
173.333862
 42
-0.027870
  0
VERTEX
  8
0
 10
324.214550
 20
172.243789
 42
-0.392217
  0
VERTEX
  8
0
 10
323.951576
 20
172.000000
 42
-0.230328
  0
VERTEX
  8
0
 10
322.155592
 20
172.873681
 42
-0.026626
  0
VERTEX
  8
0
 10
319.506803
 20
176.647127
 42
-0.031354
  0
VERTEX
  8
0
 10
317.032916
 20
181.217716
 42
-0.042293
  0
VERTEX
  8
0
 10
315.426188
 20
185.634615
 42
-0.054292
  0
VERTEX
  8
0
 10
314.194580
 20
193.471754
 42
-0.024940
  0
VERTEX
  8
0
 10
314.220152
 20
203.823840
 42
-0.023798
  0
VERTEX
  8
0
 10
315.352797
 20
215.120864
 42
-0.025484
  0
VERTEX
  8
0
 10
317.540804
 20
226.000000
 42
-0.004434
  0
VERTEX
  8
0
 10
318.622819
 20
230.095436
 42
-0.006329
  0
VERTEX
  8
0
 10
319.661337
 20
233.709375
 42
-0.003685
  0
VERTEX
  8
0
 10
320.594764
 20
236.728468
 42
-0.090308
  0
VERTEX
  8
0
 10
321.003667
 20
237.500000
 42
0.092564
  0
VERTEX
  8
0
 10
322.230761
 20
239.840573
 42
0.001931
  0
VERTEX
  8
0
 10
326.059651
 20
252.467812
 42
0.004889
  0
VERTEX
  8
0
 10
329.563874
 20
264.618765
 42
0.016234
  0
VERTEX
  8
0
 10
331.528686
 20
272.699188
 42
0.029997
  0
VERTEX
  8
0
 10
332.544070
 20
279.600291
 42
0.013559
  0
VERTEX
  8
0
 10
333.083326
 20
288.730668
 42
0.012766
  0
VERTEX
  8
0
 10
333.139464
 20
297.574497
 42
0.049295
  0
VERTEX
  8
0
 10
332.495570
 20
303.020170
 42
0.076936
  0
VERTEX
  8
0
 10
331.706965
 20
305.054747
 42
0.219302
  0
VERTEX
  8
0
 10
330.496599
 20
305.910981
 42
0.288624
  0
VERTEX
  8
0
 10
329.324147
 20
305.445328
 42
0.107050
  0
SEQEND
  0
POLYLINE
  8
0
 66
1
 70
1
  0
VERTEX
  8
0
 10
413.609568
 20
292.424933
 42
0.090981
  0
VERTEX
  8
0
 10
413.426731
 20
291.447633
 42
0.012278
  0
VERTEX
  8
0
 10
413.470902
 20
289.351780
 42
0.013828
  0
VERTEX
  8
0
 10
413.654854
 20
286.846089
 42
0.011251
  0
VERTEX
  8
0
 10
413.986259
 20
284.174933
 42
-0.004772
  0
VERTEX
  8
0
 10
414.381443
 20
281.295556
 42
-0.003728
  0
VERTEX
  8
0
 10
414.757394
 20
278.161717
 42
-0.003769
  0
VERTEX
  8
0
 10
415.063722
 20
275.238200
 42
-0.009178
  0
VERTEX
  8
0
 10
415.233681
 20
273.077721
 42
0.038727
  0
VERTEX
  8
0
 10
415.680344
 20
269.851308
 42
0.202206
  0
VERTEX
  8
0
 10
416.691975
 20
268.416184
 42
0.378788
  0
VERTEX
  8
0
 10
417.904330
 20
268.619830
 42
0.076972
  0
VERTEX
  8
0
 10
419.095356
 20
270.668718
 42
0.092047
  0
VERTEX
  8
0
 10
419.845928
 20
274.585360
 42
0.020456
  0
VERTEX
  8
0
 10
419.605264
 20
281.430983
 42
0.019692
  0
VERTEX
  8
0
 10
418.819360
 20
288.209423
 42
0.106711
  0
VERTEX
  8
0
 10
417.497083
 20
291.644796
 42
0.036261
  0
VERTEX
  8
0
 10
416.235708
 20
293.295372
 42
0.163363
  0
VERTEX
  8
0
 10
415.197785
 20
293.892285
 42
0.265902
  0
VERTEX
  8
0
 10
414.327979
 20
293.602369
 42
0.090970
  0
SEQEND
  0
POLYLINE
  8
0
 66
1
 70
1
  0
VERTEX
  8
0
 10
236.338057
 20
277.851473
 42
0.042866
  0
VERTEX
  8
0
 10
233.575095
 20
276.977026
 42
0.062328
  0
VERTEX
  8
0
 10
231.354912
 20
275.715577
 42
0.098855
  0
VERTEX
  8
0
 10
230.179986
 20
274.409389
 42
0.342768
  0
VERTEX
  8
0
 10
230.312546
 20
273.354121
 42
0.212988
  0
VERTEX
  8
0
 10
230.805881
 20
273.165214
 42
0.009214
  0
VERTEX
  8
0
 10
232.697462
 20
273.302476
 42
0.014327
  0
VERTEX
  8
0
 10
234.988408
 20
273.577591
 42
0.009582
  0
VERTEX
  8
0
 10
237.592299
 20
274.017416
 42
-0.039127
  0
VERTEX
  8
0
 10
244.854155
 20
274.806815
 42
-0.026280
  0
VERTEX
  8
0
 10
253.203316
 20
274.619075
 42
-0.025290
  0
VERTEX
  8
0
 10
261.910002
 20
273.519745
 42
-0.027042
  0
VERTEX
  8
0
 10
270.265110
 20
271.561367
 42
0.005189
  0
VERTEX
  8
0
 10
276.311615
 20
269.862346
 42
0.028980
  0
VERTEX
  8
0
 10
279.605732
 20
269.175347
 42
0.067348
  0
VERTEX
  8
0
 10
281.411778
 20
269.151562
 42
0.379109
  0
VERTEX
  8
0
 10
282.000000
 20
269.815859
 42
0.271954
  0
VERTEX
  8
0
 10
281.199700
 20
271.178428
 42
0.018897
  0
VERTEX
  8
0
 10
277.075810
 20
273.277786
 42
0.024342
  0
VERTEX
  8
0
 10
271.948474
 20
275.352006
 42
0.021341
  0
VERTEX
  8
0
 10
266.415373
 20
277.021644
 42
0.034968
  0
VERTEX
  8
0
 10
259.474534
 20
278.288123
 42
0.020751
  0
VERTEX
  8
0
 10
251.080586
 20
278.868891
 42
0.020805
  0
VERTEX
  8
0
 10
242.818795
 20
278.753051
 42
0.041327
  0
SEQEND
  0
POLYLINE
  8
0
 66
1
 70
1
  0
VERTEX
  8
0
 10
232.571429
 20
253.428571
 42
0.036185
  0
VERTEX
  8
0
 10
231.970082
 20
252.733263
 42
0.034033
  0
VERTEX
  8
0
 10
231.461607
 20
251.944635
 42
0.035876
  0
VERTEX
  8
0
 10
231.109348
 20
251.182434
 42
0.090546
  0
VERTEX
  8
0
 10
231.000000
 20
250.583559
 42
0.219525
  0
VERTEX
  8
0
 10
232.029663
 20
248.351375
 42
0.041374
  0
VERTEX
  8
0
 10
235.770549
 20
245.659749
 42
0.043186
  0
VERTEX
  8
0
 10
240.072077
 20
243.556968
 42
0.128306
  0
VERTEX
  8
0
 10
243.307469
 20
243.189319
 42
0.151079
  0
VERTEX
  8
0
 10
245.186574
 20
244.078466
 42
0.290334
  0
VERTEX
  8
0
 10
245.604546
 20
245.625866
 42
0.120786
  0
VERTEX
  8
0
 10
244.231272
 20
247.907917
 42
0.029068
  0
VERTEX
  8
0
 10
240.918743
 20
250.875623
 42
0.007242
  0
VERTEX
  8
0
 10
237.053814
 20
253.862497
 42
0.086881
  0
VERTEX
  8
0
 10
235.380323
 20
254.712854
 42
0.203542
  0
VERTEX
  8
0
 10
234.096102
 20
254.577785
 42
0.069866
  0
SEQEND
  0
POLYLINE
  8
0
 66
1
 70
1
  0
VERTEX
  8
0
 10
196.198816
 20
248.525624
 42
0.121976
  0
VERTEX
  8
0
 10
193.583326
 20
242.727543
 42
0.034206
  0
VERTEX
  8
0
 10
192.458083
 20
232.778911
 42
0.035166
  0
VERTEX
  8
0
 10
192.726237
 20
222.492145
 42
0.085817
  0
VERTEX
  8
0
 10
194.723770
 20
215.205949
 42
0.159003
  0
VERTEX
  8
0
 10
199.020823
 20
210.631672
 42
0.102876
  0
VERTEX
  8
0
 10
206.027529
 20
208.493071
 42
0.098942
  0
VERTEX
  8
0
 10
213.546793
 20
209.293355
 42
0.135029
  0
VERTEX
  8
0
 10
219.250000
 20
212.962689
 42
0.036286
  0
VERTEX
  8
0
 10
220.691163
 20
214.826855
 42
0.070912
  0
VERTEX
  8
0
 10
221.496155
 20
216.519228
 42
0.058092
  0
VERTEX
  8
0
 10
221.885431
 20
218.584012
 42
0.017737
  0
VERTEX
  8
0
 10
221.996262
 20
221.765777
 42
0.076884
  0
VERTEX
  8
0
 10
220.973006
 20
228.352538
 42
0.130206
  0
VERTEX
  8
0
 10
217.995607
 20
233.033265
 42
0.147658
  0
VERTEX
  8
0
 10
213.398484
 20
235.265876
 42
0.109992
  0
VERTEX
  8
0
 10
207.737413
 20
234.924691
 42
-0.002965
  0
VERTEX
  8
0
 10
206.473949
 20
234.570429
 42
-0.004212
  0
VERTEX
  8
0
 10
205.346261
 20
234.271628
 42
-0.002409
  0
VERTEX
  8
0
 10
204.392571
 20
234.032401
 42
-0.060311
  0
VERTEX
  8
0
 10
204.124933
 20
234.000000
 42
-0.448101
  0
VERTEX
  8
0
 10
203.871663
 20
234.284007
 42
-0.004063
  0
VERTEX
  8
0
 10
204.260620
 20
237.445281
 42
-0.011049
  0
VERTEX
  8
0
 10
204.800275
 20
240.953122
 42
-0.009731
  0
VERTEX
  8
0
 10
205.514863
 20
244.586310
 42
0.156082
  0
VERTEX
  8
0
 10
205.164612
 20
248.223530
 42
0.193637
  0
VERTEX
  8
0
 10
202.772651
 20
250.602096
 42
0.184482
  0
VERTEX
  8
0
 10
199.298491
 20
250.724395
 42
0.144648
  0
SEQEND
  0
POLYLINE
  8
0
 66
1
 70
1
  0
VERTEX
  8
0
 10
210.954319
 20
225.555042
 42
-0.175594
  0
VERTEX
  8
0
 10
211.925178
 20
222.854192
 42
-0.149250
  0
VERTEX
  8
0
 10
211.028427
 20
219.943643
 42
-0.170601
  0
VERTEX
  8
0
 10
208.778204
 20
218.276421
 42
-0.218284
  0
VERTEX
  8
0
 10
206.250000
 20
218.607242
 42
-0.163882
  0
VERTEX
  8
0
 10
204.499584
 20
220.745542
 42
-0.142624
  0
VERTEX
  8
0
 10
204.273841
 20
223.642445
 42
-0.153620
  0
VERTEX
  8
0
 10
205.626422
 20
226.058130
 42
-0.191157
  0
VERTEX
  8
0
 10
208.000000
 20
227.000000
 42
-0.069280
  0
VERTEX
  8
0
 10
208.759836
 20
226.894209
 42
-0.044582
  0
VERTEX
  8
0
 10
209.591814
 20
226.575544
 42
-0.044127
  0
VERTEX
  8
0
 10
210.366182
 20
226.108110
 42
-0.061776
  0
SEQEND
  0
POLYLINE
  8
0
 66
1
 70
1
  0
VERTEX
  8
0
 10
261.860784
 20
239.090530
 42
0.087573
  0
VERTEX
  8
0
 10
260.529716
 20
237.560581
 42
0.087757
  0
VERTEX
  8
0
 10
259.804042
 20
235.668503
 42
0.036852
  0
VERTEX
  8
0
 10
259.429935
 20
232.499129
 42
0.004048
  0
VERTEX
  8
0
 10
259.168239
 20
225.177560
 42
0.010006
  0
VERTEX
  8
0
 10
259.099075
 20
216.100453
 42
0.074326
  0
VERTEX
  8
0
 10
259.788536
 20
211.848994
 42
0.185418
  0
VERTEX
  8
0
 10
261.446312
 20
209.781358
 42
0.132849
  0
VERTEX
  8
0
 10
264.335184
 20
209.000000
 42
0.074346
  0
VERTEX
  8
0
 10
267.298880
 20
209.443129
 42
0.189294
  0
VERTEX
  8
0
 10
268.972321
 20
210.771645
 42
0.112810
  0
VERTEX
  8
0
 10
269.796200
 20
213.425936
 42
0.019076
  0
VERTEX
  8
0
 10
270.000000
 20
218.765741
 42
-0.018935
  0
VERTEX
  8
0
 10
270.201830
 20
224.093427
 42
-0.066680
  0
VERTEX
  8
0
 10
270.911347
 20
227.440423
 42
-0.126223
  0
VERTEX
  8
0
 10
272.167260
 20
229.303340
 42
-0.183650
  0
VERTEX
  8
0
 10
274.000000
 20
230.000000
 42
-0.180650
  0
VERTEX
  8
0
 10
275.899712
 20
229.290479
 42
-0.140135
  0
VERTEX
  8
0
 10
277.114133
 20
227.426531
 42
-0.075250
  0
VERTEX
  8
0
 10
277.608106
 20
224.130884
 42
-0.022813
  0
VERTEX
  8
0
 10
277.369686
 20
219.067821
 42
0.023079
  0
VERTEX
  8
0
 10
277.123162
 20
213.772722
 42
0.120201
  0
VERTEX
  8
0
 10
277.809668
 20
210.953759
 42
0.195616
  0
VERTEX
  8
0
 10
279.519562
 20
209.494995
 42
0.080160
  0
VERTEX
  8
0
 10
282.587261
 20
209.000000
 42
0.108878
  0
VERTEX
  8
0
 10
285.272567
 20
209.591756
 42
0.157316
  0
VERTEX
  8
0
 10
287.044628
 20
211.229004
 42
0.090101
  0
VERTEX
  8
0
 10
288.130657
 20
214.367593
 42
0.020694
  0
VERTEX
  8
0
 10
288.760039
 20
219.962099
 42
0.032669
  0
VERTEX
  8
0
 10
288.789786
 20
225.541339
 42
0.044554
  0
VERTEX
  8
0
 10
288.043417
 20
230.512305
 42
0.051338
  0
VERTEX
  8
0
 10
286.586026
 20
234.623550
 42
0.085745
  0
VERTEX
  8
0
 10
284.475957
 20
237.614952
 42
0.107629
  0
VERTEX
  8
0
 10
281.757366
 20
239.361192
 42
0.083243
  0
VERTEX
  8
0
 10
278.291090
 20
240.029377
 42
0.080886
  0
VERTEX
  8
0
 10
274.702564
 20
239.534316
 42
0.092262
  0
VERTEX
  8
0
 10
271.634859
 20
237.927420
 42
-0.011684
  0
VERTEX
  8
0
 10
270.221033
 20
236.867827
 42
-0.105234
  0
VERTEX
  8
0
 10
269.515489
 20
236.561102
 42
-0.345643
  0
VERTEX
  8
0
 10
269.144195
 20
236.747464
 42
-0.110454
  0
VERTEX
  8
0
 10
269.000000
 20
237.392236
 42
0.170295
  0
VERTEX
  8
0
 10
268.631371
 20
238.443169
 42
0.050213
  0
VERTEX
  8
0
 10
267.419093
 20
239.680797
 42
0.050405
  0
VERTEX
  8
0
 10
265.939372
 20
240.681607
 42
0.124119
  0
VERTEX
  8
0
 10
264.676525
 20
241.000000
 42
0.141287
  0
VERTEX
  8
0
 10
264.396961
 20
240.919394
 42
0.008619
  0
VERTEX
  8
0
 10
263.661731
 20
240.439093
 42
0.012295
  0
VERTEX
  8
0
 10
262.798266
 20
239.822015
 42
0.008755
  0
SEQEND
  0
POLYLINE
  8
0
 66
1
 70
1
  0
VERTEX
  8
0
 10
226.872445
 20
238.346305
 42
0.109195
  0
VERTEX
  8
0
 10
226.261065
 20
237.158051
 42
0.030602
  0
VERTEX
  8
0
 10
225.850948
 20
235.097681
 42
0.024199
  0
VERTEX
  8
0
 10
225.605956
 20
232.285802
 42
0.011026
  0
VERTEX
  8
0
 10
225.545187
 20
228.596305
 42
0.049903
  0
VERTEX
  8
0
 10
226.472694
 20
219.820976
 42
0.112176
  0
VERTEX
  8
0
 10
229.238337
 20
213.765776
 42
0.137408
  0
VERTEX
  8
0
 10
233.914322
 20
210.241736
 42
0.093452
  0
VERTEX
  8
0
 10
240.500000
 20
209.000000
 42
0.094396
  0
VERTEX
  8
0
 10
246.950354
 20
210.228718
 42
0.136463
  0
VERTEX
  8
0
 10
251.552815
 20
213.710981
 42
0.112480
  0
VERTEX
  8
0
 10
254.260954
 20
219.650245
 42
0.051784
  0
VERTEX
  8
0
 10
255.116972
 20
228.154896
 42
0.027967
  0
VERTEX
  8
0
 10
254.777120
 20
233.900524
 42
0.098734
  0
VERTEX
  8
0
 10
253.648016
 20
237.403281
 42
0.156986
  0
VERTEX
  8
0
 10
251.604563
 20
239.309650
 42
0.110262
  0
VERTEX
  8
0
 10
248.512131
 20
240.000000
 42
0.096015
  0
VERTEX
  8
0
 10
245.708963
 20
239.456702
 42
0.188147
  0
VERTEX
  8
0
 10
244.077990
 20
237.922514
 42
0.110987
  0
VERTEX
  8
0
 10
243.417011
 20
235.007137
 42
0.023753
  0
VERTEX
  8
0
 10
243.655158
 20
229.789915
 42
-0.032995
  0
VERTEX
  8
0
 10
243.812579
 20
223.992050
 42
-0.116815
  0
VERTEX
  8
0
 10
242.821436
 20
220.430149
 42
-0.299438
  0
VERTEX
  8
0
 10
240.954176
 20
219.446273
 42
-0.173835
  0
VERTEX
  8
0
 10
238.571429
 20
220.571429
 42
-0.108418
  0
VERTEX
  8
0
 10
237.828106
 20
221.732634
 42
-0.046539
  0
VERTEX
  8
0
 10
237.351664
 20
223.520739
 42
-0.031246
  0
VERTEX
  8
0
 10
237.080050
 20
226.100068
 42
-0.010612
  0
VERTEX
  8
0
 10
237.000000
 20
229.871429
 42
0.012329
  0
VERTEX
  8
0
 10
236.919932
 20
233.118130
 42
0.021075
  0
VERTEX
  8
0
 10
236.672366
 20
235.817515
 42
0.021670
  0
VERTEX
  8
0
 10
236.302435
 20
237.886456
 42
0.142231
  0
VERTEX
  8
0
 10
235.800000
 20
238.800000
 42
0.148445
  0
VERTEX
  8
0
 10
234.021172
 20
239.750314
 42
0.061753
  0
VERTEX
  8
0
 10
231.277473
 20
239.949783
 42
0.061700
  0
VERTEX
  8
0
 10
228.563123
 20
239.472607
 42
0.146231
  0
SEQEND
  0
POLYLINE
  8
0
 66
1
 70
1
  0
VERTEX
  8
0
 10
269.222506
 20
204.443296
 42
0.040495
  0
VERTEX
  8
0
 10
268.372144
 20
203.738658
 42
0.041337
  0
VERTEX
  8
0
 10
267.652861
 20
202.910686
 42
0.044773
  0
VERTEX
  8
0
 10
267.155957
 20
202.087621
 42
0.113905
  0
VERTEX
  8
0
 10
267.000000
 20
201.411911
 42
0.175071
  0
VERTEX
  8
0
 10
267.477409
 20
200.090231
 42
0.172674
  0
VERTEX
  8
0
 10
268.692090
 20
199.369424
 42
0.134818
  0
VERTEX
  8
0
 10
270.347955
 20
199.492903
 42
0.098595
  0
VERTEX
  8
0
 10
271.937968
 20
200.443862
 42
-0.096942
  0
VERTEX
  8
0
 10
273.576807
 20
201.431323
 42
-0.402032
  0
VERTEX
  8
0
 10
274.536240
 20
201.008021
 42
-0.223023
  0
VERTEX
  8
0
 10
274.464313
 20
199.513584
 42
-0.066908
  0
VERTEX
  8
0
 10
273.104769
 20
197.611521
 42
0.034463
  0
VERTEX
  8
0
 10
271.603033
 20
195.774420
 42
0.132607
  0
VERTEX
  8
0
 10
271.098033
 20
194.402544
 42
0.218217
  0
VERTEX
  8
0
 10
271.466297
 20
193.363651
 42
0.108936
  0
VERTEX
  8
0
 10
272.655457
 20
192.578719
 42
0.202019
  0
VERTEX
  8
0
 10
274.180495
 20
192.627941
 42
0.052557
  0
VERTEX
  8
0
 10
276.335447
 20
193.907856
 42
0.049613
  0
VERTEX
  8
0
 10
278.472227
 20
195.859371
 42
0.059275
  0
VERTEX
  8
0
 10
280.040481
 20
198.088327
 42
0.113707
  0
VERTEX
  8
0
 10
280.553559
 20
199.954752
 42
0.104575
  0
VERTEX
  8
0
 10
280.223176
 20
201.919910
 42
0.099525
  0
VERTEX
  8
0
 10
279.100166
 20
203.659101
 42
0.093148
  0
VERTEX
  8
0
 10
277.368193
 20
204.878102
 42
0.041866
  0
VERTEX
  8
0
 10
275.024420
 20
205.717329
 42
0.078533
  0
VERTEX
  8
0
 10
273.027492
 20
205.924583
 42
0.084398
  0
VERTEX
  8
0
 10
271.161279
 20
205.503880
 42
0.055279
  0
SEQEND
  0
POLYLINE
  8
0
 66
1
 70
1
  0
VERTEX
  8
0
 10
245.935060
 20
190.506488
 42
-0.071425
  0
VERTEX
  8
0
 10
245.064112
 20
189.854244
 42
-0.089878
  0
VERTEX
  8
0
 10
244.109449
 20
189.536917
 42
-0.073133
  0
VERTEX
  8
0
 10
242.954710
 20
189.541969
 42
-0.032241
  0
VERTEX
  8
0
 10
241.459232
 20
189.868294
 42
0.132599
  0
VERTEX
  8
0
 10
234.510041
 20
189.976988
 42
0.146711
  0
VERTEX
  8
0
 10
228.757727
 20
186.533866
 42
0.143105
  0
VERTEX
  8
0
 10
225.757206
 20
180.413385
 42
0.124361
  0
VERTEX
  8
0
 10
226.300595
 20
173.269866
 42
0.102271
  0
VERTEX
  8
0
 10
228.605660
 20
169.310434
 42
0.107124
  0
VERTEX
  8
0
 10
232.258509
 20
166.667608
 42
0.098002
  0
VERTEX
  8
0
 10
236.957924
 20
165.629019
 42
0.072661
  0
VERTEX
  8
0
 10
242.250000
 20
166.282921
 42
-0.021715
  0
VERTEX
  8
0
 10
243.731440
 20
166.621336
 42
-0.142056
  0
VERTEX
  8
0
 10
244.482464
 20
166.545175
 42
-0.234011
  0
VERTEX
  8
0
 10
244.874473
 20
166.105156
 42
-0.067103
  0
VERTEX
  8
0
 10
245.000000
 20
165.174040
 42
-0.132088
  0
VERTEX
  8
0
 10
244.525930
 20
163.410821
 42
-0.076807
  0
VERTEX
  8
0
 10
243.141083
 20
161.693473
 42
-0.074854
  0
VERTEX
  8
0
 10
241.255903
 20
160.432797
 42
-0.110446
  0
VERTEX
  8
0
 10
239.320483
 20
160.000000
 42
-0.038331
  0
VERTEX
  8
0
 10
238.322230
 20
160.076640
 42
-0.014470
  0
VERTEX
  8
0
 10
236.944437
 20
160.330468
 42
-0.014234
  0
VERTEX
  8
0
 10
235.455095
 20
160.694289
 42
-0.016845
  0
VERTEX
  8
0
 10
234.071273
 20
161.124999
 42
0.071216
  0
VERTEX
  8
0
 10
230.763330
 20
161.772294
 42
0.142703
  0
VERTEX
  8
0
 10
228.194352
 20
161.164152
 42
0.163763
  0
VERTEX
  8
0
 10
226.578141
 20
159.358938
 42
0.101741
  0
VERTEX
  8
0
 10
226.000000
 20
156.547119
 42
0.036870
  0
VERTEX
  8
0
 10
226.140984
 20
154.637788
 42
0.103589
  0
VERTEX
  8
0
 10
226.602905
 20
153.387332
 42
0.100223
  0
VERTEX
  8
0
 10
227.538048
 20
152.403582
 42
0.033191
  0
VERTEX
  8
0
 10
229.250000
 20
151.366682
 42
0.076329
  0
VERTEX
  8
0
 10
233.247780
 20
150.015775
 42
0.045974
  0
VERTEX
  8
0
 10
238.246118
 20
149.606885
 42
0.046226
  0
VERTEX
  8
0
 10
243.179183
 20
150.115030
 42
0.083585
  0
VERTEX
  8
0
 10
246.966539
 20
151.548449
 42
0.069838
  0
VERTEX
  8
0
 10
250.392025
 20
154.251420
 42
0.083270
  0
VERTEX
  8
0
 10
252.702983
 20
157.650112
 42
0.066376
  0
VERTEX
  8
0
 10
254.111207
 20
162.227934
 42
0.028366
  0
VERTEX
  8
0
 10
254.810268
 20
168.606711
 42
0.016879
  0
VERTEX
  8
0
 10
254.953661
 20
176.280498
 42
0.029712
  0
VERTEX
  8
0
 10
254.481863
 20
182.603618
 42
0.035374
  0
VERTEX
  8
0
 10
253.484383
 20
187.410648
 42
0.128215
  0
VERTEX
  8
0
 10
251.917770
 20
190.082230
 42
0.051768
  0
VERTEX
  8
0
 10
250.273847
 20
191.416932
 42
0.127615
  0
VERTEX
  8
0
 10
248.811917
 20
191.908963
 42
0.143093
  0
VERTEX
  8
0
 10
247.404067
 20
191.603792
 42
0.072044
  0
SEQEND
  0
POLYLINE
  8
0
 66
1
 70
1
  0
VERTEX
  8
0
 10
242.830076
 20
181.126181
 42
-0.128667
  0
VERTEX
  8
0
 10
243.327893
 20
180.591664
 42
-0.058144
  0
VERTEX
  8
0
 10
243.683680
 20
179.695115
 42
-0.050883
  0
VERTEX
  8
0
 10
243.863087
 20
178.583014
 42
-0.043008
  0
VERTEX
  8
0
 10
243.830076
 20
177.391493
 42
-0.042605
  0
VERTEX
  8
0
 10
243.519110
 20
175.848105
 42
-0.138953
  0
VERTEX
  8
0
 10
242.970606
 20
174.973454
 42
-0.127114
  0
VERTEX
  8
0
 10
242.012633
 20
174.472686
 42
-0.033124
  0
VERTEX
  8
0
 10
240.284312
 20
174.189201
 42
-0.028846
  0
VERTEX
  8
0
 10
238.521351
 20
174.120982
 42
-0.128468
  0
VERTEX
  8
0
 10
237.532764
 20
174.399415
 42
-0.153198
  0
VERTEX
  8
0
 10
236.901504
 20
175.095370
 42
-0.046723
  0
VERTEX
  8
0
 10
236.422644
 20
176.452187
 42
-0.127204
  0
VERTEX
  8
0
 10
236.442381
 20
179.214721
 42
-0.171753
  0
VERTEX
  8
0
 10
237.842954
 20
181.260263
 42
-0.172644
  0
VERTEX
  8
0
 10
240.211939
 20
181.962841
 42
-0.128550
  0
SEQEND
  0
POLYLINE
  8
0
 66
1
 70
1
  0
VERTEX
  8
0
 10
194.273053
 20
188.295244
 42
0.073169
  0
VERTEX
  8
0
 10
193.371308
 20
186.350512
 42
0.041790
  0
VERTEX
  8
0
 10
192.844289
 20
183.810287
 42
0.024521
  0
VERTEX
  8
0
 10
192.572665
 20
180.044430
 42
0.005743
  0
VERTEX
  8
0
 10
192.500000
 20
173.717866
 42
0.004210
  0
VERTEX
  8
0
 10
192.558145
 20
166.812045
 42
0.032046
  0
VERTEX
  8
0
 10
192.820830
 20
163.572422
 42
0.074859
  0
VERTEX
  8
0
 10
193.390976
 20
161.692176
 42
0.124254
  0
VERTEX
  8
0
 10
194.441130
 20
160.422623
 42
0.078014
  0
VERTEX
  8
0
 10
196.447510
 20
159.386366
 42
0.086048
  0
VERTEX
  8
0
 10
198.607134
 20
159.061383
 42
0.094527
  0
VERTEX
  8
0
 10
200.584164
 20
159.484437
 42
0.120268
  0
VERTEX
  8
0
 10
202.077203
 20
160.593024
 42
0.112183
  0
VERTEX
  8
0
 10
202.648148
 20
161.718977
 42
0.025415
  0
VERTEX
  8
0
 10
203.066112
 20
163.834668
 42
0.022220
  0
VERTEX
  8
0
 10
203.345440
 20
166.624466
 42
0.012165
  0
VERTEX
  8
0
 10
203.452076
 20
170.059738
 42
-0.009922
  0
VERTEX
  8
0
 10
203.559189
 20
174.093629
 42
-0.035045
  0
VERTEX
  8
0
 10
203.860210
 20
176.666900
 42
-0.056256
  0
VERTEX
  8
0
 10
204.401763
 20
178.424407
 42
-0.093799
  0
VERTEX
  8
0
 10
205.271192
 20
179.699764
 42
-0.038533
  0
VERTEX
  8
0
 10
206.231380
 20
180.522355
 42
-0.111205
  0
VERTEX
  8
0
 10
207.030220
 20
180.869405
 42
-0.128866
  0
VERTEX
  8
0
 10
207.828213
 20
180.815076
 42
-0.060475
  0
VERTEX
  8
0
 10
208.768764
 20
180.366407
 42
-0.137336
  0
VERTEX
  8
0
 10
209.651520
 20
179.383814
 42
-0.070530
  0
VERTEX
  8
0
 10
210.173373
 20
177.799192
 42
-0.036217
  0
VERTEX
  8
0
 10
210.447117
 20
175.199387
 42
-0.007227
  0
VERTEX
  8
0
 10
210.531413
 20
170.529777
 42
0.007093
  0
VERTEX
  8
0
 10
210.617266
 20
165.701797
 42
0.039345
  0
VERTEX
  8
0
 10
210.903539
 20
163.124367
 42
0.078272
  0
VERTEX
  8
0
 10
211.477549
 20
161.529569
 42
0.109866
  0
VERTEX
  8
0
 10
212.472542
 20
160.396419
 42
0.070865
  0
VERTEX
  8
0
 10
214.439794
 20
159.347420
 42
0.107510
  0
VERTEX
  8
0
 10
216.353831
 20
159.089031
 42
0.107054
  0
VERTEX
  8
0
 10
218.208082
 20
159.649050
 42
0.069812
  0
VERTEX
  8
0
 10
220.000000
 20
161.000000
 42
0.085850
  0
VERTEX
  8
0
 10
221.055828
 20
162.497489
 42
0.069026
  0
VERTEX
  8
0
 10
221.648499
 20
164.380014
 42
0.035569
  0
VERTEX
  8
0
 10
221.930848
 20
167.310176
 42
0.006239
  0
VERTEX
  8
0
 10
222.000000
 20
172.852117
 42
0.007182
  0
VERTEX
  8
0
 10
221.919872
 20
178.430142
 42
0.035099
  0
VERTEX
  8
0
 10
221.608427
 20
181.569028
 42
0.057987
  0
VERTEX
  8
0
 10
220.945700
 20
183.831833
 42
0.048432
  0
VERTEX
  8
0
 10
219.750000
 20
186.033389
 42
0.104384
  0
VERTEX
  8
0
 10
216.688407
 20
188.992926
 42
0.103064
  0
VERTEX
  8
0
 10
212.678175
 20
190.479686
 42
0.104897
  0
VERTEX
  8
0
 10
208.466372
 20
190.229207
 42
0.111962
  0
VERTEX
  8
0
 10
204.829585
 20
188.282727
 42
-0.031777
  0
VERTEX
  8
0
 10
203.849724
 20
187.536459
 42
-0.205648
  0
VERTEX
  8
0
 10
203.252412
 20
187.426708
 42
-0.189549
  0
VERTEX
  8
0
 10
202.731856
 20
187.781754
 42
-0.026548
  0
VERTEX
  8
0
 10
202.044401
 20
188.917036
 42
0.141731
  0
VERTEX
  8
0
 10
200.493351
 20
190.507082
 42
0.150129
  0
VERTEX
  8
0
 10
198.369050
 20
190.978086
 42
0.130999
  0
VERTEX
  8
0
 10
196.121432
 20
190.182124
 42
0.097728
  0
SEQEND
  0
POLYLINE
  8
0
 66
1
 70
1
  0
VERTEX
  8
0
 10
262.305188
 20
190.010787
 42
0.169633
  0
VERTEX
  8
0
 10
260.579963
 20
188.475036
 42
0.074539
  0
VERTEX
  8
0
 10
259.492533
 20
185.573416
 42
0.050748
  0
VERTEX
  8
0
 10
259.030109
 20
181.322411
 42
0.021764
  0
VERTEX
  8
0
 10
259.239174
 20
175.609172
 42
0.056633
  0
VERTEX
  8
0
 10
260.658676
 20
168.355178
 42
0.105484
  0
VERTEX
  8
0
 10
263.604224
 20
163.169610
 42
0.121268
  0
VERTEX
  8
0
 10
268.082464
 20
160.088298
 42
0.090574
  0
VERTEX
  8
0
 10
274.000000
 20
159.007476
 42
0.089494
  0
VERTEX
  8
0
 10
279.832250
 20
160.059811
 42
0.118318
  0
VERTEX
  8
0
 10
284.294905
 20
163.064430
 42
0.104677
  0
VERTEX
  8
0
 10
287.268487
 20
168.092219
 42
0.058835
  0
VERTEX
  8
0
 10
288.739427
 20
175.062976
 42
0.041441
  0
VERTEX
  8
0
 10
288.796638
 20
182.595055
 42
0.108541
  0
VERTEX
  8
0
 10
287.250990
 20
187.746891
 42
0.183811
  0
VERTEX
  8
0
 10
284.295969
 20
190.233460
 42
0.165618
  0
VERTEX
  8
0
 10
280.282043
 20
190.264373
 42
0.080962
  0
VERTEX
  8
0
 10
278.648088
 20
189.409295
 42
0.156143
  0
VERTEX
  8
0
 10
277.802050
 20
188.217459
 42
0.059157
  0
VERTEX
  8
0
 10
277.377814
 20
186.003841
 42
0.004523
  0
VERTEX
  8
0
 10
277.000000
 20
179.930651
 42
-0.005507
  0
VERTEX
  8
0
 10
276.657681
 20
174.597532
 42
-0.040993
  0
VERTEX
  8
0
 10
276.260643
 20
172.090323
 42
-0.105123
  0
VERTEX
  8
0
 10
275.631711
 20
170.783236
 42
-0.183091
  0
VERTEX
  8
0
 10
274.619827
 20
170.161900
 42
-0.177634
  0
VERTEX
  8
0
 10
272.897332
 20
170.445342
 42
-0.177721
  0
VERTEX
  8
0
 10
271.767175
 20
171.775365
 42
-0.073478
  0
VERTEX
  8
0
 10
271.169722
 20
174.636284
 42
-0.013775
  0
VERTEX
  8
0
 10
271.000000
 20
180.000000
 42
0.009125
  0
VERTEX
  8
0
 10
270.933928
 20
182.957936
 42
0.012150
  0
VERTEX
  8
0
 10
270.759614
 20
185.640773
 42
0.009482
  0
VERTEX
  8
0
 10
270.519096
 20
187.856121
 42
0.110304
  0
VERTEX
  8
0
 10
270.224670
 20
188.670716
 42
0.150040
  0
VERTEX
  8
0
 10
268.985991
 20
189.727644
 42
0.060300
  0
VERTEX
  8
0
 10
266.829056
 20
190.366789
 42
0.057566
  0
VERTEX
  8
0
 10
264.401517
 20
190.494644
 42
0.082413
  0
SEQEND
  0
POLYLINE
  8
0
 66
1
 70
1
  0
VERTEX
  8
0
 10
273.030047
 20
151.929517
 42
0.043985
  0
VERTEX
  8
0
 10
268.448494
 20
147.602726
 42
0.365986
  0
VERTEX
  8
0
 10
268.383979
 20
144.957665
 42
0.300956
  0
VERTEX
  8
0
 10
271.208822
 20
144.056444
 42
0.038392
  0
VERTEX
  8
0
 10
277.499974
 20
146.371357
 42
0.014576
  0
VERTEX
  8
0
 10
280.327055
 20
147.766694
 42
0.059426
  0
VERTEX
  8
0
 10
281.898947
 20
148.856787
 42
0.102689
  0
VERTEX
  8
0
 10
282.712152
 20
149.946547
 42
0.109540
  0
VERTEX
  8
0
 10
283.000000
 20
151.244676
 42
0.077017
  0
VERTEX
  8
0
 10
282.723204
 20
153.031000
 42
0.085683
  0
VERTEX
  8
0
 10
281.920735
 20
154.578403
 42
0.096741
  0
VERTEX
  8
0
 10
280.744107
 20
155.628334
 42
0.134725
  0
VERTEX
  8
0
 10
279.389798
 20
156.000000
 42
0.131807
  0
VERTEX
  8
0
 10
278.669284
 20
155.806704
 42
0.011284
  0
VERTEX
  8
0
 10
277.022413
 20
154.804296
 42
0.014297
  0
VERTEX
  8
0
 10
275.090671
 20
153.488575
 42
0.010593
  0
SEQEND
  0
POLYLINE
  8
0
 66
1
 70
1
  0
VERTEX
  8
0
 10
198.762571
 20
140.434612
 42
0.150345
  0
VERTEX
  8
0
 10
194.413822
 20
135.996257
 42
0.102102
  0
VERTEX
  8
0
 10
192.491282
 20
129.136309
 42
0.099806
  0
VERTEX
  8
0
 10
193.426372
 20
121.939480
 42
0.136623
  0
VERTEX
  8
0
 10
197.095612
 20
116.573001
 42
0.089208
  0
VERTEX
  8
0
 10
200.067003
 20
114.865531
 42
0.060208
  0
VERTEX
  8
0
 10
203.889025
 20
113.997413
 42
0.063101
  0
VERTEX
  8
0
 10
207.527122
 20
114.080953
 42
0.156891
  0
VERTEX
  8
0
 10
209.885278
 20
115.250000
 42
-0.212433
  0
VERTEX
  8
0
 10
210.441432
 20
115.454805
 42
-0.358174
  0
VERTEX
  8
0
 10
210.783084
 20
115.134168
 42
-0.056573
  0
VERTEX
  8
0
 10
210.804614
 20
113.806624
 42
-0.006105
  0
VERTEX
  8
0
 10
210.470088
 20
110.750274
 42
0.042572
  0
VERTEX
  8
0
 10
210.292336
 20
105.833538
 42
0.114168
  0
VERTEX
  8
0
 10
211.241944
 20
102.484645
 42
0.168314
  0
VERTEX
  8
0
 10
213.275895
 20
100.651060
 42
0.124986
  0
VERTEX
  8
0
 10
216.288755
 20
100.191233
 42
0.155834
  0
VERTEX
  8
0
 10
219.293222
 20
101.484270
 42
0.152601
  0
VERTEX
  8
0
 10
221.022448
 20
104.289978
 42
0.055594
  0
VERTEX
  8
0
 10
221.807301
 20
109.924759
 42
0.006615
  0
VERTEX
  8
0
 10
221.985258
 20
122.550000
 42
0.004070
  0
VERTEX
  8
0
 10
221.927682
 20
130.462666
 42
0.012360
  0
VERTEX
  8
0
 10
221.711774
 20
135.839214
 42
0.011935
  0
VERTEX
  8
0
 10
221.377007
 20
139.602435
 42
0.169806
  0
VERTEX
  8
0
 10
220.800000
 20
140.800000
 42
0.124293
  0
VERTEX
  8
0
 10
219.275042
 20
141.710131
 42
0.085789
  0
VERTEX
  8
0
 10
217.269397
 20
141.951167
 42
0.090313
  0
VERTEX
  8
0
 10
215.394115
 20
141.508736
 42
0.163628
  0
VERTEX
  8
0
 10
214.238350
 20
140.461425
 42
-0.067686
  0
VERTEX
  8
0
 10
213.648424
 20
139.677913
 42
-0.199755
  0
VERTEX
  8
0
 10
213.038876
 20
139.423112
 42
-0.107458
  0
VERTEX
  8
0
 10
212.172338
 20
139.610049
 42
-0.013528
  0
VERTEX
  8
0
 10
210.438660
 20
140.455264
 42
0.060619
  0
VERTEX
  8
0
 10
207.588024
 20
141.526897
 42
0.060138
  0
VERTEX
  8
0
 10
204.555780
 20
141.887486
 42
0.060603
  0
VERTEX
  8
0
 10
201.546356
 20
141.515979
 42
0.063399
  0
SEQEND
  0
POLYLINE
  8
0
 66
1
 70
1
  0
VERTEX
  8
0
 10
209.945786
 20
131.565324
 42
-0.092336
  0
VERTEX
  8
0
 10
210.381481
 20
130.783794
 42
-0.035710
  0
VERTEX
  8
0
 10
210.693220
 20
129.578208
 42
-0.033843
  0
VERTEX
  8
0
 10
210.852165
 20
128.189863
 42
-0.035521
  0
VERTEX
  8
0
 10
210.818231
 20
126.815324
 42
-0.030884
  0
VERTEX
  8
0
 10
210.536976
 20
125.043724
 42
-0.120845
  0
VERTEX
  8
0
 10
210.049052
 20
124.058209
 42
-0.141507
  0
VERTEX
  8
0
 10
209.207418
 20
123.495408
 42
-0.048449
  0
VERTEX
  8
0
 10
207.758454
 20
123.184393
 42
-0.047989
  0
VERTEX
  8
0
 10
206.348184
 20
123.158002
 42
-0.111691
  0
VERTEX
  8
0
 10
205.344083
 20
123.468225
 42
-0.110023
  0
VERTEX
  8
0
 10
204.562024
 20
124.184149
 42
-0.045739
  0
VERTEX
  8
0
 10
203.847939
 20
125.434393
 42
-0.139649
  0
VERTEX
  8
0
 10
203.320482
 20
128.923804
 42
-0.165284
  0
VERTEX
  8
0
 10
204.780033
 20
131.906474
 42
-0.219023
  0
VERTEX
  8
0
 10
207.394607
 20
132.881266
 42
-0.203674
  0
SEQEND
  0
POLYLINE
  8
0
 66
1
 70
1
  0
VERTEX
  8
0
 10
227.556704
 20
138.777494
 42
0.121214
  0
VERTEX
  8
0
 10
226.417849
 20
135.839181
 42
0.027071
  0
VERTEX
  8
0
 10
226.015091
 20
130.434364
 42
0.028967
  0
VERTEX
  8
0
 10
226.234598
 20
124.609345
 42
0.048917
  0
VERTEX
  8
0
 10
227.172674
 20
119.818002
 42
0.046363
  0
VERTEX
  8
0
 10
227.864420
 20
118.104805
 42
0.026827
  0
VERTEX
  8
0
 10
228.988499
 20
116.186568
 42
0.026627
  0
VERTEX
  8
0
 10
230.334162
 20
114.367615
 42
0.040041
  0
VERTEX
  8
0
 10
231.707470
 20
112.951982
 42
0.031737
  0
VERTEX
  8
0
 10
233.771039
 20
111.360065
 42
0.072670
  0
VERTEX
  8
0
 10
235.536829
 20
110.510259
 42
0.059788
  0
VERTEX
  8
0
 10
237.678248
 20
110.111673
 42
0.016150
  0
VERTEX
  8
0
 10
241.134796
 20
110.000000
 42
0.015217
  0
VERTEX
  8
0
 10
244.726092
 20
110.109321
 42
0.069753
  0
VERTEX
  8
0
 10
246.764860
 20
110.522901
 42
0.083929
  0
VERTEX
  8
0
 10
248.425401
 20
111.444966
 42
0.027768
  0
VERTEX
  8
0
 10
250.510403
 20
113.310403
 42
0.068131
  0
VERTEX
  8
0
 10
253.153210
 20
116.791563
 42
0.059518
  0
VERTEX
  8
0
 10
254.911194
 20
121.015378
 42
0.052754
  0
VERTEX
  8
0
 10
255.767842
 20
126.003046
 42
0.036000
  0
VERTEX
  8
0
 10
255.725899
 20
131.759727
 42
0.024546
  0
VERTEX
  8
0
 10
255.115203
 20
136.492082
 42
0.102783
  0
VERTEX
  8
0
 10
254.050283
 20
139.140844
 42
0.159906
  0
VERTEX
  8
0
 10
252.297169
 20
140.519951
 42
0.087580
  0
VERTEX
  8
0
 10
249.577555
 20
141.000000
 42
0.079712
  0
VERTEX
  8
0
 10
246.632822
 20
140.527537
 42
0.194232
  0
VERTEX
  8
0
 10
244.984144
 20
139.133621
 42
0.105671
  0
VERTEX
  8
0
 10
244.188893
 20
136.311700
 42
0.016033
  0
VERTEX
  8
0
 10
244.000000
 20
130.422445
 42
-0.009374
  0
VERTEX
  8
0
 10
243.925185
 20
126.432217
 42
-0.030103
  0
VERTEX
  8
0
 10
243.666085
 20
123.788172
 42
-0.046189
  0
VERTEX
  8
0
 10
243.214787
 20
122.022087
 42
-0.134700
  0
VERTEX
  8
0
 10
242.500000
 20
121.000000
 42
-0.192995
  0
VERTEX
  8
0
 10
240.609324
 20
120.391400
 42
-0.261480
  0
VERTEX
  8
0
 10
239.139624
 20
121.357221
 42
-0.096552
  0
VERTEX
  8
0
 10
238.245567
 20
124.404430
 42
-0.023225
  0
VERTEX
  8
0
 10
238.000000
 20
129.688186
 42
0.012689
  0
VERTEX
  8
0
 10
237.924071
 20
132.679716
 42
0.014799
  0
VERTEX
  8
0
 10
237.695915
 20
135.513203
 42
0.013840
  0
VERTEX
  8
0
 10
237.367668
 20
137.883252
 42
0.081705
  0
VERTEX
  8
0
 10
236.964816
 20
139.065741
 42
0.178582
  0
VERTEX
  8
0
 10
235.244505
 20
140.592809
 42
0.101130
  0
VERTEX
  8
0
 10
232.463720
 20
141.072860
 42
0.095285
  0
VERTEX
  8
0
 10
229.571512
 20
140.424205
 42
0.138159
  0
SEQEND
  0
POLYLINE
  8
0
 66
1
 70
1
  0
VERTEX
  8
0
 10
266.984398
 20
139.145899
 42
0.138445
  0
VERTEX
  8
0
 10
261.578348
 20
133.964839
 42
0.110343
  0
VERTEX
  8
0
 10
259.091100
 20
126.245543
 42
0.110629
  0
VERTEX
  8
0
 10
260.127933
 20
118.218119
 42
0.139767
  0
VERTEX
  8
0
 10
264.498881
 20
112.179540
 42
0.089824
  0
VERTEX
  8
0
 10
267.582170
 20
110.545429
 42
0.043743
  0
VERTEX
  8
0
 10
271.943922
 20
109.566607
 42
0.042454
  0
VERTEX
  8
0
 10
276.671829
 20
109.337286
 42
0.056721
  0
VERTEX
  8
0
 10
280.916826
 20
109.977604
 42
0.068068
  0
VERTEX
  8
0
 10
285.601250
 20
111.952403
 42
0.134782
  0
VERTEX
  8
0
 10
288.381534
 20
114.831378
 42
0.207103
  0
VERTEX
  8
0
 10
288.661027
 20
117.874798
 42
0.170088
  0
VERTEX
  8
0
 10
286.658787
 20
120.487916
 42
0.046427
  0
VERTEX
  8
0
 10
285.183838
 20
121.269438
 42
0.105498
  0
VERTEX
  8
0
 10
283.949889
 20
121.499398
 42
0.069933
  0
VERTEX
  8
0
 10
282.428487
 20
121.245112
 42
0.012422
  0
VERTEX
  8
0
 10
279.690156
 20
120.306895
 42
-0.019920
  0
VERTEX
  8
0
 10
277.351726
 20
119.544670
 42
-0.042970
  0
VERTEX
  8
0
 10
275.493693
 20
119.188539
 42
-0.053792
  0
VERTEX
  8
0
 10
273.892488
 20
119.194934
 42
-0.057120
  0
VERTEX
  8
0
 10
272.363083
 20
119.545926
 42
-0.041368
  0
VERTEX
  8
0
 10
269.643160
 20
120.768388
 42
-0.372538
  0
VERTEX
  8
0
 10
269.226667
 20
121.900608
 42
-0.276992
  0
VERTEX
  8
0
 10
270.345264
 20
122.786155
 42
-0.032231
  0
VERTEX
  8
0
 10
273.666667
 20
123.001554
 42
0.071267
  0
VERTEX
  8
0
 10
279.872126
 20
123.892598
 42
0.109290
  0
VERTEX
  8
0
 10
284.613154
 20
126.498815
 42
0.140959
  0
VERTEX
  8
0
 10
287.062588
 20
130.317044
 42
0.157724
  0
VERTEX
  8
0
 10
286.964319
 20
134.672509
 42
0.056738
  0
VERTEX
  8
0
 10
286.364337
 20
135.918438
 42
0.034429
  0
VERTEX
  8
0
 10
285.398202
 20
137.240825
 42
0.034154
  0
VERTEX
  8
0
 10
284.243103
 20
138.436638
 42
0.050259
  0
VERTEX
  8
0
 10
283.067167
 20
139.301252
 42
0.088090
  0
VERTEX
  8
0
 10
279.678774
 20
140.568295
 42
0.047979
  0
VERTEX
  8
0
 10
275.240201
 20
140.951968
 42
0.047343
  0
VERTEX
  8
0
 10
270.700179
 20
140.476839
 42
0.072657
  0
SEQEND
  0
POLYLINE
  8
0
 66
1
 70
1
  0
VERTEX
  8
0
 10
277.643260
 20
132.487265
 42
-0.163145
  0
VERTEX
  8
0
 10
277.712269
 20
130.882198
 42
-0.132973
  0
VERTEX
  8
0
 10
276.816041
 20
129.403427
 42
-0.108052
  0
VERTEX
  8
0
 10
275.102836
 20
128.361827
 42
-0.082940
  0
VERTEX
  8
0
 10
272.936572
 20
128.000000
 42
-0.052180
  0
VERTEX
  8
0
 10
270.653971
 20
128.238865
 42
-0.228974
  0
VERTEX
  8
0
 10
269.611737
 20
129.045614
 42
-0.255177
  0
VERTEX
  8
0
 10
269.658698
 20
130.287282
 42
-0.062056
  0
VERTEX
  8
0
 10
270.963525
 20
131.963525
 42
-0.076741
  0
VERTEX
  8
0
 10
272.847370
 20
133.343469
 42
-0.100534
  0
VERTEX
  8
0
 10
274.893825
 20
133.928926
 42
-0.132248
  0
VERTEX
  8
0
 10
276.609851
 20
133.608283
 42
-0.191464
  0
SEQEND
  0
ENDSEC
  0
EOF
