  0
SECTION
  2
HEADER
  9
$ACADVER
  1
AC1006
  9
$EXTMIN
 10
0.000000
 20
0.000000
 30
0.000000
  9
$EXTMAX
 10
279.000000
 20
292.000000
 30
0.000000
  0
ENDSEC
  0
SECTION
  2
ENTITIES
  0
POLYLINE
  8
0
 66
1
 70
1
  0
VERTEX
  8
0
 10
0.000000
 20
146.000000
 42
0.000000
  0
VERTEX
  8
0
 10
0.000000
 20
0.000000
 42
0.000000
  0
VERTEX
  8
0
 10
139.500000
 20
0.000000
 42
0.000000
  0
VERTEX
  8
0
 10
279.000000
 20
0.000000
 42
0.000000
  0
VERTEX
  8
0
 10
279.000000
 20
146.000000
 42
0.000000
  0
VERTEX
  8
0
 10
279.000000
 20
292.000000
 42
0.000000
  0
VERTEX
  8
0
 10
139.500000
 20
292.000000
 42
0.000000
  0
VERTEX
  8
0
 10
0.000000
 20
292.000000
 42
0.000000
  0
SEQEND
  0
POLYLINE
  8
0
 66
1
 70
1
  0
VERTEX
  8
0
 10
55.483902
 20
243.000000
 42
-0.013923
  0
VERTEX
  8
0
 10
55.421139
 20
241.003125
 42
-0.009238
  0
VERTEX
  8
0
 10
55.243089
 20
238.717384
 42
-0.009301
  0
VERTEX
  8
0
 10
54.987656
 20
236.502448
 42
-0.017853
  0
VERTEX
  8
0
 10
54.686719
 20
234.740029
 42
0.044941
  0
VERTEX
  8
0
 10
54.413866
 20
232.377939
 42
0.118669
  0
VERTEX
  8
0
 10
54.768116
 20
230.724427
 42
0.069140
  0
VERTEX
  8
0
 10
55.962268
 20
228.922833
 42
0.008532
  0
VERTEX
  8
0
 10
59.150935
 20
225.433924
 42
0.022148
  0
VERTEX
  8
0
 10
61.716565
 20
222.951195
 42
0.020845
  0
VERTEX
  8
0
 10
64.542546
 20
220.651856
 42
0.021544
  0
VERTEX
  8
0
 10
67.432541
 20
218.682167
 42
0.029953
  0
VERTEX
  8
0
 10
70.187707
 20
217.193895
 42
-0.011847
  0
VERTEX
  8
0
 10
73.491417
 20
215.560888
 42
-0.073110
  0
VERTEX
  8
0
 10
75.020355
 20
214.449096
 42
-0.128491
  0
VERTEX
  8
0
 10
75.748246
 20
213.236238
 42
-0.069202
  0
VERTEX
  8
0
 10
76.004901
 20
211.500000
 42
0.022996
  0
VERTEX
  8
0
 10
76.064068
 20
210.416621
 42
0.069526
  0
VERTEX
  8
0
 10
76.238883
 20
209.700321
 42
0.240955
  0
VERTEX
  8
0
 10
76.489286
 20
209.480835
 42
0.315620
  0
VERTEX
  8
0
 10
76.765313
 20
209.586199
 42
-0.188356
  0
VERTEX
  8
0
 10
80.049898
 20
211.851424
 42
-0.041893
  0
VERTEX
  8
0
 10
86.924137
 20
212.873938
 42
-0.043436
  0
VERTEX
  8
0
 10
94.235603
 20
212.706548
 42
-0.100852
  0
VERTEX
  8
0
 10
99.433612
 20
211.037288
 42
0.024068
  0
VERTEX
  8
0
 10
100.872261
 20
210.317996
 42
0.043947
  0
VERTEX
  8
0
 10
102.114023
 20
209.895900
 42
0.058150
  0
VERTEX
  8
0
 10
103.055467
 20
209.778886
 42
0.261933
  0
VERTEX
  8
0
 10
103.523045
 20
210.037288
 42
-0.126605
  0
VERTEX
  8
0
 10
103.908133
 20
210.407237
 42
-0.046589
  0
VERTEX
  8
0
 10
104.601545
 20
210.717203
 42
-0.042461
  0
VERTEX
  8
0
 10
105.457589
 20
210.928859
 42
-0.039399
  0
VERTEX
  8
0
 10
106.359017
 20
211.000000
 42
0.035847
  0
VERTEX
  8
0
 10
107.286673
 20
211.066593
 42
0.033121
  0
VERTEX
  8
0
 10
108.220774
 20
211.265246
 42
0.034790
  0
VERTEX
  8
0
 10
109.028795
 20
211.555916
 42
0.086503
  0
VERTEX
  8
0
 10
109.550000
 20
211.902967
 42
-0.096810
  0
VERTEX
  8
0
 10
110.268427
 20
212.360423
 42
-0.006416
  0
VERTEX
  8
0
 10
112.570938
 20
213.230128
 42
-0.009081
  0
VERTEX
  8
0
 10
115.366434
 20
214.188155
 42
-0.006657
  0
VERTEX
  8
0
 10
118.500000
 20
215.152967
 42
-0.020019
  0
VERTEX
  8
0
 10
123.591047
 20
216.427672
 42
-0.029346
  0
VERTEX
  8
0
 10
128.157209
 20
217.102044
 42
-0.018917
  0
VERTEX
  8
0
 10
134.040208
 20
217.397164
 42
-0.003828
  0
VERTEX
  8
0
 10
144.500000
 20
217.445667
 42
-0.003415
  0
VERTEX
  8
0
 10
155.403101
 20
217.338295
 42
-0.021877
  0
VERTEX
  8
0
 10
160.913493
 20
217.004929
 42
-0.036514
  0
VERTEX
  8
0
 10
165.104423
 20
216.254569
 42
-0.021236
  0
VERTEX
  8
0
 10
170.000000
 20
214.779648
 42
0.000000
  0
VERTEX
  8
0
 10
177.500000
 20
212.167960
 42
0.000000
  0
VERTEX
  8
0
 10
180.368657
 20
215.083980
 42
-0.014230
  0
VERTEX
  8
0
 10
181.531655
 20
216.200760
 42
-0.018936
  0
VERTEX
  8
0
 10
182.653541
 20
217.143419
 42
-0.016454
  0
VERTEX
  8
0
 10
183.624552
 20
217.848474
 42
-0.149889
  0
VERTEX
  8
0
 10
184.118657
 20
218.000000
 42
0.381867
  0
VERTEX
  8
0
 10
184.471408
 20
218.315401
 42
0.006790
  0
VERTEX
  8
0
 10
184.741106
 20
221.055639
 42
0.013186
  0
VERTEX
  8
0
 10
184.936612
 20
224.413720
 42
0.007946
  0
VERTEX
  8
0
 10
185.000000
 20
228.402175
 42
0.000000
  0
VERTEX
  8
0
 10
185.000000
 20
238.804350
 42
0.000000
  0
VERTEX
  8
0
 10
188.149223
 20
239.902175
 42
-0.056953
  0
VERTEX
  8
0
 10
191.990904
 20
240.767887
 42
-0.033689
  0
VERTEX
  8
0
 10
196.691998
 20
240.958425
 42
-0.032903
  0
VERTEX
  8
0
 10
201.086027
 20
240.550254
 42
-0.113636
  0
VERTEX
  8
0
 10
203.719220
 20
239.484113
 42
0.028361
  0
VERTEX
  8
0
 10
205.070844
 20
238.647396
 42
0.344990
  0
VERTEX
  8
0
 10
205.633312
 20
238.742102
 42
0.160923
  0
VERTEX
  8
0
 10
205.952691
 20
239.456386
 42
0.007134
  0
VERTEX
  8
0
 10
206.191726
 20
242.194266
 42
-0.091814
  0
VERTEX
  8
0
 10
207.009220
 20
245.318415
 42
-0.199208
  0
VERTEX
  8
0
 10
208.810779
 20
246.958394
 42
-0.077170
  0
VERTEX
  8
0
 10
212.530643
 20
247.678348
 42
-0.006926
  0
VERTEX
  8
0
 10
222.058870
 20
247.900320
 42
-0.013476
  0
VERTEX
  8
0
 10
231.091985
 20
247.742138
 42
-0.145970
  0
VERTEX
  8
0
 10
234.499996
 20
246.558213
 42
-0.207990
  0
VERTEX
  8
0
 10
236.096953
 20
243.872327
 42
-0.031583
  0
VERTEX
  8
0
 10
236.500000
 20
237.497856
 42
-0.027891
  0
VERTEX
  8
0
 10
236.165887
 20
231.512793
 42
-0.165083
  0
VERTEX
  8
0
 10
234.852161
 20
228.713173
 42
-0.172016
  0
VERTEX
  8
0
 10
232.138009
 20
227.354439
 42
-0.030869
  0
VERTEX
  8
0
 10
226.402490
 20
227.000000
 42
0.006384
  0
VERTEX
  8
0
 10
222.621678
 20
226.951721
 42
0.079660
  0
VERTEX
  8
0
 10
221.217347
 20
226.689612
 42
0.262655
  0
VERTEX
  8
0
 10
220.687808
 20
226.077979
 42
0.114409
  0
VERTEX
  8
0
 10
220.718866
 20
224.967055
 42
0.032303
  0
VERTEX
  8
0
 10
221.105960
 20
223.800375
 42
0.265516
  0
VERTEX
  8
0
 10
221.529545
 20
223.466992
 42
0.170601
  0
VERTEX
  8
0
 10
222.166779
 20
223.589683
 42
0.012971
  0
VERTEX
  8
0
 10
223.680474
 20
224.526294
 42
-0.055977
  0
VERTEX
  8
0
 10
224.842893
 20
225.114137
 42
-0.033040
  0
VERTEX
  8
0
 10
226.335113
 20
225.559936
 42
-0.032701
  0
VERTEX
  8
0
 10
227.904206
 20
225.811342
 42
-0.047533
  0
VERTEX
  8
0
 10
229.305228
 20
225.809239
 42
-0.035441
  0
VERTEX
  8
0
 10
231.171655
 20
225.493948
 42
-0.169504
  0
VERTEX
  8
0
 10
232.065234
 20
224.916113
 42
-0.130130
  0
VERTEX
  8
0
 10
232.532861
 20
223.816688
 42
-0.017700
  0
VERTEX
  8
0
 10
232.804601
 20
221.309286
 42
0.017700
  0
VERTEX
  8
0
 10
233.076354
 20
218.801765
 42
0.130151
  0
VERTEX
  8
0
 10
233.544013
 20
217.702386
 42
0.169502
  0
VERTEX
  8
0
 10
234.437693
 20
217.124585
 42
0.035424
  0
VERTEX
  8
0
 10
236.304601
 20
216.809286
 42
-0.035426
  0
VERTEX
  8
0
 10
238.171540
 20
216.493977
 42
-0.169512
  0
VERTEX
  8
0
 10
239.065213
 20
215.916147
 42
-0.130144
  0
VERTEX
  8
0
 10
239.532861
 20
214.816696
 42
-0.017696
  0
VERTEX
  8
0
 10
239.804623
 20
212.308843
 42
-0.101372
  0
VERTEX
  8
0
 10
239.308507
 20
208.499221
 42
-0.184079
  0
VERTEX
  8
0
 10
237.323071
 20
206.121028
 42
-0.105209
  0
VERTEX
  8
0
 10
233.295132
 20
204.868701
 42
-0.022351
  0
VERTEX
  8
0
 10
225.917042
 20
204.520971
 42
-0.008526
  0
VERTEX
  8
0
 10
221.013808
 20
204.592812
 42
-0.039029
  0
VERTEX
  8
0
 10
218.185260
 20
204.904414
 42
-0.062264
  0
VERTEX
  8
0
 10
216.122700
 20
205.569904
 42
-0.049798
  0
VERTEX
  8
0
 10
214.113465
 20
206.763371
 42
0.000000
  0
VERTEX
  8
0
 10
211.044816
 20
209.026741
 42
0.000000
  0
VERTEX
  8
0
 10
210.581162
 20
206.763371
 42
0.014080
  0
VERTEX
  8
0
 10
210.374918
 20
205.589343
 42
0.004439
  0
VERTEX
  8
0
 10
210.131823
 20
203.824261
 42
0.004429
  0
VERTEX
  8
0
 10
209.895455
 20
201.849498
 42
0.004900
  0
VERTEX
  8
0
 10
209.702584
 20
199.936242
 42
-0.022101
  0
VERTEX
  8
0
 10
209.436325
 20
197.973935
 42
-0.016763
  0
VERTEX
  8
0
 10
208.978014
 20
195.850567
 42
-0.017039
  0
VERTEX
  8
0
 10
208.412077
 20
193.883780
 42
-0.037428
  0
VERTEX
  8
0
 10
207.818624
 20
192.436242
 42
0.047713
  0
VERTEX
  8
0
 10
207.090668
 20
190.551266
 42
0.110306
  0
VERTEX
  8
0
 10
207.010005
 20
189.044046
 42
0.064582
  0
VERTEX
  8
0
 10
207.575978
 20
187.183091
 42
0.008807
  0
VERTEX
  8
0
 10
209.318185
 20
183.500000
 42
-0.008553
  0
VERTEX
  8
0
 10
210.579069
 20
180.837935
 42
-0.005962
  0
VERTEX
  8
0
 10
211.914183
 20
177.793750
 42
-0.006016
  0
VERTEX
  8
0
 10
213.125129
 20
174.842434
 42
-0.012390
  0
VERTEX
  8
0
 10
213.986960
 20
172.500000
 42
0.000000
  0
VERTEX
  8
0
 10
215.687142
 20
167.500000
 42
0.000000
  0
VERTEX
  8
0
 10
221.992993
 20
166.794245
 42
-0.042603
  0
VERTEX
  8
0
 10
227.647232
 20
165.668009
 42
-0.038094
  0
VERTEX
  8
0
 10
233.253593
 20
163.571087
 42
-0.039878
  0
VERTEX
  8
0
 10
238.143680
 20
160.811449
 42
-0.068917
  0
VERTEX
  8
0
 10
241.613933
 20
157.698910
 42
-0.027062
  0
VERTEX
  8
0
 10
242.833964
 20
156.087221
 42
-0.011746
  0
VERTEX
  8
0
 10
244.285723
 20
153.824055
 42
-0.011584
  0
VERTEX
  8
0
 10
245.720212
 20
151.340021
 42
-0.015102
  0
VERTEX
  8
0
 10
246.909837
 20
149.000000
 42
-0.024447
  0
VERTEX
  8
0
 10
248.285740
 20
145.664574
 42
-0.043558
  0
VERTEX
  8
0
 10
249.035061
 20
142.793575
 42
-0.033773
  0
VERTEX
  8
0
 10
249.380275
 20
139.377727
 42
-0.009418
  0
VERTEX
  8
0
 10
249.457531
 20
134.000000
 42
-0.031233
  0
VERTEX
  8
0
 10
248.911221
 20
125.848104
 42
-0.063342
  0
VERTEX
  8
0
 10
247.287148
 20
119.640131
 42
-0.068780
  0
VERTEX
  8
0
 10
244.269142
 20
114.365822
 42
-0.043340
  0
VERTEX
  8
0
 10
239.457025
 20
109.134718
 42
-0.043005
  0
VERTEX
  8
0
 10
234.489892
 20
105.323224
 42
-0.071098
  0
VERTEX
  8
0
 10
229.685445
 20
103.139572
 42
-0.060325
  0
VERTEX
  8
0
 10
223.919177
 20
102.184537
 42
-0.023091
  0
VERTEX
  8
0
 10
215.773313
 20
102.205254
 42
0.024025
  0
VERTEX
  8
0
 10
208.446781
 20
102.210204
 42
0.073272
  0
VERTEX
  8
0
 10
203.578093
 20
101.255427
 42
0.079614
  0
VERTEX
  8
0
 10
199.417385
 20
98.988774
 42
0.031931
  0
VERTEX
  8
0
 10
194.536908
 20
94.694802
 42
-0.012489
  0
VERTEX
  8
0
 10
192.511235
 20
92.767872
 42
-0.011894
  0
VERTEX
  8
0
 10
190.359280
 20
90.911988
 42
-0.011924
  0
VERTEX
  8
0
 10
188.380673
 20
89.363576
 42
-0.040755
  0
VERTEX
  8
0
 10
186.995986
 20
88.497924
 42
0.075678
  0
VERTEX
  8
0
 10
185.500173
 20
87.411156
 42
0.067757
  0
VERTEX
  8
0
 10
184.329152
 20
85.890120
 42
0.043960
  0
VERTEX
  8
0
 10
183.257385
 20
83.571177
 42
0.012548
  0
VERTEX
  8
0
 10
182.009240
 20
79.804511
 42
-0.017227
  0
VERTEX
  8
0
 10
179.984513
 20
73.880501
 42
-0.018963
  0
VERTEX
  8
0
 10
177.613908
 20
68.300080
 42
-0.020274
  0
VERTEX
  8
0
 10
175.026437
 20
63.332075
 42
-0.030773
  0
VERTEX
  8
0
 10
172.349406
 20
59.265936
 42
0.025374
  0
VERTEX
  8
0
 10
171.314292
 20
57.730041
 42
0.014230
  0
VERTEX
  8
0
 10
170.207518
 20
55.769067
 42
0.014171
  0
VERTEX
  8
0
 10
169.199553
 20
53.719354
 42
0.022381
  0
VERTEX
  8
0
 10
168.465830
 20
51.903152
 42
-0.030691
  0
VERTEX
  8
0
 10
167.691320
 20
50.074065
 42
-0.017938
  0
VERTEX
  8
0
 10
166.554446
 20
47.982027
 42
-0.017896
  0
VERTEX
  8
0
 10
165.261434
 20
45.962275
 42
-0.028834
  0
VERTEX
  8
0
 10
164.004566
 20
44.352419
 42
-0.006172
  0
VERTEX
  8
0
 10
162.216940
 20
42.366412
 42
-0.105283
  0
VERTEX
  8
0
 10
161.504142
 20
41.862063
 42
-0.461947
  0
VERTEX
  8
0
 10
161.124900
 20
42.049720
 42
-0.061530
  0
VERTEX
  8
0
 10
161.000000
 20
43.060833
 42
-0.066637
  0
VERTEX
  8
0
 10
161.134970
 20
44.069063
 42
-0.028382
  0
VERTEX
  8
0
 10
161.567969
 20
45.363085
 42
-0.027461
  0
VERTEX
  8
0
 10
162.193416
 20
46.710593
 42
-0.032338
  0
VERTEX
  8
0
 10
162.933511
 20
47.906624
 42
0.025264
  0
VERTEX
  8
0
 10
163.723821
 20
49.144355
 42
0.017255
  0
VERTEX
  8
0
 10
164.499307
 20
50.622226
 42
0.017425
  0
VERTEX
  8
0
 10
165.149622
 20
52.102720
 42
0.033296
  0
VERTEX
  8
0
 10
165.548737
 20
53.338161
 42
-0.051188
  0
VERTEX
  8
0
 10
166.076968
 20
54.793426
 42
-0.010882
  0
VERTEX
  8
0
 10
167.304437
 20
57.196520
 42
-0.011277
  0
VERTEX
  8
0
 10
168.857650
 20
59.931060
 42
-0.010509
  0
VERTEX
  8
0
 10
170.568285
 20
62.658803
 42
0.032465
  0
VERTEX
  8
0
 10
173.681009
 20
68.143077
 42
0.013020
  0
VERTEX
  8
0
 10
177.242002
 20
76.005203
 42
0.009938
  0
VERTEX
  8
0
 10
180.348013
 20
83.795801
 42
0.090117
  0
VERTEX
  8
0
 10
181.000000
 20
87.383856
 42
-0.190338
  0
VERTEX
  8
0
 10
181.265579
 20
88.056232
 42
-0.020931
  0
VERTEX
  8
0
 10
182.470855
 20
89.240454
 42
-0.023201
  0
VERTEX
  8
0
 10
184.089291
 20
90.571690
 42
-0.016749
  0
VERTEX
  8
0
 10
186.007168
 20
91.907705
 42
0.019528
  0
VERTEX
  8
0
 10
188.104589
 20
93.386166
 42
0.015236
  0
VERTEX
  8
0
 10
190.266443
 20
95.147010
 42
0.015491
  0
VERTEX
  8
0
 10
192.181457
 20
96.913130
 42
0.035826
  0
VERTEX
  8
0
 10
193.475487
 20
98.378974
 42
-0.051095
  0
VERTEX
  8
0
 10
194.858732
 20
99.852803
 42
-0.028347
  0
VERTEX
  8
0
 10
196.811289
 20
101.362923
 42
-0.026539
  0
VERTEX
  8
0
 10
199.117707
 20
102.772464
 42
-0.025651
  0
VERTEX
  8
0
 10
201.586309
 20
103.947368
 42
-0.014624
  0
VERTEX
  8
0
 10
204.940391
 20
105.223956
 42
-0.055570
  0
VERTEX
  8
0
 10
207.123104
 20
105.719861
 42
-0.062747
  0
VERTEX
  8
0
 10
209.225435
 20
105.692631
 42
-0.022147
  0
VERTEX
  8
0
 10
212.194280
 20
105.144513
 42
0.046544
  0
VERTEX
  8
0
 10
219.197068
 20
104.201668
 42
0.063620
  0
VERTEX
  8
0
 10
225.531253
 20
104.749393
 42
0.066490
  0
VERTEX
  8
0
 10
231.310402
 20
106.833510
 42
0.057325
  0
VERTEX
  8
0
 10
236.665265
 20
110.445474
 42
0.052189
  0
VERTEX
  8
0
 10
240.789858
 20
114.797566
 42
0.054147
  0
VERTEX
  8
0
 10
243.865591
 20
119.858471
 42
0.052210
  0
VERTEX
  8
0
 10
245.865476
 20
125.629648
 42
0.042884
  0
VERTEX
  8
0
 10
246.798971
 20
132.088318
 42
0.035182
  0
VERTEX
  8
0
 10
246.714467
 20
138.842460
 42
0.054890
  0
VERTEX
  8
0
 10
245.602474
 20
144.547025
 42
0.058359
  0
VERTEX
  8
0
 10
243.344846
 20
149.619215
 42
0.046642
  0
VERTEX
  8
0
 10
239.824245
 20
154.462328
 42
0.040462
  0
VERTEX
  8
0
 10
235.593114
 20
158.549784
 42
0.060133
  0
VERTEX
  8
0
 10
231.253044
 20
161.314071
 42
0.058072
  0
VERTEX
  8
0
 10
226.265760
 20
163.027876
 42
0.034838
  0
VERTEX
  8
0
 10
220.061507
 20
163.935952
 42
0.000000
  0
VERTEX
  8
0
 10
212.623014
 20
164.500000
 42
0.000000
  0
VERTEX
  8
0
 10
211.363787
 20
169.500000
 42
0.025342
  0
VERTEX
  8
0
 10
210.614717
 20
171.944132
 42
0.009648
  0
VERTEX
  8
0
 10
209.334412
 20
175.271112
 42
0.009526
  0
VERTEX
  8
0
 10
207.801783
 20
178.839264
 42
0.011514
  0
VERTEX
  8
0
 10
206.223552
 20
182.125061
 42
0.000000
  0
VERTEX
  8
0
 10
202.342543
 20
189.750122
 42
0.000000
  0
VERTEX
  8
0
 10
204.269080
 20
192.394832
 42
0.074115
  0
VERTEX
  8
0
 10
205.802380
 20
195.328514
 42
0.051739
  0
VERTEX
  8
0
 10
206.655855
 20
198.969337
 42
0.050542
  0
VERTEX
  8
0
 10
206.755318
 20
202.812254
 42
0.060989
  0
VERTEX
  8
0
 10
206.049279
 20
206.350682
 42
0.135687
  0
VERTEX
  8
0
 10
202.150797
 20
212.192083
 42
0.122618
  0
VERTEX
  8
0
 10
195.656880
 20
215.478918
 42
0.119708
  0
VERTEX
  8
0
 10
188.251746
 20
215.377072
 42
0.125484
  0
VERTEX
  8
0
 10
181.864998
 20
211.873889
 42
0.000000
  0
VERTEX
  8
0
 10
178.586729
 20
208.811528
 42
0.000000
  0
VERTEX
  8
0
 10
169.543365
 20
211.655764
 42
0.015124
  0
VERTEX
  8
0
 10
163.783860
 20
213.277511
 42
0.033874
  0
VERTEX
  8
0
 10
159.311590
 20
214.075182
 42
0.023177
  0
VERTEX
  8
0
 10
153.847837
 20
214.416754
 42
0.004022
  0
VERTEX
  8
0
 10
143.500000
 20
214.500000
 42
0.013345
  0
VERTEX
  8
0
 10
131.258456
 20
214.173221
 42
0.034614
  0
VERTEX
  8
0
 10
122.504936
 20
213.094838
 42
0.041455
  0
VERTEX
  8
0
 10
114.943321
 20
210.964286
 42
0.027888
  0
VERTEX
  8
0
 10
106.721782
 20
207.359016
 42
0.000000
  0
VERTEX
  8
0
 10
101.893119
 20
204.912147
 42
0.000000
  0
VERTEX
  8
0
 10
98.970514
 20
207.371357
 42
0.159905
  0
VERTEX
  8
0
 10
90.551622
 20
210.757240
 42
0.142387
  0
VERTEX
  8
0
 10
81.312867
 20
208.714399
 42
0.146341
  0
VERTEX
  8
0
 10
74.780262
 20
202.106799
 42
0.170246
  0
VERTEX
  8
0
 10
73.450261
 20
193.413440
 42
0.051552
  0
VERTEX
  8
0
 10
73.917879
 20
191.837566
 42
0.025126
  0
VERTEX
  8
0
 10
74.815733
 20
189.938857
 42
0.024616
  0
VERTEX
  8
0
 10
75.957708
 20
188.038830
 42
0.032545
  0
VERTEX
  8
0
 10
77.188174
 20
186.438463
 42
0.000000
  0
VERTEX
  8
0
 10
80.277700
 20
182.919687
 42
0.000000
  0
VERTEX
  8
0
 10
76.715060
 20
175.209844
 42
0.028879
  0
VERTEX
  8
0
 10
73.398678
 20
166.787640
 42
0.032541
  0
VERTEX
  8
0
 10
71.227407
 20
158.365853
 42
0.029050
  0
VERTEX
  8
0
 10
70.005921
 20
148.962705
 42
0.016530
  0
VERTEX
  8
0
 10
69.569706
 20
137.500000
 42
0.004171
  0
VERTEX
  8
0
 10
69.599053
 20
128.772919
 42
0.031608
  0
VERTEX
  8
0
 10
69.906991
 20
124.669233
 42
0.053955
  0
VERTEX
  8
0
 10
70.686058
 20
121.565114
 42
0.025697
  0
VERTEX
  8
0
 10
72.310949
 20
117.775753
 42
0.045533
  0
VERTEX
  8
0
 10
75.089912
 20
113.217334
 42
0.043017
  0
VERTEX
  8
0
 10
78.696146
 20
109.142414
 42
0.043435
  0
VERTEX
  8
0
 10
82.907872
 20
105.781291
 42
0.048676
  0
VERTEX
  8
0
 10
87.485156
 20
103.343031
 42
0.000000
  0
VERTEX
  8
0
 10
91.721569
 20
101.590834
 42
0.000000
  0
VERTEX
  8
0
 10
88.861573
 20
95.545417
 42
0.013080
  0
VERTEX
  8
0
 10
87.766666
 20
93.065201
 42
0.014461
  0
VERTEX
  8
0
 10
86.841470
 20
90.612029
 42
0.013933
  0
VERTEX
  8
0
 10
86.173414
 20
88.481578
 42
0.069022
  0
VERTEX
  8
0
 10
86.000789
 20
87.240213
 42
-0.079026
  0
VERTEX
  8
0
 10
85.842616
 20
86.247927
 42
-0.045421
  0
VERTEX
  8
0
 10
85.362587
 20
85.133050
 42
-0.044007
  0
VERTEX
  8
0
 10
84.659974
 20
84.072965
 42
-0.055497
  0
VERTEX
  8
0
 10
83.829296
 20
83.240213
 42
0.019912
  0
VERTEX
  8
0
 10
80.252309
 20
80.130789
 42
0.066695
  0
VERTEX
  8
0
 10
78.297786
 20
77.724649
 42
0.086830
  0
VERTEX
  8
0
 10
77.322875
 20
75.253576
 42
0.050682
  0
VERTEX
  8
0
 10
77.000000
 20
72.076484
 42
0.029154
  0
VERTEX
  8
0
 10
77.116301
 20
70.083607
 42
0.028401
  0
VERTEX
  8
0
 10
77.463692
 20
68.099971
 42
0.030075
  0
VERTEX
  8
0
 10
77.984929
 20
66.355105
 42
0.065241
  0
VERTEX
  8
0
 10
78.630693
 20
65.116873
 42
0.084339
  0
VERTEX
  8
0
 10
80.436605
 20
63.288771
 42
0.041834
  0
VERTEX
  8
0
 10
83.241336
 20
61.609036
 42
0.041605
  0
VERTEX
  8
0
 10
86.339494
 20
60.397302
 42
0.072542
  0
VERTEX
  8
0
 10
89.063511
 20
60.000000
 42
-0.070196
  0
VERTEX
  8
0
 10
90.083984
 20
59.856024
 42
-0.027698
  0
VERTEX
  8
0
 10
91.426042
 20
59.387762
 42
-0.026750
  0
VERTEX
  8
0
 10
92.841376
 20
58.713523
 42
-0.030188
  0
VERTEX
  8
0
 10
94.118269
 20
57.915785
 42
-0.052688
  0
VERTEX
  8
0
 10
96.069694
 20
56.190204
 42
-0.036799
  0
VERTEX
  8
0
 10
97.890533
 20
53.881951
 42
-0.022552
  0
VERTEX
  8
0
 10
100.035298
 20
50.377752
 42
-0.005589
  0
VERTEX
  8
0
 10
103.221903
 20
44.445871
 42
0.028842
  0
VERTEX
  8
0
 10
104.045898
 20
43.069535
 42
0.021798
  0
VERTEX
  8
0
 10
105.099112
 20
41.657054
 42
0.022215
  0
VERTEX
  8
0
 10
106.208779
 20
40.413894
 42
0.046694
  0
VERTEX
  8
0
 10
107.194410
 20
39.576384
 42
-0.015497
  0
VERTEX
  8
0
 10
108.005357
 20
38.970068
 42
-0.037910
  0
VERTEX
  8
0
 10
108.550925
 20
38.463063
 42
-0.097334
  0
VERTEX
  8
0
 10
108.749511
 20
38.140738
 42
-0.523448
  0
VERTEX
  8
0
 10
108.651912
 20
38.000000
 42
-0.177494
  0
VERTEX
  8
0
 10
107.004300
 20
38.603909
 42
-0.009245
  0
VERTEX
  8
0
 10
102.698274
 20
42.389336
 42
-0.011342
  0
VERTEX
  8
0
 10
98.610553
 20
46.292593
 42
-0.120190
  0
VERTEX
  8
0
 10
97.421701
 20
48.246697
 42
0.061820
  0
VERTEX
  8
0
 10
96.957929
 20
49.255757
 42
0.015131
  0
VERTEX
  8
0
 10
95.946926
 20
50.783639
 42
0.015270
  0
VERTEX
  8
0
 10
94.672299
 20
52.476595
 42
0.014706
  0
VERTEX
  8
0
 10
93.281164
 20
54.110545
 42
0.021763
  0
VERTEX
  8
0
 10
91.350189
 20
56.069397
 42
0.059737
  0
VERTEX
  8
0
 10
89.783626
 20
57.210916
 42
0.075206
  0
VERTEX
  8
0
 10
88.215584
 20
57.801584
 42
0.052579
  0
VERTEX
  8
0
 10
86.333978
 20
58.000000
 42
-0.091623
  0
VERTEX
  8
0
 10
81.152746
 20
58.957483
 42
-0.121780
  0
VERTEX
  8
0
 10
77.234480
 20
61.683456
 42
-0.111817
  0
VERTEX
  8
0
 10
74.819681
 20
66.126077
 42
-0.068902
  0
VERTEX
  8
0
 10
74.000000
 20
72.046048
 42
-0.045966
  0
VERTEX
  8
0
 10
74.377222
 20
76.140629
 42
-0.069248
  0
VERTEX
  8
0
 10
75.509742
 20
79.535253
 42
-0.075731
  0
VERTEX
  8
0
 10
77.429221
 20
82.273093
 42
-0.068758
  0
VERTEX
  8
0
 10
80.135541
 20
84.420995
 42
0.035052
  0
VERTEX
  8
0
 10
81.231743
 20
85.176819
 42
0.040217
  0
VERTEX
  8
0
 10
82.158565
 20
86.047381
 42
0.044246
  0
VERTEX
  8
0
 10
82.804468
 20
86.900803
 42
0.140776
  0
VERTEX
  8
0
 10
83.000000
 20
87.581519
 42
-0.059517
  0
VERTEX
  8
0
 10
83.103810
 20
88.450531
 42
-0.008119
  0
VERTEX
  8
0
 10
83.564294
 20
90.224125
 42
-0.009244
  0
VERTEX
  8
0
 10
84.185472
 20
92.315280
 42
-0.007687
  0
VERTEX
  8
0
 10
84.921000
 20
94.515553
 42
0.000000
  0
VERTEX
  8
0
 10
86.841999
 20
99.981142
 42
0.000000
  0
VERTEX
  8
0
 10
83.632196
 20
101.504293
 42
-0.095305
  0
VERTEX
  8
0
 10
74.896150
 20
107.915471
 42
-0.096696
  0
VERTEX
  8
0
 10
69.215738
 20
117.080094
 42
-0.077106
  0
VERTEX
  8
0
 10
66.599952
 20
129.464003
 42
-0.038619
  0
VERTEX
  8
0
 10
66.967915
 20
145.500000
 42
-0.008515
  0
VERTEX
  8
0
 10
68.233466
 20
156.251370
 42
-0.018248
  0
VERTEX
  8
0
 10
69.652178
 20
164.481973
 42
-0.023071
  0
VERTEX
  8
0
 10
71.381729
 20
171.162894
 42
-0.030605
  0
VERTEX
  8
0
 10
73.596945
 20
177.036672
 42
0.000000
  0
VERTEX
  8
0
 10
76.297534
 20
183.054387
 42
0.000000
  0
VERTEX
  8
0
 10
74.215380
 20
185.277193
 42
-0.074468
  0
VERTEX
  8
0
 10
71.645054
 20
189.001566
 42
-0.074246
  0
VERTEX
  8
0
 10
70.275312
 20
193.319315
 42
-0.072566
  0
VERTEX
  8
0
 10
70.210232
 20
197.936318
 42
-0.066346
  0
VERTEX
  8
0
 10
71.448973
 20
202.532119
 42
0.000000
  0
VERTEX
  8
0
 10
72.897947
 20
206.000000
 42
0.000000
  0
VERTEX
  8
0
 10
69.850102
 20
206.000000
 42
-0.073735
  0
VERTEX
  8
0
 10
66.431392
 20
206.506913
 42
-0.049691
  0
VERTEX
  8
0
 10
62.782188
 20
208.022774
 42
-0.040073
  0
VERTEX
  8
0
 10
58.786967
 20
210.601150
 42
-0.021816
  0
VERTEX
  8
0
 10
54.306362
 20
214.350969
 42
0.005442
  0
VERTEX
  8
0
 10
50.901183
 20
217.395762
 42
0.069523
  0
VERTEX
  8
0
 10
49.471645
 20
218.332099
 42
0.250917
  0
VERTEX
  8
0
 10
48.555873
 20
218.285694
 42
0.135019
  0
VERTEX
  8
0
 10
47.755314
 20
217.443519
 42
-0.048700
  0
VERTEX
  8
0
 10
47.061622
 20
216.405177
 42
-0.009111
  0
VERTEX
  8
0
 10
45.577687
 20
214.659476
 42
-0.009676
  0
VERTEX
  8
0
 10
43.760065
 20
212.677217
 42
-0.008715
  0
VERTEX
  8
0
 10
41.803646
 20
210.695122
 42
-0.012112
  0
VERTEX
  8
0
 10
38.821752
 20
207.915723
 42
-0.066879
  0
VERTEX
  8
0
 10
37.004979
 20
206.692746
 42
-0.095226
  0
VERTEX
  8
0
 10
35.230747
 20
206.203536
 42
-0.037941
  0
VERTEX
  8
0
 10
32.696382
 20
206.195122
 42
-0.017656
  0
VERTEX
  8
0
 10
30.037923
 20
206.482911
 42
-0.159898
  0
VERTEX
  8
0
 10
29.005167
 20
206.994915
 42
-0.163005
  0
VERTEX
  8
0
 10
28.486707
 20
208.014911
 42
-0.018536
  0
VERTEX
  8
0
 10
28.198805
 20
210.621018
 42
-0.024368
  0
VERTEX
  8
0
 10
28.139945
 20
213.049671
 42
-0.111542
  0
VERTEX
  8
0
 10
28.482243
 20
214.409134
 42
-0.115645
  0
VERTEX
  8
0
 10
29.369221
 20
215.464131
 42
-0.027104
  0
VERTEX
  8
0
 10
31.304021
 20
216.751869
 42
0.090693
  0
VERTEX
  8
0
 10
34.817218
 20
219.795686
 42
0.036600
  0
VERTEX
  8
0
 10
38.428076
 20
225.042060
 42
0.033926
  0
VERTEX
  8
0
 10
41.661991
 20
231.539756
 42
0.031998
  0
VERTEX
  8
0
 10
44.060427
 20
238.541840
 42
-0.002810
  0
VERTEX
  8
0
 10
44.925919
 20
241.649126
 42
-0.004004
  0
VERTEX
  8
0
 10
45.732153
 20
244.398176
 42
-0.002254
  0
VERTEX
  8
0
 10
46.441185
 20
246.708322
 42
-0.058564
  0
VERTEX
  8
0
 10
46.706254
 20
247.303013
 42
-0.209844
  0
VERTEX
  8
0
 10
47.121176
 20
247.599745
 42
-0.024928
  0
VERTEX
  8
0
 10
48.264830
 20
247.781131
 42
-0.026355
  0
VERTEX
  8
0
 10
49.714228
 20
247.860564
 42
-0.018701
  0
VERTEX
  8
0
 10
51.341781
 20
247.803013
 42
0.000000
  0
VERTEX
  8
0
 10
55.500000
 20
247.500000
 42
0.000000
  0
SEQEND
  0
POLYLINE
  8
0
 66
1
 70
1
  0
VERTEX
  8
0
 10
164.561315
 20
208.995255
 42
-0.041022
  0
VERTEX
  8
0
 10
175.542642
 20
205.220453
 42
-0.046794
  0
VERTEX
  8
0
 10
185.257160
 20
199.829695
 42
-0.048489
  0
VERTEX
  8
0
 10
193.507201
 20
192.922523
 42
-0.050579
  0
VERTEX
  8
0
 10
200.142817
 20
184.645821
 42
-0.023519
  0
VERTEX
  8
0
 10
202.975841
 20
179.784909
 42
-0.020619
  0
VERTEX
  8
0
 10
205.476941
 20
174.464336
 42
-0.021299
  0
VERTEX
  8
0
 10
207.350343
 20
169.420060
 42
-0.050323
  0
VERTEX
  8
0
 10
208.194977
 20
165.504399
 42
-0.125182
  0
VERTEX
  8
0
 10
207.966411
 20
163.848667
 42
-0.182891
  0
VERTEX
  8
0
 10
206.975624
 20
162.780924
 42
-0.052026
  0
VERTEX
  8
0
 10
204.542227
 20
161.873248
 42
-0.003287
  0
VERTEX
  8
0
 10
197.128014
 20
160.007770
 42
0.000000
  0
VERTEX
  8
0
 10
185.756027
 20
157.225838
 42
0.000000
  0
VERTEX
  8
0
 10
182.328824
 20
159.551601
 42
0.038326
  0
VERTEX
  8
0
 10
178.264862
 20
161.876398
 42
0.053556
  0
VERTEX
  8
0
 10
174.316099
 20
163.255432
 42
0.049775
  0
VERTEX
  8
0
 10
169.948350
 20
163.824293
 42
0.027823
  0
VERTEX
  8
0
 10
164.585364
 20
163.687036
 42
0.030748
  0
VERTEX
  8
0
 10
156.015802
 20
162.455833
 42
0.010098
  0
VERTEX
  8
0
 10
143.585780
 20
159.619203
 42
0.004551
  0
VERTEX
  8
0
 10
130.918466
 20
156.335255
 42
0.170798
  0
VERTEX
  8
0
 10
128.511286
 20
154.684547
 42
-0.091723
  0
VERTEX
  8
0
 10
127.824498
 20
154.036361
 42
-0.026710
  0
VERTEX
  8
0
 10
126.557194
 20
153.310503
 42
-0.025873
  0
VERTEX
  8
0
 10
125.014690
 20
152.630884
 42
-0.025065
  0
VERTEX
  8
0
 10
123.393986
 20
152.106089
 42
0.088001
  0
VERTEX
  8
0
 10
118.631155
 20
149.872079
 42
0.109174
  0
VERTEX
  8
0
 10
115.341103
 20
146.262905
 42
0.088733
  0
VERTEX
  8
0
 10
113.445967
 20
140.984287
 42
0.041637
  0
VERTEX
  8
0
 10
112.831893
 20
133.731110
 42
0.017021
  0
VERTEX
  8
0
 10
112.939661
 20
130.446918
 42
0.028283
  0
VERTEX
  8
0
 10
113.280477
 20
127.698889
 42
0.033020
  0
VERTEX
  8
0
 10
113.870062
 20
125.350325
 42
0.041705
  0
VERTEX
  8
0
 10
114.732318
 20
123.284073
 42
0.000000
  0
VERTEX
  8
0
 10
116.641106
 20
119.605926
 42
0.000000
  0
VERTEX
  8
0
 10
110.570553
 20
111.782782
 42
0.000000
  0
VERTEX
  8
0
 10
104.500000
 20
103.959637
 42
0.000000
  0
VERTEX
  8
0
 10
99.133151
 20
104.502287
 42
-0.066196
  0
VERTEX
  8
0
 10
91.100877
 20
106.408164
 42
-0.064832
  0
VERTEX
  8
0
 10
83.783766
 20
110.354856
 42
-0.069136
  0
VERTEX
  8
0
 10
78.138767
 20
115.743698
 42
-0.099553
  0
VERTEX
  8
0
 10
75.006831
 20
121.877332
 42
-0.065072
  0
VERTEX
  8
0
 10
73.362031
 20
133.245198
 42
-0.029904
  0
VERTEX
  8
0
 10
74.052439
 20
148.223735
 42
-0.029862
  0
VERTEX
  8
0
 10
76.577329
 20
163.334918
 42
-0.053133
  0
VERTEX
  8
0
 10
80.677604
 20
175.250000
 42
-0.010701
  0
VERTEX
  8
0
 10
82.445955
 20
178.828183
 42
-0.093799
  0
VERTEX
  8
0
 10
83.535802
 20
180.211039
 42
-0.143784
  0
VERTEX
  8
0
 10
84.871653
 20
180.824797
 42
-0.036285
  0
VERTEX
  8
0
 10
87.282739
 20
181.000000
 42
0.097464
  0
VERTEX
  8
0
 10
93.597438
 20
182.242722
 42
0.095005
  0
VERTEX
  8
0
 10
99.035140
 20
185.790364
 42
0.096621
  0
VERTEX
  8
0
 10
102.708055
 20
191.038353
 42
0.104881
  0
VERTEX
  8
0
 10
104.000000
 20
197.129715
 42
-0.018186
  0
VERTEX
  8
0
 10
104.107274
 20
200.078040
 42
-0.109383
  0
VERTEX
  8
0
 10
104.544090
 20
201.538445
 42
-0.122828
  0
VERTEX
  8
0
 10
105.535124
 20
202.595938
 42
-0.025419
  0
VERTEX
  8
0
 10
107.762102
 20
203.878634
 42
-0.055640
  0
VERTEX
  8
0
 10
120.227817
 20
208.579001
 42
-0.039914
  0
VERTEX
  8
0
 10
134.915389
 20
211.094579
 42
-0.039047
  0
VERTEX
  8
0
 10
150.223625
 20
211.274993
 42
-0.045738
  0
SEQEND
  0
POLYLINE
  8
0
 66
1
 70
1
  0
VERTEX
  8
0
 10
176.570863
 20
157.619231
 42
-0.110314
  0
VERTEX
  8
0
 10
184.730737
 20
151.344560
 42
-0.103113
  0
VERTEX
  8
0
 10
189.689966
 20
142.047533
 42
-0.099770
  0
VERTEX
  8
0
 10
190.614597
 20
131.277636
 42
-0.096484
  0
VERTEX
  8
0
 10
187.324555
 20
120.849423
 42
-0.118382
  0
VERTEX
  8
0
 10
179.607316
 20
112.289100
 42
-0.131256
  0
VERTEX
  8
0
 10
169.130608
 20
108.577688
 42
-0.131618
  0
VERTEX
  8
0
 10
158.220897
 20
110.588757
 42
-0.119357
  0
VERTEX
  8
0
 10
149.304683
 20
117.822749
 42
-0.097368
  0
VERTEX
  8
0
 10
144.936400
 20
126.695904
 42
-0.089911
  0
VERTEX
  8
0
 10
144.083520
 20
136.824526
 42
-0.091140
  0
VERTEX
  8
0
 10
146.833070
 20
146.491463
 42
-0.103748
  0
VERTEX
  8
0
 10
152.768973
 20
154.051315
 42
-0.058096
  0
VERTEX
  8
0
 10
158.476774
 20
157.809968
 42
-0.079538
  0
VERTEX
  8
0
 10
164.330850
 20
159.669283
 42
-0.081599
  0
VERTEX
  8
0
 10
170.356912
 20
159.584648
 42
-0.064818
  0
SEQEND
  0
POLYLINE
  8
0
 66
1
 70
1
  0
VERTEX
  8
0
 10
228.570863
 20
157.619231
 42
-0.110421
  0
VERTEX
  8
0
 10
236.698563
 20
151.366567
 42
-0.102130
  0
VERTEX
  8
0
 10
241.671257
 20
142.078406
 42
-0.099215
  0
VERTEX
  8
0
 10
242.642092
 20
131.346012
 42
-0.098028
  0
VERTEX
  8
0
 10
239.413270
 20
121.017982
 42
-0.090091
  0
VERTEX
  8
0
 10
233.721352
 20
113.952301
 42
-0.099340
  0
VERTEX
  8
0
 10
226.085594
 20
109.631529
 42
-0.100956
  0
VERTEX
  8
0
 10
217.477039
 20
108.631257
 42
-0.096141
  0
VERTEX
  8
0
 10
209.000000
 20
111.043620
 42
-0.134931
  0
VERTEX
  8
0
 10
200.293893
 20
118.948180
 42
-0.114205
  0
VERTEX
  8
0
 10
196.159645
 20
130.712211
 42
-0.110713
  0
VERTEX
  8
0
 10
197.560914
 20
143.399090
 42
-0.120614
  0
VERTEX
  8
0
 10
204.252305
 20
153.824784
 42
-0.072394
  0
VERTEX
  8
0
 10
209.632996
 20
157.630406
 42
-0.079233
  0
VERTEX
  8
0
 10
215.713951
 20
159.597894
 42
-0.078521
  0
VERTEX
  8
0
 10
222.151612
 20
159.585424
 42
-0.069394
  0
SEQEND
  0
POLYLINE
  8
0
 66
1
 70
1
  0
VERTEX
  8
0
 10
144.782291
 20
154.250000
 42
0.012029
  0
VERTEX
  8
0
 10
142.184747
 20
148.866369
 42
0.029112
  0
VERTEX
  8
0
 10
140.599432
 20
144.745822
 42
0.035075
  0
VERTEX
  8
0
 10
139.677669
 20
140.961929
 42
0.026858
  0
VERTEX
  8
0
 10
139.188427
 20
136.730966
 42
0.030825
  0
VERTEX
  8
0
 10
139.189656
 20
130.924046
 42
0.039346
  0
VERTEX
  8
0
 10
139.938894
 20
125.626316
 42
0.042358
  0
VERTEX
  8
0
 10
141.436410
 20
120.849819
 42
0.047917
  0
VERTEX
  8
0
 10
143.672225
 20
116.599296
 42
-0.008051
  0
VERTEX
  8
0
 10
144.939174
 20
114.595877
 42
-0.072411
  0
VERTEX
  8
0
 10
145.345656
 20
113.643046
 42
-0.420901
  0
VERTEX
  8
0
 10
145.146359
 20
113.309152
 42
-0.151720
  0
VERTEX
  8
0
 10
144.532132
 20
113.349296
 42
0.015734
  0
VERTEX
  8
0
 10
143.816477
 20
113.598385
 42
0.014593
  0
VERTEX
  8
0
 10
143.068499
 20
113.808856
 42
0.014759
  0
VERTEX
  8
0
 10
142.392351
 20
113.956930
 42
0.046553
  0
VERTEX
  8
0
 10
141.930757
 20
114.000000
 42
-0.199130
  0
VERTEX
  8
0
 10
141.449699
 20
114.199497
 42
-0.018537
  0
VERTEX
  8
0
 10
140.557705
 20
115.161820
 42
-0.021579
  0
VERTEX
  8
0
 10
139.550693
 20
116.440048
 42
-0.015257
  0
VERTEX
  8
0
 10
138.528325
 20
117.955131
 42
0.032565
  0
VERTEX
  8
0
 10
137.145827
 20
119.858436
 42
0.050989
  0
VERTEX
  8
0
 10
135.702188
 20
121.274048
 42
0.053841
  0
VERTEX
  8
0
 10
134.063530
 20
122.315447
 42
0.041888
  0
VERTEX
  8
0
 10
132.097414
 20
123.088960
 42
-0.066476
  0
VERTEX
  8
0
 10
129.321914
 20
124.341274
 42
-0.154293
  0
VERTEX
  8
0
 10
127.852875
 20
126.057277
 42
-0.088015
  0
VERTEX
  8
0
 10
127.184887
 20
128.958968
 42
-0.012992
  0
VERTEX
  8
0
 10
127.035617
 20
135.000000
 42
-0.037620
  0
VERTEX
  8
0
 10
127.411342
 20
139.903005
 42
-0.042419
  0
VERTEX
  8
0
 10
128.517909
 20
144.494901
 42
-0.046928
  0
VERTEX
  8
0
 10
130.199664
 20
148.311458
 42
-0.092937
  0
VERTEX
  8
0
 10
132.308756
 20
150.845251
 42
-0.058814
  0
VERTEX
  8
0
 10
133.243865
 20
151.449631
 42
-0.015696
  0
VERTEX
  8
0
 10
134.861853
 20
152.181714
 42
-0.015688
  0
VERTEX
  8
0
 10
136.766965
 20
152.903458
 42
-0.015598
  0
VERTEX
  8
0
 10
138.717234
 20
153.505834
 42
-0.003006
  0
VERTEX
  8
0
 10
142.570233
 20
154.540591
 42
-0.033580
  0
VERTEX
  8
0
 10
144.129976
 20
154.839302
 42
-0.199221
  0
VERTEX
  8
0
 10
144.686798
 20
154.684474
 42
-0.359343
  0
SEQEND
  0
POLYLINE
  8
0
 66
1
 70
1
  0
VERTEX
  8
0
 10
197.000000
 20
154.524170
 42
-0.115058
  0
VERTEX
  8
0
 10
196.928641
 20
154.218176
 42
-0.006092
  0
VERTEX
  8
0
 10
196.471306
 20
153.318747
 42
-0.009319
  0
VERTEX
  8
0
 10
195.889680
 20
152.257181
 42
-0.006629
  0
VERTEX
  8
0
 10
195.200191
 20
151.088790
 42
-0.009609
  0
VERTEX
  8
0
 10
194.039944
 20
149.260986
 42
-0.164703
  0
VERTEX
  8
0
 10
193.486715
 20
148.832061
 42
-0.313455
  0
VERTEX
  8
0
 10
192.972879
 20
148.976750
 42
-0.032652
  0
VERTEX
  8
0
 10
192.200191
 20
150.051052
 42
-0.038013
  0
VERTEX
  8
0
 10
191.060950
 20
152.227320
 42
-0.283712
  0
VERTEX
  8
0
 10
191.224014
 20
153.331434
 42
-0.162031
  0
VERTEX
  8
0
 10
192.434931
 20
154.073861
 42
-0.012280
  0
VERTEX
  8
0
 10
196.250000
 20
154.863818
 42
-0.060609
  0
VERTEX
  8
0
 10
196.536897
 20
154.880635
 42
-0.090928
  0
VERTEX
  8
0
 10
196.779687
 20
154.820221
 42
-0.119445
  0
VERTEX
  8
0
 10
196.940709
 20
154.694477
 42
-0.169094
  0
SEQEND
  0
POLYLINE
  8
0
 66
1
 70
1
  0
VERTEX
  8
0
 10
121.856372
 20
141.499214
 42
0.027704
  0
VERTEX
  8
0
 10
121.524120
 20
139.105125
 42
0.013035
  0
VERTEX
  8
0
 10
121.347886
 20
135.985707
 42
0.012872
  0
VERTEX
  8
0
 10
121.332693
 20
132.699877
 42
0.017681
  0
VERTEX
  8
0
 10
121.499471
 20
129.750000
 42
-0.015482
  0
VERTEX
  8
0
 10
121.777454
 20
125.188995
 42
-0.139349
  0
VERTEX
  8
0
 10
121.292958
 20
123.267558
 42
-0.567080
  0
VERTEX
  8
0
 10
120.425298
 20
123.254408
 42
-0.047069
  0
VERTEX
  8
0
 10
119.188368
 20
125.750000
 42
-0.014267
  0
VERTEX
  8
0
 10
117.942347
 20
129.299995
 42
-0.039166
  0
VERTEX
  8
0
 10
117.335460
 20
131.883392
 42
-0.047944
  0
VERTEX
  8
0
 10
117.203271
 20
134.215242
 42
-0.032057
  0
VERTEX
  8
0
 10
117.479045
 20
136.875969
 42
-0.050144
  0
VERTEX
  8
0
 10
118.297502
 20
139.861438
 42
-0.023958
  0
VERTEX
  8
0
 10
119.905873
 20
143.505190
 42
-0.016423
  0
VERTEX
  8
0
 10
121.668162
 20
146.758571
 42
-0.491383
  0
VERTEX
  8
0
 10
122.471340
 20
146.861994
 42
-0.221865
  0
VERTEX
  8
0
 10
122.584139
 20
146.551768
 42
-0.006565
  0
VERTEX
  8
0
 10
122.440664
 20
145.136706
 42
-0.011956
  0
VERTEX
  8
0
 10
122.205072
 20
143.441432
 42
-0.007825
  0
SEQEND
  0
POLYLINE
  8
0
 66
1
 70
1
  0
VERTEX
  8
0
 10
196.862830
 20
114.675017
 42
-0.011048
  0
VERTEX
  8
0
 10
197.816505
 20
113.525089
 42
-0.411768
  0
VERTEX
  8
0
 10
197.782328
 20
113.218297
 42
-0.226133
  0
VERTEX
  8
0
 10
197.383650
 20
113.123328
 42
-0.005405
  0
VERTEX
  8
0
 10
195.472846
 20
113.554125
 42
-0.027262
  0
VERTEX
  8
0
 10
192.860744
 20
114.325273
 42
-0.144928
  0
VERTEX
  8
0
 10
191.669836
 20
115.192543
 42
-0.219088
  0
VERTEX
  8
0
 10
191.407499
 20
116.353931
 42
-0.070665
  0
VERTEX
  8
0
 10
192.028121
 20
118.052544
 42
-0.010496
  0
VERTEX
  8
0
 10
192.825849
 20
119.470736
 42
-0.223279
  0
VERTEX
  8
0
 10
193.214357
 20
119.735427
 42
-0.301028
  0
VERTEX
  8
0
 10
193.592225
 20
119.563917
 42
-0.017429
  0
VERTEX
  8
0
 10
194.260745
 20
118.409903
 42
0.019166
  0
VERTEX
  8
0
 10
194.764618
 20
117.547030
 42
0.010412
  0
VERTEX
  8
0
 10
195.445536
 20
116.524945
 42
0.010359
  0
VERTEX
  8
0
 10
196.182472
 20
115.512570
 42
0.016133
  0
SEQEND
  0
POLYLINE
  8
0
 66
1
 70
1
  0
VERTEX
  8
0
 10
132.365141
 20
116.927420
 42
-0.106939
  0
VERTEX
  8
0
 10
134.406403
 20
114.460265
 42
-0.157184
  0
VERTEX
  8
0
 10
134.868766
 20
111.706085
 42
-0.101140
  0
VERTEX
  8
0
 10
133.635030
 20
108.295429
 42
-0.029226
  0
VERTEX
  8
0
 10
130.422713
 20
103.670960
 42
0.022848
  0
VERTEX
  8
0
 10
127.655876
 20
99.794234
 42
0.094332
  0
VERTEX
  8
0
 10
126.576010
 20
97.137520
 42
0.271393
  0
VERTEX
  8
0
 10
127.073973
 20
95.693429
 42
0.201167
  0
VERTEX
  8
0
 10
128.716377
 20
95.164276
 42
-0.016098
  0
VERTEX
  8
0
 10
129.622611
 20
95.212499
 42
-0.005531
  0
VERTEX
  8
0
 10
130.936345
 20
95.225515
 42
-0.005490
  0
VERTEX
  8
0
 10
132.386686
 20
95.207915
 42
-0.006329
  0
VERTEX
  8
0
 10
133.769052
 20
95.158444
 42
-0.018505
  0
VERTEX
  8
0
 10
135.726299
 20
94.990818
 42
-0.184656
  0
VERTEX
  8
0
 10
136.440026
 20
94.612287
 42
-0.220462
  0
VERTEX
  8
0
 10
136.650123
 20
93.892443
 42
-0.027257
  0
VERTEX
  8
0
 10
136.309473
 20
92.250000
 42
0.057619
  0
VERTEX
  8
0
 10
135.650795
 20
87.704162
 42
0.140750
  0
VERTEX
  8
0
 10
136.482803
 20
84.457648
 42
0.166012
  0
VERTEX
  8
0
 10
138.782171
 20
82.476344
 42
0.088699
  0
VERTEX
  8
0
 10
142.496855
 20
81.702924
 42
0.033523
  0
VERTEX
  8
0
 10
144.471459
 20
81.779346
 42
0.080824
  0
VERTEX
  8
0
 10
145.877548
 20
82.163957
 42
0.086262
  0
VERTEX
  8
0
 10
147.033994
 20
82.955796
 42
0.042209
  0
VERTEX
  8
0
 10
148.207385
 20
84.310138
 42
0.000000
  0
VERTEX
  8
0
 10
150.183714
 20
87.023202
 42
0.000000
  0
VERTEX
  8
0
 10
153.168582
 20
84.511601
 42
0.060886
  0
VERTEX
  8
0
 10
155.876219
 20
82.745819
 42
0.107853
  0
VERTEX
  8
0
 10
158.453029
 20
82.111441
 42
0.121326
  0
VERTEX
  8
0
 10
160.849554
 20
82.634684
 42
0.090408
  0
VERTEX
  8
0
 10
163.033837
 20
84.250000
 42
0.107551
  0
VERTEX
  8
0
 10
164.264574
 20
86.305821
 42
0.069568
  0
VERTEX
  8
0
 10
164.780062
 20
89.041583
 42
0.062042
  0
VERTEX
  8
0
 10
164.542485
 20
92.137194
 42
0.053407
  0
VERTEX
  8
0
 10
163.554852
 20
95.250000
 42
-0.070653
  0
VERTEX
  8
0
 10
163.301071
 20
96.156825
 42
-0.274004
  0
VERTEX
  8
0
 10
163.520859
 20
96.672246
 42
-0.141314
  0
VERTEX
  8
0
 10
164.248731
 20
96.939650
 42
-0.017828
  0
VERTEX
  8
0
 10
165.940760
 20
97.000000
 42
0.111621
  0
VERTEX
  8
0
 10
168.276790
 20
97.528078
 42
0.047723
  0
VERTEX
  8
0
 10
171.038672
 20
99.183691
 42
0.046979
  0
VERTEX
  8
0
 10
173.327842
 20
101.229342
 42
0.189114
  0
VERTEX
  8
0
 10
174.000000
 20
102.942906
 42
0.425408
  0
VERTEX
  8
0
 10
173.753791
 20
103.179916
 42
0.002981
  0
VERTEX
  8
0
 10
170.548438
 20
103.038696
 42
0.008625
  0
VERTEX
  8
0
 10
166.755675
 20
102.783284
 42
0.005137
  0
VERTEX
  8
0
 10
162.250000
 20
102.355028
 42
-0.008345
  0
VERTEX
  8
0
 10
152.977876
 20
101.533723
 42
-0.011038
  0
VERTEX
  8
0
 10
144.510976
 20
101.113564
 42
-0.005626
  0
VERTEX
  8
0
 10
137.238928
 20
100.995335
 42
-0.200213
  0
VERTEX
  8
0
 10
135.708597
 20
101.624737
 42
-0.257792
  0
VERTEX
  8
0
 10
135.580325
 20
102.069471
 42
-0.027382
  0
VERTEX
  8
0
 10
135.887425
 20
103.143316
 42
-0.028343
  0
VERTEX
  8
0
 10
136.431270
 20
104.466479
 42
-0.018900
  0
VERTEX
  8
0
 10
137.194664
 20
105.917077
 42
0.000000
  0
VERTEX
  8
0
 10
139.305469
 20
109.584680
 42
0.000000
  0
VERTEX
  8
0
 10
151.402734
 20
106.830281
 42
0.006391
  0
VERTEX
  8
0
 10
156.336619
 20
105.773043
 42
0.006960
  0
VERTEX
  8
0
 10
161.157934
 20
104.873842
 42
0.006578
  0
VERTEX
  8
0
 10
165.303719
 20
104.216226
 42
0.033752
  0
VERTEX
  8
0
 10
167.624273
 20
104.037941
 42
0.047488
  0
VERTEX
  8
0
 10
171.418563
 20
104.363934
 42
0.033107
  0
VERTEX
  8
0
 10
175.588375
 20
105.414467
 42
0.032854
  0
VERTEX
  8
0
 10
179.628519
 20
107.021947
 42
0.043632
  0
VERTEX
  8
0
 10
183.035958
 20
109.025605
 42
-0.031626
  0
VERTEX
  8
0
 10
184.774074
 20
110.104559
 42
-0.088116
  0
VERTEX
  8
0
 10
186.133872
 20
110.549960
 42
-0.079018
  0
VERTEX
  8
0
 10
187.649091
 20
110.524273
 42
-0.022097
  0
VERTEX
  8
0
 10
189.969888
 20
110.008108
 42
-0.021940
  0
VERTEX
  8
0
 10
191.513777
 20
109.518818
 42
-0.032228
  0
VERTEX
  8
0
 10
192.816155
 20
108.944673
 42
-0.033470
  0
VERTEX
  8
0
 10
193.762922
 20
108.368674
 42
-0.244007
  0
VERTEX
  8
0
 10
194.000000
 20
107.911796
 42
-0.145493
  0
VERTEX
  8
0
 10
193.067332
 20
104.774433
 42
-0.038141
  0
VERTEX
  8
0
 10
189.839477
 20
100.564858
 42
-0.038379
  0
VERTEX
  8
0
 10
185.592238
 20
96.498283
 42
-0.052473
  0
VERTEX
  8
0
 10
181.171623
 20
93.588750
 42
0.088428
  0
VERTEX
  8
0
 10
179.577657
 20
92.367810
 42
0.063307
  0
VERTEX
  8
0
 10
178.280609
 20
90.528930
 42
0.035308
  0
VERTEX
  8
0
 10
176.950289
 20
87.528020
 42
0.007545
  0
VERTEX
  8
0
 10
175.092737
 20
82.133028
 42
-0.015160
  0
VERTEX
  8
0
 10
173.382817
 20
77.402121
 42
-0.015184
  0
VERTEX
  8
0
 10
171.390184
 20
72.786049
 42
-0.015711
  0
VERTEX
  8
0
 10
169.202613
 20
68.471965
 42
-0.020056
  0
VERTEX
  8
0
 10
166.907616
 20
64.650420
 42
0.006489
  0
VERTEX
  8
0
 10
165.027430
 20
61.703770
 42
0.009260
  0
VERTEX
  8
0
 10
163.441612
 20
59.036798
 42
0.005768
  0
VERTEX
  8
0
 10
162.185459
 20
56.771964
 42
0.124350
  0
VERTEX
  8
0
 10
162.000000
 20
56.037781
 42
-0.106859
  0
VERTEX
  8
0
 10
161.565298
 20
54.027012
 42
-0.045871
  0
VERTEX
  8
0
 10
160.199569
 20
51.627815
 42
-0.045694
  0
VERTEX
  8
0
 10
158.381752
 20
49.471809
 42
-0.088089
  0
VERTEX
  8
0
 10
156.527942
 20
48.194685
 42
-0.096612
  0
VERTEX
  8
0
 10
151.966642
 20
47.103083
 42
-0.073095
  0
VERTEX
  8
0
 10
146.834224
 20
47.637005
 42
-0.077671
  0
VERTEX
  8
0
 10
142.387854
 20
49.541150
 42
-0.146950
  0
VERTEX
  8
0
 10
139.841721
 20
52.448039
 42
0.066727
  0
VERTEX
  8
0
 10
138.952381
 20
53.864094
 42
0.137226
  0
VERTEX
  8
0
 10
137.883622
 20
54.601581
 42
0.073133
  0
VERTEX
  8
0
 10
136.147905
 20
54.926864
 42
0.009813
  0
VERTEX
  8
0
 10
132.421843
 20
55.000000
 42
0.009750
  0
VERTEX
  8
0
 10
128.356398
 20
54.920720
 42
0.099092
  0
VERTEX
  8
0
 10
126.722874
 20
54.526960
 42
0.143748
  0
VERTEX
  8
0
 10
125.629679
 20
53.568895
 42
0.027790
  0
VERTEX
  8
0
 10
124.332358
 20
51.250000
 42
-0.030289
  0
VERTEX
  8
0
 10
123.032228
 20
48.953079
 42
-0.137481
  0
VERTEX
  8
0
 10
121.889156
 20
47.946638
 42
-0.091818
  0
VERTEX
  8
0
 10
120.161434
 20
47.476747
 42
-0.009513
  0
VERTEX
  8
0
 10
115.937510
 20
47.208584
 42
-0.040453
  0
VERTEX
  8
0
 10
111.022778
 20
47.387976
 42
-0.091320
  0
VERTEX
  8
0
 10
107.476381
 20
48.482987
 42
-0.099275
  0
VERTEX
  8
0
 10
104.735125
 20
50.697544
 42
-0.054085
  0
VERTEX
  8
0
 10
102.335664
 20
54.317791
 42
0.036935
  0
VERTEX
  8
0
 10
101.417547
 20
55.811636
 42
0.013875
  0
VERTEX
  8
0
 10
99.924855
 20
57.764334
 42
0.013657
  0
VERTEX
  8
0
 10
98.175700
 20
59.808720
 42
0.016154
  0
VERTEX
  8
0
 10
96.409694
 20
61.639659
 42
-0.088832
  0
VERTEX
  8
0
 10
91.712996
 20
68.184483
 42
-0.082898
  0
VERTEX
  8
0
 10
89.434828
 20
76.111901
 42
-0.075818
  0
VERTEX
  8
0
 10
89.761919
 20
84.965622
 42
-0.058456
  0
VERTEX
  8
0
 10
92.668295
 20
94.195662
 42
0.000000
  0
VERTEX
  8
0
 10
95.273127
 20
100.000000
 42
0.000000
  0
VERTEX
  8
0
 10
100.912553
 20
100.000000
 42
0.000000
  0
VERTEX
  8
0
 10
106.551978
 20
100.000000
 42
0.000000
  0
VERTEX
  8
0
 10
111.525989
 20
106.642779
 42
-0.031806
  0
VERTEX
  8
0
 10
117.650039
 20
113.821042
 42
-0.085819
  0
VERTEX
  8
0
 10
123.048222
 20
117.754239
 42
-0.135790
  0
VERTEX
  8
0
 10
127.899563
 20
118.679830
 42
-0.147331
  0
SEQEND
  0
POLYLINE
  8
0
 66
1
 70
1
  0
VERTEX
  8
0
 10
87.832013
 20
66.250000
 42
-0.102199
  0
VERTEX
  8
0
 10
88.331036
 20
64.633613
 42
-0.429974
  0
VERTEX
  8
0
 10
87.735834
 20
63.950035
 42
-0.147452
  0
VERTEX
  8
0
 10
86.098846
 20
64.368983
 42
-0.030803
  0
VERTEX
  8
0
 10
83.634859
 20
66.072580
 42
-0.106890
  0
VERTEX
  8
0
 10
81.830424
 20
68.253066
 42
-0.098129
  0
VERTEX
  8
0
 10
81.017233
 20
71.052487
 42
-0.092383
  0
VERTEX
  8
0
 10
81.313779
 20
74.094714
 42
-0.082587
  0
VERTEX
  8
0
 10
82.684458
 20
76.959888
 42
0.000000
  0
VERTEX
  8
0
 10
84.368915
 20
79.364788
 42
0.000000
  0
VERTEX
  8
0
 10
85.481287
 20
73.932394
 42
0.012150
  0
VERTEX
  8
0
 10
85.998081
 20
71.687570
 42
0.011593
  0
VERTEX
  8
0
 10
86.630667
 20
69.434828
 42
0.011612
  0
VERTEX
  8
0
 10
87.281412
 20
67.472227
 42
0.039958
  0
SEQEND
  0
POLYLINE
  8
0
 66
1
 70
1
  0
VERTEX
  8
0
 10
137.612736
 20
47.000000
 42
0.051047
  0
VERTEX
  8
0
 10
138.285895
 20
45.450455
 42
0.035291
  0
VERTEX
  8
0
 10
139.338227
 20
43.852578
 42
0.034834
  0
VERTEX
  8
0
 10
140.626626
 20
42.391211
 42
0.044544
  0
VERTEX
  8
0
 10
142.010619
 20
41.250000
 42
-0.017102
  0
VERTEX
  8
0
 10
143.186462
 20
40.384144
 42
-0.044184
  0
VERTEX
  8
0
 10
143.951599
 20
39.660938
 42
-0.129928
  0
VERTEX
  8
0
 10
144.177486
 20
39.212752
 42
-0.476668
  0
VERTEX
  8
0
 10
144.005026
 20
39.000000
 42
-0.155986
  0
VERTEX
  8
0
 10
143.258925
 20
39.238566
 42
-0.013156
  0
VERTEX
  8
0
 10
141.624691
 20
40.468750
 42
-0.016475
  0
VERTEX
  8
0
 10
139.723544
 20
42.084811
 42
-0.011983
  0
VERTEX
  8
0
 10
137.714286
 20
44.000000
 42
0.005723
  0
VERTEX
  8
0
 10
135.753727
 20
45.916182
 42
0.008702
  0
VERTEX
  8
0
 10
134.002958
 20
47.531250
 42
0.004137
  0
VERTEX
  8
0
 10
132.492069
 20
48.854867
 42
0.179685
  0
VERTEX
  8
0
 10
132.101254
 20
49.000000
 42
0.232810
  0
VERTEX
  8
0
 10
131.793902
 20
48.848690
 42
0.020403
  0
VERTEX
  8
0
 10
131.278222
 20
48.118750
 42
0.023420
  0
VERTEX
  8
0
 10
130.713602
 20
47.149379
 42
0.015969
  0
VERTEX
  8
0
 10
130.160294
 20
46.000000
 42
-0.036722
  0
VERTEX
  8
0
 10
129.547711
 20
44.851885
 42
-0.044364
  0
VERTEX
  8
0
 10
128.806440
 20
43.881250
 42
-0.050203
  0
VERTEX
  8
0
 10
128.052505
 20
43.207090
 42
-0.158629
  0
VERTEX
  8
0
 10
127.416182
 20
43.000000
 42
-0.170600
  0
VERTEX
  8
0
 10
126.455569
 20
43.337587
 42
-0.234702
  0
VERTEX
  8
0
 10
126.077075
 20
44.154572
 42
-0.093598
  0
VERTEX
  8
0
 10
126.401780
 20
45.649617
 42
-0.019185
  0
VERTEX
  8
0
 10
127.555195
 20
48.106735
 42
-0.034759
  0
VERTEX
  8
0
 10
128.549499
 20
49.740413
 42
-0.120453
  0
VERTEX
  8
0
 10
129.477334
 20
50.545712
 42
-0.111976
  0
VERTEX
  8
0
 10
130.711460
 20
50.863518
 42
-0.027991
  0
VERTEX
  8
0
 10
132.805195
 20
50.807075
 42
-0.030725
  0
VERTEX
  8
0
 10
134.879618
 20
50.505535
 42
-0.116523
  0
VERTEX
  8
0
 10
136.058314
 20
49.953821
 42
-0.117417
  0
VERTEX
  8
0
 10
136.860604
 20
48.935417
 42
-0.031427
  0
SEQEND
  0
POLYLINE
  8
0
 66
1
 70
1
  0
VERTEX
  8
0
 10
126.500000
 20
39.000000
 42
-0.075854
  0
VERTEX
  8
0
 10
126.175433
 20
38.618541
 42
-0.054031
  0
VERTEX
  8
0
 10
125.713662
 20
38.298248
 42
-0.053889
  0
VERTEX
  8
0
 10
125.192374
 20
38.083483
 42
-0.074131
  0
VERTEX
  8
0
 10
124.690983
 20
38.015313
 42
-0.102799
  0
VERTEX
  8
0
 10
124.327599
 20
38.095709
 42
-0.379910
  0
VERTEX
  8
0
 10
124.239151
 20
38.292684
 42
-0.147021
  0
VERTEX
  8
0
 10
124.445888
 20
38.597454
 42
-0.027275
  0
VERTEX
  8
0
 10
125.000000
 20
39.000000
 42
-0.008108
  0
VERTEX
  8
0
 10
126.281145
 20
39.798791
 42
-0.136158
  0
VERTEX
  8
0
 10
126.758161
 20
39.931144
 42
-0.541951
  0
VERTEX
  8
0
 10
126.886554
 20
39.734105
 42
-0.034464
  0
SEQEND
  0
POLYLINE
  8
0
 66
1
 70
1
  0
VERTEX
  8
0
 10
155.250000
 20
38.276604
 42
-0.019375
  0
VERTEX
  8
0
 10
153.770235
 20
38.150935
 42
-0.011494
  0
VERTEX
  8
0
 10
152.000000
 20
38.110234
 42
-0.011494
  0
VERTEX
  8
0
 10
150.229765
 20
38.150935
 42
-0.019375
  0
VERTEX
  8
0
 10
148.750000
 20
38.276604
 42
-0.108536
  0
VERTEX
  8
0
 10
148.333801
 20
38.423685
 42
-0.707215
  0
VERTEX
  8
0
 10
148.364063
 20
38.561450
 42
-0.025693
  0
VERTEX
  8
0
 10
149.670434
 20
38.655793
 42
-0.005179
  0
VERTEX
  8
0
 10
152.000000
 20
38.679926
 42
-0.005179
  0
VERTEX
  8
0
 10
154.329566
 20
38.655793
 42
-0.025693
  0
VERTEX
  8
0
 10
155.635937
 20
38.561450
 42
-0.707215
  0
VERTEX
  8
0
 10
155.666199
 20
38.423685
 42
-0.108536
  0
SEQEND
  0
POLYLINE
  8
0
 66
1
 70
1
  0
VERTEX
  8
0
 10
113.250000
 20
37.337719
 42
-0.057986
  0
VERTEX
  8
0
 10
112.679992
 20
37.181385
 42
-0.037979
  0
VERTEX
  8
0
 10
112.000000
 20
37.129660
 42
-0.037979
  0
VERTEX
  8
0
 10
111.320008
 20
37.181385
 42
-0.057986
  0
VERTEX
  8
0
 10
110.750000
 20
37.337719
 42
-0.174857
  0
VERTEX
  8
0
 10
110.540618
 20
37.525001
 42
-0.447206
  0
VERTEX
  8
0
 10
110.601562
 20
37.693942
 42
-0.078554
  0
VERTEX
  8
0
 10
111.108560
 20
37.810911
 42
-0.017491
  0
VERTEX
  8
0
 10
112.000000
 20
37.842105
 42
-0.017491
  0
VERTEX
  8
0
 10
112.891440
 20
37.810911
 42
-0.078554
  0
VERTEX
  8
0
 10
113.398438
 20
37.693942
 42
-0.447206
  0
VERTEX
  8
0
 10
113.459382
 20
37.525001
 42
-0.174857
  0
SEQEND
  0
POLYLINE
  8
0
 66
1
 70
1
  0
VERTEX
  8
0
 10
49.491495
 20
244.986238
 42
0.057384
  0
VERTEX
  8
0
 10
49.158141
 20
244.276186
 42
0.003869
  0
VERTEX
  8
0
 10
48.460220
 20
242.145579
 42
0.005517
  0
VERTEX
  8
0
 10
47.673996
 20
239.583820
 42
0.004104
  0
VERTEX
  8
0
 10
46.860592
 20
236.739489
 42
-0.024890
  0
VERTEX
  8
0
 10
44.625636
 20
229.997564
 42
-0.037267
  0
VERTEX
  8
0
 10
41.959905
 20
224.398810
 42
-0.040648
  0
VERTEX
  8
0
 10
38.696795
 20
219.630354
 42
-0.039299
  0
VERTEX
  8
0
 10
34.671206
 20
215.394295
 42
0.010007
  0
VERTEX
  8
0
 10
32.090244
 20
212.978654
 42
0.059581
  0
VERTEX
  8
0
 10
30.932678
 20
211.545551
 42
0.142885
  0
VERTEX
  8
0
 10
30.631636
 20
210.484963
 42
0.173058
  0
VERTEX
  8
0
 10
30.984250
 20
209.518978
 42
0.061060
  0
VERTEX
  8
0
 10
31.750443
 20
208.796408
 42
0.156146
  0
VERTEX
  8
0
 10
32.465154
 20
208.556108
 42
0.104057
  0
VERTEX
  8
0
 10
33.374149
 20
208.733576
 42
0.019270
  0
VERTEX
  8
0
 10
34.925739
 20
209.461598
 42
0.064275
  0
VERTEX
  8
0
 10
37.679326
 20
211.368244
 42
0.022509
  0
VERTEX
  8
0
 10
41.111892
 20
214.757196
 42
0.022912
  0
VERTEX
  8
0
 10
44.326589
 20
218.566350
 42
0.044504
  0
VERTEX
  8
0
 10
46.460356
 20
221.923336
 42
0.000000
  0
VERTEX
  8
0
 10
48.033854
 20
224.966146
 42
0.000000
  0
VERTEX
  8
0
 10
53.872924
 20
219.127076
 42
0.020854
  0
VERTEX
  8
0
 10
56.525581
 20
216.686924
 42
0.015025
  0
VERTEX
  8
0
 10
59.673813
 20
214.182730
 42
0.015218
  0
VERTEX
  8
0
 10
62.817333
 20
211.978794
 42
0.031515
  0
VERTEX
  8
0
 10
65.421087
 20
210.494807
 42
0.007175
  0
VERTEX
  8
0
 10
68.960527
 20
208.825630
 42
0.070340
  0
VERTEX
  8
0
 10
70.540839
 20
208.361147
 42
0.158191
  0
VERTEX
  8
0
 10
71.651250
 20
208.549885
 42
0.077841
  0
VERTEX
  8
0
 10
72.815090
 20
209.411922
 42
0.022862
  0
VERTEX
  8
0
 10
73.774325
 20
210.479057
 42
0.194308
  0
VERTEX
  8
0
 10
73.962593
 20
211.082008
 42
0.192809
  0
VERTEX
  8
0
 10
73.680053
 20
211.649246
 42
0.022465
  0
VERTEX
  8
0
 10
72.558870
 20
212.561118
 42
0.033513
  0
VERTEX
  8
0
 10
71.701212
 20
213.111918
 42
0.028428
  0
VERTEX
  8
0
 10
70.730029
 20
213.577513
 42
0.029412
  0
VERTEX
  8
0
 10
69.793629
 20
213.899711
 42
0.068151
  0
VERTEX
  8
0
 10
69.058870
 20
214.000629
 42
-0.157268
  0
VERTEX
  8
0
 10
66.785579
 20
214.734805
 42
-0.012592
  0
VERTEX
  8
0
 10
61.699377
 20
218.597717
 42
-0.018062
  0
VERTEX
  8
0
 10
56.713235
 20
222.890823
 42
-0.043082
  0
VERTEX
  8
0
 10
53.428941
 20
226.504276
 42
-0.022985
  0
VERTEX
  8
0
 10
51.767702
 20
228.903349
 42
-0.103504
  0
VERTEX
  8
0
 10
51.180582
 20
230.494922
 42
-0.076693
  0
VERTEX
  8
0
 10
51.191978
 20
232.409338
 42
-0.009293
  0
VERTEX
  8
0
 10
51.937939
 20
236.564708
 42
0.017209
  0
VERTEX
  8
0
 10
52.630397
 20
240.807117
 42
0.054295
  0
VERTEX
  8
0
 10
52.684775
 20
243.684269
 42
0.106296
  0
VERTEX
  8
0
 10
52.159029
 20
245.375581
 42
0.270744
  0
VERTEX
  8
0
 10
51.090402
 20
246.000000
 42
0.088240
  0
VERTEX
  8
0
 10
50.672169
 20
245.925611
 42
0.053305
  0
VERTEX
  8
0
 10
50.219621
 20
245.702207
 42
0.051280
  0
VERTEX
  8
0
 10
49.803275
 20
245.374020
 42
0.061882
  0
SEQEND
  0
POLYLINE
  8
0
 66
1
 70
1
  0
VERTEX
  8
0
 10
215.000000
 20
245.141328
 42
0.010267
  0
VERTEX
  8
0
 10
213.196844
 20
244.825529
 42
0.012000
  0
VERTEX
  8
0
 10
211.500202
 20
244.449849
 42
0.011008
  0
VERTEX
  8
0
 10
210.086630
 20
244.067862
 42
0.068749
  0
VERTEX
  8
0
 10
209.404943
 20
243.760801
 42
0.210760
  0
VERTEX
  8
0
 10
208.935690
 20
243.067262
 42
0.008608
  0
VERTEX
  8
0
 10
208.437148
 20
240.020575
 42
0.013464
  0
VERTEX
  8
0
 10
207.989207
 20
236.243874
 42
0.008330
  0
VERTEX
  8
0
 10
207.656671
 20
231.786743
 42
-0.005623
  0
VERTEX
  8
0
 10
207.337891
 20
227.177791
 42
-0.005947
  0
VERTEX
  8
0
 10
206.920424
 20
222.662521
 42
-0.005699
  0
VERTEX
  8
0
 10
206.470292
 20
218.782132
 42
-0.026803
  0
VERTEX
  8
0
 10
206.067578
 20
216.575031
 42
0.022835
  0
VERTEX
  8
0
 10
205.690413
 20
214.596941
 42
0.053272
  0
VERTEX
  8
0
 10
205.635761
 20
213.092226
 42
0.068355
  0
VERTEX
  8
0
 10
205.894837
 20
211.856350
 42
0.067070
  0
VERTEX
  8
0
 10
206.478401
 20
210.727374
 42
0.016918
  0
VERTEX
  8
0
 10
207.361541
 20
209.553149
 42
0.266952
  0
VERTEX
  8
0
 10
207.810678
 20
209.378750
 42
0.223442
  0
VERTEX
  8
0
 10
208.240500
 20
209.667176
 42
0.012179
  0
VERTEX
  8
0
 10
209.065261
 20
211.121941
 42
0.055482
  0
VERTEX
  8
0
 10
209.614692
 20
212.495357
 42
0.010628
  0
VERTEX
  8
0
 10
210.275969
 20
215.102045
 42
0.011207
  0
VERTEX
  8
0
 10
210.917904
 20
218.192927
 42
0.010111
  0
VERTEX
  8
0
 10
211.445324
 20
221.417215
 42
0.000000
  0
VERTEX
  8
0
 10
212.585231
 20
229.395236
 42
0.000000
  0
VERTEX
  8
0
 10
221.114929
 20
229.573835
 42
0.008704
  0
VERTEX
  8
0
 10
229.395101
 20
229.891474
 42
0.116492
  0
VERTEX
  8
0
 10
232.292646
 20
230.748848
 42
0.223151
  0
VERTEX
  8
0
 10
233.627714
 20
232.650673
 42
0.043266
  0
VERTEX
  8
0
 10
234.000000
 20
236.944943
 42
0.016115
  0
VERTEX
  8
0
 10
233.911754
 20
239.682274
 42
0.038601
  0
VERTEX
  8
0
 10
233.625268
 20
241.691703
 42
0.053903
  0
VERTEX
  8
0
 10
233.137323
 20
243.132768
 42
0.111429
  0
VERTEX
  8
0
 10
232.415858
 20
244.069832
 42
0.136936
  0
VERTEX
  8
0
 10
230.216061
 20
245.053639
 42
0.021733
  0
VERTEX
  8
0
 10
225.470395
 20
245.553324
 42
0.024407
  0
VERTEX
  8
0
 10
220.067358
 20
245.621639
 42
0.029180
  0
SEQEND
  0
POLYLINE
  8
0
 66
1
 70
1
  0
VERTEX
  8
0
 10
229.160976
 20
240.505691
 42
-0.173042
  0
VERTEX
  8
0
 10
229.330009
 20
240.149149
 42
-0.021210
  0
VERTEX
  8
0
 10
229.380496
 20
239.273663
 42
-0.023091
  0
VERTEX
  8
0
 10
229.347000
 20
238.192911
 42
-0.017145
  0
VERTEX
  8
0
 10
229.214143
 20
237.005691
 42
0.000000
  0
VERTEX
  8
0
 10
228.773001
 20
234.000000
 42
0.000000
  0
VERTEX
  8
0
 10
220.886501
 20
234.000000
 42
0.000000
  0
VERTEX
  8
0
 10
213.000000
 20
234.000000
 42
0.000000
  0
VERTEX
  8
0
 10
213.000000
 20
237.500000
 42
0.000000
  0
VERTEX
  8
0
 10
213.000000
 20
241.000000
 42
0.000000
  0
VERTEX
  8
0
 10
220.833333
 20
241.000000
 42
-0.005891
  0
VERTEX
  8
0
 10
223.871096
 20
240.964210
 42
-0.008932
  0
VERTEX
  8
0
 10
226.510828
 20
240.854797
 42
-0.004348
  0
VERTEX
  8
0
 10
228.730491
 20
240.703662
 42
-0.179057
  0
SEQEND
  0
POLYLINE
  8
0
 66
1
 70
1
  0
VERTEX
  8
0
 10
189.250000
 20
237.360012
 42
0.234868
  0
VERTEX
  8
0
 10
188.665593
 20
236.680995
 42
0.030608
  0
VERTEX
  8
0
 10
188.297906
 20
234.749192
 42
0.023857
  0
VERTEX
  8
0
 10
188.067414
 20
231.844407
 42
0.007870
  0
VERTEX
  8
0
 10
188.000000
 20
227.561704
 42
0.000000
  0
VERTEX
  8
0
 10
188.000000
 20
218.290074
 42
0.000000
  0
VERTEX
  8
0
 10
195.166981
 20
217.689220
 42
0.007531
  0
VERTEX
  8
0
 10
197.973257
 20
217.496467
 42
0.010692
  0
VERTEX
  8
0
 10
200.473361
 20
217.416100
 42
0.007012
  0
VERTEX
  8
0
 10
202.552575
 20
217.422903
 42
0.134879
  0
VERTEX
  8
0
 10
203.166981
 20
217.603200
 42
0.256478
  0
VERTEX
  8
0
 10
203.997631
 20
219.070627
 42
0.009797
  0
VERTEX
  8
0
 10
203.954541
 20
225.561820
 42
0.015274
  0
VERTEX
  8
0
 10
203.594814
 20
231.890667
 42
0.095164
  0
VERTEX
  8
0
 10
202.710530
 20
235.000000
 42
0.065978
  0
VERTEX
  8
0
 10
201.801007
 20
236.333436
 42
0.115514
  0
VERTEX
  8
0
 10
200.711503
 20
237.095589
 42
0.072116
  0
VERTEX
  8
0
 10
199.045542
 20
237.496975
 42
0.014288
  0
VERTEX
  8
0
 10
195.975271
 20
237.693345
 42
0.009545
  0
VERTEX
  8
0
 10
193.787268
 20
237.728811
 42
0.011661
  0
VERTEX
  8
0
 10
191.741173
 20
237.675184
 42
0.010234
  0
VERTEX
  8
0
 10
190.032859
 20
237.555423
 42
0.077231
  0
SEQEND
  0
POLYLINE
  8
0
 66
1
 70
1
  0
VERTEX
  8
0
 10
198.795690
 20
227.250000
 42
0.000000
  0
VERTEX
  8
0
 10
198.500000
 20
220.500000
 42
0.000000
  0
VERTEX
  8
0
 10
195.500000
 20
220.500000
 42
0.000000
  0
VERTEX
  8
0
 10
192.500000
 20
220.500000
 42
0.000000
  0
VERTEX
  8
0
 10
192.204310
 20
227.250000
 42
0.000000
  0
VERTEX
  8
0
 10
191.908620
 20
234.000000
 42
0.000000
  0
VERTEX
  8
0
 10
195.500000
 20
234.000000
 42
0.000000
  0
VERTEX
  8
0
 10
199.091380
 20
234.000000
 42
0.000000
  0
SEQEND
  0
POLYLINE
  8
0
 66
1
 70
1
  0
VERTEX
  8
0
 10
214.000000
 20
218.454545
 42
0.012674
  0
VERTEX
  8
0
 10
214.092764
 20
214.795394
 42
0.053942
  0
VERTEX
  8
0
 10
214.437500
 20
212.638258
 42
0.079484
  0
VERTEX
  8
0
 10
215.160514
 20
211.040246
 42
0.050512
  0
VERTEX
  8
0
 10
216.454545
 20
209.454545
 42
0.052083
  0
VERTEX
  8
0
 10
218.072176
 20
208.142876
 42
0.081572
  0
VERTEX
  8
0
 10
219.708236
 20
207.423077
 42
0.052171
  0
VERTEX
  8
0
 10
221.970889
 20
207.087029
 42
0.010799
  0
VERTEX
  8
0
 10
226.000000
 20
207.000000
 42
0.010757
  0
VERTEX
  8
0
 10
230.069969
 20
207.087571
 42
0.053798
  0
VERTEX
  8
0
 10
232.322803
 20
207.429249
 42
0.083275
  0
VERTEX
  8
0
 10
233.963564
 20
208.170205
 42
0.048802
  0
VERTEX
  8
0
 10
235.632982
 20
209.542073
 42
0.020416
  0
VERTEX
  8
0
 10
236.918416
 20
210.936995
 42
0.097343
  0
VERTEX
  8
0
 10
237.444656
 20
211.878509
 42
0.163363
  0
VERTEX
  8
0
 10
237.437941
 20
212.690804
 42
0.090393
  0
VERTEX
  8
0
 10
236.946385
 20
213.564603
 42
0.053499
  0
VERTEX
  8
0
 10
236.180855
 20
214.308660
 42
0.174054
  0
VERTEX
  8
0
 10
235.519421
 20
214.527575
 42
0.119635
  0
VERTEX
  8
0
 10
234.713086
 20
214.310332
 42
0.019685
  0
VERTEX
  8
0
 10
233.319663
 20
213.473795
 42
-0.064606
  0
VERTEX
  8
0
 10
231.908183
 20
212.790219
 42
-0.041248
  0
VERTEX
  8
0
 10
230.134476
 20
212.357054
 42
-0.033672
  0
VERTEX
  8
0
 10
227.951550
 20
212.160587
 42
-0.018850
  0
VERTEX
  8
0
 10
225.285132
 20
212.201266
 42
0.000000
  0
VERTEX
  8
0
 10
219.648653
 20
212.500000
 42
0.000000
  0
VERTEX
  8
0
 10
224.844728
 20
215.721377
 42
0.022801
  0
VERTEX
  8
0
 10
228.280290
 20
218.074618
 42
0.073324
  0
VERTEX
  8
0
 10
230.221095
 20
220.043365
 42
0.145304
  0
VERTEX
  8
0
 10
230.814651
 20
221.703993
 42
0.213166
  0
VERTEX
  8
0
 10
230.268645
 20
223.131355
 42
0.225931
  0
VERTEX
  8
0
 10
229.543926
 20
223.388528
 42
0.059426
  0
VERTEX
  8
0
 10
228.310082
 20
223.109874
 42
0.040244
  0
VERTEX
  8
0
 10
226.627328
 20
222.355829
 42
0.015865
  0
VERTEX
  8
0
 10
224.440082
 20
221.064137
 42
-0.006991
  0
VERTEX
  8
0
 10
222.530632
 20
219.890310
 42
-0.009807
  0
VERTEX
  8
0
 10
220.791494
 20
218.900090
 42
-0.006519
  0
VERTEX
  8
0
 10
219.317440
 20
218.123395
 42
-0.118527
  0
VERTEX
  8
0
 10
218.804219
 20
218.000000
 42
-0.306501
  0
VERTEX
  8
0
 10
218.492094
 20
218.211171
 42
-0.038844
  0
VERTEX
  8
0
 10
218.236239
 20
219.028125
 42
-0.034816
  0
VERTEX
  8
0
 10
218.058154
 20
220.158562
 42
-0.021666
  0
VERTEX
  8
0
 10
218.000000
 20
221.500000
 42
0.022514
  0
VERTEX
  8
0
 10
217.917816
 20
223.324280
 42
0.107690
  0
VERTEX
  8
0
 10
217.607143
 20
224.312500
 42
0.177212
  0
VERTEX
  8
0
 10
217.002462
 20
224.822713
 42
0.087745
  0
VERTEX
  8
0
 10
216.000000
 20
225.000000
 42
0.135205
  0
VERTEX
  8
0
 10
214.933515
 20
224.706242
 42
0.186284
  0
VERTEX
  8
0
 10
214.326389
 20
223.931818
 42
0.066906
  0
VERTEX
  8
0
 10
214.056208
 20
222.288290
 42
0.007330
  0
SEQEND
  0
POLYLINE
  8
0
 66
1
 70
1
  0
VERTEX
  8
0
 10
162.000000
 20
153.879272
 42
0.089482
  0
VERTEX
  8
0
 10
157.240818
 20
150.915953
 42
0.071772
  0
VERTEX
  8
0
 10
153.383461
 20
146.262197
 42
0.068727
  0
VERTEX
  8
0
 10
150.866601
 20
140.496039
 42
0.069641
  0
VERTEX
  8
0
 10
150.021962
 20
134.289838
 42
0.058675
  0
VERTEX
  8
0
 10
150.829659
 20
127.647771
 42
0.079077
  0
VERTEX
  8
0
 10
153.162056
 20
122.069828
 42
0.083016
  0
VERTEX
  8
0
 10
157.002188
 20
117.687301
 42
0.072586
  0
VERTEX
  8
0
 10
162.231529
 20
114.547728
 42
0.118471
  0
VERTEX
  8
0
 10
170.146405
 20
113.270948
 42
0.110023
  0
VERTEX
  8
0
 10
178.017399
 20
115.663297
 42
0.105397
  0
VERTEX
  8
0
 10
184.382330
 20
121.293879
 42
0.100606
  0
VERTEX
  8
0
 10
188.029203
 20
129.121733
 42
0.106783
  0
VERTEX
  8
0
 10
188.243667
 20
138.572822
 42
0.112166
  0
VERTEX
  8
0
 10
184.509651
 20
147.083163
 42
0.116401
  0
VERTEX
  8
0
 10
177.605567
 20
152.924041
 42
0.121773
  0
VERTEX
  8
0
 10
168.934276
 20
154.936614
 42
0.018657
  0
VERTEX
  8
0
 10
167.053263
 20
154.839461
 42
0.015602
  0
VERTEX
  8
0
 10
165.068193
 20
154.599873
 42
0.015886
  0
VERTEX
  8
0
 10
163.265612
 20
154.266112
 42
0.040915
  0
SEQEND
  0
POLYLINE
  8
0
 66
1
 70
1
  0
VERTEX
  8
0
 10
177.078320
 20
149.726203
 42
-0.106059
  0
VERTEX
  8
0
 10
182.963405
 20
143.614060
 42
-0.114956
  0
VERTEX
  8
0
 10
185.607594
 20
135.798587
 42
-0.116539
  0
VERTEX
  8
0
 10
184.510528
 20
127.703457
 42
-0.111239
  0
VERTEX
  8
0
 10
179.902989
 20
120.796605
 42
-0.167334
  0
VERTEX
  8
0
 10
170.300587
 20
116.400490
 42
-0.177913
  0
VERTEX
  8
0
 10
160.308499
 20
118.998806
 42
-0.163524
  0
VERTEX
  8
0
 10
153.803483
 20
127.734383
 42
-0.143395
  0
VERTEX
  8
0
 10
153.448964
 20
139.150044
 42
-0.022530
  0
VERTEX
  8
0
 10
154.072255
 20
141.173178
 42
-0.019892
  0
VERTEX
  8
0
 10
154.898385
 20
143.219615
 42
-0.020362
  0
VERTEX
  8
0
 10
155.792048
 20
145.004557
 42
-0.055474
  0
VERTEX
  8
0
 10
156.606929
 20
146.156345
 42
-0.081500
  0
VERTEX
  8
0
 10
161.175992
 20
149.863160
 42
-0.086791
  0
VERTEX
  8
0
 10
166.593724
 20
151.815010
 42
-0.090949
  0
VERTEX
  8
0
 10
172.136872
 20
151.766496
 42
-0.101053
  0
SEQEND
  0
POLYLINE
  8
0
 66
1
 70
1
  0
VERTEX
  8
0
 10
213.500000
 20
153.612357
 42
0.075171
  0
VERTEX
  8
0
 10
209.899475
 20
151.347019
 42
0.047004
  0
VERTEX
  8
0
 10
206.442692
 20
147.747733
 42
0.046669
  0
VERTEX
  8
0
 10
203.685858
 20
143.521451
 42
0.069078
  0
VERTEX
  8
0
 10
202.184286
 20
139.366493
 42
0.077701
  0
VERTEX
  8
0
 10
201.765299
 20
131.580367
 42
0.087869
  0
VERTEX
  8
0
 10
203.807272
 20
124.387699
 42
0.090921
  0
VERTEX
  8
0
 10
208.114361
 20
118.520552
 42
0.090351
  0
VERTEX
  8
0
 10
214.231529
 20
114.547728
 42
0.155021
  0
VERTEX
  8
0
 10
224.799138
 20
113.613404
 42
0.144412
  0
VERTEX
  8
0
 10
234.317077
 20
118.890594
 42
0.135451
  0
VERTEX
  8
0
 10
239.850032
 20
128.818499
 42
0.131268
  0
VERTEX
  8
0
 10
239.598749
 20
140.308313
 42
0.061989
  0
VERTEX
  8
0
 10
237.796090
 20
144.493245
 42
0.046956
  0
VERTEX
  8
0
 10
234.870379
 20
148.553559
 42
0.047870
  0
VERTEX
  8
0
 10
231.327369
 20
151.900134
 42
0.075455
  0
VERTEX
  8
0
 10
227.684900
 20
153.940462
 42
0.060261
  0
VERTEX
  8
0
 10
224.481889
 20
154.722934
 42
0.035602
  0
VERTEX
  8
0
 10
220.544889
 20
154.912245
 42
0.035638
  0
VERTEX
  8
0
 10
216.630767
 20
154.541760
 42
0.061556
  0
SEQEND
  0
POLYLINE
  8
0
 66
1
 70
1
  0
VERTEX
  8
0
 10
227.930544
 20
150.535917
 42
-0.144282
  0
VERTEX
  8
0
 10
234.891110
 20
143.869237
 42
-0.130637
  0
VERTEX
  8
0
 10
237.463511
 20
134.221582
 42
-0.131070
  0
VERTEX
  8
0
 10
234.903666
 20
124.594389
 42
-0.145645
  0
VERTEX
  8
0
 10
227.955623
 20
117.977361
 42
-0.048603
  0
VERTEX
  8
0
 10
224.375508
 20
116.569727
 42
-0.069483
  0
VERTEX
  8
0
 10
221.000000
 20
116.098373
 42
-0.069483
  0
VERTEX
  8
0
 10
217.624492
 20
116.569727
 42
-0.048603
  0
VERTEX
  8
0
 10
214.044377
 20
117.977361
 42
-0.087966
  0
VERTEX
  8
0
 10
209.447166
 20
121.452092
 42
-0.080697
  0
VERTEX
  8
0
 10
206.159794
 20
126.393379
 42
-0.079672
  0
VERTEX
  8
0
 10
204.576711
 20
132.181092
 42
-0.082436
  0
VERTEX
  8
0
 10
204.911718
 20
138.102602
 42
-0.104227
  0
VERTEX
  8
0
 10
208.152058
 20
145.191949
 42
-0.110227
  0
VERTEX
  8
0
 10
213.925764
 20
150.203063
 42
-0.116663
  0
VERTEX
  8
0
 10
221.004407
 20
152.108614
 42
-0.127671
  0
SEQEND
  0
POLYLINE
  8
0
 66
1
 70
1
  0
VERTEX
  8
0
 10
217.000000
 20
238.000000
 42
0.104581
  0
VERTEX
  8
0
 10
216.365389
 20
237.638045
 42
0.605981
  0
VERTEX
  8
0
 10
216.436453
 20
237.354489
 42
0.049794
  0
VERTEX
  8
0
 10
217.714148
 20
237.179486
 42
0.005167
  0
VERTEX
  8
0
 10
220.750000
 20
237.099680
 42
0.014142
  0
VERTEX
  8
0
 10
223.209077
 20
237.130013
 42
0.025618
  0
VERTEX
  8
0
 10
225.212420
 20
237.314523
 42
0.024610
  0
VERTEX
  8
0
 10
226.687961
 20
237.601783
 42
0.345128
  0
VERTEX
  8
0
 10
227.000000
 20
238.000000
 42
0.384098
  0
VERTEX
  8
0
 10
226.352934
 20
238.718050
 42
0.025982
  0
VERTEX
  8
0
 10
223.363729
 20
238.873485
 42
0.031832
  0
VERTEX
  8
0
 10
219.953569
 20
238.656163
 42
0.045695
  0
SEQEND
  0
POLYLINE
  8
0
 66
1
 70
1
  0
VERTEX
  8
0
 10
195.000000
 20
227.000000
 42
0.023598
  0
VERTEX
  8
0
 10
195.072390
 20
225.467056
 42
0.037669
  0
VERTEX
  8
0
 10
195.293750
 20
224.175000
 42
0.043820
  0
VERTEX
  8
0
 10
195.612873
 20
223.251055
 42
0.295869
  0
VERTEX
  8
0
 10
196.000000
 20
223.000000
 42
0.295869
  0
VERTEX
  8
0
 10
196.387127
 20
223.251055
 42
0.043820
  0
VERTEX
  8
0
 10
196.706250
 20
224.175000
 42
0.037669
  0
VERTEX
  8
0
 10
196.927610
 20
225.467056
 42
0.023598
  0
VERTEX
  8
0
 10
197.000000
 20
227.000000
 42
0.023598
  0
VERTEX
  8
0
 10
196.927610
 20
228.532944
 42
0.037669
  0
VERTEX
  8
0
 10
196.706250
 20
229.825000
 42
0.043820
  0
VERTEX
  8
0
 10
196.387127
 20
230.748945
 42
0.295869
  0
VERTEX
  8
0
 10
196.000000
 20
231.000000
 42
0.295869
  0
VERTEX
  8
0
 10
195.612873
 20
230.748945
 42
0.043820
  0
VERTEX
  8
0
 10
195.293750
 20
229.825000
 42
0.037669
  0
VERTEX
  8
0
 10
195.072390
 20
228.532944
 42
0.023598
  0
SEQEND
  0
ENDSEC
  0
EOF
