  0
SECTION
  2
HEADER
  9
$ACADVER
  1
AC1006
  9
$EXTMIN
 10
0.000000
 20
0.000000
 30
0.000000
  9
$EXTMAX
 10
432.000000
 20
497.000000
 30
0.000000
  0
ENDSEC
  0
SECTION
  2
ENTITIES
  0
POLYLINE
  8
0
 66
1
 70
1
  0
VERTEX
  8
0
 10
193.443623
 20
454.523363
 42
0.017894
  0
VERTEX
  8
0
 10
179.810505
 20
452.162471
 42
0.013420
  0
VERTEX
  8
0
 10
164.991673
 20
448.628675
 42
0.013649
  0
VERTEX
  8
0
 10
150.996045
 20
444.479182
 42
0.025716
  0
VERTEX
  8
0
 10
140.000000
 20
440.252823
 42
-0.012090
  0
VERTEX
  8
0
 10
136.342825
 20
438.731599
 42
-0.045226
  0
VERTEX
  8
0
 10
133.952671
 20
438.045293
 42
-0.062135
  0
VERTEX
  8
0
 10
131.890015
 20
437.910791
 42
-0.039353
  0
VERTEX
  8
0
 10
129.500000
 20
438.241891
 42
0.076041
  0
VERTEX
  8
0
 10
122.483236
 20
438.695336
 42
0.057828
  0
VERTEX
  8
0
 10
114.925488
 20
437.141386
 42
0.049591
  0
VERTEX
  8
0
 10
106.870911
 20
433.569405
 42
0.032395
  0
VERTEX
  8
0
 10
98.369291
 20
427.983833
 42
0.024694
  0
VERTEX
  8
0
 10
88.234467
 20
419.526313
 42
0.021449
  0
VERTEX
  8
0
 10
78.473056
 20
409.719927
 42
0.022236
  0
VERTEX
  8
0
 10
70.167001
 20
399.773000
 42
0.041887
  0
VERTEX
  8
0
 10
64.547336
 20
390.958125
 42
0.013549
  0
VERTEX
  8
0
 10
62.334381
 20
386.454616
 42
0.056526
  0
VERTEX
  8
0
 10
61.394526
 20
383.586888
 42
0.048472
  0
VERTEX
  8
0
 10
61.050512
 20
380.381149
 42
0.008235
  0
VERTEX
  8
0
 10
61.090118
 20
374.227462
 42
-0.010256
  0
VERTEX
  8
0
 10
61.103489
 20
368.645975
 42
-0.031682
  0
VERTEX
  8
0
 10
60.796758
 20
364.888753
 42
-0.035536
  0
VERTEX
  8
0
 10
60.039973
 20
361.437154
 42
-0.015700
  0
VERTEX
  8
0
 10
58.578016
 20
357.000000
 42
0.021085
  0
VERTEX
  8
0
 10
55.719726
 20
348.000010
 42
0.008100
  0
VERTEX
  8
0
 10
52.483649
 20
335.281504
 42
0.008198
  0
VERTEX
  8
0
 10
49.613944
 20
322.237764
 42
0.017207
  0
VERTEX
  8
0
 10
47.901318
 20
312.000000
 42
0.022899
  0
VERTEX
  8
0
 10
46.945775
 20
300.858024
 42
0.011898
  0
VERTEX
  8
0
 10
46.722869
 20
286.899931
 42
0.011875
  0
VERTEX
  8
0
 10
47.158961
 20
273.092636
 42
0.025470
  0
VERTEX
  8
0
 10
48.288696
 20
262.500000
 42
0.043531
  0
VERTEX
  8
0
 10
53.993937
 20
239.602142
 42
0.059578
  0
VERTEX
  8
0
 10
63.230803
 20
220.490663
 42
0.062778
  0
VERTEX
  8
0
 10
76.267735
 20
204.842521
 42
0.056133
  0
VERTEX
  8
0
 10
93.250000
 20
192.234430
 42
-0.009042
  0
VERTEX
  8
0
 10
96.220067
 20
190.435576
 42
-0.013797
  0
VERTEX
  8
0
 10
98.723438
 20
188.758532
 42
-0.008291
  0
VERTEX
  8
0
 10
100.722272
 20
187.287569
 42
-0.234088
  0
VERTEX
  8
0
 10
101.000000
 20
186.726863
 42
-0.149783
  0
VERTEX
  8
0
 10
100.818629
 20
186.134999
 42
-0.011582
  0
VERTEX
  8
0
 10
99.845868
 20
184.766267
 42
-0.015032
  0
VERTEX
  8
0
 10
98.576022
 20
183.167043
 42
-0.010889
  0
VERTEX
  8
0
 10
97.071041
 20
181.461244
 42
0.031183
  0
VERTEX
  8
0
 10
93.872218
 20
177.524638
 42
0.031096
  0
VERTEX
  8
0
 10
91.184585
 20
173.217244
 42
0.030587
  0
VERTEX
  8
0
 10
89.013992
 20
168.540298
 42
0.028092
  0
VERTEX
  8
0
 10
87.359354
 20
163.500000
 42
0.026937
  0
VERTEX
  8
0
 10
86.379856
 20
158.839800
 42
0.041489
  0
VERTEX
  8
0
 10
86.090341
 20
154.732838
 42
0.041648
  0
VERTEX
  8
0
 10
86.483076
 20
150.645927
 42
0.027412
  0
VERTEX
  8
0
 10
87.578442
 20
146.047813
 42
0.031374
  0
VERTEX
  8
0
 10
89.393385
 20
141.097297
 42
0.051607
  0
VERTEX
  8
0
 10
91.596813
 20
137.224283
 42
0.052205
  0
VERTEX
  8
0
 10
94.526948
 20
133.914883
 42
0.032977
  0
VERTEX
  8
0
 10
98.554397
 20
130.685515
 42
0.000000
  0
VERTEX
  8
0
 10
103.742430
 20
127.060037
 42
0.000000
  0
VERTEX
  8
0
 10
102.914766
 20
122.780018
 42
0.033931
  0
VERTEX
  8
0
 10
102.133402
 20
116.469080
 42
0.023910
  0
VERTEX
  8
0
 10
102.079501
 20
109.317112
 42
0.023646
  0
VERTEX
  8
0
 10
102.659078
 20
102.714675
 42
0.073000
  0
VERTEX
  8
0
 10
103.896331
 20
98.421401
 42
0.050868
  0
VERTEX
  8
0
 10
105.644929
 20
95.423084
 42
0.043087
  0
VERTEX
  8
0
 10
108.053170
 20
92.653582
 42
0.044802
  0
VERTEX
  8
0
 10
110.578471
 20
90.614008
 42
0.148540
  0
VERTEX
  8
0
 10
112.599675
 20
90.000000
 42
-0.248856
  0
VERTEX
  8
0
 10
114.179632
 20
89.161721
 42
-0.090716
  0
VERTEX
  8
0
 10
115.232008
 20
86.768299
 42
-0.046172
  0
VERTEX
  8
0
 10
115.833148
 20
82.534295
 42
-0.012190
  0
VERTEX
  8
0
 10
116.000000
 20
75.691468
 42
0.010100
  0
VERTEX
  8
0
 10
116.095498
 20
70.964488
 42
0.015270
  0
VERTEX
  8
0
 10
116.387203
 20
66.859222
 42
0.017575
  0
VERTEX
  8
0
 10
116.852852
 20
63.472092
 42
0.041879
  0
VERTEX
  8
0
 10
117.494298
 20
61.016162
 42
-0.030022
  0
VERTEX
  8
0
 10
118.059852
 20
59.043152
 42
-0.026410
  0
VERTEX
  8
0
 10
118.414547
 20
56.930349
 42
-0.027214
  0
VERTEX
  8
0
 10
118.536043
 20
54.877216
 42
-0.040837
  0
VERTEX
  8
0
 10
118.398150
 20
53.088431
 42
0.072804
  0
VERTEX
  8
0
 10
118.342239
 20
48.856829
 42
0.091916
  0
VERTEX
  8
0
 10
119.554709
 20
45.141653
 42
0.091810
  0
VERTEX
  8
0
 10
122.019869
 20
42.104909
 42
0.072461
  0
VERTEX
  8
0
 10
125.610290
 20
39.848189
 42
0.031430
  0
VERTEX
  8
0
 10
128.497945
 20
38.782208
 42
0.044713
  0
VERTEX
  8
0
 10
131.176539
 20
38.235250
 42
0.031709
  0
VERTEX
  8
0
 10
134.524240
 20
38.072214
 42
0.008328
  0
VERTEX
  8
0
 10
139.894065
 20
38.240825
 42
0.031790
  0
VERTEX
  8
0
 10
149.936878
 20
39.366313
 42
0.069833
  0
VERTEX
  8
0
 10
157.271448
 20
41.753052
 42
0.073318
  0
VERTEX
  8
0
 10
163.445060
 20
45.980427
 42
0.038138
  0
VERTEX
  8
0
 10
169.806465
 20
52.839583
 42
0.000000
  0
VERTEX
  8
0
 10
173.112930
 20
57.000000
 42
0.000000
  0
VERTEX
  8
0
 10
218.901477
 20
57.000000
 42
-0.000984
  0
VERTEX
  8
0
 10
253.111762
 20
56.932661
 42
-0.029705
  0
VERTEX
  8
0
 10
261.689364
 20
56.388721
 42
-0.138943
  0
VERTEX
  8
0
 10
265.879062
 20
54.623069
 42
-0.124122
  0
VERTEX
  8
0
 10
268.738243
 20
50.853059
 42
0.143253
  0
VERTEX
  8
0
 10
272.544966
 20
46.207189
 42
0.059293
  0
VERTEX
  8
0
 10
279.814902
 20
42.410040
 42
0.050669
  0
VERTEX
  8
0
 10
289.311335
 20
39.867130
 42
0.039855
  0
VERTEX
  8
0
 10
299.934276
 20
39.007803
 42
0.062583
  0
VERTEX
  8
0
 10
309.119945
 20
40.152268
 42
0.131706
  0
VERTEX
  8
0
 10
315.343252
 20
43.640369
 42
0.176903
  0
VERTEX
  8
0
 10
317.909005
 20
48.981209
 42
0.132057
  0
VERTEX
  8
0
 10
316.827418
 20
55.479432
 42
-0.048270
  0
VERTEX
  8
0
 10
316.315013
 20
56.970228
 42
-0.083515
  0
VERTEX
  8
0
 10
316.226257
 20
58.274325
 42
-0.066477
  0
VERTEX
  8
0
 10
316.569515
 20
59.730832
 42
-0.021310
  0
VERTEX
  8
0
 10
317.450898
 20
61.776485
 42
0.023301
  0
VERTEX
  8
0
 10
319.234105
 20
65.960986
 42
0.035337
  0
VERTEX
  8
0
 10
320.348091
 20
69.754831
 42
0.027895
  0
VERTEX
  8
0
 10
321.072949
 20
74.269974
 42
0.009086
  0
VERTEX
  8
0
 10
321.647969
 20
81.000000
 42
-0.009807
  0
VERTEX
  8
0
 10
321.977317
 20
84.790210
 42
-0.017029
  0
VERTEX
  8
0
 10
322.419154
 20
87.917747
 42
-0.012449
  0
VERTEX
  8
0
 10
322.912187
 20
90.358798
 42
-0.254368
  0
VERTEX
  8
0
 10
323.393012
 20
90.904412
 42
0.078839
  0
VERTEX
  8
0
 10
324.014957
 20
91.250358
 42
0.009462
  0
VERTEX
  8
0
 10
325.236710
 20
92.246232
 42
0.011077
  0
VERTEX
  8
0
 10
326.649706
 20
93.498000
 42
0.008899
  0
VERTEX
  8
0
 10
328.114938
 20
94.904412
 42
0.078691
  0
VERTEX
  8
0
 10
331.028611
 20
98.892019
 42
0.064923
  0
VERTEX
  8
0
 10
332.808095
 20
103.854598
 42
0.041734
  0
VERTEX
  8
0
 10
333.736865
 20
110.892212
 42
0.011949
  0
VERTEX
  8
0
 10
334.000000
 20
121.901200
 42
0.000000
  0
VERTEX
  8
0
 10
334.000000
 20
134.703958
 42
0.000000
  0
VERTEX
  8
0
 10
342.750000
 20
135.271610
 42
0.059808
  0
VERTEX
  8
0
 10
355.847640
 20
137.712629
 42
0.085900
  0
VERTEX
  8
0
 10
366.319774
 20
143.099618
 42
0.093924
  0
VERTEX
  8
0
 10
373.726404
 20
151.260160
 42
0.086507
  0
VERTEX
  8
0
 10
377.900726
 20
161.799221
 42
0.033791
  0
VERTEX
  8
0
 10
378.937625
 20
169.321340
 42
0.065913
  0
VERTEX
  8
0
 10
378.561826
 20
175.354599
 42
0.089355
  0
VERTEX
  8
0
 10
376.828457
 20
179.796205
 42
0.136649
  0
VERTEX
  8
0
 10
373.818594
 20
182.593809
 42
0.079918
  0
VERTEX
  8
0
 10
371.345560
 20
183.407185
 42
0.057569
  0
VERTEX
  8
0
 10
368.437868
 20
183.533007
 42
0.061044
  0
VERTEX
  8
0
 10
365.857749
 20
183.026885
 42
0.177217
  0
VERTEX
  8
0
 10
364.450779
 20
181.920359
 42
-0.174385
  0
VERTEX
  8
0
 10
364.076891
 20
181.622972
 42
-0.095323
  0
VERTEX
  8
0
 10
363.489300
 20
181.542231
 42
-0.069541
  0
VERTEX
  8
0
 10
362.738545
 20
181.688465
 42
-0.040063
  0
VERTEX
  8
0
 10
361.892773
 20
182.057386
 42
0.038966
  0
VERTEX
  8
0
 10
360.846513
 20
182.516489
 42
0.013060
  0
VERTEX
  8
0
 10
359.255499
 20
183.025246
 42
0.012905
  0
VERTEX
  8
0
 10
357.458430
 20
183.498626
 42
0.014398
  0
VERTEX
  8
0
 10
355.703461
 20
183.859794
 42
0.000000
  0
VERTEX
  8
0
 10
351.500000
 20
184.599407
 42
0.000000
  0
VERTEX
  8
0
 10
355.583583
 20
187.207193
 42
0.064552
  0
VERTEX
  8
0
 10
362.455004
 20
192.962634
 42
0.032389
  0
VERTEX
  8
0
 10
369.586552
 20
201.783934
 42
0.031187
  0
VERTEX
  8
0
 10
375.973016
 20
212.136308
 42
0.036802
  0
VERTEX
  8
0
 10
380.632133
 20
222.658700
 42
0.018669
  0
VERTEX
  8
0
 10
384.738329
 20
235.659335
 42
0.032859
  0
VERTEX
  8
0
 10
387.007966
 20
246.691268
 42
0.026276
  0
VERTEX
  8
0
 10
388.093583
 20
259.482515
 42
0.007920
  0
VERTEX
  8
0
 10
388.411537
 20
279.000000
 42
0.002621
  0
VERTEX
  8
0
 10
388.339103
 20
294.111495
 42
0.011818
  0
VERTEX
  8
0
 10
388.041889
 20
302.935414
 42
0.018165
  0
VERTEX
  8
0
 10
387.399690
 20
309.774204
 42
0.014222
  0
VERTEX
  8
0
 10
386.223816
 20
317.135525
 42
0.008936
  0
VERTEX
  8
0
 10
383.703145
 20
329.276281
 42
0.009204
  0
VERTEX
  8
0
 10
380.772737
 20
341.199702
 42
0.009761
  0
VERTEX
  8
0
 10
377.672976
 20
352.023344
 42
0.017529
  0
VERTEX
  8
0
 10
374.648449
 20
360.753667
 42
-0.009790
  0
VERTEX
  8
0
 10
372.892976
 20
365.578154
 42
-0.031495
  0
VERTEX
  8
0
 10
371.993819
 20
368.872786
 42
-0.042364
  0
VERTEX
  8
0
 10
371.657857
 20
371.687889
 42
-0.032486
  0
VERTEX
  8
0
 10
371.753441
 20
374.785813
 42
0.056461
  0
VERTEX
  8
0
 10
371.619778
 20
382.643338
 42
0.044578
  0
VERTEX
  8
0
 10
369.771751
 20
390.950076
 42
0.043048
  0
VERTEX
  8
0
 10
366.382382
 20
399.101631
 42
0.043833
  0
VERTEX
  8
0
 10
361.664238
 20
406.500000
 42
0.015098
  0
VERTEX
  8
0
 10
355.997242
 20
413.429544
 42
0.012747
  0
VERTEX
  8
0
 10
349.601879
 20
420.416957
 42
0.012974
  0
VERTEX
  8
0
 10
343.424074
 20
426.506105
 42
0.033540
  0
VERTEX
  8
0
 10
338.580681
 20
430.464350
 42
0.020208
  0
VERTEX
  8
0
 10
332.306726
 20
434.554275
 42
0.052501
  0
VERTEX
  8
0
 10
327.415610
 20
436.811584
 42
0.053662
  0
VERTEX
  8
0
 10
322.224580
 20
437.973820
 42
0.021893
  0
VERTEX
  8
0
 10
315.000000
 20
438.475011
 42
-0.012505
  0
VERTEX
  8
0
 10
309.281281
 20
438.764009
 42
-0.037624
  0
VERTEX
  8
0
 10
305.420816
 20
439.350284
 42
-0.034527
  0
VERTEX
  8
0
 10
301.517751
 20
440.536097
 42
-0.009261
  0
VERTEX
  8
0
 10
295.500000
 20
442.957128
 42
0.020484
  0
VERTEX
  8
0
 10
285.901403
 20
446.570716
 42
0.015118
  0
VERTEX
  8
0
 10
275.017673
 20
449.805091
 42
0.014645
  0
VERTEX
  8
0
 10
263.522327
 20
452.488664
 42
0.015369
  0
VERTEX
  8
0
 10
252.072513
 20
454.446060
 42
0.024981
  0
VERTEX
  8
0
 10
239.908055
 20
455.527034
 42
0.009340
  0
VERTEX
  8
0
 10
222.769381
 20
455.869832
 42
0.009343
  0
VERTEX
  8
0
 10
205.626461
 20
455.572087
 42
0.024914
  0
SEQEND
  0
POLYLINE
  8
0
 66
1
 70
1
  0
VERTEX
  8
0
 10
254.000000
 20
447.401705
 42
-0.038963
  0
VERTEX
  8
0
 10
281.370276
 20
441.178242
 42
-0.047233
  0
VERTEX
  8
0
 10
305.647336
 20
431.032282
 42
-0.048687
  0
VERTEX
  8
0
 10
326.988144
 20
416.818899
 42
-0.046011
  0
VERTEX
  8
0
 10
345.624504
 20
398.500000
 42
-0.012256
  0
VERTEX
  8
0
 10
350.196221
 20
392.817798
 42
-0.018370
  0
VERTEX
  8
0
 10
353.876293
 20
387.622143
 42
-0.017046
  0
VERTEX
  8
0
 10
357.354589
 20
381.890525
 42
-0.008783
  0
VERTEX
  8
0
 10
361.332711
 20
374.500000
 42
-0.026387
  0
VERTEX
  8
0
 10
368.251854
 20
359.149344
 42
-0.025113
  0
VERTEX
  8
0
 10
373.644757
 20
342.902400
 42
-0.021948
  0
VERTEX
  8
0
 10
377.931166
 20
324.292741
 42
-0.012821
  0
VERTEX
  8
0
 10
381.507063
 20
301.682277
 42
-0.030187
  0
VERTEX
  8
0
 10
382.102766
 20
293.289151
 42
-0.005115
  0
VERTEX
  8
0
 10
382.107124
 20
277.223097
 42
-0.005402
  0
VERTEX
  8
0
 10
381.772877
 20
261.126773
 42
-0.025490
  0
VERTEX
  8
0
 10
381.011537
 20
251.923478
 42
-0.028489
  0
VERTEX
  8
0
 10
377.755951
 20
235.038284
 42
-0.040010
  0
VERTEX
  8
0
 10
372.822200
 20
220.511585
 42
-0.044203
  0
VERTEX
  8
0
 10
366.131995
 20
208.140122
 42
-0.050371
  0
VERTEX
  8
0
 10
357.618585
 20
197.713823
 42
-0.034737
  0
VERTEX
  8
0
 10
353.387786
 20
194.033324
 42
-0.040897
  0
VERTEX
  8
0
 10
348.903163
 20
191.191890
 42
-0.045235
  0
VERTEX
  8
0
 10
344.820508
 20
189.501281
 42
-0.153571
  0
VERTEX
  8
0
 10
341.972894
 20
189.508603
 42
-0.133723
  0
VERTEX
  8
0
 10
340.488309
 20
190.466891
 42
-0.258254
  0
VERTEX
  8
0
 10
340.180435
 20
191.804270
 42
-0.130332
  0
VERTEX
  8
0
 10
341.223226
 20
193.550228
 42
-0.033284
  0
VERTEX
  8
0
 10
343.750000
 20
195.707368
 42
0.028634
  0
VERTEX
  8
0
 10
349.333833
 20
200.385366
 42
0.023745
  0
VERTEX
  8
0
 10
354.725322
 20
205.959896
 42
0.024492
  0
VERTEX
  8
0
 10
359.247247
 20
211.641231
 42
0.049364
  0
VERTEX
  8
0
 10
362.111945
 20
216.591243
 42
0.029427
  0
VERTEX
  8
0
 10
368.655536
 20
233.606099
 42
0.031904
  0
VERTEX
  8
0
 10
372.951113
 20
250.821938
 42
0.033874
  0
VERTEX
  8
0
 10
374.826424
 20
267.345004
 42
0.046519
  0
VERTEX
  8
0
 10
374.114082
 20
282.274277
 42
-0.008768
  0
VERTEX
  8
0
 10
373.621847
 20
286.252279
 42
-0.030030
  0
VERTEX
  8
0
 10
373.503298
 20
288.853768
 42
-0.047183
  0
VERTEX
  8
0
 10
373.704616
 20
290.696824
 42
-0.085303
  0
VERTEX
  8
0
 10
374.256688
 20
292.106416
 42
0.153576
  0
VERTEX
  8
0
 10
374.602445
 20
293.527207
 42
0.134622
  0
VERTEX
  8
0
 10
374.100387
 20
294.975513
 42
0.047793
  0
VERTEX
  8
0
 10
372.385489
 20
297.024632
 42
0.005130
  0
VERTEX
  8
0
 10
367.927094
 20
301.332139
 42
0.053365
  0
VERTEX
  8
0
 10
356.363852
 20
310.146270
 42
0.040963
  0
VERTEX
  8
0
 10
342.142100
 20
317.241882
 42
0.034851
  0
VERTEX
  8
0
 10
324.735147
 20
322.841522
 42
0.021079
  0
VERTEX
  8
0
 10
303.500000
 20
327.133056
 42
0.024782
  0
VERTEX
  8
0
 10
286.852508
 20
328.933048
 42
0.010176
  0
VERTEX
  8
0
 10
264.149865
 20
329.791634
 42
0.010189
  0
VERTEX
  8
0
 10
240.278949
 20
329.721720
 42
0.015339
  0
VERTEX
  8
0
 10
219.500000
 20
328.598922
 42
0.012307
  0
VERTEX
  8
0
 10
204.140810
 20
326.913871
 42
0.011261
  0
VERTEX
  8
0
 10
188.418952
 20
324.434602
 42
0.011712
  0
VERTEX
  8
0
 10
174.069172
 20
321.490602
 42
0.024528
  0
VERTEX
  8
0
 10
163.104575
 20
318.399062
 42
0.023201
  0
VERTEX
  8
0
 10
155.150321
 20
315.311501
 42
0.016809
  0
VERTEX
  8
0
 10
146.592461
 20
311.174724
 42
0.016891
  0
VERTEX
  8
0
 10
138.849293
 20
306.765257
 42
0.042612
  0
VERTEX
  8
0
 10
133.638073
 20
302.912622
 42
0.048705
  0
VERTEX
  8
0
 10
130.351387
 20
299.396442
 42
0.057395
  0
VERTEX
  8
0
 10
128.011183
 20
295.489545
 42
0.047933
  0
VERTEX
  8
0
 10
126.340407
 20
290.599303
 42
0.022228
  0
VERTEX
  8
0
 10
125.078212
 20
284.000000
 42
0.026508
  0
VERTEX
  8
0
 10
123.466306
 20
266.438161
 42
0.035178
  0
VERTEX
  8
0
 10
123.976280
 20
250.407309
 42
0.038879
  0
VERTEX
  8
0
 10
126.586960
 20
236.047956
 42
0.050159
  0
VERTEX
  8
0
 10
131.278522
 20
223.500000
 42
0.026548
  0
VERTEX
  8
0
 10
134.350736
 20
218.021965
 42
0.012928
  0
VERTEX
  8
0
 10
138.813632
 20
211.357278
 42
0.009102
  0
VERTEX
  8
0
 10
143.374573
 20
205.155555
 42
0.102425
  0
VERTEX
  8
0
 10
145.671207
 20
203.164126
 42
-0.192204
  0
VERTEX
  8
0
 10
146.934442
 20
201.604593
 42
-0.044809
  0
VERTEX
  8
0
 10
147.655267
 20
198.247058
 42
-0.045928
  0
VERTEX
  8
0
 10
147.763998
 20
194.639319
 42
-0.107849
  0
VERTEX
  8
0
 10
147.031842
 20
192.059498
 42
-0.230378
  0
VERTEX
  8
0
 10
141.154200
 20
187.805050
 42
-0.062875
  0
VERTEX
  8
0
 10
129.388740
 20
187.238624
 42
-0.053370
  0
VERTEX
  8
0
 10
115.016249
 20
189.915142
 42
-0.046531
  0
VERTEX
  8
0
 10
100.820114
 20
195.647067
 42
-0.049958
  0
VERTEX
  8
0
 10
85.456402
 20
205.637891
 42
-0.056466
  0
VERTEX
  8
0
 10
73.068727
 20
218.120687
 42
-0.056245
  0
VERTEX
  8
0
 10
63.750494
 20
233.103434
 42
-0.048936
  0
VERTEX
  8
0
 10
57.475737
 20
250.496804
 42
-0.045108
  0
VERTEX
  8
0
 10
53.765114
 20
273.744696
 42
-0.033424
  0
VERTEX
  8
0
 10
53.731301
 20
299.782774
 42
-0.032286
  0
VERTEX
  8
0
 10
57.246594
 20
326.655440
 42
-0.033833
  0
VERTEX
  8
0
 10
64.164009
 20
352.423550
 42
0.005789
  0
VERTEX
  8
0
 10
66.617112
 20
359.867651
 42
0.034794
  0
VERTEX
  8
0
 10
67.574249
 20
363.826973
 42
0.046689
  0
VERTEX
  8
0
 10
67.838594
 20
367.377143
 42
0.015495
  0
VERTEX
  8
0
 10
67.577572
 20
372.595897
 42
-0.024911
  0
VERTEX
  8
0
 10
67.381576
 20
378.885941
 42
-0.068150
  0
VERTEX
  8
0
 10
68.065619
 20
383.270828
 42
-0.060192
  0
VERTEX
  8
0
 10
69.957993
 20
387.611949
 42
-0.016309
  0
VERTEX
  8
0
 10
73.972262
 20
393.959154
 42
-0.035669
  0
VERTEX
  8
0
 10
81.834024
 20
403.926190
 42
-0.023582
  0
VERTEX
  8
0
 10
92.160431
 20
414.233517
 42
-0.023790
  0
VERTEX
  8
0
 10
103.097710
 20
423.255803
 42
-0.045795
  0
VERTEX
  8
0
 10
112.769996
 20
429.194604
 42
-0.015568
  0
VERTEX
  8
0
 10
116.736019
 20
431.003873
 42
-0.057751
  0
VERTEX
  8
0
 10
119.371860
 20
431.766054
 42
-0.049682
  0
VERTEX
  8
0
 10
122.302956
 20
431.962218
 42
-0.009499
  0
VERTEX
  8
0
 10
127.638815
 20
431.687414
 42
0.008920
  0
VERTEX
  8
0
 10
132.405725
 20
431.436376
 42
0.034941
  0
VERTEX
  8
0
 10
135.349168
 20
431.539673
 42
0.051453
  0
VERTEX
  8
0
 10
137.632162
 20
432.020905
 42
0.040317
  0
VERTEX
  8
0
 10
139.973545
 20
432.986504
 42
-0.031270
  0
VERTEX
  8
0
 10
146.665228
 20
435.888748
 42
-0.009439
  0
VERTEX
  8
0
 10
157.161315
 20
439.458453
 42
-0.009828
  0
VERTEX
  8
0
 10
168.191166
 20
442.741432
 42
-0.019453
  0
VERTEX
  8
0
 10
177.078724
 20
444.829336
 42
-0.002599
  0
VERTEX
  8
0
 10
188.182513
 20
446.926177
 42
-0.014272
  0
VERTEX
  8
0
 10
194.209320
 20
447.854938
 42
-0.016144
  0
VERTEX
  8
0
 10
199.965388
 20
448.386427
 42
-0.003921
  0
VERTEX
  8
0
 10
209.500000
 20
448.882156
 42
-0.007612
  0
VERTEX
  8
0
 10
222.619466
 20
449.261132
 42
-0.011728
  0
VERTEX
  8
0
 10
233.971213
 20
449.149869
 42
-0.013151
  0
VERTEX
  8
0
 10
244.225588
 20
448.538422
 42
-0.014959
  0
SEQEND
  0
POLYLINE
  8
0
 66
1
 70
1
  0
VERTEX
  8
0
 10
329.759923
 20
428.250000
 42
-0.022952
  0
VERTEX
  8
0
 10
335.168535
 20
424.585751
 42
-0.024735
  0
VERTEX
  8
0
 10
340.079442
 20
420.525917
 42
-0.020970
  0
VERTEX
  8
0
 10
345.189322
 20
415.448598
 42
-0.010332
  0
VERTEX
  8
0
 10
351.270754
 20
408.598095
 42
-0.013276
  0
VERTEX
  8
0
 10
356.135449
 20
402.567375
 42
-0.023821
  0
VERTEX
  8
0
 10
359.750493
 20
397.335109
 42
-0.028849
  0
VERTEX
  8
0
 10
362.313113
 20
392.636294
 42
-0.043077
  0
VERTEX
  8
0
 10
363.940768
 20
388.252349
 42
-0.035287
  0
VERTEX
  8
0
 10
364.373279
 20
386.106112
 42
-0.718865
  0
VERTEX
  8
0
 10
363.973065
 20
385.911522
 42
-0.043237
  0
VERTEX
  8
0
 10
362.643441
 20
387.521264
 42
-0.001467
  0
VERTEX
  8
0
 10
357.994218
 20
394.301977
 42
0.023338
  0
VERTEX
  8
0
 10
351.041043
 20
403.548461
 42
0.024148
  0
VERTEX
  8
0
 10
343.330821
 20
411.997285
 42
0.021556
  0
VERTEX
  8
0
 10
334.081398
 20
420.437478
 42
0.012884
  0
VERTEX
  8
0
 10
322.416535
 20
429.694444
 42
-0.114990
  0
VERTEX
  8
0
 10
321.041004
 20
431.338258
 42
-0.624451
  0
VERTEX
  8
0
 10
321.556976
 20
432.018951
 42
-0.065876
  0
VERTEX
  8
0
 10
325.074631
 20
430.830621
 42
-0.023058
  0
SEQEND
  0
POLYLINE
  8
0
 66
1
 70
1
  0
VERTEX
  8
0
 10
294.500000
 20
321.380898
 42
-0.020993
  0
VERTEX
  8
0
 10
312.245524
 20
318.760033
 42
-0.025129
  0
VERTEX
  8
0
 10
328.657403
 20
314.763621
 42
-0.027539
  0
VERTEX
  8
0
 10
342.950802
 20
309.640377
 42
-0.045594
  0
VERTEX
  8
0
 10
354.247540
 20
303.609659
 42
0.000000
  0
VERTEX
  8
0
 10
360.500000
 20
299.500000
 42
0.000000
  0
VERTEX
  8
0
 10
360.403560
 20
286.500000
 42
-0.007451
  0
VERTEX
  8
0
 10
360.281631
 20
281.038077
 42
-0.006672
  0
VERTEX
  8
0
 10
359.995140
 20
275.376982
 42
-0.006705
  0
VERTEX
  8
0
 10
359.601868
 20
270.300567
 42
-0.020695
  0
VERTEX
  8
0
 10
359.148621
 20
266.889725
 42
0.012905
  0
VERTEX
  8
0
 10
358.604079
 20
263.229438
 42
0.038837
  0
VERTEX
  8
0
 10
358.492484
 20
260.708753
 42
0.047768
  0
VERTEX
  8
0
 10
358.778565
 20
258.500905
 42
0.028724
  0
VERTEX
  8
0
 10
359.513694
 20
255.961188
 42
-0.019682
  0
VERTEX
  8
0
 10
360.172764
 20
253.829289
 42
-0.008189
  0
VERTEX
  8
0
 10
360.900930
 20
250.905593
 42
-0.008087
  0
VERTEX
  8
0
 10
361.579641
 20
247.745143
 42
-0.010359
  0
VERTEX
  8
0
 10
362.096717
 20
244.814593
 42
-0.037479
  0
VERTEX
  8
0
 10
362.518948
 20
239.481370
 42
-0.055244
  0
VERTEX
  8
0
 10
362.021027
 20
234.814605
 42
-0.040154
  0
VERTEX
  8
0
 10
360.360902
 20
229.388972
 42
-0.011100
  0
VERTEX
  8
0
 10
356.892164
 20
221.170789
 42
-0.053972
  0
VERTEX
  8
0
 10
351.403106
 20
211.790303
 42
-0.078044
  0
VERTEX
  8
0
 10
344.571559
 20
205.062465
 42
-0.067135
  0
VERTEX
  8
0
 10
335.220834
 20
200.099989
 42
-0.030013
  0
VERTEX
  8
0
 10
321.862007
 20
196.057735
 42
-0.024075
  0
VERTEX
  8
0
 10
285.745538
 20
189.273405
 42
-0.024069
  0
VERTEX
  8
0
 10
249.140947
 20
185.991745
 42
-0.024012
  0
VERTEX
  8
0
 10
212.305849
 20
186.239685
 42
-0.023697
  0
VERTEX
  8
0
 10
175.500000
 20
190.011865
 42
-0.001026
  0
VERTEX
  8
0
 10
160.263272
 20
192.339148
 42
-0.038972
  0
VERTEX
  8
0
 10
156.888338
 20
193.134805
 42
-0.206225
  0
VERTEX
  8
0
 10
155.507744
 20
194.336382
 42
-0.112437
  0
VERTEX
  8
0
 10
155.000000
 20
196.565743
 42
0.050866
  0
VERTEX
  8
0
 10
154.643248
 20
200.063441
 42
0.067242
  0
VERTEX
  8
0
 10
153.583689
 20
203.082077
 42
0.049120
  0
VERTEX
  8
0
 10
151.485472
 20
206.355492
 42
0.015091
  0
VERTEX
  8
0
 10
147.708218
 20
210.855009
 42
-0.031034
  0
VERTEX
  8
0
 10
143.025819
 20
216.808077
 42
-0.027666
  0
VERTEX
  8
0
 10
138.917898
 20
223.521507
 42
-0.026982
  0
VERTEX
  8
0
 10
135.480580
 20
230.825663
 42
-0.026025
  0
VERTEX
  8
0
 10
132.803162
 20
238.545067
 42
-0.020346
  0
VERTEX
  8
0
 10
131.561526
 20
243.594018
 42
-0.028399
  0
VERTEX
  8
0
 10
130.895878
 20
248.195382
 42
-0.018421
  0
VERTEX
  8
0
 10
130.598666
 20
254.129292
 42
-0.003891
  0
VERTEX
  8
0
 10
130.542399
 20
264.500000
 42
-0.014927
  0
VERTEX
  8
0
 10
131.097784
 20
281.737573
 42
-0.079001
  0
VERTEX
  8
0
 10
133.150789
 20
290.929804
 42
-0.116211
  0
VERTEX
  8
0
 10
137.578348
 20
297.280974
 42
-0.050166
  0
VERTEX
  8
0
 10
145.962259
 20
303.398576
 42
-0.050144
  0
VERTEX
  8
0
 10
162.277730
 20
310.879627
 42
-0.028696
  0
VERTEX
  8
0
 10
183.163019
 20
316.712455
 42
-0.025417
  0
VERTEX
  8
0
 10
207.656446
 20
320.769317
 42
-0.018891
  0
VERTEX
  8
0
 10
235.000000
 20
322.838811
 42
-0.006543
  0
VERTEX
  8
0
 10
251.719536
 20
323.251496
 42
-0.009023
  0
VERTEX
  8
0
 10
266.738908
 20
323.154571
 42
-0.009731
  0
VERTEX
  8
0
 10
280.770813
 20
322.537354
 42
-0.010308
  0
SEQEND
  0
POLYLINE
  8
0
 66
1
 70
1
  0
VERTEX
  8
0
 10
127.848701
 20
180.517560
 42
-0.028861
  0
VERTEX
  8
0
 10
132.104958
 20
179.772693
 42
-0.138341
  0
VERTEX
  8
0
 10
134.238795
 20
178.590590
 42
-0.126233
  0
VERTEX
  8
0
 10
135.543105
 20
176.408868
 42
-0.022381
  0
VERTEX
  8
0
 10
136.698024
 20
171.748689
 42
0.000000
  0
VERTEX
  8
0
 10
137.250525
 20
168.997377
 42
0.000000
  0
VERTEX
  8
0
 10
133.547978
 20
170.544400
 42
0.041410
  0
VERTEX
  8
0
 10
131.579942
 20
171.181347
 42
0.026055
  0
VERTEX
  8
0
 10
129.199905
 20
171.609863
 42
0.023792
  0
VERTEX
  8
0
 10
126.527860
 20
171.819954
 42
0.019692
  0
VERTEX
  8
0
 10
123.672716
 20
171.795711
 42
0.008836
  0
VERTEX
  8
0
 10
120.163502
 20
171.565385
 42
0.068168
  0
VERTEX
  8
0
 10
118.560260
 20
171.207986
 42
0.172058
  0
VERTEX
  8
0
 10
117.789734
 20
170.563916
 42
0.134242
  0
VERTEX
  8
0
 10
117.500000
 20
169.504213
 42
0.133302
  0
VERTEX
  8
0
 10
117.785988
 20
168.450568
 42
0.150729
  0
VERTEX
  8
0
 10
118.556544
 20
167.744849
 42
0.068303
  0
VERTEX
  8
0
 10
120.110478
 20
167.254084
 42
0.011311
  0
VERTEX
  8
0
 10
123.223784
 20
166.793450
 42
-0.031597
  0
VERTEX
  8
0
 10
128.495020
 20
165.793661
 42
-0.070026
  0
VERTEX
  8
0
 10
132.269875
 20
164.240051
 42
-0.085260
  0
VERTEX
  8
0
 10
135.002283
 20
161.936844
 42
-0.068640
  0
VERTEX
  8
0
 10
137.056621
 20
158.683683
 42
-0.071050
  0
VERTEX
  8
0
 10
138.655975
 20
153.211020
 42
-0.065955
  0
VERTEX
  8
0
 10
138.718807
 20
147.364256
 42
-0.066980
  0
VERTEX
  8
0
 10
137.266616
 20
141.787271
 42
-0.077910
  0
VERTEX
  8
0
 10
134.433132
 20
137.102902
 42
-0.146593
  0
VERTEX
  8
0
 10
127.278918
 20
132.413866
 42
-0.079709
  0
VERTEX
  8
0
 10
116.768594
 20
131.039952
 42
-0.077760
  0
VERTEX
  8
0
 10
106.072623
 20
133.033923
 42
-0.124049
  0
VERTEX
  8
0
 10
98.366973
 20
138.152682
 42
-0.041889
  0
VERTEX
  8
0
 10
95.533632
 20
141.849927
 42
-0.061649
  0
VERTEX
  8
0
 10
93.766734
 20
145.535838
 42
-0.055100
  0
VERTEX
  8
0
 10
92.831730
 20
149.842846
 42
-0.026423
  0
VERTEX
  8
0
 10
92.543826
 20
155.500000
 42
-0.039898
  0
VERTEX
  8
0
 10
93.105816
 20
162.360025
 42
-0.063359
  0
VERTEX
  8
0
 10
94.777493
 20
168.002206
 42
-0.059111
  0
VERTEX
  8
0
 10
97.907681
 20
173.311965
 42
-0.030108
  0
VERTEX
  8
0
 10
102.969820
 20
179.190025
 42
0.000000
  0
VERTEX
  8
0
 10
108.500000
 20
184.880050
 42
0.000000
  0
VERTEX
  8
0
 10
115.033754
 20
183.063310
 42
0.011583
  0
VERTEX
  8
0
 10
117.991331
 20
182.314295
 42
0.007193
  0
VERTEX
  8
0
 10
121.493318
 20
181.566091
 42
0.007214
  0
VERTEX
  8
0
 10
124.972400
 20
180.926987
 42
0.012926
  0
SEQEND
  0
POLYLINE
  8
0
 66
1
 70
1
  0
VERTEX
  8
0
 10
346.000000
 20
179.373322
 42
0.016660
  0
VERTEX
  8
0
 10
347.960807
 20
178.854895
 42
0.012784
  0
VERTEX
  8
0
 10
350.132812
 20
178.415523
 42
0.012972
  0
VERTEX
  8
0
 10
352.187867
 20
178.108956
 42
0.029712
  0
VERTEX
  8
0
 10
353.750000
 20
178.010824
 42
-0.015345
  0
VERTEX
  8
0
 10
354.995903
 20
177.968424
 42
-0.025094
  0
VERTEX
  8
0
 10
356.045313
 20
177.847330
 42
-0.022493
  0
VERTEX
  8
0
 10
356.838697
 20
177.678193
 42
-0.341346
  0
VERTEX
  8
0
 10
357.000000
 20
177.469449
 42
-0.188268
  0
VERTEX
  8
0
 10
356.874514
 20
177.147997
 42
-0.006880
  0
VERTEX
  8
0
 10
355.956869
 20
176.178866
 42
-0.011727
  0
VERTEX
  8
0
 10
354.809660
 20
175.054219
 42
-0.007870
  0
VERTEX
  8
0
 10
353.448917
 20
173.821005
 42
0.021772
  0
VERTEX
  8
0
 10
351.977234
 20
172.410794
 42
0.016686
  0
VERTEX
  8
0
 10
350.491709
 20
170.750229
 42
0.016969
  0
VERTEX
  8
0
 10
349.204190
 20
169.099864
 42
0.037851
  0
VERTEX
  8
0
 10
348.368454
 20
167.745618
 42
0.067286
  0
VERTEX
  8
0
 10
347.183011
 20
164.424863
 42
0.043112
  0
VERTEX
  8
0
 10
346.682615
 20
160.355015
 42
0.041675
  0
VERTEX
  8
0
 10
346.855665
 20
156.686315
 42
0.225388
  0
VERTEX
  8
0
 10
347.909316
 20
155.056149
 42
0.113315
  0
VERTEX
  8
0
 10
349.482942
 20
154.520728
 42
0.189244
  0
VERTEX
  8
0
 10
350.812238
 20
154.891158
 42
0.157503
  0
VERTEX
  8
0
 10
351.699973
 20
156.154514
 42
0.075162
  0
VERTEX
  8
0
 10
352.000000
 20
158.139107
 42
-0.059855
  0
VERTEX
  8
0
 10
352.360034
 20
161.135907
 42
-0.042965
  0
VERTEX
  8
0
 10
353.437994
 20
164.334993
 42
-0.043280
  0
VERTEX
  8
0
 10
355.031865
 20
167.270729
 42
-0.064792
  0
VERTEX
  8
0
 10
356.938585
 20
169.474311
 42
-0.025823
  0
VERTEX
  8
0
 10
358.356622
 20
170.612744
 42
-0.145249
  0
VERTEX
  8
0
 10
359.263957
 20
170.929976
 42
-0.125540
  0
VERTEX
  8
0
 10
360.264715
 20
170.725123
 42
-0.017337
  0
VERTEX
  8
0
 10
362.157641
 20
169.724311
 42
0.017021
  0
VERTEX
  8
0
 10
363.404131
 20
169.064267
 42
0.018225
  0
VERTEX
  8
0
 10
364.664917
 20
168.506516
 42
0.018098
  0
VERTEX
  8
0
 10
365.778002
 20
168.107930
 42
0.077070
  0
VERTEX
  8
0
 10
366.474051
 20
168.000000
 42
0.179511
  0
VERTEX
  8
0
 10
367.646590
 20
168.434986
 42
0.165170
  0
VERTEX
  8
0
 10
368.301828
 20
169.545814
 42
0.122253
  0
VERTEX
  8
0
 10
368.242374
 20
171.120091
 42
0.082679
  0
VERTEX
  8
0
 10
367.463975
 20
172.747970
 42
-0.034168
  0
VERTEX
  8
0
 10
366.778353
 20
173.884782
 42
-0.120264
  0
VERTEX
  8
0
 10
366.580940
 20
174.709268
 42
-0.122876
  0
VERTEX
  8
0
 10
366.787467
 20
175.521853
 42
-0.036397
  0
VERTEX
  8
0
 10
367.480845
 20
176.612772
 42
-0.164353
  0
VERTEX
  8
0
 10
369.244423
 20
177.835061
 42
-0.279246
  0
VERTEX
  8
0
 10
370.921663
 20
177.381057
 42
-0.132434
  0
VERTEX
  8
0
 10
372.220777
 20
174.994488
 42
-0.044286
  0
VERTEX
  8
0
 10
372.806313
 20
171.030138
 42
-0.107837
  0
VERTEX
  8
0
 10
370.882554
 20
158.855528
 42
-0.118095
  0
VERTEX
  8
0
 10
364.074138
 20
149.044613
 42
-0.109898
  0
VERTEX
  8
0
 10
353.104333
 20
142.906905
 42
-0.083820
  0
VERTEX
  8
0
 10
339.409295
 20
141.200700
 42
0.000000
  0
VERTEX
  8
0
 10
332.501862
 20
141.500000
 42
0.000000
  0
VERTEX
  8
0
 10
331.763787
 20
147.500000
 42
0.015992
  0
VERTEX
  8
0
 10
331.278128
 20
150.620854
 42
0.004730
  0
VERTEX
  8
0
 10
330.337155
 20
155.364555
 42
0.004742
  0
VERTEX
  8
0
 10
329.177693
 20
160.680074
 42
0.005092
  0
VERTEX
  8
0
 10
327.943612
 20
165.847423
 42
-0.005732
  0
VERTEX
  8
0
 10
326.808506
 20
170.627416
 42
-0.009018
  0
VERTEX
  8
0
 10
325.955177
 20
174.759484
 42
-0.003740
  0
VERTEX
  8
0
 10
325.322742
 20
178.272150
 42
-0.241305
  0
VERTEX
  8
0
 10
325.502525
 20
178.847423
 42
-0.136710
  0
VERTEX
  8
0
 10
328.597913
 20
180.630432
 42
-0.056363
  0
VERTEX
  8
0
 10
333.432005
 20
181.303077
 42
-0.046904
  0
VERTEX
  8
0
 10
339.402491
 20
180.895924
 42
-0.032504
  0
SEQEND
  0
POLYLINE
  8
0
 66
1
 70
1
  0
VERTEX
  8
0
 10
156.591289
 20
174.535369
 42
0.004652
  0
VERTEX
  8
0
 10
162.345342
 20
173.158777
 42
0.004631
  0
VERTEX
  8
0
 10
168.132808
 20
171.887305
 42
0.004542
  0
VERTEX
  8
0
 10
173.210338
 20
170.869065
 42
0.018077
  0
VERTEX
  8
0
 10
176.350187
 20
170.385912
 42
-0.020297
  0
VERTEX
  8
0
 10
178.674225
 20
170.017726
 42
-0.024409
  0
VERTEX
  8
0
 10
180.819639
 20
169.477863
 42
-0.024188
  0
VERTEX
  8
0
 10
182.550498
 20
168.858394
 42
-0.127312
  0
VERTEX
  8
0
 10
183.350187
 20
168.256351
 42
0.056791
  0
VERTEX
  8
0
 10
188.629973
 20
162.979484
 42
0.064770
  0
VERTEX
  8
0
 10
194.746021
 20
159.294189
 42
0.054275
  0
VERTEX
  8
0
 10
202.469825
 20
156.866816
 42
0.026335
  0
VERTEX
  8
0
 10
212.725691
 20
155.385995
 42
-0.010584
  0
VERTEX
  8
0
 10
216.275499
 20
154.987083
 42
-0.038777
  0
VERTEX
  8
0
 10
218.486799
 20
154.514397
 42
-0.067042
  0
VERTEX
  8
0
 10
219.834254
 20
153.909442
 42
-0.178766
  0
VERTEX
  8
0
 10
220.471247
 20
153.090592
 42
0.107646
  0
VERTEX
  8
0
 10
220.933535
 20
152.286546
 42
0.022496
  0
VERTEX
  8
0
 10
222.085007
 20
151.125476
 42
0.022629
  0
VERTEX
  8
0
 10
223.572149
 20
149.874618
 42
0.019704
  0
VERTEX
  8
0
 10
225.234874
 20
148.700936
 42
0.021561
  0
VERTEX
  8
0
 10
227.693297
 20
147.253417
 42
0.063313
  0
VERTEX
  8
0
 10
229.526470
 20
146.558021
 42
0.067564
  0
VERTEX
  8
0
 10
231.407525
 20
146.367027
 42
0.027102
  0
VERTEX
  8
0
 10
233.989318
 20
146.594616
 42
0.059490
  0
VERTEX
  8
0
 10
237.428458
 20
147.513020
 42
0.039148
  0
VERTEX
  8
0
 10
241.106445
 20
149.326355
 42
0.039056
  0
VERTEX
  8
0
 10
244.202826
 20
151.510727
 42
0.128687
  0
VERTEX
  8
0
 10
245.647851
 20
153.524698
 42
-0.341287
  0
VERTEX
  8
0
 10
246.114843
 20
153.808836
 42
-0.115808
  0
VERTEX
  8
0
 10
246.913920
 20
153.524582
 42
-0.050724
  0
VERTEX
  8
0
 10
248.096046
 20
152.580860
 42
-0.015252
  0
VERTEX
  8
0
 10
249.692231
 20
150.918903
 42
0.021010
  0
VERTEX
  8
0
 10
251.996062
 20
148.574763
 42
0.093599
  0
VERTEX
  8
0
 10
253.617932
 20
147.545683
 42
0.081259
  0
VERTEX
  8
0
 10
255.612008
 20
147.106909
 42
0.013607
  0
VERTEX
  8
0
 10
259.539637
 20
147.000000
 42
0.015032
  0
VERTEX
  8
0
 10
263.020262
 20
147.104666
 42
0.051837
  0
VERTEX
  8
0
 10
265.244656
 20
147.472098
 42
0.067813
  0
VERTEX
  8
0
 10
267.017301
 20
148.227215
 42
0.040368
  0
VERTEX
  8
0
 10
268.889270
 20
149.560281
 42
0.042369
  0
VERTEX
  8
0
 10
270.177194
 20
150.845108
 42
0.038231
  0
VERTEX
  8
0
 10
271.279677
 20
152.371608
 42
0.039177
  0
VERTEX
  8
0
 10
272.110000
 20
154.003176
 42
0.051794
  0
VERTEX
  8
0
 10
272.584849
 20
155.600591
 42
-0.045826
  0
VERTEX
  8
0
 10
273.100702
 20
157.414773
 42
-0.079933
  0
VERTEX
  8
0
 10
273.886770
 20
158.762088
 42
-0.071964
  0
VERTEX
  8
0
 10
275.117857
 20
159.884916
 42
-0.031014
  0
VERTEX
  8
0
 10
277.034638
 20
161.017671
 42
0.031952
  0
VERTEX
  8
0
 10
278.638470
 20
161.969545
 42
0.022392
  0
VERTEX
  8
0
 10
280.318636
 20
163.231726
 42
0.022680
  0
VERTEX
  8
0
 10
281.824825
 20
164.591659
 42
0.043090
  0
VERTEX
  8
0
 10
282.882344
 20
165.834767
 42
-0.057928
  0
VERTEX
  8
0
 10
284.299827
 20
167.404414
 42
-0.079292
  0
VERTEX
  8
0
 10
285.908091
 20
168.417906
 42
-0.050096
  0
VERTEX
  8
0
 10
288.267723
 20
169.158056
 42
-0.010976
  0
VERTEX
  8
0
 10
292.456135
 20
169.928406
 42
0.009213
  0
VERTEX
  8
0
 10
295.964119
 20
170.560825
 42
0.004712
  0
VERTEX
  8
0
 10
300.342640
 20
171.476752
 42
0.004680
  0
VERTEX
  8
0
 10
304.837421
 20
172.505485
 42
0.007016
  0
VERTEX
  8
0
 10
308.739576
 20
173.495175
 42
-0.008548
  0
VERTEX
  8
0
 10
312.146767
 20
174.348226
 42
-0.013093
  0
VERTEX
  8
0
 10
315.128808
 20
174.959067
 42
-0.007545
  0
VERTEX
  8
0
 10
317.611977
 20
175.361762
 42
-0.234334
  0
VERTEX
  8
0
 10
318.188282
 20
175.174176
 42
-0.112877
  0
VERTEX
  8
0
 10
318.546087
 20
174.617116
 42
-0.003999
  0
VERTEX
  8
0
 10
319.398017
 20
172.194489
 42
-0.007221
  0
VERTEX
  8
0
 10
320.346165
 20
169.291703
 42
-0.004973
  0
VERTEX
  8
0
 10
321.340002
 20
165.977277
 42
-0.025354
  0
VERTEX
  8
0
 10
323.640961
 20
156.180017
 42
-0.014927
  0
VERTEX
  8
0
 10
325.440498
 20
144.283409
 42
-0.014357
  0
VERTEX
  8
0
 10
326.609577
 20
131.551024
 42
-0.015742
  0
VERTEX
  8
0
 10
326.998446
 20
119.158257
 42
-0.012989
  0
VERTEX
  8
0
 10
326.725597
 20
108.702773
 42
-0.064944
  0
VERTEX
  8
0
 10
325.667923
 20
102.948348
 42
-0.123753
  0
VERTEX
  8
0
 10
323.542934
 20
99.541802
 42
-0.114226
  0
VERTEX
  8
0
 10
320.000000
 20
97.421221
 42
-0.000049
  0
VERTEX
  8
0
 10
318.189145
 20
96.837597
 42
-0.000015
  0
VERTEX
  8
0
 10
315.471875
 20
95.962224
 42
-0.000015
  0
VERTEX
  8
0
 10
312.436679
 20
94.984635
 42
-0.000017
  0
VERTEX
  8
0
 10
309.500000
 20
94.038983
 42
0.019299
  0
VERTEX
  8
0
 10
305.941646
 20
92.739722
 42
0.006114
  0
VERTEX
  8
0
 10
300.737500
 20
90.533844
 42
0.006095
  0
VERTEX
  8
0
 10
294.990538
 20
87.930577
 42
0.006741
  0
VERTEX
  8
0
 10
289.500000
 20
85.271562
 42
-0.014032
  0
VERTEX
  8
0
 10
278.916664
 20
80.335318
 42
-0.023061
  0
VERTEX
  8
0
 10
269.678666
 20
76.834385
 42
-0.024144
  0
VERTEX
  8
0
 10
260.468224
 20
74.306560
 42
-0.017447
  0
VERTEX
  8
0
 10
250.000000
 20
72.350922
 42
-0.046502
  0
VERTEX
  8
0
 10
233.208723
 20
71.395164
 42
-0.034852
  0
VERTEX
  8
0
 10
214.781498
 20
73.351225
 42
-0.030751
  0
VERTEX
  8
0
 10
194.548141
 20
78.236526
 42
-0.021149
  0
VERTEX
  8
0
 10
172.302059
 20
86.123041
 42
0.012225
  0
VERTEX
  8
0
 10
160.015965
 20
90.726996
 42
0.029026
  0
VERTEX
  8
0
 10
150.627903
 20
93.386469
 42
0.030323
  0
VERTEX
  8
0
 10
141.243894
 20
94.875704
 42
0.014515
  0
VERTEX
  8
0
 10
129.063375
 20
95.701963
 42
-0.002863
  0
VERTEX
  8
0
 10
119.461138
 20
96.128853
 42
-0.029652
  0
VERTEX
  8
0
 10
115.527647
 20
96.561062
 42
-0.075848
  0
VERTEX
  8
0
 10
113.227010
 20
97.323806
 42
-0.088190
  0
VERTEX
  8
0
 10
111.390699
 20
98.712439
 42
-0.088686
  0
VERTEX
  8
0
 10
109.634644
 20
101.449121
 42
-0.054960
  0
VERTEX
  8
0
 10
108.562477
 20
105.125334
 42
-0.044509
  0
VERTEX
  8
0
 10
108.170082
 20
109.730165
 42
-0.025709
  0
VERTEX
  8
0
 10
108.477962
 20
115.286101
 42
-0.009694
  0
VERTEX
  8
0
 10
109.330799
 20
122.010641
 42
-0.162862
  0
VERTEX
  8
0
 10
110.329826
 20
123.985050
 42
-0.183600
  0
VERTEX
  8
0
 10
112.275798
 20
124.845506
 42
-0.012995
  0
VERTEX
  8
0
 10
118.317388
 20
125.009769
 42
0.012869
  0
VERTEX
  8
0
 10
122.654579
 20
125.126596
 42
0.030767
  0
VERTEX
  8
0
 10
125.852145
 20
125.493290
 42
0.036900
  0
VERTEX
  8
0
 10
128.611352
 20
126.196248
 42
0.028154
  0
VERTEX
  8
0
 10
131.507279
 20
127.351310
 42
0.049605
  0
VERTEX
  8
0
 10
135.814987
 20
129.903948
 42
0.050035
  0
VERTEX
  8
0
 10
139.521879
 20
133.248492
 42
0.052022
  0
VERTEX
  8
0
 10
142.362057
 20
137.121034
 42
0.064372
  0
VERTEX
  8
0
 10
144.103583
 20
141.236870
 42
0.063854
  0
VERTEX
  8
0
 10
145.075881
 20
147.933631
 42
0.016374
  0
VERTEX
  8
0
 10
144.899373
 20
158.896919
 42
0.016415
  0
VERTEX
  8
0
 10
144.004392
 20
169.830975
 42
0.063061
  0
VERTEX
  8
0
 10
142.382519
 20
176.445555
 42
-0.023850
  0
VERTEX
  8
0
 10
142.185772
 20
177.041820
 42
-0.044019
  0
VERTEX
  8
0
 10
142.092925
 20
177.543382
 42
-0.064392
  0
VERTEX
  8
0
 10
142.104547
 20
177.889748
 42
-0.367481
  0
VERTEX
  8
0
 10
142.234300
 20
178.000000
 42
-0.059056
  0
VERTEX
  8
0
 10
142.582942
 20
177.958677
 42
-0.000211
  0
VERTEX
  8
0
 10
146.636580
 20
176.982265
 42
-0.001127
  0
VERTEX
  8
0
 10
151.227141
 20
175.863513
 42
-0.000707
  0
SEQEND
  0
POLYLINE
  8
0
 66
1
 70
1
  0
VERTEX
  8
0
 10
212.283764
 20
166.372735
 42
-0.009795
  0
VERTEX
  8
0
 10
218.057860
 20
165.816388
 42
-0.070774
  0
VERTEX
  8
0
 10
220.751940
 20
165.108478
 42
-0.269818
  0
VERTEX
  8
0
 10
221.541930
 20
164.059410
 42
-0.205596
  0
VERTEX
  8
0
 10
221.126316
 20
162.652201
 42
-0.248847
  0
VERTEX
  8
0
 10
217.922588
 20
161.334226
 42
-0.016936
  0
VERTEX
  8
0
 10
207.837782
 20
162.666752
 42
-0.020945
  0
VERTEX
  8
0
 10
197.918852
 20
164.751081
 42
-0.134422
  0
VERTEX
  8
0
 10
193.500000
 20
167.259179
 42
-0.460168
  0
VERTEX
  8
0
 10
193.527717
 20
167.626826
 42
-0.137416
  0
VERTEX
  8
0
 10
194.130714
 20
167.853708
 42
-0.039213
  0
VERTEX
  8
0
 10
195.605884
 20
167.866050
 42
-0.009878
  0
VERTEX
  8
0
 10
198.000000
 20
167.650543
 42
0.003644
  0
VERTEX
  8
0
 10
200.717205
 20
167.371761
 42
0.001433
  0
VERTEX
  8
0
 10
204.464606
 20
167.025695
 42
0.001418
  0
VERTEX
  8
0
 10
208.517907
 20
166.674677
 42
0.001770
  0
SEQEND
  0
POLYLINE
  8
0
 66
1
 70
1
  0
VERTEX
  8
0
 10
273.000000
 20
166.606989
 42
-0.222225
  0
VERTEX
  8
0
 10
272.912889
 20
166.420671
 42
-0.030693
  0
VERTEX
  8
0
 10
272.559375
 20
166.160341
 42
-0.030395
  0
VERTEX
  8
0
 10
272.074558
 20
165.887494
 42
-0.021360
  0
VERTEX
  8
0
 10
271.500000
 20
165.638374
 42
-0.055937
  0
VERTEX
  8
0
 10
270.925634
 20
165.488865
 42
-0.100118
  0
VERTEX
  8
0
 10
270.440625
 20
165.516384
 42
-0.147206
  0
VERTEX
  8
0
 10
270.122486
 20
165.710807
 42
-0.184534
  0
VERTEX
  8
0
 10
270.000000
 20
166.031385
 42
-0.152681
  0
VERTEX
  8
0
 10
270.115494
 20
166.400789
 42
-0.098158
  0
VERTEX
  8
0
 10
270.440625
 20
166.715469
 42
-0.080880
  0
VERTEX
  8
0
 10
270.926468
 20
166.927770
 42
-0.062722
  0
VERTEX
  8
0
 10
271.500000
 20
167.000000
 42
-0.024748
  0
VERTEX
  8
0
 10
272.074824
 20
166.971531
 42
-0.039339
  0
VERTEX
  8
0
 10
272.559375
 20
166.884553
 42
-0.046727
  0
VERTEX
  8
0
 10
272.903916
 20
166.758929
 42
-0.289661
  0
SEQEND
  0
POLYLINE
  8
0
 66
1
 70
1
  0
VERTEX
  8
0
 10
147.500000
 20
87.390129
 42
-0.021153
  0
VERTEX
  8
0
 10
151.400534
 20
86.469892
 42
-0.008390
  0
VERTEX
  8
0
 10
156.675000
 20
84.891516
 42
-0.008286
  0
VERTEX
  8
0
 10
162.319577
 20
82.995134
 42
-0.010296
  0
VERTEX
  8
0
 10
167.500000
 20
81.037640
 42
0.012171
  0
VERTEX
  8
0
 10
188.261519
 20
73.281465
 42
0.027566
  0
VERTEX
  8
0
 10
204.380825
 20
68.679973
 42
0.032139
  0
VERTEX
  8
0
 10
219.295701
 20
66.292995
 42
0.023726
  0
VERTEX
  8
0
 10
236.000000
 20
65.507393
 42
0.021094
  0
VERTEX
  8
0
 10
252.067194
 20
66.192755
 42
0.038955
  0
VERTEX
  8
0
 10
264.958699
 20
68.308687
 42
0.039346
  0
VERTEX
  8
0
 10
277.280596
 20
72.381178
 42
0.021998
  0
VERTEX
  8
0
 10
291.562733
 20
79.137177
 42
-0.010915
  0
VERTEX
  8
0
 10
299.953543
 20
83.336346
 42
-0.017907
  0
VERTEX
  8
0
 10
307.249732
 20
86.476036
 42
-0.013977
  0
VERTEX
  8
0
 10
313.179904
 20
88.591152
 42
-0.220531
  0
VERTEX
  8
0
 10
315.255661
 20
88.341993
 42
-0.275314
  0
VERTEX
  8
0
 10
316.358349
 20
86.223435
 42
-0.015637
  0
VERTEX
  8
0
 10
315.678207
 20
78.574274
 42
-0.023550
  0
VERTEX
  8
0
 10
314.364374
 20
70.782570
 42
-0.060291
  0
VERTEX
  8
0
 10
312.488875
 20
65.387733
 42
-0.055584
  0
VERTEX
  8
0
 10
309.327713
 20
60.412939
 42
-0.107370
  0
VERTEX
  8
0
 10
305.676721
 20
57.462019
 42
-0.083349
  0
VERTEX
  8
0
 10
300.496589
 20
55.862354
 42
-0.024056
  0
VERTEX
  8
0
 10
292.120282
 20
55.147786
 42
-0.016694
  0
VERTEX
  8
0
 10
284.349428
 20
55.119685
 42
-0.045728
  0
VERTEX
  8
0
 10
278.905511
 20
55.782520
 42
-0.061795
  0
VERTEX
  8
0
 10
274.688913
 20
57.255078
 42
-0.060093
  0
VERTEX
  8
0
 10
270.916282
 20
59.723898
 42
0.000000
  0
VERTEX
  8
0
 10
267.742431
 20
62.394518
 42
0.000000
  0
VERTEX
  8
0
 10
219.156163
 20
62.447259
 42
0.000000
  0
VERTEX
  8
0
 10
170.569895
 20
62.500000
 42
0.000000
  0
VERTEX
  8
0
 10
168.194829
 20
59.834376
 42
-0.074852
  0
VERTEX
  8
0
 10
164.441960
 20
56.714530
 42
-0.059876
  0
VERTEX
  8
0
 10
159.645174
 20
54.546382
 42
-0.049504
  0
VERTEX
  8
0
 10
153.630711
 20
53.289702
 42
-0.028125
  0
VERTEX
  8
0
 10
146.198682
 20
52.911709
 42
-0.009250
  0
VERTEX
  8
0
 10
140.846936
 20
53.039739
 42
-0.032290
  0
VERTEX
  8
0
 10
137.414019
 20
53.408384
 42
-0.042984
  0
VERTEX
  8
0
 10
134.597551
 20
54.149933
 42
-0.027920
  0
VERTEX
  8
0
 10
131.494145
 20
55.459063
 42
-0.063734
  0
VERTEX
  8
0
 10
126.835615
 20
58.526591
 42
-0.108334
  0
VERTEX
  8
0
 10
124.041577
 20
62.237552
 42
-0.074536
  0
VERTEX
  8
0
 10
122.452419
 20
67.748607
 42
-0.018304
  0
VERTEX
  8
0
 10
121.552027
 20
77.163786
 42
-0.003262
  0
VERTEX
  8
0
 10
121.184792
 20
84.190780
 42
-0.034295
  0
VERTEX
  8
0
 10
121.250607
 20
87.067601
 42
-0.108738
  0
VERTEX
  8
0
 10
121.705748
 20
88.498005
 42
-0.217291
  0
VERTEX
  8
0
 10
122.653057
 20
89.171701
 42
-0.055725
  0
VERTEX
  8
0
 10
126.401886
 20
89.468171
 42
-0.009791
  0
VERTEX
  8
0
 10
133.474087
 20
89.100103
 42
-0.011311
  0
VERTEX
  8
0
 10
141.068649
 20
88.382571
 42
-0.018144
  0
SEQEND
  0
POLYLINE
  8
0
 66
1
 70
1
  0
VERTEX
  8
0
 10
113.995080
 20
424.993090
 42
-0.054720
  0
VERTEX
  8
0
 10
112.769661
 20
423.618556
 42
-0.025605
  0
VERTEX
  8
0
 10
110.916618
 20
422.113447
 42
-0.024730
  0
VERTEX
  8
0
 10
108.762926
 20
420.697769
 42
-0.028925
  0
VERTEX
  8
0
 10
106.587091
 20
419.580935
 42
0.048141
  0
VERTEX
  8
0
 10
99.023982
 20
415.324638
 42
0.030629
  0
VERTEX
  8
0
 10
91.100246
 20
409.046504
 42
0.026579
  0
VERTEX
  8
0
 10
84.583730
 20
402.542660
 42
0.185387
  0
VERTEX
  8
0
 10
83.000000
 20
398.418056
 42
-0.154903
  0
VERTEX
  8
0
 10
82.797513
 20
397.780147
 42
-0.031593
  0
VERTEX
  8
0
 10
82.045312
 20
396.845950
 42
-0.030513
  0
VERTEX
  8
0
 10
80.994232
 20
395.829337
 42
-0.024517
  0
VERTEX
  8
0
 10
79.750000
 20
394.866274
 42
0.009756
  0
VERTEX
  8
0
 10
78.455861
 20
393.924309
 42
0.011098
  0
VERTEX
  8
0
 10
77.254872
 20
392.971072
 42
0.010343
  0
VERTEX
  8
0
 10
76.272755
 20
392.120448
 42
0.059155
  0
VERTEX
  8
0
 10
75.819775
 20
391.602062
 42
0.202618
  0
VERTEX
  8
0
 10
75.539954
 20
390.222865
 42
0.117645
  0
VERTEX
  8
0
 10
76.262027
 20
388.664350
 42
0.102297
  0
VERTEX
  8
0
 10
77.723028
 20
387.436679
 42
0.124372
  0
VERTEX
  8
0
 10
79.451407
 20
387.000000
 42
0.142365
  0
VERTEX
  8
0
 10
83.651175
 20
388.220538
 42
0.018633
  0
VERTEX
  8
0
 10
91.395224
 20
393.551796
 42
0.020500
  0
VERTEX
  8
0
 10
100.271984
 20
400.747375
 42
0.016046
  0
VERTEX
  8
0
 10
109.310634
 20
409.239951
 42
0.003530
  0
VERTEX
  8
0
 10
116.260938
 20
416.302498
 42
0.029444
  0
VERTEX
  8
0
 10
119.188847
 20
419.698882
 42
0.071033
  0
VERTEX
  8
0
 10
120.503163
 20
422.044384
 42
0.116852
  0
VERTEX
  8
0
 10
120.810634
 20
424.286529
 42
0.105448
  0
VERTEX
  8
0
 10
120.001168
 20
426.844429
 42
0.242304
  0
VERTEX
  8
0
 10
118.357757
 20
427.918196
 42
0.193657
  0
VERTEX
  8
0
 10
116.205681
 20
427.301038
 42
0.072668
  0
SEQEND
  0
POLYLINE
  8
0
 66
1
 70
1
  0
VERTEX
  8
0
 10
137.246297
 20
425.750000
 42
0.171894
  0
VERTEX
  8
0
 10
136.407658
 20
423.329992
 42
0.030906
  0
VERTEX
  8
0
 10
136.740063
 20
418.496353
 42
0.029644
  0
VERTEX
  8
0
 10
137.648300
 20
413.766779
 42
0.210636
  0
VERTEX
  8
0
 10
139.054086
 20
411.971054
 42
0.099931
  0
VERTEX
  8
0
 10
141.281344
 20
411.301079
 42
0.241872
  0
VERTEX
  8
0
 10
142.831002
 20
411.922965
 42
0.145492
  0
VERTEX
  8
0
 10
143.744488
 20
413.938227
 42
0.034170
  0
VERTEX
  8
0
 10
144.000000
 20
417.672730
 42
0.017046
  0
VERTEX
  8
0
 10
143.923897
 20
419.904435
 42
0.017737
  0
VERTEX
  8
0
 10
143.695915
 20
422.096163
 42
0.017722
  0
VERTEX
  8
0
 10
143.365272
 20
423.971059
 42
0.070466
  0
VERTEX
  8
0
 10
142.964816
 20
425.065741
 42
0.121040
  0
VERTEX
  8
0
 10
141.825841
 20
426.332570
 42
0.120198
  0
VERTEX
  8
0
 10
140.226584
 20
426.931502
 42
0.123424
  0
VERTEX
  8
0
 10
138.564491
 20
426.720092
 42
0.131912
  0
SEQEND
  0
POLYLINE
  8
0
 66
1
 70
1
  0
VERTEX
  8
0
 10
127.818673
 20
396.844217
 42
-0.038888
  0
VERTEX
  8
0
 10
117.498239
 20
386.624677
 42
-0.024660
  0
VERTEX
  8
0
 10
104.053123
 20
376.330513
 42
-0.021588
  0
VERTEX
  8
0
 10
90.875207
 20
368.051041
 42
-0.130175
  0
VERTEX
  8
0
 10
83.130678
 20
366.000000
 42
0.066929
  0
VERTEX
  8
0
 10
80.474130
 20
365.642800
 42
0.109556
  0
VERTEX
  8
0
 10
78.474040
 20
364.587355
 42
0.143026
  0
VERTEX
  8
0
 10
77.436934
 20
363.014258
 42
0.152689
  0
VERTEX
  8
0
 10
77.444837
 20
361.173804
 42
0.082844
  0
VERTEX
  8
0
 10
78.011095
 20
360.066307
 42
0.133001
  0
VERTEX
  8
0
 10
78.838599
 20
359.412876
 42
0.082683
  0
VERTEX
  8
0
 10
80.175842
 20
359.087114
 42
0.018493
  0
VERTEX
  8
0
 10
82.530367
 20
359.000000
 42
0.055587
  0
VERTEX
  8
0
 10
86.543385
 20
359.447527
 42
0.027571
  0
VERTEX
  8
0
 10
91.476131
 20
360.851270
 42
0.026759
  0
VERTEX
  8
0
 10
96.538698
 20
362.907924
 42
0.032919
  0
VERTEX
  8
0
 10
101.000000
 20
365.375352
 42
0.006311
  0
VERTEX
  8
0
 10
109.102045
 20
370.725750
 42
0.016149
  0
VERTEX
  8
0
 10
114.788731
 20
374.859393
 42
0.018170
  0
VERTEX
  8
0
 10
119.798970
 20
379.055381
 42
0.010150
  0
VERTEX
  8
0
 10
125.598824
 20
384.500000
 42
0.005503
  0
VERTEX
  8
0
 10
129.250153
 20
388.149303
 42
0.006567
  0
VERTEX
  8
0
 10
132.608240
 20
391.671589
 42
0.005737
  0
VERTEX
  8
0
 10
135.362012
 20
394.706124
 42
0.042069
  0
VERTEX
  8
0
 10
136.533917
 20
396.275623
 42
0.017203
  0
VERTEX
  8
0
 10
137.534360
 20
398.011330
 42
0.125781
  0
VERTEX
  8
0
 10
137.758969
 20
398.936264
 42
0.152895
  0
VERTEX
  8
0
 10
137.487155
 20
399.769127
 42
0.029173
  0
VERTEX
  8
0
 10
136.476811
 20
401.025623
 42
0.019936
  0
VERTEX
  8
0
 10
135.735802
 20
401.781553
 42
0.024788
  0
VERTEX
  8
0
 10
134.986844
 20
402.420027
 42
0.024322
  0
VERTEX
  8
0
 10
134.321199
 20
402.883016
 42
0.140692
  0
VERTEX
  8
0
 10
133.913685
 20
403.000000
 42
0.194703
  0
VERTEX
  8
0
 10
133.436375
 20
402.806808
 42
0.005292
  0
VERTEX
  8
0
 10
131.803036
 20
401.191739
 42
0.010225
  0
VERTEX
  8
0
 10
129.913155
 20
399.203292
 42
0.006742
  0
SEQEND
  0
POLYLINE
  8
0
 66
1
 70
1
  0
VERTEX
  8
0
 10
191.361626
 20
295.500000
 42
0.125206
  0
VERTEX
  8
0
 10
191.145521
 20
293.665998
 42
0.162023
  0
VERTEX
  8
0
 10
191.882573
 20
292.152105
 42
0.087700
  0
VERTEX
  8
0
 10
193.840386
 20
290.749935
 42
0.020271
  0
VERTEX
  8
0
 10
197.580397
 20
289.142069
 42
0.008861
  0
VERTEX
  8
0
 10
200.867903
 20
287.950360
 42
0.055905
  0
VERTEX
  8
0
 10
202.605052
 20
287.564912
 42
0.116537
  0
VERTEX
  8
0
 10
203.776341
 20
287.712534
 42
0.107410
  0
VERTEX
  8
0
 10
204.797931
 20
288.369359
 42
0.152544
  0
VERTEX
  8
0
 10
205.559250
 20
289.822323
 42
0.231010
  0
VERTEX
  8
0
 10
205.179942
 20
291.170991
 42
0.091176
  0
VERTEX
  8
0
 10
203.324768
 20
292.612962
 42
0.015624
  0
VERTEX
  8
0
 10
199.283630
 20
294.553270
 42
0.006570
  0
VERTEX
  8
0
 10
195.025291
 20
296.369999
 42
0.067896
  0
VERTEX
  8
0
 10
193.182380
 20
296.849466
 42
0.202208
  0
VERTEX
  8
0
 10
192.121501
 20
296.544299
 42
0.132075
  0
SEQEND
  0
POLYLINE
  8
0
 66
1
 70
1
  0
VERTEX
  8
0
 10
296.000000
 20
294.545040
 42
0.014463
  0
VERTEX
  8
0
 10
293.157010
 20
293.221185
 42
0.060874
  0
VERTEX
  8
0
 10
291.591717
 20
292.181455
 42
0.106622
  0
VERTEX
  8
0
 10
290.786013
 20
291.122562
 42
0.109938
  0
VERTEX
  8
0
 10
290.500000
 20
289.837497
 42
0.197585
  0
VERTEX
  8
0
 10
291.115985
 20
288.339568
 42
0.204482
  0
VERTEX
  8
0
 10
292.596158
 20
287.736141
 42
0.082090
  0
VERTEX
  8
0
 10
295.305751
 20
288.229517
 42
0.018139
  0
VERTEX
  8
0
 10
299.704717
 20
289.987531
 42
0.018001
  0
VERTEX
  8
0
 10
301.980175
 20
291.093645
 42
0.075647
  0
VERTEX
  8
0
 10
303.196119
 20
291.997979
 42
0.128825
  0
VERTEX
  8
0
 10
303.749994
 20
292.956260
 42
0.103811
  0
VERTEX
  8
0
 10
303.822705
 20
294.147603
 42
0.100450
  0
VERTEX
  8
0
 10
303.208699
 20
295.849983
 42
0.248337
  0
VERTEX
  8
0
 10
302.103290
 20
296.508979
 42
0.102454
  0
VERTEX
  8
0
 10
300.123559
 20
296.202815
 42
0.012311
  0
SEQEND
  0
POLYLINE
  8
0
 66
1
 70
1
  0
VERTEX
  8
0
 10
293.897883
 20
275.730067
 42
0.064589
  0
VERTEX
  8
0
 10
291.187455
 20
273.362628
 42
0.053539
  0
VERTEX
  8
0
 10
288.969461
 20
270.235119
 42
0.054406
  0
VERTEX
  8
0
 10
287.498835
 20
266.768211
 42
0.073124
  0
VERTEX
  8
0
 10
287.001554
 20
263.397883
 42
0.090578
  0
VERTEX
  8
0
 10
287.516845
 20
260.568758
 42
0.047150
  0
VERTEX
  8
0
 10
289.098511
 20
257.336301
 42
0.044767
  0
VERTEX
  8
0
 10
291.411731
 20
254.221359
 42
0.051324
  0
VERTEX
  8
0
 10
294.148256
 20
251.722660
 42
0.136901
  0
VERTEX
  8
0
 10
298.844831
 20
249.926204
 42
0.090594
  0
VERTEX
  8
0
 10
304.632906
 20
250.433792
 42
0.088155
  0
VERTEX
  8
0
 10
310.009628
 20
252.991510
 42
0.118974
  0
VERTEX
  8
0
 10
313.524244
 20
257.046883
 42
0.169084
  0
VERTEX
  8
0
 10
314.784233
 20
265.844620
 42
0.155553
  0
VERTEX
  8
0
 10
310.380529
 20
273.879146
 42
0.160766
  0
VERTEX
  8
0
 10
302.271662
 20
277.716271
 42
0.179938
  0
SEQEND
  0
POLYLINE
  8
0
 66
1
 70
1
  0
VERTEX
  8
0
 10
187.019933
 20
275.296532
 42
0.065916
  0
VERTEX
  8
0
 10
183.395282
 20
272.772937
 42
0.081579
  0
VERTEX
  8
0
 10
180.850299
 20
269.548469
 42
0.081389
  0
VERTEX
  8
0
 10
179.466535
 20
265.673001
 42
0.065247
  0
VERTEX
  8
0
 10
179.243838
 20
261.242310
 42
0.152345
  0
VERTEX
  8
0
 10
182.538973
 20
253.050755
 42
0.165769
  0
VERTEX
  8
0
 10
189.805242
 20
248.521155
 42
0.164883
  0
VERTEX
  8
0
 10
198.355936
 20
249.361355
 42
0.150751
  0
VERTEX
  8
0
 10
205.005402
 20
255.240860
 42
0.103433
  0
VERTEX
  8
0
 10
206.751008
 20
260.153818
 42
0.088102
  0
VERTEX
  8
0
 10
206.527990
 20
265.659052
 42
0.088519
  0
VERTEX
  8
0
 10
204.427458
 20
270.728510
 42
0.105866
  0
VERTEX
  8
0
 10
200.797741
 20
274.395124
 42
0.070967
  0
VERTEX
  8
0
 10
197.623675
 20
275.880938
 42
0.057760
  0
VERTEX
  8
0
 10
193.927276
 20
276.556334
 42
0.058428
  0
VERTEX
  8
0
 10
190.221255
 20
276.365709
 42
0.077262
  0
SEQEND
  0
POLYLINE
  8
0
 66
1
 70
1
  0
VERTEX
  8
0
 10
261.250000
 20
261.282394
 42
0.118417
  0
VERTEX
  8
0
 10
260.771796
 20
260.968661
 42
0.067186
  0
VERTEX
  8
0
 10
260.367188
 20
260.402224
 42
0.061110
  0
VERTEX
  8
0
 10
260.093165
 20
259.683012
 42
0.060563
  0
VERTEX
  8
0
 10
260.000000
 20
258.916667
 42
-0.210515
  0
VERTEX
  8
0
 10
259.424324
 20
257.609957
 42
-0.176006
  0
VERTEX
  8
0
 10
258.012118
 20
257.025477
 42
-0.103881
  0
VERTEX
  8
0
 10
255.878272
 20
257.376517
 42
-0.052541
  0
VERTEX
  8
0
 10
253.444617
 20
258.628245
 42
0.040912
  0
VERTEX
  8
0
 10
251.860930
 20
259.489845
 42
0.130197
  0
VERTEX
  8
0
 10
250.681059
 20
259.677280
 42
0.085187
  0
VERTEX
  8
0
 10
249.287130
 20
259.289460
 42
0.011607
  0
VERTEX
  8
0
 10
246.572299
 20
257.929033
 42
-0.013164
  0
VERTEX
  8
0
 10
244.138313
 20
256.718803
 42
-0.067215
  0
VERTEX
  8
0
 10
242.698502
 20
256.272047
 42
-0.121585
  0
VERTEX
  8
0
 10
241.623613
 20
256.353186
 42
-0.094126
  0
VERTEX
  8
0
 10
240.592499
 20
256.923233
 42
-0.045621
  0
VERTEX
  8
0
 10
239.983173
 20
257.530739
 42
-0.040695
  0
VERTEX
  8
0
 10
239.467797
 20
258.261310
 42
-0.042960
  0
VERTEX
  8
0
 10
239.113760
 20
258.999572
 42
-0.090569
  0
VERTEX
  8
0
 10
239.000000
 20
259.622445
 42
0.143690
  0
VERTEX
  8
0
 10
238.845850
 20
260.147765
 42
0.099524
  0
VERTEX
  8
0
 10
238.412500
 20
260.595343
 42
0.083977
  0
VERTEX
  8
0
 10
237.764504
 20
260.896926
 42
0.067109
  0
VERTEX
  8
0
 10
237.000000
 20
261.000000
 42
0.257163
  0
VERTEX
  8
0
 10
235.563519
 20
260.208861
 42
0.135992
  0
VERTEX
  8
0
 10
234.957244
 20
258.203836
 42
0.101896
  0
VERTEX
  8
0
 10
235.415805
 20
255.680679
 42
0.113575
  0
VERTEX
  8
0
 10
236.828741
 20
253.654988
 42
0.127396
  0
VERTEX
  8
0
 10
239.080868
 20
252.476379
 42
0.051909
  0
VERTEX
  8
0
 10
242.537422
 20
252.042089
 42
0.051758
  0
VERTEX
  8
0
 10
246.059510
 20
252.332116
 42
0.111911
  0
VERTEX
  8
0
 10
248.540455
 20
253.405923
 42
-0.043452
  0
VERTEX
  8
0
 10
249.681175
 20
254.096736
 42
-0.114920
  0
VERTEX
  8
0
 10
250.604721
 20
254.311846
 42
-0.095316
  0
VERTEX
  8
0
 10
251.632227
 20
254.114176
 42
-0.024289
  0
VERTEX
  8
0
 10
253.181925
 20
253.405923
 42
0.076384
  0
VERTEX
  8
0
 10
257.001115
 20
252.120001
 42
0.121970
  0
VERTEX
  8
0
 10
260.418482
 20
252.361106
 42
0.140308
  0
VERTEX
  8
0
 10
263.007080
 20
254.101728
 42
0.116532
  0
VERTEX
  8
0
 10
264.509553
 20
257.074203
 42
0.093975
  0
VERTEX
  8
0
 10
264.601144
 20
258.957727
 42
0.130797
  0
VERTEX
  8
0
 10
263.948494
 20
260.506019
 42
0.159606
  0
VERTEX
  8
0
 10
262.729552
 20
261.331401
 42
0.157165
  0
SEQEND
  0
POLYLINE
  8
0
 66
1
 70
1
  0
VERTEX
  8
0
 10
300.000000
 20
156.305788
 42
0.009646
  0
VERTEX
  8
0
 10
295.037283
 20
155.917022
 42
0.044490
  0
VERTEX
  8
0
 10
292.207764
 20
155.383429
 42
0.085861
  0
VERTEX
  8
0
 10
290.528735
 20
154.579363
 42
0.147678
  0
VERTEX
  8
0
 10
289.586191
 20
153.364014
 42
0.094770
  0
VERTEX
  8
0
 10
289.451367
 20
152.612137
 42
0.059156
  0
VERTEX
  8
0
 10
289.567490
 20
151.721978
 42
0.056510
  0
VERTEX
  8
0
 10
289.901650
 20
150.836337
 42
0.065561
  0
VERTEX
  8
0
 10
290.413404
 20
150.095687
 42
0.115962
  0
VERTEX
  8
0
 10
291.574830
 20
149.293692
 42
0.067777
  0
VERTEX
  8
0
 10
293.226621
 20
148.892798
 42
0.035317
  0
VERTEX
  8
0
 10
295.834839
 20
148.808921
 42
0.006962
  0
VERTEX
  8
0
 10
300.513488
 20
149.054216
 42
0.014303
  0
VERTEX
  8
0
 10
305.752531
 20
149.552942
 42
0.063009
  0
VERTEX
  8
0
 10
308.753610
 20
150.317211
 42
0.128018
  0
VERTEX
  8
0
 10
310.358828
 20
151.487272
 42
0.167469
  0
VERTEX
  8
0
 10
310.984687
 20
153.178571
 42
0.183712
  0
VERTEX
  8
0
 10
310.623616
 20
154.196685
 42
0.041357
  0
VERTEX
  8
0
 10
309.298802
 20
155.517665
 42
0.041564
  0
VERTEX
  8
0
 10
307.769070
 20
156.605610
 42
0.174440
  0
VERTEX
  8
0
 10
306.678571
 20
156.815018
 42
-0.017953
  0
VERTEX
  8
0
 10
305.940751
 20
156.726215
 42
-0.001944
  0
VERTEX
  8
0
 10
304.230580
 20
156.589126
 42
-0.002384
  0
VERTEX
  8
0
 10
302.192318
 20
156.443484
 42
-0.001920
  0
SEQEND
  0
POLYLINE
  8
0
 66
1
 70
1
  0
VERTEX
  8
0
 10
159.957659
 20
152.920885
 42
0.038651
  0
VERTEX
  8
0
 10
159.379177
 20
151.604819
 42
0.146147
  0
VERTEX
  8
0
 10
159.337693
 20
150.715838
 42
0.132734
  0
VERTEX
  8
0
 10
159.791227
 20
149.900319
 42
0.029678
  0
VERTEX
  8
0
 10
160.977663
 20
148.817004
 42
0.047983
  0
VERTEX
  8
0
 10
162.029779
 20
148.120502
 42
0.032783
  0
VERTEX
  8
0
 10
163.337691
 20
147.531191
 42
0.033090
  0
VERTEX
  8
0
 10
164.686907
 20
147.126170
 42
0.055603
  0
VERTEX
  8
0
 10
165.860784
 20
146.991308
 42
-0.014613
  0
VERTEX
  8
0
 10
167.218782
 20
146.947134
 42
-0.004656
  0
VERTEX
  8
0
 10
169.236606
 20
146.803521
 42
-0.004642
  0
VERTEX
  8
0
 10
171.482764
 20
146.601614
 42
-0.005160
  0
VERTEX
  8
0
 10
173.646811
 20
146.364238
 42
0.012218
  0
VERTEX
  8
0
 10
176.584660
 20
146.083887
 42
0.074313
  0
VERTEX
  8
0
 10
178.102950
 20
146.202019
 42
0.135388
  0
VERTEX
  8
0
 10
179.081565
 20
146.730484
 42
0.078943
  0
VERTEX
  8
0
 10
179.893224
 20
147.800488
 42
0.127876
  0
VERTEX
  8
0
 10
180.546837
 20
150.506224
 42
0.275338
  0
VERTEX
  8
0
 10
179.458072
 20
152.263427
 42
0.083875
  0
VERTEX
  8
0
 10
175.885482
 20
153.413221
 42
0.008150
  0
VERTEX
  8
0
 10
166.840779
 20
154.574645
 42
0.010060
  0
VERTEX
  8
0
 10
163.458110
 20
154.884314
 42
0.076893
  0
VERTEX
  8
0
 10
161.871657
 20
154.753436
 42
0.145013
  0
VERTEX
  8
0
 10
160.857509
 20
154.167629
 42
0.066992
  0
SEQEND
  0
POLYLINE
  8
0
 66
1
 70
1
  0
VERTEX
  8
0
 10
127.354937
 20
114.482568
 42
0.225834
  0
VERTEX
  8
0
 10
127.568404
 20
111.744605
 42
0.172083
  0
VERTEX
  8
0
 10
129.883791
 20
109.762726
 42
0.068450
  0
VERTEX
  8
0
 10
135.109655
 20
108.536761
 42
0.014966
  0
VERTEX
  8
0
 10
144.352568
 20
107.946151
 42
0.011140
  0
VERTEX
  8
0
 10
147.636660
 20
107.908044
 42
0.034586
  0
VERTEX
  8
0
 10
149.843469
 20
108.084566
 42
0.053535
  0
VERTEX
  8
0
 10
151.302515
 20
108.466356
 42
0.162253
  0
VERTEX
  8
0
 10
152.087255
 20
109.106941
 42
0.035633
  0
VERTEX
  8
0
 10
152.780846
 20
110.397153
 42
0.156657
  0
VERTEX
  8
0
 10
152.875584
 20
111.245346
 42
0.136985
  0
VERTEX
  8
0
 10
152.462629
 20
112.054632
 42
0.024929
  0
VERTEX
  8
0
 10
151.250000
 20
113.246690
 42
0.110741
  0
VERTEX
  8
0
 10
149.888879
 20
114.001647
 42
0.026436
  0
VERTEX
  8
0
 10
147.355020
 20
114.602878
 42
0.020413
  0
VERTEX
  8
0
 10
143.762942
 20
115.106478
 42
0.007950
  0
VERTEX
  8
0
 10
138.764085
 20
115.520168
 42
0.003909
  0
VERTEX
  8
0
 10
132.421067
 20
115.893897
 42
0.035447
  0
VERTEX
  8
0
 10
129.649052
 20
115.838920
 42
0.098493
  0
VERTEX
  8
0
 10
128.173938
 20
115.403465
 42
0.182224
  0
SEQEND
  0
POLYLINE
  8
0
 66
1
 70
1
  0
VERTEX
  8
0
 10
273.627095
 20
112.294922
 42
-0.193977
  0
VERTEX
  8
0
 10
272.861837
 20
111.970046
 42
-0.000383
  0
VERTEX
  8
0
 10
259.356869
 20
111.733508
 42
-0.002592
  0
VERTEX
  8
0
 10
244.113838
 20
111.557245
 42
-0.001595
  0
VERTEX
  8
0
 10
226.165506
 20
111.500000
 42
0.000562
  0
VERTEX
  8
0
 10
195.101193
 20
111.465097
 42
0.010544
  0
VERTEX
  8
0
 10
185.336843
 20
111.237219
 42
0.029863
  0
VERTEX
  8
0
 10
180.491516
 20
110.730853
 42
0.327245
  0
VERTEX
  8
0
 10
179.201743
 20
109.412495
 42
0.292465
  0
VERTEX
  8
0
 10
180.354138
 20
106.880692
 42
0.111566
  0
VERTEX
  8
0
 10
184.157148
 20
105.482218
 42
0.026740
  0
VERTEX
  8
0
 10
192.916984
 20
104.809018
 42
0.001776
  0
VERTEX
  8
0
 10
218.163791
 20
104.312072
 42
0.005120
  0
VERTEX
  8
0
 10
243.508374
 20
104.162816
 42
0.009933
  0
VERTEX
  8
0
 10
263.752828
 20
104.653183
 42
0.006545
  0
VERTEX
  8
0
 10
279.654446
 20
105.563338
 42
0.156883
  0
VERTEX
  8
0
 10
283.747142
 20
107.205109
 42
0.087066
  0
VERTEX
  8
0
 10
284.241770
 20
107.787162
 42
0.053550
  0
VERTEX
  8
0
 10
284.612523
 20
108.609229
 42
0.051684
  0
VERTEX
  8
0
 10
284.812266
 20
109.530929
 42
0.063097
  0
VERTEX
  8
0
 10
284.798257
 20
110.412495
 42
0.105845
  0
VERTEX
  8
0
 10
284.399093
 20
111.496505
 42
0.147862
  0
VERTEX
  8
0
 10
283.622949
 20
112.168326
 42
0.076575
  0
VERTEX
  8
0
 10
282.198075
 20
112.558114
 42
0.013928
  0
VERTEX
  8
0
 10
279.461588
 20
112.794922
 42
0.015430
  0
VERTEX
  8
0
 10
277.473854
 20
112.849817
 42
0.020563
  0
VERTEX
  8
0
 10
275.669361
 20
112.769702
 42
0.018305
  0
VERTEX
  8
0
 10
274.205813
 20
112.590118
 42
0.157782
  0
SEQEND
  0
ENDSEC
  0
EOF
